<svg width="182" height="55" viewBox="0 0 182 55" fill="none" xmlns="http://www.w3.org/2000/svg">
<rect x="0.5" y="0.5" width="181" height="54" rx="27" fill="#1F1F1F"/>
<rect x="0.5" y="0.5" width="181" height="54" rx="27" stroke="#747775"/>
<path d="M57 23.791H21V18.1455C21 15.0809 23.6422 12.5001 26.7798 12.5001H51.2202C54.3578 12.5001 57 15.0809 57 18.1455V23.791Z" fill="#34A853"/>
<path d="M57 29H21V23C21 19.7429 23.6422 17 26.7798 17H51.2202C54.3578 17 57 19.7429 57 23V29Z" fill="#FBBC04"/>
<path d="M57 34H21V28C21 24.7429 23.6422 22 26.7798 22H51.2202C54.3578 22 57 24.7429 57 28V34Z" fill="#EA4335"/>
<path d="M21 25.2409L43.8493 30.4025C46.4795 31.0477 49.4384 30.4025 51.5753 28.7895L57 24.9183V37.0157C57 40.0804 54.3699 42.4999 51.2466 42.4999H26.7534C23.6301 42.4999 21 40.0804 21 37.0157V25.2409Z" fill="#4285F4"/>
<path d="M72.198 21.461L70.911 21.565C70.7637 21.5737 70.651 21.552 70.573 21.5C70.5037 21.4567 70.4387 21.357 70.378 21.201C70.326 21.0537 70.274 20.8543 70.222 20.603C70.1787 20.3517 70.1397 20.0267 70.105 19.628C70.0703 19.2207 70.053 18.731 70.053 18.159C70.053 17.1537 70.1223 16.2393 70.261 15.416C70.4083 14.584 70.638 13.8647 70.95 13.258C71.262 12.6513 71.6607 12.1833 72.146 11.854C72.64 11.5247 73.238 11.36 73.94 11.36C74.8153 11.36 75.448 11.6113 75.838 12.114C76.2367 12.6167 76.436 13.3967 76.436 14.454C76.436 15.0867 76.4187 15.676 76.384 16.222C76.3493 16.7593 76.3147 17.288 76.28 17.808C76.2453 18.328 76.228 18.8783 76.228 19.459C76.228 19.9357 76.2583 20.3083 76.319 20.577C76.3797 20.837 76.4577 21.032 76.553 21.162C76.6483 21.2833 76.7437 21.383 76.839 21.461L75.513 21.565C75.3657 21.5823 75.2357 21.5347 75.123 21.422C75.019 21.3093 74.9367 21.1057 74.876 20.811C74.824 20.5077 74.798 20.0787 74.798 19.524C74.798 18.9433 74.8153 18.3887 74.85 17.86C74.8933 17.3313 74.9323 16.7983 74.967 16.261C75.0017 15.7237 75.019 15.1647 75.019 14.584C75.019 14.0987 74.9713 13.713 74.876 13.427C74.7893 13.1323 74.655 12.9243 74.473 12.803C74.291 12.673 74.0613 12.608 73.784 12.608C73.3853 12.608 73.0387 12.7467 72.744 13.024C72.458 13.3013 72.2197 13.687 72.029 14.181C71.847 14.675 71.7083 15.26 71.613 15.936C71.5263 16.6033 71.483 17.327 71.483 18.107C71.483 18.8263 71.5133 19.4157 71.574 19.875C71.6433 20.3257 71.7343 20.6767 71.847 20.928C71.9597 21.1707 72.0767 21.3483 72.198 21.461ZM83.2198 21.708C82.5524 21.708 81.9241 21.5867 81.3348 21.344C80.7454 21.1013 80.2254 20.7633 79.7748 20.33C79.3328 19.888 78.9818 19.3723 78.7218 18.783C78.4704 18.185 78.3448 17.5393 78.3448 16.846C78.3448 16.1527 78.4704 15.5113 78.7218 14.922C78.9818 14.324 79.3328 13.8083 79.7748 13.375C80.2254 12.933 80.7454 12.5907 81.3348 12.348C81.9241 12.1053 82.5524 11.984 83.2198 11.984C83.9304 11.984 84.5848 12.1097 85.1828 12.361C85.7894 12.6123 86.2964 12.9633 86.7038 13.414L85.7158 14.389C85.5164 14.1637 85.2868 13.973 85.0268 13.817C84.7754 13.661 84.4981 13.544 84.1948 13.466C83.8914 13.3793 83.5664 13.336 83.2198 13.336C82.7604 13.336 82.3228 13.4183 81.9068 13.583C81.4908 13.7477 81.1224 13.986 80.8018 14.298C80.4898 14.6013 80.2428 14.9697 80.0608 15.403C79.8788 15.8277 79.7878 16.3087 79.7878 16.846C79.7878 17.3833 79.8788 17.8687 80.0608 18.302C80.2514 18.7267 80.5028 19.095 80.8148 19.407C81.1354 19.7103 81.5038 19.9443 81.9198 20.109C82.3358 20.2737 82.7734 20.356 83.2328 20.356C83.6574 20.356 84.0518 20.2953 84.4158 20.174C84.7884 20.0527 85.1134 19.8793 85.3908 19.654C85.6681 19.4287 85.8934 19.1557 86.0668 18.835C86.2401 18.5057 86.3484 18.1373 86.3918 17.73H83.2068V16.469H87.7308C87.7481 16.573 87.7654 16.6943 87.7828 16.833C87.8001 16.963 87.8088 17.0887 87.8088 17.21V17.223C87.8088 17.8903 87.6918 18.5013 87.4578 19.056C87.2324 19.6107 86.9161 20.0873 86.5088 20.486C86.1014 20.876 85.6161 21.1793 85.0528 21.396C84.4981 21.604 83.8871 21.708 83.2198 21.708ZM91.9947 21.708C91.31 21.708 90.7077 21.552 90.1877 21.24C89.6677 20.928 89.2603 20.5077 88.9657 19.979C88.671 19.4417 88.5237 18.8437 88.5237 18.185C88.5237 17.5263 88.671 16.9327 88.9657 16.404C89.2603 15.8667 89.6677 15.442 90.1877 15.13C90.7077 14.818 91.31 14.662 91.9947 14.662C92.6707 14.662 93.2687 14.8223 93.7887 15.143C94.3087 15.455 94.716 15.8753 95.0107 16.404C95.3053 16.9327 95.4527 17.5263 95.4527 18.185C95.4527 18.8437 95.3053 19.4417 95.0107 19.979C94.716 20.5077 94.3087 20.928 93.7887 21.24C93.2687 21.552 92.6707 21.708 91.9947 21.708ZM91.9947 20.421C92.3587 20.421 92.6967 20.3343 93.0087 20.161C93.3207 19.979 93.572 19.7233 93.7627 19.394C93.962 19.056 94.0617 18.653 94.0617 18.185C94.0617 17.717 93.962 17.3183 93.7627 16.989C93.572 16.651 93.3207 16.3953 93.0087 16.222C92.6967 16.04 92.3587 15.949 91.9947 15.949C91.6307 15.949 91.2883 16.04 90.9677 16.222C90.6557 16.3953 90.4 16.651 90.2007 16.989C90.01 17.3183 89.9147 17.717 89.9147 18.185C89.9147 18.653 90.01 19.056 90.2007 19.394C90.4 19.7233 90.66 19.979 90.9807 20.161C91.3013 20.3343 91.6393 20.421 91.9947 20.421ZM99.8658 21.708C99.1811 21.708 98.5788 21.552 98.0588 21.24C97.5388 20.928 97.1314 20.5077 96.8368 19.979C96.5421 19.4417 96.3948 18.8437 96.3948 18.185C96.3948 17.5263 96.5421 16.9327 96.8368 16.404C97.1314 15.8667 97.5388 15.442 98.0588 15.13C98.5788 14.818 99.1811 14.662 99.8658 14.662C100.542 14.662 101.14 14.8223 101.66 15.143C102.18 15.455 102.587 15.8753 102.882 16.404C103.176 16.9327 103.324 17.5263 103.324 18.185C103.324 18.8437 103.176 19.4417 102.882 19.979C102.587 20.5077 102.18 20.928 101.66 21.24C101.14 21.552 100.542 21.708 99.8658 21.708ZM99.8658 20.421C100.23 20.421 100.568 20.3343 100.88 20.161C101.192 19.979 101.443 19.7233 101.634 19.394C101.833 19.056 101.933 18.653 101.933 18.185C101.933 17.717 101.833 17.3183 101.634 16.989C101.443 16.651 101.192 16.3953 100.88 16.222C100.568 16.04 100.23 15.949 99.8658 15.949C99.5018 15.949 99.1594 16.04 98.8388 16.222C98.5268 16.3953 98.2711 16.651 98.0718 16.989C97.8811 17.3183 97.7858 17.717 97.7858 18.185C97.7858 18.653 97.8811 19.056 98.0718 19.394C98.2711 19.7233 98.5311 19.979 98.8518 20.161C99.1724 20.3343 99.5104 20.421 99.8658 20.421ZM107.607 24.516C107.026 24.516 106.524 24.4207 106.099 24.23C105.683 24.048 105.345 23.8097 105.085 23.515C104.825 23.229 104.639 22.9343 104.526 22.631L105.826 22.085C105.965 22.4317 106.186 22.7133 106.489 22.93C106.801 23.1553 107.174 23.268 107.607 23.268C108.222 23.268 108.703 23.086 109.05 22.722C109.397 22.358 109.57 21.8423 109.57 21.175V20.538H109.492C109.284 20.8413 108.998 21.0883 108.634 21.279C108.27 21.4697 107.85 21.565 107.373 21.565C106.81 21.565 106.29 21.422 105.813 21.136C105.345 20.85 104.968 20.4513 104.682 19.94C104.405 19.42 104.266 18.8133 104.266 18.12C104.266 17.418 104.405 16.8113 104.682 16.3C104.968 15.78 105.345 15.377 105.813 15.091C106.29 14.805 106.81 14.662 107.373 14.662C107.85 14.662 108.27 14.7573 108.634 14.948C108.998 15.13 109.284 15.3813 109.492 15.702H109.57V14.87H110.909V21.149C110.909 21.8683 110.766 22.4793 110.48 22.982C110.203 23.4847 109.817 23.866 109.323 24.126C108.829 24.386 108.257 24.516 107.607 24.516ZM107.62 20.291C107.967 20.291 108.287 20.2087 108.582 20.044C108.885 19.8707 109.124 19.6237 109.297 19.303C109.479 18.9737 109.57 18.5793 109.57 18.12C109.57 17.6347 109.479 17.2317 109.297 16.911C109.124 16.5903 108.885 16.3477 108.582 16.183C108.287 16.0183 107.967 15.936 107.62 15.936C107.273 15.936 106.948 16.0183 106.645 16.183C106.35 16.3477 106.112 16.5947 105.93 16.924C105.748 17.2447 105.657 17.6433 105.657 18.12C105.657 18.588 105.748 18.9867 105.93 19.316C106.112 19.6367 106.35 19.8793 106.645 20.044C106.948 20.2087 107.273 20.291 107.62 20.291ZM112.564 21.5V12.192H113.968V21.5H112.564ZM118.589 21.708C117.939 21.708 117.359 21.5563 116.847 21.253C116.336 20.9497 115.933 20.5337 115.638 20.005C115.352 19.4763 115.209 18.874 115.209 18.198C115.209 17.5653 115.348 16.9803 115.625 16.443C115.903 15.9057 116.288 15.4767 116.782 15.156C117.285 14.8267 117.861 14.662 118.511 14.662C119.196 14.662 119.777 14.8093 120.253 15.104C120.739 15.3987 121.107 15.8017 121.358 16.313C121.61 16.8243 121.735 17.4007 121.735 18.042C121.735 18.1373 121.731 18.224 121.722 18.302C121.722 18.38 121.718 18.4407 121.709 18.484H116.587C116.622 18.848 116.713 19.1643 116.86 19.433C117.051 19.771 117.302 20.0267 117.614 20.2C117.926 20.3733 118.264 20.46 118.628 20.46C119.07 20.46 119.439 20.3603 119.733 20.161C120.037 19.953 120.275 19.6973 120.448 19.394L121.605 19.953C121.319 20.473 120.929 20.8977 120.435 21.227C119.941 21.5477 119.326 21.708 118.589 21.708ZM116.665 17.431H120.344C120.336 17.2663 120.292 17.093 120.214 16.911C120.136 16.7203 120.024 16.547 119.876 16.391C119.729 16.235 119.543 16.1093 119.317 16.014C119.092 15.91 118.828 15.858 118.524 15.858C118.143 15.858 117.805 15.9577 117.51 16.157C117.216 16.3477 116.986 16.6163 116.821 16.963C116.752 17.1103 116.7 17.2663 116.665 17.431ZM127.449 21.5L124.953 12.192H126.539L128.021 18.237L128.177 19.043H128.255L128.45 18.237L130.322 12.192H131.752L133.546 18.237L133.741 19.03H133.819L133.975 18.237L135.457 12.192H137.03L134.573 21.5H133.065L131.284 15.325L131.076 14.454H130.998L130.777 15.325L128.918 21.5H127.449ZM139.641 21.708C139.165 21.708 138.74 21.6127 138.367 21.422C138.003 21.2313 137.713 20.9713 137.496 20.642C137.288 20.304 137.184 19.9183 137.184 19.485C137.184 19.0083 137.306 18.6053 137.548 18.276C137.8 17.9467 138.133 17.6953 138.549 17.522C138.965 17.3487 139.425 17.262 139.927 17.262C140.205 17.262 140.46 17.2837 140.694 17.327C140.937 17.3617 141.145 17.405 141.318 17.457C141.5 17.509 141.643 17.5653 141.747 17.626V17.275C141.747 16.8417 141.591 16.495 141.279 16.235C140.967 15.975 140.564 15.845 140.07 15.845C139.732 15.845 139.412 15.923 139.108 16.079C138.805 16.2263 138.562 16.43 138.38 16.69L137.418 15.949C137.609 15.6803 137.839 15.4507 138.107 15.26C138.385 15.0693 138.692 14.922 139.03 14.818C139.377 14.714 139.737 14.662 140.109 14.662C141.071 14.662 141.812 14.9003 142.332 15.377C142.852 15.845 143.112 16.5037 143.112 17.353V21.5H141.747V20.681H141.669C141.557 20.8543 141.401 21.019 141.201 21.175C141.011 21.331 140.781 21.4567 140.512 21.552C140.252 21.656 139.962 21.708 139.641 21.708ZM139.888 20.564C140.252 20.564 140.573 20.4773 140.85 20.304C141.136 20.1307 141.357 19.9053 141.513 19.628C141.669 19.342 141.747 19.0343 141.747 18.705C141.557 18.5923 141.323 18.5013 141.045 18.432C140.777 18.354 140.491 18.315 140.187 18.315C139.615 18.315 139.208 18.4277 138.965 18.653C138.723 18.8783 138.601 19.16 138.601 19.498C138.601 19.81 138.718 20.0657 138.952 20.265C139.186 20.4643 139.498 20.564 139.888 20.564ZM144.671 21.5V12.192H146.075V21.5H144.671ZM147.743 21.5V12.192H149.147V21.5H147.743ZM153.768 21.708C153.118 21.708 152.537 21.5563 152.026 21.253C151.515 20.9497 151.112 20.5337 150.817 20.005C150.531 19.4763 150.388 18.874 150.388 18.198C150.388 17.5653 150.527 16.9803 150.804 16.443C151.081 15.9057 151.467 15.4767 151.961 15.156C152.464 14.8267 153.04 14.662 153.69 14.662C154.375 14.662 154.955 14.8093 155.432 15.104C155.917 15.3987 156.286 15.8017 156.537 16.313C156.788 16.8243 156.914 17.4007 156.914 18.042C156.914 18.1373 156.91 18.224 156.901 18.302C156.901 18.38 156.897 18.4407 156.888 18.484H151.766C151.801 18.848 151.892 19.1643 152.039 19.433C152.23 19.771 152.481 20.0267 152.793 20.2C153.105 20.3733 153.443 20.46 153.807 20.46C154.249 20.46 154.617 20.3603 154.912 20.161C155.215 19.953 155.454 19.6973 155.627 19.394L156.784 19.953C156.498 20.473 156.108 20.8977 155.614 21.227C155.12 21.5477 154.505 21.708 153.768 21.708ZM151.844 17.431H155.523C155.514 17.2663 155.471 17.093 155.393 16.911C155.315 16.7203 155.202 16.547 155.055 16.391C154.908 16.235 154.721 16.1093 154.496 16.014C154.271 15.91 154.006 15.858 153.703 15.858C153.322 15.858 152.984 15.9577 152.689 16.157C152.394 16.3477 152.165 16.6163 152 16.963C151.931 17.1103 151.879 17.2663 151.844 17.431ZM157.571 14.87H158.728V12.998H160.132V14.87H161.757V16.092H160.132V19.277C160.132 19.6063 160.197 19.8577 160.327 20.031C160.466 20.2043 160.695 20.291 161.016 20.291C161.172 20.291 161.311 20.2693 161.432 20.226C161.553 20.174 161.675 20.1133 161.796 20.044V21.409C161.649 21.4697 161.493 21.5173 161.328 21.552C161.163 21.5867 160.968 21.604 160.743 21.604C160.128 21.604 159.638 21.4263 159.274 21.071C158.91 20.707 158.728 20.2087 158.728 19.576V16.092H157.571V14.87Z" fill="white"/>
<path d="M72.757 40.514C72.179 40.514 71.652 40.4007 71.176 40.174C70.7113 39.9473 70.3373 39.5507 70.054 38.984C69.782 38.406 69.646 37.6127 69.646 36.604C69.646 35.3913 69.8557 34.36 70.275 33.51C70.7057 32.66 71.295 31.997 72.043 31.521C72.8023 31.0337 73.675 30.7503 74.661 30.671L76.48 30.518V31.334L76.565 31.368C76.6557 31.2433 76.7803 31.1187 76.939 30.994C77.0977 30.858 77.3073 30.7447 77.568 30.654C77.84 30.5633 78.163 30.518 78.537 30.518C79.1263 30.518 79.642 30.6597 80.084 30.943C80.526 31.215 80.8717 31.6627 81.121 32.286C81.3137 32.7847 81.4327 33.4193 81.478 34.19H83.314C83.3253 34.0313 83.348 33.8443 83.382 33.629C83.4273 33.4137 83.4727 33.255 83.518 33.153H85.337C85.303 33.3003 85.2633 33.5327 85.218 33.85C85.184 34.1673 85.167 34.5243 85.167 34.921C85.167 35.261 85.1783 35.6067 85.201 35.958C85.235 36.298 85.2803 36.553 85.337 36.723H83.535C83.4783 36.5983 83.4273 36.4227 83.382 36.196C83.348 35.958 83.331 35.771 83.331 35.635H81.461C81.4043 36.383 81.257 37.0403 81.019 37.607C80.713 38.3663 80.254 38.9387 79.642 39.324C79.0413 39.7093 78.299 39.902 77.415 39.902C77.0183 39.902 76.6953 39.868 76.446 39.8C76.208 39.732 76.0267 39.6527 75.902 39.562C75.7773 39.46 75.681 39.375 75.613 39.307H75.511C75.409 39.4657 75.2447 39.6413 75.018 39.834C74.8027 40.0267 74.508 40.191 74.134 40.327C73.7713 40.4517 73.3123 40.514 72.757 40.514ZM72.995 38.95C73.3123 38.95 73.5957 38.8933 73.845 38.78C74.0943 38.6667 74.2927 38.4797 74.44 38.219C74.5873 37.9583 74.661 37.624 74.661 37.216V32.252C74.0377 32.3087 73.488 32.5127 73.012 32.864C72.5473 33.204 72.179 33.68 71.907 34.292C71.6463 34.8927 71.516 35.6237 71.516 36.485C71.516 37.4143 71.6407 38.0603 71.89 38.423C72.1507 38.7743 72.519 38.95 72.995 38.95ZM77.466 38.338C77.8513 38.338 78.2027 38.236 78.52 38.032C78.8487 37.8167 79.1093 37.471 79.302 36.995C79.506 36.519 79.608 35.873 79.608 35.057C79.608 34.3317 79.5457 33.7537 79.421 33.323C79.2963 32.8923 79.1093 32.5807 78.86 32.388C78.622 32.184 78.3273 32.082 77.976 32.082C77.5567 32.082 77.211 32.1897 76.939 32.405C76.6783 32.6203 76.5253 32.9093 76.48 33.272V37.097C76.48 37.5277 76.5423 37.845 76.667 38.049C76.803 38.2417 77.0693 38.338 77.466 38.338ZM89.9966 41.449L88.3136 41.585C88.1096 41.5963 87.9566 41.568 87.8546 41.5C87.7639 41.4433 87.6846 41.313 87.6166 41.109C87.5146 40.8257 87.4183 40.4063 87.3276 39.851C87.2369 39.2957 87.1916 38.627 87.1916 37.845C87.1916 36.9157 87.2823 36.0147 87.4636 35.142C87.6449 34.258 87.9339 33.4647 88.3306 32.762C88.7273 32.048 89.2429 31.487 89.8776 31.079C90.1383 30.909 90.4159 30.773 90.7106 30.671L90.1156 29.566C89.9796 29.3167 89.8719 29.0957 89.7926 28.903C89.7246 28.699 89.6906 28.5233 89.6906 28.376C89.6906 28.24 89.7303 28.1267 89.8096 28.036C89.9003 27.9453 90.0306 27.8603 90.2006 27.781L91.5266 27.288C91.4813 27.4807 91.4756 27.7017 91.5096 27.951C91.5436 28.2003 91.6456 28.4893 91.8156 28.818L92.7166 30.467C93.2833 30.5237 93.7479 30.6653 94.1106 30.892C94.5866 31.1867 94.9266 31.606 95.1306 32.15C95.3459 32.694 95.4536 33.3513 95.4536 34.122C95.4536 34.7567 95.4309 35.3573 95.3856 35.924C95.3403 36.4793 95.2893 37.0233 95.2326 37.556C95.1873 38.0773 95.1646 38.61 95.1646 39.154C95.1646 39.6753 95.2043 40.089 95.2836 40.395C95.3743 40.6897 95.4819 40.9163 95.6066 41.075C95.7313 41.2223 95.8503 41.347 95.9636 41.449L94.2466 41.585C94.0426 41.6077 93.8726 41.551 93.7366 41.415C93.6006 41.279 93.4929 41.0353 93.4136 40.684C93.3456 40.3327 93.3116 39.8567 93.3116 39.256C93.3116 38.4287 93.3569 37.607 93.4476 36.791C93.5383 35.975 93.5836 35.142 93.5836 34.292C93.5836 33.5667 93.4703 33.017 93.2436 32.643C93.0169 32.269 92.6146 32.082 92.0366 32.082C91.5039 32.082 91.0506 32.2463 90.6766 32.575C90.3026 32.9037 89.9909 33.3457 89.7416 33.901C89.5036 34.445 89.3279 35.0513 89.2146 35.72C89.1013 36.3887 89.0446 37.0743 89.0446 37.777C89.0446 38.4797 89.0899 39.0803 89.1806 39.579C89.2713 40.0663 89.3903 40.463 89.5376 40.769C89.6849 41.075 89.8379 41.3017 89.9966 41.449ZM97.8204 36.315C97.7638 36.1903 97.7014 35.9807 97.6334 35.686C97.5654 35.3913 97.5314 35.0343 97.5314 34.615C97.5314 33.6063 97.7694 32.745 98.2454 32.031C98.7214 31.317 99.4751 30.773 100.506 30.399C101.538 30.025 102.875 29.838 104.518 29.838V30.484C104.654 30.4047 104.887 30.3197 105.215 30.229C105.555 30.127 105.986 30.076 106.507 30.076C107.21 30.076 107.833 30.195 108.377 30.433C108.921 30.6597 109.346 31.0393 109.652 31.572C109.97 32.0933 110.128 32.8017 110.128 33.697C110.128 34.1163 110.089 34.4903 110.009 34.819C109.93 35.1477 109.851 35.3913 109.771 35.55L107.918 35.448C107.998 35.2893 108.071 35.0683 108.139 34.785C108.207 34.4903 108.241 34.1617 108.241 33.799C108.241 33.289 108.151 32.8753 107.969 32.558C107.799 32.2407 107.556 32.0083 107.238 31.861C106.921 31.7137 106.564 31.64 106.167 31.64C105.714 31.64 105.351 31.6853 105.079 31.776C104.807 31.8667 104.62 31.9517 104.518 32.031V34.853H106.15V39.647C106.15 40.1457 106.207 40.531 106.32 40.803C106.445 41.0637 106.632 41.2847 106.881 41.466L105.13 41.585C104.904 41.5963 104.728 41.5453 104.603 41.432C104.49 41.3073 104.411 41.0977 104.365 40.803C104.32 40.5083 104.297 40.123 104.297 39.647V36.366H102.665V31.47C101.895 31.538 101.271 31.7023 100.795 31.963C100.319 32.2237 99.9681 32.575 99.7414 33.017C99.5261 33.459 99.4184 33.9917 99.4184 34.615C99.4184 34.887 99.4411 35.1477 99.4864 35.397C99.5431 35.635 99.5998 35.8163 99.6564 35.941L97.8204 36.315ZM117.913 41.585C117.641 41.619 117.409 41.5567 117.216 41.398C117.035 41.2393 116.944 40.9277 116.944 40.463C116.944 39.8737 117.057 39.222 117.284 38.508C117.511 37.7827 117.805 37.0573 118.168 36.332C118.531 35.5953 118.922 34.8927 119.341 34.224C119.76 33.544 120.151 32.949 120.514 32.439L120.48 32.388H118.797V29.753C118.797 29.413 118.769 29.1297 118.712 28.903C118.667 28.665 118.593 28.4667 118.491 28.308C118.4 28.138 118.27 27.9907 118.1 27.866L119.817 27.747C120.146 27.7243 120.367 27.8603 120.48 28.155C120.593 28.4497 120.65 28.9597 120.65 29.685V30.875H123.676L123.727 30.994C123.353 31.436 122.962 31.9403 122.554 32.507C122.157 33.0623 121.772 33.6403 121.398 34.241L121.432 34.292C121.715 34.2013 122.05 34.1163 122.435 34.037C122.82 33.9577 123.206 33.918 123.591 33.918C123.931 33.918 124.203 33.9917 124.407 34.139C124.622 34.2863 124.798 34.5527 124.934 34.938C125.07 35.312 125.195 35.8447 125.308 36.536L125.903 39.885C125.96 40.225 126.033 40.5027 126.124 40.718C126.215 40.922 126.311 41.0807 126.413 41.194C126.526 41.3073 126.64 41.3923 126.753 41.449L125.189 41.602C124.962 41.6247 124.781 41.602 124.645 41.534C124.509 41.4773 124.396 41.33 124.305 41.092C124.214 40.8427 124.124 40.4517 124.033 39.919L123.455 36.536C123.398 36.2073 123.302 35.9523 123.166 35.771C123.041 35.5783 122.781 35.482 122.384 35.482C121.999 35.482 121.619 35.533 121.245 35.635C120.882 35.7257 120.616 35.805 120.446 35.873C120.31 36.0997 120.151 36.4 119.97 36.774C119.789 37.1367 119.607 37.5333 119.426 37.964C119.256 38.3947 119.109 38.8253 118.984 39.256C118.871 39.6867 118.814 40.089 118.814 40.463C118.814 40.7803 118.854 41.007 118.933 41.143C119.024 41.279 119.143 41.381 119.29 41.449L117.913 41.585ZM130.467 38.015L128.886 38.151C128.705 38.1623 128.569 38.1397 128.478 38.083C128.399 38.015 128.308 37.896 128.206 37.726C128.104 37.5673 128.002 37.301 127.9 36.927C127.798 36.5417 127.747 36.0827 127.747 35.55C127.747 34.8587 127.838 34.207 128.019 33.595C128.212 32.983 128.495 32.4447 128.869 31.98C129.243 31.504 129.714 31.13 130.28 30.858C130.586 30.7107 130.921 30.603 131.283 30.535V29.413C131.283 28.903 131.227 28.512 131.113 28.24C131.011 27.9567 130.836 27.713 130.586 27.509L132.303 27.39C132.643 27.3673 132.864 27.5033 132.966 27.798C133.08 28.0927 133.136 28.6027 133.136 29.328V30.501C133.624 30.569 134.032 30.6937 134.36 30.875C134.87 31.1697 135.227 31.589 135.431 32.133C135.647 32.677 135.754 33.34 135.754 34.122C135.754 34.7567 135.732 35.3573 135.686 35.924C135.641 36.4793 135.59 37.0233 135.533 37.556C135.488 38.0773 135.465 38.61 135.465 39.154C135.465 39.6753 135.505 40.089 135.584 40.395C135.675 40.6897 135.783 40.9163 135.907 41.075C136.032 41.2223 136.151 41.347 136.264 41.449L134.547 41.585C134.343 41.6077 134.173 41.551 134.037 41.415C133.901 41.279 133.794 41.0353 133.714 40.684C133.646 40.3327 133.612 39.8567 133.612 39.256C133.612 38.4287 133.658 37.607 133.748 36.791C133.839 35.975 133.884 35.142 133.884 34.292C133.884 33.5667 133.76 33.017 133.51 32.643C133.261 32.269 132.819 32.082 132.184 32.082C131.629 32.082 131.159 32.235 130.773 32.541C130.399 32.8357 130.11 33.2267 129.906 33.714C129.702 34.2013 129.6 34.7453 129.6 35.346C129.6 36.06 129.691 36.6323 129.872 37.063C130.054 37.4937 130.252 37.811 130.467 38.015ZM145.609 40.854C144.816 40.854 144.074 40.684 143.382 40.344C143.11 40.208 142.844 40.055 142.583 39.885C142.379 39.919 142.17 39.9587 141.954 40.004C141.524 40.0947 141.116 40.1967 140.73 40.31C140.356 40.412 140.056 40.5083 139.829 40.599C139.829 40.8143 139.818 41.0637 139.795 41.347C139.784 41.6303 139.767 41.9023 139.744 42.163C139.722 42.4237 139.688 42.6333 139.642 42.792L137.823 42.656C137.88 42.4293 137.914 42.163 137.925 41.857C137.948 41.551 137.959 41.2563 137.959 40.973C137.959 40.735 137.948 40.497 137.925 40.259C137.903 40.0097 137.88 39.8113 137.857 39.664C138.073 39.562 138.367 39.4487 138.741 39.324C139.127 39.188 139.552 39.052 140.016 38.916C140.402 38.8027 140.793 38.7007 141.189 38.61C140.759 38.1227 140.379 37.5787 140.05 36.978C139.654 36.2527 139.348 35.4933 139.132 34.7C138.917 33.9067 138.809 33.136 138.809 32.388C138.809 31.5267 138.974 30.7617 139.302 30.093C139.631 29.4243 140.107 28.903 140.73 28.529C141.354 28.155 142.113 27.968 143.008 27.968C144.051 27.968 144.816 28.2343 145.303 28.767C145.791 29.2883 146.034 29.9853 146.034 30.858C146.034 31.7193 145.825 32.4277 145.405 32.983C144.986 33.527 144.414 33.9577 143.688 34.275C142.974 34.581 142.164 34.8133 141.257 34.972C141.416 35.4367 141.643 35.924 141.937 36.434C142.232 36.9327 142.578 37.403 142.974 37.845C143.371 38.2757 143.802 38.627 144.266 38.899C144.742 39.1597 145.23 39.29 145.728 39.29C146.295 39.29 146.692 39.1597 146.918 38.899C147.156 38.6383 147.275 38.2757 147.275 37.811C147.275 37.4483 147.224 37.1083 147.122 36.791C147.02 36.4737 146.93 36.247 146.85 36.111L148.703 35.89C148.794 36.0373 148.89 36.2753 148.992 36.604C149.094 36.9327 149.145 37.335 149.145 37.811C149.145 38.1737 149.089 38.5363 148.975 38.899C148.873 39.2617 148.686 39.5903 148.414 39.885C148.154 40.1797 147.797 40.4177 147.343 40.599C146.89 40.769 146.312 40.854 145.609 40.854ZM140.815 33.425C141.609 33.289 142.249 33.1077 142.736 32.881C143.224 32.643 143.581 32.3597 143.807 32.031C144.045 31.691 144.164 31.3113 144.164 30.892C144.164 30.484 144.062 30.1553 143.858 29.906C143.654 29.6567 143.331 29.532 142.889 29.532C142.436 29.532 142.039 29.651 141.699 29.889C141.371 30.127 141.116 30.4557 140.934 30.875C140.764 31.283 140.679 31.7533 140.679 32.286C140.679 32.5467 140.691 32.7733 140.713 32.966C140.747 33.1473 140.781 33.3003 140.815 33.425Z" fill="white"/>
</svg>
