<svg width="173" height="55" viewBox="0 0 173 55" fill="none" xmlns="http://www.w3.org/2000/svg">
<rect x="0.5" y="0.5" width="172" height="54" rx="27" fill="#1F1F1F"/>
<rect x="0.5" y="0.5" width="172" height="54" rx="27" stroke="#747775"/>
<path d="M57 23.791H21V18.1455C21 15.0809 23.6422 12.5001 26.7798 12.5001H51.2202C54.3578 12.5001 57 15.0809 57 18.1455V23.791Z" fill="#34A853"/>
<path d="M57 29H21V23C21 19.7429 23.6422 17 26.7798 17H51.2202C54.3578 17 57 19.7429 57 23V29Z" fill="#FBBC04"/>
<path d="M57 34H21V28C21 24.7429 23.6422 22 26.7798 22H51.2202C54.3578 22 57 24.7429 57 28V34Z" fill="#EA4335"/>
<path d="M21 25.2409L43.8493 30.4025C46.4795 31.0477 49.4384 30.4025 51.5753 28.7895L57 24.9183V37.0157C57 40.0804 54.3699 42.4999 51.2466 42.4999H26.7534C23.6301 42.4999 21 40.0804 21 37.0157V25.2409Z" fill="#4285F4"/>
<path d="M74.8711 21.708C74.2038 21.708 73.5755 21.5867 72.9861 21.344C72.3968 21.1013 71.8768 20.7633 71.4261 20.33C70.9841 19.888 70.6331 19.3723 70.3731 18.783C70.1218 18.185 69.9961 17.5393 69.9961 16.846C69.9961 16.1527 70.1218 15.5113 70.3731 14.922C70.6331 14.324 70.9841 13.8083 71.4261 13.375C71.8768 12.933 72.3968 12.5907 72.9861 12.348C73.5755 12.1053 74.2038 11.984 74.8711 11.984C75.5818 11.984 76.2361 12.1097 76.8341 12.361C77.4408 12.6123 77.9478 12.9633 78.3551 13.414L77.3671 14.389C77.1678 14.1637 76.9381 13.973 76.6781 13.817C76.4268 13.661 76.1495 13.544 75.8461 13.466C75.5428 13.3793 75.2178 13.336 74.8711 13.336C74.4118 13.336 73.9741 13.4183 73.5581 13.583C73.1421 13.7477 72.7738 13.986 72.4531 14.298C72.1411 14.6013 71.8941 14.9697 71.7121 15.403C71.5301 15.8277 71.4391 16.3087 71.4391 16.846C71.4391 17.3833 71.5301 17.8687 71.7121 18.302C71.9028 18.7267 72.1541 19.095 72.4661 19.407C72.7868 19.7103 73.1551 19.9443 73.5711 20.109C73.9871 20.2737 74.4248 20.356 74.8841 20.356C75.3088 20.356 75.7031 20.2953 76.0671 20.174C76.4398 20.0527 76.7648 19.8793 77.0421 19.654C77.3195 19.4287 77.5448 19.1557 77.7181 18.835C77.8915 18.5057 77.9998 18.1373 78.0431 17.73H74.8581V16.469H79.3821C79.3995 16.573 79.4168 16.6943 79.4341 16.833C79.4515 16.963 79.4601 17.0887 79.4601 17.21V17.223C79.4601 17.8903 79.3431 18.5013 79.1091 19.056C78.8838 19.6107 78.5675 20.0873 78.1601 20.486C77.7528 20.876 77.2675 21.1793 76.7041 21.396C76.1495 21.604 75.5385 21.708 74.8711 21.708ZM83.646 21.708C82.9614 21.708 82.359 21.552 81.839 21.24C81.319 20.928 80.9117 20.5077 80.617 19.979C80.3224 19.4417 80.175 18.8437 80.175 18.185C80.175 17.5263 80.3224 16.9327 80.617 16.404C80.9117 15.8667 81.319 15.442 81.839 15.13C82.359 14.818 82.9614 14.662 83.646 14.662C84.322 14.662 84.92 14.8223 85.44 15.143C85.96 15.455 86.3674 15.8753 86.662 16.404C86.9567 16.9327 87.104 17.5263 87.104 18.185C87.104 18.8437 86.9567 19.4417 86.662 19.979C86.3674 20.5077 85.96 20.928 85.44 21.24C84.92 21.552 84.322 21.708 83.646 21.708ZM83.646 20.421C84.01 20.421 84.348 20.3343 84.66 20.161C84.972 19.979 85.2234 19.7233 85.414 19.394C85.6134 19.056 85.713 18.653 85.713 18.185C85.713 17.717 85.6134 17.3183 85.414 16.989C85.2234 16.651 84.972 16.3953 84.66 16.222C84.348 16.04 84.01 15.949 83.646 15.949C83.282 15.949 82.9397 16.04 82.619 16.222C82.307 16.3953 82.0514 16.651 81.852 16.989C81.6614 17.3183 81.566 17.717 81.566 18.185C81.566 18.653 81.6614 19.056 81.852 19.394C82.0514 19.7233 82.3114 19.979 82.632 20.161C82.9527 20.3343 83.2907 20.421 83.646 20.421ZM91.5171 21.708C90.8325 21.708 90.2301 21.552 89.7101 21.24C89.1901 20.928 88.7828 20.5077 88.4881 19.979C88.1935 19.4417 88.0461 18.8437 88.0461 18.185C88.0461 17.5263 88.1935 16.9327 88.4881 16.404C88.7828 15.8667 89.1901 15.442 89.7101 15.13C90.2301 14.818 90.8325 14.662 91.5171 14.662C92.1931 14.662 92.7911 14.8223 93.3111 15.143C93.8311 15.455 94.2385 15.8753 94.5331 16.404C94.8278 16.9327 94.9751 17.5263 94.9751 18.185C94.9751 18.8437 94.8278 19.4417 94.5331 19.979C94.2385 20.5077 93.8311 20.928 93.3111 21.24C92.7911 21.552 92.1931 21.708 91.5171 21.708ZM91.5171 20.421C91.8811 20.421 92.2191 20.3343 92.5311 20.161C92.8431 19.979 93.0945 19.7233 93.2851 19.394C93.4845 19.056 93.5841 18.653 93.5841 18.185C93.5841 17.717 93.4845 17.3183 93.2851 16.989C93.0945 16.651 92.8431 16.3953 92.5311 16.222C92.2191 16.04 91.8811 15.949 91.5171 15.949C91.1531 15.949 90.8108 16.04 90.4901 16.222C90.1781 16.3953 89.9225 16.651 89.7231 16.989C89.5325 17.3183 89.4371 17.717 89.4371 18.185C89.4371 18.653 89.5325 19.056 89.7231 19.394C89.9225 19.7233 90.1825 19.979 90.5031 20.161C90.8238 20.3343 91.1618 20.421 91.5171 20.421ZM99.2582 24.516C98.6776 24.516 98.1749 24.4207 97.7502 24.23C97.3342 24.048 96.9962 23.8097 96.7362 23.515C96.4762 23.229 96.2899 22.9343 96.1772 22.631L97.4772 22.085C97.6159 22.4317 97.8369 22.7133 98.1402 22.93C98.4522 23.1553 98.8249 23.268 99.2582 23.268C99.8736 23.268 100.355 23.086 100.701 22.722C101.048 22.358 101.221 21.8423 101.221 21.175V20.538H101.143C100.935 20.8413 100.649 21.0883 100.285 21.279C99.9212 21.4697 99.5009 21.565 99.0242 21.565C98.4609 21.565 97.9409 21.422 97.4642 21.136C96.9962 20.85 96.6192 20.4513 96.3332 19.94C96.0559 19.42 95.9172 18.8133 95.9172 18.12C95.9172 17.418 96.0559 16.8113 96.3332 16.3C96.6192 15.78 96.9962 15.377 97.4642 15.091C97.9409 14.805 98.4609 14.662 99.0242 14.662C99.5009 14.662 99.9212 14.7573 100.285 14.948C100.649 15.13 100.935 15.3813 101.143 15.702H101.221V14.87H102.56V21.149C102.56 21.8683 102.417 22.4793 102.131 22.982C101.854 23.4847 101.468 23.866 100.974 24.126C100.48 24.386 99.9082 24.516 99.2582 24.516ZM99.2712 20.291C99.6179 20.291 99.9386 20.2087 100.233 20.044C100.537 19.8707 100.775 19.6237 100.948 19.303C101.13 18.9737 101.221 18.5793 101.221 18.12C101.221 17.6347 101.13 17.2317 100.948 16.911C100.775 16.5903 100.537 16.3477 100.233 16.183C99.9386 16.0183 99.6179 15.936 99.2712 15.936C98.9246 15.936 98.5996 16.0183 98.2962 16.183C98.0016 16.3477 97.7632 16.5947 97.5812 16.924C97.3992 17.2447 97.3082 17.6433 97.3082 18.12C97.3082 18.588 97.3992 18.9867 97.5812 19.316C97.7632 19.6367 98.0016 19.8793 98.2962 20.044C98.5996 20.2087 98.9246 20.291 99.2712 20.291ZM104.216 21.5V12.192H105.62V21.5H104.216ZM110.241 21.708C109.591 21.708 109.01 21.5563 108.499 21.253C107.987 20.9497 107.584 20.5337 107.29 20.005C107.004 19.4763 106.861 18.874 106.861 18.198C106.861 17.5653 106.999 16.9803 107.277 16.443C107.554 15.9057 107.94 15.4767 108.434 15.156C108.936 14.8267 109.513 14.662 110.163 14.662C110.847 14.662 111.428 14.8093 111.905 15.104C112.39 15.3987 112.758 15.8017 113.01 16.313C113.261 16.8243 113.387 17.4007 113.387 18.042C113.387 18.1373 113.382 18.224 113.374 18.302C113.374 18.38 113.369 18.4407 113.361 18.484H108.239C108.273 18.848 108.364 19.1643 108.512 19.433C108.702 19.771 108.954 20.0267 109.266 20.2C109.578 20.3733 109.916 20.46 110.28 20.46C110.722 20.46 111.09 20.3603 111.385 20.161C111.688 19.953 111.926 19.6973 112.1 19.394L113.257 19.953C112.971 20.473 112.581 20.8977 112.087 21.227C111.593 21.5477 110.977 21.708 110.241 21.708ZM108.317 17.431H111.996C111.987 17.2663 111.944 17.093 111.866 16.911C111.788 16.7203 111.675 16.547 111.528 16.391C111.38 16.235 111.194 16.1093 110.969 16.014C110.743 15.91 110.479 15.858 110.176 15.858C109.794 15.858 109.456 15.9577 109.162 16.157C108.867 16.3477 108.637 16.6163 108.473 16.963C108.403 17.1103 108.351 17.2663 108.317 17.431ZM123.222 21.565C122.659 21.565 122.174 21.4697 121.766 21.279C121.368 21.0883 121.086 20.7373 120.921 20.226C120.453 20.3387 120.003 20.3863 119.569 20.369C119.145 20.343 118.759 20.2607 118.412 20.122C118.066 19.9747 117.793 19.7753 117.593 19.524C117.394 19.264 117.294 18.9563 117.294 18.601C117.294 18.133 117.442 17.7083 117.736 17.327C118.031 16.937 118.43 16.6077 118.932 16.339C119.435 16.0703 119.99 15.884 120.596 15.78L120.557 14.792H121.61L121.818 19.082C121.836 19.4893 121.905 19.797 122.026 20.005C122.156 20.2043 122.33 20.3387 122.546 20.408C122.772 20.4687 123.04 20.499 123.352 20.499C123.534 20.499 123.664 20.551 123.742 20.655C123.829 20.7503 123.872 20.8673 123.872 21.006C123.872 21.1447 123.812 21.2747 123.69 21.396C123.569 21.5087 123.413 21.565 123.222 21.565ZM118.321 18.432C118.321 18.6313 118.399 18.796 118.555 18.926C118.72 19.056 118.928 19.1513 119.179 19.212C119.431 19.2727 119.695 19.303 119.972 19.303C120.258 19.303 120.523 19.2813 120.765 19.238L120.648 16.859C120.154 16.911 119.734 17.0237 119.387 17.197C119.041 17.3617 118.776 17.5567 118.594 17.782C118.412 17.9987 118.321 18.2153 118.321 18.432ZM120.986 13.297C120.804 13.297 120.648 13.2363 120.518 13.115C120.397 12.985 120.336 12.8333 120.336 12.66C120.336 12.4867 120.397 12.335 120.518 12.205C120.648 12.075 120.804 12.01 120.986 12.01C121.16 12.01 121.307 12.075 121.428 12.205C121.558 12.335 121.623 12.4867 121.623 12.66C121.623 12.8333 121.558 12.985 121.428 13.115C121.307 13.2363 121.16 13.297 120.986 13.297ZM119.205 13.297C119.023 13.297 118.867 13.2363 118.737 13.115C118.616 12.985 118.555 12.8333 118.555 12.66C118.555 12.4867 118.616 12.335 118.737 12.205C118.867 12.075 119.023 12.01 119.205 12.01C119.379 12.01 119.526 12.075 119.647 12.205C119.777 12.335 119.842 12.4867 119.842 12.66C119.842 12.8333 119.777 12.985 119.647 13.115C119.526 13.2363 119.379 13.297 119.205 13.297ZM123.227 21.565L123.357 20.499H124.007C124.145 20.2823 124.293 20.07 124.449 19.862L124.202 12.218H125.255L125.489 18.64C126.017 18.1027 126.594 17.6477 127.218 17.275C127.85 16.8937 128.492 16.703 129.142 16.703C129.618 16.703 130.026 16.8027 130.364 17.002C130.71 17.1927 130.975 17.4527 131.157 17.782C131.347 18.1113 131.443 18.484 131.443 18.9C131.443 19.3073 131.295 19.719 131.001 20.135C130.706 20.5423 130.199 20.863 129.48 21.097C128.925 21.279 128.258 21.4047 127.478 21.474C126.698 21.5347 125.736 21.565 124.592 21.565H123.227ZM129.064 17.769C128.691 17.769 128.314 17.86 127.933 18.042C127.56 18.224 127.2 18.458 126.854 18.744C126.507 19.0213 126.191 19.3203 125.905 19.641C125.619 19.953 125.38 20.239 125.19 20.499H126.074C127.582 20.499 128.687 20.369 129.389 20.109C130.091 19.849 130.442 19.4417 130.442 18.887C130.442 18.7397 130.394 18.5793 130.299 18.406C130.203 18.2327 130.052 18.0853 129.844 17.964C129.644 17.834 129.384 17.769 129.064 17.769ZM132.457 21.565C132.231 21.565 131.945 21.5433 131.599 21.5C131.261 21.448 130.914 21.3613 130.559 21.24C130.212 21.1187 129.917 20.9497 129.675 20.733L130.741 20.2C131.044 20.3213 131.356 20.4037 131.677 20.447C132.006 20.4817 132.309 20.499 132.587 20.499C132.769 20.499 132.899 20.551 132.977 20.655C133.063 20.7503 133.107 20.8673 133.107 21.006C133.107 21.1447 133.046 21.2747 132.925 21.396C132.803 21.5087 132.647 21.565 132.457 21.565ZM128.505 15.364C128.323 15.364 128.167 15.3033 128.037 15.182C127.915 15.052 127.855 14.9003 127.855 14.727C127.855 14.5537 127.915 14.402 128.037 14.272C128.167 14.142 128.323 14.077 128.505 14.077C128.678 14.077 128.825 14.142 128.947 14.272C129.077 14.402 129.142 14.5537 129.142 14.727C129.142 14.9003 129.077 15.052 128.947 15.182C128.825 15.3033 128.678 15.364 128.505 15.364ZM132.456 21.565L132.586 20.499C132.881 20.499 133.184 20.4947 133.496 20.486C133.817 20.4773 134.124 20.4557 134.419 20.421C134.211 20.2303 134.007 19.9833 133.808 19.68C133.609 19.3767 133.509 19.0083 133.509 18.575C133.509 18.1157 133.617 17.6997 133.834 17.327C134.051 16.9457 134.328 16.6467 134.666 16.43C135.013 16.2133 135.385 16.105 135.784 16.105C136.209 16.105 136.581 16.222 136.902 16.456C137.223 16.69 137.47 16.989 137.643 17.353C137.825 17.7083 137.916 18.081 137.916 18.471C137.916 18.8783 137.834 19.2423 137.669 19.563C137.504 19.8837 137.283 20.1653 137.006 20.408C137.353 20.434 137.708 20.4557 138.072 20.473C138.436 20.4903 138.752 20.499 139.021 20.499C139.203 20.499 139.333 20.551 139.411 20.655C139.498 20.7503 139.541 20.8673 139.541 21.006C139.541 21.1447 139.48 21.2747 139.359 21.396C139.238 21.5087 139.082 21.565 138.891 21.565C138.362 21.565 137.812 21.526 137.24 21.448C136.668 21.3613 136.165 21.2573 135.732 21.136C135.593 21.188 135.45 21.2357 135.303 21.279C134.904 21.3917 134.449 21.4653 133.938 21.5C133.427 21.5433 132.933 21.565 132.456 21.565ZM134.575 18.601C134.575 18.939 134.679 19.238 134.887 19.498C135.095 19.7493 135.329 19.953 135.589 20.109C135.944 19.953 136.243 19.745 136.486 19.485C136.729 19.225 136.85 18.913 136.85 18.549C136.85 18.3497 136.802 18.146 136.707 17.938C136.612 17.7213 136.482 17.5393 136.317 17.392C136.152 17.2447 135.962 17.171 135.745 17.171C135.537 17.171 135.342 17.2447 135.16 17.392C134.987 17.5307 134.844 17.7083 134.731 17.925C134.627 18.1417 134.575 18.367 134.575 18.601ZM135.667 14.766C135.485 14.766 135.329 14.7053 135.199 14.584C135.078 14.454 135.017 14.3023 135.017 14.129C135.017 13.9557 135.078 13.804 135.199 13.674C135.329 13.544 135.485 13.479 135.667 13.479C135.84 13.479 135.988 13.544 136.109 13.674C136.239 13.804 136.304 13.9557 136.304 14.129C136.304 14.3023 136.239 14.454 136.109 14.584C135.988 14.7053 135.84 14.766 135.667 14.766ZM138.893 21.565L139.01 20.499C139.902 20.499 140.769 20.369 141.61 20.109C142.45 19.8403 143.217 19.4633 143.911 18.978C143.573 18.6833 143.157 18.445 142.663 18.263C142.177 18.081 141.64 17.99 141.051 17.99C140.834 17.99 140.643 18.003 140.479 18.029C140.314 18.0463 140.115 18.081 139.881 18.133L139.673 17.145C140.158 16.9977 140.617 16.924 141.051 16.924C141.501 16.924 141.909 16.9803 142.273 17.093C142.637 17.197 142.966 17.327 143.261 17.483C143.564 17.639 143.846 17.795 144.106 17.951C144.374 18.107 144.634 18.2413 144.886 18.354C145.137 18.458 145.397 18.51 145.666 18.51H145.939L146.03 19.446C145.761 19.446 145.501 19.4763 145.25 19.537C145.414 19.927 145.648 20.187 145.952 20.317C146.255 20.4383 146.706 20.499 147.304 20.499C147.486 20.499 147.616 20.551 147.694 20.655C147.78 20.7503 147.824 20.8673 147.824 21.006C147.824 21.1447 147.763 21.2747 147.642 21.396C147.52 21.5087 147.364 21.565 147.174 21.565C146.706 21.565 146.285 21.526 145.913 21.448C145.549 21.3613 145.237 21.1967 144.977 20.954C144.717 20.7027 144.526 20.33 144.405 19.836C144.075 19.992 143.737 20.1697 143.391 20.369C143.053 20.5597 142.676 20.746 142.26 20.928C141.844 21.11 141.363 21.2617 140.817 21.383C140.271 21.5043 139.629 21.565 138.893 21.565ZM147.17 21.565L147.3 20.499C147.543 20.499 147.746 20.447 147.911 20.343C148.076 20.239 148.236 20.07 148.392 19.836C148.548 19.5933 148.717 19.264 148.899 18.848C149.15 18.2933 149.397 17.873 149.64 17.587C149.891 17.301 150.138 17.106 150.381 17.002C150.632 16.898 150.879 16.846 151.122 16.846C151.417 16.846 151.69 16.924 151.941 17.08C152.192 17.2273 152.413 17.4267 152.604 17.678C152.795 17.9293 152.942 18.2067 153.046 18.51C153.159 18.8047 153.215 19.0993 153.215 19.394C153.215 19.914 153.124 20.33 152.942 20.642C152.76 20.9453 152.526 21.1663 152.24 21.305C151.963 21.435 151.672 21.5 151.369 21.5C151.118 21.5 150.797 21.4567 150.407 21.37C150.026 21.2833 149.545 21.058 148.964 20.694C148.687 21.0927 148.409 21.3397 148.132 21.435C147.855 21.5217 147.534 21.565 147.17 21.565ZM149.601 19.537C149.549 19.6497 149.501 19.758 149.458 19.862C149.831 20.0787 150.169 20.2303 150.472 20.317C150.784 20.395 151.044 20.434 151.252 20.434C151.625 20.434 151.889 20.3517 152.045 20.187C152.201 20.0223 152.279 19.8057 152.279 19.537C152.279 19.2857 152.218 19.0343 152.097 18.783C151.976 18.5317 151.82 18.3237 151.629 18.159C151.447 17.9943 151.252 17.912 151.044 17.912C150.888 17.912 150.736 17.9553 150.589 18.042C150.442 18.1287 150.29 18.289 150.134 18.523C149.978 18.757 149.8 19.095 149.601 19.537Z" fill="white"/>
<path d="M70.1526 41.517C70.1526 41.109 70.2092 40.6557 70.3226 40.157C70.4359 39.6583 70.6172 39.1087 70.8666 38.508L72.0906 38.984C71.9092 39.46 71.7732 39.8963 71.6826 40.293C71.5919 40.6897 71.5466 41.058 71.5466 41.398C71.5466 42.0327 71.7279 42.5427 72.0906 42.928C72.4646 43.3247 72.9519 43.6137 73.5526 43.795C74.1646 43.9763 74.8332 44.067 75.5586 44.067C76.4312 44.067 77.2246 43.965 77.9386 43.761C78.6639 43.5683 79.2419 43.302 79.6726 42.962C80.1032 42.622 80.3186 42.248 80.3186 41.84C80.3186 41.5453 80.0919 41.2903 79.6386 41.075C79.1852 40.8597 78.5506 40.6387 77.7346 40.412L78.0576 39.001C79.2249 39.4657 80.1372 39.783 80.7946 39.953C81.4632 40.1117 81.9732 40.191 82.3246 40.191C82.5626 40.191 82.7326 40.259 82.8346 40.395C82.9479 40.5197 83.0046 40.6727 83.0046 40.854C83.0046 41.0353 82.9252 41.2053 82.7666 41.364C82.6079 41.5113 82.4039 41.585 82.1546 41.585H81.5256C81.5369 41.687 81.5482 41.7663 81.5596 41.823C81.5822 41.891 81.5936 41.976 81.5936 42.078C81.5936 42.6333 81.3386 43.166 80.8286 43.676C80.3186 44.1973 79.5819 44.6223 78.6186 44.951C77.6666 45.2797 76.5219 45.444 75.1846 45.444C74.2779 45.444 73.4449 45.3023 72.6856 45.019C71.9262 44.7357 71.3142 44.2993 70.8496 43.71C70.3849 43.132 70.1526 42.401 70.1526 41.517ZM76.4086 48.657C76.1706 48.657 75.9666 48.572 75.7966 48.402C75.6379 48.2433 75.5586 48.0507 75.5586 47.824C75.5586 47.5973 75.6379 47.399 75.7966 47.229C75.9666 47.059 76.1706 46.974 76.4086 46.974C76.6352 46.974 76.8279 47.059 76.9866 47.229C77.1566 47.399 77.2416 47.5973 77.2416 47.824C77.2416 48.0507 77.1566 48.2433 76.9866 48.402C76.8279 48.572 76.6352 48.657 76.4086 48.657ZM74.0796 48.657C73.8416 48.657 73.6376 48.572 73.4676 48.402C73.3089 48.2433 73.2296 48.0507 73.2296 47.824C73.2296 47.5973 73.3089 47.399 73.4676 47.229C73.6376 47.059 73.8416 46.974 74.0796 46.974C74.3062 46.974 74.4989 47.059 74.6576 47.229C74.8276 47.399 74.9126 47.5973 74.9126 47.824C74.9126 48.0507 74.8276 48.2433 74.6576 48.402C74.4989 48.572 74.3062 48.657 74.0796 48.657ZM82.1602 41.585L82.3302 40.191C82.7042 40.191 83.1292 40.191 83.6052 40.191C84.0925 40.1797 84.5628 40.157 85.0162 40.123C85.4695 40.0777 85.8265 40.0097 86.0872 39.919C86.4498 39.7943 86.7388 39.6357 86.9542 39.443C87.1808 39.239 87.3508 38.9783 87.4642 38.661C87.2602 38.729 87.0392 38.78 86.8012 38.814C86.5745 38.8367 86.3478 38.848 86.1212 38.848C85.2485 38.848 84.5798 38.644 84.1152 38.236C83.6505 37.828 83.4182 37.3123 83.4182 36.689C83.4182 36.2583 83.4862 35.8277 83.6222 35.397C83.7582 34.955 83.9508 34.5527 84.2002 34.19C84.4495 33.8273 84.7498 33.5383 85.1012 33.323C85.4525 33.0963 85.8435 32.983 86.2742 32.983C86.8862 32.983 87.3905 33.187 87.7872 33.595C88.1952 33.9917 88.4955 34.5073 88.6882 35.142C88.8922 35.7767 88.9942 36.451 88.9942 37.165C88.9942 38.015 88.8468 38.746 88.5522 39.358C88.2688 39.9587 87.7928 40.4573 87.1242 40.854C86.7728 41.058 86.3308 41.2167 85.7982 41.33C85.2768 41.432 84.7045 41.5 84.0812 41.534C83.4578 41.568 82.8175 41.585 82.1602 41.585ZM84.7612 36.349C84.7612 36.7003 84.8745 36.9837 85.1012 37.199C85.3278 37.403 85.7188 37.505 86.2742 37.505C86.7615 37.505 87.2262 37.437 87.6682 37.301C87.6682 37.233 87.6682 37.1537 87.6682 37.063C87.6682 36.5983 87.6058 36.162 87.4812 35.754C87.3565 35.3347 87.1808 35.0003 86.9542 34.751C86.7275 34.5017 86.4555 34.377 86.1382 34.377C85.8662 34.377 85.6282 34.479 85.4242 34.683C85.2202 34.8757 85.0558 35.125 84.9312 35.431C84.8178 35.737 84.7612 36.043 84.7612 36.349ZM85.9512 31.232C85.7132 31.232 85.5092 31.1527 85.3392 30.994C85.1805 30.824 85.1012 30.6257 85.1012 30.399C85.1012 30.1723 85.1805 29.974 85.3392 29.804C85.5092 29.634 85.7132 29.549 85.9512 29.549C86.1778 29.549 86.3705 29.634 86.5292 29.804C86.6992 29.974 86.7842 30.1723 86.7842 30.399C86.7842 30.6257 86.6992 30.824 86.5292 30.994C86.3705 31.1527 86.1778 31.232 85.9512 31.232ZM99.0524 45.444C98.2024 45.444 97.4091 45.2853 96.6724 44.968C95.9471 44.662 95.3578 44.2143 94.9044 43.625C94.4624 43.047 94.2414 42.3443 94.2414 41.517C94.2414 41.109 94.2981 40.6557 94.4114 40.157C94.5248 39.6583 94.7061 39.1087 94.9554 38.508L96.1794 38.984C95.9981 39.46 95.8621 39.8963 95.7714 40.293C95.6808 40.6897 95.6354 41.058 95.6354 41.398C95.6354 41.976 95.7884 42.4633 96.0944 42.86C96.4118 43.2567 96.8311 43.5513 97.3524 43.744C97.8851 43.948 98.4688 44.05 99.1034 44.05C100.135 44.05 100.939 43.8857 101.517 43.557C102.107 43.2283 102.52 42.8033 102.758 42.282C103.008 41.7607 103.132 41.2223 103.132 40.667C103.132 40.1117 103.047 39.5393 102.877 38.95C102.719 38.3493 102.543 37.7147 102.35 37.046L103.727 36.672C103.909 37.318 104.028 37.7883 104.084 38.083C104.152 38.3777 104.22 38.61 104.288 38.78C104.504 39.324 104.923 39.7093 105.546 39.936C105.92 39.3807 106.351 38.8197 106.838 38.253C107.337 37.6863 107.875 37.1707 108.453 36.706C109.031 36.23 109.632 35.8503 110.255 35.567C110.879 35.2837 111.513 35.142 112.159 35.142C112.771 35.142 113.304 35.2723 113.757 35.533C114.211 35.7823 114.556 36.1223 114.794 36.553C115.044 36.9837 115.168 37.471 115.168 38.015C115.168 38.6837 114.97 39.3013 114.573 39.868C114.188 40.4233 113.531 40.871 112.601 41.211C111.672 41.551 110.408 41.721 108.81 41.721C107.722 41.721 106.833 41.636 106.141 41.466C105.45 41.296 104.923 41.0863 104.56 40.837C104.504 41.381 104.379 41.9193 104.186 42.452C103.994 42.996 103.693 43.4947 103.285 43.948C102.889 44.4013 102.345 44.764 101.653 45.036C100.973 45.308 100.106 45.444 99.0524 45.444ZM112.057 36.536C111.547 36.536 111.037 36.6607 110.527 36.91C110.029 37.1593 109.547 37.4823 109.082 37.879C108.629 38.2643 108.21 38.6667 107.824 39.086C107.45 39.5053 107.139 39.885 106.889 40.225C107.195 40.259 107.53 40.2873 107.892 40.31C108.266 40.3213 108.674 40.327 109.116 40.327C110.612 40.327 111.774 40.1457 112.601 39.783C113.44 39.409 113.859 38.865 113.859 38.151C113.859 37.913 113.797 37.6693 113.672 37.42C113.548 37.1707 113.355 36.961 113.094 36.791C112.834 36.621 112.488 36.536 112.057 36.536ZM111.666 33.391C111.428 33.391 111.224 33.3117 111.054 33.153C110.896 32.983 110.816 32.7847 110.816 32.558C110.816 32.3313 110.896 32.133 111.054 31.963C111.224 31.793 111.428 31.708 111.666 31.708C111.893 31.708 112.086 31.793 112.244 31.963C112.414 32.133 112.499 32.3313 112.499 32.558C112.499 32.7847 112.414 32.983 112.244 33.153C112.086 33.3117 111.893 33.391 111.666 33.391ZM115.996 45.444L115.503 44.152C116.602 43.7893 117.458 43.3587 118.07 42.86C118.693 42.3613 119.129 41.84 119.379 41.296C119.639 40.7407 119.77 40.2023 119.77 39.681C119.77 39.1257 119.645 38.5647 119.396 37.998C119.158 37.42 118.891 36.876 118.597 36.366L119.838 35.737C120.155 36.3377 120.421 36.9157 120.637 37.471C120.863 38.0263 121.039 38.5137 121.164 38.933C121.322 39.4203 121.526 39.7547 121.776 39.936C122.036 40.106 122.388 40.191 122.83 40.191C123.068 40.191 123.238 40.259 123.34 40.395C123.453 40.5197 123.51 40.6727 123.51 40.854C123.51 41.0353 123.43 41.2053 123.272 41.364C123.113 41.5113 122.909 41.585 122.66 41.585C122.229 41.585 121.866 41.517 121.572 41.381C121.288 41.245 121.056 41.0637 120.875 40.837C120.761 41.4717 120.523 42.0497 120.161 42.571C119.798 43.0923 119.373 43.5457 118.886 43.931C118.398 44.3277 117.9 44.6507 117.39 44.9C116.88 45.1493 116.415 45.3307 115.996 45.444ZM122.668 41.585L122.838 40.191C123.439 40.191 124.011 40.14 124.555 40.038C125.099 39.936 125.603 39.7943 126.068 39.613C125.796 39.2957 125.49 38.9727 125.15 38.644C124.81 38.3153 124.436 38.0037 124.028 37.709C123.96 37.6523 123.892 37.5503 123.824 37.403C123.756 37.2557 123.699 37.1027 123.654 36.944C123.609 36.7853 123.586 36.6663 123.586 36.587C123.586 36.417 123.694 36.213 123.909 35.975C124.124 35.737 124.413 35.5103 124.776 35.295C125.139 35.0683 125.552 34.8813 126.017 34.734C126.482 34.5867 126.963 34.513 127.462 34.513C128.108 34.513 128.629 34.6093 129.026 34.802C129.434 34.9947 129.729 35.244 129.91 35.55C130.103 35.8447 130.199 36.162 130.199 36.502C130.199 37.0573 130.04 37.6127 129.723 38.168C129.406 38.712 128.969 39.2107 128.414 39.664C128.901 39.8453 129.428 39.9813 129.995 40.072C130.562 40.1513 131.128 40.191 131.695 40.191C131.933 40.191 132.103 40.259 132.205 40.395C132.318 40.5197 132.375 40.6727 132.375 40.854C132.375 41.0353 132.296 41.2053 132.137 41.364C131.978 41.5113 131.774 41.585 131.525 41.585C130.777 41.585 130.006 41.5 129.213 41.33C128.431 41.1487 127.734 40.8767 127.122 40.514C126.499 40.8427 125.807 41.1033 125.048 41.296C124.3 41.4887 123.507 41.585 122.668 41.585ZM124.81 36.672C125.241 37.0347 125.643 37.3917 126.017 37.743C126.402 38.083 126.827 38.5023 127.292 39.001C127.779 38.6837 128.159 38.3437 128.431 37.981C128.714 37.607 128.856 37.2387 128.856 36.876C128.856 36.6493 128.731 36.4283 128.482 36.213C128.244 35.9977 127.819 35.89 127.207 35.89C126.822 35.89 126.391 35.9637 125.915 36.111C125.45 36.2583 125.082 36.4453 124.81 36.672ZM131.533 41.585L131.686 40.191C132.332 40.191 132.786 40.1287 133.046 40.004C133.307 39.8793 133.454 39.664 133.488 39.358C133.534 39.0407 133.545 38.593 133.522 38.015L133.199 29.362H134.576L134.916 37.862C134.95 38.6667 134.894 39.3467 134.746 39.902C134.61 40.4573 134.293 40.8767 133.794 41.16C133.307 41.4433 132.553 41.585 131.533 41.585ZM137.513 41.5L137.173 29.362H138.55L138.89 41.5H137.513Z" fill="white"/>
</svg>
