<svg width="275" height="55" viewBox="0 0 275 55" fill="none" xmlns="http://www.w3.org/2000/svg">
<rect x="0.5" y="0.5" width="274" height="54" rx="27" fill="#1F1F1F"/>
<rect x="0.5" y="0.5" width="274" height="54" rx="27" stroke="#747775"/>
<path d="M57 23.791H21V18.1455C21 15.0809 23.6422 12.5001 26.7798 12.5001H51.2202C54.3578 12.5001 57 15.0809 57 18.1455V23.791Z" fill="#34A853"/>
<path d="M57 29H21V23C21 19.7429 23.6422 17 26.7798 17H51.2202C54.3578 17 57 19.7429 57 23V29Z" fill="#FBBC04"/>
<path d="M57 34H21V28C21 24.7429 23.6422 22 26.7798 22H51.2202C54.3578 22 57 24.7429 57 28V34Z" fill="#EA4335"/>
<path d="M21 25.2409L43.8493 30.4025C46.4795 31.0477 49.4384 30.4025 51.5753 28.7895L57 24.9183V37.0157C57 40.0804 54.3699 42.4999 51.2466 42.4999H26.7534C23.6301 42.4999 21 40.0804 21 37.0157V25.2409Z" fill="#4285F4"/>
<path d="M76.14 33.772C75.2673 33.772 74.4457 33.6133 73.675 33.296C72.9043 32.9787 72.2243 32.5367 71.635 31.97C71.057 31.392 70.598 30.7177 70.258 29.947C69.9293 29.165 69.765 28.3207 69.765 27.414C69.765 26.5073 69.9293 25.6687 70.258 24.898C70.598 24.116 71.057 23.4417 71.635 22.875C72.2243 22.297 72.9043 21.8493 73.675 21.532C74.4457 21.2147 75.2673 21.056 76.14 21.056C77.0693 21.056 77.925 21.2203 78.707 21.549C79.5003 21.8777 80.1633 22.3367 80.696 22.926L79.404 24.201C79.1433 23.9063 78.843 23.657 78.503 23.453C78.1743 23.249 77.8117 23.096 77.415 22.994C77.0183 22.8807 76.5933 22.824 76.14 22.824C75.5393 22.824 74.967 22.9317 74.423 23.147C73.879 23.3623 73.3973 23.674 72.978 24.082C72.57 24.4787 72.247 24.9603 72.009 25.527C71.771 26.0823 71.652 26.7113 71.652 27.414C71.652 28.1167 71.771 28.7513 72.009 29.318C72.2583 29.8733 72.587 30.355 72.995 30.763C73.4143 31.1597 73.896 31.4657 74.44 31.681C74.984 31.8963 75.5563 32.004 76.157 32.004C76.7123 32.004 77.228 31.9247 77.704 31.766C78.1913 31.6073 78.6163 31.3807 78.979 31.086C79.3417 30.7913 79.6363 30.4343 79.863 30.015C80.0897 29.5843 80.2313 29.1027 80.288 28.57H76.123V26.921H82.039C82.0617 27.057 82.0843 27.2157 82.107 27.397C82.1297 27.567 82.141 27.7313 82.141 27.89V27.907C82.141 28.7797 81.988 29.5787 81.682 30.304C81.3873 31.0293 80.9737 31.6527 80.441 32.174C79.9083 32.684 79.2737 33.0807 78.537 33.364C77.8117 33.636 77.0127 33.772 76.14 33.772ZM87.6149 33.772C86.7195 33.772 85.9319 33.568 85.2519 33.16C84.5719 32.752 84.0392 32.2023 83.6539 31.511C83.2685 30.8083 83.0759 30.0263 83.0759 29.165C83.0759 28.3037 83.2685 27.5273 83.6539 26.836C84.0392 26.1333 84.5719 25.578 85.2519 25.17C85.9319 24.762 86.7195 24.558 87.6149 24.558C88.4989 24.558 89.2809 24.7677 89.9609 25.187C90.6409 25.595 91.1735 26.1447 91.5589 26.836C91.9442 27.5273 92.1369 28.3037 92.1369 29.165C92.1369 30.0263 91.9442 30.8083 91.5589 31.511C91.1735 32.2023 90.6409 32.752 89.9609 33.16C89.2809 33.568 88.4989 33.772 87.6149 33.772ZM87.6149 32.089C88.0909 32.089 88.5329 31.9757 88.9409 31.749C89.3489 31.511 89.6775 31.1767 89.9269 30.746C90.1875 30.304 90.3179 29.777 90.3179 29.165C90.3179 28.553 90.1875 28.0317 89.9269 27.601C89.6775 27.159 89.3489 26.8247 88.9409 26.598C88.5329 26.36 88.0909 26.241 87.6149 26.241C87.1389 26.241 86.6912 26.36 86.2719 26.598C85.8639 26.8247 85.5295 27.159 85.2689 27.601C85.0195 28.0317 84.8949 28.553 84.8949 29.165C84.8949 29.777 85.0195 30.304 85.2689 30.746C85.5295 31.1767 85.8695 31.511 86.2889 31.749C86.7082 31.9757 87.1502 32.089 87.6149 32.089ZM97.9078 33.772C97.0125 33.772 96.2248 33.568 95.5448 33.16C94.8648 32.752 94.3322 32.2023 93.9468 31.511C93.5615 30.8083 93.3688 30.0263 93.3688 29.165C93.3688 28.3037 93.5615 27.5273 93.9468 26.836C94.3322 26.1333 94.8648 25.578 95.5448 25.17C96.2248 24.762 97.0125 24.558 97.9078 24.558C98.7918 24.558 99.5738 24.7677 100.254 25.187C100.934 25.595 101.467 26.1447 101.852 26.836C102.237 27.5273 102.43 28.3037 102.43 29.165C102.43 30.0263 102.237 30.8083 101.852 31.511C101.467 32.2023 100.934 32.752 100.254 33.16C99.5738 33.568 98.7918 33.772 97.9078 33.772ZM97.9078 32.089C98.3838 32.089 98.8258 31.9757 99.2338 31.749C99.6418 31.511 99.9705 31.1767 100.22 30.746C100.481 30.304 100.611 29.777 100.611 29.165C100.611 28.553 100.481 28.0317 100.22 27.601C99.9705 27.159 99.6418 26.8247 99.2338 26.598C98.8258 26.36 98.3838 26.241 97.9078 26.241C97.4318 26.241 96.9842 26.36 96.5648 26.598C96.1568 26.8247 95.8225 27.159 95.5618 27.601C95.3125 28.0317 95.1878 28.553 95.1878 29.165C95.1878 29.777 95.3125 30.304 95.5618 30.746C95.8225 31.1767 96.1625 31.511 96.5818 31.749C97.0012 31.9757 97.4432 32.089 97.9078 32.089ZM108.031 37.444C107.271 37.444 106.614 37.3193 106.059 37.07C105.515 36.832 105.073 36.5203 104.733 36.135C104.393 35.761 104.149 35.3757 104.002 34.979L105.702 34.265C105.883 34.7183 106.172 35.0867 106.569 35.37C106.977 35.6647 107.464 35.812 108.031 35.812C108.835 35.812 109.464 35.574 109.918 35.098C110.371 34.622 110.598 33.9477 110.598 33.075V32.242H110.496C110.224 32.6387 109.85 32.9617 109.374 33.211C108.898 33.4603 108.348 33.585 107.725 33.585C106.988 33.585 106.308 33.398 105.685 33.024C105.073 32.65 104.58 32.1287 104.206 31.46C103.843 30.78 103.662 29.9867 103.662 29.08C103.662 28.162 103.843 27.3687 104.206 26.7C104.58 26.02 105.073 25.493 105.685 25.119C106.308 24.745 106.988 24.558 107.725 24.558C108.348 24.558 108.898 24.6827 109.374 24.932C109.85 25.17 110.224 25.4987 110.496 25.918H110.598V24.83H112.349V33.041C112.349 33.9817 112.162 34.7807 111.788 35.438C111.425 36.0953 110.921 36.594 110.275 36.934C109.629 37.274 108.881 37.444 108.031 37.444ZM108.048 31.919C108.501 31.919 108.92 31.8113 109.306 31.596C109.702 31.3693 110.014 31.0463 110.241 30.627C110.479 30.1963 110.598 29.6807 110.598 29.08C110.598 28.4453 110.479 27.9183 110.241 27.499C110.014 27.0797 109.702 26.7623 109.306 26.547C108.92 26.3317 108.501 26.224 108.048 26.224C107.594 26.224 107.169 26.3317 106.773 26.547C106.387 26.7623 106.076 27.0853 105.838 27.516C105.6 27.9353 105.481 28.4567 105.481 29.08C105.481 29.692 105.6 30.2133 105.838 30.644C106.076 31.0633 106.387 31.3807 106.773 31.596C107.169 31.8113 107.594 31.919 108.048 31.919ZM114.514 33.5V21.328H116.35V33.5H114.514ZM122.392 33.772C121.542 33.772 120.783 33.5737 120.114 33.177C119.446 32.7803 118.919 32.2363 118.533 31.545C118.159 30.8537 117.972 30.066 117.972 29.182C117.972 28.3547 118.154 27.5897 118.516 26.887C118.879 26.1843 119.383 25.6233 120.029 25.204C120.687 24.7733 121.44 24.558 122.29 24.558C123.186 24.558 123.945 24.7507 124.568 25.136C125.203 25.5213 125.685 26.0483 126.013 26.717C126.342 27.3857 126.506 28.1393 126.506 28.978C126.506 29.1027 126.501 29.216 126.489 29.318C126.489 29.42 126.484 29.4993 126.472 29.556H119.774C119.82 30.032 119.939 30.4457 120.131 30.797C120.381 31.239 120.709 31.5733 121.117 31.8C121.525 32.0267 121.967 32.14 122.443 32.14C123.021 32.14 123.503 32.0097 123.888 31.749C124.285 31.477 124.597 31.1427 124.823 30.746L126.336 31.477C125.962 32.157 125.452 32.7123 124.806 33.143C124.16 33.5623 123.356 33.772 122.392 33.772ZM119.876 28.179H124.687C124.676 27.9637 124.619 27.737 124.517 27.499C124.415 27.2497 124.268 27.023 124.075 26.819C123.883 26.615 123.639 26.4507 123.344 26.326C123.05 26.19 122.704 26.122 122.307 26.122C121.809 26.122 121.367 26.2523 120.981 26.513C120.596 26.7623 120.296 27.1137 120.08 27.567C119.99 27.7597 119.922 27.9637 119.876 28.179ZM132.483 33.5V21.328H136.665C137.402 21.328 138.071 21.4867 138.671 21.804C139.272 22.11 139.748 22.5463 140.099 23.113C140.462 23.6683 140.643 24.3143 140.643 25.051C140.643 25.7763 140.462 26.4223 140.099 26.989C139.748 27.5557 139.272 27.9977 138.671 28.315C138.071 28.621 137.402 28.774 136.665 28.774H134.353V33.5H132.483ZM134.353 27.006H136.716C137.158 27.006 137.532 26.9153 137.838 26.734C138.144 26.5413 138.377 26.2977 138.535 26.003C138.705 25.697 138.79 25.3797 138.79 25.051C138.79 24.7223 138.705 24.4107 138.535 24.116C138.377 23.8213 138.144 23.5777 137.838 23.385C137.532 23.1923 137.158 23.096 136.716 23.096H134.353V27.006ZM145.234 33.772C144.168 33.772 143.364 33.4547 142.82 32.82C142.287 32.174 142.021 31.3013 142.021 30.202V24.83H143.857V29.947C143.857 30.6723 144.027 31.2107 144.367 31.562C144.718 31.9133 145.154 32.089 145.676 32.089C146.152 32.089 146.56 31.97 146.9 31.732C147.24 31.4827 147.5 31.1597 147.682 30.763C147.874 30.3663 147.971 29.9413 147.971 29.488V24.83H149.79V33.5H148.073V32.327H147.971C147.812 32.599 147.591 32.8427 147.308 33.058C147.024 33.2733 146.707 33.4433 146.356 33.568C146.004 33.704 145.63 33.772 145.234 33.772ZM151.967 33.5V21.328H153.803V33.5H151.967ZM162.378 37.172V33.551L162.48 32.344H162.378C162.231 32.582 162.021 32.8143 161.749 33.041C161.489 33.2563 161.177 33.432 160.814 33.568C160.452 33.704 160.044 33.772 159.59 33.772C158.808 33.772 158.1 33.5737 157.465 33.177C156.831 32.7803 156.332 32.2363 155.969 31.545C155.607 30.8537 155.425 30.0603 155.425 29.165C155.425 28.2697 155.607 27.4763 155.969 26.785C156.332 26.0937 156.831 25.5497 157.465 25.153C158.1 24.7563 158.808 24.558 159.59 24.558C160.044 24.558 160.452 24.626 160.814 24.762C161.177 24.898 161.489 25.0793 161.749 25.306C162.021 25.5213 162.231 25.7537 162.378 26.003H162.48V24.83H164.197V37.172H162.378ZM159.862 32.089C160.316 32.089 160.741 31.97 161.137 31.732C161.545 31.494 161.868 31.1597 162.106 30.729C162.356 30.287 162.48 29.7657 162.48 29.165C162.48 28.5643 162.356 28.0487 162.106 27.618C161.868 27.176 161.545 26.836 161.137 26.598C160.741 26.36 160.316 26.241 159.862 26.241C159.409 26.241 158.984 26.36 158.587 26.598C158.191 26.836 157.868 27.176 157.618 27.618C157.369 28.0487 157.244 28.5643 157.244 29.165C157.244 29.7543 157.369 30.27 157.618 30.712C157.868 31.154 158.191 31.494 158.587 31.732C158.984 31.97 159.409 32.089 159.862 32.089ZM168.964 33.772C168.341 33.772 167.785 33.6473 167.298 33.398C166.822 33.1487 166.442 32.8087 166.159 32.378C165.887 31.936 165.751 31.4317 165.751 30.865C165.751 30.2417 165.91 29.7147 166.227 29.284C166.556 28.8533 166.992 28.5247 167.536 28.298C168.08 28.0713 168.681 27.958 169.338 27.958C169.701 27.958 170.035 27.9863 170.341 28.043C170.658 28.0883 170.93 28.145 171.157 28.213C171.395 28.281 171.582 28.3547 171.718 28.434V27.975C171.718 27.4083 171.514 26.955 171.106 26.615C170.698 26.275 170.171 26.105 169.525 26.105C169.083 26.105 168.664 26.207 168.267 26.411C167.87 26.6037 167.553 26.87 167.315 27.21L166.057 26.241C166.306 25.8897 166.607 25.5893 166.958 25.34C167.321 25.0907 167.723 24.898 168.165 24.762C168.618 24.626 169.089 24.558 169.576 24.558C170.834 24.558 171.803 24.8697 172.483 25.493C173.163 26.105 173.503 26.9663 173.503 28.077V33.5H171.718V32.429H171.616C171.469 32.6557 171.265 32.871 171.004 33.075C170.755 33.279 170.454 33.4433 170.103 33.568C169.763 33.704 169.383 33.772 168.964 33.772ZM169.287 32.276C169.763 32.276 170.182 32.1627 170.545 31.936C170.919 31.7093 171.208 31.4147 171.412 31.052C171.616 30.678 171.718 30.2757 171.718 29.845C171.469 29.6977 171.163 29.5787 170.8 29.488C170.449 29.386 170.075 29.335 169.678 29.335C168.93 29.335 168.397 29.4823 168.08 29.777C167.763 30.0717 167.604 30.44 167.604 30.882C167.604 31.29 167.757 31.6243 168.063 31.885C168.369 32.1457 168.777 32.276 169.287 32.276ZM180.148 33.772C179.706 33.772 179.304 33.704 178.941 33.568C178.578 33.432 178.261 33.2563 177.989 33.041C177.728 32.8143 177.519 32.582 177.36 32.344H177.258V33.5H175.524V21.328H177.36V24.796L177.258 26.003H177.36C177.519 25.7537 177.728 25.5213 177.989 25.306C178.261 25.0793 178.578 24.898 178.941 24.762C179.304 24.626 179.706 24.558 180.148 24.558C180.941 24.558 181.65 24.7563 182.273 25.153C182.896 25.5497 183.389 26.0937 183.752 26.785C184.126 27.4763 184.313 28.2697 184.313 29.165C184.313 30.0603 184.126 30.8537 183.752 31.545C183.389 32.2363 182.896 32.7803 182.273 33.177C181.65 33.5737 180.941 33.772 180.148 33.772ZM179.876 32.089C180.329 32.089 180.754 31.97 181.151 31.732C181.559 31.494 181.882 31.154 182.12 30.712C182.369 30.27 182.494 29.7543 182.494 29.165C182.494 28.5643 182.369 28.0487 182.12 27.618C181.882 27.176 181.559 26.836 181.151 26.598C180.754 26.36 180.329 26.241 179.876 26.241C179.423 26.241 178.998 26.36 178.601 26.598C178.204 26.836 177.881 27.176 177.632 27.618C177.383 28.0487 177.258 28.5643 177.258 29.165C177.258 29.7657 177.383 30.287 177.632 30.729C177.881 31.1597 178.204 31.494 178.601 31.732C178.998 31.97 179.423 32.089 179.876 32.089ZM186.053 33.5V24.83H187.889V33.5H186.053ZM193.806 33.772C193.024 33.772 192.316 33.5737 191.681 33.177C191.047 32.7803 190.548 32.2363 190.185 31.545C189.823 30.8537 189.641 30.0603 189.641 29.165C189.641 28.2697 189.823 27.4763 190.185 26.785C190.548 26.0937 191.047 25.5497 191.681 25.153C192.316 24.7563 193.024 24.558 193.806 24.558C194.26 24.558 194.668 24.626 195.03 24.762C195.393 24.898 195.705 25.0793 195.965 25.306C196.237 25.5213 196.447 25.7537 196.594 26.003H196.696L196.594 24.796V21.328H198.413V33.5H196.696V32.344H196.594C196.447 32.582 196.237 32.8143 195.965 33.041C195.705 33.2563 195.393 33.432 195.03 33.568C194.668 33.704 194.26 33.772 193.806 33.772ZM194.078 32.089C194.532 32.089 194.957 31.97 195.353 31.732C195.761 31.494 196.084 31.1597 196.322 30.729C196.572 30.287 196.696 29.7657 196.696 29.165C196.696 28.5643 196.572 28.0487 196.322 27.618C196.084 27.176 195.761 26.836 195.353 26.598C194.957 26.36 194.532 26.241 194.078 26.241C193.625 26.241 193.2 26.36 192.803 26.598C192.407 26.836 192.084 27.176 191.834 27.618C191.585 28.0487 191.46 28.5643 191.46 29.165C191.46 29.7543 191.585 30.27 191.834 30.712C192.084 31.154 192.407 31.494 192.803 31.732C193.2 31.97 193.625 32.089 194.078 32.089ZM203.213 33.772C202.59 33.772 202.034 33.6473 201.547 33.398C201.071 33.1487 200.691 32.8087 200.408 32.378C200.136 31.936 200 31.4317 200 30.865C200 30.2417 200.159 29.7147 200.476 29.284C200.805 28.8533 201.241 28.5247 201.785 28.298C202.329 28.0713 202.93 27.958 203.587 27.958C203.95 27.958 204.284 27.9863 204.59 28.043C204.907 28.0883 205.179 28.145 205.406 28.213C205.644 28.281 205.831 28.3547 205.967 28.434V27.975C205.967 27.4083 205.763 26.955 205.355 26.615C204.947 26.275 204.42 26.105 203.774 26.105C203.332 26.105 202.913 26.207 202.516 26.411C202.119 26.6037 201.802 26.87 201.564 27.21L200.306 26.241C200.555 25.8897 200.856 25.5893 201.207 25.34C201.57 25.0907 201.972 24.898 202.414 24.762C202.867 24.626 203.338 24.558 203.825 24.558C205.083 24.558 206.052 24.8697 206.732 25.493C207.412 26.105 207.752 26.9663 207.752 28.077V33.5H205.967V32.429H205.865C205.718 32.6557 205.514 32.871 205.253 33.075C205.004 33.279 204.703 33.4433 204.352 33.568C204.012 33.704 203.632 33.772 203.213 33.772ZM203.536 32.276C204.012 32.276 204.431 32.1627 204.794 31.936C205.168 31.7093 205.457 31.4147 205.661 31.052C205.865 30.678 205.967 30.2757 205.967 29.845C205.718 29.6977 205.412 29.5787 205.049 29.488C204.698 29.386 204.324 29.335 203.927 29.335C203.179 29.335 202.646 29.4823 202.329 29.777C202.012 30.0717 201.853 30.44 201.853 30.882C201.853 31.29 202.006 31.6243 202.312 31.885C202.618 32.1457 203.026 32.276 203.536 32.276ZM218.365 33.772C217.923 33.772 217.521 33.704 217.158 33.568C216.795 33.432 216.478 33.2563 216.206 33.041C215.945 32.8143 215.736 32.582 215.577 32.344H215.475V33.5H213.741V21.328H215.577V24.796L215.475 26.003H215.577C215.736 25.7537 215.945 25.5213 216.206 25.306C216.478 25.0793 216.795 24.898 217.158 24.762C217.521 24.626 217.923 24.558 218.365 24.558C219.158 24.558 219.867 24.7563 220.49 25.153C221.113 25.5497 221.606 26.0937 221.969 26.785C222.343 27.4763 222.53 28.2697 222.53 29.165C222.53 30.0603 222.343 30.8537 221.969 31.545C221.606 32.2363 221.113 32.7803 220.49 33.177C219.867 33.5737 219.158 33.772 218.365 33.772ZM218.093 32.089C218.546 32.089 218.971 31.97 219.368 31.732C219.776 31.494 220.099 31.154 220.337 30.712C220.586 30.27 220.711 29.7543 220.711 29.165C220.711 28.5643 220.586 28.0487 220.337 27.618C220.099 27.176 219.776 26.836 219.368 26.598C218.971 26.36 218.546 26.241 218.093 26.241C217.64 26.241 217.215 26.36 216.818 26.598C216.421 26.836 216.098 27.176 215.849 27.618C215.6 28.0487 215.475 28.5643 215.475 29.165C215.475 29.7657 215.6 30.287 215.849 30.729C216.098 31.1597 216.421 31.494 216.818 31.732C217.215 31.97 217.64 32.089 218.093 32.089ZM226.937 33.772C226.313 33.772 225.758 33.6473 225.271 33.398C224.795 33.1487 224.415 32.8087 224.132 32.378C223.86 31.936 223.724 31.4317 223.724 30.865C223.724 30.2417 223.882 29.7147 224.2 29.284C224.528 28.8533 224.965 28.5247 225.509 28.298C226.053 28.0713 226.653 27.958 227.311 27.958C227.673 27.958 228.008 27.9863 228.314 28.043C228.631 28.0883 228.903 28.145 229.13 28.213C229.368 28.281 229.555 28.3547 229.691 28.434V27.975C229.691 27.4083 229.487 26.955 229.079 26.615C228.671 26.275 228.144 26.105 227.498 26.105C227.056 26.105 226.636 26.207 226.24 26.411C225.843 26.6037 225.526 26.87 225.288 27.21L224.03 26.241C224.279 25.8897 224.579 25.5893 224.931 25.34C225.293 25.0907 225.696 24.898 226.138 24.762C226.591 24.626 227.061 24.558 227.549 24.558C228.807 24.558 229.776 24.8697 230.456 25.493C231.136 26.105 231.476 26.9663 231.476 28.077V33.5H229.691V32.429H229.589C229.441 32.6557 229.237 32.871 228.977 33.075C228.727 33.279 228.427 33.4433 228.076 33.568C227.736 33.704 227.356 33.772 226.937 33.772ZM227.26 32.276C227.736 32.276 228.155 32.1627 228.518 31.936C228.892 31.7093 229.181 31.4147 229.385 31.052C229.589 30.678 229.691 30.2757 229.691 29.845C229.441 29.6977 229.135 29.5787 228.773 29.488C228.421 29.386 228.047 29.335 227.651 29.335C226.903 29.335 226.37 29.4823 226.053 29.777C225.735 30.0717 225.577 30.44 225.577 30.882C225.577 31.29 225.73 31.6243 226.036 31.885C226.342 32.1457 226.75 32.276 227.26 32.276ZM232.564 33.5L235.607 29.097L232.615 24.83H234.74L236.712 27.72L238.582 24.83H240.792L237.749 29.097L240.809 33.5H238.667L236.678 30.525L234.723 33.5H232.564ZM242.232 33.5V24.83H244.068V33.5H242.232ZM246.363 33.5V24.83H248.097V26.02H248.199C248.448 25.6007 248.817 25.255 249.304 24.983C249.803 24.6997 250.347 24.558 250.936 24.558C252.001 24.558 252.8 24.8753 253.333 25.51C253.866 26.1333 254.132 26.972 254.132 28.026V33.5H252.313V28.264C252.313 27.5613 252.137 27.0513 251.786 26.734C251.435 26.4053 250.976 26.241 250.409 26.241C249.967 26.241 249.582 26.3657 249.253 26.615C248.924 26.853 248.664 27.1703 248.471 27.567C248.29 27.9637 248.199 28.3887 248.199 28.842V33.5H246.363Z" fill="white"/>
</svg>
