<svg width="199" height="55" viewBox="0 0 199 55" fill="none" xmlns="http://www.w3.org/2000/svg">
<rect x="0.5" y="0.5" width="198" height="54" rx="27" fill="#1F1F1F"/>
<rect x="0.5" y="0.5" width="198" height="54" rx="27" stroke="#747775"/>
<path d="M57 23.791H21V18.1455C21 15.0809 23.6422 12.5001 26.7798 12.5001H51.2202C54.3578 12.5001 57 15.0809 57 18.1455V23.791Z" fill="#34A853"/>
<path d="M57 29H21V23C21 19.7429 23.6422 17 26.7798 17H51.2202C54.3578 17 57 19.7429 57 23V29Z" fill="#FBBC04"/>
<path d="M57 34H21V28C21 24.7429 23.6422 22 26.7798 22H51.2202C54.3578 22 57 24.7429 57 28V34Z" fill="#EA4335"/>
<path d="M21 25.2409L43.8493 30.4025C46.4795 31.0477 49.4384 30.4025 51.5753 28.7895L57 24.9183V37.0157C57 40.0804 54.3699 42.4999 51.2466 42.4999H26.7534C23.6301 42.4999 21 40.0804 21 37.0157V25.2409Z" fill="#4285F4"/>
<path d="M70.053 21.5V12.192H77.073V21.5H75.643V13.544H71.483V21.5H70.053ZM78.9339 24.308V14.87H80.2469V15.767H80.3249C80.4463 15.5763 80.6066 15.3987 80.8059 15.234C81.0139 15.0607 81.2566 14.922 81.5339 14.818C81.8113 14.714 82.1189 14.662 82.4569 14.662C83.0636 14.662 83.6053 14.8137 84.0819 15.117C84.5586 15.4203 84.9356 15.8363 85.2129 16.365C85.4989 16.8937 85.6419 17.5003 85.6419 18.185C85.6419 18.8697 85.4989 19.4763 85.2129 20.005C84.9356 20.5337 84.5586 20.9497 84.0819 21.253C83.6053 21.5563 83.0636 21.708 82.4569 21.708C81.9543 21.708 81.5166 21.5953 81.1439 21.37C80.7713 21.1447 80.4983 20.8933 80.3249 20.616H80.2469L80.3249 21.539V24.308H78.9339ZM82.2489 20.421C82.5956 20.421 82.9206 20.33 83.2239 20.148C83.5359 19.966 83.7829 19.706 83.9649 19.368C84.1556 19.03 84.2509 18.6357 84.2509 18.185C84.2509 17.7257 84.1556 17.3313 83.9649 17.002C83.7829 16.664 83.5359 16.404 83.2239 16.222C82.9206 16.04 82.5956 15.949 82.2489 15.949C81.9023 15.949 81.5773 16.04 81.2739 16.222C80.9706 16.404 80.7236 16.664 80.5329 17.002C80.3423 17.3313 80.2469 17.7257 80.2469 18.185C80.2469 18.6443 80.3423 19.043 80.5329 19.381C80.7236 19.7103 80.9706 19.966 81.2739 20.148C81.5773 20.33 81.9023 20.421 82.2489 20.421ZM89.9359 21.708C89.2859 21.708 88.7052 21.5563 88.1939 21.253C87.6826 20.9497 87.2796 20.5337 86.9849 20.005C86.6989 19.4763 86.5559 18.874 86.5559 18.198C86.5559 17.5653 86.6946 16.9803 86.9719 16.443C87.2492 15.9057 87.6349 15.4767 88.1289 15.156C88.6316 14.8267 89.2079 14.662 89.8579 14.662C90.5426 14.662 91.1232 14.8093 91.5999 15.104C92.0852 15.3987 92.4536 15.8017 92.7049 16.313C92.9562 16.8243 93.0819 17.4007 93.0819 18.042C93.0819 18.1373 93.0776 18.224 93.0689 18.302C93.0689 18.38 93.0646 18.4407 93.0559 18.484H87.9339C87.9686 18.848 88.0596 19.1643 88.2069 19.433C88.3976 19.771 88.6489 20.0267 88.9609 20.2C89.2729 20.3733 89.6109 20.46 89.9749 20.46C90.4169 20.46 90.7852 20.3603 91.0799 20.161C91.3832 19.953 91.6216 19.6973 91.7949 19.394L92.9519 19.953C92.6659 20.473 92.2759 20.8977 91.7819 21.227C91.2879 21.5477 90.6726 21.708 89.9359 21.708ZM88.0119 17.431H91.6909C91.6822 17.2663 91.6389 17.093 91.5609 16.911C91.4829 16.7203 91.3702 16.547 91.2229 16.391C91.0756 16.235 90.8892 16.1093 90.6639 16.014C90.4386 15.91 90.1742 15.858 89.8709 15.858C89.4896 15.858 89.1516 15.9577 88.8569 16.157C88.5622 16.3477 88.3326 16.6163 88.1679 16.963C88.0986 17.1103 88.0466 17.2663 88.0119 17.431ZM94.3844 21.5V14.87H98.7264V16.092H95.7884V21.5H94.3844ZM99.6173 21.604C99.522 21.604 99.4223 21.5953 99.3183 21.578C99.223 21.5693 99.132 21.5563 99.0453 21.539V20.239C99.106 20.265 99.1753 20.2867 99.2533 20.304C99.3313 20.3213 99.3963 20.33 99.4483 20.33C99.743 20.33 99.951 20.2173 100.072 19.992C100.194 19.758 100.267 19.4633 100.293 19.108C100.319 18.7527 100.332 18.3843 100.332 18.003V14.87H105.402V21.5H104.011V16.092H101.658V18.224C101.658 18.666 101.628 19.0907 101.567 19.498C101.507 19.9053 101.403 20.2693 101.255 20.59C101.117 20.902 100.913 21.149 100.644 21.331C100.384 21.513 100.042 21.604 99.6173 21.604ZM110.02 21.708C109.37 21.708 108.789 21.5563 108.278 21.253C107.767 20.9497 107.364 20.5337 107.069 20.005C106.783 19.4763 106.64 18.874 106.64 18.198C106.64 17.5653 106.779 16.9803 107.056 16.443C107.333 15.9057 107.719 15.4767 108.213 15.156C108.716 14.8267 109.292 14.662 109.942 14.662C110.627 14.662 111.207 14.8093 111.684 15.104C112.169 15.3987 112.538 15.8017 112.789 16.313C113.04 16.8243 113.166 17.4007 113.166 18.042C113.166 18.1373 113.162 18.224 113.153 18.302C113.153 18.38 113.149 18.4407 113.14 18.484H108.018C108.053 18.848 108.144 19.1643 108.291 19.433C108.482 19.771 108.733 20.0267 109.045 20.2C109.357 20.3733 109.695 20.46 110.059 20.46C110.501 20.46 110.869 20.3603 111.164 20.161C111.467 19.953 111.706 19.6973 111.879 19.394L113.036 19.953C112.75 20.473 112.36 20.8977 111.866 21.227C111.372 21.5477 110.757 21.708 110.02 21.708ZM108.096 17.431H111.775C111.766 17.2663 111.723 17.093 111.645 16.911C111.567 16.7203 111.454 16.547 111.307 16.391C111.16 16.235 110.973 16.1093 110.748 16.014C110.523 15.91 110.258 15.858 109.955 15.858C109.574 15.858 109.236 15.9577 108.941 16.157C108.646 16.3477 108.417 16.6163 108.252 16.963C108.183 17.1103 108.131 17.2663 108.096 17.431ZM113.771 23.476V20.278H114.499C114.638 20.1047 114.763 19.8663 114.876 19.563C114.989 19.2597 115.075 18.913 115.136 18.523C115.197 18.133 115.227 17.7387 115.227 17.34V14.87H120.193V20.278H121.155V23.476H119.868V21.5H115.071V23.476H113.771ZM116.007 20.278H118.802V16.092H116.553V17.457C116.553 17.8557 116.531 18.2197 116.488 18.549C116.453 18.8783 116.393 19.1773 116.306 19.446C116.228 19.7147 116.128 19.966 116.007 20.2V20.278ZM125.437 21.5V14.87H128.726C129.116 14.87 129.463 14.948 129.766 15.104C130.078 15.2513 130.321 15.455 130.494 15.715C130.676 15.975 130.767 16.2653 130.767 16.586C130.767 16.9327 130.689 17.2317 130.533 17.483C130.386 17.7343 130.191 17.9207 129.948 18.042V18.12C130.277 18.25 130.537 18.445 130.728 18.705C130.927 18.965 131.027 19.264 131.027 19.602C131.027 19.992 130.923 20.33 130.715 20.616C130.516 20.902 130.256 21.123 129.935 21.279C129.614 21.4263 129.272 21.5 128.908 21.5H125.437ZM126.841 18.614V20.33H128.765C129.016 20.33 129.224 20.252 129.389 20.096C129.562 19.9313 129.649 19.7233 129.649 19.472C129.649 19.2293 129.562 19.0257 129.389 18.861C129.224 18.6963 129.016 18.614 128.765 18.614H126.841ZM126.841 16.014V17.574H128.557C128.791 17.574 128.986 17.5003 129.142 17.353C129.298 17.2057 129.376 17.0193 129.376 16.794C129.376 16.56 129.298 16.3737 129.142 16.235C128.986 16.0877 128.791 16.014 128.557 16.014H126.841Z" fill="white"/>
<path d="M76.14 41.772C75.2673 41.772 74.4457 41.6133 73.675 41.296C72.9043 40.9787 72.2243 40.5367 71.635 39.97C71.057 39.392 70.598 38.7177 70.258 37.947C69.9293 37.165 69.765 36.3207 69.765 35.414C69.765 34.5073 69.9293 33.6687 70.258 32.898C70.598 32.116 71.057 31.4417 71.635 30.875C72.2243 30.297 72.9043 29.8493 73.675 29.532C74.4457 29.2147 75.2673 29.056 76.14 29.056C77.0693 29.056 77.925 29.2203 78.707 29.549C79.5003 29.8777 80.1633 30.3367 80.696 30.926L79.404 32.201C79.1433 31.9063 78.843 31.657 78.503 31.453C78.1743 31.249 77.8117 31.096 77.415 30.994C77.0183 30.8807 76.5933 30.824 76.14 30.824C75.5393 30.824 74.967 30.9317 74.423 31.147C73.879 31.3623 73.3973 31.674 72.978 32.082C72.57 32.4787 72.247 32.9603 72.009 33.527C71.771 34.0823 71.652 34.7113 71.652 35.414C71.652 36.1167 71.771 36.7513 72.009 37.318C72.2583 37.8733 72.587 38.355 72.995 38.763C73.4143 39.1597 73.896 39.4657 74.44 39.681C74.984 39.8963 75.5563 40.004 76.157 40.004C76.7123 40.004 77.228 39.9247 77.704 39.766C78.1913 39.6073 78.6163 39.3807 78.979 39.086C79.3417 38.7913 79.6363 38.4343 79.863 38.015C80.0897 37.5843 80.2313 37.1027 80.288 36.57H76.123V34.921H82.039C82.0617 35.057 82.0843 35.2157 82.107 35.397C82.1297 35.567 82.141 35.7313 82.141 35.89V35.907C82.141 36.7797 81.988 37.5787 81.682 38.304C81.3873 39.0293 80.9737 39.6527 80.441 40.174C79.9083 40.684 79.2737 41.0807 78.537 41.364C77.8117 41.636 77.0127 41.772 76.14 41.772ZM87.6149 41.772C86.7195 41.772 85.9319 41.568 85.2519 41.16C84.5719 40.752 84.0392 40.2023 83.6539 39.511C83.2685 38.8083 83.0759 38.0263 83.0759 37.165C83.0759 36.3037 83.2685 35.5273 83.6539 34.836C84.0392 34.1333 84.5719 33.578 85.2519 33.17C85.9319 32.762 86.7195 32.558 87.6149 32.558C88.4989 32.558 89.2809 32.7677 89.9609 33.187C90.6409 33.595 91.1735 34.1447 91.5589 34.836C91.9442 35.5273 92.1369 36.3037 92.1369 37.165C92.1369 38.0263 91.9442 38.8083 91.5589 39.511C91.1735 40.2023 90.6409 40.752 89.9609 41.16C89.2809 41.568 88.4989 41.772 87.6149 41.772ZM87.6149 40.089C88.0909 40.089 88.5329 39.9757 88.9409 39.749C89.3489 39.511 89.6775 39.1767 89.9269 38.746C90.1875 38.304 90.3179 37.777 90.3179 37.165C90.3179 36.553 90.1875 36.0317 89.9269 35.601C89.6775 35.159 89.3489 34.8247 88.9409 34.598C88.5329 34.36 88.0909 34.241 87.6149 34.241C87.1389 34.241 86.6912 34.36 86.2719 34.598C85.8639 34.8247 85.5295 35.159 85.2689 35.601C85.0195 36.0317 84.8949 36.553 84.8949 37.165C84.8949 37.777 85.0195 38.304 85.2689 38.746C85.5295 39.1767 85.8695 39.511 86.2889 39.749C86.7082 39.9757 87.1502 40.089 87.6149 40.089ZM97.9078 41.772C97.0125 41.772 96.2248 41.568 95.5448 41.16C94.8648 40.752 94.3322 40.2023 93.9468 39.511C93.5615 38.8083 93.3688 38.0263 93.3688 37.165C93.3688 36.3037 93.5615 35.5273 93.9468 34.836C94.3322 34.1333 94.8648 33.578 95.5448 33.17C96.2248 32.762 97.0125 32.558 97.9078 32.558C98.7918 32.558 99.5738 32.7677 100.254 33.187C100.934 33.595 101.467 34.1447 101.852 34.836C102.237 35.5273 102.43 36.3037 102.43 37.165C102.43 38.0263 102.237 38.8083 101.852 39.511C101.467 40.2023 100.934 40.752 100.254 41.16C99.5738 41.568 98.7918 41.772 97.9078 41.772ZM97.9078 40.089C98.3838 40.089 98.8258 39.9757 99.2338 39.749C99.6418 39.511 99.9705 39.1767 100.22 38.746C100.481 38.304 100.611 37.777 100.611 37.165C100.611 36.553 100.481 36.0317 100.22 35.601C99.9705 35.159 99.6418 34.8247 99.2338 34.598C98.8258 34.36 98.3838 34.241 97.9078 34.241C97.4318 34.241 96.9842 34.36 96.5648 34.598C96.1568 34.8247 95.8225 35.159 95.5618 35.601C95.3125 36.0317 95.1878 36.553 95.1878 37.165C95.1878 37.777 95.3125 38.304 95.5618 38.746C95.8225 39.1767 96.1625 39.511 96.5818 39.749C97.0012 39.9757 97.4432 40.089 97.9078 40.089ZM108.031 45.444C107.271 45.444 106.614 45.3193 106.059 45.07C105.515 44.832 105.073 44.5203 104.733 44.135C104.393 43.761 104.149 43.3757 104.002 42.979L105.702 42.265C105.883 42.7183 106.172 43.0867 106.569 43.37C106.977 43.6647 107.464 43.812 108.031 43.812C108.835 43.812 109.464 43.574 109.918 43.098C110.371 42.622 110.598 41.9477 110.598 41.075V40.242H110.496C110.224 40.6387 109.85 40.9617 109.374 41.211C108.898 41.4603 108.348 41.585 107.725 41.585C106.988 41.585 106.308 41.398 105.685 41.024C105.073 40.65 104.58 40.1287 104.206 39.46C103.843 38.78 103.662 37.9867 103.662 37.08C103.662 36.162 103.843 35.3687 104.206 34.7C104.58 34.02 105.073 33.493 105.685 33.119C106.308 32.745 106.988 32.558 107.725 32.558C108.348 32.558 108.898 32.6827 109.374 32.932C109.85 33.17 110.224 33.4987 110.496 33.918H110.598V32.83H112.349V41.041C112.349 41.9817 112.162 42.7807 111.788 43.438C111.425 44.0953 110.921 44.594 110.275 44.934C109.629 45.274 108.881 45.444 108.031 45.444ZM108.048 39.919C108.501 39.919 108.92 39.8113 109.306 39.596C109.702 39.3693 110.014 39.0463 110.241 38.627C110.479 38.1963 110.598 37.6807 110.598 37.08C110.598 36.4453 110.479 35.9183 110.241 35.499C110.014 35.0797 109.702 34.7623 109.306 34.547C108.92 34.3317 108.501 34.224 108.048 34.224C107.594 34.224 107.169 34.3317 106.773 34.547C106.387 34.7623 106.076 35.0853 105.838 35.516C105.6 35.9353 105.481 36.4567 105.481 37.08C105.481 37.692 105.6 38.2133 105.838 38.644C106.076 39.0633 106.387 39.3807 106.773 39.596C107.169 39.8113 107.594 39.919 108.048 39.919ZM114.514 41.5V29.328H116.35V41.5H114.514ZM122.392 41.772C121.542 41.772 120.783 41.5737 120.114 41.177C119.446 40.7803 118.919 40.2363 118.533 39.545C118.159 38.8537 117.972 38.066 117.972 37.182C117.972 36.3547 118.154 35.5897 118.516 34.887C118.879 34.1843 119.383 33.6233 120.029 33.204C120.687 32.7733 121.44 32.558 122.29 32.558C123.186 32.558 123.945 32.7507 124.568 33.136C125.203 33.5213 125.685 34.0483 126.013 34.717C126.342 35.3857 126.506 36.1393 126.506 36.978C126.506 37.1027 126.501 37.216 126.489 37.318C126.489 37.42 126.484 37.4993 126.472 37.556H119.774C119.82 38.032 119.939 38.4457 120.131 38.797C120.381 39.239 120.709 39.5733 121.117 39.8C121.525 40.0267 121.967 40.14 122.443 40.14C123.021 40.14 123.503 40.0097 123.888 39.749C124.285 39.477 124.597 39.1427 124.823 38.746L126.336 39.477C125.962 40.157 125.452 40.7123 124.806 41.143C124.16 41.5623 123.356 41.772 122.392 41.772ZM119.876 36.179H124.687C124.676 35.9637 124.619 35.737 124.517 35.499C124.415 35.2497 124.268 35.023 124.075 34.819C123.883 34.615 123.639 34.4507 123.344 34.326C123.05 34.19 122.704 34.122 122.307 34.122C121.809 34.122 121.367 34.2523 120.981 34.513C120.596 34.7623 120.296 35.1137 120.08 35.567C119.99 35.7597 119.922 35.9637 119.876 36.179ZM133.979 41.5L130.715 29.328H132.789L134.727 37.233L134.931 38.287H135.033L135.288 37.233L137.736 29.328H139.606L141.952 37.233L142.207 38.27H142.309L142.513 37.233L144.451 29.328H146.508L143.295 41.5H141.323L138.994 33.425L138.722 32.286H138.62L138.331 33.425L135.9 41.5H133.979ZM149.922 41.772C149.299 41.772 148.743 41.6473 148.256 41.398C147.78 41.1487 147.4 40.8087 147.117 40.378C146.845 39.936 146.709 39.4317 146.709 38.865C146.709 38.2417 146.868 37.7147 147.185 37.284C147.514 36.8533 147.95 36.5247 148.494 36.298C149.038 36.0713 149.639 35.958 150.296 35.958C150.659 35.958 150.993 35.9863 151.299 36.043C151.616 36.0883 151.888 36.145 152.115 36.213C152.353 36.281 152.54 36.3547 152.676 36.434V35.975C152.676 35.4083 152.472 34.955 152.064 34.615C151.656 34.275 151.129 34.105 150.483 34.105C150.041 34.105 149.622 34.207 149.225 34.411C148.828 34.6037 148.511 34.87 148.273 35.21L147.015 34.241C147.264 33.8897 147.565 33.5893 147.916 33.34C148.279 33.0907 148.681 32.898 149.123 32.762C149.576 32.626 150.047 32.558 150.534 32.558C151.792 32.558 152.761 32.8697 153.441 33.493C154.121 34.105 154.461 34.9663 154.461 36.077V41.5H152.676V40.429H152.574C152.427 40.6557 152.223 40.871 151.962 41.075C151.713 41.279 151.412 41.4433 151.061 41.568C150.721 41.704 150.341 41.772 149.922 41.772ZM150.245 40.276C150.721 40.276 151.14 40.1627 151.503 39.936C151.877 39.7093 152.166 39.4147 152.37 39.052C152.574 38.678 152.676 38.2757 152.676 37.845C152.427 37.6977 152.121 37.5787 151.758 37.488C151.407 37.386 151.033 37.335 150.636 37.335C149.888 37.335 149.355 37.4823 149.038 37.777C148.721 38.0717 148.562 38.44 148.562 38.882C148.562 39.29 148.715 39.6243 149.021 39.885C149.327 40.1457 149.735 40.276 150.245 40.276ZM156.499 41.5V29.328H158.335V41.5H156.499ZM160.517 41.5V29.328H162.353V41.5H160.517ZM168.395 41.772C167.545 41.772 166.786 41.5737 166.117 41.177C165.449 40.7803 164.922 40.2363 164.536 39.545C164.162 38.8537 163.975 38.066 163.975 37.182C163.975 36.3547 164.157 35.5897 164.519 34.887C164.882 34.1843 165.386 33.6233 166.032 33.204C166.69 32.7733 167.443 32.558 168.293 32.558C169.189 32.558 169.948 32.7507 170.571 33.136C171.206 33.5213 171.688 34.0483 172.016 34.717C172.345 35.3857 172.509 36.1393 172.509 36.978C172.509 37.1027 172.504 37.216 172.492 37.318C172.492 37.42 172.487 37.4993 172.475 37.556H165.777C165.823 38.032 165.942 38.4457 166.134 38.797C166.384 39.239 166.712 39.5733 167.12 39.8C167.528 40.0267 167.97 40.14 168.446 40.14C169.024 40.14 169.506 40.0097 169.891 39.749C170.288 39.477 170.6 39.1427 170.826 38.746L172.339 39.477C171.965 40.157 171.455 40.7123 170.809 41.143C170.163 41.5623 169.359 41.772 168.395 41.772ZM165.879 36.179H170.69C170.679 35.9637 170.622 35.737 170.52 35.499C170.418 35.2497 170.271 35.023 170.078 34.819C169.886 34.615 169.642 34.4507 169.347 34.326C169.053 34.19 168.707 34.122 168.31 34.122C167.812 34.122 167.37 34.2523 166.984 34.513C166.599 34.7623 166.299 35.1137 166.083 35.567C165.993 35.7597 165.925 35.9637 165.879 36.179ZM173.369 32.83H174.882V30.382H176.718V32.83H178.843V34.428H176.718V38.593C176.718 39.0237 176.803 39.3523 176.973 39.579C177.154 39.8057 177.454 39.919 177.874 39.919C178.078 39.919 178.259 39.8907 178.418 39.834C178.576 39.766 178.735 39.6867 178.894 39.596V41.381C178.701 41.4603 178.497 41.5227 178.282 41.568C178.066 41.6133 177.811 41.636 177.517 41.636C176.712 41.636 176.072 41.4037 175.596 40.939C175.12 40.463 174.882 39.8113 174.882 38.984V34.428H173.369V32.83Z" fill="white"/>
</svg>
