<svg width="188" height="55" viewBox="0 0 188 55" fill="none" xmlns="http://www.w3.org/2000/svg">
<rect x="0.5" y="0.5" width="187" height="54" rx="27" fill="#1F1F1F"/>
<rect x="0.5" y="0.5" width="187" height="54" rx="27" stroke="#747775"/>
<path d="M57 23.791H21V18.1455C21 15.0809 23.6422 12.5001 26.7798 12.5001H51.2202C54.3578 12.5001 57 15.0809 57 18.1455V23.791Z" fill="#34A853"/>
<path d="M57 29H21V23C21 19.7429 23.6422 17 26.7798 17H51.2202C54.3578 17 57 19.7429 57 23V29Z" fill="#FBBC04"/>
<path d="M57 34H21V28C21 24.7429 23.6422 22 26.7798 22H51.2202C54.3578 22 57 24.7429 57 28V34Z" fill="#EA4335"/>
<path d="M21 25.2409L43.8493 30.4025C46.4795 31.0477 49.4384 30.4025 51.5753 28.7895L57 24.9183V37.0157C57 40.0804 54.3699 42.4999 51.2466 42.4999H26.7534C23.6301 42.4999 21 40.0804 21 37.0157V25.2409Z" fill="#4285F4"/>
<path d="M74.46 21.708C73.7927 21.708 73.1643 21.5867 72.575 21.344C71.9857 21.1013 71.4657 20.7633 71.015 20.33C70.573 19.888 70.222 19.3723 69.962 18.783C69.7107 18.185 69.585 17.5393 69.585 16.846C69.585 16.1527 69.7107 15.5113 69.962 14.922C70.222 14.324 70.573 13.8083 71.015 13.375C71.4657 12.933 71.9857 12.5907 72.575 12.348C73.1643 12.1053 73.7927 11.984 74.46 11.984C75.1707 11.984 75.825 12.1097 76.423 12.361C77.0297 12.6123 77.5367 12.9633 77.944 13.414L76.956 14.389C76.7567 14.1637 76.527 13.973 76.267 13.817C76.0157 13.661 75.7383 13.544 75.435 13.466C75.1317 13.3793 74.8067 13.336 74.46 13.336C74.0007 13.336 73.563 13.4183 73.147 13.583C72.731 13.7477 72.3627 13.986 72.042 14.298C71.73 14.6013 71.483 14.9697 71.301 15.403C71.119 15.8277 71.028 16.3087 71.028 16.846C71.028 17.3833 71.119 17.8687 71.301 18.302C71.4917 18.7267 71.743 19.095 72.055 19.407C72.3757 19.7103 72.744 19.9443 73.16 20.109C73.576 20.2737 74.0137 20.356 74.473 20.356C74.8977 20.356 75.292 20.2953 75.656 20.174C76.0287 20.0527 76.3537 19.8793 76.631 19.654C76.9083 19.4287 77.1337 19.1557 77.307 18.835C77.4803 18.5057 77.5887 18.1373 77.632 17.73H74.447V16.469H78.971C78.9883 16.573 79.0057 16.6943 79.023 16.833C79.0403 16.963 79.049 17.0887 79.049 17.21V17.223C79.049 17.8903 78.932 18.5013 78.698 19.056C78.4727 19.6107 78.1563 20.0873 77.749 20.486C77.3417 20.876 76.8563 21.1793 76.293 21.396C75.7383 21.604 75.1273 21.708 74.46 21.708ZM83.2349 21.708C82.5502 21.708 81.9479 21.552 81.4279 21.24C80.9079 20.928 80.5006 20.5077 80.2059 19.979C79.9112 19.4417 79.7639 18.8437 79.7639 18.185C79.7639 17.5263 79.9112 16.9327 80.2059 16.404C80.5006 15.8667 80.9079 15.442 81.4279 15.13C81.9479 14.818 82.5502 14.662 83.2349 14.662C83.9109 14.662 84.5089 14.8223 85.0289 15.143C85.5489 15.455 85.9562 15.8753 86.2509 16.404C86.5456 16.9327 86.6929 17.5263 86.6929 18.185C86.6929 18.8437 86.5456 19.4417 86.2509 19.979C85.9562 20.5077 85.5489 20.928 85.0289 21.24C84.5089 21.552 83.9109 21.708 83.2349 21.708ZM83.2349 20.421C83.5989 20.421 83.9369 20.3343 84.2489 20.161C84.5609 19.979 84.8122 19.7233 85.0029 19.394C85.2022 19.056 85.3019 18.653 85.3019 18.185C85.3019 17.717 85.2022 17.3183 85.0029 16.989C84.8122 16.651 84.5609 16.3953 84.2489 16.222C83.9369 16.04 83.5989 15.949 83.2349 15.949C82.8709 15.949 82.5286 16.04 82.2079 16.222C81.8959 16.3953 81.6402 16.651 81.4409 16.989C81.2502 17.3183 81.1549 17.717 81.1549 18.185C81.1549 18.653 81.2502 19.056 81.4409 19.394C81.6402 19.7233 81.9002 19.979 82.2209 20.161C82.5416 20.3343 82.8796 20.421 83.2349 20.421ZM91.106 21.708C90.4213 21.708 89.819 21.552 89.299 21.24C88.779 20.928 88.3717 20.5077 88.077 19.979C87.7823 19.4417 87.635 18.8437 87.635 18.185C87.635 17.5263 87.7823 16.9327 88.077 16.404C88.3717 15.8667 88.779 15.442 89.299 15.13C89.819 14.818 90.4213 14.662 91.106 14.662C91.782 14.662 92.38 14.8223 92.9 15.143C93.42 15.455 93.8273 15.8753 94.122 16.404C94.4167 16.9327 94.564 17.5263 94.564 18.185C94.564 18.8437 94.4167 19.4417 94.122 19.979C93.8273 20.5077 93.42 20.928 92.9 21.24C92.38 21.552 91.782 21.708 91.106 21.708ZM91.106 20.421C91.47 20.421 91.808 20.3343 92.12 20.161C92.432 19.979 92.6833 19.7233 92.874 19.394C93.0733 19.056 93.173 18.653 93.173 18.185C93.173 17.717 93.0733 17.3183 92.874 16.989C92.6833 16.651 92.432 16.3953 92.12 16.222C91.808 16.04 91.47 15.949 91.106 15.949C90.742 15.949 90.3997 16.04 90.079 16.222C89.767 16.3953 89.5113 16.651 89.312 16.989C89.1213 17.3183 89.026 17.717 89.026 18.185C89.026 18.653 89.1213 19.056 89.312 19.394C89.5113 19.7233 89.7713 19.979 90.092 20.161C90.4127 20.3343 90.7507 20.421 91.106 20.421ZM98.8471 24.516C98.2664 24.516 97.7638 24.4207 97.3391 24.23C96.9231 24.048 96.5851 23.8097 96.3251 23.515C96.0651 23.229 95.8788 22.9343 95.7661 22.631L97.0661 22.085C97.2048 22.4317 97.4258 22.7133 97.7291 22.93C98.0411 23.1553 98.4138 23.268 98.8471 23.268C99.4624 23.268 99.9434 23.086 100.29 22.722C100.637 22.358 100.81 21.8423 100.81 21.175V20.538H100.732C100.524 20.8413 100.238 21.0883 99.8741 21.279C99.5101 21.4697 99.0898 21.565 98.6131 21.565C98.0498 21.565 97.5298 21.422 97.0531 21.136C96.5851 20.85 96.2081 20.4513 95.9221 19.94C95.6448 19.42 95.5061 18.8133 95.5061 18.12C95.5061 17.418 95.6448 16.8113 95.9221 16.3C96.2081 15.78 96.5851 15.377 97.0531 15.091C97.5298 14.805 98.0498 14.662 98.6131 14.662C99.0898 14.662 99.5101 14.7573 99.8741 14.948C100.238 15.13 100.524 15.3813 100.732 15.702H100.81V14.87H102.149V21.149C102.149 21.8683 102.006 22.4793 101.72 22.982C101.443 23.4847 101.057 23.866 100.563 24.126C100.069 24.386 99.4971 24.516 98.8471 24.516ZM98.8601 20.291C99.2068 20.291 99.5274 20.2087 99.8221 20.044C100.125 19.8707 100.364 19.6237 100.537 19.303C100.719 18.9737 100.81 18.5793 100.81 18.12C100.81 17.6347 100.719 17.2317 100.537 16.911C100.364 16.5903 100.125 16.3477 99.8221 16.183C99.5274 16.0183 99.2068 15.936 98.8601 15.936C98.5134 15.936 98.1884 16.0183 97.8851 16.183C97.5904 16.3477 97.3521 16.5947 97.1701 16.924C96.9881 17.2447 96.8971 17.6433 96.8971 18.12C96.8971 18.588 96.9881 18.9867 97.1701 19.316C97.3521 19.6367 97.5904 19.8793 97.8851 20.044C98.1884 20.2087 98.5134 20.291 98.8601 20.291ZM103.805 21.5V12.192H105.209V21.5H103.805ZM109.829 21.708C109.179 21.708 108.599 21.5563 108.087 21.253C107.576 20.9497 107.173 20.5337 106.878 20.005C106.592 19.4763 106.449 18.874 106.449 18.198C106.449 17.5653 106.588 16.9803 106.865 16.443C107.143 15.9057 107.528 15.4767 108.022 15.156C108.525 14.8267 109.101 14.662 109.751 14.662C110.436 14.662 111.017 14.8093 111.493 15.104C111.979 15.3987 112.347 15.8017 112.598 16.313C112.85 16.8243 112.975 17.4007 112.975 18.042C112.975 18.1373 112.971 18.224 112.962 18.302C112.962 18.38 112.958 18.4407 112.949 18.484H107.827C107.862 18.848 107.953 19.1643 108.1 19.433C108.291 19.771 108.542 20.0267 108.854 20.2C109.166 20.3733 109.504 20.46 109.868 20.46C110.31 20.46 110.679 20.3603 110.973 20.161C111.277 19.953 111.515 19.6973 111.688 19.394L112.845 19.953C112.559 20.473 112.169 20.8977 111.675 21.227C111.181 21.5477 110.566 21.708 109.829 21.708ZM107.905 17.431H111.584C111.576 17.2663 111.532 17.093 111.454 16.911C111.376 16.7203 111.264 16.547 111.116 16.391C110.969 16.235 110.783 16.1093 110.557 16.014C110.332 15.91 110.068 15.858 109.764 15.858C109.383 15.858 109.045 15.9577 108.75 16.157C108.456 16.3477 108.226 16.6163 108.061 16.963C107.992 17.1103 107.94 17.2663 107.905 17.431ZM118.69 21.5L116.194 12.192H117.78L119.262 18.237L119.418 19.043H119.496L119.691 18.237L121.563 12.192H122.993L124.787 18.237L124.982 19.03H125.06L125.216 18.237L126.698 12.192H128.271L125.814 21.5H124.306L122.525 15.325L122.317 14.454H122.239L122.018 15.325L120.159 21.5H118.69ZM130.881 21.708C130.405 21.708 129.98 21.6127 129.607 21.422C129.243 21.2313 128.953 20.9713 128.736 20.642C128.528 20.304 128.424 19.9183 128.424 19.485C128.424 19.0083 128.546 18.6053 128.788 18.276C129.04 17.9467 129.373 17.6953 129.789 17.522C130.205 17.3487 130.665 17.262 131.167 17.262C131.445 17.262 131.7 17.2837 131.934 17.327C132.177 17.3617 132.385 17.405 132.558 17.457C132.74 17.509 132.883 17.5653 132.987 17.626V17.275C132.987 16.8417 132.831 16.495 132.519 16.235C132.207 15.975 131.804 15.845 131.31 15.845C130.972 15.845 130.652 15.923 130.348 16.079C130.045 16.2263 129.802 16.43 129.62 16.69L128.658 15.949C128.849 15.6803 129.079 15.4507 129.347 15.26C129.625 15.0693 129.932 14.922 130.27 14.818C130.617 14.714 130.977 14.662 131.349 14.662C132.311 14.662 133.052 14.9003 133.572 15.377C134.092 15.845 134.352 16.5037 134.352 17.353V21.5H132.987V20.681H132.909C132.797 20.8543 132.641 21.019 132.441 21.175C132.251 21.331 132.021 21.4567 131.752 21.552C131.492 21.656 131.202 21.708 130.881 21.708ZM131.128 20.564C131.492 20.564 131.813 20.4773 132.09 20.304C132.376 20.1307 132.597 19.9053 132.753 19.628C132.909 19.342 132.987 19.0343 132.987 18.705C132.797 18.5923 132.563 18.5013 132.285 18.432C132.017 18.354 131.731 18.315 131.427 18.315C130.855 18.315 130.448 18.4277 130.205 18.653C129.963 18.8783 129.841 19.16 129.841 19.498C129.841 19.81 129.958 20.0657 130.192 20.265C130.426 20.4643 130.738 20.564 131.128 20.564ZM135.911 21.5V12.192H137.315V21.5H135.911ZM138.983 21.5V12.192H140.387V21.5H138.983ZM145.008 21.708C144.358 21.708 143.777 21.5563 143.266 21.253C142.755 20.9497 142.352 20.5337 142.057 20.005C141.771 19.4763 141.628 18.874 141.628 18.198C141.628 17.5653 141.767 16.9803 142.044 16.443C142.321 15.9057 142.707 15.4767 143.201 15.156C143.704 14.8267 144.28 14.662 144.93 14.662C145.615 14.662 146.195 14.8093 146.672 15.104C147.157 15.3987 147.526 15.8017 147.777 16.313C148.028 16.8243 148.154 17.4007 148.154 18.042C148.154 18.1373 148.15 18.224 148.141 18.302C148.141 18.38 148.137 18.4407 148.128 18.484H143.006C143.041 18.848 143.132 19.1643 143.279 19.433C143.47 19.771 143.721 20.0267 144.033 20.2C144.345 20.3733 144.683 20.46 145.047 20.46C145.489 20.46 145.857 20.3603 146.152 20.161C146.455 19.953 146.694 19.6973 146.867 19.394L148.024 19.953C147.738 20.473 147.348 20.8977 146.854 21.227C146.36 21.5477 145.745 21.708 145.008 21.708ZM143.084 17.431H146.763C146.754 17.2663 146.711 17.093 146.633 16.911C146.555 16.7203 146.442 16.547 146.295 16.391C146.148 16.235 145.961 16.1093 145.736 16.014C145.511 15.91 145.246 15.858 144.943 15.858C144.562 15.858 144.224 15.9577 143.929 16.157C143.634 16.3477 143.405 16.6163 143.24 16.963C143.171 17.1103 143.119 17.2663 143.084 17.431ZM148.811 14.87H149.968V12.998H151.372V14.87H152.997V16.092H151.372V19.277C151.372 19.6063 151.437 19.8577 151.567 20.031C151.706 20.2043 151.936 20.291 152.256 20.291C152.412 20.291 152.551 20.2693 152.672 20.226C152.794 20.174 152.915 20.1133 153.036 20.044V21.409C152.889 21.4697 152.733 21.5173 152.568 21.552C152.404 21.5867 152.209 21.604 151.983 21.604C151.368 21.604 150.878 21.4263 150.514 21.071C150.15 20.707 149.968 20.2087 149.968 19.576V16.092H148.811V14.87ZM154.331 18.068V16.872H158.595V18.068H154.331ZM166.54 21.5C166.453 21.3093 166.302 21.1317 166.085 20.967C165.877 20.7937 165.639 20.6593 165.37 20.564C165.11 20.46 164.854 20.408 164.603 20.408H162.783C162.254 20.408 161.782 20.2997 161.366 20.083C160.959 19.8577 160.638 19.5543 160.404 19.173C160.17 18.7917 160.053 18.3583 160.053 17.873C160.053 17.639 160.088 17.405 160.157 17.171C160.235 16.937 160.33 16.7377 160.443 16.573L161.509 17.145C161.336 17.379 161.249 17.6607 161.249 17.99C161.249 18.38 161.392 18.6877 161.678 18.913C161.973 19.1383 162.371 19.251 162.874 19.251H164.564C164.928 19.251 165.257 19.3117 165.552 19.433C165.855 19.5457 166.115 19.7233 166.332 19.966H166.397L166.332 18.978V15.143C166.332 14.6837 166.254 14.3543 166.098 14.155C165.942 13.947 165.682 13.843 165.318 13.843C164.997 13.843 164.694 13.934 164.408 14.116C164.131 14.298 163.905 14.5363 163.732 14.831C163.559 15.117 163.472 15.4203 163.472 15.741C163.472 15.7583 163.472 15.7757 163.472 15.793C163.489 15.7757 163.507 15.7627 163.524 15.754C163.654 15.6847 163.81 15.65 163.992 15.65C164.313 15.65 164.573 15.7583 164.772 15.975C164.971 16.183 165.071 16.4517 165.071 16.781C165.071 17.1017 164.954 17.3747 164.72 17.6C164.495 17.8167 164.213 17.925 163.875 17.925C163.381 17.925 162.982 17.7387 162.679 17.366C162.384 16.9847 162.237 16.495 162.237 15.897C162.237 15.2903 162.376 14.7443 162.653 14.259C162.939 13.7737 163.316 13.3923 163.784 13.115C164.261 12.829 164.781 12.686 165.344 12.686C166.046 12.686 166.588 12.8983 166.969 13.323C167.359 13.7477 167.554 14.35 167.554 15.13V21.5H166.54Z" fill="white"/>
<path d="M74.253 41.772C73.7657 41.772 73.2783 41.6247 72.791 41.33C72.315 41.0353 71.8787 40.6217 71.482 40.089C71.0853 39.5563 70.7623 38.9387 70.513 38.236C70.275 37.522 70.156 36.7457 70.156 35.907C70.156 34.7057 70.3657 33.6743 70.785 32.813C71.2043 31.9517 71.7937 31.2943 72.553 30.841C73.3237 30.3877 74.2133 30.161 75.222 30.161H75.8V31.538H75.494C74.7573 31.538 74.1113 31.708 73.556 32.048C73.0007 32.388 72.57 32.881 72.264 33.527C71.958 34.173 71.805 34.9493 71.805 35.856C71.805 36.9213 71.992 37.8167 72.366 38.542C72.5927 38.9613 72.859 39.3297 73.165 39.647C73.233 39.4997 73.335 39.3637 73.471 39.239C73.743 38.9783 74.083 38.848 74.491 38.848C74.8877 38.848 75.222 38.9897 75.494 39.273C75.766 39.545 75.902 39.885 75.902 40.293C75.902 40.7237 75.749 41.0807 75.443 41.364C75.1483 41.636 74.7517 41.772 74.253 41.772ZM82.6842 41.5C82.5142 40.8653 82.3839 40.191 82.2932 39.477C82.2139 38.763 82.1742 38.0603 82.1742 37.369C82.1742 36.9157 82.2082 36.4907 82.2762 36.094C82.3442 35.686 82.4292 35.2893 82.5312 34.904L82.4462 34.836C81.9022 35.142 81.3752 35.516 80.8652 35.958C80.3552 36.3887 79.8735 36.859 79.4202 37.369C78.9782 37.879 78.5645 38.4003 78.1792 38.933L76.7342 38.389V31.538H75.0682V30.161H85.7782V31.538H78.3152V36.094H78.4002C78.7855 35.6407 79.2332 35.2043 79.7432 34.785C80.2645 34.3543 80.8085 33.9633 81.3752 33.612C81.9419 33.2607 82.4915 32.9717 83.0242 32.745L84.4522 33.799C84.2255 34.3317 84.0555 34.921 83.9422 35.567C83.8402 36.2017 83.7892 36.8477 83.7892 37.505C83.7892 38.1057 83.8232 38.7233 83.8912 39.358C83.9705 39.9813 84.0782 40.5933 84.2142 41.194L82.6842 41.5ZM94.2755 41.5C93.7655 40.8313 93.1195 40.2137 92.3375 39.647C91.5669 39.0803 90.7565 38.5817 89.9065 38.151C89.0565 37.7203 88.2462 37.3803 87.4755 37.131V35.635C88.3029 35.4877 88.9942 35.295 89.5495 35.057C90.1162 34.8077 90.5412 34.513 90.8245 34.173C91.1192 33.8217 91.2665 33.4193 91.2665 32.966C91.2665 32.864 91.2609 32.7677 91.2495 32.677C91.2495 32.5863 91.2382 32.4957 91.2155 32.405H91.1475C90.8869 32.7903 90.5355 33.0793 90.0935 33.272C89.6629 33.4647 89.1812 33.561 88.6485 33.561C87.9232 33.561 87.3395 33.3797 86.8975 33.017C86.4669 32.6543 86.2515 32.1613 86.2515 31.538C86.2515 31.096 86.3932 30.739 86.6765 30.467C86.9599 30.1837 87.3112 30.042 87.7305 30.042C88.1385 30.042 88.4672 30.1723 88.7165 30.433C88.9659 30.6823 89.0905 31.011 89.0905 31.419C89.0905 31.6003 89.0622 31.7703 89.0055 31.929C89.0055 31.9403 88.9999 31.946 88.9885 31.946C89.0339 31.9573 89.0792 31.963 89.1245 31.963C89.4759 31.963 89.7762 31.827 90.0255 31.555C90.2749 31.283 90.3995 30.926 90.3995 30.484L91.7595 30.076C92.1222 30.4953 92.3999 30.96 92.5925 31.47C92.7965 31.98 92.8985 32.49 92.8985 33C92.8985 33.8387 92.6605 34.564 92.1845 35.176C91.7085 35.7767 91.0059 36.2187 90.0765 36.502V36.587C90.7339 36.8703 91.3969 37.2217 92.0655 37.641C92.7455 38.049 93.4085 38.5533 94.0545 39.154H94.1395L94.0545 37.828V28.665H95.6525V30.161H97.3185V31.538H95.6525V41.5H94.2755ZM92.7352 45.971C91.9985 45.971 91.4035 45.7897 90.9502 45.427C90.5082 45.0643 90.2872 44.577 90.2872 43.965C90.2872 43.557 90.3892 43.1943 90.5932 42.877C90.8085 42.5597 91.1089 42.3103 91.4942 42.129C91.8795 41.9477 92.3215 41.857 92.8202 41.857C93.2395 41.857 93.6589 41.9137 94.0782 42.027V40.973H95.6762V42.112C95.6762 42.3273 95.6649 42.537 95.6422 42.741C95.8235 42.8543 95.9992 42.9733 96.1692 43.098C96.7472 43.5173 97.3592 44.0443 98.0052 44.679L97.1212 45.716C96.5885 45.24 96.1239 44.832 95.7272 44.492C95.5912 44.39 95.4609 44.288 95.3362 44.186C95.1095 44.764 94.7809 45.206 94.3502 45.512C93.9082 45.818 93.3699 45.971 92.7352 45.971ZM93.9762 43.336C93.8855 43.302 93.7949 43.268 93.7042 43.234C93.4209 43.1433 93.1205 43.098 92.8032 43.098C92.4405 43.098 92.1515 43.1717 91.9362 43.319C91.7322 43.4777 91.6302 43.6817 91.6302 43.931C91.6302 44.1803 91.7209 44.373 91.9022 44.509C92.0835 44.645 92.3385 44.713 92.6672 44.713C93.1999 44.713 93.5682 44.492 93.7722 44.05C93.8629 43.8573 93.9309 43.6193 93.9762 43.336ZM104.216 41.5C104.034 40.6387 103.785 39.8453 103.468 39.12C103.162 38.3947 102.816 37.7657 102.431 37.233C102.045 36.7003 101.643 36.2867 101.224 35.992C101.054 35.8673 100.884 35.771 100.714 35.703C100.77 35.8617 100.799 36.0373 100.799 36.23C100.799 36.6493 100.651 36.995 100.357 37.267C100.073 37.539 99.7106 37.675 99.2686 37.675C98.7926 37.675 98.4016 37.5163 98.0956 37.199C97.7896 36.8817 97.6366 36.4793 97.6366 35.992C97.6366 35.3913 97.852 34.8983 98.2826 34.513C98.7246 34.1277 99.3196 33.935 100.068 33.935C100.838 33.935 101.581 34.2183 102.295 34.785C103.009 35.3403 103.609 36.1337 104.097 37.165H104.182L104.097 35.856V31.538H96.6336V30.161H107.344V31.538H105.678V41.5H104.216Z" fill="white"/>
</svg>
