<svg width="199" height="55" viewBox="0 0 199 55" fill="none" xmlns="http://www.w3.org/2000/svg">
<rect x="0.5" y="0.5" width="198" height="54" rx="27" fill="#1F1F1F"/>
<rect x="0.5" y="0.5" width="198" height="54" rx="27" stroke="#747775"/>
<path d="M57 23.791H21V18.1455C21 15.0809 23.6422 12.5001 26.7798 12.5001H51.2202C54.3578 12.5001 57 15.0809 57 18.1455V23.791Z" fill="#34A853"/>
<path d="M57 29H21V23C21 19.7429 23.6422 17 26.7798 17H51.2202C54.3578 17 57 19.7429 57 23V29Z" fill="#FBBC04"/>
<path d="M57 34H21V28C21 24.7429 23.6422 22 26.7798 22H51.2202C54.3578 22 57 24.7429 57 28V34Z" fill="#EA4335"/>
<path d="M21 25.2409L43.8493 30.4025C46.4795 31.0477 49.4384 30.4025 51.5753 28.7895L57 24.9183V37.0157C57 40.0804 54.3699 42.4999 51.2466 42.4999H26.7534C23.6301 42.4999 21 40.0804 21 37.0157V25.2409Z" fill="#4285F4"/>
<path d="M70.053 21.5V12.192H71.977L74.694 19.277H74.772L77.502 12.192H79.426V21.5H78.022V16.235L78.1 14.584H78.022L75.305 21.5H74.174L71.457 14.584H71.379L71.457 16.235V21.5H70.053ZM84.2886 21.708C83.6039 21.708 83.0016 21.552 82.4816 21.24C81.9616 20.928 81.5543 20.5077 81.2596 19.979C80.9649 19.4417 80.8176 18.8437 80.8176 18.185C80.8176 17.5263 80.9649 16.9327 81.2596 16.404C81.5543 15.8667 81.9616 15.442 82.4816 15.13C83.0016 14.818 83.6039 14.662 84.2886 14.662C84.9646 14.662 85.5626 14.8223 86.0826 15.143C86.6026 15.455 87.0099 15.8753 87.3046 16.404C87.5993 16.9327 87.7466 17.5263 87.7466 18.185C87.7466 18.8437 87.5993 19.4417 87.3046 19.979C87.0099 20.5077 86.6026 20.928 86.0826 21.24C85.5626 21.552 84.9646 21.708 84.2886 21.708ZM84.2886 20.421C84.6526 20.421 84.9906 20.3343 85.3026 20.161C85.6146 19.979 85.8659 19.7233 86.0566 19.394C86.2559 19.056 86.3556 18.653 86.3556 18.185C86.3556 17.717 86.2559 17.3183 86.0566 16.989C85.8659 16.651 85.6146 16.3953 85.3026 16.222C84.9906 16.04 84.6526 15.949 84.2886 15.949C83.9246 15.949 83.5823 16.04 83.2616 16.222C82.9496 16.3953 82.6939 16.651 82.4946 16.989C82.3039 17.3183 82.2086 17.717 82.2086 18.185C82.2086 18.653 82.3039 19.056 82.4946 19.394C82.6939 19.7233 82.9539 19.979 83.2746 20.161C83.5953 20.3343 83.9333 20.421 84.2886 20.421ZM91.3942 21.708C90.8656 21.708 90.4062 21.63 90.0162 21.474C89.6262 21.3093 89.3056 21.0927 89.0542 20.824C88.8029 20.5467 88.6166 20.2477 88.4952 19.927L89.7562 19.381C89.9122 19.7363 90.1332 20.0093 90.4192 20.2C90.7139 20.382 91.0519 20.473 91.4332 20.473C91.7799 20.473 92.0789 20.4123 92.3302 20.291C92.5816 20.161 92.7072 19.953 92.7072 19.667C92.7072 19.485 92.6466 19.3377 92.5252 19.225C92.4126 19.1037 92.2566 19.004 92.0572 18.926C91.8666 18.848 91.6456 18.7787 91.3942 18.718L90.6012 18.536C90.2892 18.458 89.9902 18.3367 89.7042 18.172C89.4269 17.9987 89.2016 17.782 89.0282 17.522C88.8549 17.262 88.7682 16.9543 88.7682 16.599C88.7682 16.2003 88.8809 15.858 89.1062 15.572C89.3402 15.2773 89.6522 15.052 90.0422 14.896C90.4322 14.74 90.8526 14.662 91.3032 14.662C91.7192 14.662 92.0962 14.7183 92.4342 14.831C92.7809 14.935 93.0799 15.0953 93.3312 15.312C93.5912 15.52 93.7949 15.78 93.9422 16.092L92.7332 16.638C92.5859 16.3433 92.3866 16.1397 92.1352 16.027C91.8839 15.9057 91.6109 15.845 91.3162 15.845C90.9869 15.845 90.7096 15.9143 90.4842 16.053C90.2676 16.183 90.1592 16.3563 90.1592 16.573C90.1592 16.7983 90.2546 16.976 90.4452 17.106C90.6446 17.236 90.8872 17.34 91.1732 17.418L92.1352 17.652C92.7939 17.8167 93.2879 18.068 93.6172 18.406C93.9466 18.7353 94.1112 19.1383 94.1112 19.615C94.1112 20.0397 93.9899 20.4123 93.7472 20.733C93.5046 21.045 93.1752 21.2877 92.7592 21.461C92.3519 21.6257 91.8969 21.708 91.3942 21.708ZM94.8181 14.87H95.9751V12.998H97.3791V14.87H99.0041V16.092H97.3791V19.277C97.3791 19.6063 97.4441 19.8577 97.5741 20.031C97.7128 20.2043 97.9424 20.291 98.2631 20.291C98.4191 20.291 98.5578 20.2693 98.6791 20.226C98.8004 20.174 98.9218 20.1133 99.0431 20.044V21.409C98.8958 21.4697 98.7398 21.5173 98.5751 21.552C98.4104 21.5867 98.2154 21.604 97.9901 21.604C97.3748 21.604 96.8851 21.4263 96.5211 21.071C96.1571 20.707 95.9751 20.2087 95.9751 19.576V16.092H94.8181V14.87ZM100.351 21.5V14.87H101.677V15.845H101.755C101.859 15.6197 102.007 15.4203 102.197 15.247C102.397 15.0737 102.622 14.935 102.873 14.831C103.133 14.727 103.402 14.675 103.679 14.675C103.861 14.675 104.013 14.688 104.134 14.714C104.264 14.7313 104.381 14.7617 104.485 14.805V16.261C104.321 16.1917 104.152 16.1353 103.978 16.092C103.814 16.0487 103.64 16.027 103.458 16.027C103.129 16.027 102.834 16.118 102.574 16.3C102.323 16.4733 102.124 16.7073 101.976 17.002C101.829 17.2967 101.755 17.626 101.755 17.99V21.5H100.351ZM107.42 21.708C106.944 21.708 106.519 21.6127 106.146 21.422C105.782 21.2313 105.492 20.9713 105.275 20.642C105.067 20.304 104.963 19.9183 104.963 19.485C104.963 19.0083 105.085 18.6053 105.327 18.276C105.579 17.9467 105.912 17.6953 106.328 17.522C106.744 17.3487 107.204 17.262 107.706 17.262C107.984 17.262 108.239 17.2837 108.473 17.327C108.716 17.3617 108.924 17.405 109.097 17.457C109.279 17.509 109.422 17.5653 109.526 17.626V17.275C109.526 16.8417 109.37 16.495 109.058 16.235C108.746 15.975 108.343 15.845 107.849 15.845C107.511 15.845 107.191 15.923 106.887 16.079C106.584 16.2263 106.341 16.43 106.159 16.69L105.197 15.949C105.388 15.6803 105.618 15.4507 105.886 15.26C106.164 15.0693 106.471 14.922 106.809 14.818C107.156 14.714 107.516 14.662 107.888 14.662C108.85 14.662 109.591 14.9003 110.111 15.377C110.631 15.845 110.891 16.5037 110.891 17.353V21.5H109.526V20.681H109.448C109.336 20.8543 109.18 21.019 108.98 21.175C108.79 21.331 108.56 21.4567 108.291 21.552C108.031 21.656 107.741 21.708 107.42 21.708ZM107.667 20.564C108.031 20.564 108.352 20.4773 108.629 20.304C108.915 20.1307 109.136 19.9053 109.292 19.628C109.448 19.342 109.526 19.0343 109.526 18.705C109.336 18.5923 109.102 18.5013 108.824 18.432C108.556 18.354 108.27 18.315 107.966 18.315C107.394 18.315 106.987 18.4277 106.744 18.653C106.502 18.8783 106.38 19.16 106.38 19.498C106.38 19.81 106.497 20.0657 106.731 20.265C106.965 20.4643 107.277 20.564 107.667 20.564ZM117.551 21.708C117.075 21.708 116.65 21.6127 116.277 21.422C115.913 21.2313 115.623 20.9713 115.406 20.642C115.198 20.304 115.094 19.9183 115.094 19.485C115.094 19.0083 115.216 18.6053 115.458 18.276C115.71 17.9467 116.043 17.6953 116.459 17.522C116.875 17.3487 117.335 17.262 117.837 17.262C118.115 17.262 118.37 17.2837 118.604 17.327C118.847 17.3617 119.055 17.405 119.228 17.457C119.41 17.509 119.553 17.5653 119.657 17.626V17.275C119.657 16.8417 119.501 16.495 119.189 16.235C118.877 15.975 118.474 15.845 117.98 15.845C117.642 15.845 117.322 15.923 117.018 16.079C116.715 16.2263 116.472 16.43 116.29 16.69L115.328 15.949C115.519 15.6803 115.749 15.4507 116.017 15.26C116.295 15.0693 116.602 14.922 116.94 14.818C117.287 14.714 117.647 14.662 118.019 14.662C118.981 14.662 119.722 14.9003 120.242 15.377C120.762 15.845 121.022 16.5037 121.022 17.353V21.5H119.657V20.681H119.579C119.467 20.8543 119.311 21.019 119.111 21.175C118.921 21.331 118.691 21.4567 118.422 21.552C118.162 21.656 117.872 21.708 117.551 21.708ZM117.798 20.564C118.162 20.564 118.483 20.4773 118.76 20.304C119.046 20.1307 119.267 19.9053 119.423 19.628C119.579 19.342 119.657 19.0343 119.657 18.705C119.467 18.5923 119.233 18.5013 118.955 18.432C118.687 18.354 118.401 18.315 118.097 18.315C117.525 18.315 117.118 18.4277 116.875 18.653C116.633 18.8783 116.511 19.16 116.511 19.498C116.511 19.81 116.628 20.0657 116.862 20.265C117.096 20.4643 117.408 20.564 117.798 20.564Z" fill="white"/>
<path d="M76.14 41.772C75.2673 41.772 74.4457 41.6133 73.675 41.296C72.9043 40.9787 72.2243 40.5367 71.635 39.97C71.057 39.392 70.598 38.7177 70.258 37.947C69.9293 37.165 69.765 36.3207 69.765 35.414C69.765 34.5073 69.9293 33.6687 70.258 32.898C70.598 32.116 71.057 31.4417 71.635 30.875C72.2243 30.297 72.9043 29.8493 73.675 29.532C74.4457 29.2147 75.2673 29.056 76.14 29.056C77.0693 29.056 77.925 29.2203 78.707 29.549C79.5003 29.8777 80.1633 30.3367 80.696 30.926L79.404 32.201C79.1433 31.9063 78.843 31.657 78.503 31.453C78.1743 31.249 77.8117 31.096 77.415 30.994C77.0183 30.8807 76.5933 30.824 76.14 30.824C75.5393 30.824 74.967 30.9317 74.423 31.147C73.879 31.3623 73.3973 31.674 72.978 32.082C72.57 32.4787 72.247 32.9603 72.009 33.527C71.771 34.0823 71.652 34.7113 71.652 35.414C71.652 36.1167 71.771 36.7513 72.009 37.318C72.2583 37.8733 72.587 38.355 72.995 38.763C73.4143 39.1597 73.896 39.4657 74.44 39.681C74.984 39.8963 75.5563 40.004 76.157 40.004C76.7123 40.004 77.228 39.9247 77.704 39.766C78.1913 39.6073 78.6163 39.3807 78.979 39.086C79.3417 38.7913 79.6363 38.4343 79.863 38.015C80.0897 37.5843 80.2313 37.1027 80.288 36.57H76.123V34.921H82.039C82.0617 35.057 82.0843 35.2157 82.107 35.397C82.1297 35.567 82.141 35.7313 82.141 35.89V35.907C82.141 36.7797 81.988 37.5787 81.682 38.304C81.3873 39.0293 80.9737 39.6527 80.441 40.174C79.9083 40.684 79.2737 41.0807 78.537 41.364C77.8117 41.636 77.0127 41.772 76.14 41.772ZM87.6149 41.772C86.7195 41.772 85.9319 41.568 85.2519 41.16C84.5719 40.752 84.0392 40.2023 83.6539 39.511C83.2685 38.8083 83.0759 38.0263 83.0759 37.165C83.0759 36.3037 83.2685 35.5273 83.6539 34.836C84.0392 34.1333 84.5719 33.578 85.2519 33.17C85.9319 32.762 86.7195 32.558 87.6149 32.558C88.4989 32.558 89.2809 32.7677 89.9609 33.187C90.6409 33.595 91.1735 34.1447 91.5589 34.836C91.9442 35.5273 92.1369 36.3037 92.1369 37.165C92.1369 38.0263 91.9442 38.8083 91.5589 39.511C91.1735 40.2023 90.6409 40.752 89.9609 41.16C89.2809 41.568 88.4989 41.772 87.6149 41.772ZM87.6149 40.089C88.0909 40.089 88.5329 39.9757 88.9409 39.749C89.3489 39.511 89.6775 39.1767 89.9269 38.746C90.1875 38.304 90.3179 37.777 90.3179 37.165C90.3179 36.553 90.1875 36.0317 89.9269 35.601C89.6775 35.159 89.3489 34.8247 88.9409 34.598C88.5329 34.36 88.0909 34.241 87.6149 34.241C87.1389 34.241 86.6912 34.36 86.2719 34.598C85.8639 34.8247 85.5295 35.159 85.2689 35.601C85.0195 36.0317 84.8949 36.553 84.8949 37.165C84.8949 37.777 85.0195 38.304 85.2689 38.746C85.5295 39.1767 85.8695 39.511 86.2889 39.749C86.7082 39.9757 87.1502 40.089 87.6149 40.089ZM97.9078 41.772C97.0125 41.772 96.2248 41.568 95.5448 41.16C94.8648 40.752 94.3322 40.2023 93.9468 39.511C93.5615 38.8083 93.3688 38.0263 93.3688 37.165C93.3688 36.3037 93.5615 35.5273 93.9468 34.836C94.3322 34.1333 94.8648 33.578 95.5448 33.17C96.2248 32.762 97.0125 32.558 97.9078 32.558C98.7918 32.558 99.5738 32.7677 100.254 33.187C100.934 33.595 101.467 34.1447 101.852 34.836C102.237 35.5273 102.43 36.3037 102.43 37.165C102.43 38.0263 102.237 38.8083 101.852 39.511C101.467 40.2023 100.934 40.752 100.254 41.16C99.5738 41.568 98.7918 41.772 97.9078 41.772ZM97.9078 40.089C98.3838 40.089 98.8258 39.9757 99.2338 39.749C99.6418 39.511 99.9705 39.1767 100.22 38.746C100.481 38.304 100.611 37.777 100.611 37.165C100.611 36.553 100.481 36.0317 100.22 35.601C99.9705 35.159 99.6418 34.8247 99.2338 34.598C98.8258 34.36 98.3838 34.241 97.9078 34.241C97.4318 34.241 96.9842 34.36 96.5648 34.598C96.1568 34.8247 95.8225 35.159 95.5618 35.601C95.3125 36.0317 95.1878 36.553 95.1878 37.165C95.1878 37.777 95.3125 38.304 95.5618 38.746C95.8225 39.1767 96.1625 39.511 96.5818 39.749C97.0012 39.9757 97.4432 40.089 97.9078 40.089ZM108.031 45.444C107.271 45.444 106.614 45.3193 106.059 45.07C105.515 44.832 105.073 44.5203 104.733 44.135C104.393 43.761 104.149 43.3757 104.002 42.979L105.702 42.265C105.883 42.7183 106.172 43.0867 106.569 43.37C106.977 43.6647 107.464 43.812 108.031 43.812C108.835 43.812 109.464 43.574 109.918 43.098C110.371 42.622 110.598 41.9477 110.598 41.075V40.242H110.496C110.224 40.6387 109.85 40.9617 109.374 41.211C108.898 41.4603 108.348 41.585 107.725 41.585C106.988 41.585 106.308 41.398 105.685 41.024C105.073 40.65 104.58 40.1287 104.206 39.46C103.843 38.78 103.662 37.9867 103.662 37.08C103.662 36.162 103.843 35.3687 104.206 34.7C104.58 34.02 105.073 33.493 105.685 33.119C106.308 32.745 106.988 32.558 107.725 32.558C108.348 32.558 108.898 32.6827 109.374 32.932C109.85 33.17 110.224 33.4987 110.496 33.918H110.598V32.83H112.349V41.041C112.349 41.9817 112.162 42.7807 111.788 43.438C111.425 44.0953 110.921 44.594 110.275 44.934C109.629 45.274 108.881 45.444 108.031 45.444ZM108.048 39.919C108.501 39.919 108.92 39.8113 109.306 39.596C109.702 39.3693 110.014 39.0463 110.241 38.627C110.479 38.1963 110.598 37.6807 110.598 37.08C110.598 36.4453 110.479 35.9183 110.241 35.499C110.014 35.0797 109.702 34.7623 109.306 34.547C108.92 34.3317 108.501 34.224 108.048 34.224C107.594 34.224 107.169 34.3317 106.773 34.547C106.387 34.7623 106.076 35.0853 105.838 35.516C105.6 35.9353 105.481 36.4567 105.481 37.08C105.481 37.692 105.6 38.2133 105.838 38.644C106.076 39.0633 106.387 39.3807 106.773 39.596C107.169 39.8113 107.594 39.919 108.048 39.919ZM114.514 41.5V29.328H116.35V41.5H114.514ZM122.392 41.772C121.542 41.772 120.783 41.5737 120.114 41.177C119.446 40.7803 118.919 40.2363 118.533 39.545C118.159 38.8537 117.972 38.066 117.972 37.182C117.972 36.3547 118.154 35.5897 118.516 34.887C118.879 34.1843 119.383 33.6233 120.029 33.204C120.687 32.7733 121.44 32.558 122.29 32.558C123.186 32.558 123.945 32.7507 124.568 33.136C125.203 33.5213 125.685 34.0483 126.013 34.717C126.342 35.3857 126.506 36.1393 126.506 36.978C126.506 37.1027 126.501 37.216 126.489 37.318C126.489 37.42 126.484 37.4993 126.472 37.556H119.774C119.82 38.032 119.939 38.4457 120.131 38.797C120.381 39.239 120.709 39.5733 121.117 39.8C121.525 40.0267 121.967 40.14 122.443 40.14C123.021 40.14 123.503 40.0097 123.888 39.749C124.285 39.477 124.597 39.1427 124.823 38.746L126.336 39.477C125.962 40.157 125.452 40.7123 124.806 41.143C124.16 41.5623 123.356 41.772 122.392 41.772ZM119.876 36.179H124.687C124.676 35.9637 124.619 35.737 124.517 35.499C124.415 35.2497 124.268 35.023 124.075 34.819C123.883 34.615 123.639 34.4507 123.344 34.326C123.05 34.19 122.704 34.122 122.307 34.122C121.809 34.122 121.367 34.2523 120.981 34.513C120.596 34.7623 120.296 35.1137 120.08 35.567C119.99 35.7597 119.922 35.9637 119.876 36.179ZM133.979 41.5L130.715 29.328H132.789L134.727 37.233L134.931 38.287H135.033L135.288 37.233L137.736 29.328H139.606L141.952 37.233L142.207 38.27H142.309L142.513 37.233L144.451 29.328H146.508L143.295 41.5H141.323L138.994 33.425L138.722 32.286H138.62L138.331 33.425L135.9 41.5H133.979ZM149.922 41.772C149.299 41.772 148.743 41.6473 148.256 41.398C147.78 41.1487 147.4 40.8087 147.117 40.378C146.845 39.936 146.709 39.4317 146.709 38.865C146.709 38.2417 146.868 37.7147 147.185 37.284C147.514 36.8533 147.95 36.5247 148.494 36.298C149.038 36.0713 149.639 35.958 150.296 35.958C150.659 35.958 150.993 35.9863 151.299 36.043C151.616 36.0883 151.888 36.145 152.115 36.213C152.353 36.281 152.54 36.3547 152.676 36.434V35.975C152.676 35.4083 152.472 34.955 152.064 34.615C151.656 34.275 151.129 34.105 150.483 34.105C150.041 34.105 149.622 34.207 149.225 34.411C148.828 34.6037 148.511 34.87 148.273 35.21L147.015 34.241C147.264 33.8897 147.565 33.5893 147.916 33.34C148.279 33.0907 148.681 32.898 149.123 32.762C149.576 32.626 150.047 32.558 150.534 32.558C151.792 32.558 152.761 32.8697 153.441 33.493C154.121 34.105 154.461 34.9663 154.461 36.077V41.5H152.676V40.429H152.574C152.427 40.6557 152.223 40.871 151.962 41.075C151.713 41.279 151.412 41.4433 151.061 41.568C150.721 41.704 150.341 41.772 149.922 41.772ZM150.245 40.276C150.721 40.276 151.14 40.1627 151.503 39.936C151.877 39.7093 152.166 39.4147 152.37 39.052C152.574 38.678 152.676 38.2757 152.676 37.845C152.427 37.6977 152.121 37.5787 151.758 37.488C151.407 37.386 151.033 37.335 150.636 37.335C149.888 37.335 149.355 37.4823 149.038 37.777C148.721 38.0717 148.562 38.44 148.562 38.882C148.562 39.29 148.715 39.6243 149.021 39.885C149.327 40.1457 149.735 40.276 150.245 40.276ZM156.499 41.5V29.328H158.335V41.5H156.499ZM160.517 41.5V29.328H162.353V41.5H160.517ZM168.395 41.772C167.545 41.772 166.786 41.5737 166.117 41.177C165.449 40.7803 164.922 40.2363 164.536 39.545C164.162 38.8537 163.975 38.066 163.975 37.182C163.975 36.3547 164.157 35.5897 164.519 34.887C164.882 34.1843 165.386 33.6233 166.032 33.204C166.69 32.7733 167.443 32.558 168.293 32.558C169.189 32.558 169.948 32.7507 170.571 33.136C171.206 33.5213 171.688 34.0483 172.016 34.717C172.345 35.3857 172.509 36.1393 172.509 36.978C172.509 37.1027 172.504 37.216 172.492 37.318C172.492 37.42 172.487 37.4993 172.475 37.556H165.777C165.823 38.032 165.942 38.4457 166.134 38.797C166.384 39.239 166.712 39.5733 167.12 39.8C167.528 40.0267 167.97 40.14 168.446 40.14C169.024 40.14 169.506 40.0097 169.891 39.749C170.288 39.477 170.6 39.1427 170.826 38.746L172.339 39.477C171.965 40.157 171.455 40.7123 170.809 41.143C170.163 41.5623 169.359 41.772 168.395 41.772ZM165.879 36.179H170.69C170.679 35.9637 170.622 35.737 170.52 35.499C170.418 35.2497 170.271 35.023 170.078 34.819C169.886 34.615 169.642 34.4507 169.347 34.326C169.053 34.19 168.707 34.122 168.31 34.122C167.812 34.122 167.37 34.2523 166.984 34.513C166.599 34.7623 166.299 35.1137 166.083 35.567C165.993 35.7597 165.925 35.9637 165.879 36.179ZM173.369 32.83H174.882V30.382H176.718V32.83H178.843V34.428H176.718V38.593C176.718 39.0237 176.803 39.3523 176.973 39.579C177.154 39.8057 177.454 39.919 177.874 39.919C178.078 39.919 178.259 39.8907 178.418 39.834C178.576 39.766 178.735 39.6867 178.894 39.596V41.381C178.701 41.4603 178.497 41.5227 178.282 41.568C178.066 41.6133 177.811 41.636 177.517 41.636C176.712 41.636 176.072 41.4037 175.596 40.939C175.12 40.463 174.882 39.8113 174.882 38.984V34.428H173.369V32.83Z" fill="white"/>
</svg>
