<svg width="236" height="55" viewBox="0 0 236 55" fill="none" xmlns="http://www.w3.org/2000/svg">
<rect x="0.5" y="0.5" width="235" height="54" rx="27" fill="#1F1F1F"/>
<rect x="0.5" y="0.5" width="235" height="54" rx="27" stroke="#747775"/>
<path d="M57 23.791H21V18.1455C21 15.0809 23.6422 12.5001 26.7798 12.5001H51.2202C54.3578 12.5001 57 15.0809 57 18.1455V23.791Z" fill="#34A853"/>
<path d="M57 29H21V23C21 19.7429 23.6422 17 26.7798 17H51.2202C54.3578 17 57 19.7429 57 23V29Z" fill="#FBBC04"/>
<path d="M57 34H21V28C21 24.7429 23.6422 22 26.7798 22H51.2202C54.3578 22 57 24.7429 57 28V34Z" fill="#EA4335"/>
<path d="M21 25.2409L43.8493 30.4025C46.4795 31.0477 49.4384 30.4025 51.5753 28.7895L57 24.9183V37.0157C57 40.0804 54.3699 42.4999 51.2466 42.4999H26.7534C23.6301 42.4999 21 40.0804 21 37.0157V25.2409Z" fill="#4285F4"/>
<path d="M69.494 21.5V20.044L74.369 13.544H69.702V12.192H76.02V13.648L71.184 20.148H76.072V21.5H69.494ZM80.4927 21.708C79.808 21.708 79.2057 21.552 78.6857 21.24C78.1657 20.928 77.7584 20.5077 77.4637 19.979C77.169 19.4417 77.0217 18.8437 77.0217 18.185C77.0217 17.5263 77.169 16.9327 77.4637 16.404C77.7584 15.8667 78.1657 15.442 78.6857 15.13C79.2057 14.818 79.808 14.662 80.4927 14.662C81.1687 14.662 81.7667 14.8223 82.2867 15.143C82.8067 15.455 83.214 15.8753 83.5087 16.404C83.8034 16.9327 83.9507 17.5263 83.9507 18.185C83.9507 18.8437 83.8034 19.4417 83.5087 19.979C83.214 20.5077 82.8067 20.928 82.2867 21.24C81.7667 21.552 81.1687 21.708 80.4927 21.708ZM80.4927 20.421C80.8567 20.421 81.1947 20.3343 81.5067 20.161C81.8187 19.979 82.07 19.7233 82.2607 19.394C82.46 19.056 82.5597 18.653 82.5597 18.185C82.5597 17.717 82.46 17.3183 82.2607 16.989C82.07 16.651 81.8187 16.3953 81.5067 16.222C81.1947 16.04 80.8567 15.949 80.4927 15.949C80.1287 15.949 79.7864 16.04 79.4657 16.222C79.1537 16.3953 78.898 16.651 78.6987 16.989C78.508 17.3183 78.4127 17.717 78.4127 18.185C78.4127 18.653 78.508 19.056 78.6987 19.394C78.898 19.7233 79.158 19.979 79.4787 20.161C79.7994 20.3343 80.1374 20.421 80.4927 20.421ZM88.7163 21.708C88.3783 21.708 88.0707 21.656 87.7933 21.552C87.516 21.448 87.2733 21.3137 87.0653 21.149C86.866 20.9757 86.7057 20.798 86.5843 20.616H86.5063V21.5H85.1803V12.192H86.5843V14.844L86.5063 15.767H86.5843C86.7057 15.5763 86.866 15.3987 87.0653 15.234C87.2733 15.0607 87.516 14.922 87.7933 14.818C88.0707 14.714 88.3783 14.662 88.7163 14.662C89.323 14.662 89.8647 14.8137 90.3413 15.117C90.818 15.4203 91.195 15.8363 91.4723 16.365C91.7583 16.8937 91.9013 17.5003 91.9013 18.185C91.9013 18.8697 91.7583 19.4763 91.4723 20.005C91.195 20.5337 90.818 20.9497 90.3413 21.253C89.8647 21.5563 89.323 21.708 88.7163 21.708ZM88.5083 20.421C88.855 20.421 89.18 20.33 89.4833 20.148C89.7953 19.966 90.0423 19.706 90.2243 19.368C90.415 19.03 90.5103 18.6357 90.5103 18.185C90.5103 17.7257 90.415 17.3313 90.2243 17.002C90.0423 16.664 89.7953 16.404 89.4833 16.222C89.18 16.04 88.855 15.949 88.5083 15.949C88.1617 15.949 87.8367 16.04 87.5333 16.222C87.23 16.404 86.983 16.664 86.7923 17.002C86.6017 17.3313 86.5063 17.7257 86.5063 18.185C86.5063 18.6443 86.6017 19.043 86.7923 19.381C86.983 19.7103 87.23 19.966 87.5333 20.148C87.8367 20.33 88.1617 20.421 88.5083 20.421ZM93.0641 21.5V14.87H94.3901V15.845H94.4681C94.5721 15.6197 94.7195 15.4203 94.9101 15.247C95.1095 15.0737 95.3348 14.935 95.5861 14.831C95.8461 14.727 96.1148 14.675 96.3921 14.675C96.5741 14.675 96.7258 14.688 96.8471 14.714C96.9771 14.7313 97.0941 14.7617 97.1981 14.805V16.261C97.0335 16.1917 96.8645 16.1353 96.6911 16.092C96.5265 16.0487 96.3531 16.027 96.1711 16.027C95.8418 16.027 95.5471 16.118 95.2871 16.3C95.0358 16.4733 94.8365 16.7073 94.6891 17.002C94.5418 17.2967 94.4681 17.626 94.4681 17.99V21.5H93.0641ZM100.133 21.708C99.6567 21.708 99.232 21.6127 98.8594 21.422C98.4954 21.2313 98.205 20.9713 97.9884 20.642C97.7804 20.304 97.6764 19.9183 97.6764 19.485C97.6764 19.0083 97.7977 18.6053 98.0404 18.276C98.2917 17.9467 98.6254 17.6953 99.0414 17.522C99.4574 17.3487 99.9167 17.262 100.419 17.262C100.697 17.262 100.952 17.2837 101.186 17.327C101.429 17.3617 101.637 17.405 101.81 17.457C101.992 17.509 102.135 17.5653 102.239 17.626V17.275C102.239 16.8417 102.083 16.495 101.771 16.235C101.459 15.975 101.056 15.845 100.562 15.845C100.224 15.845 99.9037 15.923 99.6004 16.079C99.297 16.2263 99.0544 16.43 98.8724 16.69L97.9104 15.949C98.101 15.6803 98.3307 15.4507 98.5994 15.26C98.8767 15.0693 99.1844 14.922 99.5224 14.818C99.869 14.714 100.229 14.662 100.601 14.662C101.563 14.662 102.304 14.9003 102.824 15.377C103.344 15.845 103.604 16.5037 103.604 17.353V21.5H102.239V20.681H102.161C102.049 20.8543 101.893 21.019 101.693 21.175C101.503 21.331 101.273 21.4567 101.004 21.552C100.744 21.656 100.454 21.708 100.133 21.708ZM100.38 20.564C100.744 20.564 101.065 20.4773 101.342 20.304C101.628 20.1307 101.849 19.9053 102.005 19.628C102.161 19.342 102.239 19.0343 102.239 18.705C102.049 18.5923 101.815 18.5013 101.537 18.432C101.269 18.354 100.983 18.315 100.679 18.315C100.107 18.315 99.7 18.4277 99.4574 18.653C99.2147 18.8783 99.0934 19.16 99.0934 19.498C99.0934 19.81 99.2104 20.0657 99.4444 20.265C99.6784 20.4643 99.9904 20.564 100.38 20.564ZM104.799 21.5V20.33L108.491 16.092H104.916V14.87H110.207V16.04L106.528 20.278H110.311V21.5H104.799ZM111.856 21.5V14.87H113.26V21.5H111.856ZM112.558 13.895C112.298 13.895 112.072 13.804 111.882 13.622C111.7 13.4313 111.609 13.206 111.609 12.946C111.609 12.6773 111.7 12.4563 111.882 12.283C112.072 12.101 112.298 12.01 112.558 12.01C112.826 12.01 113.052 12.101 113.234 12.283C113.416 12.4563 113.507 12.6773 113.507 12.946C113.507 13.206 113.416 13.4313 113.234 13.622C113.052 13.804 112.826 13.895 112.558 13.895ZM114.483 14.87H115.64V12.998H117.044V14.87H118.669V16.092H117.044V19.277C117.044 19.6063 117.109 19.8577 117.239 20.031C117.378 20.2043 117.607 20.291 117.928 20.291C118.084 20.291 118.223 20.2693 118.344 20.226C118.465 20.174 118.587 20.1133 118.708 20.044V21.409C118.561 21.4697 118.405 21.5173 118.24 21.552C118.075 21.5867 117.88 21.604 117.655 21.604C117.04 21.604 116.55 21.4263 116.186 21.071C115.822 20.707 115.64 20.2087 115.64 19.576V16.092H114.483V14.87ZM125.065 21.5L122.322 14.87H123.882L125.741 19.693H125.806L127.704 14.87H129.238L126.469 21.5H125.065Z" fill="white"/>
<path d="M70.377 41.5V29.328H74.559C75.2957 29.328 75.9643 29.4867 76.565 29.804C77.1657 30.11 77.6417 30.5463 77.993 31.113C78.3557 31.6683 78.537 32.3143 78.537 33.051C78.537 33.7763 78.3557 34.4223 77.993 34.989C77.6417 35.5557 77.1657 35.9977 76.565 36.315C75.9643 36.621 75.2957 36.774 74.559 36.774H72.247V41.5H70.377ZM72.247 35.006H74.61C75.052 35.006 75.426 34.9153 75.732 34.734C76.038 34.5413 76.2703 34.2977 76.429 34.003C76.599 33.697 76.684 33.3797 76.684 33.051C76.684 32.7223 76.599 32.4107 76.429 32.116C76.2703 31.8213 76.038 31.5777 75.732 31.385C75.426 31.1923 75.052 31.096 74.61 31.096H72.247V35.006ZM83.5115 41.772C82.6615 41.772 81.9022 41.5737 81.2335 41.177C80.5648 40.7803 80.0378 40.2363 79.6525 39.545C79.2785 38.8537 79.0915 38.066 79.0915 37.182C79.0915 36.3547 79.2728 35.5897 79.6355 34.887C79.9982 34.1843 80.5025 33.6233 81.1485 33.204C81.8058 32.7733 82.5595 32.558 83.4095 32.558C84.3048 32.558 85.0642 32.7507 85.6875 33.136C86.3222 33.5213 86.8038 34.0483 87.1325 34.717C87.4612 35.3857 87.6255 36.1393 87.6255 36.978C87.6255 37.1027 87.6198 37.216 87.6085 37.318C87.6085 37.42 87.6028 37.4993 87.5915 37.556H80.8935C80.9388 38.032 81.0578 38.4457 81.2505 38.797C81.4998 39.239 81.8285 39.5733 82.2365 39.8C82.6445 40.0267 83.0865 40.14 83.5625 40.14C84.1405 40.14 84.6222 40.0097 85.0075 39.749C85.4042 39.477 85.7158 39.1427 85.9425 38.746L87.4555 39.477C87.0815 40.157 86.5715 40.7123 85.9255 41.143C85.2795 41.5623 84.4748 41.772 83.5115 41.772ZM80.9955 36.179H85.8065C85.7952 35.9637 85.7385 35.737 85.6365 35.499C85.5345 35.2497 85.3872 35.023 85.1945 34.819C85.0018 34.615 84.7582 34.4507 84.4635 34.326C84.1688 34.19 83.8232 34.122 83.4265 34.122C82.9278 34.122 82.4858 34.2523 82.1005 34.513C81.7152 34.7623 81.4148 35.1137 81.1995 35.567C81.1088 35.7597 81.0408 35.9637 80.9955 36.179ZM89.3288 41.5V32.83H91.0628V34.02H91.1648C91.4141 33.6007 91.7825 33.255 92.2698 32.983C92.7685 32.6997 93.3125 32.558 93.9018 32.558C94.9671 32.558 95.7661 32.8753 96.2988 33.51C96.8315 34.1333 97.0978 34.972 97.0978 36.026V41.5H95.2788V36.264C95.2788 35.5613 95.1031 35.0513 94.7518 34.734C94.4005 34.4053 93.9415 34.241 93.3748 34.241C92.9328 34.241 92.5475 34.3657 92.2188 34.615C91.8901 34.853 91.6295 35.1703 91.4368 35.567C91.2555 35.9637 91.1648 36.3887 91.1648 36.842V41.5H89.3288ZM103.151 41.772C102.301 41.772 101.542 41.5737 100.873 41.177C100.204 40.7803 99.6775 40.2363 99.2921 39.545C98.9181 38.8537 98.7311 38.066 98.7311 37.182C98.7311 36.3547 98.9125 35.5897 99.2751 34.887C99.6378 34.1843 100.142 33.6233 100.788 33.204C101.445 32.7733 102.199 32.558 103.049 32.558C103.944 32.558 104.704 32.7507 105.327 33.136C105.962 33.5213 106.443 34.0483 106.772 34.717C107.101 35.3857 107.265 36.1393 107.265 36.978C107.265 37.1027 107.259 37.216 107.248 37.318C107.248 37.42 107.242 37.4993 107.231 37.556H100.533C100.578 38.032 100.697 38.4457 100.89 38.797C101.139 39.239 101.468 39.5733 101.876 39.8C102.284 40.0267 102.726 40.14 103.202 40.14C103.78 40.14 104.262 40.0097 104.647 39.749C105.044 39.477 105.355 39.1427 105.582 38.746L107.095 39.477C106.721 40.157 106.211 40.7123 105.565 41.143C104.919 41.5623 104.114 41.772 103.151 41.772ZM100.635 36.179H105.446C105.435 35.9637 105.378 35.737 105.276 35.499C105.174 35.2497 105.027 35.023 104.834 34.819C104.641 34.615 104.398 34.4507 104.103 34.326C103.808 34.19 103.463 34.122 103.066 34.122C102.567 34.122 102.125 34.2523 101.74 34.513C101.355 34.7623 101.054 35.1137 100.839 35.567C100.748 35.7597 100.68 35.9637 100.635 36.179ZM102.25 31.164L100.431 29.107V28.988H102.182L102.964 30.042H103.134L103.933 28.988H105.701V29.107L103.865 31.164H102.25ZM108.443 41.5V39.97L113.271 34.428H108.596V32.83H115.515V34.36L110.704 39.902H115.651V41.5H108.443ZM111.265 31.164L109.446 29.107V28.988H111.197L111.979 30.042H112.149L112.948 28.988H114.716V29.107L112.88 31.164H111.265ZM121.164 41.772C120.314 41.772 119.555 41.5737 118.886 41.177C118.217 40.7803 117.69 40.2363 117.305 39.545C116.931 38.8537 116.744 38.066 116.744 37.182C116.744 36.3547 116.925 35.5897 117.288 34.887C117.651 34.1843 118.155 33.6233 118.801 33.204C119.458 32.7733 120.212 32.558 121.062 32.558C121.957 32.558 122.717 32.7507 123.34 33.136C123.975 33.5213 124.456 34.0483 124.785 34.717C125.114 35.3857 125.278 36.1393 125.278 36.978C125.278 37.1027 125.272 37.216 125.261 37.318C125.261 37.42 125.255 37.4993 125.244 37.556H118.546C118.591 38.032 118.71 38.4457 118.903 38.797C119.152 39.239 119.481 39.5733 119.889 39.8C120.297 40.0267 120.739 40.14 121.215 40.14C121.793 40.14 122.275 40.0097 122.66 39.749C123.057 39.477 123.368 39.1427 123.595 38.746L125.108 39.477C124.734 40.157 124.224 40.7123 123.578 41.143C122.932 41.5623 122.127 41.772 121.164 41.772ZM118.648 36.179H123.459C123.448 35.9637 123.391 35.737 123.289 35.499C123.187 35.2497 123.04 35.023 122.847 34.819C122.654 34.615 122.411 34.4507 122.116 34.326C121.821 34.19 121.476 34.122 121.079 34.122C120.58 34.122 120.138 34.2523 119.753 34.513C119.368 34.7623 119.067 35.1137 118.852 35.567C118.761 35.7597 118.693 35.9637 118.648 36.179ZM126.981 41.5V32.83H128.715V34.02H128.817C129.066 33.6007 129.435 33.255 129.922 32.983C130.421 32.6997 130.965 32.558 131.554 32.558C132.619 32.558 133.418 32.8753 133.951 33.51C134.484 34.1333 134.75 34.972 134.75 36.026V41.5H132.931V36.264C132.931 35.5613 132.755 35.0513 132.404 34.734C132.053 34.4053 131.594 34.241 131.027 34.241C130.585 34.241 130.2 34.3657 129.871 34.615C129.542 34.853 129.282 35.1703 129.089 35.567C128.908 35.9637 128.817 36.3887 128.817 36.842V41.5H126.981ZM140.854 41.772C139.982 41.772 139.205 41.5737 138.525 41.177C137.857 40.7803 137.33 40.2363 136.944 39.545C136.57 38.8423 136.383 38.049 136.383 37.165C136.383 36.281 136.57 35.4933 136.944 34.802C137.33 34.1107 137.857 33.5667 138.525 33.17C139.205 32.762 139.982 32.558 140.854 32.558C141.818 32.558 142.628 32.7733 143.285 33.204C143.954 33.6347 144.43 34.2183 144.713 34.955L143.047 35.635C142.843 35.1703 142.549 34.8247 142.163 34.598C141.789 34.36 141.342 34.241 140.82 34.241C140.344 34.241 139.908 34.3657 139.511 34.615C139.115 34.853 138.797 35.1873 138.559 35.618C138.321 36.0487 138.202 36.5643 138.202 37.165C138.202 37.7543 138.321 38.27 138.559 38.712C138.797 39.154 139.115 39.494 139.511 39.732C139.908 39.97 140.344 40.089 140.82 40.089C141.376 40.089 141.846 39.9643 142.231 39.715C142.617 39.4657 142.917 39.1143 143.132 38.661L144.764 39.375C144.447 40.0663 143.954 40.6387 143.285 41.092C142.628 41.5453 141.818 41.772 140.854 41.772ZM150.217 41.772C149.367 41.772 148.607 41.5737 147.939 41.177C147.27 40.7803 146.743 40.2363 146.358 39.545C145.984 38.8537 145.797 38.066 145.797 37.182C145.797 36.3547 145.978 35.5897 146.341 34.887C146.703 34.1843 147.208 33.6233 147.854 33.204C148.511 32.7733 149.265 32.558 150.115 32.558C151.01 32.558 151.769 32.7507 152.393 33.136C153.027 33.5213 153.509 34.0483 153.838 34.717C154.166 35.3857 154.331 36.1393 154.331 36.978C154.331 37.1027 154.325 37.216 154.314 37.318C154.314 37.42 154.308 37.4993 154.297 37.556H147.599C147.644 38.032 147.763 38.4457 147.956 38.797C148.205 39.239 148.534 39.5733 148.942 39.8C149.35 40.0267 149.792 40.14 150.268 40.14C150.846 40.14 151.327 40.0097 151.713 39.749C152.109 39.477 152.421 39.1427 152.648 38.746L154.161 39.477C153.787 40.157 153.277 40.7123 152.631 41.143C151.985 41.5623 151.18 41.772 150.217 41.772ZM147.701 36.179H152.512C152.5 35.9637 152.444 35.737 152.342 35.499C152.24 35.2497 152.092 35.023 151.9 34.819C151.707 34.615 151.463 34.4507 151.169 34.326C150.874 34.19 150.528 34.122 150.132 34.122C149.633 34.122 149.191 34.2523 148.806 34.513C148.42 34.7623 148.12 35.1137 147.905 35.567C147.814 35.7597 147.746 35.9637 147.701 36.179ZM165.739 41.772C164.866 41.772 164.044 41.6133 163.274 41.296C162.503 40.9787 161.823 40.5367 161.234 39.97C160.656 39.392 160.197 38.7177 159.857 37.947C159.528 37.165 159.364 36.3207 159.364 35.414C159.364 34.5073 159.528 33.6687 159.857 32.898C160.197 32.116 160.656 31.4417 161.234 30.875C161.823 30.297 162.503 29.8493 163.274 29.532C164.044 29.2147 164.866 29.056 165.739 29.056C166.668 29.056 167.524 29.2203 168.306 29.549C169.099 29.8777 169.762 30.3367 170.295 30.926L169.003 32.201C168.742 31.9063 168.442 31.657 168.102 31.453C167.773 31.249 167.41 31.096 167.014 30.994C166.617 30.8807 166.192 30.824 165.739 30.824C165.138 30.824 164.566 30.9317 164.022 31.147C163.478 31.3623 162.996 31.674 162.577 32.082C162.169 32.4787 161.846 32.9603 161.608 33.527C161.37 34.0823 161.251 34.7113 161.251 35.414C161.251 36.1167 161.37 36.7513 161.608 37.318C161.857 37.8733 162.186 38.355 162.594 38.763C163.013 39.1597 163.495 39.4657 164.039 39.681C164.583 39.8963 165.155 40.004 165.756 40.004C166.311 40.004 166.827 39.9247 167.303 39.766C167.79 39.6073 168.215 39.3807 168.578 39.086C168.94 38.7913 169.235 38.4343 169.462 38.015C169.688 37.5843 169.83 37.1027 169.887 36.57H165.722V34.921H171.638C171.66 35.057 171.683 35.2157 171.706 35.397C171.728 35.567 171.74 35.7313 171.74 35.89V35.907C171.74 36.7797 171.587 37.5787 171.281 38.304C170.986 39.0293 170.572 39.6527 170.04 40.174C169.507 40.684 168.872 41.0807 168.136 41.364C167.41 41.636 166.611 41.772 165.739 41.772ZM177.214 41.772C176.318 41.772 175.531 41.568 174.851 41.16C174.171 40.752 173.638 40.2023 173.253 39.511C172.867 38.8083 172.675 38.0263 172.675 37.165C172.675 36.3037 172.867 35.5273 173.253 34.836C173.638 34.1333 174.171 33.578 174.851 33.17C175.531 32.762 176.318 32.558 177.214 32.558C178.098 32.558 178.88 32.7677 179.56 33.187C180.24 33.595 180.772 34.1447 181.158 34.836C181.543 35.5273 181.736 36.3037 181.736 37.165C181.736 38.0263 181.543 38.8083 181.158 39.511C180.772 40.2023 180.24 40.752 179.56 41.16C178.88 41.568 178.098 41.772 177.214 41.772ZM177.214 40.089C177.69 40.089 178.132 39.9757 178.54 39.749C178.948 39.511 179.276 39.1767 179.526 38.746C179.786 38.304 179.917 37.777 179.917 37.165C179.917 36.553 179.786 36.0317 179.526 35.601C179.276 35.159 178.948 34.8247 178.54 34.598C178.132 34.36 177.69 34.241 177.214 34.241C176.738 34.241 176.29 34.36 175.871 34.598C175.463 34.8247 175.128 35.159 174.868 35.601C174.618 36.0317 174.494 36.553 174.494 37.165C174.494 37.777 174.618 38.304 174.868 38.746C175.128 39.1767 175.468 39.511 175.888 39.749C176.307 39.9757 176.749 40.089 177.214 40.089ZM187.506 41.772C186.611 41.772 185.823 41.568 185.143 41.16C184.463 40.752 183.931 40.2023 183.545 39.511C183.16 38.8083 182.967 38.0263 182.967 37.165C182.967 36.3037 183.16 35.5273 183.545 34.836C183.931 34.1333 184.463 33.578 185.143 33.17C185.823 32.762 186.611 32.558 187.506 32.558C188.39 32.558 189.172 32.7677 189.852 33.187C190.532 33.595 191.065 34.1447 191.45 34.836C191.836 35.5273 192.028 36.3037 192.028 37.165C192.028 38.0263 191.836 38.8083 191.45 39.511C191.065 40.2023 190.532 40.752 189.852 41.16C189.172 41.568 188.39 41.772 187.506 41.772ZM187.506 40.089C187.982 40.089 188.424 39.9757 188.832 39.749C189.24 39.511 189.569 39.1767 189.818 38.746C190.079 38.304 190.209 37.777 190.209 37.165C190.209 36.553 190.079 36.0317 189.818 35.601C189.569 35.159 189.24 34.8247 188.832 34.598C188.424 34.36 187.982 34.241 187.506 34.241C187.03 34.241 186.583 34.36 186.163 34.598C185.755 34.8247 185.421 35.159 185.16 35.601C184.911 36.0317 184.786 36.553 184.786 37.165C184.786 37.777 184.911 38.304 185.16 38.746C185.421 39.1767 185.761 39.511 186.18 39.749C186.6 39.9757 187.042 40.089 187.506 40.089ZM197.629 45.444C196.87 45.444 196.213 45.3193 195.657 45.07C195.113 44.832 194.671 44.5203 194.331 44.135C193.991 43.761 193.748 43.3757 193.6 42.979L195.3 42.265C195.482 42.7183 195.771 43.0867 196.167 43.37C196.575 43.6647 197.063 43.812 197.629 43.812C198.434 43.812 199.063 43.574 199.516 43.098C199.97 42.622 200.196 41.9477 200.196 41.075V40.242H200.094C199.822 40.6387 199.448 40.9617 198.972 41.211C198.496 41.4603 197.947 41.585 197.323 41.585C196.587 41.585 195.907 41.398 195.283 41.024C194.671 40.65 194.178 40.1287 193.804 39.46C193.442 38.78 193.26 37.9867 193.26 37.08C193.26 36.162 193.442 35.3687 193.804 34.7C194.178 34.02 194.671 33.493 195.283 33.119C195.907 32.745 196.587 32.558 197.323 32.558C197.947 32.558 198.496 32.6827 198.972 32.932C199.448 33.17 199.822 33.4987 200.094 33.918H200.196V32.83H201.947V41.041C201.947 41.9817 201.76 42.7807 201.386 43.438C201.024 44.0953 200.519 44.594 199.873 44.934C199.227 45.274 198.479 45.444 197.629 45.444ZM197.646 39.919C198.1 39.919 198.519 39.8113 198.904 39.596C199.301 39.3693 199.613 39.0463 199.839 38.627C200.077 38.1963 200.196 37.6807 200.196 37.08C200.196 36.4453 200.077 35.9183 199.839 35.499C199.613 35.0797 199.301 34.7623 198.904 34.547C198.519 34.3317 198.1 34.224 197.646 34.224C197.193 34.224 196.768 34.3317 196.371 34.547C195.986 34.7623 195.674 35.0853 195.436 35.516C195.198 35.9353 195.079 36.4567 195.079 37.08C195.079 37.692 195.198 38.2133 195.436 38.644C195.674 39.0633 195.986 39.3807 196.371 39.596C196.768 39.8113 197.193 39.919 197.646 39.919ZM204.112 41.5V29.328H205.948V41.5H204.112ZM211.991 41.772C211.141 41.772 210.382 41.5737 209.713 41.177C209.044 40.7803 208.517 40.2363 208.132 39.545C207.758 38.8537 207.571 38.066 207.571 37.182C207.571 36.3547 207.752 35.5897 208.115 34.887C208.478 34.1843 208.982 33.6233 209.628 33.204C210.285 32.7733 211.039 32.558 211.889 32.558C212.784 32.558 213.544 32.7507 214.167 33.136C214.802 33.5213 215.283 34.0483 215.612 34.717C215.941 35.3857 216.105 36.1393 216.105 36.978C216.105 37.1027 216.099 37.216 216.088 37.318C216.088 37.42 216.082 37.4993 216.071 37.556H209.373C209.418 38.032 209.537 38.4457 209.73 38.797C209.979 39.239 210.308 39.5733 210.716 39.8C211.124 40.0267 211.566 40.14 212.042 40.14C212.62 40.14 213.102 40.0097 213.487 39.749C213.884 39.477 214.195 39.1427 214.422 38.746L215.935 39.477C215.561 40.157 215.051 40.7123 214.405 41.143C213.759 41.5623 212.954 41.772 211.991 41.772ZM209.475 36.179H214.286C214.275 35.9637 214.218 35.737 214.116 35.499C214.014 35.2497 213.867 35.023 213.674 34.819C213.481 34.615 213.238 34.4507 212.943 34.326C212.648 34.19 212.303 34.122 211.906 34.122C211.407 34.122 210.965 34.2523 210.58 34.513C210.195 34.7623 209.894 35.1137 209.679 35.567C209.588 35.7597 209.52 35.9637 209.475 36.179Z" fill="white"/>
</svg>
