<svg width="272" height="55" viewBox="0 0 272 55" fill="none" xmlns="http://www.w3.org/2000/svg">
<rect x="0.5" y="0.5" width="271" height="54" rx="27" fill="#1F1F1F"/>
<rect x="0.5" y="0.5" width="271" height="54" rx="27" stroke="#747775"/>
<path d="M57 23.791H21V18.1455C21 15.0809 23.6422 12.5001 26.7798 12.5001H51.2202C54.3578 12.5001 57 15.0809 57 18.1455V23.791Z" fill="#34A853"/>
<path d="M57 29H21V23C21 19.7429 23.6422 17 26.7798 17H51.2202C54.3578 17 57 19.7429 57 23V29Z" fill="#FBBC04"/>
<path d="M57 34H21V28C21 24.7429 23.6422 22 26.7798 22H51.2202C54.3578 22 57 24.7429 57 28V34Z" fill="#EA4335"/>
<path d="M21 25.2409L43.8493 30.4025C46.4795 31.0477 49.4384 30.4025 51.5753 28.7895L57 24.9183V37.0157C57 40.0804 54.3699 42.4999 51.2466 42.4999H26.7534C23.6301 42.4999 21 40.0804 21 37.0157V25.2409Z" fill="#4285F4"/>
<path d="M70.053 21.5V12.192H71.483V21.5H70.053ZM73.361 21.5V14.87H74.687V15.78H74.765C74.9557 15.4593 75.2373 15.195 75.61 14.987C75.9913 14.7703 76.4073 14.662 76.858 14.662C77.6727 14.662 78.2837 14.9047 78.691 15.39C79.0983 15.8667 79.302 16.508 79.302 17.314V21.5H77.911V17.496C77.911 16.9587 77.7767 16.5687 77.508 16.326C77.2393 16.0747 76.8883 15.949 76.455 15.949C76.117 15.949 75.8223 16.0443 75.571 16.235C75.3197 16.417 75.1203 16.6597 74.973 16.963C74.8343 17.2663 74.765 17.5913 74.765 17.938V21.5H73.361Z" fill="white"/>
<path d="M76.14 41.772C75.2673 41.772 74.4457 41.6133 73.675 41.296C72.9043 40.9787 72.2243 40.5367 71.635 39.97C71.057 39.392 70.598 38.7177 70.258 37.947C69.9293 37.165 69.765 36.3207 69.765 35.414C69.765 34.5073 69.9293 33.6687 70.258 32.898C70.598 32.116 71.057 31.4417 71.635 30.875C72.2243 30.297 72.9043 29.8493 73.675 29.532C74.4457 29.2147 75.2673 29.056 76.14 29.056C77.0693 29.056 77.925 29.2203 78.707 29.549C79.5003 29.8777 80.1633 30.3367 80.696 30.926L79.404 32.201C79.1433 31.9063 78.843 31.657 78.503 31.453C78.1743 31.249 77.8117 31.096 77.415 30.994C77.0183 30.8807 76.5933 30.824 76.14 30.824C75.5393 30.824 74.967 30.9317 74.423 31.147C73.879 31.3623 73.3973 31.674 72.978 32.082C72.57 32.4787 72.247 32.9603 72.009 33.527C71.771 34.0823 71.652 34.7113 71.652 35.414C71.652 36.1167 71.771 36.7513 72.009 37.318C72.2583 37.8733 72.587 38.355 72.995 38.763C73.4143 39.1597 73.896 39.4657 74.44 39.681C74.984 39.8963 75.5563 40.004 76.157 40.004C76.7123 40.004 77.228 39.9247 77.704 39.766C78.1913 39.6073 78.6163 39.3807 78.979 39.086C79.3417 38.7913 79.6363 38.4343 79.863 38.015C80.0897 37.5843 80.2313 37.1027 80.288 36.57H76.123V34.921H82.039C82.0617 35.057 82.0843 35.2157 82.107 35.397C82.1297 35.567 82.141 35.7313 82.141 35.89V35.907C82.141 36.7797 81.988 37.5787 81.682 38.304C81.3873 39.0293 80.9737 39.6527 80.441 40.174C79.9083 40.684 79.2737 41.0807 78.537 41.364C77.8117 41.636 77.0127 41.772 76.14 41.772ZM87.6149 41.772C86.7195 41.772 85.9319 41.568 85.2519 41.16C84.5719 40.752 84.0392 40.2023 83.6539 39.511C83.2685 38.8083 83.0759 38.0263 83.0759 37.165C83.0759 36.3037 83.2685 35.5273 83.6539 34.836C84.0392 34.1333 84.5719 33.578 85.2519 33.17C85.9319 32.762 86.7195 32.558 87.6149 32.558C88.4989 32.558 89.2809 32.7677 89.9609 33.187C90.6409 33.595 91.1735 34.1447 91.5589 34.836C91.9442 35.5273 92.1369 36.3037 92.1369 37.165C92.1369 38.0263 91.9442 38.8083 91.5589 39.511C91.1735 40.2023 90.6409 40.752 89.9609 41.16C89.2809 41.568 88.4989 41.772 87.6149 41.772ZM87.6149 40.089C88.0909 40.089 88.5329 39.9757 88.9409 39.749C89.3489 39.511 89.6775 39.1767 89.9269 38.746C90.1875 38.304 90.3179 37.777 90.3179 37.165C90.3179 36.553 90.1875 36.0317 89.9269 35.601C89.6775 35.159 89.3489 34.8247 88.9409 34.598C88.5329 34.36 88.0909 34.241 87.6149 34.241C87.1389 34.241 86.6912 34.36 86.2719 34.598C85.8639 34.8247 85.5295 35.159 85.2689 35.601C85.0195 36.0317 84.8949 36.553 84.8949 37.165C84.8949 37.777 85.0195 38.304 85.2689 38.746C85.5295 39.1767 85.8695 39.511 86.2889 39.749C86.7082 39.9757 87.1502 40.089 87.6149 40.089ZM97.9078 41.772C97.0125 41.772 96.2248 41.568 95.5448 41.16C94.8648 40.752 94.3322 40.2023 93.9468 39.511C93.5615 38.8083 93.3688 38.0263 93.3688 37.165C93.3688 36.3037 93.5615 35.5273 93.9468 34.836C94.3322 34.1333 94.8648 33.578 95.5448 33.17C96.2248 32.762 97.0125 32.558 97.9078 32.558C98.7918 32.558 99.5738 32.7677 100.254 33.187C100.934 33.595 101.467 34.1447 101.852 34.836C102.237 35.5273 102.43 36.3037 102.43 37.165C102.43 38.0263 102.237 38.8083 101.852 39.511C101.467 40.2023 100.934 40.752 100.254 41.16C99.5738 41.568 98.7918 41.772 97.9078 41.772ZM97.9078 40.089C98.3838 40.089 98.8258 39.9757 99.2338 39.749C99.6418 39.511 99.9705 39.1767 100.22 38.746C100.481 38.304 100.611 37.777 100.611 37.165C100.611 36.553 100.481 36.0317 100.22 35.601C99.9705 35.159 99.6418 34.8247 99.2338 34.598C98.8258 34.36 98.3838 34.241 97.9078 34.241C97.4318 34.241 96.9842 34.36 96.5648 34.598C96.1568 34.8247 95.8225 35.159 95.5618 35.601C95.3125 36.0317 95.1878 36.553 95.1878 37.165C95.1878 37.777 95.3125 38.304 95.5618 38.746C95.8225 39.1767 96.1625 39.511 96.5818 39.749C97.0012 39.9757 97.4432 40.089 97.9078 40.089ZM108.031 45.444C107.271 45.444 106.614 45.3193 106.059 45.07C105.515 44.832 105.073 44.5203 104.733 44.135C104.393 43.761 104.149 43.3757 104.002 42.979L105.702 42.265C105.883 42.7183 106.172 43.0867 106.569 43.37C106.977 43.6647 107.464 43.812 108.031 43.812C108.835 43.812 109.464 43.574 109.918 43.098C110.371 42.622 110.598 41.9477 110.598 41.075V40.242H110.496C110.224 40.6387 109.85 40.9617 109.374 41.211C108.898 41.4603 108.348 41.585 107.725 41.585C106.988 41.585 106.308 41.398 105.685 41.024C105.073 40.65 104.58 40.1287 104.206 39.46C103.843 38.78 103.662 37.9867 103.662 37.08C103.662 36.162 103.843 35.3687 104.206 34.7C104.58 34.02 105.073 33.493 105.685 33.119C106.308 32.745 106.988 32.558 107.725 32.558C108.348 32.558 108.898 32.6827 109.374 32.932C109.85 33.17 110.224 33.4987 110.496 33.918H110.598V32.83H112.349V41.041C112.349 41.9817 112.162 42.7807 111.788 43.438C111.425 44.0953 110.921 44.594 110.275 44.934C109.629 45.274 108.881 45.444 108.031 45.444ZM108.048 39.919C108.501 39.919 108.92 39.8113 109.306 39.596C109.702 39.3693 110.014 39.0463 110.241 38.627C110.479 38.1963 110.598 37.6807 110.598 37.08C110.598 36.4453 110.479 35.9183 110.241 35.499C110.014 35.0797 109.702 34.7623 109.306 34.547C108.92 34.3317 108.501 34.224 108.048 34.224C107.594 34.224 107.169 34.3317 106.773 34.547C106.387 34.7623 106.076 35.0853 105.838 35.516C105.6 35.9353 105.481 36.4567 105.481 37.08C105.481 37.692 105.6 38.2133 105.838 38.644C106.076 39.0633 106.387 39.3807 106.773 39.596C107.169 39.8113 107.594 39.919 108.048 39.919ZM114.514 41.5V29.328H116.35V41.5H114.514ZM122.392 41.772C121.542 41.772 120.783 41.5737 120.114 41.177C119.446 40.7803 118.919 40.2363 118.533 39.545C118.159 38.8537 117.972 38.066 117.972 37.182C117.972 36.3547 118.154 35.5897 118.516 34.887C118.879 34.1843 119.383 33.6233 120.029 33.204C120.687 32.7733 121.44 32.558 122.29 32.558C123.186 32.558 123.945 32.7507 124.568 33.136C125.203 33.5213 125.685 34.0483 126.013 34.717C126.342 35.3857 126.506 36.1393 126.506 36.978C126.506 37.1027 126.501 37.216 126.489 37.318C126.489 37.42 126.484 37.4993 126.472 37.556H119.774C119.82 38.032 119.939 38.4457 120.131 38.797C120.381 39.239 120.709 39.5733 121.117 39.8C121.525 40.0267 121.967 40.14 122.443 40.14C123.021 40.14 123.503 40.0097 123.888 39.749C124.285 39.477 124.597 39.1427 124.823 38.746L126.336 39.477C125.962 40.157 125.452 40.7123 124.806 41.143C124.16 41.5623 123.356 41.772 122.392 41.772ZM119.876 36.179H124.687C124.676 35.9637 124.619 35.737 124.517 35.499C124.415 35.2497 124.268 35.023 124.075 34.819C123.883 34.615 123.639 34.4507 123.344 34.326C123.05 34.19 122.704 34.122 122.307 34.122C121.809 34.122 121.367 34.2523 120.981 34.513C120.596 34.7623 120.296 35.1137 120.08 35.567C119.99 35.7597 119.922 35.9637 119.876 36.179ZM133.979 41.5L130.715 29.328H132.789L134.727 37.233L134.931 38.287H135.033L135.288 37.233L137.736 29.328H139.606L141.952 37.233L142.207 38.27H142.309L142.513 37.233L144.451 29.328H146.508L143.295 41.5H141.323L138.994 33.425L138.722 32.286H138.62L138.331 33.425L135.9 41.5H133.979ZM149.922 41.772C149.299 41.772 148.743 41.6473 148.256 41.398C147.78 41.1487 147.4 40.8087 147.117 40.378C146.845 39.936 146.709 39.4317 146.709 38.865C146.709 38.2417 146.868 37.7147 147.185 37.284C147.514 36.8533 147.95 36.5247 148.494 36.298C149.038 36.0713 149.639 35.958 150.296 35.958C150.659 35.958 150.993 35.9863 151.299 36.043C151.616 36.0883 151.888 36.145 152.115 36.213C152.353 36.281 152.54 36.3547 152.676 36.434V35.975C152.676 35.4083 152.472 34.955 152.064 34.615C151.656 34.275 151.129 34.105 150.483 34.105C150.041 34.105 149.622 34.207 149.225 34.411C148.828 34.6037 148.511 34.87 148.273 35.21L147.015 34.241C147.264 33.8897 147.565 33.5893 147.916 33.34C148.279 33.0907 148.681 32.898 149.123 32.762C149.576 32.626 150.047 32.558 150.534 32.558C151.792 32.558 152.761 32.8697 153.441 33.493C154.121 34.105 154.461 34.9663 154.461 36.077V41.5H152.676V40.429H152.574C152.427 40.6557 152.223 40.871 151.962 41.075C151.713 41.279 151.412 41.4433 151.061 41.568C150.721 41.704 150.341 41.772 149.922 41.772ZM150.245 40.276C150.721 40.276 151.14 40.1627 151.503 39.936C151.877 39.7093 152.166 39.4147 152.37 39.052C152.574 38.678 152.676 38.2757 152.676 37.845C152.427 37.6977 152.121 37.5787 151.758 37.488C151.407 37.386 151.033 37.335 150.636 37.335C149.888 37.335 149.355 37.4823 149.038 37.777C148.721 38.0717 148.562 38.44 148.562 38.882C148.562 39.29 148.715 39.6243 149.021 39.885C149.327 40.1457 149.735 40.276 150.245 40.276ZM156.499 41.5V29.328H158.335V41.5H156.499ZM160.517 41.5V29.328H162.353V41.5H160.517ZM168.395 41.772C167.545 41.772 166.786 41.5737 166.117 41.177C165.449 40.7803 164.922 40.2363 164.536 39.545C164.162 38.8537 163.975 38.066 163.975 37.182C163.975 36.3547 164.157 35.5897 164.519 34.887C164.882 34.1843 165.386 33.6233 166.032 33.204C166.69 32.7733 167.443 32.558 168.293 32.558C169.189 32.558 169.948 32.7507 170.571 33.136C171.206 33.5213 171.688 34.0483 172.016 34.717C172.345 35.3857 172.509 36.1393 172.509 36.978C172.509 37.1027 172.504 37.216 172.492 37.318C172.492 37.42 172.487 37.4993 172.475 37.556H165.777C165.823 38.032 165.942 38.4457 166.134 38.797C166.384 39.239 166.712 39.5733 167.12 39.8C167.528 40.0267 167.97 40.14 168.446 40.14C169.024 40.14 169.506 40.0097 169.891 39.749C170.288 39.477 170.6 39.1427 170.826 38.746L172.339 39.477C171.965 40.157 171.455 40.7123 170.809 41.143C170.163 41.5623 169.359 41.772 168.395 41.772ZM165.879 36.179H170.69C170.679 35.9637 170.622 35.737 170.52 35.499C170.418 35.2497 170.271 35.023 170.078 34.819C169.886 34.615 169.642 34.4507 169.347 34.326C169.053 34.19 168.707 34.122 168.31 34.122C167.812 34.122 167.37 34.2523 166.984 34.513C166.599 34.7623 166.299 35.1137 166.083 35.567C165.993 35.7597 165.925 35.9637 165.879 36.179ZM173.369 32.83H174.882V30.382H176.718V32.83H178.843V34.428H176.718V38.593C176.718 39.0237 176.803 39.3523 176.973 39.579C177.154 39.8057 177.454 39.919 177.874 39.919C178.078 39.919 178.259 39.8907 178.418 39.834C178.576 39.766 178.735 39.6867 178.894 39.596V41.381C178.701 41.4603 178.497 41.5227 178.282 41.568C178.066 41.6133 177.811 41.636 177.517 41.636C176.712 41.636 176.072 41.4037 175.596 40.939C175.12 40.463 174.882 39.8113 174.882 38.984V34.428H173.369V32.83ZM187.292 41.772C186.669 41.772 186.113 41.6473 185.626 41.398C185.15 41.1487 184.77 40.8087 184.487 40.378C184.215 39.936 184.079 39.4317 184.079 38.865C184.079 38.2417 184.238 37.7147 184.555 37.284C184.884 36.8533 185.32 36.5247 185.864 36.298C186.408 36.0713 187.009 35.958 187.666 35.958C188.029 35.958 188.363 35.9863 188.669 36.043C188.986 36.0883 189.258 36.145 189.485 36.213C189.723 36.281 189.91 36.3547 190.046 36.434V35.975C190.046 35.4083 189.842 34.955 189.434 34.615C189.026 34.275 188.499 34.105 187.853 34.105C187.411 34.105 186.992 34.207 186.595 34.411C186.198 34.6037 185.881 34.87 185.643 35.21L184.385 34.241C184.634 33.8897 184.935 33.5893 185.286 33.34C185.649 33.0907 186.051 32.898 186.493 32.762C186.946 32.626 187.417 32.558 187.904 32.558C189.162 32.558 190.131 32.8697 190.811 33.493C191.491 34.105 191.831 34.9663 191.831 36.077V41.5H190.046V40.429H189.944C189.797 40.6557 189.593 40.871 189.332 41.075C189.083 41.279 188.782 41.4433 188.431 41.568C188.091 41.704 187.711 41.772 187.292 41.772ZM187.615 40.276C188.091 40.276 188.51 40.1627 188.873 39.936C189.247 39.7093 189.536 39.4147 189.74 39.052C189.944 38.678 190.046 38.2757 190.046 37.845C189.797 37.6977 189.491 37.5787 189.128 37.488C188.777 37.386 188.403 37.335 188.006 37.335C187.258 37.335 186.725 37.4823 186.408 37.777C186.091 38.0717 185.932 38.44 185.932 38.882C185.932 39.29 186.085 39.6243 186.391 39.885C186.697 40.1457 187.105 40.276 187.615 40.276ZM196.997 41.772C195.932 41.772 195.127 41.4547 194.583 40.82C194.051 40.174 193.784 39.3013 193.784 38.202V32.83H195.62V37.947C195.62 38.6723 195.79 39.2107 196.13 39.562C196.482 39.9133 196.918 40.089 197.439 40.089C197.915 40.089 198.323 39.97 198.663 39.732C199.003 39.4827 199.264 39.1597 199.445 38.763C199.638 38.3663 199.734 37.9413 199.734 37.488V32.83H201.553V41.5H199.836V40.327H199.734C199.576 40.599 199.355 40.8427 199.071 41.058C198.788 41.2733 198.471 41.4433 198.119 41.568C197.768 41.704 197.394 41.772 196.997 41.772ZM203.202 34.428V32.83H204.783V32.116C204.783 31.4927 204.913 30.9657 205.174 30.535C205.434 30.093 205.791 29.7587 206.245 29.532C206.698 29.3053 207.202 29.192 207.758 29.192C208.064 29.192 208.324 29.2147 208.54 29.26C208.766 29.294 208.953 29.3393 209.101 29.396V31.181C208.953 31.1243 208.783 31.0677 208.591 31.011C208.409 30.943 208.183 30.909 207.911 30.909C207.559 30.909 207.253 31.028 206.993 31.266C206.732 31.4927 206.602 31.827 206.602 32.269V32.83H208.778V34.428H206.602V41.5H204.783V34.428H203.202ZM210.537 41.5V32.83H212.271V34.105H212.373C212.509 33.8103 212.701 33.5497 212.951 33.323C213.211 33.0963 213.506 32.915 213.835 32.779C214.175 32.643 214.526 32.575 214.889 32.575C215.127 32.575 215.325 32.592 215.484 32.626C215.654 32.6487 215.807 32.6883 215.943 32.745V34.649C215.727 34.5583 215.506 34.4847 215.28 34.428C215.064 34.3713 214.838 34.343 214.6 34.343C214.169 34.343 213.784 34.462 213.444 34.7C213.115 34.9267 212.854 35.2327 212.662 35.618C212.469 36.0033 212.373 36.434 212.373 36.91V41.5H210.537ZM220.505 41.772C219.44 41.772 218.635 41.4547 218.091 40.82C217.558 40.174 217.292 39.3013 217.292 38.202V32.83H219.128V37.947C219.128 38.6723 219.298 39.2107 219.638 39.562C219.989 39.9133 220.426 40.089 220.947 40.089C221.423 40.089 221.831 39.97 222.171 39.732C222.511 39.4827 222.772 39.1597 222.953 38.763C223.146 38.3663 223.242 37.9413 223.242 37.488V32.83H225.061V41.5H223.344V40.327H223.242C223.083 40.599 222.862 40.8427 222.579 41.058C222.296 41.2733 221.978 41.4433 221.627 41.568C221.276 41.704 220.902 41.772 220.505 41.772ZM226.709 34.428V32.83H228.29V32.116C228.29 31.4927 228.421 30.9657 228.681 30.535C228.942 30.093 229.299 29.7587 229.752 29.532C230.206 29.3053 230.71 29.192 231.265 29.192C231.571 29.192 231.832 29.2147 232.047 29.26C232.274 29.294 232.461 29.3393 232.608 29.396V31.181C232.461 31.1243 232.291 31.0677 232.098 31.011C231.917 30.943 231.69 30.909 231.418 30.909C231.067 30.909 230.761 31.028 230.5 31.266C230.24 31.4927 230.109 31.827 230.109 32.269V32.83H232.285V34.428H230.109V41.5H228.29V34.428H226.709ZM237.474 41.772C236.624 41.772 235.865 41.5737 235.196 41.177C234.528 40.7803 234.001 40.2363 233.615 39.545C233.241 38.8537 233.054 38.066 233.054 37.182C233.054 36.3547 233.236 35.5897 233.598 34.887C233.961 34.1843 234.465 33.6233 235.111 33.204C235.769 32.7733 236.522 32.558 237.372 32.558C238.268 32.558 239.027 32.7507 239.65 33.136C240.285 33.5213 240.767 34.0483 241.095 34.717C241.424 35.3857 241.588 36.1393 241.588 36.978C241.588 37.1027 241.583 37.216 241.571 37.318C241.571 37.42 241.566 37.4993 241.554 37.556H234.856C234.902 38.032 235.021 38.4457 235.213 38.797C235.463 39.239 235.791 39.5733 236.199 39.8C236.607 40.0267 237.049 40.14 237.525 40.14C238.103 40.14 238.585 40.0097 238.97 39.749C239.367 39.477 239.679 39.1427 239.905 38.746L241.418 39.477C241.044 40.157 240.534 40.7123 239.888 41.143C239.242 41.5623 238.438 41.772 237.474 41.772ZM234.958 36.179H239.769C239.758 35.9637 239.701 35.737 239.599 35.499C239.497 35.2497 239.35 35.023 239.157 34.819C238.965 34.615 238.721 34.4507 238.426 34.326C238.132 34.19 237.786 34.122 237.389 34.122C236.891 34.122 236.449 34.2523 236.063 34.513C235.678 34.7623 235.378 35.1137 235.162 35.567C235.072 35.7597 235.004 35.9637 234.958 36.179ZM243.292 41.5V32.83H245.026V34.02H245.128C245.377 33.6007 245.745 33.255 246.233 32.983C246.731 32.6997 247.275 32.558 247.865 32.558C248.93 32.558 249.729 32.8753 250.262 33.51C250.794 34.1333 251.061 34.972 251.061 36.026V41.5H249.242V36.264C249.242 35.5613 249.066 35.0513 248.715 34.734C248.363 34.4053 247.904 34.241 247.338 34.241C246.896 34.241 246.51 34.3657 246.182 34.615C245.853 34.853 245.592 35.1703 245.4 35.567C245.218 35.9637 245.128 36.3887 245.128 36.842V41.5H243.292Z" fill="white"/>
</svg>
