<svg width="239" height="55" viewBox="0 0 239 55" fill="none" xmlns="http://www.w3.org/2000/svg">
<rect x="0.5" y="0.5" width="238" height="54" rx="27" fill="#1F1F1F"/>
<rect x="0.5" y="0.5" width="238" height="54" rx="27" stroke="#747775"/>
<path d="M57 23.791H21V18.1455C21 15.0809 23.6422 12.5001 26.7798 12.5001H51.2202C54.3578 12.5001 57 15.0809 57 18.1455V23.791Z" fill="#34A853"/>
<path d="M57 29H21V23C21 19.7429 23.6422 17 26.7798 17H51.2202C54.3578 17 57 19.7429 57 23V29Z" fill="#FBBC04"/>
<path d="M57 34H21V28C21 24.7429 23.6422 22 26.7798 22H51.2202C54.3578 22 57 24.7429 57 28V34Z" fill="#EA4335"/>
<path d="M21 25.2409L43.8493 30.4025C46.4795 31.0477 49.4384 30.4025 51.5753 28.7895L57 24.9183V37.0157C57 40.0804 54.3699 42.4999 51.2466 42.4999H26.7534C23.6301 42.4999 21 40.0804 21 37.0157V25.2409Z" fill="#4285F4"/>
<path d="M70.053 21.5V12.192H77.073V21.5H75.643V13.544H71.483V21.5H70.053ZM78.768 24.308V18.289C78.768 17.5523 78.911 16.9153 79.197 16.378C79.4916 15.832 79.8903 15.4117 80.393 15.117C80.9043 14.8137 81.4806 14.662 82.122 14.662C82.668 14.662 83.149 14.7573 83.565 14.948C83.981 15.1387 84.332 15.3987 84.618 15.728C84.904 16.0573 85.1206 16.4343 85.268 16.859C85.4153 17.2837 85.489 17.73 85.489 18.198C85.489 18.8827 85.346 19.4893 85.06 20.018C84.7826 20.5467 84.4056 20.9627 83.929 21.266C83.4523 21.5607 82.9236 21.708 82.343 21.708C81.9963 21.708 81.68 21.656 81.394 21.552C81.1166 21.4567 80.874 21.3267 80.666 21.162C80.4666 20.9973 80.302 20.8153 80.172 20.616H80.094L80.172 21.526V24.308H78.768ZM82.083 20.421C82.4383 20.421 82.7676 20.33 83.071 20.148C83.383 19.9573 83.63 19.6973 83.812 19.368C84.0026 19.0387 84.098 18.653 84.098 18.211C84.098 17.7343 84.0026 17.327 83.812 16.989C83.6213 16.651 83.37 16.3953 83.058 16.222C82.7546 16.04 82.4296 15.949 82.083 15.949C81.7623 15.949 81.4503 16.0357 81.147 16.209C80.8436 16.3823 80.5923 16.638 80.393 16.976C80.1936 17.314 80.094 17.7343 80.094 18.237C80.094 18.653 80.185 19.03 80.367 19.368C80.549 19.6973 80.7916 19.9573 81.095 20.148C81.3983 20.33 81.7276 20.421 82.083 20.421ZM89.8999 21.708C89.2153 21.708 88.6129 21.552 88.0929 21.24C87.5729 20.928 87.1656 20.5077 86.8709 19.979C86.5763 19.4417 86.4289 18.8437 86.4289 18.185C86.4289 17.5263 86.5763 16.9327 86.8709 16.404C87.1656 15.8667 87.5729 15.442 88.0929 15.13C88.6129 14.818 89.2153 14.662 89.8999 14.662C90.5759 14.662 91.1739 14.8223 91.6939 15.143C92.2139 15.455 92.6213 15.8753 92.9159 16.404C93.2106 16.9327 93.3579 17.5263 93.3579 18.185C93.3579 18.8437 93.2106 19.4417 92.9159 19.979C92.6213 20.5077 92.2139 20.928 91.6939 21.24C91.1739 21.552 90.5759 21.708 89.8999 21.708ZM89.8999 20.421C90.2639 20.421 90.6019 20.3343 90.9139 20.161C91.2259 19.979 91.4773 19.7233 91.6679 19.394C91.8673 19.056 91.9669 18.653 91.9669 18.185C91.9669 17.717 91.8673 17.3183 91.6679 16.989C91.4773 16.651 91.2259 16.3953 90.9139 16.222C90.6019 16.04 90.2639 15.949 89.8999 15.949C89.5359 15.949 89.1936 16.04 88.8729 16.222C88.5609 16.3953 88.3053 16.651 88.1059 16.989C87.9153 17.3183 87.8199 17.717 87.8199 18.185C87.8199 18.653 87.9153 19.056 88.1059 19.394C88.3053 19.7233 88.5653 19.979 88.8859 20.161C89.2066 20.3343 89.5446 20.421 89.8999 20.421ZM94.599 24.308V15.416C94.599 14.7053 94.7334 14.103 95.002 13.609C95.2794 13.115 95.6607 12.7423 96.146 12.491C96.6314 12.231 97.199 12.101 97.849 12.101C98.369 12.101 98.8154 12.1747 99.188 12.322C99.5694 12.4607 99.8814 12.6513 100.124 12.894C100.367 13.128 100.544 13.3967 100.657 13.7C100.778 14.0033 100.839 14.311 100.839 14.623C100.839 14.9783 100.778 15.286 100.657 15.546C100.544 15.7973 100.393 16.0097 100.202 16.183C100.011 16.3477 99.799 16.4733 99.565 16.56V16.638C99.9464 16.742 100.267 16.898 100.527 17.106C100.787 17.3053 100.982 17.5567 101.112 17.86C101.251 18.1633 101.32 18.5187 101.32 18.926C101.32 19.472 101.186 19.953 100.917 20.369C100.657 20.785 100.297 21.1143 99.838 21.357C99.3787 21.591 98.85 21.708 98.252 21.708C97.9314 21.708 97.6237 21.6603 97.329 21.565C97.0344 21.4697 96.77 21.344 96.536 21.188C96.3107 21.0233 96.133 20.837 96.003 20.629H95.925L96.003 21.63V24.308H94.599ZM98.174 20.447C98.5554 20.447 98.876 20.3733 99.136 20.226C99.4047 20.0787 99.604 19.888 99.734 19.654C99.8727 19.4113 99.942 19.147 99.942 18.861C99.942 18.341 99.7904 17.9597 99.487 17.717C99.1837 17.4657 98.733 17.34 98.135 17.34H97.277V16.118H98.005C98.3517 16.118 98.629 16.0617 98.837 15.949C99.0537 15.8277 99.214 15.6673 99.318 15.468C99.422 15.26 99.474 15.039 99.474 14.805C99.474 14.337 99.318 13.9817 99.006 13.739C98.7027 13.4963 98.3127 13.375 97.836 13.375C97.4634 13.375 97.134 13.453 96.848 13.609C96.5707 13.7563 96.354 13.9817 96.198 14.285C96.0507 14.5883 95.977 14.9783 95.977 15.455V18.185C95.977 18.6357 96.068 19.0343 96.25 19.381C96.432 19.719 96.6877 19.9833 97.017 20.174C97.3464 20.356 97.732 20.447 98.174 20.447ZM105.744 21.708C105.059 21.708 104.457 21.552 103.937 21.24C103.417 20.928 103.009 20.5077 102.715 19.979C102.42 19.4417 102.273 18.8437 102.273 18.185C102.273 17.5263 102.42 16.9327 102.715 16.404C103.009 15.8667 103.417 15.442 103.937 15.13C104.457 14.818 105.059 14.662 105.744 14.662C106.42 14.662 107.018 14.8223 107.538 15.143C108.058 15.455 108.465 15.8753 108.76 16.404C109.054 16.9327 109.202 17.5263 109.202 18.185C109.202 18.8437 109.054 19.4417 108.76 19.979C108.465 20.5077 108.058 20.928 107.538 21.24C107.018 21.552 106.42 21.708 105.744 21.708ZM105.744 20.421C106.108 20.421 106.446 20.3343 106.758 20.161C107.07 19.979 107.321 19.7233 107.512 19.394C107.711 19.056 107.811 18.653 107.811 18.185C107.811 17.717 107.711 17.3183 107.512 16.989C107.321 16.651 107.07 16.3953 106.758 16.222C106.446 16.04 106.108 15.949 105.744 15.949C105.38 15.949 105.037 16.04 104.717 16.222C104.405 16.3953 104.149 16.651 103.95 16.989C103.759 17.3183 103.664 17.717 103.664 18.185C103.664 18.653 103.759 19.056 103.95 19.394C104.149 19.7233 104.409 19.979 104.73 20.161C105.05 20.3343 105.388 20.421 105.744 20.421ZM114.882 21.5L113.049 16.976H112.984L111.086 21.5H109.526L112.282 15.286L111.801 14.259C111.645 13.9123 111.493 13.6827 111.346 13.57C111.199 13.4573 111.012 13.401 110.787 13.401C110.683 13.401 110.579 13.414 110.475 13.44C110.38 13.466 110.284 13.5093 110.189 13.57V12.205C110.31 12.1617 110.44 12.1313 110.579 12.114C110.718 12.0967 110.878 12.088 111.06 12.088C111.415 12.088 111.706 12.1443 111.931 12.257C112.165 12.361 112.364 12.5343 112.529 12.777C112.702 13.0197 112.876 13.3447 113.049 13.752L116.416 21.5H114.882ZM117.084 21.5V14.87H118.41V15.78H118.488C118.678 15.4593 118.96 15.195 119.333 14.987C119.714 14.7703 120.13 14.662 120.581 14.662C121.395 14.662 122.006 14.9047 122.414 15.39C122.821 15.8667 123.025 16.508 123.025 17.314V24.308H121.634V17.496C121.634 16.9587 121.499 16.5687 121.231 16.326C120.962 16.0747 120.611 15.949 120.178 15.949C119.84 15.949 119.545 16.0443 119.294 16.235C119.042 16.417 118.843 16.6597 118.696 16.963C118.557 17.2663 118.488 17.5913 118.488 17.938V21.5H117.084ZM119.281 13.596L119.762 11.568H121.426L120.464 13.596H119.281ZM130.688 21.708C130.021 21.708 129.431 21.5607 128.92 21.266C128.417 20.9627 128.023 20.5553 127.737 20.044C127.451 19.524 127.308 18.939 127.308 18.289C127.308 17.6303 127.451 17.0453 127.737 16.534C128.032 16.0227 128.443 15.6197 128.972 15.325C129.501 15.0217 130.129 14.87 130.857 14.87H134.9V16.092H134.133L133.106 16.001V16.079C133.314 16.235 133.492 16.4213 133.639 16.638C133.786 16.846 133.899 17.0887 133.977 17.366C134.064 17.6347 134.107 17.9293 134.107 18.25C134.107 18.9 133.964 19.4893 133.678 20.018C133.392 20.538 132.989 20.9497 132.469 21.253C131.958 21.5563 131.364 21.708 130.688 21.708ZM130.701 20.421C131.056 20.421 131.386 20.3387 131.689 20.174C131.992 20.0007 132.239 19.7537 132.43 19.433C132.621 19.1123 132.716 18.7267 132.716 18.276C132.716 17.808 132.621 17.4137 132.43 17.093C132.239 16.7637 131.992 16.5123 131.689 16.339C131.386 16.1657 131.056 16.079 130.701 16.079C130.354 16.079 130.025 16.1657 129.713 16.339C129.41 16.5123 129.163 16.7637 128.972 17.093C128.79 17.4137 128.699 17.808 128.699 18.276C128.699 18.7267 128.79 19.1123 128.972 19.433C129.163 19.7537 129.41 20.0007 129.713 20.174C130.025 20.3387 130.354 20.421 130.701 20.421ZM139.793 21.604C139.386 21.604 139.031 21.526 138.727 21.37C138.424 21.214 138.186 20.9843 138.012 20.681C137.848 20.3777 137.765 20.0137 137.765 19.589V16.092H135.646V14.87H141.652V16.092H139.156V19.29C139.156 19.6193 139.226 19.8707 139.364 20.044C139.512 20.2087 139.741 20.291 140.053 20.291C140.218 20.291 140.357 20.2693 140.469 20.226C140.591 20.174 140.708 20.1133 140.82 20.044V21.409C140.664 21.4783 140.504 21.526 140.339 21.552C140.175 21.5867 139.993 21.604 139.793 21.604ZM145.975 21.708C145.29 21.708 144.688 21.552 144.168 21.24C143.648 20.928 143.241 20.5077 142.946 19.979C142.651 19.4417 142.504 18.8437 142.504 18.185C142.504 17.5263 142.651 16.9327 142.946 16.404C143.241 15.8667 143.648 15.442 144.168 15.13C144.688 14.818 145.29 14.662 145.975 14.662C146.651 14.662 147.249 14.8223 147.769 15.143C148.289 15.455 148.696 15.8753 148.991 16.404C149.286 16.9327 149.433 17.5263 149.433 18.185C149.433 18.8437 149.286 19.4417 148.991 19.979C148.696 20.5077 148.289 20.928 147.769 21.24C147.249 21.552 146.651 21.708 145.975 21.708ZM145.975 20.421C146.339 20.421 146.677 20.3343 146.989 20.161C147.301 19.979 147.552 19.7233 147.743 19.394C147.942 19.056 148.042 18.653 148.042 18.185C148.042 17.717 147.942 17.3183 147.743 16.989C147.552 16.651 147.301 16.3953 146.989 16.222C146.677 16.04 146.339 15.949 145.975 15.949C145.611 15.949 145.269 16.04 144.948 16.222C144.636 16.3953 144.38 16.651 144.181 16.989C143.99 17.3183 143.895 17.717 143.895 18.185C143.895 18.653 143.99 19.056 144.181 19.394C144.38 19.7233 144.64 19.979 144.961 20.161C145.282 20.3343 145.62 20.421 145.975 20.421Z" fill="white"/>
<path d="M70.377 41.5V29.328H79.557V41.5H77.687V31.096H72.247V41.5H70.377ZM85.9215 41.772C85.0262 41.772 84.2385 41.568 83.5585 41.16C82.8785 40.752 82.3458 40.2023 81.9605 39.511C81.5752 38.8083 81.3825 38.0263 81.3825 37.165C81.3825 36.3037 81.5752 35.5273 81.9605 34.836C82.3458 34.1333 82.8785 33.578 83.5585 33.17C84.2385 32.762 85.0262 32.558 85.9215 32.558C86.8055 32.558 87.5875 32.7677 88.2675 33.187C88.9475 33.595 89.4802 34.1447 89.8655 34.836C90.2508 35.5273 90.4435 36.3037 90.4435 37.165C90.4435 38.0263 90.2508 38.8083 89.8655 39.511C89.4802 40.2023 88.9475 40.752 88.2675 41.16C87.5875 41.568 86.8055 41.772 85.9215 41.772ZM85.9215 40.089C86.3975 40.089 86.8395 39.9757 87.2475 39.749C87.6555 39.511 87.9842 39.1767 88.2335 38.746C88.4942 38.304 88.6245 37.777 88.6245 37.165C88.6245 36.553 88.4942 36.0317 88.2335 35.601C87.9842 35.159 87.6555 34.8247 87.2475 34.598C86.8395 34.36 86.3975 34.241 85.9215 34.241C85.4455 34.241 84.9978 34.36 84.5785 34.598C84.1705 34.8247 83.8362 35.159 83.5755 35.601C83.3262 36.0317 83.2015 36.553 83.2015 37.165C83.2015 37.777 83.3262 38.304 83.5755 38.746C83.8362 39.1767 84.1762 39.511 84.5955 39.749C85.0148 39.9757 85.4568 40.089 85.9215 40.089ZM91.9005 45.172V37.301C91.9005 36.3377 92.0875 35.5047 92.4615 34.802C92.8468 34.088 93.3681 33.5383 94.0255 33.153C94.6941 32.7563 95.4478 32.558 96.2865 32.558C97.0005 32.558 97.6295 32.6827 98.1735 32.932C98.7175 33.1813 99.1765 33.5213 99.5505 33.952C99.9245 34.3827 100.208 34.8757 100.4 35.431C100.593 35.9863 100.689 36.57 100.689 37.182C100.689 38.0773 100.502 38.8707 100.128 39.562C99.7658 40.2533 99.2728 40.7973 98.6495 41.194C98.0261 41.5793 97.3348 41.772 96.5755 41.772C96.1221 41.772 95.7085 41.704 95.3345 41.568C94.9718 41.4433 94.6545 41.2733 94.3825 41.058C94.1218 40.8427 93.9065 40.6047 93.7365 40.344H93.6345L93.7365 41.534V45.172H91.9005ZM96.2355 40.089C96.7001 40.089 97.1308 39.97 97.5275 39.732C97.9355 39.4827 98.2585 39.1427 98.4965 38.712C98.7458 38.2813 98.8705 37.777 98.8705 37.199C98.8705 36.5757 98.7458 36.043 98.4965 35.601C98.2471 35.159 97.9185 34.8247 97.5105 34.598C97.1138 34.36 96.6888 34.241 96.2355 34.241C95.8161 34.241 95.4081 34.3543 95.0115 34.581C94.6148 34.8077 94.2861 35.142 94.0255 35.584C93.7648 36.026 93.6345 36.5757 93.6345 37.233C93.6345 37.777 93.7535 38.27 93.9915 38.712C94.2295 39.1427 94.5468 39.4827 94.9435 39.732C95.3401 39.97 95.7708 40.089 96.2355 40.089ZM107.04 41.636C106.507 41.636 106.042 41.534 105.646 41.33C105.249 41.126 104.937 40.8257 104.711 40.429C104.495 40.0323 104.388 39.5563 104.388 39.001V34.428H101.617V32.83H109.471V34.428H106.207V38.61C106.207 39.0407 106.297 39.3693 106.479 39.596C106.671 39.8113 106.972 39.919 107.38 39.919C107.595 39.919 107.776 39.8907 107.924 39.834C108.082 39.766 108.235 39.6867 108.383 39.596V41.381C108.179 41.4717 107.969 41.534 107.754 41.568C107.538 41.6133 107.3 41.636 107.04 41.636ZM115.124 41.772C114.228 41.772 113.441 41.568 112.761 41.16C112.081 40.752 111.548 40.2023 111.163 39.511C110.777 38.8083 110.585 38.0263 110.585 37.165C110.585 36.3037 110.777 35.5273 111.163 34.836C111.548 34.1333 112.081 33.578 112.761 33.17C113.441 32.762 114.228 32.558 115.124 32.558C116.008 32.558 116.79 32.7677 117.47 33.187C118.15 33.595 118.682 34.1447 119.068 34.836C119.453 35.5273 119.646 36.3037 119.646 37.165C119.646 38.0263 119.453 38.8083 119.068 39.511C118.682 40.2023 118.15 40.752 117.47 41.16C116.79 41.568 116.008 41.772 115.124 41.772ZM115.124 40.089C115.6 40.089 116.042 39.9757 116.45 39.749C116.858 39.511 117.186 39.1767 117.436 38.746C117.696 38.304 117.827 37.777 117.827 37.165C117.827 36.553 117.696 36.0317 117.436 35.601C117.186 35.159 116.858 34.8247 116.45 34.598C116.042 34.36 115.6 34.241 115.124 34.241C114.648 34.241 114.2 34.36 113.781 34.598C113.373 34.8247 113.038 35.159 112.778 35.601C112.528 36.0317 112.404 36.553 112.404 37.165C112.404 37.777 112.528 38.304 112.778 38.746C113.038 39.1767 113.378 39.511 113.798 39.749C114.217 39.9757 114.659 40.089 115.124 40.089ZM120.878 37.165C120.878 36.2697 121.076 35.4707 121.473 34.768C121.881 34.054 122.504 33.493 123.343 33.085C123.966 32.779 124.731 32.5863 125.638 32.507V30.382H127.474V32.507C128.38 32.5863 129.151 32.779 129.786 33.085C130.624 33.493 131.236 34.054 131.622 34.768C132.018 35.4707 132.217 36.2697 132.217 37.165C132.217 38.015 132.018 38.797 131.622 39.511C131.225 40.225 130.613 40.7973 129.786 41.228C129.151 41.5453 128.38 41.7437 127.474 41.823V45.172H125.638V41.823C124.731 41.7437 123.966 41.5453 123.343 41.228C122.493 40.7973 121.869 40.225 121.473 39.511C121.076 38.797 120.878 38.015 120.878 37.165ZM127.474 34.088V40.259C127.972 40.191 128.403 40.072 128.766 39.902C129.321 39.63 129.729 39.2617 129.99 38.797C130.262 38.321 130.398 37.777 130.398 37.165C130.398 36.5077 130.267 35.9467 130.007 35.482C129.746 35.0173 129.338 34.6603 128.783 34.411C128.42 34.2523 127.984 34.1447 127.474 34.088ZM122.714 37.165C122.714 37.777 122.844 38.321 123.105 38.797C123.365 39.2617 123.779 39.63 124.346 39.902C124.697 40.072 125.128 40.1853 125.638 40.242V34.088C125.139 34.1447 124.708 34.2523 124.346 34.411C123.779 34.6603 123.365 35.023 123.105 35.499C122.844 35.9637 122.714 36.519 122.714 37.165ZM137.984 41.772C137.089 41.772 136.301 41.568 135.621 41.16C134.941 40.752 134.408 40.2023 134.023 39.511C133.638 38.8083 133.445 38.0263 133.445 37.165C133.445 36.3037 133.638 35.5273 134.023 34.836C134.408 34.1333 134.941 33.578 135.621 33.17C136.301 32.762 137.089 32.558 137.984 32.558C138.868 32.558 139.65 32.7677 140.33 33.187C141.01 33.595 141.543 34.1447 141.928 34.836C142.313 35.5273 142.506 36.3037 142.506 37.165C142.506 38.0263 142.313 38.8083 141.928 39.511C141.543 40.2023 141.01 40.752 140.33 41.16C139.65 41.568 138.868 41.772 137.984 41.772ZM137.984 40.089C138.46 40.089 138.902 39.9757 139.31 39.749C139.718 39.511 140.047 39.1767 140.296 38.746C140.557 38.304 140.687 37.777 140.687 37.165C140.687 36.553 140.557 36.0317 140.296 35.601C140.047 35.159 139.718 34.8247 139.31 34.598C138.902 34.36 138.46 34.241 137.984 34.241C137.508 34.241 137.06 34.36 136.641 34.598C136.233 34.8247 135.899 35.159 135.638 35.601C135.389 36.0317 135.264 36.553 135.264 37.165C135.264 37.777 135.389 38.304 135.638 38.746C135.899 39.1767 136.239 39.511 136.658 39.749C137.077 39.9757 137.519 40.089 137.984 40.089ZM137.202 31.164L137.831 28.512H140.007L138.749 31.164H137.202ZM149.934 41.5L147.537 35.584H147.452L144.97 41.5H142.93L146.534 33.374L145.905 32.031C145.701 31.5777 145.503 31.2773 145.31 31.13C145.117 30.9827 144.874 30.909 144.579 30.909C144.443 30.909 144.307 30.926 144.171 30.96C144.046 30.994 143.922 31.0507 143.797 31.13V29.345C143.956 29.2883 144.126 29.2487 144.307 29.226C144.488 29.2033 144.698 29.192 144.936 29.192C145.401 29.192 145.78 29.2657 146.075 29.413C146.381 29.549 146.642 29.7757 146.857 30.093C147.084 30.4103 147.31 30.8353 147.537 31.368L151.94 41.5H149.934ZM155.563 41.636C154.747 41.636 154.101 41.4037 153.625 40.939C153.149 40.463 152.911 39.8113 152.911 38.984V32.83H154.747V38.593C154.747 39.0237 154.838 39.3523 155.019 39.579C155.201 39.8057 155.495 39.919 155.903 39.919C156.119 39.919 156.3 39.8907 156.447 39.834C156.606 39.766 156.765 39.6867 156.923 39.596V41.381C156.731 41.4603 156.527 41.5227 156.311 41.568C156.096 41.6133 155.847 41.636 155.563 41.636ZM168.196 41.772C167.323 41.772 166.501 41.6133 165.731 41.296C164.96 40.9787 164.28 40.5367 163.691 39.97C163.113 39.392 162.654 38.7177 162.314 37.947C161.985 37.165 161.821 36.3207 161.821 35.414C161.821 34.5073 161.985 33.6687 162.314 32.898C162.654 32.116 163.113 31.4417 163.691 30.875C164.28 30.297 164.96 29.8493 165.731 29.532C166.501 29.2147 167.323 29.056 168.196 29.056C169.125 29.056 169.981 29.2203 170.763 29.549C171.556 29.8777 172.219 30.3367 172.752 30.926L171.46 32.201C171.199 31.9063 170.899 31.657 170.559 31.453C170.23 31.249 169.867 31.096 169.471 30.994C169.074 30.8807 168.649 30.824 168.196 30.824C167.595 30.824 167.023 30.9317 166.479 31.147C165.935 31.3623 165.453 31.674 165.034 32.082C164.626 32.4787 164.303 32.9603 164.065 33.527C163.827 34.0823 163.708 34.7113 163.708 35.414C163.708 36.1167 163.827 36.7513 164.065 37.318C164.314 37.8733 164.643 38.355 165.051 38.763C165.47 39.1597 165.952 39.4657 166.496 39.681C167.04 39.8963 167.612 40.004 168.213 40.004C168.768 40.004 169.284 39.9247 169.76 39.766C170.247 39.6073 170.672 39.3807 171.035 39.086C171.397 38.7913 171.692 38.4343 171.919 38.015C172.145 37.5843 172.287 37.1027 172.344 36.57H168.179V34.921H174.095C174.117 35.057 174.14 35.2157 174.163 35.397C174.185 35.567 174.197 35.7313 174.197 35.89V35.907C174.197 36.7797 174.044 37.5787 173.738 38.304C173.443 39.0293 173.029 39.6527 172.497 40.174C171.964 40.684 171.329 41.0807 170.593 41.364C169.867 41.636 169.068 41.772 168.196 41.772ZM179.671 41.772C178.775 41.772 177.988 41.568 177.308 41.16C176.628 40.752 176.095 40.2023 175.71 39.511C175.324 38.8083 175.132 38.0263 175.132 37.165C175.132 36.3037 175.324 35.5273 175.71 34.836C176.095 34.1333 176.628 33.578 177.308 33.17C177.988 32.762 178.775 32.558 179.671 32.558C180.555 32.558 181.337 32.7677 182.017 33.187C182.697 33.595 183.229 34.1447 183.615 34.836C184 35.5273 184.193 36.3037 184.193 37.165C184.193 38.0263 184 38.8083 183.615 39.511C183.229 40.2023 182.697 40.752 182.017 41.16C181.337 41.568 180.555 41.772 179.671 41.772ZM179.671 40.089C180.147 40.089 180.589 39.9757 180.997 39.749C181.405 39.511 181.733 39.1767 181.983 38.746C182.243 38.304 182.374 37.777 182.374 37.165C182.374 36.553 182.243 36.0317 181.983 35.601C181.733 35.159 181.405 34.8247 180.997 34.598C180.589 34.36 180.147 34.241 179.671 34.241C179.195 34.241 178.747 34.36 178.328 34.598C177.92 34.8247 177.585 35.159 177.325 35.601C177.075 36.0317 176.951 36.553 176.951 37.165C176.951 37.777 177.075 38.304 177.325 38.746C177.585 39.1767 177.925 39.511 178.345 39.749C178.764 39.9757 179.206 40.089 179.671 40.089ZM189.964 41.772C189.068 41.772 188.281 41.568 187.601 41.16C186.921 40.752 186.388 40.2023 186.003 39.511C185.617 38.8083 185.425 38.0263 185.425 37.165C185.425 36.3037 185.617 35.5273 186.003 34.836C186.388 34.1333 186.921 33.578 187.601 33.17C188.281 32.762 189.068 32.558 189.964 32.558C190.848 32.558 191.63 32.7677 192.31 33.187C192.99 33.595 193.522 34.1447 193.908 34.836C194.293 35.5273 194.486 36.3037 194.486 37.165C194.486 38.0263 194.293 38.8083 193.908 39.511C193.522 40.2023 192.99 40.752 192.31 41.16C191.63 41.568 190.848 41.772 189.964 41.772ZM189.964 40.089C190.44 40.089 190.882 39.9757 191.29 39.749C191.698 39.511 192.026 39.1767 192.276 38.746C192.536 38.304 192.667 37.777 192.667 37.165C192.667 36.553 192.536 36.0317 192.276 35.601C192.026 35.159 191.698 34.8247 191.29 34.598C190.882 34.36 190.44 34.241 189.964 34.241C189.488 34.241 189.04 34.36 188.621 34.598C188.213 34.8247 187.878 35.159 187.618 35.601C187.368 36.0317 187.244 36.553 187.244 37.165C187.244 37.777 187.368 38.304 187.618 38.746C187.878 39.1767 188.218 39.511 188.638 39.749C189.057 39.9757 189.499 40.089 189.964 40.089ZM200.086 45.444C199.327 45.444 198.67 45.3193 198.114 45.07C197.57 44.832 197.128 44.5203 196.788 44.135C196.448 43.761 196.205 43.3757 196.057 42.979L197.757 42.265C197.939 42.7183 198.228 43.0867 198.624 43.37C199.032 43.6647 199.52 43.812 200.086 43.812C200.891 43.812 201.52 43.574 201.973 43.098C202.427 42.622 202.653 41.9477 202.653 41.075V40.242H202.551C202.279 40.6387 201.905 40.9617 201.429 41.211C200.953 41.4603 200.404 41.585 199.78 41.585C199.044 41.585 198.364 41.398 197.74 41.024C197.128 40.65 196.635 40.1287 196.261 39.46C195.899 38.78 195.717 37.9867 195.717 37.08C195.717 36.162 195.899 35.3687 196.261 34.7C196.635 34.02 197.128 33.493 197.74 33.119C198.364 32.745 199.044 32.558 199.78 32.558C200.404 32.558 200.953 32.6827 201.429 32.932C201.905 33.17 202.279 33.4987 202.551 33.918H202.653V32.83H204.404V41.041C204.404 41.9817 204.217 42.7807 203.843 43.438C203.481 44.0953 202.976 44.594 202.33 44.934C201.684 45.274 200.936 45.444 200.086 45.444ZM200.103 39.919C200.557 39.919 200.976 39.8113 201.361 39.596C201.758 39.3693 202.07 39.0463 202.296 38.627C202.534 38.1963 202.653 37.6807 202.653 37.08C202.653 36.4453 202.534 35.9183 202.296 35.499C202.07 35.0797 201.758 34.7623 201.361 34.547C200.976 34.3317 200.557 34.224 200.103 34.224C199.65 34.224 199.225 34.3317 198.828 34.547C198.443 34.7623 198.131 35.0853 197.893 35.516C197.655 35.9353 197.536 36.4567 197.536 37.08C197.536 37.692 197.655 38.2133 197.893 38.644C198.131 39.0633 198.443 39.3807 198.828 39.596C199.225 39.8113 199.65 39.919 200.103 39.919ZM206.569 41.5V29.328H208.405V41.5H206.569ZM214.448 41.772C213.598 41.772 212.839 41.5737 212.17 41.177C211.501 40.7803 210.974 40.2363 210.589 39.545C210.215 38.8537 210.028 38.066 210.028 37.182C210.028 36.3547 210.209 35.5897 210.572 34.887C210.935 34.1843 211.439 33.6233 212.085 33.204C212.742 32.7733 213.496 32.558 214.346 32.558C215.241 32.558 216.001 32.7507 216.624 33.136C217.259 33.5213 217.74 34.0483 218.069 34.717C218.398 35.3857 218.562 36.1393 218.562 36.978C218.562 37.1027 218.556 37.216 218.545 37.318C218.545 37.42 218.539 37.4993 218.528 37.556H211.83C211.875 38.032 211.994 38.4457 212.187 38.797C212.436 39.239 212.765 39.5733 213.173 39.8C213.581 40.0267 214.023 40.14 214.499 40.14C215.077 40.14 215.559 40.0097 215.944 39.749C216.341 39.477 216.652 39.1427 216.879 38.746L218.392 39.477C218.018 40.157 217.508 40.7123 216.862 41.143C216.216 41.5623 215.411 41.772 214.448 41.772ZM211.932 36.179H216.743C216.732 35.9637 216.675 35.737 216.573 35.499C216.471 35.2497 216.324 35.023 216.131 34.819C215.938 34.615 215.695 34.4507 215.4 34.326C215.105 34.19 214.76 34.122 214.363 34.122C213.864 34.122 213.422 34.2523 213.037 34.513C212.652 34.7623 212.351 35.1137 212.136 35.567C212.045 35.7597 211.977 35.9637 211.932 36.179Z" fill="white"/>
</svg>
