<svg width="239" height="55" viewBox="0 0 239 55" fill="none" xmlns="http://www.w3.org/2000/svg">
<rect x="0.5" y="0.5" width="238" height="54" rx="27" fill="#1F1F1F"/>
<rect x="0.5" y="0.5" width="238" height="54" rx="27" stroke="#747775"/>
<path d="M57 23.791H21V18.1455C21 15.0809 23.6422 12.5001 26.7798 12.5001H51.2202C54.3578 12.5001 57 15.0809 57 18.1455V23.791Z" fill="#34A853"/>
<path d="M57 29H21V23C21 19.7429 23.6422 17 26.7798 17H51.2202C54.3578 17 57 19.7429 57 23V29Z" fill="#FBBC04"/>
<path d="M57 34H21V28C21 24.7429 23.6422 22 26.7798 22H51.2202C54.3578 22 57 24.7429 57 28V34Z" fill="#EA4335"/>
<path d="M21 25.2409L43.8493 30.4025C46.4795 31.0477 49.4384 30.4025 51.5753 28.7895L57 24.9183V37.0157C57 40.0804 54.3699 42.4999 51.2466 42.4999H26.7534C23.6301 42.4999 21 40.0804 21 37.0157V25.2409Z" fill="#4285F4"/>
<path d="M72.484 21.5L69.182 12.192H70.742L72.848 18.38L73.173 19.433H73.251L73.602 18.38L75.799 12.192H77.359L73.966 21.5H72.484ZM80.6175 21.708C79.9675 21.708 79.3869 21.5563 78.8755 21.253C78.3642 20.9497 77.9612 20.5337 77.6665 20.005C77.3805 19.4763 77.2375 18.874 77.2375 18.198C77.2375 17.5653 77.3762 16.9803 77.6535 16.443C77.9309 15.9057 78.3165 15.4767 78.8105 15.156C79.3132 14.8267 79.8895 14.662 80.5395 14.662C81.2242 14.662 81.8049 14.8093 82.2815 15.104C82.7669 15.3987 83.1352 15.8017 83.3865 16.313C83.6379 16.8243 83.7635 17.4007 83.7635 18.042C83.7635 18.1373 83.7592 18.224 83.7505 18.302C83.7505 18.38 83.7462 18.4407 83.7375 18.484H78.6155C78.6502 18.848 78.7412 19.1643 78.8885 19.433C79.0792 19.771 79.3305 20.0267 79.6425 20.2C79.9545 20.3733 80.2925 20.46 80.6565 20.46C81.0985 20.46 81.4669 20.3603 81.7615 20.161C82.0649 19.953 82.3032 19.6973 82.4765 19.394L83.6335 19.953C83.3475 20.473 82.9575 20.8977 82.4635 21.227C81.9695 21.5477 81.3542 21.708 80.6175 21.708ZM78.6935 17.431H82.3725C82.3639 17.2663 82.3205 17.093 82.2425 16.911C82.1645 16.7203 82.0519 16.547 81.9045 16.391C81.7572 16.235 81.5709 16.1093 81.3455 16.014C81.1202 15.91 80.8559 15.858 80.5525 15.858C80.1712 15.858 79.8332 15.9577 79.5385 16.157C79.2439 16.3477 79.0142 16.6163 78.8495 16.963C78.7802 17.1103 78.7282 17.2663 78.6935 17.431ZM85.0661 21.5V14.87H86.3921V15.845H86.4701C86.5741 15.6197 86.7214 15.4203 86.9121 15.247C87.1114 15.0737 87.3367 14.935 87.5881 14.831C87.8481 14.727 88.1167 14.675 88.3941 14.675C88.5761 14.675 88.7277 14.688 88.8491 14.714C88.9791 14.7313 89.0961 14.7617 89.2001 14.805V16.261C89.0354 16.1917 88.8664 16.1353 88.6931 16.092C88.5284 16.0487 88.3551 16.027 88.1731 16.027C87.8437 16.027 87.5491 16.118 87.2891 16.3C87.0377 16.4733 86.8384 16.7073 86.6911 17.002C86.5437 17.2967 86.4701 17.626 86.4701 17.99V21.5H85.0661ZM96.347 21.708C95.697 21.708 95.1164 21.5563 94.605 21.253C94.0937 20.9497 93.6907 20.5337 93.396 20.005C93.11 19.4763 92.967 18.874 92.967 18.198C92.967 17.5653 93.1057 16.9803 93.383 16.443C93.6604 15.9057 94.046 15.4767 94.54 15.156C95.0427 14.8267 95.619 14.662 96.269 14.662C96.9537 14.662 97.5344 14.8093 98.011 15.104C98.4964 15.3987 98.8647 15.8017 99.116 16.313C99.3674 16.8243 99.493 17.4007 99.493 18.042C99.493 18.1373 99.4887 18.224 99.48 18.302C99.48 18.38 99.4757 18.4407 99.467 18.484H94.345C94.3797 18.848 94.4707 19.1643 94.618 19.433C94.8087 19.771 95.06 20.0267 95.372 20.2C95.684 20.3733 96.022 20.46 96.386 20.46C96.828 20.46 97.1964 20.3603 97.491 20.161C97.7944 19.953 98.0327 19.6973 98.206 19.394L99.363 19.953C99.077 20.473 98.687 20.8977 98.193 21.227C97.699 21.5477 97.0837 21.708 96.347 21.708ZM94.423 17.431H98.102C98.0934 17.2663 98.05 17.093 97.972 16.911C97.894 16.7203 97.7814 16.547 97.634 16.391C97.4867 16.235 97.3004 16.1093 97.075 16.014C96.8497 15.91 96.5854 15.858 96.282 15.858C95.9007 15.858 95.5627 15.9577 95.268 16.157C94.9734 16.3477 94.7437 16.6163 94.579 16.963C94.5097 17.1103 94.4577 17.2663 94.423 17.431ZM100.796 21.5V14.87H102.122V15.78H102.2C102.39 15.4593 102.672 15.195 103.045 14.987C103.426 14.7703 103.842 14.662 104.293 14.662C105.107 14.662 105.718 14.9047 106.126 15.39C106.533 15.8667 106.737 16.508 106.737 17.314V21.5H105.346V17.496C105.346 16.9587 105.211 16.5687 104.943 16.326C104.674 16.0747 104.323 15.949 103.89 15.949C103.552 15.949 103.257 16.0443 103.006 16.235C102.754 16.417 102.555 16.6597 102.408 16.963C102.269 17.2663 102.2 17.5913 102.2 17.938V21.5H100.796ZM111.384 21.5V12.192H112.788V21.5H111.384ZM116.46 21.708C115.983 21.708 115.558 21.6127 115.186 21.422C114.822 21.2313 114.531 20.9713 114.315 20.642C114.107 20.304 114.003 19.9183 114.003 19.485C114.003 19.0083 114.124 18.6053 114.367 18.276C114.618 17.9467 114.952 17.6953 115.368 17.522C115.784 17.3487 116.243 17.262 116.746 17.262C117.023 17.262 117.279 17.2837 117.513 17.327C117.755 17.3617 117.963 17.405 118.137 17.457C118.319 17.509 118.462 17.5653 118.566 17.626V17.275C118.566 16.8417 118.41 16.495 118.098 16.235C117.786 15.975 117.383 15.845 116.889 15.845C116.551 15.845 116.23 15.923 115.927 16.079C115.623 16.2263 115.381 16.43 115.199 16.69L114.237 15.949C114.427 15.6803 114.657 15.4507 114.926 15.26C115.203 15.0693 115.511 14.922 115.849 14.818C116.195 14.714 116.555 14.662 116.928 14.662C117.89 14.662 118.631 14.9003 119.151 15.377C119.671 15.845 119.931 16.5037 119.931 17.353V21.5H118.566V20.681H118.488C118.375 20.8543 118.219 21.019 118.02 21.175C117.829 21.331 117.599 21.4567 117.331 21.552C117.071 21.656 116.78 21.708 116.46 21.708ZM116.707 20.564C117.071 20.564 117.391 20.4773 117.669 20.304C117.955 20.1307 118.176 19.9053 118.332 19.628C118.488 19.342 118.566 19.0343 118.566 18.705C118.375 18.5923 118.141 18.5013 117.864 18.432C117.595 18.354 117.309 18.315 117.006 18.315C116.434 18.315 116.026 18.4277 115.784 18.653C115.541 18.8783 115.42 19.16 115.42 19.498C115.42 19.81 115.537 20.0657 115.771 20.265C116.005 20.4643 116.317 20.564 116.707 20.564Z" fill="white"/>
<path d="M70.377 41.5V29.328H74.933C75.6017 29.328 76.208 29.4697 76.752 29.753C77.296 30.0363 77.7267 30.4217 78.044 30.909C78.3727 31.3963 78.537 31.946 78.537 32.558C78.537 33.1813 78.384 33.714 78.078 34.156C77.772 34.598 77.3753 34.9323 76.888 35.159V35.244C77.5 35.448 77.9987 35.7993 78.384 36.298C78.7693 36.7967 78.962 37.3917 78.962 38.083C78.962 38.763 78.7863 39.358 78.435 39.868C78.095 40.378 77.6303 40.7803 77.041 41.075C76.463 41.3583 75.8283 41.5 75.137 41.5H70.377ZM72.247 36.111V39.766H75.137C75.545 39.766 75.8963 39.681 76.191 39.511C76.4857 39.341 76.7067 39.1143 76.854 38.831C77.0127 38.5477 77.092 38.253 77.092 37.947C77.092 37.6183 77.0127 37.318 76.854 37.046C76.6953 36.7627 76.463 36.536 76.157 36.366C75.8623 36.196 75.4997 36.111 75.069 36.111H72.247ZM72.247 34.445H74.848C75.2447 34.445 75.579 34.3657 75.851 34.207C76.1343 34.037 76.3497 33.8217 76.497 33.561C76.6443 33.289 76.718 33.0113 76.718 32.728C76.718 32.4447 76.6443 32.1783 76.497 31.929C76.361 31.6683 76.157 31.4587 75.885 31.3C75.613 31.13 75.29 31.045 74.916 31.045H72.247V34.445ZM80.8486 41.5V32.83H82.6846V41.5H80.8486ZM81.7666 31.555C81.4266 31.555 81.1319 31.436 80.8826 31.198C80.6446 30.9487 80.5256 30.654 80.5256 30.314C80.5256 29.9627 80.6446 29.6737 80.8826 29.447C81.1319 29.209 81.4266 29.09 81.7666 29.09C82.1179 29.09 82.4126 29.209 82.6506 29.447C82.8886 29.6737 83.0076 29.9627 83.0076 30.314C83.0076 30.654 82.8886 30.9487 82.6506 31.198C82.4126 31.436 82.1179 31.555 81.7666 31.555ZM84.9796 41.5V29.328H86.8156V41.5H84.9796ZM88.9972 41.5V29.328H90.8332V41.5H88.9972ZM96.8758 41.772C96.0258 41.772 95.2664 41.5737 94.5978 41.177C93.9291 40.7803 93.4021 40.2363 93.0168 39.545C92.6428 38.8537 92.4558 38.066 92.4558 37.182C92.4558 36.3547 92.6371 35.5897 92.9998 34.887C93.3624 34.1843 93.8668 33.6233 94.5128 33.204C95.1701 32.7733 95.9238 32.558 96.7738 32.558C97.6691 32.558 98.4284 32.7507 99.0518 33.136C99.6864 33.5213 100.168 34.0483 100.497 34.717C100.825 35.3857 100.99 36.1393 100.99 36.978C100.99 37.1027 100.984 37.216 100.973 37.318C100.973 37.42 100.967 37.4993 100.956 37.556H94.2578C94.3031 38.032 94.4221 38.4457 94.6148 38.797C94.8641 39.239 95.1928 39.5733 95.6008 39.8C96.0088 40.0267 96.4508 40.14 96.9268 40.14C97.5048 40.14 97.9864 40.0097 98.3718 39.749C98.7684 39.477 99.0801 39.1427 99.3068 38.746L100.82 39.477C100.446 40.157 99.9358 40.7123 99.2898 41.143C98.6438 41.5623 97.8391 41.772 96.8758 41.772ZM94.3598 36.179H99.1708C99.1594 35.9637 99.1028 35.737 99.0008 35.499C98.8988 35.2497 98.7514 35.023 98.5588 34.819C98.3661 34.615 98.1224 34.4507 97.8278 34.326C97.5331 34.19 97.1874 34.122 96.7908 34.122C96.2921 34.122 95.8501 34.2523 95.4648 34.513C95.0794 34.7623 94.7791 35.1137 94.5638 35.567C94.4731 35.7597 94.4051 35.9637 94.3598 36.179ZM101.849 32.83H103.362V30.382H105.198V32.83H107.323V34.428H105.198V38.593C105.198 39.0237 105.283 39.3523 105.453 39.579C105.634 39.8057 105.935 39.919 106.354 39.919C106.558 39.919 106.739 39.8907 106.898 39.834C107.057 39.766 107.215 39.6867 107.374 39.596V41.381C107.181 41.4603 106.977 41.5227 106.762 41.568C106.547 41.6133 106.292 41.636 105.997 41.636C105.192 41.636 104.552 41.4037 104.076 40.939C103.6 40.463 103.362 39.8113 103.362 38.984V34.428H101.849V32.83ZM112.714 41.772C111.864 41.772 111.104 41.5737 110.436 41.177C109.767 40.7803 109.24 40.2363 108.855 39.545C108.481 38.8537 108.294 38.066 108.294 37.182C108.294 36.3547 108.475 35.5897 108.838 34.887C109.2 34.1843 109.705 33.6233 110.351 33.204C111.008 32.7733 111.762 32.558 112.612 32.558C113.507 32.558 114.266 32.7507 114.89 33.136C115.524 33.5213 116.006 34.0483 116.335 34.717C116.663 35.3857 116.828 36.1393 116.828 36.978C116.828 37.1027 116.822 37.216 116.811 37.318C116.811 37.42 116.805 37.4993 116.794 37.556H110.096C110.141 38.032 110.26 38.4457 110.453 38.797C110.702 39.239 111.031 39.5733 111.439 39.8C111.847 40.0267 112.289 40.14 112.765 40.14C113.343 40.14 113.824 40.0097 114.21 39.749C114.606 39.477 114.918 39.1427 115.145 38.746L116.658 39.477C116.284 40.157 115.774 40.7123 115.128 41.143C114.482 41.5623 113.677 41.772 112.714 41.772ZM110.198 36.179H115.009C114.997 35.9637 114.941 35.737 114.839 35.499C114.737 35.2497 114.589 35.023 114.397 34.819C114.204 34.615 113.96 34.4507 113.666 34.326C113.371 34.19 113.025 34.122 112.629 34.122C112.13 34.122 111.688 34.2523 111.303 34.513C110.917 34.7623 110.617 35.1137 110.402 35.567C110.311 35.7597 110.243 35.9637 110.198 36.179ZM118.531 41.5V32.83H120.265V34.105H120.367C120.503 33.8103 120.696 33.5497 120.945 33.323C121.206 33.0963 121.5 32.915 121.829 32.779C122.169 32.643 122.52 32.575 122.883 32.575C123.121 32.575 123.319 32.592 123.478 32.626C123.648 32.6487 123.801 32.6883 123.937 32.745V34.649C123.722 34.5583 123.501 34.4847 123.274 34.428C123.059 34.3713 122.832 34.343 122.594 34.343C122.163 34.343 121.778 34.462 121.438 34.7C121.109 34.9267 120.849 35.2327 120.656 35.618C120.463 36.0033 120.367 36.434 120.367 36.91V41.5H118.531ZM127.775 41.772C127.152 41.772 126.597 41.6473 126.109 41.398C125.633 41.1487 125.254 40.8087 124.97 40.378C124.698 39.936 124.562 39.4317 124.562 38.865C124.562 38.2417 124.721 37.7147 125.038 37.284C125.367 36.8533 125.803 36.5247 126.347 36.298C126.891 36.0713 127.492 35.958 128.149 35.958C128.512 35.958 128.846 35.9863 129.152 36.043C129.47 36.0883 129.742 36.145 129.968 36.213C130.206 36.281 130.393 36.3547 130.529 36.434V35.975C130.529 35.4083 130.325 34.955 129.917 34.615C129.509 34.275 128.982 34.105 128.336 34.105C127.894 34.105 127.475 34.207 127.078 34.411C126.682 34.6037 126.364 34.87 126.126 35.21L124.868 34.241C125.118 33.8897 125.418 33.5893 125.769 33.34C126.132 33.0907 126.534 32.898 126.976 32.762C127.43 32.626 127.9 32.558 128.387 32.558C129.645 32.558 130.614 32.8697 131.294 33.493C131.974 34.105 132.314 34.9663 132.314 36.077V41.5H130.529V40.429H130.427C130.28 40.6557 130.076 40.871 129.815 41.075C129.566 41.279 129.266 41.4433 128.914 41.568C128.574 41.704 128.195 41.772 127.775 41.772ZM128.098 40.276C128.574 40.276 128.994 40.1627 129.356 39.936C129.73 39.7093 130.019 39.4147 130.223 39.052C130.427 38.678 130.529 38.2757 130.529 37.845C130.28 37.6977 129.974 37.5787 129.611 37.488C129.26 37.386 128.886 37.335 128.489 37.335C127.741 37.335 127.209 37.4823 126.891 37.777C126.574 38.0717 126.415 38.44 126.415 38.882C126.415 39.29 126.568 39.6243 126.874 39.885C127.18 40.1457 127.588 40.276 128.098 40.276ZM142.009 41.772C141.227 41.772 140.519 41.5737 139.884 41.177C139.25 40.7803 138.751 40.2363 138.388 39.545C138.026 38.8537 137.844 38.0603 137.844 37.165C137.844 36.2697 138.026 35.4763 138.388 34.785C138.751 34.0937 139.25 33.5497 139.884 33.153C140.519 32.7563 141.227 32.558 142.009 32.558C142.463 32.558 142.871 32.626 143.233 32.762C143.596 32.898 143.908 33.0793 144.168 33.306C144.44 33.5213 144.65 33.7537 144.797 34.003H144.899L144.797 32.796V29.328H146.616V41.5H144.899V40.344H144.797C144.65 40.582 144.44 40.8143 144.168 41.041C143.908 41.2563 143.596 41.432 143.233 41.568C142.871 41.704 142.463 41.772 142.009 41.772ZM142.281 40.089C142.735 40.089 143.16 39.97 143.556 39.732C143.964 39.494 144.287 39.1597 144.525 38.729C144.775 38.287 144.899 37.7657 144.899 37.165C144.899 36.5643 144.775 36.0487 144.525 35.618C144.287 35.176 143.964 34.836 143.556 34.598C143.16 34.36 142.735 34.241 142.281 34.241C141.828 34.241 141.403 34.36 141.006 34.598C140.61 34.836 140.287 35.176 140.037 35.618C139.788 36.0487 139.663 36.5643 139.663 37.165C139.663 37.7543 139.788 38.27 140.037 38.712C140.287 39.154 140.61 39.494 141.006 39.732C141.403 39.97 141.828 40.089 142.281 40.089ZM152.657 41.772C151.807 41.772 151.048 41.5737 150.379 41.177C149.71 40.7803 149.183 40.2363 148.798 39.545C148.424 38.8537 148.237 38.066 148.237 37.182C148.237 36.3547 148.418 35.5897 148.781 34.887C149.144 34.1843 149.648 33.6233 150.294 33.204C150.951 32.7733 151.705 32.558 152.555 32.558C153.45 32.558 154.21 32.7507 154.833 33.136C155.468 33.5213 155.949 34.0483 156.278 34.717C156.607 35.3857 156.771 36.1393 156.771 36.978C156.771 37.1027 156.765 37.216 156.754 37.318C156.754 37.42 156.748 37.4993 156.737 37.556H150.039C150.084 38.032 150.203 38.4457 150.396 38.797C150.645 39.239 150.974 39.5733 151.382 39.8C151.79 40.0267 152.232 40.14 152.708 40.14C153.286 40.14 153.768 40.0097 154.153 39.749C154.55 39.477 154.861 39.1427 155.088 38.746L156.601 39.477C156.227 40.157 155.717 40.7123 155.071 41.143C154.425 41.5623 153.62 41.772 152.657 41.772ZM150.141 36.179H154.952C154.941 35.9637 154.884 35.737 154.782 35.499C154.68 35.2497 154.533 35.023 154.34 34.819C154.147 34.615 153.904 34.4507 153.609 34.326C153.314 34.19 152.969 34.122 152.572 34.122C152.073 34.122 151.631 34.2523 151.246 34.513C150.861 34.7623 150.56 35.1137 150.345 35.567C150.254 35.7597 150.186 35.9637 150.141 36.179ZM168.179 41.772C167.306 41.772 166.485 41.6133 165.714 41.296C164.943 40.9787 164.263 40.5367 163.674 39.97C163.096 39.392 162.637 38.7177 162.297 37.947C161.968 37.165 161.804 36.3207 161.804 35.414C161.804 34.5073 161.968 33.6687 162.297 32.898C162.637 32.116 163.096 31.4417 163.674 30.875C164.263 30.297 164.943 29.8493 165.714 29.532C166.485 29.2147 167.306 29.056 168.179 29.056C169.108 29.056 169.964 29.2203 170.746 29.549C171.539 29.8777 172.202 30.3367 172.735 30.926L171.443 32.201C171.182 31.9063 170.882 31.657 170.542 31.453C170.213 31.249 169.851 31.096 169.454 30.994C169.057 30.8807 168.632 30.824 168.179 30.824C167.578 30.824 167.006 30.9317 166.462 31.147C165.918 31.3623 165.436 31.674 165.017 32.082C164.609 32.4787 164.286 32.9603 164.048 33.527C163.81 34.0823 163.691 34.7113 163.691 35.414C163.691 36.1167 163.81 36.7513 164.048 37.318C164.297 37.8733 164.626 38.355 165.034 38.763C165.453 39.1597 165.935 39.4657 166.479 39.681C167.023 39.8963 167.595 40.004 168.196 40.004C168.751 40.004 169.267 39.9247 169.743 39.766C170.23 39.6073 170.655 39.3807 171.018 39.086C171.381 38.7913 171.675 38.4343 171.902 38.015C172.129 37.5843 172.27 37.1027 172.327 36.57H168.162V34.921H174.078C174.101 35.057 174.123 35.2157 174.146 35.397C174.169 35.567 174.18 35.7313 174.18 35.89V35.907C174.18 36.7797 174.027 37.5787 173.721 38.304C173.426 39.0293 173.013 39.6527 172.48 40.174C171.947 40.684 171.313 41.0807 170.576 41.364C169.851 41.636 169.052 41.772 168.179 41.772ZM179.654 41.772C178.759 41.772 177.971 41.568 177.291 41.16C176.611 40.752 176.078 40.2023 175.693 39.511C175.308 38.8083 175.115 38.0263 175.115 37.165C175.115 36.3037 175.308 35.5273 175.693 34.836C176.078 34.1333 176.611 33.578 177.291 33.17C177.971 32.762 178.759 32.558 179.654 32.558C180.538 32.558 181.32 32.7677 182 33.187C182.68 33.595 183.213 34.1447 183.598 34.836C183.983 35.5273 184.176 36.3037 184.176 37.165C184.176 38.0263 183.983 38.8083 183.598 39.511C183.213 40.2023 182.68 40.752 182 41.16C181.32 41.568 180.538 41.772 179.654 41.772ZM179.654 40.089C180.13 40.089 180.572 39.9757 180.98 39.749C181.388 39.511 181.717 39.1767 181.966 38.746C182.227 38.304 182.357 37.777 182.357 37.165C182.357 36.553 182.227 36.0317 181.966 35.601C181.717 35.159 181.388 34.8247 180.98 34.598C180.572 34.36 180.13 34.241 179.654 34.241C179.178 34.241 178.73 34.36 178.311 34.598C177.903 34.8247 177.569 35.159 177.308 35.601C177.059 36.0317 176.934 36.553 176.934 37.165C176.934 37.777 177.059 38.304 177.308 38.746C177.569 39.1767 177.909 39.511 178.328 39.749C178.747 39.9757 179.189 40.089 179.654 40.089ZM189.947 41.772C189.052 41.772 188.264 41.568 187.584 41.16C186.904 40.752 186.371 40.2023 185.986 39.511C185.601 38.8083 185.408 38.0263 185.408 37.165C185.408 36.3037 185.601 35.5273 185.986 34.836C186.371 34.1333 186.904 33.578 187.584 33.17C188.264 32.762 189.052 32.558 189.947 32.558C190.831 32.558 191.613 32.7677 192.293 33.187C192.973 33.595 193.506 34.1447 193.891 34.836C194.276 35.5273 194.469 36.3037 194.469 37.165C194.469 38.0263 194.276 38.8083 193.891 39.511C193.506 40.2023 192.973 40.752 192.293 41.16C191.613 41.568 190.831 41.772 189.947 41.772ZM189.947 40.089C190.423 40.089 190.865 39.9757 191.273 39.749C191.681 39.511 192.01 39.1767 192.259 38.746C192.52 38.304 192.65 37.777 192.65 37.165C192.65 36.553 192.52 36.0317 192.259 35.601C192.01 35.159 191.681 34.8247 191.273 34.598C190.865 34.36 190.423 34.241 189.947 34.241C189.471 34.241 189.023 34.36 188.604 34.598C188.196 34.8247 187.862 35.159 187.601 35.601C187.352 36.0317 187.227 36.553 187.227 37.165C187.227 37.777 187.352 38.304 187.601 38.746C187.862 39.1767 188.202 39.511 188.621 39.749C189.04 39.9757 189.482 40.089 189.947 40.089ZM200.07 45.444C199.311 45.444 198.653 45.3193 198.098 45.07C197.554 44.832 197.112 44.5203 196.772 44.135C196.432 43.761 196.188 43.3757 196.041 42.979L197.741 42.265C197.922 42.7183 198.211 43.0867 198.608 43.37C199.016 43.6647 199.503 43.812 200.07 43.812C200.875 43.812 201.504 43.574 201.957 43.098C202.41 42.622 202.637 41.9477 202.637 41.075V40.242H202.535C202.263 40.6387 201.889 40.9617 201.413 41.211C200.937 41.4603 200.387 41.585 199.764 41.585C199.027 41.585 198.347 41.398 197.724 41.024C197.112 40.65 196.619 40.1287 196.245 39.46C195.882 38.78 195.701 37.9867 195.701 37.08C195.701 36.162 195.882 35.3687 196.245 34.7C196.619 34.02 197.112 33.493 197.724 33.119C198.347 32.745 199.027 32.558 199.764 32.558C200.387 32.558 200.937 32.6827 201.413 32.932C201.889 33.17 202.263 33.4987 202.535 33.918H202.637V32.83H204.388V41.041C204.388 41.9817 204.201 42.7807 203.827 43.438C203.464 44.0953 202.96 44.594 202.314 44.934C201.668 45.274 200.92 45.444 200.07 45.444ZM200.087 39.919C200.54 39.919 200.96 39.8113 201.345 39.596C201.742 39.3693 202.053 39.0463 202.28 38.627C202.518 38.1963 202.637 37.6807 202.637 37.08C202.637 36.4453 202.518 35.9183 202.28 35.499C202.053 35.0797 201.742 34.7623 201.345 34.547C200.96 34.3317 200.54 34.224 200.087 34.224C199.634 34.224 199.209 34.3317 198.812 34.547C198.427 34.7623 198.115 35.0853 197.877 35.516C197.639 35.9353 197.52 36.4567 197.52 37.08C197.52 37.692 197.639 38.2133 197.877 38.644C198.115 39.0633 198.427 39.3807 198.812 39.596C199.209 39.8113 199.634 39.919 200.087 39.919ZM206.553 41.5V29.328H208.389V41.5H206.553ZM214.431 41.772C213.581 41.772 212.822 41.5737 212.153 41.177C211.485 40.7803 210.958 40.2363 210.572 39.545C210.198 38.8537 210.011 38.066 210.011 37.182C210.011 36.3547 210.193 35.5897 210.555 34.887C210.918 34.1843 211.422 33.6233 212.068 33.204C212.726 32.7733 213.479 32.558 214.329 32.558C215.225 32.558 215.984 32.7507 216.607 33.136C217.242 33.5213 217.724 34.0483 218.052 34.717C218.381 35.3857 218.545 36.1393 218.545 36.978C218.545 37.1027 218.54 37.216 218.528 37.318C218.528 37.42 218.523 37.4993 218.511 37.556H211.813C211.859 38.032 211.978 38.4457 212.17 38.797C212.42 39.239 212.748 39.5733 213.156 39.8C213.564 40.0267 214.006 40.14 214.482 40.14C215.06 40.14 215.542 40.0097 215.927 39.749C216.324 39.477 216.636 39.1427 216.862 38.746L218.375 39.477C218.001 40.157 217.491 40.7123 216.845 41.143C216.199 41.5623 215.395 41.772 214.431 41.772ZM211.915 36.179H216.726C216.715 35.9637 216.658 35.737 216.556 35.499C216.454 35.2497 216.307 35.023 216.114 34.819C215.922 34.615 215.678 34.4507 215.383 34.326C215.089 34.19 214.743 34.122 214.346 34.122C213.848 34.122 213.406 34.2523 213.02 34.513C212.635 34.7623 212.335 35.1137 212.119 35.567C212.029 35.7597 211.961 35.9637 211.915 36.179Z" fill="white"/>
</svg>
