<svg width="330" height="55" viewBox="0 0 330 55" fill="none" xmlns="http://www.w3.org/2000/svg">
<rect x="0.5" y="0.5" width="329" height="54" rx="27" fill="#1F1F1F"/>
<rect x="0.5" y="0.5" width="329" height="54" rx="27" stroke="#747775"/>
<path d="M57 23.791H21V18.1455C21 15.0809 23.6422 12.5001 26.7798 12.5001H51.2202C54.3578 12.5001 57 15.0809 57 18.1455V23.791Z" fill="#34A853"/>
<path d="M57 29H21V23C21 19.7429 23.6422 17 26.7798 17H51.2202C54.3578 17 57 19.7429 57 23V29Z" fill="#FBBC04"/>
<path d="M57 34H21V28C21 24.7429 23.6422 22 26.7798 22H51.2202C54.3578 22 57 24.7429 57 28V34Z" fill="#EA4335"/>
<path d="M21 25.2409L43.8493 30.4025C46.4795 31.0477 49.4384 30.4025 51.5753 28.7895L57 24.9183V37.0157C57 40.0804 54.3699 42.4999 51.2466 42.4999H26.7534C23.6301 42.4999 21 40.0804 21 37.0157V25.2409Z" fill="#4285F4"/>
<path d="M70.053 21.5V12.192H71.483V21.5H70.053ZM73.361 21.5V12.192H74.765V17.678L77.573 14.87H79.315V14.948L76.754 17.483L79.406 21.422V21.5H77.742L75.766 18.458L74.765 19.446V21.5H73.361ZM82.6849 21.708C81.8703 21.708 81.2549 21.4653 80.8389 20.98C80.4316 20.486 80.2279 19.8187 80.2279 18.978V14.87H81.6319V18.783C81.6319 19.3377 81.7619 19.7493 82.0219 20.018C82.2906 20.2867 82.6243 20.421 83.0229 20.421C83.3869 20.421 83.6989 20.33 83.9589 20.148C84.2189 19.9573 84.4183 19.7103 84.5569 19.407C84.7043 19.1037 84.7779 18.7787 84.7779 18.432V14.87H86.1689V21.5H84.8559V20.603H84.7779C84.6566 20.811 84.4876 20.9973 84.2709 21.162C84.0543 21.3267 83.8116 21.4567 83.5429 21.552C83.2743 21.656 82.9883 21.708 82.6849 21.708ZM90.1755 21.708C89.6468 21.708 89.1875 21.63 88.7975 21.474C88.4075 21.3093 88.0868 21.0927 87.8355 20.824C87.5841 20.5467 87.3978 20.2477 87.2765 19.927L88.5375 19.381C88.6935 19.7363 88.9145 20.0093 89.2005 20.2C89.4951 20.382 89.8331 20.473 90.2145 20.473C90.5611 20.473 90.8601 20.4123 91.1115 20.291C91.3628 20.161 91.4885 19.953 91.4885 19.667C91.4885 19.485 91.4278 19.3377 91.3065 19.225C91.1938 19.1037 91.0378 19.004 90.8385 18.926C90.6478 18.848 90.4268 18.7787 90.1755 18.718L89.3825 18.536C89.0705 18.458 88.7715 18.3367 88.4855 18.172C88.2081 17.9987 87.9828 17.782 87.8095 17.522C87.6361 17.262 87.5495 16.9543 87.5495 16.599C87.5495 16.2003 87.6621 15.858 87.8875 15.572C88.1215 15.2773 88.4335 15.052 88.8235 14.896C89.2135 14.74 89.6338 14.662 90.0845 14.662C90.5005 14.662 90.8775 14.7183 91.2155 14.831C91.5621 14.935 91.8611 15.0953 92.1125 15.312C92.3725 15.52 92.5761 15.78 92.7235 16.092L91.5145 16.638C91.3671 16.3433 91.1678 16.1397 90.9165 16.027C90.6651 15.9057 90.3921 15.845 90.0975 15.845C89.7681 15.845 89.4908 15.9143 89.2655 16.053C89.0488 16.183 88.9405 16.3563 88.9405 16.573C88.9405 16.7983 89.0358 16.976 89.2265 17.106C89.4258 17.236 89.6685 17.34 89.9545 17.418L90.9165 17.652C91.5751 17.8167 92.0691 18.068 92.3985 18.406C92.7278 18.7353 92.8925 19.1383 92.8925 19.615C92.8925 20.0397 92.7711 20.4123 92.5285 20.733C92.2858 21.045 91.9565 21.2877 91.5405 21.461C91.1331 21.6257 90.6781 21.708 90.1755 21.708ZM94.1584 21.5V14.87H95.5624V21.5H94.1584ZM94.8604 13.895C94.6004 13.895 94.375 13.804 94.1844 13.622C94.0024 13.4313 93.9114 13.206 93.9114 12.946C93.9114 12.6773 94.0024 12.4563 94.1844 12.283C94.375 12.101 94.6004 12.01 94.8604 12.01C95.129 12.01 95.3544 12.101 95.5364 12.283C95.7184 12.4563 95.8094 12.6773 95.8094 12.946C95.8094 13.206 95.7184 13.4313 95.5364 13.622C95.3544 13.804 95.129 13.895 94.8604 13.895Z" fill="white"/>
<path d="M76.14 41.772C75.2673 41.772 74.4457 41.6133 73.675 41.296C72.9043 40.9787 72.2243 40.5367 71.635 39.97C71.057 39.392 70.598 38.7177 70.258 37.947C69.9293 37.165 69.765 36.3207 69.765 35.414C69.765 34.5073 69.9293 33.6687 70.258 32.898C70.598 32.116 71.057 31.4417 71.635 30.875C72.2243 30.297 72.9043 29.8493 73.675 29.532C74.4457 29.2147 75.2673 29.056 76.14 29.056C77.0693 29.056 77.925 29.2203 78.707 29.549C79.5003 29.8777 80.1633 30.3367 80.696 30.926L79.404 32.201C79.1433 31.9063 78.843 31.657 78.503 31.453C78.1743 31.249 77.8117 31.096 77.415 30.994C77.0183 30.8807 76.5933 30.824 76.14 30.824C75.5393 30.824 74.967 30.9317 74.423 31.147C73.879 31.3623 73.3973 31.674 72.978 32.082C72.57 32.4787 72.247 32.9603 72.009 33.527C71.771 34.0823 71.652 34.7113 71.652 35.414C71.652 36.1167 71.771 36.7513 72.009 37.318C72.2583 37.8733 72.587 38.355 72.995 38.763C73.4143 39.1597 73.896 39.4657 74.44 39.681C74.984 39.8963 75.5563 40.004 76.157 40.004C76.7123 40.004 77.228 39.9247 77.704 39.766C78.1913 39.6073 78.6163 39.3807 78.979 39.086C79.3417 38.7913 79.6363 38.4343 79.863 38.015C80.0897 37.5843 80.2313 37.1027 80.288 36.57H76.123V34.921H82.039C82.0617 35.057 82.0843 35.2157 82.107 35.397C82.1297 35.567 82.141 35.7313 82.141 35.89V35.907C82.141 36.7797 81.988 37.5787 81.682 38.304C81.3873 39.0293 80.9737 39.6527 80.441 40.174C79.9083 40.684 79.2737 41.0807 78.537 41.364C77.8117 41.636 77.0127 41.772 76.14 41.772ZM87.6149 41.772C86.7195 41.772 85.9319 41.568 85.2519 41.16C84.5719 40.752 84.0392 40.2023 83.6539 39.511C83.2685 38.8083 83.0759 38.0263 83.0759 37.165C83.0759 36.3037 83.2685 35.5273 83.6539 34.836C84.0392 34.1333 84.5719 33.578 85.2519 33.17C85.9319 32.762 86.7195 32.558 87.6149 32.558C88.4989 32.558 89.2809 32.7677 89.9609 33.187C90.6409 33.595 91.1735 34.1447 91.5589 34.836C91.9442 35.5273 92.1369 36.3037 92.1369 37.165C92.1369 38.0263 91.9442 38.8083 91.5589 39.511C91.1735 40.2023 90.6409 40.752 89.9609 41.16C89.2809 41.568 88.4989 41.772 87.6149 41.772ZM87.6149 40.089C88.0909 40.089 88.5329 39.9757 88.9409 39.749C89.3489 39.511 89.6775 39.1767 89.9269 38.746C90.1875 38.304 90.3179 37.777 90.3179 37.165C90.3179 36.553 90.1875 36.0317 89.9269 35.601C89.6775 35.159 89.3489 34.8247 88.9409 34.598C88.5329 34.36 88.0909 34.241 87.6149 34.241C87.1389 34.241 86.6912 34.36 86.2719 34.598C85.8639 34.8247 85.5295 35.159 85.2689 35.601C85.0195 36.0317 84.8949 36.553 84.8949 37.165C84.8949 37.777 85.0195 38.304 85.2689 38.746C85.5295 39.1767 85.8695 39.511 86.2889 39.749C86.7082 39.9757 87.1502 40.089 87.6149 40.089ZM97.9078 41.772C97.0125 41.772 96.2248 41.568 95.5448 41.16C94.8648 40.752 94.3322 40.2023 93.9468 39.511C93.5615 38.8083 93.3688 38.0263 93.3688 37.165C93.3688 36.3037 93.5615 35.5273 93.9468 34.836C94.3322 34.1333 94.8648 33.578 95.5448 33.17C96.2248 32.762 97.0125 32.558 97.9078 32.558C98.7918 32.558 99.5738 32.7677 100.254 33.187C100.934 33.595 101.467 34.1447 101.852 34.836C102.237 35.5273 102.43 36.3037 102.43 37.165C102.43 38.0263 102.237 38.8083 101.852 39.511C101.467 40.2023 100.934 40.752 100.254 41.16C99.5738 41.568 98.7918 41.772 97.9078 41.772ZM97.9078 40.089C98.3838 40.089 98.8258 39.9757 99.2338 39.749C99.6418 39.511 99.9705 39.1767 100.22 38.746C100.481 38.304 100.611 37.777 100.611 37.165C100.611 36.553 100.481 36.0317 100.22 35.601C99.9705 35.159 99.6418 34.8247 99.2338 34.598C98.8258 34.36 98.3838 34.241 97.9078 34.241C97.4318 34.241 96.9842 34.36 96.5648 34.598C96.1568 34.8247 95.8225 35.159 95.5618 35.601C95.3125 36.0317 95.1878 36.553 95.1878 37.165C95.1878 37.777 95.3125 38.304 95.5618 38.746C95.8225 39.1767 96.1625 39.511 96.5818 39.749C97.0012 39.9757 97.4432 40.089 97.9078 40.089ZM108.031 45.444C107.271 45.444 106.614 45.3193 106.059 45.07C105.515 44.832 105.073 44.5203 104.733 44.135C104.393 43.761 104.149 43.3757 104.002 42.979L105.702 42.265C105.883 42.7183 106.172 43.0867 106.569 43.37C106.977 43.6647 107.464 43.812 108.031 43.812C108.835 43.812 109.464 43.574 109.918 43.098C110.371 42.622 110.598 41.9477 110.598 41.075V40.242H110.496C110.224 40.6387 109.85 40.9617 109.374 41.211C108.898 41.4603 108.348 41.585 107.725 41.585C106.988 41.585 106.308 41.398 105.685 41.024C105.073 40.65 104.58 40.1287 104.206 39.46C103.843 38.78 103.662 37.9867 103.662 37.08C103.662 36.162 103.843 35.3687 104.206 34.7C104.58 34.02 105.073 33.493 105.685 33.119C106.308 32.745 106.988 32.558 107.725 32.558C108.348 32.558 108.898 32.6827 109.374 32.932C109.85 33.17 110.224 33.4987 110.496 33.918H110.598V32.83H112.349V41.041C112.349 41.9817 112.162 42.7807 111.788 43.438C111.425 44.0953 110.921 44.594 110.275 44.934C109.629 45.274 108.881 45.444 108.031 45.444ZM108.048 39.919C108.501 39.919 108.92 39.8113 109.306 39.596C109.702 39.3693 110.014 39.0463 110.241 38.627C110.479 38.1963 110.598 37.6807 110.598 37.08C110.598 36.4453 110.479 35.9183 110.241 35.499C110.014 35.0797 109.702 34.7623 109.306 34.547C108.92 34.3317 108.501 34.224 108.048 34.224C107.594 34.224 107.169 34.3317 106.773 34.547C106.387 34.7623 106.076 35.0853 105.838 35.516C105.6 35.9353 105.481 36.4567 105.481 37.08C105.481 37.692 105.6 38.2133 105.838 38.644C106.076 39.0633 106.387 39.3807 106.773 39.596C107.169 39.8113 107.594 39.919 108.048 39.919ZM114.514 41.5V29.328H116.35V41.5H114.514ZM122.392 41.772C121.542 41.772 120.783 41.5737 120.114 41.177C119.446 40.7803 118.919 40.2363 118.533 39.545C118.159 38.8537 117.972 38.066 117.972 37.182C117.972 36.3547 118.154 35.5897 118.516 34.887C118.879 34.1843 119.383 33.6233 120.029 33.204C120.687 32.7733 121.44 32.558 122.29 32.558C123.186 32.558 123.945 32.7507 124.568 33.136C125.203 33.5213 125.685 34.0483 126.013 34.717C126.342 35.3857 126.506 36.1393 126.506 36.978C126.506 37.1027 126.501 37.216 126.489 37.318C126.489 37.42 126.484 37.4993 126.472 37.556H119.774C119.82 38.032 119.939 38.4457 120.131 38.797C120.381 39.239 120.709 39.5733 121.117 39.8C121.525 40.0267 121.967 40.14 122.443 40.14C123.021 40.14 123.503 40.0097 123.888 39.749C124.285 39.477 124.597 39.1427 124.823 38.746L126.336 39.477C125.962 40.157 125.452 40.7123 124.806 41.143C124.16 41.5623 123.356 41.772 122.392 41.772ZM119.876 36.179H124.687C124.676 35.9637 124.619 35.737 124.517 35.499C124.415 35.2497 124.268 35.023 124.075 34.819C123.883 34.615 123.639 34.4507 123.344 34.326C123.05 34.19 122.704 34.122 122.307 34.122C121.809 34.122 121.367 34.2523 120.981 34.513C120.596 34.7623 120.296 35.1137 120.08 35.567C119.99 35.7597 119.922 35.9637 119.876 36.179ZM132.483 41.5V29.328H136.376C137.657 29.328 138.756 29.5887 139.674 30.11C140.604 30.62 141.318 31.334 141.816 32.252C142.326 33.17 142.581 34.224 142.581 35.414C142.581 36.604 142.326 37.658 141.816 38.576C141.318 39.494 140.604 40.2137 139.674 40.735C138.756 41.245 137.657 41.5 136.376 41.5H132.483ZM134.353 39.732H136.325C137.243 39.732 138.031 39.562 138.688 39.222C139.346 38.8707 139.844 38.372 140.184 37.726C140.524 37.08 140.694 36.3093 140.694 35.414C140.694 34.5187 140.524 33.748 140.184 33.102C139.844 32.456 139.346 31.963 138.688 31.623C138.031 31.2717 137.243 31.096 136.325 31.096H134.353V39.732ZM144.549 41.5V32.83H146.385V41.5H144.549ZM145.467 31.555C145.127 31.555 144.832 31.436 144.583 31.198C144.345 30.9487 144.226 30.654 144.226 30.314C144.226 29.9627 144.345 29.6737 144.583 29.447C144.832 29.209 145.127 29.09 145.467 29.09C145.818 29.09 146.113 29.209 146.351 29.447C146.589 29.6737 146.708 29.9627 146.708 30.314C146.708 30.654 146.589 30.9487 146.351 31.198C146.113 31.436 145.818 31.555 145.467 31.555ZM148.663 41.5V32.83H150.397V34.105H150.499C150.635 33.8103 150.827 33.5497 151.077 33.323C151.337 33.0963 151.632 32.915 151.961 32.779C152.301 32.643 152.652 32.575 153.015 32.575C153.253 32.575 153.451 32.592 153.61 32.626C153.78 32.6487 153.933 32.6883 154.069 32.745V34.649C153.853 34.5583 153.632 34.4847 153.406 34.428C153.19 34.3713 152.964 34.343 152.726 34.343C152.295 34.343 151.91 34.462 151.57 34.7C151.241 34.9267 150.98 35.2327 150.788 35.618C150.595 36.0033 150.499 36.434 150.499 36.91V41.5H148.663ZM158.631 41.772C157.566 41.772 156.761 41.4547 156.217 40.82C155.684 40.174 155.418 39.3013 155.418 38.202V32.83H157.254V37.947C157.254 38.6723 157.424 39.2107 157.764 39.562C158.115 39.9133 158.552 40.089 159.073 40.089C159.549 40.089 159.957 39.97 160.297 39.732C160.637 39.4827 160.898 39.1597 161.079 38.763C161.272 38.3663 161.368 37.9413 161.368 37.488V32.83H163.187V41.5H161.47V40.327H161.368C161.209 40.599 160.988 40.8427 160.705 41.058C160.422 41.2733 160.104 41.4433 159.753 41.568C159.402 41.704 159.028 41.772 158.631 41.772ZM165.33 37.012V35.448H170.906V37.012H165.33ZM172.608 41.5V39.97L177.436 34.428H172.761V32.83H179.68V34.36L174.869 39.902H179.816V41.5H172.608ZM185.448 41.772C184.553 41.772 183.765 41.568 183.085 41.16C182.405 40.752 181.872 40.2023 181.487 39.511C181.102 38.8083 180.909 38.0263 180.909 37.165C180.909 36.3037 181.102 35.5273 181.487 34.836C181.872 34.1333 182.405 33.578 183.085 33.17C183.765 32.762 184.553 32.558 185.448 32.558C186.332 32.558 187.114 32.7677 187.794 33.187C188.474 33.595 189.007 34.1447 189.392 34.836C189.777 35.5273 189.97 36.3037 189.97 37.165C189.97 38.0263 189.777 38.8083 189.392 39.511C189.007 40.2023 188.474 40.752 187.794 41.16C187.114 41.568 186.332 41.772 185.448 41.772ZM185.448 40.089C185.924 40.089 186.366 39.9757 186.774 39.749C187.182 39.511 187.511 39.1767 187.76 38.746C188.021 38.304 188.151 37.777 188.151 37.165C188.151 36.553 188.021 36.0317 187.76 35.601C187.511 35.159 187.182 34.8247 186.774 34.598C186.366 34.36 185.924 34.241 185.448 34.241C184.972 34.241 184.524 34.36 184.105 34.598C183.697 34.8247 183.363 35.159 183.102 35.601C182.853 36.0317 182.728 36.553 182.728 37.165C182.728 37.777 182.853 38.304 183.102 38.746C183.363 39.1767 183.703 39.511 184.122 39.749C184.541 39.9757 184.983 40.089 185.448 40.089ZM191.495 41.5V32.83H193.229V34.105H193.331C193.467 33.8103 193.659 33.5497 193.909 33.323C194.169 33.0963 194.464 32.915 194.793 32.779C195.133 32.643 195.484 32.575 195.847 32.575C196.085 32.575 196.283 32.592 196.442 32.626C196.612 32.6487 196.765 32.6883 196.901 32.745V34.649C196.685 34.5583 196.464 34.4847 196.238 34.428C196.022 34.3713 195.796 34.343 195.558 34.343C195.127 34.343 194.742 34.462 194.402 34.7C194.073 34.9267 193.812 35.2327 193.62 35.618C193.427 36.0033 193.331 36.434 193.331 36.91V41.5H191.495ZM198.318 41.5V32.83H200.052V34.105H200.154C200.29 33.8103 200.483 33.5497 200.732 33.323C200.993 33.0963 201.287 32.915 201.616 32.779C201.956 32.643 202.307 32.575 202.67 32.575C202.908 32.575 203.106 32.592 203.265 32.626C203.435 32.6487 203.588 32.6883 203.724 32.745V34.649C203.509 34.5583 203.288 34.4847 203.061 34.428C202.846 34.3713 202.619 34.343 202.381 34.343C201.95 34.343 201.565 34.462 201.225 34.7C200.896 34.9267 200.636 35.2327 200.443 35.618C200.25 36.0033 200.154 36.434 200.154 36.91V41.5H198.318ZM208.707 41.772C207.811 41.772 207.024 41.568 206.344 41.16C205.664 40.752 205.131 40.2023 204.746 39.511C204.36 38.8083 204.168 38.0263 204.168 37.165C204.168 36.3037 204.36 35.5273 204.746 34.836C205.131 34.1333 205.664 33.578 206.344 33.17C207.024 32.762 207.811 32.558 208.707 32.558C209.591 32.558 210.373 32.7677 211.053 33.187C211.733 33.595 212.265 34.1447 212.651 34.836C213.036 35.5273 213.229 36.3037 213.229 37.165C213.229 38.0263 213.036 38.8083 212.651 39.511C212.265 40.2023 211.733 40.752 211.053 41.16C210.373 41.568 209.591 41.772 208.707 41.772ZM208.707 40.089C209.183 40.089 209.625 39.9757 210.033 39.749C210.441 39.511 210.769 39.1767 211.019 38.746C211.279 38.304 211.41 37.777 211.41 37.165C211.41 36.553 211.279 36.0317 211.019 35.601C210.769 35.159 210.441 34.8247 210.033 34.598C209.625 34.36 209.183 34.241 208.707 34.241C208.231 34.241 207.783 34.36 207.364 34.598C206.956 34.8247 206.621 35.159 206.361 35.601C206.111 36.0317 205.987 36.553 205.987 37.165C205.987 37.777 206.111 38.304 206.361 38.746C206.621 39.1767 206.961 39.511 207.381 39.749C207.8 39.9757 208.242 40.089 208.707 40.089ZM217.64 41.772C217.016 41.772 216.461 41.6473 215.974 41.398C215.498 41.1487 215.118 40.8087 214.835 40.378C214.563 39.936 214.427 39.4317 214.427 38.865C214.427 38.2417 214.585 37.7147 214.903 37.284C215.231 36.8533 215.668 36.5247 216.212 36.298C216.756 36.0713 217.356 35.958 218.014 35.958C218.376 35.958 218.711 35.9863 219.017 36.043C219.334 36.0883 219.606 36.145 219.833 36.213C220.071 36.281 220.258 36.3547 220.394 36.434V35.975C220.394 35.4083 220.19 34.955 219.782 34.615C219.374 34.275 218.847 34.105 218.201 34.105C217.759 34.105 217.339 34.207 216.943 34.411C216.546 34.6037 216.229 34.87 215.991 35.21L214.733 34.241C214.982 33.8897 215.282 33.5893 215.634 33.34C215.996 33.0907 216.399 32.898 216.841 32.762C217.294 32.626 217.764 32.558 218.252 32.558C219.51 32.558 220.479 32.8697 221.159 33.493C221.839 34.105 222.179 34.9663 222.179 36.077V41.5H220.394V40.429H220.292C220.144 40.6557 219.94 40.871 219.68 41.075C219.43 41.279 219.13 41.4433 218.779 41.568C218.439 41.704 218.059 41.772 217.64 41.772ZM217.963 40.276C218.439 40.276 218.858 40.1627 219.221 39.936C219.595 39.7093 219.884 39.4147 220.088 39.052C220.292 38.678 220.394 38.2757 220.394 37.845C220.144 37.6977 219.838 37.5787 219.476 37.488C219.124 37.386 218.75 37.335 218.354 37.335C217.606 37.335 217.073 37.4823 216.756 37.777C216.438 38.0717 216.28 38.44 216.28 38.882C216.28 39.29 216.433 39.6243 216.739 39.885C217.045 40.1457 217.453 40.276 217.963 40.276ZM227.726 41.5V39.97L232.554 34.428H227.879V32.83H234.798V34.36L229.987 39.902H234.934V41.5H227.726ZM240.446 41.772C239.596 41.772 238.837 41.5737 238.168 41.177C237.499 40.7803 236.972 40.2363 236.587 39.545C236.213 38.8537 236.026 38.066 236.026 37.182C236.026 36.3547 236.207 35.5897 236.57 34.887C236.933 34.1843 237.437 33.6233 238.083 33.204C238.74 32.7733 239.494 32.558 240.344 32.558C241.239 32.558 241.999 32.7507 242.622 33.136C243.257 33.5213 243.738 34.0483 244.067 34.717C244.396 35.3857 244.56 36.1393 244.56 36.978C244.56 37.1027 244.554 37.216 244.543 37.318C244.543 37.42 244.537 37.4993 244.526 37.556H237.828C237.873 38.032 237.992 38.4457 238.185 38.797C238.434 39.239 238.763 39.5733 239.171 39.8C239.579 40.0267 240.021 40.14 240.497 40.14C241.075 40.14 241.557 40.0097 241.942 39.749C242.339 39.477 242.65 39.1427 242.877 38.746L244.39 39.477C244.016 40.157 243.506 40.7123 242.86 41.143C242.214 41.5623 241.409 41.772 240.446 41.772ZM237.93 36.179H242.741C242.73 35.9637 242.673 35.737 242.571 35.499C242.469 35.2497 242.322 35.023 242.129 34.819C241.936 34.615 241.693 34.4507 241.398 34.326C241.103 34.19 240.758 34.122 240.361 34.122C239.862 34.122 239.42 34.2523 239.035 34.513C238.65 34.7623 238.349 35.1137 238.134 35.567C238.043 35.7597 237.975 35.9637 237.93 36.179ZM246.263 41.5V32.83H247.997V34.105H248.099C248.235 33.8103 248.428 33.5497 248.677 33.323C248.938 33.0963 249.233 32.915 249.561 32.779C249.901 32.643 250.253 32.575 250.615 32.575C250.853 32.575 251.052 32.592 251.21 32.626C251.38 32.6487 251.533 32.6883 251.669 32.745V34.649C251.454 34.5583 251.233 34.4847 251.006 34.428C250.791 34.3713 250.564 34.343 250.326 34.343C249.896 34.343 249.51 34.462 249.17 34.7C248.842 34.9267 248.581 35.2327 248.388 35.618C248.196 36.0033 248.099 36.434 248.099 36.91V41.5H246.263ZM257.794 41.772C257.352 41.772 256.949 41.704 256.587 41.568C256.224 41.432 255.907 41.2563 255.635 41.041C255.374 40.8143 255.164 40.582 255.006 40.344H254.904V41.5H253.17V29.328H255.006V32.796L254.904 34.003H255.006C255.164 33.7537 255.374 33.5213 255.635 33.306C255.907 33.0793 256.224 32.898 256.587 32.762C256.949 32.626 257.352 32.558 257.794 32.558C258.587 32.558 259.295 32.7563 259.919 33.153C260.542 33.5497 261.035 34.0937 261.398 34.785C261.772 35.4763 261.959 36.2697 261.959 37.165C261.959 38.0603 261.772 38.8537 261.398 39.545C261.035 40.2363 260.542 40.7803 259.919 41.177C259.295 41.5737 258.587 41.772 257.794 41.772ZM257.522 40.089C257.975 40.089 258.4 39.97 258.797 39.732C259.205 39.494 259.528 39.154 259.766 38.712C260.015 38.27 260.14 37.7543 260.14 37.165C260.14 36.5643 260.015 36.0487 259.766 35.618C259.528 35.176 259.205 34.836 258.797 34.598C258.4 34.36 257.975 34.241 257.522 34.241C257.068 34.241 256.643 34.36 256.247 34.598C255.85 34.836 255.527 35.176 255.278 35.618C255.028 36.0487 254.904 36.5643 254.904 37.165C254.904 37.7657 255.028 38.287 255.278 38.729C255.527 39.1597 255.85 39.494 256.247 39.732C256.643 39.97 257.068 40.089 257.522 40.089ZM263.698 41.5V32.83H265.534V41.5H263.698ZM264.616 31.555C264.276 31.555 263.982 31.436 263.732 31.198C263.494 30.9487 263.375 30.654 263.375 30.314C263.375 29.9627 263.494 29.6737 263.732 29.447C263.982 29.209 264.276 29.09 264.616 29.09C264.968 29.09 265.262 29.209 265.5 29.447C265.738 29.6737 265.857 29.9627 265.857 30.314C265.857 30.654 265.738 30.9487 265.5 31.198C265.262 31.436 264.968 31.555 264.616 31.555ZM267.134 32.83H268.647V30.382H270.483V32.83H272.608V34.428H270.483V38.593C270.483 39.0237 270.568 39.3523 270.738 39.579C270.92 39.8057 271.22 39.919 271.639 39.919C271.843 39.919 272.025 39.8907 272.183 39.834C272.342 39.766 272.501 39.6867 272.659 39.596V41.381C272.467 41.4603 272.263 41.5227 272.047 41.568C271.832 41.6133 271.577 41.636 271.282 41.636C270.478 41.636 269.837 41.4037 269.361 40.939C268.885 40.463 268.647 39.8113 268.647 38.984V34.428H267.134V32.83ZM274.094 41.5V39.97L278.922 34.428H274.247V32.83H281.166V34.36L276.355 39.902H281.302V41.5H274.094ZM286.164 41.772C285.099 41.772 284.294 41.4547 283.75 40.82C283.218 40.174 282.951 39.3013 282.951 38.202V32.83H284.787V37.947C284.787 38.6723 284.957 39.2107 285.297 39.562C285.649 39.9133 286.085 40.089 286.606 40.089C287.082 40.089 287.49 39.97 287.83 39.732C288.17 39.4827 288.431 39.1597 288.612 38.763C288.805 38.3663 288.901 37.9413 288.901 37.488V32.83H290.72V41.5H289.003V40.327H288.901C288.743 40.599 288.522 40.8427 288.238 41.058C287.955 41.2733 287.638 41.4433 287.286 41.568C286.935 41.704 286.561 41.772 286.164 41.772ZM295.518 41.772C294.894 41.772 294.339 41.6473 293.852 41.398C293.376 41.1487 292.996 40.8087 292.713 40.378C292.441 39.936 292.305 39.4317 292.305 38.865C292.305 38.2417 292.463 37.7147 292.781 37.284C293.109 36.8533 293.546 36.5247 294.09 36.298C294.634 36.0713 295.234 35.958 295.892 35.958C296.254 35.958 296.589 35.9863 296.895 36.043C297.212 36.0883 297.484 36.145 297.711 36.213C297.949 36.281 298.136 36.3547 298.272 36.434V35.975C298.272 35.4083 298.068 34.955 297.66 34.615C297.252 34.275 296.725 34.105 296.079 34.105C295.637 34.105 295.217 34.207 294.821 34.411C294.424 34.6037 294.107 34.87 293.869 35.21L292.611 34.241C292.86 33.8897 293.16 33.5893 293.512 33.34C293.874 33.0907 294.277 32.898 294.719 32.762C295.172 32.626 295.642 32.558 296.13 32.558C297.388 32.558 298.357 32.8697 299.037 33.493C299.717 34.105 300.057 34.9663 300.057 36.077V41.5H298.272V40.429H298.17C298.022 40.6557 297.818 40.871 297.558 41.075C297.308 41.279 297.008 41.4433 296.657 41.568C296.317 41.704 295.937 41.772 295.518 41.772ZM295.841 40.276C296.317 40.276 296.736 40.1627 297.099 39.936C297.473 39.7093 297.762 39.4147 297.966 39.052C298.17 38.678 298.272 38.2757 298.272 37.845C298.022 37.6977 297.716 37.5787 297.354 37.488C297.002 37.386 296.628 37.335 296.232 37.335C295.484 37.335 294.951 37.4823 294.634 37.777C294.316 38.0717 294.158 38.44 294.158 38.882C294.158 39.29 294.311 39.6243 294.617 39.885C294.923 40.1457 295.331 40.276 295.841 40.276ZM302.078 41.5V32.83H303.812V34.02H303.914C304.163 33.6007 304.532 33.255 305.019 32.983C305.518 32.6997 306.062 32.558 306.651 32.558C307.716 32.558 308.515 32.8753 309.048 33.51C309.581 34.1333 309.847 34.972 309.847 36.026V41.5H308.028V36.264C308.028 35.5613 307.852 35.0513 307.501 34.734C307.15 34.4053 306.691 34.241 306.124 34.241C305.682 34.241 305.297 34.3657 304.968 34.615C304.639 34.853 304.379 35.1703 304.186 35.567C304.005 35.9637 303.914 36.3887 303.914 36.842V41.5H302.078Z" fill="white"/>
</svg>
