<svg width="229" height="55" viewBox="0 0 229 55" fill="none" xmlns="http://www.w3.org/2000/svg">
<rect x="0.5" y="0.5" width="228" height="54" rx="27" fill="#1F1F1F"/>
<rect x="0.5" y="0.5" width="228" height="54" rx="27" stroke="#747775"/>
<path d="M57 23.791H21V18.1455C21 15.0809 23.6422 12.5001 26.7798 12.5001H51.2202C54.3578 12.5001 57 15.0809 57 18.1455V23.791Z" fill="#34A853"/>
<path d="M57 29H21V23C21 19.7429 23.6422 17 26.7798 17H51.2202C54.3578 17 57 19.7429 57 23V29Z" fill="#FBBC04"/>
<path d="M57 34H21V28C21 24.7429 23.6422 22 26.7798 22H51.2202C54.3578 22 57 24.7429 57 28V34Z" fill="#EA4335"/>
<path d="M21 25.2409L43.8493 30.4025C46.4795 31.0477 49.4384 30.4025 51.5753 28.7895L57 24.9183V37.0157C57 40.0804 54.3699 42.4999 51.2466 42.4999H26.7534C23.6301 42.4999 21 40.0804 21 37.0157V25.2409Z" fill="#4285F4"/>
<path d="M70.053 21.5V12.192H71.743L75.955 19.03H76.033L75.955 17.236V12.192H77.372V21.5H75.89L71.47 14.311H71.392L71.47 16.105V21.5H70.053ZM81.1285 21.708C80.6518 21.708 80.2272 21.6127 79.8545 21.422C79.4905 21.2313 79.2002 20.9713 78.9835 20.642C78.7755 20.304 78.6715 19.9183 78.6715 19.485C78.6715 19.0083 78.7928 18.6053 79.0355 18.276C79.2868 17.9467 79.6205 17.6953 80.0365 17.522C80.4525 17.3487 80.9118 17.262 81.4145 17.262C81.6918 17.262 81.9475 17.2837 82.1815 17.327C82.4242 17.3617 82.6322 17.405 82.8055 17.457C82.9875 17.509 83.1305 17.5653 83.2345 17.626V17.275C83.2345 16.8417 83.0785 16.495 82.7665 16.235C82.4545 15.975 82.0515 15.845 81.5575 15.845C81.2195 15.845 80.8988 15.923 80.5955 16.079C80.2922 16.2263 80.0495 16.43 79.8675 16.69L78.9055 15.949C79.0962 15.6803 79.3258 15.4507 79.5945 15.26C79.8718 15.0693 80.1795 14.922 80.5175 14.818C80.8642 14.714 81.2238 14.662 81.5965 14.662C82.5585 14.662 83.2995 14.9003 83.8195 15.377C84.3395 15.845 84.5995 16.5037 84.5995 17.353V21.5H83.2345V20.681H83.1565C83.0438 20.8543 82.8878 21.019 82.6885 21.175C82.4978 21.331 82.2682 21.4567 81.9995 21.552C81.7395 21.656 81.4492 21.708 81.1285 21.708ZM81.3755 20.564C81.7395 20.564 82.0602 20.4773 82.3375 20.304C82.6235 20.1307 82.8445 19.9053 83.0005 19.628C83.1565 19.342 83.2345 19.0343 83.2345 18.705C83.0438 18.5923 82.8098 18.5013 82.5325 18.432C82.2638 18.354 81.9778 18.315 81.6745 18.315C81.1025 18.315 80.6952 18.4277 80.4525 18.653C80.2098 18.8783 80.0885 19.16 80.0885 19.498C80.0885 19.81 80.2055 20.0657 80.4395 20.265C80.6735 20.4643 80.9855 20.564 81.3755 20.564ZM82.8055 13.518C82.5888 13.518 82.3982 13.44 82.2335 13.284C82.0775 13.1193 81.9995 12.9287 81.9995 12.712C81.9995 12.478 82.0775 12.2873 82.2335 12.14C82.3982 11.984 82.5888 11.906 82.8055 11.906C83.0395 11.906 83.2345 11.984 83.3905 12.14C83.5465 12.2873 83.6245 12.478 83.6245 12.712C83.6245 12.9287 83.5465 13.1193 83.3905 13.284C83.2345 13.44 83.0395 13.518 82.8055 13.518ZM80.5045 13.518C80.2878 13.518 80.0972 13.44 79.9325 13.284C79.7765 13.1193 79.6985 12.9287 79.6985 12.712C79.6985 12.478 79.7765 12.2873 79.9325 12.14C80.0972 11.984 80.2878 11.906 80.5045 11.906C80.7385 11.906 80.9292 11.984 81.0765 12.14C81.2325 12.2873 81.3105 12.478 81.3105 12.712C81.3105 12.9287 81.2325 13.1193 81.0765 13.284C80.9292 13.44 80.7385 13.518 80.5045 13.518ZM88.2802 23.983C88.2542 24.0437 88.2239 24.1043 88.1892 24.165C88.1632 24.2343 88.1459 24.282 88.1372 24.308H86.6422C86.6856 24.2127 86.7462 24.0783 86.8242 23.905C86.9109 23.7317 86.9932 23.5583 87.0712 23.385C87.1232 23.2723 87.1752 23.151 87.2272 23.021C87.2879 22.891 87.3486 22.7567 87.4092 22.618C87.4786 22.4793 87.5436 22.345 87.6042 22.215L88.0982 21.136L85.3292 14.87H86.8892L88.7872 19.394H88.8522L90.6852 14.87H92.2322L88.8002 22.774C88.7396 22.9213 88.6702 23.0773 88.5922 23.242C88.5229 23.4067 88.4579 23.554 88.3972 23.684C88.3452 23.8227 88.3062 23.9223 88.2802 23.983ZM92.7107 14.87H93.8677V12.998H95.2717V14.87H96.8967V16.092H95.2717V19.277C95.2717 19.6063 95.3367 19.8577 95.4667 20.031C95.6053 20.2043 95.835 20.291 96.1557 20.291C96.3117 20.291 96.4503 20.2693 96.5717 20.226C96.693 20.174 96.8143 20.1133 96.9357 20.044V21.409C96.7883 21.4697 96.6323 21.5173 96.4677 21.552C96.303 21.5867 96.108 21.604 95.8827 21.604C95.2673 21.604 94.7777 21.4263 94.4137 21.071C94.0497 20.707 93.8677 20.2087 93.8677 19.576V16.092H92.7107V14.87ZM100.197 21.708C99.7202 21.708 99.2955 21.6127 98.9229 21.422C98.5589 21.2313 98.2685 20.9713 98.0519 20.642C97.8439 20.304 97.7399 19.9183 97.7399 19.485C97.7399 19.0083 97.8612 18.6053 98.1039 18.276C98.3552 17.9467 98.6889 17.6953 99.1049 17.522C99.5209 17.3487 99.9802 17.262 100.483 17.262C100.76 17.262 101.016 17.2837 101.25 17.327C101.493 17.3617 101.701 17.405 101.874 17.457C102.056 17.509 102.199 17.5653 102.303 17.626V17.275C102.303 16.8417 102.147 16.495 101.835 16.235C101.523 15.975 101.12 15.845 100.626 15.845C100.288 15.845 99.9672 15.923 99.6639 16.079C99.3605 16.2263 99.1179 16.43 98.9359 16.69L97.9739 15.949C98.1645 15.6803 98.3942 15.4507 98.6629 15.26C98.9402 15.0693 99.2479 14.922 99.5859 14.818C99.9325 14.714 100.292 14.662 100.665 14.662C101.627 14.662 102.368 14.9003 102.888 15.377C103.408 15.845 103.668 16.5037 103.668 17.353V21.5H102.303V20.681H102.225C102.112 20.8543 101.956 21.019 101.757 21.175C101.566 21.331 101.337 21.4567 101.068 21.552C100.808 21.656 100.518 21.708 100.197 21.708ZM100.444 20.564C100.808 20.564 101.129 20.4773 101.406 20.304C101.692 20.1307 101.913 19.9053 102.069 19.628C102.225 19.342 102.303 19.0343 102.303 18.705C102.112 18.5923 101.878 18.5013 101.601 18.432C101.332 18.354 101.046 18.315 100.743 18.315C100.171 18.315 99.7635 18.4277 99.5209 18.653C99.2782 18.8783 99.1569 19.16 99.1569 19.498C99.1569 19.81 99.2739 20.0657 99.5079 20.265C99.7419 20.4643 100.054 20.564 100.444 20.564ZM101.874 13.518C101.657 13.518 101.467 13.44 101.302 13.284C101.146 13.1193 101.068 12.9287 101.068 12.712C101.068 12.478 101.146 12.2873 101.302 12.14C101.467 11.984 101.657 11.906 101.874 11.906C102.108 11.906 102.303 11.984 102.459 12.14C102.615 12.2873 102.693 12.478 102.693 12.712C102.693 12.9287 102.615 13.1193 102.459 13.284C102.303 13.44 102.108 13.518 101.874 13.518ZM99.5729 13.518C99.3562 13.518 99.1655 13.44 99.0009 13.284C98.8449 13.1193 98.7669 12.9287 98.7669 12.712C98.7669 12.478 98.8449 12.2873 99.0009 12.14C99.1655 11.984 99.3562 11.906 99.5729 11.906C99.8069 11.906 99.9975 11.984 100.145 12.14C100.301 12.2873 100.379 12.478 100.379 12.712C100.379 12.9287 100.301 13.1193 100.145 13.284C99.9975 13.44 99.8069 13.518 99.5729 13.518Z" fill="white"/>
<path d="M76.14 41.772C75.2673 41.772 74.4457 41.6133 73.675 41.296C72.9043 40.9787 72.2243 40.5367 71.635 39.97C71.057 39.392 70.598 38.7177 70.258 37.947C69.9293 37.165 69.765 36.3207 69.765 35.414C69.765 34.5073 69.9293 33.6687 70.258 32.898C70.598 32.116 71.057 31.4417 71.635 30.875C72.2243 30.297 72.9043 29.8493 73.675 29.532C74.4457 29.2147 75.2673 29.056 76.14 29.056C77.0693 29.056 77.925 29.2203 78.707 29.549C79.5003 29.8777 80.1633 30.3367 80.696 30.926L79.404 32.201C79.1433 31.9063 78.843 31.657 78.503 31.453C78.1743 31.249 77.8117 31.096 77.415 30.994C77.0183 30.8807 76.5933 30.824 76.14 30.824C75.5393 30.824 74.967 30.9317 74.423 31.147C73.879 31.3623 73.3973 31.674 72.978 32.082C72.57 32.4787 72.247 32.9603 72.009 33.527C71.771 34.0823 71.652 34.7113 71.652 35.414C71.652 36.1167 71.771 36.7513 72.009 37.318C72.2583 37.8733 72.587 38.355 72.995 38.763C73.4143 39.1597 73.896 39.4657 74.44 39.681C74.984 39.8963 75.5563 40.004 76.157 40.004C76.7123 40.004 77.228 39.9247 77.704 39.766C78.1913 39.6073 78.6163 39.3807 78.979 39.086C79.3417 38.7913 79.6363 38.4343 79.863 38.015C80.0897 37.5843 80.2313 37.1027 80.288 36.57H76.123V34.921H82.039C82.0617 35.057 82.0843 35.2157 82.107 35.397C82.1297 35.567 82.141 35.7313 82.141 35.89V35.907C82.141 36.7797 81.988 37.5787 81.682 38.304C81.3873 39.0293 80.9737 39.6527 80.441 40.174C79.9083 40.684 79.2737 41.0807 78.537 41.364C77.8117 41.636 77.0127 41.772 76.14 41.772ZM87.6149 41.772C86.7195 41.772 85.9319 41.568 85.2519 41.16C84.5719 40.752 84.0392 40.2023 83.6539 39.511C83.2685 38.8083 83.0759 38.0263 83.0759 37.165C83.0759 36.3037 83.2685 35.5273 83.6539 34.836C84.0392 34.1333 84.5719 33.578 85.2519 33.17C85.9319 32.762 86.7195 32.558 87.6149 32.558C88.4989 32.558 89.2809 32.7677 89.9609 33.187C90.6409 33.595 91.1735 34.1447 91.5589 34.836C91.9442 35.5273 92.1369 36.3037 92.1369 37.165C92.1369 38.0263 91.9442 38.8083 91.5589 39.511C91.1735 40.2023 90.6409 40.752 89.9609 41.16C89.2809 41.568 88.4989 41.772 87.6149 41.772ZM87.6149 40.089C88.0909 40.089 88.5329 39.9757 88.9409 39.749C89.3489 39.511 89.6775 39.1767 89.9269 38.746C90.1875 38.304 90.3179 37.777 90.3179 37.165C90.3179 36.553 90.1875 36.0317 89.9269 35.601C89.6775 35.159 89.3489 34.8247 88.9409 34.598C88.5329 34.36 88.0909 34.241 87.6149 34.241C87.1389 34.241 86.6912 34.36 86.2719 34.598C85.8639 34.8247 85.5295 35.159 85.2689 35.601C85.0195 36.0317 84.8949 36.553 84.8949 37.165C84.8949 37.777 85.0195 38.304 85.2689 38.746C85.5295 39.1767 85.8695 39.511 86.2889 39.749C86.7082 39.9757 87.1502 40.089 87.6149 40.089ZM97.9078 41.772C97.0125 41.772 96.2248 41.568 95.5448 41.16C94.8648 40.752 94.3322 40.2023 93.9468 39.511C93.5615 38.8083 93.3688 38.0263 93.3688 37.165C93.3688 36.3037 93.5615 35.5273 93.9468 34.836C94.3322 34.1333 94.8648 33.578 95.5448 33.17C96.2248 32.762 97.0125 32.558 97.9078 32.558C98.7918 32.558 99.5738 32.7677 100.254 33.187C100.934 33.595 101.467 34.1447 101.852 34.836C102.237 35.5273 102.43 36.3037 102.43 37.165C102.43 38.0263 102.237 38.8083 101.852 39.511C101.467 40.2023 100.934 40.752 100.254 41.16C99.5738 41.568 98.7918 41.772 97.9078 41.772ZM97.9078 40.089C98.3838 40.089 98.8258 39.9757 99.2338 39.749C99.6418 39.511 99.9705 39.1767 100.22 38.746C100.481 38.304 100.611 37.777 100.611 37.165C100.611 36.553 100.481 36.0317 100.22 35.601C99.9705 35.159 99.6418 34.8247 99.2338 34.598C98.8258 34.36 98.3838 34.241 97.9078 34.241C97.4318 34.241 96.9842 34.36 96.5648 34.598C96.1568 34.8247 95.8225 35.159 95.5618 35.601C95.3125 36.0317 95.1878 36.553 95.1878 37.165C95.1878 37.777 95.3125 38.304 95.5618 38.746C95.8225 39.1767 96.1625 39.511 96.5818 39.749C97.0012 39.9757 97.4432 40.089 97.9078 40.089ZM108.031 45.444C107.271 45.444 106.614 45.3193 106.059 45.07C105.515 44.832 105.073 44.5203 104.733 44.135C104.393 43.761 104.149 43.3757 104.002 42.979L105.702 42.265C105.883 42.7183 106.172 43.0867 106.569 43.37C106.977 43.6647 107.464 43.812 108.031 43.812C108.835 43.812 109.464 43.574 109.918 43.098C110.371 42.622 110.598 41.9477 110.598 41.075V40.242H110.496C110.224 40.6387 109.85 40.9617 109.374 41.211C108.898 41.4603 108.348 41.585 107.725 41.585C106.988 41.585 106.308 41.398 105.685 41.024C105.073 40.65 104.58 40.1287 104.206 39.46C103.843 38.78 103.662 37.9867 103.662 37.08C103.662 36.162 103.843 35.3687 104.206 34.7C104.58 34.02 105.073 33.493 105.685 33.119C106.308 32.745 106.988 32.558 107.725 32.558C108.348 32.558 108.898 32.6827 109.374 32.932C109.85 33.17 110.224 33.4987 110.496 33.918H110.598V32.83H112.349V41.041C112.349 41.9817 112.162 42.7807 111.788 43.438C111.425 44.0953 110.921 44.594 110.275 44.934C109.629 45.274 108.881 45.444 108.031 45.444ZM108.048 39.919C108.501 39.919 108.92 39.8113 109.306 39.596C109.702 39.3693 110.014 39.0463 110.241 38.627C110.479 38.1963 110.598 37.6807 110.598 37.08C110.598 36.4453 110.479 35.9183 110.241 35.499C110.014 35.0797 109.702 34.7623 109.306 34.547C108.92 34.3317 108.501 34.224 108.048 34.224C107.594 34.224 107.169 34.3317 106.773 34.547C106.387 34.7623 106.076 35.0853 105.838 35.516C105.6 35.9353 105.481 36.4567 105.481 37.08C105.481 37.692 105.6 38.2133 105.838 38.644C106.076 39.0633 106.387 39.3807 106.773 39.596C107.169 39.8113 107.594 39.919 108.048 39.919ZM114.514 41.5V29.328H116.35V41.5H114.514ZM122.392 41.772C121.542 41.772 120.783 41.5737 120.114 41.177C119.446 40.7803 118.919 40.2363 118.533 39.545C118.159 38.8537 117.972 38.066 117.972 37.182C117.972 36.3547 118.154 35.5897 118.516 34.887C118.879 34.1843 119.383 33.6233 120.029 33.204C120.687 32.7733 121.44 32.558 122.29 32.558C123.186 32.558 123.945 32.7507 124.568 33.136C125.203 33.5213 125.685 34.0483 126.013 34.717C126.342 35.3857 126.506 36.1393 126.506 36.978C126.506 37.1027 126.501 37.216 126.489 37.318C126.489 37.42 126.484 37.4993 126.472 37.556H119.774C119.82 38.032 119.939 38.4457 120.131 38.797C120.381 39.239 120.709 39.5733 121.117 39.8C121.525 40.0267 121.967 40.14 122.443 40.14C123.021 40.14 123.503 40.0097 123.888 39.749C124.285 39.477 124.597 39.1427 124.823 38.746L126.336 39.477C125.962 40.157 125.452 40.7123 124.806 41.143C124.16 41.5623 123.356 41.772 122.392 41.772ZM119.876 36.179H124.687C124.676 35.9637 124.619 35.737 124.517 35.499C124.415 35.2497 124.268 35.023 124.075 34.819C123.883 34.615 123.639 34.4507 123.344 34.326C123.05 34.19 122.704 34.122 122.307 34.122C121.809 34.122 121.367 34.2523 120.981 34.513C120.596 34.7623 120.296 35.1137 120.08 35.567C119.99 35.7597 119.922 35.9637 119.876 36.179ZM133.979 41.5L130.715 29.328H132.789L134.727 37.233L134.931 38.287H135.033L135.288 37.233L137.736 29.328H139.606L141.952 37.233L142.207 38.27H142.309L142.513 37.233L144.451 29.328H146.508L143.295 41.5H141.323L138.994 33.425L138.722 32.286H138.62L138.331 33.425L135.9 41.5H133.979ZM149.922 41.772C149.299 41.772 148.743 41.6473 148.256 41.398C147.78 41.1487 147.4 40.8087 147.117 40.378C146.845 39.936 146.709 39.4317 146.709 38.865C146.709 38.2417 146.868 37.7147 147.185 37.284C147.514 36.8533 147.95 36.5247 148.494 36.298C149.038 36.0713 149.639 35.958 150.296 35.958C150.659 35.958 150.993 35.9863 151.299 36.043C151.616 36.0883 151.888 36.145 152.115 36.213C152.353 36.281 152.54 36.3547 152.676 36.434V35.975C152.676 35.4083 152.472 34.955 152.064 34.615C151.656 34.275 151.129 34.105 150.483 34.105C150.041 34.105 149.622 34.207 149.225 34.411C148.828 34.6037 148.511 34.87 148.273 35.21L147.015 34.241C147.264 33.8897 147.565 33.5893 147.916 33.34C148.279 33.0907 148.681 32.898 149.123 32.762C149.576 32.626 150.047 32.558 150.534 32.558C151.792 32.558 152.761 32.8697 153.441 33.493C154.121 34.105 154.461 34.9663 154.461 36.077V41.5H152.676V40.429H152.574C152.427 40.6557 152.223 40.871 151.962 41.075C151.713 41.279 151.412 41.4433 151.061 41.568C150.721 41.704 150.341 41.772 149.922 41.772ZM150.245 40.276C150.721 40.276 151.14 40.1627 151.503 39.936C151.877 39.7093 152.166 39.4147 152.37 39.052C152.574 38.678 152.676 38.2757 152.676 37.845C152.427 37.6977 152.121 37.5787 151.758 37.488C151.407 37.386 151.033 37.335 150.636 37.335C149.888 37.335 149.355 37.4823 149.038 37.777C148.721 38.0717 148.562 38.44 148.562 38.882C148.562 39.29 148.715 39.6243 149.021 39.885C149.327 40.1457 149.735 40.276 150.245 40.276ZM156.499 41.5V29.328H158.335V41.5H156.499ZM160.517 41.5V29.328H162.353V41.5H160.517ZM168.395 41.772C167.545 41.772 166.786 41.5737 166.117 41.177C165.449 40.7803 164.922 40.2363 164.536 39.545C164.162 38.8537 163.975 38.066 163.975 37.182C163.975 36.3547 164.157 35.5897 164.519 34.887C164.882 34.1843 165.386 33.6233 166.032 33.204C166.69 32.7733 167.443 32.558 168.293 32.558C169.189 32.558 169.948 32.7507 170.571 33.136C171.206 33.5213 171.688 34.0483 172.016 34.717C172.345 35.3857 172.509 36.1393 172.509 36.978C172.509 37.1027 172.504 37.216 172.492 37.318C172.492 37.42 172.487 37.4993 172.475 37.556H165.777C165.823 38.032 165.942 38.4457 166.134 38.797C166.384 39.239 166.712 39.5733 167.12 39.8C167.528 40.0267 167.97 40.14 168.446 40.14C169.024 40.14 169.506 40.0097 169.891 39.749C170.288 39.477 170.6 39.1427 170.826 38.746L172.339 39.477C171.965 40.157 171.455 40.7123 170.809 41.143C170.163 41.5623 169.359 41.772 168.395 41.772ZM165.879 36.179H170.69C170.679 35.9637 170.622 35.737 170.52 35.499C170.418 35.2497 170.271 35.023 170.078 34.819C169.886 34.615 169.642 34.4507 169.347 34.326C169.053 34.19 168.707 34.122 168.31 34.122C167.812 34.122 167.37 34.2523 166.984 34.513C166.599 34.7623 166.299 35.1137 166.083 35.567C165.993 35.7597 165.925 35.9637 165.879 36.179ZM173.369 32.83H174.882V30.382H176.718V32.83H178.843V34.428H176.718V38.593C176.718 39.0237 176.803 39.3523 176.973 39.579C177.154 39.8057 177.454 39.919 177.874 39.919C178.078 39.919 178.259 39.8907 178.418 39.834C178.576 39.766 178.735 39.6867 178.894 39.596V41.381C178.701 41.4603 178.497 41.5227 178.282 41.568C178.066 41.6133 177.811 41.636 177.517 41.636C176.712 41.636 176.072 41.4037 175.596 40.939C175.12 40.463 174.882 39.8113 174.882 38.984V34.428H173.369V32.83ZM180.823 41.5V32.83H182.659V41.5H180.823ZM181.741 31.555C181.401 31.555 181.107 31.436 180.857 31.198C180.619 30.9487 180.5 30.654 180.5 30.314C180.5 29.9627 180.619 29.6737 180.857 29.447C181.107 29.209 181.401 29.09 181.741 29.09C182.093 29.09 182.387 29.209 182.625 29.447C182.863 29.6737 182.982 29.9627 182.982 30.314C182.982 30.654 182.863 30.9487 182.625 31.198C182.387 31.436 182.093 31.555 181.741 31.555ZM188.099 41.772C187.408 41.772 186.807 41.67 186.297 41.466C185.787 41.2507 185.368 40.9673 185.039 40.616C184.711 40.2533 184.467 39.8623 184.308 39.443L185.957 38.729C186.161 39.1937 186.45 39.5507 186.824 39.8C187.21 40.038 187.652 40.157 188.15 40.157C188.604 40.157 188.995 40.0777 189.323 39.919C189.652 39.749 189.816 39.477 189.816 39.103C189.816 38.865 189.737 38.6723 189.578 38.525C189.431 38.3663 189.227 38.236 188.966 38.134C188.717 38.032 188.428 37.9413 188.099 37.862L187.062 37.624C186.654 37.522 186.263 37.3633 185.889 37.148C185.527 36.9213 185.232 36.638 185.005 36.298C184.779 35.958 184.665 35.5557 184.665 35.091C184.665 34.5697 184.813 34.122 185.107 33.748C185.413 33.3627 185.821 33.068 186.331 32.864C186.841 32.66 187.391 32.558 187.98 32.558C188.524 32.558 189.017 32.6317 189.459 32.779C189.913 32.915 190.304 33.1247 190.632 33.408C190.972 33.68 191.239 34.02 191.431 34.428L189.85 35.142C189.658 34.7567 189.397 34.4903 189.068 34.343C188.74 34.1843 188.383 34.105 187.997 34.105C187.567 34.105 187.204 34.1957 186.909 34.377C186.626 34.547 186.484 34.7737 186.484 35.057C186.484 35.3517 186.609 35.584 186.858 35.754C187.119 35.924 187.436 36.06 187.81 36.162L189.068 36.468C189.93 36.6833 190.576 37.012 191.006 37.454C191.437 37.8847 191.652 38.4117 191.652 39.035C191.652 39.5903 191.494 40.0777 191.176 40.497C190.859 40.905 190.428 41.2223 189.884 41.449C189.352 41.6643 188.757 41.772 188.099 41.772ZM196.417 41.772C195.725 41.772 195.125 41.67 194.615 41.466C194.105 41.2507 193.685 40.9673 193.357 40.616C193.028 40.2533 192.784 39.8623 192.626 39.443L194.275 38.729C194.479 39.1937 194.768 39.5507 195.142 39.8C195.527 40.038 195.969 40.157 196.468 40.157C196.921 40.157 197.312 40.0777 197.641 39.919C197.969 39.749 198.134 39.477 198.134 39.103C198.134 38.865 198.054 38.6723 197.896 38.525C197.748 38.3663 197.544 38.236 197.284 38.134C197.034 38.032 196.745 37.9413 196.417 37.862L195.38 37.624C194.972 37.522 194.581 37.3633 194.207 37.148C193.844 36.9213 193.549 36.638 193.323 36.298C193.096 35.958 192.983 35.5557 192.983 35.091C192.983 34.5697 193.13 34.122 193.425 33.748C193.731 33.3627 194.139 33.068 194.649 32.864C195.159 32.66 195.708 32.558 196.298 32.558C196.842 32.558 197.335 32.6317 197.777 32.779C198.23 32.915 198.621 33.1247 198.95 33.408C199.29 33.68 199.556 34.02 199.749 34.428L198.168 35.142C197.975 34.7567 197.714 34.4903 197.386 34.343C197.057 34.1843 196.7 34.105 196.315 34.105C195.884 34.105 195.521 34.1957 195.227 34.377C194.943 34.547 194.802 34.7737 194.802 35.057C194.802 35.3517 194.926 35.584 195.176 35.754C195.436 35.924 195.754 36.06 196.128 36.162L197.386 36.468C198.247 36.6833 198.893 37.012 199.324 37.454C199.754 37.8847 199.97 38.4117 199.97 39.035C199.97 39.5903 199.811 40.0777 199.494 40.497C199.176 40.905 198.746 41.2223 198.202 41.449C197.669 41.6643 197.074 41.772 196.417 41.772ZM204.375 41.772C203.752 41.772 203.196 41.6473 202.709 41.398C202.233 41.1487 201.853 40.8087 201.57 40.378C201.298 39.936 201.162 39.4317 201.162 38.865C201.162 38.2417 201.321 37.7147 201.638 37.284C201.967 36.8533 202.403 36.5247 202.947 36.298C203.491 36.0713 204.092 35.958 204.749 35.958C205.112 35.958 205.446 35.9863 205.752 36.043C206.069 36.0883 206.341 36.145 206.568 36.213C206.806 36.281 206.993 36.3547 207.129 36.434V35.975C207.129 35.4083 206.925 34.955 206.517 34.615C206.109 34.275 205.582 34.105 204.936 34.105C204.494 34.105 204.075 34.207 203.678 34.411C203.281 34.6037 202.964 34.87 202.726 35.21L201.468 34.241C201.717 33.8897 202.018 33.5893 202.369 33.34C202.732 33.0907 203.134 32.898 203.576 32.762C204.029 32.626 204.5 32.558 204.987 32.558C206.245 32.558 207.214 32.8697 207.894 33.493C208.574 34.105 208.914 34.9663 208.914 36.077V41.5H207.129V40.429H207.027C206.88 40.6557 206.676 40.871 206.415 41.075C206.166 41.279 205.865 41.4433 205.514 41.568C205.174 41.704 204.794 41.772 204.375 41.772ZM204.698 40.276C205.174 40.276 205.593 40.1627 205.956 39.936C206.33 39.7093 206.619 39.4147 206.823 39.052C207.027 38.678 207.129 38.2757 207.129 37.845C206.88 37.6977 206.574 37.5787 206.211 37.488C205.86 37.386 205.486 37.335 205.089 37.335C204.341 37.335 203.808 37.4823 203.491 37.777C203.174 38.0717 203.015 38.44 203.015 38.882C203.015 39.29 203.168 39.6243 203.474 39.885C203.78 40.1457 204.188 40.276 204.698 40.276Z" fill="white"/>
</svg>
