<svg width="199" height="55" viewBox="0 0 199 55" fill="none" xmlns="http://www.w3.org/2000/svg">
<rect x="0.5" y="0.5" width="198" height="54" rx="27" fill="#1F1F1F"/>
<rect x="0.5" y="0.5" width="198" height="54" rx="27" stroke="#747775"/>
<path d="M57 23.791H21V18.1455C21 15.0809 23.6422 12.5001 26.7798 12.5001H51.2202C54.3578 12.5001 57 15.0809 57 18.1455V23.791Z" fill="#34A853"/>
<path d="M57 29H21V23C21 19.7429 23.6422 17 26.7798 17H51.2202C54.3578 17 57 19.7429 57 23V29Z" fill="#FBBC04"/>
<path d="M57 34H21V28C21 24.7429 23.6422 22 26.7798 22H51.2202C54.3578 22 57 24.7429 57 28V34Z" fill="#EA4335"/>
<path d="M21 25.2409L43.8493 30.4025C46.4795 31.0477 49.4384 30.4025 51.5753 28.7895L57 24.9183V37.0157C57 40.0804 54.3699 42.4999 51.2466 42.4999H26.7534C23.6301 42.4999 21 40.0804 21 37.0157V25.2409Z" fill="#4285F4"/>
<path d="M71.951 21.5V13.544H69.338V12.192H75.968V13.544H73.368V21.5H71.951ZM77.0197 21.5V14.87H78.4237V21.5H77.0197ZM77.7217 13.895C77.4617 13.895 77.2363 13.804 77.0457 13.622C76.8637 13.4313 76.7727 13.206 76.7727 12.946C76.7727 12.6773 76.8637 12.4563 77.0457 12.283C77.2363 12.101 77.4617 12.01 77.7217 12.01C77.9903 12.01 78.2157 12.101 78.3977 12.283C78.5797 12.4563 78.6707 12.6773 78.6707 12.946C78.6707 13.206 78.5797 13.4313 78.3977 13.622C78.2157 13.804 77.9903 13.895 77.7217 13.895ZM80.1657 21.5V14.87H81.4917V15.78H81.5697C81.7603 15.4593 82.042 15.195 82.4147 14.987C82.796 14.7703 83.212 14.662 83.6627 14.662C84.4773 14.662 85.0883 14.9047 85.4957 15.39C85.903 15.8667 86.1067 16.508 86.1067 17.314V21.5H84.7157V17.496C84.7157 16.9587 84.5813 16.5687 84.3127 16.326C84.044 16.0747 83.693 15.949 83.2597 15.949C82.9217 15.949 82.627 16.0443 82.3757 16.235C82.1243 16.417 81.925 16.6597 81.7777 16.963C81.639 17.2663 81.5697 17.5913 81.5697 17.938V21.5H80.1657ZM90.6332 24.516C90.0526 24.516 89.5499 24.4207 89.1252 24.23C88.7092 24.048 88.3712 23.8097 88.1112 23.515C87.8512 23.229 87.6649 22.9343 87.5522 22.631L88.8522 22.085C88.9909 22.4317 89.2119 22.7133 89.5152 22.93C89.8272 23.1553 90.1999 23.268 90.6332 23.268C91.2486 23.268 91.7296 23.086 92.0762 22.722C92.4229 22.358 92.5962 21.8423 92.5962 21.175V20.538H92.5182C92.3102 20.8413 92.0242 21.0883 91.6602 21.279C91.2962 21.4697 90.8759 21.565 90.3992 21.565C89.8359 21.565 89.3159 21.422 88.8392 21.136C88.3712 20.85 87.9942 20.4513 87.7082 19.94C87.4309 19.42 87.2922 18.8133 87.2922 18.12C87.2922 17.418 87.4309 16.8113 87.7082 16.3C87.9942 15.78 88.3712 15.377 88.8392 15.091C89.3159 14.805 89.8359 14.662 90.3992 14.662C90.8759 14.662 91.2962 14.7573 91.6602 14.948C92.0242 15.13 92.3102 15.3813 92.5182 15.702H92.5962V14.87H93.9352V21.149C93.9352 21.8683 93.7922 22.4793 93.5062 22.982C93.2289 23.4847 92.8432 23.866 92.3492 24.126C91.8552 24.386 91.2832 24.516 90.6332 24.516ZM90.6462 20.291C90.9929 20.291 91.3136 20.2087 91.6082 20.044C91.9116 19.8707 92.1499 19.6237 92.3232 19.303C92.5052 18.9737 92.5962 18.5793 92.5962 18.12C92.5962 17.6347 92.5052 17.2317 92.3232 16.911C92.1499 16.5903 91.9116 16.3477 91.6082 16.183C91.3136 16.0183 90.9929 15.936 90.6462 15.936C90.2996 15.936 89.9746 16.0183 89.6712 16.183C89.3766 16.3477 89.1382 16.5947 88.9562 16.924C88.7742 17.2447 88.6832 17.6433 88.6832 18.12C88.6832 18.588 88.7742 18.9867 88.9562 19.316C89.1382 19.6367 89.3766 19.8793 89.6712 20.044C89.9746 20.2087 90.2996 20.291 90.6462 20.291ZM95.5778 21.5V14.87H96.9038V15.78H96.9818C97.1725 15.4593 97.4541 15.195 97.8268 14.987C98.2081 14.7703 98.6241 14.662 99.0748 14.662C99.8895 14.662 100.5 14.9047 100.908 15.39C101.315 15.8667 101.519 16.508 101.519 17.314V21.5H100.128V17.496C100.128 16.9587 99.9935 16.5687 99.7248 16.326C99.4561 16.0747 99.1051 15.949 98.6718 15.949C98.3338 15.949 98.0391 16.0443 97.7878 16.235C97.5365 16.417 97.3371 16.6597 97.1898 16.963C97.0511 17.2663 96.9818 17.5913 96.9818 17.938V21.5H95.5778ZM105.135 21.708C104.659 21.708 104.234 21.6127 103.861 21.422C103.497 21.2313 103.207 20.9713 102.99 20.642C102.782 20.304 102.678 19.9183 102.678 19.485C102.678 19.0083 102.8 18.6053 103.042 18.276C103.294 17.9467 103.627 17.6953 104.043 17.522C104.459 17.3487 104.919 17.262 105.421 17.262C105.699 17.262 105.954 17.2837 106.188 17.327C106.431 17.3617 106.639 17.405 106.812 17.457C106.994 17.509 107.137 17.5653 107.241 17.626V17.275C107.241 16.8417 107.085 16.495 106.773 16.235C106.461 15.975 106.058 15.845 105.564 15.845C105.226 15.845 104.906 15.923 104.602 16.079C104.299 16.2263 104.056 16.43 103.874 16.69L102.912 15.949C103.103 15.6803 103.333 15.4507 103.601 15.26C103.879 15.0693 104.186 14.922 104.524 14.818C104.871 14.714 105.231 14.662 105.603 14.662C106.565 14.662 107.306 14.9003 107.826 15.377C108.346 15.845 108.606 16.5037 108.606 17.353V21.5H107.241V20.681H107.163C107.051 20.8543 106.895 21.019 106.695 21.175C106.505 21.331 106.275 21.4567 106.006 21.552C105.746 21.656 105.456 21.708 105.135 21.708ZM105.382 20.564C105.746 20.564 106.067 20.4773 106.344 20.304C106.63 20.1307 106.851 19.9053 107.007 19.628C107.163 19.342 107.241 19.0343 107.241 18.705C107.051 18.5923 106.817 18.5013 106.539 18.432C106.271 18.354 105.985 18.315 105.681 18.315C105.109 18.315 104.702 18.4277 104.459 18.653C104.217 18.8783 104.095 19.16 104.095 19.498C104.095 19.81 104.212 20.0657 104.446 20.265C104.68 20.4643 104.992 20.564 105.382 20.564ZM110.152 21.5V14.87H111.478V15.78H111.556C111.747 15.4593 112.028 15.195 112.401 14.987C112.782 14.7703 113.198 14.662 113.649 14.662C114.464 14.662 115.075 14.9047 115.482 15.39C115.889 15.8667 116.093 16.508 116.093 17.314V21.5H114.702V17.496C114.702 16.9587 114.568 16.5687 114.299 16.326C114.03 16.0747 113.679 15.949 113.246 15.949C112.908 15.949 112.613 16.0443 112.362 16.235C112.111 16.417 111.911 16.6597 111.764 16.963C111.625 17.2663 111.556 17.5913 111.556 17.938V21.5H110.152ZM123.145 21.708C122.617 21.708 122.157 21.63 121.767 21.474C121.377 21.3093 121.057 21.0927 120.805 20.824C120.554 20.5467 120.368 20.2477 120.246 19.927L121.507 19.381C121.663 19.7363 121.884 20.0093 122.17 20.2C122.465 20.382 122.803 20.473 123.184 20.473C123.531 20.473 123.83 20.4123 124.081 20.291C124.333 20.161 124.458 19.953 124.458 19.667C124.458 19.485 124.398 19.3377 124.276 19.225C124.164 19.1037 124.008 19.004 123.808 18.926C123.618 18.848 123.397 18.7787 123.145 18.718L122.352 18.536C122.04 18.458 121.741 18.3367 121.455 18.172C121.178 17.9987 120.953 17.782 120.779 17.522C120.606 17.262 120.519 16.9543 120.519 16.599C120.519 16.2003 120.632 15.858 120.857 15.572C121.091 15.2773 121.403 15.052 121.793 14.896C122.183 14.74 122.604 14.662 123.054 14.662C123.47 14.662 123.847 14.7183 124.185 14.831C124.532 14.935 124.831 15.0953 125.082 15.312C125.342 15.52 125.546 15.78 125.693 16.092L124.484 16.638C124.337 16.3433 124.138 16.1397 123.886 16.027C123.635 15.9057 123.362 15.845 123.067 15.845C122.738 15.845 122.461 15.9143 122.235 16.053C122.019 16.183 121.91 16.3563 121.91 16.573C121.91 16.7983 122.006 16.976 122.196 17.106C122.396 17.236 122.638 17.34 122.924 17.418L123.886 17.652C124.545 17.8167 125.039 18.068 125.368 18.406C125.698 18.7353 125.862 19.1383 125.862 19.615C125.862 20.0397 125.741 20.4123 125.498 20.733C125.256 21.045 124.926 21.2877 124.51 21.461C124.103 21.6257 123.648 21.708 123.145 21.708ZM129.231 21.708C128.754 21.708 128.33 21.6127 127.957 21.422C127.593 21.2313 127.303 20.9713 127.086 20.642C126.878 20.304 126.774 19.9183 126.774 19.485C126.774 19.0083 126.895 18.6053 127.138 18.276C127.389 17.9467 127.723 17.6953 128.139 17.522C128.555 17.3487 129.014 17.262 129.517 17.262C129.794 17.262 130.05 17.2837 130.284 17.327C130.527 17.3617 130.735 17.405 130.908 17.457C131.09 17.509 131.233 17.5653 131.337 17.626V17.275C131.337 16.8417 131.181 16.495 130.869 16.235C130.557 15.975 130.154 15.845 129.66 15.845C129.322 15.845 129.001 15.923 128.698 16.079C128.395 16.2263 128.152 16.43 127.97 16.69L127.008 15.949C127.199 15.6803 127.428 15.4507 127.697 15.26C127.974 15.0693 128.282 14.922 128.62 14.818C128.967 14.714 129.326 14.662 129.699 14.662C130.661 14.662 131.402 14.9003 131.922 15.377C132.442 15.845 132.702 16.5037 132.702 17.353V21.5H131.337V20.681H131.259C131.146 20.8543 130.99 21.019 130.791 21.175C130.6 21.331 130.371 21.4567 130.102 21.552C129.842 21.656 129.552 21.708 129.231 21.708ZM129.478 20.564C129.842 20.564 130.163 20.4773 130.44 20.304C130.726 20.1307 130.947 19.9053 131.103 19.628C131.259 19.342 131.337 19.0343 131.337 18.705C131.146 18.5923 130.912 18.5013 130.635 18.432C130.366 18.354 130.08 18.315 129.777 18.315C129.205 18.315 128.798 18.4277 128.555 18.653C128.312 18.8783 128.191 19.16 128.191 19.498C128.191 19.81 128.308 20.0657 128.542 20.265C128.776 20.4643 129.088 20.564 129.478 20.564Z" fill="white"/>
<path d="M76.14 41.772C75.2673 41.772 74.4457 41.6133 73.675 41.296C72.9043 40.9787 72.2243 40.5367 71.635 39.97C71.057 39.392 70.598 38.7177 70.258 37.947C69.9293 37.165 69.765 36.3207 69.765 35.414C69.765 34.5073 69.9293 33.6687 70.258 32.898C70.598 32.116 71.057 31.4417 71.635 30.875C72.2243 30.297 72.9043 29.8493 73.675 29.532C74.4457 29.2147 75.2673 29.056 76.14 29.056C77.0693 29.056 77.925 29.2203 78.707 29.549C79.5003 29.8777 80.1633 30.3367 80.696 30.926L79.404 32.201C79.1433 31.9063 78.843 31.657 78.503 31.453C78.1743 31.249 77.8117 31.096 77.415 30.994C77.0183 30.8807 76.5933 30.824 76.14 30.824C75.5393 30.824 74.967 30.9317 74.423 31.147C73.879 31.3623 73.3973 31.674 72.978 32.082C72.57 32.4787 72.247 32.9603 72.009 33.527C71.771 34.0823 71.652 34.7113 71.652 35.414C71.652 36.1167 71.771 36.7513 72.009 37.318C72.2583 37.8733 72.587 38.355 72.995 38.763C73.4143 39.1597 73.896 39.4657 74.44 39.681C74.984 39.8963 75.5563 40.004 76.157 40.004C76.7123 40.004 77.228 39.9247 77.704 39.766C78.1913 39.6073 78.6163 39.3807 78.979 39.086C79.3417 38.7913 79.6363 38.4343 79.863 38.015C80.0897 37.5843 80.2313 37.1027 80.288 36.57H76.123V34.921H82.039C82.0617 35.057 82.0843 35.2157 82.107 35.397C82.1297 35.567 82.141 35.7313 82.141 35.89V35.907C82.141 36.7797 81.988 37.5787 81.682 38.304C81.3873 39.0293 80.9737 39.6527 80.441 40.174C79.9083 40.684 79.2737 41.0807 78.537 41.364C77.8117 41.636 77.0127 41.772 76.14 41.772ZM87.6149 41.772C86.7195 41.772 85.9319 41.568 85.2519 41.16C84.5719 40.752 84.0392 40.2023 83.6539 39.511C83.2685 38.8083 83.0759 38.0263 83.0759 37.165C83.0759 36.3037 83.2685 35.5273 83.6539 34.836C84.0392 34.1333 84.5719 33.578 85.2519 33.17C85.9319 32.762 86.7195 32.558 87.6149 32.558C88.4989 32.558 89.2809 32.7677 89.9609 33.187C90.6409 33.595 91.1735 34.1447 91.5589 34.836C91.9442 35.5273 92.1369 36.3037 92.1369 37.165C92.1369 38.0263 91.9442 38.8083 91.5589 39.511C91.1735 40.2023 90.6409 40.752 89.9609 41.16C89.2809 41.568 88.4989 41.772 87.6149 41.772ZM87.6149 40.089C88.0909 40.089 88.5329 39.9757 88.9409 39.749C89.3489 39.511 89.6775 39.1767 89.9269 38.746C90.1875 38.304 90.3179 37.777 90.3179 37.165C90.3179 36.553 90.1875 36.0317 89.9269 35.601C89.6775 35.159 89.3489 34.8247 88.9409 34.598C88.5329 34.36 88.0909 34.241 87.6149 34.241C87.1389 34.241 86.6912 34.36 86.2719 34.598C85.8639 34.8247 85.5295 35.159 85.2689 35.601C85.0195 36.0317 84.8949 36.553 84.8949 37.165C84.8949 37.777 85.0195 38.304 85.2689 38.746C85.5295 39.1767 85.8695 39.511 86.2889 39.749C86.7082 39.9757 87.1502 40.089 87.6149 40.089ZM97.9078 41.772C97.0125 41.772 96.2248 41.568 95.5448 41.16C94.8648 40.752 94.3322 40.2023 93.9468 39.511C93.5615 38.8083 93.3688 38.0263 93.3688 37.165C93.3688 36.3037 93.5615 35.5273 93.9468 34.836C94.3322 34.1333 94.8648 33.578 95.5448 33.17C96.2248 32.762 97.0125 32.558 97.9078 32.558C98.7918 32.558 99.5738 32.7677 100.254 33.187C100.934 33.595 101.467 34.1447 101.852 34.836C102.237 35.5273 102.43 36.3037 102.43 37.165C102.43 38.0263 102.237 38.8083 101.852 39.511C101.467 40.2023 100.934 40.752 100.254 41.16C99.5738 41.568 98.7918 41.772 97.9078 41.772ZM97.9078 40.089C98.3838 40.089 98.8258 39.9757 99.2338 39.749C99.6418 39.511 99.9705 39.1767 100.22 38.746C100.481 38.304 100.611 37.777 100.611 37.165C100.611 36.553 100.481 36.0317 100.22 35.601C99.9705 35.159 99.6418 34.8247 99.2338 34.598C98.8258 34.36 98.3838 34.241 97.9078 34.241C97.4318 34.241 96.9842 34.36 96.5648 34.598C96.1568 34.8247 95.8225 35.159 95.5618 35.601C95.3125 36.0317 95.1878 36.553 95.1878 37.165C95.1878 37.777 95.3125 38.304 95.5618 38.746C95.8225 39.1767 96.1625 39.511 96.5818 39.749C97.0012 39.9757 97.4432 40.089 97.9078 40.089ZM108.031 45.444C107.271 45.444 106.614 45.3193 106.059 45.07C105.515 44.832 105.073 44.5203 104.733 44.135C104.393 43.761 104.149 43.3757 104.002 42.979L105.702 42.265C105.883 42.7183 106.172 43.0867 106.569 43.37C106.977 43.6647 107.464 43.812 108.031 43.812C108.835 43.812 109.464 43.574 109.918 43.098C110.371 42.622 110.598 41.9477 110.598 41.075V40.242H110.496C110.224 40.6387 109.85 40.9617 109.374 41.211C108.898 41.4603 108.348 41.585 107.725 41.585C106.988 41.585 106.308 41.398 105.685 41.024C105.073 40.65 104.58 40.1287 104.206 39.46C103.843 38.78 103.662 37.9867 103.662 37.08C103.662 36.162 103.843 35.3687 104.206 34.7C104.58 34.02 105.073 33.493 105.685 33.119C106.308 32.745 106.988 32.558 107.725 32.558C108.348 32.558 108.898 32.6827 109.374 32.932C109.85 33.17 110.224 33.4987 110.496 33.918H110.598V32.83H112.349V41.041C112.349 41.9817 112.162 42.7807 111.788 43.438C111.425 44.0953 110.921 44.594 110.275 44.934C109.629 45.274 108.881 45.444 108.031 45.444ZM108.048 39.919C108.501 39.919 108.92 39.8113 109.306 39.596C109.702 39.3693 110.014 39.0463 110.241 38.627C110.479 38.1963 110.598 37.6807 110.598 37.08C110.598 36.4453 110.479 35.9183 110.241 35.499C110.014 35.0797 109.702 34.7623 109.306 34.547C108.92 34.3317 108.501 34.224 108.048 34.224C107.594 34.224 107.169 34.3317 106.773 34.547C106.387 34.7623 106.076 35.0853 105.838 35.516C105.6 35.9353 105.481 36.4567 105.481 37.08C105.481 37.692 105.6 38.2133 105.838 38.644C106.076 39.0633 106.387 39.3807 106.773 39.596C107.169 39.8113 107.594 39.919 108.048 39.919ZM114.514 41.5V29.328H116.35V41.5H114.514ZM122.392 41.772C121.542 41.772 120.783 41.5737 120.114 41.177C119.446 40.7803 118.919 40.2363 118.533 39.545C118.159 38.8537 117.972 38.066 117.972 37.182C117.972 36.3547 118.154 35.5897 118.516 34.887C118.879 34.1843 119.383 33.6233 120.029 33.204C120.687 32.7733 121.44 32.558 122.29 32.558C123.186 32.558 123.945 32.7507 124.568 33.136C125.203 33.5213 125.685 34.0483 126.013 34.717C126.342 35.3857 126.506 36.1393 126.506 36.978C126.506 37.1027 126.501 37.216 126.489 37.318C126.489 37.42 126.484 37.4993 126.472 37.556H119.774C119.82 38.032 119.939 38.4457 120.131 38.797C120.381 39.239 120.709 39.5733 121.117 39.8C121.525 40.0267 121.967 40.14 122.443 40.14C123.021 40.14 123.503 40.0097 123.888 39.749C124.285 39.477 124.597 39.1427 124.823 38.746L126.336 39.477C125.962 40.157 125.452 40.7123 124.806 41.143C124.16 41.5623 123.356 41.772 122.392 41.772ZM119.876 36.179H124.687C124.676 35.9637 124.619 35.737 124.517 35.499C124.415 35.2497 124.268 35.023 124.075 34.819C123.883 34.615 123.639 34.4507 123.344 34.326C123.05 34.19 122.704 34.122 122.307 34.122C121.809 34.122 121.367 34.2523 120.981 34.513C120.596 34.7623 120.296 35.1137 120.08 35.567C119.99 35.7597 119.922 35.9637 119.876 36.179ZM133.979 41.5L130.715 29.328H132.789L134.727 37.233L134.931 38.287H135.033L135.288 37.233L137.736 29.328H139.606L141.952 37.233L142.207 38.27H142.309L142.513 37.233L144.451 29.328H146.508L143.295 41.5H141.323L138.994 33.425L138.722 32.286H138.62L138.331 33.425L135.9 41.5H133.979ZM149.922 41.772C149.299 41.772 148.743 41.6473 148.256 41.398C147.78 41.1487 147.4 40.8087 147.117 40.378C146.845 39.936 146.709 39.4317 146.709 38.865C146.709 38.2417 146.868 37.7147 147.185 37.284C147.514 36.8533 147.95 36.5247 148.494 36.298C149.038 36.0713 149.639 35.958 150.296 35.958C150.659 35.958 150.993 35.9863 151.299 36.043C151.616 36.0883 151.888 36.145 152.115 36.213C152.353 36.281 152.54 36.3547 152.676 36.434V35.975C152.676 35.4083 152.472 34.955 152.064 34.615C151.656 34.275 151.129 34.105 150.483 34.105C150.041 34.105 149.622 34.207 149.225 34.411C148.828 34.6037 148.511 34.87 148.273 35.21L147.015 34.241C147.264 33.8897 147.565 33.5893 147.916 33.34C148.279 33.0907 148.681 32.898 149.123 32.762C149.576 32.626 150.047 32.558 150.534 32.558C151.792 32.558 152.761 32.8697 153.441 33.493C154.121 34.105 154.461 34.9663 154.461 36.077V41.5H152.676V40.429H152.574C152.427 40.6557 152.223 40.871 151.962 41.075C151.713 41.279 151.412 41.4433 151.061 41.568C150.721 41.704 150.341 41.772 149.922 41.772ZM150.245 40.276C150.721 40.276 151.14 40.1627 151.503 39.936C151.877 39.7093 152.166 39.4147 152.37 39.052C152.574 38.678 152.676 38.2757 152.676 37.845C152.427 37.6977 152.121 37.5787 151.758 37.488C151.407 37.386 151.033 37.335 150.636 37.335C149.888 37.335 149.355 37.4823 149.038 37.777C148.721 38.0717 148.562 38.44 148.562 38.882C148.562 39.29 148.715 39.6243 149.021 39.885C149.327 40.1457 149.735 40.276 150.245 40.276ZM156.499 41.5V29.328H158.335V41.5H156.499ZM160.517 41.5V29.328H162.353V41.5H160.517ZM168.395 41.772C167.545 41.772 166.786 41.5737 166.117 41.177C165.449 40.7803 164.922 40.2363 164.536 39.545C164.162 38.8537 163.975 38.066 163.975 37.182C163.975 36.3547 164.157 35.5897 164.519 34.887C164.882 34.1843 165.386 33.6233 166.032 33.204C166.69 32.7733 167.443 32.558 168.293 32.558C169.189 32.558 169.948 32.7507 170.571 33.136C171.206 33.5213 171.688 34.0483 172.016 34.717C172.345 35.3857 172.509 36.1393 172.509 36.978C172.509 37.1027 172.504 37.216 172.492 37.318C172.492 37.42 172.487 37.4993 172.475 37.556H165.777C165.823 38.032 165.942 38.4457 166.134 38.797C166.384 39.239 166.712 39.5733 167.12 39.8C167.528 40.0267 167.97 40.14 168.446 40.14C169.024 40.14 169.506 40.0097 169.891 39.749C170.288 39.477 170.6 39.1427 170.826 38.746L172.339 39.477C171.965 40.157 171.455 40.7123 170.809 41.143C170.163 41.5623 169.359 41.772 168.395 41.772ZM165.879 36.179H170.69C170.679 35.9637 170.622 35.737 170.52 35.499C170.418 35.2497 170.271 35.023 170.078 34.819C169.886 34.615 169.642 34.4507 169.347 34.326C169.053 34.19 168.707 34.122 168.31 34.122C167.812 34.122 167.37 34.2523 166.984 34.513C166.599 34.7623 166.299 35.1137 166.083 35.567C165.993 35.7597 165.925 35.9637 165.879 36.179ZM173.369 32.83H174.882V30.382H176.718V32.83H178.843V34.428H176.718V38.593C176.718 39.0237 176.803 39.3523 176.973 39.579C177.154 39.8057 177.454 39.919 177.874 39.919C178.078 39.919 178.259 39.8907 178.418 39.834C178.576 39.766 178.735 39.6867 178.894 39.596V41.381C178.701 41.4603 178.497 41.5227 178.282 41.568C178.066 41.6133 177.811 41.636 177.517 41.636C176.712 41.636 176.072 41.4037 175.596 40.939C175.12 40.463 174.882 39.8113 174.882 38.984V34.428H173.369V32.83Z" fill="white"/>
</svg>
