<svg width="241" height="55" viewBox="0 0 241 55" fill="none" xmlns="http://www.w3.org/2000/svg">
<rect x="0.5" y="0.5" width="240" height="54" rx="27" fill="#1F1F1F"/>
<rect x="0.5" y="0.5" width="240" height="54" rx="27" stroke="#747775"/>
<path d="M57 23.791H21V18.1455C21 15.0809 23.6422 12.5001 26.7798 12.5001H51.2202C54.3578 12.5001 57 15.0809 57 18.1455V23.791Z" fill="#34A853"/>
<path d="M57 29H21V23C21 19.7429 23.6422 17 26.7798 17H51.2202C54.3578 17 57 19.7429 57 23V29Z" fill="#FBBC04"/>
<path d="M57 34H21V28C21 24.7429 23.6422 22 26.7798 22H51.2202C54.3578 22 57 24.7429 57 28V34Z" fill="#EA4335"/>
<path d="M21 25.2409L43.8493 30.4025C46.4795 31.0477 49.4384 30.4025 51.5753 28.7895L57 24.9183V37.0157C57 40.0804 54.3699 42.4999 51.2466 42.4999H26.7534C23.6301 42.4999 21 40.0804 21 37.0157V25.2409Z" fill="#4285F4"/>
<path d="M69.195 21.5L72.705 12.192H74.33L77.853 21.5H76.28L75.422 19.108H71.626L70.768 21.5H69.195ZM74.941 17.782L73.914 14.935L73.563 13.869H73.485L73.134 14.935L72.107 17.782H74.941ZM77.9587 16.092V14.87H79.1677V14.324C79.1677 13.8473 79.2674 13.4443 79.4667 13.115C79.6661 12.777 79.9391 12.5213 80.2857 12.348C80.6324 12.1747 81.0181 12.088 81.4427 12.088C81.6594 12.088 81.8327 12.101 81.9627 12.127C82.0927 12.153 82.2011 12.179 82.2877 12.205V13.557C82.2011 13.531 82.0971 13.5007 81.9757 13.466C81.8544 13.4227 81.6984 13.401 81.5077 13.401C81.3431 13.401 81.1871 13.44 81.0397 13.518C80.8924 13.596 80.7754 13.713 80.6887 13.869C80.6021 14.025 80.5587 14.2157 80.5587 14.441V14.87H83.3927V14.324C83.3927 13.8473 83.4924 13.4443 83.6917 13.115C83.8911 12.777 84.1641 12.5213 84.5107 12.348C84.8574 12.1747 85.2431 12.088 85.6677 12.088C85.8844 12.088 86.0577 12.101 86.1877 12.127C86.3177 12.153 86.4261 12.179 86.5127 12.205V13.557C86.4261 13.531 86.3221 13.5007 86.2007 13.466C86.0794 13.4227 85.9234 13.401 85.7327 13.401C85.5681 13.401 85.4121 13.44 85.2647 13.518C85.1174 13.596 85.0004 13.713 84.9137 13.869C84.8271 14.025 84.7837 14.2157 84.7837 14.441V14.87H88.9957V21.5H87.5917V16.092H84.7837V21.5H83.3927V16.092H80.5587V21.5H79.1677V16.092H77.9587ZM88.2937 13.895C88.0337 13.895 87.8084 13.804 87.6177 13.622C87.4357 13.4313 87.3447 13.206 87.3447 12.946C87.3447 12.6773 87.4357 12.4563 87.6177 12.283C87.8084 12.101 88.0337 12.01 88.2937 12.01C88.5624 12.01 88.7877 12.101 88.9697 12.283C89.1517 12.4563 89.2427 12.6773 89.2427 12.946C89.2427 13.206 89.1517 13.4313 88.9697 13.622C88.7877 13.804 88.5624 13.895 88.2937 13.895ZM93.7454 21.708C93.0781 21.708 92.4844 21.5563 91.9644 21.253C91.4531 20.9497 91.0501 20.5337 90.7554 20.005C90.4694 19.4677 90.3264 18.861 90.3264 18.185C90.3264 17.509 90.4694 16.9067 90.7554 16.378C91.0501 15.8493 91.4531 15.4333 91.9644 15.13C92.4844 14.818 93.0781 14.662 93.7454 14.662C94.4821 14.662 95.1017 14.8267 95.6044 15.156C96.1157 15.4853 96.4797 15.9317 96.6964 16.495L95.4224 17.015C95.2664 16.6597 95.0411 16.3953 94.7464 16.222C94.4604 16.04 94.1181 15.949 93.7194 15.949C93.3554 15.949 93.0217 16.0443 92.7184 16.235C92.4151 16.417 92.1724 16.6727 91.9904 17.002C91.8084 17.3313 91.7174 17.7257 91.7174 18.185C91.7174 18.6357 91.8084 19.03 91.9904 19.368C92.1724 19.706 92.4151 19.966 92.7184 20.148C93.0217 20.33 93.3554 20.421 93.7194 20.421C94.1441 20.421 94.5037 20.3257 94.7984 20.135C95.0931 19.9443 95.3227 19.6757 95.4874 19.329L96.7354 19.875C96.4927 20.4037 96.1157 20.8413 95.6044 21.188C95.1017 21.5347 94.4821 21.708 93.7454 21.708ZM97.9391 21.5V12.192H99.3431V14.74L99.2651 15.78H99.3431C99.5251 15.4593 99.8025 15.195 100.175 14.987C100.556 14.7703 100.977 14.662 101.436 14.662C101.991 14.662 102.45 14.7747 102.814 15C103.187 15.2253 103.464 15.5373 103.646 15.936C103.828 16.326 103.919 16.7853 103.919 17.314V21.5H102.528V17.496C102.528 17.1407 102.459 16.8503 102.32 16.625C102.19 16.3997 102.017 16.2307 101.8 16.118C101.583 16.0053 101.341 15.949 101.072 15.949C100.734 15.949 100.435 16.0443 100.175 16.235C99.9151 16.4257 99.7115 16.677 99.5641 16.989C99.4168 17.2923 99.3431 17.6173 99.3431 17.964V21.5H97.9391ZM108.547 21.708C107.897 21.708 107.317 21.5563 106.805 21.253C106.294 20.9497 105.891 20.5337 105.596 20.005C105.31 19.4763 105.167 18.874 105.167 18.198C105.167 17.5653 105.306 16.9803 105.583 16.443C105.861 15.9057 106.246 15.4767 106.74 15.156C107.243 14.8267 107.819 14.662 108.469 14.662C109.154 14.662 109.735 14.8093 110.211 15.104C110.697 15.3987 111.065 15.8017 111.316 16.313C111.568 16.8243 111.693 17.4007 111.693 18.042C111.693 18.1373 111.689 18.224 111.68 18.302C111.68 18.38 111.676 18.4407 111.667 18.484H106.545C106.58 18.848 106.671 19.1643 106.818 19.433C107.009 19.771 107.26 20.0267 107.572 20.2C107.884 20.3733 108.222 20.46 108.586 20.46C109.028 20.46 109.397 20.3603 109.691 20.161C109.995 19.953 110.233 19.6973 110.406 19.394L111.563 19.953C111.277 20.473 110.887 20.8977 110.393 21.227C109.899 21.5477 109.284 21.708 108.547 21.708ZM106.623 17.431H110.302C110.294 17.2663 110.25 17.093 110.172 16.911C110.094 16.7203 109.982 16.547 109.834 16.391C109.687 16.235 109.501 16.1093 109.275 16.014C109.05 15.91 108.786 15.858 108.482 15.858C108.101 15.858 107.763 15.9577 107.468 16.157C107.174 16.3477 106.944 16.6163 106.779 16.963C106.71 17.1103 106.658 17.2663 106.623 17.431ZM112.996 21.5V14.87H114.322V15.845H114.4C114.504 15.6197 114.651 15.4203 114.842 15.247C115.041 15.0737 115.266 14.935 115.518 14.831C115.778 14.727 116.046 14.675 116.324 14.675C116.506 14.675 116.657 14.688 116.779 14.714C116.909 14.7313 117.026 14.7617 117.13 14.805V16.261C116.965 16.1917 116.796 16.1353 116.623 16.092C116.458 16.0487 116.285 16.027 116.103 16.027C115.773 16.027 115.479 16.118 115.219 16.3C114.967 16.4733 114.768 16.7073 114.621 17.002C114.473 17.2967 114.4 17.626 114.4 17.99V21.5H112.996ZM124.082 21.708C123.484 21.708 122.942 21.5563 122.457 21.253C121.971 20.9497 121.59 20.5337 121.313 20.005C121.035 19.4763 120.897 18.8697 120.897 18.185C120.897 17.5003 121.035 16.8937 121.313 16.365C121.59 15.8363 121.971 15.4203 122.457 15.117C122.942 14.8137 123.484 14.662 124.082 14.662C124.428 14.662 124.74 14.714 125.018 14.818C125.295 14.922 125.533 15.0607 125.733 15.234C125.941 15.3987 126.101 15.5763 126.214 15.767H126.292L126.214 14.844V12.192H127.605V21.5H126.292V20.616H126.214C126.101 20.798 125.941 20.9757 125.733 21.149C125.533 21.3137 125.295 21.448 125.018 21.552C124.74 21.656 124.428 21.708 124.082 21.708ZM124.29 20.421C124.636 20.421 124.961 20.33 125.265 20.148C125.577 19.966 125.824 19.7103 126.006 19.381C126.196 19.043 126.292 18.6443 126.292 18.185C126.292 17.7257 126.196 17.3313 126.006 17.002C125.824 16.664 125.577 16.404 125.265 16.222C124.961 16.04 124.636 15.949 124.29 15.949C123.943 15.949 123.618 16.04 123.315 16.222C123.011 16.404 122.764 16.664 122.574 17.002C122.383 17.3313 122.288 17.7257 122.288 18.185C122.288 18.6357 122.383 19.03 122.574 19.368C122.764 19.706 123.011 19.966 123.315 20.148C123.618 20.33 123.943 20.421 124.29 20.421ZM131.275 21.708C130.798 21.708 130.374 21.6127 130.001 21.422C129.637 21.2313 129.347 20.9713 129.13 20.642C128.922 20.304 128.818 19.9183 128.818 19.485C128.818 19.0083 128.939 18.6053 129.182 18.276C129.433 17.9467 129.767 17.6953 130.183 17.522C130.599 17.3487 131.058 17.262 131.561 17.262C131.838 17.262 132.094 17.2837 132.328 17.327C132.571 17.3617 132.779 17.405 132.952 17.457C133.134 17.509 133.277 17.5653 133.381 17.626V17.275C133.381 16.8417 133.225 16.495 132.913 16.235C132.601 15.975 132.198 15.845 131.704 15.845C131.366 15.845 131.045 15.923 130.742 16.079C130.439 16.2263 130.196 16.43 130.014 16.69L129.052 15.949C129.243 15.6803 129.472 15.4507 129.741 15.26C130.018 15.0693 130.326 14.922 130.664 14.818C131.011 14.714 131.37 14.662 131.743 14.662C132.705 14.662 133.446 14.9003 133.966 15.377C134.486 15.845 134.746 16.5037 134.746 17.353V21.5H133.381V20.681H133.303C133.19 20.8543 133.034 21.019 132.835 21.175C132.644 21.331 132.415 21.4567 132.146 21.552C131.886 21.656 131.596 21.708 131.275 21.708ZM131.522 20.564C131.886 20.564 132.207 20.4773 132.484 20.304C132.77 20.1307 132.991 19.9053 133.147 19.628C133.303 19.342 133.381 19.0343 133.381 18.705C133.19 18.5923 132.956 18.5013 132.679 18.432C132.41 18.354 132.124 18.315 131.821 18.315C131.249 18.315 130.842 18.4277 130.599 18.653C130.356 18.8783 130.235 19.16 130.235 19.498C130.235 19.81 130.352 20.0657 130.586 20.265C130.82 20.4643 131.132 20.564 131.522 20.564ZM136.292 21.5V14.87H137.618V15.78H137.696C137.886 15.4593 138.168 15.195 138.541 14.987C138.922 14.7703 139.338 14.662 139.789 14.662C140.603 14.662 141.214 14.9047 141.622 15.39C142.029 15.8667 142.233 16.508 142.233 17.314V21.5H140.842V17.496C140.842 16.9587 140.707 16.5687 140.439 16.326C140.17 16.0747 139.819 15.949 139.386 15.949C139.048 15.949 138.753 16.0443 138.502 16.235C138.25 16.417 138.051 16.6597 137.904 16.963C137.765 17.2663 137.696 17.5913 137.696 17.938V21.5H136.292ZM146.187 21.708C145.659 21.708 145.199 21.63 144.809 21.474C144.419 21.3093 144.099 21.0927 143.847 20.824C143.596 20.5467 143.41 20.2477 143.288 19.927L144.549 19.381C144.705 19.7363 144.926 20.0093 145.212 20.2C145.507 20.382 145.845 20.473 146.226 20.473C146.573 20.473 146.872 20.4123 147.123 20.291C147.375 20.161 147.5 19.953 147.5 19.667C147.5 19.485 147.44 19.3377 147.318 19.225C147.206 19.1037 147.05 19.004 146.85 18.926C146.66 18.848 146.439 18.7787 146.187 18.718L145.394 18.536C145.082 18.458 144.783 18.3367 144.497 18.172C144.22 17.9987 143.995 17.782 143.821 17.522C143.648 17.262 143.561 16.9543 143.561 16.599C143.561 16.2003 143.674 15.858 143.899 15.572C144.133 15.2773 144.445 15.052 144.835 14.896C145.225 14.74 145.646 14.662 146.096 14.662C146.512 14.662 146.889 14.7183 147.227 14.831C147.574 14.935 147.873 15.0953 148.124 15.312C148.384 15.52 148.588 15.78 148.735 16.092L147.526 16.638C147.379 16.3433 147.18 16.1397 146.928 16.027C146.677 15.9057 146.404 15.845 146.109 15.845C145.78 15.845 145.503 15.9143 145.277 16.053C145.061 16.183 144.952 16.3563 144.952 16.573C144.952 16.7983 145.048 16.976 145.238 17.106C145.438 17.236 145.68 17.34 145.966 17.418L146.928 17.652C147.587 17.8167 148.081 18.068 148.41 18.406C148.74 18.7353 148.904 19.1383 148.904 19.615C148.904 20.0397 148.783 20.4123 148.54 20.733C148.298 21.045 147.968 21.2877 147.552 21.461C147.145 21.6257 146.69 21.708 146.187 21.708Z" fill="white"/>
<path d="M76.14 41.772C75.2673 41.772 74.4457 41.6133 73.675 41.296C72.9043 40.9787 72.2243 40.5367 71.635 39.97C71.057 39.392 70.598 38.7177 70.258 37.947C69.9293 37.165 69.765 36.3207 69.765 35.414C69.765 34.5073 69.9293 33.6687 70.258 32.898C70.598 32.116 71.057 31.4417 71.635 30.875C72.2243 30.297 72.9043 29.8493 73.675 29.532C74.4457 29.2147 75.2673 29.056 76.14 29.056C77.0693 29.056 77.925 29.2203 78.707 29.549C79.5003 29.8777 80.1633 30.3367 80.696 30.926L79.404 32.201C79.1433 31.9063 78.843 31.657 78.503 31.453C78.1743 31.249 77.8117 31.096 77.415 30.994C77.0183 30.8807 76.5933 30.824 76.14 30.824C75.5393 30.824 74.967 30.9317 74.423 31.147C73.879 31.3623 73.3973 31.674 72.978 32.082C72.57 32.4787 72.247 32.9603 72.009 33.527C71.771 34.0823 71.652 34.7113 71.652 35.414C71.652 36.1167 71.771 36.7513 72.009 37.318C72.2583 37.8733 72.587 38.355 72.995 38.763C73.4143 39.1597 73.896 39.4657 74.44 39.681C74.984 39.8963 75.5563 40.004 76.157 40.004C76.7123 40.004 77.228 39.9247 77.704 39.766C78.1913 39.6073 78.6163 39.3807 78.979 39.086C79.3417 38.7913 79.6363 38.4343 79.863 38.015C80.0897 37.5843 80.2313 37.1027 80.288 36.57H76.123V34.921H82.039C82.0617 35.057 82.0843 35.2157 82.107 35.397C82.1297 35.567 82.141 35.7313 82.141 35.89V35.907C82.141 36.7797 81.988 37.5787 81.682 38.304C81.3873 39.0293 80.9737 39.6527 80.441 40.174C79.9083 40.684 79.2737 41.0807 78.537 41.364C77.8117 41.636 77.0127 41.772 76.14 41.772ZM87.6149 41.772C86.7195 41.772 85.9319 41.568 85.2519 41.16C84.5719 40.752 84.0392 40.2023 83.6539 39.511C83.2685 38.8083 83.0759 38.0263 83.0759 37.165C83.0759 36.3037 83.2685 35.5273 83.6539 34.836C84.0392 34.1333 84.5719 33.578 85.2519 33.17C85.9319 32.762 86.7195 32.558 87.6149 32.558C88.4989 32.558 89.2809 32.7677 89.9609 33.187C90.6409 33.595 91.1735 34.1447 91.5589 34.836C91.9442 35.5273 92.1369 36.3037 92.1369 37.165C92.1369 38.0263 91.9442 38.8083 91.5589 39.511C91.1735 40.2023 90.6409 40.752 89.9609 41.16C89.2809 41.568 88.4989 41.772 87.6149 41.772ZM87.6149 40.089C88.0909 40.089 88.5329 39.9757 88.9409 39.749C89.3489 39.511 89.6775 39.1767 89.9269 38.746C90.1875 38.304 90.3179 37.777 90.3179 37.165C90.3179 36.553 90.1875 36.0317 89.9269 35.601C89.6775 35.159 89.3489 34.8247 88.9409 34.598C88.5329 34.36 88.0909 34.241 87.6149 34.241C87.1389 34.241 86.6912 34.36 86.2719 34.598C85.8639 34.8247 85.5295 35.159 85.2689 35.601C85.0195 36.0317 84.8949 36.553 84.8949 37.165C84.8949 37.777 85.0195 38.304 85.2689 38.746C85.5295 39.1767 85.8695 39.511 86.2889 39.749C86.7082 39.9757 87.1502 40.089 87.6149 40.089ZM97.9078 41.772C97.0125 41.772 96.2248 41.568 95.5448 41.16C94.8648 40.752 94.3322 40.2023 93.9468 39.511C93.5615 38.8083 93.3688 38.0263 93.3688 37.165C93.3688 36.3037 93.5615 35.5273 93.9468 34.836C94.3322 34.1333 94.8648 33.578 95.5448 33.17C96.2248 32.762 97.0125 32.558 97.9078 32.558C98.7918 32.558 99.5738 32.7677 100.254 33.187C100.934 33.595 101.467 34.1447 101.852 34.836C102.237 35.5273 102.43 36.3037 102.43 37.165C102.43 38.0263 102.237 38.8083 101.852 39.511C101.467 40.2023 100.934 40.752 100.254 41.16C99.5738 41.568 98.7918 41.772 97.9078 41.772ZM97.9078 40.089C98.3838 40.089 98.8258 39.9757 99.2338 39.749C99.6418 39.511 99.9705 39.1767 100.22 38.746C100.481 38.304 100.611 37.777 100.611 37.165C100.611 36.553 100.481 36.0317 100.22 35.601C99.9705 35.159 99.6418 34.8247 99.2338 34.598C98.8258 34.36 98.3838 34.241 97.9078 34.241C97.4318 34.241 96.9842 34.36 96.5648 34.598C96.1568 34.8247 95.8225 35.159 95.5618 35.601C95.3125 36.0317 95.1878 36.553 95.1878 37.165C95.1878 37.777 95.3125 38.304 95.5618 38.746C95.8225 39.1767 96.1625 39.511 96.5818 39.749C97.0012 39.9757 97.4432 40.089 97.9078 40.089ZM108.031 45.444C107.271 45.444 106.614 45.3193 106.059 45.07C105.515 44.832 105.073 44.5203 104.733 44.135C104.393 43.761 104.149 43.3757 104.002 42.979L105.702 42.265C105.883 42.7183 106.172 43.0867 106.569 43.37C106.977 43.6647 107.464 43.812 108.031 43.812C108.835 43.812 109.464 43.574 109.918 43.098C110.371 42.622 110.598 41.9477 110.598 41.075V40.242H110.496C110.224 40.6387 109.85 40.9617 109.374 41.211C108.898 41.4603 108.348 41.585 107.725 41.585C106.988 41.585 106.308 41.398 105.685 41.024C105.073 40.65 104.58 40.1287 104.206 39.46C103.843 38.78 103.662 37.9867 103.662 37.08C103.662 36.162 103.843 35.3687 104.206 34.7C104.58 34.02 105.073 33.493 105.685 33.119C106.308 32.745 106.988 32.558 107.725 32.558C108.348 32.558 108.898 32.6827 109.374 32.932C109.85 33.17 110.224 33.4987 110.496 33.918H110.598V32.83H112.349V41.041C112.349 41.9817 112.162 42.7807 111.788 43.438C111.425 44.0953 110.921 44.594 110.275 44.934C109.629 45.274 108.881 45.444 108.031 45.444ZM108.048 39.919C108.501 39.919 108.92 39.8113 109.306 39.596C109.702 39.3693 110.014 39.0463 110.241 38.627C110.479 38.1963 110.598 37.6807 110.598 37.08C110.598 36.4453 110.479 35.9183 110.241 35.499C110.014 35.0797 109.702 34.7623 109.306 34.547C108.92 34.3317 108.501 34.224 108.048 34.224C107.594 34.224 107.169 34.3317 106.773 34.547C106.387 34.7623 106.076 35.0853 105.838 35.516C105.6 35.9353 105.481 36.4567 105.481 37.08C105.481 37.692 105.6 38.2133 105.838 38.644C106.076 39.0633 106.387 39.3807 106.773 39.596C107.169 39.8113 107.594 39.919 108.048 39.919ZM114.514 41.5V29.328H116.35V41.5H114.514ZM122.392 41.772C121.542 41.772 120.783 41.5737 120.114 41.177C119.446 40.7803 118.919 40.2363 118.533 39.545C118.159 38.8537 117.972 38.066 117.972 37.182C117.972 36.3547 118.154 35.5897 118.516 34.887C118.879 34.1843 119.383 33.6233 120.029 33.204C120.687 32.7733 121.44 32.558 122.29 32.558C123.186 32.558 123.945 32.7507 124.568 33.136C125.203 33.5213 125.685 34.0483 126.013 34.717C126.342 35.3857 126.506 36.1393 126.506 36.978C126.506 37.1027 126.501 37.216 126.489 37.318C126.489 37.42 126.484 37.4993 126.472 37.556H119.774C119.82 38.032 119.939 38.4457 120.131 38.797C120.381 39.239 120.709 39.5733 121.117 39.8C121.525 40.0267 121.967 40.14 122.443 40.14C123.021 40.14 123.503 40.0097 123.888 39.749C124.285 39.477 124.597 39.1427 124.823 38.746L126.336 39.477C125.962 40.157 125.452 40.7123 124.806 41.143C124.16 41.5623 123.356 41.772 122.392 41.772ZM119.876 36.179H124.687C124.676 35.9637 124.619 35.737 124.517 35.499C124.415 35.2497 124.268 35.023 124.075 34.819C123.883 34.615 123.639 34.4507 123.344 34.326C123.05 34.19 122.704 34.122 122.307 34.122C121.809 34.122 121.367 34.2523 120.981 34.513C120.596 34.7623 120.296 35.1137 120.08 35.567C119.99 35.7597 119.922 35.9637 119.876 36.179ZM132.483 41.5V29.328H136.665C137.402 29.328 138.071 29.4867 138.671 29.804C139.272 30.11 139.748 30.5463 140.099 31.113C140.462 31.6683 140.643 32.3143 140.643 33.051C140.643 33.7763 140.462 34.4223 140.099 34.989C139.748 35.5557 139.272 35.9977 138.671 36.315C138.071 36.621 137.402 36.774 136.665 36.774H134.353V41.5H132.483ZM134.353 35.006H136.716C137.158 35.006 137.532 34.9153 137.838 34.734C138.144 34.5413 138.377 34.2977 138.535 34.003C138.705 33.697 138.79 33.3797 138.79 33.051C138.79 32.7223 138.705 32.4107 138.535 32.116C138.377 31.8213 138.144 31.5777 137.838 31.385C137.532 31.1923 137.158 31.096 136.716 31.096H134.353V35.006ZM145.737 41.772C144.842 41.772 144.054 41.568 143.374 41.16C142.694 40.752 142.161 40.2023 141.776 39.511C141.391 38.8083 141.198 38.0263 141.198 37.165C141.198 36.3037 141.391 35.5273 141.776 34.836C142.161 34.1333 142.694 33.578 143.374 33.17C144.054 32.762 144.842 32.558 145.737 32.558C146.621 32.558 147.403 32.7677 148.083 33.187C148.763 33.595 149.296 34.1447 149.681 34.836C150.066 35.5273 150.259 36.3037 150.259 37.165C150.259 38.0263 150.066 38.8083 149.681 39.511C149.296 40.2023 148.763 40.752 148.083 41.16C147.403 41.568 146.621 41.772 145.737 41.772ZM145.737 40.089C146.213 40.089 146.655 39.9757 147.063 39.749C147.471 39.511 147.8 39.1767 148.049 38.746C148.31 38.304 148.44 37.777 148.44 37.165C148.44 36.553 148.31 36.0317 148.049 35.601C147.8 35.159 147.471 34.8247 147.063 34.598C146.655 34.36 146.213 34.241 145.737 34.241C145.261 34.241 144.813 34.36 144.394 34.598C143.986 34.8247 143.652 35.159 143.391 35.601C143.142 36.0317 143.017 36.553 143.017 37.165C143.017 37.777 143.142 38.304 143.391 38.746C143.652 39.1767 143.992 39.511 144.411 39.749C144.83 39.9757 145.272 40.089 145.737 40.089ZM158.074 32.83H159.587V30.382H161.423V32.83H163.548V34.428H161.423V38.593C161.423 39.0237 161.508 39.3523 161.678 39.579C161.859 39.8057 162.16 39.919 162.579 39.919C162.783 39.919 162.964 39.8907 163.123 39.834C163.282 39.766 163.44 39.6867 163.599 39.596V41.381C163.406 41.4603 163.202 41.5227 162.987 41.568C162.772 41.6133 162.522 41.636 162.239 41.636C161.423 41.636 160.777 41.4037 160.301 40.939C159.825 40.463 159.587 39.8113 159.587 38.984V34.428H158.074V32.83ZM151.784 41.5V32.83H153.518V34.105H153.62C153.779 33.7877 153.988 33.5213 154.249 33.306C154.51 33.0793 154.81 32.9037 155.15 32.779C155.501 32.6543 155.858 32.592 156.221 32.592C156.391 32.592 156.527 32.5977 156.629 32.609C156.742 32.609 156.844 32.626 156.935 32.66V34.496C156.81 34.4507 156.674 34.4223 156.527 34.411C156.38 34.3883 156.21 34.377 156.017 34.377C155.541 34.377 155.122 34.4847 154.759 34.7C154.396 34.904 154.113 35.1987 153.909 35.584C153.716 35.9693 153.62 36.4283 153.62 36.961V41.5H151.784ZM168.96 41.772C168.11 41.772 167.35 41.5737 166.682 41.177C166.013 40.7803 165.486 40.2363 165.101 39.545C164.727 38.8537 164.54 38.066 164.54 37.182C164.54 36.3547 164.721 35.5897 165.084 34.887C165.446 34.1843 165.951 33.6233 166.597 33.204C167.254 32.7733 168.008 32.558 168.858 32.558C169.753 32.558 170.512 32.7507 171.136 33.136C171.77 33.5213 172.252 34.0483 172.581 34.717C172.909 35.3857 173.074 36.1393 173.074 36.978C173.074 37.1027 173.068 37.216 173.057 37.318C173.057 37.42 173.051 37.4993 173.04 37.556H166.342C166.387 38.032 166.506 38.4457 166.699 38.797C166.948 39.239 167.277 39.5733 167.685 39.8C168.093 40.0267 168.535 40.14 169.011 40.14C169.589 40.14 170.07 40.0097 170.456 39.749C170.852 39.477 171.164 39.1427 171.391 38.746L172.904 39.477C172.53 40.157 172.02 40.7123 171.374 41.143C170.728 41.5623 169.923 41.772 168.96 41.772ZM166.444 36.179H171.255C171.243 35.9637 171.187 35.737 171.085 35.499C170.983 35.2497 170.835 35.023 170.643 34.819C170.45 34.615 170.206 34.4507 169.912 34.326C169.617 34.19 169.271 34.122 168.875 34.122C168.376 34.122 167.934 34.2523 167.549 34.513C167.163 34.7623 166.863 35.1137 166.648 35.567C166.557 35.7597 166.489 35.9637 166.444 36.179ZM174.016 34.428V32.83H175.597V32.116C175.597 31.4927 175.727 30.9657 175.988 30.535C176.249 30.093 176.606 29.7587 177.059 29.532C177.512 29.3053 178.017 29.192 178.572 29.192C178.878 29.192 179.139 29.2147 179.354 29.26C179.581 29.294 179.768 29.3393 179.915 29.396V31.181C179.768 31.1243 179.598 31.0677 179.405 31.011C179.224 30.943 178.997 30.909 178.725 30.909C178.374 30.909 178.068 31.028 177.807 31.266C177.546 31.4927 177.416 31.827 177.416 32.269V32.83H179.592V34.428H177.416V41.5H175.597V34.428H174.016ZM184.781 41.772C183.931 41.772 183.172 41.5737 182.503 41.177C181.834 40.7803 181.307 40.2363 180.922 39.545C180.548 38.8537 180.361 38.066 180.361 37.182C180.361 36.3547 180.542 35.5897 180.905 34.887C181.268 34.1843 181.772 33.6233 182.418 33.204C183.075 32.7733 183.829 32.558 184.679 32.558C185.574 32.558 186.334 32.7507 186.957 33.136C187.592 33.5213 188.073 34.0483 188.402 34.717C188.731 35.3857 188.895 36.1393 188.895 36.978C188.895 37.1027 188.889 37.216 188.878 37.318C188.878 37.42 188.872 37.4993 188.861 37.556H182.163C182.208 38.032 182.327 38.4457 182.52 38.797C182.769 39.239 183.098 39.5733 183.506 39.8C183.914 40.0267 184.356 40.14 184.832 40.14C185.41 40.14 185.892 40.0097 186.277 39.749C186.674 39.477 186.985 39.1427 187.212 38.746L188.725 39.477C188.351 40.157 187.841 40.7123 187.195 41.143C186.549 41.5623 185.744 41.772 184.781 41.772ZM182.265 36.179H187.076C187.065 35.9637 187.008 35.737 186.906 35.499C186.804 35.2497 186.657 35.023 186.464 34.819C186.271 34.615 186.028 34.4507 185.733 34.326C185.438 34.19 185.093 34.122 184.696 34.122C184.197 34.122 183.755 34.2523 183.37 34.513C182.985 34.7623 182.684 35.1137 182.469 35.567C182.378 35.7597 182.31 35.9637 182.265 36.179ZM193.743 41.772C192.678 41.772 191.873 41.4547 191.329 40.82C190.797 40.174 190.53 39.3013 190.53 38.202V32.83H192.366V37.947C192.366 38.6723 192.536 39.2107 192.876 39.562C193.228 39.9133 193.664 40.089 194.185 40.089C194.661 40.089 195.069 39.97 195.409 39.732C195.749 39.4827 196.01 39.1597 196.191 38.763C196.384 38.3663 196.48 37.9413 196.48 37.488V32.83H198.299V41.5H196.582V40.327H196.48C196.322 40.599 196.101 40.8427 195.817 41.058C195.534 41.2733 195.217 41.4433 194.865 41.568C194.514 41.704 194.14 41.772 193.743 41.772ZM200.596 41.5V32.83H202.432V41.5H200.596ZM201.514 31.555C201.174 31.555 200.879 31.436 200.63 31.198C200.392 30.9487 200.273 30.654 200.273 30.314C200.273 29.9627 200.392 29.6737 200.63 29.447C200.879 29.209 201.174 29.09 201.514 29.09C201.865 29.09 202.16 29.209 202.398 29.447C202.636 29.6737 202.755 29.9627 202.755 30.314C202.755 30.654 202.636 30.9487 202.398 31.198C202.16 31.436 201.865 31.555 201.514 31.555ZM204.727 41.5V29.328H206.563V41.5H204.727ZM208.744 41.5V29.328H210.58V41.5H208.744ZM216.623 41.772C215.773 41.772 215.013 41.5737 214.345 41.177C213.676 40.7803 213.149 40.2363 212.764 39.545C212.39 38.8537 212.203 38.066 212.203 37.182C212.203 36.3547 212.384 35.5897 212.747 34.887C213.109 34.1843 213.614 33.6233 214.26 33.204C214.917 32.7733 215.671 32.558 216.521 32.558C217.416 32.558 218.175 32.7507 218.799 33.136C219.433 33.5213 219.915 34.0483 220.244 34.717C220.572 35.3857 220.737 36.1393 220.737 36.978C220.737 37.1027 220.731 37.216 220.72 37.318C220.72 37.42 220.714 37.4993 220.703 37.556H214.005C214.05 38.032 214.169 38.4457 214.362 38.797C214.611 39.239 214.94 39.5733 215.348 39.8C215.756 40.0267 216.198 40.14 216.674 40.14C217.252 40.14 217.733 40.0097 218.119 39.749C218.515 39.477 218.827 39.1427 219.054 38.746L220.567 39.477C220.193 40.157 219.683 40.7123 219.037 41.143C218.391 41.5623 217.586 41.772 216.623 41.772ZM214.107 36.179H218.918C218.906 35.9637 218.85 35.737 218.748 35.499C218.646 35.2497 218.498 35.023 218.306 34.819C218.113 34.615 217.869 34.4507 217.575 34.326C217.28 34.19 216.934 34.122 216.538 34.122C216.039 34.122 215.597 34.2523 215.212 34.513C214.826 34.7623 214.526 35.1137 214.311 35.567C214.22 35.7597 214.152 35.9637 214.107 36.179Z" fill="white"/>
</svg>
