<svg width="184" height="55" viewBox="0 0 184 55" fill="none" xmlns="http://www.w3.org/2000/svg">
<rect x="0.5" y="0.5" width="183" height="54" rx="27" fill="#1F1F1F"/>
<rect x="0.5" y="0.5" width="183" height="54" rx="27" stroke="#747775"/>
<path d="M57 23.791H21V18.1455C21 15.0809 23.6422 12.5001 26.7798 12.5001H51.2202C54.3578 12.5001 57 15.0809 57 18.1455V23.791Z" fill="#34A853"/>
<path d="M57 29H21V23C21 19.7429 23.6422 17 26.7798 17H51.2202C54.3578 17 57 19.7429 57 23V29Z" fill="#FBBC04"/>
<path d="M57 34H21V28C21 24.7429 23.6422 22 26.7798 22H51.2202C54.3578 22 57 24.7429 57 28V34Z" fill="#EA4335"/>
<path d="M21 25.2409L43.8493 30.4025C46.4795 31.0477 49.4384 30.4025 51.5753 28.7895L57 24.9183V37.0157C57 40.0804 54.3699 42.4999 51.2466 42.4999H26.7534C23.6301 42.4999 21 40.0804 21 37.0157V25.2409Z" fill="#4285F4"/>
<path d="M74.46 21.708C73.7927 21.708 73.1643 21.5867 72.575 21.344C71.9857 21.1013 71.4657 20.7633 71.015 20.33C70.573 19.888 70.222 19.3723 69.962 18.783C69.7107 18.185 69.585 17.5393 69.585 16.846C69.585 16.1527 69.7107 15.5113 69.962 14.922C70.222 14.324 70.573 13.8083 71.015 13.375C71.4657 12.933 71.9857 12.5907 72.575 12.348C73.1643 12.1053 73.7927 11.984 74.46 11.984C75.1707 11.984 75.825 12.1097 76.423 12.361C77.0297 12.6123 77.5367 12.9633 77.944 13.414L76.956 14.389C76.7567 14.1637 76.527 13.973 76.267 13.817C76.0157 13.661 75.7383 13.544 75.435 13.466C75.1317 13.3793 74.8067 13.336 74.46 13.336C74.0007 13.336 73.563 13.4183 73.147 13.583C72.731 13.7477 72.3627 13.986 72.042 14.298C71.73 14.6013 71.483 14.9697 71.301 15.403C71.119 15.8277 71.028 16.3087 71.028 16.846C71.028 17.3833 71.119 17.8687 71.301 18.302C71.4917 18.7267 71.743 19.095 72.055 19.407C72.3757 19.7103 72.744 19.9443 73.16 20.109C73.576 20.2737 74.0137 20.356 74.473 20.356C74.8977 20.356 75.292 20.2953 75.656 20.174C76.0287 20.0527 76.3537 19.8793 76.631 19.654C76.9083 19.4287 77.1337 19.1557 77.307 18.835C77.4803 18.5057 77.5887 18.1373 77.632 17.73H74.447V16.469H78.971C78.9883 16.573 79.0057 16.6943 79.023 16.833C79.0403 16.963 79.049 17.0887 79.049 17.21V17.223C79.049 17.8903 78.932 18.5013 78.698 19.056C78.4727 19.6107 78.1563 20.0873 77.749 20.486C77.3417 20.876 76.8563 21.1793 76.293 21.396C75.7383 21.604 75.1273 21.708 74.46 21.708ZM83.2349 21.708C82.5502 21.708 81.9479 21.552 81.4279 21.24C80.9079 20.928 80.5006 20.5077 80.2059 19.979C79.9112 19.4417 79.7639 18.8437 79.7639 18.185C79.7639 17.5263 79.9112 16.9327 80.2059 16.404C80.5006 15.8667 80.9079 15.442 81.4279 15.13C81.9479 14.818 82.5502 14.662 83.2349 14.662C83.9109 14.662 84.5089 14.8223 85.0289 15.143C85.5489 15.455 85.9562 15.8753 86.2509 16.404C86.5456 16.9327 86.6929 17.5263 86.6929 18.185C86.6929 18.8437 86.5456 19.4417 86.2509 19.979C85.9562 20.5077 85.5489 20.928 85.0289 21.24C84.5089 21.552 83.9109 21.708 83.2349 21.708ZM83.2349 20.421C83.5989 20.421 83.9369 20.3343 84.2489 20.161C84.5609 19.979 84.8122 19.7233 85.0029 19.394C85.2022 19.056 85.3019 18.653 85.3019 18.185C85.3019 17.717 85.2022 17.3183 85.0029 16.989C84.8122 16.651 84.5609 16.3953 84.2489 16.222C83.9369 16.04 83.5989 15.949 83.2349 15.949C82.8709 15.949 82.5286 16.04 82.2079 16.222C81.8959 16.3953 81.6402 16.651 81.4409 16.989C81.2502 17.3183 81.1549 17.717 81.1549 18.185C81.1549 18.653 81.2502 19.056 81.4409 19.394C81.6402 19.7233 81.9002 19.979 82.2209 20.161C82.5416 20.3343 82.8796 20.421 83.2349 20.421ZM91.106 21.708C90.4213 21.708 89.819 21.552 89.299 21.24C88.779 20.928 88.3717 20.5077 88.077 19.979C87.7823 19.4417 87.635 18.8437 87.635 18.185C87.635 17.5263 87.7823 16.9327 88.077 16.404C88.3717 15.8667 88.779 15.442 89.299 15.13C89.819 14.818 90.4213 14.662 91.106 14.662C91.782 14.662 92.38 14.8223 92.9 15.143C93.42 15.455 93.8273 15.8753 94.122 16.404C94.4167 16.9327 94.564 17.5263 94.564 18.185C94.564 18.8437 94.4167 19.4417 94.122 19.979C93.8273 20.5077 93.42 20.928 92.9 21.24C92.38 21.552 91.782 21.708 91.106 21.708ZM91.106 20.421C91.47 20.421 91.808 20.3343 92.12 20.161C92.432 19.979 92.6833 19.7233 92.874 19.394C93.0733 19.056 93.173 18.653 93.173 18.185C93.173 17.717 93.0733 17.3183 92.874 16.989C92.6833 16.651 92.432 16.3953 92.12 16.222C91.808 16.04 91.47 15.949 91.106 15.949C90.742 15.949 90.3997 16.04 90.079 16.222C89.767 16.3953 89.5113 16.651 89.312 16.989C89.1213 17.3183 89.026 17.717 89.026 18.185C89.026 18.653 89.1213 19.056 89.312 19.394C89.5113 19.7233 89.7713 19.979 90.092 20.161C90.4127 20.3343 90.7507 20.421 91.106 20.421ZM98.8471 24.516C98.2664 24.516 97.7638 24.4207 97.3391 24.23C96.9231 24.048 96.5851 23.8097 96.3251 23.515C96.0651 23.229 95.8788 22.9343 95.7661 22.631L97.0661 22.085C97.2048 22.4317 97.4258 22.7133 97.7291 22.93C98.0411 23.1553 98.4138 23.268 98.8471 23.268C99.4624 23.268 99.9434 23.086 100.29 22.722C100.637 22.358 100.81 21.8423 100.81 21.175V20.538H100.732C100.524 20.8413 100.238 21.0883 99.8741 21.279C99.5101 21.4697 99.0898 21.565 98.6131 21.565C98.0498 21.565 97.5298 21.422 97.0531 21.136C96.5851 20.85 96.2081 20.4513 95.9221 19.94C95.6448 19.42 95.5061 18.8133 95.5061 18.12C95.5061 17.418 95.6448 16.8113 95.9221 16.3C96.2081 15.78 96.5851 15.377 97.0531 15.091C97.5298 14.805 98.0498 14.662 98.6131 14.662C99.0898 14.662 99.5101 14.7573 99.8741 14.948C100.238 15.13 100.524 15.3813 100.732 15.702H100.81V14.87H102.149V21.149C102.149 21.8683 102.006 22.4793 101.72 22.982C101.443 23.4847 101.057 23.866 100.563 24.126C100.069 24.386 99.4971 24.516 98.8471 24.516ZM98.8601 20.291C99.2068 20.291 99.5274 20.2087 99.8221 20.044C100.125 19.8707 100.364 19.6237 100.537 19.303C100.719 18.9737 100.81 18.5793 100.81 18.12C100.81 17.6347 100.719 17.2317 100.537 16.911C100.364 16.5903 100.125 16.3477 99.8221 16.183C99.5274 16.0183 99.2068 15.936 98.8601 15.936C98.5134 15.936 98.1884 16.0183 97.8851 16.183C97.5904 16.3477 97.3521 16.5947 97.1701 16.924C96.9881 17.2447 96.8971 17.6433 96.8971 18.12C96.8971 18.588 96.9881 18.9867 97.1701 19.316C97.3521 19.6367 97.5904 19.8793 97.8851 20.044C98.1884 20.2087 98.5134 20.291 98.8601 20.291ZM103.805 21.5V12.192H105.209V21.5H103.805ZM109.829 21.708C109.179 21.708 108.599 21.5563 108.087 21.253C107.576 20.9497 107.173 20.5337 106.878 20.005C106.592 19.4763 106.449 18.874 106.449 18.198C106.449 17.5653 106.588 16.9803 106.865 16.443C107.143 15.9057 107.528 15.4767 108.022 15.156C108.525 14.8267 109.101 14.662 109.751 14.662C110.436 14.662 111.017 14.8093 111.493 15.104C111.979 15.3987 112.347 15.8017 112.598 16.313C112.85 16.8243 112.975 17.4007 112.975 18.042C112.975 18.1373 112.971 18.224 112.962 18.302C112.962 18.38 112.958 18.4407 112.949 18.484H107.827C107.862 18.848 107.953 19.1643 108.1 19.433C108.291 19.771 108.542 20.0267 108.854 20.2C109.166 20.3733 109.504 20.46 109.868 20.46C110.31 20.46 110.679 20.3603 110.973 20.161C111.277 19.953 111.515 19.6973 111.688 19.394L112.845 19.953C112.559 20.473 112.169 20.8977 111.675 21.227C111.181 21.5477 110.566 21.708 109.829 21.708ZM107.905 17.431H111.584C111.576 17.2663 111.532 17.093 111.454 16.911C111.376 16.7203 111.264 16.547 111.116 16.391C110.969 16.235 110.783 16.1093 110.557 16.014C110.332 15.91 110.068 15.858 109.764 15.858C109.383 15.858 109.045 15.9577 108.75 16.157C108.456 16.3477 108.226 16.6163 108.061 16.963C107.992 17.1103 107.94 17.2663 107.905 17.431ZM118.69 21.5L116.194 12.192H117.78L119.262 18.237L119.418 19.043H119.496L119.691 18.237L121.563 12.192H122.993L124.787 18.237L124.982 19.03H125.06L125.216 18.237L126.698 12.192H128.271L125.814 21.5H124.306L122.525 15.325L122.317 14.454H122.239L122.018 15.325L120.159 21.5H118.69ZM130.881 21.708C130.405 21.708 129.98 21.6127 129.607 21.422C129.243 21.2313 128.953 20.9713 128.736 20.642C128.528 20.304 128.424 19.9183 128.424 19.485C128.424 19.0083 128.546 18.6053 128.788 18.276C129.04 17.9467 129.373 17.6953 129.789 17.522C130.205 17.3487 130.665 17.262 131.167 17.262C131.445 17.262 131.7 17.2837 131.934 17.327C132.177 17.3617 132.385 17.405 132.558 17.457C132.74 17.509 132.883 17.5653 132.987 17.626V17.275C132.987 16.8417 132.831 16.495 132.519 16.235C132.207 15.975 131.804 15.845 131.31 15.845C130.972 15.845 130.652 15.923 130.348 16.079C130.045 16.2263 129.802 16.43 129.62 16.69L128.658 15.949C128.849 15.6803 129.079 15.4507 129.347 15.26C129.625 15.0693 129.932 14.922 130.27 14.818C130.617 14.714 130.977 14.662 131.349 14.662C132.311 14.662 133.052 14.9003 133.572 15.377C134.092 15.845 134.352 16.5037 134.352 17.353V21.5H132.987V20.681H132.909C132.797 20.8543 132.641 21.019 132.441 21.175C132.251 21.331 132.021 21.4567 131.752 21.552C131.492 21.656 131.202 21.708 130.881 21.708ZM131.128 20.564C131.492 20.564 131.813 20.4773 132.09 20.304C132.376 20.1307 132.597 19.9053 132.753 19.628C132.909 19.342 132.987 19.0343 132.987 18.705C132.797 18.5923 132.563 18.5013 132.285 18.432C132.017 18.354 131.731 18.315 131.427 18.315C130.855 18.315 130.448 18.4277 130.205 18.653C129.963 18.8783 129.841 19.16 129.841 19.498C129.841 19.81 129.958 20.0657 130.192 20.265C130.426 20.4643 130.738 20.564 131.128 20.564ZM135.911 21.5V12.192H137.315V21.5H135.911ZM138.983 21.5V12.192H140.387V21.5H138.983ZM145.008 21.708C144.358 21.708 143.777 21.5563 143.266 21.253C142.755 20.9497 142.352 20.5337 142.057 20.005C141.771 19.4763 141.628 18.874 141.628 18.198C141.628 17.5653 141.767 16.9803 142.044 16.443C142.321 15.9057 142.707 15.4767 143.201 15.156C143.704 14.8267 144.28 14.662 144.93 14.662C145.615 14.662 146.195 14.8093 146.672 15.104C147.157 15.3987 147.526 15.8017 147.777 16.313C148.028 16.8243 148.154 17.4007 148.154 18.042C148.154 18.1373 148.15 18.224 148.141 18.302C148.141 18.38 148.137 18.4407 148.128 18.484H143.006C143.041 18.848 143.132 19.1643 143.279 19.433C143.47 19.771 143.721 20.0267 144.033 20.2C144.345 20.3733 144.683 20.46 145.047 20.46C145.489 20.46 145.857 20.3603 146.152 20.161C146.455 19.953 146.694 19.6973 146.867 19.394L148.024 19.953C147.738 20.473 147.348 20.8977 146.854 21.227C146.36 21.5477 145.745 21.708 145.008 21.708ZM143.084 17.431H146.763C146.754 17.2663 146.711 17.093 146.633 16.911C146.555 16.7203 146.442 16.547 146.295 16.391C146.148 16.235 145.961 16.1093 145.736 16.014C145.511 15.91 145.246 15.858 144.943 15.858C144.562 15.858 144.224 15.9577 143.929 16.157C143.634 16.3477 143.405 16.6163 143.24 16.963C143.171 17.1103 143.119 17.2663 143.084 17.431ZM148.811 14.87H149.968V12.998H151.372V14.87H152.997V16.092H151.372V19.277C151.372 19.6063 151.437 19.8577 151.567 20.031C151.706 20.2043 151.936 20.291 152.256 20.291C152.412 20.291 152.551 20.2693 152.672 20.226C152.794 20.174 152.915 20.1133 153.036 20.044V21.409C152.889 21.4697 152.733 21.5173 152.568 21.552C152.404 21.5867 152.209 21.604 151.983 21.604C151.368 21.604 150.878 21.4263 150.514 21.071C150.15 20.707 149.968 20.2087 149.968 19.576V16.092H148.811V14.87ZM158.984 18.3262H156.268V18.8213C156.268 19.0752 156.21 19.2741 156.096 19.418C155.982 19.5618 155.83 19.6338 155.639 19.6338C155.436 19.6338 155.21 19.5428 154.96 19.3608C154.71 19.1746 154.501 18.9482 154.332 18.6816C154.167 18.4108 154.084 18.1696 154.084 17.958C154.084 17.776 154.152 17.6364 154.287 17.5391C154.423 17.4375 154.619 17.3867 154.877 17.3867H155.227V15.7744C155.227 15.4401 155.193 15.2095 155.125 15.0825C155.057 14.9556 154.951 14.8688 154.808 14.8223C154.668 14.7715 154.433 14.7461 154.103 14.7461L154.205 13.8003H154.338C154.715 13.8003 155.023 13.8426 155.265 13.9272C155.506 14.0076 155.698 14.1177 155.842 14.2573C155.986 14.397 156.092 14.5747 156.16 14.7905C156.232 15.0021 156.268 15.3153 156.268 15.73V17.3867H158.984V13.667L160.025 13.8066V19.5259C160.025 19.7967 160.042 19.9914 160.076 20.1099C160.114 20.2241 160.171 20.3151 160.248 20.3828C160.324 20.4463 160.432 20.4907 160.571 20.5161C160.711 20.5415 160.903 20.5542 161.149 20.5542L161.047 21.5H160.914C160.432 21.5 160.044 21.4281 159.752 21.2842C159.46 21.1361 159.259 20.9329 159.149 20.6748C159.039 20.4124 158.984 20.0443 158.984 19.5703V18.3262ZM162.431 13.667L163.472 13.8066V19.5259C163.472 19.7967 163.489 19.9914 163.523 20.1099C163.561 20.2241 163.618 20.3151 163.694 20.3828C163.771 20.4463 163.878 20.4907 164.018 20.5161C164.158 20.5415 164.35 20.5542 164.596 20.5542L164.494 21.5H164.361C163.878 21.5 163.491 21.4281 163.199 21.2842C162.907 21.1361 162.706 20.9329 162.596 20.6748C162.486 20.4124 162.431 20.0443 162.431 19.5703V13.667ZM162.977 10.8359C163.176 10.8359 163.345 10.9121 163.485 11.0645C163.625 11.2126 163.694 11.3882 163.694 11.5913C163.694 11.7987 163.625 11.9764 163.485 12.1245C163.345 12.2726 163.176 12.3467 162.977 12.3467C162.778 12.3467 162.609 12.2726 162.469 12.1245C162.33 11.9722 162.26 11.7944 162.26 11.5913C162.26 11.3882 162.33 11.2126 162.469 11.0645C162.609 10.9121 162.778 10.8359 162.977 10.8359Z" fill="white"/>
<path d="M79.293 33.7637C80.3333 33.0166 81.6559 32.1755 83.2607 31.2402L83.9497 32.3691C82.4002 33.2546 81.1302 34.0404 80.1396 34.7266C80.6377 35.3685 81.0112 36.0132 81.2603 36.6606C81.5093 37.3081 81.6338 37.9611 81.6338 38.6196C81.6338 39.577 81.3709 40.3241 80.8452 40.8608C80.3195 41.3976 79.6001 41.666 78.687 41.666C77.7297 41.666 76.9909 41.3976 76.4707 40.8608C75.9505 40.3241 75.6904 39.6296 75.6904 38.7773C75.6904 37.9915 75.8952 37.2638 76.3047 36.5942C76.7142 35.9246 77.3727 35.2329 78.2803 34.519C77.8044 34.0376 77.2925 33.6419 76.7446 33.332C76.1968 33.0166 75.6157 32.7869 75.0015 32.6431C75.2837 33.1577 75.4248 33.736 75.4248 34.3779C75.4248 34.8649 75.3031 35.3215 75.0596 35.7476C74.8216 36.1681 74.4757 36.4946 74.022 36.7271C73.5737 36.9595 73.0452 37.0757 72.4365 37.0757C71.5566 37.0757 70.8566 36.8184 70.3364 36.3037C69.8162 35.7891 69.5562 35.1112 69.5562 34.27C69.5562 33.3957 69.8965 32.6763 70.5771 32.1118C71.2578 31.5418 72.1847 31.2568 73.3579 31.2568C74.509 31.2568 75.5715 31.4616 76.5454 31.8711C77.5249 32.2751 78.4408 32.9059 79.293 33.7637ZM73.5405 32.4521C73.4852 32.4521 73.4299 32.4494 73.3745 32.4438H73.2085C72.478 32.4438 71.9136 32.6126 71.5151 32.9502C71.1222 33.2822 70.9258 33.7332 70.9258 34.3032C70.9258 34.7791 71.0614 35.1527 71.3325 35.4238C71.6037 35.695 71.9717 35.8306 72.4365 35.8306C72.9512 35.8306 73.3524 35.6922 73.6401 35.4155C73.9279 35.1333 74.0718 34.7681 74.0718 34.3198C74.0718 33.6004 73.8947 32.9779 73.5405 32.4521ZM79.1104 35.4736C78.474 35.9551 77.9759 36.4587 77.6162 36.9844C77.262 37.5101 77.085 38.105 77.085 38.769C77.085 39.3224 77.2178 39.7402 77.4834 40.0225C77.7546 40.2992 78.1475 40.4375 78.6621 40.4375C79.1823 40.4375 79.5752 40.2826 79.8408 39.9727C80.1064 39.6628 80.2393 39.209 80.2393 38.6113C80.2393 38.0469 80.1452 37.5046 79.957 36.9844C79.7689 36.4587 79.4867 35.9551 79.1104 35.4736ZM77.4834 41.8984C78.0755 41.6328 78.7064 41.5 79.376 41.5C80.2171 41.5 80.8784 41.702 81.3599 42.106C81.8358 42.5155 82.0737 43.0771 82.0737 43.791C82.0737 44.4827 81.8053 45.0306 81.2686 45.4346C80.7318 45.8441 79.9847 46.0488 79.0273 46.0488C78.0312 46.0488 77.1237 45.8164 76.3047 45.3516C75.4801 44.8923 74.6916 44.1756 73.939 43.2017L75.0015 42.4712C75.6821 43.34 76.3241 43.9515 76.9272 44.3057C77.5249 44.6598 78.2249 44.8369 79.0273 44.8369C80.2227 44.8369 80.8203 44.4468 80.8203 43.6665C80.8203 43.3511 80.6986 43.1048 80.4551 42.9277C80.2116 42.7507 79.8796 42.6621 79.459 42.6621C78.9167 42.6621 78.4048 42.7839 77.9233 43.0273L77.4834 41.8984ZM84.813 32.8589L84.3564 31.7051C84.6553 31.5723 85.0011 31.4644 85.394 31.3813C85.7869 31.2983 86.1743 31.2568 86.5562 31.2568C87.591 31.2568 88.3906 31.5169 88.9551 32.0371C89.5251 32.5573 89.8101 33.285 89.8101 34.2202C89.8101 34.8787 89.597 35.4764 89.1709 36.0132C88.7448 36.55 88.161 36.9484 87.4194 37.2085C87.6187 37.6235 87.9036 37.9473 88.2744 38.1797C88.6507 38.4066 89.0768 38.52 89.5527 38.52C90.167 38.52 90.6623 38.3927 91.0386 38.1382C91.4204 37.8836 91.6888 37.535 91.8438 37.0923C92.0042 36.644 92.0845 36.0132 92.0845 35.1997V33.8965L93.4458 34.0791V35.8804C93.6616 36.229 93.9854 36.4033 94.417 36.4033C94.9593 36.4033 95.4408 36.1764 95.8613 35.7227V31.2568L97.2227 31.4395V38.9185C97.2227 39.2726 97.2448 39.5272 97.2891 39.6821C97.3389 39.8315 97.4136 39.9505 97.5132 40.0391C97.6128 40.1221 97.7539 40.1802 97.9365 40.2134C98.1191 40.2466 98.3709 40.2632 98.6919 40.2632L98.5591 41.5H98.3848C97.7539 41.5 97.2476 41.4059 96.8657 41.2178C96.4839 41.0241 96.221 40.7585 96.0771 40.4209C95.9333 40.0778 95.8613 39.5964 95.8613 38.9766V37.2251C95.4629 37.4963 94.9814 37.6318 94.417 37.6318C93.9189 37.6318 93.5094 37.5073 93.1885 37.2583C92.9505 38.0607 92.5272 38.6777 91.9185 39.1094C91.3097 39.5355 90.5571 39.7485 89.6606 39.7485C88.8582 39.7485 88.1554 39.5604 87.5522 39.1841C86.9491 38.8022 86.4455 38.2323 86.0415 37.4741H85.8174C85.3525 37.4741 85.0011 37.3911 84.7632 37.2251C84.5308 37.0535 84.4146 36.8156 84.4146 36.5112C84.4146 35.9246 84.7272 35.6313 85.3525 35.6313C85.8672 35.6313 86.321 35.8278 86.7139 36.2207C87.2451 36.0547 87.6657 35.7891 87.9756 35.4238C88.291 35.0586 88.4487 34.6491 88.4487 34.1953C88.4487 33.6475 88.291 33.2269 87.9756 32.9336C87.6602 32.6348 87.1704 32.4854 86.5063 32.4854C86.2463 32.4854 85.9585 32.5213 85.6431 32.5933C85.3276 32.6652 85.0509 32.7537 84.813 32.8589ZM100.369 31.2568L101.73 31.4395V38.9185C101.73 39.2726 101.752 39.5272 101.796 39.6821C101.846 39.8315 101.921 39.9505 102.021 40.0391C102.12 40.1221 102.261 40.1802 102.444 40.2134C102.626 40.2466 102.878 40.2632 103.199 40.2632L103.066 41.5H102.892C102.261 41.5 101.755 41.4059 101.373 41.2178C100.991 41.0241 100.728 40.7585 100.584 40.4209C100.441 40.0778 100.369 39.5964 100.369 38.9766V31.2568ZM100.377 30.6011C100.089 29.5441 99.7655 28.7666 99.4058 28.2686C99.0516 27.7705 98.5812 27.5215 97.9946 27.5215C97.6847 27.5215 97.3914 27.5741 97.1147 27.6792L96.7163 26.4673C97.1701 26.3289 97.6266 26.2598 98.0859 26.2598C98.7887 26.2598 99.3504 26.4285 99.771 26.7661C100.197 27.0981 100.551 27.5907 100.833 28.2437C101.121 28.8966 101.373 29.6825 101.589 30.6011H100.377Z" fill="white"/>
</svg>
