<svg width="173" height="55" viewBox="0 0 173 55" fill="none" xmlns="http://www.w3.org/2000/svg">
<rect x="0.5" y="0.5" width="172" height="54" rx="27" fill="#1F1F1F"/>
<rect x="0.5" y="0.5" width="172" height="54" rx="27" stroke="#747775"/>
<path d="M57 23.791H21V18.1455C21 15.0809 23.6422 12.5001 26.7798 12.5001H51.2202C54.3578 12.5001 57 15.0809 57 18.1455V23.791Z" fill="#34A853"/>
<path d="M57 29H21V23C21 19.7429 23.6422 17 26.7798 17H51.2202C54.3578 17 57 19.7429 57 23V29Z" fill="#FBBC04"/>
<path d="M57 34H21V28C21 24.7429 23.6422 22 26.7798 22H51.2202C54.3578 22 57 24.7429 57 28V34Z" fill="#EA4335"/>
<path d="M21 25.2409L43.8493 30.4025C46.4795 31.0477 49.4384 30.4025 51.5753 28.7895L57 24.9183V37.0157C57 40.0804 54.3699 42.4999 51.2466 42.4999H26.7534C23.6301 42.4999 21 40.0804 21 37.0157V25.2409Z" fill="#4285F4"/>
<path d="M74.46 21.708C73.7927 21.708 73.1643 21.5867 72.575 21.344C71.9857 21.1013 71.4657 20.7633 71.015 20.33C70.573 19.888 70.222 19.3723 69.962 18.783C69.7107 18.185 69.585 17.5393 69.585 16.846C69.585 16.1527 69.7107 15.5113 69.962 14.922C70.222 14.324 70.573 13.8083 71.015 13.375C71.4657 12.933 71.9857 12.5907 72.575 12.348C73.1643 12.1053 73.7927 11.984 74.46 11.984C75.1707 11.984 75.825 12.1097 76.423 12.361C77.0297 12.6123 77.5367 12.9633 77.944 13.414L76.956 14.389C76.7567 14.1637 76.527 13.973 76.267 13.817C76.0157 13.661 75.7383 13.544 75.435 13.466C75.1317 13.3793 74.8067 13.336 74.46 13.336C74.0007 13.336 73.563 13.4183 73.147 13.583C72.731 13.7477 72.3627 13.986 72.042 14.298C71.73 14.6013 71.483 14.9697 71.301 15.403C71.119 15.8277 71.028 16.3087 71.028 16.846C71.028 17.3833 71.119 17.8687 71.301 18.302C71.4917 18.7267 71.743 19.095 72.055 19.407C72.3757 19.7103 72.744 19.9443 73.16 20.109C73.576 20.2737 74.0137 20.356 74.473 20.356C74.8977 20.356 75.292 20.2953 75.656 20.174C76.0287 20.0527 76.3537 19.8793 76.631 19.654C76.9083 19.4287 77.1337 19.1557 77.307 18.835C77.4803 18.5057 77.5887 18.1373 77.632 17.73H74.447V16.469H78.971C78.9883 16.573 79.0057 16.6943 79.023 16.833C79.0403 16.963 79.049 17.0887 79.049 17.21V17.223C79.049 17.8903 78.932 18.5013 78.698 19.056C78.4727 19.6107 78.1563 20.0873 77.749 20.486C77.3417 20.876 76.8563 21.1793 76.293 21.396C75.7383 21.604 75.1273 21.708 74.46 21.708ZM83.2349 21.708C82.5502 21.708 81.9479 21.552 81.4279 21.24C80.9079 20.928 80.5006 20.5077 80.2059 19.979C79.9112 19.4417 79.7639 18.8437 79.7639 18.185C79.7639 17.5263 79.9112 16.9327 80.2059 16.404C80.5006 15.8667 80.9079 15.442 81.4279 15.13C81.9479 14.818 82.5502 14.662 83.2349 14.662C83.9109 14.662 84.5089 14.8223 85.0289 15.143C85.5489 15.455 85.9562 15.8753 86.2509 16.404C86.5456 16.9327 86.6929 17.5263 86.6929 18.185C86.6929 18.8437 86.5456 19.4417 86.2509 19.979C85.9562 20.5077 85.5489 20.928 85.0289 21.24C84.5089 21.552 83.9109 21.708 83.2349 21.708ZM83.2349 20.421C83.5989 20.421 83.9369 20.3343 84.2489 20.161C84.5609 19.979 84.8122 19.7233 85.0029 19.394C85.2022 19.056 85.3019 18.653 85.3019 18.185C85.3019 17.717 85.2022 17.3183 85.0029 16.989C84.8122 16.651 84.5609 16.3953 84.2489 16.222C83.9369 16.04 83.5989 15.949 83.2349 15.949C82.8709 15.949 82.5286 16.04 82.2079 16.222C81.8959 16.3953 81.6402 16.651 81.4409 16.989C81.2502 17.3183 81.1549 17.717 81.1549 18.185C81.1549 18.653 81.2502 19.056 81.4409 19.394C81.6402 19.7233 81.9002 19.979 82.2209 20.161C82.5416 20.3343 82.8796 20.421 83.2349 20.421ZM91.106 21.708C90.4213 21.708 89.819 21.552 89.299 21.24C88.779 20.928 88.3717 20.5077 88.077 19.979C87.7823 19.4417 87.635 18.8437 87.635 18.185C87.635 17.5263 87.7823 16.9327 88.077 16.404C88.3717 15.8667 88.779 15.442 89.299 15.13C89.819 14.818 90.4213 14.662 91.106 14.662C91.782 14.662 92.38 14.8223 92.9 15.143C93.42 15.455 93.8273 15.8753 94.122 16.404C94.4167 16.9327 94.564 17.5263 94.564 18.185C94.564 18.8437 94.4167 19.4417 94.122 19.979C93.8273 20.5077 93.42 20.928 92.9 21.24C92.38 21.552 91.782 21.708 91.106 21.708ZM91.106 20.421C91.47 20.421 91.808 20.3343 92.12 20.161C92.432 19.979 92.6833 19.7233 92.874 19.394C93.0733 19.056 93.173 18.653 93.173 18.185C93.173 17.717 93.0733 17.3183 92.874 16.989C92.6833 16.651 92.432 16.3953 92.12 16.222C91.808 16.04 91.47 15.949 91.106 15.949C90.742 15.949 90.3997 16.04 90.079 16.222C89.767 16.3953 89.5113 16.651 89.312 16.989C89.1213 17.3183 89.026 17.717 89.026 18.185C89.026 18.653 89.1213 19.056 89.312 19.394C89.5113 19.7233 89.7713 19.979 90.092 20.161C90.4127 20.3343 90.7507 20.421 91.106 20.421ZM98.8471 24.516C98.2664 24.516 97.7638 24.4207 97.3391 24.23C96.9231 24.048 96.5851 23.8097 96.3251 23.515C96.0651 23.229 95.8788 22.9343 95.7661 22.631L97.0661 22.085C97.2048 22.4317 97.4258 22.7133 97.7291 22.93C98.0411 23.1553 98.4138 23.268 98.8471 23.268C99.4624 23.268 99.9434 23.086 100.29 22.722C100.637 22.358 100.81 21.8423 100.81 21.175V20.538H100.732C100.524 20.8413 100.238 21.0883 99.8741 21.279C99.5101 21.4697 99.0898 21.565 98.6131 21.565C98.0498 21.565 97.5298 21.422 97.0531 21.136C96.5851 20.85 96.2081 20.4513 95.9221 19.94C95.6448 19.42 95.5061 18.8133 95.5061 18.12C95.5061 17.418 95.6448 16.8113 95.9221 16.3C96.2081 15.78 96.5851 15.377 97.0531 15.091C97.5298 14.805 98.0498 14.662 98.6131 14.662C99.0898 14.662 99.5101 14.7573 99.8741 14.948C100.238 15.13 100.524 15.3813 100.732 15.702H100.81V14.87H102.149V21.149C102.149 21.8683 102.006 22.4793 101.72 22.982C101.443 23.4847 101.057 23.866 100.563 24.126C100.069 24.386 99.4971 24.516 98.8471 24.516ZM98.8601 20.291C99.2068 20.291 99.5274 20.2087 99.8221 20.044C100.125 19.8707 100.364 19.6237 100.537 19.303C100.719 18.9737 100.81 18.5793 100.81 18.12C100.81 17.6347 100.719 17.2317 100.537 16.911C100.364 16.5903 100.125 16.3477 99.8221 16.183C99.5274 16.0183 99.2068 15.936 98.8601 15.936C98.5134 15.936 98.1884 16.0183 97.8851 16.183C97.5904 16.3477 97.3521 16.5947 97.1701 16.924C96.9881 17.2447 96.8971 17.6433 96.8971 18.12C96.8971 18.588 96.9881 18.9867 97.1701 19.316C97.3521 19.6367 97.5904 19.8793 97.8851 20.044C98.1884 20.2087 98.5134 20.291 98.8601 20.291ZM103.805 21.5V12.192H105.209V21.5H103.805ZM109.829 21.708C109.179 21.708 108.599 21.5563 108.087 21.253C107.576 20.9497 107.173 20.5337 106.878 20.005C106.592 19.4763 106.449 18.874 106.449 18.198C106.449 17.5653 106.588 16.9803 106.865 16.443C107.143 15.9057 107.528 15.4767 108.022 15.156C108.525 14.8267 109.101 14.662 109.751 14.662C110.436 14.662 111.017 14.8093 111.493 15.104C111.979 15.3987 112.347 15.8017 112.598 16.313C112.85 16.8243 112.975 17.4007 112.975 18.042C112.975 18.1373 112.971 18.224 112.962 18.302C112.962 18.38 112.958 18.4407 112.949 18.484H107.827C107.862 18.848 107.953 19.1643 108.1 19.433C108.291 19.771 108.542 20.0267 108.854 20.2C109.166 20.3733 109.504 20.46 109.868 20.46C110.31 20.46 110.679 20.3603 110.973 20.161C111.277 19.953 111.515 19.6973 111.688 19.394L112.845 19.953C112.559 20.473 112.169 20.8977 111.675 21.227C111.181 21.5477 110.566 21.708 109.829 21.708ZM107.905 17.431H111.584C111.576 17.2663 111.532 17.093 111.454 16.911C111.376 16.7203 111.264 16.547 111.116 16.391C110.969 16.235 110.783 16.1093 110.557 16.014C110.332 15.91 110.068 15.858 109.764 15.858C109.383 15.858 109.045 15.9577 108.75 16.157C108.456 16.3477 108.226 16.6163 108.061 16.963C107.992 17.1103 107.94 17.2663 107.905 17.431ZM118.69 21.5L116.194 12.192H117.78L119.262 18.237L119.418 19.043H119.496L119.691 18.237L121.563 12.192H122.993L124.787 18.237L124.982 19.03H125.06L125.216 18.237L126.698 12.192H128.271L125.814 21.5H124.306L122.525 15.325L122.317 14.454H122.239L122.018 15.325L120.159 21.5H118.69ZM130.881 21.708C130.405 21.708 129.98 21.6127 129.607 21.422C129.243 21.2313 128.953 20.9713 128.736 20.642C128.528 20.304 128.424 19.9183 128.424 19.485C128.424 19.0083 128.546 18.6053 128.788 18.276C129.04 17.9467 129.373 17.6953 129.789 17.522C130.205 17.3487 130.665 17.262 131.167 17.262C131.445 17.262 131.7 17.2837 131.934 17.327C132.177 17.3617 132.385 17.405 132.558 17.457C132.74 17.509 132.883 17.5653 132.987 17.626V17.275C132.987 16.8417 132.831 16.495 132.519 16.235C132.207 15.975 131.804 15.845 131.31 15.845C130.972 15.845 130.652 15.923 130.348 16.079C130.045 16.2263 129.802 16.43 129.62 16.69L128.658 15.949C128.849 15.6803 129.079 15.4507 129.347 15.26C129.625 15.0693 129.932 14.922 130.27 14.818C130.617 14.714 130.977 14.662 131.349 14.662C132.311 14.662 133.052 14.9003 133.572 15.377C134.092 15.845 134.352 16.5037 134.352 17.353V21.5H132.987V20.681H132.909C132.797 20.8543 132.641 21.019 132.441 21.175C132.251 21.331 132.021 21.4567 131.752 21.552C131.492 21.656 131.202 21.708 130.881 21.708ZM131.128 20.564C131.492 20.564 131.813 20.4773 132.09 20.304C132.376 20.1307 132.597 19.9053 132.753 19.628C132.909 19.342 132.987 19.0343 132.987 18.705C132.797 18.5923 132.563 18.5013 132.285 18.432C132.017 18.354 131.731 18.315 131.427 18.315C130.855 18.315 130.448 18.4277 130.205 18.653C129.963 18.8783 129.841 19.16 129.841 19.498C129.841 19.81 129.958 20.0657 130.192 20.265C130.426 20.4643 130.738 20.564 131.128 20.564ZM135.911 21.5V12.192H137.315V21.5H135.911ZM138.983 21.5V12.192H140.387V21.5H138.983ZM145.008 21.708C144.358 21.708 143.777 21.5563 143.266 21.253C142.755 20.9497 142.352 20.5337 142.057 20.005C141.771 19.4763 141.628 18.874 141.628 18.198C141.628 17.5653 141.767 16.9803 142.044 16.443C142.321 15.9057 142.707 15.4767 143.201 15.156C143.704 14.8267 144.28 14.662 144.93 14.662C145.615 14.662 146.195 14.8093 146.672 15.104C147.157 15.3987 147.526 15.8017 147.777 16.313C148.028 16.8243 148.154 17.4007 148.154 18.042C148.154 18.1373 148.15 18.224 148.141 18.302C148.141 18.38 148.137 18.4407 148.128 18.484H143.006C143.041 18.848 143.132 19.1643 143.279 19.433C143.47 19.771 143.721 20.0267 144.033 20.2C144.345 20.3733 144.683 20.46 145.047 20.46C145.489 20.46 145.857 20.3603 146.152 20.161C146.455 19.953 146.694 19.6973 146.867 19.394L148.024 19.953C147.738 20.473 147.348 20.8977 146.854 21.227C146.36 21.5477 145.745 21.708 145.008 21.708ZM143.084 17.431H146.763C146.754 17.2663 146.711 17.093 146.633 16.911C146.555 16.7203 146.442 16.547 146.295 16.391C146.148 16.235 145.961 16.1093 145.736 16.014C145.511 15.91 145.246 15.858 144.943 15.858C144.562 15.858 144.224 15.9577 143.929 16.157C143.634 16.3477 143.405 16.6163 143.24 16.963C143.171 17.1103 143.119 17.2663 143.084 17.431ZM148.811 14.87H149.968V12.998H151.372V14.87H152.997V16.092H151.372V19.277C151.372 19.6063 151.437 19.8577 151.567 20.031C151.706 20.2043 151.936 20.291 152.256 20.291C152.412 20.291 152.551 20.2693 152.672 20.226C152.794 20.174 152.915 20.1133 153.036 20.044V21.409C152.889 21.4697 152.733 21.5173 152.568 21.552C152.404 21.5867 152.209 21.604 151.983 21.604C151.368 21.604 150.878 21.4263 150.514 21.071C150.15 20.707 149.968 20.2087 149.968 19.576V16.092H148.811V14.87Z" fill="white"/>
<path d="M72.077 39.103C71.839 39.103 71.584 39.0293 71.312 38.882C71.0513 38.7233 70.802 38.5193 70.564 38.27C70.326 38.0207 70.1333 37.76 69.986 37.488C69.8387 37.2047 69.765 36.9327 69.765 36.672C69.765 36.366 69.8557 36.1337 70.037 35.975C70.2297 35.8163 70.4733 35.737 70.768 35.737H71.193V31.589H68.66V30.195H79.863V31.589H78.333V41.5H76.633V37.233H72.876V38.236C72.876 38.4967 72.8023 38.7063 72.655 38.865C72.519 39.0237 72.3263 39.103 72.077 39.103ZM76.633 35.737V31.589H72.876V35.737H76.633ZM76.5861 30.399L75.7191 28.563C75.5038 28.121 75.2941 27.7753 75.0901 27.526C74.8861 27.2767 74.6538 27.101 74.3931 26.999C74.1325 26.8857 73.8151 26.829 73.4411 26.829H72.5401V25.231H73.3731C73.8151 25.231 74.2061 25.2763 74.5461 25.367C74.8861 25.4577 75.1978 25.6107 75.4811 25.826C75.7758 26.03 76.0421 26.302 76.2801 26.642C76.5295 26.982 76.7788 27.4013 77.0281 27.9L78.2521 30.399H76.5861ZM79.1191 28.648C78.7905 28.648 78.5185 28.5403 78.3031 28.325C78.0878 28.1097 77.9801 27.8377 77.9801 27.509C77.9801 27.169 78.0878 26.8913 78.3031 26.676C78.5185 26.4607 78.7905 26.353 79.1191 26.353C79.4591 26.353 79.7368 26.4607 79.9521 26.676C80.1675 26.8913 80.2751 27.1633 80.2751 27.492C80.2751 27.832 80.1675 28.1097 79.9521 28.325C79.7368 28.5403 79.4591 28.648 79.1191 28.648ZM88.7972 40.99C87.9472 40.99 87.1935 40.8257 86.5362 40.497C85.8902 40.1683 85.3802 39.7207 85.0062 39.154C84.6435 38.576 84.4622 37.9187 84.4622 37.182C84.4622 36.4113 84.6435 35.7427 85.0062 35.176C85.3688 34.6093 85.8845 34.1673 86.5532 33.85C87.2218 33.5327 87.9982 33.374 88.8822 33.374H89.6132V31.589H83.1532V30.195H93.7782V31.589H91.2452V34.87H88.9842C88.1342 34.87 87.4542 35.0797 86.9442 35.499C86.4455 35.907 86.1962 36.468 86.1962 37.182C86.1962 37.8507 86.4285 38.3833 86.8932 38.78C87.3692 39.1767 88.0038 39.375 88.7972 39.375C89.0918 39.375 89.3695 39.3353 89.6302 39.256C89.7208 39.222 89.8115 39.1823 89.9022 39.137C89.8908 39.103 89.8738 39.0747 89.8512 39.052C89.7378 38.78 89.6812 38.491 89.6812 38.185C89.6812 37.7883 89.8058 37.4653 90.0552 37.216C90.3045 36.9667 90.6275 36.842 91.0242 36.842C91.4548 36.842 91.8005 36.995 92.0612 37.301C92.3218 37.607 92.4522 37.9923 92.4522 38.457C92.4522 38.9443 92.2878 39.375 91.9592 39.749C91.9478 39.749 91.9422 39.7547 91.9422 39.766L93.3872 42.01L91.9252 42.775L90.7182 40.616C90.6842 40.6273 90.6558 40.6387 90.6332 40.65C90.0778 40.8767 89.4658 40.99 88.7972 40.99ZM89.5294 30.399L88.6624 28.563C88.447 28.121 88.2374 27.7753 88.0334 27.526C87.8294 27.2767 87.597 27.101 87.3364 26.999C87.0757 26.8857 86.7584 26.829 86.3844 26.829H85.4834V25.231H86.3164C86.7584 25.231 87.1494 25.2763 87.4894 25.367C87.8294 25.4577 88.141 25.6107 88.4244 25.826C88.719 26.03 88.9854 26.302 89.2234 26.642C89.4727 26.982 89.722 27.4013 89.9714 27.9L91.1954 30.399H89.5294ZM105.372 41.5V40.038L105.44 38.814H105.338C105.111 38.9953 104.839 39.1313 104.522 39.222C104.204 39.3127 103.864 39.358 103.502 39.358C102.856 39.358 102.272 39.2107 101.751 38.916C101.241 38.6213 100.833 38.2303 100.527 37.743C100.232 37.2443 100.085 36.689 100.085 36.077C100.085 35.4537 100.221 34.904 100.493 34.428C100.765 33.952 101.139 33.578 101.615 33.306C102.091 33.034 102.635 32.898 103.247 32.898C103.734 32.898 104.148 32.9717 104.488 33.119C104.828 33.2663 105.128 33.476 105.389 33.748H105.474L105.372 32.541V31.589H99.1325V34.207C99.1325 35.0343 98.9002 35.6803 98.4355 36.145C98.0275 36.553 97.4608 36.7797 96.7355 36.825L96.6675 36.927L97.5685 37.794L100.017 40.735L98.6395 41.806L93.9305 35.907L95.1885 34.853C95.3472 35.0343 95.5115 35.1703 95.6815 35.261C95.8628 35.3403 96.0668 35.38 96.2935 35.38C96.6562 35.38 96.9338 35.2723 97.1265 35.057C97.3305 34.8303 97.4325 34.53 97.4325 34.156V31.589H93.0975V30.195H108.585V31.589H107.055V41.5H105.372ZM103.604 37.777C104.136 37.777 104.561 37.624 104.879 37.318C105.207 37.012 105.372 36.6153 105.372 36.128C105.372 35.6293 105.207 35.2327 104.879 34.938C104.561 34.632 104.136 34.479 103.604 34.479C103.071 34.479 102.64 34.632 102.312 34.938C101.994 35.2327 101.836 35.6293 101.836 36.128C101.836 36.6153 101.994 37.012 102.312 37.318C102.64 37.624 103.071 37.777 103.604 37.777ZM105.307 30.399L104.44 28.563C104.224 28.121 104.015 27.7753 103.811 27.526C103.607 27.2767 103.374 27.101 103.114 26.999C102.853 26.8857 102.536 26.829 102.162 26.829H101.261V25.231H102.094C102.536 25.231 102.927 25.2763 103.267 25.367C103.607 25.4577 103.918 25.6107 104.202 25.826C104.496 26.03 104.763 26.302 105.001 26.642C105.25 26.982 105.499 27.4013 105.749 27.9L106.973 30.399H105.307ZM107.84 28.648C107.511 28.648 107.239 28.5403 107.024 28.325C106.808 28.1097 106.701 27.8377 106.701 27.509C106.701 27.169 106.808 26.8913 107.024 26.676C107.239 26.4607 107.511 26.353 107.84 26.353C108.18 26.353 108.457 26.4607 108.673 26.676C108.888 26.8913 108.996 27.1633 108.996 27.492C108.996 27.832 108.888 28.1097 108.673 28.325C108.457 28.5403 108.18 28.648 107.84 28.648Z" fill="white"/>
</svg>
