<svg width="199" height="55" viewBox="0 0 199 55" fill="none" xmlns="http://www.w3.org/2000/svg">
<rect x="0.5" y="0.5" width="198" height="54" rx="27" fill="#1F1F1F"/>
<rect x="0.5" y="0.5" width="198" height="54" rx="27" stroke="#747775"/>
<path d="M57 23.791H21V18.1455C21 15.0809 23.6422 12.5001 26.7798 12.5001H51.2202C54.3578 12.5001 57 15.0809 57 18.1455V23.791Z" fill="#34A853"/>
<path d="M57 29H21V23C21 19.7429 23.6422 17 26.7798 17H51.2202C54.3578 17 57 19.7429 57 23V29Z" fill="#FBBC04"/>
<path d="M57 34H21V28C21 24.7429 23.6422 22 26.7798 22H51.2202C54.3578 22 57 24.7429 57 28V34Z" fill="#EA4335"/>
<path d="M21 25.2409L43.8493 30.4025C46.4795 31.0477 49.4384 30.4025 51.5753 28.7895L57 24.9183V37.0157C57 40.0804 54.3699 42.4999 51.2466 42.4999H26.7534C23.6301 42.4999 21 40.0804 21 37.0157V25.2409Z" fill="#4285F4"/>
<path d="M70.053 21.5V12.192H73.251C73.8143 12.192 74.3257 12.3133 74.785 12.556C75.2443 12.79 75.6083 13.1237 75.877 13.557C76.1543 13.9817 76.293 14.4757 76.293 15.039C76.293 15.5937 76.1543 16.0877 75.877 16.521C75.6083 16.9543 75.2443 17.2923 74.785 17.535C74.3257 17.769 73.8143 17.886 73.251 17.886H71.483V21.5H70.053ZM71.483 16.534H73.29C73.628 16.534 73.914 16.4647 74.148 16.326C74.382 16.1787 74.5597 15.9923 74.681 15.767C74.811 15.533 74.876 15.2903 74.876 15.039C74.876 14.7877 74.811 14.5493 74.681 14.324C74.5597 14.0987 74.382 13.9123 74.148 13.765C73.914 13.6177 73.628 13.544 73.29 13.544H71.483V16.534ZM77.5251 21.5V14.87H78.8511V15.845H78.9291C79.0331 15.6197 79.1804 15.4203 79.3711 15.247C79.5704 15.0737 79.7957 14.935 80.0471 14.831C80.3071 14.727 80.5757 14.675 80.8531 14.675C81.0351 14.675 81.1867 14.688 81.3081 14.714C81.4381 14.7313 81.5551 14.7617 81.6591 14.805V16.261C81.4944 16.1917 81.3254 16.1353 81.1521 16.092C80.9874 16.0487 80.8141 16.027 80.6321 16.027C80.3027 16.027 80.0081 16.118 79.7481 16.3C79.4967 16.4733 79.2974 16.7073 79.1501 17.002C79.0027 17.2967 78.9291 17.626 78.9291 17.99V21.5H77.5251ZM85.3783 21.708C84.7283 21.708 84.1476 21.5563 83.6363 21.253C83.1249 20.9497 82.7219 20.5337 82.4273 20.005C82.1413 19.4763 81.9983 18.874 81.9983 18.198C81.9983 17.5653 82.1369 16.9803 82.4143 16.443C82.6916 15.9057 83.0773 15.4767 83.5713 15.156C84.0739 14.8267 84.6503 14.662 85.3003 14.662C85.9849 14.662 86.5656 14.8093 87.0423 15.104C87.5276 15.3987 87.8959 15.8017 88.1473 16.313C88.3986 16.8243 88.5243 17.4007 88.5243 18.042C88.5243 18.1373 88.5199 18.224 88.5113 18.302C88.5113 18.38 88.5069 18.4407 88.4983 18.484H83.3763C83.4109 18.848 83.5019 19.1643 83.6493 19.433C83.8399 19.771 84.0913 20.0267 84.4033 20.2C84.7153 20.3733 85.0533 20.46 85.4173 20.46C85.8593 20.46 86.2276 20.3603 86.5223 20.161C86.8256 19.953 87.0639 19.6973 87.2373 19.394L88.3943 19.953C88.1083 20.473 87.7183 20.8977 87.2243 21.227C86.7303 21.5477 86.1149 21.708 85.3783 21.708ZM83.4543 17.431H87.1333C87.1246 17.2663 87.0813 17.093 87.0033 16.911C86.9253 16.7203 86.8126 16.547 86.6653 16.391C86.5179 16.235 86.3316 16.1093 86.1063 16.014C85.8809 15.91 85.6166 15.858 85.3133 15.858C84.9319 15.858 84.5939 15.9577 84.2993 16.157C84.0046 16.3477 83.7749 16.6163 83.6103 16.963C83.5409 17.1103 83.4889 17.2663 83.4543 17.431ZM92.8803 24.516C92.2996 24.516 91.797 24.4207 91.3723 24.23C90.9563 24.048 90.6183 23.8097 90.3583 23.515C90.0983 23.229 89.912 22.9343 89.7993 22.631L91.0993 22.085C91.238 22.4317 91.459 22.7133 91.7623 22.93C92.0743 23.1553 92.447 23.268 92.8803 23.268C93.4956 23.268 93.9766 23.086 94.3233 22.722C94.67 22.358 94.8433 21.8423 94.8433 21.175V20.538H94.7653C94.5573 20.8413 94.2713 21.0883 93.9073 21.279C93.5433 21.4697 93.123 21.565 92.6463 21.565C92.083 21.565 91.563 21.422 91.0863 21.136C90.6183 20.85 90.2413 20.4513 89.9553 19.94C89.678 19.42 89.5393 18.8133 89.5393 18.12C89.5393 17.418 89.678 16.8113 89.9553 16.3C90.2413 15.78 90.6183 15.377 91.0863 15.091C91.563 14.805 92.083 14.662 92.6463 14.662C93.123 14.662 93.5433 14.7573 93.9073 14.948C94.2713 15.13 94.5573 15.3813 94.7653 15.702H94.8433V14.87H96.1823V21.149C96.1823 21.8683 96.0393 22.4793 95.7533 22.982C95.476 23.4847 95.0903 23.866 94.5963 24.126C94.1023 24.386 93.5303 24.516 92.8803 24.516ZM92.8933 20.291C93.24 20.291 93.5606 20.2087 93.8553 20.044C94.1586 19.8707 94.397 19.6237 94.5703 19.303C94.7523 18.9737 94.8433 18.5793 94.8433 18.12C94.8433 17.6347 94.7523 17.2317 94.5703 16.911C94.397 16.5903 94.1586 16.3477 93.8553 16.183C93.5606 16.0183 93.24 15.936 92.8933 15.936C92.5466 15.936 92.2216 16.0183 91.9183 16.183C91.6236 16.3477 91.3853 16.5947 91.2033 16.924C91.0213 17.2447 90.9303 17.6433 90.9303 18.12C90.9303 18.588 91.0213 18.9867 91.2033 19.316C91.3853 19.6367 91.6236 19.8793 91.9183 20.044C92.2216 20.2087 92.5466 20.291 92.8933 20.291ZM97.8379 21.5V12.192H99.2419V21.5H97.8379ZM103.863 21.708C103.213 21.708 102.632 21.5563 102.121 21.253C101.609 20.9497 101.206 20.5337 100.912 20.005C100.626 19.4763 100.483 18.874 100.483 18.198C100.483 17.5653 100.621 16.9803 100.899 16.443C101.176 15.9057 101.562 15.4767 102.056 15.156C102.558 14.8267 103.135 14.662 103.785 14.662C104.469 14.662 105.05 14.8093 105.527 15.104C106.012 15.3987 106.38 15.8017 106.632 16.313C106.883 16.8243 107.009 17.4007 107.009 18.042C107.009 18.1373 107.004 18.224 106.996 18.302C106.996 18.38 106.991 18.4407 106.983 18.484H101.861C101.895 18.848 101.986 19.1643 102.134 19.433C102.324 19.771 102.576 20.0267 102.888 20.2C103.2 20.3733 103.538 20.46 103.902 20.46C104.344 20.46 104.712 20.3603 105.007 20.161C105.31 19.953 105.548 19.6973 105.722 19.394L106.879 19.953C106.593 20.473 106.203 20.8977 105.709 21.227C105.215 21.5477 104.599 21.708 103.863 21.708ZM101.939 17.431H105.618C105.609 17.2663 105.566 17.093 105.488 16.911C105.41 16.7203 105.297 16.547 105.15 16.391C105.002 16.235 104.816 16.1093 104.591 16.014C104.365 15.91 104.101 15.858 103.798 15.858C103.416 15.858 103.078 15.9577 102.784 16.157C102.489 16.3477 102.259 16.6163 102.095 16.963C102.025 17.1103 101.973 17.2663 101.939 17.431ZM111.209 21.708C110.611 21.708 110.069 21.5563 109.584 21.253C109.098 20.9497 108.717 20.5337 108.44 20.005C108.162 19.4763 108.024 18.8697 108.024 18.185C108.024 17.5003 108.162 16.8937 108.44 16.365C108.717 15.8363 109.098 15.4203 109.584 15.117C110.069 14.8137 110.611 14.662 111.209 14.662C111.555 14.662 111.867 14.714 112.145 14.818C112.422 14.922 112.66 15.0607 112.86 15.234C113.068 15.3987 113.228 15.5763 113.341 15.767H113.419L113.341 14.844V12.192H114.732V21.5H113.419V20.616H113.341C113.228 20.798 113.068 20.9757 112.86 21.149C112.66 21.3137 112.422 21.448 112.145 21.552C111.867 21.656 111.555 21.708 111.209 21.708ZM111.417 20.421C111.763 20.421 112.088 20.33 112.392 20.148C112.704 19.966 112.951 19.7103 113.133 19.381C113.323 19.043 113.419 18.6443 113.419 18.185C113.419 17.7257 113.323 17.3313 113.133 17.002C112.951 16.664 112.704 16.404 112.392 16.222C112.088 16.04 111.763 15.949 111.417 15.949C111.07 15.949 110.745 16.04 110.442 16.222C110.138 16.404 109.891 16.664 109.701 17.002C109.51 17.3313 109.415 17.7257 109.415 18.185C109.415 18.6357 109.51 19.03 109.701 19.368C109.891 19.706 110.138 19.966 110.442 20.148C110.745 20.33 111.07 20.421 111.417 20.421ZM121.825 21.708C121.01 21.708 120.395 21.4653 119.979 20.98C119.571 20.486 119.368 19.8187 119.368 18.978V14.87H120.772V18.783C120.772 19.3377 120.902 19.7493 121.162 20.018C121.43 20.2867 121.764 20.421 122.163 20.421C122.527 20.421 122.839 20.33 123.099 20.148C123.359 19.9573 123.558 19.7103 123.697 19.407C123.844 19.1037 123.918 18.7787 123.918 18.432V14.87H125.309V21.5H123.996V20.603H123.918C123.796 20.811 123.627 20.9973 123.411 21.162C123.194 21.3267 122.951 21.4567 122.683 21.552C122.414 21.656 122.128 21.708 121.825 21.708ZM126.813 21.5V20.33L130.505 16.092H126.93V14.87H132.221V16.04L128.542 20.278H132.325V21.5H126.813Z" fill="white"/>
<path d="M76.14 41.772C75.2673 41.772 74.4457 41.6133 73.675 41.296C72.9043 40.9787 72.2243 40.5367 71.635 39.97C71.057 39.392 70.598 38.7177 70.258 37.947C69.9293 37.165 69.765 36.3207 69.765 35.414C69.765 34.5073 69.9293 33.6687 70.258 32.898C70.598 32.116 71.057 31.4417 71.635 30.875C72.2243 30.297 72.9043 29.8493 73.675 29.532C74.4457 29.2147 75.2673 29.056 76.14 29.056C77.0693 29.056 77.925 29.2203 78.707 29.549C79.5003 29.8777 80.1633 30.3367 80.696 30.926L79.404 32.201C79.1433 31.9063 78.843 31.657 78.503 31.453C78.1743 31.249 77.8117 31.096 77.415 30.994C77.0183 30.8807 76.5933 30.824 76.14 30.824C75.5393 30.824 74.967 30.9317 74.423 31.147C73.879 31.3623 73.3973 31.674 72.978 32.082C72.57 32.4787 72.247 32.9603 72.009 33.527C71.771 34.0823 71.652 34.7113 71.652 35.414C71.652 36.1167 71.771 36.7513 72.009 37.318C72.2583 37.8733 72.587 38.355 72.995 38.763C73.4143 39.1597 73.896 39.4657 74.44 39.681C74.984 39.8963 75.5563 40.004 76.157 40.004C76.7123 40.004 77.228 39.9247 77.704 39.766C78.1913 39.6073 78.6163 39.3807 78.979 39.086C79.3417 38.7913 79.6363 38.4343 79.863 38.015C80.0897 37.5843 80.2313 37.1027 80.288 36.57H76.123V34.921H82.039C82.0617 35.057 82.0843 35.2157 82.107 35.397C82.1297 35.567 82.141 35.7313 82.141 35.89V35.907C82.141 36.7797 81.988 37.5787 81.682 38.304C81.3873 39.0293 80.9737 39.6527 80.441 40.174C79.9083 40.684 79.2737 41.0807 78.537 41.364C77.8117 41.636 77.0127 41.772 76.14 41.772ZM87.6149 41.772C86.7195 41.772 85.9319 41.568 85.2519 41.16C84.5719 40.752 84.0392 40.2023 83.6539 39.511C83.2685 38.8083 83.0759 38.0263 83.0759 37.165C83.0759 36.3037 83.2685 35.5273 83.6539 34.836C84.0392 34.1333 84.5719 33.578 85.2519 33.17C85.9319 32.762 86.7195 32.558 87.6149 32.558C88.4989 32.558 89.2809 32.7677 89.9609 33.187C90.6409 33.595 91.1735 34.1447 91.5589 34.836C91.9442 35.5273 92.1369 36.3037 92.1369 37.165C92.1369 38.0263 91.9442 38.8083 91.5589 39.511C91.1735 40.2023 90.6409 40.752 89.9609 41.16C89.2809 41.568 88.4989 41.772 87.6149 41.772ZM87.6149 40.089C88.0909 40.089 88.5329 39.9757 88.9409 39.749C89.3489 39.511 89.6775 39.1767 89.9269 38.746C90.1875 38.304 90.3179 37.777 90.3179 37.165C90.3179 36.553 90.1875 36.0317 89.9269 35.601C89.6775 35.159 89.3489 34.8247 88.9409 34.598C88.5329 34.36 88.0909 34.241 87.6149 34.241C87.1389 34.241 86.6912 34.36 86.2719 34.598C85.8639 34.8247 85.5295 35.159 85.2689 35.601C85.0195 36.0317 84.8949 36.553 84.8949 37.165C84.8949 37.777 85.0195 38.304 85.2689 38.746C85.5295 39.1767 85.8695 39.511 86.2889 39.749C86.7082 39.9757 87.1502 40.089 87.6149 40.089ZM97.9078 41.772C97.0125 41.772 96.2248 41.568 95.5448 41.16C94.8648 40.752 94.3322 40.2023 93.9468 39.511C93.5615 38.8083 93.3688 38.0263 93.3688 37.165C93.3688 36.3037 93.5615 35.5273 93.9468 34.836C94.3322 34.1333 94.8648 33.578 95.5448 33.17C96.2248 32.762 97.0125 32.558 97.9078 32.558C98.7918 32.558 99.5738 32.7677 100.254 33.187C100.934 33.595 101.467 34.1447 101.852 34.836C102.237 35.5273 102.43 36.3037 102.43 37.165C102.43 38.0263 102.237 38.8083 101.852 39.511C101.467 40.2023 100.934 40.752 100.254 41.16C99.5738 41.568 98.7918 41.772 97.9078 41.772ZM97.9078 40.089C98.3838 40.089 98.8258 39.9757 99.2338 39.749C99.6418 39.511 99.9705 39.1767 100.22 38.746C100.481 38.304 100.611 37.777 100.611 37.165C100.611 36.553 100.481 36.0317 100.22 35.601C99.9705 35.159 99.6418 34.8247 99.2338 34.598C98.8258 34.36 98.3838 34.241 97.9078 34.241C97.4318 34.241 96.9842 34.36 96.5648 34.598C96.1568 34.8247 95.8225 35.159 95.5618 35.601C95.3125 36.0317 95.1878 36.553 95.1878 37.165C95.1878 37.777 95.3125 38.304 95.5618 38.746C95.8225 39.1767 96.1625 39.511 96.5818 39.749C97.0012 39.9757 97.4432 40.089 97.9078 40.089ZM108.031 45.444C107.271 45.444 106.614 45.3193 106.059 45.07C105.515 44.832 105.073 44.5203 104.733 44.135C104.393 43.761 104.149 43.3757 104.002 42.979L105.702 42.265C105.883 42.7183 106.172 43.0867 106.569 43.37C106.977 43.6647 107.464 43.812 108.031 43.812C108.835 43.812 109.464 43.574 109.918 43.098C110.371 42.622 110.598 41.9477 110.598 41.075V40.242H110.496C110.224 40.6387 109.85 40.9617 109.374 41.211C108.898 41.4603 108.348 41.585 107.725 41.585C106.988 41.585 106.308 41.398 105.685 41.024C105.073 40.65 104.58 40.1287 104.206 39.46C103.843 38.78 103.662 37.9867 103.662 37.08C103.662 36.162 103.843 35.3687 104.206 34.7C104.58 34.02 105.073 33.493 105.685 33.119C106.308 32.745 106.988 32.558 107.725 32.558C108.348 32.558 108.898 32.6827 109.374 32.932C109.85 33.17 110.224 33.4987 110.496 33.918H110.598V32.83H112.349V41.041C112.349 41.9817 112.162 42.7807 111.788 43.438C111.425 44.0953 110.921 44.594 110.275 44.934C109.629 45.274 108.881 45.444 108.031 45.444ZM108.048 39.919C108.501 39.919 108.92 39.8113 109.306 39.596C109.702 39.3693 110.014 39.0463 110.241 38.627C110.479 38.1963 110.598 37.6807 110.598 37.08C110.598 36.4453 110.479 35.9183 110.241 35.499C110.014 35.0797 109.702 34.7623 109.306 34.547C108.92 34.3317 108.501 34.224 108.048 34.224C107.594 34.224 107.169 34.3317 106.773 34.547C106.387 34.7623 106.076 35.0853 105.838 35.516C105.6 35.9353 105.481 36.4567 105.481 37.08C105.481 37.692 105.6 38.2133 105.838 38.644C106.076 39.0633 106.387 39.3807 106.773 39.596C107.169 39.8113 107.594 39.919 108.048 39.919ZM114.514 41.5V29.328H116.35V41.5H114.514ZM122.392 41.772C121.542 41.772 120.783 41.5737 120.114 41.177C119.446 40.7803 118.919 40.2363 118.533 39.545C118.159 38.8537 117.972 38.066 117.972 37.182C117.972 36.3547 118.154 35.5897 118.516 34.887C118.879 34.1843 119.383 33.6233 120.029 33.204C120.687 32.7733 121.44 32.558 122.29 32.558C123.186 32.558 123.945 32.7507 124.568 33.136C125.203 33.5213 125.685 34.0483 126.013 34.717C126.342 35.3857 126.506 36.1393 126.506 36.978C126.506 37.1027 126.501 37.216 126.489 37.318C126.489 37.42 126.484 37.4993 126.472 37.556H119.774C119.82 38.032 119.939 38.4457 120.131 38.797C120.381 39.239 120.709 39.5733 121.117 39.8C121.525 40.0267 121.967 40.14 122.443 40.14C123.021 40.14 123.503 40.0097 123.888 39.749C124.285 39.477 124.597 39.1427 124.823 38.746L126.336 39.477C125.962 40.157 125.452 40.7123 124.806 41.143C124.16 41.5623 123.356 41.772 122.392 41.772ZM119.876 36.179H124.687C124.676 35.9637 124.619 35.737 124.517 35.499C124.415 35.2497 124.268 35.023 124.075 34.819C123.883 34.615 123.639 34.4507 123.344 34.326C123.05 34.19 122.704 34.122 122.307 34.122C121.809 34.122 121.367 34.2523 120.981 34.513C120.596 34.7623 120.296 35.1137 120.08 35.567C119.99 35.7597 119.922 35.9637 119.876 36.179ZM133.979 41.5L130.715 29.328H132.789L134.727 37.233L134.931 38.287H135.033L135.288 37.233L137.736 29.328H139.606L141.952 37.233L142.207 38.27H142.309L142.513 37.233L144.451 29.328H146.508L143.295 41.5H141.323L138.994 33.425L138.722 32.286H138.62L138.331 33.425L135.9 41.5H133.979ZM149.922 41.772C149.299 41.772 148.743 41.6473 148.256 41.398C147.78 41.1487 147.4 40.8087 147.117 40.378C146.845 39.936 146.709 39.4317 146.709 38.865C146.709 38.2417 146.868 37.7147 147.185 37.284C147.514 36.8533 147.95 36.5247 148.494 36.298C149.038 36.0713 149.639 35.958 150.296 35.958C150.659 35.958 150.993 35.9863 151.299 36.043C151.616 36.0883 151.888 36.145 152.115 36.213C152.353 36.281 152.54 36.3547 152.676 36.434V35.975C152.676 35.4083 152.472 34.955 152.064 34.615C151.656 34.275 151.129 34.105 150.483 34.105C150.041 34.105 149.622 34.207 149.225 34.411C148.828 34.6037 148.511 34.87 148.273 35.21L147.015 34.241C147.264 33.8897 147.565 33.5893 147.916 33.34C148.279 33.0907 148.681 32.898 149.123 32.762C149.576 32.626 150.047 32.558 150.534 32.558C151.792 32.558 152.761 32.8697 153.441 33.493C154.121 34.105 154.461 34.9663 154.461 36.077V41.5H152.676V40.429H152.574C152.427 40.6557 152.223 40.871 151.962 41.075C151.713 41.279 151.412 41.4433 151.061 41.568C150.721 41.704 150.341 41.772 149.922 41.772ZM150.245 40.276C150.721 40.276 151.14 40.1627 151.503 39.936C151.877 39.7093 152.166 39.4147 152.37 39.052C152.574 38.678 152.676 38.2757 152.676 37.845C152.427 37.6977 152.121 37.5787 151.758 37.488C151.407 37.386 151.033 37.335 150.636 37.335C149.888 37.335 149.355 37.4823 149.038 37.777C148.721 38.0717 148.562 38.44 148.562 38.882C148.562 39.29 148.715 39.6243 149.021 39.885C149.327 40.1457 149.735 40.276 150.245 40.276ZM156.499 41.5V29.328H158.335V41.5H156.499ZM160.517 41.5V29.328H162.353V41.5H160.517ZM168.395 41.772C167.545 41.772 166.786 41.5737 166.117 41.177C165.449 40.7803 164.922 40.2363 164.536 39.545C164.162 38.8537 163.975 38.066 163.975 37.182C163.975 36.3547 164.157 35.5897 164.519 34.887C164.882 34.1843 165.386 33.6233 166.032 33.204C166.69 32.7733 167.443 32.558 168.293 32.558C169.189 32.558 169.948 32.7507 170.571 33.136C171.206 33.5213 171.688 34.0483 172.016 34.717C172.345 35.3857 172.509 36.1393 172.509 36.978C172.509 37.1027 172.504 37.216 172.492 37.318C172.492 37.42 172.487 37.4993 172.475 37.556H165.777C165.823 38.032 165.942 38.4457 166.134 38.797C166.384 39.239 166.712 39.5733 167.12 39.8C167.528 40.0267 167.97 40.14 168.446 40.14C169.024 40.14 169.506 40.0097 169.891 39.749C170.288 39.477 170.6 39.1427 170.826 38.746L172.339 39.477C171.965 40.157 171.455 40.7123 170.809 41.143C170.163 41.5623 169.359 41.772 168.395 41.772ZM165.879 36.179H170.69C170.679 35.9637 170.622 35.737 170.52 35.499C170.418 35.2497 170.271 35.023 170.078 34.819C169.886 34.615 169.642 34.4507 169.347 34.326C169.053 34.19 168.707 34.122 168.31 34.122C167.812 34.122 167.37 34.2523 166.984 34.513C166.599 34.7623 166.299 35.1137 166.083 35.567C165.993 35.7597 165.925 35.9637 165.879 36.179ZM173.369 32.83H174.882V30.382H176.718V32.83H178.843V34.428H176.718V38.593C176.718 39.0237 176.803 39.3523 176.973 39.579C177.154 39.8057 177.454 39.919 177.874 39.919C178.078 39.919 178.259 39.8907 178.418 39.834C178.576 39.766 178.735 39.6867 178.894 39.596V41.381C178.701 41.4603 178.497 41.5227 178.282 41.568C178.066 41.6133 177.811 41.636 177.517 41.636C176.712 41.636 176.072 41.4037 175.596 40.939C175.12 40.463 174.882 39.8113 174.882 38.984V34.428H173.369V32.83Z" fill="white"/>
</svg>
