<svg width="242" height="55" viewBox="0 0 242 55" fill="none" xmlns="http://www.w3.org/2000/svg">
<rect x="0.5" y="0.5" width="241" height="54" rx="27" fill="#1F1F1F"/>
<rect x="0.5" y="0.5" width="241" height="54" rx="27" stroke="#747775"/>
<path d="M57 23.791H21V18.1455C21 15.0809 23.6422 12.5001 26.7798 12.5001H51.2202C54.3578 12.5001 57 15.0809 57 18.1455V23.791Z" fill="#34A853"/>
<path d="M57 29H21V23C21 19.7429 23.6422 17 26.7798 17H51.2202C54.3578 17 57 19.7429 57 23V29Z" fill="#FBBC04"/>
<path d="M57 34H21V28C21 24.7429 23.6422 22 26.7798 22H51.2202C54.3578 22 57 24.7429 57 28V34Z" fill="#EA4335"/>
<path d="M21 25.2409L43.8493 30.4025C46.4795 31.0477 49.4384 30.4025 51.5753 28.7895L57 24.9183V37.0157C57 40.0804 54.3699 42.4999 51.2466 42.4999H26.7534C23.6301 42.4999 21 40.0804 21 37.0157V25.2409Z" fill="#4285F4"/>
<path d="M70.053 21.5V12.192H71.977L74.694 19.277H74.772L77.502 12.192H79.426V21.5H78.022V16.235L78.1 14.584H78.022L75.305 21.5H74.174L71.457 14.584H71.379L71.457 16.235V21.5H70.053ZM84.1976 21.708C83.5476 21.708 82.9669 21.5563 82.4556 21.253C81.9443 20.9497 81.5413 20.5337 81.2466 20.005C80.9606 19.4763 80.8176 18.874 80.8176 18.198C80.8176 17.5653 80.9563 16.9803 81.2336 16.443C81.5109 15.9057 81.8966 15.4767 82.3906 15.156C82.8933 14.8267 83.4696 14.662 84.1196 14.662C84.8043 14.662 85.3849 14.8093 85.8616 15.104C86.3469 15.3987 86.7153 15.8017 86.9666 16.313C87.2179 16.8243 87.3436 17.4007 87.3436 18.042C87.3436 18.1373 87.3393 18.224 87.3306 18.302C87.3306 18.38 87.3263 18.4407 87.3176 18.484H82.1956C82.2303 18.848 82.3213 19.1643 82.4686 19.433C82.6593 19.771 82.9106 20.0267 83.2226 20.2C83.5346 20.3733 83.8726 20.46 84.2366 20.46C84.6786 20.46 85.0469 20.3603 85.3416 20.161C85.6449 19.953 85.8833 19.6973 86.0566 19.394L87.2136 19.953C86.9276 20.473 86.5376 20.8977 86.0436 21.227C85.5496 21.5477 84.9343 21.708 84.1976 21.708ZM82.2736 17.431H85.9526C85.9439 17.2663 85.9006 17.093 85.8226 16.911C85.7446 16.7203 85.6319 16.547 85.4846 16.391C85.3373 16.235 85.1509 16.1093 84.9256 16.014C84.7003 15.91 84.4359 15.858 84.1326 15.858C83.7513 15.858 83.4133 15.9577 83.1186 16.157C82.8239 16.3477 82.5943 16.6163 82.4296 16.963C82.3603 17.1103 82.3083 17.2663 82.2736 17.431ZM91.6996 24.516C91.119 24.516 90.6163 24.4207 90.1916 24.23C89.7756 24.048 89.4376 23.8097 89.1776 23.515C88.9176 23.229 88.7313 22.9343 88.6186 22.631L89.9186 22.085C90.0573 22.4317 90.2783 22.7133 90.5816 22.93C90.8936 23.1553 91.2663 23.268 91.6996 23.268C92.315 23.268 92.796 23.086 93.1426 22.722C93.4893 22.358 93.6626 21.8423 93.6626 21.175V20.538H93.5846C93.3766 20.8413 93.0906 21.0883 92.7266 21.279C92.3626 21.4697 91.9423 21.565 91.4656 21.565C90.9023 21.565 90.3823 21.422 89.9056 21.136C89.4376 20.85 89.0606 20.4513 88.7746 19.94C88.4973 19.42 88.3586 18.8133 88.3586 18.12C88.3586 17.418 88.4973 16.8113 88.7746 16.3C89.0606 15.78 89.4376 15.377 89.9056 15.091C90.3823 14.805 90.9023 14.662 91.4656 14.662C91.9423 14.662 92.3626 14.7573 92.7266 14.948C93.0906 15.13 93.3766 15.3813 93.5846 15.702H93.6626V14.87H95.0016V21.149C95.0016 21.8683 94.8586 22.4793 94.5726 22.982C94.2953 23.4847 93.9096 23.866 93.4156 24.126C92.9216 24.386 92.3496 24.516 91.6996 24.516ZM91.7126 20.291C92.0593 20.291 92.38 20.2087 92.6746 20.044C92.978 19.8707 93.2163 19.6237 93.3896 19.303C93.5716 18.9737 93.6626 18.5793 93.6626 18.12C93.6626 17.6347 93.5716 17.2317 93.3896 16.911C93.2163 16.5903 92.978 16.3477 92.6746 16.183C92.38 16.0183 92.0593 15.936 91.7126 15.936C91.366 15.936 91.041 16.0183 90.7376 16.183C90.443 16.3477 90.2046 16.5947 90.0226 16.924C89.8406 17.2447 89.7496 17.6433 89.7496 18.12C89.7496 18.588 89.8406 18.9867 90.0226 19.316C90.2046 19.6367 90.443 19.8793 90.7376 20.044C91.041 20.2087 91.366 20.291 91.7126 20.291ZM96.1257 14.87H97.2827V12.998H98.6867V14.87H100.312V16.092H98.6867V19.277C98.6867 19.6063 98.7517 19.8577 98.8817 20.031C99.0204 20.2043 99.2501 20.291 99.5707 20.291C99.7267 20.291 99.8654 20.2693 99.9867 20.226C100.108 20.174 100.229 20.1133 100.351 20.044V21.409C100.203 21.4697 100.047 21.5173 99.8827 21.552C99.7181 21.5867 99.5231 21.604 99.2977 21.604C98.6824 21.604 98.1927 21.4263 97.8287 21.071C97.4647 20.707 97.2827 20.2087 97.2827 19.576V16.092H96.1257V14.87ZM104.434 21.708C103.784 21.708 103.203 21.5563 102.692 21.253C102.181 20.9497 101.778 20.5337 101.483 20.005C101.197 19.4763 101.054 18.874 101.054 18.198C101.054 17.5653 101.193 16.9803 101.47 16.443C101.747 15.9057 102.133 15.4767 102.627 15.156C103.13 14.8267 103.706 14.662 104.356 14.662C105.041 14.662 105.621 14.8093 106.098 15.104C106.583 15.3987 106.952 15.8017 107.203 16.313C107.454 16.8243 107.58 17.4007 107.58 18.042C107.58 18.1373 107.576 18.224 107.567 18.302C107.567 18.38 107.563 18.4407 107.554 18.484H102.432C102.467 18.848 102.558 19.1643 102.705 19.433C102.896 19.771 103.147 20.0267 103.459 20.2C103.771 20.3733 104.109 20.46 104.473 20.46C104.915 20.46 105.283 20.3603 105.578 20.161C105.881 19.953 106.12 19.6973 106.293 19.394L107.45 19.953C107.164 20.473 106.774 20.8977 106.28 21.227C105.786 21.5477 105.171 21.708 104.434 21.708ZM102.51 17.431H106.189C106.18 17.2663 106.137 17.093 106.059 16.911C105.981 16.7203 105.868 16.547 105.721 16.391C105.574 16.235 105.387 16.1093 105.162 16.014C104.937 15.91 104.672 15.858 104.369 15.858C103.988 15.858 103.65 15.9577 103.355 16.157C103.06 16.3477 102.831 16.6163 102.666 16.963C102.597 17.1103 102.545 17.2663 102.51 17.431ZM108.882 21.5V12.192H110.286V17.678L113.094 14.87H114.836V14.948L112.275 17.483L114.927 21.422V21.5H113.263L111.287 18.458L110.286 19.446V21.5H108.882ZM115.905 21.5V14.87H117.309V21.5H115.905ZM116.607 13.895C116.347 13.895 116.122 13.804 115.931 13.622C115.749 13.4313 115.658 13.206 115.658 12.946C115.658 12.6773 115.749 12.4563 115.931 12.283C116.122 12.101 116.347 12.01 116.607 12.01C116.876 12.01 117.101 12.101 117.283 12.283C117.465 12.4563 117.556 12.6773 117.556 12.946C117.556 13.206 117.465 13.4313 117.283 13.622C117.101 13.804 116.876 13.895 116.607 13.895ZM119.051 21.5V14.87H120.377V15.78H120.455C120.646 15.4593 120.928 15.195 121.3 14.987C121.682 14.7703 122.098 14.662 122.548 14.662C123.363 14.662 123.974 14.9047 124.381 15.39C124.789 15.8667 124.992 16.508 124.992 17.314V21.5H123.601V17.496C123.601 16.9587 123.467 16.5687 123.198 16.326C122.93 16.0747 122.579 15.949 122.145 15.949C121.807 15.949 121.513 16.0443 121.261 16.235C121.01 16.417 120.811 16.6597 120.663 16.963C120.525 17.2663 120.455 17.5913 120.455 17.938V21.5H119.051ZM125.807 14.87H126.964V12.998H128.368V14.87H129.993V16.092H128.368V19.277C128.368 19.6063 128.433 19.8577 128.563 20.031C128.702 20.2043 128.932 20.291 129.252 20.291C129.408 20.291 129.547 20.2693 129.668 20.226C129.79 20.174 129.911 20.1133 130.032 20.044V21.409C129.885 21.4697 129.729 21.5173 129.564 21.552C129.4 21.5867 129.205 21.604 128.979 21.604C128.364 21.604 127.874 21.4263 127.51 21.071C127.146 20.707 126.964 20.2087 126.964 19.576V16.092H125.807V14.87ZM134.116 21.708C133.466 21.708 132.885 21.5563 132.374 21.253C131.862 20.9497 131.459 20.5337 131.165 20.005C130.879 19.4763 130.736 18.874 130.736 18.198C130.736 17.5653 130.874 16.9803 131.152 16.443C131.429 15.9057 131.815 15.4767 132.309 15.156C132.811 14.8267 133.388 14.662 134.038 14.662C134.722 14.662 135.303 14.8093 135.78 15.104C136.265 15.3987 136.633 15.8017 136.885 16.313C137.136 16.8243 137.262 17.4007 137.262 18.042C137.262 18.1373 137.257 18.224 137.249 18.302C137.249 18.38 137.244 18.4407 137.236 18.484H132.114C132.148 18.848 132.239 19.1643 132.387 19.433C132.577 19.771 132.829 20.0267 133.141 20.2C133.453 20.3733 133.791 20.46 134.155 20.46C134.597 20.46 134.965 20.3603 135.26 20.161C135.563 19.953 135.801 19.6973 135.975 19.394L137.132 19.953C136.846 20.473 136.456 20.8977 135.962 21.227C135.468 21.5477 134.852 21.708 134.116 21.708ZM132.192 17.431H135.871C135.862 17.2663 135.819 17.093 135.741 16.911C135.663 16.7203 135.55 16.547 135.403 16.391C135.255 16.235 135.069 16.1093 134.844 16.014C134.618 15.91 134.354 15.858 134.051 15.858C133.669 15.858 133.331 15.9577 133.037 16.157C132.742 16.3477 132.512 16.6163 132.348 16.963C132.278 17.1103 132.226 17.2663 132.192 17.431ZM133.466 13.596L134.077 11.932H135.663L134.623 13.596H133.466ZM141.046 21.708C140.517 21.708 140.058 21.63 139.668 21.474C139.278 21.3093 138.957 21.0927 138.706 20.824C138.454 20.5467 138.268 20.2477 138.147 19.927L139.408 19.381C139.564 19.7363 139.785 20.0093 140.071 20.2C140.365 20.382 140.703 20.473 141.085 20.473C141.431 20.473 141.73 20.4123 141.982 20.291C142.233 20.161 142.359 19.953 142.359 19.667C142.359 19.485 142.298 19.3377 142.177 19.225C142.064 19.1037 141.908 19.004 141.709 18.926C141.518 18.848 141.297 18.7787 141.046 18.718L140.253 18.536C139.941 18.458 139.642 18.3367 139.356 18.172C139.078 17.9987 138.853 17.782 138.68 17.522C138.506 17.262 138.42 16.9543 138.42 16.599C138.42 16.2003 138.532 15.858 138.758 15.572C138.992 15.2773 139.304 15.052 139.694 14.896C140.084 14.74 140.504 14.662 140.955 14.662C141.371 14.662 141.748 14.7183 142.086 14.831C142.432 14.935 142.731 15.0953 142.983 15.312C143.243 15.52 143.446 15.78 143.594 16.092L142.385 16.638C142.237 16.3433 142.038 16.1397 141.787 16.027C141.535 15.9057 141.262 15.845 140.968 15.845C140.638 15.845 140.361 15.9143 140.136 16.053C139.919 16.183 139.811 16.3563 139.811 16.573C139.811 16.7983 139.906 16.976 140.097 17.106C140.296 17.236 140.539 17.34 140.825 17.418L141.787 17.652C142.445 17.8167 142.939 18.068 143.269 18.406C143.598 18.7353 143.763 19.1383 143.763 19.615C143.763 20.0397 143.641 20.4123 143.399 20.733C143.156 21.045 142.827 21.2877 142.411 21.461C142.003 21.6257 141.548 21.708 141.046 21.708Z" fill="white"/>
<path d="M72.791 41.772C72.1677 41.772 71.6123 41.6473 71.125 41.398C70.649 41.1487 70.2693 40.8087 69.986 40.378C69.714 39.936 69.578 39.4317 69.578 38.865C69.578 38.2417 69.7367 37.7147 70.054 37.284C70.3827 36.8533 70.819 36.5247 71.363 36.298C71.907 36.0713 72.5077 35.958 73.165 35.958C73.5277 35.958 73.862 35.9863 74.168 36.043C74.4853 36.0883 74.7573 36.145 74.984 36.213C75.222 36.281 75.409 36.3547 75.545 36.434V35.975C75.545 35.4083 75.341 34.955 74.933 34.615C74.525 34.275 73.998 34.105 73.352 34.105C72.91 34.105 72.4907 34.207 72.094 34.411C71.6973 34.6037 71.38 34.87 71.142 35.21L69.884 34.241C70.1333 33.8897 70.4337 33.5893 70.785 33.34C71.1477 33.0907 71.55 32.898 71.992 32.762C72.4453 32.626 72.9157 32.558 73.403 32.558C74.661 32.558 75.63 32.8697 76.31 33.493C76.99 34.105 77.33 34.9663 77.33 36.077V41.5H75.545V40.429H75.443C75.2957 40.6557 75.0917 40.871 74.831 41.075C74.5817 41.279 74.2813 41.4433 73.93 41.568C73.59 41.704 73.2103 41.772 72.791 41.772ZM73.114 40.276C73.59 40.276 74.0093 40.1627 74.372 39.936C74.746 39.7093 75.035 39.4147 75.239 39.052C75.443 38.678 75.545 38.2757 75.545 37.845C75.2957 37.6977 74.9897 37.5787 74.627 37.488C74.2757 37.386 73.9017 37.335 73.505 37.335C72.757 37.335 72.2243 37.4823 71.907 37.777C71.5897 38.0717 71.431 38.44 71.431 38.882C71.431 39.29 71.584 39.6243 71.89 39.885C72.196 40.1457 72.604 40.276 73.114 40.276ZM89.056 41.772C88.1833 41.772 87.3617 41.6133 86.591 41.296C85.8203 40.9787 85.1403 40.5367 84.551 39.97C83.973 39.392 83.514 38.7177 83.174 37.947C82.8453 37.165 82.681 36.3207 82.681 35.414C82.681 34.5073 82.8453 33.6687 83.174 32.898C83.514 32.116 83.973 31.4417 84.551 30.875C85.1403 30.297 85.8203 29.8493 86.591 29.532C87.3617 29.2147 88.1833 29.056 89.056 29.056C89.9853 29.056 90.841 29.2203 91.623 29.549C92.4163 29.8777 93.0793 30.3367 93.612 30.926L92.32 32.201C92.0593 31.9063 91.759 31.657 91.419 31.453C91.0903 31.249 90.7277 31.096 90.331 30.994C89.9343 30.8807 89.5093 30.824 89.056 30.824C88.4553 30.824 87.883 30.9317 87.339 31.147C86.795 31.3623 86.3133 31.674 85.894 32.082C85.486 32.4787 85.163 32.9603 84.925 33.527C84.687 34.0823 84.568 34.7113 84.568 35.414C84.568 36.1167 84.687 36.7513 84.925 37.318C85.1743 37.8733 85.503 38.355 85.911 38.763C86.3303 39.1597 86.812 39.4657 87.356 39.681C87.9 39.8963 88.4723 40.004 89.073 40.004C89.6283 40.004 90.144 39.9247 90.62 39.766C91.1073 39.6073 91.5323 39.3807 91.895 39.086C92.2577 38.7913 92.5523 38.4343 92.779 38.015C93.0057 37.5843 93.1473 37.1027 93.204 36.57H89.039V34.921H94.955C94.9777 35.057 95.0003 35.2157 95.023 35.397C95.0457 35.567 95.057 35.7313 95.057 35.89V35.907C95.057 36.7797 94.904 37.5787 94.598 38.304C94.3033 39.0293 93.8897 39.6527 93.357 40.174C92.8243 40.684 92.1897 41.0807 91.453 41.364C90.7277 41.636 89.9287 41.772 89.056 41.772ZM100.531 41.772C99.6355 41.772 98.8479 41.568 98.1679 41.16C97.4879 40.752 96.9552 40.2023 96.5699 39.511C96.1845 38.8083 95.9919 38.0263 95.9919 37.165C95.9919 36.3037 96.1845 35.5273 96.5699 34.836C96.9552 34.1333 97.4879 33.578 98.1679 33.17C98.8479 32.762 99.6355 32.558 100.531 32.558C101.415 32.558 102.197 32.7677 102.877 33.187C103.557 33.595 104.09 34.1447 104.475 34.836C104.86 35.5273 105.053 36.3037 105.053 37.165C105.053 38.0263 104.86 38.8083 104.475 39.511C104.09 40.2023 103.557 40.752 102.877 41.16C102.197 41.568 101.415 41.772 100.531 41.772ZM100.531 40.089C101.007 40.089 101.449 39.9757 101.857 39.749C102.265 39.511 102.594 39.1767 102.843 38.746C103.104 38.304 103.234 37.777 103.234 37.165C103.234 36.553 103.104 36.0317 102.843 35.601C102.594 35.159 102.265 34.8247 101.857 34.598C101.449 34.36 101.007 34.241 100.531 34.241C100.055 34.241 99.6072 34.36 99.1879 34.598C98.7799 34.8247 98.4455 35.159 98.1849 35.601C97.9355 36.0317 97.8109 36.553 97.8109 37.165C97.8109 37.777 97.9355 38.304 98.1849 38.746C98.4455 39.1767 98.7855 39.511 99.2049 39.749C99.6242 39.9757 100.066 40.089 100.531 40.089ZM110.824 41.772C109.929 41.772 109.141 41.568 108.461 41.16C107.781 40.752 107.248 40.2023 106.863 39.511C106.478 38.8083 106.285 38.0263 106.285 37.165C106.285 36.3037 106.478 35.5273 106.863 34.836C107.248 34.1333 107.781 33.578 108.461 33.17C109.141 32.762 109.929 32.558 110.824 32.558C111.708 32.558 112.49 32.7677 113.17 33.187C113.85 33.595 114.383 34.1447 114.768 34.836C115.153 35.5273 115.346 36.3037 115.346 37.165C115.346 38.0263 115.153 38.8083 114.768 39.511C114.383 40.2023 113.85 40.752 113.17 41.16C112.49 41.568 111.708 41.772 110.824 41.772ZM110.824 40.089C111.3 40.089 111.742 39.9757 112.15 39.749C112.558 39.511 112.887 39.1767 113.136 38.746C113.397 38.304 113.527 37.777 113.527 37.165C113.527 36.553 113.397 36.0317 113.136 35.601C112.887 35.159 112.558 34.8247 112.15 34.598C111.742 34.36 111.3 34.241 110.824 34.241C110.348 34.241 109.9 34.36 109.481 34.598C109.073 34.8247 108.739 35.159 108.478 35.601C108.229 36.0317 108.104 36.553 108.104 37.165C108.104 37.777 108.229 38.304 108.478 38.746C108.739 39.1767 109.079 39.511 109.498 39.749C109.917 39.9757 110.359 40.089 110.824 40.089ZM120.947 45.444C120.187 45.444 119.53 45.3193 118.975 45.07C118.431 44.832 117.989 44.5203 117.649 44.135C117.309 43.761 117.065 43.3757 116.918 42.979L118.618 42.265C118.799 42.7183 119.088 43.0867 119.485 43.37C119.893 43.6647 120.38 43.812 120.947 43.812C121.751 43.812 122.38 43.574 122.834 43.098C123.287 42.622 123.514 41.9477 123.514 41.075V40.242H123.412C123.14 40.6387 122.766 40.9617 122.29 41.211C121.814 41.4603 121.264 41.585 120.641 41.585C119.904 41.585 119.224 41.398 118.601 41.024C117.989 40.65 117.496 40.1287 117.122 39.46C116.759 38.78 116.578 37.9867 116.578 37.08C116.578 36.162 116.759 35.3687 117.122 34.7C117.496 34.02 117.989 33.493 118.601 33.119C119.224 32.745 119.904 32.558 120.641 32.558C121.264 32.558 121.814 32.6827 122.29 32.932C122.766 33.17 123.14 33.4987 123.412 33.918H123.514V32.83H125.265V41.041C125.265 41.9817 125.078 42.7807 124.704 43.438C124.341 44.0953 123.837 44.594 123.191 44.934C122.545 45.274 121.797 45.444 120.947 45.444ZM120.964 39.919C121.417 39.919 121.836 39.8113 122.222 39.596C122.618 39.3693 122.93 39.0463 123.157 38.627C123.395 38.1963 123.514 37.6807 123.514 37.08C123.514 36.4453 123.395 35.9183 123.157 35.499C122.93 35.0797 122.618 34.7623 122.222 34.547C121.836 34.3317 121.417 34.224 120.964 34.224C120.51 34.224 120.085 34.3317 119.689 34.547C119.303 34.7623 118.992 35.0853 118.754 35.516C118.516 35.9353 118.397 36.4567 118.397 37.08C118.397 37.692 118.516 38.2133 118.754 38.644C118.992 39.0633 119.303 39.3807 119.689 39.596C120.085 39.8113 120.51 39.919 120.964 39.919ZM127.43 41.5V29.328H129.266V41.5H127.43ZM135.308 41.772C134.458 41.772 133.699 41.5737 133.03 41.177C132.362 40.7803 131.835 40.2363 131.449 39.545C131.075 38.8537 130.888 38.066 130.888 37.182C130.888 36.3547 131.07 35.5897 131.432 34.887C131.795 34.1843 132.299 33.6233 132.945 33.204C133.603 32.7733 134.356 32.558 135.206 32.558C136.102 32.558 136.861 32.7507 137.484 33.136C138.119 33.5213 138.601 34.0483 138.929 34.717C139.258 35.3857 139.422 36.1393 139.422 36.978C139.422 37.1027 139.417 37.216 139.405 37.318C139.405 37.42 139.4 37.4993 139.388 37.556H132.69C132.736 38.032 132.855 38.4457 133.047 38.797C133.297 39.239 133.625 39.5733 134.033 39.8C134.441 40.0267 134.883 40.14 135.359 40.14C135.937 40.14 136.419 40.0097 136.804 39.749C137.201 39.477 137.513 39.1427 137.739 38.746L139.252 39.477C138.878 40.157 138.368 40.7123 137.722 41.143C137.076 41.5623 136.272 41.772 135.308 41.772ZM132.792 36.179H137.603C137.592 35.9637 137.535 35.737 137.433 35.499C137.331 35.2497 137.184 35.023 136.991 34.819C136.799 34.615 136.555 34.4507 136.26 34.326C135.966 34.19 135.62 34.122 135.223 34.122C134.725 34.122 134.283 34.2523 133.897 34.513C133.512 34.7623 133.212 35.1137 132.996 35.567C132.906 35.7597 132.838 35.9637 132.792 36.179ZM146.895 41.5L143.631 29.328H145.705L147.643 37.233L147.847 38.287H147.949L148.204 37.233L150.652 29.328H152.522L154.868 37.233L155.123 38.27H155.225L155.429 37.233L157.367 29.328H159.424L156.211 41.5H154.239L151.91 33.425L151.638 32.286H151.536L151.247 33.425L148.816 41.5H146.895ZM162.838 41.772C162.215 41.772 161.659 41.6473 161.172 41.398C160.696 41.1487 160.316 40.8087 160.033 40.378C159.761 39.936 159.625 39.4317 159.625 38.865C159.625 38.2417 159.784 37.7147 160.101 37.284C160.43 36.8533 160.866 36.5247 161.41 36.298C161.954 36.0713 162.555 35.958 163.212 35.958C163.575 35.958 163.909 35.9863 164.215 36.043C164.532 36.0883 164.804 36.145 165.031 36.213C165.269 36.281 165.456 36.3547 165.592 36.434V35.975C165.592 35.4083 165.388 34.955 164.98 34.615C164.572 34.275 164.045 34.105 163.399 34.105C162.957 34.105 162.538 34.207 162.141 34.411C161.744 34.6037 161.427 34.87 161.189 35.21L159.931 34.241C160.18 33.8897 160.481 33.5893 160.832 33.34C161.195 33.0907 161.597 32.898 162.039 32.762C162.492 32.626 162.963 32.558 163.45 32.558C164.708 32.558 165.677 32.8697 166.357 33.493C167.037 34.105 167.377 34.9663 167.377 36.077V41.5H165.592V40.429H165.49C165.343 40.6557 165.139 40.871 164.878 41.075C164.629 41.279 164.328 41.4433 163.977 41.568C163.637 41.704 163.257 41.772 162.838 41.772ZM163.161 40.276C163.637 40.276 164.056 40.1627 164.419 39.936C164.793 39.7093 165.082 39.4147 165.286 39.052C165.49 38.678 165.592 38.2757 165.592 37.845C165.343 37.6977 165.037 37.5787 164.674 37.488C164.323 37.386 163.949 37.335 163.552 37.335C162.804 37.335 162.271 37.4823 161.954 37.777C161.637 38.0717 161.478 38.44 161.478 38.882C161.478 39.29 161.631 39.6243 161.937 39.885C162.243 40.1457 162.651 40.276 163.161 40.276ZM169.415 41.5V29.328H171.251V41.5H169.415ZM173.433 41.5V29.328H175.269V41.5H173.433ZM181.311 41.772C180.461 41.772 179.702 41.5737 179.033 41.177C178.365 40.7803 177.838 40.2363 177.452 39.545C177.078 38.8537 176.891 38.066 176.891 37.182C176.891 36.3547 177.073 35.5897 177.435 34.887C177.798 34.1843 178.302 33.6233 178.948 33.204C179.606 32.7733 180.359 32.558 181.209 32.558C182.105 32.558 182.864 32.7507 183.487 33.136C184.122 33.5213 184.604 34.0483 184.932 34.717C185.261 35.3857 185.425 36.1393 185.425 36.978C185.425 37.1027 185.42 37.216 185.408 37.318C185.408 37.42 185.403 37.4993 185.391 37.556H178.693C178.739 38.032 178.858 38.4457 179.05 38.797C179.3 39.239 179.628 39.5733 180.036 39.8C180.444 40.0267 180.886 40.14 181.362 40.14C181.94 40.14 182.422 40.0097 182.807 39.749C183.204 39.477 183.516 39.1427 183.742 38.746L185.255 39.477C184.881 40.157 184.371 40.7123 183.725 41.143C183.079 41.5623 182.275 41.772 181.311 41.772ZM178.795 36.179H183.606C183.595 35.9637 183.538 35.737 183.436 35.499C183.334 35.2497 183.187 35.023 182.994 34.819C182.802 34.615 182.558 34.4507 182.263 34.326C181.969 34.19 181.623 34.122 181.226 34.122C180.728 34.122 180.286 34.2523 179.9 34.513C179.515 34.7623 179.215 35.1137 178.999 35.567C178.909 35.7597 178.841 35.9637 178.795 36.179ZM186.285 32.83H187.798V30.382H189.634V32.83H191.759V34.428H189.634V38.593C189.634 39.0237 189.719 39.3523 189.889 39.579C190.07 39.8057 190.37 39.919 190.79 39.919C190.994 39.919 191.175 39.8907 191.334 39.834C191.492 39.766 191.651 39.6867 191.81 39.596V41.381C191.617 41.4603 191.413 41.5227 191.198 41.568C190.982 41.6133 190.727 41.636 190.433 41.636C189.628 41.636 188.988 41.4037 188.512 40.939C188.036 40.463 187.798 39.8113 187.798 38.984V34.428H186.285V32.83ZM198.227 41.772C197.785 41.772 197.383 41.704 197.02 41.568C196.658 41.432 196.34 41.2563 196.068 41.041C195.808 40.8143 195.598 40.582 195.439 40.344H195.337V41.5H193.603V29.328H195.439V32.796L195.337 34.003H195.439C195.598 33.7537 195.808 33.5213 196.068 33.306C196.34 33.0793 196.658 32.898 197.02 32.762C197.383 32.626 197.785 32.558 198.227 32.558C199.021 32.558 199.729 32.7563 200.352 33.153C200.976 33.5497 201.469 34.0937 201.831 34.785C202.205 35.4763 202.392 36.2697 202.392 37.165C202.392 38.0603 202.205 38.8537 201.831 39.545C201.469 40.2363 200.976 40.7803 200.352 41.177C199.729 41.5737 199.021 41.772 198.227 41.772ZM197.955 40.089C198.409 40.089 198.834 39.97 199.23 39.732C199.638 39.494 199.961 39.154 200.199 38.712C200.449 38.27 200.573 37.7543 200.573 37.165C200.573 36.5643 200.449 36.0487 200.199 35.618C199.961 35.176 199.638 34.836 199.23 34.598C198.834 34.36 198.409 34.241 197.955 34.241C197.502 34.241 197.077 34.36 196.68 34.598C196.284 34.836 195.961 35.176 195.711 35.618C195.462 36.0487 195.337 36.5643 195.337 37.165C195.337 37.7657 195.462 38.287 195.711 38.729C195.961 39.1597 196.284 39.494 196.68 39.732C197.077 39.97 197.502 40.089 197.955 40.089ZM208.04 41.772C207.19 41.772 206.43 41.5737 205.762 41.177C205.093 40.7803 204.566 40.2363 204.181 39.545C203.807 38.8537 203.62 38.066 203.62 37.182C203.62 36.3547 203.801 35.5897 204.164 34.887C204.526 34.1843 205.031 33.6233 205.677 33.204C206.334 32.7733 207.088 32.558 207.938 32.558C208.833 32.558 209.592 32.7507 210.216 33.136C210.85 33.5213 211.332 34.0483 211.661 34.717C211.989 35.3857 212.154 36.1393 212.154 36.978C212.154 37.1027 212.148 37.216 212.137 37.318C212.137 37.42 212.131 37.4993 212.12 37.556H205.422C205.467 38.032 205.586 38.4457 205.779 38.797C206.028 39.239 206.357 39.5733 206.765 39.8C207.173 40.0267 207.615 40.14 208.091 40.14C208.669 40.14 209.15 40.0097 209.536 39.749C209.932 39.477 210.244 39.1427 210.471 38.746L211.984 39.477C211.61 40.157 211.1 40.7123 210.454 41.143C209.808 41.5623 209.003 41.772 208.04 41.772ZM205.524 36.179H210.335C210.323 35.9637 210.267 35.737 210.165 35.499C210.063 35.2497 209.915 35.023 209.723 34.819C209.53 34.615 209.286 34.4507 208.992 34.326C208.697 34.19 208.351 34.122 207.955 34.122C207.456 34.122 207.014 34.2523 206.629 34.513C206.243 34.7623 205.943 35.1137 205.728 35.567C205.637 35.7597 205.569 35.9637 205.524 36.179ZM213.857 41.5V32.83H215.591V34.02H215.693C215.942 33.6007 216.311 33.255 216.798 32.983C217.297 32.6997 217.841 32.558 218.43 32.558C219.495 32.558 220.294 32.8753 220.827 33.51C221.36 34.1333 221.626 34.972 221.626 36.026V41.5H219.807V36.264C219.807 35.5613 219.631 35.0513 219.28 34.734C218.929 34.4053 218.47 34.241 217.903 34.241C217.461 34.241 217.076 34.3657 216.747 34.615C216.418 34.853 216.158 35.1703 215.965 35.567C215.784 35.9637 215.693 36.3887 215.693 36.842V41.5H213.857Z" fill="white"/>
</svg>
