<svg width="195" height="55" viewBox="0 0 195 55" fill="none" xmlns="http://www.w3.org/2000/svg">
<rect x="0.5" y="0.5" width="194" height="54" rx="27" fill="#1F1F1F"/>
<rect x="0.5" y="0.5" width="194" height="54" rx="27" stroke="#747775"/>
<path d="M57 23.791H21V18.1455C21 15.0809 23.6422 12.5001 26.7798 12.5001H51.2202C54.3578 12.5001 57 15.0809 57 18.1455V23.791Z" fill="#34A853"/>
<path d="M57 29H21V23C21 19.7429 23.6422 17 26.7798 17H51.2202C54.3578 17 57 19.7429 57 23V29Z" fill="#FBBC04"/>
<path d="M57 34H21V28C21 24.7429 23.6422 22 26.7798 22H51.2202C54.3578 22 57 24.7429 57 28V34Z" fill="#EA4335"/>
<path d="M21 25.2409L43.8493 30.4025C46.4795 31.0477 49.4384 30.4025 51.5753 28.7895L57 24.9183V37.0157C57 40.0804 54.3699 42.4999 51.2466 42.4999H26.7534C23.6301 42.4999 21 40.0804 21 37.0157V25.2409Z" fill="#4285F4"/>
<path d="M72.757 21.708C72.263 21.708 71.7907 21.6127 71.34 21.422C70.8893 21.2227 70.4907 20.9323 70.144 20.551C69.806 20.1697 69.5547 19.6973 69.39 19.134L70.742 18.588C70.8807 19.0907 71.1233 19.511 71.47 19.849C71.8167 20.187 72.25 20.356 72.77 20.356C73.0647 20.356 73.3377 20.304 73.589 20.2C73.849 20.096 74.057 19.9443 74.213 19.745C74.369 19.537 74.447 19.2857 74.447 18.991C74.447 18.7137 74.382 18.4797 74.252 18.289C74.122 18.0897 73.914 17.912 73.628 17.756C73.342 17.5913 72.978 17.431 72.536 17.275L71.951 17.067C71.6997 16.9717 71.444 16.8547 71.184 16.716C70.924 16.5773 70.6813 16.4083 70.456 16.209C70.2393 16.001 70.066 15.7583 69.936 15.481C69.806 15.2037 69.741 14.883 69.741 14.519C69.741 14.051 69.8623 13.6263 70.105 13.245C70.3563 12.8637 70.6987 12.5603 71.132 12.335C71.574 12.101 72.0853 11.984 72.666 11.984C73.264 11.984 73.7623 12.0923 74.161 12.309C74.5683 12.517 74.8847 12.7683 75.11 13.063C75.344 13.3577 75.5043 13.6393 75.591 13.908L74.304 14.454C74.252 14.272 74.1567 14.0943 74.018 13.921C73.888 13.7477 73.7103 13.6047 73.485 13.492C73.2683 13.3707 72.9997 13.31 72.679 13.31C72.4017 13.31 72.146 13.362 71.912 13.466C71.6867 13.57 71.5047 13.713 71.366 13.895C71.2273 14.0683 71.158 14.272 71.158 14.506C71.158 14.844 71.2967 15.1213 71.574 15.338C71.8513 15.546 72.2543 15.7367 72.783 15.91L73.381 16.118C73.6843 16.222 73.9833 16.3477 74.278 16.495C74.5727 16.6337 74.8413 16.8157 75.084 17.041C75.3267 17.2577 75.5173 17.5263 75.656 17.847C75.8033 18.159 75.877 18.5317 75.877 18.965C75.877 19.4417 75.7817 19.8577 75.591 20.213C75.409 20.5597 75.162 20.8457 74.85 21.071C74.5467 21.2877 74.2087 21.448 73.836 21.552C73.472 21.656 73.1123 21.708 72.757 21.708ZM77.2965 21.5V12.192H78.7005V17.678L81.5085 14.87H83.2505V14.948L80.6895 17.483L83.3415 21.422V21.5H81.6775L79.7015 18.458L78.7005 19.446V21.5H77.2965ZM87.1451 21.708C86.4604 21.708 85.8581 21.552 85.3381 21.24C84.8181 20.928 84.4107 20.5077 84.1161 19.979C83.8214 19.4417 83.6741 18.8437 83.6741 18.185C83.6741 17.5263 83.8214 16.9327 84.1161 16.404C84.4107 15.8667 84.8181 15.442 85.3381 15.13C85.8581 14.818 86.4604 14.662 87.1451 14.662C87.8211 14.662 88.4191 14.8223 88.9391 15.143C89.4591 15.455 89.8664 15.8753 90.1611 16.404C90.4557 16.9327 90.6031 17.5263 90.6031 18.185C90.6031 18.8437 90.4557 19.4417 90.1611 19.979C89.8664 20.5077 89.4591 20.928 88.9391 21.24C88.4191 21.552 87.8211 21.708 87.1451 21.708ZM87.1451 20.421C87.5091 20.421 87.8471 20.3343 88.1591 20.161C88.4711 19.979 88.7224 19.7233 88.9131 19.394C89.1124 19.056 89.2121 18.653 89.2121 18.185C89.2121 17.717 89.1124 17.3183 88.9131 16.989C88.7224 16.651 88.4711 16.3953 88.1591 16.222C87.8471 16.04 87.5091 15.949 87.1451 15.949C86.7811 15.949 86.4387 16.04 86.1181 16.222C85.8061 16.3953 85.5504 16.651 85.3511 16.989C85.1604 17.3183 85.0651 17.717 85.0651 18.185C85.0651 18.653 85.1604 19.056 85.3511 19.394C85.5504 19.7233 85.8104 19.979 86.1311 20.161C86.4517 20.3343 86.7897 20.421 87.1451 20.421ZM94.8991 21.708C94.3011 21.708 93.7551 21.5607 93.2611 21.266C92.7758 20.9627 92.3901 20.5597 92.1041 20.057C91.8181 19.5543 91.6751 18.9997 91.6751 18.393C91.6751 17.7517 91.8225 17.1883 92.1171 16.703C92.4118 16.209 92.7931 15.8233 93.2611 15.546C93.7378 15.26 94.2405 15.117 94.7691 15.117C95.1591 15.117 95.4885 15.1863 95.7571 15.325C96.0345 15.455 96.2425 15.5893 96.3811 15.728L96.4591 15.676C96.3465 15.3727 96.1601 15.0823 95.9001 14.805C95.7095 14.597 95.4928 14.402 95.2501 14.22L93.6771 14.922L93.2871 13.999L94.2231 13.583C94.1278 13.531 94.0325 13.4877 93.9371 13.453C93.5645 13.2883 93.2135 13.1757 92.8841 13.115L93.3261 12.01C93.8028 12.114 94.2751 12.2787 94.7431 12.504C95.0378 12.634 95.3195 12.7943 95.5881 12.985L96.9011 12.4L97.2911 13.31L96.4461 13.687C96.7061 13.9383 96.9445 14.22 97.1611 14.532C97.4818 15 97.7331 15.533 97.9151 16.131C98.0971 16.729 98.1881 17.3963 98.1881 18.133C98.1881 18.8437 98.0451 19.4677 97.7591 20.005C97.4818 20.5423 97.0961 20.9627 96.6021 21.266C96.1081 21.5607 95.5405 21.708 94.8991 21.708ZM94.9121 20.421C95.2675 20.421 95.5838 20.3387 95.8611 20.174C96.1471 20.0007 96.3725 19.7623 96.5371 19.459C96.7018 19.1557 96.7841 18.8047 96.7841 18.406C96.7841 17.9987 96.7018 17.6433 96.5371 17.34C96.3725 17.0367 96.1471 16.8027 95.8611 16.638C95.5838 16.4647 95.2718 16.378 94.9251 16.378C94.5785 16.378 94.2621 16.4647 93.9761 16.638C93.6988 16.8027 93.4735 17.0367 93.3001 17.34C93.1355 17.6433 93.0531 17.9943 93.0531 18.393C93.0531 18.8003 93.1355 19.1557 93.3001 19.459C93.4648 19.7623 93.6858 20.0007 93.9631 20.174C94.2491 20.3387 94.5655 20.421 94.9121 20.421ZM101.682 21.708C101.206 21.708 100.781 21.6127 100.408 21.422C100.044 21.2313 99.7539 20.9713 99.5372 20.642C99.3292 20.304 99.2252 19.9183 99.2252 19.485C99.2252 19.0083 99.3465 18.6053 99.5892 18.276C99.8405 17.9467 100.174 17.6953 100.59 17.522C101.006 17.3487 101.466 17.262 101.968 17.262C102.246 17.262 102.501 17.2837 102.735 17.327C102.978 17.3617 103.186 17.405 103.359 17.457C103.541 17.509 103.684 17.5653 103.788 17.626V17.275C103.788 16.8417 103.632 16.495 103.32 16.235C103.008 15.975 102.605 15.845 102.111 15.845C101.773 15.845 101.453 15.923 101.149 16.079C100.846 16.2263 100.603 16.43 100.421 16.69L99.4592 15.949C99.6499 15.6803 99.8795 15.4507 100.148 15.26C100.426 15.0693 100.733 14.922 101.071 14.818C101.418 14.714 101.778 14.662 102.15 14.662C103.112 14.662 103.853 14.9003 104.373 15.377C104.893 15.845 105.153 16.5037 105.153 17.353V21.5H103.788V20.681H103.71C103.598 20.8543 103.442 21.019 103.242 21.175C103.052 21.331 102.822 21.4567 102.553 21.552C102.293 21.656 102.003 21.708 101.682 21.708ZM101.929 20.564C102.293 20.564 102.614 20.4773 102.891 20.304C103.177 20.1307 103.398 19.9053 103.554 19.628C103.71 19.342 103.788 19.0343 103.788 18.705C103.598 18.5923 103.364 18.5013 103.086 18.432C102.818 18.354 102.532 18.315 102.228 18.315C101.656 18.315 101.249 18.4277 101.006 18.653C100.764 18.8783 100.642 19.16 100.642 19.498C100.642 19.81 100.759 20.0657 100.993 20.265C101.227 20.4643 101.539 20.564 101.929 20.564ZM109.837 21.5V14.87H111.241V21.5H109.837ZM109.967 13.596L110.578 11.932H112.164L111.124 13.596H109.967Z" fill="white"/>
<path d="M76.14 41.772C75.2673 41.772 74.4457 41.6133 73.675 41.296C72.9043 40.9787 72.2243 40.5367 71.635 39.97C71.057 39.392 70.598 38.7177 70.258 37.947C69.9293 37.165 69.765 36.3207 69.765 35.414C69.765 34.5073 69.9293 33.6687 70.258 32.898C70.598 32.116 71.057 31.4417 71.635 30.875C72.2243 30.297 72.9043 29.8493 73.675 29.532C74.4457 29.2147 75.2673 29.056 76.14 29.056C77.0693 29.056 77.925 29.2203 78.707 29.549C79.5003 29.8777 80.1633 30.3367 80.696 30.926L79.404 32.201C79.1433 31.9063 78.843 31.657 78.503 31.453C78.1743 31.249 77.8117 31.096 77.415 30.994C77.0183 30.8807 76.5933 30.824 76.14 30.824C75.5393 30.824 74.967 30.9317 74.423 31.147C73.879 31.3623 73.3973 31.674 72.978 32.082C72.57 32.4787 72.247 32.9603 72.009 33.527C71.771 34.0823 71.652 34.7113 71.652 35.414C71.652 36.1167 71.771 36.7513 72.009 37.318C72.2583 37.8733 72.587 38.355 72.995 38.763C73.4143 39.1597 73.896 39.4657 74.44 39.681C74.984 39.8963 75.5563 40.004 76.157 40.004C76.7123 40.004 77.228 39.9247 77.704 39.766C78.1913 39.6073 78.6163 39.3807 78.979 39.086C79.3417 38.7913 79.6363 38.4343 79.863 38.015C80.0897 37.5843 80.2313 37.1027 80.288 36.57H76.123V34.921H82.039C82.0617 35.057 82.0843 35.2157 82.107 35.397C82.1297 35.567 82.141 35.7313 82.141 35.89V35.907C82.141 36.7797 81.988 37.5787 81.682 38.304C81.3873 39.0293 80.9737 39.6527 80.441 40.174C79.9083 40.684 79.2737 41.0807 78.537 41.364C77.8117 41.636 77.0127 41.772 76.14 41.772ZM87.6149 41.772C86.7195 41.772 85.9319 41.568 85.2519 41.16C84.5719 40.752 84.0392 40.2023 83.6539 39.511C83.2685 38.8083 83.0759 38.0263 83.0759 37.165C83.0759 36.3037 83.2685 35.5273 83.6539 34.836C84.0392 34.1333 84.5719 33.578 85.2519 33.17C85.9319 32.762 86.7195 32.558 87.6149 32.558C88.4989 32.558 89.2809 32.7677 89.9609 33.187C90.6409 33.595 91.1735 34.1447 91.5589 34.836C91.9442 35.5273 92.1369 36.3037 92.1369 37.165C92.1369 38.0263 91.9442 38.8083 91.5589 39.511C91.1735 40.2023 90.6409 40.752 89.9609 41.16C89.2809 41.568 88.4989 41.772 87.6149 41.772ZM87.6149 40.089C88.0909 40.089 88.5329 39.9757 88.9409 39.749C89.3489 39.511 89.6775 39.1767 89.9269 38.746C90.1875 38.304 90.3179 37.777 90.3179 37.165C90.3179 36.553 90.1875 36.0317 89.9269 35.601C89.6775 35.159 89.3489 34.8247 88.9409 34.598C88.5329 34.36 88.0909 34.241 87.6149 34.241C87.1389 34.241 86.6912 34.36 86.2719 34.598C85.8639 34.8247 85.5295 35.159 85.2689 35.601C85.0195 36.0317 84.8949 36.553 84.8949 37.165C84.8949 37.777 85.0195 38.304 85.2689 38.746C85.5295 39.1767 85.8695 39.511 86.2889 39.749C86.7082 39.9757 87.1502 40.089 87.6149 40.089ZM97.9078 41.772C97.0125 41.772 96.2248 41.568 95.5448 41.16C94.8648 40.752 94.3322 40.2023 93.9468 39.511C93.5615 38.8083 93.3688 38.0263 93.3688 37.165C93.3688 36.3037 93.5615 35.5273 93.9468 34.836C94.3322 34.1333 94.8648 33.578 95.5448 33.17C96.2248 32.762 97.0125 32.558 97.9078 32.558C98.7918 32.558 99.5738 32.7677 100.254 33.187C100.934 33.595 101.467 34.1447 101.852 34.836C102.237 35.5273 102.43 36.3037 102.43 37.165C102.43 38.0263 102.237 38.8083 101.852 39.511C101.467 40.2023 100.934 40.752 100.254 41.16C99.5738 41.568 98.7918 41.772 97.9078 41.772ZM97.9078 40.089C98.3838 40.089 98.8258 39.9757 99.2338 39.749C99.6418 39.511 99.9705 39.1767 100.22 38.746C100.481 38.304 100.611 37.777 100.611 37.165C100.611 36.553 100.481 36.0317 100.22 35.601C99.9705 35.159 99.6418 34.8247 99.2338 34.598C98.8258 34.36 98.3838 34.241 97.9078 34.241C97.4318 34.241 96.9842 34.36 96.5648 34.598C96.1568 34.8247 95.8225 35.159 95.5618 35.601C95.3125 36.0317 95.1878 36.553 95.1878 37.165C95.1878 37.777 95.3125 38.304 95.5618 38.746C95.8225 39.1767 96.1625 39.511 96.5818 39.749C97.0012 39.9757 97.4432 40.089 97.9078 40.089ZM108.031 45.444C107.271 45.444 106.614 45.3193 106.059 45.07C105.515 44.832 105.073 44.5203 104.733 44.135C104.393 43.761 104.149 43.3757 104.002 42.979L105.702 42.265C105.883 42.7183 106.172 43.0867 106.569 43.37C106.977 43.6647 107.464 43.812 108.031 43.812C108.835 43.812 109.464 43.574 109.918 43.098C110.371 42.622 110.598 41.9477 110.598 41.075V40.242H110.496C110.224 40.6387 109.85 40.9617 109.374 41.211C108.898 41.4603 108.348 41.585 107.725 41.585C106.988 41.585 106.308 41.398 105.685 41.024C105.073 40.65 104.58 40.1287 104.206 39.46C103.843 38.78 103.662 37.9867 103.662 37.08C103.662 36.162 103.843 35.3687 104.206 34.7C104.58 34.02 105.073 33.493 105.685 33.119C106.308 32.745 106.988 32.558 107.725 32.558C108.348 32.558 108.898 32.6827 109.374 32.932C109.85 33.17 110.224 33.4987 110.496 33.918H110.598V32.83H112.349V41.041C112.349 41.9817 112.162 42.7807 111.788 43.438C111.425 44.0953 110.921 44.594 110.275 44.934C109.629 45.274 108.881 45.444 108.031 45.444ZM108.048 39.919C108.501 39.919 108.92 39.8113 109.306 39.596C109.702 39.3693 110.014 39.0463 110.241 38.627C110.479 38.1963 110.598 37.6807 110.598 37.08C110.598 36.4453 110.479 35.9183 110.241 35.499C110.014 35.0797 109.702 34.7623 109.306 34.547C108.92 34.3317 108.501 34.224 108.048 34.224C107.594 34.224 107.169 34.3317 106.773 34.547C106.387 34.7623 106.076 35.0853 105.838 35.516C105.6 35.9353 105.481 36.4567 105.481 37.08C105.481 37.692 105.6 38.2133 105.838 38.644C106.076 39.0633 106.387 39.3807 106.773 39.596C107.169 39.8113 107.594 39.919 108.048 39.919ZM114.514 41.5V29.328H116.35V41.5H114.514ZM122.392 41.772C121.542 41.772 120.783 41.5737 120.114 41.177C119.446 40.7803 118.919 40.2363 118.533 39.545C118.159 38.8537 117.972 38.066 117.972 37.182C117.972 36.3547 118.154 35.5897 118.516 34.887C118.879 34.1843 119.383 33.6233 120.029 33.204C120.687 32.7733 121.44 32.558 122.29 32.558C123.186 32.558 123.945 32.7507 124.568 33.136C125.203 33.5213 125.685 34.0483 126.013 34.717C126.342 35.3857 126.506 36.1393 126.506 36.978C126.506 37.1027 126.501 37.216 126.489 37.318C126.489 37.42 126.484 37.4993 126.472 37.556H119.774C119.82 38.032 119.939 38.4457 120.131 38.797C120.381 39.239 120.709 39.5733 121.117 39.8C121.525 40.0267 121.967 40.14 122.443 40.14C123.021 40.14 123.503 40.0097 123.888 39.749C124.285 39.477 124.597 39.1427 124.823 38.746L126.336 39.477C125.962 40.157 125.452 40.7123 124.806 41.143C124.16 41.5623 123.356 41.772 122.392 41.772ZM119.876 36.179H124.687C124.676 35.9637 124.619 35.737 124.517 35.499C124.415 35.2497 124.268 35.023 124.075 34.819C123.883 34.615 123.639 34.4507 123.344 34.326C123.05 34.19 122.704 34.122 122.307 34.122C121.809 34.122 121.367 34.2523 120.981 34.513C120.596 34.7623 120.296 35.1137 120.08 35.567C119.99 35.7597 119.922 35.9637 119.876 36.179ZM128.193 37.012V35.448H133.769V37.012H128.193ZM138.548 41.5L134.961 32.83H137.001L139.432 39.137H139.517L141.999 32.83H144.005L140.384 41.5H138.548ZM148.905 41.772C148.055 41.772 147.296 41.5737 146.627 41.177C145.958 40.7803 145.431 40.2363 145.046 39.545C144.672 38.8537 144.485 38.066 144.485 37.182C144.485 36.3547 144.666 35.5897 145.029 34.887C145.392 34.1843 145.896 33.6233 146.542 33.204C147.199 32.7733 147.953 32.558 148.803 32.558C149.698 32.558 150.458 32.7507 151.081 33.136C151.716 33.5213 152.197 34.0483 152.526 34.717C152.855 35.3857 153.019 36.1393 153.019 36.978C153.019 37.1027 153.013 37.216 153.002 37.318C153.002 37.42 152.996 37.4993 152.985 37.556H146.287C146.332 38.032 146.451 38.4457 146.644 38.797C146.893 39.239 147.222 39.5733 147.63 39.8C148.038 40.0267 148.48 40.14 148.956 40.14C149.534 40.14 150.016 40.0097 150.401 39.749C150.798 39.477 151.109 39.1427 151.336 38.746L152.849 39.477C152.475 40.157 151.965 40.7123 151.319 41.143C150.673 41.5623 149.868 41.772 148.905 41.772ZM146.389 36.179H151.2C151.189 35.9637 151.132 35.737 151.03 35.499C150.928 35.2497 150.781 35.023 150.588 34.819C150.395 34.615 150.152 34.4507 149.857 34.326C149.562 34.19 149.217 34.122 148.82 34.122C148.321 34.122 147.879 34.2523 147.494 34.513C147.109 34.7623 146.808 35.1137 146.593 35.567C146.502 35.7597 146.434 35.9637 146.389 36.179ZM157.967 41.772C157.276 41.772 156.675 41.67 156.165 41.466C155.655 41.2507 155.236 40.9673 154.907 40.616C154.579 40.2533 154.335 39.8623 154.176 39.443L155.825 38.729C156.029 39.1937 156.318 39.5507 156.692 39.8C157.078 40.038 157.52 40.157 158.018 40.157C158.472 40.157 158.863 40.0777 159.191 39.919C159.52 39.749 159.684 39.477 159.684 39.103C159.684 38.865 159.605 38.6723 159.446 38.525C159.299 38.3663 159.095 38.236 158.834 38.134C158.585 38.032 158.296 37.9413 157.967 37.862L156.93 37.624C156.522 37.522 156.131 37.3633 155.757 37.148C155.395 36.9213 155.1 36.638 154.873 36.298C154.647 35.958 154.533 35.5557 154.533 35.091C154.533 34.5697 154.681 34.122 154.975 33.748C155.281 33.3627 155.689 33.068 156.199 32.864C156.709 32.66 157.259 32.558 157.848 32.558C158.392 32.558 158.885 32.6317 159.327 32.779C159.781 32.915 160.172 33.1247 160.5 33.408C160.84 33.68 161.107 34.02 161.299 34.428L159.718 35.142C159.526 34.7567 159.265 34.4903 158.936 34.343C158.608 34.1843 158.251 34.105 157.865 34.105C157.435 34.105 157.072 34.1957 156.777 34.377C156.494 34.547 156.352 34.7737 156.352 35.057C156.352 35.3517 156.477 35.584 156.726 35.754C156.987 35.924 157.304 36.06 157.678 36.162L158.936 36.468C159.798 36.6833 160.444 37.012 160.874 37.454C161.305 37.8847 161.52 38.4117 161.52 39.035C161.52 39.5903 161.362 40.0777 161.044 40.497C160.727 40.905 160.296 41.2223 159.752 41.449C159.22 41.6643 158.625 41.772 157.967 41.772ZM163.123 41.5V29.328H164.959V36.502L168.631 32.83H170.909V32.932L167.56 36.247L171.028 41.398V41.5H168.852L166.268 37.522L164.959 38.814V41.5H163.123ZM172.307 41.5V32.83H174.143V41.5H172.307ZM173.225 31.555C172.885 31.555 172.59 31.436 172.341 31.198C172.103 30.9487 171.984 30.654 171.984 30.314C171.984 29.9627 172.103 29.6737 172.341 29.447C172.59 29.209 172.885 29.09 173.225 29.09C173.576 29.09 173.871 29.209 174.109 29.447C174.347 29.6737 174.466 29.9627 174.466 30.314C174.466 30.654 174.347 30.9487 174.109 31.198C173.871 31.436 173.576 31.555 173.225 31.555Z" fill="white"/>
</svg>
