<svg width="173" height="55" viewBox="0 0 173 55" fill="none" xmlns="http://www.w3.org/2000/svg">
<rect x="0.5" y="0.5" width="172" height="54" rx="27" fill="#1F1F1F"/>
<rect x="0.5" y="0.5" width="172" height="54" rx="27" stroke="#747775"/>
<path d="M57 23.791H21V18.1455C21 15.0809 23.6422 12.5001 26.7798 12.5001H51.2202C54.3578 12.5001 57 15.0809 57 18.1455V23.791Z" fill="#34A853"/>
<path d="M57 29H21V23C21 19.7429 23.6422 17 26.7798 17H51.2202C54.3578 17 57 19.7429 57 23V29Z" fill="#FBBC04"/>
<path d="M57 34H21V28C21 24.7429 23.6422 22 26.7798 22H51.2202C54.3578 22 57 24.7429 57 28V34Z" fill="#EA4335"/>
<path d="M21 25.2409L43.8493 30.4025C46.4795 31.0477 49.4384 30.4025 51.5753 28.7895L57 24.9183V37.0157C57 40.0804 54.3699 42.4999 51.2466 42.4999H26.7534C23.6301 42.4999 21 40.0804 21 37.0157V25.2409Z" fill="#4285F4"/>
<path d="M74.9346 21.708C74.2673 21.708 73.6389 21.5867 73.0496 21.344C72.4603 21.1013 71.9403 20.7633 71.4896 20.33C71.0476 19.888 70.6966 19.3723 70.4366 18.783C70.1853 18.185 70.0596 17.5393 70.0596 16.846C70.0596 16.1527 70.1853 15.5113 70.4366 14.922C70.6966 14.324 71.0476 13.8083 71.4896 13.375C71.9403 12.933 72.4603 12.5907 73.0496 12.348C73.6389 12.1053 74.2673 11.984 74.9346 11.984C75.6453 11.984 76.2996 12.1097 76.8976 12.361C77.5043 12.6123 78.0113 12.9633 78.4186 13.414L77.4306 14.389C77.2313 14.1637 77.0016 13.973 76.7416 13.817C76.4903 13.661 76.2129 13.544 75.9096 13.466C75.6063 13.3793 75.2813 13.336 74.9346 13.336C74.4753 13.336 74.0376 13.4183 73.6216 13.583C73.2056 13.7477 72.8373 13.986 72.5166 14.298C72.2046 14.6013 71.9576 14.9697 71.7756 15.403C71.5936 15.8277 71.5026 16.3087 71.5026 16.846C71.5026 17.3833 71.5936 17.8687 71.7756 18.302C71.9663 18.7267 72.2176 19.095 72.5296 19.407C72.8503 19.7103 73.2186 19.9443 73.6346 20.109C74.0506 20.2737 74.4883 20.356 74.9476 20.356C75.3723 20.356 75.7666 20.2953 76.1306 20.174C76.5033 20.0527 76.8283 19.8793 77.1056 19.654C77.3829 19.4287 77.6083 19.1557 77.7816 18.835C77.9549 18.5057 78.0633 18.1373 78.1066 17.73H74.9216V16.469H79.4456C79.4629 16.573 79.4803 16.6943 79.4976 16.833C79.5149 16.963 79.5236 17.0887 79.5236 17.21V17.223C79.5236 17.8903 79.4066 18.5013 79.1726 19.056C78.9473 19.6107 78.6309 20.0873 78.2236 20.486C77.8163 20.876 77.3309 21.1793 76.7676 21.396C76.2129 21.604 75.6019 21.708 74.9346 21.708ZM83.7095 21.708C83.0248 21.708 82.4225 21.552 81.9025 21.24C81.3825 20.928 80.9752 20.5077 80.6805 19.979C80.3858 19.4417 80.2385 18.8437 80.2385 18.185C80.2385 17.5263 80.3858 16.9327 80.6805 16.404C80.9752 15.8667 81.3825 15.442 81.9025 15.13C82.4225 14.818 83.0248 14.662 83.7095 14.662C84.3855 14.662 84.9835 14.8223 85.5035 15.143C86.0235 15.455 86.4308 15.8753 86.7255 16.404C87.0202 16.9327 87.1675 17.5263 87.1675 18.185C87.1675 18.8437 87.0202 19.4417 86.7255 19.979C86.4308 20.5077 86.0235 20.928 85.5035 21.24C84.9835 21.552 84.3855 21.708 83.7095 21.708ZM83.7095 20.421C84.0735 20.421 84.4115 20.3343 84.7235 20.161C85.0355 19.979 85.2868 19.7233 85.4775 19.394C85.6768 19.056 85.7765 18.653 85.7765 18.185C85.7765 17.717 85.6768 17.3183 85.4775 16.989C85.2868 16.651 85.0355 16.3953 84.7235 16.222C84.4115 16.04 84.0735 15.949 83.7095 15.949C83.3455 15.949 83.0032 16.04 82.6825 16.222C82.3705 16.3953 82.1148 16.651 81.9155 16.989C81.7248 17.3183 81.6295 17.717 81.6295 18.185C81.6295 18.653 81.7248 19.056 81.9155 19.394C82.1148 19.7233 82.3748 19.979 82.6955 20.161C83.0162 20.3343 83.3542 20.421 83.7095 20.421ZM91.5806 21.708C90.8959 21.708 90.2936 21.552 89.7736 21.24C89.2536 20.928 88.8463 20.5077 88.5516 19.979C88.2569 19.4417 88.1096 18.8437 88.1096 18.185C88.1096 17.5263 88.2569 16.9327 88.5516 16.404C88.8463 15.8667 89.2536 15.442 89.7736 15.13C90.2936 14.818 90.8959 14.662 91.5806 14.662C92.2566 14.662 92.8546 14.8223 93.3746 15.143C93.8946 15.455 94.3019 15.8753 94.5966 16.404C94.8913 16.9327 95.0386 17.5263 95.0386 18.185C95.0386 18.8437 94.8913 19.4417 94.5966 19.979C94.3019 20.5077 93.8946 20.928 93.3746 21.24C92.8546 21.552 92.2566 21.708 91.5806 21.708ZM91.5806 20.421C91.9446 20.421 92.2826 20.3343 92.5946 20.161C92.9066 19.979 93.1579 19.7233 93.3486 19.394C93.5479 19.056 93.6476 18.653 93.6476 18.185C93.6476 17.717 93.5479 17.3183 93.3486 16.989C93.1579 16.651 92.9066 16.3953 92.5946 16.222C92.2826 16.04 91.9446 15.949 91.5806 15.949C91.2166 15.949 90.8743 16.04 90.5536 16.222C90.2416 16.3953 89.9859 16.651 89.7866 16.989C89.5959 17.3183 89.5006 17.717 89.5006 18.185C89.5006 18.653 89.5959 19.056 89.7866 19.394C89.9859 19.7233 90.2459 19.979 90.5666 20.161C90.8873 20.3343 91.2253 20.421 91.5806 20.421ZM99.3217 24.516C98.741 24.516 98.2384 24.4207 97.8137 24.23C97.3977 24.048 97.0597 23.8097 96.7997 23.515C96.5397 23.229 96.3534 22.9343 96.2407 22.631L97.5407 22.085C97.6794 22.4317 97.9004 22.7133 98.2037 22.93C98.5157 23.1553 98.8884 23.268 99.3217 23.268C99.937 23.268 100.418 23.086 100.765 22.722C101.111 22.358 101.285 21.8423 101.285 21.175V20.538H101.207C100.999 20.8413 100.713 21.0883 100.349 21.279C99.9847 21.4697 99.5644 21.565 99.0877 21.565C98.5244 21.565 98.0044 21.422 97.5277 21.136C97.0597 20.85 96.6827 20.4513 96.3967 19.94C96.1194 19.42 95.9807 18.8133 95.9807 18.12C95.9807 17.418 96.1194 16.8113 96.3967 16.3C96.6827 15.78 97.0597 15.377 97.5277 15.091C98.0044 14.805 98.5244 14.662 99.0877 14.662C99.5644 14.662 99.9847 14.7573 100.349 14.948C100.713 15.13 100.999 15.3813 101.207 15.702H101.285V14.87H102.624V21.149C102.624 21.8683 102.481 22.4793 102.195 22.982C101.917 23.4847 101.532 23.866 101.038 24.126C100.544 24.386 99.9717 24.516 99.3217 24.516ZM99.3347 20.291C99.6814 20.291 100.002 20.2087 100.297 20.044C100.6 19.8707 100.838 19.6237 101.012 19.303C101.194 18.9737 101.285 18.5793 101.285 18.12C101.285 17.6347 101.194 17.2317 101.012 16.911C100.838 16.5903 100.6 16.3477 100.297 16.183C100.002 16.0183 99.6814 15.936 99.3347 15.936C98.988 15.936 98.663 16.0183 98.3597 16.183C98.065 16.3477 97.8267 16.5947 97.6447 16.924C97.4627 17.2447 97.3717 17.6433 97.3717 18.12C97.3717 18.588 97.4627 18.9867 97.6447 19.316C97.8267 19.6367 98.065 19.8793 98.3597 20.044C98.663 20.2087 98.988 20.291 99.3347 20.291ZM104.279 21.5V12.192H105.683V21.5H104.279ZM110.304 21.708C109.654 21.708 109.073 21.5563 108.562 21.253C108.051 20.9497 107.648 20.5337 107.353 20.005C107.067 19.4763 106.924 18.874 106.924 18.198C106.924 17.5653 107.063 16.9803 107.34 16.443C107.617 15.9057 108.003 15.4767 108.497 15.156C109 14.8267 109.576 14.662 110.226 14.662C110.911 14.662 111.491 14.8093 111.968 15.104C112.453 15.3987 112.822 15.8017 113.073 16.313C113.324 16.8243 113.45 17.4007 113.45 18.042C113.45 18.1373 113.446 18.224 113.437 18.302C113.437 18.38 113.433 18.4407 113.424 18.484H108.302C108.337 18.848 108.428 19.1643 108.575 19.433C108.766 19.771 109.017 20.0267 109.329 20.2C109.641 20.3733 109.979 20.46 110.343 20.46C110.785 20.46 111.153 20.3603 111.448 20.161C111.751 19.953 111.99 19.6973 112.163 19.394L113.32 19.953C113.034 20.473 112.644 20.8977 112.15 21.227C111.656 21.5477 111.041 21.708 110.304 21.708ZM108.38 17.431H112.059C112.05 17.2663 112.007 17.093 111.929 16.911C111.851 16.7203 111.738 16.547 111.591 16.391C111.444 16.235 111.257 16.1093 111.032 16.014C110.807 15.91 110.542 15.858 110.239 15.858C109.858 15.858 109.52 15.9577 109.225 16.157C108.93 16.3477 108.701 16.6163 108.536 16.963C108.467 17.1103 108.415 17.2663 108.38 17.431ZM119.164 21.5L116.668 12.192H118.254L119.736 18.237L119.892 19.043H119.97L120.165 18.237L122.037 12.192H123.467L125.261 18.237L125.456 19.03H125.534L125.69 18.237L127.172 12.192H128.745L126.288 21.5H124.78L122.999 15.325L122.791 14.454H122.713L122.492 15.325L120.633 21.5H119.164ZM131.356 21.708C130.879 21.708 130.455 21.6127 130.082 21.422C129.718 21.2313 129.428 20.9713 129.211 20.642C129.003 20.304 128.899 19.9183 128.899 19.485C128.899 19.0083 129.02 18.6053 129.263 18.276C129.514 17.9467 129.848 17.6953 130.264 17.522C130.68 17.3487 131.139 17.262 131.642 17.262C131.919 17.262 132.175 17.2837 132.409 17.327C132.652 17.3617 132.86 17.405 133.033 17.457C133.215 17.509 133.358 17.5653 133.462 17.626V17.275C133.462 16.8417 133.306 16.495 132.994 16.235C132.682 15.975 132.279 15.845 131.785 15.845C131.447 15.845 131.126 15.923 130.823 16.079C130.52 16.2263 130.277 16.43 130.095 16.69L129.133 15.949C129.324 15.6803 129.553 15.4507 129.822 15.26C130.099 15.0693 130.407 14.922 130.745 14.818C131.092 14.714 131.451 14.662 131.824 14.662C132.786 14.662 133.527 14.9003 134.047 15.377C134.567 15.845 134.827 16.5037 134.827 17.353V21.5H133.462V20.681H133.384C133.271 20.8543 133.115 21.019 132.916 21.175C132.725 21.331 132.496 21.4567 132.227 21.552C131.967 21.656 131.677 21.708 131.356 21.708ZM131.603 20.564C131.967 20.564 132.288 20.4773 132.565 20.304C132.851 20.1307 133.072 19.9053 133.228 19.628C133.384 19.342 133.462 19.0343 133.462 18.705C133.271 18.5923 133.037 18.5013 132.76 18.432C132.491 18.354 132.205 18.315 131.902 18.315C131.33 18.315 130.923 18.4277 130.68 18.653C130.437 18.8783 130.316 19.16 130.316 19.498C130.316 19.81 130.433 20.0657 130.667 20.265C130.901 20.4643 131.213 20.564 131.603 20.564ZM136.386 21.5V12.192H137.79V21.5H136.386ZM139.458 21.5V12.192H140.862V21.5H139.458ZM145.483 21.708C144.833 21.708 144.252 21.5563 143.741 21.253C143.229 20.9497 142.826 20.5337 142.532 20.005C142.246 19.4763 142.103 18.874 142.103 18.198C142.103 17.5653 142.241 16.9803 142.519 16.443C142.796 15.9057 143.182 15.4767 143.676 15.156C144.178 14.8267 144.755 14.662 145.405 14.662C146.089 14.662 146.67 14.8093 147.147 15.104C147.632 15.3987 148 15.8017 148.252 16.313C148.503 16.8243 148.629 17.4007 148.629 18.042C148.629 18.1373 148.624 18.224 148.616 18.302C148.616 18.38 148.611 18.4407 148.603 18.484H143.481C143.515 18.848 143.606 19.1643 143.754 19.433C143.944 19.771 144.196 20.0267 144.508 20.2C144.82 20.3733 145.158 20.46 145.522 20.46C145.964 20.46 146.332 20.3603 146.627 20.161C146.93 19.953 147.168 19.6973 147.342 19.394L148.499 19.953C148.213 20.473 147.823 20.8977 147.329 21.227C146.835 21.5477 146.219 21.708 145.483 21.708ZM143.559 17.431H147.238C147.229 17.2663 147.186 17.093 147.108 16.911C147.03 16.7203 146.917 16.547 146.77 16.391C146.622 16.235 146.436 16.1093 146.211 16.014C145.985 15.91 145.721 15.858 145.418 15.858C145.036 15.858 144.698 15.9577 144.404 16.157C144.109 16.3477 143.879 16.6163 143.715 16.963C143.645 17.1103 143.593 17.2663 143.559 17.431ZM149.286 14.87H150.443V12.998H151.847V14.87H153.472V16.092H151.847V19.277C151.847 19.6063 151.912 19.8577 152.042 20.031C152.181 20.2043 152.41 20.291 152.731 20.291C152.887 20.291 153.026 20.2693 153.147 20.226C153.268 20.174 153.39 20.1133 153.511 20.044V21.409C153.364 21.4697 153.208 21.5173 153.043 21.552C152.878 21.5867 152.683 21.604 152.458 21.604C151.843 21.604 151.353 21.4263 150.989 21.071C150.625 20.707 150.443 20.2087 150.443 19.576V16.092H149.286V14.87Z" fill="white"/>
<path d="M70.7747 37.012V35.448H76.3507V37.012H70.7747ZM78.3588 41.5V39.681H84.2578V35.771C84.2578 35.0343 84.1672 34.462 83.9858 34.054C83.8045 33.6347 83.4985 33.34 83.0678 33.17C82.6372 33 82.0592 32.915 81.3338 32.915H78.3588V31.096H81.3848C82.5408 31.096 83.4758 31.249 84.1898 31.555C84.9038 31.8497 85.4252 32.337 85.7538 33.017C86.0938 33.697 86.2638 34.6037 86.2638 35.737V39.681H87.7938V41.5H78.3588ZM100.998 41.5V35.89C100.998 35.1533 100.902 34.5697 100.709 34.139C100.528 33.697 100.227 33.3853 99.808 33.204C99.3887 33.0113 98.8164 32.915 98.091 32.915H93.739V31.096H98.091C99.247 31.096 100.188 31.2773 100.913 31.64C101.638 31.9913 102.165 32.524 102.494 33.238C102.834 33.952 103.004 34.836 103.004 35.89V41.5H100.998ZM93.739 41.5V35.754H95.762V41.5H93.739ZM104.875 36.91V31.096H106.881V36.91H104.875ZM109.059 36.91V31.096H111.065V36.91H109.059ZM113.735 41.5V39.681H116.846C117.64 39.681 118.308 39.5393 118.852 39.256C119.408 38.9613 119.827 38.5533 120.11 38.032C120.405 37.4993 120.552 36.8817 120.552 36.179C120.552 35.4537 120.411 34.8247 120.127 34.292C119.855 33.748 119.476 33.3343 118.988 33.051C118.512 32.7563 117.957 32.609 117.322 32.609C116.892 32.609 116.518 32.66 116.2 32.762C115.894 32.8527 115.639 32.9773 115.435 33.136C115.243 33.306 115.095 33.4987 114.993 33.714C114.903 33.918 114.857 34.139 114.857 34.377C114.857 34.853 115.005 35.2213 115.299 35.482C115.594 35.7313 116.019 35.856 116.574 35.856H117.101V37.539H116.523C115.73 37.539 115.061 37.4087 114.517 37.148C113.973 36.876 113.56 36.5077 113.276 36.043C113.004 35.5783 112.868 35.0287 112.868 34.394C112.868 33.8613 112.976 33.3797 113.191 32.949C113.407 32.507 113.713 32.1273 114.109 31.81C114.495 31.4927 114.959 31.249 115.503 31.079C116.059 30.8977 116.665 30.807 117.322 30.807C118.365 30.807 119.272 31.045 120.042 31.521C120.824 31.9857 121.431 32.6203 121.861 33.425C122.292 34.2297 122.507 35.1477 122.507 36.179C122.507 37.1877 122.281 38.0943 121.827 38.899C121.374 39.7037 120.722 40.3383 119.872 40.803C119.034 41.2677 118.025 41.5 116.846 41.5H113.735ZM123.54 41.5V39.681H129.49L128.64 38.542L122.945 31.181V31.096H125.291L128.453 35.346C128.747 35.2213 128.997 35.0853 129.201 34.938C129.484 34.734 129.688 34.479 129.813 34.173C129.937 33.8557 130 33.459 130 32.983V31.096H132.006V32.898C132.006 33.4873 131.926 33.9973 131.768 34.428C131.62 34.8587 131.411 35.227 131.139 35.533C130.878 35.839 130.578 36.094 130.238 36.298C129.977 36.4453 129.711 36.5757 129.439 36.689L131.683 39.681V41.5H123.54ZM137.048 41.5L140.159 32.915H134.005V28.07H136.028V31.096H142.267V32.915L139.19 41.5H137.048Z" fill="white"/>
</svg>
