<svg width="201" height="55" viewBox="0 0 201 55" fill="none" xmlns="http://www.w3.org/2000/svg">
<rect x="0.5" y="0.5" width="200" height="54" rx="27" fill="#1F1F1F"/>
<rect x="0.5" y="0.5" width="200" height="54" rx="27" stroke="#747775"/>
<path d="M57 23.791H21V18.1455C21 15.0809 23.6422 12.5001 26.7798 12.5001H51.2202C54.3578 12.5001 57 15.0809 57 18.1455V23.791Z" fill="#34A853"/>
<path d="M57 29H21V23C21 19.7429 23.6422 17 26.7798 17H51.2202C54.3578 17 57 19.7429 57 23V29Z" fill="#FBBC04"/>
<path d="M57 34H21V28C21 24.7429 23.6422 22 26.7798 22H51.2202C54.3578 22 57 24.7429 57 28V34Z" fill="#EA4335"/>
<path d="M21 25.2409L43.8493 30.4025C46.4795 31.0477 49.4384 30.4025 51.5753 28.7895L57 24.9183V37.0157C57 40.0804 54.3699 42.4999 51.2466 42.4999H26.7534C23.6301 42.4999 21 40.0804 21 37.0157V25.2409Z" fill="#4285F4"/>
<path d="M74.46 21.708C73.7927 21.708 73.1643 21.5867 72.575 21.344C71.9857 21.1013 71.4657 20.7633 71.015 20.33C70.573 19.888 70.222 19.3723 69.962 18.783C69.7107 18.185 69.585 17.5393 69.585 16.846C69.585 16.1527 69.7107 15.5113 69.962 14.922C70.222 14.324 70.573 13.8083 71.015 13.375C71.4657 12.933 71.9857 12.5907 72.575 12.348C73.1643 12.1053 73.7927 11.984 74.46 11.984C75.1707 11.984 75.825 12.1097 76.423 12.361C77.0297 12.6123 77.5367 12.9633 77.944 13.414L76.956 14.389C76.7567 14.1637 76.527 13.973 76.267 13.817C76.0157 13.661 75.7383 13.544 75.435 13.466C75.1317 13.3793 74.8067 13.336 74.46 13.336C74.0007 13.336 73.563 13.4183 73.147 13.583C72.731 13.7477 72.3627 13.986 72.042 14.298C71.73 14.6013 71.483 14.9697 71.301 15.403C71.119 15.8277 71.028 16.3087 71.028 16.846C71.028 17.3833 71.119 17.8687 71.301 18.302C71.4917 18.7267 71.743 19.095 72.055 19.407C72.3757 19.7103 72.744 19.9443 73.16 20.109C73.576 20.2737 74.0137 20.356 74.473 20.356C74.8977 20.356 75.292 20.2953 75.656 20.174C76.0287 20.0527 76.3537 19.8793 76.631 19.654C76.9083 19.4287 77.1337 19.1557 77.307 18.835C77.4803 18.5057 77.5887 18.1373 77.632 17.73H74.447V16.469H78.971C78.9883 16.573 79.0057 16.6943 79.023 16.833C79.0403 16.963 79.049 17.0887 79.049 17.21V17.223C79.049 17.8903 78.932 18.5013 78.698 19.056C78.4727 19.6107 78.1563 20.0873 77.749 20.486C77.3417 20.876 76.8563 21.1793 76.293 21.396C75.7383 21.604 75.1273 21.708 74.46 21.708ZM83.2349 21.708C82.5502 21.708 81.9479 21.552 81.4279 21.24C80.9079 20.928 80.5006 20.5077 80.2059 19.979C79.9112 19.4417 79.7639 18.8437 79.7639 18.185C79.7639 17.5263 79.9112 16.9327 80.2059 16.404C80.5006 15.8667 80.9079 15.442 81.4279 15.13C81.9479 14.818 82.5502 14.662 83.2349 14.662C83.9109 14.662 84.5089 14.8223 85.0289 15.143C85.5489 15.455 85.9562 15.8753 86.2509 16.404C86.5456 16.9327 86.6929 17.5263 86.6929 18.185C86.6929 18.8437 86.5456 19.4417 86.2509 19.979C85.9562 20.5077 85.5489 20.928 85.0289 21.24C84.5089 21.552 83.9109 21.708 83.2349 21.708ZM83.2349 20.421C83.5989 20.421 83.9369 20.3343 84.2489 20.161C84.5609 19.979 84.8122 19.7233 85.0029 19.394C85.2022 19.056 85.3019 18.653 85.3019 18.185C85.3019 17.717 85.2022 17.3183 85.0029 16.989C84.8122 16.651 84.5609 16.3953 84.2489 16.222C83.9369 16.04 83.5989 15.949 83.2349 15.949C82.8709 15.949 82.5286 16.04 82.2079 16.222C81.8959 16.3953 81.6402 16.651 81.4409 16.989C81.2502 17.3183 81.1549 17.717 81.1549 18.185C81.1549 18.653 81.2502 19.056 81.4409 19.394C81.6402 19.7233 81.9002 19.979 82.2209 20.161C82.5416 20.3343 82.8796 20.421 83.2349 20.421ZM91.106 21.708C90.4213 21.708 89.819 21.552 89.299 21.24C88.779 20.928 88.3717 20.5077 88.077 19.979C87.7823 19.4417 87.635 18.8437 87.635 18.185C87.635 17.5263 87.7823 16.9327 88.077 16.404C88.3717 15.8667 88.779 15.442 89.299 15.13C89.819 14.818 90.4213 14.662 91.106 14.662C91.782 14.662 92.38 14.8223 92.9 15.143C93.42 15.455 93.8273 15.8753 94.122 16.404C94.4167 16.9327 94.564 17.5263 94.564 18.185C94.564 18.8437 94.4167 19.4417 94.122 19.979C93.8273 20.5077 93.42 20.928 92.9 21.24C92.38 21.552 91.782 21.708 91.106 21.708ZM91.106 20.421C91.47 20.421 91.808 20.3343 92.12 20.161C92.432 19.979 92.6833 19.7233 92.874 19.394C93.0733 19.056 93.173 18.653 93.173 18.185C93.173 17.717 93.0733 17.3183 92.874 16.989C92.6833 16.651 92.432 16.3953 92.12 16.222C91.808 16.04 91.47 15.949 91.106 15.949C90.742 15.949 90.3997 16.04 90.079 16.222C89.767 16.3953 89.5113 16.651 89.312 16.989C89.1213 17.3183 89.026 17.717 89.026 18.185C89.026 18.653 89.1213 19.056 89.312 19.394C89.5113 19.7233 89.7713 19.979 90.092 20.161C90.4127 20.3343 90.7507 20.421 91.106 20.421ZM98.8471 24.516C98.2664 24.516 97.7638 24.4207 97.3391 24.23C96.9231 24.048 96.5851 23.8097 96.3251 23.515C96.0651 23.229 95.8788 22.9343 95.7661 22.631L97.0661 22.085C97.2048 22.4317 97.4258 22.7133 97.7291 22.93C98.0411 23.1553 98.4138 23.268 98.8471 23.268C99.4624 23.268 99.9434 23.086 100.29 22.722C100.637 22.358 100.81 21.8423 100.81 21.175V20.538H100.732C100.524 20.8413 100.238 21.0883 99.8741 21.279C99.5101 21.4697 99.0898 21.565 98.6131 21.565C98.0498 21.565 97.5298 21.422 97.0531 21.136C96.5851 20.85 96.2081 20.4513 95.9221 19.94C95.6448 19.42 95.5061 18.8133 95.5061 18.12C95.5061 17.418 95.6448 16.8113 95.9221 16.3C96.2081 15.78 96.5851 15.377 97.0531 15.091C97.5298 14.805 98.0498 14.662 98.6131 14.662C99.0898 14.662 99.5101 14.7573 99.8741 14.948C100.238 15.13 100.524 15.3813 100.732 15.702H100.81V14.87H102.149V21.149C102.149 21.8683 102.006 22.4793 101.72 22.982C101.443 23.4847 101.057 23.866 100.563 24.126C100.069 24.386 99.4971 24.516 98.8471 24.516ZM98.8601 20.291C99.2068 20.291 99.5274 20.2087 99.8221 20.044C100.125 19.8707 100.364 19.6237 100.537 19.303C100.719 18.9737 100.81 18.5793 100.81 18.12C100.81 17.6347 100.719 17.2317 100.537 16.911C100.364 16.5903 100.125 16.3477 99.8221 16.183C99.5274 16.0183 99.2068 15.936 98.8601 15.936C98.5134 15.936 98.1884 16.0183 97.8851 16.183C97.5904 16.3477 97.3521 16.5947 97.1701 16.924C96.9881 17.2447 96.8971 17.6433 96.8971 18.12C96.8971 18.588 96.9881 18.9867 97.1701 19.316C97.3521 19.6367 97.5904 19.8793 97.8851 20.044C98.1884 20.2087 98.5134 20.291 98.8601 20.291ZM103.805 21.5V12.192H105.209V21.5H103.805ZM109.829 21.708C109.179 21.708 108.599 21.5563 108.087 21.253C107.576 20.9497 107.173 20.5337 106.878 20.005C106.592 19.4763 106.449 18.874 106.449 18.198C106.449 17.5653 106.588 16.9803 106.865 16.443C107.143 15.9057 107.528 15.4767 108.022 15.156C108.525 14.8267 109.101 14.662 109.751 14.662C110.436 14.662 111.017 14.8093 111.493 15.104C111.979 15.3987 112.347 15.8017 112.598 16.313C112.85 16.8243 112.975 17.4007 112.975 18.042C112.975 18.1373 112.971 18.224 112.962 18.302C112.962 18.38 112.958 18.4407 112.949 18.484H107.827C107.862 18.848 107.953 19.1643 108.1 19.433C108.291 19.771 108.542 20.0267 108.854 20.2C109.166 20.3733 109.504 20.46 109.868 20.46C110.31 20.46 110.679 20.3603 110.973 20.161C111.277 19.953 111.515 19.6973 111.688 19.394L112.845 19.953C112.559 20.473 112.169 20.8977 111.675 21.227C111.181 21.5477 110.566 21.708 109.829 21.708ZM107.905 17.431H111.584C111.576 17.2663 111.532 17.093 111.454 16.911C111.376 16.7203 111.264 16.547 111.116 16.391C110.969 16.235 110.783 16.1093 110.557 16.014C110.332 15.91 110.068 15.858 109.764 15.858C109.383 15.858 109.045 15.9577 108.75 16.157C108.456 16.3477 108.226 16.6163 108.061 16.963C107.992 17.1103 107.94 17.2663 107.905 17.431ZM123.513 11.1C123.461 11.503 123.448 11.802 123.448 12.075C123.448 12.374 123.448 13.349 123.448 13.804H122.343C122.343 13.297 122.343 12.374 122.343 12.075C122.343 11.802 122.33 11.503 122.278 11.1H123.513ZM127.946 13.622C127.881 13.804 127.803 14.155 127.764 14.402C127.582 15.442 127.205 17.067 126.477 18.302C125.515 20.005 123.721 21.331 121.342 21.981L120.497 21.019C120.926 20.941 121.42 20.811 121.836 20.655C123.149 20.226 124.566 19.264 125.372 18.029C126.074 16.924 126.477 15.351 126.594 14.246H119.34C119.34 14.779 119.34 16.17 119.34 16.573C119.34 16.794 119.353 17.145 119.379 17.34H118.248C118.287 17.119 118.3 16.768 118.3 16.508C118.3 16.092 118.3 14.675 118.3 14.22C118.3 13.947 118.3 13.505 118.248 13.232C118.625 13.258 119.015 13.284 119.47 13.284H126.36C126.841 13.284 127.075 13.232 127.244 13.18L127.946 13.622ZM137.956 13.557C137.904 13.83 137.904 14.142 137.904 14.441C137.93 15.585 137.995 19.537 138.021 21.422C138.021 21.981 137.605 22.306 137.033 22.306C136.526 22.306 135.668 22.267 135.161 22.241L135.096 21.279C135.629 21.357 136.305 21.409 136.682 21.409C136.929 21.409 137.046 21.266 137.046 21.019C137.046 19.485 136.981 15.585 136.929 14.441C136.929 14.181 136.903 13.843 136.851 13.557H137.956ZM132.093 15.429C132.405 15.481 132.756 15.494 133.068 15.494C133.614 15.494 139.256 15.494 139.789 15.494C140.062 15.494 140.478 15.468 140.66 15.429V16.456C140.439 16.443 140.075 16.43 139.828 16.43C139.36 16.43 133.549 16.43 133.081 16.43C132.743 16.43 132.405 16.443 132.093 16.469V15.429ZM131.755 20.408C133.848 19.407 135.98 17.496 136.734 16.131L137.267 16.144L137.28 16.924C136.591 18.198 134.459 20.161 132.47 21.201L131.755 20.408ZM145.379 21.097C145.47 20.889 145.496 20.707 145.496 20.46C145.496 19.641 145.496 14.259 145.496 13.024C145.496 12.673 145.444 12.088 145.392 11.841H146.666C146.627 12.153 146.575 12.647 146.575 13.011C146.575 14.246 146.575 19.732 146.575 20.395C149.071 19.758 152.074 18.055 153.699 15.962L154.284 16.872C152.594 18.965 149.916 20.564 146.666 21.513C146.536 21.552 146.328 21.617 146.12 21.734L145.379 21.097ZM161.772 14.025C161.993 14.545 162.63 16.261 162.786 16.82L161.824 17.171C161.681 16.573 161.083 14.922 160.81 14.35L161.772 14.025ZM166.478 14.753C166.387 15.013 166.322 15.221 166.27 15.39C165.932 16.82 165.36 18.224 164.437 19.394C163.228 20.915 161.642 21.929 160.199 22.475L159.341 21.604C160.836 21.162 162.5 20.174 163.566 18.848C164.489 17.717 165.152 16.053 165.36 14.389L166.478 14.753ZM158.743 14.675C159.003 15.221 159.692 16.924 159.926 17.613L158.951 17.977C158.743 17.301 158.041 15.494 157.781 15.039L158.743 14.675ZM172.861 20.356C172.861 19.628 172.861 13.882 172.861 12.803C172.861 12.426 172.835 11.854 172.77 11.438H174.044C173.992 11.841 173.953 12.4 173.953 12.803C173.953 14.818 173.966 19.745 173.966 20.356C173.966 20.772 173.992 21.474 174.044 21.903H172.783C172.848 21.487 172.861 20.837 172.861 20.356ZM173.719 14.857C175.435 15.351 178.061 16.352 179.504 17.054L179.049 18.159C177.567 17.366 175.136 16.443 173.719 16.001V14.857Z" fill="white"/>
<path d="M70.326 30.314C70.972 30.297 71.516 30.263 71.856 30.229C72.944 30.11 76.157 29.804 79.285 29.532C81.155 29.379 82.736 29.277 83.875 29.243L83.892 30.603C82.906 30.586 81.427 30.62 80.56 30.858C78.129 31.64 76.65 34.241 76.65 36.247C76.65 39.562 79.761 40.633 82.515 40.735L82.022 42.129C78.877 42.01 75.307 40.344 75.307 36.536C75.307 33.901 76.922 31.725 78.469 30.807C76.65 30.994 72.315 31.419 70.479 31.81L70.326 30.314ZM81.427 32.677C81.818 33.238 82.464 34.292 82.838 35.057L81.954 35.448C81.563 34.632 81.087 33.765 80.577 33.051L81.427 32.677ZM83.28 31.963C83.705 32.524 84.368 33.561 84.759 34.309L83.892 34.734C83.484 33.918 82.974 33.068 82.447 32.354L83.28 31.963ZM87.683 28.648H101.334V29.753H87.683V28.648ZM88.465 31.147H100.671V32.218H88.465V31.147ZM87.054 33.748H101.912V34.87H87.054V33.748ZM93.803 27.22H95.095V34.615H93.803V27.22ZM93.752 34.122L94.857 34.649C93.089 36.587 89.944 38.372 87.309 39.239C87.105 38.916 86.748 38.44 86.476 38.185C89.094 37.437 92.171 35.805 93.752 34.122ZM95.605 34.292C96.625 37.93 98.835 40.616 102.439 41.687C102.15 41.942 101.793 42.469 101.606 42.809C97.849 41.517 95.622 38.644 94.449 34.53L95.605 34.292ZM100.45 35.431L101.47 36.23C100.263 37.199 98.648 38.236 97.424 38.916L96.642 38.219C97.832 37.505 99.481 36.332 100.45 35.431ZM88.363 41.687C90.318 41.262 93.378 40.497 96.285 39.783L96.404 40.922C93.718 41.619 90.811 42.35 88.771 42.86L88.363 41.687ZM90.76 37.284L91.678 36.366L92.035 36.468V41.602H90.76V37.284ZM110.82 33.289H112.197V41.211C112.197 42.027 111.993 42.418 111.398 42.639C110.786 42.826 109.783 42.843 108.287 42.843C108.219 42.469 108.015 41.908 107.811 41.517C108.967 41.551 110.089 41.551 110.412 41.534C110.735 41.534 110.82 41.449 110.82 41.177V33.289ZM106.961 35.55L108.287 35.89C107.454 37.981 106.111 40.021 104.751 41.33C104.496 41.092 103.918 40.735 103.578 40.548C104.972 39.341 106.23 37.471 106.961 35.55ZM114.611 36.06L115.784 35.567C117.042 37.165 118.368 39.324 118.861 40.769L117.586 41.33C117.127 39.919 115.852 37.692 114.611 36.06ZM105.533 28.495H117.484V29.753H105.533V28.495ZM104.003 32.609H118.997V33.884H104.003V32.609Z" fill="white"/>
</svg>
