<svg width="291" height="55" viewBox="0 0 291 55" fill="none" xmlns="http://www.w3.org/2000/svg">
<rect x="0.5" y="0.5" width="290" height="54" rx="27" fill="#1F1F1F"/>
<rect x="0.5" y="0.5" width="290" height="54" rx="27" stroke="#747775"/>
<path d="M57 23.791H21V18.1455C21 15.0809 23.6422 12.5001 26.7798 12.5001H51.2202C54.3578 12.5001 57 15.0809 57 18.1455V23.791Z" fill="#34A853"/>
<path d="M57 29H21V23C21 19.7429 23.6422 17 26.7798 17H51.2202C54.3578 17 57 19.7429 57 23V29Z" fill="#FBBC04"/>
<path d="M57 34H21V28C21 24.7429 23.6422 22 26.7798 22H51.2202C54.3578 22 57 24.7429 57 28V34Z" fill="#EA4335"/>
<path d="M21 25.2409L43.8493 30.4025C46.4795 31.0477 49.4384 30.4025 51.5753 28.7895L57 24.9183V37.0157C57 40.0804 54.3699 42.4999 51.2466 42.4999H26.7534C23.6301 42.4999 21 40.0804 21 37.0157V25.2409Z" fill="#4285F4"/>
<path d="M76.14 33.772C75.2673 33.772 74.4457 33.6133 73.675 33.296C72.9043 32.9787 72.2243 32.5367 71.635 31.97C71.057 31.392 70.598 30.7177 70.258 29.947C69.9293 29.165 69.765 28.3207 69.765 27.414C69.765 26.5073 69.9293 25.6687 70.258 24.898C70.598 24.116 71.057 23.4417 71.635 22.875C72.2243 22.297 72.9043 21.8493 73.675 21.532C74.4457 21.2147 75.2673 21.056 76.14 21.056C77.0693 21.056 77.925 21.2203 78.707 21.549C79.5003 21.8777 80.1633 22.3367 80.696 22.926L79.404 24.201C79.1433 23.9063 78.843 23.657 78.503 23.453C78.1743 23.249 77.8117 23.096 77.415 22.994C77.0183 22.8807 76.5933 22.824 76.14 22.824C75.5393 22.824 74.967 22.9317 74.423 23.147C73.879 23.3623 73.3973 23.674 72.978 24.082C72.57 24.4787 72.247 24.9603 72.009 25.527C71.771 26.0823 71.652 26.7113 71.652 27.414C71.652 28.1167 71.771 28.7513 72.009 29.318C72.2583 29.8733 72.587 30.355 72.995 30.763C73.4143 31.1597 73.896 31.4657 74.44 31.681C74.984 31.8963 75.5563 32.004 76.157 32.004C76.7123 32.004 77.228 31.9247 77.704 31.766C78.1913 31.6073 78.6163 31.3807 78.979 31.086C79.3417 30.7913 79.6363 30.4343 79.863 30.015C80.0897 29.5843 80.2313 29.1027 80.288 28.57H76.123V26.921H82.039C82.0617 27.057 82.0843 27.2157 82.107 27.397C82.1297 27.567 82.141 27.7313 82.141 27.89V27.907C82.141 28.7797 81.988 29.5787 81.682 30.304C81.3873 31.0293 80.9737 31.6527 80.441 32.174C79.9083 32.684 79.2737 33.0807 78.537 33.364C77.8117 33.636 77.0127 33.772 76.14 33.772ZM87.6149 33.772C86.7195 33.772 85.9319 33.568 85.2519 33.16C84.5719 32.752 84.0392 32.2023 83.6539 31.511C83.2685 30.8083 83.0759 30.0263 83.0759 29.165C83.0759 28.3037 83.2685 27.5273 83.6539 26.836C84.0392 26.1333 84.5719 25.578 85.2519 25.17C85.9319 24.762 86.7195 24.558 87.6149 24.558C88.4989 24.558 89.2809 24.7677 89.9609 25.187C90.6409 25.595 91.1735 26.1447 91.5589 26.836C91.9442 27.5273 92.1369 28.3037 92.1369 29.165C92.1369 30.0263 91.9442 30.8083 91.5589 31.511C91.1735 32.2023 90.6409 32.752 89.9609 33.16C89.2809 33.568 88.4989 33.772 87.6149 33.772ZM87.6149 32.089C88.0909 32.089 88.5329 31.9757 88.9409 31.749C89.3489 31.511 89.6775 31.1767 89.9269 30.746C90.1875 30.304 90.3179 29.777 90.3179 29.165C90.3179 28.553 90.1875 28.0317 89.9269 27.601C89.6775 27.159 89.3489 26.8247 88.9409 26.598C88.5329 26.36 88.0909 26.241 87.6149 26.241C87.1389 26.241 86.6912 26.36 86.2719 26.598C85.8639 26.8247 85.5295 27.159 85.2689 27.601C85.0195 28.0317 84.8949 28.553 84.8949 29.165C84.8949 29.777 85.0195 30.304 85.2689 30.746C85.5295 31.1767 85.8695 31.511 86.2889 31.749C86.7082 31.9757 87.1502 32.089 87.6149 32.089ZM97.9078 33.772C97.0125 33.772 96.2248 33.568 95.5448 33.16C94.8648 32.752 94.3322 32.2023 93.9468 31.511C93.5615 30.8083 93.3688 30.0263 93.3688 29.165C93.3688 28.3037 93.5615 27.5273 93.9468 26.836C94.3322 26.1333 94.8648 25.578 95.5448 25.17C96.2248 24.762 97.0125 24.558 97.9078 24.558C98.7918 24.558 99.5738 24.7677 100.254 25.187C100.934 25.595 101.467 26.1447 101.852 26.836C102.237 27.5273 102.43 28.3037 102.43 29.165C102.43 30.0263 102.237 30.8083 101.852 31.511C101.467 32.2023 100.934 32.752 100.254 33.16C99.5738 33.568 98.7918 33.772 97.9078 33.772ZM97.9078 32.089C98.3838 32.089 98.8258 31.9757 99.2338 31.749C99.6418 31.511 99.9705 31.1767 100.22 30.746C100.481 30.304 100.611 29.777 100.611 29.165C100.611 28.553 100.481 28.0317 100.22 27.601C99.9705 27.159 99.6418 26.8247 99.2338 26.598C98.8258 26.36 98.3838 26.241 97.9078 26.241C97.4318 26.241 96.9842 26.36 96.5648 26.598C96.1568 26.8247 95.8225 27.159 95.5618 27.601C95.3125 28.0317 95.1878 28.553 95.1878 29.165C95.1878 29.777 95.3125 30.304 95.5618 30.746C95.8225 31.1767 96.1625 31.511 96.5818 31.749C97.0012 31.9757 97.4432 32.089 97.9078 32.089ZM108.031 37.444C107.271 37.444 106.614 37.3193 106.059 37.07C105.515 36.832 105.073 36.5203 104.733 36.135C104.393 35.761 104.149 35.3757 104.002 34.979L105.702 34.265C105.883 34.7183 106.172 35.0867 106.569 35.37C106.977 35.6647 107.464 35.812 108.031 35.812C108.835 35.812 109.464 35.574 109.918 35.098C110.371 34.622 110.598 33.9477 110.598 33.075V32.242H110.496C110.224 32.6387 109.85 32.9617 109.374 33.211C108.898 33.4603 108.348 33.585 107.725 33.585C106.988 33.585 106.308 33.398 105.685 33.024C105.073 32.65 104.58 32.1287 104.206 31.46C103.843 30.78 103.662 29.9867 103.662 29.08C103.662 28.162 103.843 27.3687 104.206 26.7C104.58 26.02 105.073 25.493 105.685 25.119C106.308 24.745 106.988 24.558 107.725 24.558C108.348 24.558 108.898 24.6827 109.374 24.932C109.85 25.17 110.224 25.4987 110.496 25.918H110.598V24.83H112.349V33.041C112.349 33.9817 112.162 34.7807 111.788 35.438C111.425 36.0953 110.921 36.594 110.275 36.934C109.629 37.274 108.881 37.444 108.031 37.444ZM108.048 31.919C108.501 31.919 108.92 31.8113 109.306 31.596C109.702 31.3693 110.014 31.0463 110.241 30.627C110.479 30.1963 110.598 29.6807 110.598 29.08C110.598 28.4453 110.479 27.9183 110.241 27.499C110.014 27.0797 109.702 26.7623 109.306 26.547C108.92 26.3317 108.501 26.224 108.048 26.224C107.594 26.224 107.169 26.3317 106.773 26.547C106.387 26.7623 106.076 27.0853 105.838 27.516C105.6 27.9353 105.481 28.4567 105.481 29.08C105.481 29.692 105.6 30.2133 105.838 30.644C106.076 31.0633 106.387 31.3807 106.773 31.596C107.169 31.8113 107.594 31.919 108.048 31.919ZM114.514 33.5V21.328H116.35V33.5H114.514ZM122.392 33.772C121.542 33.772 120.783 33.5737 120.114 33.177C119.446 32.7803 118.919 32.2363 118.533 31.545C118.159 30.8537 117.972 30.066 117.972 29.182C117.972 28.3547 118.154 27.5897 118.516 26.887C118.879 26.1843 119.383 25.6233 120.029 25.204C120.687 24.7733 121.44 24.558 122.29 24.558C123.186 24.558 123.945 24.7507 124.568 25.136C125.203 25.5213 125.685 26.0483 126.013 26.717C126.342 27.3857 126.506 28.1393 126.506 28.978C126.506 29.1027 126.501 29.216 126.489 29.318C126.489 29.42 126.484 29.4993 126.472 29.556H119.774C119.82 30.032 119.939 30.4457 120.131 30.797C120.381 31.239 120.709 31.5733 121.117 31.8C121.525 32.0267 121.967 32.14 122.443 32.14C123.021 32.14 123.503 32.0097 123.888 31.749C124.285 31.477 124.597 31.1427 124.823 30.746L126.336 31.477C125.962 32.157 125.452 32.7123 124.806 33.143C124.16 33.5623 123.356 33.772 122.392 33.772ZM119.876 28.179H124.687C124.676 27.9637 124.619 27.737 124.517 27.499C124.415 27.2497 124.268 27.023 124.075 26.819C123.883 26.615 123.639 26.4507 123.344 26.326C123.05 26.19 122.704 26.122 122.307 26.122C121.809 26.122 121.367 26.2523 120.981 26.513C120.596 26.7623 120.296 27.1137 120.08 27.567C119.99 27.7597 119.922 27.9637 119.876 28.179ZM136.257 33.772C135.419 33.772 134.688 33.585 134.064 33.211C133.441 32.837 132.954 32.3213 132.602 31.664C132.251 30.9953 132.075 30.2303 132.075 29.369V21.328H133.911V29.403C133.911 29.947 134.013 30.423 134.217 30.831C134.421 31.2277 134.699 31.5393 135.05 31.766C135.413 31.9927 135.81 32.106 136.24 32.106C136.716 32.106 137.136 32.004 137.498 31.8C137.861 31.596 138.144 31.324 138.348 30.984C138.552 30.644 138.654 30.2643 138.654 29.845C138.654 29.5843 138.615 29.3407 138.535 29.114C138.467 28.876 138.354 28.638 138.195 28.4L137.719 27.669C137.481 27.3177 137.3 26.9607 137.175 26.598C137.062 26.224 137.005 25.7763 137.005 25.255H138.841C138.83 25.5383 138.87 25.8217 138.96 26.105C139.051 26.377 139.17 26.6263 139.317 26.853L139.827 27.618C140.043 27.9353 140.201 28.2753 140.303 28.638C140.417 29.0007 140.473 29.3917 140.473 29.811C140.473 30.525 140.298 31.1823 139.946 31.783C139.606 32.3837 139.119 32.8653 138.484 33.228C137.85 33.5907 137.107 33.772 136.257 33.772ZM145.47 33.772C144.745 33.772 144.087 33.6247 143.498 33.33C142.909 33.0353 142.438 32.6273 142.087 32.106C141.736 31.5733 141.56 30.95 141.56 30.236C141.56 30.0547 141.571 29.8733 141.594 29.692C141.628 29.4993 141.673 29.318 141.73 29.148L143.464 29.42C143.441 29.5447 143.424 29.6637 143.413 29.777C143.402 29.8903 143.396 29.998 143.396 30.1C143.396 30.5307 143.487 30.899 143.668 31.205C143.849 31.4997 144.093 31.7263 144.399 31.885C144.716 32.0437 145.068 32.123 145.453 32.123C146.054 32.123 146.547 31.953 146.932 31.613C147.329 31.2617 147.527 30.8083 147.527 30.253C147.527 29.9357 147.465 29.658 147.34 29.42C147.227 29.182 147.091 28.9837 146.932 28.825C146.773 28.6663 146.632 28.536 146.507 28.434L145.793 27.873C145.464 27.6123 145.17 27.278 144.909 26.87C144.66 26.4507 144.535 25.9123 144.535 25.255H146.371C146.371 25.6177 146.462 25.9237 146.643 26.173C146.836 26.4223 147.051 26.649 147.289 26.853L148.02 27.465C148.258 27.6577 148.473 27.8787 148.666 28.128C148.87 28.3773 149.034 28.6777 149.159 29.029C149.284 29.3803 149.346 29.7997 149.346 30.287C149.346 30.9557 149.176 31.5563 148.836 32.089C148.496 32.6103 148.031 33.024 147.442 33.33C146.864 33.6247 146.207 33.772 145.47 33.772ZM158.314 37.444C157.385 37.444 156.558 37.308 155.832 37.036C155.118 36.764 154.563 36.3673 154.166 35.846C153.781 35.3247 153.617 34.7013 153.673 33.976L155.543 34.061C155.532 34.4463 155.645 34.7693 155.883 35.03C156.133 35.302 156.473 35.506 156.903 35.642C157.345 35.778 157.833 35.846 158.365 35.846C159.215 35.846 159.884 35.6533 160.371 35.268C160.87 34.8827 161.119 34.4067 161.119 33.84C161.119 33.3413 160.949 32.9277 160.609 32.599C160.281 32.2703 159.844 32.1003 159.3 32.089L159.079 32.072V30.44H159.572C160.128 30.44 160.57 30.2813 160.898 29.964C161.238 29.6467 161.408 29.182 161.408 28.57C161.408 27.9353 161.261 27.4593 160.966 27.142C160.672 26.8133 160.275 26.649 159.776 26.649C159.3 26.649 158.915 26.8077 158.62 27.125C158.326 27.431 158.178 27.89 158.178 28.502V29.165C158.178 29.8337 158.014 30.4457 157.685 31.001C157.368 31.5563 156.92 31.9983 156.342 32.327C155.764 32.6443 155.101 32.803 154.353 32.803C153.594 32.803 152.925 32.6387 152.347 32.31C151.769 31.97 151.316 31.511 150.987 30.933C150.67 30.3437 150.511 29.6693 150.511 28.91C150.511 28.1393 150.67 27.4593 150.987 26.87C151.316 26.2807 151.764 25.8217 152.33 25.493C152.908 25.153 153.571 24.983 154.319 24.983C154.943 24.983 155.509 25.119 156.019 25.391C156.541 25.6517 156.926 26.02 157.175 26.496H157.226C157.453 26.02 157.793 25.6517 158.246 25.391C158.711 25.119 159.261 24.983 159.895 24.983C160.53 24.983 161.097 25.119 161.595 25.391C162.105 25.6517 162.508 26.037 162.802 26.547C163.097 27.0457 163.244 27.652 163.244 28.366C163.244 29.2047 163.057 29.8563 162.683 30.321C162.309 30.7857 161.867 31.103 161.357 31.273V31.375C161.867 31.5563 162.258 31.8737 162.53 32.327C162.802 32.769 162.938 33.2847 162.938 33.874C162.938 34.5653 162.751 35.1773 162.377 35.71C162.003 36.254 161.471 36.679 160.779 36.985C160.088 37.291 159.266 37.444 158.314 37.444ZM154.353 31.171C154.954 31.171 155.441 30.967 155.815 30.559C156.201 30.151 156.393 29.6013 156.393 28.91C156.393 28.2073 156.201 27.652 155.815 27.244C155.43 26.836 154.943 26.632 154.353 26.632C153.753 26.632 153.26 26.836 152.874 27.244C152.489 27.652 152.296 28.2073 152.296 28.91C152.296 29.6013 152.489 30.151 152.874 30.559C153.271 30.967 153.764 31.171 154.353 31.171ZM168.587 37.444C167.794 37.444 167.086 37.274 166.462 36.934C165.839 36.594 165.352 36.1237 165 35.523C164.649 34.9337 164.473 34.2593 164.473 33.5C164.473 32.9673 164.575 32.429 164.779 31.885L166.479 32.259C166.423 32.463 166.377 32.6613 166.343 32.854C166.309 33.0467 166.292 33.2337 166.292 33.415C166.292 34.061 166.491 34.6107 166.887 35.064C167.295 35.5287 167.862 35.761 168.587 35.761C169.029 35.761 169.426 35.659 169.777 35.455C170.14 35.2623 170.423 34.979 170.627 34.605C170.831 34.231 170.933 33.7777 170.933 33.245V27.89C170.933 27.5047 170.826 27.1987 170.61 26.972C170.406 26.734 170.112 26.615 169.726 26.615C169.341 26.615 169.046 26.734 168.842 26.972C168.65 27.1987 168.553 27.5047 168.553 27.89V29.981H166.751V27.992C166.751 27.5727 166.638 27.2723 166.411 27.091C166.196 26.8983 165.907 26.802 165.544 26.802H164.473V25.085H165.697C166.128 25.085 166.513 25.1757 166.853 25.357C167.205 25.527 167.46 25.782 167.618 26.122H167.72C167.913 25.782 168.202 25.51 168.587 25.306C168.973 25.0907 169.437 24.983 169.981 24.983C170.503 24.983 170.967 25.0963 171.375 25.323C171.795 25.5383 172.123 25.8557 172.361 26.275C172.611 26.6943 172.735 27.193 172.735 27.771V33.177C172.735 34.0157 172.56 34.7523 172.208 35.387C171.868 36.033 171.387 36.5373 170.763 36.9C170.14 37.2627 169.415 37.444 168.587 37.444ZM183.805 37.172C183.771 36.73 183.584 36.356 183.244 36.05C182.904 35.7553 182.468 35.5287 181.935 35.37C181.403 35.2113 180.808 35.132 180.15 35.132C179.629 35.132 179.096 35.1943 178.552 35.319C178.008 35.4437 177.493 35.6363 177.005 35.897L176.325 34.673C176.597 34.5257 176.852 34.401 177.09 34.299C177.328 34.2083 177.555 34.1403 177.77 34.095V33.993C177.113 33.7777 176.518 33.4603 175.985 33.041C175.464 32.6103 175.05 32.0663 174.744 31.409C174.438 30.7517 174.28 29.9753 174.268 29.08C174.257 28.1733 174.399 27.4197 174.693 26.819C174.988 26.207 175.385 25.748 175.883 25.442C176.382 25.136 176.926 24.983 177.515 24.983C177.81 24.983 178.11 25.034 178.416 25.136C178.722 25.238 179.006 25.4023 179.266 25.629C179.538 25.8443 179.759 26.1447 179.929 26.53H180.031C180.247 25.986 180.564 25.595 180.983 25.357C181.403 25.1077 181.862 24.983 182.36 24.983C182.87 24.983 183.335 25.1077 183.754 25.357C184.174 25.595 184.485 25.986 184.689 26.53H184.791C184.95 26.1673 185.154 25.8727 185.403 25.646C185.653 25.4193 185.93 25.255 186.236 25.153C186.542 25.0397 186.865 24.983 187.205 24.983C187.806 24.983 188.35 25.136 188.837 25.442C189.325 25.748 189.716 26.207 190.01 26.819C190.305 27.4197 190.452 28.1677 190.452 29.063C190.452 29.811 190.356 30.525 190.163 31.205C189.982 31.8737 189.75 32.4743 189.466 33.007L187.732 32.616C188.016 32.0493 188.237 31.477 188.395 30.899C188.554 30.321 188.633 29.7203 188.633 29.097C188.633 28.3603 188.486 27.7767 188.191 27.346C187.908 26.904 187.534 26.683 187.069 26.683C186.639 26.683 186.287 26.8417 186.015 27.159C185.743 27.4763 185.607 27.975 185.607 28.655V31.069H183.805V28.485C183.805 27.8957 183.664 27.448 183.38 27.142C183.097 26.836 182.757 26.683 182.36 26.683C181.93 26.683 181.573 26.836 181.289 27.142C181.017 27.448 180.881 27.8957 180.881 28.485V31.069H179.062V28.655C179.062 27.9863 178.926 27.4933 178.654 27.176C178.382 26.8473 178.048 26.683 177.651 26.683C177.175 26.683 176.796 26.8927 176.512 27.312C176.229 27.7313 176.087 28.332 176.087 29.114C176.099 30.27 176.433 31.1993 177.09 31.902C177.748 32.6047 178.734 33.0807 180.048 33.33L181.867 33.67C182.955 33.874 183.828 34.2763 184.485 34.877C185.143 35.4777 185.522 36.2427 185.624 37.172H183.805ZM195.746 37.444C194.953 37.444 194.245 37.274 193.621 36.934C192.998 36.594 192.511 36.1237 192.159 35.523C191.808 34.9337 191.632 34.2593 191.632 33.5C191.632 32.9673 191.734 32.429 191.938 31.885L193.638 32.259C193.582 32.463 193.536 32.6613 193.502 32.854C193.468 33.0467 193.451 33.2337 193.451 33.415C193.451 34.061 193.65 34.6107 194.046 35.064C194.454 35.5287 195.021 35.761 195.746 35.761C196.188 35.761 196.585 35.659 196.936 35.455C197.299 35.2623 197.582 34.979 197.786 34.605C197.99 34.231 198.092 33.7777 198.092 33.245V28.859C198.092 28.179 197.883 27.6463 197.463 27.261C197.055 26.8643 196.523 26.666 195.865 26.666C195.491 26.666 195.134 26.7453 194.794 26.904C194.466 27.0513 194.199 27.278 193.995 27.584C193.791 27.8787 193.689 28.2357 193.689 28.655C193.689 28.7683 193.695 28.8817 193.706 28.995C193.729 29.1083 193.752 29.2273 193.774 29.352L192.006 29.573C191.972 29.403 191.944 29.233 191.921 29.063C191.899 28.893 191.887 28.7173 191.887 28.536C191.887 27.822 192.063 27.1987 192.414 26.666C192.777 26.1333 193.259 25.7197 193.859 25.425C194.471 25.1303 195.14 24.983 195.865 24.983C196.659 24.983 197.356 25.1417 197.956 25.459C198.557 25.7763 199.027 26.2353 199.367 26.836C199.719 27.4253 199.894 28.128 199.894 28.944V33.177C199.894 34.0157 199.719 34.7523 199.367 35.387C199.016 36.033 198.529 36.5373 197.905 36.9C197.293 37.2627 196.574 37.444 195.746 37.444ZM205.815 33.772C204.942 33.772 204.183 33.5793 203.537 33.194C202.902 32.7973 202.409 32.2703 202.058 31.613C201.706 30.9557 201.531 30.236 201.531 29.454C201.531 28.6493 201.701 27.924 202.041 27.278C202.381 26.632 202.851 26.122 203.452 25.748C204.052 25.3627 204.738 25.17 205.509 25.17C206.121 25.17 206.648 25.306 207.09 25.578C207.532 25.85 207.877 26.1617 208.127 26.513H208.229L208.161 25.595V23.98C208.161 23.606 208.059 23.3 207.855 23.062C207.651 22.8127 207.345 22.688 206.937 22.688C206.551 22.688 206.257 22.8013 206.053 23.028C205.86 23.2433 205.764 23.5153 205.764 23.844V24.286H203.962V23.878C203.962 23.4813 203.848 23.1923 203.622 23.011C203.406 22.8297 203.117 22.739 202.755 22.739C202.483 22.739 202.25 22.7673 202.058 22.824C201.865 22.8693 201.695 22.9203 201.548 22.977V21.243C201.706 21.1863 201.899 21.141 202.126 21.107C202.352 21.073 202.619 21.056 202.925 21.056C203.355 21.056 203.735 21.1523 204.064 21.345C204.404 21.5263 204.676 21.804 204.88 22.178H204.982C205.186 21.8267 205.475 21.5547 205.849 21.362C206.234 21.158 206.704 21.056 207.26 21.056C207.758 21.056 208.212 21.1693 208.62 21.396C209.028 21.6227 209.351 21.9457 209.589 22.365C209.838 22.7843 209.963 23.283 209.963 23.861V29.352C209.963 30.168 209.787 30.9103 209.436 31.579C209.084 32.2477 208.597 32.7803 207.974 33.177C207.35 33.5737 206.631 33.772 205.815 33.772ZM205.798 32.089C206.24 32.089 206.648 31.9813 207.022 31.766C207.396 31.5393 207.696 31.2333 207.923 30.848C208.149 30.4513 208.263 29.9867 208.263 29.454C208.263 28.9213 208.149 28.4623 207.923 28.077C207.696 27.6803 207.396 27.3743 207.022 27.159C206.648 26.9437 206.245 26.836 205.815 26.836C205.373 26.836 204.965 26.9437 204.591 27.159C204.217 27.363 203.916 27.6633 203.69 28.06C203.463 28.4453 203.35 28.91 203.35 29.454C203.35 29.9867 203.463 30.4513 203.69 30.848C203.916 31.2333 204.217 31.5393 204.591 31.766C204.965 31.9813 205.367 32.089 205.798 32.089ZM212.492 33.5C212.243 32.9787 212.01 32.361 211.795 31.647C211.591 30.9217 211.489 30.151 211.489 29.335C211.489 28.4623 211.659 27.703 211.999 27.057C212.35 26.3997 212.832 25.8897 213.444 25.527C214.067 25.1643 214.798 24.983 215.637 24.983C216.464 24.983 217.19 25.1643 217.813 25.527C218.448 25.8897 218.941 26.3997 219.292 27.057C219.643 27.703 219.819 28.4623 219.819 29.335C219.819 30.151 219.717 30.9217 219.513 31.647C219.309 32.361 219.077 32.9787 218.816 33.5H216.929C217.28 32.8087 217.547 32.1287 217.728 31.46C217.921 30.78 218.017 30.0773 218.017 29.352C218.017 28.774 217.909 28.2867 217.694 27.89C217.479 27.482 217.19 27.176 216.827 26.972C216.476 26.7567 216.079 26.649 215.637 26.649C215.206 26.649 214.815 26.751 214.464 26.955C214.124 27.159 213.852 27.465 213.648 27.873C213.444 28.2697 213.336 28.7627 213.325 29.352C213.314 30.066 213.393 30.763 213.563 31.443C213.744 32.1117 214.016 32.7973 214.379 33.5H212.492ZM229.44 33.772C228.624 33.772 227.904 33.5737 227.281 33.177C226.657 32.7803 226.17 32.242 225.819 31.562C225.467 30.8707 225.292 30.1057 225.292 29.267V24.558C225.292 23.878 225.45 23.3 225.768 22.824C226.085 22.3367 226.521 21.9683 227.077 21.719C227.632 21.4583 228.261 21.328 228.964 21.328H232.925V22.994H229.015C228.459 22.994 228 23.1357 227.638 23.419C227.286 23.7023 227.111 24.082 227.111 24.558V25.425L227.06 26.326H227.162C227.422 25.9747 227.762 25.663 228.182 25.391C228.612 25.119 229.139 24.983 229.763 24.983C230.533 24.983 231.213 25.1757 231.803 25.561C232.403 25.9463 232.874 26.4677 233.214 27.125C233.554 27.7823 233.724 28.5303 233.724 29.369C233.724 30.185 233.548 30.9273 233.197 31.596C232.845 32.2533 232.347 32.7803 231.701 33.177C231.066 33.5737 230.312 33.772 229.44 33.772ZM229.457 32.089C229.899 32.089 230.301 31.9757 230.664 31.749C231.038 31.5223 231.338 31.205 231.565 30.797C231.791 30.389 231.905 29.913 231.905 29.369C231.905 28.8137 231.791 28.3377 231.565 27.941C231.338 27.533 231.038 27.2213 230.664 27.006C230.29 26.7793 229.882 26.666 229.44 26.666C229.02 26.666 228.624 26.7793 228.25 27.006C227.876 27.2213 227.57 27.533 227.332 27.941C227.105 28.3377 226.992 28.8137 226.992 29.369C226.992 29.913 227.105 30.389 227.332 30.797C227.57 31.205 227.87 31.5223 228.233 31.749C228.607 31.9757 229.015 32.089 229.457 32.089ZM238.804 33.772C238.079 33.772 237.421 33.6247 236.832 33.33C236.243 33.0353 235.772 32.6273 235.421 32.106C235.07 31.5733 234.894 30.95 234.894 30.236C234.894 30.0547 234.905 29.8733 234.928 29.692C234.962 29.4993 235.007 29.318 235.064 29.148L236.798 29.42C236.775 29.5447 236.758 29.6637 236.747 29.777C236.736 29.8903 236.73 29.998 236.73 30.1C236.73 30.5307 236.821 30.899 237.002 31.205C237.183 31.4997 237.427 31.7263 237.733 31.885C238.05 32.0437 238.402 32.123 238.787 32.123C239.388 32.123 239.881 31.953 240.266 31.613C240.663 31.2617 240.861 30.8083 240.861 30.253C240.861 29.9357 240.799 29.658 240.674 29.42C240.561 29.182 240.425 28.9837 240.266 28.825C240.107 28.6663 239.966 28.536 239.841 28.434L239.127 27.873C238.798 27.6123 238.504 27.278 238.243 26.87C237.994 26.4507 237.869 25.9123 237.869 25.255H239.705C239.705 25.6177 239.796 25.9237 239.977 26.173C240.17 26.4223 240.385 26.649 240.623 26.853L241.354 27.465C241.592 27.6577 241.807 27.8787 242 28.128C242.204 28.3773 242.368 28.6777 242.493 29.029C242.618 29.3803 242.68 29.7997 242.68 30.287C242.68 30.9557 242.51 31.5563 242.17 32.089C241.83 32.6103 241.365 33.024 240.776 33.33C240.198 33.6247 239.541 33.772 238.804 33.772ZM248.367 33.772C247.54 33.772 246.815 33.5793 246.191 33.194C245.568 32.8087 245.081 32.276 244.729 31.596C244.378 30.9047 244.202 30.1227 244.202 29.25L244.219 21.328H246.038V25.187L245.936 26.343H246.004C246.254 25.9917 246.605 25.68 247.058 25.408C247.512 25.1247 248.067 24.983 248.724 24.983C249.495 24.983 250.175 25.1757 250.764 25.561C251.354 25.935 251.818 26.4507 252.158 27.108C252.498 27.7653 252.668 28.5133 252.668 29.352C252.668 30.1907 252.493 30.9443 252.141 31.613C251.79 32.2817 251.291 32.8087 250.645 33.194C250.011 33.5793 249.251 33.772 248.367 33.772ZM248.384 32.106C248.815 32.106 249.217 31.9927 249.591 31.766C249.965 31.5393 250.266 31.222 250.492 30.814C250.73 30.3947 250.849 29.9073 250.849 29.352C250.849 28.7967 250.73 28.3207 250.492 27.924C250.266 27.516 249.965 27.2043 249.591 26.989C249.217 26.7623 248.809 26.649 248.367 26.649C247.948 26.649 247.551 26.7623 247.177 26.989C246.803 27.2043 246.497 27.516 246.259 27.924C246.033 28.3207 245.919 28.7967 245.919 29.352C245.919 29.9073 246.033 30.3947 246.259 30.814C246.497 31.222 246.803 31.5393 247.177 31.766C247.551 31.9927 247.954 32.106 248.384 32.106ZM258.121 37.444C257.293 37.444 256.562 37.2797 255.928 36.951C255.293 36.6337 254.794 36.1917 254.432 35.625C254.08 35.0583 253.905 34.4237 253.905 33.721C253.905 33.5397 253.916 33.3527 253.939 33.16C253.973 32.956 254.018 32.752 254.075 32.548L255.826 32.82C255.792 32.9673 255.769 33.0977 255.758 33.211C255.746 33.3243 255.741 33.4433 255.741 33.568C255.741 33.9873 255.837 34.3613 256.03 34.69C256.222 35.0187 256.5 35.2793 256.863 35.472C257.225 35.676 257.645 35.778 258.121 35.778C258.835 35.778 259.418 35.591 259.872 35.217C260.325 34.843 260.552 34.3387 260.552 33.704C260.552 33.0807 260.336 32.5877 259.906 32.225C259.475 31.8623 258.925 31.681 258.257 31.681H257.543V30.032H258.257C258.869 30.032 259.356 29.8903 259.719 29.607C260.093 29.3237 260.28 28.9157 260.28 28.383C260.28 27.839 260.076 27.414 259.668 27.108C259.26 26.7907 258.761 26.632 258.172 26.632C257.752 26.632 257.373 26.7113 257.033 26.87C256.704 27.0173 256.443 27.2327 256.251 27.516C256.069 27.788 255.979 28.1223 255.979 28.519C255.979 28.5983 255.979 28.6833 255.979 28.774C255.99 28.8533 256.001 28.9383 256.013 29.029L254.228 29.182C254.205 29.0573 254.188 28.9327 254.177 28.808C254.165 28.672 254.16 28.5473 254.16 28.434C254.16 27.754 254.341 27.159 254.704 26.649C255.066 26.1277 255.554 25.7197 256.166 25.425C256.789 25.1303 257.463 24.983 258.189 24.983C258.937 24.983 259.605 25.1303 260.195 25.425C260.784 25.7083 261.249 26.0993 261.589 26.598C261.929 27.0967 262.099 27.6577 262.099 28.281C262.099 28.927 261.946 29.454 261.64 29.862C261.334 30.27 260.943 30.5703 260.467 30.763V30.865C261.033 31.069 261.492 31.4317 261.844 31.953C262.195 32.463 262.371 33.0637 262.371 33.755C262.371 34.435 262.195 35.0527 261.844 35.608C261.492 36.1747 260.994 36.6223 260.348 36.951C259.713 37.2797 258.971 37.444 258.121 37.444ZM267.375 33.772C266.65 33.772 265.993 33.6247 265.403 33.33C264.814 33.0353 264.344 32.6273 263.992 32.106C263.641 31.5733 263.465 30.95 263.465 30.236C263.465 30.0547 263.477 29.8733 263.499 29.692C263.533 29.4993 263.579 29.318 263.635 29.148L265.369 29.42C265.347 29.5447 265.33 29.6637 265.318 29.777C265.307 29.8903 265.301 29.998 265.301 30.1C265.301 30.5307 265.392 30.899 265.573 31.205C265.755 31.4997 265.998 31.7263 266.304 31.885C266.622 32.0437 266.973 32.123 267.358 32.123C267.959 32.123 268.452 31.953 268.837 31.613C269.234 31.2617 269.432 30.8083 269.432 30.253C269.432 29.9357 269.37 29.658 269.245 29.42C269.132 29.182 268.996 28.9837 268.837 28.825C268.679 28.6663 268.537 28.536 268.412 28.434L267.698 27.873C267.37 27.6123 267.075 27.278 266.814 26.87C266.565 26.4507 266.44 25.9123 266.44 25.255H268.276C268.276 25.6177 268.367 25.9237 268.548 26.173C268.741 26.4223 268.956 26.649 269.194 26.853L269.925 27.465C270.163 27.6577 270.379 27.8787 270.571 28.128C270.775 28.3773 270.94 28.6777 271.064 29.029C271.189 29.3803 271.251 29.7997 271.251 30.287C271.251 30.9557 271.081 31.5563 270.741 32.089C270.401 32.6103 269.937 33.024 269.347 33.33C268.769 33.6247 268.112 33.772 267.375 33.772Z" fill="white"/>
</svg>
