<svg width="199" height="55" viewBox="0 0 199 55" fill="none" xmlns="http://www.w3.org/2000/svg">
<rect x="0.5" y="0.5" width="198" height="54" rx="27" fill="#1F1F1F"/>
<rect x="0.5" y="0.5" width="198" height="54" rx="27" stroke="#747775"/>
<path d="M57 23.791H21V18.1455C21 15.0809 23.6422 12.5001 26.7798 12.5001H51.2202C54.3578 12.5001 57 15.0809 57 18.1455V23.791Z" fill="#34A853"/>
<path d="M57 29H21V23C21 19.7429 23.6422 17 26.7798 17H51.2202C54.3578 17 57 19.7429 57 23V29Z" fill="#FBBC04"/>
<path d="M57 34H21V28C21 24.7429 23.6422 22 26.7798 22H51.2202C54.3578 22 57 24.7429 57 28V34Z" fill="#EA4335"/>
<path d="M21 25.2409L43.8493 30.4025C46.4795 31.0477 49.4384 30.4025 51.5753 28.7895L57 24.9183V37.0157C57 40.0804 54.3699 42.4999 51.2466 42.4999H26.7534C23.6301 42.4999 21 40.0804 21 37.0157V25.2409Z" fill="#4285F4"/>
<path d="M70.053 15.793C70.053 15.2297 70.196 14.8137 70.482 14.545C70.768 14.2677 71.1623 14.129 71.665 14.129C71.899 14.129 72.1027 14.155 72.276 14.207C72.458 14.259 72.6097 14.3153 72.731 14.376L72.406 15.481C72.3453 15.4377 72.2717 15.403 72.185 15.377C72.107 15.351 72.0203 15.338 71.925 15.338C71.7863 15.338 71.665 15.3813 71.561 15.468C71.4657 15.546 71.418 15.676 71.418 15.858V19.056C71.47 19.056 71.522 19.056 71.574 19.056C71.886 19.056 72.1417 19.1687 72.341 19.394C72.549 19.6193 72.653 19.9097 72.653 20.265V20.33C72.653 20.7287 72.5273 21.045 72.276 21.279C72.0333 21.513 71.7387 21.63 71.392 21.63C71.0107 21.63 70.69 21.513 70.43 21.279C70.1787 21.045 70.053 20.6897 70.053 20.213V15.793ZM71.392 20.863C71.522 20.863 71.6303 20.8153 71.717 20.72C71.8123 20.6247 71.86 20.499 71.86 20.343V20.265C71.86 20.109 71.8123 19.9833 71.717 19.888C71.6303 19.7927 71.5177 19.745 71.379 19.745C71.249 19.745 71.1407 19.7927 71.054 19.888C70.9673 19.9833 70.924 20.109 70.924 20.265V20.343C70.924 20.499 70.9673 20.6247 71.054 20.72C71.1407 20.8153 71.2533 20.863 71.392 20.863ZM77.4495 21.63C76.8775 21.63 76.3748 21.513 75.9415 21.279C75.5168 21.045 75.1832 20.72 74.9405 20.304C74.7065 19.8793 74.5895 19.3853 74.5895 18.822V16.794C74.3555 16.6467 74.1778 16.4733 74.0565 16.274C73.9352 16.0747 73.8745 15.8363 73.8745 15.559C73.8745 15.1517 74.0088 14.8267 74.2775 14.584C74.5462 14.3413 74.9318 14.22 75.4345 14.22H76.1495V15.442H75.4865C75.2092 15.442 75.0705 15.559 75.0705 15.793C75.0705 15.9057 75.1095 16.001 75.1875 16.079C75.2655 16.1483 75.3825 16.2263 75.5385 16.313L75.9545 16.534V17.483H78.9575V16.794C78.7322 16.6467 78.5545 16.4733 78.4245 16.274C78.3032 16.0747 78.2425 15.8363 78.2425 15.559C78.2425 15.1517 78.3768 14.8267 78.6455 14.584C78.9228 14.3413 79.3128 14.22 79.8155 14.22H80.5175V15.442H79.8545C79.5772 15.442 79.4385 15.559 79.4385 15.793C79.4385 15.9057 79.4775 16.001 79.5555 16.079C79.6422 16.1483 79.7635 16.2263 79.9195 16.313L80.3225 16.534V18.822C80.3225 19.3853 80.2012 19.8793 79.9585 20.304C79.7245 20.72 79.3908 21.045 78.9575 21.279C78.5328 21.513 78.0302 21.63 77.4495 21.63ZM75.9545 18.536V18.822C75.9545 19.2987 76.0888 19.6843 76.3575 19.979C76.6348 20.265 76.9988 20.408 77.4495 20.408C77.9088 20.408 78.2728 20.265 78.5415 19.979C78.8188 19.6843 78.9575 19.2987 78.9575 18.822V18.536H75.9545ZM75.5303 12.92V12.387C75.5303 11.7977 75.7209 11.334 76.1023 10.996C76.4749 10.658 76.9516 10.489 77.5323 10.489C77.9829 10.489 78.3643 10.567 78.6763 10.723C78.9796 10.879 79.2353 11.0523 79.4433 11.243H79.4693V9.943H80.5223V12.92H75.5303ZM76.6743 12.205H79.2483V12.179C79.1269 12.0577 78.9839 11.9407 78.8193 11.828C78.6546 11.7067 78.4683 11.607 78.2603 11.529C78.0523 11.4423 77.8183 11.399 77.5583 11.399C77.2896 11.399 77.0773 11.4727 76.9213 11.62C76.7566 11.7587 76.6743 11.9363 76.6743 12.153V12.205ZM82.5071 16.768C82.5071 16.2307 82.6198 15.7627 82.8451 15.364C83.0704 14.9567 83.3911 14.6447 83.8071 14.428C84.2231 14.2027 84.7041 14.09 85.2501 14.09C85.8134 14.09 86.2988 14.2027 86.7061 14.428C87.1134 14.6447 87.4298 14.9567 87.6551 15.364C87.8891 15.7627 88.0061 16.2307 88.0061 16.768V18.939C88.0061 19.381 88.1274 19.7363 88.3701 20.005C88.6214 20.2737 88.9464 20.408 89.3451 20.408C89.7524 20.408 90.0774 20.2737 90.3201 20.005C90.5714 19.7363 90.6971 19.381 90.6971 18.939V16.807C90.4544 16.6597 90.2551 16.482 90.0991 16.274C89.9518 16.066 89.8781 15.8233 89.8781 15.546C89.8781 15.1387 90.0211 14.818 90.3071 14.584C90.5931 14.3413 90.9961 14.22 91.5161 14.22H92.2571V15.442H91.5941C91.2908 15.442 91.1391 15.559 91.1391 15.793C91.1391 15.9143 91.1824 16.0097 91.2691 16.079C91.3644 16.1483 91.4901 16.2263 91.6461 16.313L92.0621 16.521V18.939C92.0621 19.4763 91.9494 19.9487 91.7241 20.356C91.4988 20.7547 91.1824 21.0667 90.7751 21.292C90.3678 21.5173 89.8911 21.63 89.3451 21.63C88.8078 21.63 88.3354 21.5173 87.9281 21.292C87.5208 21.0667 87.2044 20.7547 86.9791 20.356C86.7538 19.9487 86.6411 19.4763 86.6411 18.939V16.781C86.6411 16.339 86.5154 15.9837 86.2641 15.715C86.0128 15.4463 85.6748 15.312 85.2501 15.312C84.8341 15.312 84.5004 15.4463 84.2491 15.715C83.9978 15.9837 83.8721 16.339 83.8721 16.781V19.069C83.9414 19.0517 84.0151 19.043 84.0931 19.043C84.4484 19.043 84.7344 19.16 84.9511 19.394C85.1764 19.6193 85.2891 19.9183 85.2891 20.291V20.33C85.2891 20.7113 85.1591 21.0233 84.8991 21.266C84.6478 21.5087 84.3228 21.63 83.9241 21.63C83.4821 21.63 83.1354 21.5 82.8841 21.24C82.6328 20.9713 82.5071 20.616 82.5071 20.174V16.768ZM83.9501 20.863C84.0888 20.863 84.2014 20.8153 84.2881 20.72C84.3834 20.616 84.4311 20.4903 84.4311 20.343V20.278C84.4311 20.122 84.3834 19.9963 84.2881 19.901C84.2014 19.797 84.0844 19.745 83.9371 19.745C83.7984 19.745 83.6814 19.797 83.5861 19.901C83.4994 19.9963 83.4561 20.122 83.4561 20.278V20.343C83.4561 20.4903 83.4994 20.616 83.5861 20.72C83.6814 20.8153 83.8028 20.863 83.9501 20.863ZM94.2503 15.793C94.2503 15.2297 94.3933 14.8137 94.6793 14.545C94.9653 14.2677 95.3596 14.129 95.8623 14.129C96.0963 14.129 96.2999 14.155 96.4733 14.207C96.6553 14.259 96.8069 14.3153 96.9283 14.376L96.6033 15.481C96.5426 15.4377 96.4689 15.403 96.3823 15.377C96.3043 15.351 96.2176 15.338 96.1223 15.338C95.9836 15.338 95.8623 15.3813 95.7583 15.468C95.6629 15.546 95.6153 15.676 95.6153 15.858V19.056C95.6673 19.056 95.7193 19.056 95.7713 19.056C96.0833 19.056 96.3389 19.1687 96.5383 19.394C96.7463 19.6193 96.8503 19.9097 96.8503 20.265V20.33C96.8503 20.7287 96.7246 21.045 96.4733 21.279C96.2306 21.513 95.9359 21.63 95.5893 21.63C95.2079 21.63 94.8873 21.513 94.6273 21.279C94.3759 21.045 94.2503 20.6897 94.2503 20.213V15.793ZM95.5893 20.863C95.7193 20.863 95.8276 20.8153 95.9143 20.72C96.0096 20.6247 96.0573 20.499 96.0573 20.343V20.265C96.0573 20.109 96.0096 19.9833 95.9143 19.888C95.8276 19.7927 95.7149 19.745 95.5763 19.745C95.4463 19.745 95.3379 19.7927 95.2513 19.888C95.1646 19.9833 95.1213 20.109 95.1213 20.265V20.343C95.1213 20.499 95.1646 20.6247 95.2513 20.72C95.3379 20.8153 95.4506 20.863 95.5893 20.863ZM102.352 21.604C101.997 21.604 101.698 21.5477 101.455 21.435C101.221 21.3223 101.018 21.1923 100.844 21.045C100.68 20.8977 100.524 20.772 100.376 20.668C100.238 20.5553 100.082 20.499 99.9084 20.499V21.5H98.6084V18.939H99.9084V19.446C100.212 19.446 100.463 19.498 100.662 19.602C100.87 19.706 101.048 19.8317 101.195 19.979C101.351 20.1177 101.503 20.239 101.65 20.343C101.806 20.447 101.988 20.499 102.196 20.499C102.404 20.499 102.556 20.4383 102.651 20.317C102.755 20.1957 102.807 20.0223 102.807 19.797V18.783L100.61 18.445C100.212 18.3757 99.8434 18.263 99.5054 18.107C99.1674 17.951 98.8987 17.73 98.6994 17.444C98.5087 17.1493 98.4134 16.7723 98.4134 16.313C98.4134 15.8537 98.5304 15.455 98.7644 15.117C98.9984 14.7703 99.3234 14.5017 99.7394 14.311C100.164 14.1117 100.654 14.012 101.208 14.012C101.798 14.012 102.296 14.1073 102.703 14.298C103.119 14.48 103.453 14.7313 103.704 15.052C103.956 15.364 104.12 15.715 104.198 16.105L102.976 16.508C102.838 16.092 102.625 15.7757 102.339 15.559C102.053 15.3337 101.676 15.221 101.208 15.221C100.784 15.221 100.437 15.3207 100.168 15.52C99.9084 15.7193 99.7784 15.988 99.7784 16.326C99.7784 16.6207 99.8737 16.8633 100.064 17.054C100.264 17.236 100.537 17.353 100.883 17.405L104.146 17.925V19.732C104.146 20.304 103.986 20.759 103.665 21.097C103.345 21.435 102.907 21.604 102.352 21.604ZM106.668 21.5V16.742C106.668 16.2913 106.551 15.962 106.317 15.754C106.092 15.546 105.75 15.442 105.29 15.442H104.692V14.22H105.42C105.75 14.22 106.018 14.259 106.226 14.337C106.443 14.4063 106.621 14.532 106.759 14.714H106.811V12.569C106.811 12.283 106.668 12.14 106.382 12.14H106.031V11.1H106.551C107.063 11.1 107.435 11.2127 107.669 11.438C107.912 11.6633 108.033 12.023 108.033 12.517V21.5H106.668ZM110.323 21.5V18.874C110.323 18.3107 110.444 17.8167 110.687 17.392C110.929 16.9673 111.267 16.638 111.701 16.404C112.143 16.1613 112.658 16.04 113.248 16.04C113.828 16.04 114.335 16.1613 114.769 16.404C115.211 16.638 115.553 16.9673 115.796 17.392C116.038 17.8167 116.16 18.3107 116.16 18.874V21.5H114.795V18.874C114.795 18.3887 114.652 17.9987 114.366 17.704C114.08 17.4093 113.703 17.262 113.235 17.262C112.775 17.262 112.403 17.4093 112.117 17.704C111.831 17.9987 111.688 18.3887 111.688 18.874V21.5H110.323ZM110.258 15.442V14.22H116.225V15.442H110.258ZM112.19 25.218C111.696 25.218 111.293 25.0923 110.981 24.841C110.66 24.5897 110.5 24.2343 110.5 23.775C110.5 23.3677 110.656 23.021 110.968 22.735C111.271 22.449 111.705 22.306 112.268 22.306H114.257V22.046H115.349V22.306H115.999V23.255H115.349V23.788C115.418 23.8227 115.479 23.8703 115.531 23.931C115.678 24.0783 115.752 24.2603 115.752 24.477C115.752 24.6763 115.683 24.8497 115.544 24.997C115.397 25.1443 115.215 25.218 114.998 25.218C114.781 25.218 114.599 25.1443 114.452 24.997C114.365 24.9103 114.305 24.8107 114.27 24.698L112.281 25.218H112.19ZM114.257 23.255H112.255C112.082 23.255 111.943 23.3027 111.839 23.398C111.726 23.502 111.67 23.6363 111.67 23.801C111.67 23.957 111.726 24.087 111.839 24.191C111.952 24.295 112.09 24.347 112.255 24.347H112.385L114.257 23.892V23.255ZM114.53 27.649V26.284H114.036V25.582H115.661V27.649H114.53ZM118.27 21.5V18.614H117.763V17.509H119.063C119.444 17.509 119.635 17.6953 119.635 18.068V20.005L121.013 18.77H121.299L122.69 20.005V17.522C122.69 17.236 122.629 17.0107 122.508 16.846C122.386 16.6813 122.23 16.5947 122.04 16.586C121.806 16.69 121.567 16.7767 121.325 16.846C121.082 16.9153 120.813 16.95 120.519 16.95C119.765 16.95 119.175 16.7463 118.751 16.339C118.335 15.9317 118.127 15.3943 118.127 14.727V13.336H119.44V14.701C119.44 15.039 119.544 15.3293 119.752 15.572C119.968 15.8147 120.276 15.936 120.675 15.936C120.813 15.936 120.948 15.923 121.078 15.897C121.13 15.8797 121.182 15.8623 121.234 15.845C121.112 15.6543 121.052 15.4507 121.052 15.234C121.052 14.9047 121.169 14.6273 121.403 14.402C121.645 14.168 121.94 14.051 122.287 14.051C122.642 14.051 122.941 14.168 123.184 14.402C123.435 14.6273 123.561 14.909 123.561 15.247C123.561 15.4723 123.496 15.6803 123.366 15.871C123.314 15.9577 123.249 16.0357 123.171 16.105V16.144C123.483 16.2827 123.708 16.469 123.847 16.703C123.985 16.9283 124.055 17.2013 124.055 17.522V21.5H122.794L121.156 20.031L119.531 21.5H118.27ZM122.3 15.715C122.43 15.715 122.538 15.6717 122.625 15.585C122.711 15.4897 122.755 15.377 122.755 15.247C122.755 15.1083 122.711 14.9957 122.625 14.909C122.538 14.8223 122.43 14.779 122.3 14.779C122.17 14.779 122.061 14.8223 121.975 14.909C121.888 14.9957 121.845 15.1083 121.845 15.247C121.845 15.377 121.888 15.4897 121.975 15.585C122.061 15.6717 122.17 15.715 122.3 15.715Z" fill="white"/>
<path d="M76.14 41.772C75.2673 41.772 74.4457 41.6133 73.675 41.296C72.9043 40.9787 72.2243 40.5367 71.635 39.97C71.057 39.392 70.598 38.7177 70.258 37.947C69.9293 37.165 69.765 36.3207 69.765 35.414C69.765 34.5073 69.9293 33.6687 70.258 32.898C70.598 32.116 71.057 31.4417 71.635 30.875C72.2243 30.297 72.9043 29.8493 73.675 29.532C74.4457 29.2147 75.2673 29.056 76.14 29.056C77.0693 29.056 77.925 29.2203 78.707 29.549C79.5003 29.8777 80.1633 30.3367 80.696 30.926L79.404 32.201C79.1433 31.9063 78.843 31.657 78.503 31.453C78.1743 31.249 77.8117 31.096 77.415 30.994C77.0183 30.8807 76.5933 30.824 76.14 30.824C75.5393 30.824 74.967 30.9317 74.423 31.147C73.879 31.3623 73.3973 31.674 72.978 32.082C72.57 32.4787 72.247 32.9603 72.009 33.527C71.771 34.0823 71.652 34.7113 71.652 35.414C71.652 36.1167 71.771 36.7513 72.009 37.318C72.2583 37.8733 72.587 38.355 72.995 38.763C73.4143 39.1597 73.896 39.4657 74.44 39.681C74.984 39.8963 75.5563 40.004 76.157 40.004C76.7123 40.004 77.228 39.9247 77.704 39.766C78.1913 39.6073 78.6163 39.3807 78.979 39.086C79.3417 38.7913 79.6363 38.4343 79.863 38.015C80.0897 37.5843 80.2313 37.1027 80.288 36.57H76.123V34.921H82.039C82.0617 35.057 82.0843 35.2157 82.107 35.397C82.1297 35.567 82.141 35.7313 82.141 35.89V35.907C82.141 36.7797 81.988 37.5787 81.682 38.304C81.3873 39.0293 80.9737 39.6527 80.441 40.174C79.9083 40.684 79.2737 41.0807 78.537 41.364C77.8117 41.636 77.0127 41.772 76.14 41.772ZM87.6149 41.772C86.7195 41.772 85.9319 41.568 85.2519 41.16C84.5719 40.752 84.0392 40.2023 83.6539 39.511C83.2685 38.8083 83.0759 38.0263 83.0759 37.165C83.0759 36.3037 83.2685 35.5273 83.6539 34.836C84.0392 34.1333 84.5719 33.578 85.2519 33.17C85.9319 32.762 86.7195 32.558 87.6149 32.558C88.4989 32.558 89.2809 32.7677 89.9609 33.187C90.6409 33.595 91.1735 34.1447 91.5589 34.836C91.9442 35.5273 92.1369 36.3037 92.1369 37.165C92.1369 38.0263 91.9442 38.8083 91.5589 39.511C91.1735 40.2023 90.6409 40.752 89.9609 41.16C89.2809 41.568 88.4989 41.772 87.6149 41.772ZM87.6149 40.089C88.0909 40.089 88.5329 39.9757 88.9409 39.749C89.3489 39.511 89.6775 39.1767 89.9269 38.746C90.1875 38.304 90.3179 37.777 90.3179 37.165C90.3179 36.553 90.1875 36.0317 89.9269 35.601C89.6775 35.159 89.3489 34.8247 88.9409 34.598C88.5329 34.36 88.0909 34.241 87.6149 34.241C87.1389 34.241 86.6912 34.36 86.2719 34.598C85.8639 34.8247 85.5295 35.159 85.2689 35.601C85.0195 36.0317 84.8949 36.553 84.8949 37.165C84.8949 37.777 85.0195 38.304 85.2689 38.746C85.5295 39.1767 85.8695 39.511 86.2889 39.749C86.7082 39.9757 87.1502 40.089 87.6149 40.089ZM97.9078 41.772C97.0125 41.772 96.2248 41.568 95.5448 41.16C94.8648 40.752 94.3322 40.2023 93.9468 39.511C93.5615 38.8083 93.3688 38.0263 93.3688 37.165C93.3688 36.3037 93.5615 35.5273 93.9468 34.836C94.3322 34.1333 94.8648 33.578 95.5448 33.17C96.2248 32.762 97.0125 32.558 97.9078 32.558C98.7918 32.558 99.5738 32.7677 100.254 33.187C100.934 33.595 101.467 34.1447 101.852 34.836C102.237 35.5273 102.43 36.3037 102.43 37.165C102.43 38.0263 102.237 38.8083 101.852 39.511C101.467 40.2023 100.934 40.752 100.254 41.16C99.5738 41.568 98.7918 41.772 97.9078 41.772ZM97.9078 40.089C98.3838 40.089 98.8258 39.9757 99.2338 39.749C99.6418 39.511 99.9705 39.1767 100.22 38.746C100.481 38.304 100.611 37.777 100.611 37.165C100.611 36.553 100.481 36.0317 100.22 35.601C99.9705 35.159 99.6418 34.8247 99.2338 34.598C98.8258 34.36 98.3838 34.241 97.9078 34.241C97.4318 34.241 96.9842 34.36 96.5648 34.598C96.1568 34.8247 95.8225 35.159 95.5618 35.601C95.3125 36.0317 95.1878 36.553 95.1878 37.165C95.1878 37.777 95.3125 38.304 95.5618 38.746C95.8225 39.1767 96.1625 39.511 96.5818 39.749C97.0012 39.9757 97.4432 40.089 97.9078 40.089ZM108.031 45.444C107.271 45.444 106.614 45.3193 106.059 45.07C105.515 44.832 105.073 44.5203 104.733 44.135C104.393 43.761 104.149 43.3757 104.002 42.979L105.702 42.265C105.883 42.7183 106.172 43.0867 106.569 43.37C106.977 43.6647 107.464 43.812 108.031 43.812C108.835 43.812 109.464 43.574 109.918 43.098C110.371 42.622 110.598 41.9477 110.598 41.075V40.242H110.496C110.224 40.6387 109.85 40.9617 109.374 41.211C108.898 41.4603 108.348 41.585 107.725 41.585C106.988 41.585 106.308 41.398 105.685 41.024C105.073 40.65 104.58 40.1287 104.206 39.46C103.843 38.78 103.662 37.9867 103.662 37.08C103.662 36.162 103.843 35.3687 104.206 34.7C104.58 34.02 105.073 33.493 105.685 33.119C106.308 32.745 106.988 32.558 107.725 32.558C108.348 32.558 108.898 32.6827 109.374 32.932C109.85 33.17 110.224 33.4987 110.496 33.918H110.598V32.83H112.349V41.041C112.349 41.9817 112.162 42.7807 111.788 43.438C111.425 44.0953 110.921 44.594 110.275 44.934C109.629 45.274 108.881 45.444 108.031 45.444ZM108.048 39.919C108.501 39.919 108.92 39.8113 109.306 39.596C109.702 39.3693 110.014 39.0463 110.241 38.627C110.479 38.1963 110.598 37.6807 110.598 37.08C110.598 36.4453 110.479 35.9183 110.241 35.499C110.014 35.0797 109.702 34.7623 109.306 34.547C108.92 34.3317 108.501 34.224 108.048 34.224C107.594 34.224 107.169 34.3317 106.773 34.547C106.387 34.7623 106.076 35.0853 105.838 35.516C105.6 35.9353 105.481 36.4567 105.481 37.08C105.481 37.692 105.6 38.2133 105.838 38.644C106.076 39.0633 106.387 39.3807 106.773 39.596C107.169 39.8113 107.594 39.919 108.048 39.919ZM114.514 41.5V29.328H116.35V41.5H114.514ZM122.392 41.772C121.542 41.772 120.783 41.5737 120.114 41.177C119.446 40.7803 118.919 40.2363 118.533 39.545C118.159 38.8537 117.972 38.066 117.972 37.182C117.972 36.3547 118.154 35.5897 118.516 34.887C118.879 34.1843 119.383 33.6233 120.029 33.204C120.687 32.7733 121.44 32.558 122.29 32.558C123.186 32.558 123.945 32.7507 124.568 33.136C125.203 33.5213 125.685 34.0483 126.013 34.717C126.342 35.3857 126.506 36.1393 126.506 36.978C126.506 37.1027 126.501 37.216 126.489 37.318C126.489 37.42 126.484 37.4993 126.472 37.556H119.774C119.82 38.032 119.939 38.4457 120.131 38.797C120.381 39.239 120.709 39.5733 121.117 39.8C121.525 40.0267 121.967 40.14 122.443 40.14C123.021 40.14 123.503 40.0097 123.888 39.749C124.285 39.477 124.597 39.1427 124.823 38.746L126.336 39.477C125.962 40.157 125.452 40.7123 124.806 41.143C124.16 41.5623 123.356 41.772 122.392 41.772ZM119.876 36.179H124.687C124.676 35.9637 124.619 35.737 124.517 35.499C124.415 35.2497 124.268 35.023 124.075 34.819C123.883 34.615 123.639 34.4507 123.344 34.326C123.05 34.19 122.704 34.122 122.307 34.122C121.809 34.122 121.367 34.2523 120.981 34.513C120.596 34.7623 120.296 35.1137 120.08 35.567C119.99 35.7597 119.922 35.9637 119.876 36.179ZM133.979 41.5L130.715 29.328H132.789L134.727 37.233L134.931 38.287H135.033L135.288 37.233L137.736 29.328H139.606L141.952 37.233L142.207 38.27H142.309L142.513 37.233L144.451 29.328H146.508L143.295 41.5H141.323L138.994 33.425L138.722 32.286H138.62L138.331 33.425L135.9 41.5H133.979ZM149.922 41.772C149.299 41.772 148.743 41.6473 148.256 41.398C147.78 41.1487 147.4 40.8087 147.117 40.378C146.845 39.936 146.709 39.4317 146.709 38.865C146.709 38.2417 146.868 37.7147 147.185 37.284C147.514 36.8533 147.95 36.5247 148.494 36.298C149.038 36.0713 149.639 35.958 150.296 35.958C150.659 35.958 150.993 35.9863 151.299 36.043C151.616 36.0883 151.888 36.145 152.115 36.213C152.353 36.281 152.54 36.3547 152.676 36.434V35.975C152.676 35.4083 152.472 34.955 152.064 34.615C151.656 34.275 151.129 34.105 150.483 34.105C150.041 34.105 149.622 34.207 149.225 34.411C148.828 34.6037 148.511 34.87 148.273 35.21L147.015 34.241C147.264 33.8897 147.565 33.5893 147.916 33.34C148.279 33.0907 148.681 32.898 149.123 32.762C149.576 32.626 150.047 32.558 150.534 32.558C151.792 32.558 152.761 32.8697 153.441 33.493C154.121 34.105 154.461 34.9663 154.461 36.077V41.5H152.676V40.429H152.574C152.427 40.6557 152.223 40.871 151.962 41.075C151.713 41.279 151.412 41.4433 151.061 41.568C150.721 41.704 150.341 41.772 149.922 41.772ZM150.245 40.276C150.721 40.276 151.14 40.1627 151.503 39.936C151.877 39.7093 152.166 39.4147 152.37 39.052C152.574 38.678 152.676 38.2757 152.676 37.845C152.427 37.6977 152.121 37.5787 151.758 37.488C151.407 37.386 151.033 37.335 150.636 37.335C149.888 37.335 149.355 37.4823 149.038 37.777C148.721 38.0717 148.562 38.44 148.562 38.882C148.562 39.29 148.715 39.6243 149.021 39.885C149.327 40.1457 149.735 40.276 150.245 40.276ZM156.499 41.5V29.328H158.335V41.5H156.499ZM160.517 41.5V29.328H162.353V41.5H160.517ZM168.395 41.772C167.545 41.772 166.786 41.5737 166.117 41.177C165.449 40.7803 164.922 40.2363 164.536 39.545C164.162 38.8537 163.975 38.066 163.975 37.182C163.975 36.3547 164.157 35.5897 164.519 34.887C164.882 34.1843 165.386 33.6233 166.032 33.204C166.69 32.7733 167.443 32.558 168.293 32.558C169.189 32.558 169.948 32.7507 170.571 33.136C171.206 33.5213 171.688 34.0483 172.016 34.717C172.345 35.3857 172.509 36.1393 172.509 36.978C172.509 37.1027 172.504 37.216 172.492 37.318C172.492 37.42 172.487 37.4993 172.475 37.556H165.777C165.823 38.032 165.942 38.4457 166.134 38.797C166.384 39.239 166.712 39.5733 167.12 39.8C167.528 40.0267 167.97 40.14 168.446 40.14C169.024 40.14 169.506 40.0097 169.891 39.749C170.288 39.477 170.6 39.1427 170.826 38.746L172.339 39.477C171.965 40.157 171.455 40.7123 170.809 41.143C170.163 41.5623 169.359 41.772 168.395 41.772ZM165.879 36.179H170.69C170.679 35.9637 170.622 35.737 170.52 35.499C170.418 35.2497 170.271 35.023 170.078 34.819C169.886 34.615 169.642 34.4507 169.347 34.326C169.053 34.19 168.707 34.122 168.31 34.122C167.812 34.122 167.37 34.2523 166.984 34.513C166.599 34.7623 166.299 35.1137 166.083 35.567C165.993 35.7597 165.925 35.9637 165.879 36.179ZM173.369 32.83H174.882V30.382H176.718V32.83H178.843V34.428H176.718V38.593C176.718 39.0237 176.803 39.3523 176.973 39.579C177.154 39.8057 177.454 39.919 177.874 39.919C178.078 39.919 178.259 39.8907 178.418 39.834C178.576 39.766 178.735 39.6867 178.894 39.596V41.381C178.701 41.4603 178.497 41.5227 178.282 41.568C178.066 41.6133 177.811 41.636 177.517 41.636C176.712 41.636 176.072 41.4037 175.596 40.939C175.12 40.463 174.882 39.8113 174.882 38.984V34.428H173.369V32.83Z" fill="white"/>
</svg>
