<svg width="214" height="55" viewBox="0 0 214 55" fill="none" xmlns="http://www.w3.org/2000/svg">
<rect x="0.5" y="0.5" width="213" height="54" rx="27" fill="#1F1F1F"/>
<rect x="0.5" y="0.5" width="213" height="54" rx="27" stroke="#747775"/>
<path d="M57 23.791H21V18.1455C21 15.0809 23.6422 12.5001 26.7798 12.5001H51.2202C54.3578 12.5001 57 15.0809 57 18.1455V23.791Z" fill="#34A853"/>
<path d="M57 29H21V23C21 19.7429 23.6422 17 26.7798 17H51.2202C54.3578 17 57 19.7429 57 23V29Z" fill="#FBBC04"/>
<path d="M57 34H21V28C21 24.7429 23.6422 22 26.7798 22H51.2202C54.3578 22 57 24.7429 57 28V34Z" fill="#EA4335"/>
<path d="M21 25.2409L43.8493 30.4025C46.4795 31.0477 49.4384 30.4025 51.5753 28.7895L57 24.9183V37.0157C57 40.0804 54.3699 42.4999 51.2466 42.4999H26.7534C23.6301 42.4999 21 40.0804 21 37.0157V25.2409Z" fill="#4285F4"/>
<path d="M74.46 21.708C73.7927 21.708 73.1643 21.5867 72.575 21.344C71.9857 21.1013 71.4657 20.7633 71.015 20.33C70.573 19.888 70.222 19.3723 69.962 18.783C69.7107 18.185 69.585 17.5393 69.585 16.846C69.585 16.1527 69.7107 15.5113 69.962 14.922C70.222 14.324 70.573 13.8083 71.015 13.375C71.4657 12.933 71.9857 12.5907 72.575 12.348C73.1643 12.1053 73.7927 11.984 74.46 11.984C75.1707 11.984 75.825 12.1097 76.423 12.361C77.0297 12.6123 77.5367 12.9633 77.944 13.414L76.956 14.389C76.7567 14.1637 76.527 13.973 76.267 13.817C76.0157 13.661 75.7383 13.544 75.435 13.466C75.1317 13.3793 74.8067 13.336 74.46 13.336C74.0007 13.336 73.563 13.4183 73.147 13.583C72.731 13.7477 72.3627 13.986 72.042 14.298C71.73 14.6013 71.483 14.9697 71.301 15.403C71.119 15.8277 71.028 16.3087 71.028 16.846C71.028 17.3833 71.119 17.8687 71.301 18.302C71.4917 18.7267 71.743 19.095 72.055 19.407C72.3757 19.7103 72.744 19.9443 73.16 20.109C73.576 20.2737 74.0137 20.356 74.473 20.356C74.8977 20.356 75.292 20.2953 75.656 20.174C76.0287 20.0527 76.3537 19.8793 76.631 19.654C76.9083 19.4287 77.1337 19.1557 77.307 18.835C77.4803 18.5057 77.5887 18.1373 77.632 17.73H74.447V16.469H78.971C78.9883 16.573 79.0057 16.6943 79.023 16.833C79.0403 16.963 79.049 17.0887 79.049 17.21V17.223C79.049 17.8903 78.932 18.5013 78.698 19.056C78.4727 19.6107 78.1563 20.0873 77.749 20.486C77.3417 20.876 76.8563 21.1793 76.293 21.396C75.7383 21.604 75.1273 21.708 74.46 21.708ZM83.2349 21.708C82.5502 21.708 81.9479 21.552 81.4279 21.24C80.9079 20.928 80.5006 20.5077 80.2059 19.979C79.9112 19.4417 79.7639 18.8437 79.7639 18.185C79.7639 17.5263 79.9112 16.9327 80.2059 16.404C80.5006 15.8667 80.9079 15.442 81.4279 15.13C81.9479 14.818 82.5502 14.662 83.2349 14.662C83.9109 14.662 84.5089 14.8223 85.0289 15.143C85.5489 15.455 85.9562 15.8753 86.2509 16.404C86.5456 16.9327 86.6929 17.5263 86.6929 18.185C86.6929 18.8437 86.5456 19.4417 86.2509 19.979C85.9562 20.5077 85.5489 20.928 85.0289 21.24C84.5089 21.552 83.9109 21.708 83.2349 21.708ZM83.2349 20.421C83.5989 20.421 83.9369 20.3343 84.2489 20.161C84.5609 19.979 84.8122 19.7233 85.0029 19.394C85.2022 19.056 85.3019 18.653 85.3019 18.185C85.3019 17.717 85.2022 17.3183 85.0029 16.989C84.8122 16.651 84.5609 16.3953 84.2489 16.222C83.9369 16.04 83.5989 15.949 83.2349 15.949C82.8709 15.949 82.5286 16.04 82.2079 16.222C81.8959 16.3953 81.6402 16.651 81.4409 16.989C81.2502 17.3183 81.1549 17.717 81.1549 18.185C81.1549 18.653 81.2502 19.056 81.4409 19.394C81.6402 19.7233 81.9002 19.979 82.2209 20.161C82.5416 20.3343 82.8796 20.421 83.2349 20.421ZM91.106 21.708C90.4213 21.708 89.819 21.552 89.299 21.24C88.779 20.928 88.3717 20.5077 88.077 19.979C87.7823 19.4417 87.635 18.8437 87.635 18.185C87.635 17.5263 87.7823 16.9327 88.077 16.404C88.3717 15.8667 88.779 15.442 89.299 15.13C89.819 14.818 90.4213 14.662 91.106 14.662C91.782 14.662 92.38 14.8223 92.9 15.143C93.42 15.455 93.8273 15.8753 94.122 16.404C94.4167 16.9327 94.564 17.5263 94.564 18.185C94.564 18.8437 94.4167 19.4417 94.122 19.979C93.8273 20.5077 93.42 20.928 92.9 21.24C92.38 21.552 91.782 21.708 91.106 21.708ZM91.106 20.421C91.47 20.421 91.808 20.3343 92.12 20.161C92.432 19.979 92.6833 19.7233 92.874 19.394C93.0733 19.056 93.173 18.653 93.173 18.185C93.173 17.717 93.0733 17.3183 92.874 16.989C92.6833 16.651 92.432 16.3953 92.12 16.222C91.808 16.04 91.47 15.949 91.106 15.949C90.742 15.949 90.3997 16.04 90.079 16.222C89.767 16.3953 89.5113 16.651 89.312 16.989C89.1213 17.3183 89.026 17.717 89.026 18.185C89.026 18.653 89.1213 19.056 89.312 19.394C89.5113 19.7233 89.7713 19.979 90.092 20.161C90.4127 20.3343 90.7507 20.421 91.106 20.421ZM98.8471 24.516C98.2664 24.516 97.7638 24.4207 97.3391 24.23C96.9231 24.048 96.5851 23.8097 96.3251 23.515C96.0651 23.229 95.8788 22.9343 95.7661 22.631L97.0661 22.085C97.2048 22.4317 97.4258 22.7133 97.7291 22.93C98.0411 23.1553 98.4138 23.268 98.8471 23.268C99.4624 23.268 99.9434 23.086 100.29 22.722C100.637 22.358 100.81 21.8423 100.81 21.175V20.538H100.732C100.524 20.8413 100.238 21.0883 99.8741 21.279C99.5101 21.4697 99.0898 21.565 98.6131 21.565C98.0498 21.565 97.5298 21.422 97.0531 21.136C96.5851 20.85 96.2081 20.4513 95.9221 19.94C95.6448 19.42 95.5061 18.8133 95.5061 18.12C95.5061 17.418 95.6448 16.8113 95.9221 16.3C96.2081 15.78 96.5851 15.377 97.0531 15.091C97.5298 14.805 98.0498 14.662 98.6131 14.662C99.0898 14.662 99.5101 14.7573 99.8741 14.948C100.238 15.13 100.524 15.3813 100.732 15.702H100.81V14.87H102.149V21.149C102.149 21.8683 102.006 22.4793 101.72 22.982C101.443 23.4847 101.057 23.866 100.563 24.126C100.069 24.386 99.4971 24.516 98.8471 24.516ZM98.8601 20.291C99.2068 20.291 99.5274 20.2087 99.8221 20.044C100.125 19.8707 100.364 19.6237 100.537 19.303C100.719 18.9737 100.81 18.5793 100.81 18.12C100.81 17.6347 100.719 17.2317 100.537 16.911C100.364 16.5903 100.125 16.3477 99.8221 16.183C99.5274 16.0183 99.2068 15.936 98.8601 15.936C98.5134 15.936 98.1884 16.0183 97.8851 16.183C97.5904 16.3477 97.3521 16.5947 97.1701 16.924C96.9881 17.2447 96.8971 17.6433 96.8971 18.12C96.8971 18.588 96.9881 18.9867 97.1701 19.316C97.3521 19.6367 97.5904 19.8793 97.8851 20.044C98.1884 20.2087 98.5134 20.291 98.8601 20.291ZM103.805 21.5V12.192H105.209V21.5H103.805ZM109.829 21.708C109.179 21.708 108.599 21.5563 108.087 21.253C107.576 20.9497 107.173 20.5337 106.878 20.005C106.592 19.4763 106.449 18.874 106.449 18.198C106.449 17.5653 106.588 16.9803 106.865 16.443C107.143 15.9057 107.528 15.4767 108.022 15.156C108.525 14.8267 109.101 14.662 109.751 14.662C110.436 14.662 111.017 14.8093 111.493 15.104C111.979 15.3987 112.347 15.8017 112.598 16.313C112.85 16.8243 112.975 17.4007 112.975 18.042C112.975 18.1373 112.971 18.224 112.962 18.302C112.962 18.38 112.958 18.4407 112.949 18.484H107.827C107.862 18.848 107.953 19.1643 108.1 19.433C108.291 19.771 108.542 20.0267 108.854 20.2C109.166 20.3733 109.504 20.46 109.868 20.46C110.31 20.46 110.679 20.3603 110.973 20.161C111.277 19.953 111.515 19.6973 111.688 19.394L112.845 19.953C112.559 20.473 112.169 20.8977 111.675 21.227C111.181 21.5477 110.566 21.708 109.829 21.708ZM107.905 17.431H111.584C111.576 17.2663 111.532 17.093 111.454 16.911C111.376 16.7203 111.264 16.547 111.116 16.391C110.969 16.235 110.783 16.1093 110.557 16.014C110.332 15.91 110.068 15.858 109.764 15.858C109.383 15.858 109.045 15.9577 108.75 16.157C108.456 16.3477 108.226 16.6163 108.061 16.963C107.992 17.1103 107.94 17.2663 107.905 17.431ZM118.69 21.5L116.194 12.192H117.78L119.262 18.237L119.418 19.043H119.496L119.691 18.237L121.563 12.192H122.993L124.787 18.237L124.982 19.03H125.06L125.216 18.237L126.698 12.192H128.271L125.814 21.5H124.306L122.525 15.325L122.317 14.454H122.239L122.018 15.325L120.159 21.5H118.69ZM130.881 21.708C130.405 21.708 129.98 21.6127 129.607 21.422C129.243 21.2313 128.953 20.9713 128.736 20.642C128.528 20.304 128.424 19.9183 128.424 19.485C128.424 19.0083 128.546 18.6053 128.788 18.276C129.04 17.9467 129.373 17.6953 129.789 17.522C130.205 17.3487 130.665 17.262 131.167 17.262C131.445 17.262 131.7 17.2837 131.934 17.327C132.177 17.3617 132.385 17.405 132.558 17.457C132.74 17.509 132.883 17.5653 132.987 17.626V17.275C132.987 16.8417 132.831 16.495 132.519 16.235C132.207 15.975 131.804 15.845 131.31 15.845C130.972 15.845 130.652 15.923 130.348 16.079C130.045 16.2263 129.802 16.43 129.62 16.69L128.658 15.949C128.849 15.6803 129.079 15.4507 129.347 15.26C129.625 15.0693 129.932 14.922 130.27 14.818C130.617 14.714 130.977 14.662 131.349 14.662C132.311 14.662 133.052 14.9003 133.572 15.377C134.092 15.845 134.352 16.5037 134.352 17.353V21.5H132.987V20.681H132.909C132.797 20.8543 132.641 21.019 132.441 21.175C132.251 21.331 132.021 21.4567 131.752 21.552C131.492 21.656 131.202 21.708 130.881 21.708ZM131.128 20.564C131.492 20.564 131.813 20.4773 132.09 20.304C132.376 20.1307 132.597 19.9053 132.753 19.628C132.909 19.342 132.987 19.0343 132.987 18.705C132.797 18.5923 132.563 18.5013 132.285 18.432C132.017 18.354 131.731 18.315 131.427 18.315C130.855 18.315 130.448 18.4277 130.205 18.653C129.963 18.8783 129.841 19.16 129.841 19.498C129.841 19.81 129.958 20.0657 130.192 20.265C130.426 20.4643 130.738 20.564 131.128 20.564ZM135.911 21.5V12.192H137.315V21.5H135.911ZM138.983 21.5V12.192H140.387V21.5H138.983ZM145.008 21.708C144.358 21.708 143.777 21.5563 143.266 21.253C142.755 20.9497 142.352 20.5337 142.057 20.005C141.771 19.4763 141.628 18.874 141.628 18.198C141.628 17.5653 141.767 16.9803 142.044 16.443C142.321 15.9057 142.707 15.4767 143.201 15.156C143.704 14.8267 144.28 14.662 144.93 14.662C145.615 14.662 146.195 14.8093 146.672 15.104C147.157 15.3987 147.526 15.8017 147.777 16.313C148.028 16.8243 148.154 17.4007 148.154 18.042C148.154 18.1373 148.15 18.224 148.141 18.302C148.141 18.38 148.137 18.4407 148.128 18.484H143.006C143.041 18.848 143.132 19.1643 143.279 19.433C143.47 19.771 143.721 20.0267 144.033 20.2C144.345 20.3733 144.683 20.46 145.047 20.46C145.489 20.46 145.857 20.3603 146.152 20.161C146.455 19.953 146.694 19.6973 146.867 19.394L148.024 19.953C147.738 20.473 147.348 20.8977 146.854 21.227C146.36 21.5477 145.745 21.708 145.008 21.708ZM143.084 17.431H146.763C146.754 17.2663 146.711 17.093 146.633 16.911C146.555 16.7203 146.442 16.547 146.295 16.391C146.148 16.235 145.961 16.1093 145.736 16.014C145.511 15.91 145.246 15.858 144.943 15.858C144.562 15.858 144.224 15.9577 143.929 16.157C143.634 16.3477 143.405 16.6163 143.24 16.963C143.171 17.1103 143.119 17.2663 143.084 17.431ZM148.811 14.87H149.968V12.998H151.372V14.87H152.997V16.092H151.372V19.277C151.372 19.6063 151.437 19.8577 151.567 20.031C151.706 20.2043 151.936 20.291 152.256 20.291C152.412 20.291 152.551 20.2693 152.672 20.226C152.794 20.174 152.915 20.1133 153.036 20.044V21.409C152.889 21.4697 152.733 21.5173 152.568 21.552C152.404 21.5867 152.209 21.604 151.983 21.604C151.368 21.604 150.878 21.4263 150.514 21.071C150.15 20.707 149.968 20.2087 149.968 19.576V16.092H148.811V14.87Z" fill="white"/>
<path d="M75.9395 40.1719C75.6074 40.681 75.209 41.0628 74.7441 41.3174C74.2848 41.5719 73.6374 41.6992 72.8018 41.6992C71.8278 41.6992 71.0309 41.4198 70.4111 40.8608C69.7969 40.3019 69.4897 39.5715 69.4897 38.6694C69.4897 37.8836 69.7277 37.2417 70.2036 36.7437C70.6795 36.2401 71.3021 35.9883 72.0713 35.9883C72.6745 35.9883 73.1587 36.1322 73.5239 36.4199C73.8892 36.7077 74.0718 37.0923 74.0718 37.5737C74.0718 37.9943 73.9971 38.3291 73.8477 38.5781L72.6855 38.4702C72.7575 38.2655 72.7935 38.0828 72.7935 37.9224C72.7935 37.6789 72.7243 37.4963 72.5859 37.3745C72.4476 37.2472 72.2594 37.1836 72.0215 37.1836C71.6396 37.1836 71.3381 37.3136 71.1167 37.5737C70.8953 37.8283 70.7847 38.1714 70.7847 38.603C70.7847 39.1453 70.9701 39.5742 71.3408 39.8896C71.7171 40.1995 72.2539 40.3545 72.9512 40.3545C74.3789 40.3545 75.1564 39.6323 75.2837 38.188H76.5869C76.6367 38.8797 76.8415 39.4137 77.2012 39.79C77.5609 40.1663 78.0312 40.3545 78.6123 40.3545C80.0622 40.3545 80.7871 39.2809 80.7871 37.1338C80.7871 35.8112 80.4966 34.5578 79.9155 33.3735C79.34 32.1893 78.5597 31.2596 77.5747 30.5845C77.3921 31.2707 77.0684 31.7909 76.6035 32.145C76.1442 32.4992 75.5742 32.6763 74.8936 32.6763C74.1299 32.6763 73.5378 32.4964 73.1172 32.1367C72.7021 31.7715 72.4946 31.2568 72.4946 30.5928C72.4946 29.9951 72.7215 29.5026 73.1753 29.1152C73.6346 28.7279 74.2378 28.5342 74.9849 28.5342C76.2687 28.5342 77.4668 28.916 78.5791 29.6797C79.6969 30.4434 80.5796 31.4948 81.2271 32.834C81.8745 34.1676 82.1982 35.612 82.1982 37.167C82.1982 38.639 81.8883 39.7624 81.2686 40.5371C80.6543 41.3118 79.7772 41.6992 78.6372 41.6992C78.0285 41.6992 77.5221 41.5941 77.1182 41.3838C76.7142 41.168 76.3213 40.764 75.9395 40.1719ZM76.4375 29.9951C75.9505 29.8125 75.4497 29.7212 74.9351 29.7212C74.592 29.7212 74.3208 29.8014 74.1216 29.9619C73.9279 30.1169 73.8311 30.3327 73.8311 30.6094C73.8311 30.8805 73.9168 31.0964 74.0884 31.2568C74.2599 31.4118 74.509 31.4893 74.8354 31.4893C75.2948 31.4893 75.6628 31.362 75.9395 31.1074C76.2161 30.8529 76.3822 30.4821 76.4375 29.9951ZM84.8877 36.3867C84.9486 37.2666 85.2585 38.0413 85.8174 38.7109C86.3818 39.3805 87.1953 39.9478 88.2578 40.4126L87.519 41.6992C86.2131 41.0684 85.2225 40.2715 84.5474 39.3086C83.8722 38.3402 83.5347 37.2389 83.5347 36.0049C83.5347 34.7764 83.8529 33.7886 84.4893 33.0415C85.1257 32.2944 85.9419 31.9209 86.938 31.9209C87.7127 31.9209 88.3187 32.1284 88.7559 32.5435C89.1986 32.953 89.4199 33.5036 89.4199 34.1953C89.4199 34.959 89.1543 35.5788 88.623 36.0547C88.0973 36.5251 87.3752 36.7603 86.4565 36.7603C85.881 36.7603 85.3581 36.6357 84.8877 36.3867ZM84.9292 35.1001C85.3498 35.41 85.8146 35.5649 86.3237 35.5649C86.8771 35.5649 87.3005 35.4515 87.5938 35.2246C87.8926 34.9977 88.042 34.674 88.042 34.2534C88.042 33.4953 87.6546 33.1162 86.8799 33.1162C86.415 33.1162 86 33.2961 85.6348 33.6558C85.2751 34.0099 85.0399 34.4914 84.9292 35.1001ZM94.0933 35.1167C94.7463 34.9064 95.2554 34.5854 95.6206 34.1538C95.9858 33.7166 96.1795 33.2158 96.2017 32.6514C95.687 33.1273 95.0479 33.3652 94.2842 33.3652C93.6146 33.3652 93.0667 33.1992 92.6406 32.8672C92.2145 32.5352 92.0015 32.0703 92.0015 31.4727C92.0015 30.8695 92.2256 30.3742 92.6738 29.9868C93.1276 29.5939 93.7197 29.3975 94.4502 29.3975C95.3577 29.3975 96.0854 29.6908 96.6333 30.2773C97.1812 30.8584 97.4551 31.5861 97.4551 32.4604C97.4551 33.5229 97.0954 34.4084 96.376 35.1167H99.082V36.3037L97.4302 36.2788C97.8286 36.5168 98.1385 36.8322 98.3599 37.2251C98.5812 37.6125 98.6919 38.0358 98.6919 38.4951C98.6919 39.5023 98.3488 40.2881 97.6626 40.8525C96.9764 41.417 95.9997 41.6992 94.7324 41.6992C93.5482 41.6992 92.613 41.417 91.9268 40.8525C91.2406 40.2826 90.8975 39.5216 90.8975 38.5698C90.8975 37.6069 91.3014 36.846 92.1094 36.2871L90.5239 36.3037V35.1167H94.0933ZM96.0107 31.5059C95.8613 31.2015 95.6427 30.9663 95.355 30.8003C95.0728 30.6287 94.7601 30.543 94.417 30.543C94.0462 30.543 93.764 30.6204 93.5703 30.7754C93.3822 30.9248 93.2881 31.1296 93.2881 31.3896C93.2881 31.6663 93.3794 31.8766 93.562 32.0205C93.7446 32.1644 93.9771 32.2363 94.2593 32.2363C94.6245 32.2363 94.9455 32.181 95.2222 32.0703C95.4989 31.9596 95.7617 31.7715 96.0107 31.5059ZM94.7905 36.3037C93.9771 36.3037 93.3517 36.4891 92.9146 36.8599C92.4829 37.2306 92.2671 37.737 92.2671 38.3789C92.2671 39.0042 92.4829 39.494 92.9146 39.8481C93.3462 40.1968 93.9715 40.3711 94.7905 40.3711C95.6095 40.3711 96.2349 40.1968 96.6665 39.8481C97.1037 39.494 97.3223 39.0042 97.3223 38.3789C97.3223 37.7259 97.1037 37.2168 96.6665 36.8516C96.2293 36.4863 95.604 36.3037 94.7905 36.3037ZM98.6172 41.2012C99.0986 41.8154 99.4583 42.4961 99.6963 43.2432C99.9398 43.9958 100.062 44.8148 100.062 45.7002C100.062 46.3532 99.9979 46.9481 99.8706 47.4849L98.6919 47.2939C98.8966 46.6188 98.999 46.0018 98.999 45.4429C98.999 45.3377 98.9907 45.1938 98.9741 45.0112C98.6864 45.7085 98.133 46.0571 97.314 46.0571C96.9211 46.0571 96.5807 45.9797 96.293 45.8247C96.0052 45.6753 95.7507 45.429 95.5293 45.0859C95.2692 45.4235 94.9676 45.6698 94.6245 45.8247C94.2814 45.9797 93.8581 46.0571 93.3545 46.0571C92.6738 46.0571 92.1066 45.8607 91.6528 45.4678C91.1991 45.0804 90.9722 44.5768 90.9722 43.957C90.9722 43.4092 91.141 42.9637 91.4785 42.6206C91.8216 42.283 92.2754 42.1143 92.8398 42.1143C93.3047 42.1143 93.6699 42.2222 93.9355 42.438C94.2067 42.6538 94.3423 42.9471 94.3423 43.3179C94.3423 43.6278 94.2814 43.874 94.1597 44.0566L93.1719 43.9736C93.2217 43.8408 93.2466 43.7163 93.2466 43.6001C93.2466 43.4728 93.2078 43.3649 93.1304 43.2764C93.0529 43.1878 92.9256 43.1436 92.7485 43.1436C92.5549 43.1436 92.3971 43.21 92.2754 43.3428C92.1592 43.4756 92.1011 43.672 92.1011 43.9321C92.1011 44.2808 92.2173 44.5381 92.4497 44.7041C92.6877 44.8701 93.0142 44.9531 93.4292 44.9531C93.8885 44.9531 94.2537 44.8397 94.5249 44.6128C94.7961 44.3914 94.9593 44.0649 95.0146 43.6333H96.1353C96.1961 44.5187 96.5946 44.9614 97.3306 44.9614C97.6958 44.9614 97.9725 44.8563 98.1606 44.646C98.3543 44.4357 98.4512 44.1396 98.4512 43.7578C98.4512 43.4313 98.3875 43.1187 98.2603 42.8198C98.1385 42.521 97.9172 42.1945 97.5962 41.8403L98.6172 41.2012ZM106.437 32.6514C105.922 33.1273 105.283 33.3652 104.519 33.3652C103.844 33.3652 103.293 33.1992 102.867 32.8672C102.441 32.5352 102.228 32.0703 102.228 31.4727C102.228 30.8695 102.452 30.3742 102.9 29.9868C103.354 29.5939 103.941 29.3975 104.66 29.3975C105.568 29.3975 106.298 29.6935 106.852 30.2856C107.405 30.8722 107.682 31.6165 107.682 32.5186C107.682 33.4925 107.435 34.2313 106.943 34.7349C106.45 35.2384 105.731 35.4902 104.785 35.4902C103.921 35.4902 103.147 35.3132 102.46 34.959L103.125 33.9214C103.634 34.2036 104.173 34.3447 104.743 34.3447C105.341 34.3447 105.772 34.2119 106.038 33.9463C106.304 33.6807 106.437 33.2822 106.437 32.751V32.6514ZM106.237 31.5059C106.082 31.2015 105.864 30.9663 105.582 30.8003C105.305 30.6287 104.995 30.543 104.652 30.543C104.281 30.543 103.999 30.6204 103.805 30.7754C103.611 30.9248 103.515 31.1296 103.515 31.3896C103.515 31.6663 103.606 31.8766 103.789 32.0205C103.971 32.1644 104.206 32.2363 104.494 32.2363C104.859 32.2363 105.18 32.181 105.457 32.0703C105.734 31.9596 105.994 31.7715 106.237 31.5059ZM102.427 41.2095L101.107 41.7324C100.825 41.3561 100.604 40.93 100.443 40.4541C100.283 39.9727 100.203 39.4967 100.203 39.0264C100.203 38.2516 100.449 37.6069 100.941 37.0923C101.434 36.5721 102.037 36.312 102.751 36.312C103.205 36.312 103.592 36.3784 103.913 36.5112C104.234 36.644 104.519 36.8433 104.768 37.1089C105.023 37.3745 105.305 37.7785 105.615 38.3208C105.958 38.9185 106.235 39.3446 106.445 39.5991C106.655 39.8481 106.882 40.0363 107.125 40.1636C107.375 40.2909 107.671 40.3545 108.014 40.3545C108.539 40.3545 108.946 40.1636 109.234 39.7817C109.527 39.3944 109.674 38.8659 109.674 38.1963C109.674 37.6042 109.555 37.0452 109.317 36.5195C109.084 35.9883 108.73 35.4543 108.254 34.9175L109.4 34.1123C110.512 35.3021 111.068 36.6164 111.068 38.0552C111.068 39.2062 110.789 40.1027 110.23 40.7446C109.677 41.381 108.899 41.6992 107.897 41.6992C107.405 41.6992 106.971 41.6162 106.594 41.4502C106.223 41.2786 105.897 41.0379 105.615 40.728C105.333 40.4126 105.02 39.9616 104.677 39.375C104.389 38.888 104.148 38.5228 103.955 38.2793C103.766 38.0358 103.581 37.8643 103.398 37.7646C103.221 37.665 103.011 37.6152 102.768 37.6152C102.397 37.6152 102.104 37.737 101.888 37.9805C101.677 38.224 101.572 38.5588 101.572 38.9849C101.572 39.6821 101.857 40.4237 102.427 41.2095Z" fill="white"/>
</svg>
