<svg width="184" height="55" viewBox="0 0 184 55" fill="none" xmlns="http://www.w3.org/2000/svg">
<rect x="0.5" y="0.5" width="183" height="54" rx="27" fill="#1F1F1F"/>
<rect x="0.5" y="0.5" width="183" height="54" rx="27" stroke="#747775"/>
<path d="M57 23.791H21V18.1455C21 15.0809 23.6422 12.5001 26.7798 12.5001H51.2202C54.3578 12.5001 57 15.0809 57 18.1455V23.791Z" fill="#34A853"/>
<path d="M57 29H21V23C21 19.7429 23.6422 17 26.7798 17H51.2202C54.3578 17 57 19.7429 57 23V29Z" fill="#FBBC04"/>
<path d="M57 34H21V28C21 24.7429 23.6422 22 26.7798 22H51.2202C54.3578 22 57 24.7429 57 28V34Z" fill="#EA4335"/>
<path d="M21 25.2409L43.8493 30.4025C46.4795 31.0477 49.4384 30.4025 51.5753 28.7895L57 24.9183V37.0157C57 40.0804 54.3699 42.4999 51.2466 42.4999H26.7534C23.6301 42.4999 21 40.0804 21 37.0157V25.2409Z" fill="#4285F4"/>
<path d="M74.46 21.708C73.7927 21.708 73.1643 21.5867 72.575 21.344C71.9857 21.1013 71.4657 20.7633 71.015 20.33C70.573 19.888 70.222 19.3723 69.962 18.783C69.7107 18.185 69.585 17.5393 69.585 16.846C69.585 16.1527 69.7107 15.5113 69.962 14.922C70.222 14.324 70.573 13.8083 71.015 13.375C71.4657 12.933 71.9857 12.5907 72.575 12.348C73.1643 12.1053 73.7927 11.984 74.46 11.984C75.1707 11.984 75.825 12.1097 76.423 12.361C77.0297 12.6123 77.5367 12.9633 77.944 13.414L76.956 14.389C76.7567 14.1637 76.527 13.973 76.267 13.817C76.0157 13.661 75.7383 13.544 75.435 13.466C75.1317 13.3793 74.8067 13.336 74.46 13.336C74.0007 13.336 73.563 13.4183 73.147 13.583C72.731 13.7477 72.3627 13.986 72.042 14.298C71.73 14.6013 71.483 14.9697 71.301 15.403C71.119 15.8277 71.028 16.3087 71.028 16.846C71.028 17.3833 71.119 17.8687 71.301 18.302C71.4917 18.7267 71.743 19.095 72.055 19.407C72.3757 19.7103 72.744 19.9443 73.16 20.109C73.576 20.2737 74.0137 20.356 74.473 20.356C74.8977 20.356 75.292 20.2953 75.656 20.174C76.0287 20.0527 76.3537 19.8793 76.631 19.654C76.9083 19.4287 77.1337 19.1557 77.307 18.835C77.4803 18.5057 77.5887 18.1373 77.632 17.73H74.447V16.469H78.971C78.9883 16.573 79.0057 16.6943 79.023 16.833C79.0403 16.963 79.049 17.0887 79.049 17.21V17.223C79.049 17.8903 78.932 18.5013 78.698 19.056C78.4727 19.6107 78.1563 20.0873 77.749 20.486C77.3417 20.876 76.8563 21.1793 76.293 21.396C75.7383 21.604 75.1273 21.708 74.46 21.708ZM83.2349 21.708C82.5502 21.708 81.9479 21.552 81.4279 21.24C80.9079 20.928 80.5006 20.5077 80.2059 19.979C79.9112 19.4417 79.7639 18.8437 79.7639 18.185C79.7639 17.5263 79.9112 16.9327 80.2059 16.404C80.5006 15.8667 80.9079 15.442 81.4279 15.13C81.9479 14.818 82.5502 14.662 83.2349 14.662C83.9109 14.662 84.5089 14.8223 85.0289 15.143C85.5489 15.455 85.9562 15.8753 86.2509 16.404C86.5456 16.9327 86.6929 17.5263 86.6929 18.185C86.6929 18.8437 86.5456 19.4417 86.2509 19.979C85.9562 20.5077 85.5489 20.928 85.0289 21.24C84.5089 21.552 83.9109 21.708 83.2349 21.708ZM83.2349 20.421C83.5989 20.421 83.9369 20.3343 84.2489 20.161C84.5609 19.979 84.8122 19.7233 85.0029 19.394C85.2022 19.056 85.3019 18.653 85.3019 18.185C85.3019 17.717 85.2022 17.3183 85.0029 16.989C84.8122 16.651 84.5609 16.3953 84.2489 16.222C83.9369 16.04 83.5989 15.949 83.2349 15.949C82.8709 15.949 82.5286 16.04 82.2079 16.222C81.8959 16.3953 81.6402 16.651 81.4409 16.989C81.2502 17.3183 81.1549 17.717 81.1549 18.185C81.1549 18.653 81.2502 19.056 81.4409 19.394C81.6402 19.7233 81.9002 19.979 82.2209 20.161C82.5416 20.3343 82.8796 20.421 83.2349 20.421ZM91.106 21.708C90.4213 21.708 89.819 21.552 89.299 21.24C88.779 20.928 88.3717 20.5077 88.077 19.979C87.7823 19.4417 87.635 18.8437 87.635 18.185C87.635 17.5263 87.7823 16.9327 88.077 16.404C88.3717 15.8667 88.779 15.442 89.299 15.13C89.819 14.818 90.4213 14.662 91.106 14.662C91.782 14.662 92.38 14.8223 92.9 15.143C93.42 15.455 93.8273 15.8753 94.122 16.404C94.4167 16.9327 94.564 17.5263 94.564 18.185C94.564 18.8437 94.4167 19.4417 94.122 19.979C93.8273 20.5077 93.42 20.928 92.9 21.24C92.38 21.552 91.782 21.708 91.106 21.708ZM91.106 20.421C91.47 20.421 91.808 20.3343 92.12 20.161C92.432 19.979 92.6833 19.7233 92.874 19.394C93.0733 19.056 93.173 18.653 93.173 18.185C93.173 17.717 93.0733 17.3183 92.874 16.989C92.6833 16.651 92.432 16.3953 92.12 16.222C91.808 16.04 91.47 15.949 91.106 15.949C90.742 15.949 90.3997 16.04 90.079 16.222C89.767 16.3953 89.5113 16.651 89.312 16.989C89.1213 17.3183 89.026 17.717 89.026 18.185C89.026 18.653 89.1213 19.056 89.312 19.394C89.5113 19.7233 89.7713 19.979 90.092 20.161C90.4127 20.3343 90.7507 20.421 91.106 20.421ZM98.8471 24.516C98.2664 24.516 97.7638 24.4207 97.3391 24.23C96.9231 24.048 96.5851 23.8097 96.3251 23.515C96.0651 23.229 95.8788 22.9343 95.7661 22.631L97.0661 22.085C97.2048 22.4317 97.4258 22.7133 97.7291 22.93C98.0411 23.1553 98.4138 23.268 98.8471 23.268C99.4624 23.268 99.9434 23.086 100.29 22.722C100.637 22.358 100.81 21.8423 100.81 21.175V20.538H100.732C100.524 20.8413 100.238 21.0883 99.8741 21.279C99.5101 21.4697 99.0898 21.565 98.6131 21.565C98.0498 21.565 97.5298 21.422 97.0531 21.136C96.5851 20.85 96.2081 20.4513 95.9221 19.94C95.6448 19.42 95.5061 18.8133 95.5061 18.12C95.5061 17.418 95.6448 16.8113 95.9221 16.3C96.2081 15.78 96.5851 15.377 97.0531 15.091C97.5298 14.805 98.0498 14.662 98.6131 14.662C99.0898 14.662 99.5101 14.7573 99.8741 14.948C100.238 15.13 100.524 15.3813 100.732 15.702H100.81V14.87H102.149V21.149C102.149 21.8683 102.006 22.4793 101.72 22.982C101.443 23.4847 101.057 23.866 100.563 24.126C100.069 24.386 99.4971 24.516 98.8471 24.516ZM98.8601 20.291C99.2068 20.291 99.5274 20.2087 99.8221 20.044C100.125 19.8707 100.364 19.6237 100.537 19.303C100.719 18.9737 100.81 18.5793 100.81 18.12C100.81 17.6347 100.719 17.2317 100.537 16.911C100.364 16.5903 100.125 16.3477 99.8221 16.183C99.5274 16.0183 99.2068 15.936 98.8601 15.936C98.5134 15.936 98.1884 16.0183 97.8851 16.183C97.5904 16.3477 97.3521 16.5947 97.1701 16.924C96.9881 17.2447 96.8971 17.6433 96.8971 18.12C96.8971 18.588 96.9881 18.9867 97.1701 19.316C97.3521 19.6367 97.5904 19.8793 97.8851 20.044C98.1884 20.2087 98.5134 20.291 98.8601 20.291ZM103.805 21.5V12.192H105.209V21.5H103.805ZM109.829 21.708C109.179 21.708 108.599 21.5563 108.087 21.253C107.576 20.9497 107.173 20.5337 106.878 20.005C106.592 19.4763 106.449 18.874 106.449 18.198C106.449 17.5653 106.588 16.9803 106.865 16.443C107.143 15.9057 107.528 15.4767 108.022 15.156C108.525 14.8267 109.101 14.662 109.751 14.662C110.436 14.662 111.017 14.8093 111.493 15.104C111.979 15.3987 112.347 15.8017 112.598 16.313C112.85 16.8243 112.975 17.4007 112.975 18.042C112.975 18.1373 112.971 18.224 112.962 18.302C112.962 18.38 112.958 18.4407 112.949 18.484H107.827C107.862 18.848 107.953 19.1643 108.1 19.433C108.291 19.771 108.542 20.0267 108.854 20.2C109.166 20.3733 109.504 20.46 109.868 20.46C110.31 20.46 110.679 20.3603 110.973 20.161C111.277 19.953 111.515 19.6973 111.688 19.394L112.845 19.953C112.559 20.473 112.169 20.8977 111.675 21.227C111.181 21.5477 110.566 21.708 109.829 21.708ZM107.905 17.431H111.584C111.576 17.2663 111.532 17.093 111.454 16.911C111.376 16.7203 111.264 16.547 111.116 16.391C110.969 16.235 110.783 16.1093 110.557 16.014C110.332 15.91 110.068 15.858 109.764 15.858C109.383 15.858 109.045 15.9577 108.75 16.157C108.456 16.3477 108.226 16.6163 108.061 16.963C107.992 17.1103 107.94 17.2663 107.905 17.431ZM120.289 15.624H121.368V17.717H120.289V15.624ZM125.684 10.762H126.763V17.678H125.684V10.762ZM117.234 15.988L117.104 15.182C119.366 15.182 122.239 15.169 124.748 14.883L124.813 15.585C122.239 15.962 119.431 15.988 117.234 15.988ZM118.885 18.107H126.763V20.551H119.964V21.877H118.911V19.836H125.697V18.887H118.885V18.107ZM118.911 21.604H127.153V22.384H118.911V21.604ZM123.344 16.352H126.022V17.054H123.344V16.352ZM120.9 10.983C122.642 10.983 123.786 11.659 123.786 12.751C123.786 13.843 122.642 14.519 120.9 14.519C119.145 14.519 118.001 13.843 118.001 12.751C118.001 11.659 119.145 10.983 120.9 10.983ZM120.9 11.737C119.743 11.737 119.002 12.127 119.002 12.751C119.002 13.375 119.743 13.765 120.9 13.765C122.031 13.765 122.772 13.375 122.772 12.751C122.772 12.127 122.031 11.737 120.9 11.737ZM129.635 16.703H130.389C132.027 16.703 133.236 16.651 134.666 16.365L134.783 17.236C133.301 17.509 132.066 17.574 130.389 17.574H129.635V16.703ZM129.609 11.672H133.769V14.974H130.675V17.288H129.635V14.155H132.729V12.543H129.609V11.672ZM134.224 13.791H136.382V14.675H134.224V13.791ZM137.968 10.762H138.995V18.809H137.968V10.762ZM135.667 11.009H136.681V17.847H135.667V11.009ZM134.562 18.25H135.472V18.549C135.472 20.616 133.353 22.072 131 22.475L130.571 21.63C132.638 21.318 134.562 20.07 134.562 18.549V18.25ZM134.705 18.25H135.628V18.549C135.628 20.07 137.552 21.318 139.619 21.63L139.19 22.475C136.837 22.072 134.705 20.616 134.705 18.549V18.25ZM145.819 15.325H148.042V16.222H145.819V15.325ZM150.005 10.762H151.045V22.514H150.005V10.762ZM147.678 11.009H148.705V21.929H147.678V11.009ZM143.7 11.737C145.221 11.737 146.209 13.31 146.209 15.832C146.209 18.354 145.221 19.927 143.7 19.927C142.179 19.927 141.204 18.354 141.204 15.832C141.204 13.31 142.179 11.737 143.7 11.737ZM143.7 12.738C142.777 12.738 142.192 13.934 142.192 15.832C142.192 17.73 142.777 18.926 143.7 18.926C144.636 18.926 145.221 17.73 145.221 15.832C145.221 13.934 144.636 12.738 143.7 12.738ZM158.883 14.74H162.159V15.624H158.883V14.74ZM156.049 11.776H156.933V13.869C156.933 16.508 155.542 19.03 153.683 20.031L152.994 19.173C154.723 18.315 156.049 16.053 156.049 13.869V11.776ZM156.257 11.776H157.128V13.869C157.128 16.014 158.454 18.146 160.157 18.952L159.52 19.823C157.622 18.861 156.257 16.443 156.257 13.869V11.776ZM161.626 10.749H162.692V22.527H161.626V10.749Z" fill="white"/>
<path d="M69.85 39.698H83.773V40.871H69.85V39.698ZM76.072 36.026H77.483V40.038H76.072V36.026ZM71.482 28.546H72.876V31.283H80.713V28.546H82.107V36.4H71.482V28.546ZM72.876 32.422V35.244H80.713V32.422H72.876ZM96.6747 27.458H98.0857V42.826H96.6747V27.458ZM92.1697 29.107H93.5637C93.5637 33.561 91.5577 37.454 86.4237 39.97L85.6757 38.831C90.1127 36.689 92.1697 33.425 92.1697 29.345V29.107ZM86.3727 29.107H92.7817V30.263H86.3727V29.107Z" fill="white"/>
</svg>
