<svg width="195" height="55" viewBox="0 0 195 55" fill="none" xmlns="http://www.w3.org/2000/svg">
<rect x="0.5" y="0.5" width="194" height="54" rx="27" fill="#1F1F1F"/>
<rect x="0.5" y="0.5" width="194" height="54" rx="27" stroke="#747775"/>
<path d="M57 23.791H21V18.1455C21 15.0809 23.6422 12.5001 26.7798 12.5001H51.2202C54.3578 12.5001 57 15.0809 57 18.1455V23.791Z" fill="#34A853"/>
<path d="M57 29H21V23C21 19.7429 23.6422 17 26.7798 17H51.2202C54.3578 17 57 19.7429 57 23V29Z" fill="#FBBC04"/>
<path d="M57 34H21V28C21 24.7429 23.6422 22 26.7798 22H51.2202C54.3578 22 57 24.7429 57 28V34Z" fill="#EA4335"/>
<path d="M21 25.2409L43.8493 30.4025C46.4795 31.0477 49.4384 30.4025 51.5753 28.7895L57 24.9183V37.0157C57 40.0804 54.3699 42.4999 51.2466 42.4999H26.7534C23.6301 42.4999 21 40.0804 21 37.0157V25.2409Z" fill="#4285F4"/>
<path d="M74.46 21.708C73.7927 21.708 73.1643 21.5867 72.575 21.344C71.9857 21.1013 71.4657 20.7633 71.015 20.33C70.573 19.888 70.222 19.3723 69.962 18.783C69.7107 18.185 69.585 17.5393 69.585 16.846C69.585 16.1527 69.7107 15.5113 69.962 14.922C70.222 14.324 70.573 13.8083 71.015 13.375C71.4657 12.933 71.9857 12.5907 72.575 12.348C73.1643 12.1053 73.7927 11.984 74.46 11.984C75.1707 11.984 75.825 12.1097 76.423 12.361C77.0297 12.6123 77.5367 12.9633 77.944 13.414L76.956 14.389C76.7567 14.1637 76.527 13.973 76.267 13.817C76.0157 13.661 75.7383 13.544 75.435 13.466C75.1317 13.3793 74.8067 13.336 74.46 13.336C74.0007 13.336 73.563 13.4183 73.147 13.583C72.731 13.7477 72.3627 13.986 72.042 14.298C71.73 14.6013 71.483 14.9697 71.301 15.403C71.119 15.8277 71.028 16.3087 71.028 16.846C71.028 17.3833 71.119 17.8687 71.301 18.302C71.4917 18.7267 71.743 19.095 72.055 19.407C72.3757 19.7103 72.744 19.9443 73.16 20.109C73.576 20.2737 74.0137 20.356 74.473 20.356C74.8977 20.356 75.292 20.2953 75.656 20.174C76.0287 20.0527 76.3537 19.8793 76.631 19.654C76.9083 19.4287 77.1337 19.1557 77.307 18.835C77.4803 18.5057 77.5887 18.1373 77.632 17.73H74.447V16.469H78.971C78.9883 16.573 79.0057 16.6943 79.023 16.833C79.0403 16.963 79.049 17.0887 79.049 17.21V17.223C79.049 17.8903 78.932 18.5013 78.698 19.056C78.4727 19.6107 78.1563 20.0873 77.749 20.486C77.3417 20.876 76.8563 21.1793 76.293 21.396C75.7383 21.604 75.1273 21.708 74.46 21.708ZM83.2349 21.708C82.5502 21.708 81.9479 21.552 81.4279 21.24C80.9079 20.928 80.5006 20.5077 80.2059 19.979C79.9112 19.4417 79.7639 18.8437 79.7639 18.185C79.7639 17.5263 79.9112 16.9327 80.2059 16.404C80.5006 15.8667 80.9079 15.442 81.4279 15.13C81.9479 14.818 82.5502 14.662 83.2349 14.662C83.9109 14.662 84.5089 14.8223 85.0289 15.143C85.5489 15.455 85.9562 15.8753 86.2509 16.404C86.5456 16.9327 86.6929 17.5263 86.6929 18.185C86.6929 18.8437 86.5456 19.4417 86.2509 19.979C85.9562 20.5077 85.5489 20.928 85.0289 21.24C84.5089 21.552 83.9109 21.708 83.2349 21.708ZM83.2349 20.421C83.5989 20.421 83.9369 20.3343 84.2489 20.161C84.5609 19.979 84.8122 19.7233 85.0029 19.394C85.2022 19.056 85.3019 18.653 85.3019 18.185C85.3019 17.717 85.2022 17.3183 85.0029 16.989C84.8122 16.651 84.5609 16.3953 84.2489 16.222C83.9369 16.04 83.5989 15.949 83.2349 15.949C82.8709 15.949 82.5286 16.04 82.2079 16.222C81.8959 16.3953 81.6402 16.651 81.4409 16.989C81.2502 17.3183 81.1549 17.717 81.1549 18.185C81.1549 18.653 81.2502 19.056 81.4409 19.394C81.6402 19.7233 81.9002 19.979 82.2209 20.161C82.5416 20.3343 82.8796 20.421 83.2349 20.421ZM91.106 21.708C90.4213 21.708 89.819 21.552 89.299 21.24C88.779 20.928 88.3717 20.5077 88.077 19.979C87.7823 19.4417 87.635 18.8437 87.635 18.185C87.635 17.5263 87.7823 16.9327 88.077 16.404C88.3717 15.8667 88.779 15.442 89.299 15.13C89.819 14.818 90.4213 14.662 91.106 14.662C91.782 14.662 92.38 14.8223 92.9 15.143C93.42 15.455 93.8273 15.8753 94.122 16.404C94.4167 16.9327 94.564 17.5263 94.564 18.185C94.564 18.8437 94.4167 19.4417 94.122 19.979C93.8273 20.5077 93.42 20.928 92.9 21.24C92.38 21.552 91.782 21.708 91.106 21.708ZM91.106 20.421C91.47 20.421 91.808 20.3343 92.12 20.161C92.432 19.979 92.6833 19.7233 92.874 19.394C93.0733 19.056 93.173 18.653 93.173 18.185C93.173 17.717 93.0733 17.3183 92.874 16.989C92.6833 16.651 92.432 16.3953 92.12 16.222C91.808 16.04 91.47 15.949 91.106 15.949C90.742 15.949 90.3997 16.04 90.079 16.222C89.767 16.3953 89.5113 16.651 89.312 16.989C89.1213 17.3183 89.026 17.717 89.026 18.185C89.026 18.653 89.1213 19.056 89.312 19.394C89.5113 19.7233 89.7713 19.979 90.092 20.161C90.4127 20.3343 90.7507 20.421 91.106 20.421ZM98.8471 24.516C98.2664 24.516 97.7638 24.4207 97.3391 24.23C96.9231 24.048 96.5851 23.8097 96.3251 23.515C96.0651 23.229 95.8788 22.9343 95.7661 22.631L97.0661 22.085C97.2048 22.4317 97.4258 22.7133 97.7291 22.93C98.0411 23.1553 98.4138 23.268 98.8471 23.268C99.4624 23.268 99.9434 23.086 100.29 22.722C100.637 22.358 100.81 21.8423 100.81 21.175V20.538H100.732C100.524 20.8413 100.238 21.0883 99.8741 21.279C99.5101 21.4697 99.0898 21.565 98.6131 21.565C98.0498 21.565 97.5298 21.422 97.0531 21.136C96.5851 20.85 96.2081 20.4513 95.9221 19.94C95.6448 19.42 95.5061 18.8133 95.5061 18.12C95.5061 17.418 95.6448 16.8113 95.9221 16.3C96.2081 15.78 96.5851 15.377 97.0531 15.091C97.5298 14.805 98.0498 14.662 98.6131 14.662C99.0898 14.662 99.5101 14.7573 99.8741 14.948C100.238 15.13 100.524 15.3813 100.732 15.702H100.81V14.87H102.149V21.149C102.149 21.8683 102.006 22.4793 101.72 22.982C101.443 23.4847 101.057 23.866 100.563 24.126C100.069 24.386 99.4971 24.516 98.8471 24.516ZM98.8601 20.291C99.2068 20.291 99.5274 20.2087 99.8221 20.044C100.125 19.8707 100.364 19.6237 100.537 19.303C100.719 18.9737 100.81 18.5793 100.81 18.12C100.81 17.6347 100.719 17.2317 100.537 16.911C100.364 16.5903 100.125 16.3477 99.8221 16.183C99.5274 16.0183 99.2068 15.936 98.8601 15.936C98.5134 15.936 98.1884 16.0183 97.8851 16.183C97.5904 16.3477 97.3521 16.5947 97.1701 16.924C96.9881 17.2447 96.8971 17.6433 96.8971 18.12C96.8971 18.588 96.9881 18.9867 97.1701 19.316C97.3521 19.6367 97.5904 19.8793 97.8851 20.044C98.1884 20.2087 98.5134 20.291 98.8601 20.291ZM103.805 21.5V12.192H105.209V21.5H103.805ZM109.829 21.708C109.179 21.708 108.599 21.5563 108.087 21.253C107.576 20.9497 107.173 20.5337 106.878 20.005C106.592 19.4763 106.449 18.874 106.449 18.198C106.449 17.5653 106.588 16.9803 106.865 16.443C107.143 15.9057 107.528 15.4767 108.022 15.156C108.525 14.8267 109.101 14.662 109.751 14.662C110.436 14.662 111.017 14.8093 111.493 15.104C111.979 15.3987 112.347 15.8017 112.598 16.313C112.85 16.8243 112.975 17.4007 112.975 18.042C112.975 18.1373 112.971 18.224 112.962 18.302C112.962 18.38 112.958 18.4407 112.949 18.484H107.827C107.862 18.848 107.953 19.1643 108.1 19.433C108.291 19.771 108.542 20.0267 108.854 20.2C109.166 20.3733 109.504 20.46 109.868 20.46C110.31 20.46 110.679 20.3603 110.973 20.161C111.277 19.953 111.515 19.6973 111.688 19.394L112.845 19.953C112.559 20.473 112.169 20.8977 111.675 21.227C111.181 21.5477 110.566 21.708 109.829 21.708ZM107.905 17.431H111.584C111.576 17.2663 111.532 17.093 111.454 16.911C111.376 16.7203 111.264 16.547 111.116 16.391C110.969 16.235 110.783 16.1093 110.557 16.014C110.332 15.91 110.068 15.858 109.764 15.858C109.383 15.858 109.045 15.9577 108.75 16.157C108.456 16.3477 108.226 16.6163 108.061 16.963C107.992 17.1103 107.94 17.2663 107.905 17.431ZM117.546 21.5V12.192H118.976V16.703H119.054L122.759 12.192H124.553V12.27L120.627 16.924L124.761 21.422V21.5H122.889L119.054 17.236H118.976V21.5H117.546ZM127.644 21.708C127.167 21.708 126.743 21.6127 126.37 21.422C126.006 21.2313 125.716 20.9713 125.499 20.642C125.291 20.304 125.187 19.9183 125.187 19.485C125.187 19.0083 125.308 18.6053 125.551 18.276C125.802 17.9467 126.136 17.6953 126.552 17.522C126.968 17.3487 127.427 17.262 127.93 17.262C128.207 17.262 128.463 17.2837 128.697 17.327C128.94 17.3617 129.148 17.405 129.321 17.457C129.503 17.509 129.646 17.5653 129.75 17.626V17.275C129.75 16.8417 129.594 16.495 129.282 16.235C128.97 15.975 128.567 15.845 128.073 15.845C127.735 15.845 127.414 15.923 127.111 16.079C126.808 16.2263 126.565 16.43 126.383 16.69L125.421 15.949C125.612 15.6803 125.841 15.4507 126.11 15.26C126.387 15.0693 126.695 14.922 127.033 14.818C127.38 14.714 127.739 14.662 128.112 14.662C129.074 14.662 129.815 14.9003 130.335 15.377C130.855 15.845 131.115 16.5037 131.115 17.353V21.5H129.75V20.681H129.672C129.559 20.8543 129.403 21.019 129.204 21.175C129.013 21.331 128.784 21.4567 128.515 21.552C128.255 21.656 127.965 21.708 127.644 21.708ZM127.891 20.564C128.255 20.564 128.576 20.4773 128.853 20.304C129.139 20.1307 129.36 19.9053 129.516 19.628C129.672 19.342 129.75 19.0343 129.75 18.705C129.559 18.5923 129.325 18.5013 129.048 18.432C128.779 18.354 128.493 18.315 128.19 18.315C127.618 18.315 127.211 18.4277 126.968 18.653C126.725 18.8783 126.604 19.16 126.604 19.498C126.604 19.81 126.721 20.0657 126.955 20.265C127.189 20.4643 127.501 20.564 127.891 20.564ZM132.661 21.5V14.87H138.485V21.5H137.081V16.092H134.065V21.5H132.661ZM143.935 21.5V19.108C143.753 19.238 143.523 19.342 143.246 19.42C142.968 19.4893 142.665 19.524 142.336 19.524C141.573 19.524 140.962 19.303 140.503 18.861C140.052 18.419 139.827 17.821 139.827 17.067V14.87H141.231V16.924C141.231 17.34 141.348 17.6693 141.582 17.912C141.824 18.146 142.162 18.263 142.596 18.263C142.856 18.263 143.107 18.224 143.35 18.146C143.601 18.0593 143.796 17.9467 143.935 17.808V14.87H145.326V21.5H143.935ZM148.385 14.87V17.08H149.646C150.097 17.08 150.5 17.1753 150.855 17.366C151.219 17.5567 151.505 17.821 151.713 18.159C151.921 18.4883 152.025 18.8653 152.025 19.29C152.025 19.706 151.921 20.083 151.713 20.421C151.505 20.759 151.223 21.0233 150.868 21.214C150.513 21.4047 150.105 21.5 149.646 21.5H146.981V14.87H148.385ZM152.948 21.5V14.87H154.352V21.5H152.948ZM148.385 18.237V20.33H149.529C149.841 20.33 150.101 20.2303 150.309 20.031C150.517 19.8317 150.621 19.5847 150.621 19.29C150.621 18.9953 150.517 18.7483 150.309 18.549C150.101 18.341 149.841 18.237 149.529 18.237H148.385ZM155.995 21.5V14.87H157.399V17.808H157.477L160.077 14.87H161.689V14.948L158.92 17.977L161.793 21.422V21.5H160.129L157.477 18.237H157.399V21.5H155.995ZM164.35 21.5V16.092H162.166V14.87H167.925V16.092H165.741V21.5H164.35ZM171.151 21.708C170.674 21.708 170.25 21.6127 169.877 21.422C169.513 21.2313 169.223 20.9713 169.006 20.642C168.798 20.304 168.694 19.9183 168.694 19.485C168.694 19.0083 168.815 18.6053 169.058 18.276C169.309 17.9467 169.643 17.6953 170.059 17.522C170.475 17.3487 170.934 17.262 171.437 17.262C171.714 17.262 171.97 17.2837 172.204 17.327C172.447 17.3617 172.655 17.405 172.828 17.457C173.01 17.509 173.153 17.5653 173.257 17.626V17.275C173.257 16.8417 173.101 16.495 172.789 16.235C172.477 15.975 172.074 15.845 171.58 15.845C171.242 15.845 170.921 15.923 170.618 16.079C170.315 16.2263 170.072 16.43 169.89 16.69L168.928 15.949C169.119 15.6803 169.348 15.4507 169.617 15.26C169.894 15.0693 170.202 14.922 170.54 14.818C170.887 14.714 171.246 14.662 171.619 14.662C172.581 14.662 173.322 14.9003 173.842 15.377C174.362 15.845 174.622 16.5037 174.622 17.353V21.5H173.257V20.681H173.179C173.066 20.8543 172.91 21.019 172.711 21.175C172.52 21.331 172.291 21.4567 172.022 21.552C171.762 21.656 171.472 21.708 171.151 21.708ZM171.398 20.564C171.762 20.564 172.083 20.4773 172.36 20.304C172.646 20.1307 172.867 19.9053 173.023 19.628C173.179 19.342 173.257 19.0343 173.257 18.705C173.066 18.5923 172.832 18.5013 172.555 18.432C172.286 18.354 172 18.315 171.697 18.315C171.125 18.315 170.718 18.4277 170.475 18.653C170.232 18.8783 170.111 19.16 170.111 19.498C170.111 19.81 170.228 20.0657 170.462 20.265C170.696 20.4643 171.008 20.564 171.398 20.564Z" fill="white"/>
<path d="M70.071 41.5V32.83H71.907V36.672H72.009L75.409 32.83H77.517V32.932L73.896 36.893L77.653 41.398V41.5H75.477L72.009 37.233H71.907V41.5H70.071ZM82.7008 41.772C81.8055 41.772 81.0178 41.568 80.3378 41.16C79.6578 40.752 79.1251 40.2023 78.7398 39.511C78.3545 38.8083 78.1618 38.0263 78.1618 37.165C78.1618 36.3037 78.3545 35.5273 78.7398 34.836C79.1251 34.1333 79.6578 33.578 80.3378 33.17C81.0178 32.762 81.7998 32.558 82.6838 32.558C83.5791 32.558 84.3668 32.7677 85.0468 33.187C85.7268 33.595 86.2595 34.1447 86.6448 34.836C87.0301 35.5273 87.2228 36.3037 87.2228 37.165C87.2228 38.0263 87.0301 38.8083 86.6448 39.511C86.2595 40.2023 85.7268 40.752 85.0468 41.16C84.3668 41.568 83.5848 41.772 82.7008 41.772ZM82.7008 40.14C83.1768 40.14 83.6245 40.0267 84.0438 39.8C84.4631 39.562 84.8031 39.222 85.0638 38.78C85.2225 38.508 85.3358 38.202 85.4038 37.862H79.9808C80.0488 38.202 80.1621 38.5023 80.3208 38.763C80.5701 39.2163 80.9045 39.562 81.3238 39.8C81.7545 40.0267 82.2135 40.14 82.7008 40.14ZM85.3868 36.417C85.3188 36.0997 85.2111 35.8163 85.0638 35.567C84.8145 35.125 84.4801 34.785 84.0608 34.547C83.6415 34.309 83.1881 34.19 82.7008 34.19C82.2135 34.19 81.7545 34.309 81.3238 34.547C80.9045 34.785 80.5701 35.125 80.3208 35.567C80.1735 35.8163 80.0658 36.0997 79.9978 36.417H85.3868ZM88.8138 45.172V32.83H90.5308V34.003H90.6328C90.7914 33.7537 91.0011 33.5213 91.2618 33.306C91.5338 33.0793 91.8511 32.898 92.2138 32.762C92.5764 32.626 92.9788 32.558 93.4208 32.558C94.2141 32.558 94.9224 32.7563 95.5458 33.153C96.1691 33.5497 96.6621 34.0937 97.0248 34.785C97.3988 35.4763 97.5858 36.2697 97.5858 37.165C97.5858 38.0603 97.3988 38.8537 97.0248 39.545C96.6621 40.2363 96.1691 40.7803 95.5458 41.177C94.9224 41.5737 94.2141 41.772 93.4208 41.772C92.7634 41.772 92.1911 41.6247 91.7038 41.33C91.2164 41.0353 90.8594 40.7067 90.6328 40.344H90.5308L90.6328 41.551V45.172H88.8138ZM93.1488 40.089C93.6021 40.089 94.0271 39.97 94.4238 39.732C94.8318 39.494 95.1548 39.154 95.3928 38.712C95.6421 38.27 95.7668 37.7543 95.7668 37.165C95.7668 36.5643 95.6421 36.0487 95.3928 35.618C95.1548 35.176 94.8318 34.836 94.4238 34.598C94.0271 34.36 93.6021 34.241 93.1488 34.241C92.6954 34.241 92.2704 34.36 91.8738 34.598C91.4771 34.836 91.1541 35.176 90.9048 35.618C90.6554 36.0487 90.5308 36.5643 90.5308 37.165C90.5308 37.7657 90.6554 38.287 90.9048 38.729C91.1541 39.1597 91.4771 39.494 91.8738 39.732C92.2704 39.97 92.6954 40.089 93.1488 40.089ZM101.624 45.172V41.5L98.1219 32.83H100.145L102.559 39.307H102.576L105.024 32.83H107.013L103.46 41.5V45.172H101.624ZM110.755 45.172V41.5L107.253 32.83H109.276L111.69 39.307H111.707L114.155 32.83H116.144L112.591 41.5V45.172H110.755Z" fill="white"/>
</svg>
