<svg width="199" height="55" viewBox="0 0 199 55" fill="none" xmlns="http://www.w3.org/2000/svg">
<rect x="0.5" y="0.5" width="198" height="54" rx="27" fill="#1F1F1F"/>
<rect x="0.5" y="0.5" width="198" height="54" rx="27" stroke="#747775"/>
<path d="M57 23.791H21V18.1455C21 15.0809 23.6422 12.5001 26.7798 12.5001H51.2202C54.3578 12.5001 57 15.0809 57 18.1455V23.791Z" fill="#34A853"/>
<path d="M57 29H21V23C21 19.7429 23.6422 17 26.7798 17H51.2202C54.3578 17 57 19.7429 57 23V29Z" fill="#FBBC04"/>
<path d="M57 34H21V28C21 24.7429 23.6422 22 26.7798 22H51.2202C54.3578 22 57 24.7429 57 28V34Z" fill="#EA4335"/>
<path d="M21 25.2409L43.8493 30.4025C46.4795 31.0477 49.4384 30.4025 51.5753 28.7895L57 24.9183V37.0157C57 40.0804 54.3699 42.4999 51.2466 42.4999H26.7534C23.6301 42.4999 21 40.0804 21 37.0157V25.2409Z" fill="#4285F4"/>
<path d="M71.444 21.656C71.0193 21.656 70.6683 21.5173 70.391 21.24C70.1137 20.9627 69.975 20.6073 69.975 20.174V14.48H71.353V18.965C71.431 18.9563 71.509 18.952 71.587 18.952C71.977 18.952 72.2933 19.0777 72.536 19.329C72.7873 19.5803 72.913 19.901 72.913 20.291C72.913 20.6897 72.7743 21.019 72.497 21.279C72.2197 21.5303 71.8687 21.656 71.444 21.656ZM71.483 20.824C71.6477 20.824 71.7777 20.772 71.873 20.668C71.977 20.564 72.029 20.434 72.029 20.278C72.029 20.122 71.977 19.992 71.873 19.888C71.7777 19.784 71.6477 19.732 71.483 19.732C71.327 19.732 71.197 19.784 71.093 19.888C70.989 19.992 70.937 20.122 70.937 20.278C70.937 20.434 70.989 20.564 71.093 20.668C71.197 20.772 71.327 20.824 71.483 20.824ZM77.4747 21.708C76.894 21.708 76.387 21.6127 75.9537 21.422C75.529 21.2227 75.1953 20.9453 74.9527 20.59C74.7187 20.226 74.6017 19.8013 74.6017 19.316V17.028C74.5237 17.0367 74.45 17.041 74.3807 17.041C73.9993 17.041 73.683 16.9153 73.4317 16.664C73.1803 16.4127 73.0547 16.092 73.0547 15.702C73.0547 15.3033 73.1933 14.9783 73.4707 14.727C73.748 14.467 74.099 14.337 74.5237 14.337C74.9397 14.337 75.282 14.4757 75.5507 14.753C75.828 15.0303 75.9667 15.3857 75.9667 15.819V19.303C75.9667 19.6843 76.1053 19.992 76.3827 20.226C76.66 20.4513 77.024 20.564 77.4747 20.564C77.9253 20.564 78.285 20.447 78.5537 20.213C78.831 19.9703 78.9697 19.654 78.9697 19.264V14.48H80.3477V19.251C80.3477 19.745 80.2263 20.1783 79.9837 20.551C79.7497 20.915 79.416 21.201 78.9827 21.409C78.558 21.6083 78.0553 21.708 77.4747 21.708ZM74.4847 16.261C74.6407 16.261 74.7707 16.209 74.8747 16.105C74.9787 16.001 75.0307 15.871 75.0307 15.715C75.0307 15.5503 74.9787 15.4203 74.8747 15.325C74.7707 15.221 74.6407 15.169 74.4847 15.169C74.3287 15.169 74.1987 15.221 74.0947 15.325C73.9907 15.4203 73.9387 15.5503 73.9387 15.715C73.9387 15.871 73.9907 16.001 74.0947 16.105C74.1987 16.209 74.3287 16.261 74.4847 16.261ZM74.7577 13.492C74.6277 13.3707 74.528 13.2277 74.4587 13.063C74.3893 12.8897 74.3547 12.725 74.3547 12.569C74.3547 12.101 74.619 11.7327 75.1477 11.464C75.6677 11.1867 76.374 11.048 77.2667 11.048C78.1593 11.048 78.87 11.1867 79.3987 11.464C79.9187 11.7327 80.1787 12.101 80.1787 12.569C80.1787 12.725 80.144 12.8897 80.0747 13.063C80.0053 13.2277 79.9057 13.3707 79.7757 13.492H78.7877C78.8397 13.3707 78.883 13.2537 78.9177 13.141C78.9437 13.0283 78.9567 12.933 78.9567 12.855C78.9567 12.5777 78.805 12.3567 78.5017 12.192C78.1897 12.0187 77.778 11.932 77.2667 11.932C76.7553 11.932 76.348 12.0187 76.0447 12.192C75.7413 12.3567 75.5897 12.5777 75.5897 12.855C75.5897 12.933 75.607 13.0283 75.6417 13.141C75.6677 13.2537 75.7023 13.3707 75.7457 13.492H74.7577ZM76.7857 10.593L76.6557 8.617H77.8777L77.7477 10.593H76.7857ZM84.4381 24.438C83.7101 24.438 83.0904 24.2473 82.5791 23.866C82.0764 23.4847 81.7298 22.9517 81.5391 22.267L82.6701 21.812C82.8261 22.306 83.0558 22.6787 83.3591 22.93C83.6624 23.19 84.0221 23.32 84.4381 23.32C84.9494 23.32 85.3438 23.1813 85.6211 22.904C85.8984 22.6267 86.0371 22.228 86.0371 21.708V17.041C86.0371 16.5037 85.8941 16.092 85.6081 15.806C85.3221 15.5113 84.9191 15.364 84.3991 15.364C84.1478 15.364 83.9181 15.403 83.7101 15.481C83.6494 15.4983 83.5931 15.52 83.5411 15.546C83.6971 15.6153 83.8314 15.7107 83.9441 15.832C84.1434 16.0573 84.2431 16.3173 84.2431 16.612C84.2431 16.976 84.1174 17.275 83.8661 17.509C83.6148 17.743 83.2941 17.86 82.9041 17.86C82.4968 17.86 82.1631 17.73 81.9031 17.47C81.6518 17.21 81.5261 16.8763 81.5261 16.469C81.5261 15.793 81.7904 15.26 82.3191 14.87C82.8564 14.4713 83.5758 14.272 84.4771 14.272C85.4218 14.272 86.1454 14.5147 86.6481 15C87.1508 15.4767 87.4021 16.17 87.4021 17.08V21.5C87.4021 22.4447 87.1464 23.1683 86.6351 23.671C86.1238 24.1823 85.3914 24.438 84.4381 24.438ZM82.9041 17.119C83.0514 17.119 83.1728 17.0713 83.2681 16.976C83.3721 16.8807 83.4241 16.7593 83.4241 16.612C83.4241 16.456 83.3721 16.3303 83.2681 16.235C83.1728 16.1397 83.0514 16.092 82.9041 16.092C82.7568 16.092 82.6311 16.1397 82.5271 16.235C82.4318 16.3303 82.3841 16.456 82.3841 16.612C82.3841 16.7593 82.4318 16.8807 82.5271 16.976C82.6311 17.0713 82.7568 17.119 82.9041 17.119ZM91.3664 21.656C90.9417 21.656 90.5907 21.5173 90.3134 21.24C90.0361 20.9627 89.8974 20.6073 89.8974 20.174V14.909C89.8974 14.5623 89.9754 14.2287 90.1314 13.908C90.2874 13.5787 90.5041 13.2277 90.7814 12.855C91.0067 12.543 91.1757 12.2743 91.2884 12.049C91.4097 11.815 91.4704 11.594 91.4704 11.386C91.4704 11.0653 91.3577 10.8053 91.1324 10.606C90.9071 10.398 90.6167 10.294 90.2614 10.294C90.1574 10.294 90.0404 10.3113 89.9104 10.346C89.8584 10.3547 89.8151 10.3677 89.7804 10.385C90.0057 10.4543 90.1964 10.5843 90.3524 10.775C90.5344 11.0003 90.6254 11.2603 90.6254 11.555C90.6254 11.9363 90.4954 12.2527 90.2354 12.504C89.9754 12.7467 89.6417 12.868 89.2344 12.868C88.8184 12.868 88.4717 12.7293 88.1944 12.452C87.9171 12.166 87.7784 11.8063 87.7784 11.373C87.7784 10.957 87.8824 10.593 88.0904 10.281C88.2984 9.96033 88.5887 9.71333 88.9614 9.54C89.3427 9.36667 89.7761 9.28 90.2614 9.28C90.7381 9.28 91.1584 9.371 91.5224 9.553C91.8951 9.72633 92.1854 9.97333 92.3934 10.294C92.6101 10.606 92.7184 10.97 92.7184 11.386C92.7184 11.6893 92.6534 11.9753 92.5234 12.244C92.4021 12.5127 92.2244 12.8203 91.9904 13.167C91.8431 13.3837 91.7174 13.5873 91.6134 13.778C91.5094 13.9687 91.4271 14.155 91.3664 14.337C91.3057 14.519 91.2754 14.714 91.2754 14.922V18.965C91.3534 18.9563 91.4314 18.952 91.5094 18.952C91.8994 18.952 92.2157 19.0777 92.4584 19.329C92.7097 19.5803 92.8354 19.901 92.8354 20.291C92.8354 20.6897 92.6967 21.019 92.4194 21.279C92.1507 21.5303 91.7997 21.656 91.3664 21.656ZM89.2474 12.14C89.4121 12.14 89.5464 12.088 89.6504 11.984C89.7631 11.8713 89.8194 11.7327 89.8194 11.568C89.8194 11.4033 89.7631 11.269 89.6504 11.165C89.5464 11.0523 89.4077 10.996 89.2344 10.996C89.0697 10.996 88.9311 11.0523 88.8184 11.165C88.7144 11.269 88.6624 11.4033 88.6624 11.568C88.6624 11.7327 88.7187 11.8713 88.8314 11.984C88.9441 12.088 89.0827 12.14 89.2474 12.14ZM91.4054 20.824C91.5701 20.824 91.7001 20.772 91.7954 20.668C91.8994 20.564 91.9514 20.434 91.9514 20.278C91.9514 20.122 91.8994 19.992 91.7954 19.888C91.7001 19.784 91.5701 19.732 91.4054 19.732C91.2494 19.732 91.1194 19.784 91.0154 19.888C90.9114 19.992 90.8594 20.122 90.8594 20.278C90.8594 20.434 90.9114 20.564 91.0154 20.668C91.1194 20.772 91.2494 20.824 91.4054 20.824ZM98.0638 21.708C97.5958 21.708 97.1712 21.6127 96.7898 21.422C96.5298 21.2833 96.3002 21.1013 96.1008 20.876C95.9622 21.1013 95.7845 21.279 95.5678 21.409C95.3165 21.5737 95.0392 21.656 94.7358 21.656C94.5018 21.656 94.2982 21.6387 94.1248 21.604C93.9602 21.5693 93.8085 21.5217 93.6698 21.461V20.343C93.8865 20.4383 94.0902 20.486 94.2808 20.486C94.5495 20.486 94.7445 20.4037 94.8658 20.239C94.9872 20.0657 95.0478 19.81 95.0478 19.472V17.028C94.9698 17.0367 94.8962 17.041 94.8268 17.041C94.4455 17.041 94.1292 16.9153 93.8778 16.664C93.6265 16.4127 93.5008 16.092 93.5008 15.702C93.5008 15.3033 93.6395 14.9783 93.9168 14.727C94.1942 14.467 94.5452 14.337 94.9698 14.337C95.3858 14.337 95.7325 14.4757 96.0098 14.753C96.2872 15.0303 96.4258 15.3857 96.4258 15.819V19.199C96.4258 19.6323 96.5558 19.9747 96.8158 20.226C97.0758 20.4687 97.4312 20.59 97.8818 20.59C98.2718 20.59 98.5752 20.473 98.7918 20.239C99.0085 20.005 99.1168 19.6713 99.1168 19.238V14.48H100.495V19.251C100.495 19.797 100.391 20.252 100.183 20.616C99.9748 20.98 99.6888 21.253 99.3248 21.435C98.9608 21.617 98.5405 21.708 98.0638 21.708ZM94.9308 16.261C95.0868 16.261 95.2168 16.209 95.3208 16.105C95.4248 16.001 95.4768 15.871 95.4768 15.715C95.4768 15.5503 95.4248 15.4203 95.3208 15.325C95.2168 15.221 95.0868 15.169 94.9308 15.169C94.7748 15.169 94.6448 15.221 94.5408 15.325C94.4368 15.4203 94.3848 15.5503 94.3848 15.715C94.3848 15.871 94.4368 16.001 94.5408 16.105C94.6448 16.209 94.7748 16.261 94.9308 16.261Z" fill="white"/>
<path d="M76.14 41.772C75.2673 41.772 74.4457 41.6133 73.675 41.296C72.9043 40.9787 72.2243 40.5367 71.635 39.97C71.057 39.392 70.598 38.7177 70.258 37.947C69.9293 37.165 69.765 36.3207 69.765 35.414C69.765 34.5073 69.9293 33.6687 70.258 32.898C70.598 32.116 71.057 31.4417 71.635 30.875C72.2243 30.297 72.9043 29.8493 73.675 29.532C74.4457 29.2147 75.2673 29.056 76.14 29.056C77.0693 29.056 77.925 29.2203 78.707 29.549C79.5003 29.8777 80.1633 30.3367 80.696 30.926L79.404 32.201C79.1433 31.9063 78.843 31.657 78.503 31.453C78.1743 31.249 77.8117 31.096 77.415 30.994C77.0183 30.8807 76.5933 30.824 76.14 30.824C75.5393 30.824 74.967 30.9317 74.423 31.147C73.879 31.3623 73.3973 31.674 72.978 32.082C72.57 32.4787 72.247 32.9603 72.009 33.527C71.771 34.0823 71.652 34.7113 71.652 35.414C71.652 36.1167 71.771 36.7513 72.009 37.318C72.2583 37.8733 72.587 38.355 72.995 38.763C73.4143 39.1597 73.896 39.4657 74.44 39.681C74.984 39.8963 75.5563 40.004 76.157 40.004C76.7123 40.004 77.228 39.9247 77.704 39.766C78.1913 39.6073 78.6163 39.3807 78.979 39.086C79.3417 38.7913 79.6363 38.4343 79.863 38.015C80.0897 37.5843 80.2313 37.1027 80.288 36.57H76.123V34.921H82.039C82.0617 35.057 82.0843 35.2157 82.107 35.397C82.1297 35.567 82.141 35.7313 82.141 35.89V35.907C82.141 36.7797 81.988 37.5787 81.682 38.304C81.3873 39.0293 80.9737 39.6527 80.441 40.174C79.9083 40.684 79.2737 41.0807 78.537 41.364C77.8117 41.636 77.0127 41.772 76.14 41.772ZM87.6149 41.772C86.7195 41.772 85.9319 41.568 85.2519 41.16C84.5719 40.752 84.0392 40.2023 83.6539 39.511C83.2685 38.8083 83.0759 38.0263 83.0759 37.165C83.0759 36.3037 83.2685 35.5273 83.6539 34.836C84.0392 34.1333 84.5719 33.578 85.2519 33.17C85.9319 32.762 86.7195 32.558 87.6149 32.558C88.4989 32.558 89.2809 32.7677 89.9609 33.187C90.6409 33.595 91.1735 34.1447 91.5589 34.836C91.9442 35.5273 92.1369 36.3037 92.1369 37.165C92.1369 38.0263 91.9442 38.8083 91.5589 39.511C91.1735 40.2023 90.6409 40.752 89.9609 41.16C89.2809 41.568 88.4989 41.772 87.6149 41.772ZM87.6149 40.089C88.0909 40.089 88.5329 39.9757 88.9409 39.749C89.3489 39.511 89.6775 39.1767 89.9269 38.746C90.1875 38.304 90.3179 37.777 90.3179 37.165C90.3179 36.553 90.1875 36.0317 89.9269 35.601C89.6775 35.159 89.3489 34.8247 88.9409 34.598C88.5329 34.36 88.0909 34.241 87.6149 34.241C87.1389 34.241 86.6912 34.36 86.2719 34.598C85.8639 34.8247 85.5295 35.159 85.2689 35.601C85.0195 36.0317 84.8949 36.553 84.8949 37.165C84.8949 37.777 85.0195 38.304 85.2689 38.746C85.5295 39.1767 85.8695 39.511 86.2889 39.749C86.7082 39.9757 87.1502 40.089 87.6149 40.089ZM97.9078 41.772C97.0125 41.772 96.2248 41.568 95.5448 41.16C94.8648 40.752 94.3322 40.2023 93.9468 39.511C93.5615 38.8083 93.3688 38.0263 93.3688 37.165C93.3688 36.3037 93.5615 35.5273 93.9468 34.836C94.3322 34.1333 94.8648 33.578 95.5448 33.17C96.2248 32.762 97.0125 32.558 97.9078 32.558C98.7918 32.558 99.5738 32.7677 100.254 33.187C100.934 33.595 101.467 34.1447 101.852 34.836C102.237 35.5273 102.43 36.3037 102.43 37.165C102.43 38.0263 102.237 38.8083 101.852 39.511C101.467 40.2023 100.934 40.752 100.254 41.16C99.5738 41.568 98.7918 41.772 97.9078 41.772ZM97.9078 40.089C98.3838 40.089 98.8258 39.9757 99.2338 39.749C99.6418 39.511 99.9705 39.1767 100.22 38.746C100.481 38.304 100.611 37.777 100.611 37.165C100.611 36.553 100.481 36.0317 100.22 35.601C99.9705 35.159 99.6418 34.8247 99.2338 34.598C98.8258 34.36 98.3838 34.241 97.9078 34.241C97.4318 34.241 96.9842 34.36 96.5648 34.598C96.1568 34.8247 95.8225 35.159 95.5618 35.601C95.3125 36.0317 95.1878 36.553 95.1878 37.165C95.1878 37.777 95.3125 38.304 95.5618 38.746C95.8225 39.1767 96.1625 39.511 96.5818 39.749C97.0012 39.9757 97.4432 40.089 97.9078 40.089ZM108.031 45.444C107.271 45.444 106.614 45.3193 106.059 45.07C105.515 44.832 105.073 44.5203 104.733 44.135C104.393 43.761 104.149 43.3757 104.002 42.979L105.702 42.265C105.883 42.7183 106.172 43.0867 106.569 43.37C106.977 43.6647 107.464 43.812 108.031 43.812C108.835 43.812 109.464 43.574 109.918 43.098C110.371 42.622 110.598 41.9477 110.598 41.075V40.242H110.496C110.224 40.6387 109.85 40.9617 109.374 41.211C108.898 41.4603 108.348 41.585 107.725 41.585C106.988 41.585 106.308 41.398 105.685 41.024C105.073 40.65 104.58 40.1287 104.206 39.46C103.843 38.78 103.662 37.9867 103.662 37.08C103.662 36.162 103.843 35.3687 104.206 34.7C104.58 34.02 105.073 33.493 105.685 33.119C106.308 32.745 106.988 32.558 107.725 32.558C108.348 32.558 108.898 32.6827 109.374 32.932C109.85 33.17 110.224 33.4987 110.496 33.918H110.598V32.83H112.349V41.041C112.349 41.9817 112.162 42.7807 111.788 43.438C111.425 44.0953 110.921 44.594 110.275 44.934C109.629 45.274 108.881 45.444 108.031 45.444ZM108.048 39.919C108.501 39.919 108.92 39.8113 109.306 39.596C109.702 39.3693 110.014 39.0463 110.241 38.627C110.479 38.1963 110.598 37.6807 110.598 37.08C110.598 36.4453 110.479 35.9183 110.241 35.499C110.014 35.0797 109.702 34.7623 109.306 34.547C108.92 34.3317 108.501 34.224 108.048 34.224C107.594 34.224 107.169 34.3317 106.773 34.547C106.387 34.7623 106.076 35.0853 105.838 35.516C105.6 35.9353 105.481 36.4567 105.481 37.08C105.481 37.692 105.6 38.2133 105.838 38.644C106.076 39.0633 106.387 39.3807 106.773 39.596C107.169 39.8113 107.594 39.919 108.048 39.919ZM114.514 41.5V29.328H116.35V41.5H114.514ZM122.392 41.772C121.542 41.772 120.783 41.5737 120.114 41.177C119.446 40.7803 118.919 40.2363 118.533 39.545C118.159 38.8537 117.972 38.066 117.972 37.182C117.972 36.3547 118.154 35.5897 118.516 34.887C118.879 34.1843 119.383 33.6233 120.029 33.204C120.687 32.7733 121.44 32.558 122.29 32.558C123.186 32.558 123.945 32.7507 124.568 33.136C125.203 33.5213 125.685 34.0483 126.013 34.717C126.342 35.3857 126.506 36.1393 126.506 36.978C126.506 37.1027 126.501 37.216 126.489 37.318C126.489 37.42 126.484 37.4993 126.472 37.556H119.774C119.82 38.032 119.939 38.4457 120.131 38.797C120.381 39.239 120.709 39.5733 121.117 39.8C121.525 40.0267 121.967 40.14 122.443 40.14C123.021 40.14 123.503 40.0097 123.888 39.749C124.285 39.477 124.597 39.1427 124.823 38.746L126.336 39.477C125.962 40.157 125.452 40.7123 124.806 41.143C124.16 41.5623 123.356 41.772 122.392 41.772ZM119.876 36.179H124.687C124.676 35.9637 124.619 35.737 124.517 35.499C124.415 35.2497 124.268 35.023 124.075 34.819C123.883 34.615 123.639 34.4507 123.344 34.326C123.05 34.19 122.704 34.122 122.307 34.122C121.809 34.122 121.367 34.2523 120.981 34.513C120.596 34.7623 120.296 35.1137 120.08 35.567C119.99 35.7597 119.922 35.9637 119.876 36.179ZM133.979 41.5L130.715 29.328H132.789L134.727 37.233L134.931 38.287H135.033L135.288 37.233L137.736 29.328H139.606L141.952 37.233L142.207 38.27H142.309L142.513 37.233L144.451 29.328H146.508L143.295 41.5H141.323L138.994 33.425L138.722 32.286H138.62L138.331 33.425L135.9 41.5H133.979ZM149.922 41.772C149.299 41.772 148.743 41.6473 148.256 41.398C147.78 41.1487 147.4 40.8087 147.117 40.378C146.845 39.936 146.709 39.4317 146.709 38.865C146.709 38.2417 146.868 37.7147 147.185 37.284C147.514 36.8533 147.95 36.5247 148.494 36.298C149.038 36.0713 149.639 35.958 150.296 35.958C150.659 35.958 150.993 35.9863 151.299 36.043C151.616 36.0883 151.888 36.145 152.115 36.213C152.353 36.281 152.54 36.3547 152.676 36.434V35.975C152.676 35.4083 152.472 34.955 152.064 34.615C151.656 34.275 151.129 34.105 150.483 34.105C150.041 34.105 149.622 34.207 149.225 34.411C148.828 34.6037 148.511 34.87 148.273 35.21L147.015 34.241C147.264 33.8897 147.565 33.5893 147.916 33.34C148.279 33.0907 148.681 32.898 149.123 32.762C149.576 32.626 150.047 32.558 150.534 32.558C151.792 32.558 152.761 32.8697 153.441 33.493C154.121 34.105 154.461 34.9663 154.461 36.077V41.5H152.676V40.429H152.574C152.427 40.6557 152.223 40.871 151.962 41.075C151.713 41.279 151.412 41.4433 151.061 41.568C150.721 41.704 150.341 41.772 149.922 41.772ZM150.245 40.276C150.721 40.276 151.14 40.1627 151.503 39.936C151.877 39.7093 152.166 39.4147 152.37 39.052C152.574 38.678 152.676 38.2757 152.676 37.845C152.427 37.6977 152.121 37.5787 151.758 37.488C151.407 37.386 151.033 37.335 150.636 37.335C149.888 37.335 149.355 37.4823 149.038 37.777C148.721 38.0717 148.562 38.44 148.562 38.882C148.562 39.29 148.715 39.6243 149.021 39.885C149.327 40.1457 149.735 40.276 150.245 40.276ZM156.499 41.5V29.328H158.335V41.5H156.499ZM160.517 41.5V29.328H162.353V41.5H160.517ZM168.395 41.772C167.545 41.772 166.786 41.5737 166.117 41.177C165.449 40.7803 164.922 40.2363 164.536 39.545C164.162 38.8537 163.975 38.066 163.975 37.182C163.975 36.3547 164.157 35.5897 164.519 34.887C164.882 34.1843 165.386 33.6233 166.032 33.204C166.69 32.7733 167.443 32.558 168.293 32.558C169.189 32.558 169.948 32.7507 170.571 33.136C171.206 33.5213 171.688 34.0483 172.016 34.717C172.345 35.3857 172.509 36.1393 172.509 36.978C172.509 37.1027 172.504 37.216 172.492 37.318C172.492 37.42 172.487 37.4993 172.475 37.556H165.777C165.823 38.032 165.942 38.4457 166.134 38.797C166.384 39.239 166.712 39.5733 167.12 39.8C167.528 40.0267 167.97 40.14 168.446 40.14C169.024 40.14 169.506 40.0097 169.891 39.749C170.288 39.477 170.6 39.1427 170.826 38.746L172.339 39.477C171.965 40.157 171.455 40.7123 170.809 41.143C170.163 41.5623 169.359 41.772 168.395 41.772ZM165.879 36.179H170.69C170.679 35.9637 170.622 35.737 170.52 35.499C170.418 35.2497 170.271 35.023 170.078 34.819C169.886 34.615 169.642 34.4507 169.347 34.326C169.053 34.19 168.707 34.122 168.31 34.122C167.812 34.122 167.37 34.2523 166.984 34.513C166.599 34.7623 166.299 35.1137 166.083 35.567C165.993 35.7597 165.925 35.9637 165.879 36.179ZM173.369 32.83H174.882V30.382H176.718V32.83H178.843V34.428H176.718V38.593C176.718 39.0237 176.803 39.3523 176.973 39.579C177.154 39.8057 177.454 39.919 177.874 39.919C178.078 39.919 178.259 39.8907 178.418 39.834C178.576 39.766 178.735 39.6867 178.894 39.596V41.381C178.701 41.4603 178.497 41.5227 178.282 41.568C178.066 41.6133 177.811 41.636 177.517 41.636C176.712 41.636 176.072 41.4037 175.596 40.939C175.12 40.463 174.882 39.8113 174.882 38.984V34.428H173.369V32.83Z" fill="white"/>
</svg>
