<svg width="214" height="55" viewBox="0 0 214 55" fill="none" xmlns="http://www.w3.org/2000/svg">
<rect x="0.5" y="0.5" width="213" height="54" rx="27" fill="#1F1F1F"/>
<rect x="0.5" y="0.5" width="213" height="54" rx="27" stroke="#747775"/>
<path d="M57 23.791H21V18.1455C21 15.0809 23.6422 12.5001 26.7798 12.5001H51.2202C54.3578 12.5001 57 15.0809 57 18.1455V23.791Z" fill="#34A853"/>
<path d="M57 29H21V23C21 19.7429 23.6422 17 26.7798 17H51.2202C54.3578 17 57 19.7429 57 23V29Z" fill="#FBBC04"/>
<path d="M57 34H21V28C21 24.7429 23.6422 22 26.7798 22H51.2202C54.3578 22 57 24.7429 57 28V34Z" fill="#EA4335"/>
<path d="M21 25.2409L43.8493 30.4025C46.4795 31.0477 49.4384 30.4025 51.5753 28.7895L57 24.9183V37.0157C57 40.0804 54.3699 42.4999 51.2466 42.4999H26.7534C23.6301 42.4999 21 40.0804 21 37.0157V25.2409Z" fill="#4285F4"/>
<path d="M69.494 21.5V20.044L74.369 13.544H69.702V12.192H76.02V13.648L71.184 20.148H76.072V21.5H69.494ZM72.25 11.373L70.859 9.8V9.709H72.198L72.796 10.515H72.926L73.537 9.709H74.889V9.8L73.485 11.373H72.25ZM77.6037 21.5V14.87H79.0077V21.5H77.6037ZM78.3057 13.895C78.0457 13.895 77.8203 13.804 77.6297 13.622C77.4477 13.4313 77.3567 13.206 77.3567 12.946C77.3567 12.6773 77.4477 12.4563 77.6297 12.283C77.8203 12.101 78.0457 12.01 78.3057 12.01C78.5743 12.01 78.7997 12.101 78.9817 12.283C79.1637 12.4563 79.2547 12.6773 79.2547 12.946C79.2547 13.206 79.1637 13.4313 78.9817 13.622C78.7997 13.804 78.5743 13.895 78.3057 13.895ZM83.1547 21.708C82.34 21.708 81.7247 21.4653 81.3087 20.98C80.9013 20.486 80.6977 19.8187 80.6977 18.978V14.87H82.1017V18.783C82.1017 19.3377 82.2317 19.7493 82.4917 20.018C82.7603 20.2867 83.094 20.421 83.4927 20.421C83.8567 20.421 84.1687 20.33 84.4287 20.148C84.6887 19.9573 84.888 19.7103 85.0267 19.407C85.174 19.1037 85.2477 18.7787 85.2477 18.432V14.87H86.6387V21.5H85.3257V20.603H85.2477C85.1263 20.811 84.9573 20.9973 84.7407 21.162C84.524 21.3267 84.2813 21.4567 84.0127 21.552C83.744 21.656 83.458 21.708 83.1547 21.708ZM81.8157 13.219V12.14H85.5337V13.219H81.8157ZM88.2907 21.5V14.87H89.6167V15.845H89.6947C89.7987 15.6197 89.946 15.4203 90.1367 15.247C90.336 15.0737 90.5613 14.935 90.8127 14.831C91.0727 14.727 91.3413 14.675 91.6187 14.675C91.8007 14.675 91.9523 14.688 92.0737 14.714C92.2037 14.7313 92.3207 14.7617 92.4247 14.805V16.261C92.26 16.1917 92.091 16.1353 91.9177 16.092C91.753 16.0487 91.5797 16.027 91.3977 16.027C91.0683 16.027 90.7737 16.118 90.5137 16.3C90.2623 16.4733 90.063 16.7073 89.9157 17.002C89.7683 17.2967 89.6947 17.626 89.6947 17.99V21.5H88.2907ZM96.1439 21.708C95.4939 21.708 94.9132 21.5563 94.4019 21.253C93.8906 20.9497 93.4876 20.5337 93.1929 20.005C92.9069 19.4763 92.7639 18.874 92.7639 18.198C92.7639 17.5653 92.9026 16.9803 93.1799 16.443C93.4572 15.9057 93.8429 15.4767 94.3369 15.156C94.8396 14.8267 95.4159 14.662 96.0659 14.662C96.7506 14.662 97.3312 14.8093 97.8079 15.104C98.2932 15.3987 98.6616 15.8017 98.9129 16.313C99.1642 16.8243 99.2899 17.4007 99.2899 18.042C99.2899 18.1373 99.2856 18.224 99.2769 18.302C99.2769 18.38 99.2726 18.4407 99.2639 18.484H94.1419C94.1766 18.848 94.2676 19.1643 94.4149 19.433C94.6056 19.771 94.8569 20.0267 95.1689 20.2C95.4809 20.3733 95.8189 20.46 96.1829 20.46C96.6249 20.46 96.9932 20.3603 97.2879 20.161C97.5912 19.953 97.8296 19.6973 98.0029 19.394L99.1599 19.953C98.8739 20.473 98.4839 20.8977 97.9899 21.227C97.4959 21.5477 96.8806 21.708 96.1439 21.708ZM94.2199 17.431H97.8989C97.8902 17.2663 97.8469 17.093 97.7689 16.911C97.6909 16.7203 97.5782 16.547 97.4309 16.391C97.2836 16.235 97.0972 16.1093 96.8719 16.014C96.6466 15.91 96.3822 15.858 96.0789 15.858C95.6976 15.858 95.3596 15.9577 95.0649 16.157C94.7702 16.3477 94.5406 16.6163 94.3759 16.963C94.3066 17.1103 94.2546 17.2663 94.2199 17.431ZM96.0659 13.57C95.8406 13.57 95.6456 13.4877 95.4809 13.323C95.3162 13.1497 95.2339 12.9503 95.2339 12.725C95.2339 12.491 95.3162 12.296 95.4809 12.14C95.6456 11.9753 95.8406 11.893 96.0659 11.893C96.3086 11.893 96.5079 11.9753 96.6639 12.14C96.8199 12.296 96.8979 12.491 96.8979 12.725C96.8979 12.9503 96.8199 13.1497 96.6639 13.323C96.5079 13.4877 96.3086 13.57 96.0659 13.57ZM99.947 14.87H101.104V12.998H102.508V14.87H104.133V16.092H102.508V19.277C102.508 19.6063 102.573 19.8577 102.703 20.031C102.842 20.2043 103.071 20.291 103.392 20.291C103.548 20.291 103.687 20.2693 103.808 20.226C103.929 20.174 104.051 20.1133 104.172 20.044V21.409C104.025 21.4697 103.869 21.5173 103.704 21.552C103.539 21.5867 103.344 21.604 103.119 21.604C102.504 21.604 102.014 21.4263 101.65 21.071C101.286 20.707 101.104 20.2087 101.104 19.576V16.092H99.947V14.87ZM105.648 21.5V14.87H107.052V21.5H105.648ZM106.35 13.895C106.09 13.895 105.864 13.804 105.674 13.622C105.492 13.4313 105.401 13.206 105.401 12.946C105.401 12.6773 105.492 12.4563 105.674 12.283C105.864 12.101 106.09 12.01 106.35 12.01C106.618 12.01 106.844 12.101 107.026 12.283C107.208 12.4563 107.299 12.6773 107.299 12.946C107.299 13.206 107.208 13.4313 107.026 13.622C106.844 13.804 106.618 13.895 106.35 13.895Z" fill="white"/>
<path d="M69.816 42.792L70.751 41.5C70.5017 41.4433 70.2863 41.313 70.105 41.109C69.9237 40.905 69.833 40.65 69.833 40.344C69.833 39.9927 69.9577 39.6923 70.207 39.443C70.4563 39.1937 70.7567 39.069 71.108 39.069C71.2893 39.069 71.4537 39.103 71.601 39.171C71.7597 39.239 71.8957 39.3297 72.009 39.443C72.1223 39.5563 72.213 39.6923 72.281 39.851C72.349 39.9983 72.383 40.1627 72.383 40.344C72.383 40.48 72.3603 40.6103 72.315 40.735C72.281 40.8597 72.23 40.9843 72.162 41.109C72.094 41.2223 72.0203 41.347 71.941 41.483L70.666 43.353L69.816 42.792ZM73.029 42.792L73.964 41.5C73.7147 41.4433 73.4993 41.313 73.318 41.109C73.1367 40.905 73.046 40.65 73.046 40.344C73.046 39.9927 73.1707 39.6923 73.42 39.443C73.6693 39.1937 73.9697 39.069 74.321 39.069C74.5023 39.069 74.6667 39.103 74.814 39.171C74.9727 39.239 75.1087 39.3297 75.222 39.443C75.3353 39.5563 75.426 39.6923 75.494 39.851C75.562 39.9983 75.596 40.1627 75.596 40.344C75.596 40.48 75.5733 40.6103 75.528 40.735C75.494 40.8597 75.443 40.9843 75.375 41.109C75.307 41.2223 75.2333 41.347 75.154 41.483L73.879 43.353L73.029 42.792ZM83.5277 41.772C82.655 41.772 81.8334 41.6133 81.0627 41.296C80.292 40.9787 79.612 40.5367 79.0227 39.97C78.4447 39.392 77.9857 38.7177 77.6457 37.947C77.317 37.165 77.1527 36.3207 77.1527 35.414C77.1527 34.5073 77.317 33.6687 77.6457 32.898C77.9857 32.116 78.4447 31.4417 79.0227 30.875C79.612 30.297 80.292 29.8493 81.0627 29.532C81.8334 29.2147 82.655 29.056 83.5277 29.056C84.457 29.056 85.3127 29.2203 86.0947 29.549C86.888 29.8777 87.551 30.3367 88.0837 30.926L86.7917 32.201C86.531 31.9063 86.2307 31.657 85.8907 31.453C85.562 31.249 85.1994 31.096 84.8027 30.994C84.406 30.8807 83.981 30.824 83.5277 30.824C82.927 30.824 82.3547 30.9317 81.8107 31.147C81.2667 31.3623 80.785 31.674 80.3657 32.082C79.9577 32.4787 79.6347 32.9603 79.3967 33.527C79.1587 34.0823 79.0397 34.7113 79.0397 35.414C79.0397 36.1167 79.1587 36.7513 79.3967 37.318C79.646 37.8733 79.9747 38.355 80.3827 38.763C80.802 39.1597 81.2837 39.4657 81.8277 39.681C82.3717 39.8963 82.944 40.004 83.5447 40.004C84.1 40.004 84.6157 39.9247 85.0917 39.766C85.579 39.6073 86.004 39.3807 86.3667 39.086C86.7294 38.7913 87.024 38.4343 87.2507 38.015C87.4774 37.5843 87.619 37.1027 87.6757 36.57H83.5107V34.921H89.4267C89.4494 35.057 89.472 35.2157 89.4947 35.397C89.5174 35.567 89.5287 35.7313 89.5287 35.89V35.907C89.5287 36.7797 89.3757 37.5787 89.0697 38.304C88.775 39.0293 88.3614 39.6527 87.8287 40.174C87.296 40.684 86.6614 41.0807 85.9247 41.364C85.1994 41.636 84.4004 41.772 83.5277 41.772ZM95.0026 41.772C94.1072 41.772 93.3196 41.568 92.6396 41.16C91.9596 40.752 91.4269 40.2023 91.0416 39.511C90.6562 38.8083 90.4636 38.0263 90.4636 37.165C90.4636 36.3037 90.6562 35.5273 91.0416 34.836C91.4269 34.1333 91.9596 33.578 92.6396 33.17C93.3196 32.762 94.1072 32.558 95.0026 32.558C95.8866 32.558 96.6686 32.7677 97.3486 33.187C98.0286 33.595 98.5612 34.1447 98.9466 34.836C99.3319 35.5273 99.5246 36.3037 99.5246 37.165C99.5246 38.0263 99.3319 38.8083 98.9466 39.511C98.5612 40.2023 98.0286 40.752 97.3486 41.16C96.6686 41.568 95.8866 41.772 95.0026 41.772ZM95.0026 40.089C95.4786 40.089 95.9206 39.9757 96.3286 39.749C96.7366 39.511 97.0652 39.1767 97.3146 38.746C97.5752 38.304 97.7056 37.777 97.7056 37.165C97.7056 36.553 97.5752 36.0317 97.3146 35.601C97.0652 35.159 96.7366 34.8247 96.3286 34.598C95.9206 34.36 95.4786 34.241 95.0026 34.241C94.5266 34.241 94.0789 34.36 93.6596 34.598C93.2516 34.8247 92.9172 35.159 92.6566 35.601C92.4072 36.0317 92.2826 36.553 92.2826 37.165C92.2826 37.777 92.4072 38.304 92.6566 38.746C92.9172 39.1767 93.2572 39.511 93.6766 39.749C94.0959 39.9757 94.5379 40.089 95.0026 40.089ZM105.296 41.772C104.4 41.772 103.613 41.568 102.933 41.16C102.253 40.752 101.72 40.2023 101.335 39.511C100.949 38.8083 100.757 38.0263 100.757 37.165C100.757 36.3037 100.949 35.5273 101.335 34.836C101.72 34.1333 102.253 33.578 102.933 33.17C103.613 32.762 104.4 32.558 105.296 32.558C106.18 32.558 106.962 32.7677 107.642 33.187C108.322 33.595 108.854 34.1447 109.24 34.836C109.625 35.5273 109.818 36.3037 109.818 37.165C109.818 38.0263 109.625 38.8083 109.24 39.511C108.854 40.2023 108.322 40.752 107.642 41.16C106.962 41.568 106.18 41.772 105.296 41.772ZM105.296 40.089C105.772 40.089 106.214 39.9757 106.622 39.749C107.03 39.511 107.358 39.1767 107.608 38.746C107.868 38.304 107.999 37.777 107.999 37.165C107.999 36.553 107.868 36.0317 107.608 35.601C107.358 35.159 107.03 34.8247 106.622 34.598C106.214 34.36 105.772 34.241 105.296 34.241C104.82 34.241 104.372 34.36 103.953 34.598C103.545 34.8247 103.21 35.159 102.95 35.601C102.7 36.0317 102.576 36.553 102.576 37.165C102.576 37.777 102.7 38.304 102.95 38.746C103.21 39.1767 103.55 39.511 103.97 39.749C104.389 39.9757 104.831 40.089 105.296 40.089ZM115.419 45.444C114.659 45.444 114.002 45.3193 113.447 45.07C112.903 44.832 112.461 44.5203 112.121 44.135C111.781 43.761 111.537 43.3757 111.39 42.979L113.09 42.265C113.271 42.7183 113.56 43.0867 113.957 43.37C114.365 43.6647 114.852 43.812 115.419 43.812C116.223 43.812 116.852 43.574 117.306 43.098C117.759 42.622 117.986 41.9477 117.986 41.075V40.242H117.884C117.612 40.6387 117.238 40.9617 116.762 41.211C116.286 41.4603 115.736 41.585 115.113 41.585C114.376 41.585 113.696 41.398 113.073 41.024C112.461 40.65 111.968 40.1287 111.594 39.46C111.231 38.78 111.05 37.9867 111.05 37.08C111.05 36.162 111.231 35.3687 111.594 34.7C111.968 34.02 112.461 33.493 113.073 33.119C113.696 32.745 114.376 32.558 115.113 32.558C115.736 32.558 116.286 32.6827 116.762 32.932C117.238 33.17 117.612 33.4987 117.884 33.918H117.986V32.83H119.737V41.041C119.737 41.9817 119.55 42.7807 119.175 43.438C118.813 44.0953 118.309 44.594 117.663 44.934C117.017 45.274 116.269 45.444 115.419 45.444ZM115.435 39.919C115.889 39.919 116.308 39.8113 116.694 39.596C117.09 39.3693 117.402 39.0463 117.629 38.627C117.867 38.1963 117.986 37.6807 117.986 37.08C117.986 36.4453 117.867 35.9183 117.629 35.499C117.402 35.0797 117.09 34.7623 116.694 34.547C116.308 34.3317 115.889 34.224 115.435 34.224C114.982 34.224 114.557 34.3317 114.161 34.547C113.775 34.7623 113.464 35.0853 113.226 35.516C112.988 35.9353 112.869 36.4567 112.869 37.08C112.869 37.692 112.988 38.2133 113.226 38.644C113.464 39.0633 113.775 39.3807 114.161 39.596C114.557 39.8113 114.982 39.919 115.435 39.919ZM121.901 41.5V29.328H123.737V41.5H121.901ZM129.78 41.772C128.93 41.772 128.171 41.5737 127.502 41.177C126.833 40.7803 126.306 40.2363 125.921 39.545C125.547 38.8537 125.36 38.066 125.36 37.182C125.36 36.3547 125.541 35.5897 125.904 34.887C126.267 34.1843 126.771 33.6233 127.417 33.204C128.074 32.7733 128.828 32.558 129.678 32.558C130.573 32.558 131.333 32.7507 131.956 33.136C132.591 33.5213 133.072 34.0483 133.401 34.717C133.73 35.3857 133.894 36.1393 133.894 36.978C133.894 37.1027 133.888 37.216 133.877 37.318C133.877 37.42 133.871 37.4993 133.86 37.556H127.162C127.207 38.032 127.326 38.4457 127.519 38.797C127.768 39.239 128.097 39.5733 128.505 39.8C128.913 40.0267 129.355 40.14 129.831 40.14C130.409 40.14 130.891 40.0097 131.276 39.749C131.673 39.477 131.984 39.1427 132.211 38.746L133.724 39.477C133.35 40.157 132.84 40.7123 132.194 41.143C131.548 41.5623 130.743 41.772 129.78 41.772ZM127.264 36.179H132.075C132.064 35.9637 132.007 35.737 131.905 35.499C131.803 35.2497 131.656 35.023 131.463 34.819C131.27 34.615 131.027 34.4507 130.732 34.326C130.437 34.19 130.092 34.122 129.695 34.122C129.196 34.122 128.754 34.2523 128.369 34.513C127.984 34.7623 127.683 35.1137 127.468 35.567C127.377 35.7597 127.309 35.9637 127.264 36.179ZM141.366 41.5L138.102 29.328H140.176L142.114 37.233L142.318 38.287H142.42L142.675 37.233L145.123 29.328H146.993L149.339 37.233L149.594 38.27H149.696L149.9 37.233L151.838 29.328H153.895L150.682 41.5H148.71L146.381 33.425L146.109 32.286H146.007L145.718 33.425L143.287 41.5H141.366ZM157.31 41.772C156.686 41.772 156.131 41.6473 155.644 41.398C155.168 41.1487 154.788 40.8087 154.505 40.378C154.233 39.936 154.097 39.4317 154.097 38.865C154.097 38.2417 154.255 37.7147 154.573 37.284C154.901 36.8533 155.338 36.5247 155.882 36.298C156.426 36.0713 157.026 35.958 157.684 35.958C158.046 35.958 158.381 35.9863 158.687 36.043C159.004 36.0883 159.276 36.145 159.503 36.213C159.741 36.281 159.928 36.3547 160.064 36.434V35.975C160.064 35.4083 159.86 34.955 159.452 34.615C159.044 34.275 158.517 34.105 157.871 34.105C157.429 34.105 157.009 34.207 156.613 34.411C156.216 34.6037 155.899 34.87 155.661 35.21L154.403 34.241C154.652 33.8897 154.952 33.5893 155.304 33.34C155.666 33.0907 156.069 32.898 156.511 32.762C156.964 32.626 157.434 32.558 157.922 32.558C159.18 32.558 160.149 32.8697 160.829 33.493C161.509 34.105 161.849 34.9663 161.849 36.077V41.5H160.064V40.429H159.962C159.814 40.6557 159.61 40.871 159.35 41.075C159.1 41.279 158.8 41.4433 158.449 41.568C158.109 41.704 157.729 41.772 157.31 41.772ZM157.633 40.276C158.109 40.276 158.528 40.1627 158.891 39.936C159.265 39.7093 159.554 39.4147 159.758 39.052C159.962 38.678 160.064 38.2757 160.064 37.845C159.814 37.6977 159.508 37.5787 159.146 37.488C158.794 37.386 158.42 37.335 158.024 37.335C157.276 37.335 156.743 37.4823 156.426 37.777C156.108 38.0717 155.95 38.44 155.95 38.882C155.95 39.29 156.103 39.6243 156.409 39.885C156.715 40.1457 157.123 40.276 157.633 40.276ZM163.887 41.5V29.328H165.723V41.5H163.887ZM167.904 41.5V29.328H169.74V41.5H167.904ZM175.783 41.772C174.933 41.772 174.174 41.5737 173.505 41.177C172.836 40.7803 172.309 40.2363 171.924 39.545C171.55 38.8537 171.363 38.066 171.363 37.182C171.363 36.3547 171.544 35.5897 171.907 34.887C172.27 34.1843 172.774 33.6233 173.42 33.204C174.077 32.7733 174.831 32.558 175.681 32.558C176.576 32.558 177.336 32.7507 177.959 33.136C178.594 33.5213 179.075 34.0483 179.404 34.717C179.733 35.3857 179.897 36.1393 179.897 36.978C179.897 37.1027 179.891 37.216 179.88 37.318C179.88 37.42 179.874 37.4993 179.863 37.556H173.165C173.21 38.032 173.329 38.4457 173.522 38.797C173.771 39.239 174.1 39.5733 174.508 39.8C174.916 40.0267 175.358 40.14 175.834 40.14C176.412 40.14 176.894 40.0097 177.279 39.749C177.676 39.477 177.987 39.1427 178.214 38.746L179.727 39.477C179.353 40.157 178.843 40.7123 178.197 41.143C177.551 41.5623 176.746 41.772 175.783 41.772ZM173.267 36.179H178.078C178.067 35.9637 178.01 35.737 177.908 35.499C177.806 35.2497 177.659 35.023 177.466 34.819C177.273 34.615 177.03 34.4507 176.735 34.326C176.44 34.19 176.095 34.122 175.698 34.122C175.199 34.122 174.757 34.2523 174.372 34.513C173.987 34.7623 173.686 35.1137 173.471 35.567C173.38 35.7597 173.312 35.9637 173.267 36.179ZM180.756 32.83H182.269V30.382H184.105V32.83H186.23V34.428H184.105V38.593C184.105 39.0237 184.19 39.3523 184.36 39.579C184.542 39.8057 184.842 39.919 185.261 39.919C185.465 39.919 185.647 39.8907 185.805 39.834C185.964 39.766 186.123 39.6867 186.281 39.596V41.381C186.089 41.4603 185.885 41.5227 185.669 41.568C185.454 41.6133 185.199 41.636 184.904 41.636C184.1 41.636 183.459 41.4037 182.983 40.939C182.507 40.463 182.269 39.8113 182.269 38.984V34.428H180.756V32.83ZM189.437 29.056L190.287 29.6L189.437 30.909C189.664 30.9657 189.856 31.096 190.015 31.3C190.185 31.4927 190.27 31.742 190.27 32.048C190.27 32.4107 190.145 32.7167 189.896 32.966C189.658 33.2153 189.363 33.34 189.012 33.34C188.831 33.34 188.661 33.306 188.502 33.238C188.343 33.17 188.207 33.0793 188.094 32.966C187.981 32.8527 187.89 32.7167 187.822 32.558C187.754 32.3993 187.72 32.2293 187.72 32.048C187.72 31.912 187.737 31.7817 187.771 31.657C187.816 31.5323 187.873 31.4077 187.941 31.283C188.009 31.1583 188.088 31.0393 188.179 30.926L189.437 29.056ZM192.735 29.056L193.585 29.6L192.735 30.909C192.962 30.9657 193.154 31.096 193.313 31.3C193.483 31.4927 193.568 31.742 193.568 32.048C193.568 32.4107 193.443 32.7167 193.194 32.966C192.956 33.2153 192.661 33.34 192.31 33.34C192.129 33.34 191.959 33.306 191.8 33.238C191.641 33.17 191.505 33.0793 191.392 32.966C191.279 32.8527 191.188 32.7167 191.12 32.558C191.052 32.3993 191.018 32.2293 191.018 32.048C191.018 31.912 191.035 31.7817 191.069 31.657C191.114 31.5323 191.171 31.4077 191.239 31.283C191.307 31.1583 191.386 31.0393 191.477 30.926L192.735 29.056Z" fill="white"/>
</svg>
