<svg width="192" height="55" viewBox="0 0 192 55" fill="none" xmlns="http://www.w3.org/2000/svg">
<rect x="0.5" y="0.5" width="191" height="54" rx="27" fill="#1F1F1F"/>
<rect x="0.5" y="0.5" width="191" height="54" rx="27" stroke="#747775"/>
<path d="M57 23.791H21V18.1455C21 15.0809 23.6422 12.5001 26.7798 12.5001H51.2202C54.3578 12.5001 57 15.0809 57 18.1455V23.791Z" fill="#34A853"/>
<path d="M57 29H21V23C21 19.7429 23.6422 17 26.7798 17H51.2202C54.3578 17 57 19.7429 57 23V29Z" fill="#FBBC04"/>
<path d="M57 34H21V28C21 24.7429 23.6422 22 26.7798 22H51.2202C54.3578 22 57 24.7429 57 28V34Z" fill="#EA4335"/>
<path d="M21 25.2409L43.8493 30.4025C46.4795 31.0477 49.4384 30.4025 51.5753 28.7895L57 24.9183V37.0157C57 40.0804 54.3699 42.4999 51.2466 42.4999H26.7534C23.6301 42.4999 21 40.0804 21 37.0157V25.2409Z" fill="#4285F4"/>
<path d="M72.757 21.708C72.263 21.708 71.7907 21.6127 71.34 21.422C70.8893 21.2227 70.4907 20.9323 70.144 20.551C69.806 20.1697 69.5547 19.6973 69.39 19.134L70.742 18.588C70.8807 19.0907 71.1233 19.511 71.47 19.849C71.8167 20.187 72.25 20.356 72.77 20.356C73.0647 20.356 73.3377 20.304 73.589 20.2C73.849 20.096 74.057 19.9443 74.213 19.745C74.369 19.537 74.447 19.2857 74.447 18.991C74.447 18.7137 74.382 18.4797 74.252 18.289C74.122 18.0897 73.914 17.912 73.628 17.756C73.342 17.5913 72.978 17.431 72.536 17.275L71.951 17.067C71.6997 16.9717 71.444 16.8547 71.184 16.716C70.924 16.5773 70.6813 16.4083 70.456 16.209C70.2393 16.001 70.066 15.7583 69.936 15.481C69.806 15.2037 69.741 14.883 69.741 14.519C69.741 14.051 69.8623 13.6263 70.105 13.245C70.3563 12.8637 70.6987 12.5603 71.132 12.335C71.574 12.101 72.0853 11.984 72.666 11.984C73.264 11.984 73.7623 12.0923 74.161 12.309C74.5683 12.517 74.8847 12.7683 75.11 13.063C75.344 13.3577 75.5043 13.6393 75.591 13.908L74.304 14.454C74.252 14.272 74.1567 14.0943 74.018 13.921C73.888 13.7477 73.7103 13.6047 73.485 13.492C73.2683 13.3707 72.9997 13.31 72.679 13.31C72.4017 13.31 72.146 13.362 71.912 13.466C71.6867 13.57 71.5047 13.713 71.366 13.895C71.2273 14.0683 71.158 14.272 71.158 14.506C71.158 14.844 71.2967 15.1213 71.574 15.338C71.8513 15.546 72.2543 15.7367 72.783 15.91L73.381 16.118C73.6843 16.222 73.9833 16.3477 74.278 16.495C74.5727 16.6337 74.8413 16.8157 75.084 17.041C75.3267 17.2577 75.5173 17.5263 75.656 17.847C75.8033 18.159 75.877 18.5317 75.877 18.965C75.877 19.4417 75.7817 19.8577 75.591 20.213C75.409 20.5597 75.162 20.8457 74.85 21.071C74.5467 21.2877 74.2087 21.448 73.836 21.552C73.472 21.656 73.1123 21.708 72.757 21.708ZM77.2965 21.5V12.192H78.7005V17.678L81.5085 14.87H83.2505V14.948L80.6895 17.483L83.3415 21.422V21.5H81.6775L79.7015 18.458L78.7005 19.446V21.5H77.2965ZM86.1685 21.708C85.6919 21.708 85.2672 21.6127 84.8945 21.422C84.5305 21.2313 84.2402 20.9713 84.0235 20.642C83.8155 20.304 83.7115 19.9183 83.7115 19.485C83.7115 19.0083 83.8329 18.6053 84.0755 18.276C84.3269 17.9467 84.6605 17.6953 85.0765 17.522C85.4925 17.3487 85.9519 17.262 86.4545 17.262C86.7319 17.262 86.9875 17.2837 87.2215 17.327C87.4642 17.3617 87.6722 17.405 87.8455 17.457C88.0275 17.509 88.1705 17.5653 88.2745 17.626V17.275C88.2745 16.8417 88.1185 16.495 87.8065 16.235C87.4945 15.975 87.0915 15.845 86.5975 15.845C86.2595 15.845 85.9389 15.923 85.6355 16.079C85.3322 16.2263 85.0895 16.43 84.9075 16.69L83.9455 15.949C84.1362 15.6803 84.3659 15.4507 84.6345 15.26C84.9119 15.0693 85.2195 14.922 85.5575 14.818C85.9042 14.714 86.2639 14.662 86.6365 14.662C87.5985 14.662 88.3395 14.9003 88.8595 15.377C89.3795 15.845 89.6395 16.5037 89.6395 17.353V21.5H88.2745V20.681H88.1965C88.0839 20.8543 87.9279 21.019 87.7285 21.175C87.5379 21.331 87.3082 21.4567 87.0395 21.552C86.7795 21.656 86.4892 21.708 86.1685 21.708ZM86.4155 20.564C86.7795 20.564 87.1002 20.4773 87.3775 20.304C87.6635 20.1307 87.8845 19.9053 88.0405 19.628C88.1965 19.342 88.2745 19.0343 88.2745 18.705C88.0839 18.5923 87.8499 18.5013 87.5725 18.432C87.3039 18.354 87.0179 18.315 86.7145 18.315C86.1425 18.315 85.7352 18.4277 85.4925 18.653C85.2499 18.8783 85.1285 19.16 85.1285 19.498C85.1285 19.81 85.2455 20.0657 85.4795 20.265C85.7135 20.4643 86.0255 20.564 86.4155 20.564ZM90.6033 14.87H91.7603V12.998H93.1643V14.87H94.7893V16.092H93.1643V19.277C93.1643 19.6063 93.2293 19.8577 93.3593 20.031C93.4979 20.2043 93.7276 20.291 94.0483 20.291C94.2043 20.291 94.3429 20.2693 94.4643 20.226C94.5856 20.174 94.7069 20.1133 94.8283 20.044V21.409C94.6809 21.4697 94.5249 21.5173 94.3603 21.552C94.1956 21.5867 94.0006 21.604 93.7753 21.604C93.1599 21.604 92.6703 21.4263 92.3063 21.071C91.9423 20.707 91.7603 20.2087 91.7603 19.576V16.092H90.6033V14.87ZM96.2404 21.5V14.87H97.6444V21.5H96.2404ZM95.0964 13.219V12.14H98.8144V13.219H95.0964ZM98.8679 14.87H100.025V12.998H101.429V14.87H103.054V16.092H101.429V19.277C101.429 19.6063 101.494 19.8577 101.624 20.031C101.763 20.2043 101.992 20.291 102.313 20.291C102.469 20.291 102.608 20.2693 102.729 20.226C102.85 20.174 102.972 20.1133 103.093 20.044V21.409C102.946 21.4697 102.79 21.5173 102.625 21.552C102.46 21.5867 102.265 21.604 102.04 21.604C101.425 21.604 100.935 21.4263 100.571 21.071C100.207 20.707 100.025 20.2087 100.025 19.576V16.092H98.8679V14.87ZM107.448 21.5V12.192H108.852V21.5H107.448ZM110.611 21.5V14.87H112.015V21.5H110.611ZM111.313 13.895C111.053 13.895 110.828 13.804 110.637 13.622C110.455 13.4313 110.364 13.206 110.364 12.946C110.364 12.6773 110.455 12.4563 110.637 12.283C110.828 12.101 111.053 12.01 111.313 12.01C111.582 12.01 111.807 12.101 111.989 12.283C112.171 12.4563 112.262 12.6773 112.262 12.946C112.262 13.206 112.171 13.4313 111.989 13.622C111.807 13.804 111.582 13.895 111.313 13.895ZM116.723 21.708C116.073 21.708 115.492 21.5563 114.981 21.253C114.47 20.9497 114.067 20.5337 113.772 20.005C113.486 19.4763 113.343 18.874 113.343 18.198C113.343 17.5653 113.482 16.9803 113.759 16.443C114.036 15.9057 114.422 15.4767 114.916 15.156C115.419 14.8267 115.995 14.662 116.645 14.662C117.33 14.662 117.91 14.8093 118.387 15.104C118.872 15.3987 119.241 15.8017 119.492 16.313C119.743 16.8243 119.869 17.4007 119.869 18.042C119.869 18.1373 119.865 18.224 119.856 18.302C119.856 18.38 119.852 18.4407 119.843 18.484H114.721C114.756 18.848 114.847 19.1643 114.994 19.433C115.185 19.771 115.436 20.0267 115.748 20.2C116.06 20.3733 116.398 20.46 116.762 20.46C117.204 20.46 117.572 20.3603 117.867 20.161C118.17 19.953 118.409 19.6973 118.582 19.394L119.739 19.953C119.453 20.473 119.063 20.8977 118.569 21.227C118.075 21.5477 117.46 21.708 116.723 21.708ZM114.799 17.431H118.478C118.469 17.2663 118.426 17.093 118.348 16.911C118.27 16.7203 118.157 16.547 118.01 16.391C117.863 16.235 117.676 16.1093 117.451 16.014C117.226 15.91 116.961 15.858 116.658 15.858C116.277 15.858 115.939 15.9577 115.644 16.157C115.349 16.3477 115.12 16.6163 114.955 16.963C114.886 17.1103 114.834 17.2663 114.799 17.431ZM120.526 14.87H121.683V12.998H123.087V14.87H124.712V16.092H123.087V19.277C123.087 19.6063 123.152 19.8577 123.282 20.031C123.421 20.2043 123.65 20.291 123.971 20.291C124.127 20.291 124.266 20.2693 124.387 20.226C124.508 20.174 124.63 20.1133 124.751 20.044V21.409C124.604 21.4697 124.448 21.5173 124.283 21.552C124.118 21.5867 123.923 21.604 123.698 21.604C123.083 21.604 122.593 21.4263 122.229 21.071C121.865 20.707 121.683 20.2087 121.683 19.576V16.092H120.526V14.87ZM128.925 21.708C128.241 21.708 127.638 21.552 127.118 21.24C126.598 20.928 126.191 20.5077 125.896 19.979C125.602 19.4417 125.454 18.8437 125.454 18.185C125.454 17.5263 125.602 16.9327 125.896 16.404C126.191 15.8667 126.598 15.442 127.118 15.13C127.638 14.818 128.241 14.662 128.925 14.662C129.601 14.662 130.199 14.8223 130.719 15.143C131.239 15.455 131.647 15.8753 131.941 16.404C132.236 16.9327 132.383 17.5263 132.383 18.185C132.383 18.8437 132.236 19.4417 131.941 19.979C131.647 20.5077 131.239 20.928 130.719 21.24C130.199 21.552 129.601 21.708 128.925 21.708ZM128.925 20.421C129.289 20.421 129.627 20.3343 129.939 20.161C130.251 19.979 130.503 19.7233 130.693 19.394C130.893 19.056 130.992 18.653 130.992 18.185C130.992 17.717 130.893 17.3183 130.693 16.989C130.503 16.651 130.251 16.3953 129.939 16.222C129.627 16.04 129.289 15.949 128.925 15.949C128.561 15.949 128.219 16.04 127.898 16.222C127.586 16.3953 127.331 16.651 127.131 16.989C126.941 17.3183 126.845 17.717 126.845 18.185C126.845 18.653 126.941 19.056 127.131 19.394C127.331 19.7233 127.591 19.979 127.911 20.161C128.232 20.3343 128.57 20.421 128.925 20.421ZM133.031 14.87H134.188V12.998H135.592V14.87H137.217V16.092H135.592V19.277C135.592 19.6063 135.657 19.8577 135.787 20.031C135.926 20.2043 136.155 20.291 136.476 20.291C136.632 20.291 136.771 20.2693 136.892 20.226C137.013 20.174 137.135 20.1133 137.256 20.044V21.409C137.109 21.4697 136.953 21.5173 136.788 21.552C136.623 21.5867 136.428 21.604 136.203 21.604C135.588 21.604 135.098 21.4263 134.734 21.071C134.37 20.707 134.188 20.2087 134.188 19.576V16.092H133.031V14.87ZM138.628 21.5V14.87H139.954V15.78H140.032C140.222 15.4593 140.504 15.195 140.877 14.987C141.258 14.7703 141.674 14.662 142.125 14.662C142.939 14.662 143.55 14.9047 143.958 15.39C144.365 15.8667 144.569 16.508 144.569 17.314V21.5H143.178V17.496C143.178 16.9587 143.043 16.5687 142.775 16.326C142.506 16.0747 142.155 15.949 141.722 15.949C141.384 15.949 141.089 16.0443 140.838 16.235C140.586 16.417 140.387 16.6597 140.24 16.963C140.101 17.2663 140.032 17.5913 140.032 17.938V21.5H138.628ZM149.198 21.708C148.548 21.708 147.967 21.5563 147.456 21.253C146.944 20.9497 146.541 20.5337 146.247 20.005C145.961 19.4763 145.818 18.874 145.818 18.198C145.818 17.5653 145.956 16.9803 146.234 16.443C146.511 15.9057 146.897 15.4767 147.391 15.156C147.893 14.8267 148.47 14.662 149.12 14.662C149.804 14.662 150.385 14.8093 150.862 15.104C151.347 15.3987 151.715 15.8017 151.967 16.313C152.218 16.8243 152.344 17.4007 152.344 18.042C152.344 18.1373 152.339 18.224 152.331 18.302C152.331 18.38 152.326 18.4407 152.318 18.484H147.196C147.23 18.848 147.321 19.1643 147.469 19.433C147.659 19.771 147.911 20.0267 148.223 20.2C148.535 20.3733 148.873 20.46 149.237 20.46C149.679 20.46 150.047 20.3603 150.342 20.161C150.645 19.953 150.883 19.6973 151.057 19.394L152.214 19.953C151.928 20.473 151.538 20.8977 151.044 21.227C150.55 21.5477 149.934 21.708 149.198 21.708ZM147.274 17.431H150.953C150.944 17.2663 150.901 17.093 150.823 16.911C150.745 16.7203 150.632 16.547 150.485 16.391C150.337 16.235 150.151 16.1093 149.926 16.014C149.7 15.91 149.436 15.858 149.133 15.858C148.751 15.858 148.413 15.9577 148.119 16.157C147.824 16.3477 147.594 16.6163 147.43 16.963C147.36 17.1103 147.308 17.2663 147.274 17.431ZM147.274 13.219V12.14H150.992V13.219H147.274Z" fill="white"/>
<path d="M76.14 41.772C75.2673 41.772 74.4457 41.6133 73.675 41.296C72.9043 40.9787 72.2243 40.5367 71.635 39.97C71.057 39.392 70.598 38.7177 70.258 37.947C69.9293 37.165 69.765 36.3207 69.765 35.414C69.765 34.5073 69.9293 33.6687 70.258 32.898C70.598 32.116 71.057 31.4417 71.635 30.875C72.2243 30.297 72.9043 29.8493 73.675 29.532C74.4457 29.2147 75.2673 29.056 76.14 29.056C77.0693 29.056 77.925 29.2203 78.707 29.549C79.5003 29.8777 80.1633 30.3367 80.696 30.926L79.404 32.201C79.1433 31.9063 78.843 31.657 78.503 31.453C78.1743 31.249 77.8117 31.096 77.415 30.994C77.0183 30.8807 76.5933 30.824 76.14 30.824C75.5393 30.824 74.967 30.9317 74.423 31.147C73.879 31.3623 73.3973 31.674 72.978 32.082C72.57 32.4787 72.247 32.9603 72.009 33.527C71.771 34.0823 71.652 34.7113 71.652 35.414C71.652 36.1167 71.771 36.7513 72.009 37.318C72.2583 37.8733 72.587 38.355 72.995 38.763C73.4143 39.1597 73.896 39.4657 74.44 39.681C74.984 39.8963 75.5563 40.004 76.157 40.004C76.7123 40.004 77.228 39.9247 77.704 39.766C78.1913 39.6073 78.6163 39.3807 78.979 39.086C79.3417 38.7913 79.6363 38.4343 79.863 38.015C80.0897 37.5843 80.2313 37.1027 80.288 36.57H76.123V34.921H82.039C82.0617 35.057 82.0843 35.2157 82.107 35.397C82.1297 35.567 82.141 35.7313 82.141 35.89V35.907C82.141 36.7797 81.988 37.5787 81.682 38.304C81.3873 39.0293 80.9737 39.6527 80.441 40.174C79.9083 40.684 79.2737 41.0807 78.537 41.364C77.8117 41.636 77.0127 41.772 76.14 41.772ZM87.6149 41.772C86.7195 41.772 85.9319 41.568 85.2519 41.16C84.5719 40.752 84.0392 40.2023 83.6539 39.511C83.2685 38.8083 83.0759 38.0263 83.0759 37.165C83.0759 36.3037 83.2685 35.5273 83.6539 34.836C84.0392 34.1333 84.5719 33.578 85.2519 33.17C85.9319 32.762 86.7195 32.558 87.6149 32.558C88.4989 32.558 89.2809 32.7677 89.9609 33.187C90.6409 33.595 91.1735 34.1447 91.5589 34.836C91.9442 35.5273 92.1369 36.3037 92.1369 37.165C92.1369 38.0263 91.9442 38.8083 91.5589 39.511C91.1735 40.2023 90.6409 40.752 89.9609 41.16C89.2809 41.568 88.4989 41.772 87.6149 41.772ZM87.6149 40.089C88.0909 40.089 88.5329 39.9757 88.9409 39.749C89.3489 39.511 89.6775 39.1767 89.9269 38.746C90.1875 38.304 90.3179 37.777 90.3179 37.165C90.3179 36.553 90.1875 36.0317 89.9269 35.601C89.6775 35.159 89.3489 34.8247 88.9409 34.598C88.5329 34.36 88.0909 34.241 87.6149 34.241C87.1389 34.241 86.6912 34.36 86.2719 34.598C85.8639 34.8247 85.5295 35.159 85.2689 35.601C85.0195 36.0317 84.8949 36.553 84.8949 37.165C84.8949 37.777 85.0195 38.304 85.2689 38.746C85.5295 39.1767 85.8695 39.511 86.2889 39.749C86.7082 39.9757 87.1502 40.089 87.6149 40.089ZM97.9078 41.772C97.0125 41.772 96.2248 41.568 95.5448 41.16C94.8648 40.752 94.3322 40.2023 93.9468 39.511C93.5615 38.8083 93.3688 38.0263 93.3688 37.165C93.3688 36.3037 93.5615 35.5273 93.9468 34.836C94.3322 34.1333 94.8648 33.578 95.5448 33.17C96.2248 32.762 97.0125 32.558 97.9078 32.558C98.7918 32.558 99.5738 32.7677 100.254 33.187C100.934 33.595 101.467 34.1447 101.852 34.836C102.237 35.5273 102.43 36.3037 102.43 37.165C102.43 38.0263 102.237 38.8083 101.852 39.511C101.467 40.2023 100.934 40.752 100.254 41.16C99.5738 41.568 98.7918 41.772 97.9078 41.772ZM97.9078 40.089C98.3838 40.089 98.8258 39.9757 99.2338 39.749C99.6418 39.511 99.9705 39.1767 100.22 38.746C100.481 38.304 100.611 37.777 100.611 37.165C100.611 36.553 100.481 36.0317 100.22 35.601C99.9705 35.159 99.6418 34.8247 99.2338 34.598C98.8258 34.36 98.3838 34.241 97.9078 34.241C97.4318 34.241 96.9842 34.36 96.5648 34.598C96.1568 34.8247 95.8225 35.159 95.5618 35.601C95.3125 36.0317 95.1878 36.553 95.1878 37.165C95.1878 37.777 95.3125 38.304 95.5618 38.746C95.8225 39.1767 96.1625 39.511 96.5818 39.749C97.0012 39.9757 97.4432 40.089 97.9078 40.089ZM108.031 45.444C107.271 45.444 106.614 45.3193 106.059 45.07C105.515 44.832 105.073 44.5203 104.733 44.135C104.393 43.761 104.149 43.3757 104.002 42.979L105.702 42.265C105.883 42.7183 106.172 43.0867 106.569 43.37C106.977 43.6647 107.464 43.812 108.031 43.812C108.835 43.812 109.464 43.574 109.918 43.098C110.371 42.622 110.598 41.9477 110.598 41.075V40.242H110.496C110.224 40.6387 109.85 40.9617 109.374 41.211C108.898 41.4603 108.348 41.585 107.725 41.585C106.988 41.585 106.308 41.398 105.685 41.024C105.073 40.65 104.58 40.1287 104.206 39.46C103.843 38.78 103.662 37.9867 103.662 37.08C103.662 36.162 103.843 35.3687 104.206 34.7C104.58 34.02 105.073 33.493 105.685 33.119C106.308 32.745 106.988 32.558 107.725 32.558C108.348 32.558 108.898 32.6827 109.374 32.932C109.85 33.17 110.224 33.4987 110.496 33.918H110.598V32.83H112.349V41.041C112.349 41.9817 112.162 42.7807 111.788 43.438C111.425 44.0953 110.921 44.594 110.275 44.934C109.629 45.274 108.881 45.444 108.031 45.444ZM108.048 39.919C108.501 39.919 108.92 39.8113 109.306 39.596C109.702 39.3693 110.014 39.0463 110.241 38.627C110.479 38.1963 110.598 37.6807 110.598 37.08C110.598 36.4453 110.479 35.9183 110.241 35.499C110.014 35.0797 109.702 34.7623 109.306 34.547C108.92 34.3317 108.501 34.224 108.048 34.224C107.594 34.224 107.169 34.3317 106.773 34.547C106.387 34.7623 106.076 35.0853 105.838 35.516C105.6 35.9353 105.481 36.4567 105.481 37.08C105.481 37.692 105.6 38.2133 105.838 38.644C106.076 39.0633 106.387 39.3807 106.773 39.596C107.169 39.8113 107.594 39.919 108.048 39.919ZM114.514 41.5V29.328H116.35V41.5H114.514ZM122.392 41.772C121.542 41.772 120.783 41.5737 120.114 41.177C119.446 40.7803 118.919 40.2363 118.533 39.545C118.159 38.8537 117.972 38.066 117.972 37.182C117.972 36.3547 118.154 35.5897 118.516 34.887C118.879 34.1843 119.383 33.6233 120.029 33.204C120.687 32.7733 121.44 32.558 122.29 32.558C123.186 32.558 123.945 32.7507 124.568 33.136C125.203 33.5213 125.685 34.0483 126.013 34.717C126.342 35.3857 126.506 36.1393 126.506 36.978C126.506 37.1027 126.501 37.216 126.489 37.318C126.489 37.42 126.484 37.4993 126.472 37.556H119.774C119.82 38.032 119.939 38.4457 120.131 38.797C120.381 39.239 120.709 39.5733 121.117 39.8C121.525 40.0267 121.967 40.14 122.443 40.14C123.021 40.14 123.503 40.0097 123.888 39.749C124.285 39.477 124.597 39.1427 124.823 38.746L126.336 39.477C125.962 40.157 125.452 40.7123 124.806 41.143C124.16 41.5623 123.356 41.772 122.392 41.772ZM119.876 36.179H124.687C124.676 35.9637 124.619 35.737 124.517 35.499C124.415 35.2497 124.268 35.023 124.075 34.819C123.883 34.615 123.639 34.4507 123.344 34.326C123.05 34.19 122.704 34.122 122.307 34.122C121.809 34.122 121.367 34.2523 120.981 34.513C120.596 34.7623 120.296 35.1137 120.08 35.567C119.99 35.7597 119.922 35.9637 119.876 36.179ZM132.177 41.5V32.83H133.911V34.02H134.013C134.183 33.7367 134.404 33.4873 134.676 33.272C134.948 33.0567 135.254 32.8867 135.594 32.762C135.946 32.626 136.308 32.558 136.682 32.558C137.328 32.558 137.878 32.711 138.331 33.017C138.785 33.323 139.108 33.7083 139.3 34.173C139.584 33.7197 139.969 33.34 140.456 33.034C140.944 32.7167 141.539 32.558 142.241 32.558C143.261 32.558 144.021 32.8697 144.519 33.493C145.018 34.105 145.267 34.921 145.267 35.941V41.5H143.448V36.247C143.448 35.5443 143.295 35.0343 142.989 34.717C142.695 34.3997 142.281 34.241 141.748 34.241C141.329 34.241 140.961 34.36 140.643 34.598C140.326 34.8247 140.077 35.1363 139.895 35.533C139.725 35.9297 139.64 36.3717 139.64 36.859V41.5H137.821V36.247C137.821 35.5557 137.668 35.0513 137.362 34.734C137.056 34.4053 136.626 34.241 136.07 34.241C135.674 34.241 135.317 34.36 134.999 34.598C134.693 34.836 134.45 35.1533 134.268 35.55C134.098 35.9467 134.013 36.3887 134.013 36.876V41.5H132.177ZM149.972 41.772C149.348 41.772 148.793 41.6473 148.306 41.398C147.83 41.1487 147.45 40.8087 147.167 40.378C146.895 39.936 146.759 39.4317 146.759 38.865C146.759 38.2417 146.917 37.7147 147.235 37.284C147.563 36.8533 148 36.5247 148.544 36.298C149.088 36.0713 149.688 35.958 150.346 35.958C150.708 35.958 151.043 35.9863 151.349 36.043C151.666 36.0883 151.938 36.145 152.165 36.213C152.403 36.281 152.59 36.3547 152.726 36.434V35.975C152.726 35.4083 152.522 34.955 152.114 34.615C151.706 34.275 151.179 34.105 150.533 34.105C150.091 34.105 149.671 34.207 149.275 34.411C148.878 34.6037 148.561 34.87 148.323 35.21L147.065 34.241C147.314 33.8897 147.614 33.5893 147.966 33.34C148.328 33.0907 148.731 32.898 149.173 32.762C149.626 32.626 150.096 32.558 150.584 32.558C151.842 32.558 152.811 32.8697 153.491 33.493C154.171 34.105 154.511 34.9663 154.511 36.077V41.5H152.726V40.429H152.624C152.476 40.6557 152.272 40.871 152.012 41.075C151.762 41.279 151.462 41.4433 151.111 41.568C150.771 41.704 150.391 41.772 149.972 41.772ZM150.295 40.276C150.771 40.276 151.19 40.1627 151.553 39.936C151.927 39.7093 152.216 39.4147 152.42 39.052C152.624 38.678 152.726 38.2757 152.726 37.845C152.476 37.6977 152.17 37.5787 151.808 37.488C151.456 37.386 151.082 37.335 150.686 37.335C149.938 37.335 149.405 37.4823 149.088 37.777C148.77 38.0717 148.612 38.44 148.612 38.882C148.612 39.29 148.765 39.6243 149.071 39.885C149.377 40.1457 149.785 40.276 150.295 40.276ZM156.532 41.5V29.328H158.368V36.502L162.04 32.83H164.318V32.932L160.969 36.247L164.437 41.398V41.5H162.261L159.677 37.522L158.368 38.814V41.5H156.532ZM168.576 41.772C167.884 41.772 167.284 41.67 166.774 41.466C166.264 41.2507 165.844 40.9673 165.516 40.616C165.187 40.2533 164.943 39.8623 164.785 39.443L166.434 38.729C166.638 39.1937 166.927 39.5507 167.301 39.8C167.686 40.038 168.128 40.157 168.627 40.157C169.08 40.157 169.471 40.0777 169.8 39.919C170.128 39.749 170.293 39.477 170.293 39.103C170.293 38.865 170.213 38.6723 170.055 38.525C169.907 38.3663 169.703 38.236 169.443 38.134C169.193 38.032 168.904 37.9413 168.576 37.862L167.539 37.624C167.131 37.522 166.74 37.3633 166.366 37.148C166.003 36.9213 165.708 36.638 165.482 36.298C165.255 35.958 165.142 35.5557 165.142 35.091C165.142 34.5697 165.289 34.122 165.584 33.748C165.89 33.3627 166.298 33.068 166.808 32.864C167.318 32.66 167.867 32.558 168.457 32.558C169.001 32.558 169.494 32.6317 169.936 32.779C170.389 32.915 170.78 33.1247 171.109 33.408C171.449 33.68 171.715 34.02 171.908 34.428L170.327 35.142C170.134 34.7567 169.873 34.4903 169.545 34.343C169.216 34.1843 168.859 34.105 168.474 34.105C168.043 34.105 167.68 34.1957 167.386 34.377C167.102 34.547 166.961 34.7737 166.961 35.057C166.961 35.3517 167.085 35.584 167.335 35.754C167.595 35.924 167.913 36.06 168.287 36.162L169.545 36.468C170.406 36.6833 171.052 37.012 171.483 37.454C171.913 37.8847 172.129 38.4117 172.129 39.035C172.129 39.5903 171.97 40.0777 171.653 40.497C171.335 40.905 170.905 41.2223 170.361 41.449C169.828 41.6643 169.233 41.772 168.576 41.772Z" fill="white"/>
</svg>
