<svg width="187" height="55" viewBox="0 0 187 55" fill="none" xmlns="http://www.w3.org/2000/svg">
<rect x="0.5" y="0.5" width="186" height="54" rx="27" fill="#1F1F1F"/>
<rect x="0.5" y="0.5" width="186" height="54" rx="27" stroke="#747775"/>
<path d="M57 23.791H21V18.1455C21 15.0809 23.6422 12.5001 26.7798 12.5001H51.2202C54.3578 12.5001 57 15.0809 57 18.1455V23.791Z" fill="#34A853"/>
<path d="M57 29H21V23C21 19.7429 23.6422 17 26.7798 17H51.2202C54.3578 17 57 19.7429 57 23V29Z" fill="#FBBC04"/>
<path d="M57 34H21V28C21 24.7429 23.6422 22 26.7798 22H51.2202C54.3578 22 57 24.7429 57 28V34Z" fill="#EA4335"/>
<path d="M21 25.2409L43.8493 30.4025C46.4795 31.0477 49.4384 30.4025 51.5753 28.7895L57 24.9183V37.0157C57 40.0804 54.3699 42.4999 51.2466 42.4999H26.7534C23.6301 42.4999 21 40.0804 21 37.0157V25.2409Z" fill="#4285F4"/>
<path d="M74.46 21.708C73.7927 21.708 73.1643 21.5867 72.575 21.344C71.9857 21.1013 71.4657 20.7633 71.015 20.33C70.573 19.888 70.222 19.3723 69.962 18.783C69.7107 18.185 69.585 17.5393 69.585 16.846C69.585 16.1527 69.7107 15.5113 69.962 14.922C70.222 14.324 70.573 13.8083 71.015 13.375C71.4657 12.933 71.9857 12.5907 72.575 12.348C73.1643 12.1053 73.7927 11.984 74.46 11.984C75.1707 11.984 75.825 12.1097 76.423 12.361C77.0297 12.6123 77.5367 12.9633 77.944 13.414L76.956 14.389C76.7567 14.1637 76.527 13.973 76.267 13.817C76.0157 13.661 75.7383 13.544 75.435 13.466C75.1317 13.3793 74.8067 13.336 74.46 13.336C74.0007 13.336 73.563 13.4183 73.147 13.583C72.731 13.7477 72.3627 13.986 72.042 14.298C71.73 14.6013 71.483 14.9697 71.301 15.403C71.119 15.8277 71.028 16.3087 71.028 16.846C71.028 17.3833 71.119 17.8687 71.301 18.302C71.4917 18.7267 71.743 19.095 72.055 19.407C72.3757 19.7103 72.744 19.9443 73.16 20.109C73.576 20.2737 74.0137 20.356 74.473 20.356C74.8977 20.356 75.292 20.2953 75.656 20.174C76.0287 20.0527 76.3537 19.8793 76.631 19.654C76.9083 19.4287 77.1337 19.1557 77.307 18.835C77.4803 18.5057 77.5887 18.1373 77.632 17.73H74.447V16.469H78.971C78.9883 16.573 79.0057 16.6943 79.023 16.833C79.0403 16.963 79.049 17.0887 79.049 17.21V17.223C79.049 17.8903 78.932 18.5013 78.698 19.056C78.4727 19.6107 78.1563 20.0873 77.749 20.486C77.3417 20.876 76.8563 21.1793 76.293 21.396C75.7383 21.604 75.1273 21.708 74.46 21.708ZM83.2349 21.708C82.5502 21.708 81.9479 21.552 81.4279 21.24C80.9079 20.928 80.5006 20.5077 80.2059 19.979C79.9112 19.4417 79.7639 18.8437 79.7639 18.185C79.7639 17.5263 79.9112 16.9327 80.2059 16.404C80.5006 15.8667 80.9079 15.442 81.4279 15.13C81.9479 14.818 82.5502 14.662 83.2349 14.662C83.9109 14.662 84.5089 14.8223 85.0289 15.143C85.5489 15.455 85.9562 15.8753 86.2509 16.404C86.5456 16.9327 86.6929 17.5263 86.6929 18.185C86.6929 18.8437 86.5456 19.4417 86.2509 19.979C85.9562 20.5077 85.5489 20.928 85.0289 21.24C84.5089 21.552 83.9109 21.708 83.2349 21.708ZM83.2349 20.421C83.5989 20.421 83.9369 20.3343 84.2489 20.161C84.5609 19.979 84.8122 19.7233 85.0029 19.394C85.2022 19.056 85.3019 18.653 85.3019 18.185C85.3019 17.717 85.2022 17.3183 85.0029 16.989C84.8122 16.651 84.5609 16.3953 84.2489 16.222C83.9369 16.04 83.5989 15.949 83.2349 15.949C82.8709 15.949 82.5286 16.04 82.2079 16.222C81.8959 16.3953 81.6402 16.651 81.4409 16.989C81.2502 17.3183 81.1549 17.717 81.1549 18.185C81.1549 18.653 81.2502 19.056 81.4409 19.394C81.6402 19.7233 81.9002 19.979 82.2209 20.161C82.5416 20.3343 82.8796 20.421 83.2349 20.421ZM91.106 21.708C90.4213 21.708 89.819 21.552 89.299 21.24C88.779 20.928 88.3717 20.5077 88.077 19.979C87.7823 19.4417 87.635 18.8437 87.635 18.185C87.635 17.5263 87.7823 16.9327 88.077 16.404C88.3717 15.8667 88.779 15.442 89.299 15.13C89.819 14.818 90.4213 14.662 91.106 14.662C91.782 14.662 92.38 14.8223 92.9 15.143C93.42 15.455 93.8273 15.8753 94.122 16.404C94.4167 16.9327 94.564 17.5263 94.564 18.185C94.564 18.8437 94.4167 19.4417 94.122 19.979C93.8273 20.5077 93.42 20.928 92.9 21.24C92.38 21.552 91.782 21.708 91.106 21.708ZM91.106 20.421C91.47 20.421 91.808 20.3343 92.12 20.161C92.432 19.979 92.6833 19.7233 92.874 19.394C93.0733 19.056 93.173 18.653 93.173 18.185C93.173 17.717 93.0733 17.3183 92.874 16.989C92.6833 16.651 92.432 16.3953 92.12 16.222C91.808 16.04 91.47 15.949 91.106 15.949C90.742 15.949 90.3997 16.04 90.079 16.222C89.767 16.3953 89.5113 16.651 89.312 16.989C89.1213 17.3183 89.026 17.717 89.026 18.185C89.026 18.653 89.1213 19.056 89.312 19.394C89.5113 19.7233 89.7713 19.979 90.092 20.161C90.4127 20.3343 90.7507 20.421 91.106 20.421ZM98.8471 24.516C98.2664 24.516 97.7638 24.4207 97.3391 24.23C96.9231 24.048 96.5851 23.8097 96.3251 23.515C96.0651 23.229 95.8788 22.9343 95.7661 22.631L97.0661 22.085C97.2048 22.4317 97.4258 22.7133 97.7291 22.93C98.0411 23.1553 98.4138 23.268 98.8471 23.268C99.4624 23.268 99.9434 23.086 100.29 22.722C100.637 22.358 100.81 21.8423 100.81 21.175V20.538H100.732C100.524 20.8413 100.238 21.0883 99.8741 21.279C99.5101 21.4697 99.0898 21.565 98.6131 21.565C98.0498 21.565 97.5298 21.422 97.0531 21.136C96.5851 20.85 96.2081 20.4513 95.9221 19.94C95.6448 19.42 95.5061 18.8133 95.5061 18.12C95.5061 17.418 95.6448 16.8113 95.9221 16.3C96.2081 15.78 96.5851 15.377 97.0531 15.091C97.5298 14.805 98.0498 14.662 98.6131 14.662C99.0898 14.662 99.5101 14.7573 99.8741 14.948C100.238 15.13 100.524 15.3813 100.732 15.702H100.81V14.87H102.149V21.149C102.149 21.8683 102.006 22.4793 101.72 22.982C101.443 23.4847 101.057 23.866 100.563 24.126C100.069 24.386 99.4971 24.516 98.8471 24.516ZM98.8601 20.291C99.2068 20.291 99.5274 20.2087 99.8221 20.044C100.125 19.8707 100.364 19.6237 100.537 19.303C100.719 18.9737 100.81 18.5793 100.81 18.12C100.81 17.6347 100.719 17.2317 100.537 16.911C100.364 16.5903 100.125 16.3477 99.8221 16.183C99.5274 16.0183 99.2068 15.936 98.8601 15.936C98.5134 15.936 98.1884 16.0183 97.8851 16.183C97.5904 16.3477 97.3521 16.5947 97.1701 16.924C96.9881 17.2447 96.8971 17.6433 96.8971 18.12C96.8971 18.588 96.9881 18.9867 97.1701 19.316C97.3521 19.6367 97.5904 19.8793 97.8851 20.044C98.1884 20.2087 98.5134 20.291 98.8601 20.291ZM103.805 21.5V12.192H105.209V21.5H103.805ZM109.829 21.708C109.179 21.708 108.599 21.5563 108.087 21.253C107.576 20.9497 107.173 20.5337 106.878 20.005C106.592 19.4763 106.449 18.874 106.449 18.198C106.449 17.5653 106.588 16.9803 106.865 16.443C107.143 15.9057 107.528 15.4767 108.022 15.156C108.525 14.8267 109.101 14.662 109.751 14.662C110.436 14.662 111.017 14.8093 111.493 15.104C111.979 15.3987 112.347 15.8017 112.598 16.313C112.85 16.8243 112.975 17.4007 112.975 18.042C112.975 18.1373 112.971 18.224 112.962 18.302C112.962 18.38 112.958 18.4407 112.949 18.484H107.827C107.862 18.848 107.953 19.1643 108.1 19.433C108.291 19.771 108.542 20.0267 108.854 20.2C109.166 20.3733 109.504 20.46 109.868 20.46C110.31 20.46 110.679 20.3603 110.973 20.161C111.277 19.953 111.515 19.6973 111.688 19.394L112.845 19.953C112.559 20.473 112.169 20.8977 111.675 21.227C111.181 21.5477 110.566 21.708 109.829 21.708ZM107.905 17.431H111.584C111.576 17.2663 111.532 17.093 111.454 16.911C111.376 16.7203 111.264 16.547 111.116 16.391C110.969 16.235 110.783 16.1093 110.557 16.014C110.332 15.91 110.068 15.858 109.764 15.858C109.383 15.858 109.045 15.9577 108.75 16.157C108.456 16.3477 108.226 16.6163 108.061 16.963C107.992 17.1103 107.94 17.2663 107.905 17.431ZM118.69 21.5L116.194 12.192H117.78L119.262 18.237L119.418 19.043H119.496L119.691 18.237L121.563 12.192H122.993L124.787 18.237L124.982 19.03H125.06L125.216 18.237L126.698 12.192H128.271L125.814 21.5H124.306L122.525 15.325L122.317 14.454H122.239L122.018 15.325L120.159 21.5H118.69ZM130.881 21.708C130.405 21.708 129.98 21.6127 129.607 21.422C129.243 21.2313 128.953 20.9713 128.736 20.642C128.528 20.304 128.424 19.9183 128.424 19.485C128.424 19.0083 128.546 18.6053 128.788 18.276C129.04 17.9467 129.373 17.6953 129.789 17.522C130.205 17.3487 130.665 17.262 131.167 17.262C131.445 17.262 131.7 17.2837 131.934 17.327C132.177 17.3617 132.385 17.405 132.558 17.457C132.74 17.509 132.883 17.5653 132.987 17.626V17.275C132.987 16.8417 132.831 16.495 132.519 16.235C132.207 15.975 131.804 15.845 131.31 15.845C130.972 15.845 130.652 15.923 130.348 16.079C130.045 16.2263 129.802 16.43 129.62 16.69L128.658 15.949C128.849 15.6803 129.079 15.4507 129.347 15.26C129.625 15.0693 129.932 14.922 130.27 14.818C130.617 14.714 130.977 14.662 131.349 14.662C132.311 14.662 133.052 14.9003 133.572 15.377C134.092 15.845 134.352 16.5037 134.352 17.353V21.5H132.987V20.681H132.909C132.797 20.8543 132.641 21.019 132.441 21.175C132.251 21.331 132.021 21.4567 131.752 21.552C131.492 21.656 131.202 21.708 130.881 21.708ZM131.128 20.564C131.492 20.564 131.813 20.4773 132.09 20.304C132.376 20.1307 132.597 19.9053 132.753 19.628C132.909 19.342 132.987 19.0343 132.987 18.705C132.797 18.5923 132.563 18.5013 132.285 18.432C132.017 18.354 131.731 18.315 131.427 18.315C130.855 18.315 130.448 18.4277 130.205 18.653C129.963 18.8783 129.841 19.16 129.841 19.498C129.841 19.81 129.958 20.0657 130.192 20.265C130.426 20.4643 130.738 20.564 131.128 20.564ZM135.911 21.5V12.192H137.315V21.5H135.911ZM138.983 21.5V12.192H140.387V21.5H138.983ZM145.008 21.708C144.358 21.708 143.777 21.5563 143.266 21.253C142.755 20.9497 142.352 20.5337 142.057 20.005C141.771 19.4763 141.628 18.874 141.628 18.198C141.628 17.5653 141.767 16.9803 142.044 16.443C142.321 15.9057 142.707 15.4767 143.201 15.156C143.704 14.8267 144.28 14.662 144.93 14.662C145.615 14.662 146.195 14.8093 146.672 15.104C147.157 15.3987 147.526 15.8017 147.777 16.313C148.028 16.8243 148.154 17.4007 148.154 18.042C148.154 18.1373 148.15 18.224 148.141 18.302C148.141 18.38 148.137 18.4407 148.128 18.484H143.006C143.041 18.848 143.132 19.1643 143.279 19.433C143.47 19.771 143.721 20.0267 144.033 20.2C144.345 20.3733 144.683 20.46 145.047 20.46C145.489 20.46 145.857 20.3603 146.152 20.161C146.455 19.953 146.694 19.6973 146.867 19.394L148.024 19.953C147.738 20.473 147.348 20.8977 146.854 21.227C146.36 21.5477 145.745 21.708 145.008 21.708ZM143.084 17.431H146.763C146.754 17.2663 146.711 17.093 146.633 16.911C146.555 16.7203 146.442 16.547 146.295 16.391C146.148 16.235 145.961 16.1093 145.736 16.014C145.511 15.91 145.246 15.858 144.943 15.858C144.562 15.858 144.224 15.9577 143.929 16.157C143.634 16.3477 143.405 16.6163 143.24 16.963C143.171 17.1103 143.119 17.2663 143.084 17.431ZM148.811 14.87H149.968V12.998H151.372V14.87H152.997V16.092H151.372V19.277C151.372 19.6063 151.437 19.8577 151.567 20.031C151.706 20.2043 151.936 20.291 152.256 20.291C152.412 20.291 152.551 20.2693 152.672 20.226C152.794 20.174 152.915 20.1133 153.036 20.044V21.409C152.889 21.4697 152.733 21.5173 152.568 21.552C152.404 21.5867 152.209 21.604 151.983 21.604C151.368 21.604 150.878 21.4263 150.514 21.071C150.15 20.707 149.968 20.2087 149.968 19.576V16.092H148.811V14.87ZM154.331 18.068V16.872H158.595V18.068H154.331Z" fill="white"/>
<path d="M72.672 40.582C71.652 40.582 70.8757 40.3327 70.343 39.834C69.8103 39.3353 69.544 38.6553 69.544 37.794C69.544 37.2613 69.663 36.8023 69.901 36.417C70.139 36.0203 70.4563 35.7087 70.853 35.482C71.125 35.3233 71.4253 35.193 71.754 35.091C72.094 34.989 72.4963 34.9153 72.961 34.87C73.437 34.8247 74.0037 34.802 74.661 34.802H81.172C82.1467 34.802 82.923 34.8587 83.501 34.972C84.0903 35.0853 84.5947 35.2893 85.014 35.584C85.3427 35.8107 85.6033 36.1053 85.796 36.468C86 36.8193 86.102 37.2613 86.102 37.794C86.102 38.6553 85.847 39.3353 85.337 39.834C84.827 40.3327 84.096 40.582 83.144 40.582C82.8607 40.582 82.566 40.5707 82.26 40.548C81.9653 40.514 81.6877 40.4573 81.427 40.378L81.75 39.239C81.9087 39.2843 82.0957 39.324 82.311 39.358C82.5377 39.3807 82.7417 39.392 82.923 39.392C83.501 39.392 83.9317 39.2617 84.215 39.001C84.4983 38.729 84.64 38.3323 84.64 37.811C84.64 37.4823 84.5777 37.216 84.453 37.012C84.3283 36.7967 84.164 36.621 83.96 36.485C83.6427 36.281 83.2517 36.1507 82.787 36.094C82.3337 36.026 81.75 35.992 81.036 35.992H74.627C73.8223 35.992 73.2047 36.026 72.774 36.094C72.3547 36.1507 71.9863 36.281 71.669 36.485C71.465 36.6097 71.3007 36.7797 71.176 36.995C71.0627 37.2103 71.006 37.4653 71.006 37.76C71.006 38.134 71.074 38.4457 71.21 38.695C71.3573 38.933 71.5613 39.1087 71.822 39.222C72.0827 39.3353 72.383 39.392 72.723 39.392C73.0857 39.392 73.4483 39.3353 73.811 39.222C74.185 39.0973 74.576 38.882 74.984 38.576L75.834 39.494C75.494 39.7433 75.1597 39.9473 74.831 40.106C74.5023 40.2647 74.1623 40.3837 73.811 40.463C73.471 40.5423 73.0913 40.582 72.672 40.582ZM77.891 30.756C78.7977 30.756 79.54 30.9713 80.118 31.402C80.7073 31.8213 81.1437 32.3993 81.427 33.136C81.7103 33.8613 81.852 34.6943 81.852 35.635C81.852 36.7003 81.6933 37.6013 81.376 38.338C81.0587 39.0747 80.6053 39.6357 80.016 40.021C79.4267 40.395 78.724 40.582 77.908 40.582C77.296 40.582 76.7407 40.48 76.242 40.276C75.7547 40.0607 75.3353 39.7433 74.984 39.324C74.6327 38.9047 74.3607 38.389 74.168 37.777C73.9867 37.1537 73.896 36.4397 73.896 35.635C73.896 34.1163 74.253 32.9263 74.967 32.065C75.681 31.1923 76.6557 30.756 77.891 30.756ZM77.891 31.946C77.0297 31.946 76.3893 32.252 75.97 32.864C75.562 33.476 75.358 34.4053 75.358 35.652C75.358 36.4907 75.4487 37.1877 75.63 37.743C75.8227 38.2983 76.106 38.712 76.48 38.984C76.854 39.256 77.313 39.392 77.857 39.392C78.4123 39.392 78.877 39.2617 79.251 39.001C79.625 38.729 79.9083 38.3153 80.101 37.76C80.2937 37.2047 80.39 36.502 80.39 35.652C80.39 34.802 80.2937 34.105 80.101 33.561C79.9197 33.0057 79.642 32.5977 79.268 32.337C78.894 32.0763 78.435 31.946 77.891 31.946ZM94.5185 35.635C94.5185 36.2923 94.4505 36.9157 94.3145 37.505C94.1898 38.0943 93.9745 38.6213 93.6685 39.086C93.3625 39.5507 92.9545 39.919 92.4445 40.191C91.9458 40.4517 91.3225 40.582 90.5745 40.582C89.9965 40.582 89.4921 40.4913 89.0615 40.31C88.6421 40.1173 88.2851 39.868 87.9905 39.562C87.7071 39.256 87.4805 38.9217 87.3105 38.559C87.1405 38.1963 87.0158 37.845 86.9365 37.505L88.4155 37.216C88.4948 37.522 88.6081 37.845 88.7555 38.185C88.9141 38.525 89.1351 38.814 89.4185 39.052C89.7131 39.2787 90.0928 39.392 90.5575 39.392C91.1581 39.392 91.6341 39.2333 91.9855 38.916C92.3481 38.5987 92.6088 38.1623 92.7675 37.607C92.9375 37.0403 93.0225 36.3887 93.0225 35.652C93.0225 34.9153 92.9375 34.2693 92.7675 33.714C92.6088 33.1587 92.3538 32.728 92.0025 32.422C91.6511 32.1047 91.1978 31.946 90.6425 31.946C90.2005 31.946 89.8321 32.065 89.5375 32.303C89.2428 32.5297 89.0105 32.8073 88.8405 33.136C88.6705 33.4647 88.5458 33.782 88.4665 34.088L87.0045 33.799C87.1065 33.4363 87.2481 33.0793 87.4295 32.728C87.6221 32.3653 87.8658 32.0367 88.1605 31.742C88.4551 31.4473 88.8121 31.2093 89.2315 31.028C89.6621 30.8467 90.1665 30.756 90.7445 30.756C91.4471 30.756 92.0365 30.892 92.5125 31.164C92.9998 31.4247 93.3908 31.7873 93.6855 32.252C93.9801 32.7053 94.1898 33.2267 94.3145 33.816C94.4505 34.394 94.5185 35.0003 94.5185 35.635ZM101.3 30.756C102.252 30.756 103.011 30.909 103.578 31.215C104.145 31.521 104.621 31.9177 105.006 32.405L104.768 32.354C105.131 31.8213 105.567 31.4247 106.077 31.164C106.598 30.892 107.171 30.756 107.794 30.756C108.553 30.756 109.165 30.8977 109.63 31.181C110.106 31.4643 110.486 31.8553 110.769 32.354L110.565 32.473C110.996 31.8383 111.455 31.3963 111.942 31.147C112.429 30.8863 113.019 30.756 113.71 30.756C114.583 30.756 115.325 30.9657 115.937 31.385C116.549 31.793 117.014 32.3483 117.331 33.051C117.648 33.7537 117.807 34.5413 117.807 35.414C117.807 36.162 117.705 36.842 117.501 37.454C117.308 38.0547 117.014 38.6043 116.617 39.103C116.232 39.6017 115.75 40.0777 115.172 40.531L114.271 39.477C114.668 39.1937 115.019 38.865 115.325 38.491C115.631 38.1057 115.869 37.6637 116.039 37.165C116.22 36.655 116.311 36.0713 116.311 35.414C116.311 34.7567 116.203 34.173 115.988 33.663C115.773 33.1417 115.467 32.7337 115.07 32.439C114.685 32.133 114.226 31.98 113.693 31.98C113.251 31.98 112.871 32.0593 112.554 32.218C112.248 32.3767 112.004 32.6203 111.823 32.949C111.676 33.2097 111.574 33.5213 111.517 33.884C111.472 34.2467 111.449 34.7793 111.449 35.482V40.378H109.987V35.006C109.987 34.3827 109.942 33.884 109.851 33.51C109.772 33.1247 109.619 32.813 109.392 32.575C109.222 32.3823 109.007 32.235 108.746 32.133C108.485 32.031 108.162 31.98 107.777 31.98C107.426 31.98 107.12 32.0423 106.859 32.167C106.598 32.2803 106.377 32.4333 106.196 32.626C105.981 32.864 105.822 33.17 105.72 33.544C105.618 33.918 105.567 34.4563 105.567 35.159V40.378H104.105V35.295C104.105 34.5583 104.043 33.9917 103.918 33.595C103.793 33.187 103.601 32.864 103.34 32.626C103.102 32.4107 102.813 32.252 102.473 32.15C102.144 32.0367 101.748 31.98 101.283 31.98C100.467 31.98 99.7585 32.1727 99.1579 32.558C98.5685 32.932 98.1095 33.4477 97.7809 34.105C97.4635 34.751 97.3049 35.4877 97.3049 36.315V36.502C97.3049 37.1367 97.3899 37.6693 97.5599 38.1C97.7299 38.5307 97.9622 38.8537 98.2569 39.069C98.5629 39.2843 98.9199 39.392 99.3279 39.392C99.6112 39.392 99.8605 39.3297 100.076 39.205C100.291 39.069 100.461 38.8763 100.586 38.627C100.711 38.3777 100.773 38.0717 100.773 37.709C100.773 37.1423 100.626 36.7173 100.331 36.434C100.036 36.1393 99.6509 35.992 99.1749 35.992C98.7329 35.992 98.3135 36.1053 97.9169 36.332C97.5202 36.5587 97.1575 36.8533 96.8289 37.216L96.5739 36.162C96.9025 35.754 97.3219 35.4253 97.8319 35.176C98.3419 34.9267 98.8745 34.802 99.4299 34.802C99.9739 34.802 100.45 34.9097 100.858 35.125C101.277 35.3403 101.6 35.6577 101.827 36.077C102.065 36.485 102.184 36.9837 102.184 37.573C102.184 38.1963 102.065 38.7347 101.827 39.188C101.589 39.6413 101.255 39.987 100.824 40.225C100.393 40.463 99.8832 40.582 99.2939 40.582C98.7045 40.582 98.1492 40.4347 97.6279 40.14C97.1179 39.8453 96.7042 39.3807 96.3869 38.746C96.0809 38.1113 95.9279 37.2897 95.9279 36.281C95.9279 35.0797 96.1659 34.071 96.6419 33.255C97.1292 32.439 97.7752 31.8213 98.5799 31.402C99.3959 30.9713 100.303 30.756 101.3 30.756ZM121.108 44.237C120.156 44.237 119.402 43.9593 118.847 43.404C118.303 42.86 118.031 42.1517 118.031 41.279C118.031 40.701 118.161 40.191 118.422 39.749C118.682 39.307 119.045 38.9613 119.51 38.712C119.974 38.4627 120.501 38.338 121.091 38.338C121.703 38.338 122.235 38.457 122.689 38.695C123.153 38.933 123.516 39.273 123.777 39.715C124.037 40.1457 124.168 40.667 124.168 41.279C124.168 41.8797 124.037 42.401 123.777 42.843C123.516 43.285 123.153 43.625 122.689 43.863C122.235 44.1123 121.708 44.237 121.108 44.237ZM121.108 43.115C121.572 43.115 121.963 42.962 122.281 42.656C122.609 42.35 122.774 41.891 122.774 41.279C122.774 40.6783 122.615 40.225 122.298 39.919C121.98 39.613 121.578 39.46 121.091 39.46C120.615 39.46 120.218 39.613 119.901 39.919C119.583 40.225 119.425 40.684 119.425 41.296C119.425 41.8853 119.583 42.333 119.901 42.639C120.229 42.9563 120.632 43.115 121.108 43.115ZM120.241 30.756C120.921 30.756 121.453 30.8863 121.839 31.147C122.235 31.3963 122.513 31.7363 122.672 32.167C122.842 32.5977 122.927 33.068 122.927 33.578C122.927 34.2693 122.825 35.091 122.621 36.043C122.428 36.9837 122.173 37.9527 121.856 38.95L120.496 38.695C120.779 37.7203 121.006 36.825 121.176 36.009C121.346 35.1817 121.431 34.3997 121.431 33.663C121.431 33.187 121.334 32.7903 121.142 32.473C120.96 32.1443 120.603 31.98 120.071 31.98C119.889 31.98 119.702 31.997 119.51 32.031C119.328 32.0537 119.175 32.082 119.051 32.116L118.762 30.943C118.943 30.8863 119.164 30.841 119.425 30.807C119.685 30.773 119.957 30.756 120.241 30.756ZM127.789 40.582C126.769 40.582 125.993 40.3327 125.46 39.834C124.928 39.3353 124.661 38.6553 124.661 37.794C124.661 37.2613 124.78 36.8023 125.018 36.417C125.256 36.0203 125.574 35.7087 125.97 35.482C126.242 35.3233 126.543 35.193 126.871 35.091C127.211 34.989 127.614 34.9153 128.078 34.87C128.554 34.8247 129.121 34.802 129.778 34.802H136.289C137.264 34.802 138.04 34.8587 138.618 34.972C139.208 35.0853 139.712 35.2893 140.131 35.584C140.46 35.8107 140.721 36.1053 140.913 36.468C141.117 36.8193 141.219 37.2613 141.219 37.794C141.219 38.6553 140.964 39.3353 140.454 39.834C139.944 40.3327 139.213 40.582 138.261 40.582C137.978 40.582 137.683 40.5707 137.377 40.548C137.083 40.514 136.805 40.4573 136.544 40.378L136.867 39.239C137.026 39.2843 137.213 39.324 137.428 39.358C137.655 39.3807 137.859 39.392 138.04 39.392C138.618 39.392 139.049 39.2617 139.332 39.001C139.616 38.729 139.757 38.3323 139.757 37.811C139.757 37.4823 139.695 37.216 139.57 37.012C139.446 36.7967 139.281 36.621 139.077 36.485C138.76 36.281 138.369 36.1507 137.904 36.094C137.451 36.026 136.867 35.992 136.153 35.992H129.744C128.94 35.992 128.322 36.026 127.891 36.094C127.472 36.1507 127.104 36.281 126.786 36.485C126.582 36.6097 126.418 36.7797 126.293 36.995C126.18 37.2103 126.123 37.4653 126.123 37.76C126.123 38.134 126.191 38.4457 126.327 38.695C126.475 38.933 126.679 39.1087 126.939 39.222C127.2 39.3353 127.5 39.392 127.84 39.392C128.203 39.392 128.566 39.3353 128.928 39.222C129.302 39.0973 129.693 38.882 130.101 38.576L130.951 39.494C130.611 39.7433 130.277 39.9473 129.948 40.106C129.62 40.2647 129.28 40.3837 128.928 40.463C128.588 40.5423 128.209 40.582 127.789 40.582ZM133.008 30.756C133.915 30.756 134.657 30.9713 135.235 31.402C135.825 31.8213 136.261 32.3993 136.544 33.136C136.828 33.8613 136.969 34.6943 136.969 35.635C136.969 36.7003 136.811 37.6013 136.493 38.338C136.176 39.0747 135.723 39.6357 135.133 40.021C134.544 40.395 133.841 40.582 133.025 40.582C132.413 40.582 131.858 40.48 131.359 40.276C130.872 40.0607 130.453 39.7433 130.101 39.324C129.75 38.9047 129.478 38.389 129.285 37.777C129.104 37.1537 129.013 36.4397 129.013 35.635C129.013 34.1163 129.37 32.9263 130.084 32.065C130.798 31.1923 131.773 30.756 133.008 30.756ZM133.008 31.946C132.147 31.946 131.507 32.252 131.087 32.864C130.679 33.476 130.475 34.4053 130.475 35.652C130.475 36.4907 130.566 37.1877 130.747 37.743C130.94 38.2983 131.223 38.712 131.597 38.984C131.971 39.256 132.43 39.392 132.974 39.392C133.53 39.392 133.994 39.2617 134.368 39.001C134.742 38.729 135.026 38.3153 135.218 37.76C135.411 37.2047 135.507 36.502 135.507 35.652C135.507 34.802 135.411 34.105 135.218 33.561C135.037 33.0057 134.759 32.5977 134.385 32.337C134.011 32.0763 133.552 31.946 133.008 31.946Z" fill="white"/>
</svg>
