<svg width="311" height="55" viewBox="0 0 311 55" fill="none" xmlns="http://www.w3.org/2000/svg">
<rect x="0.5" y="0.5" width="310" height="54" rx="27" fill="#1F1F1F"/>
<rect x="0.5" y="0.5" width="310" height="54" rx="27" stroke="#747775"/>
<path d="M57 23.791H21V18.1455C21 15.0809 23.6422 12.5001 26.7798 12.5001H51.2202C54.3578 12.5001 57 15.0809 57 18.1455V23.791Z" fill="#34A853"/>
<path d="M57 29H21V23C21 19.7429 23.6422 17 26.7798 17H51.2202C54.3578 17 57 19.7429 57 23V29Z" fill="#FBBC04"/>
<path d="M57 34H21V28C21 24.7429 23.6422 22 26.7798 22H51.2202C54.3578 22 57 24.7429 57 28V34Z" fill="#EA4335"/>
<path d="M21 25.2409L43.8493 30.4025C46.4795 31.0477 49.4384 30.4025 51.5753 28.7895L57 24.9183V37.0157C57 40.0804 54.3699 42.4999 51.2466 42.4999H26.7534C23.6301 42.4999 21 40.0804 21 37.0157V25.2409Z" fill="#4285F4"/>
<path d="M76.14 33.772C75.2673 33.772 74.4457 33.6133 73.675 33.296C72.9043 32.9787 72.2243 32.5367 71.635 31.97C71.057 31.392 70.598 30.7177 70.258 29.947C69.9293 29.165 69.765 28.3207 69.765 27.414C69.765 26.5073 69.9293 25.6687 70.258 24.898C70.598 24.116 71.057 23.4417 71.635 22.875C72.2243 22.297 72.9043 21.8493 73.675 21.532C74.4457 21.2147 75.2673 21.056 76.14 21.056C77.0693 21.056 77.925 21.2203 78.707 21.549C79.5003 21.8777 80.1633 22.3367 80.696 22.926L79.404 24.201C79.1433 23.9063 78.843 23.657 78.503 23.453C78.1743 23.249 77.8117 23.096 77.415 22.994C77.0183 22.8807 76.5933 22.824 76.14 22.824C75.5393 22.824 74.967 22.9317 74.423 23.147C73.879 23.3623 73.3973 23.674 72.978 24.082C72.57 24.4787 72.247 24.9603 72.009 25.527C71.771 26.0823 71.652 26.7113 71.652 27.414C71.652 28.1167 71.771 28.7513 72.009 29.318C72.2583 29.8733 72.587 30.355 72.995 30.763C73.4143 31.1597 73.896 31.4657 74.44 31.681C74.984 31.8963 75.5563 32.004 76.157 32.004C76.7123 32.004 77.228 31.9247 77.704 31.766C78.1913 31.6073 78.6163 31.3807 78.979 31.086C79.3417 30.7913 79.6363 30.4343 79.863 30.015C80.0897 29.5843 80.2313 29.1027 80.288 28.57H76.123V26.921H82.039C82.0617 27.057 82.0843 27.2157 82.107 27.397C82.1297 27.567 82.141 27.7313 82.141 27.89V27.907C82.141 28.7797 81.988 29.5787 81.682 30.304C81.3873 31.0293 80.9737 31.6527 80.441 32.174C79.9083 32.684 79.2737 33.0807 78.537 33.364C77.8117 33.636 77.0127 33.772 76.14 33.772ZM87.6149 33.772C86.7195 33.772 85.9319 33.568 85.2519 33.16C84.5719 32.752 84.0392 32.2023 83.6539 31.511C83.2685 30.8083 83.0759 30.0263 83.0759 29.165C83.0759 28.3037 83.2685 27.5273 83.6539 26.836C84.0392 26.1333 84.5719 25.578 85.2519 25.17C85.9319 24.762 86.7195 24.558 87.6149 24.558C88.4989 24.558 89.2809 24.7677 89.9609 25.187C90.6409 25.595 91.1735 26.1447 91.5589 26.836C91.9442 27.5273 92.1369 28.3037 92.1369 29.165C92.1369 30.0263 91.9442 30.8083 91.5589 31.511C91.1735 32.2023 90.6409 32.752 89.9609 33.16C89.2809 33.568 88.4989 33.772 87.6149 33.772ZM87.6149 32.089C88.0909 32.089 88.5329 31.9757 88.9409 31.749C89.3489 31.511 89.6775 31.1767 89.9269 30.746C90.1875 30.304 90.3179 29.777 90.3179 29.165C90.3179 28.553 90.1875 28.0317 89.9269 27.601C89.6775 27.159 89.3489 26.8247 88.9409 26.598C88.5329 26.36 88.0909 26.241 87.6149 26.241C87.1389 26.241 86.6912 26.36 86.2719 26.598C85.8639 26.8247 85.5295 27.159 85.2689 27.601C85.0195 28.0317 84.8949 28.553 84.8949 29.165C84.8949 29.777 85.0195 30.304 85.2689 30.746C85.5295 31.1767 85.8695 31.511 86.2889 31.749C86.7082 31.9757 87.1502 32.089 87.6149 32.089ZM97.9078 33.772C97.0125 33.772 96.2248 33.568 95.5448 33.16C94.8648 32.752 94.3322 32.2023 93.9468 31.511C93.5615 30.8083 93.3688 30.0263 93.3688 29.165C93.3688 28.3037 93.5615 27.5273 93.9468 26.836C94.3322 26.1333 94.8648 25.578 95.5448 25.17C96.2248 24.762 97.0125 24.558 97.9078 24.558C98.7918 24.558 99.5738 24.7677 100.254 25.187C100.934 25.595 101.467 26.1447 101.852 26.836C102.237 27.5273 102.43 28.3037 102.43 29.165C102.43 30.0263 102.237 30.8083 101.852 31.511C101.467 32.2023 100.934 32.752 100.254 33.16C99.5738 33.568 98.7918 33.772 97.9078 33.772ZM97.9078 32.089C98.3838 32.089 98.8258 31.9757 99.2338 31.749C99.6418 31.511 99.9705 31.1767 100.22 30.746C100.481 30.304 100.611 29.777 100.611 29.165C100.611 28.553 100.481 28.0317 100.22 27.601C99.9705 27.159 99.6418 26.8247 99.2338 26.598C98.8258 26.36 98.3838 26.241 97.9078 26.241C97.4318 26.241 96.9842 26.36 96.5648 26.598C96.1568 26.8247 95.8225 27.159 95.5618 27.601C95.3125 28.0317 95.1878 28.553 95.1878 29.165C95.1878 29.777 95.3125 30.304 95.5618 30.746C95.8225 31.1767 96.1625 31.511 96.5818 31.749C97.0012 31.9757 97.4432 32.089 97.9078 32.089ZM108.031 37.444C107.271 37.444 106.614 37.3193 106.059 37.07C105.515 36.832 105.073 36.5203 104.733 36.135C104.393 35.761 104.149 35.3757 104.002 34.979L105.702 34.265C105.883 34.7183 106.172 35.0867 106.569 35.37C106.977 35.6647 107.464 35.812 108.031 35.812C108.835 35.812 109.464 35.574 109.918 35.098C110.371 34.622 110.598 33.9477 110.598 33.075V32.242H110.496C110.224 32.6387 109.85 32.9617 109.374 33.211C108.898 33.4603 108.348 33.585 107.725 33.585C106.988 33.585 106.308 33.398 105.685 33.024C105.073 32.65 104.58 32.1287 104.206 31.46C103.843 30.78 103.662 29.9867 103.662 29.08C103.662 28.162 103.843 27.3687 104.206 26.7C104.58 26.02 105.073 25.493 105.685 25.119C106.308 24.745 106.988 24.558 107.725 24.558C108.348 24.558 108.898 24.6827 109.374 24.932C109.85 25.17 110.224 25.4987 110.496 25.918H110.598V24.83H112.349V33.041C112.349 33.9817 112.162 34.7807 111.788 35.438C111.425 36.0953 110.921 36.594 110.275 36.934C109.629 37.274 108.881 37.444 108.031 37.444ZM108.048 31.919C108.501 31.919 108.92 31.8113 109.306 31.596C109.702 31.3693 110.014 31.0463 110.241 30.627C110.479 30.1963 110.598 29.6807 110.598 29.08C110.598 28.4453 110.479 27.9183 110.241 27.499C110.014 27.0797 109.702 26.7623 109.306 26.547C108.92 26.3317 108.501 26.224 108.048 26.224C107.594 26.224 107.169 26.3317 106.773 26.547C106.387 26.7623 106.076 27.0853 105.838 27.516C105.6 27.9353 105.481 28.4567 105.481 29.08C105.481 29.692 105.6 30.2133 105.838 30.644C106.076 31.0633 106.387 31.3807 106.773 31.596C107.169 31.8113 107.594 31.919 108.048 31.919ZM114.514 33.5V21.328H116.35V33.5H114.514ZM122.392 33.772C121.542 33.772 120.783 33.5737 120.114 33.177C119.446 32.7803 118.919 32.2363 118.533 31.545C118.159 30.8537 117.972 30.066 117.972 29.182C117.972 28.3547 118.154 27.5897 118.516 26.887C118.879 26.1843 119.383 25.6233 120.029 25.204C120.687 24.7733 121.44 24.558 122.29 24.558C123.186 24.558 123.945 24.7507 124.568 25.136C125.203 25.5213 125.685 26.0483 126.013 26.717C126.342 27.3857 126.506 28.1393 126.506 28.978C126.506 29.1027 126.501 29.216 126.489 29.318C126.489 29.42 126.484 29.4993 126.472 29.556H119.774C119.82 30.032 119.939 30.4457 120.131 30.797C120.381 31.239 120.709 31.5733 121.117 31.8C121.525 32.0267 121.967 32.14 122.443 32.14C123.021 32.14 123.503 32.0097 123.888 31.749C124.285 31.477 124.597 31.1427 124.823 30.746L126.336 31.477C125.962 32.157 125.452 32.7123 124.806 33.143C124.16 33.5623 123.356 33.772 122.392 33.772ZM119.876 28.179H124.687C124.676 27.9637 124.619 27.737 124.517 27.499C124.415 27.2497 124.268 27.023 124.075 26.819C123.883 26.615 123.639 26.4507 123.344 26.326C123.05 26.19 122.704 26.122 122.307 26.122C121.809 26.122 121.367 26.2523 120.981 26.513C120.596 26.7623 120.296 27.1137 120.08 27.567C119.99 27.7597 119.922 27.9637 119.876 28.179ZM133.979 33.5L130.715 21.328H132.789L134.727 29.233L134.931 30.287H135.033L135.288 29.233L137.736 21.328H139.606L141.952 29.233L142.207 30.27H142.309L142.513 29.233L144.451 21.328H146.508L143.295 33.5H141.323L138.994 25.425L138.722 24.286H138.62L138.331 25.425L135.9 33.5H133.979ZM149.922 33.772C149.299 33.772 148.743 33.6473 148.256 33.398C147.78 33.1487 147.4 32.8087 147.117 32.378C146.845 31.936 146.709 31.4317 146.709 30.865C146.709 30.2417 146.868 29.7147 147.185 29.284C147.514 28.8533 147.95 28.5247 148.494 28.298C149.038 28.0713 149.639 27.958 150.296 27.958C150.659 27.958 150.993 27.9863 151.299 28.043C151.616 28.0883 151.888 28.145 152.115 28.213C152.353 28.281 152.54 28.3547 152.676 28.434V27.975C152.676 27.4083 152.472 26.955 152.064 26.615C151.656 26.275 151.129 26.105 150.483 26.105C150.041 26.105 149.622 26.207 149.225 26.411C148.828 26.6037 148.511 26.87 148.273 27.21L147.015 26.241C147.264 25.8897 147.565 25.5893 147.916 25.34C148.279 25.0907 148.681 24.898 149.123 24.762C149.576 24.626 150.047 24.558 150.534 24.558C151.792 24.558 152.761 24.8697 153.441 25.493C154.121 26.105 154.461 26.9663 154.461 28.077V33.5H152.676V32.429H152.574C152.427 32.6557 152.223 32.871 151.962 33.075C151.713 33.279 151.412 33.4433 151.061 33.568C150.721 33.704 150.341 33.772 149.922 33.772ZM150.245 32.276C150.721 32.276 151.14 32.1627 151.503 31.936C151.877 31.7093 152.166 31.4147 152.37 31.052C152.574 30.678 152.676 30.2757 152.676 29.845C152.427 29.6977 152.121 29.5787 151.758 29.488C151.407 29.386 151.033 29.335 150.636 29.335C149.888 29.335 149.355 29.4823 149.038 29.777C148.721 30.0717 148.562 30.44 148.562 30.882C148.562 31.29 148.715 31.6243 149.021 31.885C149.327 32.1457 149.735 32.276 150.245 32.276ZM156.499 33.5V21.328H158.335V33.5H156.499ZM160.517 33.5V21.328H162.353V33.5H160.517ZM168.395 33.772C167.545 33.772 166.786 33.5737 166.117 33.177C165.449 32.7803 164.922 32.2363 164.536 31.545C164.162 30.8537 163.975 30.066 163.975 29.182C163.975 28.3547 164.157 27.5897 164.519 26.887C164.882 26.1843 165.386 25.6233 166.032 25.204C166.69 24.7733 167.443 24.558 168.293 24.558C169.189 24.558 169.948 24.7507 170.571 25.136C171.206 25.5213 171.688 26.0483 172.016 26.717C172.345 27.3857 172.509 28.1393 172.509 28.978C172.509 29.1027 172.504 29.216 172.492 29.318C172.492 29.42 172.487 29.4993 172.475 29.556H165.777C165.823 30.032 165.942 30.4457 166.134 30.797C166.384 31.239 166.712 31.5733 167.12 31.8C167.528 32.0267 167.97 32.14 168.446 32.14C169.024 32.14 169.506 32.0097 169.891 31.749C170.288 31.477 170.6 31.1427 170.826 30.746L172.339 31.477C171.965 32.157 171.455 32.7123 170.809 33.143C170.163 33.5623 169.359 33.772 168.395 33.772ZM165.879 28.179H170.69C170.679 27.9637 170.622 27.737 170.52 27.499C170.418 27.2497 170.271 27.023 170.078 26.819C169.886 26.615 169.642 26.4507 169.347 26.326C169.053 26.19 168.707 26.122 168.31 26.122C167.812 26.122 167.37 26.2523 166.984 26.513C166.599 26.7623 166.299 27.1137 166.083 27.567C165.993 27.7597 165.925 27.9637 165.879 28.179ZM173.369 24.83H174.882V22.382H176.718V24.83H178.843V26.428H176.718V30.593C176.718 31.0237 176.803 31.3523 176.973 31.579C177.154 31.8057 177.454 31.919 177.874 31.919C178.078 31.919 178.259 31.8907 178.418 31.834C178.576 31.766 178.735 31.6867 178.894 31.596V33.381C178.701 33.4603 178.497 33.5227 178.282 33.568C178.066 33.6133 177.811 33.636 177.517 33.636C176.712 33.636 176.072 33.4037 175.596 32.939C175.12 32.463 174.882 31.8113 174.882 30.984V26.428H173.369V24.83ZM183.909 36.084V31.902H184.861C185.042 31.6753 185.207 31.3637 185.354 30.967C185.501 30.5703 185.615 30.117 185.694 29.607C185.773 29.097 185.813 28.5813 185.813 28.06V24.83H192.307V31.902H193.565V36.084H191.882V33.5H185.609V36.084H183.909ZM186.833 31.902H190.488V26.428H187.547V28.213C187.547 28.7343 187.519 29.2103 187.462 29.641C187.417 30.0717 187.337 30.4627 187.224 30.814C187.122 31.1653 186.992 31.494 186.833 31.8V31.902ZM203.068 29.165C203.068 30.049 202.875 30.8423 202.49 31.545C202.116 32.2363 201.595 32.7803 200.926 33.177C200.257 33.5737 199.487 33.772 198.614 33.772C197.605 33.772 196.767 33.5453 196.098 33.092C195.441 32.6387 194.953 32.0663 194.636 31.375L196.268 30.661C196.472 31.137 196.772 31.5053 197.169 31.766C197.577 32.0267 198.076 32.157 198.665 32.157C199.084 32.157 199.498 32.055 199.906 31.851C200.314 31.6357 200.654 31.3013 200.926 30.848C201.096 30.5533 201.209 30.2077 201.266 29.811H197.577V28.434H201.266C201.209 28.0487 201.096 27.72 200.926 27.448C200.665 27.0173 200.331 26.7057 199.923 26.513C199.526 26.309 199.118 26.207 198.699 26.207C198.144 26.207 197.662 26.3317 197.254 26.581C196.857 26.819 196.546 27.1647 196.319 27.618L194.67 26.938C195.033 26.2127 195.531 25.6347 196.166 25.204C196.812 24.7733 197.639 24.558 198.648 24.558C199.509 24.558 200.274 24.762 200.943 25.17C201.612 25.5667 202.133 26.1107 202.507 26.802C202.881 27.4933 203.068 28.281 203.068 29.165ZM212.614 29.165C212.614 30.049 212.421 30.8423 212.036 31.545C211.662 32.2363 211.141 32.7803 210.472 33.177C209.803 33.5737 209.033 33.772 208.16 33.772C207.151 33.772 206.313 33.5453 205.644 33.092C204.987 32.6387 204.499 32.0663 204.182 31.375L205.814 30.661C206.018 31.137 206.318 31.5053 206.715 31.766C207.123 32.0267 207.622 32.157 208.211 32.157C208.63 32.157 209.044 32.055 209.452 31.851C209.86 31.6357 210.2 31.3013 210.472 30.848C210.642 30.5533 210.755 30.2077 210.812 29.811H207.123V28.434H210.812C210.755 28.0487 210.642 27.72 210.472 27.448C210.211 27.0173 209.877 26.7057 209.469 26.513C209.072 26.309 208.664 26.207 208.245 26.207C207.69 26.207 207.208 26.3317 206.8 26.581C206.403 26.819 206.092 27.1647 205.865 27.618L204.216 26.938C204.579 26.2127 205.077 25.6347 205.712 25.204C206.358 24.7733 207.185 24.558 208.194 24.558C209.055 24.558 209.82 24.762 210.489 25.17C211.158 25.5667 211.679 26.1107 212.053 26.802C212.427 27.4933 212.614 28.281 212.614 29.165ZM214.189 37.172V24.83H215.906V26.003H216.008C216.166 25.7537 216.376 25.5213 216.637 25.306C216.909 25.0793 217.226 24.898 217.589 24.762C217.951 24.626 218.354 24.558 218.796 24.558C219.589 24.558 220.297 24.7563 220.921 25.153C221.544 25.5497 222.037 26.0937 222.4 26.785C222.774 27.4763 222.961 28.2697 222.961 29.165C222.961 30.0603 222.774 30.8537 222.4 31.545C222.037 32.2363 221.544 32.7803 220.921 33.177C220.297 33.5737 219.589 33.772 218.796 33.772C218.138 33.772 217.566 33.6247 217.079 33.33C216.591 33.0353 216.234 32.7067 216.008 32.344H215.906L216.008 33.551V37.172H214.189ZM218.524 32.089C218.977 32.089 219.402 31.97 219.799 31.732C220.207 31.494 220.53 31.154 220.768 30.712C221.017 30.27 221.142 29.7543 221.142 29.165C221.142 28.5643 221.017 28.0487 220.768 27.618C220.53 27.176 220.207 26.836 219.799 26.598C219.402 26.36 218.977 26.241 218.524 26.241C218.07 26.241 217.645 26.36 217.249 26.598C216.852 26.836 216.529 27.176 216.28 27.618C216.03 28.0487 215.906 28.5643 215.906 29.165C215.906 29.7657 216.03 30.287 216.28 30.729C216.529 31.1597 216.852 31.494 217.249 31.732C217.645 31.97 218.07 32.089 218.524 32.089ZM232.486 29.165C232.486 30.049 232.293 30.8423 231.908 31.545C231.534 32.2363 231.013 32.7803 230.344 33.177C229.675 33.5737 228.905 33.772 228.032 33.772C227.023 33.772 226.185 33.5453 225.516 33.092C224.859 32.6387 224.371 32.0663 224.054 31.375L225.686 30.661C225.89 31.137 226.19 31.5053 226.587 31.766C226.995 32.0267 227.494 32.157 228.083 32.157C228.502 32.157 228.916 32.055 229.324 31.851C229.732 31.6357 230.072 31.3013 230.344 30.848C230.514 30.5533 230.627 30.2077 230.684 29.811H226.995V28.434H230.684C230.627 28.0487 230.514 27.72 230.344 27.448C230.083 27.0173 229.749 26.7057 229.341 26.513C228.944 26.309 228.536 26.207 228.117 26.207C227.562 26.207 227.08 26.3317 226.672 26.581C226.275 26.819 225.964 27.1647 225.737 27.618L224.088 26.938C224.451 26.2127 224.949 25.6347 225.584 25.204C226.23 24.7733 227.057 24.558 228.066 24.558C228.927 24.558 229.692 24.762 230.361 25.17C231.03 25.5667 231.551 26.1107 231.925 26.802C232.299 27.4933 232.486 28.281 232.486 29.165ZM242.032 29.165C242.032 30.049 241.839 30.8423 241.454 31.545C241.08 32.2363 240.559 32.7803 239.89 33.177C239.221 33.5737 238.451 33.772 237.578 33.772C236.569 33.772 235.731 33.5453 235.062 33.092C234.405 32.6387 233.917 32.0663 233.6 31.375L235.232 30.661C235.436 31.137 235.736 31.5053 236.133 31.766C236.541 32.0267 237.04 32.157 237.629 32.157C238.048 32.157 238.462 32.055 238.87 31.851C239.278 31.6357 239.618 31.3013 239.89 30.848C240.06 30.5533 240.173 30.2077 240.23 29.811H236.541V28.434H240.23C240.173 28.0487 240.06 27.72 239.89 27.448C239.629 27.0173 239.295 26.7057 238.887 26.513C238.49 26.309 238.082 26.207 237.663 26.207C237.108 26.207 236.626 26.3317 236.218 26.581C235.821 26.819 235.51 27.1647 235.283 27.618L233.634 26.938C233.997 26.2127 234.495 25.6347 235.13 25.204C235.776 24.7733 236.603 24.558 237.612 24.558C238.473 24.558 239.238 24.762 239.907 25.17C240.576 25.5667 241.097 26.1107 241.471 26.802C241.845 27.4933 242.032 28.281 242.032 29.165ZM247.719 33.772C246.846 33.772 246.07 33.5737 245.39 33.177C244.721 32.7803 244.194 32.2363 243.809 31.545C243.435 30.8423 243.248 30.049 243.248 29.165C243.248 28.281 243.435 27.4933 243.809 26.802C244.194 26.1107 244.721 25.5667 245.39 25.17C246.07 24.762 246.846 24.558 247.719 24.558C248.682 24.558 249.492 24.7733 250.15 25.204C250.818 25.6347 251.294 26.2183 251.578 26.955L249.912 27.635C249.708 27.1703 249.413 26.8247 249.028 26.598C248.654 26.36 248.206 26.241 247.685 26.241C247.209 26.241 246.772 26.3657 246.376 26.615C245.979 26.853 245.662 27.1873 245.424 27.618C245.186 28.0487 245.067 28.5643 245.067 29.165C245.067 29.7543 245.186 30.27 245.424 30.712C245.662 31.154 245.979 31.494 246.376 31.732C246.772 31.97 247.209 32.089 247.685 32.089C248.24 32.089 248.71 31.9643 249.096 31.715C249.481 31.4657 249.781 31.1143 249.997 30.661L251.629 31.375C251.311 32.0663 250.818 32.6387 250.15 33.092C249.492 33.5453 248.682 33.772 247.719 33.772ZM259.721 37.172V33.5L256.219 24.83H258.242L260.656 31.307H260.673L263.121 24.83H265.11L261.557 33.5V37.172H259.721ZM269.312 33.772C268.848 33.772 268.372 33.7153 267.884 33.602C267.408 33.4887 266.966 33.296 266.558 33.024C266.15 32.7407 265.805 32.3497 265.521 31.851L266.983 31.001C267.301 31.443 267.663 31.749 268.071 31.919C268.491 32.0777 268.904 32.157 269.312 32.157C269.902 32.157 270.349 32.0437 270.655 31.817C270.961 31.5903 271.114 31.2957 271.114 30.933C271.114 30.6157 270.973 30.3607 270.689 30.168C270.417 29.964 270.032 29.862 269.533 29.862H268.122V28.417H269.533C269.964 28.417 270.293 28.315 270.519 28.111C270.757 27.907 270.876 27.6463 270.876 27.329C270.876 26.955 270.718 26.6603 270.4 26.445C270.083 26.2183 269.681 26.105 269.193 26.105C268.763 26.105 268.349 26.1957 267.952 26.377C267.556 26.547 267.255 26.7793 267.051 27.074L265.691 26.173C265.952 25.833 266.264 25.544 266.626 25.306C266.989 25.068 267.386 24.8867 267.816 24.762C268.258 24.626 268.723 24.558 269.21 24.558C269.856 24.558 270.434 24.6657 270.944 24.881C271.454 25.0963 271.857 25.3967 272.151 25.782C272.457 26.156 272.61 26.5923 272.61 27.091C272.61 27.5217 272.503 27.907 272.287 28.247C272.072 28.587 271.789 28.8363 271.437 28.995V29.097C271.879 29.2783 272.236 29.5503 272.508 29.913C272.78 30.2757 272.916 30.6893 272.916 31.154C272.916 31.664 272.763 32.1173 272.457 32.514C272.163 32.9107 271.743 33.2223 271.199 33.449C270.667 33.6643 270.038 33.772 269.312 33.772ZM282.374 29.165C282.374 30.049 282.181 30.8423 281.796 31.545C281.422 32.2363 280.9 32.7803 280.232 33.177C279.563 33.5737 278.792 33.772 277.92 33.772C276.911 33.772 276.072 33.5453 275.404 33.092C274.746 32.6387 274.259 32.0663 273.942 31.375L275.574 30.661C275.778 31.137 276.078 31.5053 276.475 31.766C276.883 32.0267 277.381 32.157 277.971 32.157C278.39 32.157 278.804 32.055 279.212 31.851C279.62 31.6357 279.96 31.3013 280.232 30.848C280.402 30.5533 280.515 30.2077 280.572 29.811H276.883V28.434H280.572C280.515 28.0487 280.402 27.72 280.232 27.448C279.971 27.0173 279.637 26.7057 279.229 26.513C278.832 26.309 278.424 26.207 278.005 26.207C277.449 26.207 276.968 26.3317 276.56 26.581C276.163 26.819 275.851 27.1647 275.625 27.618L273.976 26.938C274.338 26.2127 274.837 25.6347 275.472 25.204C276.118 24.7733 276.945 24.558 277.954 24.558C278.815 24.558 279.58 24.762 280.249 25.17C280.917 25.5667 281.439 26.1107 281.813 26.802C282.187 27.4933 282.374 28.281 282.374 29.165ZM282.95 33.5L285.993 29.097L283.001 24.83H285.126L287.098 27.72L288.968 24.83H291.178L288.135 29.097L291.195 33.5H289.053L287.064 30.525L285.109 33.5H282.95Z" fill="white"/>
</svg>
