<svg width="199" height="55" viewBox="0 0 199 55" fill="none" xmlns="http://www.w3.org/2000/svg">
<rect x="0.5" y="0.5" width="198" height="54" rx="27" fill="#1F1F1F"/>
<rect x="0.5" y="0.5" width="198" height="54" rx="27" stroke="#747775"/>
<path d="M57 23.791H21V18.1455C21 15.0809 23.6422 12.5001 26.7798 12.5001H51.2202C54.3578 12.5001 57 15.0809 57 18.1455V23.791Z" fill="#34A853"/>
<path d="M57 29H21V23C21 19.7429 23.6422 17 26.7798 17H51.2202C54.3578 17 57 19.7429 57 23V29Z" fill="#FBBC04"/>
<path d="M57 34H21V28C21 24.7429 23.6422 22 26.7798 22H51.2202C54.3578 22 57 24.7429 57 28V34Z" fill="#EA4335"/>
<path d="M21 25.2409L43.8493 30.4025C46.4795 31.0477 49.4384 30.4025 51.5753 28.7895L57 24.9183V37.0157C57 40.0804 54.3699 42.4999 51.2466 42.4999H26.7534C23.6301 42.4999 21 40.0804 21 37.0157V25.2409Z" fill="#4285F4"/>
<path d="M70.053 21.5V12.192H71.483V20.148H75.487V21.5H70.053ZM76.8166 21.5V14.87H78.2206V21.5H76.8166ZM77.5186 13.895C77.2586 13.895 77.0332 13.804 76.8426 13.622C76.6606 13.4313 76.5696 13.206 76.5696 12.946C76.5696 12.6773 76.6606 12.4563 76.8426 12.283C77.0332 12.101 77.2586 12.01 77.5186 12.01C77.7872 12.01 78.0126 12.101 78.1946 12.283C78.3766 12.4563 78.4676 12.6773 78.4676 12.946C78.4676 13.206 78.3766 13.4313 78.1946 13.622C78.0126 13.804 77.7872 13.895 77.5186 13.895ZM79.9626 21.5V12.192H81.3666V14.74L81.2886 15.78H81.3666C81.5486 15.4593 81.8259 15.195 82.1986 14.987C82.5799 14.7703 83.0002 14.662 83.4596 14.662C84.0142 14.662 84.4736 14.7747 84.8376 15C85.2102 15.2253 85.4876 15.5373 85.6696 15.936C85.8516 16.326 85.9426 16.7853 85.9426 17.314V21.5H84.5516V17.496C84.5516 17.1407 84.4822 16.8503 84.3436 16.625C84.2136 16.3997 84.0402 16.2307 83.8236 16.118C83.6069 16.0053 83.3642 15.949 83.0956 15.949C82.7576 15.949 82.4586 16.0443 82.1986 16.235C81.9386 16.4257 81.7349 16.677 81.5876 16.989C81.4402 17.2923 81.3666 17.6173 81.3666 17.964V21.5H79.9626ZM89.5582 21.708C89.0815 21.708 88.6568 21.6127 88.2842 21.422C87.9202 21.2313 87.6298 20.9713 87.4132 20.642C87.2052 20.304 87.1012 19.9183 87.1012 19.485C87.1012 19.0083 87.2225 18.6053 87.4652 18.276C87.7165 17.9467 88.0502 17.6953 88.4662 17.522C88.8822 17.3487 89.3415 17.262 89.8442 17.262C90.1215 17.262 90.3772 17.2837 90.6112 17.327C90.8538 17.3617 91.0618 17.405 91.2352 17.457C91.4172 17.509 91.5602 17.5653 91.6642 17.626V17.275C91.6642 16.8417 91.5082 16.495 91.1962 16.235C90.8842 15.975 90.4812 15.845 89.9872 15.845C89.6492 15.845 89.3285 15.923 89.0252 16.079C88.7218 16.2263 88.4792 16.43 88.2972 16.69L87.3352 15.949C87.5258 15.6803 87.7555 15.4507 88.0242 15.26C88.3015 15.0693 88.6092 14.922 88.9472 14.818C89.2938 14.714 89.6535 14.662 90.0262 14.662C90.9882 14.662 91.7292 14.9003 92.2492 15.377C92.7692 15.845 93.0292 16.5037 93.0292 17.353V21.5H91.6642V20.681H91.5862C91.4735 20.8543 91.3175 21.019 91.1182 21.175C90.9275 21.331 90.6978 21.4567 90.4292 21.552C90.1692 21.656 89.8788 21.708 89.5582 21.708ZM89.8052 20.564C90.1692 20.564 90.4898 20.4773 90.7672 20.304C91.0532 20.1307 91.2742 19.9053 91.4302 19.628C91.5862 19.342 91.6642 19.0343 91.6642 18.705C91.4735 18.5923 91.2395 18.5013 90.9622 18.432C90.6935 18.354 90.4075 18.315 90.1042 18.315C89.5322 18.315 89.1248 18.4277 88.8822 18.653C88.6395 18.8783 88.5182 19.16 88.5182 19.498C88.5182 19.81 88.6352 20.0657 88.8692 20.265C89.1032 20.4643 89.4152 20.564 89.8052 20.564ZM93.9929 14.87H95.1499V12.998H96.5539V14.87H98.1789V16.092H96.5539V19.277C96.5539 19.6063 96.6189 19.8577 96.7489 20.031C96.8876 20.2043 97.1172 20.291 97.4379 20.291C97.5939 20.291 97.7326 20.2693 97.8539 20.226C97.9752 20.174 98.0966 20.1133 98.2179 20.044V21.409C98.0706 21.4697 97.9146 21.5173 97.7499 21.552C97.5852 21.5867 97.3902 21.604 97.1649 21.604C96.5496 21.604 96.0599 21.4263 95.6959 21.071C95.3319 20.707 95.1499 20.2087 95.1499 19.576V16.092H93.9929V14.87ZM105.394 21.708C104.796 21.708 104.255 21.5563 103.769 21.253C103.284 20.9497 102.903 20.5337 102.625 20.005C102.348 19.4763 102.209 18.8697 102.209 18.185C102.209 17.5003 102.348 16.8937 102.625 16.365C102.903 15.8363 103.284 15.4203 103.769 15.117C104.255 14.8137 104.796 14.662 105.394 14.662C105.741 14.662 106.053 14.714 106.33 14.818C106.608 14.922 106.846 15.0607 107.045 15.234C107.253 15.3987 107.414 15.5763 107.526 15.767H107.604L107.526 14.844V12.192H108.917V21.5H107.604V20.616H107.526C107.414 20.798 107.253 20.9757 107.045 21.149C106.846 21.3137 106.608 21.448 106.33 21.552C106.053 21.656 105.741 21.708 105.394 21.708ZM105.602 20.421C105.949 20.421 106.274 20.33 106.577 20.148C106.889 19.966 107.136 19.7103 107.318 19.381C107.509 19.043 107.604 18.6443 107.604 18.185C107.604 17.7257 107.509 17.3313 107.318 17.002C107.136 16.664 106.889 16.404 106.577 16.222C106.274 16.04 105.949 15.949 105.602 15.949C105.256 15.949 104.931 16.04 104.627 16.222C104.324 16.404 104.077 16.664 103.886 17.002C103.696 17.3313 103.6 17.7257 103.6 18.185C103.6 18.6357 103.696 19.03 103.886 19.368C104.077 19.706 104.324 19.966 104.627 20.148C104.931 20.33 105.256 20.421 105.602 20.421ZM112.587 21.708C112.111 21.708 111.686 21.6127 111.313 21.422C110.949 21.2313 110.659 20.9713 110.442 20.642C110.234 20.304 110.13 19.9183 110.13 19.485C110.13 19.0083 110.252 18.6053 110.494 18.276C110.746 17.9467 111.079 17.6953 111.495 17.522C111.911 17.3487 112.371 17.262 112.873 17.262C113.151 17.262 113.406 17.2837 113.64 17.327C113.883 17.3617 114.091 17.405 114.264 17.457C114.446 17.509 114.589 17.5653 114.693 17.626V17.275C114.693 16.8417 114.537 16.495 114.225 16.235C113.913 15.975 113.51 15.845 113.016 15.845C112.678 15.845 112.358 15.923 112.054 16.079C111.751 16.2263 111.508 16.43 111.326 16.69L110.364 15.949C110.555 15.6803 110.785 15.4507 111.053 15.26C111.331 15.0693 111.638 14.922 111.976 14.818C112.323 14.714 112.683 14.662 113.055 14.662C114.017 14.662 114.758 14.9003 115.278 15.377C115.798 15.845 116.058 16.5037 116.058 17.353V21.5H114.693V20.681H114.615C114.503 20.8543 114.347 21.019 114.147 21.175C113.957 21.331 113.727 21.4567 113.458 21.552C113.198 21.656 112.908 21.708 112.587 21.708ZM112.834 20.564C113.198 20.564 113.519 20.4773 113.796 20.304C114.082 20.1307 114.303 19.9053 114.459 19.628C114.615 19.342 114.693 19.0343 114.693 18.705C114.503 18.5923 114.269 18.5013 113.991 18.432C113.723 18.354 113.437 18.315 113.133 18.315C112.561 18.315 112.154 18.4277 111.911 18.653C111.669 18.8783 111.547 19.16 111.547 19.498C111.547 19.81 111.664 20.0657 111.898 20.265C112.132 20.4643 112.444 20.564 112.834 20.564ZM117.617 21.5V12.192H119.021V21.5H117.617ZM122.693 21.708C122.216 21.708 121.792 21.6127 121.419 21.422C121.055 21.2313 120.765 20.9713 120.548 20.642C120.34 20.304 120.236 19.9183 120.236 19.485C120.236 19.0083 120.357 18.6053 120.6 18.276C120.851 17.9467 121.185 17.6953 121.601 17.522C122.017 17.3487 122.476 17.262 122.979 17.262C123.256 17.262 123.512 17.2837 123.746 17.327C123.989 17.3617 124.197 17.405 124.37 17.457C124.552 17.509 124.695 17.5653 124.799 17.626V17.275C124.799 16.8417 124.643 16.495 124.331 16.235C124.019 15.975 123.616 15.845 123.122 15.845C122.784 15.845 122.463 15.923 122.16 16.079C121.857 16.2263 121.614 16.43 121.432 16.69L120.47 15.949C120.661 15.6803 120.89 15.4507 121.159 15.26C121.436 15.0693 121.744 14.922 122.082 14.818C122.429 14.714 122.788 14.662 123.161 14.662C124.123 14.662 124.864 14.9003 125.384 15.377C125.904 15.845 126.164 16.5037 126.164 17.353V21.5H124.799V20.681H124.721C124.608 20.8543 124.452 21.019 124.253 21.175C124.062 21.331 123.833 21.4567 123.564 21.552C123.304 21.656 123.014 21.708 122.693 21.708ZM122.94 20.564C123.304 20.564 123.625 20.4773 123.902 20.304C124.188 20.1307 124.409 19.9053 124.565 19.628C124.721 19.342 124.799 19.0343 124.799 18.705C124.608 18.5923 124.374 18.5013 124.097 18.432C123.828 18.354 123.542 18.315 123.239 18.315C122.667 18.315 122.26 18.4277 122.017 18.653C121.774 18.8783 121.653 19.16 121.653 19.498C121.653 19.81 121.77 20.0657 122.004 20.265C122.238 20.4643 122.55 20.564 122.94 20.564ZM127.71 21.5V14.87H129.036V15.78H129.114C129.244 15.5633 129.413 15.3727 129.621 15.208C129.829 15.0433 130.063 14.9133 130.323 14.818C130.591 14.714 130.869 14.662 131.155 14.662C131.649 14.662 132.069 14.779 132.416 15.013C132.762 15.247 133.009 15.5417 133.157 15.897C133.373 15.5503 133.668 15.26 134.041 15.026C134.413 14.7833 134.868 14.662 135.406 14.662C136.186 14.662 136.766 14.9003 137.148 15.377C137.529 15.845 137.72 16.469 137.72 17.249V21.5H136.329V17.483C136.329 16.9457 136.212 16.5557 135.978 16.313C135.752 16.0703 135.436 15.949 135.029 15.949C134.708 15.949 134.426 16.04 134.184 16.222C133.941 16.3953 133.75 16.6337 133.612 16.937C133.482 17.2403 133.417 17.5783 133.417 17.951V21.5H132.026V17.483C132.026 16.9543 131.909 16.5687 131.675 16.326C131.441 16.0747 131.111 15.949 130.687 15.949C130.383 15.949 130.11 16.04 129.868 16.222C129.634 16.404 129.447 16.6467 129.309 16.95C129.179 17.2533 129.114 17.5913 129.114 17.964V21.5H127.71Z" fill="white"/>
<path d="M76.14 41.772C75.2673 41.772 74.4457 41.6133 73.675 41.296C72.9043 40.9787 72.2243 40.5367 71.635 39.97C71.057 39.392 70.598 38.7177 70.258 37.947C69.9293 37.165 69.765 36.3207 69.765 35.414C69.765 34.5073 69.9293 33.6687 70.258 32.898C70.598 32.116 71.057 31.4417 71.635 30.875C72.2243 30.297 72.9043 29.8493 73.675 29.532C74.4457 29.2147 75.2673 29.056 76.14 29.056C77.0693 29.056 77.925 29.2203 78.707 29.549C79.5003 29.8777 80.1633 30.3367 80.696 30.926L79.404 32.201C79.1433 31.9063 78.843 31.657 78.503 31.453C78.1743 31.249 77.8117 31.096 77.415 30.994C77.0183 30.8807 76.5933 30.824 76.14 30.824C75.5393 30.824 74.967 30.9317 74.423 31.147C73.879 31.3623 73.3973 31.674 72.978 32.082C72.57 32.4787 72.247 32.9603 72.009 33.527C71.771 34.0823 71.652 34.7113 71.652 35.414C71.652 36.1167 71.771 36.7513 72.009 37.318C72.2583 37.8733 72.587 38.355 72.995 38.763C73.4143 39.1597 73.896 39.4657 74.44 39.681C74.984 39.8963 75.5563 40.004 76.157 40.004C76.7123 40.004 77.228 39.9247 77.704 39.766C78.1913 39.6073 78.6163 39.3807 78.979 39.086C79.3417 38.7913 79.6363 38.4343 79.863 38.015C80.0897 37.5843 80.2313 37.1027 80.288 36.57H76.123V34.921H82.039C82.0617 35.057 82.0843 35.2157 82.107 35.397C82.1297 35.567 82.141 35.7313 82.141 35.89V35.907C82.141 36.7797 81.988 37.5787 81.682 38.304C81.3873 39.0293 80.9737 39.6527 80.441 40.174C79.9083 40.684 79.2737 41.0807 78.537 41.364C77.8117 41.636 77.0127 41.772 76.14 41.772ZM87.6149 41.772C86.7195 41.772 85.9319 41.568 85.2519 41.16C84.5719 40.752 84.0392 40.2023 83.6539 39.511C83.2685 38.8083 83.0759 38.0263 83.0759 37.165C83.0759 36.3037 83.2685 35.5273 83.6539 34.836C84.0392 34.1333 84.5719 33.578 85.2519 33.17C85.9319 32.762 86.7195 32.558 87.6149 32.558C88.4989 32.558 89.2809 32.7677 89.9609 33.187C90.6409 33.595 91.1735 34.1447 91.5589 34.836C91.9442 35.5273 92.1369 36.3037 92.1369 37.165C92.1369 38.0263 91.9442 38.8083 91.5589 39.511C91.1735 40.2023 90.6409 40.752 89.9609 41.16C89.2809 41.568 88.4989 41.772 87.6149 41.772ZM87.6149 40.089C88.0909 40.089 88.5329 39.9757 88.9409 39.749C89.3489 39.511 89.6775 39.1767 89.9269 38.746C90.1875 38.304 90.3179 37.777 90.3179 37.165C90.3179 36.553 90.1875 36.0317 89.9269 35.601C89.6775 35.159 89.3489 34.8247 88.9409 34.598C88.5329 34.36 88.0909 34.241 87.6149 34.241C87.1389 34.241 86.6912 34.36 86.2719 34.598C85.8639 34.8247 85.5295 35.159 85.2689 35.601C85.0195 36.0317 84.8949 36.553 84.8949 37.165C84.8949 37.777 85.0195 38.304 85.2689 38.746C85.5295 39.1767 85.8695 39.511 86.2889 39.749C86.7082 39.9757 87.1502 40.089 87.6149 40.089ZM97.9078 41.772C97.0125 41.772 96.2248 41.568 95.5448 41.16C94.8648 40.752 94.3322 40.2023 93.9468 39.511C93.5615 38.8083 93.3688 38.0263 93.3688 37.165C93.3688 36.3037 93.5615 35.5273 93.9468 34.836C94.3322 34.1333 94.8648 33.578 95.5448 33.17C96.2248 32.762 97.0125 32.558 97.9078 32.558C98.7918 32.558 99.5738 32.7677 100.254 33.187C100.934 33.595 101.467 34.1447 101.852 34.836C102.237 35.5273 102.43 36.3037 102.43 37.165C102.43 38.0263 102.237 38.8083 101.852 39.511C101.467 40.2023 100.934 40.752 100.254 41.16C99.5738 41.568 98.7918 41.772 97.9078 41.772ZM97.9078 40.089C98.3838 40.089 98.8258 39.9757 99.2338 39.749C99.6418 39.511 99.9705 39.1767 100.22 38.746C100.481 38.304 100.611 37.777 100.611 37.165C100.611 36.553 100.481 36.0317 100.22 35.601C99.9705 35.159 99.6418 34.8247 99.2338 34.598C98.8258 34.36 98.3838 34.241 97.9078 34.241C97.4318 34.241 96.9842 34.36 96.5648 34.598C96.1568 34.8247 95.8225 35.159 95.5618 35.601C95.3125 36.0317 95.1878 36.553 95.1878 37.165C95.1878 37.777 95.3125 38.304 95.5618 38.746C95.8225 39.1767 96.1625 39.511 96.5818 39.749C97.0012 39.9757 97.4432 40.089 97.9078 40.089ZM108.031 45.444C107.271 45.444 106.614 45.3193 106.059 45.07C105.515 44.832 105.073 44.5203 104.733 44.135C104.393 43.761 104.149 43.3757 104.002 42.979L105.702 42.265C105.883 42.7183 106.172 43.0867 106.569 43.37C106.977 43.6647 107.464 43.812 108.031 43.812C108.835 43.812 109.464 43.574 109.918 43.098C110.371 42.622 110.598 41.9477 110.598 41.075V40.242H110.496C110.224 40.6387 109.85 40.9617 109.374 41.211C108.898 41.4603 108.348 41.585 107.725 41.585C106.988 41.585 106.308 41.398 105.685 41.024C105.073 40.65 104.58 40.1287 104.206 39.46C103.843 38.78 103.662 37.9867 103.662 37.08C103.662 36.162 103.843 35.3687 104.206 34.7C104.58 34.02 105.073 33.493 105.685 33.119C106.308 32.745 106.988 32.558 107.725 32.558C108.348 32.558 108.898 32.6827 109.374 32.932C109.85 33.17 110.224 33.4987 110.496 33.918H110.598V32.83H112.349V41.041C112.349 41.9817 112.162 42.7807 111.788 43.438C111.425 44.0953 110.921 44.594 110.275 44.934C109.629 45.274 108.881 45.444 108.031 45.444ZM108.048 39.919C108.501 39.919 108.92 39.8113 109.306 39.596C109.702 39.3693 110.014 39.0463 110.241 38.627C110.479 38.1963 110.598 37.6807 110.598 37.08C110.598 36.4453 110.479 35.9183 110.241 35.499C110.014 35.0797 109.702 34.7623 109.306 34.547C108.92 34.3317 108.501 34.224 108.048 34.224C107.594 34.224 107.169 34.3317 106.773 34.547C106.387 34.7623 106.076 35.0853 105.838 35.516C105.6 35.9353 105.481 36.4567 105.481 37.08C105.481 37.692 105.6 38.2133 105.838 38.644C106.076 39.0633 106.387 39.3807 106.773 39.596C107.169 39.8113 107.594 39.919 108.048 39.919ZM114.514 41.5V29.328H116.35V41.5H114.514ZM122.392 41.772C121.542 41.772 120.783 41.5737 120.114 41.177C119.446 40.7803 118.919 40.2363 118.533 39.545C118.159 38.8537 117.972 38.066 117.972 37.182C117.972 36.3547 118.154 35.5897 118.516 34.887C118.879 34.1843 119.383 33.6233 120.029 33.204C120.687 32.7733 121.44 32.558 122.29 32.558C123.186 32.558 123.945 32.7507 124.568 33.136C125.203 33.5213 125.685 34.0483 126.013 34.717C126.342 35.3857 126.506 36.1393 126.506 36.978C126.506 37.1027 126.501 37.216 126.489 37.318C126.489 37.42 126.484 37.4993 126.472 37.556H119.774C119.82 38.032 119.939 38.4457 120.131 38.797C120.381 39.239 120.709 39.5733 121.117 39.8C121.525 40.0267 121.967 40.14 122.443 40.14C123.021 40.14 123.503 40.0097 123.888 39.749C124.285 39.477 124.597 39.1427 124.823 38.746L126.336 39.477C125.962 40.157 125.452 40.7123 124.806 41.143C124.16 41.5623 123.356 41.772 122.392 41.772ZM119.876 36.179H124.687C124.676 35.9637 124.619 35.737 124.517 35.499C124.415 35.2497 124.268 35.023 124.075 34.819C123.883 34.615 123.639 34.4507 123.344 34.326C123.05 34.19 122.704 34.122 122.307 34.122C121.809 34.122 121.367 34.2523 120.981 34.513C120.596 34.7623 120.296 35.1137 120.08 35.567C119.99 35.7597 119.922 35.9637 119.876 36.179ZM133.979 41.5L130.715 29.328H132.789L134.727 37.233L134.931 38.287H135.033L135.288 37.233L137.736 29.328H139.606L141.952 37.233L142.207 38.27H142.309L142.513 37.233L144.451 29.328H146.508L143.295 41.5H141.323L138.994 33.425L138.722 32.286H138.62L138.331 33.425L135.9 41.5H133.979ZM149.922 41.772C149.299 41.772 148.743 41.6473 148.256 41.398C147.78 41.1487 147.4 40.8087 147.117 40.378C146.845 39.936 146.709 39.4317 146.709 38.865C146.709 38.2417 146.868 37.7147 147.185 37.284C147.514 36.8533 147.95 36.5247 148.494 36.298C149.038 36.0713 149.639 35.958 150.296 35.958C150.659 35.958 150.993 35.9863 151.299 36.043C151.616 36.0883 151.888 36.145 152.115 36.213C152.353 36.281 152.54 36.3547 152.676 36.434V35.975C152.676 35.4083 152.472 34.955 152.064 34.615C151.656 34.275 151.129 34.105 150.483 34.105C150.041 34.105 149.622 34.207 149.225 34.411C148.828 34.6037 148.511 34.87 148.273 35.21L147.015 34.241C147.264 33.8897 147.565 33.5893 147.916 33.34C148.279 33.0907 148.681 32.898 149.123 32.762C149.576 32.626 150.047 32.558 150.534 32.558C151.792 32.558 152.761 32.8697 153.441 33.493C154.121 34.105 154.461 34.9663 154.461 36.077V41.5H152.676V40.429H152.574C152.427 40.6557 152.223 40.871 151.962 41.075C151.713 41.279 151.412 41.4433 151.061 41.568C150.721 41.704 150.341 41.772 149.922 41.772ZM150.245 40.276C150.721 40.276 151.14 40.1627 151.503 39.936C151.877 39.7093 152.166 39.4147 152.37 39.052C152.574 38.678 152.676 38.2757 152.676 37.845C152.427 37.6977 152.121 37.5787 151.758 37.488C151.407 37.386 151.033 37.335 150.636 37.335C149.888 37.335 149.355 37.4823 149.038 37.777C148.721 38.0717 148.562 38.44 148.562 38.882C148.562 39.29 148.715 39.6243 149.021 39.885C149.327 40.1457 149.735 40.276 150.245 40.276ZM156.499 41.5V29.328H158.335V41.5H156.499ZM160.517 41.5V29.328H162.353V41.5H160.517ZM168.395 41.772C167.545 41.772 166.786 41.5737 166.117 41.177C165.449 40.7803 164.922 40.2363 164.536 39.545C164.162 38.8537 163.975 38.066 163.975 37.182C163.975 36.3547 164.157 35.5897 164.519 34.887C164.882 34.1843 165.386 33.6233 166.032 33.204C166.69 32.7733 167.443 32.558 168.293 32.558C169.189 32.558 169.948 32.7507 170.571 33.136C171.206 33.5213 171.688 34.0483 172.016 34.717C172.345 35.3857 172.509 36.1393 172.509 36.978C172.509 37.1027 172.504 37.216 172.492 37.318C172.492 37.42 172.487 37.4993 172.475 37.556H165.777C165.823 38.032 165.942 38.4457 166.134 38.797C166.384 39.239 166.712 39.5733 167.12 39.8C167.528 40.0267 167.97 40.14 168.446 40.14C169.024 40.14 169.506 40.0097 169.891 39.749C170.288 39.477 170.6 39.1427 170.826 38.746L172.339 39.477C171.965 40.157 171.455 40.7123 170.809 41.143C170.163 41.5623 169.359 41.772 168.395 41.772ZM165.879 36.179H170.69C170.679 35.9637 170.622 35.737 170.52 35.499C170.418 35.2497 170.271 35.023 170.078 34.819C169.886 34.615 169.642 34.4507 169.347 34.326C169.053 34.19 168.707 34.122 168.31 34.122C167.812 34.122 167.37 34.2523 166.984 34.513C166.599 34.7623 166.299 35.1137 166.083 35.567C165.993 35.7597 165.925 35.9637 165.879 36.179ZM173.369 32.83H174.882V30.382H176.718V32.83H178.843V34.428H176.718V38.593C176.718 39.0237 176.803 39.3523 176.973 39.579C177.154 39.8057 177.454 39.919 177.874 39.919C178.078 39.919 178.259 39.8907 178.418 39.834C178.576 39.766 178.735 39.6867 178.894 39.596V41.381C178.701 41.4603 178.497 41.5227 178.282 41.568C178.066 41.6133 177.811 41.636 177.517 41.636C176.712 41.636 176.072 41.4037 175.596 40.939C175.12 40.463 174.882 39.8113 174.882 38.984V34.428H173.369V32.83Z" fill="white"/>
</svg>
