<svg width="199" height="55" viewBox="0 0 199 55" fill="none" xmlns="http://www.w3.org/2000/svg">
<rect x="0.5" y="0.5" width="198" height="54" rx="27" fill="#1F1F1F"/>
<rect x="0.5" y="0.5" width="198" height="54" rx="27" stroke="#747775"/>
<path d="M57 23.791H21V18.1455C21 15.0809 23.6422 12.5001 26.7798 12.5001H51.2202C54.3578 12.5001 57 15.0809 57 18.1455V23.791Z" fill="#34A853"/>
<path d="M57 29H21V23C21 19.7429 23.6422 17 26.7798 17H51.2202C54.3578 17 57 19.7429 57 23V29Z" fill="#FBBC04"/>
<path d="M57 34H21V28C21 24.7429 23.6422 22 26.7798 22H51.2202C54.3578 22 57 24.7429 57 28V34Z" fill="#EA4335"/>
<path d="M21 25.2409L43.8493 30.4025C46.4795 31.0477 49.4384 30.4025 51.5753 28.7895L57 24.9183V37.0157C57 40.0804 54.3699 42.4999 51.2466 42.4999H26.7534C23.6301 42.4999 21 40.0804 21 37.0157V25.2409Z" fill="#4285F4"/>
<path d="M74.46 20.708C73.7927 20.708 73.1643 20.5867 72.575 20.344C71.9857 20.1013 71.4657 19.7633 71.015 19.33C70.573 18.888 70.222 18.3723 69.962 17.783C69.7107 17.185 69.585 16.5393 69.585 15.846C69.585 15.1527 69.7107 14.5113 69.962 13.922C70.222 13.324 70.573 12.8083 71.015 12.375C71.4657 11.933 71.9857 11.5907 72.575 11.348C73.1643 11.1053 73.7927 10.984 74.46 10.984C75.1707 10.984 75.825 11.1097 76.423 11.361C77.0297 11.6123 77.5367 11.9633 77.944 12.414L76.956 13.389C76.7567 13.1637 76.527 12.973 76.267 12.817C76.0157 12.661 75.7383 12.544 75.435 12.466C75.1317 12.3793 74.8067 12.336 74.46 12.336C74.0007 12.336 73.563 12.4183 73.147 12.583C72.731 12.7477 72.3627 12.986 72.042 13.298C71.73 13.6013 71.483 13.9697 71.301 14.403C71.119 14.8277 71.028 15.3087 71.028 15.846C71.028 16.3833 71.119 16.8687 71.301 17.302C71.4917 17.7267 71.743 18.095 72.055 18.407C72.3757 18.7103 72.744 18.9443 73.16 19.109C73.576 19.2737 74.0137 19.356 74.473 19.356C74.8977 19.356 75.292 19.2953 75.656 19.174C76.0287 19.0527 76.3537 18.8793 76.631 18.654C76.9083 18.4287 77.1337 18.1557 77.307 17.835C77.4803 17.5057 77.5887 17.1373 77.632 16.73H74.447V15.469H78.971C78.9883 15.573 79.0057 15.6943 79.023 15.833C79.0403 15.963 79.049 16.0887 79.049 16.21V16.223C79.049 16.8903 78.932 17.5013 78.698 18.056C78.4727 18.6107 78.1563 19.0873 77.749 19.486C77.3417 19.876 76.8563 20.1793 76.293 20.396C75.7383 20.604 75.1273 20.708 74.46 20.708ZM83.2349 20.708C82.5502 20.708 81.9479 20.552 81.4279 20.24C80.9079 19.928 80.5006 19.5077 80.2059 18.979C79.9112 18.4417 79.7639 17.8437 79.7639 17.185C79.7639 16.5263 79.9112 15.9327 80.2059 15.404C80.5006 14.8667 80.9079 14.442 81.4279 14.13C81.9479 13.818 82.5502 13.662 83.2349 13.662C83.9109 13.662 84.5089 13.8223 85.0289 14.143C85.5489 14.455 85.9562 14.8753 86.2509 15.404C86.5456 15.9327 86.6929 16.5263 86.6929 17.185C86.6929 17.8437 86.5456 18.4417 86.2509 18.979C85.9562 19.5077 85.5489 19.928 85.0289 20.24C84.5089 20.552 83.9109 20.708 83.2349 20.708ZM83.2349 19.421C83.5989 19.421 83.9369 19.3343 84.2489 19.161C84.5609 18.979 84.8122 18.7233 85.0029 18.394C85.2022 18.056 85.3019 17.653 85.3019 17.185C85.3019 16.717 85.2022 16.3183 85.0029 15.989C84.8122 15.651 84.5609 15.3953 84.2489 15.222C83.9369 15.04 83.5989 14.949 83.2349 14.949C82.8709 14.949 82.5286 15.04 82.2079 15.222C81.8959 15.3953 81.6402 15.651 81.4409 15.989C81.2502 16.3183 81.1549 16.717 81.1549 17.185C81.1549 17.653 81.2502 18.056 81.4409 18.394C81.6402 18.7233 81.9002 18.979 82.2209 19.161C82.5416 19.3343 82.8796 19.421 83.2349 19.421ZM91.106 20.708C90.4213 20.708 89.819 20.552 89.299 20.24C88.779 19.928 88.3717 19.5077 88.077 18.979C87.7823 18.4417 87.635 17.8437 87.635 17.185C87.635 16.5263 87.7823 15.9327 88.077 15.404C88.3717 14.8667 88.779 14.442 89.299 14.13C89.819 13.818 90.4213 13.662 91.106 13.662C91.782 13.662 92.38 13.8223 92.9 14.143C93.42 14.455 93.8273 14.8753 94.122 15.404C94.4167 15.9327 94.564 16.5263 94.564 17.185C94.564 17.8437 94.4167 18.4417 94.122 18.979C93.8273 19.5077 93.42 19.928 92.9 20.24C92.38 20.552 91.782 20.708 91.106 20.708ZM91.106 19.421C91.47 19.421 91.808 19.3343 92.12 19.161C92.432 18.979 92.6833 18.7233 92.874 18.394C93.0733 18.056 93.173 17.653 93.173 17.185C93.173 16.717 93.0733 16.3183 92.874 15.989C92.6833 15.651 92.432 15.3953 92.12 15.222C91.808 15.04 91.47 14.949 91.106 14.949C90.742 14.949 90.3997 15.04 90.079 15.222C89.767 15.3953 89.5113 15.651 89.312 15.989C89.1213 16.3183 89.026 16.717 89.026 17.185C89.026 17.653 89.1213 18.056 89.312 18.394C89.5113 18.7233 89.7713 18.979 90.092 19.161C90.4127 19.3343 90.7507 19.421 91.106 19.421ZM98.8471 23.516C98.2664 23.516 97.7638 23.4207 97.3391 23.23C96.9231 23.048 96.5851 22.8097 96.3251 22.515C96.0651 22.229 95.8788 21.9343 95.7661 21.631L97.0661 21.085C97.2048 21.4317 97.4258 21.7133 97.7291 21.93C98.0411 22.1553 98.4138 22.268 98.8471 22.268C99.4624 22.268 99.9434 22.086 100.29 21.722C100.637 21.358 100.81 20.8423 100.81 20.175V19.538H100.732C100.524 19.8413 100.238 20.0883 99.8741 20.279C99.5101 20.4697 99.0898 20.565 98.6131 20.565C98.0498 20.565 97.5298 20.422 97.0531 20.136C96.5851 19.85 96.2081 19.4513 95.9221 18.94C95.6448 18.42 95.5061 17.8133 95.5061 17.12C95.5061 16.418 95.6448 15.8113 95.9221 15.3C96.2081 14.78 96.5851 14.377 97.0531 14.091C97.5298 13.805 98.0498 13.662 98.6131 13.662C99.0898 13.662 99.5101 13.7573 99.8741 13.948C100.238 14.13 100.524 14.3813 100.732 14.702H100.81V13.87H102.149V20.149C102.149 20.8683 102.006 21.4793 101.72 21.982C101.443 22.4847 101.057 22.866 100.563 23.126C100.069 23.386 99.4971 23.516 98.8471 23.516ZM98.8601 19.291C99.2068 19.291 99.5274 19.2087 99.8221 19.044C100.125 18.8707 100.364 18.6237 100.537 18.303C100.719 17.9737 100.81 17.5793 100.81 17.12C100.81 16.6347 100.719 16.2317 100.537 15.911C100.364 15.5903 100.125 15.3477 99.8221 15.183C99.5274 15.0183 99.2068 14.936 98.8601 14.936C98.5134 14.936 98.1884 15.0183 97.8851 15.183C97.5904 15.3477 97.3521 15.5947 97.1701 15.924C96.9881 16.2447 96.8971 16.6433 96.8971 17.12C96.8971 17.588 96.9881 17.9867 97.1701 18.316C97.3521 18.6367 97.5904 18.8793 97.8851 19.044C98.1884 19.2087 98.5134 19.291 98.8601 19.291ZM103.805 20.5V11.192H105.209V20.5H103.805ZM109.829 20.708C109.179 20.708 108.599 20.5563 108.087 20.253C107.576 19.9497 107.173 19.5337 106.878 19.005C106.592 18.4763 106.449 17.874 106.449 17.198C106.449 16.5653 106.588 15.9803 106.865 15.443C107.143 14.9057 107.528 14.4767 108.022 14.156C108.525 13.8267 109.101 13.662 109.751 13.662C110.436 13.662 111.017 13.8093 111.493 14.104C111.979 14.3987 112.347 14.8017 112.598 15.313C112.85 15.8243 112.975 16.4007 112.975 17.042C112.975 17.1373 112.971 17.224 112.962 17.302C112.962 17.38 112.958 17.4407 112.949 17.484H107.827C107.862 17.848 107.953 18.1643 108.1 18.433C108.291 18.771 108.542 19.0267 108.854 19.2C109.166 19.3733 109.504 19.46 109.868 19.46C110.31 19.46 110.679 19.3603 110.973 19.161C111.277 18.953 111.515 18.6973 111.688 18.394L112.845 18.953C112.559 19.473 112.169 19.8977 111.675 20.227C111.181 20.5477 110.566 20.708 109.829 20.708ZM107.905 16.431H111.584C111.576 16.2663 111.532 16.093 111.454 15.911C111.376 15.7203 111.264 15.547 111.116 15.391C110.969 15.235 110.783 15.1093 110.557 15.014C110.332 14.91 110.068 14.858 109.764 14.858C109.383 14.858 109.045 14.9577 108.75 15.157C108.456 15.3477 108.226 15.6163 108.061 15.963C107.992 16.1103 107.94 16.2663 107.905 16.431ZM118.69 20.5L116.194 11.192H117.78L119.262 17.237L119.418 18.043H119.496L119.691 17.237L121.563 11.192H122.993L124.787 17.237L124.982 18.03H125.06L125.216 17.237L126.698 11.192H128.271L125.814 20.5H124.306L122.525 14.325L122.317 13.454H122.239L122.018 14.325L120.159 20.5H118.69ZM130.881 20.708C130.405 20.708 129.98 20.6127 129.607 20.422C129.243 20.2313 128.953 19.9713 128.736 19.642C128.528 19.304 128.424 18.9183 128.424 18.485C128.424 18.0083 128.546 17.6053 128.788 17.276C129.04 16.9467 129.373 16.6953 129.789 16.522C130.205 16.3487 130.665 16.262 131.167 16.262C131.445 16.262 131.7 16.2837 131.934 16.327C132.177 16.3617 132.385 16.405 132.558 16.457C132.74 16.509 132.883 16.5653 132.987 16.626V16.275C132.987 15.8417 132.831 15.495 132.519 15.235C132.207 14.975 131.804 14.845 131.31 14.845C130.972 14.845 130.652 14.923 130.348 15.079C130.045 15.2263 129.802 15.43 129.62 15.69L128.658 14.949C128.849 14.6803 129.079 14.4507 129.347 14.26C129.625 14.0693 129.932 13.922 130.27 13.818C130.617 13.714 130.977 13.662 131.349 13.662C132.311 13.662 133.052 13.9003 133.572 14.377C134.092 14.845 134.352 15.5037 134.352 16.353V20.5H132.987V19.681H132.909C132.797 19.8543 132.641 20.019 132.441 20.175C132.251 20.331 132.021 20.4567 131.752 20.552C131.492 20.656 131.202 20.708 130.881 20.708ZM131.128 19.564C131.492 19.564 131.813 19.4773 132.09 19.304C132.376 19.1307 132.597 18.9053 132.753 18.628C132.909 18.342 132.987 18.0343 132.987 17.705C132.797 17.5923 132.563 17.5013 132.285 17.432C132.017 17.354 131.731 17.315 131.427 17.315C130.855 17.315 130.448 17.4277 130.205 17.653C129.963 17.8783 129.841 18.16 129.841 18.498C129.841 18.81 129.958 19.0657 130.192 19.265C130.426 19.4643 130.738 19.564 131.128 19.564ZM135.911 20.5V11.192H137.315V20.5H135.911ZM138.983 20.5V11.192H140.387V20.5H138.983ZM145.008 20.708C144.358 20.708 143.777 20.5563 143.266 20.253C142.755 19.9497 142.352 19.5337 142.057 19.005C141.771 18.4763 141.628 17.874 141.628 17.198C141.628 16.5653 141.767 15.9803 142.044 15.443C142.321 14.9057 142.707 14.4767 143.201 14.156C143.704 13.8267 144.28 13.662 144.93 13.662C145.615 13.662 146.195 13.8093 146.672 14.104C147.157 14.3987 147.526 14.8017 147.777 15.313C148.028 15.8243 148.154 16.4007 148.154 17.042C148.154 17.1373 148.15 17.224 148.141 17.302C148.141 17.38 148.137 17.4407 148.128 17.484H143.006C143.041 17.848 143.132 18.1643 143.279 18.433C143.47 18.771 143.721 19.0267 144.033 19.2C144.345 19.3733 144.683 19.46 145.047 19.46C145.489 19.46 145.857 19.3603 146.152 19.161C146.455 18.953 146.694 18.6973 146.867 18.394L148.024 18.953C147.738 19.473 147.348 19.8977 146.854 20.227C146.36 20.5477 145.745 20.708 145.008 20.708ZM143.084 16.431H146.763C146.754 16.2663 146.711 16.093 146.633 15.911C146.555 15.7203 146.442 15.547 146.295 15.391C146.148 15.235 145.961 15.1093 145.736 15.014C145.511 14.91 145.246 14.858 144.943 14.858C144.562 14.858 144.224 14.9577 143.929 15.157C143.634 15.3477 143.405 15.6163 143.24 15.963C143.171 16.1103 143.119 16.2663 143.084 16.431ZM148.811 13.87H149.968V11.998H151.372V13.87H152.997V15.092H151.372V18.277C151.372 18.6063 151.437 18.8577 151.567 19.031C151.706 19.2043 151.936 19.291 152.256 19.291C152.412 19.291 152.551 19.2693 152.672 19.226C152.794 19.174 152.915 19.1133 153.036 19.044V20.409C152.889 20.4697 152.733 20.5173 152.568 20.552C152.404 20.5867 152.209 20.604 151.983 20.604C151.368 20.604 150.878 20.4263 150.514 20.071C150.15 19.707 149.968 19.2087 149.968 18.576V15.092H148.811V13.87ZM160.837 20.63C160.126 20.63 159.498 20.474 158.952 20.162C158.414 19.85 157.994 19.421 157.691 18.875C157.387 18.3203 157.236 17.6963 157.236 17.003C157.236 16.301 157.387 15.677 157.691 15.131C158.003 14.585 158.432 14.156 158.978 13.844C159.524 13.5233 160.152 13.363 160.863 13.363C161.53 13.363 162.111 13.4887 162.605 13.74C163.107 13.9913 163.51 14.3337 163.814 14.767C164.134 14.325 164.542 13.9827 165.036 13.74C165.538 13.4887 166.115 13.363 166.765 13.363C167.51 13.363 168.156 13.519 168.702 13.831C169.256 14.143 169.685 14.572 169.989 15.118C170.292 15.664 170.444 16.288 170.444 16.99C170.444 17.718 170.292 18.355 169.989 18.901C169.694 19.447 169.287 19.8717 168.767 20.175C168.255 20.4783 167.67 20.63 167.012 20.63C166.656 20.63 166.327 20.5997 166.024 20.539C165.72 20.487 165.452 20.396 165.218 20.266L165.712 19.239C165.894 19.317 166.071 19.3733 166.245 19.408C166.427 19.4427 166.635 19.46 166.869 19.46C167.51 19.46 168.03 19.2433 168.429 18.81C168.827 18.368 169.027 17.77 169.027 17.016C169.027 16.262 168.823 15.6553 168.416 15.196C168.017 14.728 167.475 14.494 166.791 14.494C166.297 14.494 165.837 14.6327 165.413 14.91C164.997 15.1873 164.654 15.5687 164.386 16.054C164.464 16.366 164.503 16.691 164.503 17.029C164.503 17.7397 164.351 18.3637 164.048 18.901C163.744 19.4383 163.315 19.863 162.761 20.175C162.215 20.4783 161.573 20.63 160.837 20.63ZM160.863 19.486C161.573 19.486 162.128 19.265 162.527 18.823C162.925 18.3723 163.125 17.783 163.125 17.055C163.125 16.2923 162.925 15.677 162.527 15.209C162.137 14.741 161.582 14.507 160.863 14.507C160.429 14.507 160.048 14.611 159.719 14.819C159.389 15.027 159.129 15.3217 158.939 15.703C158.748 16.0757 158.653 16.5133 158.653 17.016C158.653 17.51 158.748 17.9433 158.939 18.316C159.138 18.6887 159.402 18.979 159.732 19.187C160.07 19.3863 160.447 19.486 160.863 19.486ZM166.895 26.09C166.401 26.09 165.972 25.9817 165.608 25.765C165.244 25.5483 164.963 25.2537 164.763 24.881C164.564 24.5083 164.464 24.0837 164.464 23.607C164.464 23.139 164.564 22.7143 164.763 22.333C164.963 21.9603 165.249 21.6657 165.621 21.449C165.985 21.2323 166.423 21.124 166.934 21.124C167.454 21.124 167.901 21.2367 168.273 21.462C168.637 21.6873 168.919 21.9907 169.118 22.372C169.309 22.7533 169.404 23.178 169.404 23.646C169.404 24.088 169.305 24.4953 169.105 24.868C168.906 25.2407 168.62 25.5353 168.247 25.752C167.875 25.9773 167.424 26.09 166.895 26.09ZM166.934 25.102C167.316 25.102 167.623 24.9633 167.857 24.686C168.091 24.4173 168.208 24.075 168.208 23.659C168.208 23.2083 168.096 22.8357 167.87 22.541C167.645 22.255 167.337 22.112 166.947 22.112C166.54 22.112 166.224 22.2507 165.998 22.528C165.764 22.814 165.647 23.1823 165.647 23.633C165.647 24.0577 165.764 24.4087 165.998 24.686C166.224 24.9633 166.536 25.102 166.934 25.102ZM175.606 20.63C174.826 20.63 174.15 20.474 173.578 20.162C173.006 19.85 172.564 19.421 172.252 18.875C171.949 18.3203 171.797 17.692 171.797 16.99C171.797 16.288 171.953 15.664 172.265 15.118C172.586 14.572 173.028 14.143 173.591 13.831C174.163 13.519 174.835 13.363 175.606 13.363C176.109 13.363 176.577 13.4497 177.01 13.623C177.452 13.7877 177.838 14.0217 178.167 14.325C178.496 14.6197 178.739 14.9663 178.895 15.365L177.855 15.937C177.604 15.443 177.283 15.0833 176.893 14.858C176.503 14.624 176.061 14.507 175.567 14.507C174.856 14.507 174.284 14.7367 173.851 15.196C173.426 15.6467 173.214 16.2403 173.214 16.977C173.214 17.471 173.314 17.9087 173.513 18.29C173.721 18.6627 174.003 18.9573 174.358 19.174C174.722 19.382 175.138 19.486 175.606 19.486C176.091 19.486 176.525 19.369 176.906 19.135C177.287 18.901 177.608 18.5327 177.868 18.03L178.947 18.589C178.782 18.9963 178.535 19.3517 178.206 19.655C177.877 19.9583 177.487 20.1967 177.036 20.37C176.594 20.5433 176.117 20.63 175.606 20.63ZM174.65 12.362C173.636 11.738 173.129 10.8973 173.129 9.84C173.129 9.35467 173.233 8.93433 173.441 8.579C173.649 8.22367 173.935 7.95067 174.299 7.76C174.663 7.56067 175.075 7.461 175.534 7.461C175.985 7.461 176.388 7.55633 176.743 7.747C177.099 7.929 177.376 8.19333 177.575 8.54L176.73 9.138C176.609 8.93 176.449 8.761 176.249 8.631C176.05 8.501 175.816 8.436 175.547 8.436C175.166 8.436 174.867 8.57467 174.65 8.852C174.425 9.12067 174.312 9.44133 174.312 9.814C174.312 10.1173 174.369 10.386 174.481 10.62C174.594 10.8453 174.733 11.0403 174.897 11.205C175.053 11.3697 175.205 11.504 175.352 11.608L174.65 12.362Z" fill="white"/>
<path d="M74.032 47.422C71.6633 47.422 70.479 46.198 70.479 43.75V26.104C70.479 23.6673 71.6633 22.449 74.032 22.449H87.683C90.0517 22.449 91.236 23.6673 91.236 26.104V26.614H89.621V25.832C89.621 25.2313 89.485 24.7667 89.213 24.438C88.941 24.098 88.5273 23.928 87.972 23.928H73.964C73.386 23.928 72.9667 24.098 72.706 24.438C72.4453 24.7667 72.315 25.2313 72.315 25.832V44.022C72.315 44.634 72.4453 45.1043 72.706 45.433C72.9667 45.7617 73.386 45.926 73.964 45.926H87.972C88.5273 45.926 88.941 45.7617 89.213 45.433C89.485 45.1043 89.621 44.634 89.621 44.022V36.78H91.236V43.75C91.236 46.198 90.0517 47.422 87.683 47.422H74.032ZM76.5614 39.67C75.9154 39.262 75.3714 38.65 74.9294 37.834C74.4987 37.0067 74.2834 36.0773 74.2834 35.046C74.2834 34.0827 74.4874 33.2327 74.8954 32.496C75.3147 31.7593 75.8814 31.187 76.5954 30.779C77.3207 30.371 78.1424 30.167 79.0604 30.167C79.9104 30.167 80.6584 30.337 81.3044 30.677C81.9617 31.0057 82.4944 31.459 82.9024 32.037C83.3444 31.425 83.8941 30.9603 84.5514 30.643C85.2201 30.3257 85.9511 30.167 86.7444 30.167C87.7191 30.167 88.5634 30.3767 89.2774 30.796C90.0027 31.204 90.5637 31.7707 90.9604 32.496C91.3571 33.21 91.5554 34.0203 91.5554 34.927C91.5554 35.8677 91.3627 36.695 90.9774 37.409C90.5921 38.123 90.0651 38.6783 89.3964 39.075C88.7277 39.4603 87.9741 39.653 87.1354 39.653C86.6481 39.653 86.2061 39.619 85.8094 39.551C85.4127 39.483 85.0557 39.364 84.7384 39.194L85.3674 37.834C85.8094 38.038 86.3137 38.14 86.8804 38.14C87.7304 38.14 88.4104 37.851 88.9204 37.273C89.4417 36.695 89.7024 35.9187 89.7024 34.944C89.7024 33.958 89.4361 33.1647 88.9034 32.564C88.3821 31.9633 87.6567 31.663 86.7274 31.663C86.0134 31.663 85.4127 31.8557 84.9254 32.241C84.4494 32.615 84.0244 33.108 83.6504 33.72C83.7411 34.1393 83.7864 34.5813 83.7864 35.046C83.7864 36.1227 83.5824 37.052 83.1744 37.834C82.7664 38.616 82.2167 39.228 81.5254 39.67L80.5394 38.293C81.5254 37.511 82.0184 36.4343 82.0184 35.063C82.0184 34.0203 81.7464 33.193 81.2024 32.581C80.6697 31.969 79.9614 31.663 79.0774 31.663C78.1934 31.663 77.4794 31.969 76.9354 32.581C76.4027 33.193 76.1364 34.0203 76.1364 35.063C76.1364 36.4117 76.6067 37.4883 77.5474 38.293L76.5614 39.67ZM98.1704 39.67C97.7397 39.67 97.3147 39.6077 96.8954 39.483C96.4874 39.347 96.1021 39.1713 95.7394 38.956V44.039C95.7394 45.297 96.3004 45.926 97.4224 45.926H106.738C107.316 45.926 107.736 45.7617 107.996 45.433C108.268 45.1043 108.404 44.6397 108.404 44.039V43.648H110.223V43.801C110.223 46.2263 109.045 47.439 106.687 47.439H97.4734C95.1047 47.439 93.9204 46.2207 93.9204 43.784V37.001L95.3314 36.27C95.6601 36.9273 96.0567 37.409 96.5214 37.715C96.9861 38.021 97.4961 38.174 98.0514 38.174C98.6294 38.174 99.1281 38.038 99.5474 37.766C99.9781 37.4827 100.312 37.0973 100.55 36.61C100.788 36.1113 100.907 35.539 100.907 34.893C100.907 33.9297 100.658 33.1533 100.159 32.564C99.6721 31.9633 98.9921 31.663 98.1194 31.663C97.5527 31.663 97.0314 31.816 96.5554 32.122C96.0794 32.4167 95.6771 32.887 95.3484 33.533L93.9884 32.785C94.1924 32.2637 94.4984 31.8103 94.9064 31.425C95.3144 31.0283 95.7904 30.7223 96.3344 30.507C96.8784 30.2803 97.4564 30.167 98.0684 30.167C99.0431 30.167 99.8761 30.371 100.567 30.779C101.27 31.187 101.808 31.748 102.182 32.462C102.568 33.176 102.76 33.992 102.76 34.91C102.76 35.3407 102.721 35.7543 102.641 36.151C102.936 36.7857 103.316 37.2843 103.78 37.647C104.256 37.9983 104.857 38.174 105.582 38.174C106.466 38.174 107.163 37.8737 107.673 37.273C108.183 36.6723 108.438 35.879 108.438 34.893C108.438 33.9183 108.189 33.142 107.69 32.564C107.203 31.986 106.551 31.697 105.735 31.697C105.441 31.697 105.174 31.7253 104.936 31.782C104.698 31.8273 104.477 31.8953 104.273 31.986L103.627 30.643C103.933 30.473 104.279 30.354 104.664 30.286C105.061 30.2067 105.497 30.167 105.973 30.167C106.801 30.167 107.537 30.3653 108.183 30.762C108.841 31.1587 109.356 31.714 109.73 32.428C110.104 33.1307 110.291 33.9637 110.291 34.927C110.291 35.845 110.093 36.661 109.696 37.375C109.311 38.089 108.767 38.65 108.064 39.058C107.362 39.466 106.546 39.67 105.616 39.67C104.834 39.67 104.12 39.517 103.474 39.211C102.84 38.8937 102.318 38.4403 101.91 37.851C101.514 38.4063 100.998 38.8483 100.363 39.177C99.7287 39.5057 98.9977 39.67 98.1704 39.67ZM105.545 44.906C104.967 44.906 104.502 44.7417 104.151 44.413C103.788 44.0957 103.607 43.6367 103.607 43.036C103.607 42.4467 103.788 41.9877 104.151 41.659C104.502 41.3303 104.967 41.166 105.545 41.166C106.123 41.166 106.599 41.3303 106.973 41.659C107.347 41.999 107.534 42.4523 107.534 43.019C107.534 43.6197 107.347 44.0843 106.973 44.413C106.599 44.7417 106.123 44.906 105.545 44.906ZM105.562 43.869C105.811 43.869 106.015 43.7953 106.174 43.648C106.332 43.5007 106.412 43.2967 106.412 43.036C106.412 42.764 106.332 42.5543 106.174 42.407C106.015 42.2597 105.811 42.186 105.562 42.186C105.324 42.186 105.125 42.2597 104.967 42.407C104.808 42.5543 104.729 42.764 104.729 43.036C104.729 43.5913 105.006 43.869 105.562 43.869ZM104.793 28.858C103.467 28.042 102.804 26.9427 102.804 25.56C102.804 24.9253 102.94 24.3757 103.212 23.911C103.484 23.4463 103.858 23.0893 104.334 22.84C104.81 22.5793 105.348 22.449 105.949 22.449C106.538 22.449 107.065 22.5737 107.53 22.823C107.995 23.061 108.357 23.4067 108.618 23.86L107.513 24.642C107.354 24.37 107.145 24.149 106.884 23.979C106.623 23.809 106.317 23.724 105.966 23.724C105.467 23.724 105.076 23.9053 104.793 24.268C104.498 24.6193 104.351 25.0387 104.351 25.526C104.351 25.9227 104.425 26.274 104.572 26.58C104.719 26.8747 104.901 27.1297 105.116 27.345C105.32 27.5603 105.518 27.736 105.711 27.872L104.793 28.858ZM119.651 47.439V34.944C119.651 33.9807 119.384 33.193 118.852 32.581C118.319 31.969 117.605 31.663 116.71 31.663C115.996 31.663 115.395 31.85 114.908 32.224C114.432 32.598 114.097 33.108 113.905 33.754C115.423 33.9467 116.574 34.519 117.356 35.471C118.149 36.423 118.551 37.7207 118.563 39.364C118.279 39.4547 117.979 39.5283 117.662 39.585C117.356 39.6417 117.044 39.67 116.727 39.67C115.797 39.67 114.981 39.466 114.279 39.058C113.587 38.65 113.043 38.089 112.647 37.375C112.261 36.661 112.069 35.845 112.069 34.927C112.069 33.9977 112.261 33.176 112.647 32.462C113.043 31.748 113.593 31.187 114.296 30.779C115.01 30.371 115.831 30.167 116.761 30.167C117.713 30.167 118.54 30.3767 119.243 30.796C119.945 31.204 120.489 31.765 120.875 32.479C121.26 33.193 121.453 34.009 121.453 34.927V46.011H123.51V47.439H119.651ZM116.778 38.191C116.88 38.191 116.982 38.191 117.084 38.191C116.948 37.2503 116.585 36.5137 115.996 35.981C115.418 35.4483 114.664 35.1367 113.735 35.046C113.757 35.9753 114.035 36.7347 114.568 37.324C115.112 37.902 115.848 38.191 116.778 38.191ZM127.222 47.439V39.653H126.967C125.732 39.653 124.836 39.432 124.281 38.99C123.737 38.548 123.465 37.9757 123.465 37.273C123.465 36.8423 123.573 36.4627 123.788 36.134C124.015 35.794 124.315 35.5333 124.689 35.352C125.074 35.1593 125.505 35.063 125.981 35.063C126.808 35.063 127.454 35.3237 127.919 35.845C128.384 36.3663 128.673 37.1653 128.786 38.242C129.239 38.1853 129.602 38.055 129.874 37.851C130.146 37.6357 130.282 37.3127 130.282 36.882C130.282 36.4627 130.05 36.1113 129.585 35.828C129.132 35.5447 128.508 35.2613 127.715 34.978C126.876 34.672 126.276 34.332 125.913 33.958C125.562 33.584 125.386 33.1023 125.386 32.513C125.386 32.0597 125.511 31.6573 125.76 31.306C126.009 30.9547 126.344 30.677 126.763 30.473C127.182 30.269 127.647 30.167 128.157 30.167C128.894 30.167 129.483 30.2747 129.925 30.49C130.378 30.694 130.837 31.0113 131.302 31.442L130.299 32.547C129.959 32.207 129.63 31.9633 129.313 31.816C128.996 31.6573 128.644 31.578 128.259 31.578C127.942 31.578 127.67 31.663 127.443 31.833C127.216 31.9917 127.103 32.207 127.103 32.479C127.103 32.7963 127.267 33.0513 127.596 33.244C127.936 33.4367 128.423 33.6463 129.058 33.873C129.693 34.0997 130.231 34.3377 130.673 34.587C131.115 34.825 131.449 35.1253 131.676 35.488C131.903 35.8393 132.016 36.2927 132.016 36.848C132.016 37.6867 131.738 38.3383 131.183 38.803C130.628 39.2677 129.846 39.5453 128.837 39.636V47.439H127.222ZM126.865 38.293H127.222C127.177 37.613 127.029 37.1143 126.78 36.797C126.542 36.4797 126.225 36.321 125.828 36.321C125.567 36.321 125.335 36.4003 125.131 36.559C124.938 36.7063 124.842 36.9387 124.842 37.256C124.842 37.9473 125.516 38.293 126.865 38.293ZM126.956 28.858C125.63 28.042 124.967 26.9427 124.967 25.56C124.967 24.9253 125.103 24.3757 125.375 23.911C125.647 23.4463 126.021 23.0893 126.497 22.84C126.973 22.5793 127.511 22.449 128.112 22.449C128.701 22.449 129.228 22.5737 129.693 22.823C130.158 23.061 130.52 23.4067 130.781 23.86L129.676 24.642C129.517 24.37 129.308 24.149 129.047 23.979C128.786 23.809 128.48 23.724 128.129 23.724C127.63 23.724 127.239 23.9053 126.956 24.268C126.661 24.6193 126.514 25.0387 126.514 25.526C126.514 25.9227 126.588 26.274 126.735 26.58C126.882 26.8747 127.064 27.1297 127.279 27.345C127.483 27.5603 127.681 27.736 127.874 27.872L126.956 28.858Z" fill="white"/>
</svg>
