<svg width="275" height="55" viewBox="0 0 275 55" fill="none" xmlns="http://www.w3.org/2000/svg">
<rect x="0.5" y="0.5" width="274" height="54" rx="27" fill="#1F1F1F"/>
<rect x="0.5" y="0.5" width="274" height="54" rx="27" stroke="#747775"/>
<path d="M57 23.791H21V18.1455C21 15.0809 23.6422 12.5001 26.7798 12.5001H51.2202C54.3578 12.5001 57 15.0809 57 18.1455V23.791Z" fill="#34A853"/>
<path d="M57 29H21V23C21 19.7429 23.6422 17 26.7798 17H51.2202C54.3578 17 57 19.7429 57 23V29Z" fill="#FBBC04"/>
<path d="M57 34H21V28C21 24.7429 23.6422 22 26.7798 22H51.2202C54.3578 22 57 24.7429 57 28V34Z" fill="#EA4335"/>
<path d="M21 25.2409L43.8493 30.4025C46.4795 31.0477 49.4384 30.4025 51.5753 28.7895L57 24.9183V37.0157C57 40.0804 54.3699 42.4999 51.2466 42.4999H26.7534C23.6301 42.4999 21 40.0804 21 37.0157V25.2409Z" fill="#4285F4"/>
<path d="M76.14 33.772C75.2673 33.772 74.4457 33.6133 73.675 33.296C72.9043 32.9787 72.2243 32.5367 71.635 31.97C71.057 31.392 70.598 30.7177 70.258 29.947C69.9293 29.165 69.765 28.3207 69.765 27.414C69.765 26.5073 69.9293 25.6687 70.258 24.898C70.598 24.116 71.057 23.4417 71.635 22.875C72.2243 22.297 72.9043 21.8493 73.675 21.532C74.4457 21.2147 75.2673 21.056 76.14 21.056C77.0693 21.056 77.925 21.2203 78.707 21.549C79.5003 21.8777 80.1633 22.3367 80.696 22.926L79.404 24.201C79.1433 23.9063 78.843 23.657 78.503 23.453C78.1743 23.249 77.8117 23.096 77.415 22.994C77.0183 22.8807 76.5933 22.824 76.14 22.824C75.5393 22.824 74.967 22.9317 74.423 23.147C73.879 23.3623 73.3973 23.674 72.978 24.082C72.57 24.4787 72.247 24.9603 72.009 25.527C71.771 26.0823 71.652 26.7113 71.652 27.414C71.652 28.1167 71.771 28.7513 72.009 29.318C72.2583 29.8733 72.587 30.355 72.995 30.763C73.4143 31.1597 73.896 31.4657 74.44 31.681C74.984 31.8963 75.5563 32.004 76.157 32.004C76.7123 32.004 77.228 31.9247 77.704 31.766C78.1913 31.6073 78.6163 31.3807 78.979 31.086C79.3417 30.7913 79.6363 30.4343 79.863 30.015C80.0897 29.5843 80.2313 29.1027 80.288 28.57H76.123V26.921H82.039C82.0617 27.057 82.0843 27.2157 82.107 27.397C82.1297 27.567 82.141 27.7313 82.141 27.89V27.907C82.141 28.7797 81.988 29.5787 81.682 30.304C81.3873 31.0293 80.9737 31.6527 80.441 32.174C79.9083 32.684 79.2737 33.0807 78.537 33.364C77.8117 33.636 77.0127 33.772 76.14 33.772ZM87.6149 33.772C86.7195 33.772 85.9319 33.568 85.2519 33.16C84.5719 32.752 84.0392 32.2023 83.6539 31.511C83.2685 30.8083 83.0759 30.0263 83.0759 29.165C83.0759 28.3037 83.2685 27.5273 83.6539 26.836C84.0392 26.1333 84.5719 25.578 85.2519 25.17C85.9319 24.762 86.7195 24.558 87.6149 24.558C88.4989 24.558 89.2809 24.7677 89.9609 25.187C90.6409 25.595 91.1735 26.1447 91.5589 26.836C91.9442 27.5273 92.1369 28.3037 92.1369 29.165C92.1369 30.0263 91.9442 30.8083 91.5589 31.511C91.1735 32.2023 90.6409 32.752 89.9609 33.16C89.2809 33.568 88.4989 33.772 87.6149 33.772ZM87.6149 32.089C88.0909 32.089 88.5329 31.9757 88.9409 31.749C89.3489 31.511 89.6775 31.1767 89.9269 30.746C90.1875 30.304 90.3179 29.777 90.3179 29.165C90.3179 28.553 90.1875 28.0317 89.9269 27.601C89.6775 27.159 89.3489 26.8247 88.9409 26.598C88.5329 26.36 88.0909 26.241 87.6149 26.241C87.1389 26.241 86.6912 26.36 86.2719 26.598C85.8639 26.8247 85.5295 27.159 85.2689 27.601C85.0195 28.0317 84.8949 28.553 84.8949 29.165C84.8949 29.777 85.0195 30.304 85.2689 30.746C85.5295 31.1767 85.8695 31.511 86.2889 31.749C86.7082 31.9757 87.1502 32.089 87.6149 32.089ZM97.9078 33.772C97.0125 33.772 96.2248 33.568 95.5448 33.16C94.8648 32.752 94.3322 32.2023 93.9468 31.511C93.5615 30.8083 93.3688 30.0263 93.3688 29.165C93.3688 28.3037 93.5615 27.5273 93.9468 26.836C94.3322 26.1333 94.8648 25.578 95.5448 25.17C96.2248 24.762 97.0125 24.558 97.9078 24.558C98.7918 24.558 99.5738 24.7677 100.254 25.187C100.934 25.595 101.467 26.1447 101.852 26.836C102.237 27.5273 102.43 28.3037 102.43 29.165C102.43 30.0263 102.237 30.8083 101.852 31.511C101.467 32.2023 100.934 32.752 100.254 33.16C99.5738 33.568 98.7918 33.772 97.9078 33.772ZM97.9078 32.089C98.3838 32.089 98.8258 31.9757 99.2338 31.749C99.6418 31.511 99.9705 31.1767 100.22 30.746C100.481 30.304 100.611 29.777 100.611 29.165C100.611 28.553 100.481 28.0317 100.22 27.601C99.9705 27.159 99.6418 26.8247 99.2338 26.598C98.8258 26.36 98.3838 26.241 97.9078 26.241C97.4318 26.241 96.9842 26.36 96.5648 26.598C96.1568 26.8247 95.8225 27.159 95.5618 27.601C95.3125 28.0317 95.1878 28.553 95.1878 29.165C95.1878 29.777 95.3125 30.304 95.5618 30.746C95.8225 31.1767 96.1625 31.511 96.5818 31.749C97.0012 31.9757 97.4432 32.089 97.9078 32.089ZM108.031 37.444C107.271 37.444 106.614 37.3193 106.059 37.07C105.515 36.832 105.073 36.5203 104.733 36.135C104.393 35.761 104.149 35.3757 104.002 34.979L105.702 34.265C105.883 34.7183 106.172 35.0867 106.569 35.37C106.977 35.6647 107.464 35.812 108.031 35.812C108.835 35.812 109.464 35.574 109.918 35.098C110.371 34.622 110.598 33.9477 110.598 33.075V32.242H110.496C110.224 32.6387 109.85 32.9617 109.374 33.211C108.898 33.4603 108.348 33.585 107.725 33.585C106.988 33.585 106.308 33.398 105.685 33.024C105.073 32.65 104.58 32.1287 104.206 31.46C103.843 30.78 103.662 29.9867 103.662 29.08C103.662 28.162 103.843 27.3687 104.206 26.7C104.58 26.02 105.073 25.493 105.685 25.119C106.308 24.745 106.988 24.558 107.725 24.558C108.348 24.558 108.898 24.6827 109.374 24.932C109.85 25.17 110.224 25.4987 110.496 25.918H110.598V24.83H112.349V33.041C112.349 33.9817 112.162 34.7807 111.788 35.438C111.425 36.0953 110.921 36.594 110.275 36.934C109.629 37.274 108.881 37.444 108.031 37.444ZM108.048 31.919C108.501 31.919 108.92 31.8113 109.306 31.596C109.702 31.3693 110.014 31.0463 110.241 30.627C110.479 30.1963 110.598 29.6807 110.598 29.08C110.598 28.4453 110.479 27.9183 110.241 27.499C110.014 27.0797 109.702 26.7623 109.306 26.547C108.92 26.3317 108.501 26.224 108.048 26.224C107.594 26.224 107.169 26.3317 106.773 26.547C106.387 26.7623 106.076 27.0853 105.838 27.516C105.6 27.9353 105.481 28.4567 105.481 29.08C105.481 29.692 105.6 30.2133 105.838 30.644C106.076 31.0633 106.387 31.3807 106.773 31.596C107.169 31.8113 107.594 31.919 108.048 31.919ZM114.514 33.5V21.328H116.35V33.5H114.514ZM122.392 33.772C121.542 33.772 120.783 33.5737 120.114 33.177C119.446 32.7803 118.919 32.2363 118.533 31.545C118.159 30.8537 117.972 30.066 117.972 29.182C117.972 28.3547 118.154 27.5897 118.516 26.887C118.879 26.1843 119.383 25.6233 120.029 25.204C120.687 24.7733 121.44 24.558 122.29 24.558C123.186 24.558 123.945 24.7507 124.568 25.136C125.203 25.5213 125.685 26.0483 126.013 26.717C126.342 27.3857 126.506 28.1393 126.506 28.978C126.506 29.1027 126.501 29.216 126.489 29.318C126.489 29.42 126.484 29.4993 126.472 29.556H119.774C119.82 30.032 119.939 30.4457 120.131 30.797C120.381 31.239 120.709 31.5733 121.117 31.8C121.525 32.0267 121.967 32.14 122.443 32.14C123.021 32.14 123.503 32.0097 123.888 31.749C124.285 31.477 124.597 31.1427 124.823 30.746L126.336 31.477C125.962 32.157 125.452 32.7123 124.806 33.143C124.16 33.5623 123.356 33.772 122.392 33.772ZM119.876 28.179H124.687C124.676 27.9637 124.619 27.737 124.517 27.499C124.415 27.2497 124.268 27.023 124.075 26.819C123.883 26.615 123.639 26.4507 123.344 26.326C123.05 26.19 122.704 26.122 122.307 26.122C121.809 26.122 121.367 26.2523 120.981 26.513C120.596 26.7623 120.296 27.1137 120.08 27.567C119.99 27.7597 119.922 27.9637 119.876 28.179ZM133.979 33.5L130.715 21.328H132.789L134.727 29.233L134.931 30.287H135.033L135.288 29.233L137.736 21.328H139.606L141.952 29.233L142.207 30.27H142.309L142.513 29.233L144.451 21.328H146.508L143.295 33.5H141.323L138.994 25.425L138.722 24.286H138.62L138.331 25.425L135.9 33.5H133.979ZM149.922 33.772C149.299 33.772 148.743 33.6473 148.256 33.398C147.78 33.1487 147.4 32.8087 147.117 32.378C146.845 31.936 146.709 31.4317 146.709 30.865C146.709 30.2417 146.868 29.7147 147.185 29.284C147.514 28.8533 147.95 28.5247 148.494 28.298C149.038 28.0713 149.639 27.958 150.296 27.958C150.659 27.958 150.993 27.9863 151.299 28.043C151.616 28.0883 151.888 28.145 152.115 28.213C152.353 28.281 152.54 28.3547 152.676 28.434V27.975C152.676 27.4083 152.472 26.955 152.064 26.615C151.656 26.275 151.129 26.105 150.483 26.105C150.041 26.105 149.622 26.207 149.225 26.411C148.828 26.6037 148.511 26.87 148.273 27.21L147.015 26.241C147.264 25.8897 147.565 25.5893 147.916 25.34C148.279 25.0907 148.681 24.898 149.123 24.762C149.576 24.626 150.047 24.558 150.534 24.558C151.792 24.558 152.761 24.8697 153.441 25.493C154.121 26.105 154.461 26.9663 154.461 28.077V33.5H152.676V32.429H152.574C152.427 32.6557 152.223 32.871 151.962 33.075C151.713 33.279 151.412 33.4433 151.061 33.568C150.721 33.704 150.341 33.772 149.922 33.772ZM150.245 32.276C150.721 32.276 151.14 32.1627 151.503 31.936C151.877 31.7093 152.166 31.4147 152.37 31.052C152.574 30.678 152.676 30.2757 152.676 29.845C152.427 29.6977 152.121 29.5787 151.758 29.488C151.407 29.386 151.033 29.335 150.636 29.335C149.888 29.335 149.355 29.4823 149.038 29.777C148.721 30.0717 148.562 30.44 148.562 30.882C148.562 31.29 148.715 31.6243 149.021 31.885C149.327 32.1457 149.735 32.276 150.245 32.276ZM156.499 33.5V21.328H158.335V33.5H156.499ZM160.517 33.5V21.328H162.353V33.5H160.517ZM168.395 33.772C167.545 33.772 166.786 33.5737 166.117 33.177C165.449 32.7803 164.922 32.2363 164.536 31.545C164.162 30.8537 163.975 30.066 163.975 29.182C163.975 28.3547 164.157 27.5897 164.519 26.887C164.882 26.1843 165.386 25.6233 166.032 25.204C166.69 24.7733 167.443 24.558 168.293 24.558C169.189 24.558 169.948 24.7507 170.571 25.136C171.206 25.5213 171.688 26.0483 172.016 26.717C172.345 27.3857 172.509 28.1393 172.509 28.978C172.509 29.1027 172.504 29.216 172.492 29.318C172.492 29.42 172.487 29.4993 172.475 29.556H165.777C165.823 30.032 165.942 30.4457 166.134 30.797C166.384 31.239 166.712 31.5733 167.12 31.8C167.528 32.0267 167.97 32.14 168.446 32.14C169.024 32.14 169.506 32.0097 169.891 31.749C170.288 31.477 170.6 31.1427 170.826 30.746L172.339 31.477C171.965 32.157 171.455 32.7123 170.809 33.143C170.163 33.5623 169.359 33.772 168.395 33.772ZM165.879 28.179H170.69C170.679 27.9637 170.622 27.737 170.52 27.499C170.418 27.2497 170.271 27.023 170.078 26.819C169.886 26.615 169.642 26.4507 169.347 26.326C169.053 26.19 168.707 26.122 168.31 26.122C167.812 26.122 167.37 26.2523 166.984 26.513C166.599 26.7623 166.299 27.1137 166.083 27.567C165.993 27.7597 165.925 27.9637 165.879 28.179ZM173.369 24.83H174.882V22.382H176.718V24.83H178.843V26.428H176.718V30.593C176.718 31.0237 176.803 31.3523 176.973 31.579C177.154 31.8057 177.454 31.919 177.874 31.919C178.078 31.919 178.259 31.8907 178.418 31.834C178.576 31.766 178.735 31.6867 178.894 31.596V33.381C178.701 33.4603 178.497 33.5227 178.282 33.568C178.066 33.6133 177.811 33.636 177.517 33.636C176.712 33.636 176.072 33.4037 175.596 32.939C175.12 32.463 174.882 31.8113 174.882 30.984V26.428H173.369V24.83ZM186.578 31.103C186.34 31.103 186.085 31.0293 185.813 30.882C185.552 30.7233 185.303 30.5193 185.065 30.27C184.827 30.0207 184.634 29.76 184.487 29.488C184.34 29.2047 184.266 28.9327 184.266 28.672C184.266 28.366 184.357 28.1337 184.538 27.975C184.731 27.8163 184.974 27.737 185.269 27.737H185.694V23.589H183.161V22.195H194.364V23.589H192.834V33.5H191.134V29.233H187.377V30.236C187.377 30.4967 187.303 30.7063 187.156 30.865C187.02 31.0237 186.827 31.103 186.578 31.103ZM191.134 27.737V23.589H187.377V27.737H191.134ZM195.641 33.5V23.589H193.686V22.195H198.871V23.589H197.341V33.5H195.641ZM208.528 36.475C207.599 36.1917 206.783 35.812 206.08 35.336C205.389 34.8713 204.85 34.333 204.465 33.721C204.08 33.109 203.887 32.4403 203.887 31.715C203.887 30.695 204.255 29.8563 204.992 29.199V29.114C204.539 28.9213 204.182 28.6493 203.921 28.298C203.672 27.9353 203.547 27.5273 203.547 27.074C203.547 26.4053 203.779 25.8783 204.244 25.493C204.72 25.0963 205.36 24.898 206.165 24.898H209.004V23.589H202.153V22.195H212.353V23.589H210.636V26.36H206.352C206.012 26.36 205.74 26.445 205.536 26.615C205.343 26.7737 205.247 26.989 205.247 27.261C205.247 27.5443 205.343 27.7653 205.536 27.924C205.74 28.0713 206.012 28.145 206.352 28.145H207.542C208.313 28.145 208.981 28.281 209.548 28.553C210.126 28.8137 210.568 29.182 210.874 29.658C211.191 30.1227 211.35 30.678 211.35 31.324C211.35 32.2533 211.004 33.0807 210.313 33.806L208.987 32.769C209.191 32.5537 209.35 32.3327 209.463 32.106C209.576 31.868 209.633 31.6187 209.633 31.358C209.633 30.8707 209.457 30.4797 209.106 30.185C208.755 29.879 208.284 29.726 207.695 29.726C207.049 29.726 206.539 29.9073 206.165 30.27C205.791 30.6327 205.604 31.12 205.604 31.732C205.604 32.5027 205.916 33.1543 206.539 33.687C207.162 34.231 208.012 34.656 209.089 34.962L208.528 36.475ZM215.967 22.399L215.1 20.563C214.885 20.121 214.675 19.7753 214.471 19.526C214.267 19.2767 214.035 19.101 213.774 18.999C213.513 18.8857 213.196 18.829 212.822 18.829H211.921V17.231H212.754C213.196 17.231 213.587 17.2763 213.927 17.367C214.267 17.4577 214.579 17.6107 214.862 17.826C215.157 18.03 215.423 18.302 215.661 18.642C215.91 18.982 216.16 19.4013 216.409 19.9L217.633 22.399H215.967ZM217.208 33.806L212.499 27.907L213.757 26.853C213.916 27.0343 214.08 27.1703 214.25 27.261C214.431 27.3403 214.635 27.38 214.862 27.38C215.225 27.38 215.502 27.2723 215.695 27.057C215.899 26.8303 216.001 26.53 216.001 26.156V23.589H211.666V22.195H219.435V23.589H217.701V26.207C217.701 27.0343 217.469 27.6803 217.004 28.145C216.596 28.553 216.029 28.7797 215.304 28.825L215.236 28.927L216.137 29.794L218.585 32.735L217.208 33.806ZM223.685 37.971L222.92 36.985C222.614 36.611 222.325 36.339 222.053 36.169C221.792 36.0103 221.475 35.931 221.101 35.931C220.919 35.931 220.721 35.948 220.506 35.982C220.302 36.0273 220.098 36.0897 219.894 36.169L219.435 34.605C219.718 34.5143 220.001 34.4407 220.285 34.384C220.579 34.3387 220.851 34.316 221.101 34.316C221.509 34.316 221.866 34.367 222.172 34.469C222.478 34.5823 222.778 34.7693 223.073 35.03C223.379 35.2907 223.713 35.6533 224.076 36.118L224.858 37.087L223.685 37.971ZM222.07 30.202C221.82 30.202 221.554 30.1227 221.271 29.964C220.987 29.794 220.721 29.5787 220.472 29.318C220.234 29.0573 220.035 28.7797 219.877 28.485C219.729 28.179 219.656 27.8957 219.656 27.635C219.656 27.3403 219.746 27.1137 219.928 26.955C220.109 26.785 220.353 26.7 220.659 26.7H226.048V23.589H218.755V22.195H229.278V23.589H227.748V33.5H226.048V28.196H222.886V29.318C222.886 29.59 222.812 29.8053 222.665 29.964C222.529 30.1227 222.33 30.202 222.07 30.202ZM234.243 38.294C233.246 38.294 232.334 38.0333 231.506 37.512C230.69 37.002 229.948 36.22 229.279 35.166L230.622 34.282C231.189 35.1093 231.756 35.7213 232.322 36.118C232.889 36.526 233.518 36.73 234.209 36.73C234.651 36.73 235.003 36.628 235.263 36.424C235.535 36.22 235.671 35.9537 235.671 35.625C235.671 35.319 235.581 35.0753 235.399 34.894C235.218 34.7127 234.969 34.622 234.651 34.622C234.221 34.622 233.767 34.8203 233.291 35.217L232.288 34.027C233.002 33.4263 233.79 33.126 234.651 33.126C235.207 33.126 235.688 33.2393 236.096 33.466C236.516 33.6813 236.839 33.976 237.065 34.35C237.303 34.7353 237.422 35.1717 237.422 35.659C237.422 36.4523 237.133 37.087 236.555 37.563C235.977 38.0503 235.207 38.294 234.243 38.294ZM234.974 36.475C234.045 36.1917 233.229 35.812 232.526 35.336C231.835 34.8713 231.297 34.333 230.911 33.721C230.526 33.109 230.333 32.4403 230.333 31.715C230.333 30.695 230.702 29.8563 231.438 29.199V29.114C230.985 28.9213 230.628 28.6493 230.367 28.298C230.118 27.9353 229.993 27.5273 229.993 27.074C229.993 26.4053 230.226 25.8783 230.69 25.493C231.166 25.0963 231.807 24.898 232.611 24.898H235.45V23.589H228.599V22.195H238.799V23.589H237.082V26.36H232.798C232.458 26.36 232.186 26.445 231.982 26.615C231.79 26.7737 231.693 26.989 231.693 27.261C231.693 27.5443 231.79 27.7653 231.982 27.924C232.186 28.0713 232.458 28.145 232.798 28.145H233.988C234.759 28.145 235.428 28.281 235.994 28.553C236.572 28.8137 237.014 29.182 237.32 29.658C237.638 30.1227 237.796 30.678 237.796 31.324C237.796 32.2533 237.451 33.0807 236.759 33.806L235.433 32.769C235.637 32.5537 235.796 32.3327 235.909 32.106C236.023 31.868 236.079 31.6187 236.079 31.358C236.079 30.8707 235.904 30.4797 235.552 30.185C235.201 29.879 234.731 29.726 234.141 29.726C233.495 29.726 232.985 29.9073 232.611 30.27C232.237 30.6327 232.05 31.12 232.05 31.732C232.05 32.5027 232.362 33.1543 232.985 33.687C233.609 34.231 234.459 34.656 235.535 34.962L234.974 36.475ZM240.067 33.5V23.589H238.112V22.195H239.931L239.149 20.563C238.934 20.121 238.724 19.7753 238.52 19.526C238.316 19.2767 238.084 19.101 237.823 18.999C237.562 18.8857 237.245 18.829 236.871 18.829H235.97V17.231H236.803C237.245 17.231 237.636 17.2763 237.976 17.367C238.316 17.4577 238.628 17.6107 238.911 17.826C239.206 18.03 239.472 18.302 239.71 18.642C239.959 18.982 240.209 19.4013 240.458 19.9L241.58 22.195H243.297V23.589H241.767V33.5H240.067ZM248.153 33.806L243.444 27.907L244.702 26.853C244.861 27.0343 245.025 27.1703 245.195 27.261C245.377 27.3403 245.581 27.38 245.807 27.38C246.17 27.38 246.448 27.2723 246.64 27.057C246.844 26.8303 246.946 26.53 246.946 26.156V23.589H242.611V22.195H255.344V23.589H253.814V33.5H252.114V28.978H248.561L246.249 28.825L246.181 28.944L247.082 29.794L249.53 32.735L248.153 33.806ZM248.612 23.589V26.156C248.612 26.6773 248.522 27.1307 248.34 27.516H252.114V23.589H248.612ZM259.594 37.971L258.829 36.985C258.523 36.611 258.234 36.339 257.962 36.169C257.701 36.0103 257.384 35.931 257.01 35.931C256.829 35.931 256.63 35.948 256.415 35.982C256.211 36.0273 256.007 36.0897 255.803 36.169L255.344 34.605C255.627 34.5143 255.911 34.4407 256.194 34.384C256.489 34.3387 256.761 34.316 257.01 34.316C257.418 34.316 257.775 34.367 258.081 34.469C258.387 34.5823 258.687 34.7693 258.982 35.03C259.288 35.2907 259.622 35.6533 259.985 36.118L260.767 37.087L259.594 37.971Z" fill="white"/>
</svg>
