<svg width="199" height="55" viewBox="0 0 199 55" fill="none" xmlns="http://www.w3.org/2000/svg">
<rect x="0.5" y="0.5" width="198" height="54" rx="27" fill="#1F1F1F"/>
<rect x="0.5" y="0.5" width="198" height="54" rx="27" stroke="#747775"/>
<path d="M57 23.791H21V18.1455C21 15.0809 23.6422 12.5001 26.7798 12.5001H51.2202C54.3578 12.5001 57 15.0809 57 18.1455V23.791Z" fill="#34A853"/>
<path d="M57 29H21V23C21 19.7429 23.6422 17 26.7798 17H51.2202C54.3578 17 57 19.7429 57 23V29Z" fill="#FBBC04"/>
<path d="M57 34H21V28C21 24.7429 23.6422 22 26.7798 22H51.2202C54.3578 22 57 24.7429 57 28V34Z" fill="#EA4335"/>
<path d="M21 25.2409L43.8493 30.4025C46.4795 31.0477 49.4384 30.4025 51.5753 28.7895L57 24.9183V37.0157C57 40.0804 54.3699 42.4999 51.2466 42.4999H26.7534C23.6301 42.4999 21 40.0804 21 37.0157V25.2409Z" fill="#4285F4"/>
<path d="M70.053 21.5V12.192H73.537C74.0483 12.192 74.512 12.3003 74.928 12.517C75.344 12.7337 75.6733 13.0283 75.916 13.401C76.1673 13.7737 76.293 14.194 76.293 14.662C76.293 15.1387 76.176 15.546 75.942 15.884C75.708 16.222 75.4047 16.4777 75.032 16.651V16.716C75.5 16.872 75.8813 17.1407 76.176 17.522C76.4707 17.9033 76.618 18.3583 76.618 18.887C76.618 19.407 76.4837 19.862 76.215 20.252C75.955 20.642 75.5997 20.9497 75.149 21.175C74.707 21.3917 74.2217 21.5 73.693 21.5H70.053ZM71.483 17.379V20.174H73.693C74.005 20.174 74.2737 20.109 74.499 19.979C74.7243 19.849 74.8933 19.6757 75.006 19.459C75.1273 19.2423 75.188 19.017 75.188 18.783C75.188 18.5317 75.1273 18.302 75.006 18.094C74.8847 17.8773 74.707 17.704 74.473 17.574C74.2477 17.444 73.9703 17.379 73.641 17.379H71.483ZM71.483 16.105H73.472C73.7753 16.105 74.031 16.0443 74.239 15.923C74.4557 15.793 74.6203 15.6283 74.733 15.429C74.8457 15.221 74.902 15.0087 74.902 14.792C74.902 14.5753 74.8457 14.3717 74.733 14.181C74.629 13.9817 74.473 13.8213 74.265 13.7C74.057 13.57 73.81 13.505 73.524 13.505H71.483V16.105ZM80.9857 21.708C80.3357 21.708 79.755 21.5563 79.2437 21.253C78.7324 20.9497 78.3294 20.5337 78.0347 20.005C77.7487 19.4763 77.6057 18.874 77.6057 18.198C77.6057 17.5653 77.7444 16.9803 78.0217 16.443C78.299 15.9057 78.6847 15.4767 79.1787 15.156C79.6814 14.8267 80.2577 14.662 80.9077 14.662C81.5924 14.662 82.173 14.8093 82.6497 15.104C83.135 15.3987 83.5034 15.8017 83.7547 16.313C84.006 16.8243 84.1317 17.4007 84.1317 18.042C84.1317 18.1373 84.1274 18.224 84.1187 18.302C84.1187 18.38 84.1144 18.4407 84.1057 18.484H78.9837C79.0184 18.848 79.1094 19.1643 79.2567 19.433C79.4474 19.771 79.6987 20.0267 80.0107 20.2C80.3227 20.3733 80.6607 20.46 81.0247 20.46C81.4667 20.46 81.835 20.3603 82.1297 20.161C82.433 19.953 82.6714 19.6973 82.8447 19.394L84.0017 19.953C83.7157 20.473 83.3257 20.8977 82.8317 21.227C82.3377 21.5477 81.7224 21.708 80.9857 21.708ZM79.0617 17.431H82.7407C82.732 17.2663 82.6887 17.093 82.6107 16.911C82.5327 16.7203 82.42 16.547 82.2727 16.391C82.1254 16.235 81.939 16.1093 81.7137 16.014C81.4884 15.91 81.224 15.858 80.9207 15.858C80.5394 15.858 80.2014 15.9577 79.9067 16.157C79.612 16.3477 79.3824 16.6163 79.2177 16.963C79.1484 17.1103 79.0964 17.2663 79.0617 17.431ZM85.4342 21.5V12.192H86.8382V17.678L89.6462 14.87H91.3882V14.948L88.8272 17.483L91.4792 21.422V21.5H89.8152L87.8392 18.458L86.8382 19.446V21.5H85.4342ZM92.4572 21.5V14.87H93.8612V21.5H92.4572ZM93.1592 13.895C92.8992 13.895 92.6738 13.804 92.4832 13.622C92.3012 13.4313 92.2102 13.206 92.2102 12.946C92.2102 12.6773 92.3012 12.4563 92.4832 12.283C92.6738 12.101 92.8992 12.01 93.1592 12.01C93.4278 12.01 93.6532 12.101 93.8352 12.283C94.0172 12.4563 94.1082 12.6773 94.1082 12.946C94.1082 13.206 94.0172 13.4313 93.8352 13.622C93.6532 13.804 93.4278 13.895 93.1592 13.895ZM95.1482 24.438C95.0095 24.438 94.8838 24.4293 94.7712 24.412C94.6498 24.3947 94.5328 24.373 94.4202 24.347V22.995C94.4982 23.0383 94.5935 23.0773 94.7062 23.112C94.8188 23.1467 94.9272 23.164 95.0312 23.164C95.2738 23.164 95.4472 23.086 95.5512 22.93C95.6552 22.7827 95.7072 22.566 95.7072 22.28V14.87H97.1112V22.293C97.1112 22.8043 97.0245 23.216 96.8512 23.528C96.6865 23.84 96.4568 24.0697 96.1622 24.217C95.8675 24.3643 95.5295 24.438 95.1482 24.438ZM96.4092 13.895C96.1492 13.895 95.9238 13.804 95.7332 13.622C95.5512 13.4313 95.4602 13.206 95.4602 12.946C95.4602 12.6773 95.5512 12.4563 95.7332 12.283C95.9238 12.101 96.1492 12.01 96.4092 12.01C96.6778 12.01 96.9032 12.101 97.0852 12.283C97.2672 12.4563 97.3582 12.6773 97.3582 12.946C97.3582 13.206 97.2672 13.4313 97.0852 13.622C96.9032 13.804 96.6778 13.895 96.4092 13.895ZM98.8532 21.5V12.192H100.257V17.678L103.065 14.87H104.807V14.948L102.246 17.483L104.898 21.422V21.5H103.234L101.258 18.458L100.257 19.446V21.5H98.8532ZM108.611 21.708C107.961 21.708 107.38 21.5563 106.869 21.253C106.357 20.9497 105.954 20.5337 105.66 20.005C105.374 19.4763 105.231 18.874 105.231 18.198C105.231 17.5653 105.369 16.9803 105.647 16.443C105.924 15.9057 106.31 15.4767 106.804 15.156C107.306 14.8267 107.883 14.662 108.533 14.662C109.217 14.662 109.798 14.8093 110.275 15.104C110.76 15.3987 111.128 15.8017 111.38 16.313C111.631 16.8243 111.757 17.4007 111.757 18.042C111.757 18.1373 111.752 18.224 111.744 18.302C111.744 18.38 111.739 18.4407 111.731 18.484H106.609C106.643 18.848 106.734 19.1643 106.882 19.433C107.072 19.771 107.324 20.0267 107.636 20.2C107.948 20.3733 108.286 20.46 108.65 20.46C109.092 20.46 109.46 20.3603 109.755 20.161C110.058 19.953 110.296 19.6973 110.47 19.394L111.627 19.953C111.341 20.473 110.951 20.8977 110.457 21.227C109.963 21.5477 109.347 21.708 108.611 21.708ZM106.687 17.431H110.366C110.357 17.2663 110.314 17.093 110.236 16.911C110.158 16.7203 110.045 16.547 109.898 16.391C109.75 16.235 109.564 16.1093 109.339 16.014C109.113 15.91 108.849 15.858 108.546 15.858C108.164 15.858 107.826 15.9577 107.532 16.157C107.237 16.3477 107.007 16.6163 106.843 16.963C106.773 17.1103 106.721 17.2663 106.687 17.431ZM113.059 21.5V14.87H114.385V15.78H114.463C114.654 15.4593 114.936 15.195 115.308 14.987C115.69 14.7703 116.106 14.662 116.556 14.662C117.371 14.662 117.982 14.9047 118.389 15.39C118.797 15.8667 119 16.508 119 17.314V21.5H117.609V17.496C117.609 16.9587 117.475 16.5687 117.206 16.326C116.938 16.0747 116.587 15.949 116.153 15.949C115.815 15.949 115.521 16.0443 115.269 16.235C115.018 16.417 114.819 16.6597 114.671 16.963C114.533 17.2663 114.463 17.5913 114.463 17.938V21.5H113.059ZM123.738 21.5V14.87H125.142V21.5H123.738ZM124.44 13.895C124.18 13.895 123.955 13.804 123.764 13.622C123.582 13.4313 123.491 13.206 123.491 12.946C123.491 12.6773 123.582 12.4563 123.764 12.283C123.955 12.101 124.18 12.01 124.44 12.01C124.709 12.01 124.934 12.101 125.116 12.283C125.298 12.4563 125.389 12.6773 125.389 12.946C125.389 13.206 125.298 13.4313 125.116 13.622C124.934 13.804 124.709 13.895 124.44 13.895ZM126.884 21.5V14.87H128.21V15.78H128.288C128.479 15.4593 128.761 15.195 129.133 14.987C129.515 14.7703 129.931 14.662 130.381 14.662C131.196 14.662 131.807 14.9047 132.214 15.39C132.622 15.8667 132.825 16.508 132.825 17.314V21.5H131.434V17.496C131.434 16.9587 131.3 16.5687 131.031 16.326C130.763 16.0747 130.412 15.949 129.978 15.949C129.64 15.949 129.346 16.0443 129.094 16.235C128.843 16.417 128.644 16.6597 128.496 16.963C128.358 17.2663 128.288 17.5913 128.288 17.938V21.5H126.884Z" fill="white"/>
<path d="M76.14 41.772C75.2673 41.772 74.4457 41.6133 73.675 41.296C72.9043 40.9787 72.2243 40.5367 71.635 39.97C71.057 39.392 70.598 38.7177 70.258 37.947C69.9293 37.165 69.765 36.3207 69.765 35.414C69.765 34.5073 69.9293 33.6687 70.258 32.898C70.598 32.116 71.057 31.4417 71.635 30.875C72.2243 30.297 72.9043 29.8493 73.675 29.532C74.4457 29.2147 75.2673 29.056 76.14 29.056C77.0693 29.056 77.925 29.2203 78.707 29.549C79.5003 29.8777 80.1633 30.3367 80.696 30.926L79.404 32.201C79.1433 31.9063 78.843 31.657 78.503 31.453C78.1743 31.249 77.8117 31.096 77.415 30.994C77.0183 30.8807 76.5933 30.824 76.14 30.824C75.5393 30.824 74.967 30.9317 74.423 31.147C73.879 31.3623 73.3973 31.674 72.978 32.082C72.57 32.4787 72.247 32.9603 72.009 33.527C71.771 34.0823 71.652 34.7113 71.652 35.414C71.652 36.1167 71.771 36.7513 72.009 37.318C72.2583 37.8733 72.587 38.355 72.995 38.763C73.4143 39.1597 73.896 39.4657 74.44 39.681C74.984 39.8963 75.5563 40.004 76.157 40.004C76.7123 40.004 77.228 39.9247 77.704 39.766C78.1913 39.6073 78.6163 39.3807 78.979 39.086C79.3417 38.7913 79.6363 38.4343 79.863 38.015C80.0897 37.5843 80.2313 37.1027 80.288 36.57H76.123V34.921H82.039C82.0617 35.057 82.0843 35.2157 82.107 35.397C82.1297 35.567 82.141 35.7313 82.141 35.89V35.907C82.141 36.7797 81.988 37.5787 81.682 38.304C81.3873 39.0293 80.9737 39.6527 80.441 40.174C79.9083 40.684 79.2737 41.0807 78.537 41.364C77.8117 41.636 77.0127 41.772 76.14 41.772ZM87.6149 41.772C86.7195 41.772 85.9319 41.568 85.2519 41.16C84.5719 40.752 84.0392 40.2023 83.6539 39.511C83.2685 38.8083 83.0759 38.0263 83.0759 37.165C83.0759 36.3037 83.2685 35.5273 83.6539 34.836C84.0392 34.1333 84.5719 33.578 85.2519 33.17C85.9319 32.762 86.7195 32.558 87.6149 32.558C88.4989 32.558 89.2809 32.7677 89.9609 33.187C90.6409 33.595 91.1735 34.1447 91.5589 34.836C91.9442 35.5273 92.1369 36.3037 92.1369 37.165C92.1369 38.0263 91.9442 38.8083 91.5589 39.511C91.1735 40.2023 90.6409 40.752 89.9609 41.16C89.2809 41.568 88.4989 41.772 87.6149 41.772ZM87.6149 40.089C88.0909 40.089 88.5329 39.9757 88.9409 39.749C89.3489 39.511 89.6775 39.1767 89.9269 38.746C90.1875 38.304 90.3179 37.777 90.3179 37.165C90.3179 36.553 90.1875 36.0317 89.9269 35.601C89.6775 35.159 89.3489 34.8247 88.9409 34.598C88.5329 34.36 88.0909 34.241 87.6149 34.241C87.1389 34.241 86.6912 34.36 86.2719 34.598C85.8639 34.8247 85.5295 35.159 85.2689 35.601C85.0195 36.0317 84.8949 36.553 84.8949 37.165C84.8949 37.777 85.0195 38.304 85.2689 38.746C85.5295 39.1767 85.8695 39.511 86.2889 39.749C86.7082 39.9757 87.1502 40.089 87.6149 40.089ZM97.9078 41.772C97.0125 41.772 96.2248 41.568 95.5448 41.16C94.8648 40.752 94.3322 40.2023 93.9468 39.511C93.5615 38.8083 93.3688 38.0263 93.3688 37.165C93.3688 36.3037 93.5615 35.5273 93.9468 34.836C94.3322 34.1333 94.8648 33.578 95.5448 33.17C96.2248 32.762 97.0125 32.558 97.9078 32.558C98.7918 32.558 99.5738 32.7677 100.254 33.187C100.934 33.595 101.467 34.1447 101.852 34.836C102.237 35.5273 102.43 36.3037 102.43 37.165C102.43 38.0263 102.237 38.8083 101.852 39.511C101.467 40.2023 100.934 40.752 100.254 41.16C99.5738 41.568 98.7918 41.772 97.9078 41.772ZM97.9078 40.089C98.3838 40.089 98.8258 39.9757 99.2338 39.749C99.6418 39.511 99.9705 39.1767 100.22 38.746C100.481 38.304 100.611 37.777 100.611 37.165C100.611 36.553 100.481 36.0317 100.22 35.601C99.9705 35.159 99.6418 34.8247 99.2338 34.598C98.8258 34.36 98.3838 34.241 97.9078 34.241C97.4318 34.241 96.9842 34.36 96.5648 34.598C96.1568 34.8247 95.8225 35.159 95.5618 35.601C95.3125 36.0317 95.1878 36.553 95.1878 37.165C95.1878 37.777 95.3125 38.304 95.5618 38.746C95.8225 39.1767 96.1625 39.511 96.5818 39.749C97.0012 39.9757 97.4432 40.089 97.9078 40.089ZM108.031 45.444C107.271 45.444 106.614 45.3193 106.059 45.07C105.515 44.832 105.073 44.5203 104.733 44.135C104.393 43.761 104.149 43.3757 104.002 42.979L105.702 42.265C105.883 42.7183 106.172 43.0867 106.569 43.37C106.977 43.6647 107.464 43.812 108.031 43.812C108.835 43.812 109.464 43.574 109.918 43.098C110.371 42.622 110.598 41.9477 110.598 41.075V40.242H110.496C110.224 40.6387 109.85 40.9617 109.374 41.211C108.898 41.4603 108.348 41.585 107.725 41.585C106.988 41.585 106.308 41.398 105.685 41.024C105.073 40.65 104.58 40.1287 104.206 39.46C103.843 38.78 103.662 37.9867 103.662 37.08C103.662 36.162 103.843 35.3687 104.206 34.7C104.58 34.02 105.073 33.493 105.685 33.119C106.308 32.745 106.988 32.558 107.725 32.558C108.348 32.558 108.898 32.6827 109.374 32.932C109.85 33.17 110.224 33.4987 110.496 33.918H110.598V32.83H112.349V41.041C112.349 41.9817 112.162 42.7807 111.788 43.438C111.425 44.0953 110.921 44.594 110.275 44.934C109.629 45.274 108.881 45.444 108.031 45.444ZM108.048 39.919C108.501 39.919 108.92 39.8113 109.306 39.596C109.702 39.3693 110.014 39.0463 110.241 38.627C110.479 38.1963 110.598 37.6807 110.598 37.08C110.598 36.4453 110.479 35.9183 110.241 35.499C110.014 35.0797 109.702 34.7623 109.306 34.547C108.92 34.3317 108.501 34.224 108.048 34.224C107.594 34.224 107.169 34.3317 106.773 34.547C106.387 34.7623 106.076 35.0853 105.838 35.516C105.6 35.9353 105.481 36.4567 105.481 37.08C105.481 37.692 105.6 38.2133 105.838 38.644C106.076 39.0633 106.387 39.3807 106.773 39.596C107.169 39.8113 107.594 39.919 108.048 39.919ZM114.514 41.5V29.328H116.35V41.5H114.514ZM122.392 41.772C121.542 41.772 120.783 41.5737 120.114 41.177C119.446 40.7803 118.919 40.2363 118.533 39.545C118.159 38.8537 117.972 38.066 117.972 37.182C117.972 36.3547 118.154 35.5897 118.516 34.887C118.879 34.1843 119.383 33.6233 120.029 33.204C120.687 32.7733 121.44 32.558 122.29 32.558C123.186 32.558 123.945 32.7507 124.568 33.136C125.203 33.5213 125.685 34.0483 126.013 34.717C126.342 35.3857 126.506 36.1393 126.506 36.978C126.506 37.1027 126.501 37.216 126.489 37.318C126.489 37.42 126.484 37.4993 126.472 37.556H119.774C119.82 38.032 119.939 38.4457 120.131 38.797C120.381 39.239 120.709 39.5733 121.117 39.8C121.525 40.0267 121.967 40.14 122.443 40.14C123.021 40.14 123.503 40.0097 123.888 39.749C124.285 39.477 124.597 39.1427 124.823 38.746L126.336 39.477C125.962 40.157 125.452 40.7123 124.806 41.143C124.16 41.5623 123.356 41.772 122.392 41.772ZM119.876 36.179H124.687C124.676 35.9637 124.619 35.737 124.517 35.499C124.415 35.2497 124.268 35.023 124.075 34.819C123.883 34.615 123.639 34.4507 123.344 34.326C123.05 34.19 122.704 34.122 122.307 34.122C121.809 34.122 121.367 34.2523 120.981 34.513C120.596 34.7623 120.296 35.1137 120.08 35.567C119.99 35.7597 119.922 35.9637 119.876 36.179ZM133.979 41.5L130.715 29.328H132.789L134.727 37.233L134.931 38.287H135.033L135.288 37.233L137.736 29.328H139.606L141.952 37.233L142.207 38.27H142.309L142.513 37.233L144.451 29.328H146.508L143.295 41.5H141.323L138.994 33.425L138.722 32.286H138.62L138.331 33.425L135.9 41.5H133.979ZM149.922 41.772C149.299 41.772 148.743 41.6473 148.256 41.398C147.78 41.1487 147.4 40.8087 147.117 40.378C146.845 39.936 146.709 39.4317 146.709 38.865C146.709 38.2417 146.868 37.7147 147.185 37.284C147.514 36.8533 147.95 36.5247 148.494 36.298C149.038 36.0713 149.639 35.958 150.296 35.958C150.659 35.958 150.993 35.9863 151.299 36.043C151.616 36.0883 151.888 36.145 152.115 36.213C152.353 36.281 152.54 36.3547 152.676 36.434V35.975C152.676 35.4083 152.472 34.955 152.064 34.615C151.656 34.275 151.129 34.105 150.483 34.105C150.041 34.105 149.622 34.207 149.225 34.411C148.828 34.6037 148.511 34.87 148.273 35.21L147.015 34.241C147.264 33.8897 147.565 33.5893 147.916 33.34C148.279 33.0907 148.681 32.898 149.123 32.762C149.576 32.626 150.047 32.558 150.534 32.558C151.792 32.558 152.761 32.8697 153.441 33.493C154.121 34.105 154.461 34.9663 154.461 36.077V41.5H152.676V40.429H152.574C152.427 40.6557 152.223 40.871 151.962 41.075C151.713 41.279 151.412 41.4433 151.061 41.568C150.721 41.704 150.341 41.772 149.922 41.772ZM150.245 40.276C150.721 40.276 151.14 40.1627 151.503 39.936C151.877 39.7093 152.166 39.4147 152.37 39.052C152.574 38.678 152.676 38.2757 152.676 37.845C152.427 37.6977 152.121 37.5787 151.758 37.488C151.407 37.386 151.033 37.335 150.636 37.335C149.888 37.335 149.355 37.4823 149.038 37.777C148.721 38.0717 148.562 38.44 148.562 38.882C148.562 39.29 148.715 39.6243 149.021 39.885C149.327 40.1457 149.735 40.276 150.245 40.276ZM156.499 41.5V29.328H158.335V41.5H156.499ZM160.517 41.5V29.328H162.353V41.5H160.517ZM168.395 41.772C167.545 41.772 166.786 41.5737 166.117 41.177C165.449 40.7803 164.922 40.2363 164.536 39.545C164.162 38.8537 163.975 38.066 163.975 37.182C163.975 36.3547 164.157 35.5897 164.519 34.887C164.882 34.1843 165.386 33.6233 166.032 33.204C166.69 32.7733 167.443 32.558 168.293 32.558C169.189 32.558 169.948 32.7507 170.571 33.136C171.206 33.5213 171.688 34.0483 172.016 34.717C172.345 35.3857 172.509 36.1393 172.509 36.978C172.509 37.1027 172.504 37.216 172.492 37.318C172.492 37.42 172.487 37.4993 172.475 37.556H165.777C165.823 38.032 165.942 38.4457 166.134 38.797C166.384 39.239 166.712 39.5733 167.12 39.8C167.528 40.0267 167.97 40.14 168.446 40.14C169.024 40.14 169.506 40.0097 169.891 39.749C170.288 39.477 170.6 39.1427 170.826 38.746L172.339 39.477C171.965 40.157 171.455 40.7123 170.809 41.143C170.163 41.5623 169.359 41.772 168.395 41.772ZM165.879 36.179H170.69C170.679 35.9637 170.622 35.737 170.52 35.499C170.418 35.2497 170.271 35.023 170.078 34.819C169.886 34.615 169.642 34.4507 169.347 34.326C169.053 34.19 168.707 34.122 168.31 34.122C167.812 34.122 167.37 34.2523 166.984 34.513C166.599 34.7623 166.299 35.1137 166.083 35.567C165.993 35.7597 165.925 35.9637 165.879 36.179ZM173.369 32.83H174.882V30.382H176.718V32.83H178.843V34.428H176.718V38.593C176.718 39.0237 176.803 39.3523 176.973 39.579C177.154 39.8057 177.454 39.919 177.874 39.919C178.078 39.919 178.259 39.8907 178.418 39.834C178.576 39.766 178.735 39.6867 178.894 39.596V41.381C178.701 41.4603 178.497 41.5227 178.282 41.568C178.066 41.6133 177.811 41.636 177.517 41.636C176.712 41.636 176.072 41.4037 175.596 40.939C175.12 40.463 174.882 39.8113 174.882 38.984V34.428H173.369V32.83Z" fill="white"/>
</svg>
