<svg width="173" height="55" viewBox="0 0 173 55" fill="none" xmlns="http://www.w3.org/2000/svg">
<rect x="0.5" y="0.5" width="172" height="54" rx="27" fill="#1F1F1F"/>
<rect x="0.5" y="0.5" width="172" height="54" rx="27" stroke="#747775"/>
<path d="M57 23.791H21V18.1455C21 15.0809 23.6422 12.5001 26.7798 12.5001H51.2202C54.3578 12.5001 57 15.0809 57 18.1455V23.791Z" fill="#34A853"/>
<path d="M57 29H21V23C21 19.7429 23.6422 17 26.7798 17H51.2202C54.3578 17 57 19.7429 57 23V29Z" fill="#FBBC04"/>
<path d="M57 34H21V28C21 24.7429 23.6422 22 26.7798 22H51.2202C54.3578 22 57 24.7429 57 28V34Z" fill="#EA4335"/>
<path d="M21 25.2409L43.8493 30.4025C46.4795 31.0477 49.4384 30.4025 51.5753 28.7895L57 24.9183V37.0157C57 40.0804 54.3699 42.4999 51.2466 42.4999H26.7534C23.6301 42.4999 21 40.0804 21 37.0157V25.2409Z" fill="#4285F4"/>
<path d="M74.46 21.708C73.7927 21.708 73.1643 21.5867 72.575 21.344C71.9857 21.1013 71.4657 20.7633 71.015 20.33C70.573 19.888 70.222 19.3723 69.962 18.783C69.7107 18.185 69.585 17.5393 69.585 16.846C69.585 16.1527 69.7107 15.5113 69.962 14.922C70.222 14.324 70.573 13.8083 71.015 13.375C71.4657 12.933 71.9857 12.5907 72.575 12.348C73.1643 12.1053 73.7927 11.984 74.46 11.984C75.1707 11.984 75.825 12.1097 76.423 12.361C77.0297 12.6123 77.5367 12.9633 77.944 13.414L76.956 14.389C76.7567 14.1637 76.527 13.973 76.267 13.817C76.0157 13.661 75.7383 13.544 75.435 13.466C75.1317 13.3793 74.8067 13.336 74.46 13.336C74.0007 13.336 73.563 13.4183 73.147 13.583C72.731 13.7477 72.3627 13.986 72.042 14.298C71.73 14.6013 71.483 14.9697 71.301 15.403C71.119 15.8277 71.028 16.3087 71.028 16.846C71.028 17.3833 71.119 17.8687 71.301 18.302C71.4917 18.7267 71.743 19.095 72.055 19.407C72.3757 19.7103 72.744 19.9443 73.16 20.109C73.576 20.2737 74.0137 20.356 74.473 20.356C74.8977 20.356 75.292 20.2953 75.656 20.174C76.0287 20.0527 76.3537 19.8793 76.631 19.654C76.9083 19.4287 77.1337 19.1557 77.307 18.835C77.4803 18.5057 77.5887 18.1373 77.632 17.73H74.447V16.469H78.971C78.9883 16.573 79.0057 16.6943 79.023 16.833C79.0403 16.963 79.049 17.0887 79.049 17.21V17.223C79.049 17.8903 78.932 18.5013 78.698 19.056C78.4727 19.6107 78.1563 20.0873 77.749 20.486C77.3417 20.876 76.8563 21.1793 76.293 21.396C75.7383 21.604 75.1273 21.708 74.46 21.708ZM83.2349 21.708C82.5502 21.708 81.9479 21.552 81.4279 21.24C80.9079 20.928 80.5006 20.5077 80.2059 19.979C79.9112 19.4417 79.7639 18.8437 79.7639 18.185C79.7639 17.5263 79.9112 16.9327 80.2059 16.404C80.5006 15.8667 80.9079 15.442 81.4279 15.13C81.9479 14.818 82.5502 14.662 83.2349 14.662C83.9109 14.662 84.5089 14.8223 85.0289 15.143C85.5489 15.455 85.9562 15.8753 86.2509 16.404C86.5456 16.9327 86.6929 17.5263 86.6929 18.185C86.6929 18.8437 86.5456 19.4417 86.2509 19.979C85.9562 20.5077 85.5489 20.928 85.0289 21.24C84.5089 21.552 83.9109 21.708 83.2349 21.708ZM83.2349 20.421C83.5989 20.421 83.9369 20.3343 84.2489 20.161C84.5609 19.979 84.8122 19.7233 85.0029 19.394C85.2022 19.056 85.3019 18.653 85.3019 18.185C85.3019 17.717 85.2022 17.3183 85.0029 16.989C84.8122 16.651 84.5609 16.3953 84.2489 16.222C83.9369 16.04 83.5989 15.949 83.2349 15.949C82.8709 15.949 82.5286 16.04 82.2079 16.222C81.8959 16.3953 81.6402 16.651 81.4409 16.989C81.2502 17.3183 81.1549 17.717 81.1549 18.185C81.1549 18.653 81.2502 19.056 81.4409 19.394C81.6402 19.7233 81.9002 19.979 82.2209 20.161C82.5416 20.3343 82.8796 20.421 83.2349 20.421ZM91.106 21.708C90.4213 21.708 89.819 21.552 89.299 21.24C88.779 20.928 88.3717 20.5077 88.077 19.979C87.7823 19.4417 87.635 18.8437 87.635 18.185C87.635 17.5263 87.7823 16.9327 88.077 16.404C88.3717 15.8667 88.779 15.442 89.299 15.13C89.819 14.818 90.4213 14.662 91.106 14.662C91.782 14.662 92.38 14.8223 92.9 15.143C93.42 15.455 93.8273 15.8753 94.122 16.404C94.4167 16.9327 94.564 17.5263 94.564 18.185C94.564 18.8437 94.4167 19.4417 94.122 19.979C93.8273 20.5077 93.42 20.928 92.9 21.24C92.38 21.552 91.782 21.708 91.106 21.708ZM91.106 20.421C91.47 20.421 91.808 20.3343 92.12 20.161C92.432 19.979 92.6833 19.7233 92.874 19.394C93.0733 19.056 93.173 18.653 93.173 18.185C93.173 17.717 93.0733 17.3183 92.874 16.989C92.6833 16.651 92.432 16.3953 92.12 16.222C91.808 16.04 91.47 15.949 91.106 15.949C90.742 15.949 90.3997 16.04 90.079 16.222C89.767 16.3953 89.5113 16.651 89.312 16.989C89.1213 17.3183 89.026 17.717 89.026 18.185C89.026 18.653 89.1213 19.056 89.312 19.394C89.5113 19.7233 89.7713 19.979 90.092 20.161C90.4127 20.3343 90.7507 20.421 91.106 20.421ZM98.8471 24.516C98.2664 24.516 97.7638 24.4207 97.3391 24.23C96.9231 24.048 96.5851 23.8097 96.3251 23.515C96.0651 23.229 95.8788 22.9343 95.7661 22.631L97.0661 22.085C97.2048 22.4317 97.4258 22.7133 97.7291 22.93C98.0411 23.1553 98.4138 23.268 98.8471 23.268C99.4624 23.268 99.9434 23.086 100.29 22.722C100.637 22.358 100.81 21.8423 100.81 21.175V20.538H100.732C100.524 20.8413 100.238 21.0883 99.8741 21.279C99.5101 21.4697 99.0898 21.565 98.6131 21.565C98.0498 21.565 97.5298 21.422 97.0531 21.136C96.5851 20.85 96.2081 20.4513 95.9221 19.94C95.6448 19.42 95.5061 18.8133 95.5061 18.12C95.5061 17.418 95.6448 16.8113 95.9221 16.3C96.2081 15.78 96.5851 15.377 97.0531 15.091C97.5298 14.805 98.0498 14.662 98.6131 14.662C99.0898 14.662 99.5101 14.7573 99.8741 14.948C100.238 15.13 100.524 15.3813 100.732 15.702H100.81V14.87H102.149V21.149C102.149 21.8683 102.006 22.4793 101.72 22.982C101.443 23.4847 101.057 23.866 100.563 24.126C100.069 24.386 99.4971 24.516 98.8471 24.516ZM98.8601 20.291C99.2068 20.291 99.5274 20.2087 99.8221 20.044C100.125 19.8707 100.364 19.6237 100.537 19.303C100.719 18.9737 100.81 18.5793 100.81 18.12C100.81 17.6347 100.719 17.2317 100.537 16.911C100.364 16.5903 100.125 16.3477 99.8221 16.183C99.5274 16.0183 99.2068 15.936 98.8601 15.936C98.5134 15.936 98.1884 16.0183 97.8851 16.183C97.5904 16.3477 97.3521 16.5947 97.1701 16.924C96.9881 17.2447 96.8971 17.6433 96.8971 18.12C96.8971 18.588 96.9881 18.9867 97.1701 19.316C97.3521 19.6367 97.5904 19.8793 97.8851 20.044C98.1884 20.2087 98.5134 20.291 98.8601 20.291ZM103.805 21.5V12.192H105.209V21.5H103.805ZM109.829 21.708C109.179 21.708 108.599 21.5563 108.087 21.253C107.576 20.9497 107.173 20.5337 106.878 20.005C106.592 19.4763 106.449 18.874 106.449 18.198C106.449 17.5653 106.588 16.9803 106.865 16.443C107.143 15.9057 107.528 15.4767 108.022 15.156C108.525 14.8267 109.101 14.662 109.751 14.662C110.436 14.662 111.017 14.8093 111.493 15.104C111.979 15.3987 112.347 15.8017 112.598 16.313C112.85 16.8243 112.975 17.4007 112.975 18.042C112.975 18.1373 112.971 18.224 112.962 18.302C112.962 18.38 112.958 18.4407 112.949 18.484H107.827C107.862 18.848 107.953 19.1643 108.1 19.433C108.291 19.771 108.542 20.0267 108.854 20.2C109.166 20.3733 109.504 20.46 109.868 20.46C110.31 20.46 110.679 20.3603 110.973 20.161C111.277 19.953 111.515 19.6973 111.688 19.394L112.845 19.953C112.559 20.473 112.169 20.8977 111.675 21.227C111.181 21.5477 110.566 21.708 109.829 21.708ZM107.905 17.431H111.584C111.576 17.2663 111.532 17.093 111.454 16.911C111.376 16.7203 111.264 16.547 111.116 16.391C110.969 16.235 110.783 16.1093 110.557 16.014C110.332 15.91 110.068 15.858 109.764 15.858C109.383 15.858 109.045 15.9577 108.75 16.157C108.456 16.3477 108.226 16.6163 108.061 16.963C107.992 17.1103 107.94 17.2663 107.905 17.431ZM118.69 21.5L116.194 12.192H117.78L119.262 18.237L119.418 19.043H119.496L119.691 18.237L121.563 12.192H122.993L124.787 18.237L124.982 19.03H125.06L125.216 18.237L126.698 12.192H128.271L125.814 21.5H124.306L122.525 15.325L122.317 14.454H122.239L122.018 15.325L120.159 21.5H118.69ZM130.881 21.708C130.405 21.708 129.98 21.6127 129.607 21.422C129.243 21.2313 128.953 20.9713 128.736 20.642C128.528 20.304 128.424 19.9183 128.424 19.485C128.424 19.0083 128.546 18.6053 128.788 18.276C129.04 17.9467 129.373 17.6953 129.789 17.522C130.205 17.3487 130.665 17.262 131.167 17.262C131.445 17.262 131.7 17.2837 131.934 17.327C132.177 17.3617 132.385 17.405 132.558 17.457C132.74 17.509 132.883 17.5653 132.987 17.626V17.275C132.987 16.8417 132.831 16.495 132.519 16.235C132.207 15.975 131.804 15.845 131.31 15.845C130.972 15.845 130.652 15.923 130.348 16.079C130.045 16.2263 129.802 16.43 129.62 16.69L128.658 15.949C128.849 15.6803 129.079 15.4507 129.347 15.26C129.625 15.0693 129.932 14.922 130.27 14.818C130.617 14.714 130.977 14.662 131.349 14.662C132.311 14.662 133.052 14.9003 133.572 15.377C134.092 15.845 134.352 16.5037 134.352 17.353V21.5H132.987V20.681H132.909C132.797 20.8543 132.641 21.019 132.441 21.175C132.251 21.331 132.021 21.4567 131.752 21.552C131.492 21.656 131.202 21.708 130.881 21.708ZM131.128 20.564C131.492 20.564 131.813 20.4773 132.09 20.304C132.376 20.1307 132.597 19.9053 132.753 19.628C132.909 19.342 132.987 19.0343 132.987 18.705C132.797 18.5923 132.563 18.5013 132.285 18.432C132.017 18.354 131.731 18.315 131.427 18.315C130.855 18.315 130.448 18.4277 130.205 18.653C129.963 18.8783 129.841 19.16 129.841 19.498C129.841 19.81 129.958 20.0657 130.192 20.265C130.426 20.4643 130.738 20.564 131.128 20.564ZM135.911 21.5V12.192H137.315V21.5H135.911ZM138.983 21.5V12.192H140.387V21.5H138.983ZM145.008 21.708C144.358 21.708 143.777 21.5563 143.266 21.253C142.755 20.9497 142.352 20.5337 142.057 20.005C141.771 19.4763 141.628 18.874 141.628 18.198C141.628 17.5653 141.767 16.9803 142.044 16.443C142.321 15.9057 142.707 15.4767 143.201 15.156C143.704 14.8267 144.28 14.662 144.93 14.662C145.615 14.662 146.195 14.8093 146.672 15.104C147.157 15.3987 147.526 15.8017 147.777 16.313C148.028 16.8243 148.154 17.4007 148.154 18.042C148.154 18.1373 148.15 18.224 148.141 18.302C148.141 18.38 148.137 18.4407 148.128 18.484H143.006C143.041 18.848 143.132 19.1643 143.279 19.433C143.47 19.771 143.721 20.0267 144.033 20.2C144.345 20.3733 144.683 20.46 145.047 20.46C145.489 20.46 145.857 20.3603 146.152 20.161C146.455 19.953 146.694 19.6973 146.867 19.394L148.024 19.953C147.738 20.473 147.348 20.8977 146.854 21.227C146.36 21.5477 145.745 21.708 145.008 21.708ZM143.084 17.431H146.763C146.754 17.2663 146.711 17.093 146.633 16.911C146.555 16.7203 146.442 16.547 146.295 16.391C146.148 16.235 145.961 16.1093 145.736 16.014C145.511 15.91 145.246 15.858 144.943 15.858C144.562 15.858 144.224 15.9577 143.929 16.157C143.634 16.3477 143.405 16.6163 143.24 16.963C143.171 17.1103 143.119 17.2663 143.084 17.431ZM148.811 14.87H149.968V12.998H151.372V14.87H152.997V16.092H151.372V19.277C151.372 19.6063 151.437 19.8577 151.567 20.031C151.706 20.2043 151.936 20.291 152.256 20.291C152.412 20.291 152.551 20.2693 152.672 20.226C152.794 20.174 152.915 20.1133 153.036 20.044V21.409C152.889 21.4697 152.733 21.5173 152.568 21.552C152.404 21.5867 152.209 21.604 151.983 21.604C151.368 21.604 150.878 21.4263 150.514 21.071C150.15 20.707 149.968 20.2087 149.968 19.576V16.092H148.811V14.87Z" fill="white"/>
<path d="M70.581 41.5V31.606H68.66V30.195H70.581V28.648C70.581 27.7073 70.87 26.9537 71.448 26.387C72.026 25.809 72.7967 25.52 73.76 25.52C74.7347 25.52 75.511 25.809 76.089 26.387C76.667 26.965 76.956 27.7583 76.956 28.767V29.294H75.256V28.631C75.256 28.1437 75.1313 27.7583 74.882 27.475C74.6327 27.1917 74.2643 27.05 73.777 27.05C73.301 27.05 72.9327 27.1973 72.672 27.492C72.4113 27.7867 72.281 28.2003 72.281 28.733V30.195H73.76V31.606H72.281V41.5H70.581ZM80.675 41.806C79.995 41.806 79.3887 41.6983 78.856 41.483C78.3347 41.2563 77.9267 40.956 77.632 40.582C77.3487 40.1967 77.207 39.766 77.207 39.29C77.207 38.882 77.292 38.525 77.462 38.219C76.918 38.1963 76.4307 38.0887 76 37.896C75.5353 37.6693 75.1727 37.369 74.912 36.995C74.6513 36.621 74.521 36.1903 74.521 35.703C74.521 35.227 74.6457 34.8133 74.895 34.462C75.1443 34.0993 75.4843 33.816 75.915 33.612C76.357 33.3967 76.8613 33.289 77.428 33.289H81.338V31.606H73.076V30.195H84.687V31.606H83.021V34.768H77.53C77.1107 34.768 76.7763 34.853 76.527 35.023C76.289 35.193 76.17 35.4367 76.17 35.754C76.17 36.06 76.2833 36.3037 76.51 36.485C76.748 36.655 77.0767 36.74 77.496 36.74H82.613V38.219H79.961C79.6097 38.219 79.3433 38.304 79.162 38.474C78.9807 38.644 78.89 38.8763 78.89 39.171C78.89 39.5337 79.043 39.8113 79.349 40.004C79.6663 40.1967 80.0743 40.293 80.573 40.293C81.355 40.293 82.1087 40.1117 82.834 39.749L83.463 41.211C83.0663 41.4037 82.6413 41.551 82.188 41.653C81.7347 41.755 81.2303 41.806 80.675 41.806ZM82.1816 29.379C81.2523 29.379 80.4816 29.1127 79.8696 28.58C79.2463 28.036 78.878 27.2937 78.7646 26.353L80.2946 26.149C80.3513 26.659 80.544 27.0727 80.8726 27.39C81.2013 27.696 81.6376 27.849 82.1816 27.849C82.7256 27.849 83.162 27.696 83.4906 27.39C83.8193 27.0727 84.012 26.659 84.0686 26.149L85.5986 26.353C85.4853 27.2937 85.1226 28.036 84.5106 28.58C83.8986 29.1127 83.1223 29.379 82.1816 29.379ZM91.1738 41.772C90.5278 41.772 89.9272 41.6417 89.3718 41.381C88.8165 41.109 88.3292 40.7407 87.9098 40.276C87.4905 39.8113 87.1618 39.273 86.9238 38.661C86.6858 38.0377 86.5668 37.369 86.5668 36.655V36.502H86.2438C85.9378 36.502 85.6828 36.4113 85.4788 36.23C85.2748 36.0373 85.1728 35.7993 85.1728 35.516C85.1728 35.2893 85.2465 35.0457 85.3938 34.785C85.5525 34.513 85.7508 34.2637 85.9888 34.037C86.2382 33.799 86.4988 33.6063 86.7708 33.459C87.0428 33.3003 87.2922 33.221 87.5188 33.221C87.7455 33.221 87.9212 33.2947 88.0458 33.442C88.1818 33.578 88.2498 33.765 88.2498 34.003V35.006H92.6358V31.606H83.9998V30.195H95.8148V31.606H94.3188V38.61C94.3188 39.596 94.0412 40.3723 93.4858 40.939C92.9418 41.4943 92.1712 41.772 91.1738 41.772ZM88.2498 36.502V36.757C88.2498 37.3917 88.3745 37.9753 88.6238 38.508C88.8732 39.0407 89.2075 39.4657 89.6268 39.783C90.0575 40.089 90.5392 40.242 91.0718 40.242C91.5592 40.242 91.9388 40.0947 92.2108 39.8C92.4942 39.494 92.6358 39.069 92.6358 38.525V36.502H88.2498ZM106.434 41.772C105.505 41.772 104.678 41.5737 103.952 41.177C103.238 40.769 102.677 40.2137 102.269 39.511C101.873 38.8083 101.674 38.0037 101.674 37.097V36.502H101.351C101.045 36.502 100.79 36.4113 100.586 36.23C100.382 36.0373 100.28 35.7993 100.28 35.516C100.28 35.2893 100.354 35.0457 100.501 34.785C100.66 34.513 100.858 34.2637 101.096 34.037C101.346 33.799 101.606 33.6063 101.878 33.459C102.15 33.3003 102.4 33.221 102.626 33.221C102.853 33.221 103.029 33.2947 103.153 33.442C103.289 33.578 103.357 33.765 103.357 34.003V35.006H107.573V31.606H99.1073V30.195H110.752V31.606H109.256V36.502H103.357V37.199C103.357 38.1283 103.624 38.865 104.156 39.409C104.689 39.9417 105.42 40.208 106.349 40.208C106.803 40.208 107.239 40.1343 107.658 39.987C108.089 39.8397 108.497 39.6187 108.882 39.324L109.766 40.735C109.279 41.0863 108.758 41.347 108.202 41.517C107.647 41.687 107.058 41.772 106.434 41.772ZM107.579 30.365V30.263L107.12 28.971C106.995 28.6083 106.848 28.308 106.678 28.07C106.508 27.8207 106.287 27.6337 106.015 27.509C105.731 27.373 105.369 27.305 104.927 27.305H102.836V25.741H104.808C105.476 25.741 106.043 25.826 106.508 25.996C106.972 26.1547 107.369 26.438 107.698 26.846C108.015 27.2427 108.293 27.8037 108.531 28.529L109.126 30.365H107.579ZM118.496 41.5V39.97L118.547 38.763H118.462C117.782 39.2503 116.927 39.494 115.895 39.494C114.717 39.494 113.736 39.1823 112.954 38.559C112.184 37.9243 111.623 37.08 111.271 36.026C111.872 35.482 112.303 34.9777 112.563 34.513C112.835 34.037 112.971 33.527 112.971 32.983C112.971 32.5297 112.898 32.0707 112.75 31.606H110.064V30.195H113.991C114.207 30.637 114.371 31.113 114.484 31.623C114.609 32.133 114.671 32.6203 114.671 33.085C114.671 33.187 114.666 33.2947 114.654 33.408H118.496V30.195H121.675V31.606H120.196V41.5H118.496ZM114.297 34.904C114.252 35.0173 114.201 35.125 114.144 35.227C113.906 35.6803 113.595 36.0883 113.209 36.451C113.425 36.859 113.714 37.1933 114.076 37.454C114.552 37.8053 115.142 37.981 115.844 37.981C116.638 37.981 117.278 37.76 117.765 37.318C118.253 36.8647 118.496 36.2753 118.496 35.55V34.904H114.297ZM118.503 30.297V29.651C118.503 29.2203 118.412 28.8973 118.231 28.682C118.038 28.4667 117.715 28.359 117.262 28.359C116.933 28.359 116.593 28.3817 116.242 28.427C115.879 28.4723 115.505 28.495 115.12 28.495C114.247 28.495 113.578 28.257 113.114 27.781C112.638 27.2937 112.4 26.574 112.4 25.622H113.947C113.947 26.064 114.054 26.3983 114.27 26.625C114.485 26.8403 114.808 26.948 115.239 26.948C115.59 26.948 115.958 26.9253 116.344 26.88C116.729 26.8347 117.075 26.812 117.381 26.812C118.276 26.812 118.962 27.0613 119.438 27.56C119.914 28.0473 120.152 28.7273 120.152 29.6V30.297H118.503Z" fill="white"/>
</svg>
