<svg width="231" height="55" viewBox="0 0 231 55" fill="none" xmlns="http://www.w3.org/2000/svg">
<rect x="0.5" y="0.5" width="230" height="54" rx="27" fill="#1F1F1F"/>
<rect x="0.5" y="0.5" width="230" height="54" rx="27" stroke="#747775"/>
<path d="M57 23.791H21V18.1455C21 15.0809 23.6422 12.5001 26.7798 12.5001H51.2202C54.3578 12.5001 57 15.0809 57 18.1455V23.791Z" fill="#34A853"/>
<path d="M57 29H21V23C21 19.7429 23.6422 17 26.7798 17H51.2202C54.3578 17 57 19.7429 57 23V29Z" fill="#FBBC04"/>
<path d="M57 34H21V28C21 24.7429 23.6422 22 26.7798 22H51.2202C54.3578 22 57 24.7429 57 28V34Z" fill="#EA4335"/>
<path d="M21 25.2409L43.8493 30.4025C46.4795 31.0477 49.4384 30.4025 51.5753 28.7895L57 24.9183V37.0157C57 40.0804 54.3699 42.4999 51.2466 42.4999H26.7534C23.6301 42.4999 21 40.0804 21 37.0157V25.2409Z" fill="#4285F4"/>
<path d="M71.717 21.5L69.221 12.192H70.807L72.289 18.237L72.445 19.043H72.523L72.718 18.237L74.59 12.192H76.02L77.814 18.237L78.009 19.03H78.087L78.243 18.237L79.725 12.192H81.298L78.841 21.5H77.333L75.552 15.325L75.344 14.454H75.266L75.045 15.325L73.186 21.5H71.717ZM84.4843 23.983C84.4583 24.0437 84.428 24.1043 84.3933 24.165C84.3673 24.2343 84.35 24.282 84.3413 24.308H82.8463C82.8897 24.2127 82.9503 24.0783 83.0283 23.905C83.115 23.7317 83.1973 23.5583 83.2753 23.385C83.3273 23.2723 83.3793 23.151 83.4313 23.021C83.492 22.891 83.5527 22.7567 83.6133 22.618C83.6827 22.4793 83.7477 22.345 83.8083 22.215L84.3023 21.136L81.5333 14.87H83.0933L84.9913 19.394H85.0563L86.8893 14.87H88.4363L85.0043 22.774C84.9437 22.9213 84.8743 23.0773 84.7963 23.242C84.727 23.4067 84.662 23.554 84.6013 23.684C84.5493 23.8227 84.5103 23.9223 84.4843 23.983ZM91.6608 21.708C91.1322 21.708 90.6728 21.63 90.2828 21.474C89.8928 21.3093 89.5722 21.0927 89.3208 20.824C89.0695 20.5467 88.8832 20.2477 88.7618 19.927L90.0228 19.381C90.1788 19.7363 90.3998 20.0093 90.6858 20.2C90.9805 20.382 91.3185 20.473 91.6998 20.473C92.0465 20.473 92.3455 20.4123 92.5968 20.291C92.8482 20.161 92.9738 19.953 92.9738 19.667C92.9738 19.485 92.9132 19.3377 92.7918 19.225C92.6792 19.1037 92.5232 19.004 92.3238 18.926C92.1332 18.848 91.9122 18.7787 91.6608 18.718L90.8678 18.536C90.5558 18.458 90.2568 18.3367 89.9708 18.172C89.6935 17.9987 89.4682 17.782 89.2948 17.522C89.1215 17.262 89.0348 16.9543 89.0348 16.599C89.0348 16.2003 89.1475 15.858 89.3728 15.572C89.6068 15.2773 89.9188 15.052 90.3088 14.896C90.6988 14.74 91.1192 14.662 91.5698 14.662C91.9858 14.662 92.3628 14.7183 92.7008 14.831C93.0475 14.935 93.3465 15.0953 93.5978 15.312C93.8578 15.52 94.0615 15.78 94.2088 16.092L92.9998 16.638C92.8525 16.3433 92.6532 16.1397 92.4018 16.027C92.1505 15.9057 91.8775 15.845 91.5828 15.845C91.2535 15.845 90.9762 15.9143 90.7508 16.053C90.5342 16.183 90.4258 16.3563 90.4258 16.573C90.4258 16.7983 90.5212 16.976 90.7118 17.106C90.9112 17.236 91.1538 17.34 91.4398 17.418L92.4018 17.652C93.0605 17.8167 93.5545 18.068 93.8838 18.406C94.2132 18.7353 94.3778 19.1383 94.3778 19.615C94.3778 20.0397 94.2565 20.4123 94.0138 20.733C93.7712 21.045 93.4418 21.2877 93.0258 21.461C92.6185 21.6257 92.1635 21.708 91.6608 21.708ZM90.9978 13.596L91.6088 11.932H93.1948L92.1548 13.596H90.9978ZM96.9942 21.5L94.8752 14.87H96.3962L97.7612 19.641H97.8132L99.3082 14.87H100.751L102.246 19.641H102.298L103.663 14.87H105.158L103.026 21.5H101.557L100.023 16.703H99.9712L98.4502 21.5H96.9942ZM106.168 21.5V14.87H107.572V21.5H106.168ZM106.87 13.895C106.61 13.895 106.385 13.804 106.194 13.622C106.012 13.4313 105.921 13.206 105.921 12.946C105.921 12.6773 106.012 12.4563 106.194 12.283C106.385 12.101 106.61 12.01 106.87 12.01C107.139 12.01 107.364 12.101 107.546 12.283C107.728 12.4563 107.819 12.6773 107.819 12.946C107.819 13.206 107.728 13.4313 107.546 13.622C107.364 13.804 107.139 13.895 106.87 13.895ZM112.28 21.708C111.63 21.708 111.049 21.5563 110.538 21.253C110.026 20.9497 109.623 20.5337 109.329 20.005C109.043 19.4763 108.9 18.874 108.9 18.198C108.9 17.5653 109.038 16.9803 109.316 16.443C109.593 15.9057 109.979 15.4767 110.473 15.156C110.975 14.8267 111.552 14.662 112.202 14.662C112.886 14.662 113.467 14.8093 113.944 15.104C114.429 15.3987 114.797 15.8017 115.049 16.313C115.3 16.8243 115.426 17.4007 115.426 18.042C115.426 18.1373 115.421 18.224 115.413 18.302C115.413 18.38 115.408 18.4407 115.4 18.484H110.278C110.312 18.848 110.403 19.1643 110.551 19.433C110.741 19.771 110.993 20.0267 111.305 20.2C111.617 20.3733 111.955 20.46 112.319 20.46C112.761 20.46 113.129 20.3603 113.424 20.161C113.727 19.953 113.965 19.6973 114.139 19.394L115.296 19.953C115.01 20.473 114.62 20.8977 114.126 21.227C113.632 21.5477 113.016 21.708 112.28 21.708ZM110.356 17.431H114.035C114.026 17.2663 113.983 17.093 113.905 16.911C113.827 16.7203 113.714 16.547 113.567 16.391C113.419 16.235 113.233 16.1093 113.008 16.014C112.782 15.91 112.518 15.858 112.215 15.858C111.833 15.858 111.495 15.9577 111.201 16.157C110.906 16.3477 110.676 16.6163 110.512 16.963C110.442 17.1103 110.39 17.2663 110.356 17.431ZM116.083 14.87H117.24V12.998H118.644V14.87H120.269V16.092H118.644V19.277C118.644 19.6063 118.709 19.8577 118.839 20.031C118.977 20.2043 119.207 20.291 119.528 20.291C119.684 20.291 119.822 20.2693 119.944 20.226C120.065 20.174 120.186 20.1133 120.308 20.044V21.409C120.16 21.4697 120.004 21.5173 119.84 21.552C119.675 21.5867 119.48 21.604 119.255 21.604C118.639 21.604 118.15 21.4263 117.786 21.071C117.422 20.707 117.24 20.2087 117.24 19.576V16.092H116.083V14.87ZM121.692 21.5V12.192H123.096V21.5H121.692Z" fill="white"/>
<path d="M71.89 41.5L69.119 32.83H71.108L72.893 39.069H72.961L74.916 32.83H76.803L78.758 39.069H78.826L80.611 32.83H82.566L79.778 41.5H77.857L75.851 35.227H75.783L73.794 41.5H71.89ZM88.0245 41.5V29.328H92.2065C92.9431 29.328 93.6118 29.4867 94.2125 29.804C94.8131 30.11 95.2891 30.5463 95.6405 31.113C96.0031 31.6683 96.1845 32.3143 96.1845 33.051C96.1845 33.7763 96.0031 34.4223 95.6405 34.989C95.2891 35.5557 94.8131 35.9977 94.2125 36.315C93.6118 36.621 92.9431 36.774 92.2065 36.774H89.8945V41.5H88.0245ZM89.8945 35.006H92.2575C92.6995 35.006 93.0735 34.9153 93.3795 34.734C93.6855 34.5413 93.9178 34.2977 94.0765 34.003C94.2465 33.697 94.3315 33.3797 94.3315 33.051C94.3315 32.7223 94.2465 32.4107 94.0765 32.116C93.9178 31.8213 93.6855 31.5777 93.3795 31.385C93.0735 31.1923 92.6995 31.096 92.2575 31.096H89.8945V35.006ZM101.278 41.772C100.383 41.772 99.595 41.568 98.915 41.16C98.235 40.752 97.7023 40.2023 97.317 39.511C96.9316 38.8083 96.739 38.0263 96.739 37.165C96.739 36.3037 96.9316 35.5273 97.317 34.836C97.7023 34.1333 98.235 33.578 98.915 33.17C99.595 32.762 100.383 32.558 101.278 32.558C102.162 32.558 102.944 32.7677 103.624 33.187C104.304 33.595 104.837 34.1447 105.222 34.836C105.607 35.5273 105.8 36.3037 105.8 37.165C105.8 38.0263 105.607 38.8083 105.222 39.511C104.837 40.2023 104.304 40.752 103.624 41.16C102.944 41.568 102.162 41.772 101.278 41.772ZM101.278 40.089C101.754 40.089 102.196 39.9757 102.604 39.749C103.012 39.511 103.341 39.1767 103.59 38.746C103.851 38.304 103.981 37.777 103.981 37.165C103.981 36.553 103.851 36.0317 103.59 35.601C103.341 35.159 103.012 34.8247 102.604 34.598C102.196 34.36 101.754 34.241 101.278 34.241C100.802 34.241 100.354 34.36 99.935 34.598C99.527 34.8247 99.1926 35.159 98.932 35.601C98.6826 36.0317 98.558 36.553 98.558 37.165C98.558 37.777 98.6826 38.304 98.932 38.746C99.1926 39.1767 99.5326 39.511 99.952 39.749C100.371 39.9757 100.813 40.089 101.278 40.089ZM113.615 32.83H115.128V30.382H116.964V32.83H119.089V34.428H116.964V38.593C116.964 39.0237 117.049 39.3523 117.219 39.579C117.4 39.8057 117.701 39.919 118.12 39.919C118.324 39.919 118.505 39.8907 118.664 39.834C118.823 39.766 118.981 39.6867 119.14 39.596V41.381C118.947 41.4603 118.743 41.5227 118.528 41.568C118.313 41.6133 118.063 41.636 117.78 41.636C116.964 41.636 116.318 41.4037 115.842 40.939C115.366 40.463 115.128 39.8113 115.128 38.984V34.428H113.615V32.83ZM107.325 41.5V32.83H109.059V34.105H109.161C109.32 33.7877 109.529 33.5213 109.79 33.306C110.051 33.0793 110.351 32.9037 110.691 32.779C111.042 32.6543 111.399 32.592 111.762 32.592C111.932 32.592 112.068 32.5977 112.17 32.609C112.283 32.609 112.385 32.626 112.476 32.66V34.496C112.351 34.4507 112.215 34.4223 112.068 34.411C111.921 34.3883 111.751 34.377 111.558 34.377C111.082 34.377 110.663 34.4847 110.3 34.7C109.937 34.904 109.654 35.1987 109.45 35.584C109.257 35.9693 109.161 36.4283 109.161 36.961V41.5H107.325ZM120.443 34.428V32.83H122.024V32.116C122.024 31.4927 122.154 30.9657 122.415 30.535C122.675 30.093 123.032 29.7587 123.486 29.532C123.939 29.3053 124.443 29.192 124.999 29.192C125.305 29.192 125.565 29.2147 125.781 29.26C126.007 29.294 126.194 29.3393 126.342 29.396V31.181C126.194 31.1243 126.024 31.0677 125.832 31.011C125.65 30.943 125.424 30.909 125.152 30.909C124.8 30.909 124.494 31.028 124.234 31.266C123.973 31.4927 123.843 31.827 123.843 32.269V32.83H126.019V34.428H123.843V41.5H122.024V34.428H120.443ZM131.208 41.772C130.358 41.772 129.598 41.5737 128.93 41.177C128.261 40.7803 127.734 40.2363 127.349 39.545C126.975 38.8537 126.788 38.066 126.788 37.182C126.788 36.3547 126.969 35.5897 127.332 34.887C127.694 34.1843 128.199 33.6233 128.845 33.204C129.502 32.7733 130.256 32.558 131.106 32.558C132.001 32.558 132.76 32.7507 133.384 33.136C134.018 33.5213 134.5 34.0483 134.829 34.717C135.157 35.3857 135.322 36.1393 135.322 36.978C135.322 37.1027 135.316 37.216 135.305 37.318C135.305 37.42 135.299 37.4993 135.288 37.556H128.59C128.635 38.032 128.754 38.4457 128.947 38.797C129.196 39.239 129.525 39.5733 129.933 39.8C130.341 40.0267 130.783 40.14 131.259 40.14C131.837 40.14 132.318 40.0097 132.704 39.749C133.1 39.477 133.412 39.1427 133.639 38.746L135.152 39.477C134.778 40.157 134.268 40.7123 133.622 41.143C132.976 41.5623 132.171 41.772 131.208 41.772ZM128.692 36.179H133.503C133.491 35.9637 133.435 35.737 133.333 35.499C133.231 35.2497 133.083 35.023 132.891 34.819C132.698 34.615 132.454 34.4507 132.16 34.326C131.865 34.19 131.519 34.122 131.123 34.122C130.624 34.122 130.182 34.2523 129.797 34.513C129.411 34.7623 129.111 35.1137 128.896 35.567C128.805 35.7597 128.737 35.9637 128.692 36.179ZM137.042 41.5V29.328H138.878V41.5H137.042ZM144.188 41.772C143.122 41.772 142.318 41.4547 141.774 40.82C141.241 40.174 140.975 39.3013 140.975 38.202V32.83H142.811V37.947C142.811 38.6723 142.981 39.2107 143.321 39.562C143.672 39.9133 144.108 40.089 144.63 40.089C145.106 40.089 145.514 39.97 145.854 39.732C146.194 39.4827 146.454 39.1597 146.636 38.763C146.828 38.3663 146.925 37.9413 146.925 37.488V32.83H148.744V41.5H147.027V40.327H146.925C146.766 40.599 146.545 40.8427 146.262 41.058C145.978 41.2733 145.661 41.4433 145.31 41.568C144.958 41.704 144.584 41.772 144.188 41.772ZM160.609 41.772C159.736 41.772 158.914 41.6133 158.144 41.296C157.373 40.9787 156.693 40.5367 156.104 39.97C155.526 39.392 155.067 38.7177 154.727 37.947C154.398 37.165 154.234 36.3207 154.234 35.414C154.234 34.5073 154.398 33.6687 154.727 32.898C155.067 32.116 155.526 31.4417 156.104 30.875C156.693 30.297 157.373 29.8493 158.144 29.532C158.914 29.2147 159.736 29.056 160.609 29.056C161.538 29.056 162.394 29.2203 163.176 29.549C163.969 29.8777 164.632 30.3367 165.165 30.926L163.873 32.201C163.612 31.9063 163.312 31.657 162.972 31.453C162.643 31.249 162.28 31.096 161.884 30.994C161.487 30.8807 161.062 30.824 160.609 30.824C160.008 30.824 159.436 30.9317 158.892 31.147C158.348 31.3623 157.866 31.674 157.447 32.082C157.039 32.4787 156.716 32.9603 156.478 33.527C156.24 34.0823 156.121 34.7113 156.121 35.414C156.121 36.1167 156.24 36.7513 156.478 37.318C156.727 37.8733 157.056 38.355 157.464 38.763C157.883 39.1597 158.365 39.4657 158.909 39.681C159.453 39.8963 160.025 40.004 160.626 40.004C161.181 40.004 161.697 39.9247 162.173 39.766C162.66 39.6073 163.085 39.3807 163.448 39.086C163.81 38.7913 164.105 38.4343 164.332 38.015C164.558 37.5843 164.7 37.1027 164.757 36.57H160.592V34.921H166.508C166.53 35.057 166.553 35.2157 166.576 35.397C166.598 35.567 166.61 35.7313 166.61 35.89V35.907C166.61 36.7797 166.457 37.5787 166.151 38.304C165.856 39.0293 165.442 39.6527 164.91 40.174C164.377 40.684 163.742 41.0807 163.006 41.364C162.28 41.636 161.481 41.772 160.609 41.772ZM172.084 41.772C171.188 41.772 170.401 41.568 169.721 41.16C169.041 40.752 168.508 40.2023 168.123 39.511C167.737 38.8083 167.545 38.0263 167.545 37.165C167.545 36.3037 167.737 35.5273 168.123 34.836C168.508 34.1333 169.041 33.578 169.721 33.17C170.401 32.762 171.188 32.558 172.084 32.558C172.968 32.558 173.75 32.7677 174.43 33.187C175.11 33.595 175.642 34.1447 176.028 34.836C176.413 35.5273 176.606 36.3037 176.606 37.165C176.606 38.0263 176.413 38.8083 176.028 39.511C175.642 40.2023 175.11 40.752 174.43 41.16C173.75 41.568 172.968 41.772 172.084 41.772ZM172.084 40.089C172.56 40.089 173.002 39.9757 173.41 39.749C173.818 39.511 174.146 39.1767 174.396 38.746C174.656 38.304 174.787 37.777 174.787 37.165C174.787 36.553 174.656 36.0317 174.396 35.601C174.146 35.159 173.818 34.8247 173.41 34.598C173.002 34.36 172.56 34.241 172.084 34.241C171.608 34.241 171.16 34.36 170.741 34.598C170.333 34.8247 169.998 35.159 169.738 35.601C169.488 36.0317 169.364 36.553 169.364 37.165C169.364 37.777 169.488 38.304 169.738 38.746C169.998 39.1767 170.338 39.511 170.758 39.749C171.177 39.9757 171.619 40.089 172.084 40.089ZM182.377 41.772C181.481 41.772 180.694 41.568 180.014 41.16C179.334 40.752 178.801 40.2023 178.416 39.511C178.03 38.8083 177.838 38.0263 177.838 37.165C177.838 36.3037 178.03 35.5273 178.416 34.836C178.801 34.1333 179.334 33.578 180.014 33.17C180.694 32.762 181.481 32.558 182.377 32.558C183.261 32.558 184.043 32.7677 184.723 33.187C185.403 33.595 185.935 34.1447 186.321 34.836C186.706 35.5273 186.899 36.3037 186.899 37.165C186.899 38.0263 186.706 38.8083 186.321 39.511C185.935 40.2023 185.403 40.752 184.723 41.16C184.043 41.568 183.261 41.772 182.377 41.772ZM182.377 40.089C182.853 40.089 183.295 39.9757 183.703 39.749C184.111 39.511 184.439 39.1767 184.689 38.746C184.949 38.304 185.08 37.777 185.08 37.165C185.08 36.553 184.949 36.0317 184.689 35.601C184.439 35.159 184.111 34.8247 183.703 34.598C183.295 34.36 182.853 34.241 182.377 34.241C181.901 34.241 181.453 34.36 181.034 34.598C180.626 34.8247 180.291 35.159 180.031 35.601C179.781 36.0317 179.657 36.553 179.657 37.165C179.657 37.777 179.781 38.304 180.031 38.746C180.291 39.1767 180.631 39.511 181.051 39.749C181.47 39.9757 181.912 40.089 182.377 40.089ZM192.5 45.444C191.74 45.444 191.083 45.3193 190.528 45.07C189.984 44.832 189.542 44.5203 189.202 44.135C188.862 43.761 188.618 43.3757 188.471 42.979L190.171 42.265C190.352 42.7183 190.641 43.0867 191.038 43.37C191.446 43.6647 191.933 43.812 192.5 43.812C193.304 43.812 193.933 43.574 194.387 43.098C194.84 42.622 195.067 41.9477 195.067 41.075V40.242H194.965C194.693 40.6387 194.319 40.9617 193.843 41.211C193.367 41.4603 192.817 41.585 192.194 41.585C191.457 41.585 190.777 41.398 190.154 41.024C189.542 40.65 189.049 40.1287 188.675 39.46C188.312 38.78 188.131 37.9867 188.131 37.08C188.131 36.162 188.312 35.3687 188.675 34.7C189.049 34.02 189.542 33.493 190.154 33.119C190.777 32.745 191.457 32.558 192.194 32.558C192.817 32.558 193.367 32.6827 193.843 32.932C194.319 33.17 194.693 33.4987 194.965 33.918H195.067V32.83H196.818V41.041C196.818 41.9817 196.631 42.7807 196.257 43.438C195.894 44.0953 195.39 44.594 194.744 44.934C194.098 45.274 193.35 45.444 192.5 45.444ZM192.517 39.919C192.97 39.919 193.389 39.8113 193.775 39.596C194.171 39.3693 194.483 39.0463 194.71 38.627C194.948 38.1963 195.067 37.6807 195.067 37.08C195.067 36.4453 194.948 35.9183 194.71 35.499C194.483 35.0797 194.171 34.7623 193.775 34.547C193.389 34.3317 192.97 34.224 192.517 34.224C192.063 34.224 191.638 34.3317 191.242 34.547C190.856 34.7623 190.545 35.0853 190.307 35.516C190.069 35.9353 189.95 36.4567 189.95 37.08C189.95 37.692 190.069 38.2133 190.307 38.644C190.545 39.0633 190.856 39.3807 191.242 39.596C191.638 39.8113 192.063 39.919 192.517 39.919ZM198.983 41.5V29.328H200.819V41.5H198.983ZM206.861 41.772C206.011 41.772 205.252 41.5737 204.583 41.177C203.914 40.7803 203.387 40.2363 203.002 39.545C202.628 38.8537 202.441 38.066 202.441 37.182C202.441 36.3547 202.622 35.5897 202.985 34.887C203.348 34.1843 203.852 33.6233 204.498 33.204C205.155 32.7733 205.909 32.558 206.759 32.558C207.654 32.558 208.414 32.7507 209.037 33.136C209.672 33.5213 210.153 34.0483 210.482 34.717C210.811 35.3857 210.975 36.1393 210.975 36.978C210.975 37.1027 210.969 37.216 210.958 37.318C210.958 37.42 210.952 37.4993 210.941 37.556H204.243C204.288 38.032 204.407 38.4457 204.6 38.797C204.849 39.239 205.178 39.5733 205.586 39.8C205.994 40.0267 206.436 40.14 206.912 40.14C207.49 40.14 207.972 40.0097 208.357 39.749C208.754 39.477 209.065 39.1427 209.292 38.746L210.805 39.477C210.431 40.157 209.921 40.7123 209.275 41.143C208.629 41.5623 207.824 41.772 206.861 41.772ZM204.345 36.179H209.156C209.145 35.9637 209.088 35.737 208.986 35.499C208.884 35.2497 208.737 35.023 208.544 34.819C208.351 34.615 208.108 34.4507 207.813 34.326C207.518 34.19 207.173 34.122 206.776 34.122C206.277 34.122 205.835 34.2523 205.45 34.513C205.065 34.7623 204.764 35.1137 204.549 35.567C204.458 35.7597 204.39 35.9637 204.345 36.179Z" fill="white"/>
</svg>
