<svg width="240" height="55" viewBox="0 0 240 55" fill="none" xmlns="http://www.w3.org/2000/svg">
<rect x="0.5" y="0.5" width="239" height="54" rx="27" fill="#1F1F1F"/>
<rect x="0.5" y="0.5" width="239" height="54" rx="27" stroke="#747775"/>
<path d="M57 23.791H21V18.1455C21 15.0809 23.6422 12.5001 26.7798 12.5001H51.2202C54.3578 12.5001 57 15.0809 57 18.1455V23.791Z" fill="#34A853"/>
<path d="M57 29H21V23C21 19.7429 23.6422 17 26.7798 17H51.2202C54.3578 17 57 19.7429 57 23V29Z" fill="#FBBC04"/>
<path d="M57 34H21V28C21 24.7429 23.6422 22 26.7798 22H51.2202C54.3578 22 57 24.7429 57 28V34Z" fill="#EA4335"/>
<path d="M21 25.2409L43.8493 30.4025C46.4795 31.0477 49.4384 30.4025 51.5753 28.7895L57 24.9183V37.0157C57 40.0804 54.3699 42.4999 51.2466 42.4999H26.7534C23.6301 42.4999 21 40.0804 21 37.0157V25.2409Z" fill="#4285F4"/>
<path d="M72.484 21.5L69.182 12.192H70.742L72.848 18.38L73.173 19.433H73.251L73.602 18.38L75.799 12.192H77.359L73.966 21.5H72.484ZM80.6175 21.708C79.9675 21.708 79.3869 21.5563 78.8755 21.253C78.3642 20.9497 77.9612 20.5337 77.6665 20.005C77.3805 19.4763 77.2375 18.874 77.2375 18.198C77.2375 17.5653 77.3762 16.9803 77.6535 16.443C77.9309 15.9057 78.3165 15.4767 78.8105 15.156C79.3132 14.8267 79.8895 14.662 80.5395 14.662C81.2242 14.662 81.8049 14.8093 82.2815 15.104C82.7669 15.3987 83.1352 15.8017 83.3865 16.313C83.6379 16.8243 83.7635 17.4007 83.7635 18.042C83.7635 18.1373 83.7592 18.224 83.7505 18.302C83.7505 18.38 83.7462 18.4407 83.7375 18.484H78.6155C78.6502 18.848 78.7412 19.1643 78.8885 19.433C79.0792 19.771 79.3305 20.0267 79.6425 20.2C79.9545 20.3733 80.2925 20.46 80.6565 20.46C81.0985 20.46 81.4669 20.3603 81.7615 20.161C82.0649 19.953 82.3032 19.6973 82.4765 19.394L83.6335 19.953C83.3475 20.473 82.9575 20.8977 82.4635 21.227C81.9695 21.5477 81.3542 21.708 80.6175 21.708ZM78.6935 17.431H82.3725C82.3639 17.2663 82.3205 17.093 82.2425 16.911C82.1645 16.7203 82.0519 16.547 81.9045 16.391C81.7572 16.235 81.5709 16.1093 81.3455 16.014C81.1202 15.91 80.8559 15.858 80.5525 15.858C80.1712 15.858 79.8332 15.9577 79.5385 16.157C79.2439 16.3477 79.0142 16.6163 78.8495 16.963C78.7802 17.1103 78.7282 17.2663 78.6935 17.431ZM85.0661 21.5V14.87H86.3921V15.845H86.4701C86.5741 15.6197 86.7214 15.4203 86.9121 15.247C87.1114 15.0737 87.3367 14.935 87.5881 14.831C87.8481 14.727 88.1167 14.675 88.3941 14.675C88.5761 14.675 88.7277 14.688 88.8491 14.714C88.9791 14.7313 89.0961 14.7617 89.2001 14.805V16.261C89.0354 16.1917 88.8664 16.1353 88.6931 16.092C88.5284 16.0487 88.3551 16.027 88.1731 16.027C87.8437 16.027 87.5491 16.118 87.2891 16.3C87.0377 16.4733 86.8384 16.7073 86.6911 17.002C86.5437 17.2967 86.4701 17.626 86.4701 17.99V21.5H85.0661ZM93.318 21.5V14.87H94.644V15.78H94.722C94.9127 15.4593 95.1944 15.195 95.567 14.987C95.9484 14.7703 96.3644 14.662 96.815 14.662C97.6297 14.662 98.2407 14.9047 98.648 15.39C99.0554 15.8667 99.259 16.508 99.259 17.314V21.5H97.868V17.496C97.868 16.9587 97.7337 16.5687 97.465 16.326C97.1964 16.0747 96.8454 15.949 96.412 15.949C96.074 15.949 95.7794 16.0443 95.528 16.235C95.2767 16.417 95.0774 16.6597 94.93 16.963C94.7914 17.2663 94.722 17.5913 94.722 17.938V21.5H93.318ZM102.876 21.708C102.399 21.708 101.974 21.6127 101.602 21.422C101.238 21.2313 100.947 20.9713 100.731 20.642C100.523 20.304 100.419 19.9183 100.419 19.485C100.419 19.0083 100.54 18.6053 100.783 18.276C101.034 17.9467 101.368 17.6953 101.784 17.522C102.2 17.3487 102.659 17.262 103.162 17.262C103.439 17.262 103.695 17.2837 103.929 17.327C104.171 17.3617 104.379 17.405 104.553 17.457C104.735 17.509 104.878 17.5653 104.982 17.626V17.275C104.982 16.8417 104.826 16.495 104.514 16.235C104.202 15.975 103.799 15.845 103.305 15.845C102.967 15.845 102.646 15.923 102.343 16.079C102.039 16.2263 101.797 16.43 101.615 16.69L100.653 15.949C100.843 15.6803 101.073 15.4507 101.342 15.26C101.619 15.0693 101.927 14.922 102.265 14.818C102.611 14.714 102.971 14.662 103.344 14.662C104.306 14.662 105.047 14.9003 105.567 15.377C106.087 15.845 106.347 16.5037 106.347 17.353V21.5H104.982V20.681H104.904C104.791 20.8543 104.635 21.019 104.436 21.175C104.245 21.331 104.015 21.4567 103.747 21.552C103.487 21.656 103.196 21.708 102.876 21.708ZM103.123 20.564C103.487 20.564 103.807 20.4773 104.085 20.304C104.371 20.1307 104.592 19.9053 104.748 19.628C104.904 19.342 104.982 19.0343 104.982 18.705C104.791 18.5923 104.557 18.5013 104.28 18.432C104.011 18.354 103.725 18.315 103.422 18.315C102.85 18.315 102.442 18.4277 102.2 18.653C101.957 18.8783 101.836 19.16 101.836 19.498C101.836 19.81 101.953 20.0657 102.187 20.265C102.421 20.4643 102.733 20.564 103.123 20.564Z" fill="white"/>
<path d="M76.106 41.772C75.2107 41.772 74.3777 41.6133 73.607 41.296C72.8363 40.9673 72.162 40.5197 71.584 39.953C71.0173 39.375 70.5697 38.7007 70.241 37.93C69.9237 37.148 69.765 36.3093 69.765 35.414C69.765 34.5073 69.9237 33.6687 70.241 32.898C70.5697 32.1273 71.0173 31.4587 71.584 30.892C72.162 30.314 72.8363 29.8663 73.607 29.549C74.3777 29.2203 75.2107 29.056 76.106 29.056C76.7407 29.056 77.33 29.1353 77.874 29.294C78.418 29.4527 78.9167 29.6793 79.37 29.974C79.8233 30.2687 80.237 30.6257 80.611 31.045L79.302 32.32C79.03 31.9913 78.7353 31.7193 78.418 31.504C78.1007 31.2773 77.7493 31.1073 77.364 30.994C76.99 30.8807 76.5763 30.824 76.123 30.824C75.307 30.824 74.559 31.0167 73.879 31.402C73.199 31.776 72.655 32.303 72.247 32.983C71.8503 33.663 71.652 34.4733 71.652 35.414C71.652 36.3433 71.8503 37.1537 72.247 37.845C72.655 38.525 73.199 39.0577 73.879 39.443C74.559 39.817 75.307 40.004 76.123 40.004C76.6217 40.004 77.075 39.936 77.483 39.8C77.9023 39.664 78.2877 39.4657 78.639 39.205C78.9903 38.9443 79.3133 38.6383 79.608 38.287L80.951 39.579C80.577 40.021 80.1407 40.4063 79.642 40.735C79.1433 41.0637 78.5993 41.3187 78.01 41.5C77.4207 41.6813 76.786 41.772 76.106 41.772ZM85.126 41.772C84.5026 41.772 83.9473 41.6473 83.46 41.398C82.984 41.1487 82.6043 40.8087 82.321 40.378C82.049 39.936 81.913 39.4317 81.913 38.865C81.913 38.2417 82.0716 37.7147 82.389 37.284C82.7176 36.8533 83.154 36.5247 83.698 36.298C84.242 36.0713 84.8426 35.958 85.5 35.958C85.8626 35.958 86.197 35.9863 86.503 36.043C86.8203 36.0883 87.0923 36.145 87.319 36.213C87.557 36.281 87.744 36.3547 87.88 36.434V35.975C87.88 35.4083 87.676 34.955 87.268 34.615C86.86 34.275 86.333 34.105 85.687 34.105C85.245 34.105 84.8256 34.207 84.429 34.411C84.0323 34.6037 83.715 34.87 83.477 35.21L82.219 34.241C82.4683 33.8897 82.7686 33.5893 83.12 33.34C83.4826 33.0907 83.885 32.898 84.327 32.762C84.7803 32.626 85.2506 32.558 85.738 32.558C86.996 32.558 87.965 32.8697 88.645 33.493C89.325 34.105 89.665 34.9663 89.665 36.077V41.5H87.88V40.429H87.778C87.6306 40.6557 87.4266 40.871 87.166 41.075C86.9166 41.279 86.6163 41.4433 86.265 41.568C85.925 41.704 85.5453 41.772 85.126 41.772ZM85.449 40.276C85.925 40.276 86.3443 40.1627 86.707 39.936C87.081 39.7093 87.37 39.4147 87.574 39.052C87.778 38.678 87.88 38.2757 87.88 37.845C87.6306 37.6977 87.3246 37.5787 86.962 37.488C86.6106 37.386 86.2366 37.335 85.84 37.335C85.092 37.335 84.5593 37.4823 84.242 37.777C83.9246 38.0717 83.766 38.44 83.766 38.882C83.766 39.29 83.919 39.6243 84.225 39.885C84.531 40.1457 84.939 40.276 85.449 40.276ZM97.9762 32.83H99.4892V30.382H101.325V32.83H103.45V34.428H101.325V38.593C101.325 39.0237 101.41 39.3523 101.58 39.579C101.762 39.8057 102.062 39.919 102.481 39.919C102.685 39.919 102.867 39.8907 103.025 39.834C103.184 39.766 103.343 39.6867 103.501 39.596V41.381C103.309 41.4603 103.105 41.5227 102.889 41.568C102.674 41.6133 102.425 41.636 102.141 41.636C101.325 41.636 100.679 41.4037 100.203 40.939C99.7272 40.463 99.4892 39.8113 99.4892 38.984V34.428H97.9762V32.83ZM91.6862 41.5V32.83H93.4202V34.105H93.5222C93.6809 33.7877 93.8906 33.5213 94.1512 33.306C94.4119 33.0793 94.7122 32.9037 95.0522 32.779C95.4036 32.6543 95.7606 32.592 96.1232 32.592C96.2932 32.592 96.4292 32.5977 96.5312 32.609C96.6446 32.609 96.7466 32.626 96.8372 32.66V34.496C96.7126 34.4507 96.5766 34.4223 96.4292 34.411C96.2819 34.3883 96.1119 34.377 95.9192 34.377C95.4432 34.377 95.0239 34.4847 94.6612 34.7C94.2986 34.904 94.0152 35.1987 93.8112 35.584C93.6186 35.9693 93.5222 36.4283 93.5222 36.961V41.5H91.6862ZM108.862 41.772C108.012 41.772 107.253 41.5737 106.584 41.177C105.915 40.7803 105.388 40.2363 105.003 39.545C104.629 38.8537 104.442 38.066 104.442 37.182C104.442 36.3547 104.623 35.5897 104.986 34.887C105.349 34.1843 105.853 33.6233 106.499 33.204C107.156 32.7733 107.91 32.558 108.76 32.558C109.655 32.558 110.415 32.7507 111.038 33.136C111.673 33.5213 112.154 34.0483 112.483 34.717C112.812 35.3857 112.976 36.1393 112.976 36.978C112.976 37.1027 112.97 37.216 112.959 37.318C112.959 37.42 112.953 37.4993 112.942 37.556H106.244C106.289 38.032 106.408 38.4457 106.601 38.797C106.85 39.239 107.179 39.5733 107.587 39.8C107.995 40.0267 108.437 40.14 108.913 40.14C109.491 40.14 109.973 40.0097 110.358 39.749C110.755 39.477 111.066 39.1427 111.293 38.746L112.806 39.477C112.432 40.157 111.922 40.7123 111.276 41.143C110.63 41.5623 109.825 41.772 108.862 41.772ZM106.346 36.179H111.157C111.146 35.9637 111.089 35.737 110.987 35.499C110.885 35.2497 110.738 35.023 110.545 34.819C110.352 34.615 110.109 34.4507 109.814 34.326C109.519 34.19 109.174 34.122 108.777 34.122C108.278 34.122 107.836 34.2523 107.451 34.513C107.066 34.7623 106.765 35.1137 106.55 35.567C106.459 35.7597 106.391 35.9637 106.346 36.179ZM114.815 41.5V32.83H116.651V41.5H114.815ZM115.733 31.555C115.393 31.555 115.099 31.436 114.849 31.198C114.611 30.9487 114.492 30.654 114.492 30.314C114.492 29.9627 114.611 29.6737 114.849 29.447C115.099 29.209 115.393 29.09 115.733 29.09C116.085 29.09 116.379 29.209 116.617 29.447C116.855 29.6737 116.974 29.9627 116.974 30.314C116.974 30.654 116.855 30.9487 116.617 31.198C116.379 31.436 116.085 31.555 115.733 31.555ZM118.929 41.5V32.83H120.663V34.105H120.765C120.901 33.8103 121.094 33.5497 121.343 33.323C121.604 33.0963 121.899 32.915 122.227 32.779C122.567 32.643 122.919 32.575 123.281 32.575C123.519 32.575 123.718 32.592 123.876 32.626C124.046 32.6487 124.199 32.6883 124.335 32.745V34.649C124.12 34.5583 123.899 34.4847 123.672 34.428C123.457 34.3713 123.23 34.343 122.992 34.343C122.562 34.343 122.176 34.462 121.836 34.7C121.508 34.9267 121.247 35.2327 121.054 35.618C120.862 36.0033 120.765 36.434 120.765 36.91V41.5H118.929ZM128.174 41.772C127.55 41.772 126.995 41.6473 126.508 41.398C126.032 41.1487 125.652 40.8087 125.369 40.378C125.097 39.936 124.961 39.4317 124.961 38.865C124.961 38.2417 125.119 37.7147 125.437 37.284C125.765 36.8533 126.202 36.5247 126.746 36.298C127.29 36.0713 127.89 35.958 128.548 35.958C128.91 35.958 129.245 35.9863 129.551 36.043C129.868 36.0883 130.14 36.145 130.367 36.213C130.605 36.281 130.792 36.3547 130.928 36.434V35.975C130.928 35.4083 130.724 34.955 130.316 34.615C129.908 34.275 129.381 34.105 128.735 34.105C128.293 34.105 127.873 34.207 127.477 34.411C127.08 34.6037 126.763 34.87 126.525 35.21L125.267 34.241C125.516 33.8897 125.816 33.5893 126.168 33.34C126.53 33.0907 126.933 32.898 127.375 32.762C127.828 32.626 128.298 32.558 128.786 32.558C130.044 32.558 131.013 32.8697 131.693 33.493C132.373 34.105 132.713 34.9663 132.713 36.077V41.5H130.928V40.429H130.826C130.678 40.6557 130.474 40.871 130.214 41.075C129.964 41.279 129.664 41.4433 129.313 41.568C128.973 41.704 128.593 41.772 128.174 41.772ZM128.497 40.276C128.973 40.276 129.392 40.1627 129.755 39.936C130.129 39.7093 130.418 39.4147 130.622 39.052C130.826 38.678 130.928 38.2757 130.928 37.845C130.678 37.6977 130.372 37.5787 130.01 37.488C129.658 37.386 129.284 37.335 128.888 37.335C128.14 37.335 127.607 37.4823 127.29 37.777C126.972 38.0717 126.814 38.44 126.814 38.882C126.814 39.29 126.967 39.6243 127.273 39.885C127.579 40.1457 127.987 40.276 128.497 40.276ZM142.408 41.772C141.626 41.772 140.918 41.5737 140.283 41.177C139.648 40.7803 139.15 40.2363 138.787 39.545C138.424 38.8537 138.243 38.0603 138.243 37.165C138.243 36.2697 138.424 35.4763 138.787 34.785C139.15 34.0937 139.648 33.5497 140.283 33.153C140.918 32.7563 141.626 32.558 142.408 32.558C142.861 32.558 143.269 32.626 143.632 32.762C143.995 32.898 144.306 33.0793 144.567 33.306C144.839 33.5213 145.049 33.7537 145.196 34.003H145.298L145.196 32.796V29.328H147.015V41.5H145.298V40.344H145.196C145.049 40.582 144.839 40.8143 144.567 41.041C144.306 41.2563 143.995 41.432 143.632 41.568C143.269 41.704 142.861 41.772 142.408 41.772ZM142.68 40.089C143.133 40.089 143.558 39.97 143.955 39.732C144.363 39.494 144.686 39.1597 144.924 38.729C145.173 38.287 145.298 37.7657 145.298 37.165C145.298 36.5643 145.173 36.0487 144.924 35.618C144.686 35.176 144.363 34.836 143.955 34.598C143.558 34.36 143.133 34.241 142.68 34.241C142.227 34.241 141.802 34.36 141.405 34.598C141.008 34.836 140.685 35.176 140.436 35.618C140.187 36.0487 140.062 36.5643 140.062 37.165C140.062 37.7543 140.187 38.27 140.436 38.712C140.685 39.154 141.008 39.494 141.405 39.732C141.802 39.97 142.227 40.089 142.68 40.089ZM153.174 41.772C152.279 41.772 151.491 41.568 150.811 41.16C150.131 40.752 149.599 40.2023 149.213 39.511C148.828 38.8083 148.635 38.0263 148.635 37.165C148.635 36.3037 148.828 35.5273 149.213 34.836C149.599 34.1333 150.131 33.578 150.811 33.17C151.491 32.762 152.279 32.558 153.174 32.558C154.058 32.558 154.84 32.7677 155.52 33.187C156.2 33.595 156.733 34.1447 157.118 34.836C157.504 35.5273 157.696 36.3037 157.696 37.165C157.696 38.0263 157.504 38.8083 157.118 39.511C156.733 40.2023 156.2 40.752 155.52 41.16C154.84 41.568 154.058 41.772 153.174 41.772ZM153.174 40.089C153.65 40.089 154.092 39.9757 154.5 39.749C154.908 39.511 155.237 39.1767 155.486 38.746C155.747 38.304 155.877 37.777 155.877 37.165C155.877 36.553 155.747 36.0317 155.486 35.601C155.237 35.159 154.908 34.8247 154.5 34.598C154.092 34.36 153.65 34.241 153.174 34.241C152.698 34.241 152.251 34.36 151.831 34.598C151.423 34.8247 151.089 35.159 150.828 35.601C150.579 36.0317 150.454 36.553 150.454 37.165C150.454 37.777 150.579 38.304 150.828 38.746C151.089 39.1767 151.429 39.511 151.848 39.749C152.268 39.9757 152.71 40.089 153.174 40.089ZM169.092 41.772C168.219 41.772 167.398 41.6133 166.627 41.296C165.856 40.9787 165.176 40.5367 164.587 39.97C164.009 39.392 163.55 38.7177 163.21 37.947C162.881 37.165 162.717 36.3207 162.717 35.414C162.717 34.5073 162.881 33.6687 163.21 32.898C163.55 32.116 164.009 31.4417 164.587 30.875C165.176 30.297 165.856 29.8493 166.627 29.532C167.398 29.2147 168.219 29.056 169.092 29.056C170.021 29.056 170.877 29.2203 171.659 29.549C172.452 29.8777 173.115 30.3367 173.648 30.926L172.356 32.201C172.095 31.9063 171.795 31.657 171.455 31.453C171.126 31.249 170.764 31.096 170.367 30.994C169.97 30.8807 169.545 30.824 169.092 30.824C168.491 30.824 167.919 30.9317 167.375 31.147C166.831 31.3623 166.349 31.674 165.93 32.082C165.522 32.4787 165.199 32.9603 164.961 33.527C164.723 34.0823 164.604 34.7113 164.604 35.414C164.604 36.1167 164.723 36.7513 164.961 37.318C165.21 37.8733 165.539 38.355 165.947 38.763C166.366 39.1597 166.848 39.4657 167.392 39.681C167.936 39.8963 168.508 40.004 169.109 40.004C169.664 40.004 170.18 39.9247 170.656 39.766C171.143 39.6073 171.568 39.3807 171.931 39.086C172.294 38.7913 172.588 38.4343 172.815 38.015C173.042 37.5843 173.183 37.1027 173.24 36.57H169.075V34.921H174.991C175.014 35.057 175.036 35.2157 175.059 35.397C175.082 35.567 175.093 35.7313 175.093 35.89V35.907C175.093 36.7797 174.94 37.5787 174.634 38.304C174.339 39.0293 173.926 39.6527 173.393 40.174C172.86 40.684 172.226 41.0807 171.489 41.364C170.764 41.636 169.965 41.772 169.092 41.772ZM180.567 41.772C179.672 41.772 178.884 41.568 178.204 41.16C177.524 40.752 176.991 40.2023 176.606 39.511C176.221 38.8083 176.028 38.0263 176.028 37.165C176.028 36.3037 176.221 35.5273 176.606 34.836C176.991 34.1333 177.524 33.578 178.204 33.17C178.884 32.762 179.672 32.558 180.567 32.558C181.451 32.558 182.233 32.7677 182.913 33.187C183.593 33.595 184.126 34.1447 184.511 34.836C184.896 35.5273 185.089 36.3037 185.089 37.165C185.089 38.0263 184.896 38.8083 184.511 39.511C184.126 40.2023 183.593 40.752 182.913 41.16C182.233 41.568 181.451 41.772 180.567 41.772ZM180.567 40.089C181.043 40.089 181.485 39.9757 181.893 39.749C182.301 39.511 182.63 39.1767 182.879 38.746C183.14 38.304 183.27 37.777 183.27 37.165C183.27 36.553 183.14 36.0317 182.879 35.601C182.63 35.159 182.301 34.8247 181.893 34.598C181.485 34.36 181.043 34.241 180.567 34.241C180.091 34.241 179.643 34.36 179.224 34.598C178.816 34.8247 178.482 35.159 178.221 35.601C177.972 36.0317 177.847 36.553 177.847 37.165C177.847 37.777 177.972 38.304 178.221 38.746C178.482 39.1767 178.822 39.511 179.241 39.749C179.66 39.9757 180.102 40.089 180.567 40.089ZM190.86 41.772C189.965 41.772 189.177 41.568 188.497 41.16C187.817 40.752 187.284 40.2023 186.899 39.511C186.514 38.8083 186.321 38.0263 186.321 37.165C186.321 36.3037 186.514 35.5273 186.899 34.836C187.284 34.1333 187.817 33.578 188.497 33.17C189.177 32.762 189.965 32.558 190.86 32.558C191.744 32.558 192.526 32.7677 193.206 33.187C193.886 33.595 194.419 34.1447 194.804 34.836C195.189 35.5273 195.382 36.3037 195.382 37.165C195.382 38.0263 195.189 38.8083 194.804 39.511C194.419 40.2023 193.886 40.752 193.206 41.16C192.526 41.568 191.744 41.772 190.86 41.772ZM190.86 40.089C191.336 40.089 191.778 39.9757 192.186 39.749C192.594 39.511 192.923 39.1767 193.172 38.746C193.433 38.304 193.563 37.777 193.563 37.165C193.563 36.553 193.433 36.0317 193.172 35.601C192.923 35.159 192.594 34.8247 192.186 34.598C191.778 34.36 191.336 34.241 190.86 34.241C190.384 34.241 189.936 34.36 189.517 34.598C189.109 34.8247 188.775 35.159 188.514 35.601C188.265 36.0317 188.14 36.553 188.14 37.165C188.14 37.777 188.265 38.304 188.514 38.746C188.775 39.1767 189.115 39.511 189.534 39.749C189.953 39.9757 190.395 40.089 190.86 40.089ZM200.983 45.444C200.224 45.444 199.566 45.3193 199.011 45.07C198.467 44.832 198.025 44.5203 197.685 44.135C197.345 43.761 197.101 43.3757 196.954 42.979L198.654 42.265C198.835 42.7183 199.124 43.0867 199.521 43.37C199.929 43.6647 200.416 43.812 200.983 43.812C201.788 43.812 202.417 43.574 202.87 43.098C203.323 42.622 203.55 41.9477 203.55 41.075V40.242H203.448C203.176 40.6387 202.802 40.9617 202.326 41.211C201.85 41.4603 201.3 41.585 200.677 41.585C199.94 41.585 199.26 41.398 198.637 41.024C198.025 40.65 197.532 40.1287 197.158 39.46C196.795 38.78 196.614 37.9867 196.614 37.08C196.614 36.162 196.795 35.3687 197.158 34.7C197.532 34.02 198.025 33.493 198.637 33.119C199.26 32.745 199.94 32.558 200.677 32.558C201.3 32.558 201.85 32.6827 202.326 32.932C202.802 33.17 203.176 33.4987 203.448 33.918H203.55V32.83H205.301V41.041C205.301 41.9817 205.114 42.7807 204.74 43.438C204.377 44.0953 203.873 44.594 203.227 44.934C202.581 45.274 201.833 45.444 200.983 45.444ZM201 39.919C201.453 39.919 201.873 39.8113 202.258 39.596C202.655 39.3693 202.966 39.0463 203.193 38.627C203.431 38.1963 203.55 37.6807 203.55 37.08C203.55 36.4453 203.431 35.9183 203.193 35.499C202.966 35.0797 202.655 34.7623 202.258 34.547C201.873 34.3317 201.453 34.224 201 34.224C200.547 34.224 200.122 34.3317 199.725 34.547C199.34 34.7623 199.028 35.0853 198.79 35.516C198.552 35.9353 198.433 36.4567 198.433 37.08C198.433 37.692 198.552 38.2133 198.79 38.644C199.028 39.0633 199.34 39.3807 199.725 39.596C200.122 39.8113 200.547 39.919 201 39.919ZM207.466 41.5V29.328H209.302V41.5H207.466ZM215.345 41.772C214.495 41.772 213.735 41.5737 213.067 41.177C212.398 40.7803 211.871 40.2363 211.486 39.545C211.112 38.8537 210.925 38.066 210.925 37.182C210.925 36.3547 211.106 35.5897 211.469 34.887C211.831 34.1843 212.336 33.6233 212.982 33.204C213.639 32.7733 214.393 32.558 215.243 32.558C216.138 32.558 216.897 32.7507 217.521 33.136C218.155 33.5213 218.637 34.0483 218.966 34.717C219.294 35.3857 219.459 36.1393 219.459 36.978C219.459 37.1027 219.453 37.216 219.442 37.318C219.442 37.42 219.436 37.4993 219.425 37.556H212.727C212.772 38.032 212.891 38.4457 213.084 38.797C213.333 39.239 213.662 39.5733 214.07 39.8C214.478 40.0267 214.92 40.14 215.396 40.14C215.974 40.14 216.455 40.0097 216.841 39.749C217.237 39.477 217.549 39.1427 217.776 38.746L219.288 39.477C218.915 40.157 218.405 40.7123 217.759 41.143C217.113 41.5623 216.308 41.772 215.345 41.772ZM212.829 36.179H217.64C217.628 35.9637 217.572 35.737 217.47 35.499C217.368 35.2497 217.22 35.023 217.028 34.819C216.835 34.615 216.591 34.4507 216.297 34.326C216.002 34.19 215.656 34.122 215.26 34.122C214.761 34.122 214.319 34.2523 213.934 34.513C213.548 34.7623 213.248 35.1137 213.033 35.567C212.942 35.7597 212.874 35.9637 212.829 36.179Z" fill="white"/>
</svg>
