<svg width="213" height="55" viewBox="0 0 213 55" fill="none" xmlns="http://www.w3.org/2000/svg">
<rect x="0.5" y="0.5" width="212" height="54" rx="27" fill="#1F1F1F"/>
<rect x="0.5" y="0.5" width="212" height="54" rx="27" stroke="#747775"/>
<path d="M57 23.791H21V18.1455C21 15.0809 23.6422 12.5001 26.7798 12.5001H51.2202C54.3578 12.5001 57 15.0809 57 18.1455V23.791Z" fill="#34A853"/>
<path d="M57 29H21V23C21 19.7429 23.6422 17 26.7798 17H51.2202C54.3578 17 57 19.7429 57 23V29Z" fill="#FBBC04"/>
<path d="M57 34H21V28C21 24.7429 23.6422 22 26.7798 22H51.2202C54.3578 22 57 24.7429 57 28V34Z" fill="#EA4335"/>
<path d="M21 25.2409L43.8493 30.4025C46.4795 31.0477 49.4384 30.4025 51.5753 28.7895L57 24.9183V37.0157C57 40.0804 54.3699 42.4999 51.2466 42.4999H26.7534C23.6301 42.4999 21 40.0804 21 37.0157V25.2409Z" fill="#4285F4"/>
<path d="M72.484 21.5L69.182 12.192H70.742L72.848 18.38L73.173 19.433H73.251L73.602 18.38L75.799 12.192H77.359L73.966 21.5H72.484ZM80.6175 21.708C79.9675 21.708 79.3869 21.5563 78.8755 21.253C78.3642 20.9497 77.9612 20.5337 77.6665 20.005C77.3805 19.4763 77.2375 18.874 77.2375 18.198C77.2375 17.5653 77.3762 16.9803 77.6535 16.443C77.9309 15.9057 78.3165 15.4767 78.8105 15.156C79.3132 14.8267 79.8895 14.662 80.5395 14.662C81.2242 14.662 81.8049 14.8093 82.2815 15.104C82.7669 15.3987 83.1352 15.8017 83.3865 16.313C83.6379 16.8243 83.7635 17.4007 83.7635 18.042C83.7635 18.1373 83.7592 18.224 83.7505 18.302C83.7505 18.38 83.7462 18.4407 83.7375 18.484H78.6155C78.6502 18.848 78.7412 19.1643 78.8885 19.433C79.0792 19.771 79.3305 20.0267 79.6425 20.2C79.9545 20.3733 80.2925 20.46 80.6565 20.46C81.0985 20.46 81.4669 20.3603 81.7615 20.161C82.0649 19.953 82.3032 19.6973 82.4765 19.394L83.6335 19.953C83.3475 20.473 82.9575 20.8977 82.4635 21.227C81.9695 21.5477 81.3542 21.708 80.6175 21.708ZM78.6935 17.431H82.3725C82.3639 17.2663 82.3205 17.093 82.2425 16.911C82.1645 16.7203 82.0519 16.547 81.9045 16.391C81.7572 16.235 81.5709 16.1093 81.3455 16.014C81.1202 15.91 80.8559 15.858 80.5525 15.858C80.1712 15.858 79.8332 15.9577 79.5385 16.157C79.2439 16.3477 79.0142 16.6163 78.8495 16.963C78.7802 17.1103 78.7282 17.2663 78.6935 17.431ZM84.6646 21.5V20.33L88.3566 16.092H84.7816V14.87H90.0726V16.04L86.3936 20.278H90.1766V21.5H84.6646ZM91.7209 21.5V14.87H93.1249V21.5H91.7209ZM92.4229 13.895C92.1629 13.895 91.9375 13.804 91.7469 13.622C91.5649 13.4313 91.4739 13.206 91.4739 12.946C91.4739 12.6773 91.5649 12.4563 91.7469 12.283C91.9375 12.101 92.1629 12.01 92.4229 12.01C92.6915 12.01 92.9169 12.101 93.0989 12.283C93.2809 12.4563 93.3719 12.6773 93.3719 12.946C93.3719 13.206 93.2809 13.4313 93.0989 13.622C92.9169 13.804 92.6915 13.895 92.4229 13.895ZM97.992 21.5V14.87H99.396V21.5H97.992ZM96.705 13.596V13.505L98.096 11.932H99.331L100.735 13.505V13.596H99.383L98.772 12.79H98.642L98.044 13.596H96.705ZM101.151 21.5V14.87H102.477V15.78H102.555C102.746 15.4593 103.027 15.195 103.4 14.987C103.781 14.7703 104.197 14.662 104.648 14.662C105.463 14.662 106.074 14.9047 106.481 15.39C106.888 15.8667 107.092 16.508 107.092 17.314V21.5H105.701V17.496C105.701 16.9587 105.567 16.5687 105.298 16.326C105.029 16.0747 104.678 15.949 104.245 15.949C103.907 15.949 103.612 16.0443 103.361 16.235C103.11 16.417 102.91 16.6597 102.763 16.963C102.624 17.2663 102.555 17.5913 102.555 17.938V21.5H101.151Z" fill="white"/>
<path d="M70.377 41.5V29.328H74.559C75.2957 29.328 75.9643 29.4867 76.565 29.804C77.1657 30.11 77.6417 30.5463 77.993 31.113C78.3557 31.6683 78.537 32.3143 78.537 33.051C78.537 33.7763 78.3557 34.4223 77.993 34.989C77.6417 35.5557 77.1657 35.9977 76.565 36.315C75.9643 36.621 75.2957 36.774 74.559 36.774H72.247V41.5H70.377ZM72.247 35.006H74.61C75.052 35.006 75.426 34.9153 75.732 34.734C76.038 34.5413 76.2703 34.2977 76.429 34.003C76.599 33.697 76.684 33.3797 76.684 33.051C76.684 32.7223 76.599 32.4107 76.429 32.116C76.2703 31.8213 76.038 31.5777 75.732 31.385C75.426 31.1923 75.052 31.096 74.61 31.096H72.247V35.006ZM83.6305 41.772C82.7352 41.772 81.9475 41.568 81.2675 41.16C80.5875 40.752 80.0548 40.2023 79.6695 39.511C79.2842 38.8083 79.0915 38.0263 79.0915 37.165C79.0915 36.3037 79.2842 35.5273 79.6695 34.836C80.0548 34.1333 80.5875 33.578 81.2675 33.17C81.9475 32.762 82.7352 32.558 83.6305 32.558C84.5145 32.558 85.2965 32.7677 85.9765 33.187C86.6565 33.595 87.1892 34.1447 87.5745 34.836C87.9598 35.5273 88.1525 36.3037 88.1525 37.165C88.1525 38.0263 87.9598 38.8083 87.5745 39.511C87.1892 40.2023 86.6565 40.752 85.9765 41.16C85.2965 41.568 84.5145 41.772 83.6305 41.772ZM83.6305 40.089C84.1065 40.089 84.5485 39.9757 84.9565 39.749C85.3645 39.511 85.6932 39.1767 85.9425 38.746C86.2032 38.304 86.3335 37.777 86.3335 37.165C86.3335 36.553 86.2032 36.0317 85.9425 35.601C85.6932 35.159 85.3645 34.8247 84.9565 34.598C84.5485 34.36 84.1065 34.241 83.6305 34.241C83.1545 34.241 82.7068 34.36 82.2875 34.598C81.8795 34.8247 81.5452 35.159 81.2845 35.601C81.0352 36.0317 80.9105 36.553 80.9105 37.165C80.9105 37.777 81.0352 38.304 81.2845 38.746C81.5452 39.1767 81.8852 39.511 82.3045 39.749C82.7238 39.9757 83.1658 40.089 83.6305 40.089ZM95.9674 32.83H97.4804V30.382H99.3164V32.83H101.441V34.428H99.3164V38.593C99.3164 39.0237 99.4014 39.3523 99.5714 39.579C99.7528 39.8057 100.053 39.919 100.472 39.919C100.676 39.919 100.858 39.8907 101.016 39.834C101.175 39.766 101.334 39.6867 101.492 39.596V41.381C101.3 41.4603 101.096 41.5227 100.88 41.568C100.665 41.6133 100.416 41.636 100.132 41.636C99.3164 41.636 98.6704 41.4037 98.1944 40.939C97.7184 40.463 97.4804 39.8113 97.4804 38.984V34.428H95.9674V32.83ZM89.6774 41.5V32.83H91.4114V34.105H91.5134C91.6721 33.7877 91.8818 33.5213 92.1424 33.306C92.4031 33.0793 92.7034 32.9037 93.0434 32.779C93.3948 32.6543 93.7518 32.592 94.1144 32.592C94.2844 32.592 94.4204 32.5977 94.5224 32.609C94.6358 32.609 94.7378 32.626 94.8284 32.66V34.496C94.7038 34.4507 94.5678 34.4223 94.4204 34.411C94.2731 34.3883 94.1031 34.377 93.9104 34.377C93.4344 34.377 93.0151 34.4847 92.6524 34.7C92.2898 34.904 92.0064 35.1987 91.8024 35.584C91.6098 35.9693 91.5134 36.4283 91.5134 36.961V41.5H89.6774ZM106.972 41.772C106.077 41.772 105.289 41.568 104.609 41.16C103.929 40.752 103.397 40.2023 103.011 39.511C102.626 38.8083 102.433 38.0263 102.433 37.165C102.433 36.3037 102.626 35.5273 103.011 34.836C103.397 34.1333 103.929 33.578 104.609 33.17C105.289 32.762 106.077 32.558 106.972 32.558C107.856 32.558 108.638 32.7677 109.318 33.187C109.998 33.595 110.531 34.1447 110.916 34.836C111.302 35.5273 111.494 36.3037 111.494 37.165C111.494 38.0263 111.302 38.8083 110.916 39.511C110.531 40.2023 109.998 40.752 109.318 41.16C108.638 41.568 107.856 41.772 106.972 41.772ZM106.972 40.089C107.448 40.089 107.89 39.9757 108.298 39.749C108.706 39.511 109.035 39.1767 109.284 38.746C109.545 38.304 109.675 37.777 109.675 37.165C109.675 36.553 109.545 36.0317 109.284 35.601C109.035 35.159 108.706 34.8247 108.298 34.598C107.89 34.36 107.448 34.241 106.972 34.241C106.496 34.241 106.049 34.36 105.629 34.598C105.221 34.8247 104.887 35.159 104.626 35.601C104.377 36.0317 104.252 36.553 104.252 37.165C104.252 37.777 104.377 38.304 104.626 38.746C104.887 39.1767 105.227 39.511 105.646 39.749C106.066 39.9757 106.508 40.089 106.972 40.089ZM112.341 34.428V32.83H113.922V32.116C113.922 31.4927 114.053 30.9657 114.313 30.535C114.574 30.093 114.931 29.7587 115.384 29.532C115.838 29.3053 116.342 29.192 116.897 29.192C117.203 29.192 117.464 29.2147 117.679 29.26C117.906 29.294 118.093 29.3393 118.24 29.396V31.181C118.093 31.1243 117.923 31.0677 117.73 31.011C117.549 30.943 117.322 30.909 117.05 30.909C116.699 30.909 116.393 31.028 116.132 31.266C115.872 31.4927 115.741 31.827 115.741 32.269V32.83H117.917V34.428H115.741V41.5H113.922V34.428H112.341ZM123.106 41.772C122.256 41.772 121.497 41.5737 120.828 41.177C120.16 40.7803 119.633 40.2363 119.247 39.545C118.873 38.8537 118.686 38.066 118.686 37.182C118.686 36.3547 118.868 35.5897 119.23 34.887C119.593 34.1843 120.097 33.6233 120.743 33.204C121.401 32.7733 122.154 32.558 123.004 32.558C123.9 32.558 124.659 32.7507 125.282 33.136C125.917 33.5213 126.399 34.0483 126.727 34.717C127.056 35.3857 127.22 36.1393 127.22 36.978C127.22 37.1027 127.215 37.216 127.203 37.318C127.203 37.42 127.198 37.4993 127.186 37.556H120.488C120.534 38.032 120.653 38.4457 120.845 38.797C121.095 39.239 121.423 39.5733 121.831 39.8C122.239 40.0267 122.681 40.14 123.157 40.14C123.735 40.14 124.217 40.0097 124.602 39.749C124.999 39.477 125.311 39.1427 125.537 38.746L127.05 39.477C126.676 40.157 126.166 40.7123 125.52 41.143C124.874 41.5623 124.07 41.772 123.106 41.772ZM120.59 36.179H125.401C125.39 35.9637 125.333 35.737 125.231 35.499C125.129 35.2497 124.982 35.023 124.789 34.819C124.597 34.615 124.353 34.4507 124.058 34.326C123.764 34.19 123.418 34.122 123.021 34.122C122.523 34.122 122.081 34.2523 121.695 34.513C121.31 34.7623 121.01 35.1137 120.794 35.567C120.704 35.7597 120.636 35.9637 120.59 36.179ZM128.941 41.5V29.328H130.777V41.5H128.941ZM142.646 41.772C141.773 41.772 140.952 41.6133 140.181 41.296C139.41 40.9787 138.73 40.5367 138.141 39.97C137.563 39.392 137.104 38.7177 136.764 37.947C136.435 37.165 136.271 36.3207 136.271 35.414C136.271 34.5073 136.435 33.6687 136.764 32.898C137.104 32.116 137.563 31.4417 138.141 30.875C138.73 30.297 139.41 29.8493 140.181 29.532C140.952 29.2147 141.773 29.056 142.646 29.056C143.575 29.056 144.431 29.2203 145.213 29.549C146.006 29.8777 146.669 30.3367 147.202 30.926L145.91 32.201C145.649 31.9063 145.349 31.657 145.009 31.453C144.68 31.249 144.318 31.096 143.921 30.994C143.524 30.8807 143.099 30.824 142.646 30.824C142.045 30.824 141.473 30.9317 140.929 31.147C140.385 31.3623 139.903 31.674 139.484 32.082C139.076 32.4787 138.753 32.9603 138.515 33.527C138.277 34.0823 138.158 34.7113 138.158 35.414C138.158 36.1167 138.277 36.7513 138.515 37.318C138.764 37.8733 139.093 38.355 139.501 38.763C139.92 39.1597 140.402 39.4657 140.946 39.681C141.49 39.8963 142.062 40.004 142.663 40.004C143.218 40.004 143.734 39.9247 144.21 39.766C144.697 39.6073 145.122 39.3807 145.485 39.086C145.848 38.7913 146.142 38.4343 146.369 38.015C146.596 37.5843 146.737 37.1027 146.794 36.57H142.629V34.921H148.545C148.568 35.057 148.59 35.2157 148.613 35.397C148.636 35.567 148.647 35.7313 148.647 35.89V35.907C148.647 36.7797 148.494 37.5787 148.188 38.304C147.893 39.0293 147.48 39.6527 146.947 40.174C146.414 40.684 145.78 41.0807 145.043 41.364C144.318 41.636 143.519 41.772 142.646 41.772ZM154.121 41.772C153.225 41.772 152.438 41.568 151.758 41.16C151.078 40.752 150.545 40.2023 150.16 39.511C149.774 38.8083 149.582 38.0263 149.582 37.165C149.582 36.3037 149.774 35.5273 150.16 34.836C150.545 34.1333 151.078 33.578 151.758 33.17C152.438 32.762 153.225 32.558 154.121 32.558C155.005 32.558 155.787 32.7677 156.467 33.187C157.147 33.595 157.679 34.1447 158.065 34.836C158.45 35.5273 158.643 36.3037 158.643 37.165C158.643 38.0263 158.45 38.8083 158.065 39.511C157.679 40.2023 157.147 40.752 156.467 41.16C155.787 41.568 155.005 41.772 154.121 41.772ZM154.121 40.089C154.597 40.089 155.039 39.9757 155.447 39.749C155.855 39.511 156.183 39.1767 156.433 38.746C156.693 38.304 156.824 37.777 156.824 37.165C156.824 36.553 156.693 36.0317 156.433 35.601C156.183 35.159 155.855 34.8247 155.447 34.598C155.039 34.36 154.597 34.241 154.121 34.241C153.645 34.241 153.197 34.36 152.778 34.598C152.37 34.8247 152.035 35.159 151.775 35.601C151.525 36.0317 151.401 36.553 151.401 37.165C151.401 37.777 151.525 38.304 151.775 38.746C152.035 39.1767 152.375 39.511 152.795 39.749C153.214 39.9757 153.656 40.089 154.121 40.089ZM164.414 41.772C163.518 41.772 162.731 41.568 162.051 41.16C161.371 40.752 160.838 40.2023 160.453 39.511C160.067 38.8083 159.875 38.0263 159.875 37.165C159.875 36.3037 160.067 35.5273 160.453 34.836C160.838 34.1333 161.371 33.578 162.051 33.17C162.731 32.762 163.518 32.558 164.414 32.558C165.298 32.558 166.08 32.7677 166.76 33.187C167.44 33.595 167.972 34.1447 168.358 34.836C168.743 35.5273 168.936 36.3037 168.936 37.165C168.936 38.0263 168.743 38.8083 168.358 39.511C167.972 40.2023 167.44 40.752 166.76 41.16C166.08 41.568 165.298 41.772 164.414 41.772ZM164.414 40.089C164.89 40.089 165.332 39.9757 165.74 39.749C166.148 39.511 166.476 39.1767 166.726 38.746C166.986 38.304 167.117 37.777 167.117 37.165C167.117 36.553 166.986 36.0317 166.726 35.601C166.476 35.159 166.148 34.8247 165.74 34.598C165.332 34.36 164.89 34.241 164.414 34.241C163.938 34.241 163.49 34.36 163.071 34.598C162.663 34.8247 162.328 35.159 162.068 35.601C161.818 36.0317 161.694 36.553 161.694 37.165C161.694 37.777 161.818 38.304 162.068 38.746C162.328 39.1767 162.668 39.511 163.088 39.749C163.507 39.9757 163.949 40.089 164.414 40.089ZM174.537 45.444C173.777 45.444 173.12 45.3193 172.565 45.07C172.021 44.832 171.579 44.5203 171.239 44.135C170.899 43.761 170.655 43.3757 170.508 42.979L172.208 42.265C172.389 42.7183 172.678 43.0867 173.075 43.37C173.483 43.6647 173.97 43.812 174.537 43.812C175.341 43.812 175.97 43.574 176.424 43.098C176.877 42.622 177.104 41.9477 177.104 41.075V40.242H177.002C176.73 40.6387 176.356 40.9617 175.88 41.211C175.404 41.4603 174.854 41.585 174.231 41.585C173.494 41.585 172.814 41.398 172.191 41.024C171.579 40.65 171.086 40.1287 170.712 39.46C170.349 38.78 170.168 37.9867 170.168 37.08C170.168 36.162 170.349 35.3687 170.712 34.7C171.086 34.02 171.579 33.493 172.191 33.119C172.814 32.745 173.494 32.558 174.231 32.558C174.854 32.558 175.404 32.6827 175.88 32.932C176.356 33.17 176.73 33.4987 177.002 33.918H177.104V32.83H178.855V41.041C178.855 41.9817 178.668 42.7807 178.294 43.438C177.931 44.0953 177.427 44.594 176.781 44.934C176.135 45.274 175.387 45.444 174.537 45.444ZM174.554 39.919C175.007 39.919 175.426 39.8113 175.812 39.596C176.208 39.3693 176.52 39.0463 176.747 38.627C176.985 38.1963 177.104 37.6807 177.104 37.08C177.104 36.4453 176.985 35.9183 176.747 35.499C176.52 35.0797 176.208 34.7623 175.812 34.547C175.426 34.3317 175.007 34.224 174.554 34.224C174.1 34.224 173.675 34.3317 173.279 34.547C172.893 34.7623 172.582 35.0853 172.344 35.516C172.106 35.9353 171.987 36.4567 171.987 37.08C171.987 37.692 172.106 38.2133 172.344 38.644C172.582 39.0633 172.893 39.3807 173.279 39.596C173.675 39.8113 174.1 39.919 174.554 39.919ZM181.02 41.5V29.328H182.856V41.5H181.02ZM188.898 41.772C188.048 41.772 187.289 41.5737 186.62 41.177C185.952 40.7803 185.425 40.2363 185.039 39.545C184.665 38.8537 184.478 38.066 184.478 37.182C184.478 36.3547 184.66 35.5897 185.022 34.887C185.385 34.1843 185.889 33.6233 186.535 33.204C187.193 32.7733 187.946 32.558 188.796 32.558C189.692 32.558 190.451 32.7507 191.074 33.136C191.709 33.5213 192.191 34.0483 192.519 34.717C192.848 35.3857 193.012 36.1393 193.012 36.978C193.012 37.1027 193.007 37.216 192.995 37.318C192.995 37.42 192.99 37.4993 192.978 37.556H186.28C186.326 38.032 186.445 38.4457 186.637 38.797C186.887 39.239 187.215 39.5733 187.623 39.8C188.031 40.0267 188.473 40.14 188.949 40.14C189.527 40.14 190.009 40.0097 190.394 39.749C190.791 39.477 191.103 39.1427 191.329 38.746L192.842 39.477C192.468 40.157 191.958 40.7123 191.312 41.143C190.666 41.5623 189.862 41.772 188.898 41.772ZM186.382 36.179H191.193C191.182 35.9637 191.125 35.737 191.023 35.499C190.921 35.2497 190.774 35.023 190.581 34.819C190.389 34.615 190.145 34.4507 189.85 34.326C189.556 34.19 189.21 34.122 188.813 34.122C188.315 34.122 187.873 34.2523 187.487 34.513C187.102 34.7623 186.802 35.1137 186.586 35.567C186.496 35.7597 186.428 35.9637 186.382 36.179Z" fill="white"/>
</svg>
