<svg width="231" height="55" viewBox="0 0 231 55" fill="none" xmlns="http://www.w3.org/2000/svg">
<rect x="0.5" y="0.5" width="230" height="54" rx="27" fill="#1F1F1F"/>
<rect x="0.5" y="0.5" width="230" height="54" rx="27" stroke="#747775"/>
<path d="M57 23.791H21V18.1455C21 15.0809 23.6422 12.5001 26.7798 12.5001H51.2202C54.3578 12.5001 57 15.0809 57 18.1455V23.791Z" fill="#34A853"/>
<path d="M57 29H21V23C21 19.7429 23.6422 17 26.7798 17H51.2202C54.3578 17 57 19.7429 57 23V29Z" fill="#FBBC04"/>
<path d="M57 34H21V28C21 24.7429 23.6422 22 26.7798 22H51.2202C54.3578 22 57 24.7429 57 28V34Z" fill="#EA4335"/>
<path d="M21 25.2409L43.8493 30.4025C46.4795 31.0477 49.4384 30.4025 51.5753 28.7895L57 24.9183V37.0157C57 40.0804 54.3699 42.4999 51.2466 42.4999H26.7534C23.6301 42.4999 21 40.0804 21 37.0157V25.2409Z" fill="#4285F4"/>
<path d="M70.053 21.5V12.192H77.073V21.5H75.643V13.544H71.483V21.5H70.053ZM82.0669 21.708C81.3823 21.708 80.7799 21.552 80.2599 21.24C79.7399 20.928 79.3326 20.5077 79.0379 19.979C78.7433 19.4417 78.5959 18.8437 78.5959 18.185C78.5959 17.5263 78.7433 16.9327 79.0379 16.404C79.3326 15.8667 79.7399 15.442 80.2599 15.13C80.7799 14.818 81.3823 14.662 82.0669 14.662C82.7429 14.662 83.3409 14.8223 83.8609 15.143C84.3809 15.455 84.7883 15.8753 85.0829 16.404C85.3776 16.9327 85.5249 17.5263 85.5249 18.185C85.5249 18.8437 85.3776 19.4417 85.0829 19.979C84.7883 20.5077 84.3809 20.928 83.8609 21.24C83.3409 21.552 82.7429 21.708 82.0669 21.708ZM82.0669 20.421C82.4309 20.421 82.7689 20.3343 83.0809 20.161C83.3929 19.979 83.6443 19.7233 83.8349 19.394C84.0343 19.056 84.1339 18.653 84.1339 18.185C84.1339 17.717 84.0343 17.3183 83.8349 16.989C83.6443 16.651 83.3929 16.3953 83.0809 16.222C82.7689 16.04 82.4309 15.949 82.0669 15.949C81.7029 15.949 81.3606 16.04 81.0399 16.222C80.7279 16.3953 80.4723 16.651 80.2729 16.989C80.0823 17.3183 79.9869 17.717 79.9869 18.185C79.9869 18.653 80.0823 19.056 80.2729 19.394C80.4723 19.7233 80.7323 19.979 81.0529 20.161C81.3736 20.3343 81.7116 20.421 82.0669 20.421ZM89.886 21.708C89.2187 21.708 88.625 21.5563 88.105 21.253C87.5937 20.9497 87.1907 20.5337 86.896 20.005C86.61 19.4677 86.467 18.861 86.467 18.185C86.467 17.509 86.61 16.9067 86.896 16.378C87.1907 15.8493 87.5937 15.4333 88.105 15.13C88.625 14.818 89.2187 14.662 89.886 14.662C90.6227 14.662 91.2424 14.8267 91.745 15.156C92.2564 15.4853 92.6204 15.9317 92.837 16.495L91.563 17.015C91.407 16.6597 91.1817 16.3953 90.887 16.222C90.601 16.04 90.2587 15.949 89.86 15.949C89.496 15.949 89.1624 16.0443 88.859 16.235C88.5557 16.417 88.313 16.6727 88.131 17.002C87.949 17.3313 87.858 17.7257 87.858 18.185C87.858 18.6357 87.949 19.03 88.131 19.368C88.313 19.706 88.5557 19.966 88.859 20.148C89.1624 20.33 89.496 20.421 89.86 20.421C90.2847 20.421 90.6444 20.3257 90.939 20.135C91.2337 19.9443 91.4634 19.6757 91.628 19.329L92.876 19.875C92.6334 20.4037 92.2564 20.8413 91.745 21.188C91.2424 21.5347 90.6227 21.708 89.886 21.708ZM94.0797 21.5V14.87H95.7437L97.7847 18.926H97.8497L99.9037 14.87H101.529V21.5H100.19V18.276L100.255 17.002H100.177L98.2657 20.655H97.3427L95.4317 17.002H95.3537L95.4187 18.276V21.5H94.0797ZM106.226 21.708C105.541 21.708 104.939 21.552 104.419 21.24C103.899 20.928 103.492 20.5077 103.197 19.979C102.902 19.4417 102.755 18.8437 102.755 18.185C102.755 17.5263 102.902 16.9327 103.197 16.404C103.492 15.8667 103.899 15.442 104.419 15.13C104.939 14.818 105.541 14.662 106.226 14.662C106.902 14.662 107.5 14.8223 108.02 15.143C108.54 15.455 108.947 15.8753 109.242 16.404C109.537 16.9327 109.684 17.5263 109.684 18.185C109.684 18.8437 109.537 19.4417 109.242 19.979C108.947 20.5077 108.54 20.928 108.02 21.24C107.5 21.552 106.902 21.708 106.226 21.708ZM106.226 20.421C106.59 20.421 106.928 20.3343 107.24 20.161C107.552 19.979 107.803 19.7233 107.994 19.394C108.193 19.056 108.293 18.653 108.293 18.185C108.293 17.717 108.193 17.3183 107.994 16.989C107.803 16.651 107.552 16.3953 107.24 16.222C106.928 16.04 106.59 15.949 106.226 15.949C105.862 15.949 105.52 16.04 105.199 16.222C104.887 16.3953 104.631 16.651 104.432 16.989C104.241 17.3183 104.146 17.717 104.146 18.185C104.146 18.653 104.241 19.056 104.432 19.394C104.631 19.7233 104.891 19.979 105.212 20.161C105.533 20.3343 105.871 20.421 106.226 20.421ZM112.413 21.5V16.092H110.229V14.87H115.988V16.092H113.804V21.5H112.413ZM117.121 24.308V14.87H118.434V15.767H118.512C118.634 15.5763 118.794 15.3987 118.993 15.234C119.201 15.0607 119.444 14.922 119.721 14.818C119.999 14.714 120.306 14.662 120.644 14.662C121.251 14.662 121.793 14.8137 122.269 15.117C122.746 15.4203 123.123 15.8363 123.4 16.365C123.686 16.8937 123.829 17.5003 123.829 18.185C123.829 18.8697 123.686 19.4763 123.4 20.005C123.123 20.5337 122.746 20.9497 122.269 21.253C121.793 21.5563 121.251 21.708 120.644 21.708C120.142 21.708 119.704 21.5953 119.331 21.37C118.959 21.1447 118.686 20.8933 118.512 20.616H118.434L118.512 21.539V24.308H117.121ZM120.436 20.421C120.783 20.421 121.108 20.33 121.411 20.148C121.723 19.966 121.97 19.706 122.152 19.368C122.343 19.03 122.438 18.6357 122.438 18.185C122.438 17.7257 122.343 17.3313 122.152 17.002C121.97 16.664 121.723 16.404 121.411 16.222C121.108 16.04 120.783 15.949 120.436 15.949C120.09 15.949 119.765 16.04 119.461 16.222C119.158 16.404 118.911 16.664 118.72 17.002C118.53 17.3313 118.434 17.7257 118.434 18.185C118.434 18.6443 118.53 19.043 118.72 19.381C118.911 19.7103 119.158 19.966 119.461 20.148C119.765 20.33 120.09 20.421 120.436 20.421ZM128.123 21.708C127.473 21.708 126.893 21.5563 126.381 21.253C125.87 20.9497 125.467 20.5337 125.172 20.005C124.886 19.4763 124.743 18.874 124.743 18.198C124.743 17.5653 124.882 16.9803 125.159 16.443C125.437 15.9057 125.822 15.4767 126.316 15.156C126.819 14.8267 127.395 14.662 128.045 14.662C128.73 14.662 129.311 14.8093 129.787 15.104C130.273 15.3987 130.641 15.8017 130.892 16.313C131.144 16.8243 131.269 17.4007 131.269 18.042C131.269 18.1373 131.265 18.224 131.256 18.302C131.256 18.38 131.252 18.4407 131.243 18.484H126.121C126.156 18.848 126.247 19.1643 126.394 19.433C126.585 19.771 126.836 20.0267 127.148 20.2C127.46 20.3733 127.798 20.46 128.162 20.46C128.604 20.46 128.973 20.3603 129.267 20.161C129.571 19.953 129.809 19.6973 129.982 19.394L131.139 19.953C130.853 20.473 130.463 20.8977 129.969 21.227C129.475 21.5477 128.86 21.708 128.123 21.708ZM126.199 17.431H129.878C129.87 17.2663 129.826 17.093 129.748 16.911C129.67 16.7203 129.558 16.547 129.41 16.391C129.263 16.235 129.077 16.1093 128.851 16.014C128.626 15.91 128.362 15.858 128.058 15.858C127.677 15.858 127.339 15.9577 127.044 16.157C126.75 16.3477 126.52 16.6163 126.355 16.963C126.286 17.1103 126.234 17.2663 126.199 17.431ZM134.135 21.5V16.092H131.951V14.87H137.71V16.092H135.526V21.5H134.135ZM140.26 14.87V17.08H141.781C142.24 17.08 142.648 17.1753 143.003 17.366C143.358 17.5567 143.64 17.821 143.848 18.159C144.056 18.4883 144.16 18.8653 144.16 19.29C144.16 19.706 144.056 20.083 143.848 20.421C143.64 20.759 143.358 21.0233 143.003 21.214C142.648 21.4047 142.24 21.5 141.781 21.5H138.856V14.87H140.26ZM140.26 18.237V20.33H141.664C141.976 20.33 142.236 20.2303 142.444 20.031C142.652 19.8317 142.756 19.5847 142.756 19.29C142.756 18.9953 142.652 18.7483 142.444 18.549C142.236 18.341 141.976 18.237 141.664 18.237H140.26ZM148.365 21.5V14.87H151.654C152.044 14.87 152.391 14.948 152.694 15.104C153.006 15.2513 153.249 15.455 153.422 15.715C153.604 15.975 153.695 16.2653 153.695 16.586C153.695 16.9327 153.617 17.2317 153.461 17.483C153.314 17.7343 153.119 17.9207 152.876 18.042V18.12C153.205 18.25 153.465 18.445 153.656 18.705C153.855 18.965 153.955 19.264 153.955 19.602C153.955 19.992 153.851 20.33 153.643 20.616C153.444 20.902 153.184 21.123 152.863 21.279C152.542 21.4263 152.2 21.5 151.836 21.5H148.365ZM149.769 18.614V20.33H151.693C151.944 20.33 152.152 20.252 152.317 20.096C152.49 19.9313 152.577 19.7233 152.577 19.472C152.577 19.2293 152.49 19.0257 152.317 18.861C152.152 18.6963 151.944 18.614 151.693 18.614H149.769ZM149.769 16.014V17.574H151.485C151.719 17.574 151.914 17.5003 152.07 17.353C152.226 17.2057 152.304 17.0193 152.304 16.794C152.304 16.56 152.226 16.3737 152.07 16.235C151.914 16.0877 151.719 16.014 151.485 16.014H149.769Z" fill="white"/>
<path d="M76.14 41.772C75.2673 41.772 74.4457 41.6133 73.675 41.296C72.9043 40.9787 72.2243 40.5367 71.635 39.97C71.057 39.392 70.598 38.7177 70.258 37.947C69.9293 37.165 69.765 36.3207 69.765 35.414C69.765 34.5073 69.9293 33.6687 70.258 32.898C70.598 32.116 71.057 31.4417 71.635 30.875C72.2243 30.297 72.9043 29.8493 73.675 29.532C74.4457 29.2147 75.2673 29.056 76.14 29.056C77.0693 29.056 77.925 29.2203 78.707 29.549C79.5003 29.8777 80.1633 30.3367 80.696 30.926L79.404 32.201C79.1433 31.9063 78.843 31.657 78.503 31.453C78.1743 31.249 77.8117 31.096 77.415 30.994C77.0183 30.8807 76.5933 30.824 76.14 30.824C75.5393 30.824 74.967 30.9317 74.423 31.147C73.879 31.3623 73.3973 31.674 72.978 32.082C72.57 32.4787 72.247 32.9603 72.009 33.527C71.771 34.0823 71.652 34.7113 71.652 35.414C71.652 36.1167 71.771 36.7513 72.009 37.318C72.2583 37.8733 72.587 38.355 72.995 38.763C73.4143 39.1597 73.896 39.4657 74.44 39.681C74.984 39.8963 75.5563 40.004 76.157 40.004C76.7123 40.004 77.228 39.9247 77.704 39.766C78.1913 39.6073 78.6163 39.3807 78.979 39.086C79.3417 38.7913 79.6363 38.4343 79.863 38.015C80.0897 37.5843 80.2313 37.1027 80.288 36.57H76.123V34.921H82.039C82.0617 35.057 82.0843 35.2157 82.107 35.397C82.1297 35.567 82.141 35.7313 82.141 35.89V35.907C82.141 36.7797 81.988 37.5787 81.682 38.304C81.3873 39.0293 80.9737 39.6527 80.441 40.174C79.9083 40.684 79.2737 41.0807 78.537 41.364C77.8117 41.636 77.0127 41.772 76.14 41.772ZM87.6149 41.772C86.7195 41.772 85.9319 41.568 85.2519 41.16C84.5719 40.752 84.0392 40.2023 83.6539 39.511C83.2685 38.8083 83.0759 38.0263 83.0759 37.165C83.0759 36.3037 83.2685 35.5273 83.6539 34.836C84.0392 34.1333 84.5719 33.578 85.2519 33.17C85.9319 32.762 86.7195 32.558 87.6149 32.558C88.4989 32.558 89.2809 32.7677 89.9609 33.187C90.6409 33.595 91.1735 34.1447 91.5589 34.836C91.9442 35.5273 92.1369 36.3037 92.1369 37.165C92.1369 38.0263 91.9442 38.8083 91.5589 39.511C91.1735 40.2023 90.6409 40.752 89.9609 41.16C89.2809 41.568 88.4989 41.772 87.6149 41.772ZM87.6149 40.089C88.0909 40.089 88.5329 39.9757 88.9409 39.749C89.3489 39.511 89.6775 39.1767 89.9269 38.746C90.1875 38.304 90.3179 37.777 90.3179 37.165C90.3179 36.553 90.1875 36.0317 89.9269 35.601C89.6775 35.159 89.3489 34.8247 88.9409 34.598C88.5329 34.36 88.0909 34.241 87.6149 34.241C87.1389 34.241 86.6912 34.36 86.2719 34.598C85.8639 34.8247 85.5295 35.159 85.2689 35.601C85.0195 36.0317 84.8949 36.553 84.8949 37.165C84.8949 37.777 85.0195 38.304 85.2689 38.746C85.5295 39.1767 85.8695 39.511 86.2889 39.749C86.7082 39.9757 87.1502 40.089 87.6149 40.089ZM97.9078 41.772C97.0125 41.772 96.2248 41.568 95.5448 41.16C94.8648 40.752 94.3322 40.2023 93.9468 39.511C93.5615 38.8083 93.3688 38.0263 93.3688 37.165C93.3688 36.3037 93.5615 35.5273 93.9468 34.836C94.3322 34.1333 94.8648 33.578 95.5448 33.17C96.2248 32.762 97.0125 32.558 97.9078 32.558C98.7918 32.558 99.5738 32.7677 100.254 33.187C100.934 33.595 101.467 34.1447 101.852 34.836C102.237 35.5273 102.43 36.3037 102.43 37.165C102.43 38.0263 102.237 38.8083 101.852 39.511C101.467 40.2023 100.934 40.752 100.254 41.16C99.5738 41.568 98.7918 41.772 97.9078 41.772ZM97.9078 40.089C98.3838 40.089 98.8258 39.9757 99.2338 39.749C99.6418 39.511 99.9705 39.1767 100.22 38.746C100.481 38.304 100.611 37.777 100.611 37.165C100.611 36.553 100.481 36.0317 100.22 35.601C99.9705 35.159 99.6418 34.8247 99.2338 34.598C98.8258 34.36 98.3838 34.241 97.9078 34.241C97.4318 34.241 96.9842 34.36 96.5648 34.598C96.1568 34.8247 95.8225 35.159 95.5618 35.601C95.3125 36.0317 95.1878 36.553 95.1878 37.165C95.1878 37.777 95.3125 38.304 95.5618 38.746C95.8225 39.1767 96.1625 39.511 96.5818 39.749C97.0012 39.9757 97.4432 40.089 97.9078 40.089ZM108.031 45.444C107.271 45.444 106.614 45.3193 106.059 45.07C105.515 44.832 105.073 44.5203 104.733 44.135C104.393 43.761 104.149 43.3757 104.002 42.979L105.702 42.265C105.883 42.7183 106.172 43.0867 106.569 43.37C106.977 43.6647 107.464 43.812 108.031 43.812C108.835 43.812 109.464 43.574 109.918 43.098C110.371 42.622 110.598 41.9477 110.598 41.075V40.242H110.496C110.224 40.6387 109.85 40.9617 109.374 41.211C108.898 41.4603 108.348 41.585 107.725 41.585C106.988 41.585 106.308 41.398 105.685 41.024C105.073 40.65 104.58 40.1287 104.206 39.46C103.843 38.78 103.662 37.9867 103.662 37.08C103.662 36.162 103.843 35.3687 104.206 34.7C104.58 34.02 105.073 33.493 105.685 33.119C106.308 32.745 106.988 32.558 107.725 32.558C108.348 32.558 108.898 32.6827 109.374 32.932C109.85 33.17 110.224 33.4987 110.496 33.918H110.598V32.83H112.349V41.041C112.349 41.9817 112.162 42.7807 111.788 43.438C111.425 44.0953 110.921 44.594 110.275 44.934C109.629 45.274 108.881 45.444 108.031 45.444ZM108.048 39.919C108.501 39.919 108.92 39.8113 109.306 39.596C109.702 39.3693 110.014 39.0463 110.241 38.627C110.479 38.1963 110.598 37.6807 110.598 37.08C110.598 36.4453 110.479 35.9183 110.241 35.499C110.014 35.0797 109.702 34.7623 109.306 34.547C108.92 34.3317 108.501 34.224 108.048 34.224C107.594 34.224 107.169 34.3317 106.773 34.547C106.387 34.7623 106.076 35.0853 105.838 35.516C105.6 35.9353 105.481 36.4567 105.481 37.08C105.481 37.692 105.6 38.2133 105.838 38.644C106.076 39.0633 106.387 39.3807 106.773 39.596C107.169 39.8113 107.594 39.919 108.048 39.919ZM114.514 41.5V29.328H116.35V41.5H114.514ZM122.392 41.772C121.542 41.772 120.783 41.5737 120.114 41.177C119.446 40.7803 118.919 40.2363 118.533 39.545C118.159 38.8537 117.972 38.066 117.972 37.182C117.972 36.3547 118.154 35.5897 118.516 34.887C118.879 34.1843 119.383 33.6233 120.029 33.204C120.687 32.7733 121.44 32.558 122.29 32.558C123.186 32.558 123.945 32.7507 124.568 33.136C125.203 33.5213 125.685 34.0483 126.013 34.717C126.342 35.3857 126.506 36.1393 126.506 36.978C126.506 37.1027 126.501 37.216 126.489 37.318C126.489 37.42 126.484 37.4993 126.472 37.556H119.774C119.82 38.032 119.939 38.4457 120.131 38.797C120.381 39.239 120.709 39.5733 121.117 39.8C121.525 40.0267 121.967 40.14 122.443 40.14C123.021 40.14 123.503 40.0097 123.888 39.749C124.285 39.477 124.597 39.1427 124.823 38.746L126.336 39.477C125.962 40.157 125.452 40.7123 124.806 41.143C124.16 41.5623 123.356 41.772 122.392 41.772ZM119.876 36.179H124.687C124.676 35.9637 124.619 35.737 124.517 35.499C124.415 35.2497 124.268 35.023 124.075 34.819C123.883 34.615 123.639 34.4507 123.344 34.326C123.05 34.19 122.704 34.122 122.307 34.122C121.809 34.122 121.367 34.2523 120.981 34.513C120.596 34.7623 120.296 35.1137 120.08 35.567C119.99 35.7597 119.922 35.9637 119.876 36.179ZM132.483 41.5V29.328H134.353V35.227H134.455L139.3 29.328H141.646V29.43L136.512 35.516L141.918 41.398V41.5H139.47L134.455 35.924H134.353V41.5H132.483ZM146.584 41.772C145.688 41.772 144.901 41.568 144.221 41.16C143.541 40.752 143.008 40.2023 142.623 39.511C142.237 38.8083 142.045 38.0263 142.045 37.165C142.045 36.3037 142.237 35.5273 142.623 34.836C143.008 34.1333 143.541 33.578 144.221 33.17C144.901 32.762 145.688 32.558 146.584 32.558C147.468 32.558 148.25 32.7677 148.93 33.187C149.61 33.595 150.142 34.1447 150.528 34.836C150.913 35.5273 151.106 36.3037 151.106 37.165C151.106 38.0263 150.913 38.8083 150.528 39.511C150.142 40.2023 149.61 40.752 148.93 41.16C148.25 41.568 147.468 41.772 146.584 41.772ZM146.584 40.089C147.06 40.089 147.502 39.9757 147.91 39.749C148.318 39.511 148.646 39.1767 148.896 38.746C149.156 38.304 149.287 37.777 149.287 37.165C149.287 36.553 149.156 36.0317 148.896 35.601C148.646 35.159 148.318 34.8247 147.91 34.598C147.502 34.36 147.06 34.241 146.584 34.241C146.108 34.241 145.66 34.36 145.241 34.598C144.833 34.8247 144.498 35.159 144.238 35.601C143.988 36.0317 143.864 36.553 143.864 37.165C143.864 37.777 143.988 38.304 144.238 38.746C144.498 39.1767 144.838 39.511 145.258 39.749C145.677 39.9757 146.119 40.089 146.584 40.089ZM152.631 41.5V32.83H154.45V39.902H157.306V32.83H159.125V39.902H161.981V32.83H163.8V41.5H152.631ZM169.84 41.772C168.99 41.772 168.23 41.5737 167.562 41.177C166.893 40.7803 166.366 40.2363 165.981 39.545C165.607 38.8537 165.42 38.066 165.42 37.182C165.42 36.3547 165.601 35.5897 165.964 34.887C166.326 34.1843 166.831 33.6233 167.477 33.204C168.134 32.7733 168.888 32.558 169.738 32.558C170.633 32.558 171.392 32.7507 172.016 33.136C172.65 33.5213 173.132 34.0483 173.461 34.717C173.789 35.3857 173.954 36.1393 173.954 36.978C173.954 37.1027 173.948 37.216 173.937 37.318C173.937 37.42 173.931 37.4993 173.92 37.556H167.222C167.267 38.032 167.386 38.4457 167.579 38.797C167.828 39.239 168.157 39.5733 168.565 39.8C168.973 40.0267 169.415 40.14 169.891 40.14C170.469 40.14 170.95 40.0097 171.336 39.749C171.732 39.477 172.044 39.1427 172.271 38.746L173.784 39.477C173.41 40.157 172.9 40.7123 172.254 41.143C171.608 41.5623 170.803 41.772 169.84 41.772ZM167.324 36.179H172.135C172.123 35.9637 172.067 35.737 171.965 35.499C171.863 35.2497 171.715 35.023 171.523 34.819C171.33 34.615 171.086 34.4507 170.792 34.326C170.497 34.19 170.151 34.122 169.755 34.122C169.256 34.122 168.814 34.2523 168.429 34.513C168.043 34.7623 167.743 35.1137 167.528 35.567C167.437 35.7597 167.369 35.9637 167.324 36.179ZM175.627 41.636C175.502 41.636 175.372 41.6247 175.236 41.602C175.111 41.5907 174.992 41.5737 174.879 41.551V39.851C174.958 39.885 175.049 39.9133 175.151 39.936C175.253 39.9587 175.338 39.97 175.406 39.97C175.791 39.97 176.063 39.8227 176.222 39.528C176.381 39.222 176.477 38.8367 176.511 38.372C176.545 37.9073 176.562 37.4257 176.562 36.927V32.83H183.192V41.5H181.373V34.428H178.296V37.216C178.296 37.794 178.256 38.3493 178.177 38.882C178.098 39.4147 177.962 39.8907 177.769 40.31C177.588 40.718 177.321 41.041 176.97 41.279C176.63 41.517 176.182 41.636 175.627 41.636ZM187.188 32.83V35.72H189.177C189.778 35.72 190.311 35.8447 190.775 36.094C191.24 36.3433 191.608 36.689 191.88 37.131C192.152 37.5617 192.288 38.0547 192.288 38.61C192.288 39.154 192.152 39.647 191.88 40.089C191.608 40.531 191.24 40.8767 190.775 41.126C190.311 41.3753 189.778 41.5 189.177 41.5H185.352V32.83H187.188ZM187.188 37.233V39.97H189.024C189.432 39.97 189.772 39.8397 190.044 39.579C190.316 39.3183 190.452 38.9953 190.452 38.61C190.452 38.2247 190.316 37.9017 190.044 37.641C189.772 37.369 189.432 37.233 189.024 37.233H187.188ZM193.819 41.5V32.83H195.655V36.672H195.757L199.157 32.83H201.265V32.932L197.644 36.893L201.401 41.398V41.5H199.225L195.757 37.233H195.655V41.5H193.819ZM206.33 41.772C205.48 41.772 204.721 41.5737 204.052 41.177C203.383 40.7803 202.856 40.2363 202.471 39.545C202.097 38.8537 201.91 38.066 201.91 37.182C201.91 36.3547 202.091 35.5897 202.454 34.887C202.817 34.1843 203.321 33.6233 203.967 33.204C204.624 32.7733 205.378 32.558 206.228 32.558C207.123 32.558 207.883 32.7507 208.506 33.136C209.141 33.5213 209.622 34.0483 209.951 34.717C210.28 35.3857 210.444 36.1393 210.444 36.978C210.444 37.1027 210.438 37.216 210.427 37.318C210.427 37.42 210.421 37.4993 210.41 37.556H203.712C203.757 38.032 203.876 38.4457 204.069 38.797C204.318 39.239 204.647 39.5733 205.055 39.8C205.463 40.0267 205.905 40.14 206.381 40.14C206.959 40.14 207.441 40.0097 207.826 39.749C208.223 39.477 208.534 39.1427 208.761 38.746L210.274 39.477C209.9 40.157 209.39 40.7123 208.744 41.143C208.098 41.5623 207.293 41.772 206.33 41.772ZM203.814 36.179H208.625C208.614 35.9637 208.557 35.737 208.455 35.499C208.353 35.2497 208.206 35.023 208.013 34.819C207.82 34.615 207.577 34.4507 207.282 34.326C206.987 34.19 206.642 34.122 206.245 34.122C205.746 34.122 205.304 34.2523 204.919 34.513C204.534 34.7623 204.233 35.1137 204.018 35.567C203.927 35.7597 203.859 35.9637 203.814 36.179Z" fill="white"/>
</svg>
