<svg width="189" height="55" viewBox="0 0 189 55" fill="none" xmlns="http://www.w3.org/2000/svg">
<rect x="0.5" y="0.5" width="188" height="54" rx="27" fill="#1F1F1F"/>
<rect x="0.5" y="0.5" width="188" height="54" rx="27" stroke="#747775"/>
<path d="M57 23.791H21V18.1455C21 15.0809 23.6422 12.5001 26.7798 12.5001H51.2202C54.3578 12.5001 57 15.0809 57 18.1455V23.791Z" fill="#34A853"/>
<path d="M57 29H21V23C21 19.7429 23.6422 17 26.7798 17H51.2202C54.3578 17 57 19.7429 57 23V29Z" fill="#FBBC04"/>
<path d="M57 34H21V28C21 24.7429 23.6422 22 26.7798 22H51.2202C54.3578 22 57 24.7429 57 28V34Z" fill="#EA4335"/>
<path d="M21 25.2409L43.8493 30.4025C46.4795 31.0477 49.4384 30.4025 51.5753 28.7895L57 24.9183V37.0157C57 40.0804 54.3699 42.4999 51.2466 42.4999H26.7534C23.6301 42.4999 21 40.0804 21 37.0157V25.2409Z" fill="#4285F4"/>
<path d="M74.46 21.708C73.7927 21.708 73.1643 21.5867 72.575 21.344C71.9857 21.1013 71.4657 20.7633 71.015 20.33C70.573 19.888 70.222 19.3723 69.962 18.783C69.7107 18.185 69.585 17.5393 69.585 16.846C69.585 16.1527 69.7107 15.5113 69.962 14.922C70.222 14.324 70.573 13.8083 71.015 13.375C71.4657 12.933 71.9857 12.5907 72.575 12.348C73.1643 12.1053 73.7927 11.984 74.46 11.984C75.1707 11.984 75.825 12.1097 76.423 12.361C77.0297 12.6123 77.5367 12.9633 77.944 13.414L76.956 14.389C76.7567 14.1637 76.527 13.973 76.267 13.817C76.0157 13.661 75.7383 13.544 75.435 13.466C75.1317 13.3793 74.8067 13.336 74.46 13.336C74.0007 13.336 73.563 13.4183 73.147 13.583C72.731 13.7477 72.3627 13.986 72.042 14.298C71.73 14.6013 71.483 14.9697 71.301 15.403C71.119 15.8277 71.028 16.3087 71.028 16.846C71.028 17.3833 71.119 17.8687 71.301 18.302C71.4917 18.7267 71.743 19.095 72.055 19.407C72.3757 19.7103 72.744 19.9443 73.16 20.109C73.576 20.2737 74.0137 20.356 74.473 20.356C74.8977 20.356 75.292 20.2953 75.656 20.174C76.0287 20.0527 76.3537 19.8793 76.631 19.654C76.9083 19.4287 77.1337 19.1557 77.307 18.835C77.4803 18.5057 77.5887 18.1373 77.632 17.73H74.447V16.469H78.971C78.9883 16.573 79.0057 16.6943 79.023 16.833C79.0403 16.963 79.049 17.0887 79.049 17.21V17.223C79.049 17.8903 78.932 18.5013 78.698 19.056C78.4727 19.6107 78.1563 20.0873 77.749 20.486C77.3417 20.876 76.8563 21.1793 76.293 21.396C75.7383 21.604 75.1273 21.708 74.46 21.708ZM83.2349 21.708C82.5502 21.708 81.9479 21.552 81.4279 21.24C80.9079 20.928 80.5006 20.5077 80.2059 19.979C79.9112 19.4417 79.7639 18.8437 79.7639 18.185C79.7639 17.5263 79.9112 16.9327 80.2059 16.404C80.5006 15.8667 80.9079 15.442 81.4279 15.13C81.9479 14.818 82.5502 14.662 83.2349 14.662C83.9109 14.662 84.5089 14.8223 85.0289 15.143C85.5489 15.455 85.9562 15.8753 86.2509 16.404C86.5456 16.9327 86.6929 17.5263 86.6929 18.185C86.6929 18.8437 86.5456 19.4417 86.2509 19.979C85.9562 20.5077 85.5489 20.928 85.0289 21.24C84.5089 21.552 83.9109 21.708 83.2349 21.708ZM83.2349 20.421C83.5989 20.421 83.9369 20.3343 84.2489 20.161C84.5609 19.979 84.8122 19.7233 85.0029 19.394C85.2022 19.056 85.3019 18.653 85.3019 18.185C85.3019 17.717 85.2022 17.3183 85.0029 16.989C84.8122 16.651 84.5609 16.3953 84.2489 16.222C83.9369 16.04 83.5989 15.949 83.2349 15.949C82.8709 15.949 82.5286 16.04 82.2079 16.222C81.8959 16.3953 81.6402 16.651 81.4409 16.989C81.2502 17.3183 81.1549 17.717 81.1549 18.185C81.1549 18.653 81.2502 19.056 81.4409 19.394C81.6402 19.7233 81.9002 19.979 82.2209 20.161C82.5416 20.3343 82.8796 20.421 83.2349 20.421ZM91.106 21.708C90.4213 21.708 89.819 21.552 89.299 21.24C88.779 20.928 88.3717 20.5077 88.077 19.979C87.7823 19.4417 87.635 18.8437 87.635 18.185C87.635 17.5263 87.7823 16.9327 88.077 16.404C88.3717 15.8667 88.779 15.442 89.299 15.13C89.819 14.818 90.4213 14.662 91.106 14.662C91.782 14.662 92.38 14.8223 92.9 15.143C93.42 15.455 93.8273 15.8753 94.122 16.404C94.4167 16.9327 94.564 17.5263 94.564 18.185C94.564 18.8437 94.4167 19.4417 94.122 19.979C93.8273 20.5077 93.42 20.928 92.9 21.24C92.38 21.552 91.782 21.708 91.106 21.708ZM91.106 20.421C91.47 20.421 91.808 20.3343 92.12 20.161C92.432 19.979 92.6833 19.7233 92.874 19.394C93.0733 19.056 93.173 18.653 93.173 18.185C93.173 17.717 93.0733 17.3183 92.874 16.989C92.6833 16.651 92.432 16.3953 92.12 16.222C91.808 16.04 91.47 15.949 91.106 15.949C90.742 15.949 90.3997 16.04 90.079 16.222C89.767 16.3953 89.5113 16.651 89.312 16.989C89.1213 17.3183 89.026 17.717 89.026 18.185C89.026 18.653 89.1213 19.056 89.312 19.394C89.5113 19.7233 89.7713 19.979 90.092 20.161C90.4127 20.3343 90.7507 20.421 91.106 20.421ZM98.8471 24.516C98.2664 24.516 97.7638 24.4207 97.3391 24.23C96.9231 24.048 96.5851 23.8097 96.3251 23.515C96.0651 23.229 95.8788 22.9343 95.7661 22.631L97.0661 22.085C97.2048 22.4317 97.4258 22.7133 97.7291 22.93C98.0411 23.1553 98.4138 23.268 98.8471 23.268C99.4624 23.268 99.9434 23.086 100.29 22.722C100.637 22.358 100.81 21.8423 100.81 21.175V20.538H100.732C100.524 20.8413 100.238 21.0883 99.8741 21.279C99.5101 21.4697 99.0898 21.565 98.6131 21.565C98.0498 21.565 97.5298 21.422 97.0531 21.136C96.5851 20.85 96.2081 20.4513 95.9221 19.94C95.6448 19.42 95.5061 18.8133 95.5061 18.12C95.5061 17.418 95.6448 16.8113 95.9221 16.3C96.2081 15.78 96.5851 15.377 97.0531 15.091C97.5298 14.805 98.0498 14.662 98.6131 14.662C99.0898 14.662 99.5101 14.7573 99.8741 14.948C100.238 15.13 100.524 15.3813 100.732 15.702H100.81V14.87H102.149V21.149C102.149 21.8683 102.006 22.4793 101.72 22.982C101.443 23.4847 101.057 23.866 100.563 24.126C100.069 24.386 99.4971 24.516 98.8471 24.516ZM98.8601 20.291C99.2068 20.291 99.5274 20.2087 99.8221 20.044C100.125 19.8707 100.364 19.6237 100.537 19.303C100.719 18.9737 100.81 18.5793 100.81 18.12C100.81 17.6347 100.719 17.2317 100.537 16.911C100.364 16.5903 100.125 16.3477 99.8221 16.183C99.5274 16.0183 99.2068 15.936 98.8601 15.936C98.5134 15.936 98.1884 16.0183 97.8851 16.183C97.5904 16.3477 97.3521 16.5947 97.1701 16.924C96.9881 17.2447 96.8971 17.6433 96.8971 18.12C96.8971 18.588 96.9881 18.9867 97.1701 19.316C97.3521 19.6367 97.5904 19.8793 97.8851 20.044C98.1884 20.2087 98.5134 20.291 98.8601 20.291ZM103.805 21.5V12.192H105.209V21.5H103.805ZM109.829 21.708C109.179 21.708 108.599 21.5563 108.087 21.253C107.576 20.9497 107.173 20.5337 106.878 20.005C106.592 19.4763 106.449 18.874 106.449 18.198C106.449 17.5653 106.588 16.9803 106.865 16.443C107.143 15.9057 107.528 15.4767 108.022 15.156C108.525 14.8267 109.101 14.662 109.751 14.662C110.436 14.662 111.017 14.8093 111.493 15.104C111.979 15.3987 112.347 15.8017 112.598 16.313C112.85 16.8243 112.975 17.4007 112.975 18.042C112.975 18.1373 112.971 18.224 112.962 18.302C112.962 18.38 112.958 18.4407 112.949 18.484H107.827C107.862 18.848 107.953 19.1643 108.1 19.433C108.291 19.771 108.542 20.0267 108.854 20.2C109.166 20.3733 109.504 20.46 109.868 20.46C110.31 20.46 110.679 20.3603 110.973 20.161C111.277 19.953 111.515 19.6973 111.688 19.394L112.845 19.953C112.559 20.473 112.169 20.8977 111.675 21.227C111.181 21.5477 110.566 21.708 109.829 21.708ZM107.905 17.431H111.584C111.576 17.2663 111.532 17.093 111.454 16.911C111.376 16.7203 111.264 16.547 111.116 16.391C110.969 16.235 110.783 16.1093 110.557 16.014C110.332 15.91 110.068 15.858 109.764 15.858C109.383 15.858 109.045 15.9577 108.75 16.157C108.456 16.3477 108.226 16.6163 108.061 16.963C107.992 17.1103 107.94 17.2663 107.905 17.431ZM118.69 21.5L116.194 12.192H117.78L119.262 18.237L119.418 19.043H119.496L119.691 18.237L121.563 12.192H122.993L124.787 18.237L124.982 19.03H125.06L125.216 18.237L126.698 12.192H128.271L125.814 21.5H124.306L122.525 15.325L122.317 14.454H122.239L122.018 15.325L120.159 21.5H118.69ZM130.881 21.708C130.405 21.708 129.98 21.6127 129.607 21.422C129.243 21.2313 128.953 20.9713 128.736 20.642C128.528 20.304 128.424 19.9183 128.424 19.485C128.424 19.0083 128.546 18.6053 128.788 18.276C129.04 17.9467 129.373 17.6953 129.789 17.522C130.205 17.3487 130.665 17.262 131.167 17.262C131.445 17.262 131.7 17.2837 131.934 17.327C132.177 17.3617 132.385 17.405 132.558 17.457C132.74 17.509 132.883 17.5653 132.987 17.626V17.275C132.987 16.8417 132.831 16.495 132.519 16.235C132.207 15.975 131.804 15.845 131.31 15.845C130.972 15.845 130.652 15.923 130.348 16.079C130.045 16.2263 129.802 16.43 129.62 16.69L128.658 15.949C128.849 15.6803 129.079 15.4507 129.347 15.26C129.625 15.0693 129.932 14.922 130.27 14.818C130.617 14.714 130.977 14.662 131.349 14.662C132.311 14.662 133.052 14.9003 133.572 15.377C134.092 15.845 134.352 16.5037 134.352 17.353V21.5H132.987V20.681H132.909C132.797 20.8543 132.641 21.019 132.441 21.175C132.251 21.331 132.021 21.4567 131.752 21.552C131.492 21.656 131.202 21.708 130.881 21.708ZM131.128 20.564C131.492 20.564 131.813 20.4773 132.09 20.304C132.376 20.1307 132.597 19.9053 132.753 19.628C132.909 19.342 132.987 19.0343 132.987 18.705C132.797 18.5923 132.563 18.5013 132.285 18.432C132.017 18.354 131.731 18.315 131.427 18.315C130.855 18.315 130.448 18.4277 130.205 18.653C129.963 18.8783 129.841 19.16 129.841 19.498C129.841 19.81 129.958 20.0657 130.192 20.265C130.426 20.4643 130.738 20.564 131.128 20.564ZM135.911 21.5V12.192H137.315V21.5H135.911ZM138.983 21.5V12.192H140.387V21.5H138.983ZM145.008 21.708C144.358 21.708 143.777 21.5563 143.266 21.253C142.755 20.9497 142.352 20.5337 142.057 20.005C141.771 19.4763 141.628 18.874 141.628 18.198C141.628 17.5653 141.767 16.9803 142.044 16.443C142.321 15.9057 142.707 15.4767 143.201 15.156C143.704 14.8267 144.28 14.662 144.93 14.662C145.615 14.662 146.195 14.8093 146.672 15.104C147.157 15.3987 147.526 15.8017 147.777 16.313C148.028 16.8243 148.154 17.4007 148.154 18.042C148.154 18.1373 148.15 18.224 148.141 18.302C148.141 18.38 148.137 18.4407 148.128 18.484H143.006C143.041 18.848 143.132 19.1643 143.279 19.433C143.47 19.771 143.721 20.0267 144.033 20.2C144.345 20.3733 144.683 20.46 145.047 20.46C145.489 20.46 145.857 20.3603 146.152 20.161C146.455 19.953 146.694 19.6973 146.867 19.394L148.024 19.953C147.738 20.473 147.348 20.8977 146.854 21.227C146.36 21.5477 145.745 21.708 145.008 21.708ZM143.084 17.431H146.763C146.754 17.2663 146.711 17.093 146.633 16.911C146.555 16.7203 146.442 16.547 146.295 16.391C146.148 16.235 145.961 16.1093 145.736 16.014C145.511 15.91 145.246 15.858 144.943 15.858C144.562 15.858 144.224 15.9577 143.929 16.157C143.634 16.3477 143.405 16.6163 143.24 16.963C143.171 17.1103 143.119 17.2663 143.084 17.431ZM148.811 14.87H149.968V12.998H151.372V14.87H152.997V16.092H151.372V19.277C151.372 19.6063 151.437 19.8577 151.567 20.031C151.706 20.2043 151.936 20.291 152.256 20.291C152.412 20.291 152.551 20.2693 152.672 20.226C152.794 20.174 152.915 20.1133 153.036 20.044V21.409C152.889 21.4697 152.733 21.5173 152.568 21.552C152.404 21.5867 152.209 21.604 151.983 21.604C151.368 21.604 150.878 21.4263 150.514 21.071C150.15 20.707 149.968 20.2087 149.968 19.576V16.092H148.811V14.87Z" fill="white"/>
<path d="M75.443 42.687C74.6497 42.687 73.93 42.568 73.284 42.33C72.6493 42.092 72.1393 41.718 71.754 41.208C71.38 40.6867 71.193 40.0123 71.193 39.185V39.134L70.615 40.12L69.357 39.406C70.003 38.5107 70.632 37.6777 71.244 36.907C71.856 36.1363 72.468 35.4507 73.08 34.85C72.9893 34.51 72.8477 34.238 72.655 34.034C72.4737 33.8187 72.23 33.711 71.924 33.711C71.278 33.711 70.955 34.0623 70.955 34.765C70.955 34.9237 70.972 35.0767 71.006 35.224C71.04 35.3713 71.0797 35.5187 71.125 35.666L69.731 35.938C69.663 35.7113 69.6063 35.4847 69.561 35.258C69.527 35.0313 69.51 34.8103 69.51 34.595C69.51 33.9037 69.7253 33.371 70.156 32.997C70.5867 32.623 71.1647 32.436 71.89 32.436C72.4793 32.436 72.9553 32.5777 73.318 32.861C73.6807 33.1443 73.9583 33.4957 74.151 33.915C74.8877 33.3257 75.664 32.878 76.48 32.572C77.296 32.2547 78.1743 32.096 79.115 32.096C80.3277 32.096 81.3533 32.3283 82.192 32.793C83.0307 33.2577 83.6597 33.9093 84.079 34.748C84.5097 35.5753 84.725 36.5387 84.725 37.638C84.725 38.7033 84.5323 39.6043 84.147 40.341C83.773 41.0663 83.2573 41.616 82.6 41.99C81.9427 42.364 81.2117 42.551 80.407 42.551C80.3503 42.551 80.2937 42.551 80.237 42.551C79.7723 42.8797 79.54 43.2877 79.54 43.775C79.54 44.1717 79.676 44.4777 79.948 44.693C80.22 44.9197 80.6563 45.033 81.257 45.033C81.801 45.033 82.2147 44.9537 82.498 44.795C82.7927 44.6363 82.9967 44.4153 83.11 44.132C83.2233 43.86 83.28 43.5427 83.28 43.18C83.28 42.9873 83.263 42.789 83.229 42.585L84.623 42.5C84.6457 42.636 84.6627 42.7663 84.674 42.891C84.6853 43.0157 84.691 43.1403 84.691 43.265C84.691 43.843 84.5777 44.3643 84.351 44.829C84.1357 45.305 83.7787 45.679 83.28 45.951C82.7813 46.2343 82.107 46.376 81.257 46.376C80.4523 46.376 79.8233 46.2513 79.37 46.002C78.9167 45.764 78.5937 45.4523 78.401 45.067C78.2197 44.693 78.129 44.3077 78.129 43.911C78.129 43.3103 78.2877 42.7947 78.605 42.364C78.9223 41.9333 79.353 41.5367 79.897 41.174C79.9537 41.174 80.0273 41.1797 80.118 41.191C80.2087 41.191 80.2823 41.191 80.339 41.191C81.0303 41.1797 81.5913 41.0153 82.022 40.698C82.4527 40.3807 82.7643 39.9557 82.957 39.423C83.161 38.879 83.263 38.2727 83.263 37.604C83.263 36.2667 82.8777 35.258 82.107 34.578C81.3477 33.8867 80.3277 33.541 79.047 33.541C78.163 33.541 77.364 33.6827 76.65 33.966C75.936 34.2493 75.2843 34.6177 74.695 35.071C74.899 35.0257 75.1257 34.986 75.375 34.952C75.6243 34.9067 75.8793 34.884 76.14 34.884C77.466 34.884 78.4633 35.2183 79.132 35.887C79.812 36.5557 80.152 37.4623 80.152 38.607C80.152 39.0943 80.084 39.5817 79.948 40.069C79.812 40.545 79.574 40.9813 79.234 41.378C78.894 41.7747 78.4123 42.092 77.789 42.33C77.177 42.568 76.395 42.687 75.443 42.687ZM72.485 38.947C72.485 39.7177 72.7457 40.2843 73.267 40.647C73.7997 40.9983 74.5363 41.174 75.477 41.174C76.633 41.174 77.4603 40.9417 77.959 40.477C78.469 40.0123 78.724 39.3833 78.724 38.59C78.724 37.7513 78.4577 37.1393 77.925 36.754C77.3923 36.3687 76.6727 36.176 75.766 36.176C75.2787 36.176 74.8367 36.2043 74.44 36.261C74.0547 36.3177 73.6637 36.4197 73.267 36.567C73.0403 36.8277 72.8137 37.094 72.587 37.366C72.3717 37.6267 72.162 37.893 71.958 38.165L72.57 38.199C72.5133 38.4257 72.485 38.675 72.485 38.947ZM92.1533 46.189C90.9973 46.189 90.017 46.0417 89.2123 45.747C88.4077 45.4523 87.7503 45.0443 87.2403 44.523C86.7417 44.013 86.3733 43.4237 86.1353 42.755C85.9087 42.0863 85.7953 41.378 85.7953 40.63C85.7953 38.6693 86.5603 37.179 88.0903 36.159C88.079 35.9777 88.0733 35.7793 88.0733 35.564C88.0733 34.4987 88.334 33.6543 88.8553 33.031C89.388 32.4077 90.0907 32.096 90.9633 32.096C91.4507 32.096 91.836 32.1923 92.1193 32.385C92.414 32.5663 92.6407 32.7533 92.7993 32.946C93.026 32.6967 93.3037 32.4927 93.6323 32.334C93.961 32.1753 94.335 32.096 94.7543 32.096C95.661 32.096 96.3637 32.3793 96.8623 32.946C97.3723 33.5127 97.6273 34.3173 97.6273 35.36V36.04H95.3323C93.8817 36.04 92.6973 36.1023 91.7793 36.227C90.8727 36.3517 90.1247 36.5613 89.5353 36.856C89.7053 37.774 90.0737 38.454 90.6403 38.896C91.2183 39.338 91.9663 39.559 92.8843 39.559C93.9043 39.559 94.692 39.3777 95.2473 39.015C95.8027 38.6523 96.12 38.0573 96.1993 37.23L97.5933 37.366C97.48 38.488 97.0493 39.3663 96.3013 40.001C95.5647 40.6357 94.454 40.953 92.9693 40.953C92.0513 40.953 91.275 40.817 90.6403 40.545C90.017 40.2617 89.5127 39.8763 89.1273 39.389C88.7533 38.9017 88.4813 38.3407 88.3113 37.706C87.9713 38.046 87.722 38.454 87.5633 38.93C87.4047 39.406 87.3253 39.9613 87.3253 40.596C87.3253 41.8653 87.7333 42.874 88.5493 43.622C89.3653 44.3813 90.578 44.761 92.1873 44.761C93.638 44.761 94.7657 44.4833 95.5703 43.928C96.375 43.384 96.7773 42.6133 96.7773 41.616C96.7773 41.5707 96.7773 41.5083 96.7773 41.429C96.7773 41.3497 96.7717 41.2703 96.7603 41.191L98.1713 41.123C98.194 41.2363 98.2053 41.3383 98.2053 41.429C98.2167 41.5083 98.2223 41.6103 98.2223 41.735C98.2223 42.721 97.9673 43.5427 97.4573 44.2C96.9473 44.8573 96.2333 45.3503 95.3153 45.679C94.4087 46.019 93.3547 46.189 92.1533 46.189ZM90.9803 33.371C90.0057 33.371 89.49 34.0737 89.4333 35.479C90.0567 35.2297 90.782 35.0483 91.6093 34.935C92.4367 34.8217 93.4227 34.765 94.5673 34.765H96.2333C96.2107 34.3117 96.0633 33.966 95.7913 33.728C95.5307 33.49 95.1793 33.371 94.7373 33.371C93.9893 33.371 93.5643 33.7167 93.4623 34.408H92.1193C92.0967 34.136 91.9947 33.898 91.8133 33.694C91.6433 33.4787 91.3657 33.371 90.9803 33.371ZM116.726 42.687C115.899 42.687 115.287 42.4717 114.89 42.041C114.494 41.599 114.295 41.072 114.295 40.46C114.295 40.1313 114.341 39.8197 114.431 39.525C114.522 39.219 114.641 38.8903 114.788 38.539C114.913 38.233 115.021 37.9327 115.111 37.638C115.202 37.3433 115.247 37.0203 115.247 36.669C115.247 35.989 115.021 35.4507 114.567 35.054C114.114 34.6573 113.468 34.459 112.629 34.459C111.507 34.459 110.612 34.816 109.943 35.53C109.286 36.2327 108.957 37.1847 108.957 38.386C108.957 38.59 108.969 38.794 108.991 38.998C109.014 39.1907 109.048 39.3833 109.093 39.576C109.399 39.2473 109.756 38.9753 110.164 38.76C110.572 38.5333 111.037 38.42 111.558 38.42C112.329 38.42 112.896 38.6297 113.258 39.049C113.621 39.4683 113.802 39.95 113.802 40.494C113.802 41.1627 113.593 41.6953 113.173 42.092C112.765 42.4887 112.131 42.687 111.269 42.687C110.499 42.687 109.83 42.5 109.263 42.126C108.708 41.7407 108.283 41.2193 107.988 40.562C107.694 39.8933 107.546 39.1397 107.546 38.301C107.546 37.2697 107.75 36.3573 108.158 35.564C108.578 34.7707 109.173 34.1473 109.943 33.694C110.725 33.2293 111.66 32.997 112.748 32.997C113.598 32.997 114.324 33.1443 114.924 33.439C115.525 33.7337 115.984 34.1417 116.301 34.663C116.619 35.173 116.777 35.7567 116.777 36.414C116.777 36.8447 116.721 37.247 116.607 37.621C116.494 37.995 116.358 38.3803 116.199 38.777C116.075 39.1057 115.973 39.3777 115.893 39.593C115.825 39.8083 115.791 40.0237 115.791 40.239C115.791 40.579 115.888 40.8283 116.08 40.987C116.284 41.1457 116.545 41.225 116.862 41.225C117.395 41.225 117.882 41.021 118.324 40.613C118.778 40.1937 119.135 39.6043 119.395 38.845C119.656 38.0743 119.786 37.1563 119.786 36.091C119.786 34.8217 119.571 33.7053 119.14 32.742C118.71 31.7787 118.052 31.025 117.168 30.481C116.284 29.937 115.157 29.665 113.785 29.665C112.799 29.665 111.87 29.7783 110.997 30.005C110.125 30.2203 109.275 30.5603 108.447 31.025L107.801 29.75C108.708 29.274 109.666 28.9113 110.674 28.662C111.683 28.4127 112.737 28.288 113.836 28.288C115.502 28.288 116.885 28.611 117.984 29.257C119.084 29.903 119.905 30.8097 120.449 31.977C120.993 33.133 121.265 34.4817 121.265 36.023C121.265 37.3263 121.09 38.4767 120.738 39.474C120.398 40.4713 119.888 41.259 119.208 41.837C118.54 42.4037 117.712 42.687 116.726 42.687ZM111.405 39.678C110.771 39.678 110.17 40.0067 109.603 40.664C109.989 41.1513 110.533 41.395 111.235 41.395C111.643 41.395 111.938 41.3213 112.119 41.174C112.301 41.0153 112.391 40.8 112.391 40.528C112.391 40.3013 112.306 40.103 112.136 39.933C111.978 39.763 111.734 39.678 111.405 39.678ZM129.627 46.087C127.973 46.087 126.624 45.798 125.581 45.22C124.539 44.642 123.768 43.843 123.269 42.823C122.771 41.8143 122.521 40.647 122.521 39.321C122.521 37.9043 122.822 36.652 123.422 35.564C124.034 34.476 124.918 33.626 126.074 33.014C127.23 32.402 128.63 32.096 130.273 32.096C131.656 32.096 132.761 32.2717 133.588 32.623C134.416 32.9743 135.011 33.456 135.373 34.068C135.747 34.6687 135.934 35.343 135.934 36.091C135.934 37.043 135.623 37.825 134.999 38.437C134.387 39.049 133.452 39.355 132.194 39.355C131.095 39.355 130.319 39.1397 129.865 38.709C129.412 38.267 129.185 37.6947 129.185 36.992C129.185 36.822 129.208 36.6463 129.253 36.465H126.89V35.122H133.146V36.465H130.732C130.653 36.6123 130.613 36.771 130.613 36.941C130.613 37.247 130.732 37.502 130.97 37.706C131.208 37.8987 131.622 37.995 132.211 37.995C132.959 37.995 133.52 37.8307 133.894 37.502C134.28 37.1733 134.472 36.703 134.472 36.091C134.472 35.5697 134.342 35.1107 134.081 34.714C133.821 34.3173 133.384 34.0113 132.772 33.796C132.172 33.5693 131.361 33.456 130.341 33.456C128.936 33.456 127.769 33.6997 126.839 34.187C125.921 34.663 125.23 35.343 124.765 36.227C124.312 37.0997 124.085 38.131 124.085 39.321C124.085 41.0323 124.567 42.347 125.53 43.265C126.494 44.183 127.871 44.642 129.661 44.642C130.591 44.642 131.435 44.489 132.194 44.183C132.954 43.8883 133.554 43.4237 133.996 42.789C134.438 42.1657 134.659 41.3667 134.659 40.392C134.659 40.3353 134.659 40.2447 134.659 40.12C134.659 39.984 134.648 39.865 134.625 39.763L136.036 39.695C136.07 39.9557 136.087 40.1993 136.087 40.426C136.087 41.3893 135.917 42.228 135.577 42.942C135.237 43.656 134.767 44.2453 134.166 44.71C133.577 45.1747 132.891 45.5203 132.109 45.747C131.327 45.9737 130.5 46.087 129.627 46.087ZM143.027 42.687C142.029 42.687 141.123 42.517 140.307 42.177C139.491 41.8257 138.805 41.2647 138.25 40.494C137.694 39.7233 137.303 38.6977 137.077 37.417L138.437 37.179C138.471 37.383 138.516 37.5757 138.573 37.757C138.641 37.757 138.709 37.757 138.777 37.757C139.151 37.757 139.513 37.706 139.865 37.604C140.216 37.502 140.539 37.298 140.834 36.992C141.14 36.6747 141.4 36.21 141.616 35.598C141.559 35.0767 141.429 34.6347 141.225 34.272C141.032 33.898 140.726 33.711 140.307 33.711C139.661 33.711 139.338 34.0623 139.338 34.765C139.338 34.9237 139.355 35.0767 139.389 35.224C139.434 35.3713 139.474 35.5187 139.508 35.666L138.114 35.938C138.046 35.7113 137.989 35.4847 137.944 35.258C137.91 35.0313 137.893 34.8103 137.893 34.595C137.893 33.9037 138.108 33.371 138.539 32.997C138.969 32.623 139.553 32.436 140.29 32.436C140.902 32.436 141.378 32.5833 141.718 32.878C142.069 33.1613 142.33 33.524 142.5 33.966C142.964 33.456 143.554 33.0197 144.268 32.657C144.982 32.283 145.826 32.096 146.801 32.096C148.025 32.096 149.056 32.3283 149.895 32.793C150.745 33.2577 151.385 33.9037 151.816 34.731C152.258 35.5583 152.479 36.516 152.479 37.604C152.479 38.692 152.292 39.6043 151.918 40.341C151.544 41.0777 151.039 41.633 150.405 42.007C149.77 42.3697 149.062 42.551 148.28 42.551C148.121 42.551 147.979 42.5453 147.855 42.534C147.73 42.534 147.594 42.5283 147.447 42.517L147.515 41.157C147.583 41.1683 147.679 41.1797 147.804 41.191C147.928 41.191 148.019 41.191 148.076 41.191C148.79 41.191 149.362 41.0323 149.793 40.715C150.223 40.3977 150.535 39.9783 150.728 39.457C150.92 38.9243 151.017 38.3293 151.017 37.672C151.017 36.788 150.835 36.04 150.473 35.428C150.11 34.816 149.606 34.3513 148.96 34.034C148.314 33.7053 147.566 33.541 146.716 33.541C145.956 33.541 145.305 33.6713 144.761 33.932C144.228 34.1813 143.769 34.51 143.384 34.918C143.588 34.8953 143.792 34.884 143.996 34.884C145.276 34.884 146.251 35.2127 146.92 35.87C147.6 36.516 147.94 37.4283 147.94 38.607C147.94 39.0943 147.86 39.5817 147.702 40.069C147.543 40.545 147.277 40.9813 146.903 41.378C146.54 41.7747 146.041 42.092 145.407 42.33C144.772 42.568 143.979 42.687 143.027 42.687ZM143.622 36.176C143.338 36.176 143.078 36.1873 142.84 36.21C142.613 36.9127 142.313 37.468 141.939 37.876C141.576 38.2727 141.145 38.5617 140.647 38.743C140.159 38.913 139.627 39.0093 139.049 39.032C139.445 39.7913 139.972 40.341 140.63 40.681C141.298 41.0097 142.109 41.174 143.061 41.174C144.183 41.174 145.038 40.936 145.628 40.46C146.217 39.984 146.512 39.3323 146.512 38.505C146.512 37.723 146.257 37.1393 145.747 36.754C145.237 36.3687 144.528 36.176 143.622 36.176ZM149.368 33.609V28.628C149.368 28.3787 149.356 28.1803 149.334 28.033C149.311 27.8743 149.271 27.744 149.215 27.642C149.079 27.3927 148.841 27.2057 148.501 27.081L149.011 25.925C149.589 26.0837 149.963 26.3613 150.133 26.758C150.257 26.5087 150.433 26.3103 150.66 26.163C150.898 26.0043 151.187 25.925 151.527 25.925C151.98 25.925 152.348 26.0667 152.632 26.35C152.926 26.622 153.074 27.0243 153.074 27.557C153.074 28.101 152.915 28.5203 152.598 28.815C152.28 29.1097 151.816 29.257 151.204 29.257C151.022 29.257 150.847 29.2457 150.677 29.223V33.609H149.368ZM150.677 27.931V28.169C150.824 28.1917 150.971 28.203 151.119 28.203C151.697 28.203 151.986 27.9877 151.986 27.557C151.986 27.3643 151.929 27.2227 151.816 27.132C151.702 27.03 151.566 26.979 151.408 26.979C151.113 26.979 150.915 27.064 150.813 27.234C150.722 27.404 150.677 27.6363 150.677 27.931ZM159.462 42.687C158.465 42.687 157.558 42.517 156.742 42.177C155.926 41.8257 155.241 41.2647 154.685 40.494C154.13 39.7233 153.739 38.6977 153.512 37.417L154.872 37.179C154.906 37.383 154.952 37.5757 155.008 37.757C155.076 37.757 155.144 37.757 155.212 37.757C155.586 37.757 155.949 37.706 156.3 37.604C156.652 37.502 156.975 37.298 157.269 36.992C157.575 36.6747 157.836 36.21 158.051 35.598C157.995 35.0767 157.864 34.6347 157.66 34.272C157.468 33.898 157.162 33.711 156.742 33.711C156.096 33.711 155.773 34.0623 155.773 34.765C155.773 34.9237 155.79 35.0767 155.824 35.224C155.87 35.3713 155.909 35.5187 155.943 35.666L154.549 35.938C154.481 35.7113 154.425 35.4847 154.379 35.258C154.345 35.0313 154.328 34.8103 154.328 34.595C154.328 33.9037 154.544 33.371 154.974 32.997C155.405 32.623 155.989 32.436 156.725 32.436C157.337 32.436 157.813 32.5833 158.153 32.878C158.505 33.1613 158.765 33.524 158.935 33.966C159.4 33.456 159.989 33.0197 160.703 32.657C161.417 32.283 162.262 32.096 163.236 32.096C164.46 32.096 165.492 32.3283 166.33 32.793C167.18 33.2577 167.821 33.9037 168.251 34.731C168.693 35.5583 168.914 36.516 168.914 37.604C168.914 38.692 168.727 39.6043 168.353 40.341C167.979 41.0777 167.475 41.633 166.84 42.007C166.206 42.3697 165.497 42.551 164.715 42.551C164.557 42.551 164.415 42.5453 164.29 42.534C164.166 42.534 164.03 42.5283 163.882 42.517L163.95 41.157C164.018 41.1683 164.115 41.1797 164.239 41.191C164.364 41.191 164.455 41.191 164.511 41.191C165.225 41.191 165.798 41.0323 166.228 40.715C166.659 40.3977 166.971 39.9783 167.163 39.457C167.356 38.9243 167.452 38.3293 167.452 37.672C167.452 36.788 167.271 36.04 166.908 35.428C166.546 34.816 166.041 34.3513 165.395 34.034C164.749 33.7053 164.001 33.541 163.151 33.541C162.392 33.541 161.74 33.6713 161.196 33.932C160.664 34.1813 160.205 34.51 159.819 34.918C160.023 34.8953 160.227 34.884 160.431 34.884C161.712 34.884 162.687 35.2127 163.355 35.87C164.035 36.516 164.375 37.4283 164.375 38.607C164.375 39.0943 164.296 39.5817 164.137 40.069C163.979 40.545 163.712 40.9813 163.338 41.378C162.976 41.7747 162.477 42.092 161.842 42.33C161.208 42.568 160.414 42.687 159.462 42.687ZM160.057 36.176C159.774 36.176 159.513 36.1873 159.275 36.21C159.049 36.9127 158.748 37.468 158.374 37.876C158.012 38.2727 157.581 38.5617 157.082 38.743C156.595 38.913 156.062 39.0093 155.484 39.032C155.881 39.7913 156.408 40.341 157.065 40.681C157.734 41.0097 158.544 41.174 159.496 41.174C160.618 41.174 161.474 40.936 162.063 40.46C162.653 39.984 162.947 39.3323 162.947 38.505C162.947 37.723 162.692 37.1393 162.182 36.754C161.672 36.3687 160.964 36.176 160.057 36.176Z" fill="white"/>
</svg>
