<svg width="248" height="55" viewBox="0 0 248 55" fill="none" xmlns="http://www.w3.org/2000/svg">
<rect x="0.5" y="0.5" width="247" height="54" rx="27" fill="#1F1F1F"/>
<rect x="0.5" y="0.5" width="247" height="54" rx="27" stroke="#747775"/>
<path d="M57 23.791H21V18.1455C21 15.0809 23.6422 12.5001 26.7798 12.5001H51.2202C54.3578 12.5001 57 15.0809 57 18.1455V23.791Z" fill="#34A853"/>
<path d="M57 29H21V23C21 19.7429 23.6422 17 26.7798 17H51.2202C54.3578 17 57 19.7429 57 23V29Z" fill="#FBBC04"/>
<path d="M57 34H21V28C21 24.7429 23.6422 22 26.7798 22H51.2202C54.3578 22 57 24.7429 57 28V34Z" fill="#EA4335"/>
<path d="M21 25.2409L43.8493 30.4025C46.4795 31.0477 49.4384 30.4025 51.5753 28.7895L57 24.9183V37.0157C57 40.0804 54.3699 42.4999 51.2466 42.4999H26.7534C23.6301 42.4999 21 40.0804 21 37.0157V25.2409Z" fill="#4285F4"/>
<path d="M69.494 21.5V20.044L74.369 13.544H69.702V12.192H76.02V13.648L71.184 20.148H76.072V21.5H69.494ZM80.4927 21.708C79.808 21.708 79.2057 21.552 78.6857 21.24C78.1657 20.928 77.7584 20.5077 77.4637 19.979C77.169 19.4417 77.0217 18.8437 77.0217 18.185C77.0217 17.5263 77.169 16.9327 77.4637 16.404C77.7584 15.8667 78.1657 15.442 78.6857 15.13C79.2057 14.818 79.808 14.662 80.4927 14.662C81.1687 14.662 81.7667 14.8223 82.2867 15.143C82.8067 15.455 83.214 15.8753 83.5087 16.404C83.8034 16.9327 83.9507 17.5263 83.9507 18.185C83.9507 18.8437 83.8034 19.4417 83.5087 19.979C83.214 20.5077 82.8067 20.928 82.2867 21.24C81.7667 21.552 81.1687 21.708 80.4927 21.708ZM80.4927 20.421C80.8567 20.421 81.1947 20.3343 81.5067 20.161C81.8187 19.979 82.07 19.7233 82.2607 19.394C82.46 19.056 82.5597 18.653 82.5597 18.185C82.5597 17.717 82.46 17.3183 82.2607 16.989C82.07 16.651 81.8187 16.3953 81.5067 16.222C81.1947 16.04 80.8567 15.949 80.4927 15.949C80.1287 15.949 79.7864 16.04 79.4657 16.222C79.1537 16.3953 78.898 16.651 78.6987 16.989C78.508 17.3183 78.4127 17.717 78.4127 18.185C78.4127 18.653 78.508 19.056 78.6987 19.394C78.898 19.7233 79.158 19.979 79.4787 20.161C79.7994 20.3343 80.1374 20.421 80.4927 20.421ZM88.7163 21.708C88.3783 21.708 88.0707 21.656 87.7933 21.552C87.516 21.448 87.2733 21.3137 87.0653 21.149C86.866 20.9757 86.7057 20.798 86.5843 20.616H86.5063V21.5H85.1803V12.192H86.5843V14.844L86.5063 15.767H86.5843C86.7057 15.5763 86.866 15.3987 87.0653 15.234C87.2733 15.0607 87.516 14.922 87.7933 14.818C88.0707 14.714 88.3783 14.662 88.7163 14.662C89.323 14.662 89.8647 14.8137 90.3413 15.117C90.818 15.4203 91.195 15.8363 91.4723 16.365C91.7583 16.8937 91.9013 17.5003 91.9013 18.185C91.9013 18.8697 91.7583 19.4763 91.4723 20.005C91.195 20.5337 90.818 20.9497 90.3413 21.253C89.8647 21.5563 89.323 21.708 88.7163 21.708ZM88.5083 20.421C88.855 20.421 89.18 20.33 89.4833 20.148C89.7953 19.966 90.0423 19.706 90.2243 19.368C90.415 19.03 90.5103 18.6357 90.5103 18.185C90.5103 17.7257 90.415 17.3313 90.2243 17.002C90.0423 16.664 89.7953 16.404 89.4833 16.222C89.18 16.04 88.855 15.949 88.5083 15.949C88.1617 15.949 87.8367 16.04 87.5333 16.222C87.23 16.404 86.983 16.664 86.7923 17.002C86.6017 17.3313 86.5063 17.7257 86.5063 18.185C86.5063 18.6443 86.6017 19.043 86.7923 19.381C86.983 19.7103 87.23 19.966 87.5333 20.148C87.8367 20.33 88.1617 20.421 88.5083 20.421ZM93.0641 21.5V14.87H94.3901V15.845H94.4681C94.5721 15.6197 94.7195 15.4203 94.9101 15.247C95.1095 15.0737 95.3348 14.935 95.5861 14.831C95.8461 14.727 96.1148 14.675 96.3921 14.675C96.5741 14.675 96.7258 14.688 96.8471 14.714C96.9771 14.7313 97.0941 14.7617 97.1981 14.805V16.261C97.0335 16.1917 96.8645 16.1353 96.6911 16.092C96.5265 16.0487 96.3531 16.027 96.1711 16.027C95.8418 16.027 95.5471 16.118 95.2871 16.3C95.0358 16.4733 94.8365 16.7073 94.6891 17.002C94.5418 17.2967 94.4681 17.626 94.4681 17.99V21.5H93.0641ZM100.133 21.708C99.6567 21.708 99.232 21.6127 98.8594 21.422C98.4954 21.2313 98.205 20.9713 97.9884 20.642C97.7804 20.304 97.6764 19.9183 97.6764 19.485C97.6764 19.0083 97.7977 18.6053 98.0404 18.276C98.2917 17.9467 98.6254 17.6953 99.0414 17.522C99.4574 17.3487 99.9167 17.262 100.419 17.262C100.697 17.262 100.952 17.2837 101.186 17.327C101.429 17.3617 101.637 17.405 101.81 17.457C101.992 17.509 102.135 17.5653 102.239 17.626V17.275C102.239 16.8417 102.083 16.495 101.771 16.235C101.459 15.975 101.056 15.845 100.562 15.845C100.224 15.845 99.9037 15.923 99.6004 16.079C99.297 16.2263 99.0544 16.43 98.8724 16.69L97.9104 15.949C98.101 15.6803 98.3307 15.4507 98.5994 15.26C98.8767 15.0693 99.1844 14.922 99.5224 14.818C99.869 14.714 100.229 14.662 100.601 14.662C101.563 14.662 102.304 14.9003 102.824 15.377C103.344 15.845 103.604 16.5037 103.604 17.353V21.5H102.239V20.681H102.161C102.049 20.8543 101.893 21.019 101.693 21.175C101.503 21.331 101.273 21.4567 101.004 21.552C100.744 21.656 100.454 21.708 100.133 21.708ZM100.38 20.564C100.744 20.564 101.065 20.4773 101.342 20.304C101.628 20.1307 101.849 19.9053 102.005 19.628C102.161 19.342 102.239 19.0343 102.239 18.705C102.049 18.5923 101.815 18.5013 101.537 18.432C101.269 18.354 100.983 18.315 100.679 18.315C100.107 18.315 99.7 18.4277 99.4574 18.653C99.2147 18.8783 99.0934 19.16 99.0934 19.498C99.0934 19.81 99.2104 20.0657 99.4444 20.265C99.6784 20.4643 99.9904 20.564 100.38 20.564ZM104.799 21.5V20.33L108.491 16.092H104.916V14.87H110.207V16.04L106.528 20.278H110.311V21.5H104.799ZM111.856 21.5V14.87H113.26V21.5H111.856ZM112.558 13.895C112.298 13.895 112.072 13.804 111.882 13.622C111.7 13.4313 111.609 13.206 111.609 12.946C111.609 12.6773 111.7 12.4563 111.882 12.283C112.072 12.101 112.298 12.01 112.558 12.01C112.826 12.01 113.052 12.101 113.234 12.283C113.416 12.4563 113.507 12.6773 113.507 12.946C113.507 13.206 113.416 13.4313 113.234 13.622C113.052 13.804 112.826 13.895 112.558 13.895ZM114.483 14.87H115.64V12.998H117.044V14.87H118.669V16.092H117.044V19.277C117.044 19.6063 117.109 19.8577 117.239 20.031C117.378 20.2043 117.607 20.291 117.928 20.291C118.084 20.291 118.223 20.2693 118.344 20.226C118.465 20.174 118.587 20.1133 118.708 20.044V21.409C118.561 21.4697 118.405 21.5173 118.24 21.552C118.075 21.5867 117.88 21.604 117.655 21.604C117.04 21.604 116.55 21.4263 116.186 21.071C115.822 20.707 115.64 20.2087 115.64 19.576V16.092H114.483V14.87ZM117.772 14.103V12.192H119.085L118.76 14.103H117.772Z" fill="white"/>
<path d="M72.706 41.5L69.119 32.83H71.159L73.59 39.137H73.675L76.157 32.83H78.163L74.542 41.5H72.706ZM83.625 41.5V29.328H87.807C88.5437 29.328 89.2124 29.4867 89.813 29.804C90.4137 30.11 90.8897 30.5463 91.241 31.113C91.6037 31.6683 91.785 32.3143 91.785 33.051C91.785 33.7763 91.6037 34.4223 91.241 34.989C90.8897 35.5557 90.4137 35.9977 89.813 36.315C89.2124 36.621 88.5437 36.774 87.807 36.774H85.495V41.5H83.625ZM85.495 35.006H87.858C88.3 35.006 88.674 34.9153 88.98 34.734C89.286 34.5413 89.5184 34.2977 89.677 34.003C89.847 33.697 89.932 33.3797 89.932 33.051C89.932 32.7223 89.847 32.4107 89.677 32.116C89.5184 31.8213 89.286 31.5777 88.98 31.385C88.674 31.1923 88.3 31.096 87.858 31.096H85.495V35.006ZM96.7595 41.772C95.9095 41.772 95.1502 41.5737 94.4815 41.177C93.8129 40.7803 93.2859 40.2363 92.9005 39.545C92.5265 38.8537 92.3395 38.066 92.3395 37.182C92.3395 36.3547 92.5209 35.5897 92.8835 34.887C93.2462 34.1843 93.7505 33.6233 94.3965 33.204C95.0539 32.7733 95.8075 32.558 96.6575 32.558C97.5529 32.558 98.3122 32.7507 98.9355 33.136C99.5702 33.5213 100.052 34.0483 100.381 34.717C100.709 35.3857 100.874 36.1393 100.874 36.978C100.874 37.1027 100.868 37.216 100.857 37.318C100.857 37.42 100.851 37.4993 100.84 37.556H94.1415C94.1869 38.032 94.3059 38.4457 94.4985 38.797C94.7479 39.239 95.0765 39.5733 95.4845 39.8C95.8925 40.0267 96.3345 40.14 96.8105 40.14C97.3885 40.14 97.8702 40.0097 98.2555 39.749C98.6522 39.477 98.9639 39.1427 99.1905 38.746L100.704 39.477C100.33 40.157 99.8195 40.7123 99.1735 41.143C98.5275 41.5623 97.7229 41.772 96.7595 41.772ZM94.2435 36.179H99.0545C99.0432 35.9637 98.9865 35.737 98.8845 35.499C98.7825 35.2497 98.6352 35.023 98.4425 34.819C98.2499 34.615 98.0062 34.4507 97.7115 34.326C97.4169 34.19 97.0712 34.122 96.6745 34.122C96.1759 34.122 95.7339 34.2523 95.3485 34.513C94.9632 34.7623 94.6629 35.1137 94.4475 35.567C94.3569 35.7597 94.2889 35.9637 94.2435 36.179ZM102.577 41.5V32.83H104.311V34.02H104.413C104.662 33.6007 105.031 33.255 105.518 32.983C106.017 32.6997 106.561 32.558 107.15 32.558C108.215 32.558 109.014 32.8753 109.547 33.51C110.08 34.1333 110.346 34.972 110.346 36.026V41.5H108.527V36.264C108.527 35.5613 108.351 35.0513 108 34.734C107.649 34.4053 107.19 34.241 106.623 34.241C106.181 34.241 105.796 34.3657 105.467 34.615C105.138 34.853 104.878 35.1703 104.685 35.567C104.504 35.9637 104.413 36.3887 104.413 36.842V41.5H102.577ZM105.858 31.164L104.039 29.107V28.988H105.79L106.572 30.042H106.742L107.541 28.988H109.309V29.107L107.473 31.164H105.858ZM115.075 41.772C114.452 41.772 113.897 41.6473 113.409 41.398C112.933 41.1487 112.554 40.8087 112.27 40.378C111.998 39.936 111.862 39.4317 111.862 38.865C111.862 38.2417 112.021 37.7147 112.338 37.284C112.667 36.8533 113.103 36.5247 113.647 36.298C114.191 36.0713 114.792 35.958 115.449 35.958C115.812 35.958 116.146 35.9863 116.452 36.043C116.77 36.0883 117.042 36.145 117.268 36.213C117.506 36.281 117.693 36.3547 117.829 36.434V35.975C117.829 35.4083 117.625 34.955 117.217 34.615C116.809 34.275 116.282 34.105 115.636 34.105C115.194 34.105 114.775 34.207 114.378 34.411C113.982 34.6037 113.664 34.87 113.426 35.21L112.168 34.241C112.418 33.8897 112.718 33.5893 113.069 33.34C113.432 33.0907 113.834 32.898 114.276 32.762C114.73 32.626 115.2 32.558 115.687 32.558C116.945 32.558 117.914 32.8697 118.594 33.493C119.274 34.105 119.614 34.9663 119.614 36.077V41.5H117.829V40.429H117.727C117.58 40.6557 117.376 40.871 117.115 41.075C116.866 41.279 116.566 41.4433 116.214 41.568C115.874 41.704 115.495 41.772 115.075 41.772ZM115.398 40.276C115.874 40.276 116.294 40.1627 116.656 39.936C117.03 39.7093 117.319 39.4147 117.523 39.052C117.727 38.678 117.829 38.2757 117.829 37.845C117.58 37.6977 117.274 37.5787 116.911 37.488C116.56 37.386 116.186 37.335 115.789 37.335C115.041 37.335 114.509 37.4823 114.191 37.777C113.874 38.0717 113.715 38.44 113.715 38.882C113.715 39.29 113.868 39.6243 114.174 39.885C114.48 40.1457 114.888 40.276 115.398 40.276ZM121.177 41.5V39.97L126.005 34.428H121.33V32.83H128.249V34.36L123.438 39.902H128.385V41.5H121.177ZM123.999 31.164L122.18 29.107V28.988H123.931L124.713 30.042H124.883L125.682 28.988H127.45V29.107L125.614 31.164H123.999ZM133.897 41.772C133.047 41.772 132.288 41.5737 131.619 41.177C130.951 40.7803 130.424 40.2363 130.038 39.545C129.664 38.8537 129.477 38.066 129.477 37.182C129.477 36.3547 129.659 35.5897 130.021 34.887C130.384 34.1843 130.888 33.6233 131.534 33.204C132.192 32.7733 132.945 32.558 133.795 32.558C134.691 32.558 135.45 32.7507 136.073 33.136C136.708 33.5213 137.19 34.0483 137.518 34.717C137.847 35.3857 138.011 36.1393 138.011 36.978C138.011 37.1027 138.006 37.216 137.994 37.318C137.994 37.42 137.989 37.4993 137.977 37.556H131.279C131.325 38.032 131.444 38.4457 131.636 38.797C131.886 39.239 132.214 39.5733 132.622 39.8C133.03 40.0267 133.472 40.14 133.948 40.14C134.526 40.14 135.008 40.0097 135.393 39.749C135.79 39.477 136.102 39.1427 136.328 38.746L137.841 39.477C137.467 40.157 136.957 40.7123 136.311 41.143C135.665 41.5623 134.861 41.772 133.897 41.772ZM131.381 36.179H136.192C136.181 35.9637 136.124 35.737 136.022 35.499C135.92 35.2497 135.773 35.023 135.58 34.819C135.388 34.615 135.144 34.4507 134.849 34.326C134.555 34.19 134.209 34.122 133.812 34.122C133.314 34.122 132.872 34.2523 132.486 34.513C132.101 34.7623 131.801 35.1137 131.585 35.567C131.495 35.7597 131.427 35.9637 131.381 36.179ZM139.715 41.5V32.83H141.449V34.02H141.551C141.8 33.6007 142.168 33.255 142.656 32.983C143.154 32.6997 143.698 32.558 144.288 32.558C145.353 32.558 146.152 32.8753 146.685 33.51C147.217 34.1333 147.484 34.972 147.484 36.026V41.5H145.665V36.264C145.665 35.5613 145.489 35.0513 145.138 34.734C144.786 34.4053 144.327 34.241 143.761 34.241C143.319 34.241 142.933 34.3657 142.605 34.615C142.276 34.853 142.015 35.1703 141.823 35.567C141.641 35.9637 141.551 36.3887 141.551 36.842V41.5H139.715ZM149.576 41.5V29.328H151.412V36.502L155.084 32.83H157.362V32.932L154.013 36.247L157.481 41.398V41.5H155.305L152.721 37.522L151.412 38.814V41.5H149.576ZM162.336 41.772C161.486 41.772 160.726 41.5737 160.058 41.177C159.389 40.7803 158.862 40.2363 158.477 39.545C158.103 38.8537 157.916 38.066 157.916 37.182C157.916 36.3547 158.097 35.5897 158.46 34.887C158.822 34.1843 159.327 33.6233 159.973 33.204C160.63 32.7733 161.384 32.558 162.234 32.558C163.129 32.558 163.888 32.7507 164.512 33.136C165.146 33.5213 165.628 34.0483 165.957 34.717C166.285 35.3857 166.45 36.1393 166.45 36.978C166.45 37.1027 166.444 37.216 166.433 37.318C166.433 37.42 166.427 37.4993 166.416 37.556H159.718C159.763 38.032 159.882 38.4457 160.075 38.797C160.324 39.239 160.653 39.5733 161.061 39.8C161.469 40.0267 161.911 40.14 162.387 40.14C162.965 40.14 163.446 40.0097 163.832 39.749C164.228 39.477 164.54 39.1427 164.767 38.746L166.28 39.477C165.906 40.157 165.396 40.7123 164.75 41.143C164.104 41.5623 163.299 41.772 162.336 41.772ZM159.82 36.179H164.631C164.619 35.9637 164.563 35.737 164.461 35.499C164.359 35.2497 164.211 35.023 164.019 34.819C163.826 34.615 163.582 34.4507 163.288 34.326C162.993 34.19 162.647 34.122 162.251 34.122C161.752 34.122 161.31 34.2523 160.925 34.513C160.539 34.7623 160.239 35.1137 160.024 35.567C159.933 35.7597 159.865 35.9637 159.82 36.179ZM177.858 41.772C176.985 41.772 176.163 41.6133 175.393 41.296C174.622 40.9787 173.942 40.5367 173.353 39.97C172.775 39.392 172.316 38.7177 171.976 37.947C171.647 37.165 171.483 36.3207 171.483 35.414C171.483 34.5073 171.647 33.6687 171.976 32.898C172.316 32.116 172.775 31.4417 173.353 30.875C173.942 30.297 174.622 29.8493 175.393 29.532C176.163 29.2147 176.985 29.056 177.858 29.056C178.787 29.056 179.643 29.2203 180.425 29.549C181.218 29.8777 181.881 30.3367 182.414 30.926L181.122 32.201C180.861 31.9063 180.561 31.657 180.221 31.453C179.892 31.249 179.529 31.096 179.133 30.994C178.736 30.8807 178.311 30.824 177.858 30.824C177.257 30.824 176.685 30.9317 176.141 31.147C175.597 31.3623 175.115 31.674 174.696 32.082C174.288 32.4787 173.965 32.9603 173.727 33.527C173.489 34.0823 173.37 34.7113 173.37 35.414C173.37 36.1167 173.489 36.7513 173.727 37.318C173.976 37.8733 174.305 38.355 174.713 38.763C175.132 39.1597 175.614 39.4657 176.158 39.681C176.702 39.8963 177.274 40.004 177.875 40.004C178.43 40.004 178.946 39.9247 179.422 39.766C179.909 39.6073 180.334 39.3807 180.697 39.086C181.059 38.7913 181.354 38.4343 181.581 38.015C181.807 37.5843 181.949 37.1027 182.006 36.57H177.841V34.921H183.757C183.779 35.057 183.802 35.2157 183.825 35.397C183.847 35.567 183.859 35.7313 183.859 35.89V35.907C183.859 36.7797 183.706 37.5787 183.4 38.304C183.105 39.0293 182.691 39.6527 182.159 40.174C181.626 40.684 180.991 41.0807 180.255 41.364C179.529 41.636 178.73 41.772 177.858 41.772ZM189.333 41.772C188.437 41.772 187.65 41.568 186.97 41.16C186.29 40.752 185.757 40.2023 185.372 39.511C184.986 38.8083 184.794 38.0263 184.794 37.165C184.794 36.3037 184.986 35.5273 185.372 34.836C185.757 34.1333 186.29 33.578 186.97 33.17C187.65 32.762 188.437 32.558 189.333 32.558C190.217 32.558 190.999 32.7677 191.679 33.187C192.359 33.595 192.891 34.1447 193.277 34.836C193.662 35.5273 193.855 36.3037 193.855 37.165C193.855 38.0263 193.662 38.8083 193.277 39.511C192.891 40.2023 192.359 40.752 191.679 41.16C190.999 41.568 190.217 41.772 189.333 41.772ZM189.333 40.089C189.809 40.089 190.251 39.9757 190.659 39.749C191.067 39.511 191.395 39.1767 191.645 38.746C191.905 38.304 192.036 37.777 192.036 37.165C192.036 36.553 191.905 36.0317 191.645 35.601C191.395 35.159 191.067 34.8247 190.659 34.598C190.251 34.36 189.809 34.241 189.333 34.241C188.857 34.241 188.409 34.36 187.99 34.598C187.582 34.8247 187.247 35.159 186.987 35.601C186.737 36.0317 186.613 36.553 186.613 37.165C186.613 37.777 186.737 38.304 186.987 38.746C187.247 39.1767 187.587 39.511 188.007 39.749C188.426 39.9757 188.868 40.089 189.333 40.089ZM199.626 41.772C198.73 41.772 197.943 41.568 197.263 41.16C196.583 40.752 196.05 40.2023 195.665 39.511C195.279 38.8083 195.087 38.0263 195.087 37.165C195.087 36.3037 195.279 35.5273 195.665 34.836C196.05 34.1333 196.583 33.578 197.263 33.17C197.943 32.762 198.73 32.558 199.626 32.558C200.51 32.558 201.292 32.7677 201.972 33.187C202.652 33.595 203.184 34.1447 203.57 34.836C203.955 35.5273 204.148 36.3037 204.148 37.165C204.148 38.0263 203.955 38.8083 203.57 39.511C203.184 40.2023 202.652 40.752 201.972 41.16C201.292 41.568 200.51 41.772 199.626 41.772ZM199.626 40.089C200.102 40.089 200.544 39.9757 200.952 39.749C201.36 39.511 201.688 39.1767 201.938 38.746C202.198 38.304 202.329 37.777 202.329 37.165C202.329 36.553 202.198 36.0317 201.938 35.601C201.688 35.159 201.36 34.8247 200.952 34.598C200.544 34.36 200.102 34.241 199.626 34.241C199.15 34.241 198.702 34.36 198.283 34.598C197.875 34.8247 197.54 35.159 197.28 35.601C197.03 36.0317 196.906 36.553 196.906 37.165C196.906 37.777 197.03 38.304 197.28 38.746C197.54 39.1767 197.88 39.511 198.3 39.749C198.719 39.9757 199.161 40.089 199.626 40.089ZM209.749 45.444C208.989 45.444 208.332 45.3193 207.777 45.07C207.233 44.832 206.791 44.5203 206.451 44.135C206.111 43.761 205.867 43.3757 205.72 42.979L207.42 42.265C207.601 42.7183 207.89 43.0867 208.287 43.37C208.695 43.6647 209.182 43.812 209.749 43.812C210.553 43.812 211.182 43.574 211.636 43.098C212.089 42.622 212.316 41.9477 212.316 41.075V40.242H212.214C211.942 40.6387 211.568 40.9617 211.092 41.211C210.616 41.4603 210.066 41.585 209.443 41.585C208.706 41.585 208.026 41.398 207.403 41.024C206.791 40.65 206.298 40.1287 205.924 39.46C205.561 38.78 205.38 37.9867 205.38 37.08C205.38 36.162 205.561 35.3687 205.924 34.7C206.298 34.02 206.791 33.493 207.403 33.119C208.026 32.745 208.706 32.558 209.443 32.558C210.066 32.558 210.616 32.6827 211.092 32.932C211.568 33.17 211.942 33.4987 212.214 33.918H212.316V32.83H214.067V41.041C214.067 41.9817 213.88 42.7807 213.506 43.438C213.143 44.0953 212.639 44.594 211.993 44.934C211.347 45.274 210.599 45.444 209.749 45.444ZM209.766 39.919C210.219 39.919 210.638 39.8113 211.024 39.596C211.42 39.3693 211.732 39.0463 211.959 38.627C212.197 38.1963 212.316 37.6807 212.316 37.08C212.316 36.4453 212.197 35.9183 211.959 35.499C211.732 35.0797 211.42 34.7623 211.024 34.547C210.638 34.3317 210.219 34.224 209.766 34.224C209.312 34.224 208.887 34.3317 208.491 34.547C208.105 34.7623 207.794 35.0853 207.556 35.516C207.318 35.9353 207.199 36.4567 207.199 37.08C207.199 37.692 207.318 38.2133 207.556 38.644C207.794 39.0633 208.105 39.3807 208.491 39.596C208.887 39.8113 209.312 39.919 209.766 39.919ZM216.232 41.5V29.328H218.068V41.5H216.232ZM224.11 41.772C223.26 41.772 222.501 41.5737 221.832 41.177C221.163 40.7803 220.636 40.2363 220.251 39.545C219.877 38.8537 219.69 38.066 219.69 37.182C219.69 36.3547 219.871 35.5897 220.234 34.887C220.597 34.1843 221.101 33.6233 221.747 33.204C222.404 32.7733 223.158 32.558 224.008 32.558C224.903 32.558 225.663 32.7507 226.286 33.136C226.921 33.5213 227.402 34.0483 227.731 34.717C228.06 35.3857 228.224 36.1393 228.224 36.978C228.224 37.1027 228.218 37.216 228.207 37.318C228.207 37.42 228.201 37.4993 228.19 37.556H221.492C221.537 38.032 221.656 38.4457 221.849 38.797C222.098 39.239 222.427 39.5733 222.835 39.8C223.243 40.0267 223.685 40.14 224.161 40.14C224.739 40.14 225.221 40.0097 225.606 39.749C226.003 39.477 226.314 39.1427 226.541 38.746L228.054 39.477C227.68 40.157 227.17 40.7123 226.524 41.143C225.878 41.5623 225.073 41.772 224.11 41.772ZM221.594 36.179H226.405C226.394 35.9637 226.337 35.737 226.235 35.499C226.133 35.2497 225.986 35.023 225.793 34.819C225.6 34.615 225.357 34.4507 225.062 34.326C224.767 34.19 224.422 34.122 224.025 34.122C223.526 34.122 223.084 34.2523 222.699 34.513C222.314 34.7623 222.013 35.1137 221.798 35.567C221.707 35.7597 221.639 35.9637 221.594 36.179Z" fill="white"/>
</svg>
