<svg width="226" height="55" viewBox="0 0 226 55" fill="none" xmlns="http://www.w3.org/2000/svg">
<rect x="0.5" y="0.5" width="225" height="54" rx="27" fill="#1F1F1F"/>
<rect x="0.5" y="0.5" width="225" height="54" rx="27" stroke="#747775"/>
<path d="M57 23.791H21V18.1455C21 15.0809 23.6422 12.5001 26.7798 12.5001H51.2202C54.3578 12.5001 57 15.0809 57 18.1455V23.791Z" fill="#34A853"/>
<path d="M57 29H21V23C21 19.7429 23.6422 17 26.7798 17H51.2202C54.3578 17 57 19.7429 57 23V29Z" fill="#FBBC04"/>
<path d="M57 34H21V28C21 24.7429 23.6422 22 26.7798 22H51.2202C54.3578 22 57 24.7429 57 28V34Z" fill="#EA4335"/>
<path d="M21 25.2409L43.8493 30.4025C46.4795 31.0477 49.4384 30.4025 51.5753 28.7895L57 24.9183V37.0157C57 40.0804 54.3699 42.4999 51.2466 42.4999H26.7534C23.6301 42.4999 21 40.0804 21 37.0157V25.2409Z" fill="#4285F4"/>
<path d="M74.408 21.708C73.7147 21.708 73.0733 21.5823 72.484 21.331C71.9033 21.0797 71.3963 20.733 70.963 20.291C70.5297 19.8403 70.1917 19.3247 69.949 18.744C69.7063 18.1547 69.585 17.522 69.585 16.846C69.585 16.17 69.7063 15.5417 69.949 14.961C70.1917 14.3717 70.5297 13.856 70.963 13.414C71.3963 12.9633 71.9033 12.6123 72.484 12.361C73.0733 12.1097 73.7147 11.984 74.408 11.984C75.1013 11.984 75.7383 12.1097 76.319 12.361C76.8997 12.6123 77.4067 12.9633 77.84 13.414C78.282 13.856 78.62 14.3717 78.854 14.961C79.0967 15.5417 79.218 16.17 79.218 16.846C79.218 17.522 79.0967 18.1547 78.854 18.744C78.62 19.3247 78.282 19.8403 77.84 20.291C77.4067 20.733 76.8997 21.0797 76.319 21.331C75.7383 21.5823 75.1013 21.708 74.408 21.708ZM74.408 20.356C75.0407 20.356 75.6083 20.2087 76.111 19.914C76.6223 19.6193 77.0297 19.2077 77.333 18.679C77.6363 18.1503 77.788 17.5393 77.788 16.846C77.788 16.144 77.6363 15.533 77.333 15.013C77.0297 14.4843 76.6223 14.0727 76.111 13.778C75.6083 13.4833 75.0407 13.336 74.408 13.336C73.784 13.336 73.2163 13.4833 72.705 13.778C72.1937 14.0727 71.7863 14.4843 71.483 15.013C71.1797 15.533 71.028 16.144 71.028 16.846C71.028 17.5393 71.1797 18.1503 71.483 18.679C71.7863 19.2077 72.1937 19.6193 72.705 19.914C73.2163 20.2087 73.784 20.356 74.408 20.356ZM83.6254 24.516C83.0447 24.516 82.5421 24.4207 82.1174 24.23C81.7014 24.048 81.3634 23.8097 81.1034 23.515C80.8434 23.229 80.6571 22.9343 80.5444 22.631L81.8444 22.085C81.9831 22.4317 82.2041 22.7133 82.5074 22.93C82.8194 23.1553 83.1921 23.268 83.6254 23.268C84.2407 23.268 84.7217 23.086 85.0684 22.722C85.4151 22.358 85.5884 21.8423 85.5884 21.175V20.538H85.5104C85.3024 20.8413 85.0164 21.0883 84.6524 21.279C84.2884 21.4697 83.8681 21.565 83.3914 21.565C82.8281 21.565 82.3081 21.422 81.8314 21.136C81.3634 20.85 80.9864 20.4513 80.7004 19.94C80.4231 19.42 80.2844 18.8133 80.2844 18.12C80.2844 17.418 80.4231 16.8113 80.7004 16.3C80.9864 15.78 81.3634 15.377 81.8314 15.091C82.3081 14.805 82.8281 14.662 83.3914 14.662C83.8681 14.662 84.2884 14.7573 84.6524 14.948C85.0164 15.13 85.3024 15.3813 85.5104 15.702H85.5884V14.87H86.9274V21.149C86.9274 21.8683 86.7844 22.4793 86.4984 22.982C86.2211 23.4847 85.8354 23.866 85.3414 24.126C84.8474 24.386 84.2754 24.516 83.6254 24.516ZM83.6384 20.291C83.9851 20.291 84.3057 20.2087 84.6004 20.044C84.9037 19.8707 85.1421 19.6237 85.3154 19.303C85.4974 18.9737 85.5884 18.5793 85.5884 18.12C85.5884 17.6347 85.4974 17.2317 85.3154 16.911C85.1421 16.5903 84.9037 16.3477 84.6004 16.183C84.3057 16.0183 83.9851 15.936 83.6384 15.936C83.2917 15.936 82.9667 16.0183 82.6634 16.183C82.3687 16.3477 82.1304 16.5947 81.9484 16.924C81.7664 17.2447 81.6754 17.6433 81.6754 18.12C81.6754 18.588 81.7664 18.9867 81.9484 19.316C82.1304 19.6367 82.3687 19.8793 82.6634 20.044C82.9667 20.2087 83.2917 20.291 83.6384 20.291ZM88.583 21.5V12.192H89.987V21.5H88.583ZM94.6078 21.708C93.9578 21.708 93.3771 21.5563 92.8658 21.253C92.3544 20.9497 91.9514 20.5337 91.6568 20.005C91.3708 19.4763 91.2278 18.874 91.2278 18.198C91.2278 17.5653 91.3664 16.9803 91.6438 16.443C91.9211 15.9057 92.3068 15.4767 92.8008 15.156C93.3034 14.8267 93.8798 14.662 94.5298 14.662C95.2144 14.662 95.7951 14.8093 96.2718 15.104C96.7571 15.3987 97.1254 15.8017 97.3768 16.313C97.6281 16.8243 97.7538 17.4007 97.7538 18.042C97.7538 18.1373 97.7494 18.224 97.7408 18.302C97.7408 18.38 97.7364 18.4407 97.7278 18.484H92.6058C92.6404 18.848 92.7314 19.1643 92.8788 19.433C93.0694 19.771 93.3208 20.0267 93.6328 20.2C93.9448 20.3733 94.2828 20.46 94.6468 20.46C95.0888 20.46 95.4571 20.3603 95.7518 20.161C96.0551 19.953 96.2934 19.6973 96.4668 19.394L97.6238 19.953C97.3378 20.473 96.9478 20.8977 96.4538 21.227C95.9598 21.5477 95.3444 21.708 94.6078 21.708ZM92.6838 17.431H96.3628C96.3541 17.2663 96.3108 17.093 96.2328 16.911C96.1548 16.7203 96.0421 16.547 95.8948 16.391C95.7474 16.235 95.5611 16.1093 95.3358 16.014C95.1104 15.91 94.8461 15.858 94.5428 15.858C94.1614 15.858 93.8234 15.9577 93.5288 16.157C93.2341 16.3477 93.0044 16.6163 92.8398 16.963C92.7704 17.1103 92.7184 17.2663 92.6838 17.431ZM101.954 21.708C101.356 21.708 100.814 21.5563 100.329 21.253C99.8434 20.9497 99.4621 20.5337 99.1848 20.005C98.9074 19.4763 98.7688 18.8697 98.7688 18.185C98.7688 17.5003 98.9074 16.8937 99.1848 16.365C99.4621 15.8363 99.8434 15.4203 100.329 15.117C100.814 14.8137 101.356 14.662 101.954 14.662C102.3 14.662 102.612 14.714 102.89 14.818C103.167 14.922 103.405 15.0607 103.605 15.234C103.813 15.3987 103.973 15.5763 104.086 15.767H104.164L104.086 14.844V12.192H105.477V21.5H104.164V20.616H104.086C103.973 20.798 103.813 20.9757 103.605 21.149C103.405 21.3137 103.167 21.448 102.89 21.552C102.612 21.656 102.3 21.708 101.954 21.708ZM102.162 20.421C102.508 20.421 102.833 20.33 103.137 20.148C103.449 19.966 103.696 19.7103 103.878 19.381C104.068 19.043 104.164 18.6443 104.164 18.185C104.164 17.7257 104.068 17.3313 103.878 17.002C103.696 16.664 103.449 16.404 103.137 16.222C102.833 16.04 102.508 15.949 102.162 15.949C101.815 15.949 101.49 16.04 101.187 16.222C100.883 16.404 100.636 16.664 100.446 17.002C100.255 17.3313 100.16 17.7257 100.16 18.185C100.16 18.6357 100.255 19.03 100.446 19.368C100.636 19.706 100.883 19.966 101.187 20.148C101.49 20.33 101.815 20.421 102.162 20.421ZM112.18 21.5L109.437 14.87H110.997L112.856 19.693H112.921L114.819 14.87H116.353L113.584 21.5H112.18Z" fill="white"/>
<path d="M76.14 41.772C75.2673 41.772 74.4457 41.6133 73.675 41.296C72.9043 40.9787 72.2243 40.5367 71.635 39.97C71.057 39.392 70.598 38.7177 70.258 37.947C69.9293 37.165 69.765 36.3207 69.765 35.414C69.765 34.5073 69.9293 33.6687 70.258 32.898C70.598 32.116 71.057 31.4417 71.635 30.875C72.2243 30.297 72.9043 29.8493 73.675 29.532C74.4457 29.2147 75.2673 29.056 76.14 29.056C77.0693 29.056 77.925 29.2203 78.707 29.549C79.5003 29.8777 80.1633 30.3367 80.696 30.926L79.404 32.201C79.1433 31.9063 78.843 31.657 78.503 31.453C78.1743 31.249 77.8117 31.096 77.415 30.994C77.0183 30.8807 76.5933 30.824 76.14 30.824C75.5393 30.824 74.967 30.9317 74.423 31.147C73.879 31.3623 73.3973 31.674 72.978 32.082C72.57 32.4787 72.247 32.9603 72.009 33.527C71.771 34.0823 71.652 34.7113 71.652 35.414C71.652 36.1167 71.771 36.7513 72.009 37.318C72.2583 37.8733 72.587 38.355 72.995 38.763C73.4143 39.1597 73.896 39.4657 74.44 39.681C74.984 39.8963 75.5563 40.004 76.157 40.004C76.7123 40.004 77.228 39.9247 77.704 39.766C78.1913 39.6073 78.6163 39.3807 78.979 39.086C79.3417 38.7913 79.6363 38.4343 79.863 38.015C80.0897 37.5843 80.2313 37.1027 80.288 36.57H76.123V34.921H82.039C82.0617 35.057 82.0843 35.2157 82.107 35.397C82.1297 35.567 82.141 35.7313 82.141 35.89V35.907C82.141 36.7797 81.988 37.5787 81.682 38.304C81.3873 39.0293 80.9737 39.6527 80.441 40.174C79.9083 40.684 79.2737 41.0807 78.537 41.364C77.8117 41.636 77.0127 41.772 76.14 41.772ZM87.6149 41.772C86.7195 41.772 85.9319 41.568 85.2519 41.16C84.5719 40.752 84.0392 40.2023 83.6539 39.511C83.2685 38.8083 83.0759 38.0263 83.0759 37.165C83.0759 36.3037 83.2685 35.5273 83.6539 34.836C84.0392 34.1333 84.5719 33.578 85.2519 33.17C85.9319 32.762 86.7195 32.558 87.6149 32.558C88.4989 32.558 89.2809 32.7677 89.9609 33.187C90.6409 33.595 91.1735 34.1447 91.5589 34.836C91.9442 35.5273 92.1369 36.3037 92.1369 37.165C92.1369 38.0263 91.9442 38.8083 91.5589 39.511C91.1735 40.2023 90.6409 40.752 89.9609 41.16C89.2809 41.568 88.4989 41.772 87.6149 41.772ZM87.6149 40.089C88.0909 40.089 88.5329 39.9757 88.9409 39.749C89.3489 39.511 89.6775 39.1767 89.9269 38.746C90.1875 38.304 90.3179 37.777 90.3179 37.165C90.3179 36.553 90.1875 36.0317 89.9269 35.601C89.6775 35.159 89.3489 34.8247 88.9409 34.598C88.5329 34.36 88.0909 34.241 87.6149 34.241C87.1389 34.241 86.6912 34.36 86.2719 34.598C85.8639 34.8247 85.5295 35.159 85.2689 35.601C85.0195 36.0317 84.8949 36.553 84.8949 37.165C84.8949 37.777 85.0195 38.304 85.2689 38.746C85.5295 39.1767 85.8695 39.511 86.2889 39.749C86.7082 39.9757 87.1502 40.089 87.6149 40.089ZM97.9078 41.772C97.0125 41.772 96.2248 41.568 95.5448 41.16C94.8648 40.752 94.3322 40.2023 93.9468 39.511C93.5615 38.8083 93.3688 38.0263 93.3688 37.165C93.3688 36.3037 93.5615 35.5273 93.9468 34.836C94.3322 34.1333 94.8648 33.578 95.5448 33.17C96.2248 32.762 97.0125 32.558 97.9078 32.558C98.7918 32.558 99.5738 32.7677 100.254 33.187C100.934 33.595 101.467 34.1447 101.852 34.836C102.237 35.5273 102.43 36.3037 102.43 37.165C102.43 38.0263 102.237 38.8083 101.852 39.511C101.467 40.2023 100.934 40.752 100.254 41.16C99.5738 41.568 98.7918 41.772 97.9078 41.772ZM97.9078 40.089C98.3838 40.089 98.8258 39.9757 99.2338 39.749C99.6418 39.511 99.9705 39.1767 100.22 38.746C100.481 38.304 100.611 37.777 100.611 37.165C100.611 36.553 100.481 36.0317 100.22 35.601C99.9705 35.159 99.6418 34.8247 99.2338 34.598C98.8258 34.36 98.3838 34.241 97.9078 34.241C97.4318 34.241 96.9842 34.36 96.5648 34.598C96.1568 34.8247 95.8225 35.159 95.5618 35.601C95.3125 36.0317 95.1878 36.553 95.1878 37.165C95.1878 37.777 95.3125 38.304 95.5618 38.746C95.8225 39.1767 96.1625 39.511 96.5818 39.749C97.0012 39.9757 97.4432 40.089 97.9078 40.089ZM108.031 45.444C107.271 45.444 106.614 45.3193 106.059 45.07C105.515 44.832 105.073 44.5203 104.733 44.135C104.393 43.761 104.149 43.3757 104.002 42.979L105.702 42.265C105.883 42.7183 106.172 43.0867 106.569 43.37C106.977 43.6647 107.464 43.812 108.031 43.812C108.835 43.812 109.464 43.574 109.918 43.098C110.371 42.622 110.598 41.9477 110.598 41.075V40.242H110.496C110.224 40.6387 109.85 40.9617 109.374 41.211C108.898 41.4603 108.348 41.585 107.725 41.585C106.988 41.585 106.308 41.398 105.685 41.024C105.073 40.65 104.58 40.1287 104.206 39.46C103.843 38.78 103.662 37.9867 103.662 37.08C103.662 36.162 103.843 35.3687 104.206 34.7C104.58 34.02 105.073 33.493 105.685 33.119C106.308 32.745 106.988 32.558 107.725 32.558C108.348 32.558 108.898 32.6827 109.374 32.932C109.85 33.17 110.224 33.4987 110.496 33.918H110.598V32.83H112.349V41.041C112.349 41.9817 112.162 42.7807 111.788 43.438C111.425 44.0953 110.921 44.594 110.275 44.934C109.629 45.274 108.881 45.444 108.031 45.444ZM108.048 39.919C108.501 39.919 108.92 39.8113 109.306 39.596C109.702 39.3693 110.014 39.0463 110.241 38.627C110.479 38.1963 110.598 37.6807 110.598 37.08C110.598 36.4453 110.479 35.9183 110.241 35.499C110.014 35.0797 109.702 34.7623 109.306 34.547C108.92 34.3317 108.501 34.224 108.048 34.224C107.594 34.224 107.169 34.3317 106.773 34.547C106.387 34.7623 106.076 35.0853 105.838 35.516C105.6 35.9353 105.481 36.4567 105.481 37.08C105.481 37.692 105.6 38.2133 105.838 38.644C106.076 39.0633 106.387 39.3807 106.773 39.596C107.169 39.8113 107.594 39.919 108.048 39.919ZM114.514 41.5V29.328H116.35V41.5H114.514ZM122.392 41.772C121.542 41.772 120.783 41.5737 120.114 41.177C119.446 40.7803 118.919 40.2363 118.533 39.545C118.159 38.8537 117.972 38.066 117.972 37.182C117.972 36.3547 118.154 35.5897 118.516 34.887C118.879 34.1843 119.383 33.6233 120.029 33.204C120.687 32.7733 121.44 32.558 122.29 32.558C123.186 32.558 123.945 32.7507 124.568 33.136C125.203 33.5213 125.685 34.0483 126.013 34.717C126.342 35.3857 126.506 36.1393 126.506 36.978C126.506 37.1027 126.501 37.216 126.489 37.318C126.489 37.42 126.484 37.4993 126.472 37.556H119.774C119.82 38.032 119.939 38.4457 120.131 38.797C120.381 39.239 120.709 39.5733 121.117 39.8C121.525 40.0267 121.967 40.14 122.443 40.14C123.021 40.14 123.503 40.0097 123.888 39.749C124.285 39.477 124.597 39.1427 124.823 38.746L126.336 39.477C125.962 40.157 125.452 40.7123 124.806 41.143C124.16 41.5623 123.356 41.772 122.392 41.772ZM119.876 36.179H124.687C124.676 35.9637 124.619 35.737 124.517 35.499C124.415 35.2497 124.268 35.023 124.075 34.819C123.883 34.615 123.639 34.4507 123.344 34.326C123.05 34.19 122.704 34.122 122.307 34.122C121.809 34.122 121.367 34.2523 120.981 34.513C120.596 34.7623 120.296 35.1137 120.08 35.567C119.99 35.7597 119.922 35.9637 119.876 36.179ZM132.483 41.5V29.328H136.376C137.657 29.328 138.756 29.5887 139.674 30.11C140.604 30.62 141.318 31.334 141.816 32.252C142.326 33.17 142.581 34.224 142.581 35.414C142.581 36.604 142.326 37.658 141.816 38.576C141.318 39.494 140.604 40.2137 139.674 40.735C138.756 41.245 137.657 41.5 136.376 41.5H132.483ZM134.353 39.732H136.325C137.243 39.732 138.031 39.562 138.688 39.222C139.346 38.8707 139.844 38.372 140.184 37.726C140.524 37.08 140.694 36.3093 140.694 35.414C140.694 34.5187 140.524 33.748 140.184 33.102C139.844 32.456 139.346 31.963 138.688 31.623C138.031 31.2717 137.243 31.096 136.325 31.096H134.353V39.732ZM148.125 41.772C147.275 41.772 146.515 41.5737 145.847 41.177C145.178 40.7803 144.651 40.2363 144.266 39.545C143.892 38.8537 143.705 38.066 143.705 37.182C143.705 36.3547 143.886 35.5897 144.249 34.887C144.611 34.1843 145.116 33.6233 145.762 33.204C146.419 32.7733 147.173 32.558 148.023 32.558C148.918 32.558 149.677 32.7507 150.301 33.136C150.935 33.5213 151.417 34.0483 151.746 34.717C152.074 35.3857 152.239 36.1393 152.239 36.978C152.239 37.1027 152.233 37.216 152.222 37.318C152.222 37.42 152.216 37.4993 152.205 37.556H145.507C145.552 38.032 145.671 38.4457 145.864 38.797C146.113 39.239 146.442 39.5733 146.85 39.8C147.258 40.0267 147.7 40.14 148.176 40.14C148.754 40.14 149.235 40.0097 149.621 39.749C150.017 39.477 150.329 39.1427 150.556 38.746L152.069 39.477C151.695 40.157 151.185 40.7123 150.539 41.143C149.893 41.5623 149.088 41.772 148.125 41.772ZM145.609 36.179H150.42C150.408 35.9637 150.352 35.737 150.25 35.499C150.148 35.2497 150 35.023 149.808 34.819C149.615 34.615 149.371 34.4507 149.077 34.326C148.782 34.19 148.436 34.122 148.04 34.122C147.541 34.122 147.099 34.2523 146.714 34.513C146.328 34.7623 146.028 35.1137 145.813 35.567C145.722 35.7597 145.654 35.9637 145.609 36.179ZM153.942 41.5V32.83H155.676V34.02H155.778C156.027 33.6007 156.396 33.255 156.883 32.983C157.382 32.6997 157.926 32.558 158.515 32.558C159.58 32.558 160.379 32.8753 160.912 33.51C161.445 34.1333 161.711 34.972 161.711 36.026V41.5H159.892V36.264C159.892 35.5613 159.716 35.0513 159.365 34.734C159.014 34.4053 158.555 34.241 157.988 34.241C157.546 34.241 157.161 34.3657 156.832 34.615C156.503 34.853 156.243 35.1703 156.05 35.567C155.869 35.9637 155.778 36.3887 155.778 36.842V41.5H153.942ZM166.44 41.772C165.817 41.772 165.262 41.6473 164.774 41.398C164.298 41.1487 163.919 40.8087 163.635 40.378C163.363 39.936 163.227 39.4317 163.227 38.865C163.227 38.2417 163.386 37.7147 163.703 37.284C164.032 36.8533 164.468 36.5247 165.012 36.298C165.556 36.0713 166.157 35.958 166.814 35.958C167.177 35.958 167.511 35.9863 167.817 36.043C168.135 36.0883 168.407 36.145 168.633 36.213C168.871 36.281 169.058 36.3547 169.194 36.434V35.975C169.194 35.4083 168.99 34.955 168.582 34.615C168.174 34.275 167.647 34.105 167.001 34.105C166.559 34.105 166.14 34.207 165.743 34.411C165.347 34.6037 165.029 34.87 164.791 35.21L163.533 34.241C163.783 33.8897 164.083 33.5893 164.434 33.34C164.797 33.0907 165.199 32.898 165.641 32.762C166.095 32.626 166.565 32.558 167.052 32.558C168.31 32.558 169.279 32.8697 169.959 33.493C170.639 34.105 170.979 34.9663 170.979 36.077V41.5H169.194V40.429H169.092C168.945 40.6557 168.741 40.871 168.48 41.075C168.231 41.279 167.931 41.4433 167.579 41.568C167.239 41.704 166.86 41.772 166.44 41.772ZM166.763 40.276C167.239 40.276 167.659 40.1627 168.021 39.936C168.395 39.7093 168.684 39.4147 168.888 39.052C169.092 38.678 169.194 38.2757 169.194 37.845C168.945 37.6977 168.639 37.5787 168.276 37.488C167.925 37.386 167.551 37.335 167.154 37.335C166.406 37.335 165.874 37.4823 165.556 37.777C165.239 38.0717 165.08 38.44 165.08 38.882C165.08 39.29 165.233 39.6243 165.539 39.885C165.845 40.1457 166.253 40.276 166.763 40.276ZM173.001 41.5V32.83H174.735V34.105H174.837C174.973 33.8103 175.165 33.5497 175.415 33.323C175.675 33.0963 175.97 32.915 176.299 32.779C176.639 32.643 176.99 32.575 177.353 32.575C177.591 32.575 177.789 32.592 177.948 32.626C178.118 32.6487 178.271 32.6883 178.407 32.745V34.649C178.191 34.5583 177.97 34.4847 177.744 34.428C177.528 34.3713 177.302 34.343 177.064 34.343C176.633 34.343 176.248 34.462 175.908 34.7C175.579 34.9267 175.318 35.2327 175.126 35.618C174.933 36.0033 174.837 36.434 174.837 36.91V41.5H173.001ZM179.824 41.5V32.83H181.558V34.02H181.66C181.909 33.6007 182.278 33.255 182.765 32.983C183.264 32.6997 183.808 32.558 184.397 32.558C185.462 32.558 186.261 32.8753 186.794 33.51C187.327 34.1333 187.593 34.972 187.593 36.026V41.5H185.774V36.264C185.774 35.5613 185.598 35.0513 185.247 34.734C184.896 34.4053 184.437 34.241 183.87 34.241C183.428 34.241 183.043 34.3657 182.714 34.615C182.385 34.853 182.125 35.1703 181.932 35.567C181.751 35.9637 181.66 36.3887 181.66 36.842V41.5H179.824ZM189.821 41.5V32.83H191.657V41.5H189.821ZM190.739 31.555C190.399 31.555 190.105 31.436 189.855 31.198C189.617 30.9487 189.498 30.654 189.498 30.314C189.498 29.9627 189.617 29.6737 189.855 29.447C190.105 29.209 190.399 29.09 190.739 29.09C191.091 29.09 191.385 29.209 191.623 29.447C191.861 29.6737 191.98 29.9627 191.98 30.314C191.98 30.654 191.861 30.9487 191.623 31.198C191.385 31.436 191.091 31.555 190.739 31.555ZM197.864 41.772C196.992 41.772 196.215 41.5737 195.535 41.177C194.867 40.7803 194.34 40.2363 193.954 39.545C193.58 38.8423 193.393 38.049 193.393 37.165C193.393 36.281 193.58 35.4933 193.954 34.802C194.34 34.1107 194.867 33.5667 195.535 33.17C196.215 32.762 196.992 32.558 197.864 32.558C198.828 32.558 199.638 32.7733 200.295 33.204C200.964 33.6347 201.44 34.2183 201.723 34.955L200.057 35.635C199.853 35.1703 199.559 34.8247 199.173 34.598C198.799 34.36 198.352 34.241 197.83 34.241C197.354 34.241 196.918 34.3657 196.521 34.615C196.125 34.853 195.807 35.1873 195.569 35.618C195.331 36.0487 195.212 36.5643 195.212 37.165C195.212 37.7543 195.331 38.27 195.569 38.712C195.807 39.154 196.125 39.494 196.521 39.732C196.918 39.97 197.354 40.089 197.83 40.089C198.386 40.089 198.856 39.9643 199.241 39.715C199.627 39.4657 199.927 39.1143 200.142 38.661L201.774 39.375C201.457 40.0663 200.964 40.6387 200.295 41.092C199.638 41.5453 198.828 41.772 197.864 41.772ZM203.484 41.5V32.83H205.32V41.5H203.484ZM204.402 31.555C204.062 31.555 203.768 31.436 203.518 31.198C203.28 30.9487 203.161 30.654 203.161 30.314C203.161 29.9627 203.28 29.6737 203.518 29.447C203.768 29.209 204.062 29.09 204.402 29.09C204.754 29.09 205.048 29.209 205.286 29.447C205.524 29.6737 205.643 29.9627 205.643 30.314C205.643 30.654 205.524 30.9487 205.286 31.198C205.048 31.436 204.754 31.555 204.402 31.555Z" fill="white"/>
</svg>
