<svg width="238" height="55" viewBox="0 0 238 55" fill="none" xmlns="http://www.w3.org/2000/svg">
<rect x="0.5" y="0.5" width="237" height="54" rx="27" fill="#1F1F1F"/>
<rect x="0.5" y="0.5" width="237" height="54" rx="27" stroke="#747775"/>
<path d="M57 23.791H21V18.1455C21 15.0809 23.6422 12.5001 26.7798 12.5001H51.2202C54.3578 12.5001 57 15.0809 57 18.1455V23.791Z" fill="#34A853"/>
<path d="M57 29H21V23C21 19.7429 23.6422 17 26.7798 17H51.2202C54.3578 17 57 19.7429 57 23V29Z" fill="#FBBC04"/>
<path d="M57 34H21V28C21 24.7429 23.6422 22 26.7798 22H51.2202C54.3578 22 57 24.7429 57 28V34Z" fill="#EA4335"/>
<path d="M21 25.2409L43.8493 30.4025C46.4795 31.0477 49.4384 30.4025 51.5753 28.7895L57 24.9183V37.0157C57 40.0804 54.3699 42.4999 51.2466 42.4999H26.7534C23.6301 42.4999 21 40.0804 21 37.0157V25.2409Z" fill="#4285F4"/>
<path d="M72.757 21.708C72.263 21.708 71.7907 21.6127 71.34 21.422C70.8893 21.2227 70.4907 20.9323 70.144 20.551C69.806 20.1697 69.5547 19.6973 69.39 19.134L70.742 18.588C70.8807 19.0907 71.1233 19.511 71.47 19.849C71.8167 20.187 72.25 20.356 72.77 20.356C73.0647 20.356 73.3377 20.304 73.589 20.2C73.849 20.096 74.057 19.9443 74.213 19.745C74.369 19.537 74.447 19.2857 74.447 18.991C74.447 18.7137 74.382 18.4797 74.252 18.289C74.122 18.0897 73.914 17.912 73.628 17.756C73.342 17.5913 72.978 17.431 72.536 17.275L71.951 17.067C71.6997 16.9717 71.444 16.8547 71.184 16.716C70.924 16.5773 70.6813 16.4083 70.456 16.209C70.2393 16.001 70.066 15.7583 69.936 15.481C69.806 15.2037 69.741 14.883 69.741 14.519C69.741 14.051 69.8623 13.6263 70.105 13.245C70.3563 12.8637 70.6987 12.5603 71.132 12.335C71.574 12.101 72.0853 11.984 72.666 11.984C73.264 11.984 73.7623 12.0923 74.161 12.309C74.5683 12.517 74.8847 12.7683 75.11 13.063C75.344 13.3577 75.5043 13.6393 75.591 13.908L74.304 14.454C74.252 14.272 74.1567 14.0943 74.018 13.921C73.888 13.7477 73.7103 13.6047 73.485 13.492C73.2683 13.3707 72.9997 13.31 72.679 13.31C72.4017 13.31 72.146 13.362 71.912 13.466C71.6867 13.57 71.5047 13.713 71.366 13.895C71.2273 14.0683 71.158 14.272 71.158 14.506C71.158 14.844 71.2967 15.1213 71.574 15.338C71.8513 15.546 72.2543 15.7367 72.783 15.91L73.381 16.118C73.6843 16.222 73.9833 16.3477 74.278 16.495C74.5727 16.6337 74.8413 16.8157 75.084 17.041C75.3267 17.2577 75.5173 17.5263 75.656 17.847C75.8033 18.159 75.877 18.5317 75.877 18.965C75.877 19.4417 75.7817 19.8577 75.591 20.213C75.409 20.5597 75.162 20.8457 74.85 21.071C74.5467 21.2877 74.2087 21.448 73.836 21.552C73.472 21.656 73.1123 21.708 72.757 21.708ZM77.2965 21.5V12.192H78.7005V14.74L78.6225 15.78H78.7005C78.8825 15.4593 79.1599 15.195 79.5325 14.987C79.9139 14.7703 80.3342 14.662 80.7935 14.662C81.3482 14.662 81.8075 14.7747 82.1715 15C82.5442 15.2253 82.8215 15.5373 83.0035 15.936C83.1855 16.326 83.2765 16.7853 83.2765 17.314V21.5H81.8855V17.496C81.8855 17.1407 81.8162 16.8503 81.6775 16.625C81.5475 16.3997 81.3742 16.2307 81.1575 16.118C80.9409 16.0053 80.6982 15.949 80.4295 15.949C80.0915 15.949 79.7925 16.0443 79.5325 16.235C79.2725 16.4257 79.0689 16.677 78.9215 16.989C78.7742 17.2923 78.7005 17.6173 78.7005 17.964V21.5H77.2965ZM84.9796 21.5V14.87H86.3836V21.5H84.9796ZM85.6816 13.895C85.4216 13.895 85.1963 13.804 85.0056 13.622C84.8236 13.4313 84.7326 13.206 84.7326 12.946C84.7326 12.6773 84.8236 12.4563 85.0056 12.283C85.1963 12.101 85.4216 12.01 85.6816 12.01C85.9503 12.01 86.1756 12.101 86.3576 12.283C86.5396 12.4563 86.6306 12.6773 86.6306 12.946C86.6306 13.206 86.5396 13.4313 86.3576 13.622C86.1756 13.804 85.9503 13.895 85.6816 13.895ZM88.1256 21.5V12.192H89.5296V17.678L92.3376 14.87H94.0796V14.948L91.5186 17.483L94.1706 21.422V21.5H92.5066L90.5306 18.458L89.5296 19.446V21.5H88.1256ZM97.9742 21.708C97.2895 21.708 96.6872 21.552 96.1672 21.24C95.6472 20.928 95.2398 20.5077 94.9452 19.979C94.6505 19.4417 94.5032 18.8437 94.5032 18.185C94.5032 17.5263 94.6505 16.9327 94.9452 16.404C95.2398 15.8667 95.6472 15.442 96.1672 15.13C96.6872 14.818 97.2895 14.662 97.9742 14.662C98.6502 14.662 99.2482 14.8223 99.7682 15.143C100.288 15.455 100.695 15.8753 100.99 16.404C101.285 16.9327 101.432 17.5263 101.432 18.185C101.432 18.8437 101.285 19.4417 100.99 19.979C100.695 20.5077 100.288 20.928 99.7682 21.24C99.2482 21.552 98.6502 21.708 97.9742 21.708ZM97.9742 20.421C98.3382 20.421 98.6762 20.3343 98.9882 20.161C99.3002 19.979 99.5515 19.7233 99.7422 19.394C99.9415 19.056 100.041 18.653 100.041 18.185C100.041 17.717 99.9415 17.3183 99.7422 16.989C99.5515 16.651 99.3002 16.3953 98.9882 16.222C98.6762 16.04 98.3382 15.949 97.9742 15.949C97.6102 15.949 97.2678 16.04 96.9472 16.222C96.6352 16.3953 96.3795 16.651 96.1802 16.989C95.9895 17.3183 95.8942 17.717 95.8942 18.185C95.8942 18.653 95.9895 19.056 96.1802 19.394C96.3795 19.7233 96.6395 19.979 96.9602 20.161C97.2808 20.3343 97.6188 20.421 97.9742 20.421ZM105.304 14.87H106.461V12.998H107.865V14.87H109.49V16.092H107.865V19.277C107.865 19.6063 107.93 19.8577 108.06 20.031C108.199 20.2043 108.429 20.291 108.749 20.291C108.905 20.291 109.044 20.2693 109.165 20.226C109.287 20.174 109.408 20.1133 109.529 20.044V21.409C109.382 21.4697 109.226 21.5173 109.061 21.552C108.897 21.5867 108.702 21.604 108.476 21.604C107.861 21.604 107.371 21.4263 107.007 21.071C106.643 20.707 106.461 20.2087 106.461 19.576V16.092H105.304V14.87ZM113.613 21.708C112.963 21.708 112.382 21.5563 111.871 21.253C111.359 20.9497 110.956 20.5337 110.662 20.005C110.376 19.4763 110.233 18.874 110.233 18.198C110.233 17.5653 110.371 16.9803 110.649 16.443C110.926 15.9057 111.312 15.4767 111.806 15.156C112.308 14.8267 112.885 14.662 113.535 14.662C114.219 14.662 114.8 14.8093 115.277 15.104C115.762 15.3987 116.13 15.8017 116.382 16.313C116.633 16.8243 116.759 17.4007 116.759 18.042C116.759 18.1373 116.754 18.224 116.746 18.302C116.746 18.38 116.741 18.4407 116.733 18.484H111.611C111.645 18.848 111.736 19.1643 111.884 19.433C112.074 19.771 112.326 20.0267 112.638 20.2C112.95 20.3733 113.288 20.46 113.652 20.46C114.094 20.46 114.462 20.3603 114.757 20.161C115.06 19.953 115.298 19.6973 115.472 19.394L116.629 19.953C116.343 20.473 115.953 20.8977 115.459 21.227C114.965 21.5477 114.349 21.708 113.613 21.708ZM111.689 17.431H115.368C115.359 17.2663 115.316 17.093 115.238 16.911C115.16 16.7203 115.047 16.547 114.9 16.391C114.752 16.235 114.566 16.1093 114.341 16.014C114.115 15.91 113.851 15.858 113.548 15.858C113.166 15.858 112.828 15.9577 112.534 16.157C112.239 16.3477 112.009 16.6163 111.845 16.963C111.775 17.1103 111.723 17.2663 111.689 17.431Z" fill="white"/>
<path d="M72.553 33.119V29.328H74.219V33.119H72.553ZM69.867 33.119V29.328H71.533V33.119H69.867ZM76.4864 41.5V29.328H80.6684C81.405 29.328 82.0737 29.4867 82.6744 29.804C83.275 30.11 83.751 30.5463 84.1024 31.113C84.465 31.6683 84.6464 32.3143 84.6464 33.051C84.6464 33.7763 84.465 34.4223 84.1024 34.989C83.751 35.5557 83.275 35.9977 82.6744 36.315C82.0737 36.621 81.405 36.774 80.6684 36.774H78.3564V41.5H76.4864ZM78.3564 35.006H80.7194C81.1614 35.006 81.5354 34.9153 81.8414 34.734C82.1474 34.5413 82.3797 34.2977 82.5384 34.003C82.7084 33.697 82.7934 33.3797 82.7934 33.051C82.7934 32.7223 82.7084 32.4107 82.5384 32.116C82.3797 31.8213 82.1474 31.5777 81.8414 31.385C81.5354 31.1923 81.1614 31.096 80.7194 31.096H78.3564V35.006ZM89.7399 41.772C88.8445 41.772 88.0569 41.568 87.3769 41.16C86.6969 40.752 86.1642 40.2023 85.7789 39.511C85.3935 38.8083 85.2009 38.0263 85.2009 37.165C85.2009 36.3037 85.3935 35.5273 85.7789 34.836C86.1642 34.1333 86.6969 33.578 87.3769 33.17C88.0569 32.762 88.8445 32.558 89.7399 32.558C90.6239 32.558 91.4059 32.7677 92.0859 33.187C92.7659 33.595 93.2985 34.1447 93.6839 34.836C94.0692 35.5273 94.2619 36.3037 94.2619 37.165C94.2619 38.0263 94.0692 38.8083 93.6839 39.511C93.2985 40.2023 92.7659 40.752 92.0859 41.16C91.4059 41.568 90.6239 41.772 89.7399 41.772ZM89.7399 40.089C90.2159 40.089 90.6579 39.9757 91.0659 39.749C91.4739 39.511 91.8025 39.1767 92.0519 38.746C92.3125 38.304 92.4429 37.777 92.4429 37.165C92.4429 36.553 92.3125 36.0317 92.0519 35.601C91.8025 35.159 91.4739 34.8247 91.0659 34.598C90.6579 34.36 90.2159 34.241 89.7399 34.241C89.2639 34.241 88.8162 34.36 88.3969 34.598C87.9889 34.8247 87.6545 35.159 87.3939 35.601C87.1445 36.0317 87.0199 36.553 87.0199 37.165C87.0199 37.777 87.1445 38.304 87.3939 38.746C87.6545 39.1767 87.9945 39.511 88.4139 39.749C88.8332 39.9757 89.2752 40.089 89.7399 40.089ZM102.077 32.83H103.59V30.382H105.426V32.83H107.551V34.428H105.426V38.593C105.426 39.0237 105.511 39.3523 105.681 39.579C105.862 39.8057 106.162 39.919 106.582 39.919C106.786 39.919 106.967 39.8907 107.126 39.834C107.284 39.766 107.443 39.6867 107.602 39.596V41.381C107.409 41.4603 107.205 41.5227 106.99 41.568C106.774 41.6133 106.525 41.636 106.242 41.636C105.426 41.636 104.78 41.4037 104.304 40.939C103.828 40.463 103.59 39.8113 103.59 38.984V34.428H102.077V32.83ZM95.7868 41.5V32.83H97.5208V34.105H97.6228C97.7815 33.7877 97.9912 33.5213 98.2518 33.306C98.5125 33.0793 98.8128 32.9037 99.1528 32.779C99.5042 32.6543 99.8612 32.592 100.224 32.592C100.394 32.592 100.53 32.5977 100.632 32.609C100.745 32.609 100.847 32.626 100.938 32.66V34.496C100.813 34.4507 100.677 34.4223 100.53 34.411C100.382 34.3883 100.212 34.377 100.02 34.377C99.5438 34.377 99.1245 34.4847 98.7618 34.7C98.3992 34.904 98.1158 35.1987 97.9118 35.584C97.7192 35.9693 97.6228 36.4283 97.6228 36.961V41.5H95.7868ZM113.082 41.772C112.186 41.772 111.399 41.568 110.719 41.16C110.039 40.752 109.506 40.2023 109.121 39.511C108.735 38.8083 108.543 38.0263 108.543 37.165C108.543 36.3037 108.735 35.5273 109.121 34.836C109.506 34.1333 110.039 33.578 110.719 33.17C111.399 32.762 112.186 32.558 113.082 32.558C113.966 32.558 114.748 32.7677 115.428 33.187C116.108 33.595 116.64 34.1447 117.026 34.836C117.411 35.5273 117.604 36.3037 117.604 37.165C117.604 38.0263 117.411 38.8083 117.026 39.511C116.64 40.2023 116.108 40.752 115.428 41.16C114.748 41.568 113.966 41.772 113.082 41.772ZM113.082 40.089C113.558 40.089 114 39.9757 114.408 39.749C114.816 39.511 115.144 39.1767 115.394 38.746C115.654 38.304 115.785 37.777 115.785 37.165C115.785 36.553 115.654 36.0317 115.394 35.601C115.144 35.159 114.816 34.8247 114.408 34.598C114 34.36 113.558 34.241 113.082 34.241C112.606 34.241 112.158 34.36 111.739 34.598C111.331 34.8247 110.996 35.159 110.736 35.601C110.486 36.0317 110.362 36.553 110.362 37.165C110.362 37.777 110.486 38.304 110.736 38.746C110.996 39.1767 111.336 39.511 111.756 39.749C112.175 39.9757 112.617 40.089 113.082 40.089ZM118.451 34.428V32.83H120.032V32.116C120.032 31.4927 120.162 30.9657 120.423 30.535C120.683 30.093 121.04 29.7587 121.494 29.532C121.947 29.3053 122.451 29.192 123.007 29.192C123.313 29.192 123.573 29.2147 123.789 29.26C124.015 29.294 124.202 29.3393 124.35 29.396V31.181C124.202 31.1243 124.032 31.0677 123.84 31.011C123.658 30.943 123.432 30.909 123.16 30.909C122.808 30.909 122.502 31.028 122.242 31.266C121.981 31.4927 121.851 31.827 121.851 32.269V32.83H124.027V34.428H121.851V41.5H120.032V34.428H118.451ZM129.335 41.772C128.439 41.772 127.652 41.568 126.972 41.16C126.292 40.752 125.759 40.2023 125.374 39.511C124.988 38.8083 124.796 38.0263 124.796 37.165C124.796 36.3037 124.988 35.5273 125.374 34.836C125.759 34.1333 126.292 33.578 126.972 33.17C127.652 32.762 128.439 32.558 129.335 32.558C130.219 32.558 131.001 32.7677 131.681 33.187C132.361 33.595 132.893 34.1447 133.279 34.836C133.664 35.5273 133.857 36.3037 133.857 37.165C133.857 38.0263 133.664 38.8083 133.279 39.511C132.893 40.2023 132.361 40.752 131.681 41.16C131.001 41.568 130.219 41.772 129.335 41.772ZM129.335 40.089C129.811 40.089 130.253 39.9757 130.661 39.749C131.069 39.511 131.397 39.1767 131.647 38.746C131.907 38.304 132.038 37.777 132.038 37.165C132.038 36.553 131.907 36.0317 131.647 35.601C131.397 35.159 131.069 34.8247 130.661 34.598C130.253 34.36 129.811 34.241 129.335 34.241C128.859 34.241 128.411 34.36 127.992 34.598C127.584 34.8247 127.249 35.159 126.989 35.601C126.739 36.0317 126.615 36.553 126.615 37.165C126.615 37.777 126.739 38.304 126.989 38.746C127.249 39.1767 127.589 39.511 128.009 39.749C128.428 39.9757 128.87 40.089 129.335 40.089ZM135.482 41.5V29.328H137.318V41.5H135.482ZM139.618 41.5V32.83H141.454V41.5H139.618ZM140.536 31.555C140.196 31.555 139.901 31.436 139.652 31.198C139.414 30.9487 139.295 30.654 139.295 30.314C139.295 29.9627 139.414 29.6737 139.652 29.447C139.901 29.209 140.196 29.09 140.536 29.09C140.887 29.09 141.182 29.209 141.42 29.447C141.658 29.6737 141.777 29.9627 141.777 30.314C141.777 30.654 141.658 30.9487 141.42 31.198C141.182 31.436 140.887 31.555 140.536 31.555ZM147.836 41.5V32.83H149.672V41.5H147.836ZM148.754 31.555C148.414 31.555 148.119 31.436 147.87 31.198C147.632 30.9487 147.513 30.654 147.513 30.314C147.513 29.9627 147.632 29.6737 147.87 29.447C148.119 29.209 148.414 29.09 148.754 29.09C149.105 29.09 149.4 29.209 149.638 29.447C149.876 29.6737 149.995 29.9627 149.995 30.314C149.995 30.654 149.876 30.9487 149.638 31.198C149.4 31.436 149.105 31.555 148.754 31.555ZM161.655 41.772C160.782 41.772 159.96 41.6133 159.19 41.296C158.419 40.9787 157.739 40.5367 157.15 39.97C156.572 39.392 156.113 38.7177 155.773 37.947C155.444 37.165 155.28 36.3207 155.28 35.414C155.28 34.5073 155.444 33.6687 155.773 32.898C156.113 32.116 156.572 31.4417 157.15 30.875C157.739 30.297 158.419 29.8493 159.19 29.532C159.96 29.2147 160.782 29.056 161.655 29.056C162.584 29.056 163.44 29.2203 164.222 29.549C165.015 29.8777 165.678 30.3367 166.211 30.926L164.919 32.201C164.658 31.9063 164.358 31.657 164.018 31.453C163.689 31.249 163.326 31.096 162.93 30.994C162.533 30.8807 162.108 30.824 161.655 30.824C161.054 30.824 160.482 30.9317 159.938 31.147C159.394 31.3623 158.912 31.674 158.493 32.082C158.085 32.4787 157.762 32.9603 157.524 33.527C157.286 34.0823 157.167 34.7113 157.167 35.414C157.167 36.1167 157.286 36.7513 157.524 37.318C157.773 37.8733 158.102 38.355 158.51 38.763C158.929 39.1597 159.411 39.4657 159.955 39.681C160.499 39.8963 161.071 40.004 161.672 40.004C162.227 40.004 162.743 39.9247 163.219 39.766C163.706 39.6073 164.131 39.3807 164.494 39.086C164.856 38.7913 165.151 38.4343 165.378 38.015C165.604 37.5843 165.746 37.1027 165.803 36.57H161.638V34.921H167.554C167.576 35.057 167.599 35.2157 167.622 35.397C167.644 35.567 167.656 35.7313 167.656 35.89V35.907C167.656 36.7797 167.503 37.5787 167.197 38.304C166.902 39.0293 166.488 39.6527 165.956 40.174C165.423 40.684 164.788 41.0807 164.052 41.364C163.326 41.636 162.527 41.772 161.655 41.772ZM173.13 41.772C172.234 41.772 171.447 41.568 170.767 41.16C170.087 40.752 169.554 40.2023 169.169 39.511C168.783 38.8083 168.591 38.0263 168.591 37.165C168.591 36.3037 168.783 35.5273 169.169 34.836C169.554 34.1333 170.087 33.578 170.767 33.17C171.447 32.762 172.234 32.558 173.13 32.558C174.014 32.558 174.796 32.7677 175.476 33.187C176.156 33.595 176.688 34.1447 177.074 34.836C177.459 35.5273 177.652 36.3037 177.652 37.165C177.652 38.0263 177.459 38.8083 177.074 39.511C176.688 40.2023 176.156 40.752 175.476 41.16C174.796 41.568 174.014 41.772 173.13 41.772ZM173.13 40.089C173.606 40.089 174.048 39.9757 174.456 39.749C174.864 39.511 175.192 39.1767 175.442 38.746C175.702 38.304 175.833 37.777 175.833 37.165C175.833 36.553 175.702 36.0317 175.442 35.601C175.192 35.159 174.864 34.8247 174.456 34.598C174.048 34.36 173.606 34.241 173.13 34.241C172.654 34.241 172.206 34.36 171.787 34.598C171.379 34.8247 171.044 35.159 170.784 35.601C170.534 36.0317 170.41 36.553 170.41 37.165C170.41 37.777 170.534 38.304 170.784 38.746C171.044 39.1767 171.384 39.511 171.804 39.749C172.223 39.9757 172.665 40.089 173.13 40.089ZM183.422 41.772C182.527 41.772 181.739 41.568 181.059 41.16C180.379 40.752 179.847 40.2023 179.461 39.511C179.076 38.8083 178.883 38.0263 178.883 37.165C178.883 36.3037 179.076 35.5273 179.461 34.836C179.847 34.1333 180.379 33.578 181.059 33.17C181.739 32.762 182.527 32.558 183.422 32.558C184.306 32.558 185.088 32.7677 185.768 33.187C186.448 33.595 186.981 34.1447 187.366 34.836C187.752 35.5273 187.944 36.3037 187.944 37.165C187.944 38.0263 187.752 38.8083 187.366 39.511C186.981 40.2023 186.448 40.752 185.768 41.16C185.088 41.568 184.306 41.772 183.422 41.772ZM183.422 40.089C183.898 40.089 184.34 39.9757 184.748 39.749C185.156 39.511 185.485 39.1767 185.734 38.746C185.995 38.304 186.125 37.777 186.125 37.165C186.125 36.553 185.995 36.0317 185.734 35.601C185.485 35.159 185.156 34.8247 184.748 34.598C184.34 34.36 183.898 34.241 183.422 34.241C182.946 34.241 182.499 34.36 182.079 34.598C181.671 34.8247 181.337 35.159 181.076 35.601C180.827 36.0317 180.702 36.553 180.702 37.165C180.702 37.777 180.827 38.304 181.076 38.746C181.337 39.1767 181.677 39.511 182.096 39.749C182.516 39.9757 182.958 40.089 183.422 40.089ZM193.545 45.444C192.786 45.444 192.129 45.3193 191.573 45.07C191.029 44.832 190.587 44.5203 190.247 44.135C189.907 43.761 189.664 43.3757 189.516 42.979L191.216 42.265C191.398 42.7183 191.687 43.0867 192.083 43.37C192.491 43.6647 192.979 43.812 193.545 43.812C194.35 43.812 194.979 43.574 195.432 43.098C195.886 42.622 196.112 41.9477 196.112 41.075V40.242H196.01C195.738 40.6387 195.364 40.9617 194.888 41.211C194.412 41.4603 193.863 41.585 193.239 41.585C192.503 41.585 191.823 41.398 191.199 41.024C190.587 40.65 190.094 40.1287 189.72 39.46C189.358 38.78 189.176 37.9867 189.176 37.08C189.176 36.162 189.358 35.3687 189.72 34.7C190.094 34.02 190.587 33.493 191.199 33.119C191.823 32.745 192.503 32.558 193.239 32.558C193.863 32.558 194.412 32.6827 194.888 32.932C195.364 33.17 195.738 33.4987 196.01 33.918H196.112V32.83H197.863V41.041C197.863 41.9817 197.676 42.7807 197.302 43.438C196.94 44.0953 196.435 44.594 195.789 44.934C195.143 45.274 194.395 45.444 193.545 45.444ZM193.562 39.919C194.016 39.919 194.435 39.8113 194.82 39.596C195.217 39.3693 195.529 39.0463 195.755 38.627C195.993 38.1963 196.112 37.6807 196.112 37.08C196.112 36.4453 195.993 35.9183 195.755 35.499C195.529 35.0797 195.217 34.7623 194.82 34.547C194.435 34.3317 194.016 34.224 193.562 34.224C193.109 34.224 192.684 34.3317 192.287 34.547C191.902 34.7623 191.59 35.0853 191.352 35.516C191.114 35.9353 190.995 36.4567 190.995 37.08C190.995 37.692 191.114 38.2133 191.352 38.644C191.59 39.0633 191.902 39.3807 192.287 39.596C192.684 39.8113 193.109 39.919 193.562 39.919ZM200.028 41.5V29.328H201.864V41.5H200.028ZM207.907 41.772C207.057 41.772 206.298 41.5737 205.629 41.177C204.96 40.7803 204.433 40.2363 204.048 39.545C203.674 38.8537 203.487 38.066 203.487 37.182C203.487 36.3547 203.668 35.5897 204.031 34.887C204.394 34.1843 204.898 33.6233 205.544 33.204C206.201 32.7733 206.955 32.558 207.805 32.558C208.7 32.558 209.46 32.7507 210.083 33.136C210.718 33.5213 211.199 34.0483 211.528 34.717C211.857 35.3857 212.021 36.1393 212.021 36.978C212.021 37.1027 212.015 37.216 212.004 37.318C212.004 37.42 211.998 37.4993 211.987 37.556H205.289C205.334 38.032 205.453 38.4457 205.646 38.797C205.895 39.239 206.224 39.5733 206.632 39.8C207.04 40.0267 207.482 40.14 207.958 40.14C208.536 40.14 209.018 40.0097 209.403 39.749C209.8 39.477 210.111 39.1427 210.338 38.746L211.851 39.477C211.477 40.157 210.967 40.7123 210.321 41.143C209.675 41.5623 208.87 41.772 207.907 41.772ZM205.391 36.179H210.202C210.191 35.9637 210.134 35.737 210.032 35.499C209.93 35.2497 209.783 35.023 209.59 34.819C209.397 34.615 209.154 34.4507 208.859 34.326C208.564 34.19 208.219 34.122 207.822 34.122C207.323 34.122 206.881 34.2523 206.496 34.513C206.111 34.7623 205.81 35.1137 205.595 35.567C205.504 35.7597 205.436 35.9637 205.391 36.179ZM216.206 33.119V29.328H217.872V33.119H216.206ZM213.52 33.119V29.328H215.186V33.119H213.52Z" fill="white"/>
</svg>
