<svg width="236" height="55" viewBox="0 0 236 55" fill="none" xmlns="http://www.w3.org/2000/svg">
<rect x="0.5" y="0.5" width="235" height="54" rx="27" fill="#1F1F1F"/>
<rect x="0.5" y="0.5" width="235" height="54" rx="27" stroke="#747775"/>
<path d="M57 23.791H21V18.1455C21 15.0809 23.6422 12.5001 26.7798 12.5001H51.2202C54.3578 12.5001 57 15.0809 57 18.1455V23.791Z" fill="#34A853"/>
<path d="M57 29H21V23C21 19.7429 23.6422 17 26.7798 17H51.2202C54.3578 17 57 19.7429 57 23V29Z" fill="#FBBC04"/>
<path d="M57 34H21V28C21 24.7429 23.6422 22 26.7798 22H51.2202C54.3578 22 57 24.7429 57 28V34Z" fill="#EA4335"/>
<path d="M21 25.2409L43.8493 30.4025C46.4795 31.0477 49.4384 30.4025 51.5753 28.7895L57 24.9183V37.0157C57 40.0804 54.3699 42.4999 51.2466 42.4999H26.7534C23.6301 42.4999 21 40.0804 21 37.0157V25.2409Z" fill="#4285F4"/>
<path d="M70.053 21.5V12.192H77.073V21.5H75.643V13.544H71.483V21.5H70.053ZM78.9339 24.308V14.87H80.2469V15.767H80.3249C80.4463 15.5763 80.6066 15.3987 80.8059 15.234C81.0139 15.0607 81.2566 14.922 81.5339 14.818C81.8113 14.714 82.1189 14.662 82.4569 14.662C83.0636 14.662 83.6053 14.8137 84.0819 15.117C84.5586 15.4203 84.9356 15.8363 85.2129 16.365C85.4989 16.8937 85.6419 17.5003 85.6419 18.185C85.6419 18.8697 85.4989 19.4763 85.2129 20.005C84.9356 20.5337 84.5586 20.9497 84.0819 21.253C83.6053 21.5563 83.0636 21.708 82.4569 21.708C81.9543 21.708 81.5166 21.5953 81.1439 21.37C80.7713 21.1447 80.4983 20.8933 80.3249 20.616H80.2469L80.3249 21.539V24.308H78.9339ZM82.2489 20.421C82.5956 20.421 82.9206 20.33 83.2239 20.148C83.5359 19.966 83.7829 19.706 83.9649 19.368C84.1556 19.03 84.2509 18.6357 84.2509 18.185C84.2509 17.7257 84.1556 17.3313 83.9649 17.002C83.7829 16.664 83.5359 16.404 83.2239 16.222C82.9206 16.04 82.5956 15.949 82.2489 15.949C81.9023 15.949 81.5773 16.04 81.2739 16.222C80.9706 16.404 80.7236 16.664 80.5329 17.002C80.3423 17.3313 80.2469 17.7257 80.2469 18.185C80.2469 18.6443 80.3423 19.043 80.5329 19.381C80.7236 19.7103 80.9706 19.966 81.2739 20.148C81.5773 20.33 81.9023 20.421 82.2489 20.421ZM86.8434 21.5V14.87H88.2474V18.263L88.1694 19.511H88.2474L91.5624 14.87H92.9534V21.5H91.5624V18.12L91.6404 16.872H91.5624L88.2474 21.5H86.8434ZM94.6003 21.5V14.87H96.0043V17.808H96.0823L98.6823 14.87H100.294V14.948L97.5253 17.977L100.398 21.422V21.5H98.7343L96.0823 18.237H96.0043V21.5H94.6003ZM103.218 21.708C102.742 21.708 102.317 21.6127 101.944 21.422C101.58 21.2313 101.29 20.9713 101.073 20.642C100.865 20.304 100.761 19.9183 100.761 19.485C100.761 19.0083 100.883 18.6053 101.125 18.276C101.377 17.9467 101.71 17.6953 102.126 17.522C102.542 17.3487 103.002 17.262 103.504 17.262C103.782 17.262 104.037 17.2837 104.271 17.327C104.514 17.3617 104.722 17.405 104.895 17.457C105.077 17.509 105.22 17.5653 105.324 17.626V17.275C105.324 16.8417 105.168 16.495 104.856 16.235C104.544 15.975 104.141 15.845 103.647 15.845C103.309 15.845 102.989 15.923 102.685 16.079C102.382 16.2263 102.139 16.43 101.957 16.69L100.995 15.949C101.186 15.6803 101.416 15.4507 101.684 15.26C101.962 15.0693 102.269 14.922 102.607 14.818C102.954 14.714 103.314 14.662 103.686 14.662C104.648 14.662 105.389 14.9003 105.909 15.377C106.429 15.845 106.689 16.5037 106.689 17.353V21.5H105.324V20.681H105.246C105.134 20.8543 104.978 21.019 104.778 21.175C104.588 21.331 104.358 21.4567 104.089 21.552C103.829 21.656 103.539 21.708 103.218 21.708ZM103.465 20.564C103.829 20.564 104.15 20.4773 104.427 20.304C104.713 20.1307 104.934 19.9053 105.09 19.628C105.246 19.342 105.324 19.0343 105.324 18.705C105.134 18.5923 104.9 18.5013 104.622 18.432C104.354 18.354 104.068 18.315 103.764 18.315C103.192 18.315 102.785 18.4277 102.542 18.653C102.3 18.8783 102.178 19.16 102.178 19.498C102.178 19.81 102.295 20.0657 102.529 20.265C102.763 20.4643 103.075 20.564 103.465 20.564ZM107.468 21.5V21.422L110.172 17.99L107.611 14.948V14.87H109.249L111.55 17.808H111.628V14.87H113.032V17.808H113.11L115.424 14.87H117.075V14.948L114.501 17.99L117.205 21.422V21.5H115.554L113.11 18.237H113.032V21.5H111.628V18.237H111.55L109.119 21.5H107.468ZM118.074 21.5V14.87H119.478V18.263L119.4 19.511H119.478L122.793 14.87H124.184V21.5H122.793V18.12L122.871 16.872H122.793L119.478 21.5H118.074ZM131.127 23.983C131.101 24.0437 131.071 24.1043 131.036 24.165C131.01 24.2343 130.993 24.282 130.984 24.308H129.489C129.532 24.2127 129.593 24.0783 129.671 23.905C129.758 23.7317 129.84 23.5583 129.918 23.385C129.97 23.2723 130.022 23.151 130.074 23.021C130.135 22.891 130.195 22.7567 130.256 22.618C130.325 22.4793 130.39 22.345 130.451 22.215L130.945 21.136L128.176 14.87H129.736L131.634 19.394H131.699L133.532 14.87H135.079L131.647 22.774C131.586 22.9213 131.517 23.0773 131.439 23.242C131.37 23.4067 131.305 23.554 131.244 23.684C131.192 23.8227 131.153 23.9223 131.127 23.983Z" fill="white"/>
<path d="M76.14 41.772C75.2673 41.772 74.4457 41.6133 73.675 41.296C72.9043 40.9787 72.2243 40.5367 71.635 39.97C71.057 39.392 70.598 38.7177 70.258 37.947C69.9293 37.165 69.765 36.3207 69.765 35.414C69.765 34.5073 69.9293 33.6687 70.258 32.898C70.598 32.116 71.057 31.4417 71.635 30.875C72.2243 30.297 72.9043 29.8493 73.675 29.532C74.4457 29.2147 75.2673 29.056 76.14 29.056C77.0693 29.056 77.925 29.2203 78.707 29.549C79.5003 29.8777 80.1633 30.3367 80.696 30.926L79.404 32.201C79.1433 31.9063 78.843 31.657 78.503 31.453C78.1743 31.249 77.8117 31.096 77.415 30.994C77.0183 30.8807 76.5933 30.824 76.14 30.824C75.5393 30.824 74.967 30.9317 74.423 31.147C73.879 31.3623 73.3973 31.674 72.978 32.082C72.57 32.4787 72.247 32.9603 72.009 33.527C71.771 34.0823 71.652 34.7113 71.652 35.414C71.652 36.1167 71.771 36.7513 72.009 37.318C72.2583 37.8733 72.587 38.355 72.995 38.763C73.4143 39.1597 73.896 39.4657 74.44 39.681C74.984 39.8963 75.5563 40.004 76.157 40.004C76.7123 40.004 77.228 39.9247 77.704 39.766C78.1913 39.6073 78.6163 39.3807 78.979 39.086C79.3417 38.7913 79.6363 38.4343 79.863 38.015C80.0897 37.5843 80.2313 37.1027 80.288 36.57H76.123V34.921H82.039C82.0617 35.057 82.0843 35.2157 82.107 35.397C82.1297 35.567 82.141 35.7313 82.141 35.89V35.907C82.141 36.7797 81.988 37.5787 81.682 38.304C81.3873 39.0293 80.9737 39.6527 80.441 40.174C79.9083 40.684 79.2737 41.0807 78.537 41.364C77.8117 41.636 77.0127 41.772 76.14 41.772ZM87.6149 41.772C86.7195 41.772 85.9319 41.568 85.2519 41.16C84.5719 40.752 84.0392 40.2023 83.6539 39.511C83.2685 38.8083 83.0759 38.0263 83.0759 37.165C83.0759 36.3037 83.2685 35.5273 83.6539 34.836C84.0392 34.1333 84.5719 33.578 85.2519 33.17C85.9319 32.762 86.7195 32.558 87.6149 32.558C88.4989 32.558 89.2809 32.7677 89.9609 33.187C90.6409 33.595 91.1735 34.1447 91.5589 34.836C91.9442 35.5273 92.1369 36.3037 92.1369 37.165C92.1369 38.0263 91.9442 38.8083 91.5589 39.511C91.1735 40.2023 90.6409 40.752 89.9609 41.16C89.2809 41.568 88.4989 41.772 87.6149 41.772ZM87.6149 40.089C88.0909 40.089 88.5329 39.9757 88.9409 39.749C89.3489 39.511 89.6775 39.1767 89.9269 38.746C90.1875 38.304 90.3179 37.777 90.3179 37.165C90.3179 36.553 90.1875 36.0317 89.9269 35.601C89.6775 35.159 89.3489 34.8247 88.9409 34.598C88.5329 34.36 88.0909 34.241 87.6149 34.241C87.1389 34.241 86.6912 34.36 86.2719 34.598C85.8639 34.8247 85.5295 35.159 85.2689 35.601C85.0195 36.0317 84.8949 36.553 84.8949 37.165C84.8949 37.777 85.0195 38.304 85.2689 38.746C85.5295 39.1767 85.8695 39.511 86.2889 39.749C86.7082 39.9757 87.1502 40.089 87.6149 40.089ZM97.9078 41.772C97.0125 41.772 96.2248 41.568 95.5448 41.16C94.8648 40.752 94.3322 40.2023 93.9468 39.511C93.5615 38.8083 93.3688 38.0263 93.3688 37.165C93.3688 36.3037 93.5615 35.5273 93.9468 34.836C94.3322 34.1333 94.8648 33.578 95.5448 33.17C96.2248 32.762 97.0125 32.558 97.9078 32.558C98.7918 32.558 99.5738 32.7677 100.254 33.187C100.934 33.595 101.467 34.1447 101.852 34.836C102.237 35.5273 102.43 36.3037 102.43 37.165C102.43 38.0263 102.237 38.8083 101.852 39.511C101.467 40.2023 100.934 40.752 100.254 41.16C99.5738 41.568 98.7918 41.772 97.9078 41.772ZM97.9078 40.089C98.3838 40.089 98.8258 39.9757 99.2338 39.749C99.6418 39.511 99.9705 39.1767 100.22 38.746C100.481 38.304 100.611 37.777 100.611 37.165C100.611 36.553 100.481 36.0317 100.22 35.601C99.9705 35.159 99.6418 34.8247 99.2338 34.598C98.8258 34.36 98.3838 34.241 97.9078 34.241C97.4318 34.241 96.9842 34.36 96.5648 34.598C96.1568 34.8247 95.8225 35.159 95.5618 35.601C95.3125 36.0317 95.1878 36.553 95.1878 37.165C95.1878 37.777 95.3125 38.304 95.5618 38.746C95.8225 39.1767 96.1625 39.511 96.5818 39.749C97.0012 39.9757 97.4432 40.089 97.9078 40.089ZM108.031 45.444C107.271 45.444 106.614 45.3193 106.059 45.07C105.515 44.832 105.073 44.5203 104.733 44.135C104.393 43.761 104.149 43.3757 104.002 42.979L105.702 42.265C105.883 42.7183 106.172 43.0867 106.569 43.37C106.977 43.6647 107.464 43.812 108.031 43.812C108.835 43.812 109.464 43.574 109.918 43.098C110.371 42.622 110.598 41.9477 110.598 41.075V40.242H110.496C110.224 40.6387 109.85 40.9617 109.374 41.211C108.898 41.4603 108.348 41.585 107.725 41.585C106.988 41.585 106.308 41.398 105.685 41.024C105.073 40.65 104.58 40.1287 104.206 39.46C103.843 38.78 103.662 37.9867 103.662 37.08C103.662 36.162 103.843 35.3687 104.206 34.7C104.58 34.02 105.073 33.493 105.685 33.119C106.308 32.745 106.988 32.558 107.725 32.558C108.348 32.558 108.898 32.6827 109.374 32.932C109.85 33.17 110.224 33.4987 110.496 33.918H110.598V32.83H112.349V41.041C112.349 41.9817 112.162 42.7807 111.788 43.438C111.425 44.0953 110.921 44.594 110.275 44.934C109.629 45.274 108.881 45.444 108.031 45.444ZM108.048 39.919C108.501 39.919 108.92 39.8113 109.306 39.596C109.702 39.3693 110.014 39.0463 110.241 38.627C110.479 38.1963 110.598 37.6807 110.598 37.08C110.598 36.4453 110.479 35.9183 110.241 35.499C110.014 35.0797 109.702 34.7623 109.306 34.547C108.92 34.3317 108.501 34.224 108.048 34.224C107.594 34.224 107.169 34.3317 106.773 34.547C106.387 34.7623 106.076 35.0853 105.838 35.516C105.6 35.9353 105.481 36.4567 105.481 37.08C105.481 37.692 105.6 38.2133 105.838 38.644C106.076 39.0633 106.387 39.3807 106.773 39.596C107.169 39.8113 107.594 39.919 108.048 39.919ZM114.514 41.5V29.328H116.35V41.5H114.514ZM122.392 41.772C121.542 41.772 120.783 41.5737 120.114 41.177C119.446 40.7803 118.919 40.2363 118.533 39.545C118.159 38.8537 117.972 38.066 117.972 37.182C117.972 36.3547 118.154 35.5897 118.516 34.887C118.879 34.1843 119.383 33.6233 120.029 33.204C120.687 32.7733 121.44 32.558 122.29 32.558C123.186 32.558 123.945 32.7507 124.568 33.136C125.203 33.5213 125.685 34.0483 126.013 34.717C126.342 35.3857 126.506 36.1393 126.506 36.978C126.506 37.1027 126.501 37.216 126.489 37.318C126.489 37.42 126.484 37.4993 126.472 37.556H119.774C119.82 38.032 119.939 38.4457 120.131 38.797C120.381 39.239 120.709 39.5733 121.117 39.8C121.525 40.0267 121.967 40.14 122.443 40.14C123.021 40.14 123.503 40.0097 123.888 39.749C124.285 39.477 124.597 39.1427 124.823 38.746L126.336 39.477C125.962 40.157 125.452 40.7123 124.806 41.143C124.16 41.5623 123.356 41.772 122.392 41.772ZM119.876 36.179H124.687C124.676 35.9637 124.619 35.737 124.517 35.499C124.415 35.2497 124.268 35.023 124.075 34.819C123.883 34.615 123.639 34.4507 123.344 34.326C123.05 34.19 122.704 34.122 122.307 34.122C121.809 34.122 121.367 34.2523 120.981 34.513C120.596 34.7623 120.296 35.1137 120.08 35.567C119.99 35.7597 119.922 35.9637 119.876 36.179ZM132.177 41.5V32.83H134.013V36.315H138.127V32.83H139.963V41.5H138.127V37.913H134.013V41.5H132.177ZM146.102 41.772C145.207 41.772 144.419 41.568 143.739 41.16C143.059 40.752 142.527 40.2023 142.141 39.511C141.756 38.8083 141.563 38.0263 141.563 37.165C141.563 36.3037 141.756 35.5273 142.141 34.836C142.527 34.1333 143.059 33.578 143.739 33.17C144.419 32.762 145.207 32.558 146.102 32.558C146.986 32.558 147.768 32.7677 148.448 33.187C149.128 33.595 149.661 34.1447 150.046 34.836C150.432 35.5273 150.624 36.3037 150.624 37.165C150.624 38.0263 150.432 38.8083 150.046 39.511C149.661 40.2023 149.128 40.752 148.448 41.16C147.768 41.568 146.986 41.772 146.102 41.772ZM146.102 40.089C146.578 40.089 147.02 39.9757 147.428 39.749C147.836 39.511 148.165 39.1767 148.414 38.746C148.675 38.304 148.805 37.777 148.805 37.165C148.805 36.553 148.675 36.0317 148.414 35.601C148.165 35.159 147.836 34.8247 147.428 34.598C147.02 34.36 146.578 34.241 146.102 34.241C145.626 34.241 145.179 34.36 144.759 34.598C144.351 34.8247 144.017 35.159 143.756 35.601C143.507 36.0317 143.382 36.553 143.382 37.165C143.382 37.777 143.507 38.304 143.756 38.746C144.017 39.1767 144.357 39.511 144.776 39.749C145.196 39.9757 145.638 40.089 146.102 40.089ZM152.149 41.5V32.83H156.45C156.96 32.83 157.413 32.932 157.81 33.136C158.218 33.3287 158.535 33.595 158.762 33.935C159 34.275 159.119 34.6547 159.119 35.074C159.119 35.5273 159.017 35.9183 158.813 36.247C158.62 36.5757 158.365 36.8193 158.048 36.978V37.08C158.479 37.25 158.819 37.505 159.068 37.845C159.329 38.185 159.459 38.576 159.459 39.018C159.459 39.528 159.323 39.97 159.051 40.344C158.79 40.718 158.45 41.007 158.031 41.211C157.612 41.4037 157.164 41.5 156.688 41.5H152.149ZM153.985 37.726V39.97H156.501C156.83 39.97 157.102 39.868 157.317 39.664C157.544 39.4487 157.657 39.1767 157.657 38.848C157.657 38.5307 157.544 38.2643 157.317 38.049C157.102 37.8337 156.83 37.726 156.501 37.726H153.985ZM153.985 34.326V36.366H156.229C156.535 36.366 156.79 36.2697 156.994 36.077C157.198 35.8843 157.3 35.6407 157.3 35.346C157.3 35.04 157.198 34.7963 156.994 34.615C156.79 34.4223 156.535 34.326 156.229 34.326H153.985ZM166.062 41.5V38.372C165.824 38.542 165.523 38.678 165.161 38.78C164.798 38.8707 164.401 38.916 163.971 38.916C162.973 38.916 162.174 38.627 161.574 38.049C160.984 37.471 160.69 36.689 160.69 35.703V32.83H162.526V35.516C162.526 36.06 162.679 36.4907 162.985 36.808C163.302 37.114 163.744 37.267 164.311 37.267C164.651 37.267 164.979 37.216 165.297 37.114C165.625 37.0007 165.88 36.8533 166.062 36.672V32.83H167.881V41.5H166.062ZM172.683 41.772C172.059 41.772 171.504 41.6473 171.017 41.398C170.541 41.1487 170.161 40.8087 169.878 40.378C169.606 39.936 169.47 39.4317 169.47 38.865C169.47 38.2417 169.628 37.7147 169.946 37.284C170.274 36.8533 170.711 36.5247 171.255 36.298C171.799 36.0713 172.399 35.958 173.057 35.958C173.419 35.958 173.754 35.9863 174.06 36.043C174.377 36.0883 174.649 36.145 174.876 36.213C175.114 36.281 175.301 36.3547 175.437 36.434V35.975C175.437 35.4083 175.233 34.955 174.825 34.615C174.417 34.275 173.89 34.105 173.244 34.105C172.802 34.105 172.382 34.207 171.986 34.411C171.589 34.6037 171.272 34.87 171.034 35.21L169.776 34.241C170.025 33.8897 170.325 33.5893 170.677 33.34C171.039 33.0907 171.442 32.898 171.884 32.762C172.337 32.626 172.807 32.558 173.295 32.558C174.553 32.558 175.522 32.8697 176.202 33.493C176.882 34.105 177.222 34.9663 177.222 36.077V41.5H175.437V40.429H175.335C175.187 40.6557 174.983 40.871 174.723 41.075C174.473 41.279 174.173 41.4433 173.822 41.568C173.482 41.704 173.102 41.772 172.683 41.772ZM173.006 40.276C173.482 40.276 173.901 40.1627 174.264 39.936C174.638 39.7093 174.927 39.4147 175.131 39.052C175.335 38.678 175.437 38.2757 175.437 37.845C175.187 37.6977 174.881 37.5787 174.519 37.488C174.167 37.386 173.793 37.335 173.397 37.335C172.649 37.335 172.116 37.4823 171.799 37.777C171.481 38.0717 171.323 38.44 171.323 38.882C171.323 39.29 171.476 39.6243 171.782 39.885C172.088 40.1457 172.496 40.276 173.006 40.276ZM179.243 41.5V32.83H181.079V36.315H185.193V32.83H187.029V41.5H185.193V37.913H181.079V41.5H179.243ZM189.171 41.5V32.83H191.007V37.267L190.905 38.899H191.007L195.342 32.83H197.161V41.5H195.342V37.08L195.444 35.448H195.342L191.007 41.5H189.171ZM199.314 41.5V32.83H201.15V36.672H201.252L204.652 32.83H206.76V32.932L203.139 36.893L206.896 41.398V41.5H204.72L201.252 37.233H201.15V41.5H199.314ZM211.154 44.747C211.12 44.8263 211.08 44.9057 211.035 44.985C211.001 45.0757 210.978 45.138 210.967 45.172H209.012C209.069 45.0473 209.148 44.8717 209.25 44.645C209.363 44.4183 209.471 44.1917 209.573 43.965C209.641 43.8177 209.709 43.659 209.777 43.489C209.856 43.319 209.936 43.1433 210.015 42.962C210.106 42.7807 210.191 42.605 210.27 42.435L210.916 41.024L207.295 32.83H209.335L211.817 38.746H211.902L214.299 32.83H216.322L211.834 43.166C211.755 43.3587 211.664 43.5627 211.562 43.778C211.471 43.9933 211.386 44.186 211.307 44.356C211.239 44.5373 211.188 44.6677 211.154 44.747Z" fill="white"/>
</svg>
