<svg width="216" height="55" viewBox="0 0 216 55" fill="none" xmlns="http://www.w3.org/2000/svg">
<rect x="0.5" y="0.5" width="215" height="54" rx="27" fill="#1F1F1F"/>
<rect x="0.5" y="0.5" width="215" height="54" rx="27" stroke="#747775"/>
<path d="M57 23.791H21V18.1455C21 15.0809 23.6422 12.5001 26.7798 12.5001H51.2202C54.3578 12.5001 57 15.0809 57 18.1455V23.791Z" fill="#34A853"/>
<path d="M57 29H21V23C21 19.7429 23.6422 17 26.7798 17H51.2202C54.3578 17 57 19.7429 57 23V29Z" fill="#FBBC04"/>
<path d="M57 34H21V28C21 24.7429 23.6422 22 26.7798 22H51.2202C54.3578 22 57 24.7429 57 28V34Z" fill="#EA4335"/>
<path d="M21 25.2409L43.8493 30.4025C46.4795 31.0477 49.4384 30.4025 51.5753 28.7895L57 24.9183V37.0157C57 40.0804 54.3699 42.4999 51.2466 42.4999H26.7534C23.6301 42.4999 21 40.0804 21 37.0157V25.2409Z" fill="#4285F4"/>
<path d="M69.195 21.5L72.705 12.192H74.33L77.853 21.5H76.28L75.422 19.108H71.626L70.768 21.5H69.195ZM74.941 17.782L73.914 14.935L73.563 13.869H73.485L73.134 14.935L72.107 17.782H74.941ZM78.8708 21.5V14.87H80.1968V15.78H80.2748C80.4654 15.4593 80.7471 15.195 81.1198 14.987C81.5011 14.7703 81.9171 14.662 82.3678 14.662C83.1824 14.662 83.7934 14.9047 84.2008 15.39C84.6081 15.8667 84.8118 16.508 84.8118 17.314V21.5H83.4208V17.496C83.4208 16.9587 83.2864 16.5687 83.0178 16.326C82.7491 16.0747 82.3981 15.949 81.9648 15.949C81.6268 15.949 81.3321 16.0443 81.0808 16.235C80.8294 16.417 80.6301 16.6597 80.4828 16.963C80.3441 17.2663 80.2748 17.5913 80.2748 17.938V21.5H78.8708ZM89.3383 24.516C88.7576 24.516 88.255 24.4207 87.8303 24.23C87.4143 24.048 87.0763 23.8097 86.8163 23.515C86.5563 23.229 86.37 22.9343 86.2573 22.631L87.5573 22.085C87.696 22.4317 87.917 22.7133 88.2203 22.93C88.5323 23.1553 88.905 23.268 89.3383 23.268C89.9536 23.268 90.4346 23.086 90.7813 22.722C91.128 22.358 91.3013 21.8423 91.3013 21.175V20.538H91.2233C91.0153 20.8413 90.7293 21.0883 90.3653 21.279C90.0013 21.4697 89.581 21.565 89.1043 21.565C88.541 21.565 88.021 21.422 87.5443 21.136C87.0763 20.85 86.6993 20.4513 86.4133 19.94C86.136 19.42 85.9973 18.8133 85.9973 18.12C85.9973 17.418 86.136 16.8113 86.4133 16.3C86.6993 15.78 87.0763 15.377 87.5443 15.091C88.021 14.805 88.541 14.662 89.1043 14.662C89.581 14.662 90.0013 14.7573 90.3653 14.948C90.7293 15.13 91.0153 15.3813 91.2233 15.702H91.3013V14.87H92.6403V21.149C92.6403 21.8683 92.4973 22.4793 92.2113 22.982C91.934 23.4847 91.5483 23.866 91.0543 24.126C90.5603 24.386 89.9883 24.516 89.3383 24.516ZM89.3513 20.291C89.698 20.291 90.0186 20.2087 90.3133 20.044C90.6166 19.8707 90.855 19.6237 91.0283 19.303C91.2103 18.9737 91.3013 18.5793 91.3013 18.12C91.3013 17.6347 91.2103 17.2317 91.0283 16.911C90.855 16.5903 90.6166 16.3477 90.3133 16.183C90.0186 16.0183 89.698 15.936 89.3513 15.936C89.0046 15.936 88.6796 16.0183 88.3763 16.183C88.0816 16.3477 87.8433 16.5947 87.6613 16.924C87.4793 17.2447 87.3883 17.6433 87.3883 18.12C87.3883 18.588 87.4793 18.9867 87.6613 19.316C87.8433 19.6367 88.0816 19.8793 88.3763 20.044C88.6796 20.2087 89.0046 20.291 89.3513 20.291ZM96.2994 21.708C95.8227 21.708 95.3981 21.6127 95.0254 21.422C94.6614 21.2313 94.3711 20.9713 94.1544 20.642C93.9464 20.304 93.8424 19.9183 93.8424 19.485C93.8424 19.0083 93.9637 18.6053 94.2064 18.276C94.4577 17.9467 94.7914 17.6953 95.2074 17.522C95.6234 17.3487 96.0827 17.262 96.5854 17.262C96.8627 17.262 97.1184 17.2837 97.3524 17.327C97.5951 17.3617 97.8031 17.405 97.9764 17.457C98.1584 17.509 98.3014 17.5653 98.4054 17.626V17.275C98.4054 16.8417 98.2494 16.495 97.9374 16.235C97.6254 15.975 97.2224 15.845 96.7284 15.845C96.3904 15.845 96.0697 15.923 95.7664 16.079C95.4631 16.2263 95.2204 16.43 95.0384 16.69L94.0764 15.949C94.2671 15.6803 94.4967 15.4507 94.7654 15.26C95.0427 15.0693 95.3504 14.922 95.6884 14.818C96.0351 14.714 96.3947 14.662 96.7674 14.662C97.7294 14.662 98.4704 14.9003 98.9904 15.377C99.5104 15.845 99.7704 16.5037 99.7704 17.353V21.5H98.4054V20.681H98.3274C98.2147 20.8543 98.0587 21.019 97.8594 21.175C97.6687 21.331 97.4391 21.4567 97.1704 21.552C96.9104 21.656 96.6201 21.708 96.2994 21.708ZM96.5464 20.564C96.9104 20.564 97.2311 20.4773 97.5084 20.304C97.7944 20.1307 98.0154 19.9053 98.1714 19.628C98.3274 19.342 98.4054 19.0343 98.4054 18.705C98.2147 18.5923 97.9807 18.5013 97.7034 18.432C97.4347 18.354 97.1487 18.315 96.8454 18.315C96.2734 18.315 95.8661 18.4277 95.6234 18.653C95.3807 18.8783 95.2594 19.16 95.2594 19.498C95.2594 19.81 95.3764 20.0657 95.6104 20.265C95.8444 20.4643 96.1564 20.564 96.5464 20.564ZM101.329 21.5V12.192H102.733V21.5H101.329ZM104.492 21.5V14.87H105.896V21.5H104.492ZM105.194 13.895C104.934 13.895 104.709 13.804 104.518 13.622C104.336 13.4313 104.245 13.206 104.245 12.946C104.245 12.6773 104.336 12.4563 104.518 12.283C104.709 12.101 104.934 12.01 105.194 12.01C105.463 12.01 105.688 12.101 105.87 12.283C106.052 12.4563 106.143 12.6773 106.143 12.946C106.143 13.206 106.052 13.4313 105.87 13.622C105.688 13.804 105.463 13.895 105.194 13.895ZM109.655 21.708C109.178 21.708 108.754 21.6127 108.381 21.422C108.017 21.2313 107.727 20.9713 107.51 20.642C107.302 20.304 107.198 19.9183 107.198 19.485C107.198 19.0083 107.319 18.6053 107.562 18.276C107.813 17.9467 108.147 17.6953 108.563 17.522C108.979 17.3487 109.438 17.262 109.941 17.262C110.218 17.262 110.474 17.2837 110.708 17.327C110.951 17.3617 111.159 17.405 111.332 17.457C111.514 17.509 111.657 17.5653 111.761 17.626V17.275C111.761 16.8417 111.605 16.495 111.293 16.235C110.981 15.975 110.578 15.845 110.084 15.845C109.746 15.845 109.425 15.923 109.122 16.079C108.819 16.2263 108.576 16.43 108.394 16.69L107.432 15.949C107.623 15.6803 107.852 15.4507 108.121 15.26C108.398 15.0693 108.706 14.922 109.044 14.818C109.391 14.714 109.75 14.662 110.123 14.662C111.085 14.662 111.826 14.9003 112.346 15.377C112.866 15.845 113.126 16.5037 113.126 17.353V21.5H111.761V20.681H111.683C111.57 20.8543 111.414 21.019 111.215 21.175C111.024 21.331 110.795 21.4567 110.526 21.552C110.266 21.656 109.976 21.708 109.655 21.708ZM109.902 20.564C110.266 20.564 110.587 20.4773 110.864 20.304C111.15 20.1307 111.371 19.9053 111.527 19.628C111.683 19.342 111.761 19.0343 111.761 18.705C111.57 18.5923 111.336 18.5013 111.059 18.432C110.79 18.354 110.504 18.315 110.201 18.315C109.629 18.315 109.222 18.4277 108.979 18.653C108.736 18.8783 108.615 19.16 108.615 19.498C108.615 19.81 108.732 20.0657 108.966 20.265C109.2 20.4643 109.512 20.564 109.902 20.564ZM117.706 21.5V12.192H119.11V17.678L121.918 14.87H123.66V14.948L121.099 17.483L123.751 21.422V21.5H122.087L120.111 18.458L119.11 19.446V21.5H117.706ZM126.016 21.5L123.897 14.87H125.418L126.783 19.641H126.835L128.33 14.87H129.773L131.268 19.641H131.32L132.685 14.87H134.18L132.048 21.5H130.579L129.045 16.703H128.993L127.472 21.5H126.016ZM137.988 21.708C137.338 21.708 136.757 21.5563 136.246 21.253C135.734 20.9497 135.331 20.5337 135.037 20.005C134.751 19.4763 134.608 18.874 134.608 18.198C134.608 17.5653 134.746 16.9803 135.024 16.443C135.301 15.9057 135.687 15.4767 136.181 15.156C136.683 14.8267 137.26 14.662 137.91 14.662C138.594 14.662 139.175 14.8093 139.652 15.104C140.137 15.3987 140.505 15.8017 140.757 16.313C141.008 16.8243 141.134 17.4007 141.134 18.042C141.134 18.1373 141.129 18.224 141.121 18.302C141.121 18.38 141.116 18.4407 141.108 18.484H135.986C136.02 18.848 136.111 19.1643 136.259 19.433C136.449 19.771 136.701 20.0267 137.013 20.2C137.325 20.3733 137.663 20.46 138.027 20.46C138.469 20.46 138.837 20.3603 139.132 20.161C139.435 19.953 139.673 19.6973 139.847 19.394L141.004 19.953C140.718 20.473 140.328 20.8977 139.834 21.227C139.34 21.5477 138.724 21.708 137.988 21.708ZM136.064 17.431H139.743C139.734 17.2663 139.691 17.093 139.613 16.911C139.535 16.7203 139.422 16.547 139.275 16.391C139.127 16.235 138.941 16.1093 138.716 16.014C138.49 15.91 138.226 15.858 137.923 15.858C137.541 15.858 137.203 15.9577 136.909 16.157C136.614 16.3477 136.384 16.6163 136.22 16.963C136.15 17.1103 136.098 17.2663 136.064 17.431ZM142.436 21.5V14.87H143.762V15.78H143.84C144.031 15.4593 144.313 15.195 144.685 14.987C145.067 14.7703 145.483 14.662 145.933 14.662C146.748 14.662 147.359 14.9047 147.766 15.39C148.174 15.8667 148.377 16.508 148.377 17.314V21.5H146.986V17.496C146.986 16.9587 146.852 16.5687 146.583 16.326C146.315 16.0747 145.964 15.949 145.53 15.949C145.192 15.949 144.898 16.0443 144.646 16.235C144.395 16.417 144.196 16.6597 144.048 16.963C143.91 17.2663 143.84 17.5913 143.84 17.938V21.5H142.436ZM152.061 23.983C152.035 24.0437 152.005 24.1043 151.97 24.165C151.944 24.2343 151.927 24.282 151.918 24.308H150.423C150.467 24.2127 150.527 24.0783 150.605 23.905C150.692 23.7317 150.774 23.5583 150.852 23.385C150.904 23.2723 150.956 23.151 151.008 23.021C151.069 22.891 151.13 22.7567 151.19 22.618C151.26 22.4793 151.325 22.345 151.385 22.215L151.879 21.136L149.11 14.87H150.67L152.568 19.394H152.633L154.466 14.87H156.013L152.581 22.774C152.521 22.9213 152.451 23.0773 152.373 23.242C152.304 23.4067 152.239 23.554 152.178 23.684C152.126 23.8227 152.087 23.9223 152.061 23.983ZM159.722 21.708C159.072 21.708 158.491 21.5563 157.98 21.253C157.469 20.9497 157.066 20.5337 156.771 20.005C156.485 19.4763 156.342 18.874 156.342 18.198C156.342 17.5653 156.481 16.9803 156.758 16.443C157.035 15.9057 157.421 15.4767 157.915 15.156C158.418 14.8267 158.994 14.662 159.644 14.662C160.329 14.662 160.909 14.8093 161.386 15.104C161.871 15.3987 162.24 15.8017 162.491 16.313C162.742 16.8243 162.868 17.4007 162.868 18.042C162.868 18.1373 162.864 18.224 162.855 18.302C162.855 18.38 162.851 18.4407 162.842 18.484H157.72C157.755 18.848 157.846 19.1643 157.993 19.433C158.184 19.771 158.435 20.0267 158.747 20.2C159.059 20.3733 159.397 20.46 159.761 20.46C160.203 20.46 160.571 20.3603 160.866 20.161C161.169 19.953 161.408 19.6973 161.581 19.394L162.738 19.953C162.452 20.473 162.062 20.8977 161.568 21.227C161.074 21.5477 160.459 21.708 159.722 21.708ZM157.798 17.431H161.477C161.468 17.2663 161.425 17.093 161.347 16.911C161.269 16.7203 161.156 16.547 161.009 16.391C160.862 16.235 160.675 16.1093 160.45 16.014C160.225 15.91 159.96 15.858 159.657 15.858C159.276 15.858 158.938 15.9577 158.643 16.157C158.348 16.3477 158.119 16.6163 157.954 16.963C157.885 17.1103 157.833 17.2663 157.798 17.431Z" fill="white"/>
<path d="M70.377 41.5V29.328H74.559C75.2957 29.328 75.9643 29.4867 76.565 29.804C77.1657 30.11 77.6417 30.5463 77.993 31.113C78.3557 31.6683 78.537 32.3143 78.537 33.051C78.537 33.7763 78.3557 34.4223 77.993 34.989C77.6417 35.5557 77.1657 35.9977 76.565 36.315C75.9643 36.621 75.2957 36.774 74.559 36.774H72.247V41.5H70.377ZM72.247 35.006H74.61C75.052 35.006 75.426 34.9153 75.732 34.734C76.038 34.5413 76.2703 34.2977 76.429 34.003C76.599 33.697 76.684 33.3797 76.684 33.051C76.684 32.7223 76.599 32.4107 76.429 32.116C76.2703 31.8213 76.038 31.5777 75.732 31.385C75.426 31.1923 75.052 31.096 74.61 31.096H72.247V35.006ZM83.6305 41.772C82.7352 41.772 81.9475 41.568 81.2675 41.16C80.5875 40.752 80.0548 40.2023 79.6695 39.511C79.2842 38.8083 79.0915 38.0263 79.0915 37.165C79.0915 36.3037 79.2842 35.5273 79.6695 34.836C80.0548 34.1333 80.5875 33.578 81.2675 33.17C81.9475 32.762 82.7352 32.558 83.6305 32.558C84.5145 32.558 85.2965 32.7677 85.9765 33.187C86.6565 33.595 87.1892 34.1447 87.5745 34.836C87.9598 35.5273 88.1525 36.3037 88.1525 37.165C88.1525 38.0263 87.9598 38.8083 87.5745 39.511C87.1892 40.2023 86.6565 40.752 85.9765 41.16C85.2965 41.568 84.5145 41.772 83.6305 41.772ZM83.6305 40.089C84.1065 40.089 84.5485 39.9757 84.9565 39.749C85.3645 39.511 85.6932 39.1767 85.9425 38.746C86.2032 38.304 86.3335 37.777 86.3335 37.165C86.3335 36.553 86.2032 36.0317 85.9425 35.601C85.6932 35.159 85.3645 34.8247 84.9565 34.598C84.5485 34.36 84.1065 34.241 83.6305 34.241C83.1545 34.241 82.7068 34.36 82.2875 34.598C81.8795 34.8247 81.5452 35.159 81.2845 35.601C81.0352 36.0317 80.9105 36.553 80.9105 37.165C80.9105 37.777 81.0352 38.304 81.2845 38.746C81.5452 39.1767 81.8852 39.511 82.3045 39.749C82.7238 39.9757 83.1658 40.089 83.6305 40.089ZM93.8555 41.772C92.9828 41.772 92.2065 41.5737 91.5265 41.177C90.8578 40.7803 90.3308 40.2363 89.9455 39.545C89.5715 38.8423 89.3845 38.049 89.3845 37.165C89.3845 36.281 89.5715 35.4933 89.9455 34.802C90.3308 34.1107 90.8578 33.5667 91.5265 33.17C92.2065 32.762 92.9828 32.558 93.8555 32.558C94.8188 32.558 95.6291 32.7733 96.2865 33.204C96.9551 33.6347 97.4311 34.2183 97.7145 34.955L96.0485 35.635C95.8445 35.1703 95.5498 34.8247 95.1645 34.598C94.7905 34.36 94.3428 34.241 93.8215 34.241C93.3455 34.241 92.9091 34.3657 92.5125 34.615C92.1158 34.853 91.7985 35.1873 91.5605 35.618C91.3225 36.0487 91.2035 36.5643 91.2035 37.165C91.2035 37.7543 91.3225 38.27 91.5605 38.712C91.7985 39.154 92.1158 39.494 92.5125 39.732C92.9091 39.97 93.3455 40.089 93.8215 40.089C94.3768 40.089 94.8471 39.9643 95.2325 39.715C95.6178 39.4657 95.9181 39.1143 96.1335 38.661L97.7655 39.375C97.4481 40.0663 96.9551 40.6387 96.2865 41.092C95.6291 41.5453 94.8188 41.772 93.8555 41.772ZM99.3396 41.5V29.328H101.176V32.66L101.074 34.02H101.176C101.414 33.6007 101.776 33.255 102.264 32.983C102.762 32.6997 103.312 32.558 103.913 32.558C104.638 32.558 105.239 32.7053 105.715 33C106.202 33.2947 106.565 33.7027 106.803 34.224C107.041 34.734 107.16 35.3347 107.16 36.026V41.5H105.341V36.264C105.341 35.7993 105.25 35.4197 105.069 35.125C104.899 34.8303 104.672 34.6093 104.389 34.462C104.105 34.3147 103.788 34.241 103.437 34.241C102.995 34.241 102.604 34.3657 102.264 34.615C101.924 34.8643 101.657 35.193 101.465 35.601C101.272 35.9977 101.176 36.4227 101.176 36.876V41.5H99.3396ZM109.387 41.5V32.83H111.223V41.5H109.387ZM110.305 31.555C109.965 31.555 109.67 31.436 109.421 31.198C109.183 30.9487 109.064 30.654 109.064 30.314C109.064 29.9627 109.183 29.6737 109.421 29.447C109.67 29.209 109.965 29.09 110.305 29.09C110.656 29.09 110.951 29.209 111.189 29.447C111.427 29.6737 111.546 29.9627 111.546 30.314C111.546 30.654 111.427 30.9487 111.189 31.198C110.951 31.436 110.656 31.555 110.305 31.555ZM120.426 44.747C120.392 44.8263 120.353 44.9057 120.307 44.985C120.273 45.0757 120.251 45.138 120.239 45.172H118.284C118.341 45.0473 118.42 44.8717 118.522 44.645C118.636 44.4183 118.743 44.1917 118.845 43.965C118.913 43.8177 118.981 43.659 119.049 43.489C119.129 43.319 119.208 43.1433 119.287 42.962C119.378 42.7807 119.463 42.605 119.542 42.435L120.188 41.024L116.567 32.83H118.607L121.089 38.746H121.174L123.571 32.83H125.594L121.106 43.166C121.027 43.3587 120.936 43.5627 120.834 43.778C120.744 43.9933 120.659 44.186 120.579 44.356C120.511 44.5373 120.46 44.6677 120.426 44.747ZM129.104 41.772C128.48 41.772 127.925 41.6473 127.438 41.398C126.962 41.1487 126.582 40.8087 126.299 40.378C126.027 39.936 125.891 39.4317 125.891 38.865C125.891 38.2417 126.049 37.7147 126.367 37.284C126.695 36.8533 127.132 36.5247 127.676 36.298C128.22 36.0713 128.82 35.958 129.478 35.958C129.84 35.958 130.175 35.9863 130.481 36.043C130.798 36.0883 131.07 36.145 131.297 36.213C131.535 36.281 131.722 36.3547 131.858 36.434V35.975C131.858 35.4083 131.654 34.955 131.246 34.615C130.838 34.275 130.311 34.105 129.665 34.105C129.223 34.105 128.803 34.207 128.407 34.411C128.01 34.6037 127.693 34.87 127.455 35.21L126.197 34.241C126.446 33.8897 126.746 33.5893 127.098 33.34C127.46 33.0907 127.863 32.898 128.305 32.762C128.758 32.626 129.228 32.558 129.716 32.558C130.974 32.558 131.943 32.8697 132.623 33.493C133.303 34.105 133.643 34.9663 133.643 36.077V41.5H131.858V40.429H131.756C131.608 40.6557 131.404 40.871 131.144 41.075C130.894 41.279 130.594 41.4433 130.243 41.568C129.903 41.704 129.523 41.772 129.104 41.772ZM129.427 40.276C129.903 40.276 130.322 40.1627 130.685 39.936C131.059 39.7093 131.348 39.4147 131.552 39.052C131.756 38.678 131.858 38.2757 131.858 37.845C131.608 37.6977 131.302 37.5787 130.94 37.488C130.588 37.386 130.214 37.335 129.818 37.335C129.07 37.335 128.537 37.4823 128.22 37.777C127.902 38.0717 127.744 38.44 127.744 38.882C127.744 39.29 127.897 39.6243 128.203 39.885C128.509 40.1457 128.917 40.276 129.427 40.276ZM145.369 41.772C144.496 41.772 143.674 41.6133 142.904 41.296C142.133 40.9787 141.453 40.5367 140.864 39.97C140.286 39.392 139.827 38.7177 139.487 37.947C139.158 37.165 138.994 36.3207 138.994 35.414C138.994 34.5073 139.158 33.6687 139.487 32.898C139.827 32.116 140.286 31.4417 140.864 30.875C141.453 30.297 142.133 29.8493 142.904 29.532C143.674 29.2147 144.496 29.056 145.369 29.056C146.298 29.056 147.154 29.2203 147.936 29.549C148.729 29.8777 149.392 30.3367 149.925 30.926L148.633 32.201C148.372 31.9063 148.072 31.657 147.732 31.453C147.403 31.249 147.04 31.096 146.644 30.994C146.247 30.8807 145.822 30.824 145.369 30.824C144.768 30.824 144.196 30.9317 143.652 31.147C143.108 31.3623 142.626 31.674 142.207 32.082C141.799 32.4787 141.476 32.9603 141.238 33.527C141 34.0823 140.881 34.7113 140.881 35.414C140.881 36.1167 141 36.7513 141.238 37.318C141.487 37.8733 141.816 38.355 142.224 38.763C142.643 39.1597 143.125 39.4657 143.669 39.681C144.213 39.8963 144.785 40.004 145.386 40.004C145.941 40.004 146.457 39.9247 146.933 39.766C147.42 39.6073 147.845 39.3807 148.208 39.086C148.57 38.7913 148.865 38.4343 149.092 38.015C149.318 37.5843 149.46 37.1027 149.517 36.57H145.352V34.921H151.268C151.29 35.057 151.313 35.2157 151.336 35.397C151.358 35.567 151.37 35.7313 151.37 35.89V35.907C151.37 36.7797 151.217 37.5787 150.911 38.304C150.616 39.0293 150.202 39.6527 149.67 40.174C149.137 40.684 148.502 41.0807 147.766 41.364C147.04 41.636 146.241 41.772 145.369 41.772ZM156.843 41.772C155.948 41.772 155.16 41.568 154.48 41.16C153.8 40.752 153.268 40.2023 152.882 39.511C152.497 38.8083 152.304 38.0263 152.304 37.165C152.304 36.3037 152.497 35.5273 152.882 34.836C153.268 34.1333 153.8 33.578 154.48 33.17C155.16 32.762 155.948 32.558 156.843 32.558C157.727 32.558 158.509 32.7677 159.189 33.187C159.869 33.595 160.402 34.1447 160.787 34.836C161.173 35.5273 161.365 36.3037 161.365 37.165C161.365 38.0263 161.173 38.8083 160.787 39.511C160.402 40.2023 159.869 40.752 159.189 41.16C158.509 41.568 157.727 41.772 156.843 41.772ZM156.843 40.089C157.319 40.089 157.761 39.9757 158.169 39.749C158.577 39.511 158.906 39.1767 159.155 38.746C159.416 38.304 159.546 37.777 159.546 37.165C159.546 36.553 159.416 36.0317 159.155 35.601C158.906 35.159 158.577 34.8247 158.169 34.598C157.761 34.36 157.319 34.241 156.843 34.241C156.367 34.241 155.92 34.36 155.5 34.598C155.092 34.8247 154.758 35.159 154.497 35.601C154.248 36.0317 154.123 36.553 154.123 37.165C154.123 37.777 154.248 38.304 154.497 38.746C154.758 39.1767 155.098 39.511 155.517 39.749C155.937 39.9757 156.379 40.089 156.843 40.089ZM167.136 41.772C166.241 41.772 165.453 41.568 164.773 41.16C164.093 40.752 163.561 40.2023 163.175 39.511C162.79 38.8083 162.597 38.0263 162.597 37.165C162.597 36.3037 162.79 35.5273 163.175 34.836C163.561 34.1333 164.093 33.578 164.773 33.17C165.453 32.762 166.241 32.558 167.136 32.558C168.02 32.558 168.802 32.7677 169.482 33.187C170.162 33.595 170.695 34.1447 171.08 34.836C171.466 35.5273 171.658 36.3037 171.658 37.165C171.658 38.0263 171.466 38.8083 171.08 39.511C170.695 40.2023 170.162 40.752 169.482 41.16C168.802 41.568 168.02 41.772 167.136 41.772ZM167.136 40.089C167.612 40.089 168.054 39.9757 168.462 39.749C168.87 39.511 169.199 39.1767 169.448 38.746C169.709 38.304 169.839 37.777 169.839 37.165C169.839 36.553 169.709 36.0317 169.448 35.601C169.199 35.159 168.87 34.8247 168.462 34.598C168.054 34.36 167.612 34.241 167.136 34.241C166.66 34.241 166.213 34.36 165.793 34.598C165.385 34.8247 165.051 35.159 164.79 35.601C164.541 36.0317 164.416 36.553 164.416 37.165C164.416 37.777 164.541 38.304 164.79 38.746C165.051 39.1767 165.391 39.511 165.81 39.749C166.23 39.9757 166.672 40.089 167.136 40.089ZM177.259 45.444C176.5 45.444 175.843 45.3193 175.287 45.07C174.743 44.832 174.301 44.5203 173.961 44.135C173.621 43.761 173.378 43.3757 173.23 42.979L174.93 42.265C175.112 42.7183 175.401 43.0867 175.797 43.37C176.205 43.6647 176.693 43.812 177.259 43.812C178.064 43.812 178.693 43.574 179.146 43.098C179.6 42.622 179.826 41.9477 179.826 41.075V40.242H179.724C179.452 40.6387 179.078 40.9617 178.602 41.211C178.126 41.4603 177.577 41.585 176.953 41.585C176.217 41.585 175.537 41.398 174.913 41.024C174.301 40.65 173.808 40.1287 173.434 39.46C173.072 38.78 172.89 37.9867 172.89 37.08C172.89 36.162 173.072 35.3687 173.434 34.7C173.808 34.02 174.301 33.493 174.913 33.119C175.537 32.745 176.217 32.558 176.953 32.558C177.577 32.558 178.126 32.6827 178.602 32.932C179.078 33.17 179.452 33.4987 179.724 33.918H179.826V32.83H181.577V41.041C181.577 41.9817 181.39 42.7807 181.016 43.438C180.654 44.0953 180.149 44.594 179.503 44.934C178.857 45.274 178.109 45.444 177.259 45.444ZM177.276 39.919C177.73 39.919 178.149 39.8113 178.534 39.596C178.931 39.3693 179.243 39.0463 179.469 38.627C179.707 38.1963 179.826 37.6807 179.826 37.08C179.826 36.4453 179.707 35.9183 179.469 35.499C179.243 35.0797 178.931 34.7623 178.534 34.547C178.149 34.3317 177.73 34.224 177.276 34.224C176.823 34.224 176.398 34.3317 176.001 34.547C175.616 34.7623 175.304 35.0853 175.066 35.516C174.828 35.9353 174.709 36.4567 174.709 37.08C174.709 37.692 174.828 38.2133 175.066 38.644C175.304 39.0633 175.616 39.3807 176.001 39.596C176.398 39.8113 176.823 39.919 177.276 39.919ZM183.742 41.5V29.328H185.578V41.5H183.742ZM191.621 41.772C190.771 41.772 190.012 41.5737 189.343 41.177C188.674 40.7803 188.147 40.2363 187.762 39.545C187.388 38.8537 187.201 38.066 187.201 37.182C187.201 36.3547 187.382 35.5897 187.745 34.887C188.108 34.1843 188.612 33.6233 189.258 33.204C189.915 32.7733 190.669 32.558 191.519 32.558C192.414 32.558 193.174 32.7507 193.797 33.136C194.432 33.5213 194.913 34.0483 195.242 34.717C195.571 35.3857 195.735 36.1393 195.735 36.978C195.735 37.1027 195.729 37.216 195.718 37.318C195.718 37.42 195.712 37.4993 195.701 37.556H189.003C189.048 38.032 189.167 38.4457 189.36 38.797C189.609 39.239 189.938 39.5733 190.346 39.8C190.754 40.0267 191.196 40.14 191.672 40.14C192.25 40.14 192.732 40.0097 193.117 39.749C193.514 39.477 193.825 39.1427 194.052 38.746L195.565 39.477C195.191 40.157 194.681 40.7123 194.035 41.143C193.389 41.5623 192.584 41.772 191.621 41.772ZM189.105 36.179H193.916C193.905 35.9637 193.848 35.737 193.746 35.499C193.644 35.2497 193.497 35.023 193.304 34.819C193.111 34.615 192.868 34.4507 192.573 34.326C192.278 34.19 191.933 34.122 191.536 34.122C191.037 34.122 190.595 34.2523 190.21 34.513C189.825 34.7623 189.524 35.1137 189.309 35.567C189.218 35.7597 189.15 35.9637 189.105 36.179Z" fill="white"/>
</svg>
