<svg width="201" height="55" viewBox="0 0 201 55" fill="none" xmlns="http://www.w3.org/2000/svg">
<rect x="0.5" y="0.5" width="200" height="54" rx="27" fill="#1F1F1F"/>
<rect x="0.5" y="0.5" width="200" height="54" rx="27" stroke="#747775"/>
<path d="M57 23.791H21V18.1455C21 15.0809 23.6422 12.5001 26.7798 12.5001H51.2202C54.3578 12.5001 57 15.0809 57 18.1455V23.791Z" fill="#34A853"/>
<path d="M57 29H21V23C21 19.7429 23.6422 17 26.7798 17H51.2202C54.3578 17 57 19.7429 57 23V29Z" fill="#FBBC04"/>
<path d="M57 34H21V28C21 24.7429 23.6422 22 26.7798 22H51.2202C54.3578 22 57 24.7429 57 28V34Z" fill="#EA4335"/>
<path d="M21 25.2409L43.8493 30.4025C46.4795 31.0477 49.4384 30.4025 51.5753 28.7895L57 24.9183V37.0157C57 40.0804 54.3699 42.4999 51.2466 42.4999H26.7534C23.6301 42.4999 21 40.0804 21 37.0157V25.2409Z" fill="#4285F4"/>
<path d="M74.46 21.708C73.7927 21.708 73.1643 21.5867 72.575 21.344C71.9857 21.1013 71.4657 20.7633 71.015 20.33C70.573 19.888 70.222 19.3723 69.962 18.783C69.7107 18.185 69.585 17.5393 69.585 16.846C69.585 16.1527 69.7107 15.5113 69.962 14.922C70.222 14.324 70.573 13.8083 71.015 13.375C71.4657 12.933 71.9857 12.5907 72.575 12.348C73.1643 12.1053 73.7927 11.984 74.46 11.984C75.1707 11.984 75.825 12.1097 76.423 12.361C77.0297 12.6123 77.5367 12.9633 77.944 13.414L76.956 14.389C76.7567 14.1637 76.527 13.973 76.267 13.817C76.0157 13.661 75.7383 13.544 75.435 13.466C75.1317 13.3793 74.8067 13.336 74.46 13.336C74.0007 13.336 73.563 13.4183 73.147 13.583C72.731 13.7477 72.3627 13.986 72.042 14.298C71.73 14.6013 71.483 14.9697 71.301 15.403C71.119 15.8277 71.028 16.3087 71.028 16.846C71.028 17.3833 71.119 17.8687 71.301 18.302C71.4917 18.7267 71.743 19.095 72.055 19.407C72.3757 19.7103 72.744 19.9443 73.16 20.109C73.576 20.2737 74.0137 20.356 74.473 20.356C74.8977 20.356 75.292 20.2953 75.656 20.174C76.0287 20.0527 76.3537 19.8793 76.631 19.654C76.9083 19.4287 77.1337 19.1557 77.307 18.835C77.4803 18.5057 77.5887 18.1373 77.632 17.73H74.447V16.469H78.971C78.9883 16.573 79.0057 16.6943 79.023 16.833C79.0403 16.963 79.049 17.0887 79.049 17.21V17.223C79.049 17.8903 78.932 18.5013 78.698 19.056C78.4727 19.6107 78.1563 20.0873 77.749 20.486C77.3417 20.876 76.8563 21.1793 76.293 21.396C75.7383 21.604 75.1273 21.708 74.46 21.708ZM83.2349 21.708C82.5502 21.708 81.9479 21.552 81.4279 21.24C80.9079 20.928 80.5006 20.5077 80.2059 19.979C79.9112 19.4417 79.7639 18.8437 79.7639 18.185C79.7639 17.5263 79.9112 16.9327 80.2059 16.404C80.5006 15.8667 80.9079 15.442 81.4279 15.13C81.9479 14.818 82.5502 14.662 83.2349 14.662C83.9109 14.662 84.5089 14.8223 85.0289 15.143C85.5489 15.455 85.9562 15.8753 86.2509 16.404C86.5456 16.9327 86.6929 17.5263 86.6929 18.185C86.6929 18.8437 86.5456 19.4417 86.2509 19.979C85.9562 20.5077 85.5489 20.928 85.0289 21.24C84.5089 21.552 83.9109 21.708 83.2349 21.708ZM83.2349 20.421C83.5989 20.421 83.9369 20.3343 84.2489 20.161C84.5609 19.979 84.8122 19.7233 85.0029 19.394C85.2022 19.056 85.3019 18.653 85.3019 18.185C85.3019 17.717 85.2022 17.3183 85.0029 16.989C84.8122 16.651 84.5609 16.3953 84.2489 16.222C83.9369 16.04 83.5989 15.949 83.2349 15.949C82.8709 15.949 82.5286 16.04 82.2079 16.222C81.8959 16.3953 81.6402 16.651 81.4409 16.989C81.2502 17.3183 81.1549 17.717 81.1549 18.185C81.1549 18.653 81.2502 19.056 81.4409 19.394C81.6402 19.7233 81.9002 19.979 82.2209 20.161C82.5416 20.3343 82.8796 20.421 83.2349 20.421ZM91.106 21.708C90.4213 21.708 89.819 21.552 89.299 21.24C88.779 20.928 88.3717 20.5077 88.077 19.979C87.7823 19.4417 87.635 18.8437 87.635 18.185C87.635 17.5263 87.7823 16.9327 88.077 16.404C88.3717 15.8667 88.779 15.442 89.299 15.13C89.819 14.818 90.4213 14.662 91.106 14.662C91.782 14.662 92.38 14.8223 92.9 15.143C93.42 15.455 93.8273 15.8753 94.122 16.404C94.4167 16.9327 94.564 17.5263 94.564 18.185C94.564 18.8437 94.4167 19.4417 94.122 19.979C93.8273 20.5077 93.42 20.928 92.9 21.24C92.38 21.552 91.782 21.708 91.106 21.708ZM91.106 20.421C91.47 20.421 91.808 20.3343 92.12 20.161C92.432 19.979 92.6833 19.7233 92.874 19.394C93.0733 19.056 93.173 18.653 93.173 18.185C93.173 17.717 93.0733 17.3183 92.874 16.989C92.6833 16.651 92.432 16.3953 92.12 16.222C91.808 16.04 91.47 15.949 91.106 15.949C90.742 15.949 90.3997 16.04 90.079 16.222C89.767 16.3953 89.5113 16.651 89.312 16.989C89.1213 17.3183 89.026 17.717 89.026 18.185C89.026 18.653 89.1213 19.056 89.312 19.394C89.5113 19.7233 89.7713 19.979 90.092 20.161C90.4127 20.3343 90.7507 20.421 91.106 20.421ZM98.8471 24.516C98.2664 24.516 97.7638 24.4207 97.3391 24.23C96.9231 24.048 96.5851 23.8097 96.3251 23.515C96.0651 23.229 95.8788 22.9343 95.7661 22.631L97.0661 22.085C97.2048 22.4317 97.4258 22.7133 97.7291 22.93C98.0411 23.1553 98.4138 23.268 98.8471 23.268C99.4624 23.268 99.9434 23.086 100.29 22.722C100.637 22.358 100.81 21.8423 100.81 21.175V20.538H100.732C100.524 20.8413 100.238 21.0883 99.8741 21.279C99.5101 21.4697 99.0898 21.565 98.6131 21.565C98.0498 21.565 97.5298 21.422 97.0531 21.136C96.5851 20.85 96.2081 20.4513 95.9221 19.94C95.6448 19.42 95.5061 18.8133 95.5061 18.12C95.5061 17.418 95.6448 16.8113 95.9221 16.3C96.2081 15.78 96.5851 15.377 97.0531 15.091C97.5298 14.805 98.0498 14.662 98.6131 14.662C99.0898 14.662 99.5101 14.7573 99.8741 14.948C100.238 15.13 100.524 15.3813 100.732 15.702H100.81V14.87H102.149V21.149C102.149 21.8683 102.006 22.4793 101.72 22.982C101.443 23.4847 101.057 23.866 100.563 24.126C100.069 24.386 99.4971 24.516 98.8471 24.516ZM98.8601 20.291C99.2068 20.291 99.5274 20.2087 99.8221 20.044C100.125 19.8707 100.364 19.6237 100.537 19.303C100.719 18.9737 100.81 18.5793 100.81 18.12C100.81 17.6347 100.719 17.2317 100.537 16.911C100.364 16.5903 100.125 16.3477 99.8221 16.183C99.5274 16.0183 99.2068 15.936 98.8601 15.936C98.5134 15.936 98.1884 16.0183 97.8851 16.183C97.5904 16.3477 97.3521 16.5947 97.1701 16.924C96.9881 17.2447 96.8971 17.6433 96.8971 18.12C96.8971 18.588 96.9881 18.9867 97.1701 19.316C97.3521 19.6367 97.5904 19.8793 97.8851 20.044C98.1884 20.2087 98.5134 20.291 98.8601 20.291ZM103.805 21.5V12.192H105.209V21.5H103.805ZM109.829 21.708C109.179 21.708 108.599 21.5563 108.087 21.253C107.576 20.9497 107.173 20.5337 106.878 20.005C106.592 19.4763 106.449 18.874 106.449 18.198C106.449 17.5653 106.588 16.9803 106.865 16.443C107.143 15.9057 107.528 15.4767 108.022 15.156C108.525 14.8267 109.101 14.662 109.751 14.662C110.436 14.662 111.017 14.8093 111.493 15.104C111.979 15.3987 112.347 15.8017 112.598 16.313C112.85 16.8243 112.975 17.4007 112.975 18.042C112.975 18.1373 112.971 18.224 112.962 18.302C112.962 18.38 112.958 18.4407 112.949 18.484H107.827C107.862 18.848 107.953 19.1643 108.1 19.433C108.291 19.771 108.542 20.0267 108.854 20.2C109.166 20.3733 109.504 20.46 109.868 20.46C110.31 20.46 110.679 20.3603 110.973 20.161C111.277 19.953 111.515 19.6973 111.688 19.394L112.845 19.953C112.559 20.473 112.169 20.8977 111.675 21.227C111.181 21.5477 110.566 21.708 109.829 21.708ZM107.905 17.431H111.584C111.576 17.2663 111.532 17.093 111.454 16.911C111.376 16.7203 111.264 16.547 111.116 16.391C110.969 16.235 110.783 16.1093 110.557 16.014C110.332 15.91 110.068 15.858 109.764 15.858C109.383 15.858 109.045 15.9577 108.75 16.157C108.456 16.3477 108.226 16.6163 108.061 16.963C107.992 17.1103 107.94 17.2663 107.905 17.431ZM118.69 21.5L116.194 12.192H117.78L119.262 18.237L119.418 19.043H119.496L119.691 18.237L121.563 12.192H122.993L124.787 18.237L124.982 19.03H125.06L125.216 18.237L126.698 12.192H128.271L125.814 21.5H124.306L122.525 15.325L122.317 14.454H122.239L122.018 15.325L120.159 21.5H118.69ZM130.881 21.708C130.405 21.708 129.98 21.6127 129.607 21.422C129.243 21.2313 128.953 20.9713 128.736 20.642C128.528 20.304 128.424 19.9183 128.424 19.485C128.424 19.0083 128.546 18.6053 128.788 18.276C129.04 17.9467 129.373 17.6953 129.789 17.522C130.205 17.3487 130.665 17.262 131.167 17.262C131.445 17.262 131.7 17.2837 131.934 17.327C132.177 17.3617 132.385 17.405 132.558 17.457C132.74 17.509 132.883 17.5653 132.987 17.626V17.275C132.987 16.8417 132.831 16.495 132.519 16.235C132.207 15.975 131.804 15.845 131.31 15.845C130.972 15.845 130.652 15.923 130.348 16.079C130.045 16.2263 129.802 16.43 129.62 16.69L128.658 15.949C128.849 15.6803 129.079 15.4507 129.347 15.26C129.625 15.0693 129.932 14.922 130.27 14.818C130.617 14.714 130.977 14.662 131.349 14.662C132.311 14.662 133.052 14.9003 133.572 15.377C134.092 15.845 134.352 16.5037 134.352 17.353V21.5H132.987V20.681H132.909C132.797 20.8543 132.641 21.019 132.441 21.175C132.251 21.331 132.021 21.4567 131.752 21.552C131.492 21.656 131.202 21.708 130.881 21.708ZM131.128 20.564C131.492 20.564 131.813 20.4773 132.09 20.304C132.376 20.1307 132.597 19.9053 132.753 19.628C132.909 19.342 132.987 19.0343 132.987 18.705C132.797 18.5923 132.563 18.5013 132.285 18.432C132.017 18.354 131.731 18.315 131.427 18.315C130.855 18.315 130.448 18.4277 130.205 18.653C129.963 18.8783 129.841 19.16 129.841 19.498C129.841 19.81 129.958 20.0657 130.192 20.265C130.426 20.4643 130.738 20.564 131.128 20.564ZM135.911 21.5V12.192H137.315V21.5H135.911ZM138.983 21.5V12.192H140.387V21.5H138.983ZM145.008 21.708C144.358 21.708 143.777 21.5563 143.266 21.253C142.755 20.9497 142.352 20.5337 142.057 20.005C141.771 19.4763 141.628 18.874 141.628 18.198C141.628 17.5653 141.767 16.9803 142.044 16.443C142.321 15.9057 142.707 15.4767 143.201 15.156C143.704 14.8267 144.28 14.662 144.93 14.662C145.615 14.662 146.195 14.8093 146.672 15.104C147.157 15.3987 147.526 15.8017 147.777 16.313C148.028 16.8243 148.154 17.4007 148.154 18.042C148.154 18.1373 148.15 18.224 148.141 18.302C148.141 18.38 148.137 18.4407 148.128 18.484H143.006C143.041 18.848 143.132 19.1643 143.279 19.433C143.47 19.771 143.721 20.0267 144.033 20.2C144.345 20.3733 144.683 20.46 145.047 20.46C145.489 20.46 145.857 20.3603 146.152 20.161C146.455 19.953 146.694 19.6973 146.867 19.394L148.024 19.953C147.738 20.473 147.348 20.8977 146.854 21.227C146.36 21.5477 145.745 21.708 145.008 21.708ZM143.084 17.431H146.763C146.754 17.2663 146.711 17.093 146.633 16.911C146.555 16.7203 146.442 16.547 146.295 16.391C146.148 16.235 145.961 16.1093 145.736 16.014C145.511 15.91 145.246 15.858 144.943 15.858C144.562 15.858 144.224 15.9577 143.929 16.157C143.634 16.3477 143.405 16.6163 143.24 16.963C143.171 17.1103 143.119 17.2663 143.084 17.431ZM148.811 14.87H149.968V12.998H151.372V14.87H152.997V16.092H151.372V19.277C151.372 19.6063 151.437 19.8577 151.567 20.031C151.706 20.2043 151.936 20.291 152.256 20.291C152.412 20.291 152.551 20.2693 152.672 20.226C152.794 20.174 152.915 20.1133 153.036 20.044V21.409C152.889 21.4697 152.733 21.5173 152.568 21.552C152.404 21.5867 152.209 21.604 151.983 21.604C151.368 21.604 150.878 21.4263 150.514 21.071C150.15 20.707 149.968 20.2087 149.968 19.576V16.092H148.811V14.87ZM154.643 21.5V13.856H155.969V20.343H163.951V21.5H154.643ZM165.184 21.5V13.934C165.184 13.0673 164.993 12.413 164.612 11.971C164.23 11.5203 163.684 11.295 162.974 11.295C162.419 11.295 161.977 11.412 161.648 11.646C161.318 11.88 161.154 12.2007 161.154 12.608C161.154 12.9893 161.288 13.2927 161.557 13.518C161.825 13.7433 162.181 13.856 162.623 13.856V14.922L162.311 14.896C161.817 14.87 161.383 14.753 161.011 14.545C160.638 14.337 160.348 14.0597 160.14 13.713C159.932 13.3663 159.828 12.972 159.828 12.53C159.828 12.0273 159.962 11.594 160.231 11.23C160.499 10.8573 160.872 10.567 161.349 10.359C161.825 10.151 162.384 10.047 163.026 10.047C164.118 10.047 164.971 10.3807 165.587 11.048C166.202 11.7067 166.51 12.6297 166.51 13.817V21.5H165.184ZM171.296 21.708C170.724 21.708 170.213 21.5607 169.762 21.266C169.312 20.9627 168.956 20.551 168.696 20.031C168.445 19.5023 168.319 18.9043 168.319 18.237C168.319 17.3097 168.484 16.5037 168.813 15.819C169.143 15.1343 169.611 14.6013 170.217 14.22C170.824 13.8387 171.535 13.648 172.349 13.648C173.398 13.648 174.23 13.9687 174.845 14.61C175.461 15.2513 175.803 16.1657 175.872 17.353L175.937 18.471C175.981 19.173 176.145 19.6887 176.431 20.018C176.726 20.3387 177.129 20.499 177.64 20.499C178.143 20.499 178.529 20.3127 178.797 19.94C179.075 19.5673 179.213 19.043 179.213 18.367C179.213 17.6477 179.07 16.9717 178.784 16.339C178.498 15.7063 178.061 15.0997 177.471 14.519L178.459 13.648C179.17 14.324 179.694 15.052 180.032 15.832C180.37 16.6033 180.539 17.4483 180.539 18.367C180.539 19.043 180.418 19.6323 180.175 20.135C179.941 20.6377 179.608 21.0277 179.174 21.305C178.741 21.5737 178.23 21.708 177.64 21.708C176.748 21.708 176.046 21.4393 175.534 20.902C175.023 20.356 174.733 19.5717 174.663 18.549L174.598 17.431C174.546 16.5817 174.33 15.9403 173.948 15.507C173.567 15.065 173.03 14.844 172.336 14.844C171.764 14.844 171.266 14.9827 170.841 15.26C170.425 15.5373 170.105 15.9273 169.879 16.43C169.663 16.9067 169.546 17.457 169.528 18.081L169.632 18.12C169.84 17.8167 170.105 17.587 170.425 17.431C170.746 17.275 171.101 17.197 171.491 17.197C171.907 17.197 172.271 17.2967 172.583 17.496C172.895 17.6867 173.138 17.951 173.311 18.289C173.493 18.6183 173.584 18.9997 173.584 19.433C173.584 19.8923 173.489 20.291 173.298 20.629C173.108 20.967 172.839 21.2313 172.492 21.422C172.146 21.6127 171.747 21.708 171.296 21.708ZM169.749 19.459C169.81 19.615 169.892 19.758 169.996 19.888C170.3 20.2953 170.703 20.499 171.205 20.499C171.526 20.499 171.782 20.3993 171.972 20.2C172.163 20.0007 172.258 19.745 172.258 19.433C172.258 19.121 172.163 18.8653 171.972 18.666C171.782 18.458 171.526 18.354 171.205 18.354C170.824 18.354 170.49 18.4927 170.204 18.77C170.005 18.952 169.853 19.1817 169.749 19.459ZM181.303 12.582C181.034 12.582 180.804 12.4867 180.614 12.296C180.423 12.0967 180.328 11.8627 180.328 11.594C180.328 11.3167 180.423 11.087 180.614 10.905C180.804 10.7143 181.034 10.619 181.303 10.619C181.58 10.619 181.814 10.7143 182.005 10.905C182.195 11.087 182.291 11.3167 182.291 11.594C182.291 11.8627 182.195 12.0967 182.005 12.296C181.814 12.4867 181.58 12.582 181.303 12.582Z" fill="white"/>
<path d="M70.462 41.5V31.504H72.179V39.987H80.322V31.504H82.056V41.5H70.462ZM84.9552 41.5V31.504H94.1012V33.017H91.6872V41.5H89.9362V33.017H86.6892V41.5H84.9552ZM104.013 47.127C102.664 47.127 101.44 46.9173 100.341 46.498C99.2416 46.0787 98.2953 45.478 97.502 44.696C96.72 43.914 96.1193 42.979 95.7 41.891C95.2806 40.8143 95.071 39.6073 95.071 38.27C95.071 36.9667 95.241 35.737 95.581 34.581C95.921 33.425 96.4423 32.3087 97.145 31.232L98.658 32.099C98.012 33.0963 97.5303 34.0993 97.213 35.108C96.907 36.1053 96.754 37.1593 96.754 38.27C96.754 39.7547 97.0486 41.041 97.638 42.129C98.2386 43.2283 99.0773 44.0727 100.154 44.662C101.242 45.2627 102.528 45.563 104.013 45.563C104.976 45.563 105.866 45.4213 106.682 45.138C107.498 44.8547 108.201 44.458 108.79 43.948C109.391 43.4493 109.855 42.8543 110.184 42.163C110.513 41.4717 110.677 40.7067 110.677 39.868C110.677 39.0633 110.524 38.4457 110.218 38.015C109.912 37.573 109.47 37.352 108.892 37.352C108.359 37.352 107.929 37.5163 107.6 37.845C107.271 38.1737 107.107 38.61 107.107 39.154H107.09V41.5H105.339V33.017H102.109V41.5H100.358V31.504H110.337V33.017H107.09V36.723H107.243C107.47 36.4057 107.759 36.1677 108.11 36.009C108.461 35.8503 108.875 35.771 109.351 35.771C109.963 35.771 110.496 35.941 110.949 36.281C111.402 36.621 111.754 37.1027 112.003 37.726C112.252 38.338 112.377 39.0633 112.377 39.902C112.377 40.9447 112.167 41.908 111.748 42.792C111.34 43.676 110.762 44.441 110.014 45.087C109.266 45.733 108.382 46.2317 107.362 46.583C106.342 46.9457 105.226 47.127 104.013 47.127ZM119.16 41.5V39.987H121.54C122.345 39.987 122.968 39.8227 123.41 39.494C123.852 39.154 124.073 38.6893 124.073 38.1C124.073 37.6127 123.943 37.2217 123.682 36.927C123.421 36.6323 123.047 36.485 122.56 36.485C122.05 36.485 121.636 36.6437 121.319 36.961C121.013 37.267 120.86 37.6977 120.86 38.253V38.644H119.16V33.017H116.389V41.5H114.672V31.504H123.342V33.017H120.86V35.856H120.962C121.2 35.5613 121.495 35.3347 121.846 35.176C122.209 35.006 122.617 34.921 123.07 34.921C123.614 34.921 124.09 35.04 124.498 35.278C124.906 35.5047 125.218 35.8277 125.433 36.247C125.66 36.655 125.773 37.1253 125.773 37.658C125.773 38.168 125.671 38.61 125.467 38.984C125.274 39.3467 124.985 39.664 124.6 39.936L124.651 40.072L125.858 39.987H127.932V31.504H129.666V41.5H119.16ZM122.225 29.838C121.873 29.838 121.573 29.7133 121.324 29.464C121.074 29.2033 120.95 28.8973 120.95 28.546C120.95 28.1833 121.074 27.883 121.324 27.645C121.573 27.3957 121.873 27.271 122.225 27.271C122.587 27.271 122.893 27.3957 123.143 27.645C123.392 27.883 123.517 28.1833 123.517 28.546C123.517 28.8973 123.392 29.2033 123.143 29.464C122.893 29.7133 122.587 29.838 122.225 29.838ZM135.645 41.772C134.875 41.772 134.195 41.6417 133.605 41.381C133.027 41.109 132.58 40.735 132.262 40.259C131.945 39.7717 131.786 39.2107 131.786 38.576C131.786 37.9413 131.928 37.3917 132.211 36.927C132.506 36.4623 132.914 36.0997 133.435 35.839C133.56 35.771 133.685 35.7143 133.809 35.669V31.504H142.955V33.017H139.878V35.448H140.847C142.015 35.448 142.933 35.737 143.601 36.315C144.281 36.8817 144.621 37.6637 144.621 38.661C144.621 39.6017 144.332 40.3553 143.754 40.922C143.188 41.4887 142.44 41.772 141.51 41.772C140.864 41.772 140.32 41.687 139.878 41.517L140.388 40.004C140.536 40.0607 140.689 40.106 140.847 40.14C141.017 40.174 141.182 40.191 141.34 40.191C141.816 40.191 142.196 40.0493 142.479 39.766C142.763 39.4827 142.904 39.103 142.904 38.627C142.904 38.0717 142.734 37.6523 142.394 37.369C142.054 37.0857 141.561 36.944 140.915 36.944H139.878V37.794C139.878 38.5987 139.703 39.3013 139.351 39.902C139 40.4913 138.507 40.9503 137.872 41.279C137.238 41.6077 136.495 41.772 135.645 41.772ZM135.645 40.225C136.45 40.225 137.079 40.0097 137.532 39.579C137.997 39.137 138.229 38.542 138.229 37.794V36.944H135.492C134.858 36.944 134.359 37.0857 133.996 37.369C133.634 37.6523 133.452 38.0547 133.452 38.576C133.452 39.086 133.645 39.4883 134.03 39.783C134.416 40.0777 134.954 40.225 135.645 40.225ZM135.458 35.448H138.229V33H135.458V35.448ZM150.245 41.772C149.497 41.772 148.828 41.5623 148.239 41.143C147.649 40.7237 147.185 40.1457 146.845 39.409C146.516 38.6723 146.352 37.8337 146.352 36.893C146.352 35.7597 146.561 34.768 146.981 33.918C147.411 33.068 148.012 32.4107 148.783 31.946C149.565 31.47 150.477 31.232 151.52 31.232C152.313 31.232 153.004 31.385 153.594 31.691C154.183 31.997 154.687 32.4673 155.107 33.102L155.243 33.068V31.504H163.437V33.017H161.465V41.5H159.714V33.017H156.739V41.5H154.988V36.417C154.988 35.3063 154.682 34.4337 154.07 33.799C153.469 33.153 152.653 32.83 151.622 32.83C150.488 32.83 149.593 33.1927 148.936 33.918C148.29 34.6433 147.967 35.635 147.967 36.893C147.967 36.9497 147.967 37.0063 147.967 37.063L148.103 37.114C148.375 36.7173 148.715 36.4113 149.123 36.196C149.542 35.9807 150.001 35.873 150.5 35.873C151.044 35.873 151.52 36.0033 151.928 36.264C152.336 36.5133 152.653 36.859 152.88 37.301C153.118 37.7317 153.237 38.2303 153.237 38.797C153.237 39.3863 153.112 39.9077 152.863 40.361C152.613 40.803 152.262 41.1487 151.809 41.398C151.367 41.6473 150.845 41.772 150.245 41.772ZM148.273 38.797C148.352 38.9897 148.443 39.1653 148.545 39.324C148.93 39.902 149.457 40.191 150.126 40.191C150.545 40.191 150.879 40.0607 151.129 39.8C151.378 39.5393 151.503 39.205 151.503 38.797C151.503 38.389 151.372 38.0547 151.112 37.794C150.862 37.522 150.534 37.386 150.126 37.386C149.616 37.386 149.179 37.5787 148.817 37.964C148.59 38.1907 148.409 38.4683 148.273 38.797ZM155.859 29.838C155.508 29.838 155.208 29.7133 154.958 29.464C154.709 29.2033 154.584 28.8973 154.584 28.546C154.584 28.1833 154.709 27.883 154.958 27.645C155.208 27.3957 155.508 27.271 155.859 27.271C156.222 27.271 156.528 27.3957 156.777 27.645C157.027 27.883 157.151 28.1833 157.151 28.546C157.151 28.8973 157.027 29.2033 156.777 29.464C156.528 29.7133 156.222 29.838 155.859 29.838Z" fill="white"/>
</svg>
