<svg width="185" height="55" viewBox="0 0 185 55" fill="none" xmlns="http://www.w3.org/2000/svg">
<rect x="0.5" y="0.5" width="184" height="54" rx="27" fill="#1F1F1F"/>
<rect x="0.5" y="0.5" width="184" height="54" rx="27" stroke="#747775"/>
<path d="M57 23.791H21V18.1455C21 15.0809 23.6422 12.5001 26.7798 12.5001H51.2202C54.3578 12.5001 57 15.0809 57 18.1455V23.791Z" fill="#34A853"/>
<path d="M57 29H21V23C21 19.7429 23.6422 17 26.7798 17H51.2202C54.3578 17 57 19.7429 57 23V29Z" fill="#FBBC04"/>
<path d="M57 34H21V28C21 24.7429 23.6422 22 26.7798 22H51.2202C54.3578 22 57 24.7429 57 28V34Z" fill="#EA4335"/>
<path d="M21 25.2409L43.8493 30.4025C46.4795 31.0477 49.4384 30.4025 51.5753 28.7895L57 24.9183V37.0157C57 40.0804 54.3699 42.4999 51.2466 42.4999H26.7534C23.6301 42.4999 21 40.0804 21 37.0157V25.2409Z" fill="#4285F4"/>
<path d="M74.46 21.708C73.7927 21.708 73.1643 21.5867 72.575 21.344C71.9857 21.1013 71.4657 20.7633 71.015 20.33C70.573 19.888 70.222 19.3723 69.962 18.783C69.7107 18.185 69.585 17.5393 69.585 16.846C69.585 16.1527 69.7107 15.5113 69.962 14.922C70.222 14.324 70.573 13.8083 71.015 13.375C71.4657 12.933 71.9857 12.5907 72.575 12.348C73.1643 12.1053 73.7927 11.984 74.46 11.984C75.1707 11.984 75.825 12.1097 76.423 12.361C77.0297 12.6123 77.5367 12.9633 77.944 13.414L76.956 14.389C76.7567 14.1637 76.527 13.973 76.267 13.817C76.0157 13.661 75.7383 13.544 75.435 13.466C75.1317 13.3793 74.8067 13.336 74.46 13.336C74.0007 13.336 73.563 13.4183 73.147 13.583C72.731 13.7477 72.3627 13.986 72.042 14.298C71.73 14.6013 71.483 14.9697 71.301 15.403C71.119 15.8277 71.028 16.3087 71.028 16.846C71.028 17.3833 71.119 17.8687 71.301 18.302C71.4917 18.7267 71.743 19.095 72.055 19.407C72.3757 19.7103 72.744 19.9443 73.16 20.109C73.576 20.2737 74.0137 20.356 74.473 20.356C74.8977 20.356 75.292 20.2953 75.656 20.174C76.0287 20.0527 76.3537 19.8793 76.631 19.654C76.9083 19.4287 77.1337 19.1557 77.307 18.835C77.4803 18.5057 77.5887 18.1373 77.632 17.73H74.447V16.469H78.971C78.9883 16.573 79.0057 16.6943 79.023 16.833C79.0403 16.963 79.049 17.0887 79.049 17.21V17.223C79.049 17.8903 78.932 18.5013 78.698 19.056C78.4727 19.6107 78.1563 20.0873 77.749 20.486C77.3417 20.876 76.8563 21.1793 76.293 21.396C75.7383 21.604 75.1273 21.708 74.46 21.708ZM83.2349 21.708C82.5502 21.708 81.9479 21.552 81.4279 21.24C80.9079 20.928 80.5006 20.5077 80.2059 19.979C79.9112 19.4417 79.7639 18.8437 79.7639 18.185C79.7639 17.5263 79.9112 16.9327 80.2059 16.404C80.5006 15.8667 80.9079 15.442 81.4279 15.13C81.9479 14.818 82.5502 14.662 83.2349 14.662C83.9109 14.662 84.5089 14.8223 85.0289 15.143C85.5489 15.455 85.9562 15.8753 86.2509 16.404C86.5456 16.9327 86.6929 17.5263 86.6929 18.185C86.6929 18.8437 86.5456 19.4417 86.2509 19.979C85.9562 20.5077 85.5489 20.928 85.0289 21.24C84.5089 21.552 83.9109 21.708 83.2349 21.708ZM83.2349 20.421C83.5989 20.421 83.9369 20.3343 84.2489 20.161C84.5609 19.979 84.8122 19.7233 85.0029 19.394C85.2022 19.056 85.3019 18.653 85.3019 18.185C85.3019 17.717 85.2022 17.3183 85.0029 16.989C84.8122 16.651 84.5609 16.3953 84.2489 16.222C83.9369 16.04 83.5989 15.949 83.2349 15.949C82.8709 15.949 82.5286 16.04 82.2079 16.222C81.8959 16.3953 81.6402 16.651 81.4409 16.989C81.2502 17.3183 81.1549 17.717 81.1549 18.185C81.1549 18.653 81.2502 19.056 81.4409 19.394C81.6402 19.7233 81.9002 19.979 82.2209 20.161C82.5416 20.3343 82.8796 20.421 83.2349 20.421ZM91.106 21.708C90.4213 21.708 89.819 21.552 89.299 21.24C88.779 20.928 88.3717 20.5077 88.077 19.979C87.7823 19.4417 87.635 18.8437 87.635 18.185C87.635 17.5263 87.7823 16.9327 88.077 16.404C88.3717 15.8667 88.779 15.442 89.299 15.13C89.819 14.818 90.4213 14.662 91.106 14.662C91.782 14.662 92.38 14.8223 92.9 15.143C93.42 15.455 93.8273 15.8753 94.122 16.404C94.4167 16.9327 94.564 17.5263 94.564 18.185C94.564 18.8437 94.4167 19.4417 94.122 19.979C93.8273 20.5077 93.42 20.928 92.9 21.24C92.38 21.552 91.782 21.708 91.106 21.708ZM91.106 20.421C91.47 20.421 91.808 20.3343 92.12 20.161C92.432 19.979 92.6833 19.7233 92.874 19.394C93.0733 19.056 93.173 18.653 93.173 18.185C93.173 17.717 93.0733 17.3183 92.874 16.989C92.6833 16.651 92.432 16.3953 92.12 16.222C91.808 16.04 91.47 15.949 91.106 15.949C90.742 15.949 90.3997 16.04 90.079 16.222C89.767 16.3953 89.5113 16.651 89.312 16.989C89.1213 17.3183 89.026 17.717 89.026 18.185C89.026 18.653 89.1213 19.056 89.312 19.394C89.5113 19.7233 89.7713 19.979 90.092 20.161C90.4127 20.3343 90.7507 20.421 91.106 20.421ZM98.8471 24.516C98.2664 24.516 97.7638 24.4207 97.3391 24.23C96.9231 24.048 96.5851 23.8097 96.3251 23.515C96.0651 23.229 95.8788 22.9343 95.7661 22.631L97.0661 22.085C97.2048 22.4317 97.4258 22.7133 97.7291 22.93C98.0411 23.1553 98.4138 23.268 98.8471 23.268C99.4624 23.268 99.9434 23.086 100.29 22.722C100.637 22.358 100.81 21.8423 100.81 21.175V20.538H100.732C100.524 20.8413 100.238 21.0883 99.8741 21.279C99.5101 21.4697 99.0898 21.565 98.6131 21.565C98.0498 21.565 97.5298 21.422 97.0531 21.136C96.5851 20.85 96.2081 20.4513 95.9221 19.94C95.6448 19.42 95.5061 18.8133 95.5061 18.12C95.5061 17.418 95.6448 16.8113 95.9221 16.3C96.2081 15.78 96.5851 15.377 97.0531 15.091C97.5298 14.805 98.0498 14.662 98.6131 14.662C99.0898 14.662 99.5101 14.7573 99.8741 14.948C100.238 15.13 100.524 15.3813 100.732 15.702H100.81V14.87H102.149V21.149C102.149 21.8683 102.006 22.4793 101.72 22.982C101.443 23.4847 101.057 23.866 100.563 24.126C100.069 24.386 99.4971 24.516 98.8471 24.516ZM98.8601 20.291C99.2068 20.291 99.5274 20.2087 99.8221 20.044C100.125 19.8707 100.364 19.6237 100.537 19.303C100.719 18.9737 100.81 18.5793 100.81 18.12C100.81 17.6347 100.719 17.2317 100.537 16.911C100.364 16.5903 100.125 16.3477 99.8221 16.183C99.5274 16.0183 99.2068 15.936 98.8601 15.936C98.5134 15.936 98.1884 16.0183 97.8851 16.183C97.5904 16.3477 97.3521 16.5947 97.1701 16.924C96.9881 17.2447 96.8971 17.6433 96.8971 18.12C96.8971 18.588 96.9881 18.9867 97.1701 19.316C97.3521 19.6367 97.5904 19.8793 97.8851 20.044C98.1884 20.2087 98.5134 20.291 98.8601 20.291ZM103.805 21.5V12.192H105.209V21.5H103.805ZM109.829 21.708C109.179 21.708 108.599 21.5563 108.087 21.253C107.576 20.9497 107.173 20.5337 106.878 20.005C106.592 19.4763 106.449 18.874 106.449 18.198C106.449 17.5653 106.588 16.9803 106.865 16.443C107.143 15.9057 107.528 15.4767 108.022 15.156C108.525 14.8267 109.101 14.662 109.751 14.662C110.436 14.662 111.017 14.8093 111.493 15.104C111.979 15.3987 112.347 15.8017 112.598 16.313C112.85 16.8243 112.975 17.4007 112.975 18.042C112.975 18.1373 112.971 18.224 112.962 18.302C112.962 18.38 112.958 18.4407 112.949 18.484H107.827C107.862 18.848 107.953 19.1643 108.1 19.433C108.291 19.771 108.542 20.0267 108.854 20.2C109.166 20.3733 109.504 20.46 109.868 20.46C110.31 20.46 110.679 20.3603 110.973 20.161C111.277 19.953 111.515 19.6973 111.688 19.394L112.845 19.953C112.559 20.473 112.169 20.8977 111.675 21.227C111.181 21.5477 110.566 21.708 109.829 21.708ZM107.905 17.431H111.584C111.576 17.2663 111.532 17.093 111.454 16.911C111.376 16.7203 111.264 16.547 111.116 16.391C110.969 16.235 110.783 16.1093 110.557 16.014C110.332 15.91 110.068 15.858 109.764 15.858C109.383 15.858 109.045 15.9577 108.75 16.157C108.456 16.3477 108.226 16.6163 108.061 16.963C107.992 17.1103 107.94 17.2663 107.905 17.431ZM118.69 21.5L116.194 12.192H117.78L119.262 18.237L119.418 19.043H119.496L119.691 18.237L121.563 12.192H122.993L124.787 18.237L124.982 19.03H125.06L125.216 18.237L126.698 12.192H128.271L125.814 21.5H124.306L122.525 15.325L122.317 14.454H122.239L122.018 15.325L120.159 21.5H118.69ZM130.881 21.708C130.405 21.708 129.98 21.6127 129.607 21.422C129.243 21.2313 128.953 20.9713 128.736 20.642C128.528 20.304 128.424 19.9183 128.424 19.485C128.424 19.0083 128.546 18.6053 128.788 18.276C129.04 17.9467 129.373 17.6953 129.789 17.522C130.205 17.3487 130.665 17.262 131.167 17.262C131.445 17.262 131.7 17.2837 131.934 17.327C132.177 17.3617 132.385 17.405 132.558 17.457C132.74 17.509 132.883 17.5653 132.987 17.626V17.275C132.987 16.8417 132.831 16.495 132.519 16.235C132.207 15.975 131.804 15.845 131.31 15.845C130.972 15.845 130.652 15.923 130.348 16.079C130.045 16.2263 129.802 16.43 129.62 16.69L128.658 15.949C128.849 15.6803 129.079 15.4507 129.347 15.26C129.625 15.0693 129.932 14.922 130.27 14.818C130.617 14.714 130.977 14.662 131.349 14.662C132.311 14.662 133.052 14.9003 133.572 15.377C134.092 15.845 134.352 16.5037 134.352 17.353V21.5H132.987V20.681H132.909C132.797 20.8543 132.641 21.019 132.441 21.175C132.251 21.331 132.021 21.4567 131.752 21.552C131.492 21.656 131.202 21.708 130.881 21.708ZM131.128 20.564C131.492 20.564 131.813 20.4773 132.09 20.304C132.376 20.1307 132.597 19.9053 132.753 19.628C132.909 19.342 132.987 19.0343 132.987 18.705C132.797 18.5923 132.563 18.5013 132.285 18.432C132.017 18.354 131.731 18.315 131.427 18.315C130.855 18.315 130.448 18.4277 130.205 18.653C129.963 18.8783 129.841 19.16 129.841 19.498C129.841 19.81 129.958 20.0657 130.192 20.265C130.426 20.4643 130.738 20.564 131.128 20.564ZM135.911 21.5V12.192H137.315V21.5H135.911ZM138.983 21.5V12.192H140.387V21.5H138.983ZM145.008 21.708C144.358 21.708 143.777 21.5563 143.266 21.253C142.755 20.9497 142.352 20.5337 142.057 20.005C141.771 19.4763 141.628 18.874 141.628 18.198C141.628 17.5653 141.767 16.9803 142.044 16.443C142.321 15.9057 142.707 15.4767 143.201 15.156C143.704 14.8267 144.28 14.662 144.93 14.662C145.615 14.662 146.195 14.8093 146.672 15.104C147.157 15.3987 147.526 15.8017 147.777 16.313C148.028 16.8243 148.154 17.4007 148.154 18.042C148.154 18.1373 148.15 18.224 148.141 18.302C148.141 18.38 148.137 18.4407 148.128 18.484H143.006C143.041 18.848 143.132 19.1643 143.279 19.433C143.47 19.771 143.721 20.0267 144.033 20.2C144.345 20.3733 144.683 20.46 145.047 20.46C145.489 20.46 145.857 20.3603 146.152 20.161C146.455 19.953 146.694 19.6973 146.867 19.394L148.024 19.953C147.738 20.473 147.348 20.8977 146.854 21.227C146.36 21.5477 145.745 21.708 145.008 21.708ZM143.084 17.431H146.763C146.754 17.2663 146.711 17.093 146.633 16.911C146.555 16.7203 146.442 16.547 146.295 16.391C146.148 16.235 145.961 16.1093 145.736 16.014C145.511 15.91 145.246 15.858 144.943 15.858C144.562 15.858 144.224 15.9577 143.929 16.157C143.634 16.3477 143.405 16.6163 143.24 16.963C143.171 17.1103 143.119 17.2663 143.084 17.431ZM148.811 14.87H149.968V12.998H151.372V14.87H152.997V16.092H151.372V19.277C151.372 19.6063 151.437 19.8577 151.567 20.031C151.706 20.2043 151.936 20.291 152.256 20.291C152.412 20.291 152.551 20.2693 152.672 20.226C152.794 20.174 152.915 20.1133 153.036 20.044V21.409C152.889 21.4697 152.733 21.5173 152.568 21.552C152.404 21.5867 152.209 21.604 151.983 21.604C151.368 21.604 150.878 21.4263 150.514 21.071C150.15 20.707 149.968 20.2087 149.968 19.576V16.092H148.811V14.87ZM159.544 21.708C158.478 21.708 157.542 21.5173 156.736 21.136C155.939 20.746 155.315 20.2087 154.864 19.524C154.414 18.8307 154.188 18.0333 154.188 17.132C154.188 16.3693 154.336 15.689 154.63 15.091C154.934 14.493 155.341 14.0207 155.852 13.674C156.372 13.3273 156.957 13.154 157.607 13.154C158.041 13.154 158.426 13.2493 158.764 13.44C159.102 13.6307 159.367 13.8907 159.557 14.22C159.748 14.5407 159.843 14.9133 159.843 15.338C159.843 15.7193 159.748 16.066 159.557 16.378C159.375 16.69 159.12 16.937 158.79 17.119C158.47 17.301 158.097 17.392 157.672 17.392C157.196 17.392 156.775 17.275 156.411 17.041C156.056 16.807 155.792 16.469 155.618 16.027L155.527 16.04C155.441 16.3433 155.397 16.677 155.397 17.041C155.397 17.717 155.566 18.3107 155.904 18.822C156.251 19.3333 156.736 19.732 157.36 20.018C157.984 20.304 158.712 20.447 159.544 20.447C160.333 20.447 161.018 20.3127 161.598 20.044C162.179 19.7667 162.63 19.3853 162.95 18.9C163.28 18.406 163.444 17.8427 163.444 17.21C163.444 16.5947 163.284 16.0357 162.963 15.533C162.651 15.0217 162.192 14.584 161.585 14.22L162.287 13.154C163.059 13.622 163.648 14.2027 164.055 14.896C164.471 15.5893 164.679 16.3607 164.679 17.21C164.679 18.0853 164.463 18.8653 164.029 19.55C163.596 20.226 162.994 20.7547 162.222 21.136C161.451 21.5173 160.558 21.708 159.544 21.708ZM156.255 14.805C156.325 15.2297 156.45 15.5633 156.632 15.806C156.866 16.118 157.191 16.274 157.607 16.274C157.928 16.274 158.179 16.1873 158.361 16.014C158.552 15.8407 158.647 15.611 158.647 15.325C158.647 15.013 158.548 14.766 158.348 14.584C158.149 14.402 157.88 14.311 157.542 14.311C157.126 14.311 156.758 14.428 156.437 14.662C156.377 14.7053 156.316 14.753 156.255 14.805ZM167.75 17.925C167.377 17.925 167.026 17.8383 166.697 17.665C166.367 17.483 166.099 17.2317 165.891 16.911C165.683 16.5903 165.579 16.2177 165.579 15.793C165.579 15.3943 165.67 15.0433 165.852 14.74C166.034 14.428 166.276 14.1853 166.58 14.012C166.892 13.8387 167.238 13.752 167.62 13.752C167.862 13.752 168.088 13.7823 168.296 13.843C168.512 13.895 168.712 13.973 168.894 14.077L168.972 13.999C168.928 13.6697 168.859 13.388 168.764 13.154C168.59 12.7293 168.348 12.4217 168.036 12.231C167.732 12.0317 167.381 11.932 166.983 11.932C166.515 11.932 166.112 12.0447 165.774 12.27C165.444 12.4953 165.215 12.764 165.085 13.076L163.85 13.115C163.772 12.7683 163.611 12.452 163.369 12.166C163.117 11.8713 162.792 11.6373 162.394 11.464C161.986 11.2907 161.51 11.204 160.964 11.204C160.418 11.204 159.989 11.2603 159.677 11.373C159.365 11.4857 159.144 11.6373 159.014 11.828C158.884 12.01 158.819 12.205 158.819 12.413C158.819 12.699 158.94 12.9633 159.183 13.206C159.425 13.44 159.846 13.6133 160.444 13.726L160.145 14.662C159.287 14.5233 158.641 14.2503 158.208 13.843C157.766 13.4357 157.545 12.9373 157.545 12.348C157.545 11.9493 157.666 11.5723 157.909 11.217C158.143 10.8617 158.507 10.5757 159.001 10.359C159.486 10.1423 160.106 10.034 160.86 10.034C161.458 10.034 161.999 10.1207 162.485 10.294C162.961 10.4673 163.373 10.697 163.72 10.983C164.066 11.269 164.335 11.5767 164.526 11.906H164.591C164.851 11.542 165.193 11.256 165.618 11.048C165.886 10.918 166.168 10.8313 166.463 10.788V10.684C166.272 10.528 166.133 10.3677 166.047 10.203C165.96 10.0297 165.917 9.83467 165.917 9.618C165.917 9.228 166.077 8.88567 166.398 8.591C166.727 8.28767 167.186 8.136 167.776 8.136C168.192 8.136 168.573 8.21833 168.92 8.383C169.275 8.54767 169.561 8.747 169.778 8.981L169.011 9.709C168.846 9.54433 168.664 9.41867 168.465 9.332C168.265 9.23667 168.053 9.189 167.828 9.189C167.568 9.189 167.373 9.24967 167.243 9.371C167.113 9.49233 167.048 9.64833 167.048 9.839C167.048 10.0123 167.095 10.1597 167.191 10.281C167.286 10.3937 167.416 10.4977 167.581 10.593C167.745 10.6797 167.927 10.775 168.127 10.879C168.326 10.9743 168.525 11.1 168.725 11.256C169.184 11.594 169.535 12.036 169.778 12.582C170.02 13.128 170.142 13.7823 170.142 14.545C170.142 15.351 170.038 16.001 169.83 16.495C169.622 16.989 169.336 17.353 168.972 17.587C168.616 17.8123 168.209 17.925 167.75 17.925ZM168.972 15.468C168.885 15.3467 168.781 15.2383 168.66 15.143C168.374 14.9177 168.053 14.805 167.698 14.805C167.412 14.805 167.178 14.9003 166.996 15.091C166.822 15.273 166.736 15.507 166.736 15.793C166.736 16.105 166.831 16.352 167.022 16.534C167.212 16.7073 167.459 16.794 167.763 16.794C167.988 16.794 168.196 16.7333 168.387 16.612C168.577 16.482 168.729 16.274 168.842 15.988C168.902 15.8407 168.946 15.6673 168.972 15.468Z" fill="white"/>
<path d="M74.933 41.772C74.2077 41.772 73.573 41.6247 73.029 41.33C72.485 41.024 72.06 40.6217 71.754 40.123C71.4593 39.6243 71.312 39.0747 71.312 38.474C71.312 37.9413 71.4027 37.4823 71.584 37.097C71.7653 36.7003 72.0373 36.3603 72.4 36.077L72.366 35.992C72.196 36.0147 72.0147 36.0317 71.822 36.043C71.6407 36.043 71.4537 36.043 71.261 36.043H69.833V34.513H76.225V36.043H75.715C74.8197 36.043 74.134 36.2583 73.658 36.689C73.182 37.1083 72.944 37.6297 72.944 38.253C72.944 38.7857 73.1197 39.2333 73.471 39.596C73.8223 39.9473 74.3323 40.123 75.001 40.123C75.681 40.123 76.225 39.9133 76.633 39.494C77.0523 39.0747 77.296 38.4797 77.364 37.709H78.945C79.0357 38.5023 79.2907 39.103 79.71 39.511C80.1293 39.9077 80.6903 40.106 81.393 40.106C82.0617 40.106 82.634 39.868 83.11 39.392C83.586 38.9047 83.824 38.2077 83.824 37.301C83.824 36.451 83.603 35.686 83.161 35.006C82.719 34.3147 82.0843 33.7593 81.257 33.34C80.441 32.9093 79.4607 32.66 78.316 32.592C78.2933 32.592 78.2707 32.592 78.248 32.592C77.3753 32.592 76.633 32.2973 76.021 31.708C75.409 31.1073 74.9953 30.3083 74.78 29.311L76.361 28.954C76.565 29.7813 76.8257 30.348 77.143 30.654C77.4717 30.96 77.84 31.113 78.248 31.113C78.5767 31.113 78.8713 31.0223 79.132 30.841C79.404 30.6483 79.676 30.3367 79.948 29.906L80.458 29.107C80.7867 28.5743 81.1153 28.138 81.444 27.798C81.7727 27.458 82.1297 27.2087 82.515 27.05C82.9003 26.88 83.331 26.795 83.807 26.795H84.113V28.325H83.909C83.6143 28.325 83.348 28.376 83.11 28.478C82.8833 28.58 82.6567 28.75 82.43 28.988C82.2147 29.226 81.971 29.5547 81.699 29.974L81.274 30.654C81.0927 30.9487 80.9057 31.2037 80.713 31.419C81.0303 31.5097 81.3363 31.623 81.631 31.759C82.4243 32.1217 83.11 32.5863 83.688 33.153C84.266 33.7083 84.708 34.343 85.014 35.057C85.32 35.7597 85.473 36.5077 85.473 37.301C85.473 37.4143 85.473 37.522 85.473 37.624C85.5863 38.4287 85.8753 39.0407 86.34 39.46C86.8387 39.902 87.411 40.123 88.057 40.123C88.873 40.123 89.4793 39.8453 89.876 39.29C90.2727 38.7347 90.471 38.0093 90.471 37.114C90.471 36.264 90.318 35.5217 90.012 34.887C89.706 34.2523 89.2753 33.7593 88.72 33.408C88.176 33.0453 87.547 32.864 86.833 32.864H86.476V31.3H96.404C97.1293 31.3 97.747 31.4303 98.257 31.691C98.7783 31.9517 99.1807 32.3087 99.464 32.762C99.7473 33.204 99.889 33.714 99.889 34.292C99.889 34.836 99.7587 35.3177 99.498 35.737C99.2487 36.1563 98.8973 36.4907 98.444 36.74C98.002 36.978 97.492 37.097 96.914 37.097C96.3587 37.097 95.86 36.9837 95.418 36.757C94.9873 36.519 94.6473 36.2073 94.398 35.822C94.1487 35.4253 94.024 34.9833 94.024 34.496C94.024 34.19 94.075 33.9123 94.177 33.663C94.279 33.4023 94.432 33.1587 94.636 32.932L94.602 32.847C93.99 32.8583 93.4007 32.864 92.834 32.864H91.491C91.3097 32.864 91.1113 32.864 90.896 32.864C90.692 32.864 90.4993 32.8583 90.318 32.847L90.267 32.932C90.8677 33.442 91.321 34.0653 91.627 34.802C91.933 35.5387 92.086 36.332 92.086 37.182C92.086 38.0887 91.933 38.8877 91.627 39.579C91.321 40.2703 90.879 40.8087 90.301 41.194C89.7343 41.5793 89.0543 41.772 88.261 41.772C87.479 41.772 86.8047 41.602 86.238 41.262C85.6827 40.9107 85.2463 40.4347 84.929 39.834H84.878C84.5493 40.4233 84.113 40.888 83.569 41.228C82.9797 41.5907 82.3053 41.772 81.546 41.772C80.7413 41.772 80.0557 41.5963 79.489 41.245C78.9223 40.8823 78.4917 40.3667 78.197 39.698H78.112C77.8287 40.3553 77.415 40.8653 76.871 41.228C76.327 41.5907 75.681 41.772 74.933 41.772ZM96.421 32.813C96.2283 32.9377 96.064 33.085 95.928 33.255C95.6673 33.5497 95.537 33.8897 95.537 34.275C95.537 34.683 95.6617 35.006 95.911 35.244C96.1717 35.4707 96.506 35.584 96.914 35.584C97.3447 35.584 97.679 35.465 97.917 35.227C98.1663 34.9777 98.291 34.649 98.291 34.241C98.291 33.833 98.138 33.493 97.832 33.221C97.5373 32.949 97.1067 32.813 96.54 32.813C96.506 32.813 96.4663 32.813 96.421 32.813ZM104.852 41.772C104.115 41.772 103.463 41.5963 102.897 41.245C102.33 40.8823 101.888 40.3837 101.571 39.749C101.253 39.103 101.095 38.3607 101.095 37.522C101.095 36.5927 101.282 35.7313 101.656 34.938C102.041 34.1447 102.585 33.459 103.288 32.881C103.99 32.2917 104.812 31.8383 105.753 31.521C105.843 31.487 105.934 31.453 106.025 31.419C105.469 30.8523 105.095 30.1043 104.903 29.175L106.552 28.818C106.676 29.362 106.829 29.7983 107.011 30.127C107.192 30.4443 107.396 30.6767 107.623 30.824C107.861 30.96 108.116 31.028 108.388 31.028C108.716 31.028 109.011 30.9373 109.272 30.756C109.544 30.5633 109.81 30.2517 110.071 29.821L110.615 28.971C110.943 28.4497 111.272 28.019 111.601 27.679C111.929 27.3277 112.286 27.0727 112.672 26.914C113.057 26.744 113.488 26.659 113.964 26.659H114.27V28.189H114.066C113.771 28.189 113.505 28.24 113.267 28.342C113.029 28.444 112.796 28.614 112.57 28.852C112.354 29.09 112.116 29.4243 111.856 29.855L111.397 30.569C111.249 30.807 111.096 31.0223 110.938 31.215C111.255 31.283 111.572 31.3623 111.89 31.453C112.842 31.725 113.799 32.1613 114.763 32.762L113.913 34.071C113.097 33.561 112.264 33.187 111.414 32.949C110.575 32.6997 109.691 32.575 108.762 32.575C107.594 32.575 106.552 32.7847 105.634 33.204C104.727 33.6233 104.013 34.2013 103.492 34.938C102.982 35.6633 102.727 36.4963 102.727 37.437C102.727 38.2303 102.936 38.8763 103.356 39.375C103.775 39.8737 104.313 40.123 104.971 40.123C105.651 40.123 106.189 39.8907 106.586 39.426C106.982 38.9613 107.209 38.2983 107.266 37.437H108.796C109 38.3097 109.425 39.0067 110.071 39.528C110.388 39.7773 110.739 39.9643 111.125 40.089L111.193 40.004C111.023 39.7887 110.887 39.545 110.785 39.273C110.694 39.001 110.649 38.712 110.649 38.406C110.649 37.9867 110.751 37.6013 110.955 37.25C111.17 36.8873 111.47 36.5983 111.856 36.383C112.241 36.1677 112.689 36.06 113.199 36.06C113.709 36.06 114.168 36.179 114.576 36.417C114.995 36.6437 115.324 36.961 115.562 37.369C115.811 37.777 115.936 38.2417 115.936 38.763C115.936 39.3523 115.777 39.8737 115.46 40.327C115.154 40.7803 114.734 41.1373 114.202 41.398C113.68 41.6473 113.085 41.772 112.417 41.772C111.51 41.772 110.688 41.5623 109.952 41.143C109.215 40.7123 108.631 40.1117 108.201 39.341H108.116C107.832 40.123 107.413 40.7237 106.858 41.143C106.302 41.5623 105.634 41.772 104.852 41.772ZM112.74 40.293C113.216 40.2477 113.607 40.106 113.913 39.868C114.264 39.5733 114.44 39.188 114.44 38.712C114.44 38.3607 114.332 38.0717 114.117 37.845C113.913 37.6183 113.635 37.505 113.284 37.505C112.91 37.505 112.609 37.624 112.383 37.862C112.156 38.0887 112.043 38.3833 112.043 38.746C112.043 39.0973 112.15 39.4543 112.366 39.817C112.468 39.987 112.592 40.1457 112.74 40.293ZM122.966 41.772C122.218 41.772 121.527 41.6417 120.892 41.381C120.257 41.109 119.696 40.7407 119.209 40.276C118.733 39.8 118.359 39.256 118.087 38.644C117.826 38.0207 117.696 37.3577 117.696 36.655C117.696 35.941 117.826 35.278 118.087 34.666C118.359 34.054 118.733 33.5157 119.209 33.051C119.696 32.575 120.257 32.2067 120.892 31.946C121.527 31.674 122.218 31.538 122.966 31.538C123.714 31.538 124.405 31.674 125.04 31.946C125.686 32.2067 126.247 32.575 126.723 33.051C127.21 33.5157 127.584 34.054 127.845 34.666C128.117 35.278 128.253 35.941 128.253 36.655C128.253 37.3577 128.117 38.0207 127.845 38.644C127.584 39.256 127.21 39.8 126.723 40.276C126.247 40.7407 125.686 41.109 125.04 41.381C124.405 41.6417 123.714 41.772 122.966 41.772ZM122.966 40.055C123.657 40.055 124.275 39.902 124.819 39.596C125.363 39.29 125.794 38.8763 126.111 38.355C126.428 37.8337 126.587 37.2387 126.587 36.57C126.587 35.9127 126.428 35.3233 126.111 34.802C125.794 34.2807 125.363 33.867 124.819 33.561C124.275 33.255 123.657 33.102 122.966 33.102C122.286 33.102 121.674 33.255 121.13 33.561C120.586 33.867 120.155 34.2807 119.838 34.802C119.521 35.3233 119.362 35.9127 119.362 36.57C119.362 37.2273 119.521 37.8223 119.838 38.355C120.155 38.8763 120.586 39.29 121.13 39.596C121.674 39.902 122.286 40.055 122.966 40.055ZM133.738 41.772C133.002 41.772 132.35 41.5963 131.783 41.245C131.217 40.8823 130.775 40.3837 130.457 39.749C130.14 39.103 129.981 38.3607 129.981 37.522C129.981 36.5927 130.168 35.7313 130.542 34.938C130.928 34.1447 131.472 33.459 132.174 32.881C132.866 32.303 133.676 31.8497 134.605 31.521C134.265 31.283 133.959 31.0053 133.687 30.688L134.775 29.634C135.172 30.0987 135.597 30.4443 136.05 30.671C136.504 30.8977 137.014 31.011 137.58 31.011C138.113 31.011 138.555 30.909 138.906 30.705C139.269 30.4897 139.541 30.2007 139.722 29.838C139.915 29.4753 140.011 29.073 140.011 28.631C140.011 28.4383 139.994 28.257 139.96 28.087H139.841C139.649 28.597 139.348 28.9993 138.94 29.294C138.532 29.5887 138.039 29.736 137.461 29.736C136.951 29.736 136.492 29.634 136.084 29.43C135.688 29.226 135.376 28.9483 135.149 28.597C134.923 28.2343 134.809 27.832 134.809 27.39C134.809 26.9027 134.928 26.472 135.166 26.098C135.416 25.7127 135.756 25.4123 136.186 25.197C136.628 24.9703 137.127 24.857 137.682 24.857C138.419 24.857 139.071 25.027 139.637 25.367C140.204 25.707 140.652 26.1717 140.98 26.761C141.309 27.3503 141.473 28.019 141.473 28.767C141.473 29.4923 141.309 30.1383 140.98 30.705C140.833 30.943 140.663 31.164 140.47 31.368C140.572 31.3907 140.674 31.419 140.776 31.453C141.728 31.725 142.686 32.1613 143.649 32.762L142.799 34.071C141.983 33.561 141.15 33.187 140.3 32.949C139.462 32.6997 138.578 32.575 137.648 32.575C136.481 32.575 135.438 32.7847 134.52 33.204C133.614 33.6233 132.9 34.2013 132.378 34.938C131.868 35.6633 131.613 36.4963 131.613 37.437C131.613 38.2303 131.823 38.8763 132.242 39.375C132.662 39.8737 133.2 40.123 133.857 40.123C134.537 40.123 135.076 39.8907 135.472 39.426C135.869 38.9613 136.096 38.2983 136.152 37.437H137.682C137.886 38.3097 138.311 39.0067 138.957 39.528C139.275 39.7773 139.626 39.9643 140.011 40.089L140.079 40.004C139.909 39.7887 139.773 39.545 139.671 39.273C139.581 39.001 139.535 38.712 139.535 38.406C139.535 37.9867 139.637 37.6013 139.841 37.25C140.057 36.8873 140.357 36.5983 140.742 36.383C141.128 36.1677 141.575 36.06 142.085 36.06C142.595 36.06 143.054 36.179 143.462 36.417C143.882 36.6437 144.21 36.961 144.448 37.369C144.698 37.777 144.822 38.2417 144.822 38.763C144.822 39.3523 144.664 39.8737 144.346 40.327C144.04 40.7803 143.621 41.1373 143.088 41.398C142.567 41.6473 141.972 41.772 141.303 41.772C140.397 41.772 139.575 41.5623 138.838 41.143C138.102 40.7123 137.518 40.1117 137.087 39.341H137.002C136.719 40.123 136.3 40.7237 135.744 41.143C135.189 41.5623 134.52 41.772 133.738 41.772ZM141.626 40.293C142.102 40.2477 142.493 40.106 142.799 39.868C143.151 39.5733 143.326 39.188 143.326 38.712C143.326 38.3607 143.219 38.0717 143.003 37.845C142.799 37.6183 142.522 37.505 142.17 37.505C141.796 37.505 141.496 37.624 141.269 37.862C141.043 38.0887 140.929 38.3833 140.929 38.746C140.929 39.0973 141.037 39.4543 141.252 39.817C141.354 39.987 141.479 40.1457 141.626 40.293ZM139.042 26.71C138.986 26.6647 138.929 26.625 138.872 26.591C138.521 26.387 138.124 26.285 137.682 26.285C137.263 26.285 136.934 26.3927 136.696 26.608C136.47 26.8233 136.356 27.0897 136.356 27.407C136.356 27.6903 136.464 27.9227 136.679 28.104C136.895 28.274 137.172 28.359 137.512 28.359C137.988 28.359 138.368 28.172 138.651 27.798C138.855 27.5033 138.986 27.1407 139.042 26.71Z" fill="white"/>
</svg>
