<svg width="199" height="55" viewBox="0 0 199 55" fill="none" xmlns="http://www.w3.org/2000/svg">
<rect x="0.5" y="0.5" width="198" height="54" rx="27" fill="#1F1F1F"/>
<rect x="0.5" y="0.5" width="198" height="54" rx="27" stroke="#747775"/>
<path d="M57 23.791H21V18.1455C21 15.0809 23.6422 12.5001 26.7798 12.5001H51.2202C54.3578 12.5001 57 15.0809 57 18.1455V23.791Z" fill="#34A853"/>
<path d="M57 29H21V23C21 19.7429 23.6422 17 26.7798 17H51.2202C54.3578 17 57 19.7429 57 23V29Z" fill="#FBBC04"/>
<path d="M57 34H21V28C21 24.7429 23.6422 22 26.7798 22H51.2202C54.3578 22 57 24.7429 57 28V34Z" fill="#EA4335"/>
<path d="M21 25.2409L43.8493 30.4025C46.4795 31.0477 49.4384 30.4025 51.5753 28.7895L57 24.9183V37.0157C57 40.0804 54.3699 42.4999 51.2466 42.4999H26.7534C23.6301 42.4999 21 40.0804 21 37.0157V25.2409Z" fill="#4285F4"/>
<path d="M69.819 21.5V17.353C69.819 16.7203 69.949 16.1743 70.209 15.715C70.469 15.2557 70.8373 14.9003 71.314 14.649C71.7907 14.3977 72.354 14.272 73.004 14.272C73.654 14.272 74.2173 14.3977 74.694 14.649C75.1793 14.9003 75.552 15.26 75.812 15.728C76.072 16.1873 76.202 16.7333 76.202 17.366V21.5H74.85V17.301C74.85 16.7117 74.6853 16.2523 74.356 15.923C74.0353 15.5937 73.5847 15.429 73.004 15.429C72.4147 15.429 71.9553 15.5937 71.626 15.923C71.2967 16.2523 71.132 16.7117 71.132 17.301V20.187L72.419 19.082C72.2543 19.03 72.1113 18.9433 71.99 18.822C71.7733 18.614 71.665 18.341 71.665 18.003C71.665 17.6477 71.7863 17.3573 72.029 17.132C72.2803 16.898 72.5967 16.781 72.978 16.781C73.3593 16.781 73.667 16.898 73.901 17.132C74.135 17.3573 74.252 17.6563 74.252 18.029C74.252 18.2977 74.1697 18.562 74.005 18.822C73.849 19.0733 73.576 19.3723 73.186 19.719L71.119 21.5H69.819ZM72.952 18.536C73.0993 18.536 73.2207 18.4883 73.316 18.393C73.42 18.289 73.472 18.1633 73.472 18.016C73.472 17.86 73.4243 17.7343 73.329 17.639C73.2337 17.5437 73.108 17.496 72.952 17.496C72.796 17.496 72.6703 17.5437 72.575 17.639C72.4797 17.7343 72.432 17.86 72.432 18.016C72.432 18.1633 72.4797 18.289 72.575 18.393C72.6703 18.4883 72.796 18.536 72.952 18.536ZM72.9659 25.075V24.295C72.9139 24.295 72.8619 24.295 72.8099 24.295C72.4892 24.295 72.2249 24.191 72.0169 23.983C71.8002 23.7837 71.6919 23.528 71.6919 23.216C71.6919 22.8867 71.8089 22.6137 72.0429 22.397C72.2682 22.189 72.5542 22.085 72.9009 22.085C73.2736 22.085 73.5726 22.189 73.7979 22.397C74.0232 22.6137 74.1359 22.891 74.1359 23.229V24.152H75.0589V22.215H76.2029V25.075H72.9659ZM72.9009 23.671C73.0309 23.671 73.1392 23.6277 73.2259 23.541C73.3126 23.463 73.3559 23.3547 73.3559 23.216C73.3559 23.086 73.3126 22.9777 73.2259 22.891C73.1306 22.813 73.0222 22.774 72.9009 22.774C72.7709 22.774 72.6626 22.813 72.5759 22.891C72.4892 22.9777 72.4459 23.086 72.4459 23.216C72.4459 23.3547 72.4892 23.463 72.5759 23.541C72.6539 23.6277 72.7622 23.671 72.9009 23.671ZM80.0524 21.656C79.6104 21.656 79.2551 21.5217 78.9864 21.253C78.7178 20.9843 78.5834 20.629 78.5834 20.187V15.052C78.5834 14.7227 78.6354 14.428 78.7394 14.168C78.8521 13.8993 78.9864 13.6523 79.1424 13.427C79.2984 13.2017 79.4544 12.985 79.6104 12.777C79.7751 12.5603 79.9094 12.3437 80.0134 12.127C80.1261 11.9103 80.1824 11.6807 80.1824 11.438C80.1824 11.1 80.0741 10.8183 79.8574 10.593C79.6408 10.3677 79.3504 10.255 78.9864 10.255C78.8564 10.255 78.7264 10.268 78.5964 10.294C78.4751 10.32 78.3798 10.3547 78.3104 10.398V10.424C78.6658 10.4673 78.9388 10.593 79.1294 10.801C79.3201 11.0003 79.4154 11.256 79.4154 11.568C79.4154 11.9493 79.2768 12.27 78.9994 12.53C78.7308 12.79 78.3841 12.92 77.9594 12.92C77.5521 12.92 77.2054 12.79 76.9194 12.53C76.6334 12.2613 76.4904 11.8843 76.4904 11.399C76.4904 10.9917 76.5944 10.632 76.8024 10.32C77.0018 9.99933 77.2878 9.748 77.6604 9.566C78.0331 9.37533 78.4664 9.28 78.9604 9.28C79.4891 9.28 79.9311 9.37967 80.2864 9.579C80.6418 9.77833 80.9104 10.0427 81.0924 10.372C81.2744 10.6927 81.3654 11.048 81.3654 11.438C81.3654 11.8193 81.2918 12.1617 81.1444 12.465C81.0058 12.7597 80.8411 13.0413 80.6504 13.31C80.4684 13.5787 80.3038 13.856 80.1564 14.142C80.0178 14.4193 79.9484 14.7357 79.9484 15.091V18.952C80.0264 18.9347 80.1044 18.926 80.1824 18.926C80.5638 18.926 80.8801 19.056 81.1314 19.316C81.3828 19.5673 81.5084 19.888 81.5084 20.278C81.5084 20.6853 81.3698 21.019 81.0924 21.279C80.8238 21.5303 80.4771 21.656 80.0524 21.656ZM77.9854 12.14C78.1588 12.14 78.3018 12.0837 78.4144 11.971C78.5271 11.8497 78.5834 11.7067 78.5834 11.542C78.5834 11.3687 78.5271 11.2257 78.4144 11.113C78.3018 11.0003 78.1588 10.944 77.9854 10.944C77.8208 10.944 77.6778 11.0003 77.5564 11.113C77.4438 11.2257 77.3874 11.3687 77.3874 11.542C77.3874 11.7067 77.4438 11.8497 77.5564 11.971C77.6778 12.0837 77.8208 12.14 77.9854 12.14ZM80.0654 20.811C80.2301 20.811 80.3601 20.7633 80.4554 20.668C80.5594 20.564 80.6114 20.434 80.6114 20.278C80.6114 20.1133 80.5594 19.9833 80.4554 19.888C80.3601 19.784 80.2301 19.732 80.0654 19.732C79.9181 19.732 79.7924 19.784 79.6884 19.888C79.5844 19.9833 79.5324 20.1133 79.5324 20.278C79.5324 20.434 79.5844 20.564 79.6884 20.668C79.7924 20.7633 79.9181 20.811 80.0654 20.811ZM83.2333 21.5V17.054C83.1726 17.0627 83.1119 17.067 83.0513 17.067C82.6526 17.067 82.3233 16.9413 82.0633 16.69C81.8033 16.43 81.6733 16.105 81.6733 15.715C81.6733 15.3163 81.8119 14.987 82.0893 14.727C82.3666 14.467 82.7176 14.337 83.1423 14.337C83.5843 14.337 83.9353 14.4713 84.1953 14.74C84.4553 15.0087 84.5853 15.364 84.5853 15.806V20.174L86.6913 18.731C86.8819 18.5923 87.0076 18.471 87.0683 18.367C87.1376 18.2543 87.1723 18.1113 87.1723 17.938V14.48H88.5373V18.081C88.5373 18.341 88.4853 18.5577 88.3813 18.731C88.3553 18.7743 88.3249 18.8177 88.2903 18.861C88.4809 18.9303 88.6456 19.0343 88.7843 19.173C89.0703 19.4417 89.2133 19.784 89.2133 20.2C89.2133 20.616 89.0703 20.9627 88.7843 21.24C88.5069 21.5087 88.1516 21.643 87.7183 21.643C87.2763 21.643 86.9123 21.5043 86.6263 21.227C86.3749 20.993 86.2319 20.7027 86.1973 20.356L84.5333 21.5H83.2333ZM87.7053 20.772C87.8786 20.772 88.0173 20.72 88.1213 20.616C88.2339 20.5033 88.2903 20.3647 88.2903 20.2C88.2903 20.0267 88.2339 19.8837 88.1213 19.771C88.0086 19.6583 87.8699 19.602 87.7053 19.602C87.5406 19.602 87.4019 19.6583 87.2893 19.771C87.1853 19.875 87.1333 20.0137 87.1333 20.187C87.1333 20.3603 87.1853 20.5033 87.2893 20.616C87.4019 20.72 87.5406 20.772 87.7053 20.772ZM83.1163 16.261C83.2809 16.261 83.4109 16.2133 83.5063 16.118C83.6016 16.014 83.6493 15.884 83.6493 15.728C83.6493 15.5633 83.6016 15.4333 83.5063 15.338C83.4109 15.234 83.2809 15.182 83.1163 15.182C82.9603 15.182 82.8303 15.234 82.7263 15.338C82.6309 15.4333 82.5833 15.5633 82.5833 15.728C82.5833 15.884 82.6309 16.014 82.7263 16.118C82.8303 16.2133 82.9603 16.261 83.1163 16.261Z" fill="white"/>
<path d="M76.14 41.772C75.2673 41.772 74.4457 41.6133 73.675 41.296C72.9043 40.9787 72.2243 40.5367 71.635 39.97C71.057 39.392 70.598 38.7177 70.258 37.947C69.9293 37.165 69.765 36.3207 69.765 35.414C69.765 34.5073 69.9293 33.6687 70.258 32.898C70.598 32.116 71.057 31.4417 71.635 30.875C72.2243 30.297 72.9043 29.8493 73.675 29.532C74.4457 29.2147 75.2673 29.056 76.14 29.056C77.0693 29.056 77.925 29.2203 78.707 29.549C79.5003 29.8777 80.1633 30.3367 80.696 30.926L79.404 32.201C79.1433 31.9063 78.843 31.657 78.503 31.453C78.1743 31.249 77.8117 31.096 77.415 30.994C77.0183 30.8807 76.5933 30.824 76.14 30.824C75.5393 30.824 74.967 30.9317 74.423 31.147C73.879 31.3623 73.3973 31.674 72.978 32.082C72.57 32.4787 72.247 32.9603 72.009 33.527C71.771 34.0823 71.652 34.7113 71.652 35.414C71.652 36.1167 71.771 36.7513 72.009 37.318C72.2583 37.8733 72.587 38.355 72.995 38.763C73.4143 39.1597 73.896 39.4657 74.44 39.681C74.984 39.8963 75.5563 40.004 76.157 40.004C76.7123 40.004 77.228 39.9247 77.704 39.766C78.1913 39.6073 78.6163 39.3807 78.979 39.086C79.3417 38.7913 79.6363 38.4343 79.863 38.015C80.0897 37.5843 80.2313 37.1027 80.288 36.57H76.123V34.921H82.039C82.0617 35.057 82.0843 35.2157 82.107 35.397C82.1297 35.567 82.141 35.7313 82.141 35.89V35.907C82.141 36.7797 81.988 37.5787 81.682 38.304C81.3873 39.0293 80.9737 39.6527 80.441 40.174C79.9083 40.684 79.2737 41.0807 78.537 41.364C77.8117 41.636 77.0127 41.772 76.14 41.772ZM87.6149 41.772C86.7195 41.772 85.9319 41.568 85.2519 41.16C84.5719 40.752 84.0392 40.2023 83.6539 39.511C83.2685 38.8083 83.0759 38.0263 83.0759 37.165C83.0759 36.3037 83.2685 35.5273 83.6539 34.836C84.0392 34.1333 84.5719 33.578 85.2519 33.17C85.9319 32.762 86.7195 32.558 87.6149 32.558C88.4989 32.558 89.2809 32.7677 89.9609 33.187C90.6409 33.595 91.1735 34.1447 91.5589 34.836C91.9442 35.5273 92.1369 36.3037 92.1369 37.165C92.1369 38.0263 91.9442 38.8083 91.5589 39.511C91.1735 40.2023 90.6409 40.752 89.9609 41.16C89.2809 41.568 88.4989 41.772 87.6149 41.772ZM87.6149 40.089C88.0909 40.089 88.5329 39.9757 88.9409 39.749C89.3489 39.511 89.6775 39.1767 89.9269 38.746C90.1875 38.304 90.3179 37.777 90.3179 37.165C90.3179 36.553 90.1875 36.0317 89.9269 35.601C89.6775 35.159 89.3489 34.8247 88.9409 34.598C88.5329 34.36 88.0909 34.241 87.6149 34.241C87.1389 34.241 86.6912 34.36 86.2719 34.598C85.8639 34.8247 85.5295 35.159 85.2689 35.601C85.0195 36.0317 84.8949 36.553 84.8949 37.165C84.8949 37.777 85.0195 38.304 85.2689 38.746C85.5295 39.1767 85.8695 39.511 86.2889 39.749C86.7082 39.9757 87.1502 40.089 87.6149 40.089ZM97.9078 41.772C97.0125 41.772 96.2248 41.568 95.5448 41.16C94.8648 40.752 94.3322 40.2023 93.9468 39.511C93.5615 38.8083 93.3688 38.0263 93.3688 37.165C93.3688 36.3037 93.5615 35.5273 93.9468 34.836C94.3322 34.1333 94.8648 33.578 95.5448 33.17C96.2248 32.762 97.0125 32.558 97.9078 32.558C98.7918 32.558 99.5738 32.7677 100.254 33.187C100.934 33.595 101.467 34.1447 101.852 34.836C102.237 35.5273 102.43 36.3037 102.43 37.165C102.43 38.0263 102.237 38.8083 101.852 39.511C101.467 40.2023 100.934 40.752 100.254 41.16C99.5738 41.568 98.7918 41.772 97.9078 41.772ZM97.9078 40.089C98.3838 40.089 98.8258 39.9757 99.2338 39.749C99.6418 39.511 99.9705 39.1767 100.22 38.746C100.481 38.304 100.611 37.777 100.611 37.165C100.611 36.553 100.481 36.0317 100.22 35.601C99.9705 35.159 99.6418 34.8247 99.2338 34.598C98.8258 34.36 98.3838 34.241 97.9078 34.241C97.4318 34.241 96.9842 34.36 96.5648 34.598C96.1568 34.8247 95.8225 35.159 95.5618 35.601C95.3125 36.0317 95.1878 36.553 95.1878 37.165C95.1878 37.777 95.3125 38.304 95.5618 38.746C95.8225 39.1767 96.1625 39.511 96.5818 39.749C97.0012 39.9757 97.4432 40.089 97.9078 40.089ZM108.031 45.444C107.271 45.444 106.614 45.3193 106.059 45.07C105.515 44.832 105.073 44.5203 104.733 44.135C104.393 43.761 104.149 43.3757 104.002 42.979L105.702 42.265C105.883 42.7183 106.172 43.0867 106.569 43.37C106.977 43.6647 107.464 43.812 108.031 43.812C108.835 43.812 109.464 43.574 109.918 43.098C110.371 42.622 110.598 41.9477 110.598 41.075V40.242H110.496C110.224 40.6387 109.85 40.9617 109.374 41.211C108.898 41.4603 108.348 41.585 107.725 41.585C106.988 41.585 106.308 41.398 105.685 41.024C105.073 40.65 104.58 40.1287 104.206 39.46C103.843 38.78 103.662 37.9867 103.662 37.08C103.662 36.162 103.843 35.3687 104.206 34.7C104.58 34.02 105.073 33.493 105.685 33.119C106.308 32.745 106.988 32.558 107.725 32.558C108.348 32.558 108.898 32.6827 109.374 32.932C109.85 33.17 110.224 33.4987 110.496 33.918H110.598V32.83H112.349V41.041C112.349 41.9817 112.162 42.7807 111.788 43.438C111.425 44.0953 110.921 44.594 110.275 44.934C109.629 45.274 108.881 45.444 108.031 45.444ZM108.048 39.919C108.501 39.919 108.92 39.8113 109.306 39.596C109.702 39.3693 110.014 39.0463 110.241 38.627C110.479 38.1963 110.598 37.6807 110.598 37.08C110.598 36.4453 110.479 35.9183 110.241 35.499C110.014 35.0797 109.702 34.7623 109.306 34.547C108.92 34.3317 108.501 34.224 108.048 34.224C107.594 34.224 107.169 34.3317 106.773 34.547C106.387 34.7623 106.076 35.0853 105.838 35.516C105.6 35.9353 105.481 36.4567 105.481 37.08C105.481 37.692 105.6 38.2133 105.838 38.644C106.076 39.0633 106.387 39.3807 106.773 39.596C107.169 39.8113 107.594 39.919 108.048 39.919ZM114.514 41.5V29.328H116.35V41.5H114.514ZM122.392 41.772C121.542 41.772 120.783 41.5737 120.114 41.177C119.446 40.7803 118.919 40.2363 118.533 39.545C118.159 38.8537 117.972 38.066 117.972 37.182C117.972 36.3547 118.154 35.5897 118.516 34.887C118.879 34.1843 119.383 33.6233 120.029 33.204C120.687 32.7733 121.44 32.558 122.29 32.558C123.186 32.558 123.945 32.7507 124.568 33.136C125.203 33.5213 125.685 34.0483 126.013 34.717C126.342 35.3857 126.506 36.1393 126.506 36.978C126.506 37.1027 126.501 37.216 126.489 37.318C126.489 37.42 126.484 37.4993 126.472 37.556H119.774C119.82 38.032 119.939 38.4457 120.131 38.797C120.381 39.239 120.709 39.5733 121.117 39.8C121.525 40.0267 121.967 40.14 122.443 40.14C123.021 40.14 123.503 40.0097 123.888 39.749C124.285 39.477 124.597 39.1427 124.823 38.746L126.336 39.477C125.962 40.157 125.452 40.7123 124.806 41.143C124.16 41.5623 123.356 41.772 122.392 41.772ZM119.876 36.179H124.687C124.676 35.9637 124.619 35.737 124.517 35.499C124.415 35.2497 124.268 35.023 124.075 34.819C123.883 34.615 123.639 34.4507 123.344 34.326C123.05 34.19 122.704 34.122 122.307 34.122C121.809 34.122 121.367 34.2523 120.981 34.513C120.596 34.7623 120.296 35.1137 120.08 35.567C119.99 35.7597 119.922 35.9637 119.876 36.179ZM133.979 41.5L130.715 29.328H132.789L134.727 37.233L134.931 38.287H135.033L135.288 37.233L137.736 29.328H139.606L141.952 37.233L142.207 38.27H142.309L142.513 37.233L144.451 29.328H146.508L143.295 41.5H141.323L138.994 33.425L138.722 32.286H138.62L138.331 33.425L135.9 41.5H133.979ZM149.922 41.772C149.299 41.772 148.743 41.6473 148.256 41.398C147.78 41.1487 147.4 40.8087 147.117 40.378C146.845 39.936 146.709 39.4317 146.709 38.865C146.709 38.2417 146.868 37.7147 147.185 37.284C147.514 36.8533 147.95 36.5247 148.494 36.298C149.038 36.0713 149.639 35.958 150.296 35.958C150.659 35.958 150.993 35.9863 151.299 36.043C151.616 36.0883 151.888 36.145 152.115 36.213C152.353 36.281 152.54 36.3547 152.676 36.434V35.975C152.676 35.4083 152.472 34.955 152.064 34.615C151.656 34.275 151.129 34.105 150.483 34.105C150.041 34.105 149.622 34.207 149.225 34.411C148.828 34.6037 148.511 34.87 148.273 35.21L147.015 34.241C147.264 33.8897 147.565 33.5893 147.916 33.34C148.279 33.0907 148.681 32.898 149.123 32.762C149.576 32.626 150.047 32.558 150.534 32.558C151.792 32.558 152.761 32.8697 153.441 33.493C154.121 34.105 154.461 34.9663 154.461 36.077V41.5H152.676V40.429H152.574C152.427 40.6557 152.223 40.871 151.962 41.075C151.713 41.279 151.412 41.4433 151.061 41.568C150.721 41.704 150.341 41.772 149.922 41.772ZM150.245 40.276C150.721 40.276 151.14 40.1627 151.503 39.936C151.877 39.7093 152.166 39.4147 152.37 39.052C152.574 38.678 152.676 38.2757 152.676 37.845C152.427 37.6977 152.121 37.5787 151.758 37.488C151.407 37.386 151.033 37.335 150.636 37.335C149.888 37.335 149.355 37.4823 149.038 37.777C148.721 38.0717 148.562 38.44 148.562 38.882C148.562 39.29 148.715 39.6243 149.021 39.885C149.327 40.1457 149.735 40.276 150.245 40.276ZM156.499 41.5V29.328H158.335V41.5H156.499ZM160.517 41.5V29.328H162.353V41.5H160.517ZM168.395 41.772C167.545 41.772 166.786 41.5737 166.117 41.177C165.449 40.7803 164.922 40.2363 164.536 39.545C164.162 38.8537 163.975 38.066 163.975 37.182C163.975 36.3547 164.157 35.5897 164.519 34.887C164.882 34.1843 165.386 33.6233 166.032 33.204C166.69 32.7733 167.443 32.558 168.293 32.558C169.189 32.558 169.948 32.7507 170.571 33.136C171.206 33.5213 171.688 34.0483 172.016 34.717C172.345 35.3857 172.509 36.1393 172.509 36.978C172.509 37.1027 172.504 37.216 172.492 37.318C172.492 37.42 172.487 37.4993 172.475 37.556H165.777C165.823 38.032 165.942 38.4457 166.134 38.797C166.384 39.239 166.712 39.5733 167.12 39.8C167.528 40.0267 167.97 40.14 168.446 40.14C169.024 40.14 169.506 40.0097 169.891 39.749C170.288 39.477 170.6 39.1427 170.826 38.746L172.339 39.477C171.965 40.157 171.455 40.7123 170.809 41.143C170.163 41.5623 169.359 41.772 168.395 41.772ZM165.879 36.179H170.69C170.679 35.9637 170.622 35.737 170.52 35.499C170.418 35.2497 170.271 35.023 170.078 34.819C169.886 34.615 169.642 34.4507 169.347 34.326C169.053 34.19 168.707 34.122 168.31 34.122C167.812 34.122 167.37 34.2523 166.984 34.513C166.599 34.7623 166.299 35.1137 166.083 35.567C165.993 35.7597 165.925 35.9637 165.879 36.179ZM173.369 32.83H174.882V30.382H176.718V32.83H178.843V34.428H176.718V38.593C176.718 39.0237 176.803 39.3523 176.973 39.579C177.154 39.8057 177.454 39.919 177.874 39.919C178.078 39.919 178.259 39.8907 178.418 39.834C178.576 39.766 178.735 39.6867 178.894 39.596V41.381C178.701 41.4603 178.497 41.5227 178.282 41.568C178.066 41.6133 177.811 41.636 177.517 41.636C176.712 41.636 176.072 41.4037 175.596 40.939C175.12 40.463 174.882 39.8113 174.882 38.984V34.428H173.369V32.83Z" fill="white"/>
</svg>
