<svg width="200" height="55" viewBox="0 0 200 55" fill="none" xmlns="http://www.w3.org/2000/svg">
<rect x="0.5" y="0.5" width="199" height="54" rx="27" fill="#1F1F1F"/>
<rect x="0.5" y="0.5" width="199" height="54" rx="27" stroke="#747775"/>
<path d="M57 23.791H21V18.1455C21 15.0809 23.6422 12.5001 26.7798 12.5001H51.2202C54.3578 12.5001 57 15.0809 57 18.1455V23.791Z" fill="#34A853"/>
<path d="M57 29H21V23C21 19.7429 23.6422 17 26.7798 17H51.2202C54.3578 17 57 19.7429 57 23V29Z" fill="#FBBC04"/>
<path d="M57 34H21V28C21 24.7429 23.6422 22 26.7798 22H51.2202C54.3578 22 57 24.7429 57 28V34Z" fill="#EA4335"/>
<path d="M21 25.2409L43.8493 30.4025C46.4795 31.0477 49.4384 30.4025 51.5753 28.7895L57 24.9183V37.0157C57 40.0804 54.3699 42.4999 51.2466 42.4999H26.7534C23.6301 42.4999 21 40.0804 21 37.0157V25.2409Z" fill="#4285F4"/>
<path d="M74.46 21.708C73.7927 21.708 73.1643 21.5867 72.575 21.344C71.9857 21.1013 71.4657 20.7633 71.015 20.33C70.573 19.888 70.222 19.3723 69.962 18.783C69.7107 18.185 69.585 17.5393 69.585 16.846C69.585 16.1527 69.7107 15.5113 69.962 14.922C70.222 14.324 70.573 13.8083 71.015 13.375C71.4657 12.933 71.9857 12.5907 72.575 12.348C73.1643 12.1053 73.7927 11.984 74.46 11.984C75.1707 11.984 75.825 12.1097 76.423 12.361C77.0297 12.6123 77.5367 12.9633 77.944 13.414L76.956 14.389C76.7567 14.1637 76.527 13.973 76.267 13.817C76.0157 13.661 75.7383 13.544 75.435 13.466C75.1317 13.3793 74.8067 13.336 74.46 13.336C74.0007 13.336 73.563 13.4183 73.147 13.583C72.731 13.7477 72.3627 13.986 72.042 14.298C71.73 14.6013 71.483 14.9697 71.301 15.403C71.119 15.8277 71.028 16.3087 71.028 16.846C71.028 17.3833 71.119 17.8687 71.301 18.302C71.4917 18.7267 71.743 19.095 72.055 19.407C72.3757 19.7103 72.744 19.9443 73.16 20.109C73.576 20.2737 74.0137 20.356 74.473 20.356C74.8977 20.356 75.292 20.2953 75.656 20.174C76.0287 20.0527 76.3537 19.8793 76.631 19.654C76.9083 19.4287 77.1337 19.1557 77.307 18.835C77.4803 18.5057 77.5887 18.1373 77.632 17.73H74.447V16.469H78.971C78.9883 16.573 79.0057 16.6943 79.023 16.833C79.0403 16.963 79.049 17.0887 79.049 17.21V17.223C79.049 17.8903 78.932 18.5013 78.698 19.056C78.4727 19.6107 78.1563 20.0873 77.749 20.486C77.3417 20.876 76.8563 21.1793 76.293 21.396C75.7383 21.604 75.1273 21.708 74.46 21.708ZM83.2349 21.708C82.5502 21.708 81.9479 21.552 81.4279 21.24C80.9079 20.928 80.5006 20.5077 80.2059 19.979C79.9112 19.4417 79.7639 18.8437 79.7639 18.185C79.7639 17.5263 79.9112 16.9327 80.2059 16.404C80.5006 15.8667 80.9079 15.442 81.4279 15.13C81.9479 14.818 82.5502 14.662 83.2349 14.662C83.9109 14.662 84.5089 14.8223 85.0289 15.143C85.5489 15.455 85.9562 15.8753 86.2509 16.404C86.5456 16.9327 86.6929 17.5263 86.6929 18.185C86.6929 18.8437 86.5456 19.4417 86.2509 19.979C85.9562 20.5077 85.5489 20.928 85.0289 21.24C84.5089 21.552 83.9109 21.708 83.2349 21.708ZM83.2349 20.421C83.5989 20.421 83.9369 20.3343 84.2489 20.161C84.5609 19.979 84.8122 19.7233 85.0029 19.394C85.2022 19.056 85.3019 18.653 85.3019 18.185C85.3019 17.717 85.2022 17.3183 85.0029 16.989C84.8122 16.651 84.5609 16.3953 84.2489 16.222C83.9369 16.04 83.5989 15.949 83.2349 15.949C82.8709 15.949 82.5286 16.04 82.2079 16.222C81.8959 16.3953 81.6402 16.651 81.4409 16.989C81.2502 17.3183 81.1549 17.717 81.1549 18.185C81.1549 18.653 81.2502 19.056 81.4409 19.394C81.6402 19.7233 81.9002 19.979 82.2209 20.161C82.5416 20.3343 82.8796 20.421 83.2349 20.421ZM91.106 21.708C90.4213 21.708 89.819 21.552 89.299 21.24C88.779 20.928 88.3717 20.5077 88.077 19.979C87.7823 19.4417 87.635 18.8437 87.635 18.185C87.635 17.5263 87.7823 16.9327 88.077 16.404C88.3717 15.8667 88.779 15.442 89.299 15.13C89.819 14.818 90.4213 14.662 91.106 14.662C91.782 14.662 92.38 14.8223 92.9 15.143C93.42 15.455 93.8273 15.8753 94.122 16.404C94.4167 16.9327 94.564 17.5263 94.564 18.185C94.564 18.8437 94.4167 19.4417 94.122 19.979C93.8273 20.5077 93.42 20.928 92.9 21.24C92.38 21.552 91.782 21.708 91.106 21.708ZM91.106 20.421C91.47 20.421 91.808 20.3343 92.12 20.161C92.432 19.979 92.6833 19.7233 92.874 19.394C93.0733 19.056 93.173 18.653 93.173 18.185C93.173 17.717 93.0733 17.3183 92.874 16.989C92.6833 16.651 92.432 16.3953 92.12 16.222C91.808 16.04 91.47 15.949 91.106 15.949C90.742 15.949 90.3997 16.04 90.079 16.222C89.767 16.3953 89.5113 16.651 89.312 16.989C89.1213 17.3183 89.026 17.717 89.026 18.185C89.026 18.653 89.1213 19.056 89.312 19.394C89.5113 19.7233 89.7713 19.979 90.092 20.161C90.4127 20.3343 90.7507 20.421 91.106 20.421ZM98.8471 24.516C98.2664 24.516 97.7638 24.4207 97.3391 24.23C96.9231 24.048 96.5851 23.8097 96.3251 23.515C96.0651 23.229 95.8788 22.9343 95.7661 22.631L97.0661 22.085C97.2048 22.4317 97.4258 22.7133 97.7291 22.93C98.0411 23.1553 98.4138 23.268 98.8471 23.268C99.4624 23.268 99.9434 23.086 100.29 22.722C100.637 22.358 100.81 21.8423 100.81 21.175V20.538H100.732C100.524 20.8413 100.238 21.0883 99.8741 21.279C99.5101 21.4697 99.0898 21.565 98.6131 21.565C98.0498 21.565 97.5298 21.422 97.0531 21.136C96.5851 20.85 96.2081 20.4513 95.9221 19.94C95.6448 19.42 95.5061 18.8133 95.5061 18.12C95.5061 17.418 95.6448 16.8113 95.9221 16.3C96.2081 15.78 96.5851 15.377 97.0531 15.091C97.5298 14.805 98.0498 14.662 98.6131 14.662C99.0898 14.662 99.5101 14.7573 99.8741 14.948C100.238 15.13 100.524 15.3813 100.732 15.702H100.81V14.87H102.149V21.149C102.149 21.8683 102.006 22.4793 101.72 22.982C101.443 23.4847 101.057 23.866 100.563 24.126C100.069 24.386 99.4971 24.516 98.8471 24.516ZM98.8601 20.291C99.2068 20.291 99.5274 20.2087 99.8221 20.044C100.125 19.8707 100.364 19.6237 100.537 19.303C100.719 18.9737 100.81 18.5793 100.81 18.12C100.81 17.6347 100.719 17.2317 100.537 16.911C100.364 16.5903 100.125 16.3477 99.8221 16.183C99.5274 16.0183 99.2068 15.936 98.8601 15.936C98.5134 15.936 98.1884 16.0183 97.8851 16.183C97.5904 16.3477 97.3521 16.5947 97.1701 16.924C96.9881 17.2447 96.8971 17.6433 96.8971 18.12C96.8971 18.588 96.9881 18.9867 97.1701 19.316C97.3521 19.6367 97.5904 19.8793 97.8851 20.044C98.1884 20.2087 98.5134 20.291 98.8601 20.291ZM103.805 21.5V12.192H105.209V21.5H103.805ZM109.829 21.708C109.179 21.708 108.599 21.5563 108.087 21.253C107.576 20.9497 107.173 20.5337 106.878 20.005C106.592 19.4763 106.449 18.874 106.449 18.198C106.449 17.5653 106.588 16.9803 106.865 16.443C107.143 15.9057 107.528 15.4767 108.022 15.156C108.525 14.8267 109.101 14.662 109.751 14.662C110.436 14.662 111.017 14.8093 111.493 15.104C111.979 15.3987 112.347 15.8017 112.598 16.313C112.85 16.8243 112.975 17.4007 112.975 18.042C112.975 18.1373 112.971 18.224 112.962 18.302C112.962 18.38 112.958 18.4407 112.949 18.484H107.827C107.862 18.848 107.953 19.1643 108.1 19.433C108.291 19.771 108.542 20.0267 108.854 20.2C109.166 20.3733 109.504 20.46 109.868 20.46C110.31 20.46 110.679 20.3603 110.973 20.161C111.277 19.953 111.515 19.6973 111.688 19.394L112.845 19.953C112.559 20.473 112.169 20.8977 111.675 21.227C111.181 21.5477 110.566 21.708 109.829 21.708ZM107.905 17.431H111.584C111.576 17.2663 111.532 17.093 111.454 16.911C111.376 16.7203 111.264 16.547 111.116 16.391C110.969 16.235 110.783 16.1093 110.557 16.014C110.332 15.91 110.068 15.858 109.764 15.858C109.383 15.858 109.045 15.9577 108.75 16.157C108.456 16.3477 108.226 16.6163 108.061 16.963C107.992 17.1103 107.94 17.2663 107.905 17.431ZM121.673 21.708C120.989 21.708 120.352 21.5867 119.762 21.344C119.173 21.0927 118.657 20.7503 118.215 20.317C117.782 19.875 117.44 19.3593 117.188 18.77C116.946 18.172 116.824 17.5307 116.824 16.846C116.824 16.1527 116.946 15.5113 117.188 14.922C117.44 14.3327 117.782 13.8213 118.215 13.388C118.657 12.946 119.173 12.6037 119.762 12.361C120.352 12.1097 120.989 11.984 121.673 11.984C122.159 11.984 122.609 12.0447 123.025 12.166C123.441 12.2873 123.823 12.4607 124.169 12.686C124.516 12.9113 124.832 13.1843 125.118 13.505L124.117 14.48C123.909 14.2287 123.684 14.0207 123.441 13.856C123.199 13.6827 122.93 13.5527 122.635 13.466C122.349 13.3793 122.033 13.336 121.686 13.336C121.062 13.336 120.49 13.4833 119.97 13.778C119.45 14.064 119.034 14.467 118.722 14.987C118.419 15.507 118.267 16.1267 118.267 16.846C118.267 17.5567 118.419 18.1763 118.722 18.705C119.034 19.225 119.45 19.6323 119.97 19.927C120.49 20.213 121.062 20.356 121.686 20.356C122.068 20.356 122.414 20.304 122.726 20.2C123.047 20.096 123.342 19.9443 123.61 19.745C123.879 19.5457 124.126 19.3117 124.351 19.043L125.378 20.031C125.092 20.369 124.759 20.6637 124.377 20.915C123.996 21.1663 123.58 21.3613 123.129 21.5C122.679 21.6387 122.193 21.708 121.673 21.708ZM128.959 21.708C128.145 21.708 127.529 21.4653 127.113 20.98C126.706 20.486 126.502 19.8187 126.502 18.978V14.87H127.906V18.783C127.906 19.3377 128.036 19.7493 128.296 20.018C128.565 20.2867 128.899 20.421 129.297 20.421C129.661 20.421 129.973 20.33 130.233 20.148C130.493 19.9573 130.693 19.7103 130.831 19.407C130.979 19.1037 131.052 18.7787 131.052 18.432V14.87H132.443V21.5H131.13V20.603H131.052C130.931 20.811 130.762 20.9973 130.545 21.162C130.329 21.3267 130.086 21.4567 129.817 21.552C129.549 21.656 129.263 21.708 128.959 21.708ZM130.623 13.518C130.407 13.518 130.216 13.44 130.051 13.284C129.895 13.1193 129.817 12.9287 129.817 12.712C129.817 12.478 129.895 12.2873 130.051 12.14C130.216 11.984 130.407 11.906 130.623 11.906C130.857 11.906 131.052 11.984 131.208 12.14C131.364 12.2873 131.442 12.478 131.442 12.712C131.442 12.9287 131.364 13.1193 131.208 13.284C131.052 13.44 130.857 13.518 130.623 13.518ZM128.322 13.518C128.106 13.518 127.915 13.44 127.75 13.284C127.594 13.1193 127.516 12.9287 127.516 12.712C127.516 12.478 127.594 12.2873 127.75 12.14C127.915 11.984 128.106 11.906 128.322 11.906C128.556 11.906 128.747 11.984 128.894 12.14C129.05 12.2873 129.128 12.478 129.128 12.712C129.128 12.9287 129.05 13.1193 128.894 13.284C128.747 13.44 128.556 13.518 128.322 13.518ZM133.948 21.5V20.33L137.64 16.092H134.065V14.87H139.356V16.04L135.677 20.278H139.46V21.5H133.948ZM143.48 21.708C142.882 21.708 142.34 21.5563 141.855 21.253C141.37 20.9497 140.988 20.5337 140.711 20.005C140.434 19.4763 140.295 18.8697 140.295 18.185C140.295 17.5003 140.434 16.8937 140.711 16.365C140.988 15.8363 141.37 15.4203 141.855 15.117C142.34 14.8137 142.882 14.662 143.48 14.662C143.827 14.662 144.139 14.714 144.416 14.818C144.693 14.922 144.932 15.0607 145.131 15.234C145.339 15.3987 145.499 15.5763 145.612 15.767H145.69L145.612 14.844V12.192H147.003V21.5H145.69V20.616H145.612C145.499 20.798 145.339 20.9757 145.131 21.149C144.932 21.3137 144.693 21.448 144.416 21.552C144.139 21.656 143.827 21.708 143.48 21.708ZM143.688 20.421C144.035 20.421 144.36 20.33 144.663 20.148C144.975 19.966 145.222 19.7103 145.404 19.381C145.595 19.043 145.69 18.6443 145.69 18.185C145.69 17.7257 145.595 17.3313 145.404 17.002C145.222 16.664 144.975 16.404 144.663 16.222C144.36 16.04 144.035 15.949 143.688 15.949C143.341 15.949 143.016 16.04 142.713 16.222C142.41 16.404 142.163 16.664 141.972 17.002C141.781 17.3313 141.686 17.7257 141.686 18.185C141.686 18.6357 141.781 19.03 141.972 19.368C142.163 19.706 142.41 19.966 142.713 20.148C143.016 20.33 143.341 20.421 143.688 20.421ZM150.673 21.708C150.197 21.708 149.772 21.6127 149.399 21.422C149.035 21.2313 148.745 20.9713 148.528 20.642C148.32 20.304 148.216 19.9183 148.216 19.485C148.216 19.0083 148.338 18.6053 148.58 18.276C148.832 17.9467 149.165 17.6953 149.581 17.522C149.997 17.3487 150.457 17.262 150.959 17.262C151.237 17.262 151.492 17.2837 151.726 17.327C151.969 17.3617 152.177 17.405 152.35 17.457C152.532 17.509 152.675 17.5653 152.779 17.626V17.275C152.779 16.8417 152.623 16.495 152.311 16.235C151.999 15.975 151.596 15.845 151.102 15.845C150.764 15.845 150.444 15.923 150.14 16.079C149.837 16.2263 149.594 16.43 149.412 16.69L148.45 15.949C148.641 15.6803 148.871 15.4507 149.139 15.26C149.417 15.0693 149.724 14.922 150.062 14.818C150.409 14.714 150.769 14.662 151.141 14.662C152.103 14.662 152.844 14.9003 153.364 15.377C153.884 15.845 154.144 16.5037 154.144 17.353V21.5H152.779V20.681H152.701C152.589 20.8543 152.433 21.019 152.233 21.175C152.043 21.331 151.813 21.4567 151.544 21.552C151.284 21.656 150.994 21.708 150.673 21.708ZM150.92 20.564C151.284 20.564 151.605 20.4773 151.882 20.304C152.168 20.1307 152.389 19.9053 152.545 19.628C152.701 19.342 152.779 19.0343 152.779 18.705C152.589 18.5923 152.355 18.5013 152.077 18.432C151.809 18.354 151.523 18.315 151.219 18.315C150.647 18.315 150.24 18.4277 149.997 18.653C149.755 18.8783 149.633 19.16 149.633 19.498C149.633 19.81 149.75 20.0657 149.984 20.265C150.218 20.4643 150.53 20.564 150.92 20.564ZM155.69 21.5V14.87H157.016V15.78H157.094C157.285 15.4593 157.566 15.195 157.939 14.987C158.32 14.7703 158.736 14.662 159.187 14.662C160.002 14.662 160.613 14.9047 161.02 15.39C161.427 15.8667 161.631 16.508 161.631 17.314V21.5H160.24V17.496C160.24 16.9587 160.106 16.5687 159.837 16.326C159.568 16.0747 159.217 15.949 158.784 15.949C158.446 15.949 158.151 16.0443 157.9 16.235C157.649 16.417 157.449 16.6597 157.302 16.963C157.163 17.2663 157.094 17.5913 157.094 17.938V21.5H155.69ZM163.075 15.091V12.192H164.349V15.091H163.075ZM168.693 21.708C168.095 21.708 167.553 21.5563 167.068 21.253C166.583 20.9497 166.201 20.5337 165.924 20.005C165.647 19.4763 165.508 18.8697 165.508 18.185C165.508 17.5003 165.647 16.8937 165.924 16.365C166.201 15.8363 166.583 15.4203 167.068 15.117C167.553 14.8137 168.095 14.662 168.693 14.662C169.04 14.662 169.352 14.714 169.629 14.818C169.906 14.922 170.145 15.0607 170.344 15.234C170.552 15.3987 170.712 15.5763 170.825 15.767H170.903L170.825 14.844V12.192H172.216V21.5H170.903V20.616H170.825C170.712 20.798 170.552 20.9757 170.344 21.149C170.145 21.3137 169.906 21.448 169.629 21.552C169.352 21.656 169.04 21.708 168.693 21.708ZM168.901 20.421C169.248 20.421 169.573 20.33 169.876 20.148C170.188 19.966 170.435 19.7103 170.617 19.381C170.808 19.043 170.903 18.6443 170.903 18.185C170.903 17.7257 170.808 17.3313 170.617 17.002C170.435 16.664 170.188 16.404 169.876 16.222C169.573 16.04 169.248 15.949 168.901 15.949C168.554 15.949 168.229 16.04 167.926 16.222C167.623 16.404 167.376 16.664 167.185 17.002C166.994 17.3313 166.899 17.7257 166.899 18.185C166.899 18.6357 166.994 19.03 167.185 19.368C167.376 19.706 167.623 19.966 167.926 20.148C168.229 20.33 168.554 20.421 168.901 20.421ZM175.886 21.708C175.41 21.708 174.985 21.6127 174.612 21.422C174.248 21.2313 173.958 20.9713 173.741 20.642C173.533 20.304 173.429 19.9183 173.429 19.485C173.429 19.0083 173.551 18.6053 173.793 18.276C174.045 17.9467 174.378 17.6953 174.794 17.522C175.21 17.3487 175.67 17.262 176.172 17.262C176.45 17.262 176.705 17.2837 176.939 17.327C177.182 17.3617 177.39 17.405 177.563 17.457C177.745 17.509 177.888 17.5653 177.992 17.626V17.275C177.992 16.8417 177.836 16.495 177.524 16.235C177.212 15.975 176.809 15.845 176.315 15.845C175.977 15.845 175.657 15.923 175.353 16.079C175.05 16.2263 174.807 16.43 174.625 16.69L173.663 15.949C173.854 15.6803 174.084 15.4507 174.352 15.26C174.63 15.0693 174.937 14.922 175.275 14.818C175.622 14.714 175.982 14.662 176.354 14.662C177.316 14.662 178.057 14.9003 178.577 15.377C179.097 15.845 179.357 16.5037 179.357 17.353V21.5H177.992V20.681H177.914C177.802 20.8543 177.646 21.019 177.446 21.175C177.256 21.331 177.026 21.4567 176.757 21.552C176.497 21.656 176.207 21.708 175.886 21.708ZM176.133 20.564C176.497 20.564 176.818 20.4773 177.095 20.304C177.381 20.1307 177.602 19.9053 177.758 19.628C177.914 19.342 177.992 19.0343 177.992 18.705C177.802 18.5923 177.568 18.5013 177.29 18.432C177.022 18.354 176.736 18.315 176.432 18.315C175.86 18.315 175.453 18.4277 175.21 18.653C174.968 18.8783 174.846 19.16 174.846 19.498C174.846 19.81 174.963 20.0657 175.197 20.265C175.431 20.4643 175.743 20.564 176.133 20.564Z" fill="white"/>
<path d="M73.981 45.444C73.2217 45.444 72.5643 45.3193 72.009 45.07C71.465 44.832 71.023 44.5203 70.683 44.135C70.343 43.761 70.0993 43.3757 69.952 42.979L71.652 42.265C71.8333 42.7183 72.1223 43.0867 72.519 43.37C72.927 43.6647 73.4143 43.812 73.981 43.812C74.7857 43.812 75.4147 43.574 75.868 43.098C76.3213 42.622 76.548 41.9477 76.548 41.075V40.242H76.446C76.174 40.6387 75.8 40.9617 75.324 41.211C74.848 41.4603 74.2983 41.585 73.675 41.585C72.9383 41.585 72.2583 41.398 71.635 41.024C71.023 40.65 70.53 40.1287 70.156 39.46C69.7933 38.78 69.612 37.9867 69.612 37.08C69.612 36.162 69.7933 35.3687 70.156 34.7C70.53 34.02 71.023 33.493 71.635 33.119C72.2583 32.745 72.9383 32.558 73.675 32.558C74.2983 32.558 74.848 32.6827 75.324 32.932C75.8 33.17 76.174 33.4987 76.446 33.918H76.548V32.83H78.299V41.041C78.299 41.9817 78.112 42.7807 77.738 43.438C77.3753 44.0953 76.871 44.594 76.225 44.934C75.579 45.274 74.831 45.444 73.981 45.444ZM73.998 39.919C74.4513 39.919 74.8707 39.8113 75.256 39.596C75.6527 39.3693 75.9643 39.0463 76.191 38.627C76.429 38.1963 76.548 37.6807 76.548 37.08C76.548 36.4453 76.429 35.9183 76.191 35.499C75.9643 35.0797 75.6527 34.7623 75.256 34.547C74.8707 34.3317 74.4513 34.224 73.998 34.224C73.5447 34.224 73.1197 34.3317 72.723 34.547C72.3377 34.7623 72.026 35.0853 71.788 35.516C71.55 35.9353 71.431 36.4567 71.431 37.08C71.431 37.692 71.55 38.2133 71.788 38.644C72.026 39.0633 72.3377 39.3807 72.723 39.596C73.1197 39.8113 73.5447 39.919 73.998 39.919ZM84.444 41.772C83.5486 41.772 82.761 41.568 82.081 41.16C81.401 40.752 80.8683 40.2023 80.483 39.511C80.0976 38.8083 79.905 38.0263 79.905 37.165C79.905 36.3037 80.0976 35.5273 80.483 34.836C80.8683 34.1333 81.401 33.578 82.081 33.17C82.761 32.762 83.5486 32.558 84.444 32.558C85.328 32.558 86.11 32.7677 86.79 33.187C87.47 33.595 88.0026 34.1447 88.388 34.836C88.7733 35.5273 88.966 36.3037 88.966 37.165C88.966 38.0263 88.7733 38.8083 88.388 39.511C88.0026 40.2023 87.47 40.752 86.79 41.16C86.11 41.568 85.328 41.772 84.444 41.772ZM84.444 40.089C84.92 40.089 85.362 39.9757 85.77 39.749C86.178 39.511 86.5066 39.1767 86.756 38.746C87.0166 38.304 87.147 37.777 87.147 37.165C87.147 36.553 87.0166 36.0317 86.756 35.601C86.5066 35.159 86.178 34.8247 85.77 34.598C85.362 34.36 84.92 34.241 84.444 34.241C83.968 34.241 83.5203 34.36 83.101 34.598C82.693 34.8247 82.3586 35.159 82.098 35.601C81.8486 36.0317 81.724 36.553 81.724 37.165C81.724 37.777 81.8486 38.304 82.098 38.746C82.3586 39.1767 82.6986 39.511 83.118 39.749C83.5373 39.9757 83.9793 40.089 84.444 40.089ZM85.94 31.062C85.6566 31.062 85.4073 30.96 85.192 30.756C84.988 30.5407 84.886 30.2913 84.886 30.008C84.886 29.702 84.988 29.4527 85.192 29.26C85.4073 29.056 85.6566 28.954 85.94 28.954C86.246 28.954 86.501 29.056 86.705 29.26C86.909 29.4527 87.011 29.702 87.011 30.008C87.011 30.2913 86.909 30.5407 86.705 30.756C86.501 30.96 86.246 31.062 85.94 31.062ZM82.931 31.062C82.6476 31.062 82.3983 30.96 82.183 30.756C81.979 30.5407 81.877 30.2913 81.877 30.008C81.877 29.702 81.979 29.4527 82.183 29.26C82.3983 29.056 82.6476 28.954 82.931 28.954C83.237 28.954 83.4863 29.056 83.679 29.26C83.883 29.4527 83.985 29.702 83.985 30.008C83.985 30.2913 83.883 30.5407 83.679 30.756C83.4863 30.96 83.237 31.062 82.931 31.062ZM93.7359 41.772C93.0446 41.772 92.4439 41.67 91.9339 41.466C91.4239 41.2507 91.0046 40.9673 90.6759 40.616C90.3473 40.2533 90.1036 39.8623 89.9449 39.443L91.5939 38.729C91.7979 39.1937 92.0869 39.5507 92.4609 39.8C92.8463 40.038 93.2883 40.157 93.7869 40.157C94.2403 40.157 94.6313 40.0777 94.9599 39.919C95.2886 39.749 95.4529 39.477 95.4529 39.103C95.4529 38.865 95.3736 38.6723 95.2149 38.525C95.0676 38.3663 94.8636 38.236 94.6029 38.134C94.3536 38.032 94.0646 37.9413 93.7359 37.862L92.6989 37.624C92.2909 37.522 91.8999 37.3633 91.5259 37.148C91.1633 36.9213 90.8686 36.638 90.6419 36.298C90.4153 35.958 90.3019 35.5557 90.3019 35.091C90.3019 34.5697 90.4493 34.122 90.7439 33.748C91.0499 33.3627 91.4579 33.068 91.9679 32.864C92.4779 32.66 93.0276 32.558 93.6169 32.558C94.1609 32.558 94.6539 32.6317 95.0959 32.779C95.5493 32.915 95.9403 33.1247 96.2689 33.408C96.6089 33.68 96.8753 34.02 97.0679 34.428L95.4869 35.142C95.2943 34.7567 95.0336 34.4903 94.7049 34.343C94.3763 34.1843 94.0193 34.105 93.6339 34.105C93.2033 34.105 92.8406 34.1957 92.5459 34.377C92.2626 34.547 92.1209 34.7737 92.1209 35.057C92.1209 35.3517 92.2456 35.584 92.4949 35.754C92.7556 35.924 93.0729 36.06 93.4469 36.162L94.7049 36.468C95.5663 36.6833 96.2123 37.012 96.6429 37.454C97.0736 37.8847 97.2889 38.4117 97.2889 39.035C97.2889 39.5903 97.1303 40.0777 96.8129 40.497C96.4956 40.905 96.0649 41.2223 95.5209 41.449C94.9883 41.6643 94.3933 41.772 93.7359 41.772ZM98.2133 32.83H99.7263V30.382H101.562V32.83H103.687V34.428H101.562V38.593C101.562 39.0237 101.647 39.3523 101.817 39.579C101.999 39.8057 102.299 39.919 102.718 39.919C102.922 39.919 103.104 39.8907 103.262 39.834C103.421 39.766 103.58 39.6867 103.738 39.596V41.381C103.546 41.4603 103.342 41.5227 103.126 41.568C102.911 41.6133 102.656 41.636 102.361 41.636C101.557 41.636 100.916 41.4037 100.44 40.939C99.9643 40.463 99.7263 39.8113 99.7263 38.984V34.428H98.2133V32.83ZM109.078 41.772C108.228 41.772 107.469 41.5737 106.8 41.177C106.131 40.7803 105.604 40.2363 105.219 39.545C104.845 38.8537 104.658 38.066 104.658 37.182C104.658 36.3547 104.839 35.5897 105.202 34.887C105.565 34.1843 106.069 33.6233 106.715 33.204C107.372 32.7733 108.126 32.558 108.976 32.558C109.871 32.558 110.631 32.7507 111.254 33.136C111.889 33.5213 112.37 34.0483 112.699 34.717C113.028 35.3857 113.192 36.1393 113.192 36.978C113.192 37.1027 113.186 37.216 113.175 37.318C113.175 37.42 113.169 37.4993 113.158 37.556H106.46C106.505 38.032 106.624 38.4457 106.817 38.797C107.066 39.239 107.395 39.5733 107.803 39.8C108.211 40.0267 108.653 40.14 109.129 40.14C109.707 40.14 110.189 40.0097 110.574 39.749C110.971 39.477 111.282 39.1427 111.509 38.746L113.022 39.477C112.648 40.157 112.138 40.7123 111.492 41.143C110.846 41.5623 110.041 41.772 109.078 41.772ZM106.562 36.179H111.373C111.362 35.9637 111.305 35.737 111.203 35.499C111.101 35.2497 110.954 35.023 110.761 34.819C110.568 34.615 110.325 34.4507 110.03 34.326C109.735 34.19 109.39 34.122 108.993 34.122C108.494 34.122 108.052 34.2523 107.667 34.513C107.282 34.7623 106.981 35.1137 106.766 35.567C106.675 35.7597 106.607 35.9637 106.562 36.179ZM114.895 41.5V32.83H116.629V34.105H116.731C116.867 33.8103 117.06 33.5497 117.309 33.323C117.57 33.0963 117.865 32.915 118.193 32.779C118.533 32.643 118.885 32.575 119.247 32.575C119.485 32.575 119.684 32.592 119.842 32.626C120.012 32.6487 120.165 32.6883 120.301 32.745V34.649C120.086 34.5583 119.865 34.4847 119.638 34.428C119.423 34.3713 119.196 34.343 118.958 34.343C118.528 34.343 118.142 34.462 117.802 34.7C117.474 34.9267 117.213 35.2327 117.02 35.618C116.828 36.0033 116.731 36.434 116.731 36.91V41.5H114.895Z" fill="white"/>
</svg>
