<svg width="226" height="55" viewBox="0 0 226 55" fill="none" xmlns="http://www.w3.org/2000/svg">
<rect x="0.5" y="0.5" width="225" height="54" rx="27" fill="#1F1F1F"/>
<rect x="0.5" y="0.5" width="225" height="54" rx="27" stroke="#747775"/>
<path d="M57 23.791H21V18.1455C21 15.0809 23.6422 12.5001 26.7798 12.5001H51.2202C54.3578 12.5001 57 15.0809 57 18.1455V23.791Z" fill="#34A853"/>
<path d="M57 29H21V23C21 19.7429 23.6422 17 26.7798 17H51.2202C54.3578 17 57 19.7429 57 23V29Z" fill="#FBBC04"/>
<path d="M57 34H21V28C21 24.7429 23.6422 22 26.7798 22H51.2202C54.3578 22 57 24.7429 57 28V34Z" fill="#EA4335"/>
<path d="M21 25.2409L43.8493 30.4025C46.4795 31.0477 49.4384 30.4025 51.5753 28.7895L57 24.9183V37.0157C57 40.0804 54.3699 42.4999 51.2466 42.4999H26.7534C23.6301 42.4999 21 40.0804 21 37.0157V25.2409Z" fill="#4285F4"/>
<path d="M70.053 21.5V12.192H77.073V21.5H75.643V13.544H71.483V21.5H70.053ZM81.9759 21.708C81.3259 21.708 80.7453 21.5563 80.2339 21.253C79.7226 20.9497 79.3196 20.5337 79.0249 20.005C78.7389 19.4763 78.5959 18.874 78.5959 18.198C78.5959 17.5653 78.7346 16.9803 79.0119 16.443C79.2893 15.9057 79.6749 15.4767 80.1689 15.156C80.6716 14.8267 81.2479 14.662 81.8979 14.662C82.5826 14.662 83.1633 14.8093 83.6399 15.104C84.1253 15.3987 84.4936 15.8017 84.7449 16.313C84.9963 16.8243 85.1219 17.4007 85.1219 18.042C85.1219 18.1373 85.1176 18.224 85.1089 18.302C85.1089 18.38 85.1046 18.4407 85.0959 18.484H79.9739C80.0086 18.848 80.0996 19.1643 80.2469 19.433C80.4376 19.771 80.6889 20.0267 81.0009 20.2C81.3129 20.3733 81.6509 20.46 82.0149 20.46C82.4569 20.46 82.8253 20.3603 83.1199 20.161C83.4233 19.953 83.6616 19.6973 83.8349 19.394L84.9919 19.953C84.7059 20.473 84.3159 20.8977 83.8219 21.227C83.3279 21.5477 82.7126 21.708 81.9759 21.708ZM80.0519 17.431H83.7309C83.7223 17.2663 83.6789 17.093 83.6009 16.911C83.5229 16.7203 83.4103 16.547 83.2629 16.391C83.1156 16.235 82.9293 16.1093 82.7039 16.014C82.4786 15.91 82.2143 15.858 81.9109 15.858C81.5296 15.858 81.1916 15.9577 80.8969 16.157C80.6023 16.3477 80.3726 16.6163 80.2079 16.963C80.1386 17.1103 80.0866 17.2663 80.0519 17.431ZM86.4115 24.308V14.87H87.7245V15.767H87.8025C87.9238 15.5763 88.0841 15.3987 88.2835 15.234C88.4915 15.0607 88.7341 14.922 89.0115 14.818C89.2888 14.714 89.5965 14.662 89.9345 14.662C90.5411 14.662 91.0828 14.8137 91.5595 15.117C92.0361 15.4203 92.4131 15.8363 92.6905 16.365C92.9765 16.8937 93.1195 17.5003 93.1195 18.185C93.1195 18.8697 92.9765 19.4763 92.6905 20.005C92.4131 20.5337 92.0361 20.9497 91.5595 21.253C91.0828 21.5563 90.5411 21.708 89.9345 21.708C89.4318 21.708 88.9941 21.5953 88.6215 21.37C88.2488 21.1447 87.9758 20.8933 87.8025 20.616H87.7245L87.8025 21.539V24.308H86.4115ZM89.7265 20.421C90.0731 20.421 90.3981 20.33 90.7015 20.148C91.0135 19.966 91.2605 19.706 91.4425 19.368C91.6331 19.03 91.7285 18.6357 91.7285 18.185C91.7285 17.7257 91.6331 17.3313 91.4425 17.002C91.2605 16.664 91.0135 16.404 90.7015 16.222C90.3981 16.04 90.0731 15.949 89.7265 15.949C89.3798 15.949 89.0548 16.04 88.7515 16.222C88.4481 16.404 88.2011 16.664 88.0105 17.002C87.8198 17.3313 87.7245 17.7257 87.7245 18.185C87.7245 18.6443 87.8198 19.043 88.0105 19.381C88.2011 19.7103 88.4481 19.966 88.7515 20.148C89.0548 20.33 89.3798 20.421 89.7265 20.421ZM97.4134 21.708C96.7634 21.708 96.1828 21.5563 95.6714 21.253C95.1601 20.9497 94.7571 20.5337 94.4624 20.005C94.1764 19.4763 94.0334 18.874 94.0334 18.198C94.0334 17.5653 94.1721 16.9803 94.4494 16.443C94.7268 15.9057 95.1124 15.4767 95.6064 15.156C96.1091 14.8267 96.6854 14.662 97.3354 14.662C98.0201 14.662 98.6008 14.8093 99.0774 15.104C99.5628 15.3987 99.9311 15.8017 100.182 16.313C100.434 16.8243 100.559 17.4007 100.559 18.042C100.559 18.1373 100.555 18.224 100.546 18.302C100.546 18.38 100.542 18.4407 100.533 18.484H95.4114C95.4461 18.848 95.5371 19.1643 95.6844 19.433C95.8751 19.771 96.1264 20.0267 96.4384 20.2C96.7504 20.3733 97.0884 20.46 97.4524 20.46C97.8944 20.46 98.2628 20.3603 98.5574 20.161C98.8608 19.953 99.0991 19.6973 99.2724 19.394L100.429 19.953C100.143 20.473 99.7534 20.8977 99.2594 21.227C98.7654 21.5477 98.1501 21.708 97.4134 21.708ZM95.4894 17.431H99.1684C99.1598 17.2663 99.1164 17.093 99.0384 16.911C98.9604 16.7203 98.8478 16.547 98.7004 16.391C98.5531 16.235 98.3668 16.1093 98.1414 16.014C97.9161 15.91 97.6518 15.858 97.3484 15.858C96.9671 15.858 96.6291 15.9577 96.3344 16.157C96.0398 16.3477 95.8101 16.6163 95.6454 16.963C95.5761 17.1103 95.5241 17.2663 95.4894 17.431ZM101.862 21.5V14.87H106.204V16.092H103.266V21.5H101.862ZM107.095 21.604C107 21.604 106.9 21.5953 106.796 21.578C106.701 21.5693 106.61 21.5563 106.523 21.539V20.239C106.584 20.265 106.653 20.2867 106.731 20.304C106.809 20.3213 106.874 20.33 106.926 20.33C107.221 20.33 107.429 20.2173 107.55 19.992C107.671 19.758 107.745 19.4633 107.771 19.108C107.797 18.7527 107.81 18.3843 107.81 18.003V14.87H112.88V21.5H111.489V16.092H109.136V18.224C109.136 18.666 109.106 19.0907 109.045 19.498C108.984 19.9053 108.88 20.2693 108.733 20.59C108.594 20.902 108.391 21.149 108.122 21.331C107.862 21.513 107.52 21.604 107.095 21.604ZM118.263 21.5V19.251H117.34L115.676 21.5H114.103V21.422L115.871 19.121L115.845 19.043C115.784 19.0257 115.728 19.004 115.676 18.978C115.295 18.7873 114.991 18.5273 114.766 18.198C114.549 17.8687 114.441 17.496 114.441 17.08C114.441 16.6553 114.545 16.2783 114.753 15.949C114.961 15.611 115.243 15.3467 115.598 15.156C115.962 14.9653 116.369 14.87 116.82 14.87H119.667V21.5H118.263ZM118.263 18.133V16.04H116.924C116.621 16.04 116.361 16.1397 116.144 16.339C115.936 16.5297 115.832 16.7767 115.832 17.08C115.832 17.3833 115.936 17.6347 116.144 17.834C116.361 18.0333 116.621 18.133 116.924 18.133H118.263ZM121.311 21.5V14.87H122.715V17.535H125.861V14.87H127.265V21.5H125.861V18.757H122.715V21.5H121.311ZM131.165 23.983C131.139 24.0437 131.109 24.1043 131.074 24.165C131.048 24.2343 131.031 24.282 131.022 24.308H129.527C129.57 24.2127 129.631 24.0783 129.709 23.905C129.796 23.7317 129.878 23.5583 129.956 23.385C130.008 23.2723 130.06 23.151 130.112 23.021C130.173 22.891 130.233 22.7567 130.294 22.618C130.363 22.4793 130.428 22.345 130.489 22.215L130.983 21.136L128.214 14.87H129.774L131.672 19.394H131.737L133.57 14.87H135.117L131.685 22.774C131.624 22.9213 131.555 23.0773 131.477 23.242C131.408 23.4067 131.343 23.554 131.282 23.684C131.23 23.8227 131.191 23.9223 131.165 23.983ZM137.817 21.5V16.092H135.633V14.87H141.392V16.092H139.208V21.5H137.817ZM142.538 21.5V14.87H143.942V18.263L143.864 19.511H143.942L147.257 14.87H148.648V21.5H147.257V18.12L147.335 16.872H147.257L143.942 21.5H142.538Z" fill="white"/>
<path d="M70.071 41.5V32.83H74.372C74.882 32.83 75.3353 32.932 75.732 33.136C76.14 33.3287 76.4573 33.595 76.684 33.935C76.922 34.275 77.041 34.6547 77.041 35.074C77.041 35.5273 76.939 35.9183 76.735 36.247C76.5423 36.5757 76.2873 36.8193 75.97 36.978V37.08C76.4007 37.25 76.7407 37.505 76.99 37.845C77.2507 38.185 77.381 38.576 77.381 39.018C77.381 39.528 77.245 39.97 76.973 40.344C76.7123 40.718 76.3723 41.007 75.953 41.211C75.5337 41.4037 75.086 41.5 74.61 41.5H70.071ZM71.907 37.726V39.97H74.423C74.7517 39.97 75.0237 39.868 75.239 39.664C75.4657 39.4487 75.579 39.1767 75.579 38.848C75.579 38.5307 75.4657 38.2643 75.239 38.049C75.0237 37.8337 74.7517 37.726 74.423 37.726H71.907ZM71.907 34.326V36.366H74.151C74.457 36.366 74.712 36.2697 74.916 36.077C75.12 35.8843 75.222 35.6407 75.222 35.346C75.222 35.04 75.12 34.7963 74.916 34.615C74.712 34.4223 74.457 34.326 74.151 34.326H71.907ZM88.7904 41.772C87.9177 41.772 87.0961 41.6133 86.3254 41.296C85.5547 40.9787 84.8747 40.5367 84.2854 39.97C83.7074 39.392 83.2484 38.7177 82.9084 37.947C82.5797 37.165 82.4154 36.3207 82.4154 35.414C82.4154 34.5073 82.5797 33.6687 82.9084 32.898C83.2484 32.116 83.7074 31.4417 84.2854 30.875C84.8747 30.297 85.5547 29.8493 86.3254 29.532C87.0961 29.2147 87.9177 29.056 88.7904 29.056C89.7197 29.056 90.5754 29.2203 91.3574 29.549C92.1507 29.8777 92.8137 30.3367 93.3464 30.926L92.0544 32.201C91.7937 31.9063 91.4934 31.657 91.1534 31.453C90.8247 31.249 90.4621 31.096 90.0654 30.994C89.6687 30.8807 89.2437 30.824 88.7904 30.824C88.1897 30.824 87.6174 30.9317 87.0734 31.147C86.5294 31.3623 86.0477 31.674 85.6284 32.082C85.2204 32.4787 84.8974 32.9603 84.6594 33.527C84.4214 34.0823 84.3024 34.7113 84.3024 35.414C84.3024 36.1167 84.4214 36.7513 84.6594 37.318C84.9087 37.8733 85.2374 38.355 85.6454 38.763C86.0647 39.1597 86.5464 39.4657 87.0904 39.681C87.6344 39.8963 88.2067 40.004 88.8074 40.004C89.3627 40.004 89.8784 39.9247 90.3544 39.766C90.8417 39.6073 91.2667 39.3807 91.6294 39.086C91.9921 38.7913 92.2867 38.4343 92.5134 38.015C92.7401 37.5843 92.8817 37.1027 92.9384 36.57H88.7734V34.921H94.6894C94.7121 35.057 94.7347 35.2157 94.7574 35.397C94.7801 35.567 94.7914 35.7313 94.7914 35.89V35.907C94.7914 36.7797 94.6384 37.5787 94.3324 38.304C94.0377 39.0293 93.6241 39.6527 93.0914 40.174C92.5587 40.684 91.9241 41.0807 91.1874 41.364C90.4621 41.636 89.6631 41.772 88.7904 41.772ZM100.265 41.772C99.3699 41.772 98.5823 41.568 97.9023 41.16C97.2223 40.752 96.6896 40.2023 96.3043 39.511C95.9189 38.8083 95.7263 38.0263 95.7263 37.165C95.7263 36.3037 95.9189 35.5273 96.3043 34.836C96.6896 34.1333 97.2223 33.578 97.9023 33.17C98.5823 32.762 99.3699 32.558 100.265 32.558C101.149 32.558 101.931 32.7677 102.611 33.187C103.291 33.595 103.824 34.1447 104.209 34.836C104.595 35.5273 104.787 36.3037 104.787 37.165C104.787 38.0263 104.595 38.8083 104.209 39.511C103.824 40.2023 103.291 40.752 102.611 41.16C101.931 41.568 101.149 41.772 100.265 41.772ZM100.265 40.089C100.741 40.089 101.183 39.9757 101.591 39.749C101.999 39.511 102.328 39.1767 102.577 38.746C102.838 38.304 102.968 37.777 102.968 37.165C102.968 36.553 102.838 36.0317 102.577 35.601C102.328 35.159 101.999 34.8247 101.591 34.598C101.183 34.36 100.741 34.241 100.265 34.241C99.7893 34.241 99.3416 34.36 98.9223 34.598C98.5143 34.8247 98.1799 35.159 97.9193 35.601C97.6699 36.0317 97.5453 36.553 97.5453 37.165C97.5453 37.777 97.6699 38.304 97.9193 38.746C98.1799 39.1767 98.5199 39.511 98.9393 39.749C99.3586 39.9757 99.8006 40.089 100.265 40.089ZM110.558 41.772C109.663 41.772 108.875 41.568 108.195 41.16C107.515 40.752 106.983 40.2023 106.597 39.511C106.212 38.8083 106.019 38.0263 106.019 37.165C106.019 36.3037 106.212 35.5273 106.597 34.836C106.983 34.1333 107.515 33.578 108.195 33.17C108.875 32.762 109.663 32.558 110.558 32.558C111.442 32.558 112.224 32.7677 112.904 33.187C113.584 33.595 114.117 34.1447 114.502 34.836C114.888 35.5273 115.08 36.3037 115.08 37.165C115.08 38.0263 114.888 38.8083 114.502 39.511C114.117 40.2023 113.584 40.752 112.904 41.16C112.224 41.568 111.442 41.772 110.558 41.772ZM110.558 40.089C111.034 40.089 111.476 39.9757 111.884 39.749C112.292 39.511 112.621 39.1767 112.87 38.746C113.131 38.304 113.261 37.777 113.261 37.165C113.261 36.553 113.131 36.0317 112.87 35.601C112.621 35.159 112.292 34.8247 111.884 34.598C111.476 34.36 111.034 34.241 110.558 34.241C110.082 34.241 109.635 34.36 109.215 34.598C108.807 34.8247 108.473 35.159 108.212 35.601C107.963 36.0317 107.838 36.553 107.838 37.165C107.838 37.777 107.963 38.304 108.212 38.746C108.473 39.1767 108.813 39.511 109.232 39.749C109.652 39.9757 110.094 40.089 110.558 40.089ZM120.681 45.444C119.922 45.444 119.265 45.3193 118.709 45.07C118.165 44.832 117.723 44.5203 117.383 44.135C117.043 43.761 116.8 43.3757 116.652 42.979L118.352 42.265C118.534 42.7183 118.823 43.0867 119.219 43.37C119.627 43.6647 120.115 43.812 120.681 43.812C121.486 43.812 122.115 43.574 122.568 43.098C123.022 42.622 123.248 41.9477 123.248 41.075V40.242H123.146C122.874 40.6387 122.5 40.9617 122.024 41.211C121.548 41.4603 120.999 41.585 120.375 41.585C119.639 41.585 118.959 41.398 118.335 41.024C117.723 40.65 117.23 40.1287 116.856 39.46C116.494 38.78 116.312 37.9867 116.312 37.08C116.312 36.162 116.494 35.3687 116.856 34.7C117.23 34.02 117.723 33.493 118.335 33.119C118.959 32.745 119.639 32.558 120.375 32.558C120.999 32.558 121.548 32.6827 122.024 32.932C122.5 33.17 122.874 33.4987 123.146 33.918H123.248V32.83H124.999V41.041C124.999 41.9817 124.812 42.7807 124.438 43.438C124.076 44.0953 123.571 44.594 122.925 44.934C122.279 45.274 121.531 45.444 120.681 45.444ZM120.698 39.919C121.152 39.919 121.571 39.8113 121.956 39.596C122.353 39.3693 122.665 39.0463 122.891 38.627C123.129 38.1963 123.248 37.6807 123.248 37.08C123.248 36.4453 123.129 35.9183 122.891 35.499C122.665 35.0797 122.353 34.7623 121.956 34.547C121.571 34.3317 121.152 34.224 120.698 34.224C120.245 34.224 119.82 34.3317 119.423 34.547C119.038 34.7623 118.726 35.0853 118.488 35.516C118.25 35.9353 118.131 36.4567 118.131 37.08C118.131 37.692 118.25 38.2133 118.488 38.644C118.726 39.0633 119.038 39.3807 119.423 39.596C119.82 39.8113 120.245 39.919 120.698 39.919ZM127.164 41.5V29.328H129V41.5H127.164ZM135.043 41.772C134.193 41.772 133.433 41.5737 132.765 41.177C132.096 40.7803 131.569 40.2363 131.184 39.545C130.81 38.8537 130.623 38.066 130.623 37.182C130.623 36.3547 130.804 35.5897 131.167 34.887C131.529 34.1843 132.034 33.6233 132.68 33.204C133.337 32.7733 134.091 32.558 134.941 32.558C135.836 32.558 136.595 32.7507 137.219 33.136C137.853 33.5213 138.335 34.0483 138.664 34.717C138.992 35.3857 139.157 36.1393 139.157 36.978C139.157 37.1027 139.151 37.216 139.14 37.318C139.14 37.42 139.134 37.4993 139.123 37.556H132.425C132.47 38.032 132.589 38.4457 132.782 38.797C133.031 39.239 133.36 39.5733 133.768 39.8C134.176 40.0267 134.618 40.14 135.094 40.14C135.672 40.14 136.153 40.0097 136.539 39.749C136.935 39.477 137.247 39.1427 137.474 38.746L138.987 39.477C138.613 40.157 138.103 40.7123 137.457 41.143C136.811 41.5623 136.006 41.772 135.043 41.772ZM132.527 36.179H137.338C137.326 35.9637 137.27 35.737 137.168 35.499C137.066 35.2497 136.918 35.023 136.726 34.819C136.533 34.615 136.289 34.4507 135.995 34.326C135.7 34.19 135.354 34.122 134.958 34.122C134.459 34.122 134.017 34.2523 133.632 34.513C133.246 34.7623 132.946 35.1137 132.731 35.567C132.64 35.7597 132.572 35.9637 132.527 36.179ZM145.134 41.5V29.328H152.24V31.096H147.004V41.5H145.134ZM154.919 41.772C154.296 41.772 153.74 41.6473 153.253 41.398C152.777 41.1487 152.397 40.8087 152.114 40.378C151.842 39.936 151.706 39.4317 151.706 38.865C151.706 38.2417 151.865 37.7147 152.182 37.284C152.511 36.8533 152.947 36.5247 153.491 36.298C154.035 36.0713 154.636 35.958 155.293 35.958C155.656 35.958 155.99 35.9863 156.296 36.043C156.613 36.0883 156.885 36.145 157.112 36.213C157.35 36.281 157.537 36.3547 157.673 36.434V35.975C157.673 35.4083 157.469 34.955 157.061 34.615C156.653 34.275 156.126 34.105 155.48 34.105C155.038 34.105 154.619 34.207 154.222 34.411C153.825 34.6037 153.508 34.87 153.27 35.21L152.012 34.241C152.261 33.8897 152.562 33.5893 152.913 33.34C153.276 33.0907 153.678 32.898 154.12 32.762C154.573 32.626 155.044 32.558 155.531 32.558C156.789 32.558 157.758 32.8697 158.438 33.493C159.118 34.105 159.458 34.9663 159.458 36.077V41.5H157.673V40.429H157.571C157.424 40.6557 157.22 40.871 156.959 41.075C156.71 41.279 156.409 41.4433 156.058 41.568C155.718 41.704 155.338 41.772 154.919 41.772ZM155.242 40.276C155.718 40.276 156.137 40.1627 156.5 39.936C156.874 39.7093 157.163 39.4147 157.367 39.052C157.571 38.678 157.673 38.2757 157.673 37.845C157.424 37.6977 157.118 37.5787 156.755 37.488C156.404 37.386 156.03 37.335 155.633 37.335C154.885 37.335 154.352 37.4823 154.035 37.777C153.718 38.0717 153.559 38.44 153.559 38.882C153.559 39.29 153.712 39.6243 154.018 39.885C154.324 40.1457 154.732 40.276 155.242 40.276ZM161.479 41.5V32.83H163.655L166.324 38.134H166.409L169.095 32.83H171.22V41.5H169.469V37.284L169.554 35.618H169.452L166.953 40.395H165.746L163.247 35.618H163.145L163.23 37.284V41.5H161.479ZM176.003 41.772C175.38 41.772 174.824 41.6473 174.337 41.398C173.861 41.1487 173.481 40.8087 173.198 40.378C172.926 39.936 172.79 39.4317 172.79 38.865C172.79 38.2417 172.949 37.7147 173.266 37.284C173.595 36.8533 174.031 36.5247 174.575 36.298C175.119 36.0713 175.72 35.958 176.377 35.958C176.74 35.958 177.074 35.9863 177.38 36.043C177.697 36.0883 177.969 36.145 178.196 36.213C178.434 36.281 178.621 36.3547 178.757 36.434V35.975C178.757 35.4083 178.553 34.955 178.145 34.615C177.737 34.275 177.21 34.105 176.564 34.105C176.122 34.105 175.703 34.207 175.306 34.411C174.909 34.6037 174.592 34.87 174.354 35.21L173.096 34.241C173.345 33.8897 173.646 33.5893 173.997 33.34C174.36 33.0907 174.762 32.898 175.204 32.762C175.657 32.626 176.128 32.558 176.615 32.558C177.873 32.558 178.842 32.8697 179.522 33.493C180.202 34.105 180.542 34.9663 180.542 36.077V41.5H178.757V40.429H178.655C178.508 40.6557 178.304 40.871 178.043 41.075C177.794 41.279 177.493 41.4433 177.142 41.568C176.802 41.704 176.422 41.772 176.003 41.772ZM176.326 40.276C176.802 40.276 177.221 40.1627 177.584 39.936C177.958 39.7093 178.247 39.4147 178.451 39.052C178.655 38.678 178.757 38.2757 178.757 37.845C178.508 37.6977 178.202 37.5787 177.839 37.488C177.488 37.386 177.114 37.335 176.717 37.335C175.969 37.335 175.436 37.4823 175.119 37.777C174.802 38.0717 174.643 38.44 174.643 38.882C174.643 39.29 174.796 39.6243 175.102 39.885C175.408 40.1457 175.816 40.276 176.326 40.276ZM182.563 41.5V32.83H184.399V36.315H188.513V32.83H190.349V41.5H188.513V37.913H184.399V41.5H182.563ZM199.512 44.084V41.5H192.491V32.83H194.327V39.902H198.101V32.83H199.937V39.902H201.195V44.084H199.512ZM202.97 41.5V32.83H204.806V41.5H202.97ZM203.888 31.555C203.548 31.555 203.253 31.436 203.004 31.198C202.766 30.9487 202.647 30.654 202.647 30.314C202.647 29.9627 202.766 29.6737 203.004 29.447C203.253 29.209 203.548 29.09 203.888 29.09C204.239 29.09 204.534 29.209 204.772 29.447C205.01 29.6737 205.129 29.9627 205.129 30.314C205.129 30.654 205.01 30.9487 204.772 31.198C204.534 31.436 204.239 31.555 203.888 31.555Z" fill="white"/>
</svg>
