<svg width="169" height="55" viewBox="0 0 169 55" fill="none" xmlns="http://www.w3.org/2000/svg">
<rect x="0.5" y="0.5" width="168" height="54" rx="27" fill="#1F1F1F"/>
<rect x="0.5" y="0.5" width="168" height="54" rx="27" stroke="#747775"/>
<path d="M57 23.791H21V18.1455C21 15.0809 23.6422 12.5001 26.7798 12.5001H51.2202C54.3578 12.5001 57 15.0809 57 18.1455V23.791Z" fill="#34A853"/>
<path d="M57 29H21V23C21 19.7429 23.6422 17 26.7798 17H51.2202C54.3578 17 57 19.7429 57 23V29Z" fill="#FBBC04"/>
<path d="M57 34H21V28C21 24.7429 23.6422 22 26.7798 22H51.2202C54.3578 22 57 24.7429 57 28V34Z" fill="#EA4335"/>
<path d="M21 25.2409L43.8493 30.4025C46.4795 31.0477 49.4384 30.4025 51.5753 28.7895L57 24.9183V37.0157C57 40.0804 54.3699 42.4999 51.2466 42.4999H26.7534C23.6301 42.4999 21 40.0804 21 37.0157V25.2409Z" fill="#4285F4"/>
<path d="M74.46 21.708C73.7927 21.708 73.1643 21.5867 72.575 21.344C71.9857 21.1013 71.4657 20.7633 71.015 20.33C70.573 19.888 70.222 19.3723 69.962 18.783C69.7107 18.185 69.585 17.5393 69.585 16.846C69.585 16.1527 69.7107 15.5113 69.962 14.922C70.222 14.324 70.573 13.8083 71.015 13.375C71.4657 12.933 71.9857 12.5907 72.575 12.348C73.1643 12.1053 73.7927 11.984 74.46 11.984C75.1707 11.984 75.825 12.1097 76.423 12.361C77.0297 12.6123 77.5367 12.9633 77.944 13.414L76.956 14.389C76.7567 14.1637 76.527 13.973 76.267 13.817C76.0157 13.661 75.7383 13.544 75.435 13.466C75.1317 13.3793 74.8067 13.336 74.46 13.336C74.0007 13.336 73.563 13.4183 73.147 13.583C72.731 13.7477 72.3627 13.986 72.042 14.298C71.73 14.6013 71.483 14.9697 71.301 15.403C71.119 15.8277 71.028 16.3087 71.028 16.846C71.028 17.3833 71.119 17.8687 71.301 18.302C71.4917 18.7267 71.743 19.095 72.055 19.407C72.3757 19.7103 72.744 19.9443 73.16 20.109C73.576 20.2737 74.0137 20.356 74.473 20.356C74.8977 20.356 75.292 20.2953 75.656 20.174C76.0287 20.0527 76.3537 19.8793 76.631 19.654C76.9083 19.4287 77.1337 19.1557 77.307 18.835C77.4803 18.5057 77.5887 18.1373 77.632 17.73H74.447V16.469H78.971C78.9883 16.573 79.0057 16.6943 79.023 16.833C79.0403 16.963 79.049 17.0887 79.049 17.21V17.223C79.049 17.8903 78.932 18.5013 78.698 19.056C78.4727 19.6107 78.1563 20.0873 77.749 20.486C77.3417 20.876 76.8563 21.1793 76.293 21.396C75.7383 21.604 75.1273 21.708 74.46 21.708ZM83.2349 21.708C82.5502 21.708 81.9479 21.552 81.4279 21.24C80.9079 20.928 80.5006 20.5077 80.2059 19.979C79.9112 19.4417 79.7639 18.8437 79.7639 18.185C79.7639 17.5263 79.9112 16.9327 80.2059 16.404C80.5006 15.8667 80.9079 15.442 81.4279 15.13C81.9479 14.818 82.5502 14.662 83.2349 14.662C83.9109 14.662 84.5089 14.8223 85.0289 15.143C85.5489 15.455 85.9562 15.8753 86.2509 16.404C86.5456 16.9327 86.6929 17.5263 86.6929 18.185C86.6929 18.8437 86.5456 19.4417 86.2509 19.979C85.9562 20.5077 85.5489 20.928 85.0289 21.24C84.5089 21.552 83.9109 21.708 83.2349 21.708ZM83.2349 20.421C83.5989 20.421 83.9369 20.3343 84.2489 20.161C84.5609 19.979 84.8122 19.7233 85.0029 19.394C85.2022 19.056 85.3019 18.653 85.3019 18.185C85.3019 17.717 85.2022 17.3183 85.0029 16.989C84.8122 16.651 84.5609 16.3953 84.2489 16.222C83.9369 16.04 83.5989 15.949 83.2349 15.949C82.8709 15.949 82.5286 16.04 82.2079 16.222C81.8959 16.3953 81.6402 16.651 81.4409 16.989C81.2502 17.3183 81.1549 17.717 81.1549 18.185C81.1549 18.653 81.2502 19.056 81.4409 19.394C81.6402 19.7233 81.9002 19.979 82.2209 20.161C82.5416 20.3343 82.8796 20.421 83.2349 20.421ZM91.106 21.708C90.4213 21.708 89.819 21.552 89.299 21.24C88.779 20.928 88.3717 20.5077 88.077 19.979C87.7823 19.4417 87.635 18.8437 87.635 18.185C87.635 17.5263 87.7823 16.9327 88.077 16.404C88.3717 15.8667 88.779 15.442 89.299 15.13C89.819 14.818 90.4213 14.662 91.106 14.662C91.782 14.662 92.38 14.8223 92.9 15.143C93.42 15.455 93.8273 15.8753 94.122 16.404C94.4167 16.9327 94.564 17.5263 94.564 18.185C94.564 18.8437 94.4167 19.4417 94.122 19.979C93.8273 20.5077 93.42 20.928 92.9 21.24C92.38 21.552 91.782 21.708 91.106 21.708ZM91.106 20.421C91.47 20.421 91.808 20.3343 92.12 20.161C92.432 19.979 92.6833 19.7233 92.874 19.394C93.0733 19.056 93.173 18.653 93.173 18.185C93.173 17.717 93.0733 17.3183 92.874 16.989C92.6833 16.651 92.432 16.3953 92.12 16.222C91.808 16.04 91.47 15.949 91.106 15.949C90.742 15.949 90.3997 16.04 90.079 16.222C89.767 16.3953 89.5113 16.651 89.312 16.989C89.1213 17.3183 89.026 17.717 89.026 18.185C89.026 18.653 89.1213 19.056 89.312 19.394C89.5113 19.7233 89.7713 19.979 90.092 20.161C90.4127 20.3343 90.7507 20.421 91.106 20.421ZM98.8471 24.516C98.2664 24.516 97.7638 24.4207 97.3391 24.23C96.9231 24.048 96.5851 23.8097 96.3251 23.515C96.0651 23.229 95.8788 22.9343 95.7661 22.631L97.0661 22.085C97.2048 22.4317 97.4258 22.7133 97.7291 22.93C98.0411 23.1553 98.4138 23.268 98.8471 23.268C99.4624 23.268 99.9434 23.086 100.29 22.722C100.637 22.358 100.81 21.8423 100.81 21.175V20.538H100.732C100.524 20.8413 100.238 21.0883 99.8741 21.279C99.5101 21.4697 99.0898 21.565 98.6131 21.565C98.0498 21.565 97.5298 21.422 97.0531 21.136C96.5851 20.85 96.2081 20.4513 95.9221 19.94C95.6448 19.42 95.5061 18.8133 95.5061 18.12C95.5061 17.418 95.6448 16.8113 95.9221 16.3C96.2081 15.78 96.5851 15.377 97.0531 15.091C97.5298 14.805 98.0498 14.662 98.6131 14.662C99.0898 14.662 99.5101 14.7573 99.8741 14.948C100.238 15.13 100.524 15.3813 100.732 15.702H100.81V14.87H102.149V21.149C102.149 21.8683 102.006 22.4793 101.72 22.982C101.443 23.4847 101.057 23.866 100.563 24.126C100.069 24.386 99.4971 24.516 98.8471 24.516ZM98.8601 20.291C99.2068 20.291 99.5274 20.2087 99.8221 20.044C100.125 19.8707 100.364 19.6237 100.537 19.303C100.719 18.9737 100.81 18.5793 100.81 18.12C100.81 17.6347 100.719 17.2317 100.537 16.911C100.364 16.5903 100.125 16.3477 99.8221 16.183C99.5274 16.0183 99.2068 15.936 98.8601 15.936C98.5134 15.936 98.1884 16.0183 97.8851 16.183C97.5904 16.3477 97.3521 16.5947 97.1701 16.924C96.9881 17.2447 96.8971 17.6433 96.8971 18.12C96.8971 18.588 96.9881 18.9867 97.1701 19.316C97.3521 19.6367 97.5904 19.8793 97.8851 20.044C98.1884 20.2087 98.5134 20.291 98.8601 20.291ZM103.805 21.5V12.192H105.209V21.5H103.805ZM109.829 21.708C109.179 21.708 108.599 21.5563 108.087 21.253C107.576 20.9497 107.173 20.5337 106.878 20.005C106.592 19.4763 106.449 18.874 106.449 18.198C106.449 17.5653 106.588 16.9803 106.865 16.443C107.143 15.9057 107.528 15.4767 108.022 15.156C108.525 14.8267 109.101 14.662 109.751 14.662C110.436 14.662 111.017 14.8093 111.493 15.104C111.979 15.3987 112.347 15.8017 112.598 16.313C112.85 16.8243 112.975 17.4007 112.975 18.042C112.975 18.1373 112.971 18.224 112.962 18.302C112.962 18.38 112.958 18.4407 112.949 18.484H107.827C107.862 18.848 107.953 19.1643 108.1 19.433C108.291 19.771 108.542 20.0267 108.854 20.2C109.166 20.3733 109.504 20.46 109.868 20.46C110.31 20.46 110.679 20.3603 110.973 20.161C111.277 19.953 111.515 19.6973 111.688 19.394L112.845 19.953C112.559 20.473 112.169 20.8977 111.675 21.227C111.181 21.5477 110.566 21.708 109.829 21.708ZM107.905 17.431H111.584C111.576 17.2663 111.532 17.093 111.454 16.911C111.376 16.7203 111.264 16.547 111.116 16.391C110.969 16.235 110.783 16.1093 110.557 16.014C110.332 15.91 110.068 15.858 109.764 15.858C109.383 15.858 109.045 15.9577 108.75 16.157C108.456 16.3477 108.226 16.6163 108.061 16.963C107.992 17.1103 107.94 17.2663 107.905 17.431ZM121.563 21.773C120.02 21.773 118.855 21.5737 118.066 21.175C117.277 20.7677 116.883 20.0873 116.883 19.134C116.883 18.8133 116.922 18.4753 117 18.12C117.078 17.756 117.16 17.4137 117.247 17.093L118.222 17.34C118.17 17.5307 118.109 17.7733 118.04 18.068C117.979 18.3627 117.949 18.6183 117.949 18.835C117.949 19.2857 118.062 19.6497 118.287 19.927C118.521 20.1957 118.924 20.395 119.496 20.525C120.068 20.6463 120.87 20.707 121.901 20.707C122.43 20.707 122.989 20.6767 123.578 20.616C124.167 20.5467 124.752 20.4297 125.333 20.265C125.922 20.0917 126.481 19.862 127.01 19.576C127.539 19.2813 128.002 18.9043 128.401 18.445L129.22 18.926C129.142 19.1253 129.09 19.2857 129.064 19.407C129.038 19.5197 129.025 19.6237 129.025 19.719C129.025 19.849 129.073 19.9747 129.168 20.096C129.263 20.2173 129.441 20.317 129.701 20.395C129.961 20.4643 130.338 20.499 130.832 20.499C131.014 20.499 131.144 20.551 131.222 20.655C131.309 20.7503 131.352 20.8673 131.352 21.006C131.352 21.1447 131.291 21.2747 131.17 21.396C131.049 21.5087 130.893 21.565 130.702 21.565C129.939 21.565 129.311 21.4523 128.817 21.227C128.332 21.0017 128.085 20.6333 128.076 20.122C127.357 20.6767 126.425 21.0927 125.281 21.37C124.137 21.6387 122.898 21.773 121.563 21.773ZM122.876 15.923C122.72 15.923 122.534 15.9187 122.317 15.91C122.109 15.8927 121.91 15.8753 121.719 15.858C121.528 15.8407 121.385 15.8277 121.29 15.819L121.316 15.065C121.368 15.0737 121.424 15.0823 121.485 15.091C121.546 15.091 121.611 15.0953 121.68 15.104C121.767 14.948 121.862 14.8007 121.966 14.662L121.901 12.556H122.616L122.681 13.934C122.837 13.8213 122.997 13.7347 123.162 13.674C123.335 13.6047 123.509 13.57 123.682 13.57C124.003 13.57 124.258 13.6697 124.449 13.869C124.648 14.0683 124.748 14.3153 124.748 14.61C124.748 14.7833 124.696 14.974 124.592 15.182C124.497 15.3813 124.315 15.5547 124.046 15.702C123.777 15.8493 123.387 15.923 122.876 15.923ZM123.578 14.337C123.422 14.337 123.27 14.3847 123.123 14.48C122.976 14.5753 122.837 14.688 122.707 14.818C122.586 14.948 122.49 15.0607 122.421 15.156C122.56 15.1647 122.681 15.169 122.785 15.169C123.21 15.169 123.517 15.1257 123.708 15.039C123.899 14.9437 123.994 14.8223 123.994 14.675C123.994 14.5623 123.955 14.48 123.877 14.428C123.799 14.3673 123.699 14.337 123.578 14.337ZM130.699 21.565L130.816 20.499C131.31 20.499 131.657 20.4513 131.856 20.356C132.056 20.2607 132.168 20.096 132.194 19.862C132.229 19.6193 132.238 19.277 132.22 18.835L131.973 12.218H133.026L133.286 18.718C133.312 19.3333 133.269 19.8533 133.156 20.278C133.052 20.7027 132.81 21.0233 132.428 21.24C132.056 21.4567 131.479 21.565 130.699 21.565ZM135.272 21.5L135.012 12.218H136.065L136.325 21.5H135.272ZM137.928 24.49L137.694 23.424C138.248 23.3547 138.751 23.2507 139.202 23.112C139.652 22.9733 140.038 22.774 140.359 22.514C140.679 22.254 140.918 21.9073 141.074 21.474C140.918 21.5173 140.753 21.5477 140.58 21.565C140.406 21.591 140.237 21.604 140.073 21.604C139.405 21.604 138.894 21.4697 138.539 21.201C138.183 20.9323 138.006 20.5163 138.006 19.953C138.006 19.6237 138.058 19.2943 138.162 18.965C138.266 18.627 138.413 18.3193 138.604 18.042C138.794 17.7647 139.024 17.5437 139.293 17.379C139.561 17.2057 139.86 17.119 140.19 17.119C140.658 17.119 141.043 17.275 141.347 17.587C141.659 17.8903 141.888 18.2847 142.036 18.77C142.192 19.2553 142.27 19.771 142.27 20.317C142.27 21.5303 141.901 22.488 141.165 23.19C140.437 23.892 139.358 24.3253 137.928 24.49ZM139.033 19.693C139.033 19.9617 139.119 20.1783 139.293 20.343C139.466 20.499 139.765 20.577 140.19 20.577C140.562 20.577 140.918 20.525 141.256 20.421C141.256 20.369 141.256 20.3083 141.256 20.239C141.256 19.8837 141.208 19.55 141.113 19.238C141.017 18.9173 140.883 18.6617 140.71 18.471C140.536 18.2803 140.328 18.185 140.086 18.185C139.878 18.185 139.696 18.263 139.54 18.419C139.384 18.5663 139.258 18.757 139.163 18.991C139.076 19.225 139.033 19.459 139.033 19.693Z" fill="white"/>
<path d="M69.51 41.517C69.51 41.109 69.5667 40.6557 69.68 40.157C69.7933 39.6583 69.9747 39.1087 70.224 38.508L71.448 38.984C71.2667 39.46 71.1307 39.8963 71.04 40.293C70.9493 40.6897 70.904 41.058 70.904 41.398C70.904 42.0327 71.057 42.5427 71.363 42.928C71.6803 43.3133 72.0997 43.5967 72.621 43.778C73.1537 43.9593 73.7373 44.05 74.372 44.05C75.4033 44.05 76.208 43.9083 76.786 43.625C77.3753 43.3417 77.789 42.9677 78.027 42.503C78.2763 42.0497 78.401 41.568 78.401 41.058C78.401 40.31 78.316 39.6243 78.146 39.001C77.9873 38.3663 77.8117 37.7147 77.619 37.046L78.996 36.672C79.1773 37.318 79.302 37.7883 79.37 38.083C79.438 38.3663 79.5003 38.5987 79.557 38.78C79.6817 39.1993 79.846 39.511 80.05 39.715C80.254 39.9077 80.4863 40.038 80.747 40.106C81.0077 40.1627 81.2853 40.191 81.58 40.191C81.818 40.191 81.988 40.259 82.09 40.395C82.2033 40.5197 82.26 40.6727 82.26 40.854C82.26 41.0353 82.1807 41.2053 82.022 41.364C81.8633 41.5113 81.6593 41.585 81.41 41.585C81.0587 41.585 80.747 41.5397 80.475 41.449C80.2143 41.347 79.9933 41.2223 79.812 41.075C79.7553 41.6303 79.625 42.1687 79.421 42.69C79.217 43.2113 78.9053 43.676 78.486 44.084C78.078 44.5033 77.534 44.832 76.854 45.07C76.174 45.3193 75.3297 45.444 74.321 45.444C73.471 45.444 72.6777 45.3023 71.941 45.019C71.2157 44.7357 70.6263 44.305 70.173 43.727C69.731 43.149 69.51 42.4123 69.51 41.517ZM81.418 41.585L81.588 40.191C82.1546 40.191 82.5966 40.1513 82.914 40.072C83.2313 39.9813 83.4693 39.817 83.628 39.579C83.798 39.3297 83.934 38.9727 84.036 38.508C84.138 38.0433 84.2626 37.437 84.41 36.689L85.736 36.944C85.668 37.25 85.5886 37.6013 85.498 37.998C85.4186 38.3947 85.379 38.729 85.379 39.001C85.379 39.171 85.3903 39.3297 85.413 39.477C85.4356 39.6243 85.5206 39.749 85.668 39.851C85.8153 39.953 86.0646 40.038 86.416 40.106C86.7673 40.1627 87.2716 40.191 87.929 40.191C88.167 40.191 88.337 40.259 88.439 40.395C88.5523 40.5197 88.609 40.6727 88.609 40.854C88.609 41.0353 88.5296 41.2053 88.371 41.364C88.2123 41.5113 88.0083 41.585 87.759 41.585C87.0223 41.585 86.4443 41.5453 86.025 41.466C85.617 41.3753 85.311 41.2507 85.107 41.092C84.9143 40.922 84.7726 40.7123 84.682 40.463C84.3533 40.9277 83.9453 41.2337 83.458 41.381C82.982 41.517 82.302 41.585 81.418 41.585ZM85.702 44.798C85.464 44.798 85.26 44.713 85.09 44.543C84.9313 44.3843 84.852 44.1917 84.852 43.965C84.852 43.7383 84.9313 43.54 85.09 43.37C85.26 43.2 85.464 43.115 85.702 43.115C85.9286 43.115 86.1213 43.2 86.28 43.37C86.45 43.54 86.535 43.7383 86.535 43.965C86.535 44.1917 86.45 44.3843 86.28 44.543C86.1213 44.713 85.9286 44.798 85.702 44.798ZM83.373 44.798C83.135 44.798 82.931 44.713 82.761 44.543C82.6023 44.3843 82.523 44.1917 82.523 43.965C82.523 43.7383 82.6023 43.54 82.761 43.37C82.931 43.2 83.135 43.115 83.373 43.115C83.5996 43.115 83.7923 43.2 83.951 43.37C84.121 43.54 84.206 43.7383 84.206 43.965C84.206 44.1917 84.121 44.3843 83.951 44.543C83.7923 44.713 83.5996 44.798 83.373 44.798ZM87.7598 41.585L87.9298 40.191C88.1451 40.191 88.3548 40.191 88.5588 40.191C88.7628 40.191 88.9668 40.1853 89.1708 40.174C89.2161 39.324 89.3521 38.5477 89.5788 37.845C89.8054 37.1423 90.0944 36.536 90.4458 36.026C90.7971 35.516 91.1768 35.125 91.5848 34.853C91.9928 34.5697 92.3951 34.428 92.7918 34.428C93.3471 34.428 93.8118 34.666 94.1858 35.142C94.5598 35.6067 94.7468 36.2357 94.7468 37.029C94.7468 37.5277 94.6674 38.0263 94.5088 38.525C94.3501 39.0123 94.0498 39.443 93.6078 39.817C94.0611 39.9303 94.5258 40.021 95.0018 40.089C95.4891 40.157 96.0048 40.191 96.5488 40.191C96.7868 40.191 96.9568 40.259 97.0588 40.395C97.1721 40.5197 97.2288 40.6727 97.2288 40.854C97.2288 41.0353 97.1494 41.2053 96.9908 41.364C96.8321 41.5113 96.6281 41.585 96.3788 41.585C95.9934 41.585 95.5571 41.5567 95.0698 41.5C95.3304 41.8853 95.4721 42.2877 95.4948 42.707C95.5288 43.1377 95.4494 43.54 95.2568 43.914C95.0754 44.288 94.7921 44.594 94.4068 44.832C94.0328 45.07 93.5568 45.189 92.9788 45.189C91.9928 45.189 91.1428 44.8773 90.4288 44.254C89.7261 43.642 89.3124 42.7127 89.1878 41.466C88.9611 41.5 88.7231 41.5283 88.4738 41.551C88.2358 41.5737 87.9978 41.585 87.7598 41.585ZM92.6728 35.822C92.4461 35.822 92.1741 36.0033 91.8568 36.366C91.5394 36.7287 91.2504 37.2273 90.9898 37.862C90.7291 38.4967 90.5761 39.2333 90.5308 40.072C91.0748 39.9927 91.5564 39.8567 91.9758 39.664C92.4064 39.46 92.7408 39.1653 92.9788 38.78C93.2281 38.3833 93.3528 37.8507 93.3528 37.182C93.3528 37.012 93.3301 36.825 93.2848 36.621C93.2508 36.4057 93.1828 36.2187 93.0808 36.06C92.9788 35.9013 92.8428 35.822 92.6728 35.822ZM93.0128 43.795C93.3074 43.795 93.5964 43.71 93.8798 43.54C94.1631 43.37 94.3048 43.0583 94.3048 42.605C94.3048 42.3217 94.2311 42.061 94.0838 41.823C93.9478 41.5963 93.7041 41.4093 93.3528 41.262C93.0014 41.1147 92.5028 41.041 91.8568 41.041C91.6754 41.041 91.4714 41.058 91.2448 41.092C91.0294 41.1147 90.8084 41.1543 90.5818 41.211C90.6384 41.7663 90.7574 42.214 90.9388 42.554C91.1201 42.894 91.3298 43.1547 91.5678 43.336C91.8171 43.5173 92.0664 43.6363 92.3158 43.693C92.5651 43.761 92.7974 43.795 93.0128 43.795ZM96.376 41.585L96.546 40.191H97.855C98.7956 40.191 99.4926 40.14 99.946 40.038C100.399 39.936 100.694 39.8057 100.83 39.647C100.977 39.477 101.051 39.2957 101.051 39.103C101.051 38.831 100.949 38.5307 100.745 38.202C100.541 37.8733 100.28 37.539 99.963 37.199C99.6456 36.8477 99.3056 36.502 98.943 36.162C98.5916 35.822 98.2573 35.5103 97.94 35.227C97.6226 34.9437 97.362 34.7 97.158 34.496C96.954 34.2807 96.852 34.1277 96.852 34.037C96.852 33.7763 96.8803 33.5327 96.937 33.306C96.9936 33.0793 97.0843 32.9037 97.209 32.779C97.515 32.4503 97.9626 32.1103 98.552 31.759C99.1526 31.3963 99.8383 31.028 100.609 30.654C101.38 30.2687 102.167 29.8777 102.972 29.481L103.55 30.739C102.553 31.2377 101.572 31.7193 100.609 32.184C99.657 32.6487 98.824 33.1303 98.11 33.629C98.7333 34.1617 99.317 34.6773 99.861 35.176C100.405 35.6747 100.909 36.213 101.374 36.791C101.839 37.3577 102.264 38.0037 102.649 38.729C102.887 39.171 103.165 39.494 103.482 39.698C103.799 39.902 104.111 40.038 104.417 40.106C104.723 40.1627 104.978 40.191 105.182 40.191C105.42 40.191 105.59 40.259 105.692 40.395C105.805 40.5197 105.862 40.6727 105.862 40.854C105.862 41.0353 105.783 41.2053 105.624 41.364C105.465 41.5113 105.261 41.585 105.012 41.585C104.74 41.585 104.423 41.551 104.06 41.483C103.709 41.4037 103.352 41.262 102.989 41.058C102.626 40.8427 102.309 40.531 102.037 40.123C101.81 40.4517 101.527 40.7237 101.187 40.939C100.847 41.1543 100.405 41.3187 99.861 41.432C99.317 41.534 98.6256 41.585 97.787 41.585H96.376ZM105.009 41.585L105.179 40.191C105.836 40.191 106.352 40.1683 106.726 40.123C107.111 40.0663 107.383 39.936 107.542 39.732C107.7 39.528 107.78 39.1937 107.78 38.729C107.78 38.3097 107.678 37.7713 107.474 37.114C107.281 36.4567 107.06 35.805 106.811 35.159L108.188 34.649C108.335 35.023 108.471 35.4423 108.596 35.907C108.732 36.3603 108.845 36.8137 108.936 37.267C109.026 37.7203 109.072 38.117 109.072 38.457C109.072 39.6017 108.754 40.412 108.12 40.888C107.485 41.3527 106.448 41.585 105.009 41.585ZM108.154 44.798C107.916 44.798 107.712 44.713 107.542 44.543C107.383 44.3843 107.304 44.1917 107.304 43.965C107.304 43.7383 107.383 43.54 107.542 43.37C107.712 43.2 107.916 43.115 108.154 43.115C108.38 43.115 108.573 43.2 108.732 43.37C108.902 43.54 108.987 43.7383 108.987 43.965C108.987 44.1917 108.902 44.3843 108.732 44.543C108.573 44.713 108.38 44.798 108.154 44.798ZM105.825 44.798C105.587 44.798 105.383 44.713 105.213 44.543C105.054 44.3843 104.975 44.1917 104.975 43.965C104.975 43.7383 105.054 43.54 105.213 43.37C105.383 43.2 105.587 43.115 105.825 43.115C106.051 43.115 106.244 43.2 106.403 43.37C106.573 43.54 106.658 43.7383 106.658 43.965C106.658 44.1917 106.573 44.3843 106.403 44.543C106.244 44.713 106.051 44.798 105.825 44.798ZM110.684 40.735L111.364 39.562C111.591 39.7207 111.908 39.868 112.316 40.004C112.724 40.1287 113.2 40.191 113.744 40.191C114.583 40.191 115.178 40.0663 115.529 39.817C115.88 39.5563 116.056 39.1993 116.056 38.746C116.056 38.5193 116.005 38.2417 115.903 37.913C115.812 37.573 115.608 37.1197 115.291 36.553C114.974 35.975 114.486 35.2213 113.829 34.292L115.002 33.527C115.897 34.7737 116.526 35.8333 116.889 36.706C117.252 37.5787 117.433 38.287 117.433 38.831C117.433 39.2957 117.32 39.7377 117.093 40.157C116.866 40.5763 116.487 40.922 115.954 41.194C115.421 41.466 114.685 41.602 113.744 41.602C113.121 41.602 112.543 41.5283 112.01 41.381C111.477 41.2223 111.035 41.007 110.684 40.735ZM122.668 41.517C122.668 41.109 122.725 40.6557 122.838 40.157C122.952 39.6583 123.133 39.1087 123.382 38.508L124.606 38.984C124.425 39.46 124.289 39.8963 124.198 40.293C124.108 40.6897 124.062 41.058 124.062 41.398C124.062 42.0327 124.215 42.5427 124.521 42.928C124.839 43.3133 125.258 43.5967 125.779 43.778C126.312 43.9593 126.896 44.05 127.53 44.05C128.562 44.05 129.366 43.9083 129.944 43.625C130.534 43.3417 130.947 42.9677 131.185 42.503C131.435 42.0497 131.559 41.568 131.559 41.058C131.559 40.31 131.474 39.6243 131.304 39.001C131.146 38.3663 130.97 37.7147 130.777 37.046L132.154 36.672C132.336 37.318 132.46 37.7883 132.528 38.083C132.596 38.3663 132.659 38.5987 132.715 38.78C132.84 39.1993 133.004 39.511 133.208 39.715C133.412 39.9077 133.645 40.038 133.905 40.106C134.166 40.1627 134.444 40.191 134.738 40.191C134.976 40.191 135.146 40.259 135.248 40.395C135.362 40.5197 135.418 40.6727 135.418 40.854C135.418 41.0353 135.339 41.2053 135.18 41.364C135.022 41.5113 134.818 41.585 134.568 41.585C134.217 41.585 133.905 41.5397 133.633 41.449C133.373 41.347 133.152 41.2223 132.97 41.075C132.914 41.6303 132.783 42.1687 132.579 42.69C132.375 43.2113 132.064 43.676 131.644 44.084C131.236 44.5033 130.692 44.832 130.012 45.07C129.332 45.3193 128.488 45.444 127.479 45.444C126.629 45.444 125.836 45.3023 125.099 45.019C124.374 44.7357 123.785 44.305 123.331 43.727C122.889 43.149 122.668 42.4123 122.668 41.517ZM134.576 41.585L134.746 40.191C135.313 40.191 135.755 40.1513 136.072 40.072C136.39 39.9813 136.628 39.817 136.786 39.579C136.956 39.3297 137.092 38.9727 137.194 38.508C137.296 38.0433 137.421 37.437 137.568 36.689L138.894 36.944C138.826 37.25 138.747 37.6013 138.656 37.998C138.577 38.3947 138.537 38.729 138.537 39.001C138.537 39.171 138.549 39.3297 138.571 39.477C138.594 39.6243 138.679 39.749 138.826 39.851C138.974 39.953 139.223 40.038 139.574 40.106C139.926 40.1627 140.43 40.191 141.087 40.191C141.325 40.191 141.495 40.259 141.597 40.395C141.711 40.5197 141.767 40.6727 141.767 40.854C141.767 41.0353 141.688 41.2053 141.529 41.364C141.371 41.5113 141.167 41.585 140.917 41.585C140.181 41.585 139.603 41.5453 139.183 41.466C138.775 41.3753 138.469 41.2507 138.265 41.092C138.073 40.922 137.931 40.7123 137.84 40.463C137.512 40.9277 137.104 41.2337 136.616 41.381C136.14 41.517 135.46 41.585 134.576 41.585ZM138.86 44.798C138.622 44.798 138.418 44.713 138.248 44.543C138.09 44.3843 138.01 44.1917 138.01 43.965C138.01 43.7383 138.09 43.54 138.248 43.37C138.418 43.2 138.622 43.115 138.86 43.115C139.087 43.115 139.28 43.2 139.438 43.37C139.608 43.54 139.693 43.7383 139.693 43.965C139.693 44.1917 139.608 44.3843 139.438 44.543C139.28 44.713 139.087 44.798 138.86 44.798ZM136.531 44.798C136.293 44.798 136.089 44.713 135.919 44.543C135.761 44.3843 135.681 44.1917 135.681 43.965C135.681 43.7383 135.761 43.54 135.919 43.37C136.089 43.2 136.293 43.115 136.531 43.115C136.758 43.115 136.951 43.2 137.109 43.37C137.279 43.54 137.364 43.7383 137.364 43.965C137.364 44.1917 137.279 44.3843 137.109 44.543C136.951 44.713 136.758 44.798 136.531 44.798ZM140.918 41.585L141.088 40.191C141.405 40.191 141.672 40.123 141.887 39.987C142.102 39.851 142.312 39.63 142.516 39.324C142.72 39.0067 142.941 38.576 143.179 38.032C143.508 37.3067 143.831 36.757 144.148 36.383C144.477 36.009 144.8 35.754 145.117 35.618C145.446 35.482 145.769 35.414 146.086 35.414C146.471 35.414 146.828 35.516 147.157 35.72C147.486 35.9127 147.775 36.1733 148.024 36.502C148.273 36.8307 148.466 37.1933 148.602 37.59C148.749 37.9753 148.823 38.3607 148.823 38.746C148.823 39.426 148.704 39.97 148.466 40.378C148.228 40.7747 147.922 41.0637 147.548 41.245C147.185 41.415 146.806 41.5 146.409 41.5C146.08 41.5 145.661 41.4433 145.151 41.33C144.652 41.2167 144.023 40.922 143.264 40.446C142.901 40.9673 142.539 41.2903 142.176 41.415C141.813 41.5283 141.394 41.585 140.918 41.585ZM144.097 38.933C144.029 39.0803 143.967 39.222 143.91 39.358C144.397 39.6413 144.839 39.8397 145.236 39.953C145.644 40.055 145.984 40.106 146.256 40.106C146.743 40.106 147.089 39.9983 147.293 39.783C147.497 39.5677 147.599 39.2843 147.599 38.933C147.599 38.6043 147.52 38.2757 147.361 37.947C147.202 37.6183 146.998 37.3463 146.749 37.131C146.511 36.9157 146.256 36.808 145.984 36.808C145.78 36.808 145.582 36.8647 145.389 36.978C145.196 37.0913 144.998 37.301 144.794 37.607C144.59 37.913 144.358 38.355 144.097 38.933Z" fill="white"/>
</svg>
