<svg width="189" height="55" viewBox="0 0 189 55" fill="none" xmlns="http://www.w3.org/2000/svg">
<rect x="0.5" y="0.5" width="188" height="54" rx="27" fill="#1F1F1F"/>
<rect x="0.5" y="0.5" width="188" height="54" rx="27" stroke="#747775"/>
<path d="M57 23.791H21V18.1455C21 15.0809 23.6422 12.5001 26.7798 12.5001H51.2202C54.3578 12.5001 57 15.0809 57 18.1455V23.791Z" fill="#34A853"/>
<path d="M57 29H21V23C21 19.7429 23.6422 17 26.7798 17H51.2202C54.3578 17 57 19.7429 57 23V29Z" fill="#FBBC04"/>
<path d="M57 34H21V28C21 24.7429 23.6422 22 26.7798 22H51.2202C54.3578 22 57 24.7429 57 28V34Z" fill="#EA4335"/>
<path d="M21 25.2409L43.8493 30.4025C46.4795 31.0477 49.4384 30.4025 51.5753 28.7895L57 24.9183V37.0157C57 40.0804 54.3699 42.4999 51.2466 42.4999H26.7534C23.6301 42.4999 21 40.0804 21 37.0157V25.2409Z" fill="#4285F4"/>
<path d="M74.46 21.708C73.7927 21.708 73.1643 21.5867 72.575 21.344C71.9857 21.1013 71.4657 20.7633 71.015 20.33C70.573 19.888 70.222 19.3723 69.962 18.783C69.7107 18.185 69.585 17.5393 69.585 16.846C69.585 16.1527 69.7107 15.5113 69.962 14.922C70.222 14.324 70.573 13.8083 71.015 13.375C71.4657 12.933 71.9857 12.5907 72.575 12.348C73.1643 12.1053 73.7927 11.984 74.46 11.984C75.1707 11.984 75.825 12.1097 76.423 12.361C77.0297 12.6123 77.5367 12.9633 77.944 13.414L76.956 14.389C76.7567 14.1637 76.527 13.973 76.267 13.817C76.0157 13.661 75.7383 13.544 75.435 13.466C75.1317 13.3793 74.8067 13.336 74.46 13.336C74.0007 13.336 73.563 13.4183 73.147 13.583C72.731 13.7477 72.3627 13.986 72.042 14.298C71.73 14.6013 71.483 14.9697 71.301 15.403C71.119 15.8277 71.028 16.3087 71.028 16.846C71.028 17.3833 71.119 17.8687 71.301 18.302C71.4917 18.7267 71.743 19.095 72.055 19.407C72.3757 19.7103 72.744 19.9443 73.16 20.109C73.576 20.2737 74.0137 20.356 74.473 20.356C74.8977 20.356 75.292 20.2953 75.656 20.174C76.0287 20.0527 76.3537 19.8793 76.631 19.654C76.9083 19.4287 77.1337 19.1557 77.307 18.835C77.4803 18.5057 77.5887 18.1373 77.632 17.73H74.447V16.469H78.971C78.9883 16.573 79.0057 16.6943 79.023 16.833C79.0403 16.963 79.049 17.0887 79.049 17.21V17.223C79.049 17.8903 78.932 18.5013 78.698 19.056C78.4727 19.6107 78.1563 20.0873 77.749 20.486C77.3417 20.876 76.8563 21.1793 76.293 21.396C75.7383 21.604 75.1273 21.708 74.46 21.708ZM83.2349 21.708C82.5502 21.708 81.9479 21.552 81.4279 21.24C80.9079 20.928 80.5006 20.5077 80.2059 19.979C79.9112 19.4417 79.7639 18.8437 79.7639 18.185C79.7639 17.5263 79.9112 16.9327 80.2059 16.404C80.5006 15.8667 80.9079 15.442 81.4279 15.13C81.9479 14.818 82.5502 14.662 83.2349 14.662C83.9109 14.662 84.5089 14.8223 85.0289 15.143C85.5489 15.455 85.9562 15.8753 86.2509 16.404C86.5456 16.9327 86.6929 17.5263 86.6929 18.185C86.6929 18.8437 86.5456 19.4417 86.2509 19.979C85.9562 20.5077 85.5489 20.928 85.0289 21.24C84.5089 21.552 83.9109 21.708 83.2349 21.708ZM83.2349 20.421C83.5989 20.421 83.9369 20.3343 84.2489 20.161C84.5609 19.979 84.8122 19.7233 85.0029 19.394C85.2022 19.056 85.3019 18.653 85.3019 18.185C85.3019 17.717 85.2022 17.3183 85.0029 16.989C84.8122 16.651 84.5609 16.3953 84.2489 16.222C83.9369 16.04 83.5989 15.949 83.2349 15.949C82.8709 15.949 82.5286 16.04 82.2079 16.222C81.8959 16.3953 81.6402 16.651 81.4409 16.989C81.2502 17.3183 81.1549 17.717 81.1549 18.185C81.1549 18.653 81.2502 19.056 81.4409 19.394C81.6402 19.7233 81.9002 19.979 82.2209 20.161C82.5416 20.3343 82.8796 20.421 83.2349 20.421ZM91.106 21.708C90.4213 21.708 89.819 21.552 89.299 21.24C88.779 20.928 88.3717 20.5077 88.077 19.979C87.7823 19.4417 87.635 18.8437 87.635 18.185C87.635 17.5263 87.7823 16.9327 88.077 16.404C88.3717 15.8667 88.779 15.442 89.299 15.13C89.819 14.818 90.4213 14.662 91.106 14.662C91.782 14.662 92.38 14.8223 92.9 15.143C93.42 15.455 93.8273 15.8753 94.122 16.404C94.4167 16.9327 94.564 17.5263 94.564 18.185C94.564 18.8437 94.4167 19.4417 94.122 19.979C93.8273 20.5077 93.42 20.928 92.9 21.24C92.38 21.552 91.782 21.708 91.106 21.708ZM91.106 20.421C91.47 20.421 91.808 20.3343 92.12 20.161C92.432 19.979 92.6833 19.7233 92.874 19.394C93.0733 19.056 93.173 18.653 93.173 18.185C93.173 17.717 93.0733 17.3183 92.874 16.989C92.6833 16.651 92.432 16.3953 92.12 16.222C91.808 16.04 91.47 15.949 91.106 15.949C90.742 15.949 90.3997 16.04 90.079 16.222C89.767 16.3953 89.5113 16.651 89.312 16.989C89.1213 17.3183 89.026 17.717 89.026 18.185C89.026 18.653 89.1213 19.056 89.312 19.394C89.5113 19.7233 89.7713 19.979 90.092 20.161C90.4127 20.3343 90.7507 20.421 91.106 20.421ZM98.8471 24.516C98.2664 24.516 97.7638 24.4207 97.3391 24.23C96.9231 24.048 96.5851 23.8097 96.3251 23.515C96.0651 23.229 95.8788 22.9343 95.7661 22.631L97.0661 22.085C97.2048 22.4317 97.4258 22.7133 97.7291 22.93C98.0411 23.1553 98.4138 23.268 98.8471 23.268C99.4624 23.268 99.9434 23.086 100.29 22.722C100.637 22.358 100.81 21.8423 100.81 21.175V20.538H100.732C100.524 20.8413 100.238 21.0883 99.8741 21.279C99.5101 21.4697 99.0898 21.565 98.6131 21.565C98.0498 21.565 97.5298 21.422 97.0531 21.136C96.5851 20.85 96.2081 20.4513 95.9221 19.94C95.6448 19.42 95.5061 18.8133 95.5061 18.12C95.5061 17.418 95.6448 16.8113 95.9221 16.3C96.2081 15.78 96.5851 15.377 97.0531 15.091C97.5298 14.805 98.0498 14.662 98.6131 14.662C99.0898 14.662 99.5101 14.7573 99.8741 14.948C100.238 15.13 100.524 15.3813 100.732 15.702H100.81V14.87H102.149V21.149C102.149 21.8683 102.006 22.4793 101.72 22.982C101.443 23.4847 101.057 23.866 100.563 24.126C100.069 24.386 99.4971 24.516 98.8471 24.516ZM98.8601 20.291C99.2068 20.291 99.5274 20.2087 99.8221 20.044C100.125 19.8707 100.364 19.6237 100.537 19.303C100.719 18.9737 100.81 18.5793 100.81 18.12C100.81 17.6347 100.719 17.2317 100.537 16.911C100.364 16.5903 100.125 16.3477 99.8221 16.183C99.5274 16.0183 99.2068 15.936 98.8601 15.936C98.5134 15.936 98.1884 16.0183 97.8851 16.183C97.5904 16.3477 97.3521 16.5947 97.1701 16.924C96.9881 17.2447 96.8971 17.6433 96.8971 18.12C96.8971 18.588 96.9881 18.9867 97.1701 19.316C97.3521 19.6367 97.5904 19.8793 97.8851 20.044C98.1884 20.2087 98.5134 20.291 98.8601 20.291ZM103.805 21.5V12.192H105.209V21.5H103.805ZM109.829 21.708C109.179 21.708 108.599 21.5563 108.087 21.253C107.576 20.9497 107.173 20.5337 106.878 20.005C106.592 19.4763 106.449 18.874 106.449 18.198C106.449 17.5653 106.588 16.9803 106.865 16.443C107.143 15.9057 107.528 15.4767 108.022 15.156C108.525 14.8267 109.101 14.662 109.751 14.662C110.436 14.662 111.017 14.8093 111.493 15.104C111.979 15.3987 112.347 15.8017 112.598 16.313C112.85 16.8243 112.975 17.4007 112.975 18.042C112.975 18.1373 112.971 18.224 112.962 18.302C112.962 18.38 112.958 18.4407 112.949 18.484H107.827C107.862 18.848 107.953 19.1643 108.1 19.433C108.291 19.771 108.542 20.0267 108.854 20.2C109.166 20.3733 109.504 20.46 109.868 20.46C110.31 20.46 110.679 20.3603 110.973 20.161C111.277 19.953 111.515 19.6973 111.688 19.394L112.845 19.953C112.559 20.473 112.169 20.8977 111.675 21.227C111.181 21.5477 110.566 21.708 109.829 21.708ZM107.905 17.431H111.584C111.576 17.2663 111.532 17.093 111.454 16.911C111.376 16.7203 111.264 16.547 111.116 16.391C110.969 16.235 110.783 16.1093 110.557 16.014C110.332 15.91 110.068 15.858 109.764 15.858C109.383 15.858 109.045 15.9577 108.75 16.157C108.456 16.3477 108.226 16.6163 108.061 16.963C107.992 17.1103 107.94 17.2663 107.905 17.431ZM118.69 21.5L116.194 12.192H117.78L119.262 18.237L119.418 19.043H119.496L119.691 18.237L121.563 12.192H122.993L124.787 18.237L124.982 19.03H125.06L125.216 18.237L126.698 12.192H128.271L125.814 21.5H124.306L122.525 15.325L122.317 14.454H122.239L122.018 15.325L120.159 21.5H118.69ZM130.881 21.708C130.405 21.708 129.98 21.6127 129.607 21.422C129.243 21.2313 128.953 20.9713 128.736 20.642C128.528 20.304 128.424 19.9183 128.424 19.485C128.424 19.0083 128.546 18.6053 128.788 18.276C129.04 17.9467 129.373 17.6953 129.789 17.522C130.205 17.3487 130.665 17.262 131.167 17.262C131.445 17.262 131.7 17.2837 131.934 17.327C132.177 17.3617 132.385 17.405 132.558 17.457C132.74 17.509 132.883 17.5653 132.987 17.626V17.275C132.987 16.8417 132.831 16.495 132.519 16.235C132.207 15.975 131.804 15.845 131.31 15.845C130.972 15.845 130.652 15.923 130.348 16.079C130.045 16.2263 129.802 16.43 129.62 16.69L128.658 15.949C128.849 15.6803 129.079 15.4507 129.347 15.26C129.625 15.0693 129.932 14.922 130.27 14.818C130.617 14.714 130.977 14.662 131.349 14.662C132.311 14.662 133.052 14.9003 133.572 15.377C134.092 15.845 134.352 16.5037 134.352 17.353V21.5H132.987V20.681H132.909C132.797 20.8543 132.641 21.019 132.441 21.175C132.251 21.331 132.021 21.4567 131.752 21.552C131.492 21.656 131.202 21.708 130.881 21.708ZM131.128 20.564C131.492 20.564 131.813 20.4773 132.09 20.304C132.376 20.1307 132.597 19.9053 132.753 19.628C132.909 19.342 132.987 19.0343 132.987 18.705C132.797 18.5923 132.563 18.5013 132.285 18.432C132.017 18.354 131.731 18.315 131.427 18.315C130.855 18.315 130.448 18.4277 130.205 18.653C129.963 18.8783 129.841 19.16 129.841 19.498C129.841 19.81 129.958 20.0657 130.192 20.265C130.426 20.4643 130.738 20.564 131.128 20.564ZM135.911 21.5V12.192H137.315V21.5H135.911ZM138.983 21.5V12.192H140.387V21.5H138.983ZM145.008 21.708C144.358 21.708 143.777 21.5563 143.266 21.253C142.755 20.9497 142.352 20.5337 142.057 20.005C141.771 19.4763 141.628 18.874 141.628 18.198C141.628 17.5653 141.767 16.9803 142.044 16.443C142.321 15.9057 142.707 15.4767 143.201 15.156C143.704 14.8267 144.28 14.662 144.93 14.662C145.615 14.662 146.195 14.8093 146.672 15.104C147.157 15.3987 147.526 15.8017 147.777 16.313C148.028 16.8243 148.154 17.4007 148.154 18.042C148.154 18.1373 148.15 18.224 148.141 18.302C148.141 18.38 148.137 18.4407 148.128 18.484H143.006C143.041 18.848 143.132 19.1643 143.279 19.433C143.47 19.771 143.721 20.0267 144.033 20.2C144.345 20.3733 144.683 20.46 145.047 20.46C145.489 20.46 145.857 20.3603 146.152 20.161C146.455 19.953 146.694 19.6973 146.867 19.394L148.024 19.953C147.738 20.473 147.348 20.8977 146.854 21.227C146.36 21.5477 145.745 21.708 145.008 21.708ZM143.084 17.431H146.763C146.754 17.2663 146.711 17.093 146.633 16.911C146.555 16.7203 146.442 16.547 146.295 16.391C146.148 16.235 145.961 16.1093 145.736 16.014C145.511 15.91 145.246 15.858 144.943 15.858C144.562 15.858 144.224 15.9577 143.929 16.157C143.634 16.3477 143.405 16.6163 143.24 16.963C143.171 17.1103 143.119 17.2663 143.084 17.431ZM148.811 14.87H149.968V12.998H151.372V14.87H152.997V16.092H151.372V19.277C151.372 19.6063 151.437 19.8577 151.567 20.031C151.706 20.2043 151.936 20.291 152.256 20.291C152.412 20.291 152.551 20.2693 152.672 20.226C152.794 20.174 152.915 20.1133 153.036 20.044V21.409C152.889 21.4697 152.733 21.5173 152.568 21.552C152.404 21.5867 152.209 21.604 151.983 21.604C151.368 21.604 150.878 21.4263 150.514 21.071C150.15 20.707 149.968 20.2087 149.968 19.576V16.092H148.811V14.87Z" fill="white"/>
<path d="M74.151 41.772C73.2557 41.772 72.468 41.568 71.788 41.16C71.108 40.752 70.5753 40.2023 70.19 39.511C69.8047 38.8083 69.612 38.0263 69.612 37.165C69.612 36.3037 69.8047 35.5273 70.19 34.836C70.5753 34.1333 71.108 33.578 71.788 33.17C72.468 32.762 73.2557 32.558 74.151 32.558C75.035 32.558 75.817 32.7677 76.497 33.187C77.177 33.595 77.7097 34.1447 78.095 34.836C78.4803 35.5273 78.673 36.3037 78.673 37.165C78.673 38.0263 78.4803 38.8083 78.095 39.511C77.7097 40.2023 77.177 40.752 76.497 41.16C75.817 41.568 75.035 41.772 74.151 41.772ZM74.151 40.089C74.627 40.089 75.069 39.9757 75.477 39.749C75.885 39.511 76.2137 39.1767 76.463 38.746C76.7237 38.304 76.854 37.777 76.854 37.165C76.854 36.553 76.7237 36.0317 76.463 35.601C76.2137 35.159 75.885 34.8247 75.477 34.598C75.069 34.36 74.627 34.241 74.151 34.241C73.675 34.241 73.2273 34.36 72.808 34.598C72.4 34.8247 72.0657 35.159 71.805 35.601C71.5557 36.0317 71.431 36.553 71.431 37.165C71.431 37.777 71.5557 38.304 71.805 38.746C72.0657 39.1767 72.4057 39.511 72.825 39.749C73.2443 39.9757 73.6863 40.089 74.151 40.089ZM80.198 41.5V32.83H81.932V34.105H82.034C82.17 33.8103 82.3626 33.5497 82.612 33.323C82.8726 33.0963 83.1673 32.915 83.496 32.779C83.836 32.643 84.1873 32.575 84.55 32.575C84.788 32.575 84.9863 32.592 85.145 32.626C85.315 32.6487 85.468 32.6883 85.604 32.745V34.649C85.3886 34.5583 85.1676 34.4847 84.941 34.428C84.7256 34.3713 84.499 34.343 84.261 34.343C83.8303 34.343 83.445 34.462 83.105 34.7C82.7763 34.9267 82.5156 35.2327 82.323 35.618C82.1303 36.0033 82.034 36.434 82.034 36.91V41.5H80.198ZM93.0005 45.172V41.551L93.1025 40.344H93.0005C92.8532 40.582 92.6435 40.8143 92.3715 41.041C92.1109 41.2563 91.7992 41.432 91.4365 41.568C91.0739 41.704 90.6659 41.772 90.2125 41.772C89.4305 41.772 88.7222 41.5737 88.0875 41.177C87.4529 40.7803 86.9542 40.2363 86.5915 39.545C86.2289 38.8537 86.0475 38.0603 86.0475 37.165C86.0475 36.2697 86.2289 35.4763 86.5915 34.785C86.9542 34.0937 87.4529 33.5497 88.0875 33.153C88.7222 32.7563 89.4305 32.558 90.2125 32.558C90.6659 32.558 91.0739 32.626 91.4365 32.762C91.7992 32.898 92.1109 33.0793 92.3715 33.306C92.6435 33.5213 92.8532 33.7537 93.0005 34.003H93.1025V32.83H94.8195V45.172H93.0005ZM90.4845 40.089C90.9379 40.089 91.3629 39.97 91.7595 39.732C92.1675 39.494 92.4905 39.1597 92.7285 38.729C92.9779 38.287 93.1025 37.7657 93.1025 37.165C93.1025 36.5643 92.9779 36.0487 92.7285 35.618C92.4905 35.176 92.1675 34.836 91.7595 34.598C91.3629 34.36 90.9379 34.241 90.4845 34.241C90.0312 34.241 89.6062 34.36 89.2095 34.598C88.8129 34.836 88.4899 35.176 88.2405 35.618C87.9912 36.0487 87.8665 36.5643 87.8665 37.165C87.8665 37.7543 87.9912 38.27 88.2405 38.712C88.4899 39.154 88.8129 39.494 89.2095 39.732C89.6062 39.97 90.0312 40.089 90.4845 40.089ZM99.5859 41.772C98.9626 41.772 98.4073 41.6473 97.9199 41.398C97.4439 41.1487 97.0643 40.8087 96.7809 40.378C96.5089 39.936 96.3729 39.4317 96.3729 38.865C96.3729 38.2417 96.5316 37.7147 96.8489 37.284C97.1776 36.8533 97.6139 36.5247 98.1579 36.298C98.7019 36.0713 99.3026 35.958 99.9599 35.958C100.323 35.958 100.657 35.9863 100.963 36.043C101.28 36.0883 101.552 36.145 101.779 36.213C102.017 36.281 102.204 36.3547 102.34 36.434V35.975C102.34 35.4083 102.136 34.955 101.728 34.615C101.32 34.275 100.793 34.105 100.147 34.105C99.7049 34.105 99.2856 34.207 98.8889 34.411C98.4923 34.6037 98.1749 34.87 97.9369 35.21L96.6789 34.241C96.9283 33.8897 97.2286 33.5893 97.5799 33.34C97.9426 33.0907 98.3449 32.898 98.7869 32.762C99.2403 32.626 99.7106 32.558 100.198 32.558C101.456 32.558 102.425 32.8697 103.105 33.493C103.785 34.105 104.125 34.9663 104.125 36.077V41.5H102.34V40.429H102.238C102.091 40.6557 101.887 40.871 101.626 41.075C101.377 41.279 101.076 41.4433 100.725 41.568C100.385 41.704 100.005 41.772 99.5859 41.772ZM99.9089 40.276C100.385 40.276 100.804 40.1627 101.167 39.936C101.541 39.7093 101.83 39.4147 102.034 39.052C102.238 38.678 102.34 38.2757 102.34 37.845C102.091 37.6977 101.785 37.5787 101.422 37.488C101.071 37.386 100.697 37.335 100.3 37.335C99.5519 37.335 99.0193 37.4823 98.7019 37.777C98.3846 38.0717 98.2259 38.44 98.2259 38.882C98.2259 39.29 98.3789 39.6243 98.6849 39.885C98.9909 40.1457 99.3989 40.276 99.9089 40.276ZM106.163 41.5V29.328H107.999V41.5H106.163ZM110.3 41.5V32.83H112.136V41.5H110.3ZM111.218 31.555C110.878 31.555 110.583 31.436 110.334 31.198C110.096 30.9487 109.977 30.654 109.977 30.314C109.977 29.9627 110.096 29.6737 110.334 29.447C110.583 29.209 110.878 29.09 111.218 29.09C111.569 29.09 111.864 29.209 112.102 29.447C112.34 29.6737 112.459 29.9627 112.459 30.314C112.459 30.654 112.34 30.9487 112.102 31.198C111.864 31.436 111.569 31.555 111.218 31.555ZM122.462 41.772C121.566 41.772 120.779 41.568 120.099 41.16C119.419 40.752 118.886 40.2023 118.501 39.511C118.115 38.8083 117.923 38.0263 117.923 37.165C117.923 36.3037 118.115 35.5273 118.501 34.836C118.886 34.1333 119.419 33.578 120.099 33.17C120.779 32.762 121.566 32.558 122.462 32.558C123.346 32.558 124.128 32.7677 124.808 33.187C125.488 33.595 126.02 34.1447 126.406 34.836C126.791 35.5273 126.984 36.3037 126.984 37.165C126.984 38.0263 126.791 38.8083 126.406 39.511C126.02 40.2023 125.488 40.752 124.808 41.16C124.128 41.568 123.346 41.772 122.462 41.772ZM122.462 40.089C122.938 40.089 123.38 39.9757 123.788 39.749C124.196 39.511 124.524 39.1767 124.774 38.746C125.034 38.304 125.165 37.777 125.165 37.165C125.165 36.553 125.034 36.0317 124.774 35.601C124.524 35.159 124.196 34.8247 123.788 34.598C123.38 34.36 122.938 34.241 122.462 34.241C121.986 34.241 121.538 34.36 121.119 34.598C120.711 34.8247 120.376 35.159 120.116 35.601C119.866 36.0317 119.742 36.553 119.742 37.165C119.742 37.777 119.866 38.304 120.116 38.746C120.376 39.1767 120.716 39.511 121.136 39.749C121.555 39.9757 121.997 40.089 122.462 40.089ZM132.687 41.772C131.814 41.772 131.038 41.5737 130.358 41.177C129.689 40.7803 129.162 40.2363 128.777 39.545C128.403 38.8423 128.216 38.049 128.216 37.165C128.216 36.281 128.403 35.4933 128.777 34.802C129.162 34.1107 129.689 33.5667 130.358 33.17C131.038 32.762 131.814 32.558 132.687 32.558C133.65 32.558 134.46 32.7733 135.118 33.204C135.786 33.6347 136.262 34.2183 136.546 34.955L134.88 35.635C134.676 35.1703 134.381 34.8247 133.996 34.598C133.622 34.36 133.174 34.241 132.653 34.241C132.177 34.241 131.74 34.3657 131.344 34.615C130.947 34.853 130.63 35.1873 130.392 35.618C130.154 36.0487 130.035 36.5643 130.035 37.165C130.035 37.7543 130.154 38.27 130.392 38.712C130.63 39.154 130.947 39.494 131.344 39.732C131.74 39.97 132.177 40.089 132.653 40.089C133.208 40.089 133.678 39.9643 134.064 39.715C134.449 39.4657 134.749 39.1143 134.965 38.661L136.597 39.375C136.279 40.0663 135.786 40.6387 135.118 41.092C134.46 41.5453 133.65 41.772 132.687 41.772ZM138.171 41.5V29.328H140.007V32.66L139.905 34.02H140.007C140.245 33.6007 140.607 33.255 141.095 32.983C141.593 32.6997 142.143 32.558 142.744 32.558C143.469 32.558 144.07 32.7053 144.546 33C145.033 33.2947 145.396 33.7027 145.634 34.224C145.872 34.734 145.991 35.3347 145.991 36.026V41.5H144.172V36.264C144.172 35.7993 144.081 35.4197 143.9 35.125C143.73 34.8303 143.503 34.6093 143.22 34.462C142.936 34.3147 142.619 34.241 142.268 34.241C141.826 34.241 141.435 34.3657 141.095 34.615C140.755 34.8643 140.488 35.193 140.296 35.601C140.103 35.9977 140.007 36.4227 140.007 36.876V41.5H138.171ZM148.218 41.5V32.83H150.054V41.5H148.218ZM149.136 31.555C148.796 31.555 148.501 31.436 148.252 31.198C148.014 30.9487 147.895 30.654 147.895 30.314C147.895 29.9627 148.014 29.6737 148.252 29.447C148.501 29.209 148.796 29.09 149.136 29.09C149.487 29.09 149.782 29.209 150.02 29.447C150.258 29.6737 150.377 29.9627 150.377 30.314C150.377 30.654 150.258 30.9487 150.02 31.198C149.782 31.436 149.487 31.555 149.136 31.555ZM155.494 41.772C154.802 41.772 154.202 41.67 153.692 41.466C153.182 41.2507 152.762 40.9673 152.434 40.616C152.105 40.2533 151.861 39.8623 151.703 39.443L153.352 38.729C153.556 39.1937 153.845 39.5507 154.219 39.8C154.604 40.038 155.046 40.157 155.545 40.157C155.998 40.157 156.389 40.0777 156.718 39.919C157.046 39.749 157.211 39.477 157.211 39.103C157.211 38.865 157.131 38.6723 156.973 38.525C156.825 38.3663 156.621 38.236 156.361 38.134C156.111 38.032 155.822 37.9413 155.494 37.862L154.457 37.624C154.049 37.522 153.658 37.3633 153.284 37.148C152.921 36.9213 152.626 36.638 152.4 36.298C152.173 35.958 152.06 35.5557 152.06 35.091C152.06 34.5697 152.207 34.122 152.502 33.748C152.808 33.3627 153.216 33.068 153.726 32.864C154.236 32.66 154.785 32.558 155.375 32.558C155.919 32.558 156.412 32.6317 156.854 32.779C157.307 32.915 157.698 33.1247 158.027 33.408C158.367 33.68 158.633 34.02 158.826 34.428L157.245 35.142C157.052 34.7567 156.791 34.4903 156.463 34.343C156.134 34.1843 155.777 34.105 155.392 34.105C154.961 34.105 154.598 34.1957 154.304 34.377C154.02 34.547 153.879 34.7737 153.879 35.057C153.879 35.3517 154.003 35.584 154.253 35.754C154.513 35.924 154.831 36.06 155.205 36.162L156.463 36.468C157.324 36.6833 157.97 37.012 158.401 37.454C158.831 37.8847 159.047 38.4117 159.047 39.035C159.047 39.5903 158.888 40.0777 158.571 40.497C158.253 40.905 157.823 41.2223 157.279 41.449C156.746 41.6643 156.151 41.772 155.494 41.772ZM160.649 41.5V29.328H162.485V32.66L162.383 34.02H162.485C162.723 33.6007 163.086 33.255 163.573 32.983C164.072 32.6997 164.621 32.558 165.222 32.558C165.947 32.558 166.548 32.7053 167.024 33C167.511 33.2947 167.874 33.7027 168.112 34.224C168.35 34.734 168.469 35.3347 168.469 36.026V41.5H166.65V36.264C166.65 35.7993 166.559 35.4197 166.378 35.125C166.208 34.8303 165.981 34.6093 165.698 34.462C165.415 34.3147 165.097 34.241 164.746 34.241C164.304 34.241 163.913 34.3657 163.573 34.615C163.233 34.8643 162.967 35.193 162.774 35.601C162.581 35.9977 162.485 36.4227 162.485 36.876V41.5H160.649Z" fill="white"/>
</svg>
