<svg width="199" height="55" viewBox="0 0 199 55" fill="none" xmlns="http://www.w3.org/2000/svg">
<rect x="0.5" y="0.5" width="198" height="54" rx="27" fill="#1F1F1F"/>
<rect x="0.5" y="0.5" width="198" height="54" rx="27" stroke="#747775"/>
<path d="M57 23.791H21V18.1455C21 15.0809 23.6422 12.5001 26.7798 12.5001H51.2202C54.3578 12.5001 57 15.0809 57 18.1455V23.791Z" fill="#34A853"/>
<path d="M57 29H21V23C21 19.7429 23.6422 17 26.7798 17H51.2202C54.3578 17 57 19.7429 57 23V29Z" fill="#FBBC04"/>
<path d="M57 34H21V28C21 24.7429 23.6422 22 26.7798 22H51.2202C54.3578 22 57 24.7429 57 28V34Z" fill="#EA4335"/>
<path d="M21 25.2409L43.8493 30.4025C46.4795 31.0477 49.4384 30.4025 51.5753 28.7895L57 24.9183V37.0157C57 40.0804 54.3699 42.4999 51.2466 42.4999H26.7534C23.6301 42.4999 21 40.0804 21 37.0157V25.2409Z" fill="#4285F4"/>
<path d="M69.442 12.192H71.197L73.264 15.533H73.342L75.422 12.192H77.164L74.265 16.664L77.372 21.5H75.63L73.342 17.873H73.264L70.976 21.5H69.234L72.341 16.664L69.442 12.192ZM81.1253 21.708C80.4753 21.708 79.8947 21.5563 79.3833 21.253C78.872 20.9497 78.469 20.5337 78.1743 20.005C77.8883 19.4763 77.7453 18.874 77.7453 18.198C77.7453 17.5653 77.884 16.9803 78.1613 16.443C78.4387 15.9057 78.8243 15.4767 79.3183 15.156C79.821 14.8267 80.3973 14.662 81.0473 14.662C81.732 14.662 82.3127 14.8093 82.7893 15.104C83.2747 15.3987 83.643 15.8017 83.8943 16.313C84.1457 16.8243 84.2713 17.4007 84.2713 18.042C84.2713 18.1373 84.267 18.224 84.2583 18.302C84.2583 18.38 84.254 18.4407 84.2453 18.484H79.1233C79.158 18.848 79.249 19.1643 79.3963 19.433C79.587 19.771 79.8383 20.0267 80.1503 20.2C80.4623 20.3733 80.8003 20.46 81.1643 20.46C81.6063 20.46 81.9747 20.3603 82.2693 20.161C82.5727 19.953 82.811 19.6973 82.9843 19.394L84.1413 19.953C83.8553 20.473 83.4653 20.8977 82.9713 21.227C82.4773 21.5477 81.862 21.708 81.1253 21.708ZM79.2013 17.431H82.8803C82.8717 17.2663 82.8283 17.093 82.7503 16.911C82.6723 16.7203 82.5597 16.547 82.4123 16.391C82.265 16.235 82.0787 16.1093 81.8533 16.014C81.628 15.91 81.3637 15.858 81.0603 15.858C80.679 15.858 80.341 15.9577 80.0463 16.157C79.7517 16.3477 79.522 16.6163 79.3573 16.963C79.288 17.1103 79.236 17.2663 79.2013 17.431ZM85.5739 21.5V14.87H86.8999V15.78H86.9779C87.1079 15.5633 87.2769 15.3727 87.4849 15.208C87.6929 15.0433 87.9269 14.9133 88.1869 14.818C88.4555 14.714 88.7329 14.662 89.0189 14.662C89.5129 14.662 89.9332 14.779 90.2799 15.013C90.6265 15.247 90.8735 15.5417 91.0209 15.897C91.2375 15.5503 91.5322 15.26 91.9049 15.026C92.2776 14.7833 92.7326 14.662 93.2699 14.662C94.0499 14.662 94.6306 14.9003 95.0119 15.377C95.3932 15.845 95.5839 16.469 95.5839 17.249V21.5H94.1929V17.483C94.1929 16.9457 94.0759 16.5557 93.8419 16.313C93.6166 16.0703 93.3002 15.949 92.8929 15.949C92.5722 15.949 92.2906 16.04 92.0479 16.222C91.8052 16.3953 91.6146 16.6337 91.4759 16.937C91.3459 17.2403 91.2809 17.5783 91.2809 17.951V21.5H89.8899V17.483C89.8899 16.9543 89.7729 16.5687 89.5389 16.326C89.3049 16.0747 88.9755 15.949 88.5509 15.949C88.2475 15.949 87.9745 16.04 87.7319 16.222C87.4979 16.404 87.3115 16.6467 87.1729 16.95C87.0429 17.2533 86.9779 17.5913 86.9779 17.964V21.5H85.5739ZM99.7439 14.87H100.901V12.998H102.305V14.87H103.93V16.092H102.305V19.277C102.305 19.6063 102.37 19.8577 102.5 20.031C102.639 20.2043 102.868 20.291 103.189 20.291C103.345 20.291 103.484 20.2693 103.605 20.226C103.726 20.174 103.848 20.1133 103.969 20.044V21.409C103.822 21.4697 103.666 21.5173 103.501 21.552C103.336 21.5867 103.141 21.604 102.916 21.604C102.301 21.604 101.811 21.4263 101.447 21.071C101.083 20.707 100.901 20.2087 100.901 19.576V16.092H99.7439V14.87ZM105.277 21.5V14.87H106.603V15.845H106.681C106.785 15.6197 106.932 15.4203 107.123 15.247C107.322 15.0737 107.548 14.935 107.799 14.831C108.059 14.727 108.328 14.675 108.605 14.675C108.787 14.675 108.939 14.688 109.06 14.714C109.19 14.7313 109.307 14.7617 109.411 14.805V16.261C109.246 16.1917 109.077 16.1353 108.904 16.092C108.739 16.0487 108.566 16.027 108.384 16.027C108.055 16.027 107.76 16.118 107.5 16.3C107.249 16.4733 107.049 16.7073 106.902 17.002C106.755 17.2967 106.681 17.626 106.681 17.99V21.5H105.277ZM113.221 21.708C112.537 21.708 111.934 21.552 111.414 21.24C110.894 20.928 110.487 20.5077 110.192 19.979C109.898 19.4417 109.75 18.8437 109.75 18.185C109.75 17.5263 109.898 16.9327 110.192 16.404C110.487 15.8667 110.894 15.442 111.414 15.13C111.934 14.818 112.537 14.662 113.221 14.662C113.897 14.662 114.495 14.8223 115.015 15.143C115.535 15.455 115.943 15.8753 116.237 16.404C116.532 16.9327 116.679 17.5263 116.679 18.185C116.679 18.8437 116.532 19.4417 116.237 19.979C115.943 20.5077 115.535 20.928 115.015 21.24C114.495 21.552 113.897 21.708 113.221 21.708ZM113.221 20.421C113.585 20.421 113.923 20.3343 114.235 20.161C114.547 19.979 114.799 19.7233 114.989 19.394C115.189 19.056 115.288 18.653 115.288 18.185C115.288 17.717 115.189 17.3183 114.989 16.989C114.799 16.651 114.547 16.3953 114.235 16.222C113.923 16.04 113.585 15.949 113.221 15.949C112.857 15.949 112.515 16.04 112.194 16.222C111.882 16.3953 111.627 16.651 111.427 16.989C111.237 17.3183 111.141 17.717 111.141 18.185C111.141 18.653 111.237 19.056 111.427 19.394C111.627 19.7233 111.887 19.979 112.207 20.161C112.528 20.3343 112.866 20.421 113.221 20.421ZM117.845 21.5V14.87H119.171V15.78H119.249C119.44 15.4593 119.722 15.195 120.094 14.987C120.476 14.7703 120.892 14.662 121.342 14.662C122.157 14.662 122.768 14.9047 123.175 15.39C123.583 15.8667 123.786 16.508 123.786 17.314V21.5H122.395V17.496C122.395 16.9587 122.261 16.5687 121.992 16.326C121.724 16.0747 121.373 15.949 120.939 15.949C120.601 15.949 120.307 16.0443 120.055 16.235C119.804 16.417 119.605 16.6597 119.457 16.963C119.319 17.2663 119.249 17.5913 119.249 17.938V21.5H117.845ZM128.313 24.516C127.732 24.516 127.23 24.4207 126.805 24.23C126.389 24.048 126.051 23.8097 125.791 23.515C125.531 23.229 125.345 22.9343 125.232 22.631L126.532 22.085C126.671 22.4317 126.892 22.7133 127.195 22.93C127.507 23.1553 127.88 23.268 128.313 23.268C128.928 23.268 129.409 23.086 129.756 22.722C130.103 22.358 130.276 21.8423 130.276 21.175V20.538H130.198C129.99 20.8413 129.704 21.0883 129.34 21.279C128.976 21.4697 128.556 21.565 128.079 21.565C127.516 21.565 126.996 21.422 126.519 21.136C126.051 20.85 125.674 20.4513 125.388 19.94C125.111 19.42 124.972 18.8133 124.972 18.12C124.972 17.418 125.111 16.8113 125.388 16.3C125.674 15.78 126.051 15.377 126.519 15.091C126.996 14.805 127.516 14.662 128.079 14.662C128.556 14.662 128.976 14.7573 129.34 14.948C129.704 15.13 129.99 15.3813 130.198 15.702H130.276V14.87H131.615V21.149C131.615 21.8683 131.472 22.4793 131.186 22.982C130.909 23.4847 130.523 23.866 130.029 24.126C129.535 24.386 128.963 24.516 128.313 24.516ZM128.326 20.291C128.673 20.291 128.993 20.2087 129.288 20.044C129.591 19.8707 129.83 19.6237 130.003 19.303C130.185 18.9737 130.276 18.5793 130.276 18.12C130.276 17.6347 130.185 17.2317 130.003 16.911C129.83 16.5903 129.591 16.3477 129.288 16.183C128.993 16.0183 128.673 15.936 128.326 15.936C127.979 15.936 127.654 16.0183 127.351 16.183C127.056 16.3477 126.818 16.5947 126.636 16.924C126.454 17.2447 126.363 17.6433 126.363 18.12C126.363 18.588 126.454 18.9867 126.636 19.316C126.818 19.6367 127.056 19.8793 127.351 20.044C127.654 20.2087 127.979 20.291 128.326 20.291Z" fill="white"/>
<path d="M76.14 41.772C75.2673 41.772 74.4457 41.6133 73.675 41.296C72.9043 40.9787 72.2243 40.5367 71.635 39.97C71.057 39.392 70.598 38.7177 70.258 37.947C69.9293 37.165 69.765 36.3207 69.765 35.414C69.765 34.5073 69.9293 33.6687 70.258 32.898C70.598 32.116 71.057 31.4417 71.635 30.875C72.2243 30.297 72.9043 29.8493 73.675 29.532C74.4457 29.2147 75.2673 29.056 76.14 29.056C77.0693 29.056 77.925 29.2203 78.707 29.549C79.5003 29.8777 80.1633 30.3367 80.696 30.926L79.404 32.201C79.1433 31.9063 78.843 31.657 78.503 31.453C78.1743 31.249 77.8117 31.096 77.415 30.994C77.0183 30.8807 76.5933 30.824 76.14 30.824C75.5393 30.824 74.967 30.9317 74.423 31.147C73.879 31.3623 73.3973 31.674 72.978 32.082C72.57 32.4787 72.247 32.9603 72.009 33.527C71.771 34.0823 71.652 34.7113 71.652 35.414C71.652 36.1167 71.771 36.7513 72.009 37.318C72.2583 37.8733 72.587 38.355 72.995 38.763C73.4143 39.1597 73.896 39.4657 74.44 39.681C74.984 39.8963 75.5563 40.004 76.157 40.004C76.7123 40.004 77.228 39.9247 77.704 39.766C78.1913 39.6073 78.6163 39.3807 78.979 39.086C79.3417 38.7913 79.6363 38.4343 79.863 38.015C80.0897 37.5843 80.2313 37.1027 80.288 36.57H76.123V34.921H82.039C82.0617 35.057 82.0843 35.2157 82.107 35.397C82.1297 35.567 82.141 35.7313 82.141 35.89V35.907C82.141 36.7797 81.988 37.5787 81.682 38.304C81.3873 39.0293 80.9737 39.6527 80.441 40.174C79.9083 40.684 79.2737 41.0807 78.537 41.364C77.8117 41.636 77.0127 41.772 76.14 41.772ZM87.6149 41.772C86.7195 41.772 85.9319 41.568 85.2519 41.16C84.5719 40.752 84.0392 40.2023 83.6539 39.511C83.2685 38.8083 83.0759 38.0263 83.0759 37.165C83.0759 36.3037 83.2685 35.5273 83.6539 34.836C84.0392 34.1333 84.5719 33.578 85.2519 33.17C85.9319 32.762 86.7195 32.558 87.6149 32.558C88.4989 32.558 89.2809 32.7677 89.9609 33.187C90.6409 33.595 91.1735 34.1447 91.5589 34.836C91.9442 35.5273 92.1369 36.3037 92.1369 37.165C92.1369 38.0263 91.9442 38.8083 91.5589 39.511C91.1735 40.2023 90.6409 40.752 89.9609 41.16C89.2809 41.568 88.4989 41.772 87.6149 41.772ZM87.6149 40.089C88.0909 40.089 88.5329 39.9757 88.9409 39.749C89.3489 39.511 89.6775 39.1767 89.9269 38.746C90.1875 38.304 90.3179 37.777 90.3179 37.165C90.3179 36.553 90.1875 36.0317 89.9269 35.601C89.6775 35.159 89.3489 34.8247 88.9409 34.598C88.5329 34.36 88.0909 34.241 87.6149 34.241C87.1389 34.241 86.6912 34.36 86.2719 34.598C85.8639 34.8247 85.5295 35.159 85.2689 35.601C85.0195 36.0317 84.8949 36.553 84.8949 37.165C84.8949 37.777 85.0195 38.304 85.2689 38.746C85.5295 39.1767 85.8695 39.511 86.2889 39.749C86.7082 39.9757 87.1502 40.089 87.6149 40.089ZM97.9078 41.772C97.0125 41.772 96.2248 41.568 95.5448 41.16C94.8648 40.752 94.3322 40.2023 93.9468 39.511C93.5615 38.8083 93.3688 38.0263 93.3688 37.165C93.3688 36.3037 93.5615 35.5273 93.9468 34.836C94.3322 34.1333 94.8648 33.578 95.5448 33.17C96.2248 32.762 97.0125 32.558 97.9078 32.558C98.7918 32.558 99.5738 32.7677 100.254 33.187C100.934 33.595 101.467 34.1447 101.852 34.836C102.237 35.5273 102.43 36.3037 102.43 37.165C102.43 38.0263 102.237 38.8083 101.852 39.511C101.467 40.2023 100.934 40.752 100.254 41.16C99.5738 41.568 98.7918 41.772 97.9078 41.772ZM97.9078 40.089C98.3838 40.089 98.8258 39.9757 99.2338 39.749C99.6418 39.511 99.9705 39.1767 100.22 38.746C100.481 38.304 100.611 37.777 100.611 37.165C100.611 36.553 100.481 36.0317 100.22 35.601C99.9705 35.159 99.6418 34.8247 99.2338 34.598C98.8258 34.36 98.3838 34.241 97.9078 34.241C97.4318 34.241 96.9842 34.36 96.5648 34.598C96.1568 34.8247 95.8225 35.159 95.5618 35.601C95.3125 36.0317 95.1878 36.553 95.1878 37.165C95.1878 37.777 95.3125 38.304 95.5618 38.746C95.8225 39.1767 96.1625 39.511 96.5818 39.749C97.0012 39.9757 97.4432 40.089 97.9078 40.089ZM108.031 45.444C107.271 45.444 106.614 45.3193 106.059 45.07C105.515 44.832 105.073 44.5203 104.733 44.135C104.393 43.761 104.149 43.3757 104.002 42.979L105.702 42.265C105.883 42.7183 106.172 43.0867 106.569 43.37C106.977 43.6647 107.464 43.812 108.031 43.812C108.835 43.812 109.464 43.574 109.918 43.098C110.371 42.622 110.598 41.9477 110.598 41.075V40.242H110.496C110.224 40.6387 109.85 40.9617 109.374 41.211C108.898 41.4603 108.348 41.585 107.725 41.585C106.988 41.585 106.308 41.398 105.685 41.024C105.073 40.65 104.58 40.1287 104.206 39.46C103.843 38.78 103.662 37.9867 103.662 37.08C103.662 36.162 103.843 35.3687 104.206 34.7C104.58 34.02 105.073 33.493 105.685 33.119C106.308 32.745 106.988 32.558 107.725 32.558C108.348 32.558 108.898 32.6827 109.374 32.932C109.85 33.17 110.224 33.4987 110.496 33.918H110.598V32.83H112.349V41.041C112.349 41.9817 112.162 42.7807 111.788 43.438C111.425 44.0953 110.921 44.594 110.275 44.934C109.629 45.274 108.881 45.444 108.031 45.444ZM108.048 39.919C108.501 39.919 108.92 39.8113 109.306 39.596C109.702 39.3693 110.014 39.0463 110.241 38.627C110.479 38.1963 110.598 37.6807 110.598 37.08C110.598 36.4453 110.479 35.9183 110.241 35.499C110.014 35.0797 109.702 34.7623 109.306 34.547C108.92 34.3317 108.501 34.224 108.048 34.224C107.594 34.224 107.169 34.3317 106.773 34.547C106.387 34.7623 106.076 35.0853 105.838 35.516C105.6 35.9353 105.481 36.4567 105.481 37.08C105.481 37.692 105.6 38.2133 105.838 38.644C106.076 39.0633 106.387 39.3807 106.773 39.596C107.169 39.8113 107.594 39.919 108.048 39.919ZM114.514 41.5V29.328H116.35V41.5H114.514ZM122.392 41.772C121.542 41.772 120.783 41.5737 120.114 41.177C119.446 40.7803 118.919 40.2363 118.533 39.545C118.159 38.8537 117.972 38.066 117.972 37.182C117.972 36.3547 118.154 35.5897 118.516 34.887C118.879 34.1843 119.383 33.6233 120.029 33.204C120.687 32.7733 121.44 32.558 122.29 32.558C123.186 32.558 123.945 32.7507 124.568 33.136C125.203 33.5213 125.685 34.0483 126.013 34.717C126.342 35.3857 126.506 36.1393 126.506 36.978C126.506 37.1027 126.501 37.216 126.489 37.318C126.489 37.42 126.484 37.4993 126.472 37.556H119.774C119.82 38.032 119.939 38.4457 120.131 38.797C120.381 39.239 120.709 39.5733 121.117 39.8C121.525 40.0267 121.967 40.14 122.443 40.14C123.021 40.14 123.503 40.0097 123.888 39.749C124.285 39.477 124.597 39.1427 124.823 38.746L126.336 39.477C125.962 40.157 125.452 40.7123 124.806 41.143C124.16 41.5623 123.356 41.772 122.392 41.772ZM119.876 36.179H124.687C124.676 35.9637 124.619 35.737 124.517 35.499C124.415 35.2497 124.268 35.023 124.075 34.819C123.883 34.615 123.639 34.4507 123.344 34.326C123.05 34.19 122.704 34.122 122.307 34.122C121.809 34.122 121.367 34.2523 120.981 34.513C120.596 34.7623 120.296 35.1137 120.08 35.567C119.99 35.7597 119.922 35.9637 119.876 36.179ZM133.979 41.5L130.715 29.328H132.789L134.727 37.233L134.931 38.287H135.033L135.288 37.233L137.736 29.328H139.606L141.952 37.233L142.207 38.27H142.309L142.513 37.233L144.451 29.328H146.508L143.295 41.5H141.323L138.994 33.425L138.722 32.286H138.62L138.331 33.425L135.9 41.5H133.979ZM149.922 41.772C149.299 41.772 148.743 41.6473 148.256 41.398C147.78 41.1487 147.4 40.8087 147.117 40.378C146.845 39.936 146.709 39.4317 146.709 38.865C146.709 38.2417 146.868 37.7147 147.185 37.284C147.514 36.8533 147.95 36.5247 148.494 36.298C149.038 36.0713 149.639 35.958 150.296 35.958C150.659 35.958 150.993 35.9863 151.299 36.043C151.616 36.0883 151.888 36.145 152.115 36.213C152.353 36.281 152.54 36.3547 152.676 36.434V35.975C152.676 35.4083 152.472 34.955 152.064 34.615C151.656 34.275 151.129 34.105 150.483 34.105C150.041 34.105 149.622 34.207 149.225 34.411C148.828 34.6037 148.511 34.87 148.273 35.21L147.015 34.241C147.264 33.8897 147.565 33.5893 147.916 33.34C148.279 33.0907 148.681 32.898 149.123 32.762C149.576 32.626 150.047 32.558 150.534 32.558C151.792 32.558 152.761 32.8697 153.441 33.493C154.121 34.105 154.461 34.9663 154.461 36.077V41.5H152.676V40.429H152.574C152.427 40.6557 152.223 40.871 151.962 41.075C151.713 41.279 151.412 41.4433 151.061 41.568C150.721 41.704 150.341 41.772 149.922 41.772ZM150.245 40.276C150.721 40.276 151.14 40.1627 151.503 39.936C151.877 39.7093 152.166 39.4147 152.37 39.052C152.574 38.678 152.676 38.2757 152.676 37.845C152.427 37.6977 152.121 37.5787 151.758 37.488C151.407 37.386 151.033 37.335 150.636 37.335C149.888 37.335 149.355 37.4823 149.038 37.777C148.721 38.0717 148.562 38.44 148.562 38.882C148.562 39.29 148.715 39.6243 149.021 39.885C149.327 40.1457 149.735 40.276 150.245 40.276ZM156.499 41.5V29.328H158.335V41.5H156.499ZM160.517 41.5V29.328H162.353V41.5H160.517ZM168.395 41.772C167.545 41.772 166.786 41.5737 166.117 41.177C165.449 40.7803 164.922 40.2363 164.536 39.545C164.162 38.8537 163.975 38.066 163.975 37.182C163.975 36.3547 164.157 35.5897 164.519 34.887C164.882 34.1843 165.386 33.6233 166.032 33.204C166.69 32.7733 167.443 32.558 168.293 32.558C169.189 32.558 169.948 32.7507 170.571 33.136C171.206 33.5213 171.688 34.0483 172.016 34.717C172.345 35.3857 172.509 36.1393 172.509 36.978C172.509 37.1027 172.504 37.216 172.492 37.318C172.492 37.42 172.487 37.4993 172.475 37.556H165.777C165.823 38.032 165.942 38.4457 166.134 38.797C166.384 39.239 166.712 39.5733 167.12 39.8C167.528 40.0267 167.97 40.14 168.446 40.14C169.024 40.14 169.506 40.0097 169.891 39.749C170.288 39.477 170.6 39.1427 170.826 38.746L172.339 39.477C171.965 40.157 171.455 40.7123 170.809 41.143C170.163 41.5623 169.359 41.772 168.395 41.772ZM165.879 36.179H170.69C170.679 35.9637 170.622 35.737 170.52 35.499C170.418 35.2497 170.271 35.023 170.078 34.819C169.886 34.615 169.642 34.4507 169.347 34.326C169.053 34.19 168.707 34.122 168.31 34.122C167.812 34.122 167.37 34.2523 166.984 34.513C166.599 34.7623 166.299 35.1137 166.083 35.567C165.993 35.7597 165.925 35.9637 165.879 36.179ZM173.369 32.83H174.882V30.382H176.718V32.83H178.843V34.428H176.718V38.593C176.718 39.0237 176.803 39.3523 176.973 39.579C177.154 39.8057 177.454 39.919 177.874 39.919C178.078 39.919 178.259 39.8907 178.418 39.834C178.576 39.766 178.735 39.6867 178.894 39.596V41.381C178.701 41.4603 178.497 41.5227 178.282 41.568C178.066 41.6133 177.811 41.636 177.517 41.636C176.712 41.636 176.072 41.4037 175.596 40.939C175.12 40.463 174.882 39.8113 174.882 38.984V34.428H173.369V32.83Z" fill="white"/>
</svg>
