<svg width="226" height="55" viewBox="0 0 226 55" fill="none" xmlns="http://www.w3.org/2000/svg">
<rect x="0.5" y="0.5" width="225" height="54" rx="27" fill="#1F1F1F"/>
<rect x="0.5" y="0.5" width="225" height="54" rx="27" stroke="#747775"/>
<path d="M57 23.791H21V18.1455C21 15.0809 23.6422 12.5001 26.7798 12.5001H51.2202C54.3578 12.5001 57 15.0809 57 18.1455V23.791Z" fill="#34A853"/>
<path d="M57 29H21V23C21 19.7429 23.6422 17 26.7798 17H51.2202C54.3578 17 57 19.7429 57 23V29Z" fill="#FBBC04"/>
<path d="M57 34H21V28C21 24.7429 23.6422 22 26.7798 22H51.2202C54.3578 22 57 24.7429 57 28V34Z" fill="#EA4335"/>
<path d="M21 25.2409L43.8493 30.4025C46.4795 31.0477 49.4384 30.4025 51.5753 28.7895L57 24.9183V37.0157C57 40.0804 54.3699 42.4999 51.2466 42.4999H26.7534C23.6301 42.4999 21 40.0804 21 37.0157V25.2409Z" fill="#4285F4"/>
<path d="M70.053 21.5V12.192H73.537C74.0483 12.192 74.512 12.3003 74.928 12.517C75.344 12.7337 75.6733 13.0283 75.916 13.401C76.1673 13.7737 76.293 14.194 76.293 14.662C76.293 15.1387 76.176 15.546 75.942 15.884C75.708 16.222 75.4047 16.4777 75.032 16.651V16.716C75.5 16.872 75.8813 17.1407 76.176 17.522C76.4707 17.9033 76.618 18.3583 76.618 18.887C76.618 19.407 76.4837 19.862 76.215 20.252C75.955 20.642 75.5997 20.9497 75.149 21.175C74.707 21.3917 74.2217 21.5 73.693 21.5H70.053ZM71.483 17.379V20.174H73.693C74.005 20.174 74.2737 20.109 74.499 19.979C74.7243 19.849 74.8933 19.6757 75.006 19.459C75.1273 19.2423 75.188 19.017 75.188 18.783C75.188 18.5317 75.1273 18.302 75.006 18.094C74.8847 17.8773 74.707 17.704 74.473 17.574C74.2477 17.444 73.9703 17.379 73.641 17.379H71.483ZM71.483 16.105H73.472C73.7753 16.105 74.031 16.0443 74.239 15.923C74.4557 15.793 74.6203 15.6283 74.733 15.429C74.8457 15.221 74.902 15.0087 74.902 14.792C74.902 14.5753 74.8457 14.3717 74.733 14.181C74.629 13.9817 74.473 13.8213 74.265 13.7C74.057 13.57 73.81 13.505 73.524 13.505H71.483V16.105ZM80.3617 21.708C79.547 21.708 78.9317 21.4653 78.5157 20.98C78.1084 20.486 77.9047 19.8187 77.9047 18.978V14.87H79.3087V18.783C79.3087 19.3377 79.4387 19.7493 79.6987 20.018C79.9674 20.2867 80.301 20.421 80.6997 20.421C81.0637 20.421 81.3757 20.33 81.6357 20.148C81.8957 19.9573 82.095 19.7103 82.2337 19.407C82.381 19.1037 82.4547 18.7787 82.4547 18.432V14.87H83.8457V21.5H82.5327V20.603H82.4547C82.3334 20.811 82.1644 20.9973 81.9477 21.162C81.731 21.3267 81.4884 21.4567 81.2197 21.552C80.951 21.656 80.665 21.708 80.3617 21.708ZM85.4977 21.5V12.192H86.9017V17.678L89.7097 14.87H91.4517V14.948L88.8907 17.483L91.5427 21.422V21.5H89.8787L87.9027 18.458L86.9017 19.446V21.5H85.4977ZM94.3697 21.708C93.893 21.708 93.4684 21.6127 93.0957 21.422C92.7317 21.2313 92.4414 20.9713 92.2247 20.642C92.0167 20.304 91.9127 19.9183 91.9127 19.485C91.9127 19.0083 92.034 18.6053 92.2767 18.276C92.528 17.9467 92.8617 17.6953 93.2777 17.522C93.6937 17.3487 94.153 17.262 94.6557 17.262C94.933 17.262 95.1887 17.2837 95.4227 17.327C95.6654 17.3617 95.8734 17.405 96.0467 17.457C96.2287 17.509 96.3717 17.5653 96.4757 17.626V17.275C96.4757 16.8417 96.3197 16.495 96.0077 16.235C95.6957 15.975 95.2927 15.845 94.7987 15.845C94.4607 15.845 94.14 15.923 93.8367 16.079C93.5334 16.2263 93.2907 16.43 93.1087 16.69L92.1467 15.949C92.3374 15.6803 92.567 15.4507 92.8357 15.26C93.113 15.0693 93.4207 14.922 93.7587 14.818C94.1054 14.714 94.465 14.662 94.8377 14.662C95.7997 14.662 96.5407 14.9003 97.0607 15.377C97.5807 15.845 97.8407 16.5037 97.8407 17.353V21.5H96.4757V20.681H96.3977C96.285 20.8543 96.129 21.019 95.9297 21.175C95.739 21.331 95.5094 21.4567 95.2407 21.552C94.9807 21.656 94.6904 21.708 94.3697 21.708ZM94.6167 20.564C94.9807 20.564 95.3014 20.4773 95.5787 20.304C95.8647 20.1307 96.0857 19.9053 96.2417 19.628C96.3977 19.342 96.4757 19.0343 96.4757 18.705C96.285 18.5923 96.051 18.5013 95.7737 18.432C95.505 18.354 95.219 18.315 94.9157 18.315C94.3437 18.315 93.9364 18.4277 93.6937 18.653C93.451 18.8783 93.3297 19.16 93.3297 19.498C93.3297 19.81 93.4467 20.0657 93.6807 20.265C93.9147 20.4643 94.2267 20.564 94.6167 20.564Z" fill="white"/>
<path d="M70.071 41.5V29.328H71.907V36.502L75.579 32.83H77.857V32.932L74.508 36.247L77.976 41.398V41.5H75.8L73.216 37.522L71.907 38.814V41.5H70.071ZM82.2639 41.772C81.1985 41.772 80.3939 41.4547 79.8499 40.82C79.3172 40.174 79.0509 39.3013 79.0509 38.202V32.83H80.8869V37.947C80.8869 38.6723 81.0569 39.2107 81.3969 39.562C81.7482 39.9133 82.1845 40.089 82.7059 40.089C83.1819 40.089 83.5899 39.97 83.9299 39.732C84.2699 39.4827 84.5305 39.1597 84.7119 38.763C84.9045 38.3663 85.0009 37.9413 85.0009 37.488V32.83H86.8199V41.5H85.1029V40.327H85.0009C84.8422 40.599 84.6212 40.8427 84.3379 41.058C84.0545 41.2733 83.7372 41.4433 83.3859 41.568C83.0345 41.704 82.6605 41.772 82.2639 41.772ZM88.9632 37.012V35.448H94.5392V37.012H88.9632ZM102.752 41.772C101.88 41.772 101.058 41.6133 100.287 41.296C99.5166 40.9787 98.8366 40.5367 98.2473 39.97C97.6693 39.392 97.2103 38.7177 96.8703 37.947C96.5416 37.165 96.3773 36.3207 96.3773 35.414C96.3773 34.5073 96.5416 33.6687 96.8703 32.898C97.2103 32.116 97.6693 31.4417 98.2473 30.875C98.8366 30.297 99.5166 29.8493 100.287 29.532C101.058 29.2147 101.88 29.056 102.752 29.056C103.682 29.056 104.537 29.2203 105.319 29.549C106.113 29.8777 106.776 30.3367 107.308 30.926L106.016 32.201C105.756 31.9063 105.455 31.657 105.115 31.453C104.787 31.249 104.424 31.096 104.027 30.994C103.631 30.8807 103.206 30.824 102.752 30.824C102.152 30.824 101.579 30.9317 101.035 31.147C100.491 31.3623 100.01 31.674 99.5903 32.082C99.1823 32.4787 98.8593 32.9603 98.6213 33.527C98.3833 34.0823 98.2643 34.7113 98.2643 35.414C98.2643 36.1167 98.3833 36.7513 98.6213 37.318C98.8706 37.8733 99.1993 38.355 99.6073 38.763C100.027 39.1597 100.508 39.4657 101.052 39.681C101.596 39.8963 102.169 40.004 102.769 40.004C103.325 40.004 103.84 39.9247 104.316 39.766C104.804 39.6073 105.229 39.3807 105.591 39.086C105.954 38.7913 106.249 38.4343 106.475 38.015C106.702 37.5843 106.844 37.1027 106.9 36.57H102.735V34.921H108.651C108.674 35.057 108.697 35.2157 108.719 35.397C108.742 35.567 108.753 35.7313 108.753 35.89V35.907C108.753 36.7797 108.6 37.5787 108.294 38.304C108 39.0293 107.586 39.6527 107.053 40.174C106.521 40.684 105.886 41.0807 105.149 41.364C104.424 41.636 103.625 41.772 102.752 41.772ZM114.227 41.772C113.332 41.772 112.544 41.568 111.864 41.16C111.184 40.752 110.652 40.2023 110.266 39.511C109.881 38.8083 109.688 38.0263 109.688 37.165C109.688 36.3037 109.881 35.5273 110.266 34.836C110.652 34.1333 111.184 33.578 111.864 33.17C112.544 32.762 113.332 32.558 114.227 32.558C115.111 32.558 115.893 32.7677 116.573 33.187C117.253 33.595 117.786 34.1447 118.171 34.836C118.557 35.5273 118.749 36.3037 118.749 37.165C118.749 38.0263 118.557 38.8083 118.171 39.511C117.786 40.2023 117.253 40.752 116.573 41.16C115.893 41.568 115.111 41.772 114.227 41.772ZM114.227 40.089C114.703 40.089 115.145 39.9757 115.553 39.749C115.961 39.511 116.29 39.1767 116.539 38.746C116.8 38.304 116.93 37.777 116.93 37.165C116.93 36.553 116.8 36.0317 116.539 35.601C116.29 35.159 115.961 34.8247 115.553 34.598C115.145 34.36 114.703 34.241 114.227 34.241C113.751 34.241 113.304 34.36 112.884 34.598C112.476 34.8247 112.142 35.159 111.881 35.601C111.632 36.0317 111.507 36.553 111.507 37.165C111.507 37.777 111.632 38.304 111.881 38.746C112.142 39.1767 112.482 39.511 112.901 39.749C113.321 39.9757 113.763 40.089 114.227 40.089ZM124.52 41.772C123.625 41.772 122.837 41.568 122.157 41.16C121.477 40.752 120.944 40.2023 120.559 39.511C120.174 38.8083 119.981 38.0263 119.981 37.165C119.981 36.3037 120.174 35.5273 120.559 34.836C120.944 34.1333 121.477 33.578 122.157 33.17C122.837 32.762 123.625 32.558 124.52 32.558C125.404 32.558 126.186 32.7677 126.866 33.187C127.546 33.595 128.079 34.1447 128.464 34.836C128.849 35.5273 129.042 36.3037 129.042 37.165C129.042 38.0263 128.849 38.8083 128.464 39.511C128.079 40.2023 127.546 40.752 126.866 41.16C126.186 41.568 125.404 41.772 124.52 41.772ZM124.52 40.089C124.996 40.089 125.438 39.9757 125.846 39.749C126.254 39.511 126.583 39.1767 126.832 38.746C127.093 38.304 127.223 37.777 127.223 37.165C127.223 36.553 127.093 36.0317 126.832 35.601C126.583 35.159 126.254 34.8247 125.846 34.598C125.438 34.36 124.996 34.241 124.52 34.241C124.044 34.241 123.596 34.36 123.177 34.598C122.769 34.8247 122.435 35.159 122.174 35.601C121.925 36.0317 121.8 36.553 121.8 37.165C121.8 37.777 121.925 38.304 122.174 38.746C122.435 39.1767 122.775 39.511 123.194 39.749C123.613 39.9757 124.055 40.089 124.52 40.089ZM134.643 45.444C133.884 45.444 133.226 45.3193 132.671 45.07C132.127 44.832 131.685 44.5203 131.345 44.135C131.005 43.761 130.761 43.3757 130.614 42.979L132.314 42.265C132.495 42.7183 132.784 43.0867 133.181 43.37C133.589 43.6647 134.076 43.812 134.643 43.812C135.448 43.812 136.077 43.574 136.53 43.098C136.983 42.622 137.21 41.9477 137.21 41.075V40.242H137.108C136.836 40.6387 136.462 40.9617 135.986 41.211C135.51 41.4603 134.96 41.585 134.337 41.585C133.6 41.585 132.92 41.398 132.297 41.024C131.685 40.65 131.192 40.1287 130.818 39.46C130.455 38.78 130.274 37.9867 130.274 37.08C130.274 36.162 130.455 35.3687 130.818 34.7C131.192 34.02 131.685 33.493 132.297 33.119C132.92 32.745 133.6 32.558 134.337 32.558C134.96 32.558 135.51 32.6827 135.986 32.932C136.462 33.17 136.836 33.4987 137.108 33.918H137.21V32.83H138.961V41.041C138.961 41.9817 138.774 42.7807 138.4 43.438C138.037 44.0953 137.533 44.594 136.887 44.934C136.241 45.274 135.493 45.444 134.643 45.444ZM134.66 39.919C135.113 39.919 135.533 39.8113 135.918 39.596C136.315 39.3693 136.626 39.0463 136.853 38.627C137.091 38.1963 137.21 37.6807 137.21 37.08C137.21 36.4453 137.091 35.9183 136.853 35.499C136.626 35.0797 136.315 34.7623 135.918 34.547C135.533 34.3317 135.113 34.224 134.66 34.224C134.207 34.224 133.782 34.3317 133.385 34.547C133 34.7623 132.688 35.0853 132.45 35.516C132.212 35.9353 132.093 36.4567 132.093 37.08C132.093 37.692 132.212 38.2133 132.45 38.644C132.688 39.0633 133 39.3807 133.385 39.596C133.782 39.8113 134.207 39.919 134.66 39.919ZM141.126 41.5V29.328H142.962V41.5H141.126ZM149.005 41.772C148.155 41.772 147.395 41.5737 146.727 41.177C146.058 40.7803 145.531 40.2363 145.146 39.545C144.772 38.8537 144.585 38.066 144.585 37.182C144.585 36.3547 144.766 35.5897 145.129 34.887C145.491 34.1843 145.996 33.6233 146.642 33.204C147.299 32.7733 148.053 32.558 148.903 32.558C149.798 32.558 150.557 32.7507 151.181 33.136C151.815 33.5213 152.297 34.0483 152.626 34.717C152.954 35.3857 153.119 36.1393 153.119 36.978C153.119 37.1027 153.113 37.216 153.102 37.318C153.102 37.42 153.096 37.4993 153.085 37.556H146.387C146.432 38.032 146.551 38.4457 146.744 38.797C146.993 39.239 147.322 39.5733 147.73 39.8C148.138 40.0267 148.58 40.14 149.056 40.14C149.634 40.14 150.115 40.0097 150.501 39.749C150.897 39.477 151.209 39.1427 151.436 38.746L152.949 39.477C152.575 40.157 152.065 40.7123 151.419 41.143C150.773 41.5623 149.968 41.772 149.005 41.772ZM146.489 36.179H151.3C151.288 35.9637 151.232 35.737 151.13 35.499C151.028 35.2497 150.88 35.023 150.688 34.819C150.495 34.615 150.251 34.4507 149.957 34.326C149.662 34.19 149.316 34.122 148.92 34.122C148.421 34.122 147.979 34.2523 147.594 34.513C147.208 34.7623 146.908 35.1137 146.693 35.567C146.602 35.7597 146.534 35.9637 146.489 36.179ZM160.591 41.5L157.327 29.328H159.401L161.339 37.233L161.543 38.287H161.645L161.9 37.233L164.348 29.328H166.218L168.564 37.233L168.819 38.27H168.921L169.125 37.233L171.063 29.328H173.12L169.907 41.5H167.935L165.606 33.425L165.334 32.286H165.232L164.943 33.425L162.512 41.5H160.591ZM176.534 41.772C175.911 41.772 175.355 41.6473 174.868 41.398C174.392 41.1487 174.012 40.8087 173.729 40.378C173.457 39.936 173.321 39.4317 173.321 38.865C173.321 38.2417 173.48 37.7147 173.797 37.284C174.126 36.8533 174.562 36.5247 175.106 36.298C175.65 36.0713 176.251 35.958 176.908 35.958C177.271 35.958 177.605 35.9863 177.911 36.043C178.228 36.0883 178.5 36.145 178.727 36.213C178.965 36.281 179.152 36.3547 179.288 36.434V35.975C179.288 35.4083 179.084 34.955 178.676 34.615C178.268 34.275 177.741 34.105 177.095 34.105C176.653 34.105 176.234 34.207 175.837 34.411C175.44 34.6037 175.123 34.87 174.885 35.21L173.627 34.241C173.876 33.8897 174.177 33.5893 174.528 33.34C174.891 33.0907 175.293 32.898 175.735 32.762C176.188 32.626 176.659 32.558 177.146 32.558C178.404 32.558 179.373 32.8697 180.053 33.493C180.733 34.105 181.073 34.9663 181.073 36.077V41.5H179.288V40.429H179.186C179.039 40.6557 178.835 40.871 178.574 41.075C178.325 41.279 178.024 41.4433 177.673 41.568C177.333 41.704 176.953 41.772 176.534 41.772ZM176.857 40.276C177.333 40.276 177.752 40.1627 178.115 39.936C178.489 39.7093 178.778 39.4147 178.982 39.052C179.186 38.678 179.288 38.2757 179.288 37.845C179.039 37.6977 178.733 37.5787 178.37 37.488C178.019 37.386 177.645 37.335 177.248 37.335C176.5 37.335 175.967 37.4823 175.65 37.777C175.333 38.0717 175.174 38.44 175.174 38.882C175.174 39.29 175.327 39.6243 175.633 39.885C175.939 40.1457 176.347 40.276 176.857 40.276ZM183.111 41.5V29.328H184.947V41.5H183.111ZM187.129 41.5V29.328H188.965V41.5H187.129ZM195.008 41.772C194.158 41.772 193.398 41.5737 192.73 41.177C192.061 40.7803 191.534 40.2363 191.149 39.545C190.775 38.8537 190.588 38.066 190.588 37.182C190.588 36.3547 190.769 35.5897 191.132 34.887C191.494 34.1843 191.999 33.6233 192.645 33.204C193.302 32.7733 194.056 32.558 194.906 32.558C195.801 32.558 196.56 32.7507 197.184 33.136C197.818 33.5213 198.3 34.0483 198.629 34.717C198.957 35.3857 199.122 36.1393 199.122 36.978C199.122 37.1027 199.116 37.216 199.105 37.318C199.105 37.42 199.099 37.4993 199.088 37.556H192.39C192.435 38.032 192.554 38.4457 192.747 38.797C192.996 39.239 193.325 39.5733 193.733 39.8C194.141 40.0267 194.583 40.14 195.059 40.14C195.637 40.14 196.118 40.0097 196.504 39.749C196.9 39.477 197.212 39.1427 197.439 38.746L198.952 39.477C198.578 40.157 198.068 40.7123 197.422 41.143C196.776 41.5623 195.971 41.772 195.008 41.772ZM192.492 36.179H197.303C197.291 35.9637 197.235 35.737 197.133 35.499C197.031 35.2497 196.883 35.023 196.691 34.819C196.498 34.615 196.254 34.4507 195.96 34.326C195.665 34.19 195.319 34.122 194.923 34.122C194.424 34.122 193.982 34.2523 193.597 34.513C193.211 34.7623 192.911 35.1137 192.696 35.567C192.605 35.7597 192.537 35.9637 192.492 36.179ZM199.981 32.83H201.494V30.382H203.33V32.83H205.455V34.428H203.33V38.593C203.33 39.0237 203.415 39.3523 203.585 39.579C203.766 39.8057 204.067 39.919 204.486 39.919C204.69 39.919 204.871 39.8907 205.03 39.834C205.189 39.766 205.347 39.6867 205.506 39.596V41.381C205.313 41.4603 205.109 41.5227 204.894 41.568C204.679 41.6133 204.424 41.636 204.129 41.636C203.324 41.636 202.684 41.4037 202.208 40.939C201.732 40.463 201.494 39.8113 201.494 38.984V34.428H199.981V32.83Z" fill="white"/>
</svg>
