<svg width="298" height="50" viewBox="0 0 298 50" fill="none" xmlns="http://www.w3.org/2000/svg">
<rect x="0.5" y="0.5" width="297" height="49" rx="24.5" fill="#1F1F1F"/>
<rect x="0.5" y="0.5" width="297" height="49" rx="24.5" stroke="#747775"/>
<path d="M51 22H21V17C21 14.2857 23.2018 12 25.8165 12H46.1835C48.7982 12 51 14.2857 51 17V22Z" fill="#34A853"/>
<path d="M51 26.0537H21V21.0537C21 18.3394 23.2018 16.0537 25.8165 16.0537H46.1835C48.7982 16.0537 51 18.3394 51 21.0537V26.0537Z" fill="#FBBC04"/>
<path d="M51 30.2468H21V25.2468C21 22.5325 23.2018 20.2468 25.8165 20.2468H46.1835C48.7982 20.2468 51 22.5325 51 25.2468V30.2468Z" fill="#EA4335"/>
<path d="M21 23.2752L40.0411 27.6789C42.2329 28.2294 44.6986 27.6789 46.4795 26.3028L51 23V33.3211C51 35.9358 48.8082 38 46.2055 38H25.7945C23.1918 38 21 35.9358 21 33.3211V23.2752Z" fill="#4285F4"/>
<path d="M64.62 32V17.68H69.98C70.7667 17.68 71.48 17.8467 72.12 18.18C72.76 18.5133 73.2667 18.9667 73.64 19.54C74.0267 20.1133 74.22 20.76 74.22 21.48C74.22 22.2133 74.04 22.84 73.68 23.36C73.32 23.88 72.8533 24.2733 72.28 24.54V24.64C73 24.88 73.5867 25.2933 74.04 25.88C74.4933 26.4667 74.72 27.1667 74.72 27.98C74.72 28.78 74.5133 29.48 74.1 30.08C73.7 30.68 73.1533 31.1533 72.46 31.5C71.78 31.8333 71.0333 32 70.22 32H64.62ZM66.82 25.66V29.96H70.22C70.7 29.96 71.1133 29.86 71.46 29.66C71.8067 29.46 72.0667 29.1933 72.24 28.86C72.4267 28.5267 72.52 28.18 72.52 27.82C72.52 27.4333 72.4267 27.08 72.24 26.76C72.0533 26.4267 71.78 26.16 71.42 25.96C71.0733 25.76 70.6467 25.66 70.14 25.66H66.82ZM66.82 23.7H69.88C70.3467 23.7 70.74 23.6067 71.06 23.42C71.3933 23.22 71.6467 22.9667 71.82 22.66C71.9933 22.34 72.08 22.0133 72.08 21.68C72.08 21.3467 71.9933 21.0333 71.82 20.74C71.66 20.4333 71.42 20.1867 71.1 20C70.78 19.8 70.4 19.7 69.96 19.7H66.82V23.7ZM81.4395 32.32C80.4395 32.32 79.5462 32.0867 78.7595 31.62C77.9729 31.1533 77.3529 30.5133 76.8995 29.7C76.4595 28.8867 76.2395 27.96 76.2395 26.92C76.2395 25.9467 76.4529 25.0467 76.8795 24.22C77.3062 23.3933 77.8995 22.7333 78.6595 22.24C79.4329 21.7333 80.3195 21.48 81.3195 21.48C82.3729 21.48 83.2662 21.7067 83.9995 22.16C84.7462 22.6133 85.3129 23.2333 85.6995 24.02C86.0862 24.8067 86.2795 25.6933 86.2795 26.68C86.2795 26.8267 86.2729 26.96 86.2595 27.08C86.2595 27.2 86.2529 27.2933 86.2395 27.36H78.3595C78.4129 27.92 78.5529 28.4067 78.7795 28.82C79.0729 29.34 79.4595 29.7333 79.9395 30C80.4195 30.2667 80.9395 30.4 81.4995 30.4C82.1795 30.4 82.7462 30.2467 83.1995 29.94C83.6662 29.62 84.0329 29.2267 84.2995 28.76L86.0795 29.62C85.6395 30.42 85.0395 31.0733 84.2795 31.58C83.5195 32.0733 82.5729 32.32 81.4395 32.32ZM78.4795 25.74H84.1395C84.1262 25.4867 84.0595 25.22 83.9395 24.94C83.8195 24.6467 83.6462 24.38 83.4195 24.14C83.1929 23.9 82.9062 23.7067 82.5595 23.56C82.2129 23.4 81.8062 23.32 81.3395 23.32C80.7529 23.32 80.2329 23.4733 79.7795 23.78C79.3262 24.0733 78.9729 24.4867 78.7195 25.02C78.6129 25.2467 78.5329 25.4867 78.4795 25.74ZM88.2834 32V17.68H90.4434V26.12L94.7634 21.8H97.4434V21.92L93.5034 25.82L97.5834 31.88V32H95.0234L91.9834 27.32L90.4434 28.84V32H88.2834ZM102.408 35.82C102.368 35.9133 102.321 36.0067 102.268 36.1C102.228 36.2067 102.201 36.28 102.188 36.32H99.888C99.9546 36.1733 100.048 35.9667 100.168 35.7C100.301 35.4333 100.428 35.1667 100.548 34.9C100.628 34.7267 100.708 34.54 100.788 34.34C100.881 34.14 100.975 33.9333 101.068 33.72C101.175 33.5067 101.275 33.3 101.368 33.1L102.128 31.44L97.868 21.8H100.268L103.188 28.76H103.288L106.108 21.8H108.488L103.208 33.96C103.115 34.1867 103.008 34.4267 102.888 34.68C102.781 34.9333 102.681 35.16 102.588 35.36C102.508 35.5733 102.448 35.7267 102.408 35.82ZM109.729 32V17.68H111.889V26.12L116.209 21.8H118.889V21.92L114.949 25.82L119.029 31.88V32H116.469L113.429 27.32L111.889 28.84V32H109.729ZM125.201 32V21.8H127.361V32H125.201ZM126.281 20.3C125.881 20.3 125.535 20.16 125.241 19.88C124.961 19.5867 124.821 19.24 124.821 18.84C124.821 18.4267 124.961 18.0867 125.241 17.82C125.535 17.54 125.881 17.4 126.281 17.4C126.695 17.4 127.041 17.54 127.321 17.82C127.601 18.0867 127.741 18.4267 127.741 18.84C127.741 19.24 127.601 19.5867 127.321 19.88C127.041 20.16 126.695 20.3 126.281 20.3ZM130.041 32V21.8H132.081V23.2H132.201C132.495 22.7067 132.928 22.3 133.501 21.98C134.088 21.6467 134.728 21.48 135.421 21.48C136.675 21.48 137.615 21.8533 138.241 22.6C138.868 23.3333 139.181 24.32 139.181 25.56V32H137.041V25.84C137.041 25.0133 136.835 24.4133 136.421 24.04C136.008 23.6533 135.468 23.46 134.801 23.46C134.281 23.46 133.828 23.6067 133.441 23.9C133.055 24.18 132.748 24.5533 132.521 25.02C132.308 25.4867 132.201 25.9867 132.201 26.52V32H130.041Z" fill="white"/>
<path d="M154.4 32.32C153.373 32.32 152.407 32.1333 151.5 31.76C150.593 31.3867 149.793 30.8667 149.1 30.2C148.42 29.52 147.88 28.7267 147.48 27.82C147.093 26.9 146.9 25.9067 146.9 24.84C146.9 23.7733 147.093 22.7867 147.48 21.88C147.88 20.96 148.42 20.1667 149.1 19.5C149.793 18.82 150.593 18.2933 151.5 17.92C152.407 17.5467 153.373 17.36 154.4 17.36C155.493 17.36 156.5 17.5533 157.42 17.94C158.353 18.3267 159.133 18.8667 159.76 19.56L158.24 21.06C157.933 20.7133 157.58 20.42 157.18 20.18C156.793 19.94 156.367 19.76 155.9 19.64C155.433 19.5067 154.933 19.44 154.4 19.44C153.693 19.44 153.02 19.5667 152.38 19.82C151.74 20.0733 151.173 20.44 150.68 20.92C150.2 21.3867 149.82 21.9533 149.54 22.62C149.26 23.2733 149.12 24.0133 149.12 24.84C149.12 25.6667 149.26 26.4133 149.54 27.08C149.833 27.7333 150.22 28.3 150.7 28.78C151.193 29.2467 151.76 29.6067 152.4 29.86C153.04 30.1133 153.713 30.24 154.42 30.24C155.073 30.24 155.68 30.1467 156.24 29.96C156.813 29.7733 157.313 29.5067 157.74 29.16C158.167 28.8133 158.513 28.3933 158.78 27.9C159.047 27.3933 159.213 26.8267 159.28 26.2H154.38V24.26H161.34C161.367 24.42 161.393 24.6067 161.42 24.82C161.447 25.02 161.46 25.2133 161.46 25.4V25.42C161.46 26.4467 161.28 27.3867 160.92 28.24C160.573 29.0933 160.087 29.8267 159.46 30.44C158.833 31.04 158.087 31.5067 157.22 31.84C156.367 32.16 155.427 32.32 154.4 32.32ZM167.9 32.32C166.847 32.32 165.92 32.08 165.12 31.6C164.32 31.12 163.693 30.4733 163.24 29.66C162.787 28.8333 162.56 27.9133 162.56 26.9C162.56 25.8867 162.787 24.9733 163.24 24.16C163.693 23.3333 164.32 22.68 165.12 22.2C165.92 21.72 166.847 21.48 167.9 21.48C168.94 21.48 169.86 21.7267 170.66 22.22C171.46 22.7 172.087 23.3467 172.54 24.16C172.993 24.9733 173.22 25.8867 173.22 26.9C173.22 27.9133 172.993 28.8333 172.54 29.66C172.087 30.4733 171.46 31.12 170.66 31.6C169.86 32.08 168.94 32.32 167.9 32.32ZM167.9 30.34C168.46 30.34 168.98 30.2067 169.46 29.94C169.94 29.66 170.327 29.2667 170.62 28.76C170.927 28.24 171.08 27.62 171.08 26.9C171.08 26.18 170.927 25.5667 170.62 25.06C170.327 24.54 169.94 24.1467 169.46 23.88C168.98 23.6 168.46 23.46 167.9 23.46C167.34 23.46 166.813 23.6 166.32 23.88C165.84 24.1467 165.447 24.54 165.14 25.06C164.847 25.5667 164.7 26.18 164.7 26.9C164.7 27.62 164.847 28.24 165.14 28.76C165.447 29.2667 165.847 29.66 166.34 29.94C166.833 30.2067 167.353 30.34 167.9 30.34ZM180.009 32.32C178.956 32.32 178.029 32.08 177.229 31.6C176.429 31.12 175.803 30.4733 175.349 29.66C174.896 28.8333 174.669 27.9133 174.669 26.9C174.669 25.8867 174.896 24.9733 175.349 24.16C175.803 23.3333 176.429 22.68 177.229 22.2C178.029 21.72 178.956 21.48 180.009 21.48C181.049 21.48 181.969 21.7267 182.769 22.22C183.569 22.7 184.196 23.3467 184.649 24.16C185.103 24.9733 185.329 25.8867 185.329 26.9C185.329 27.9133 185.103 28.8333 184.649 29.66C184.196 30.4733 183.569 31.12 182.769 31.6C181.969 32.08 181.049 32.32 180.009 32.32ZM180.009 30.34C180.569 30.34 181.089 30.2067 181.569 29.94C182.049 29.66 182.436 29.2667 182.729 28.76C183.036 28.24 183.189 27.62 183.189 26.9C183.189 26.18 183.036 25.5667 182.729 25.06C182.436 24.54 182.049 24.1467 181.569 23.88C181.089 23.6 180.569 23.46 180.009 23.46C179.449 23.46 178.923 23.6 178.429 23.88C177.949 24.1467 177.556 24.54 177.249 25.06C176.956 25.5667 176.809 26.18 176.809 26.9C176.809 27.62 176.956 28.24 177.249 28.76C177.556 29.2667 177.956 29.66 178.449 29.94C178.943 30.2067 179.463 30.34 180.009 30.34ZM191.919 36.64C191.025 36.64 190.252 36.4933 189.599 36.2C188.959 35.92 188.439 35.5533 188.039 35.1C187.639 34.66 187.352 34.2067 187.179 33.74L189.179 32.9C189.392 33.4333 189.732 33.8667 190.199 34.2C190.679 34.5467 191.252 34.72 191.919 34.72C192.865 34.72 193.605 34.44 194.139 33.88C194.672 33.32 194.939 32.5267 194.939 31.5V30.52H194.819C194.499 30.9867 194.059 31.3667 193.499 31.66C192.939 31.9533 192.292 32.1 191.559 32.1C190.692 32.1 189.892 31.88 189.159 31.44C188.439 31 187.859 30.3867 187.419 29.6C186.992 28.8 186.779 27.8667 186.779 26.8C186.779 25.72 186.992 24.7867 187.419 24C187.859 23.2 188.439 22.58 189.159 22.14C189.892 21.7 190.692 21.48 191.559 21.48C192.292 21.48 192.939 21.6267 193.499 21.92C194.059 22.2 194.499 22.5867 194.819 23.08H194.939V21.8H196.999V31.46C196.999 32.5667 196.779 33.5067 196.339 34.28C195.912 35.0533 195.319 35.64 194.559 36.04C193.799 36.44 192.919 36.64 191.919 36.64ZM191.939 30.14C192.472 30.14 192.965 30.0133 193.419 29.76C193.885 29.4933 194.252 29.1133 194.519 28.62C194.799 28.1133 194.939 27.5067 194.939 26.8C194.939 26.0533 194.799 25.4333 194.519 24.94C194.252 24.4467 193.885 24.0733 193.419 23.82C192.965 23.5667 192.472 23.44 191.939 23.44C191.405 23.44 190.905 23.5667 190.439 23.82C189.985 24.0733 189.619 24.4533 189.339 24.96C189.059 25.4533 188.919 26.0667 188.919 26.8C188.919 27.52 189.059 28.1333 189.339 28.64C189.619 29.1333 189.985 29.5067 190.439 29.76C190.905 30.0133 191.405 30.14 191.939 30.14ZM199.546 32V17.68H201.706V32H199.546ZM208.815 32.32C207.815 32.32 206.921 32.0867 206.135 31.62C205.348 31.1533 204.728 30.5133 204.275 29.7C203.835 28.8867 203.615 27.96 203.615 26.92C203.615 25.9467 203.828 25.0467 204.255 24.22C204.681 23.3933 205.275 22.7333 206.035 22.24C206.808 21.7333 207.695 21.48 208.695 21.48C209.748 21.48 210.641 21.7067 211.375 22.16C212.121 22.6133 212.688 23.2333 213.075 24.02C213.461 24.8067 213.655 25.6933 213.655 26.68C213.655 26.8267 213.648 26.96 213.635 27.08C213.635 27.2 213.628 27.2933 213.615 27.36H205.735C205.788 27.92 205.928 28.4067 206.155 28.82C206.448 29.34 206.835 29.7333 207.315 30C207.795 30.2667 208.315 30.4 208.875 30.4C209.555 30.4 210.121 30.2467 210.575 29.94C211.041 29.62 211.408 29.2267 211.675 28.76L213.455 29.62C213.015 30.42 212.415 31.0733 211.655 31.58C210.895 32.0733 209.948 32.32 208.815 32.32ZM205.855 25.74H211.515C211.501 25.4867 211.435 25.22 211.315 24.94C211.195 24.6467 211.021 24.38 210.795 24.14C210.568 23.9 210.281 23.7067 209.935 23.56C209.588 23.4 209.181 23.32 208.715 23.32C208.128 23.32 207.608 23.4733 207.155 23.78C206.701 24.0733 206.348 24.4867 206.095 25.02C205.988 25.2467 205.908 25.4867 205.855 25.74ZM222.446 32L218.606 17.68H221.046L223.326 26.98L223.566 28.22H223.686L223.986 26.98L226.866 17.68H229.066L231.826 26.98L232.126 28.2H232.246L232.486 26.98L234.766 17.68H237.186L233.406 32H231.086L228.346 22.5L228.026 21.16H227.906L227.566 22.5L224.706 32H222.446ZM241.202 32.32C240.469 32.32 239.816 32.1733 239.242 31.88C238.682 31.5867 238.236 31.1867 237.902 30.68C237.582 30.16 237.422 29.5667 237.422 28.9C237.422 28.1667 237.609 27.5467 237.982 27.04C238.369 26.5333 238.882 26.1467 239.522 25.88C240.162 25.6133 240.869 25.48 241.642 25.48C242.069 25.48 242.462 25.5133 242.822 25.58C243.196 25.6333 243.516 25.7 243.782 25.78C244.062 25.86 244.282 25.9467 244.442 26.04V25.5C244.442 24.8333 244.202 24.3 243.722 23.9C243.242 23.5 242.622 23.3 241.862 23.3C241.342 23.3 240.849 23.42 240.382 23.66C239.916 23.8867 239.542 24.2 239.262 24.6L237.782 23.46C238.076 23.0467 238.429 22.6933 238.842 22.4C239.269 22.1067 239.742 21.88 240.262 21.72C240.796 21.56 241.349 21.48 241.922 21.48C243.402 21.48 244.542 21.8467 245.342 22.58C246.142 23.3 246.542 24.3133 246.542 25.62V32H244.442V30.74H244.322C244.149 31.0067 243.909 31.26 243.602 31.5C243.309 31.74 242.956 31.9333 242.542 32.08C242.142 32.24 241.696 32.32 241.202 32.32ZM241.582 30.56C242.142 30.56 242.636 30.4267 243.062 30.16C243.502 29.8933 243.842 29.5467 244.082 29.12C244.322 28.68 244.442 28.2067 244.442 27.7C244.149 27.5267 243.789 27.3867 243.362 27.28C242.949 27.16 242.509 27.1 242.042 27.1C241.162 27.1 240.536 27.2733 240.162 27.62C239.789 27.9667 239.602 28.4 239.602 28.92C239.602 29.4 239.782 29.7933 240.142 30.1C240.502 30.4067 240.982 30.56 241.582 30.56ZM248.94 32V17.68H251.1V32H248.94ZM253.667 32V17.68H255.827V32H253.667ZM262.936 32.32C261.936 32.32 261.042 32.0867 260.256 31.62C259.469 31.1533 258.849 30.5133 258.396 29.7C257.956 28.8867 257.736 27.96 257.736 26.92C257.736 25.9467 257.949 25.0467 258.376 24.22C258.802 23.3933 259.396 22.7333 260.156 22.24C260.929 21.7333 261.816 21.48 262.816 21.48C263.869 21.48 264.762 21.7067 265.496 22.16C266.242 22.6133 266.809 23.2333 267.196 24.02C267.582 24.8067 267.776 25.6933 267.776 26.68C267.776 26.8267 267.769 26.96 267.756 27.08C267.756 27.2 267.749 27.2933 267.736 27.36H259.856C259.909 27.92 260.049 28.4067 260.276 28.82C260.569 29.34 260.956 29.7333 261.436 30C261.916 30.2667 262.436 30.4 262.996 30.4C263.676 30.4 264.242 30.2467 264.696 29.94C265.162 29.62 265.529 29.2267 265.796 28.76L267.576 29.62C267.136 30.42 266.536 31.0733 265.776 31.58C265.016 32.0733 264.069 32.32 262.936 32.32ZM259.976 25.74H265.636C265.622 25.4867 265.556 25.22 265.436 24.94C265.316 24.6467 265.142 24.38 264.916 24.14C264.689 23.9 264.402 23.7067 264.056 23.56C263.709 23.4 263.302 23.32 262.836 23.32C262.249 23.32 261.729 23.4733 261.276 23.78C260.822 24.0733 260.469 24.4867 260.216 25.02C260.109 25.2467 260.029 25.4867 259.976 25.74ZM268.787 21.8H270.567V18.92H272.727V21.8H275.227V23.68H272.727V28.58C272.727 29.0867 272.827 29.4733 273.027 29.74C273.24 30.0067 273.593 30.14 274.087 30.14C274.327 30.14 274.54 30.1067 274.727 30.04C274.913 29.96 275.1 29.8667 275.287 29.76V31.86C275.06 31.9533 274.82 32.0267 274.567 32.08C274.313 32.1333 274.013 32.16 273.667 32.16C272.72 32.16 271.967 31.8867 271.407 31.34C270.847 30.78 270.567 30.0133 270.567 29.04V23.68H268.787V21.8Z" fill="white"/>
</svg>
