<svg width="328" height="50" viewBox="0 0 328 50" fill="none" xmlns="http://www.w3.org/2000/svg">
<rect x="0.5" y="0.5" width="327" height="49" rx="24.5" fill="#1F1F1F"/>
<rect x="0.5" y="0.5" width="327" height="49" rx="24.5" stroke="#747775"/>
<path d="M51 22H21V17C21 14.2857 23.2018 12 25.8165 12H46.1835C48.7982 12 51 14.2857 51 17V22Z" fill="#34A853"/>
<path d="M51 26.0537H21V21.0537C21 18.3394 23.2018 16.0537 25.8165 16.0537H46.1835C48.7982 16.0537 51 18.3394 51 21.0537V26.0537Z" fill="#FBBC04"/>
<path d="M51 30.2468H21V25.2468C21 22.5325 23.2018 20.2468 25.8165 20.2468H46.1835C48.7982 20.2468 51 22.5325 51 25.2468V30.2468Z" fill="#EA4335"/>
<path d="M21 23.2752L40.0411 27.6789C42.2329 28.2294 44.6986 27.6789 46.4795 26.3028L51 23V33.3211C51 35.9358 48.8082 38 46.2055 38H25.7945C23.1918 38 21 35.9358 21 33.3211V23.2752Z" fill="#4285F4"/>
<path d="M67.92 31.94L65.94 32.1C65.7133 32.1133 65.54 32.08 65.42 32C65.3133 31.9333 65.2133 31.78 65.12 31.54C65.04 31.3133 64.96 31.0067 64.88 30.62C64.8133 30.2333 64.7533 29.7333 64.7 29.12C64.6467 28.4933 64.62 27.74 64.62 26.86C64.62 25.3133 64.7267 23.9067 64.94 22.64C65.1667 21.36 65.52 20.2533 66 19.32C66.48 18.3867 67.0933 17.6667 67.84 17.16C68.6 16.6533 69.52 16.4 70.6 16.4C71.9467 16.4 72.92 16.7867 73.52 17.56C74.1333 18.3333 74.44 19.5333 74.44 21.16C74.44 22.1333 74.4133 23.04 74.36 23.88C74.3067 24.7067 74.2533 25.52 74.2 26.32C74.1467 27.12 74.12 27.9667 74.12 28.86C74.12 29.5933 74.1667 30.1667 74.26 30.58C74.3533 30.98 74.4733 31.28 74.62 31.48C74.7667 31.6667 74.9133 31.82 75.06 31.94L73.02 32.1C72.7933 32.1267 72.5933 32.0533 72.42 31.88C72.26 31.7067 72.1333 31.3933 72.04 30.94C71.96 30.4733 71.92 29.8133 71.92 28.96C71.92 28.0667 71.9467 27.2133 72 26.4C72.0667 25.5867 72.1267 24.7667 72.18 23.94C72.2333 23.1133 72.26 22.2533 72.26 21.36C72.26 20.6133 72.1867 20.02 72.04 19.58C71.9067 19.1267 71.7 18.8067 71.42 18.62C71.14 18.42 70.7867 18.32 70.36 18.32C69.7467 18.32 69.2133 18.5333 68.76 18.96C68.32 19.3867 67.9533 19.98 67.66 20.74C67.38 21.5 67.1667 22.4 67.02 23.44C66.8867 24.4667 66.82 25.58 66.82 26.78C66.82 27.8867 66.8667 28.7933 66.96 29.5C67.0667 30.1933 67.2067 30.7333 67.38 31.12C67.5533 31.4933 67.7333 31.7667 67.92 31.94ZM84.8766 32.32C83.8499 32.32 82.8832 32.1333 81.9766 31.76C81.0699 31.3867 80.2699 30.8667 79.5766 30.2C78.8966 29.52 78.3566 28.7267 77.9566 27.82C77.5699 26.9 77.3766 25.9067 77.3766 24.84C77.3766 23.7733 77.5699 22.7867 77.9566 21.88C78.3566 20.96 78.8966 20.1667 79.5766 19.5C80.2699 18.82 81.0699 18.2933 81.9766 17.92C82.8832 17.5467 83.8499 17.36 84.8766 17.36C85.9699 17.36 86.9766 17.5533 87.8966 17.94C88.8299 18.3267 89.6099 18.8667 90.2366 19.56L88.7166 21.06C88.4099 20.7133 88.0566 20.42 87.6566 20.18C87.2699 19.94 86.8432 19.76 86.3766 19.64C85.9099 19.5067 85.4099 19.44 84.8766 19.44C84.1699 19.44 83.4966 19.5667 82.8566 19.82C82.2166 20.0733 81.6499 20.44 81.1566 20.92C80.6766 21.3867 80.2966 21.9533 80.0166 22.62C79.7366 23.2733 79.5966 24.0133 79.5966 24.84C79.5966 25.6667 79.7366 26.4133 80.0166 27.08C80.3099 27.7333 80.6966 28.3 81.1766 28.78C81.6699 29.2467 82.2366 29.6067 82.8766 29.86C83.5166 30.1133 84.1899 30.24 84.8966 30.24C85.5499 30.24 86.1566 30.1467 86.7166 29.96C87.2899 29.7733 87.7899 29.5067 88.2166 29.16C88.6432 28.8133 88.9899 28.3933 89.2566 27.9C89.5232 27.3933 89.6899 26.8267 89.7566 26.2H84.8566V24.26H91.8166C91.8432 24.42 91.8699 24.6067 91.8966 24.82C91.9232 25.02 91.9366 25.2133 91.9366 25.4V25.42C91.9366 26.4467 91.7566 27.3867 91.3966 28.24C91.0499 29.0933 90.5632 29.8267 89.9366 30.44C89.3099 31.04 88.5632 31.5067 87.6966 31.84C86.8432 32.16 85.9032 32.32 84.8766 32.32ZM98.3764 32.32C97.3231 32.32 96.3964 32.08 95.5964 31.6C94.7964 31.12 94.1697 30.4733 93.7164 29.66C93.2631 28.8333 93.0364 27.9133 93.0364 26.9C93.0364 25.8867 93.2631 24.9733 93.7164 24.16C94.1697 23.3333 94.7964 22.68 95.5964 22.2C96.3964 21.72 97.3231 21.48 98.3764 21.48C99.4164 21.48 100.336 21.7267 101.136 22.22C101.936 22.7 102.563 23.3467 103.016 24.16C103.47 24.9733 103.696 25.8867 103.696 26.9C103.696 27.9133 103.47 28.8333 103.016 29.66C102.563 30.4733 101.936 31.12 101.136 31.6C100.336 32.08 99.4164 32.32 98.3764 32.32ZM98.3764 30.34C98.9364 30.34 99.4564 30.2067 99.9364 29.94C100.416 29.66 100.803 29.2667 101.096 28.76C101.403 28.24 101.556 27.62 101.556 26.9C101.556 26.18 101.403 25.5667 101.096 25.06C100.803 24.54 100.416 24.1467 99.9364 23.88C99.4564 23.6 98.9364 23.46 98.3764 23.46C97.8164 23.46 97.2897 23.6 96.7964 23.88C96.3164 24.1467 95.9231 24.54 95.6164 25.06C95.3231 25.5667 95.1764 26.18 95.1764 26.9C95.1764 27.62 95.3231 28.24 95.6164 28.76C95.9231 29.2667 96.3231 29.66 96.8164 29.94C97.3097 30.2067 97.8297 30.34 98.3764 30.34ZM110.486 32.32C109.432 32.32 108.506 32.08 107.706 31.6C106.906 31.12 106.279 30.4733 105.826 29.66C105.372 28.8333 105.146 27.9133 105.146 26.9C105.146 25.8867 105.372 24.9733 105.826 24.16C106.279 23.3333 106.906 22.68 107.706 22.2C108.506 21.72 109.432 21.48 110.486 21.48C111.526 21.48 112.446 21.7267 113.246 22.22C114.046 22.7 114.672 23.3467 115.126 24.16C115.579 24.9733 115.806 25.8867 115.806 26.9C115.806 27.9133 115.579 28.8333 115.126 29.66C114.672 30.4733 114.046 31.12 113.246 31.6C112.446 32.08 111.526 32.32 110.486 32.32ZM110.486 30.34C111.046 30.34 111.566 30.2067 112.046 29.94C112.526 29.66 112.912 29.2667 113.206 28.76C113.512 28.24 113.666 27.62 113.666 26.9C113.666 26.18 113.512 25.5667 113.206 25.06C112.912 24.54 112.526 24.1467 112.046 23.88C111.566 23.6 111.046 23.46 110.486 23.46C109.926 23.46 109.399 23.6 108.906 23.88C108.426 24.1467 108.032 24.54 107.726 25.06C107.432 25.5667 107.286 26.18 107.286 26.9C107.286 27.62 107.432 28.24 107.726 28.76C108.032 29.2667 108.432 29.66 108.926 29.94C109.419 30.2067 109.939 30.34 110.486 30.34ZM122.395 36.64C121.502 36.64 120.728 36.4933 120.075 36.2C119.435 35.92 118.915 35.5533 118.515 35.1C118.115 34.66 117.828 34.2067 117.655 33.74L119.655 32.9C119.868 33.4333 120.208 33.8667 120.675 34.2C121.155 34.5467 121.728 34.72 122.395 34.72C123.342 34.72 124.082 34.44 124.615 33.88C125.148 33.32 125.415 32.5267 125.415 31.5V30.52H125.295C124.975 30.9867 124.535 31.3667 123.975 31.66C123.415 31.9533 122.768 32.1 122.035 32.1C121.168 32.1 120.368 31.88 119.635 31.44C118.915 31 118.335 30.3867 117.895 29.6C117.468 28.8 117.255 27.8667 117.255 26.8C117.255 25.72 117.468 24.7867 117.895 24C118.335 23.2 118.915 22.58 119.635 22.14C120.368 21.7 121.168 21.48 122.035 21.48C122.768 21.48 123.415 21.6267 123.975 21.92C124.535 22.2 124.975 22.5867 125.295 23.08H125.415V21.8H127.475V31.46C127.475 32.5667 127.255 33.5067 126.815 34.28C126.388 35.0533 125.795 35.64 125.035 36.04C124.275 36.44 123.395 36.64 122.395 36.64ZM122.415 30.14C122.948 30.14 123.442 30.0133 123.895 29.76C124.362 29.4933 124.728 29.1133 124.995 28.62C125.275 28.1133 125.415 27.5067 125.415 26.8C125.415 26.0533 125.275 25.4333 124.995 24.94C124.728 24.4467 124.362 24.0733 123.895 23.82C123.442 23.5667 122.948 23.44 122.415 23.44C121.882 23.44 121.382 23.5667 120.915 23.82C120.462 24.0733 120.095 24.4533 119.815 24.96C119.535 25.4533 119.395 26.0667 119.395 26.8C119.395 27.52 119.535 28.1333 119.815 28.64C120.095 29.1333 120.462 29.5067 120.915 29.76C121.382 30.0133 121.882 30.14 122.415 30.14ZM130.022 32V17.68H132.182V32H130.022ZM139.291 32.32C138.291 32.32 137.398 32.0867 136.611 31.62C135.824 31.1533 135.204 30.5133 134.751 29.7C134.311 28.8867 134.091 27.96 134.091 26.92C134.091 25.9467 134.304 25.0467 134.731 24.22C135.158 23.3933 135.751 22.7333 136.511 22.24C137.284 21.7333 138.171 21.48 139.171 21.48C140.224 21.48 141.118 21.7067 141.851 22.16C142.598 22.6133 143.164 23.2333 143.551 24.02C143.938 24.8067 144.131 25.6933 144.131 26.68C144.131 26.8267 144.124 26.96 144.111 27.08C144.111 27.2 144.104 27.2933 144.091 27.36H136.211C136.264 27.92 136.404 28.4067 136.631 28.82C136.924 29.34 137.311 29.7333 137.791 30C138.271 30.2667 138.791 30.4 139.351 30.4C140.031 30.4 140.598 30.2467 141.051 29.94C141.518 29.62 141.884 29.2267 142.151 28.76L143.931 29.62C143.491 30.42 142.891 31.0733 142.131 31.58C141.371 32.0733 140.424 32.32 139.291 32.32ZM136.331 25.74H141.991C141.978 25.4867 141.911 25.22 141.791 24.94C141.671 24.6467 141.498 24.38 141.271 24.14C141.044 23.9 140.758 23.7067 140.411 23.56C140.064 23.4 139.658 23.32 139.191 23.32C138.604 23.32 138.084 23.4733 137.631 23.78C137.178 24.0733 136.824 24.4867 136.571 25.02C136.464 25.2467 136.384 25.4867 136.331 25.74ZM152.922 32L149.082 17.68H151.522L153.802 26.98L154.042 28.22H154.162L154.462 26.98L157.342 17.68H159.542L162.302 26.98L162.602 28.2H162.722L162.962 26.98L165.242 17.68H167.662L163.882 32H161.562L158.822 22.5L158.502 21.16H158.382L158.042 22.5L155.182 32H152.922ZM171.679 32.32C170.945 32.32 170.292 32.1733 169.719 31.88C169.159 31.5867 168.712 31.1867 168.379 30.68C168.059 30.16 167.899 29.5667 167.899 28.9C167.899 28.1667 168.085 27.5467 168.459 27.04C168.845 26.5333 169.359 26.1467 169.999 25.88C170.639 25.6133 171.345 25.48 172.119 25.48C172.545 25.48 172.939 25.5133 173.299 25.58C173.672 25.6333 173.992 25.7 174.259 25.78C174.539 25.86 174.759 25.9467 174.919 26.04V25.5C174.919 24.8333 174.679 24.3 174.199 23.9C173.719 23.5 173.099 23.3 172.339 23.3C171.819 23.3 171.325 23.42 170.859 23.66C170.392 23.8867 170.019 24.2 169.739 24.6L168.259 23.46C168.552 23.0467 168.905 22.6933 169.319 22.4C169.745 22.1067 170.219 21.88 170.739 21.72C171.272 21.56 171.825 21.48 172.399 21.48C173.879 21.48 175.019 21.8467 175.819 22.58C176.619 23.3 177.019 24.3133 177.019 25.62V32H174.919V30.74H174.799C174.625 31.0067 174.385 31.26 174.079 31.5C173.785 31.74 173.432 31.9333 173.019 32.08C172.619 32.24 172.172 32.32 171.679 32.32ZM172.059 30.56C172.619 30.56 173.112 30.4267 173.539 30.16C173.979 29.8933 174.319 29.5467 174.559 29.12C174.799 28.68 174.919 28.2067 174.919 27.7C174.625 27.5267 174.265 27.3867 173.839 27.28C173.425 27.16 172.985 27.1 172.519 27.1C171.639 27.1 171.012 27.2733 170.639 27.62C170.265 27.9667 170.079 28.4 170.079 28.92C170.079 29.4 170.259 29.7933 170.619 30.1C170.979 30.4067 171.459 30.56 172.059 30.56ZM179.417 32V17.68H181.577V32H179.417ZM184.143 32V17.68H186.303V32H184.143ZM193.412 32.32C192.412 32.32 191.519 32.0867 190.732 31.62C189.946 31.1533 189.326 30.5133 188.872 29.7C188.432 28.8867 188.212 27.96 188.212 26.92C188.212 25.9467 188.426 25.0467 188.852 24.22C189.279 23.3933 189.872 22.7333 190.632 22.24C191.406 21.7333 192.292 21.48 193.292 21.48C194.346 21.48 195.239 21.7067 195.972 22.16C196.719 22.6133 197.286 23.2333 197.672 24.02C198.059 24.8067 198.252 25.6933 198.252 26.68C198.252 26.8267 198.246 26.96 198.232 27.08C198.232 27.2 198.226 27.2933 198.212 27.36H190.332C190.386 27.92 190.526 28.4067 190.752 28.82C191.046 29.34 191.432 29.7333 191.912 30C192.392 30.2667 192.912 30.4 193.472 30.4C194.152 30.4 194.719 30.2467 195.172 29.94C195.639 29.62 196.006 29.2267 196.272 28.76L198.052 29.62C197.612 30.42 197.012 31.0733 196.252 31.58C195.492 32.0733 194.546 32.32 193.412 32.32ZM190.452 25.74H196.112C196.099 25.4867 196.032 25.22 195.912 24.94C195.792 24.6467 195.619 24.38 195.392 24.14C195.166 23.9 194.879 23.7067 194.532 23.56C194.186 23.4 193.779 23.32 193.312 23.32C192.726 23.32 192.206 23.4733 191.752 23.78C191.299 24.0733 190.946 24.4867 190.692 25.02C190.586 25.2467 190.506 25.4867 190.452 25.74ZM199.263 21.8H201.043V18.92H203.203V21.8H205.703V23.68H203.203V28.58C203.203 29.0867 203.303 29.4733 203.503 29.74C203.716 30.0067 204.07 30.14 204.563 30.14C204.803 30.14 205.016 30.1067 205.203 30.04C205.39 29.96 205.576 29.8667 205.763 29.76V31.86C205.536 31.9533 205.296 32.0267 205.043 32.08C204.79 32.1333 204.49 32.16 204.143 32.16C203.196 32.16 202.443 31.8867 201.883 31.34C201.323 30.78 201.043 30.0133 201.043 29.04V23.68H199.263V21.8Z" fill="white"/>
<path d="M216.42 30.84C215.74 30.84 215.12 30.7067 214.56 30.44C214.013 30.1733 213.573 29.7067 213.24 29.04C212.92 28.36 212.76 27.4267 212.76 26.24C212.76 24.8133 213.007 23.6 213.5 22.6C214.007 21.6 214.7 20.82 215.58 20.26C216.473 19.6867 217.5 19.3533 218.66 19.26L220.8 19.08V20.04L220.9 20.08C221.007 19.9333 221.153 19.7867 221.34 19.64C221.527 19.48 221.773 19.3467 222.08 19.24C222.4 19.1333 222.78 19.08 223.22 19.08C223.913 19.08 224.52 19.2467 225.04 19.58C225.56 19.9 225.967 20.4267 226.26 21.16C226.487 21.7467 226.627 22.4933 226.68 23.4H228.84C228.853 23.2133 228.88 22.9933 228.92 22.74C228.973 22.4867 229.027 22.3 229.08 22.18H231.22C231.18 22.3533 231.133 22.6267 231.08 23C231.04 23.3733 231.02 23.7933 231.02 24.26C231.02 24.66 231.033 25.0667 231.06 25.48C231.1 25.88 231.153 26.18 231.22 26.38H229.1C229.033 26.2333 228.973 26.0267 228.92 25.76C228.88 25.48 228.86 25.26 228.86 25.1H226.66C226.593 25.98 226.42 26.7533 226.14 27.42C225.78 28.3133 225.24 28.9867 224.52 29.44C223.813 29.8933 222.94 30.12 221.9 30.12C221.433 30.12 221.053 30.08 220.76 30C220.48 29.92 220.267 29.8267 220.12 29.72C219.973 29.6 219.86 29.5 219.78 29.42H219.66C219.54 29.6067 219.347 29.8133 219.08 30.04C218.827 30.2667 218.48 30.46 218.04 30.62C217.613 30.7667 217.073 30.84 216.42 30.84ZM216.7 29C217.073 29 217.407 28.9333 217.7 28.8C217.993 28.6667 218.227 28.4467 218.4 28.14C218.573 27.8333 218.66 27.44 218.66 26.96V21.12C217.927 21.1867 217.28 21.4267 216.72 21.84C216.173 22.24 215.74 22.8 215.42 23.52C215.113 24.2267 214.96 25.0867 214.96 26.1C214.96 27.1933 215.107 27.9533 215.4 28.38C215.707 28.7933 216.14 29 216.7 29ZM221.96 28.28C222.413 28.28 222.827 28.16 223.2 27.92C223.587 27.6667 223.893 27.26 224.12 26.7C224.36 26.14 224.48 25.38 224.48 24.42C224.48 23.5667 224.407 22.8867 224.26 22.38C224.113 21.8733 223.893 21.5067 223.6 21.28C223.32 21.04 222.973 20.92 222.56 20.92C222.067 20.92 221.66 21.0467 221.34 21.3C221.033 21.5533 220.853 21.8933 220.8 22.32V26.82C220.8 27.3267 220.873 27.7 221.02 27.94C221.18 28.1667 221.493 28.28 221.96 28.28ZM236.702 31.94L234.722 32.1C234.482 32.1133 234.302 32.08 234.182 32C234.075 31.9333 233.982 31.78 233.902 31.54C233.782 31.2067 233.669 30.7133 233.562 30.06C233.455 29.4067 233.402 28.62 233.402 27.7C233.402 26.6067 233.509 25.5467 233.722 24.52C233.935 23.48 234.275 22.5467 234.742 21.72C235.209 20.88 235.815 20.22 236.562 19.74C236.869 19.54 237.195 19.38 237.542 19.26L236.842 17.96C236.682 17.6667 236.555 17.4067 236.462 17.18C236.382 16.94 236.342 16.7333 236.342 16.56C236.342 16.4 236.389 16.2667 236.482 16.16C236.589 16.0533 236.742 15.9533 236.942 15.86L238.502 15.28C238.449 15.5067 238.442 15.7667 238.482 16.06C238.522 16.3533 238.642 16.6933 238.842 17.08L239.902 19.02C240.569 19.0867 241.115 19.2533 241.542 19.52C242.102 19.8667 242.502 20.36 242.742 21C242.995 21.64 243.122 22.4133 243.122 23.32C243.122 24.0667 243.095 24.7733 243.042 25.44C242.989 26.0933 242.929 26.7333 242.862 27.36C242.809 27.9733 242.782 28.6 242.782 29.24C242.782 29.8533 242.829 30.34 242.922 30.7C243.029 31.0467 243.155 31.3133 243.302 31.5C243.449 31.6733 243.589 31.82 243.722 31.94L241.702 32.1C241.462 32.1267 241.262 32.06 241.102 31.9C240.942 31.74 240.815 31.4533 240.722 31.04C240.642 30.6267 240.602 30.0667 240.602 29.36C240.602 28.3867 240.655 27.42 240.762 26.46C240.869 25.5 240.922 24.52 240.922 23.52C240.922 22.6667 240.789 22.02 240.522 21.58C240.255 21.14 239.782 20.92 239.102 20.92C238.475 20.92 237.942 21.1133 237.502 21.5C237.062 21.8867 236.695 22.4067 236.402 23.06C236.122 23.7 235.915 24.4133 235.782 25.2C235.649 25.9867 235.582 26.7933 235.582 27.62C235.582 28.4467 235.635 29.1533 235.742 29.74C235.849 30.3133 235.989 30.78 236.162 31.14C236.335 31.5 236.515 31.7667 236.702 31.94ZM245.906 25.9C245.84 25.7533 245.766 25.5067 245.686 25.16C245.606 24.8133 245.566 24.3933 245.566 23.9C245.566 22.7133 245.846 21.7 246.406 20.86C246.966 20.02 247.853 19.38 249.066 18.94C250.28 18.5 251.853 18.28 253.786 18.28V19.04C253.946 18.9467 254.22 18.8467 254.606 18.74C255.006 18.62 255.513 18.56 256.126 18.56C256.953 18.56 257.686 18.7 258.326 18.98C258.966 19.2467 259.466 19.6933 259.826 20.32C260.2 20.9333 260.386 21.7667 260.386 22.82C260.386 23.3133 260.34 23.7533 260.246 24.14C260.153 24.5267 260.06 24.8133 259.966 25L257.786 24.88C257.88 24.6933 257.966 24.4333 258.046 24.1C258.126 23.7533 258.166 23.3667 258.166 22.94C258.166 22.34 258.06 21.8533 257.846 21.48C257.646 21.1067 257.36 20.8333 256.986 20.66C256.613 20.4867 256.193 20.4 255.726 20.4C255.193 20.4 254.766 20.4533 254.446 20.56C254.126 20.6667 253.906 20.7667 253.786 20.86V24.18H255.706V29.82C255.706 30.4067 255.773 30.86 255.906 31.18C256.053 31.4867 256.273 31.7467 256.566 31.96L254.506 32.1C254.24 32.1133 254.033 32.0533 253.886 31.92C253.753 31.7733 253.66 31.5267 253.606 31.18C253.553 30.8333 253.526 30.38 253.526 29.82V25.96H251.606V20.2C250.7 20.28 249.966 20.4733 249.406 20.78C248.846 21.0867 248.433 21.5 248.166 22.02C247.913 22.54 247.786 23.1667 247.786 23.9C247.786 24.22 247.813 24.5267 247.866 24.82C247.933 25.1 248 25.3133 248.066 25.46L245.906 25.9ZM269.545 32.1C269.225 32.14 268.951 32.0667 268.725 31.88C268.511 31.6933 268.405 31.3267 268.405 30.78C268.405 30.0867 268.538 29.32 268.805 28.48C269.071 27.6267 269.418 26.7733 269.845 25.92C270.271 25.0533 270.731 24.2267 271.225 23.44C271.718 22.64 272.178 21.94 272.605 21.34L272.565 21.28H270.585V18.18C270.585 17.78 270.551 17.4467 270.485 17.18C270.431 16.9 270.345 16.6667 270.225 16.48C270.118 16.28 269.965 16.1067 269.765 15.96L271.785 15.82C272.171 15.7933 272.431 15.9533 272.565 16.3C272.698 16.6467 272.765 17.2467 272.765 18.1V19.5H276.325L276.385 19.64C275.945 20.16 275.485 20.7533 275.005 21.42C274.538 22.0733 274.085 22.7533 273.645 23.46L273.685 23.52C274.018 23.4133 274.411 23.3133 274.865 23.22C275.318 23.1267 275.771 23.08 276.225 23.08C276.625 23.08 276.945 23.1667 277.185 23.34C277.438 23.5133 277.645 23.8267 277.805 24.28C277.965 24.72 278.111 25.3467 278.245 26.16L278.945 30.1C279.011 30.5 279.098 30.8267 279.205 31.08C279.311 31.32 279.425 31.5067 279.545 31.64C279.678 31.7733 279.811 31.8733 279.945 31.94L278.105 32.12C277.838 32.1467 277.625 32.12 277.465 32.04C277.305 31.9733 277.171 31.8 277.065 31.52C276.958 31.2267 276.851 30.7667 276.745 30.14L276.065 26.16C275.998 25.7733 275.885 25.4733 275.725 25.26C275.578 25.0333 275.271 24.92 274.805 24.92C274.351 24.92 273.905 24.98 273.465 25.1C273.038 25.2067 272.725 25.3 272.525 25.38C272.365 25.6467 272.178 26 271.965 26.44C271.751 26.8667 271.538 27.3333 271.325 27.84C271.125 28.3467 270.951 28.8533 270.805 29.36C270.671 29.8667 270.605 30.34 270.605 30.78C270.605 31.1533 270.651 31.42 270.745 31.58C270.851 31.74 270.991 31.86 271.165 31.94L269.545 32.1ZM284.314 27.9L282.454 28.06C282.241 28.0733 282.081 28.0467 281.974 27.98C281.881 27.9 281.774 27.76 281.654 27.56C281.534 27.3733 281.414 27.06 281.294 26.62C281.174 26.1667 281.114 25.6267 281.114 25C281.114 24.1867 281.221 23.42 281.434 22.7C281.661 21.98 281.994 21.3467 282.434 20.8C282.874 20.24 283.428 19.8 284.094 19.48C284.454 19.3067 284.848 19.18 285.274 19.1V17.78C285.274 17.18 285.208 16.72 285.074 16.4C284.954 16.0667 284.748 15.78 284.454 15.54L286.474 15.4C286.874 15.3733 287.134 15.5333 287.254 15.88C287.388 16.2267 287.454 16.8267 287.454 17.68V19.06C288.028 19.14 288.508 19.2867 288.894 19.5C289.494 19.8467 289.914 20.34 290.154 20.98C290.408 21.62 290.534 22.4 290.534 23.32C290.534 24.0667 290.508 24.7733 290.454 25.44C290.401 26.0933 290.341 26.7333 290.274 27.36C290.221 27.9733 290.194 28.6 290.194 29.24C290.194 29.8533 290.241 30.34 290.334 30.7C290.441 31.0467 290.568 31.3133 290.714 31.5C290.861 31.6733 291.001 31.82 291.134 31.94L289.114 32.1C288.874 32.1267 288.674 32.06 288.514 31.9C288.354 31.74 288.228 31.4533 288.134 31.04C288.054 30.6267 288.014 30.0667 288.014 29.36C288.014 28.3867 288.068 27.42 288.174 26.46C288.281 25.5 288.334 24.52 288.334 23.52C288.334 22.6667 288.188 22.02 287.894 21.58C287.601 21.14 287.081 20.92 286.334 20.92C285.681 20.92 285.128 21.1 284.674 21.46C284.234 21.8067 283.894 22.2667 283.654 22.84C283.414 23.4133 283.294 24.0533 283.294 24.76C283.294 25.6 283.401 26.2733 283.614 26.78C283.828 27.2867 284.061 27.66 284.314 27.9ZM302.129 31.24C301.195 31.24 300.322 31.04 299.509 30.64C299.189 30.48 298.875 30.3 298.569 30.1C298.329 30.14 298.082 30.1867 297.829 30.24C297.322 30.3467 296.842 30.4667 296.389 30.6C295.949 30.72 295.595 30.8333 295.329 30.94C295.329 31.1933 295.315 31.4867 295.289 31.82C295.275 32.1533 295.255 32.4733 295.229 32.78C295.202 33.0867 295.162 33.3333 295.109 33.52L292.969 33.36C293.035 33.0933 293.075 32.78 293.089 32.42C293.115 32.06 293.129 31.7133 293.129 31.38C293.129 31.1 293.115 30.82 293.089 30.54C293.062 30.2467 293.035 30.0133 293.009 29.84C293.262 29.72 293.609 29.5867 294.049 29.44C294.502 29.28 295.002 29.12 295.549 28.96C296.002 28.8267 296.462 28.7067 296.929 28.6C296.422 28.0267 295.975 27.3867 295.589 26.68C295.122 25.8267 294.762 24.9333 294.509 24C294.255 23.0667 294.129 22.16 294.129 21.28C294.129 20.2667 294.322 19.3667 294.709 18.58C295.095 17.7933 295.655 17.18 296.389 16.74C297.122 16.3 298.015 16.08 299.069 16.08C300.295 16.08 301.195 16.3933 301.769 17.02C302.342 17.6333 302.629 18.4533 302.629 19.48C302.629 20.4933 302.382 21.3267 301.889 21.98C301.395 22.62 300.722 23.1267 299.869 23.5C299.029 23.86 298.075 24.1333 297.009 24.32C297.195 24.8667 297.462 25.44 297.809 26.04C298.155 26.6267 298.562 27.18 299.029 27.7C299.495 28.2067 300.002 28.62 300.549 28.94C301.109 29.2467 301.682 29.4 302.269 29.4C302.935 29.4 303.402 29.2467 303.669 28.94C303.949 28.6333 304.089 28.2067 304.089 27.66C304.089 27.2333 304.029 26.8333 303.909 26.46C303.789 26.0867 303.682 25.82 303.589 25.66L305.769 25.4C305.875 25.5733 305.989 25.8533 306.109 26.24C306.229 26.6267 306.289 27.1 306.289 27.66C306.289 28.0867 306.222 28.5133 306.089 28.94C305.969 29.3667 305.749 29.7533 305.429 30.1C305.122 30.4467 304.702 30.7267 304.169 30.94C303.635 31.14 302.955 31.24 302.129 31.24ZM296.489 22.5C297.422 22.34 298.175 22.1267 298.749 21.86C299.322 21.58 299.742 21.2467 300.009 20.86C300.289 20.46 300.429 20.0133 300.429 19.52C300.429 19.04 300.309 18.6533 300.069 18.36C299.829 18.0667 299.449 17.92 298.929 17.92C298.395 17.92 297.929 18.06 297.529 18.34C297.142 18.62 296.842 19.0067 296.629 19.5C296.429 19.98 296.329 20.5333 296.329 21.16C296.329 21.4667 296.342 21.7333 296.369 21.96C296.409 22.1733 296.449 22.3533 296.489 22.5Z" fill="white"/>
</svg>
