<svg width="303" height="50" viewBox="0 0 303 50" fill="none" xmlns="http://www.w3.org/2000/svg">
<rect x="0.5" y="0.5" width="302" height="49" rx="24.5" fill="#1F1F1F"/>
<rect x="0.5" y="0.5" width="302" height="49" rx="24.5" stroke="#747775"/>
<path d="M51 22H21V17C21 14.2857 23.2018 12 25.8165 12H46.1835C48.7982 12 51 14.2857 51 17V22Z" fill="#34A853"/>
<path d="M51 26.0537H21V21.0537C21 18.3394 23.2018 16.0537 25.8165 16.0537H46.1835C48.7982 16.0537 51 18.3394 51 21.0537V26.0537Z" fill="#FBBC04"/>
<path d="M51 30.2468H21V25.2468C21 22.5325 23.2018 20.2468 25.8165 20.2468H46.1835C48.7982 20.2468 51 22.5325 51 25.2468V30.2468Z" fill="#EA4335"/>
<path d="M21 23.2752L40.0411 27.6789C42.2329 28.2294 44.6986 27.6789 46.4795 26.3028L51 23V33.3211C51 35.9358 48.8082 38 46.2055 38H25.7945C23.1918 38 21 35.9358 21 33.3211V23.2752Z" fill="#4285F4"/>
<path d="M72.2633 32.32C71.2366 32.32 70.2699 32.1333 69.3633 31.76C68.4566 31.3867 67.6566 30.8667 66.9633 30.2C66.2833 29.52 65.7433 28.7267 65.3433 27.82C64.9566 26.9 64.7633 25.9067 64.7633 24.84C64.7633 23.7733 64.9566 22.7867 65.3433 21.88C65.7433 20.96 66.2833 20.1667 66.9633 19.5C67.6566 18.82 68.4566 18.2933 69.3633 17.92C70.2699 17.5467 71.2366 17.36 72.2633 17.36C73.3566 17.36 74.3633 17.5533 75.2833 17.94C76.2166 18.3267 76.9966 18.8667 77.6233 19.56L76.1033 21.06C75.7966 20.7133 75.4433 20.42 75.0433 20.18C74.6566 19.94 74.2299 19.76 73.7633 19.64C73.2966 19.5067 72.7966 19.44 72.2633 19.44C71.5566 19.44 70.8833 19.5667 70.2433 19.82C69.6033 20.0733 69.0366 20.44 68.5433 20.92C68.0633 21.3867 67.6833 21.9533 67.4033 22.62C67.1233 23.2733 66.9833 24.0133 66.9833 24.84C66.9833 25.6667 67.1233 26.4133 67.4033 27.08C67.6966 27.7333 68.0833 28.3 68.5633 28.78C69.0566 29.2467 69.6233 29.6067 70.2633 29.86C70.9033 30.1133 71.5766 30.24 72.2833 30.24C72.9366 30.24 73.5433 30.1467 74.1033 29.96C74.6766 29.7733 75.1766 29.5067 75.6033 29.16C76.0299 28.8133 76.3766 28.3933 76.6433 27.9C76.9099 27.3933 77.0766 26.8267 77.1433 26.2H72.2433V24.26H79.2033C79.2299 24.42 79.2566 24.6067 79.2833 24.82C79.3099 25.02 79.3233 25.2133 79.3233 25.4V25.42C79.3233 26.4467 79.1433 27.3867 78.7833 28.24C78.4366 29.0933 77.9499 29.8267 77.3233 30.44C76.6966 31.04 75.9499 31.5067 75.0833 31.84C74.2299 32.16 73.2899 32.32 72.2633 32.32ZM85.7631 32.32C84.7098 32.32 83.7831 32.08 82.9831 31.6C82.1831 31.12 81.5565 30.4733 81.1031 29.66C80.6498 28.8333 80.4231 27.9133 80.4231 26.9C80.4231 25.8867 80.6498 24.9733 81.1031 24.16C81.5565 23.3333 82.1831 22.68 82.9831 22.2C83.7831 21.72 84.7098 21.48 85.7631 21.48C86.8031 21.48 87.7231 21.7267 88.5231 22.22C89.3231 22.7 89.9498 23.3467 90.4031 24.16C90.8565 24.9733 91.0831 25.8867 91.0831 26.9C91.0831 27.9133 90.8565 28.8333 90.4031 29.66C89.9498 30.4733 89.3231 31.12 88.5231 31.6C87.7231 32.08 86.8031 32.32 85.7631 32.32ZM85.7631 30.34C86.3231 30.34 86.8431 30.2067 87.3231 29.94C87.8031 29.66 88.1898 29.2667 88.4831 28.76C88.7898 28.24 88.9431 27.62 88.9431 26.9C88.9431 26.18 88.7898 25.5667 88.4831 25.06C88.1898 24.54 87.8031 24.1467 87.3231 23.88C86.8431 23.6 86.3231 23.46 85.7631 23.46C85.2031 23.46 84.6765 23.6 84.1831 23.88C83.7031 24.1467 83.3098 24.54 83.0031 25.06C82.7098 25.5667 82.5631 26.18 82.5631 26.9C82.5631 27.62 82.7098 28.24 83.0031 28.76C83.3098 29.2667 83.7098 29.66 84.2031 29.94C84.6965 30.2067 85.2165 30.34 85.7631 30.34ZM97.8725 32.32C96.8192 32.32 95.8925 32.08 95.0925 31.6C94.2925 31.12 93.6658 30.4733 93.2125 29.66C92.7592 28.8333 92.5325 27.9133 92.5325 26.9C92.5325 25.8867 92.7592 24.9733 93.2125 24.16C93.6658 23.3333 94.2925 22.68 95.0925 22.2C95.8925 21.72 96.8192 21.48 97.8725 21.48C98.9125 21.48 99.8325 21.7267 100.633 22.22C101.433 22.7 102.059 23.3467 102.513 24.16C102.966 24.9733 103.193 25.8867 103.193 26.9C103.193 27.9133 102.966 28.8333 102.513 29.66C102.059 30.4733 101.433 31.12 100.633 31.6C99.8325 32.08 98.9125 32.32 97.8725 32.32ZM97.8725 30.34C98.4325 30.34 98.9525 30.2067 99.4325 29.94C99.9125 29.66 100.299 29.2667 100.593 28.76C100.899 28.24 101.053 27.62 101.053 26.9C101.053 26.18 100.899 25.5667 100.593 25.06C100.299 24.54 99.9125 24.1467 99.4325 23.88C98.9525 23.6 98.4325 23.46 97.8725 23.46C97.3125 23.46 96.7858 23.6 96.2925 23.88C95.8125 24.1467 95.4192 24.54 95.1125 25.06C94.8192 25.5667 94.6725 26.18 94.6725 26.9C94.6725 27.62 94.8192 28.24 95.1125 28.76C95.4192 29.2667 95.8192 29.66 96.3125 29.94C96.8058 30.2067 97.3258 30.34 97.8725 30.34ZM109.782 36.64C108.889 36.64 108.115 36.4933 107.462 36.2C106.822 35.92 106.302 35.5533 105.902 35.1C105.502 34.66 105.215 34.2067 105.042 33.74L107.042 32.9C107.255 33.4333 107.595 33.8667 108.062 34.2C108.542 34.5467 109.115 34.72 109.782 34.72C110.729 34.72 111.469 34.44 112.002 33.88C112.535 33.32 112.802 32.5267 112.802 31.5V30.52H112.682C112.362 30.9867 111.922 31.3667 111.362 31.66C110.802 31.9533 110.155 32.1 109.422 32.1C108.555 32.1 107.755 31.88 107.022 31.44C106.302 31 105.722 30.3867 105.282 29.6C104.855 28.8 104.642 27.8667 104.642 26.8C104.642 25.72 104.855 24.7867 105.282 24C105.722 23.2 106.302 22.58 107.022 22.14C107.755 21.7 108.555 21.48 109.422 21.48C110.155 21.48 110.802 21.6267 111.362 21.92C111.922 22.2 112.362 22.5867 112.682 23.08H112.802V21.8H114.862V31.46C114.862 32.5667 114.642 33.5067 114.202 34.28C113.775 35.0533 113.182 35.64 112.422 36.04C111.662 36.44 110.782 36.64 109.782 36.64ZM109.802 30.14C110.335 30.14 110.829 30.0133 111.282 29.76C111.749 29.4933 112.115 29.1133 112.382 28.62C112.662 28.1133 112.802 27.5067 112.802 26.8C112.802 26.0533 112.662 25.4333 112.382 24.94C112.115 24.4467 111.749 24.0733 111.282 23.82C110.829 23.5667 110.335 23.44 109.802 23.44C109.269 23.44 108.769 23.5667 108.302 23.82C107.849 24.0733 107.482 24.4533 107.202 24.96C106.922 25.4533 106.782 26.0667 106.782 26.8C106.782 27.52 106.922 28.1333 107.202 28.64C107.482 29.1333 107.849 29.5067 108.302 29.76C108.769 30.0133 109.269 30.14 109.802 30.14ZM117.409 32V17.68H119.569V32H117.409ZM126.678 32.32C125.678 32.32 124.784 32.0867 123.998 31.62C123.211 31.1533 122.591 30.5133 122.138 29.7C121.698 28.8867 121.478 27.96 121.478 26.92C121.478 25.9467 121.691 25.0467 122.118 24.22C122.544 23.3933 123.138 22.7333 123.898 22.24C124.671 21.7333 125.558 21.48 126.558 21.48C127.611 21.48 128.504 21.7067 129.238 22.16C129.984 22.6133 130.551 23.2333 130.938 24.02C131.324 24.8067 131.518 25.6933 131.518 26.68C131.518 26.8267 131.511 26.96 131.498 27.08C131.498 27.2 131.491 27.2933 131.478 27.36H123.598C123.651 27.92 123.791 28.4067 124.018 28.82C124.311 29.34 124.698 29.7333 125.178 30C125.658 30.2667 126.178 30.4 126.738 30.4C127.418 30.4 127.984 30.2467 128.438 29.94C128.904 29.62 129.271 29.2267 129.538 28.76L131.318 29.62C130.878 30.42 130.278 31.0733 129.518 31.58C128.758 32.0733 127.811 32.32 126.678 32.32ZM123.718 25.74H129.378C129.364 25.4867 129.298 25.22 129.178 24.94C129.058 24.6467 128.884 24.38 128.658 24.14C128.431 23.9 128.144 23.7067 127.798 23.56C127.451 23.4 127.044 23.32 126.578 23.32C125.991 23.32 125.471 23.4733 125.018 23.78C124.564 24.0733 124.211 24.4867 123.958 25.02C123.851 25.2467 123.771 25.4867 123.718 25.74ZM146.65 32.1C145.783 32.1 145.036 31.9533 144.41 31.66C143.796 31.3667 143.363 30.8267 143.11 30.04C142.39 30.2133 141.696 30.2867 141.03 30.26C140.376 30.22 139.783 30.0933 139.25 29.88C138.716 29.6533 138.296 29.3467 137.99 28.96C137.683 28.56 137.53 28.0867 137.53 27.54C137.53 26.82 137.756 26.1667 138.21 25.58C138.663 24.98 139.276 24.4733 140.05 24.06C140.823 23.6467 141.676 23.36 142.61 23.2L142.55 21.68H144.17L144.49 28.28C144.516 28.9067 144.623 29.38 144.81 29.7C145.01 30.0067 145.276 30.2133 145.61 30.32C145.956 30.4133 146.37 30.46 146.85 30.46C147.13 30.46 147.33 30.54 147.45 30.7C147.583 30.8467 147.65 31.0267 147.65 31.24C147.65 31.4533 147.556 31.6533 147.37 31.84C147.183 32.0133 146.943 32.1 146.65 32.1ZM139.11 27.28C139.11 27.5867 139.23 27.84 139.47 28.04C139.723 28.24 140.043 28.3867 140.43 28.48C140.816 28.5733 141.223 28.62 141.65 28.62C142.09 28.62 142.496 28.5867 142.87 28.52L142.69 24.86C141.93 24.94 141.283 25.1133 140.75 25.38C140.216 25.6333 139.81 25.9333 139.53 26.28C139.25 26.6133 139.11 26.9467 139.11 27.28ZM143.21 19.38C142.93 19.38 142.69 19.2867 142.49 19.1C142.303 18.9 142.21 18.6667 142.21 18.4C142.21 18.1333 142.303 17.9 142.49 17.7C142.69 17.5 142.93 17.4 143.21 17.4C143.476 17.4 143.703 17.5 143.89 17.7C144.09 17.9 144.19 18.1333 144.19 18.4C144.19 18.6667 144.09 18.9 143.89 19.1C143.703 19.2867 143.476 19.38 143.21 19.38ZM140.47 19.38C140.19 19.38 139.95 19.2867 139.75 19.1C139.563 18.9 139.47 18.6667 139.47 18.4C139.47 18.1333 139.563 17.9 139.75 17.7C139.95 17.5 140.19 17.4 140.47 17.4C140.736 17.4 140.963 17.5 141.15 17.7C141.35 17.9 141.45 18.1333 141.45 18.4C141.45 18.6667 141.35 18.9 141.15 19.1C140.963 19.2867 140.736 19.38 140.47 19.38ZM146.656 32.1L146.856 30.46H147.856C148.07 30.1267 148.296 29.8 148.536 29.48L148.156 17.72H149.776L150.136 27.6C150.95 26.7733 151.836 26.0733 152.796 25.5C153.77 24.9133 154.756 24.62 155.756 24.62C156.49 24.62 157.116 24.7733 157.636 25.08C158.17 25.3733 158.576 25.7733 158.856 26.28C159.15 26.7867 159.296 27.36 159.296 28C159.296 28.6267 159.07 29.26 158.616 29.9C158.163 30.5267 157.383 31.02 156.276 31.38C155.423 31.66 154.396 31.8533 153.196 31.96C151.996 32.0533 150.516 32.1 148.756 32.1H146.656ZM155.636 26.26C155.063 26.26 154.483 26.4 153.896 26.68C153.323 26.96 152.77 27.32 152.236 27.76C151.703 28.1867 151.216 28.6467 150.776 29.14C150.336 29.62 149.97 30.06 149.676 30.46H151.036C153.356 30.46 155.056 30.26 156.136 29.86C157.216 29.46 157.756 28.8333 157.756 27.98C157.756 27.7533 157.683 27.5067 157.536 27.24C157.39 26.9733 157.156 26.7467 156.836 26.56C156.53 26.36 156.13 26.26 155.636 26.26ZM160.856 32.1C160.51 32.1 160.07 32.0667 159.536 32C159.016 31.92 158.483 31.7867 157.936 31.6C157.403 31.4133 156.95 31.1533 156.576 30.82L158.216 30C158.683 30.1867 159.163 30.3133 159.656 30.38C160.163 30.4333 160.63 30.46 161.056 30.46C161.336 30.46 161.536 30.54 161.656 30.7C161.79 30.8467 161.856 31.0267 161.856 31.24C161.856 31.4533 161.763 31.6533 161.576 31.84C161.39 32.0133 161.15 32.1 160.856 32.1ZM154.776 22.56C154.496 22.56 154.256 22.4667 154.056 22.28C153.87 22.08 153.776 21.8467 153.776 21.58C153.776 21.3133 153.87 21.08 154.056 20.88C154.256 20.68 154.496 20.58 154.776 20.58C155.043 20.58 155.27 20.68 155.456 20.88C155.656 21.08 155.756 21.3133 155.756 21.58C155.756 21.8467 155.656 22.08 155.456 22.28C155.27 22.4667 155.043 22.56 154.776 22.56ZM160.855 32.1L161.055 30.46C161.509 30.46 161.975 30.4533 162.455 30.44C162.949 30.4267 163.422 30.3933 163.875 30.34C163.555 30.0467 163.242 29.6667 162.935 29.2C162.629 28.7333 162.475 28.1667 162.475 27.5C162.475 26.7933 162.642 26.1533 162.975 25.58C163.309 24.9933 163.735 24.5333 164.255 24.2C164.789 23.8667 165.362 23.7 165.975 23.7C166.629 23.7 167.202 23.88 167.695 24.24C168.189 24.6 168.569 25.06 168.835 25.62C169.115 26.1667 169.255 26.74 169.255 27.34C169.255 27.9667 169.129 28.5267 168.875 29.02C168.622 29.5133 168.282 29.9467 167.855 30.32C168.389 30.36 168.935 30.3933 169.495 30.42C170.055 30.4467 170.542 30.46 170.955 30.46C171.235 30.46 171.435 30.54 171.555 30.7C171.689 30.8467 171.755 31.0267 171.755 31.24C171.755 31.4533 171.662 31.6533 171.475 31.84C171.289 32.0133 171.049 32.1 170.755 32.1C169.942 32.1 169.095 32.04 168.215 31.92C167.335 31.7867 166.562 31.6267 165.895 31.44C165.682 31.52 165.462 31.5933 165.235 31.66C164.622 31.8333 163.922 31.9467 163.135 32C162.349 32.0667 161.589 32.1 160.855 32.1ZM164.115 27.54C164.115 28.06 164.275 28.52 164.595 28.92C164.915 29.3067 165.275 29.62 165.675 29.86C166.222 29.62 166.682 29.3 167.055 28.9C167.429 28.5 167.615 28.02 167.615 27.46C167.615 27.1533 167.542 26.84 167.395 26.52C167.249 26.1867 167.049 25.9067 166.795 25.68C166.542 25.4533 166.249 25.34 165.915 25.34C165.595 25.34 165.295 25.4533 165.015 25.68C164.749 25.8933 164.529 26.1667 164.355 26.5C164.195 26.8333 164.115 27.18 164.115 27.54ZM165.795 21.64C165.515 21.64 165.275 21.5467 165.075 21.36C164.889 21.16 164.795 20.9267 164.795 20.66C164.795 20.3933 164.889 20.16 165.075 19.96C165.275 19.76 165.515 19.66 165.795 19.66C166.062 19.66 166.289 19.76 166.475 19.96C166.675 20.16 166.775 20.3933 166.775 20.66C166.775 20.9267 166.675 21.16 166.475 21.36C166.289 21.5467 166.062 21.64 165.795 21.64ZM170.758 32.1L170.938 30.46C172.311 30.46 173.644 30.26 174.938 29.86C176.231 29.4467 177.411 28.8667 178.478 28.12C177.958 27.6667 177.318 27.3 176.558 27.02C175.811 26.74 174.984 26.6 174.078 26.6C173.744 26.6 173.451 26.62 173.198 26.66C172.944 26.6867 172.638 26.74 172.278 26.82L171.958 25.3C172.704 25.0733 173.411 24.96 174.078 24.96C174.771 24.96 175.398 25.0467 175.958 25.22C176.518 25.38 177.024 25.58 177.478 25.82C177.944 26.06 178.378 26.3 178.778 26.54C179.191 26.78 179.591 26.9867 179.978 27.16C180.364 27.32 180.764 27.4 181.178 27.4H181.598L181.738 28.84C181.324 28.84 180.924 28.8867 180.538 28.98C180.791 29.58 181.151 29.98 181.618 30.18C182.084 30.3667 182.778 30.46 183.698 30.46C183.978 30.46 184.178 30.54 184.298 30.7C184.431 30.8467 184.498 31.0267 184.498 31.24C184.498 31.4533 184.404 31.6533 184.218 31.84C184.031 32.0133 183.791 32.1 183.498 32.1C182.778 32.1 182.131 32.04 181.558 31.92C180.998 31.7867 180.518 31.5333 180.118 31.16C179.718 30.7733 179.424 30.2 179.238 29.44C178.731 29.68 178.211 29.9533 177.678 30.26C177.158 30.5533 176.578 30.84 175.938 31.12C175.298 31.4 174.558 31.6333 173.718 31.82C172.878 32.0067 171.891 32.1 170.758 32.1ZM183.492 32.1L183.692 30.46C184.066 30.46 184.379 30.38 184.632 30.22C184.886 30.06 185.132 29.8 185.372 29.44C185.612 29.0667 185.872 28.56 186.152 27.92C186.539 27.0667 186.919 26.42 187.292 25.98C187.679 25.54 188.059 25.24 188.432 25.08C188.819 24.92 189.199 24.84 189.572 24.84C190.026 24.84 190.446 24.96 190.832 25.2C191.219 25.4267 191.559 25.7333 191.852 26.12C192.146 26.5067 192.372 26.9333 192.532 27.4C192.706 27.8533 192.792 28.3067 192.792 28.76C192.792 29.56 192.652 30.2 192.372 30.68C192.092 31.1467 191.732 31.4867 191.292 31.7C190.866 31.9 190.419 32 189.952 32C189.566 32 189.072 31.9333 188.472 31.8C187.886 31.6667 187.146 31.32 186.252 30.76C185.826 31.3733 185.399 31.7533 184.972 31.9C184.546 32.0333 184.052 32.1 183.492 32.1ZM187.232 28.98C187.152 29.1533 187.079 29.32 187.012 29.48C187.586 29.8133 188.106 30.0467 188.572 30.18C189.052 30.3 189.452 30.36 189.772 30.36C190.346 30.36 190.752 30.2333 190.992 29.98C191.232 29.7267 191.352 29.3933 191.352 28.98C191.352 28.5933 191.259 28.2067 191.072 27.82C190.886 27.4333 190.646 27.1133 190.352 26.86C190.072 26.6067 189.772 26.48 189.452 26.48C189.212 26.48 188.979 26.5467 188.752 26.68C188.526 26.8133 188.292 27.06 188.052 27.42C187.812 27.78 187.539 28.3 187.232 28.98Z" fill="white"/>
<path d="M199.827 32.02C199.827 31.54 199.893 31.0067 200.027 30.42C200.16 29.8333 200.373 29.1867 200.667 28.48L202.107 29.04C201.893 29.6 201.733 30.1133 201.627 30.58C201.52 31.0467 201.467 31.48 201.467 31.88C201.467 32.6267 201.68 33.2267 202.107 33.68C202.547 34.1467 203.12 34.4867 203.827 34.7C204.547 34.9133 205.333 35.02 206.187 35.02C207.213 35.02 208.147 34.9 208.987 34.66C209.84 34.4333 210.52 34.12 211.027 33.72C211.533 33.32 211.787 32.88 211.787 32.4C211.787 32.0533 211.52 31.7533 210.987 31.5C210.453 31.2467 209.707 30.9867 208.747 30.72L209.127 29.06C210.5 29.6067 211.573 29.98 212.347 30.18C213.133 30.3667 213.733 30.46 214.147 30.46C214.427 30.46 214.627 30.54 214.747 30.7C214.88 30.8467 214.947 31.0267 214.947 31.24C214.947 31.4533 214.853 31.6533 214.667 31.84C214.48 32.0133 214.24 32.1 213.947 32.1H213.207C213.22 32.22 213.233 32.3133 213.247 32.38C213.273 32.46 213.287 32.56 213.287 32.68C213.287 33.3333 212.987 33.96 212.387 34.56C211.787 35.1733 210.92 35.6733 209.787 36.06C208.667 36.4467 207.32 36.64 205.747 36.64C204.68 36.64 203.7 36.4733 202.807 36.14C201.913 35.8067 201.193 35.2933 200.647 34.6C200.1 33.92 199.827 33.06 199.827 32.02ZM207.187 40.42C206.907 40.42 206.667 40.32 206.467 40.12C206.28 39.9333 206.187 39.7067 206.187 39.44C206.187 39.1733 206.28 38.94 206.467 38.74C206.667 38.54 206.907 38.44 207.187 38.44C207.453 38.44 207.68 38.54 207.867 38.74C208.067 38.94 208.167 39.1733 208.167 39.44C208.167 39.7067 208.067 39.9333 207.867 40.12C207.68 40.32 207.453 40.42 207.187 40.42ZM204.447 40.42C204.167 40.42 203.927 40.32 203.727 40.12C203.54 39.9333 203.447 39.7067 203.447 39.44C203.447 39.1733 203.54 38.94 203.727 38.74C203.927 38.54 204.167 38.44 204.447 38.44C204.713 38.44 204.94 38.54 205.127 38.74C205.327 38.94 205.427 39.1733 205.427 39.44C205.427 39.7067 205.327 39.9333 205.127 40.12C204.94 40.32 204.713 40.42 204.447 40.42ZM213.953 32.1L214.153 30.46C214.593 30.46 215.093 30.46 215.653 30.46C216.226 30.4467 216.78 30.42 217.313 30.38C217.846 30.3267 218.266 30.2467 218.573 30.14C219 29.9933 219.34 29.8067 219.593 29.58C219.86 29.34 220.06 29.0333 220.193 28.66C219.953 28.74 219.693 28.8 219.413 28.84C219.146 28.8667 218.88 28.88 218.613 28.88C217.586 28.88 216.8 28.64 216.253 28.16C215.706 27.68 215.433 27.0733 215.433 26.34C215.433 25.8333 215.513 25.3267 215.673 24.82C215.833 24.3 216.06 23.8267 216.353 23.4C216.646 22.9733 217 22.6333 217.413 22.38C217.826 22.1133 218.286 21.98 218.793 21.98C219.513 21.98 220.106 22.22 220.573 22.7C221.053 23.1667 221.406 23.7733 221.633 24.52C221.873 25.2667 221.993 26.06 221.993 26.9C221.993 27.9 221.82 28.76 221.473 29.48C221.14 30.1867 220.58 30.7733 219.793 31.24C219.38 31.48 218.86 31.6667 218.233 31.8C217.62 31.92 216.946 32 216.213 32.04C215.48 32.08 214.726 32.1 213.953 32.1ZM217.013 25.94C217.013 26.3533 217.146 26.6867 217.413 26.94C217.68 27.18 218.14 27.3 218.793 27.3C219.366 27.3 219.913 27.22 220.433 27.06C220.433 26.98 220.433 26.8867 220.433 26.78C220.433 26.2333 220.36 25.72 220.213 25.24C220.066 24.7467 219.86 24.3533 219.593 24.06C219.326 23.7667 219.006 23.62 218.633 23.62C218.313 23.62 218.033 23.74 217.793 23.98C217.553 24.2067 217.36 24.5 217.213 24.86C217.08 25.22 217.013 25.58 217.013 25.94ZM218.413 19.92C218.133 19.92 217.893 19.8267 217.693 19.64C217.506 19.44 217.413 19.2067 217.413 18.94C217.413 18.6733 217.506 18.44 217.693 18.24C217.893 18.04 218.133 17.94 218.413 17.94C218.68 17.94 218.906 18.04 219.093 18.24C219.293 18.44 219.393 18.6733 219.393 18.94C219.393 19.2067 219.293 19.44 219.093 19.64C218.906 19.8267 218.68 19.92 218.413 19.92ZM233.826 36.64C232.826 36.64 231.893 36.4533 231.026 36.08C230.173 35.72 229.48 35.1933 228.946 34.5C228.426 33.82 228.166 32.9933 228.166 32.02C228.166 31.54 228.233 31.0067 228.366 30.42C228.5 29.8333 228.713 29.1867 229.006 28.48L230.446 29.04C230.233 29.6 230.073 30.1133 229.966 30.58C229.86 31.0467 229.806 31.48 229.806 31.88C229.806 32.56 229.986 33.1333 230.346 33.6C230.72 34.0667 231.213 34.4133 231.826 34.64C232.453 34.88 233.14 35 233.886 35C235.1 35 236.046 34.8067 236.726 34.42C237.42 34.0333 237.906 33.5333 238.186 32.92C238.48 32.3067 238.626 31.6733 238.626 31.02C238.626 30.3667 238.526 29.6933 238.326 29C238.14 28.2933 237.933 27.5467 237.706 26.76L239.326 26.32C239.54 27.08 239.68 27.6333 239.746 27.98C239.826 28.3267 239.906 28.6 239.986 28.8C240.24 29.44 240.733 29.8933 241.466 30.16C241.906 29.5067 242.413 28.8467 242.986 28.18C243.573 27.5133 244.206 26.9067 244.886 26.36C245.566 25.8 246.273 25.3533 247.006 25.02C247.74 24.6867 248.486 24.52 249.246 24.52C249.966 24.52 250.593 24.6733 251.126 24.98C251.66 25.2733 252.066 25.6733 252.346 26.18C252.64 26.6867 252.786 27.26 252.786 27.9C252.786 28.6867 252.553 29.4133 252.086 30.08C251.633 30.7333 250.86 31.26 249.766 31.66C248.673 32.06 247.186 32.26 245.306 32.26C244.026 32.26 242.98 32.16 242.166 31.96C241.353 31.76 240.733 31.5133 240.306 31.22C240.24 31.86 240.093 32.4933 239.866 33.12C239.64 33.76 239.286 34.3467 238.806 34.88C238.34 35.4133 237.7 35.84 236.886 36.16C236.086 36.48 235.066 36.64 233.826 36.64ZM249.126 26.16C248.526 26.16 247.926 26.3067 247.326 26.6C246.74 26.8933 246.173 27.2733 245.626 27.74C245.093 28.1933 244.6 28.6667 244.146 29.16C243.706 29.6533 243.34 30.1 243.046 30.5C243.406 30.54 243.8 30.5733 244.226 30.6C244.666 30.6133 245.146 30.62 245.666 30.62C247.426 30.62 248.793 30.4067 249.766 29.98C250.753 29.54 251.246 28.9 251.246 28.06C251.246 27.78 251.173 27.4933 251.026 27.2C250.88 26.9067 250.653 26.66 250.346 26.46C250.04 26.26 249.633 26.16 249.126 26.16ZM248.666 22.46C248.386 22.46 248.146 22.3667 247.946 22.18C247.76 21.98 247.666 21.7467 247.666 21.48C247.666 21.2133 247.76 20.98 247.946 20.78C248.146 20.58 248.386 20.48 248.666 20.48C248.933 20.48 249.16 20.58 249.346 20.78C249.546 20.98 249.646 21.2133 249.646 21.48C249.646 21.7467 249.546 21.98 249.346 22.18C249.16 22.3667 248.933 22.46 248.666 22.46ZM253.76 36.64L253.18 35.12C254.473 34.6933 255.48 34.1867 256.2 33.6C256.933 33.0133 257.446 32.4 257.74 31.76C258.046 31.1067 258.2 30.4733 258.2 29.86C258.2 29.2067 258.053 28.5467 257.76 27.88C257.48 27.2 257.166 26.56 256.82 25.96L258.28 25.22C258.653 25.9267 258.966 26.6067 259.22 27.26C259.486 27.9133 259.693 28.4867 259.84 28.98C260.026 29.5533 260.266 29.9467 260.56 30.16C260.866 30.36 261.28 30.46 261.8 30.46C262.08 30.46 262.28 30.54 262.4 30.7C262.533 30.8467 262.6 31.0267 262.6 31.24C262.6 31.4533 262.506 31.6533 262.32 31.84C262.133 32.0133 261.893 32.1 261.6 32.1C261.093 32.1 260.666 32.02 260.32 31.86C259.986 31.7 259.713 31.4867 259.5 31.22C259.366 31.9667 259.086 32.6467 258.66 33.26C258.233 33.8733 257.733 34.4067 257.16 34.86C256.586 35.3267 256 35.7067 255.4 36C254.8 36.2933 254.253 36.5067 253.76 36.64ZM261.609 32.1L261.809 30.46C262.516 30.46 263.189 30.4 263.829 30.28C264.469 30.16 265.063 29.9933 265.609 29.78C265.289 29.4067 264.929 29.0267 264.529 28.64C264.129 28.2533 263.689 27.8867 263.209 27.54C263.129 27.4733 263.049 27.3533 262.969 27.18C262.889 27.0067 262.823 26.8267 262.769 26.64C262.716 26.4533 262.689 26.3133 262.689 26.22C262.689 26.02 262.816 25.78 263.069 25.5C263.323 25.22 263.663 24.9533 264.089 24.7C264.516 24.4333 265.003 24.2133 265.549 24.04C266.096 23.8667 266.663 23.78 267.249 23.78C268.009 23.78 268.623 23.8933 269.089 24.12C269.569 24.3467 269.916 24.64 270.129 25C270.356 25.3467 270.469 25.72 270.469 26.12C270.469 26.7733 270.283 27.4267 269.909 28.08C269.536 28.72 269.023 29.3067 268.369 29.84C268.943 30.0533 269.563 30.2133 270.229 30.32C270.896 30.4133 271.563 30.46 272.229 30.46C272.509 30.46 272.709 30.54 272.829 30.7C272.963 30.8467 273.029 31.0267 273.029 31.24C273.029 31.4533 272.936 31.6533 272.749 31.84C272.563 32.0133 272.323 32.1 272.029 32.1C271.149 32.1 270.243 32 269.309 31.8C268.389 31.5867 267.569 31.2667 266.849 30.84C266.116 31.2267 265.303 31.5333 264.409 31.76C263.529 31.9867 262.596 32.1 261.609 32.1ZM264.129 26.32C264.636 26.7467 265.109 27.1667 265.549 27.58C266.003 27.98 266.503 28.4733 267.049 29.06C267.623 28.6867 268.069 28.2867 268.389 27.86C268.723 27.42 268.889 26.9867 268.889 26.56C268.889 26.2933 268.743 26.0333 268.449 25.78C268.169 25.5267 267.669 25.4 266.949 25.4C266.496 25.4 265.989 25.4867 265.429 25.66C264.883 25.8333 264.449 26.0533 264.129 26.32ZM272.039 32.1L272.219 30.46C272.979 30.46 273.512 30.3867 273.819 30.24C274.126 30.0933 274.299 29.84 274.339 29.48C274.392 29.1067 274.406 28.58 274.379 27.9L273.999 17.72H275.619L276.019 27.72C276.059 28.6667 275.992 29.4667 275.819 30.12C275.659 30.7733 275.286 31.2667 274.699 31.6C274.126 31.9333 273.239 32.1 272.039 32.1ZM279.074 32L278.674 17.72H280.294L280.694 32H279.074Z" fill="white"/>
</svg>
