<svg width="309" height="50" viewBox="0 0 309 50" fill="none" xmlns="http://www.w3.org/2000/svg">
<rect x="0.5" y="0.5" width="308" height="49" rx="24.5" fill="#1F1F1F"/>
<rect x="0.5" y="0.5" width="308" height="49" rx="24.5" stroke="#747775"/>
<path d="M51 22H21V17C21 14.2857 23.2018 12 25.8165 12H46.1835C48.7982 12 51 14.2857 51 17V22Z" fill="#34A853"/>
<path d="M51 26.0537H21V21.0537C21 18.3394 23.2018 16.0537 25.8165 16.0537H46.1835C48.7982 16.0537 51 18.3394 51 21.0537V26.0537Z" fill="#FBBC04"/>
<path d="M51 30.2468H21V25.2468C21 22.5325 23.2018 20.2468 25.8165 20.2468H46.1835C48.7982 20.2468 51 22.5325 51 25.2468V30.2468Z" fill="#EA4335"/>
<path d="M21 23.2752L40.0411 27.6789C42.2329 28.2294 44.6986 27.6789 46.4795 26.3028L51 23V33.3211C51 35.9358 48.8082 38 46.2055 38H25.7945C23.1918 38 21 35.9358 21 33.3211V23.2752Z" fill="#4285F4"/>
<path d="M76.4 32.32C75.3733 32.32 74.4067 32.1333 73.5 31.76C72.5933 31.3867 71.7933 30.8667 71.1 30.2C70.42 29.52 69.88 28.7267 69.48 27.82C69.0933 26.9 68.9 25.9067 68.9 24.84C68.9 23.7733 69.0933 22.7867 69.48 21.88C69.88 20.96 70.42 20.1667 71.1 19.5C71.7933 18.82 72.5933 18.2933 73.5 17.92C74.4067 17.5467 75.3733 17.36 76.4 17.36C77.4933 17.36 78.5 17.5533 79.42 17.94C80.3533 18.3267 81.1333 18.8667 81.76 19.56L80.24 21.06C79.9333 20.7133 79.58 20.42 79.18 20.18C78.7933 19.94 78.3667 19.76 77.9 19.64C77.4333 19.5067 76.9333 19.44 76.4 19.44C75.6933 19.44 75.02 19.5667 74.38 19.82C73.74 20.0733 73.1733 20.44 72.68 20.92C72.2 21.3867 71.82 21.9533 71.54 22.62C71.26 23.2733 71.12 24.0133 71.12 24.84C71.12 25.6667 71.26 26.4133 71.54 27.08C71.8333 27.7333 72.22 28.3 72.7 28.78C73.1933 29.2467 73.76 29.6067 74.4 29.86C75.04 30.1133 75.7133 30.24 76.42 30.24C77.0733 30.24 77.68 30.1467 78.24 29.96C78.8133 29.7733 79.3133 29.5067 79.74 29.16C80.1667 28.8133 80.5133 28.3933 80.78 27.9C81.0467 27.3933 81.2133 26.8267 81.28 26.2H76.38V24.26H83.34C83.3667 24.42 83.3933 24.6067 83.42 24.82C83.4467 25.02 83.46 25.2133 83.46 25.4V25.42C83.46 26.4467 83.28 27.3867 82.92 28.24C82.5733 29.0933 82.0867 29.8267 81.46 30.44C80.8333 31.04 80.0867 31.5067 79.22 31.84C78.3667 32.16 77.4267 32.32 76.4 32.32ZM89.8998 32.32C88.8465 32.32 87.9198 32.08 87.1198 31.6C86.3198 31.12 85.6932 30.4733 85.2398 29.66C84.7865 28.8333 84.5598 27.9133 84.5598 26.9C84.5598 25.8867 84.7865 24.9733 85.2398 24.16C85.6932 23.3333 86.3198 22.68 87.1198 22.2C87.9198 21.72 88.8465 21.48 89.8998 21.48C90.9398 21.48 91.8598 21.7267 92.6598 22.22C93.4598 22.7 94.0865 23.3467 94.5398 24.16C94.9932 24.9733 95.2198 25.8867 95.2198 26.9C95.2198 27.9133 94.9932 28.8333 94.5398 29.66C94.0865 30.4733 93.4598 31.12 92.6598 31.6C91.8598 32.08 90.9398 32.32 89.8998 32.32ZM89.8998 30.34C90.4598 30.34 90.9798 30.2067 91.4598 29.94C91.9398 29.66 92.3265 29.2667 92.6198 28.76C92.9265 28.24 93.0798 27.62 93.0798 26.9C93.0798 26.18 92.9265 25.5667 92.6198 25.06C92.3265 24.54 91.9398 24.1467 91.4598 23.88C90.9798 23.6 90.4598 23.46 89.8998 23.46C89.3398 23.46 88.8132 23.6 88.3198 23.88C87.8398 24.1467 87.4465 24.54 87.1398 25.06C86.8465 25.5667 86.6998 26.18 86.6998 26.9C86.6998 27.62 86.8465 28.24 87.1398 28.76C87.4465 29.2667 87.8465 29.66 88.3398 29.94C88.8332 30.2067 89.3532 30.34 89.8998 30.34ZM102.009 32.32C100.956 32.32 100.029 32.08 99.2292 31.6C98.4292 31.12 97.8026 30.4733 97.3492 29.66C96.8959 28.8333 96.6692 27.9133 96.6692 26.9C96.6692 25.8867 96.8959 24.9733 97.3492 24.16C97.8026 23.3333 98.4292 22.68 99.2292 22.2C100.029 21.72 100.956 21.48 102.009 21.48C103.049 21.48 103.969 21.7267 104.769 22.22C105.569 22.7 106.196 23.3467 106.649 24.16C107.103 24.9733 107.329 25.8867 107.329 26.9C107.329 27.9133 107.103 28.8333 106.649 29.66C106.196 30.4733 105.569 31.12 104.769 31.6C103.969 32.08 103.049 32.32 102.009 32.32ZM102.009 30.34C102.569 30.34 103.089 30.2067 103.569 29.94C104.049 29.66 104.436 29.2667 104.729 28.76C105.036 28.24 105.189 27.62 105.189 26.9C105.189 26.18 105.036 25.5667 104.729 25.06C104.436 24.54 104.049 24.1467 103.569 23.88C103.089 23.6 102.569 23.46 102.009 23.46C101.449 23.46 100.923 23.6 100.429 23.88C99.9492 24.1467 99.5559 24.54 99.2492 25.06C98.9559 25.5667 98.8092 26.18 98.8092 26.9C98.8092 27.62 98.9559 28.24 99.2492 28.76C99.5559 29.2667 99.9559 29.66 100.449 29.94C100.943 30.2067 101.463 30.34 102.009 30.34ZM113.919 36.64C113.025 36.64 112.252 36.4933 111.599 36.2C110.959 35.92 110.439 35.5533 110.039 35.1C109.639 34.66 109.352 34.2067 109.179 33.74L111.179 32.9C111.392 33.4333 111.732 33.8667 112.199 34.2C112.679 34.5467 113.252 34.72 113.919 34.72C114.865 34.72 115.605 34.44 116.139 33.88C116.672 33.32 116.939 32.5267 116.939 31.5V30.52H116.819C116.499 30.9867 116.059 31.3667 115.499 31.66C114.939 31.9533 114.292 32.1 113.559 32.1C112.692 32.1 111.892 31.88 111.159 31.44C110.439 31 109.859 30.3867 109.419 29.6C108.992 28.8 108.779 27.8667 108.779 26.8C108.779 25.72 108.992 24.7867 109.419 24C109.859 23.2 110.439 22.58 111.159 22.14C111.892 21.7 112.692 21.48 113.559 21.48C114.292 21.48 114.939 21.6267 115.499 21.92C116.059 22.2 116.499 22.5867 116.819 23.08H116.939V21.8H118.999V31.46C118.999 32.5667 118.779 33.5067 118.339 34.28C117.912 35.0533 117.319 35.64 116.559 36.04C115.799 36.44 114.919 36.64 113.919 36.64ZM113.939 30.14C114.472 30.14 114.965 30.0133 115.419 29.76C115.885 29.4933 116.252 29.1133 116.519 28.62C116.799 28.1133 116.939 27.5067 116.939 26.8C116.939 26.0533 116.799 25.4333 116.519 24.94C116.252 24.4467 115.885 24.0733 115.419 23.82C114.965 23.5667 114.472 23.44 113.939 23.44C113.405 23.44 112.905 23.5667 112.439 23.82C111.985 24.0733 111.619 24.4533 111.339 24.96C111.059 25.4533 110.919 26.0667 110.919 26.8C110.919 27.52 111.059 28.1333 111.339 28.64C111.619 29.1333 111.985 29.5067 112.439 29.76C112.905 30.0133 113.405 30.14 113.939 30.14ZM121.546 32V17.68H123.706V32H121.546ZM130.815 32.32C129.815 32.32 128.921 32.0867 128.135 31.62C127.348 31.1533 126.728 30.5133 126.275 29.7C125.835 28.8867 125.615 27.96 125.615 26.92C125.615 25.9467 125.828 25.0467 126.255 24.22C126.681 23.3933 127.275 22.7333 128.035 22.24C128.808 21.7333 129.695 21.48 130.695 21.48C131.748 21.48 132.641 21.7067 133.375 22.16C134.121 22.6133 134.688 23.2333 135.075 24.02C135.461 24.8067 135.655 25.6933 135.655 26.68C135.655 26.8267 135.648 26.96 135.635 27.08C135.635 27.2 135.628 27.2933 135.615 27.36H127.735C127.788 27.92 127.928 28.4067 128.155 28.82C128.448 29.34 128.835 29.7333 129.315 30C129.795 30.2667 130.315 30.4 130.875 30.4C131.555 30.4 132.121 30.2467 132.575 29.94C133.041 29.62 133.408 29.2267 133.675 28.76L135.455 29.62C135.015 30.42 134.415 31.0733 133.655 31.58C132.895 32.0733 131.948 32.32 130.815 32.32ZM127.855 25.74H133.515C133.501 25.4867 133.435 25.22 133.315 24.94C133.195 24.6467 133.021 24.38 132.795 24.14C132.568 23.9 132.281 23.7067 131.935 23.56C131.588 23.4 131.181 23.32 130.715 23.32C130.128 23.32 129.608 23.4733 129.155 23.78C128.701 24.0733 128.348 24.4867 128.095 25.02C127.988 25.2467 127.908 25.4867 127.855 25.74ZM142.686 32V17.68H147.606C148.473 17.68 149.26 17.8667 149.966 18.24C150.673 18.6 151.233 19.1133 151.646 19.78C152.073 20.4333 152.286 21.1933 152.286 22.06C152.286 22.9133 152.073 23.6733 151.646 24.34C151.233 25.0067 150.673 25.5267 149.966 25.9C149.26 26.26 148.473 26.44 147.606 26.44H144.886V32H142.686ZM144.886 24.36H147.666C148.186 24.36 148.626 24.2533 148.986 24.04C149.346 23.8133 149.62 23.5267 149.806 23.18C150.006 22.82 150.106 22.4467 150.106 22.06C150.106 21.6733 150.006 21.3067 149.806 20.96C149.62 20.6133 149.346 20.3267 148.986 20.1C148.626 19.8733 148.186 19.76 147.666 19.76H144.886V24.36ZM157.687 32.32C156.433 32.32 155.487 31.9467 154.847 31.2C154.22 30.44 153.907 29.4133 153.907 28.12V21.8H156.067V27.82C156.067 28.6733 156.267 29.3067 156.667 29.72C157.08 30.1333 157.593 30.34 158.207 30.34C158.767 30.34 159.247 30.2 159.647 29.92C160.047 29.6267 160.353 29.2467 160.567 28.78C160.793 28.3133 160.907 27.8133 160.907 27.28V21.8H163.047V32H161.027V30.62H160.907C160.72 30.94 160.46 31.2267 160.127 31.48C159.793 31.7333 159.42 31.9333 159.007 32.08C158.593 32.24 158.153 32.32 157.687 32.32ZM165.608 32V17.68H167.768V32H165.608ZM177.857 36.32V32.06L177.977 30.64H177.857C177.684 30.92 177.437 31.1933 177.117 31.46C176.81 31.7133 176.444 31.92 176.017 32.08C175.59 32.24 175.11 32.32 174.577 32.32C173.657 32.32 172.824 32.0867 172.077 31.62C171.33 31.1533 170.744 30.5133 170.317 29.7C169.89 28.8867 169.677 27.9533 169.677 26.9C169.677 25.8467 169.89 24.9133 170.317 24.1C170.744 23.2867 171.33 22.6467 172.077 22.18C172.824 21.7133 173.657 21.48 174.577 21.48C175.11 21.48 175.59 21.56 176.017 21.72C176.444 21.88 176.81 22.0933 177.117 22.36C177.437 22.6133 177.684 22.8867 177.857 23.18H177.977V21.8H179.997V36.32H177.857ZM174.897 30.34C175.43 30.34 175.93 30.2 176.397 29.92C176.877 29.64 177.257 29.2467 177.537 28.74C177.83 28.22 177.977 27.6067 177.977 26.9C177.977 26.1933 177.83 25.5867 177.537 25.08C177.257 24.56 176.877 24.16 176.397 23.88C175.93 23.6 175.43 23.46 174.897 23.46C174.364 23.46 173.864 23.6 173.397 23.88C172.93 24.16 172.55 24.56 172.257 25.08C171.964 25.5867 171.817 26.1933 171.817 26.9C171.817 27.5933 171.964 28.2 172.257 28.72C172.55 29.24 172.93 29.64 173.397 29.92C173.864 30.2 174.364 30.34 174.897 30.34ZM185.605 32.32C184.871 32.32 184.218 32.1733 183.645 31.88C183.085 31.5867 182.638 31.1867 182.305 30.68C181.985 30.16 181.825 29.5667 181.825 28.9C181.825 28.1667 182.011 27.5467 182.385 27.04C182.771 26.5333 183.285 26.1467 183.925 25.88C184.565 25.6133 185.271 25.48 186.045 25.48C186.471 25.48 186.865 25.5133 187.225 25.58C187.598 25.6333 187.918 25.7 188.185 25.78C188.465 25.86 188.685 25.9467 188.845 26.04V25.5C188.845 24.8333 188.605 24.3 188.125 23.9C187.645 23.5 187.025 23.3 186.265 23.3C185.745 23.3 185.251 23.42 184.785 23.66C184.318 23.8867 183.945 24.2 183.665 24.6L182.185 23.46C182.478 23.0467 182.831 22.6933 183.245 22.4C183.671 22.1067 184.145 21.88 184.665 21.72C185.198 21.56 185.751 21.48 186.325 21.48C187.805 21.48 188.945 21.8467 189.745 22.58C190.545 23.3 190.945 24.3133 190.945 25.62V32H188.845V30.74H188.725C188.551 31.0067 188.311 31.26 188.005 31.5C187.711 31.74 187.358 31.9333 186.945 32.08C186.545 32.24 186.098 32.32 185.605 32.32ZM185.985 30.56C186.545 30.56 187.038 30.4267 187.465 30.16C187.905 29.8933 188.245 29.5467 188.485 29.12C188.725 28.68 188.845 28.2067 188.845 27.7C188.551 27.5267 188.191 27.3867 187.765 27.28C187.351 27.16 186.911 27.1 186.445 27.1C185.565 27.1 184.938 27.2733 184.565 27.62C184.191 27.9667 184.005 28.4 184.005 28.92C184.005 29.4 184.185 29.7933 184.545 30.1C184.905 30.4067 185.385 30.56 185.985 30.56ZM198.763 32.32C198.243 32.32 197.769 32.24 197.342 32.08C196.916 31.92 196.543 31.7133 196.223 31.46C195.916 31.1933 195.669 30.92 195.483 30.64H195.363V32H193.323V17.68H195.483V21.76L195.363 23.18H195.483C195.669 22.8867 195.916 22.6133 196.223 22.36C196.543 22.0933 196.916 21.88 197.342 21.72C197.769 21.56 198.243 21.48 198.763 21.48C199.696 21.48 200.529 21.7133 201.263 22.18C201.996 22.6467 202.576 23.2867 203.003 24.1C203.443 24.9133 203.663 25.8467 203.663 26.9C203.663 27.9533 203.443 28.8867 203.003 29.7C202.576 30.5133 201.996 31.1533 201.263 31.62C200.529 32.0867 199.696 32.32 198.763 32.32ZM198.443 30.34C198.976 30.34 199.476 30.2 199.943 29.92C200.423 29.64 200.803 29.24 201.083 28.72C201.376 28.2 201.523 27.5933 201.523 26.9C201.523 26.1933 201.376 25.5867 201.083 25.08C200.803 24.56 200.423 24.16 199.943 23.88C199.476 23.6 198.976 23.46 198.443 23.46C197.909 23.46 197.409 23.6 196.943 23.88C196.476 24.16 196.096 24.56 195.803 25.08C195.509 25.5867 195.363 26.1933 195.363 26.9C195.363 27.6067 195.509 28.22 195.803 28.74C196.096 29.2467 196.476 29.64 196.943 29.92C197.409 30.2 197.909 30.34 198.443 30.34ZM205.709 32V21.8H207.869V32H205.709ZM214.831 32.32C213.911 32.32 213.078 32.0867 212.331 31.62C211.584 31.1533 210.998 30.5133 210.571 29.7C210.144 28.8867 209.931 27.9533 209.931 26.9C209.931 25.8467 210.144 24.9133 210.571 24.1C210.998 23.2867 211.584 22.6467 212.331 22.18C213.078 21.7133 213.911 21.48 214.831 21.48C215.364 21.48 215.844 21.56 216.271 21.72C216.698 21.88 217.064 22.0933 217.371 22.36C217.691 22.6133 217.938 22.8867 218.111 23.18H218.231L218.111 21.76V17.68H220.251V32H218.231V30.64H218.111C217.938 30.92 217.691 31.1933 217.371 31.46C217.064 31.7133 216.698 31.92 216.271 32.08C215.844 32.24 215.364 32.32 214.831 32.32ZM215.151 30.34C215.684 30.34 216.184 30.2 216.651 29.92C217.131 29.64 217.511 29.2467 217.791 28.74C218.084 28.22 218.231 27.6067 218.231 26.9C218.231 26.1933 218.084 25.5867 217.791 25.08C217.511 24.56 217.131 24.16 216.651 23.88C216.184 23.6 215.684 23.46 215.151 23.46C214.618 23.46 214.118 23.6 213.651 23.88C213.184 24.16 212.804 24.56 212.511 25.08C212.218 25.5867 212.071 26.1933 212.071 26.9C212.071 27.5933 212.218 28.2 212.511 28.72C212.804 29.24 213.184 29.64 213.651 29.92C214.118 30.2 214.618 30.34 215.151 30.34ZM225.898 32.32C225.164 32.32 224.511 32.1733 223.938 31.88C223.378 31.5867 222.931 31.1867 222.598 30.68C222.278 30.16 222.118 29.5667 222.118 28.9C222.118 28.1667 222.304 27.5467 222.678 27.04C223.064 26.5333 223.578 26.1467 224.218 25.88C224.858 25.6133 225.564 25.48 226.338 25.48C226.764 25.48 227.158 25.5133 227.518 25.58C227.891 25.6333 228.211 25.7 228.478 25.78C228.758 25.86 228.978 25.9467 229.138 26.04V25.5C229.138 24.8333 228.898 24.3 228.418 23.9C227.938 23.5 227.318 23.3 226.558 23.3C226.038 23.3 225.544 23.42 225.078 23.66C224.611 23.8867 224.238 24.2 223.958 24.6L222.478 23.46C222.771 23.0467 223.124 22.6933 223.538 22.4C223.964 22.1067 224.438 21.88 224.958 21.72C225.491 21.56 226.044 21.48 226.618 21.48C228.098 21.48 229.238 21.8467 230.038 22.58C230.838 23.3 231.238 24.3133 231.238 25.62V32H229.138V30.74H229.018C228.844 31.0067 228.604 31.26 228.298 31.5C228.004 31.74 227.651 31.9333 227.238 32.08C226.838 32.24 226.391 32.32 225.898 32.32ZM226.278 30.56C226.838 30.56 227.331 30.4267 227.758 30.16C228.198 29.8933 228.538 29.5467 228.778 29.12C229.018 28.68 229.138 28.2067 229.138 27.7C228.844 27.5267 228.484 27.3867 228.058 27.28C227.644 27.16 227.204 27.1 226.738 27.1C225.858 27.1 225.231 27.2733 224.858 27.62C224.484 27.9667 224.298 28.4 224.298 28.92C224.298 29.4 224.478 29.7933 224.838 30.1C225.198 30.4067 225.678 30.56 226.278 30.56ZM243.723 32.32C243.203 32.32 242.73 32.24 242.303 32.08C241.877 31.92 241.503 31.7133 241.183 31.46C240.877 31.1933 240.63 30.92 240.443 30.64H240.323V32H238.283V17.68H240.443V21.76L240.323 23.18H240.443C240.63 22.8867 240.877 22.6133 241.183 22.36C241.503 22.0933 241.877 21.88 242.303 21.72C242.73 21.56 243.203 21.48 243.723 21.48C244.657 21.48 245.49 21.7133 246.223 22.18C246.957 22.6467 247.537 23.2867 247.963 24.1C248.403 24.9133 248.623 25.8467 248.623 26.9C248.623 27.9533 248.403 28.8867 247.963 29.7C247.537 30.5133 246.957 31.1533 246.223 31.62C245.49 32.0867 244.657 32.32 243.723 32.32ZM243.403 30.34C243.937 30.34 244.437 30.2 244.903 29.92C245.383 29.64 245.763 29.24 246.043 28.72C246.337 28.2 246.483 27.5933 246.483 26.9C246.483 26.1933 246.337 25.5867 246.043 25.08C245.763 24.56 245.383 24.16 244.903 23.88C244.437 23.6 243.937 23.46 243.403 23.46C242.87 23.46 242.37 23.6 241.903 23.88C241.437 24.16 241.057 24.56 240.763 25.08C240.47 25.5867 240.323 26.1933 240.323 26.9C240.323 27.6067 240.47 28.22 240.763 28.74C241.057 29.2467 241.437 29.64 241.903 29.92C242.37 30.2 242.87 30.34 243.403 30.34ZM253.808 32.32C253.074 32.32 252.421 32.1733 251.848 31.88C251.288 31.5867 250.841 31.1867 250.508 30.68C250.188 30.16 250.028 29.5667 250.028 28.9C250.028 28.1667 250.214 27.5467 250.588 27.04C250.974 26.5333 251.488 26.1467 252.128 25.88C252.768 25.6133 253.474 25.48 254.248 25.48C254.674 25.48 255.068 25.5133 255.428 25.58C255.801 25.6333 256.121 25.7 256.388 25.78C256.668 25.86 256.888 25.9467 257.048 26.04V25.5C257.048 24.8333 256.808 24.3 256.328 23.9C255.848 23.5 255.228 23.3 254.468 23.3C253.948 23.3 253.454 23.42 252.988 23.66C252.521 23.8867 252.148 24.2 251.868 24.6L250.388 23.46C250.681 23.0467 251.034 22.6933 251.448 22.4C251.874 22.1067 252.348 21.88 252.868 21.72C253.401 21.56 253.954 21.48 254.528 21.48C256.008 21.48 257.148 21.8467 257.948 22.58C258.748 23.3 259.148 24.3133 259.148 25.62V32H257.048V30.74H256.928C256.754 31.0067 256.514 31.26 256.208 31.5C255.914 31.74 255.561 31.9333 255.148 32.08C254.748 32.24 254.301 32.32 253.808 32.32ZM254.188 30.56C254.748 30.56 255.241 30.4267 255.668 30.16C256.108 29.8933 256.448 29.5467 256.688 29.12C256.928 28.68 257.048 28.2067 257.048 27.7C256.754 27.5267 256.394 27.3867 255.968 27.28C255.554 27.16 255.114 27.1 254.648 27.1C253.768 27.1 253.141 27.2733 252.768 27.62C252.394 27.9667 252.208 28.4 252.208 28.92C252.208 29.4 252.388 29.7933 252.748 30.1C253.108 30.4067 253.588 30.56 254.188 30.56ZM260.428 32L264.008 26.82L260.488 21.8H262.988L265.308 25.2L267.508 21.8H270.108L266.528 26.82L270.128 32H267.608L265.268 28.5L262.968 32H260.428ZM271.803 32V21.8H273.963V32H271.803ZM276.662 32V21.8H278.702V23.2H278.822C279.116 22.7067 279.549 22.3 280.122 21.98C280.709 21.6467 281.349 21.48 282.042 21.48C283.296 21.48 284.236 21.8533 284.862 22.6C285.489 23.3333 285.802 24.32 285.802 25.56V32H283.662V25.84C283.662 25.0133 283.456 24.4133 283.042 24.04C282.629 23.6533 282.089 23.46 281.422 23.46C280.902 23.46 280.449 23.6067 280.062 23.9C279.676 24.18 279.369 24.5533 279.142 25.02C278.929 25.4867 278.822 25.9867 278.822 26.52V32H276.662Z" fill="white"/>
</svg>
