<svg width="317" height="50" viewBox="0 0 317 50" fill="none" xmlns="http://www.w3.org/2000/svg">
<rect x="0.5" y="0.5" width="316" height="49" rx="24.5" fill="#1F1F1F"/>
<rect x="0.5" y="0.5" width="316" height="49" rx="24.5" stroke="#747775"/>
<path d="M51 22H21V17C21 14.2857 23.2018 12 25.8165 12H46.1835C48.7982 12 51 14.2857 51 17V22Z" fill="#34A853"/>
<path d="M51 26.0537H21V21.0537C21 18.3394 23.2018 16.0537 25.8165 16.0537H46.1835C48.7982 16.0537 51 18.3394 51 21.0537V26.0537Z" fill="#FBBC04"/>
<path d="M51 30.2468H21V25.2468C21 22.5325 23.2018 20.2468 25.8165 20.2468H46.1835C48.7982 20.2468 51 22.5325 51 25.2468V30.2468Z" fill="#EA4335"/>
<path d="M21 23.2752L40.0411 27.6789C42.2329 28.2294 44.6986 27.6789 46.4795 26.3028L51 23V33.3211C51 35.9358 48.8082 38 46.2055 38H25.7945C23.1918 38 21 35.9358 21 33.3211V23.2752Z" fill="#4285F4"/>
<path d="M64.62 32V17.68H75.42V32H73.22V19.76H66.82V32H64.62ZM78.283 36.32V21.8H80.303V23.18H80.423C80.6096 22.8867 80.8563 22.6133 81.163 22.36C81.483 22.0933 81.8563 21.88 82.283 21.72C82.7096 21.56 83.183 21.48 83.703 21.48C84.6363 21.48 85.4696 21.7133 86.203 22.18C86.9363 22.6467 87.5163 23.2867 87.943 24.1C88.383 24.9133 88.603 25.8467 88.603 26.9C88.603 27.9533 88.383 28.8867 87.943 29.7C87.5163 30.5133 86.9363 31.1533 86.203 31.62C85.4696 32.0867 84.6363 32.32 83.703 32.32C82.9296 32.32 82.2563 32.1467 81.683 31.8C81.1096 31.4533 80.6896 31.0667 80.423 30.64H80.303L80.423 32.06V36.32H78.283ZM83.383 30.34C83.9163 30.34 84.4163 30.2 84.883 29.92C85.363 29.64 85.743 29.24 86.023 28.72C86.3163 28.2 86.463 27.5933 86.463 26.9C86.463 26.1933 86.3163 25.5867 86.023 25.08C85.743 24.56 85.363 24.16 84.883 23.88C84.4163 23.6 83.9163 23.46 83.383 23.46C82.8496 23.46 82.3496 23.6 81.883 23.88C81.4163 24.16 81.0363 24.56 80.743 25.08C80.4496 25.5867 80.303 26.1933 80.303 26.9C80.303 27.6067 80.4496 28.22 80.743 28.74C81.0363 29.2467 81.4163 29.64 81.883 29.92C82.3496 30.2 82.8496 30.34 83.383 30.34ZM95.2091 32.32C94.2091 32.32 93.3157 32.0867 92.5291 31.62C91.7424 31.1533 91.1224 30.5133 90.6691 29.7C90.2291 28.8867 90.0091 27.96 90.0091 26.92C90.0091 25.9467 90.2224 25.0467 90.6491 24.22C91.0757 23.3933 91.6691 22.7333 92.4291 22.24C93.2024 21.7333 94.0891 21.48 95.0891 21.48C96.1424 21.48 97.0357 21.7067 97.7691 22.16C98.5157 22.6133 99.0824 23.2333 99.4691 24.02C99.8557 24.8067 100.049 25.6933 100.049 26.68C100.049 26.8267 100.042 26.96 100.029 27.08C100.029 27.2 100.022 27.2933 100.009 27.36H92.1291C92.1824 27.92 92.3224 28.4067 92.5491 28.82C92.8424 29.34 93.2291 29.7333 93.7091 30C94.1891 30.2667 94.7091 30.4 95.2691 30.4C95.9491 30.4 96.5157 30.2467 96.9691 29.94C97.4357 29.62 97.8024 29.2267 98.0691 28.76L99.8491 29.62C99.4091 30.42 98.8091 31.0733 98.0491 31.58C97.2891 32.0733 96.3424 32.32 95.2091 32.32ZM92.2491 25.74H97.9091C97.8957 25.4867 97.8291 25.22 97.7091 24.94C97.5891 24.6467 97.4157 24.38 97.1891 24.14C96.9624 23.9 96.6757 23.7067 96.3291 23.56C95.9824 23.4 95.5757 23.32 95.1091 23.32C94.5224 23.32 94.0024 23.4733 93.5491 23.78C93.0957 24.0733 92.7424 24.4867 92.4891 25.02C92.3824 25.2467 92.3024 25.4867 92.2491 25.74ZM102.053 32V21.8H108.733V23.68H104.213V32H102.053ZM110.104 32.16C109.957 32.16 109.804 32.1467 109.644 32.12C109.497 32.1067 109.357 32.0867 109.224 32.06V30.06C109.317 30.1 109.424 30.1333 109.544 30.16C109.664 30.1867 109.764 30.2 109.844 30.2C110.297 30.2 110.617 30.0267 110.804 29.68C110.99 29.32 111.104 28.8667 111.144 28.32C111.184 27.7733 111.204 27.2067 111.204 26.62V21.8H119.004V32H116.864V23.68H113.244V26.96C113.244 27.64 113.197 28.2933 113.104 28.92C113.01 29.5467 112.85 30.1067 112.624 30.6C112.41 31.08 112.097 31.46 111.684 31.74C111.284 32.02 110.757 32.16 110.104 32.16ZM126.108 32.32C125.108 32.32 124.214 32.0867 123.428 31.62C122.641 31.1533 122.021 30.5133 121.568 29.7C121.128 28.8867 120.908 27.96 120.908 26.92C120.908 25.9467 121.121 25.0467 121.548 24.22C121.974 23.3933 122.568 22.7333 123.328 22.24C124.101 21.7333 124.988 21.48 125.988 21.48C127.041 21.48 127.934 21.7067 128.668 22.16C129.414 22.6133 129.981 23.2333 130.368 24.02C130.754 24.8067 130.948 25.6933 130.948 26.68C130.948 26.8267 130.941 26.96 130.928 27.08C130.928 27.2 130.921 27.2933 130.908 27.36H123.028C123.081 27.92 123.221 28.4067 123.448 28.82C123.741 29.34 124.128 29.7333 124.608 30C125.088 30.2667 125.608 30.4 126.168 30.4C126.848 30.4 127.414 30.2467 127.868 29.94C128.334 29.62 128.701 29.2267 128.968 28.76L130.747 29.62C130.308 30.42 129.708 31.0733 128.948 31.58C128.188 32.0733 127.241 32.32 126.108 32.32ZM123.148 25.74H128.808C128.794 25.4867 128.728 25.22 128.608 24.94C128.488 24.6467 128.314 24.38 128.088 24.14C127.861 23.9 127.574 23.7067 127.228 23.56C126.881 23.4 126.474 23.32 126.008 23.32C125.421 23.32 124.901 23.4733 124.448 23.78C123.994 24.0733 123.641 24.4867 123.388 25.02C123.281 25.2467 123.201 25.4867 123.148 25.74ZM131.878 35.04V30.12H132.998C133.212 29.8533 133.405 29.4867 133.578 29.02C133.752 28.5533 133.885 28.02 133.978 27.42C134.072 26.82 134.118 26.2133 134.118 25.6V21.8H141.758V30.12H143.238V35.04H141.258V32H133.878V35.04H131.878ZM135.318 30.12H139.618V23.68H136.158V25.78C136.158 26.3933 136.125 26.9533 136.058 27.46C136.005 27.9667 135.912 28.4267 135.778 28.84C135.658 29.2533 135.505 29.64 135.318 30V30.12ZM149.826 32V21.8H154.886C155.486 21.8 156.02 21.92 156.486 22.16C156.966 22.3867 157.34 22.7 157.606 23.1C157.886 23.5 158.026 23.9467 158.026 24.44C158.026 24.9733 157.906 25.4333 157.666 25.82C157.44 26.2067 157.14 26.4933 156.766 26.68V26.8C157.273 27 157.673 27.3 157.966 27.7C158.273 28.1 158.426 28.56 158.426 29.08C158.426 29.68 158.266 30.2 157.946 30.64C157.64 31.08 157.24 31.42 156.746 31.66C156.253 31.8867 155.726 32 155.166 32H149.826ZM151.986 27.56V30.2H154.946C155.333 30.2 155.653 30.08 155.906 29.84C156.173 29.5867 156.306 29.2667 156.306 28.88C156.306 28.5067 156.173 28.1933 155.906 27.94C155.653 27.6867 155.333 27.56 154.946 27.56H151.986ZM151.986 23.56V25.96H154.626C154.986 25.96 155.286 25.8467 155.526 25.62C155.766 25.3933 155.886 25.1067 155.886 24.76C155.886 24.4 155.766 24.1133 155.526 23.9C155.286 23.6733 154.986 23.56 154.626 23.56H151.986Z" fill="white"/>
<path d="M173.4 32.32C172.373 32.32 171.407 32.1333 170.5 31.76C169.593 31.3867 168.793 30.8667 168.1 30.2C167.42 29.52 166.88 28.7267 166.48 27.82C166.093 26.9 165.9 25.9067 165.9 24.84C165.9 23.7733 166.093 22.7867 166.48 21.88C166.88 20.96 167.42 20.1667 168.1 19.5C168.793 18.82 169.593 18.2933 170.5 17.92C171.407 17.5467 172.373 17.36 173.4 17.36C174.493 17.36 175.5 17.5533 176.42 17.94C177.353 18.3267 178.133 18.8667 178.76 19.56L177.24 21.06C176.933 20.7133 176.58 20.42 176.18 20.18C175.793 19.94 175.367 19.76 174.9 19.64C174.433 19.5067 173.933 19.44 173.4 19.44C172.693 19.44 172.02 19.5667 171.38 19.82C170.74 20.0733 170.173 20.44 169.68 20.92C169.2 21.3867 168.82 21.9533 168.54 22.62C168.26 23.2733 168.12 24.0133 168.12 24.84C168.12 25.6667 168.26 26.4133 168.54 27.08C168.833 27.7333 169.22 28.3 169.7 28.78C170.193 29.2467 170.76 29.6067 171.4 29.86C172.04 30.1133 172.713 30.24 173.42 30.24C174.073 30.24 174.68 30.1467 175.24 29.96C175.813 29.7733 176.313 29.5067 176.74 29.16C177.167 28.8133 177.513 28.3933 177.78 27.9C178.047 27.3933 178.213 26.8267 178.28 26.2H173.38V24.26H180.34C180.367 24.42 180.393 24.6067 180.42 24.82C180.447 25.02 180.46 25.2133 180.46 25.4V25.42C180.46 26.4467 180.28 27.3867 179.92 28.24C179.573 29.0933 179.087 29.8267 178.46 30.44C177.833 31.04 177.087 31.5067 176.22 31.84C175.367 32.16 174.427 32.32 173.4 32.32ZM186.9 32.32C185.847 32.32 184.92 32.08 184.12 31.6C183.32 31.12 182.693 30.4733 182.24 29.66C181.787 28.8333 181.56 27.9133 181.56 26.9C181.56 25.8867 181.787 24.9733 182.24 24.16C182.693 23.3333 183.32 22.68 184.12 22.2C184.92 21.72 185.847 21.48 186.9 21.48C187.94 21.48 188.86 21.7267 189.66 22.22C190.46 22.7 191.087 23.3467 191.54 24.16C191.993 24.9733 192.22 25.8867 192.22 26.9C192.22 27.9133 191.993 28.8333 191.54 29.66C191.087 30.4733 190.46 31.12 189.66 31.6C188.86 32.08 187.94 32.32 186.9 32.32ZM186.9 30.34C187.46 30.34 187.98 30.2067 188.46 29.94C188.94 29.66 189.327 29.2667 189.62 28.76C189.927 28.24 190.08 27.62 190.08 26.9C190.08 26.18 189.927 25.5667 189.62 25.06C189.327 24.54 188.94 24.1467 188.46 23.88C187.98 23.6 187.46 23.46 186.9 23.46C186.34 23.46 185.813 23.6 185.32 23.88C184.84 24.1467 184.447 24.54 184.14 25.06C183.847 25.5667 183.7 26.18 183.7 26.9C183.7 27.62 183.847 28.24 184.14 28.76C184.447 29.2667 184.847 29.66 185.34 29.94C185.833 30.2067 186.353 30.34 186.9 30.34ZM199.009 32.32C197.956 32.32 197.029 32.08 196.229 31.6C195.429 31.12 194.803 30.4733 194.349 29.66C193.896 28.8333 193.669 27.9133 193.669 26.9C193.669 25.8867 193.896 24.9733 194.349 24.16C194.803 23.3333 195.429 22.68 196.229 22.2C197.029 21.72 197.956 21.48 199.009 21.48C200.049 21.48 200.969 21.7267 201.769 22.22C202.569 22.7 203.196 23.3467 203.649 24.16C204.103 24.9733 204.329 25.8867 204.329 26.9C204.329 27.9133 204.103 28.8333 203.649 29.66C203.196 30.4733 202.569 31.12 201.769 31.6C200.969 32.08 200.049 32.32 199.009 32.32ZM199.009 30.34C199.569 30.34 200.089 30.2067 200.569 29.94C201.049 29.66 201.436 29.2667 201.729 28.76C202.036 28.24 202.189 27.62 202.189 26.9C202.189 26.18 202.036 25.5667 201.729 25.06C201.436 24.54 201.049 24.1467 200.569 23.88C200.089 23.6 199.569 23.46 199.009 23.46C198.449 23.46 197.923 23.6 197.429 23.88C196.949 24.1467 196.556 24.54 196.249 25.06C195.956 25.5667 195.809 26.18 195.809 26.9C195.809 27.62 195.956 28.24 196.249 28.76C196.556 29.2667 196.956 29.66 197.449 29.94C197.943 30.2067 198.463 30.34 199.009 30.34ZM210.919 36.64C210.025 36.64 209.252 36.4933 208.599 36.2C207.959 35.92 207.439 35.5533 207.039 35.1C206.639 34.66 206.352 34.2067 206.179 33.74L208.179 32.9C208.392 33.4333 208.732 33.8667 209.199 34.2C209.679 34.5467 210.252 34.72 210.919 34.72C211.865 34.72 212.605 34.44 213.139 33.88C213.672 33.32 213.939 32.5267 213.939 31.5V30.52H213.819C213.499 30.9867 213.059 31.3667 212.499 31.66C211.939 31.9533 211.292 32.1 210.559 32.1C209.692 32.1 208.892 31.88 208.159 31.44C207.439 31 206.859 30.3867 206.419 29.6C205.992 28.8 205.779 27.8667 205.779 26.8C205.779 25.72 205.992 24.7867 206.419 24C206.859 23.2 207.439 22.58 208.159 22.14C208.892 21.7 209.692 21.48 210.559 21.48C211.292 21.48 211.939 21.6267 212.499 21.92C213.059 22.2 213.499 22.5867 213.819 23.08H213.939V21.8H215.999V31.46C215.999 32.5667 215.779 33.5067 215.339 34.28C214.912 35.0533 214.319 35.64 213.559 36.04C212.799 36.44 211.919 36.64 210.919 36.64ZM210.939 30.14C211.472 30.14 211.965 30.0133 212.419 29.76C212.885 29.4933 213.252 29.1133 213.519 28.62C213.799 28.1133 213.939 27.5067 213.939 26.8C213.939 26.0533 213.799 25.4333 213.519 24.94C213.252 24.4467 212.885 24.0733 212.419 23.82C211.965 23.5667 211.472 23.44 210.939 23.44C210.405 23.44 209.905 23.5667 209.439 23.82C208.985 24.0733 208.619 24.4533 208.339 24.96C208.059 25.4533 207.919 26.0667 207.919 26.8C207.919 27.52 208.059 28.1333 208.339 28.64C208.619 29.1333 208.985 29.5067 209.439 29.76C209.905 30.0133 210.405 30.14 210.939 30.14ZM218.546 32V17.68H220.706V32H218.546ZM227.815 32.32C226.815 32.32 225.921 32.0867 225.135 31.62C224.348 31.1533 223.728 30.5133 223.275 29.7C222.835 28.8867 222.615 27.96 222.615 26.92C222.615 25.9467 222.828 25.0467 223.255 24.22C223.681 23.3933 224.275 22.7333 225.035 22.24C225.808 21.7333 226.695 21.48 227.695 21.48C228.748 21.48 229.641 21.7067 230.375 22.16C231.121 22.6133 231.688 23.2333 232.075 24.02C232.461 24.8067 232.655 25.6933 232.655 26.68C232.655 26.8267 232.648 26.96 232.635 27.08C232.635 27.2 232.628 27.2933 232.615 27.36H224.735C224.788 27.92 224.928 28.4067 225.155 28.82C225.448 29.34 225.835 29.7333 226.315 30C226.795 30.2667 227.315 30.4 227.875 30.4C228.555 30.4 229.121 30.2467 229.575 29.94C230.041 29.62 230.408 29.2267 230.675 28.76L232.455 29.62C232.015 30.42 231.415 31.0733 230.655 31.58C229.895 32.0733 228.948 32.32 227.815 32.32ZM224.855 25.74H230.515C230.501 25.4867 230.435 25.22 230.315 24.94C230.195 24.6467 230.021 24.38 229.795 24.14C229.568 23.9 229.281 23.7067 228.935 23.56C228.588 23.4 228.181 23.32 227.715 23.32C227.128 23.32 226.608 23.4733 226.155 23.78C225.701 24.0733 225.348 24.4867 225.095 25.02C224.988 25.2467 224.908 25.4867 224.855 25.74ZM241.446 32L237.606 17.68H240.046L242.326 26.98L242.566 28.22H242.686L242.986 26.98L245.866 17.68H248.066L250.826 26.98L251.126 28.2H251.246L251.486 26.98L253.766 17.68H256.186L252.406 32H250.086L247.346 22.5L247.026 21.16H246.906L246.566 22.5L243.706 32H241.446ZM260.202 32.32C259.469 32.32 258.816 32.1733 258.242 31.88C257.682 31.5867 257.236 31.1867 256.902 30.68C256.582 30.16 256.422 29.5667 256.422 28.9C256.422 28.1667 256.609 27.5467 256.982 27.04C257.369 26.5333 257.882 26.1467 258.522 25.88C259.162 25.6133 259.869 25.48 260.642 25.48C261.069 25.48 261.462 25.5133 261.822 25.58C262.196 25.6333 262.516 25.7 262.782 25.78C263.062 25.86 263.282 25.9467 263.442 26.04V25.5C263.442 24.8333 263.202 24.3 262.722 23.9C262.242 23.5 261.622 23.3 260.862 23.3C260.342 23.3 259.849 23.42 259.382 23.66C258.916 23.8867 258.542 24.2 258.262 24.6L256.782 23.46C257.076 23.0467 257.429 22.6933 257.842 22.4C258.269 22.1067 258.742 21.88 259.262 21.72C259.796 21.56 260.349 21.48 260.922 21.48C262.402 21.48 263.542 21.8467 264.342 22.58C265.142 23.3 265.542 24.3133 265.542 25.62V32H263.442V30.74H263.322C263.149 31.0067 262.909 31.26 262.602 31.5C262.309 31.74 261.956 31.9333 261.542 32.08C261.142 32.24 260.696 32.32 260.202 32.32ZM260.582 30.56C261.142 30.56 261.636 30.4267 262.062 30.16C262.502 29.8933 262.842 29.5467 263.082 29.12C263.322 28.68 263.442 28.2067 263.442 27.7C263.149 27.5267 262.789 27.3867 262.362 27.28C261.949 27.16 261.509 27.1 261.042 27.1C260.162 27.1 259.536 27.2733 259.162 27.62C258.789 27.9667 258.602 28.4 258.602 28.92C258.602 29.4 258.782 29.7933 259.142 30.1C259.502 30.4067 259.982 30.56 260.582 30.56ZM267.94 32V17.68H270.1V32H267.94ZM272.667 32V17.68H274.827V32H272.667ZM281.936 32.32C280.936 32.32 280.042 32.0867 279.256 31.62C278.469 31.1533 277.849 30.5133 277.396 29.7C276.956 28.8867 276.736 27.96 276.736 26.92C276.736 25.9467 276.949 25.0467 277.376 24.22C277.802 23.3933 278.396 22.7333 279.156 22.24C279.929 21.7333 280.816 21.48 281.816 21.48C282.869 21.48 283.762 21.7067 284.496 22.16C285.242 22.6133 285.809 23.2333 286.196 24.02C286.582 24.8067 286.776 25.6933 286.776 26.68C286.776 26.8267 286.769 26.96 286.756 27.08C286.756 27.2 286.749 27.2933 286.736 27.36H278.856C278.909 27.92 279.049 28.4067 279.276 28.82C279.569 29.34 279.956 29.7333 280.436 30C280.916 30.2667 281.436 30.4 281.996 30.4C282.676 30.4 283.242 30.2467 283.696 29.94C284.162 29.62 284.529 29.2267 284.796 28.76L286.576 29.62C286.136 30.42 285.536 31.0733 284.776 31.58C284.016 32.0733 283.069 32.32 281.936 32.32ZM278.976 25.74H284.636C284.622 25.4867 284.556 25.22 284.436 24.94C284.316 24.6467 284.142 24.38 283.916 24.14C283.689 23.9 283.402 23.7067 283.056 23.56C282.709 23.4 282.302 23.32 281.836 23.32C281.249 23.32 280.729 23.4733 280.276 23.78C279.822 24.0733 279.469 24.4867 279.216 25.02C279.109 25.2467 279.029 25.4867 278.976 25.74ZM287.787 21.8H289.567V18.92H291.727V21.8H294.227V23.68H291.727V28.58C291.727 29.0867 291.827 29.4733 292.027 29.74C292.24 30.0067 292.593 30.14 293.087 30.14C293.327 30.14 293.54 30.1067 293.727 30.04C293.913 29.96 294.1 29.8667 294.287 29.76V31.86C294.06 31.9533 293.82 32.0267 293.567 32.08C293.313 32.1333 293.013 32.16 292.667 32.16C291.72 32.16 290.967 31.8867 290.407 31.34C289.847 30.78 289.567 30.0133 289.567 29.04V23.68H287.787V21.8Z" fill="white"/>
</svg>
