<svg width="302" height="50" viewBox="0 0 302 50" fill="none" xmlns="http://www.w3.org/2000/svg">
<rect x="0.5" y="0.5" width="301" height="49" rx="24.5" fill="#1F1F1F"/>
<rect x="0.5" y="0.5" width="301" height="49" rx="24.5" stroke="#747775"/>
<path d="M51 22H21V17C21 14.2857 23.2018 12 25.8165 12H46.1835C48.7982 12 51 14.2857 51 17V22Z" fill="#34A853"/>
<path d="M51 26.0537H21V21.0537C21 18.3394 23.2018 16.0537 25.8165 16.0537H46.1835C48.7982 16.0537 51 18.3394 51 21.0537V26.0537Z" fill="#FBBC04"/>
<path d="M51 30.2468H21V25.2468C21 22.5325 23.2018 20.2468 25.8165 20.2468H46.1835C48.7982 20.2468 51 22.5325 51 25.2468V30.2468Z" fill="#EA4335"/>
<path d="M21 23.2752L40.0411 27.6789C42.2329 28.2294 44.6986 27.6789 46.4795 26.3028L51 23V33.3211C51 35.9358 48.8082 38 46.2055 38H25.7945C23.1918 38 21 35.9358 21 33.3211V23.2752Z" fill="#4285F4"/>
<path d="M64.62 32V17.68H67.58L71.76 28.58H71.88L76.08 17.68H79.04V32H76.88V23.9L77 21.36H76.88L72.7 32H70.96L66.78 21.36H66.66L66.78 23.9V32H64.62ZM86.5209 32.32C85.4676 32.32 84.5409 32.08 83.7409 31.6C82.9409 31.12 82.3143 30.4733 81.8609 29.66C81.4076 28.8333 81.1809 27.9133 81.1809 26.9C81.1809 25.8867 81.4076 24.9733 81.8609 24.16C82.3143 23.3333 82.9409 22.68 83.7409 22.2C84.5409 21.72 85.4676 21.48 86.5209 21.48C87.5609 21.48 88.4809 21.7267 89.2809 22.22C90.0809 22.7 90.7076 23.3467 91.1609 24.16C91.6143 24.9733 91.8409 25.8867 91.8409 26.9C91.8409 27.9133 91.6143 28.8333 91.1609 29.66C90.7076 30.4733 90.0809 31.12 89.2809 31.6C88.4809 32.08 87.5609 32.32 86.5209 32.32ZM86.5209 30.34C87.0809 30.34 87.6009 30.2067 88.0809 29.94C88.5609 29.66 88.9476 29.2667 89.2409 28.76C89.5476 28.24 89.7009 27.62 89.7009 26.9C89.7009 26.18 89.5476 25.5667 89.2409 25.06C88.9476 24.54 88.5609 24.1467 88.0809 23.88C87.6009 23.6 87.0809 23.46 86.5209 23.46C85.9609 23.46 85.4343 23.6 84.9409 23.88C84.4609 24.1467 84.0676 24.54 83.7609 25.06C83.4676 25.5667 83.3209 26.18 83.3209 26.9C83.3209 27.62 83.4676 28.24 83.7609 28.76C84.0676 29.2667 84.4676 29.66 84.9609 29.94C85.4543 30.2067 85.9743 30.34 86.5209 30.34ZM97.4527 32.32C96.6393 32.32 95.9327 32.2 95.3327 31.96C94.7327 31.7067 94.2393 31.3733 93.8527 30.96C93.466 30.5333 93.1793 30.0733 92.9927 29.58L94.9327 28.74C95.1727 29.2867 95.5127 29.7067 95.9527 30C96.406 30.28 96.926 30.42 97.5127 30.42C98.046 30.42 98.506 30.3267 98.8927 30.14C99.2793 29.94 99.4727 29.62 99.4727 29.18C99.4727 28.9 99.3793 28.6733 99.1927 28.5C99.0193 28.3133 98.7793 28.16 98.4727 28.04C98.1793 27.92 97.8393 27.8133 97.4527 27.72L96.2327 27.44C95.7527 27.32 95.2927 27.1333 94.8527 26.88C94.426 26.6133 94.0793 26.28 93.8127 25.88C93.546 25.48 93.4127 25.0067 93.4127 24.46C93.4127 23.8467 93.586 23.32 93.9327 22.88C94.2927 22.4267 94.7727 22.08 95.3727 21.84C95.9727 21.6 96.6193 21.48 97.3127 21.48C97.9527 21.48 98.5327 21.5667 99.0527 21.74C99.586 21.9 100.046 22.1467 100.433 22.48C100.833 22.8 101.146 23.2 101.373 23.68L99.5127 24.52C99.286 24.0667 98.9793 23.7533 98.5927 23.58C98.206 23.3933 97.786 23.3 97.3327 23.3C96.826 23.3 96.3993 23.4067 96.0527 23.62C95.7193 23.82 95.5527 24.0867 95.5527 24.42C95.5527 24.7667 95.6993 25.04 95.9927 25.24C96.2993 25.44 96.6727 25.6 97.1127 25.72L98.5927 26.08C99.606 26.3333 100.366 26.72 100.873 27.24C101.379 27.7467 101.633 28.3667 101.633 29.1C101.633 29.7533 101.446 30.3267 101.073 30.82C100.699 31.3 100.193 31.6733 99.5527 31.94C98.926 32.1933 98.226 32.32 97.4527 32.32ZM102.72 21.8H104.5V18.92H106.66V21.8H109.16V23.68H106.66V28.58C106.66 29.0867 106.76 29.4733 106.96 29.74C107.173 30.0067 107.527 30.14 108.02 30.14C108.26 30.14 108.473 30.1067 108.66 30.04C108.847 29.96 109.033 29.8667 109.22 29.76V31.86C108.993 31.9533 108.753 32.0267 108.5 32.08C108.247 32.1333 107.947 32.16 107.6 32.16C106.653 32.16 105.9 31.8867 105.34 31.34C104.78 30.78 104.5 30.0133 104.5 29.04V23.68H102.72V21.8ZM111.233 32V21.8H113.273V23.3H113.393C113.553 22.9533 113.779 22.6467 114.073 22.38C114.379 22.1133 114.726 21.9 115.113 21.74C115.513 21.58 115.926 21.5 116.353 21.5C116.633 21.5 116.866 21.52 117.053 21.56C117.253 21.5867 117.433 21.6333 117.593 21.7V23.94C117.339 23.8333 117.079 23.7467 116.813 23.68C116.559 23.6133 116.293 23.58 116.013 23.58C115.506 23.58 115.053 23.72 114.653 24C114.266 24.2667 113.959 24.6267 113.733 25.08C113.506 25.5333 113.393 26.04 113.393 26.6V32H111.233ZM122.108 32.32C121.375 32.32 120.722 32.1733 120.148 31.88C119.588 31.5867 119.142 31.1867 118.808 30.68C118.488 30.16 118.328 29.5667 118.328 28.9C118.328 28.1667 118.515 27.5467 118.888 27.04C119.275 26.5333 119.788 26.1467 120.428 25.88C121.068 25.6133 121.775 25.48 122.548 25.48C122.975 25.48 123.368 25.5133 123.728 25.58C124.102 25.6333 124.422 25.7 124.688 25.78C124.968 25.86 125.188 25.9467 125.348 26.04V25.5C125.348 24.8333 125.108 24.3 124.628 23.9C124.148 23.5 123.528 23.3 122.768 23.3C122.248 23.3 121.755 23.42 121.288 23.66C120.822 23.8867 120.448 24.2 120.168 24.6L118.688 23.46C118.982 23.0467 119.335 22.6933 119.748 22.4C120.175 22.1067 120.648 21.88 121.168 21.72C121.702 21.56 122.255 21.48 122.828 21.48C124.308 21.48 125.448 21.8467 126.248 22.58C127.048 23.3 127.448 24.3133 127.448 25.62V32H125.348V30.74H125.228C125.055 31.0067 124.815 31.26 124.508 31.5C124.215 31.74 123.862 31.9333 123.448 32.08C123.048 32.24 122.602 32.32 122.108 32.32ZM122.488 30.56C123.048 30.56 123.542 30.4267 123.968 30.16C124.408 29.8933 124.748 29.5467 124.988 29.12C125.228 28.68 125.348 28.2067 125.348 27.7C125.055 27.5267 124.695 27.3867 124.268 27.28C123.855 27.16 123.415 27.1 122.948 27.1C122.068 27.1 121.442 27.2733 121.068 27.62C120.695 27.9667 120.508 28.4 120.508 28.92C120.508 29.4 120.688 29.7933 121.048 30.1C121.408 30.4067 121.888 30.56 122.488 30.56ZM137.694 32.32C136.961 32.32 136.308 32.1733 135.734 31.88C135.174 31.5867 134.728 31.1867 134.394 30.68C134.074 30.16 133.914 29.5667 133.914 28.9C133.914 28.1667 134.101 27.5467 134.474 27.04C134.861 26.5333 135.374 26.1467 136.014 25.88C136.654 25.6133 137.361 25.48 138.134 25.48C138.561 25.48 138.954 25.5133 139.314 25.58C139.688 25.6333 140.008 25.7 140.274 25.78C140.554 25.86 140.774 25.9467 140.934 26.04V25.5C140.934 24.8333 140.694 24.3 140.214 23.9C139.734 23.5 139.114 23.3 138.354 23.3C137.834 23.3 137.341 23.42 136.874 23.66C136.408 23.8867 136.034 24.2 135.754 24.6L134.274 23.46C134.568 23.0467 134.921 22.6933 135.334 22.4C135.761 22.1067 136.234 21.88 136.754 21.72C137.288 21.56 137.841 21.48 138.414 21.48C139.894 21.48 141.034 21.8467 141.834 22.58C142.634 23.3 143.034 24.3133 143.034 25.62V32H140.934V30.74H140.814C140.641 31.0067 140.401 31.26 140.094 31.5C139.801 31.74 139.448 31.9333 139.034 32.08C138.634 32.24 138.188 32.32 137.694 32.32ZM138.074 30.56C138.634 30.56 139.128 30.4267 139.554 30.16C139.994 29.8933 140.334 29.5467 140.574 29.12C140.814 28.68 140.934 28.2067 140.934 27.7C140.641 27.5267 140.281 27.3867 139.854 27.28C139.441 27.16 139.001 27.1 138.534 27.1C137.654 27.1 137.028 27.2733 136.654 27.62C136.281 27.9667 136.094 28.4 136.094 28.92C136.094 29.4 136.274 29.7933 136.634 30.1C136.994 30.4067 137.474 30.56 138.074 30.56Z" fill="white"/>
<path d="M158.4 32.32C157.373 32.32 156.407 32.1333 155.5 31.76C154.593 31.3867 153.793 30.8667 153.1 30.2C152.42 29.52 151.88 28.7267 151.48 27.82C151.093 26.9 150.9 25.9067 150.9 24.84C150.9 23.7733 151.093 22.7867 151.48 21.88C151.88 20.96 152.42 20.1667 153.1 19.5C153.793 18.82 154.593 18.2933 155.5 17.92C156.407 17.5467 157.373 17.36 158.4 17.36C159.493 17.36 160.5 17.5533 161.42 17.94C162.353 18.3267 163.133 18.8667 163.76 19.56L162.24 21.06C161.933 20.7133 161.58 20.42 161.18 20.18C160.793 19.94 160.367 19.76 159.9 19.64C159.433 19.5067 158.933 19.44 158.4 19.44C157.693 19.44 157.02 19.5667 156.38 19.82C155.74 20.0733 155.173 20.44 154.68 20.92C154.2 21.3867 153.82 21.9533 153.54 22.62C153.26 23.2733 153.12 24.0133 153.12 24.84C153.12 25.6667 153.26 26.4133 153.54 27.08C153.833 27.7333 154.22 28.3 154.7 28.78C155.193 29.2467 155.76 29.6067 156.4 29.86C157.04 30.1133 157.713 30.24 158.42 30.24C159.073 30.24 159.68 30.1467 160.24 29.96C160.813 29.7733 161.313 29.5067 161.74 29.16C162.167 28.8133 162.513 28.3933 162.78 27.9C163.047 27.3933 163.213 26.8267 163.28 26.2H158.38V24.26H165.34C165.367 24.42 165.393 24.6067 165.42 24.82C165.447 25.02 165.46 25.2133 165.46 25.4V25.42C165.46 26.4467 165.28 27.3867 164.92 28.24C164.573 29.0933 164.087 29.8267 163.46 30.44C162.833 31.04 162.087 31.5067 161.22 31.84C160.367 32.16 159.427 32.32 158.4 32.32ZM171.9 32.32C170.847 32.32 169.92 32.08 169.12 31.6C168.32 31.12 167.693 30.4733 167.24 29.66C166.787 28.8333 166.56 27.9133 166.56 26.9C166.56 25.8867 166.787 24.9733 167.24 24.16C167.693 23.3333 168.32 22.68 169.12 22.2C169.92 21.72 170.847 21.48 171.9 21.48C172.94 21.48 173.86 21.7267 174.66 22.22C175.46 22.7 176.087 23.3467 176.54 24.16C176.993 24.9733 177.22 25.8867 177.22 26.9C177.22 27.9133 176.993 28.8333 176.54 29.66C176.087 30.4733 175.46 31.12 174.66 31.6C173.86 32.08 172.94 32.32 171.9 32.32ZM171.9 30.34C172.46 30.34 172.98 30.2067 173.46 29.94C173.94 29.66 174.327 29.2667 174.62 28.76C174.927 28.24 175.08 27.62 175.08 26.9C175.08 26.18 174.927 25.5667 174.62 25.06C174.327 24.54 173.94 24.1467 173.46 23.88C172.98 23.6 172.46 23.46 171.9 23.46C171.34 23.46 170.813 23.6 170.32 23.88C169.84 24.1467 169.447 24.54 169.14 25.06C168.847 25.5667 168.7 26.18 168.7 26.9C168.7 27.62 168.847 28.24 169.14 28.76C169.447 29.2667 169.847 29.66 170.34 29.94C170.833 30.2067 171.353 30.34 171.9 30.34ZM184.009 32.32C182.956 32.32 182.029 32.08 181.229 31.6C180.429 31.12 179.803 30.4733 179.349 29.66C178.896 28.8333 178.669 27.9133 178.669 26.9C178.669 25.8867 178.896 24.9733 179.349 24.16C179.803 23.3333 180.429 22.68 181.229 22.2C182.029 21.72 182.956 21.48 184.009 21.48C185.049 21.48 185.969 21.7267 186.769 22.22C187.569 22.7 188.196 23.3467 188.649 24.16C189.103 24.9733 189.329 25.8867 189.329 26.9C189.329 27.9133 189.103 28.8333 188.649 29.66C188.196 30.4733 187.569 31.12 186.769 31.6C185.969 32.08 185.049 32.32 184.009 32.32ZM184.009 30.34C184.569 30.34 185.089 30.2067 185.569 29.94C186.049 29.66 186.436 29.2667 186.729 28.76C187.036 28.24 187.189 27.62 187.189 26.9C187.189 26.18 187.036 25.5667 186.729 25.06C186.436 24.54 186.049 24.1467 185.569 23.88C185.089 23.6 184.569 23.46 184.009 23.46C183.449 23.46 182.923 23.6 182.429 23.88C181.949 24.1467 181.556 24.54 181.249 25.06C180.956 25.5667 180.809 26.18 180.809 26.9C180.809 27.62 180.956 28.24 181.249 28.76C181.556 29.2667 181.956 29.66 182.449 29.94C182.943 30.2067 183.463 30.34 184.009 30.34ZM195.919 36.64C195.025 36.64 194.252 36.4933 193.599 36.2C192.959 35.92 192.439 35.5533 192.039 35.1C191.639 34.66 191.352 34.2067 191.179 33.74L193.179 32.9C193.392 33.4333 193.732 33.8667 194.199 34.2C194.679 34.5467 195.252 34.72 195.919 34.72C196.865 34.72 197.605 34.44 198.139 33.88C198.672 33.32 198.939 32.5267 198.939 31.5V30.52H198.819C198.499 30.9867 198.059 31.3667 197.499 31.66C196.939 31.9533 196.292 32.1 195.559 32.1C194.692 32.1 193.892 31.88 193.159 31.44C192.439 31 191.859 30.3867 191.419 29.6C190.992 28.8 190.779 27.8667 190.779 26.8C190.779 25.72 190.992 24.7867 191.419 24C191.859 23.2 192.439 22.58 193.159 22.14C193.892 21.7 194.692 21.48 195.559 21.48C196.292 21.48 196.939 21.6267 197.499 21.92C198.059 22.2 198.499 22.5867 198.819 23.08H198.939V21.8H200.999V31.46C200.999 32.5667 200.779 33.5067 200.339 34.28C199.912 35.0533 199.319 35.64 198.559 36.04C197.799 36.44 196.919 36.64 195.919 36.64ZM195.939 30.14C196.472 30.14 196.965 30.0133 197.419 29.76C197.885 29.4933 198.252 29.1133 198.519 28.62C198.799 28.1133 198.939 27.5067 198.939 26.8C198.939 26.0533 198.799 25.4333 198.519 24.94C198.252 24.4467 197.885 24.0733 197.419 23.82C196.965 23.5667 196.472 23.44 195.939 23.44C195.405 23.44 194.905 23.5667 194.439 23.82C193.985 24.0733 193.619 24.4533 193.339 24.96C193.059 25.4533 192.919 26.0667 192.919 26.8C192.919 27.52 193.059 28.1333 193.339 28.64C193.619 29.1333 193.985 29.5067 194.439 29.76C194.905 30.0133 195.405 30.14 195.939 30.14ZM203.546 32V17.68H205.706V32H203.546ZM212.815 32.32C211.815 32.32 210.921 32.0867 210.135 31.62C209.348 31.1533 208.728 30.5133 208.275 29.7C207.835 28.8867 207.615 27.96 207.615 26.92C207.615 25.9467 207.828 25.0467 208.255 24.22C208.681 23.3933 209.275 22.7333 210.035 22.24C210.808 21.7333 211.695 21.48 212.695 21.48C213.748 21.48 214.641 21.7067 215.375 22.16C216.121 22.6133 216.688 23.2333 217.075 24.02C217.461 24.8067 217.655 25.6933 217.655 26.68C217.655 26.8267 217.648 26.96 217.635 27.08C217.635 27.2 217.628 27.2933 217.615 27.36H209.735C209.788 27.92 209.928 28.4067 210.155 28.82C210.448 29.34 210.835 29.7333 211.315 30C211.795 30.2667 212.315 30.4 212.875 30.4C213.555 30.4 214.121 30.2467 214.575 29.94C215.041 29.62 215.408 29.2267 215.675 28.76L217.455 29.62C217.015 30.42 216.415 31.0733 215.655 31.58C214.895 32.0733 213.948 32.32 212.815 32.32ZM209.855 25.74H215.515C215.501 25.4867 215.435 25.22 215.315 24.94C215.195 24.6467 215.021 24.38 214.795 24.14C214.568 23.9 214.281 23.7067 213.935 23.56C213.588 23.4 213.181 23.32 212.715 23.32C212.128 23.32 211.608 23.4733 211.155 23.78C210.701 24.0733 210.348 24.4867 210.095 25.02C209.988 25.2467 209.908 25.4867 209.855 25.74ZM226.446 32L222.606 17.68H225.046L227.326 26.98L227.566 28.22H227.686L227.986 26.98L230.866 17.68H233.066L235.826 26.98L236.126 28.2H236.246L236.486 26.98L238.766 17.68H241.186L237.406 32H235.086L232.346 22.5L232.026 21.16H231.906L231.566 22.5L228.706 32H226.446ZM245.202 32.32C244.469 32.32 243.816 32.1733 243.242 31.88C242.682 31.5867 242.236 31.1867 241.902 30.68C241.582 30.16 241.422 29.5667 241.422 28.9C241.422 28.1667 241.609 27.5467 241.982 27.04C242.369 26.5333 242.882 26.1467 243.522 25.88C244.162 25.6133 244.869 25.48 245.642 25.48C246.069 25.48 246.462 25.5133 246.822 25.58C247.196 25.6333 247.516 25.7 247.782 25.78C248.062 25.86 248.282 25.9467 248.442 26.04V25.5C248.442 24.8333 248.202 24.3 247.722 23.9C247.242 23.5 246.622 23.3 245.862 23.3C245.342 23.3 244.849 23.42 244.382 23.66C243.916 23.8867 243.542 24.2 243.262 24.6L241.782 23.46C242.076 23.0467 242.429 22.6933 242.842 22.4C243.269 22.1067 243.742 21.88 244.262 21.72C244.796 21.56 245.349 21.48 245.922 21.48C247.402 21.48 248.542 21.8467 249.342 22.58C250.142 23.3 250.542 24.3133 250.542 25.62V32H248.442V30.74H248.322C248.149 31.0067 247.909 31.26 247.602 31.5C247.309 31.74 246.956 31.9333 246.542 32.08C246.142 32.24 245.696 32.32 245.202 32.32ZM245.582 30.56C246.142 30.56 246.636 30.4267 247.062 30.16C247.502 29.8933 247.842 29.5467 248.082 29.12C248.322 28.68 248.442 28.2067 248.442 27.7C248.149 27.5267 247.789 27.3867 247.362 27.28C246.949 27.16 246.509 27.1 246.042 27.1C245.162 27.1 244.536 27.2733 244.162 27.62C243.789 27.9667 243.602 28.4 243.602 28.92C243.602 29.4 243.782 29.7933 244.142 30.1C244.502 30.4067 244.982 30.56 245.582 30.56ZM252.94 32V17.68H255.1V32H252.94ZM257.667 32V17.68H259.827V32H257.667ZM266.936 32.32C265.936 32.32 265.042 32.0867 264.256 31.62C263.469 31.1533 262.849 30.5133 262.396 29.7C261.956 28.8867 261.736 27.96 261.736 26.92C261.736 25.9467 261.949 25.0467 262.376 24.22C262.802 23.3933 263.396 22.7333 264.156 22.24C264.929 21.7333 265.816 21.48 266.816 21.48C267.869 21.48 268.762 21.7067 269.496 22.16C270.242 22.6133 270.809 23.2333 271.196 24.02C271.582 24.8067 271.776 25.6933 271.776 26.68C271.776 26.8267 271.769 26.96 271.756 27.08C271.756 27.2 271.749 27.2933 271.736 27.36H263.856C263.909 27.92 264.049 28.4067 264.276 28.82C264.569 29.34 264.956 29.7333 265.436 30C265.916 30.2667 266.436 30.4 266.996 30.4C267.676 30.4 268.242 30.2467 268.696 29.94C269.162 29.62 269.529 29.2267 269.796 28.76L271.576 29.62C271.136 30.42 270.536 31.0733 269.776 31.58C269.016 32.0733 268.069 32.32 266.936 32.32ZM263.976 25.74H269.636C269.622 25.4867 269.556 25.22 269.436 24.94C269.316 24.6467 269.142 24.38 268.916 24.14C268.689 23.9 268.402 23.7067 268.056 23.56C267.709 23.4 267.302 23.32 266.836 23.32C266.249 23.32 265.729 23.4733 265.276 23.78C264.822 24.0733 264.469 24.4867 264.216 25.02C264.109 25.2467 264.029 25.4867 263.976 25.74ZM272.787 21.8H274.567V18.92H276.727V21.8H279.227V23.68H276.727V28.58C276.727 29.0867 276.827 29.4733 277.027 29.74C277.24 30.0067 277.593 30.14 278.087 30.14C278.327 30.14 278.54 30.1067 278.727 30.04C278.913 29.96 279.1 29.8667 279.287 29.76V31.86C279.06 31.9533 278.82 32.0267 278.567 32.08C278.313 32.1333 278.013 32.16 277.667 32.16C276.72 32.16 275.967 31.8867 275.407 31.34C274.847 30.78 274.567 30.0133 274.567 29.04V23.68H272.787V21.8Z" fill="white"/>
</svg>
