<svg width="356" height="50" viewBox="0 0 356 50" fill="none" xmlns="http://www.w3.org/2000/svg">
<rect x="0.5" y="0.5" width="355" height="49" rx="24.5" fill="#1F1F1F"/>
<rect x="0.5" y="0.5" width="355" height="49" rx="24.5" stroke="#747775"/>
<path d="M51 22H21V17C21 14.2857 23.2018 12 25.8165 12H46.1835C48.7982 12 51 14.2857 51 17V22Z" fill="#34A853"/>
<path d="M51 26.0537H21V21.0537C21 18.3394 23.2018 16.0537 25.8165 16.0537H46.1835C48.7982 16.0537 51 18.3394 51 21.0537V26.0537Z" fill="#FBBC04"/>
<path d="M51 30.2468H21V25.2468C21 22.5325 23.2018 20.2468 25.8165 20.2468H46.1835C48.7982 20.2468 51 22.5325 51 25.2468V30.2468Z" fill="#EA4335"/>
<path d="M21 23.2752L40.0411 27.6789C42.2329 28.2294 44.6986 27.6789 46.4795 26.3028L51 23V33.3211C51 35.9358 48.8082 38 46.2055 38H25.7945C23.1918 38 21 35.9358 21 33.3211V23.2752Z" fill="#4285F4"/>
<path d="M63.76 32V29.76L71.26 19.76H64.08V17.68H73.8V19.92L66.36 29.92H73.88V32H63.76ZM80.6811 32.32C79.6278 32.32 78.7011 32.08 77.9011 31.6C77.1011 31.12 76.4744 30.4733 76.0211 29.66C75.5678 28.8333 75.3411 27.9133 75.3411 26.9C75.3411 25.8867 75.5678 24.9733 76.0211 24.16C76.4744 23.3333 77.1011 22.68 77.9011 22.2C78.7011 21.72 79.6278 21.48 80.6811 21.48C81.7211 21.48 82.6411 21.7267 83.4411 22.22C84.2411 22.7 84.8678 23.3467 85.3211 24.16C85.7744 24.9733 86.0011 25.8867 86.0011 26.9C86.0011 27.9133 85.7744 28.8333 85.3211 29.66C84.8678 30.4733 84.2411 31.12 83.4411 31.6C82.6411 32.08 81.7211 32.32 80.6811 32.32ZM80.6811 30.34C81.2411 30.34 81.7611 30.2067 82.2411 29.94C82.7211 29.66 83.1078 29.2667 83.4011 28.76C83.7078 28.24 83.8611 27.62 83.8611 26.9C83.8611 26.18 83.7078 25.5667 83.4011 25.06C83.1078 24.54 82.7211 24.1467 82.2411 23.88C81.7611 23.6 81.2411 23.46 80.6811 23.46C80.1211 23.46 79.5944 23.6 79.1011 23.88C78.6211 24.1467 78.2278 24.54 77.9211 25.06C77.6278 25.5667 77.4811 26.18 77.4811 26.9C77.4811 27.62 77.6278 28.24 77.9211 28.76C78.2278 29.2667 78.6278 29.66 79.1211 29.94C79.6144 30.2067 80.1344 30.34 80.6811 30.34ZM93.3328 32.32C92.8128 32.32 92.3395 32.24 91.9128 32.08C91.4861 31.92 91.1128 31.7133 90.7928 31.46C90.4861 31.1933 90.2395 30.92 90.0528 30.64H89.9328V32H87.8928V17.68H90.0528V21.76L89.9328 23.18H90.0528C90.2395 22.8867 90.4861 22.6133 90.7928 22.36C91.1128 22.0933 91.4861 21.88 91.9128 21.72C92.3395 21.56 92.8128 21.48 93.3328 21.48C94.2661 21.48 95.0995 21.7133 95.8328 22.18C96.5661 22.6467 97.1461 23.2867 97.5728 24.1C98.0128 24.9133 98.2328 25.8467 98.2328 26.9C98.2328 27.9533 98.0128 28.8867 97.5728 29.7C97.1461 30.5133 96.5661 31.1533 95.8328 31.62C95.0995 32.0867 94.2661 32.32 93.3328 32.32ZM93.0128 30.34C93.5461 30.34 94.0461 30.2 94.5128 29.92C94.9928 29.64 95.3728 29.24 95.6528 28.72C95.9461 28.2 96.0928 27.5933 96.0928 26.9C96.0928 26.1933 95.9461 25.5867 95.6528 25.08C95.3728 24.56 94.9928 24.16 94.5128 23.88C94.0461 23.6 93.5461 23.46 93.0128 23.46C92.4795 23.46 91.9795 23.6 91.5128 23.88C91.0461 24.16 90.6661 24.56 90.3728 25.08C90.0795 25.5867 89.9328 26.1933 89.9328 26.9C89.9328 27.6067 90.0795 28.22 90.3728 28.74C90.6661 29.2467 91.0461 29.64 91.5128 29.92C91.9795 30.2 92.4795 30.34 93.0128 30.34ZM100.022 32V21.8H102.062V23.3H102.182C102.342 22.9533 102.568 22.6467 102.862 22.38C103.168 22.1133 103.515 21.9 103.902 21.74C104.302 21.58 104.715 21.5 105.142 21.5C105.422 21.5 105.655 21.52 105.842 21.56C106.042 21.5867 106.222 21.6333 106.382 21.7V23.94C106.128 23.8333 105.868 23.7467 105.602 23.68C105.348 23.6133 105.082 23.58 104.802 23.58C104.295 23.58 103.842 23.72 103.442 24C103.055 24.2667 102.748 24.6267 102.522 25.08C102.295 25.5333 102.182 26.04 102.182 26.6V32H100.022ZM110.898 32.32C110.164 32.32 109.511 32.1733 108.938 31.88C108.378 31.5867 107.931 31.1867 107.598 30.68C107.278 30.16 107.118 29.5667 107.118 28.9C107.118 28.1667 107.304 27.5467 107.678 27.04C108.064 26.5333 108.578 26.1467 109.218 25.88C109.858 25.6133 110.564 25.48 111.338 25.48C111.764 25.48 112.158 25.5133 112.518 25.58C112.891 25.6333 113.211 25.7 113.478 25.78C113.758 25.86 113.978 25.9467 114.138 26.04V25.5C114.138 24.8333 113.898 24.3 113.418 23.9C112.938 23.5 112.318 23.3 111.558 23.3C111.038 23.3 110.544 23.42 110.078 23.66C109.611 23.8867 109.238 24.2 108.958 24.6L107.478 23.46C107.771 23.0467 108.124 22.6933 108.538 22.4C108.964 22.1067 109.438 21.88 109.958 21.72C110.491 21.56 111.044 21.48 111.618 21.48C113.098 21.48 114.238 21.8467 115.038 22.58C115.838 23.3 116.238 24.3133 116.238 25.62V32H114.138V30.74H114.018C113.844 31.0067 113.604 31.26 113.298 31.5C113.004 31.74 112.651 31.9333 112.238 32.08C111.838 32.24 111.391 32.32 110.898 32.32ZM111.278 30.56C111.838 30.56 112.331 30.4267 112.758 30.16C113.198 29.8933 113.538 29.5467 113.778 29.12C114.018 28.68 114.138 28.2067 114.138 27.7C113.844 27.5267 113.484 27.3867 113.058 27.28C112.644 27.16 112.204 27.1 111.738 27.1C110.858 27.1 110.231 27.2733 109.858 27.62C109.484 27.9667 109.298 28.4 109.298 28.92C109.298 29.4 109.478 29.7933 109.838 30.1C110.198 30.4067 110.678 30.56 111.278 30.56ZM118.076 32V30.2L123.756 23.68H118.256V21.8H126.396V23.6L120.736 30.12H126.556V32H118.076ZM128.932 32V21.8H131.092V32H128.932ZM130.012 20.3C129.612 20.3 129.265 20.16 128.972 19.88C128.692 19.5867 128.552 19.24 128.552 18.84C128.552 18.4267 128.692 18.0867 128.972 17.82C129.265 17.54 129.612 17.4 130.012 17.4C130.425 17.4 130.772 17.54 131.052 17.82C131.332 18.0867 131.472 18.4267 131.472 18.84C131.472 19.24 131.332 19.5867 131.052 19.88C130.772 20.16 130.425 20.3 130.012 20.3ZM132.974 21.8H134.754V18.92H136.914V21.8H139.414V23.68H136.914V28.58C136.914 29.0867 137.014 29.4733 137.214 29.74C137.427 30.0067 137.781 30.14 138.274 30.14C138.514 30.14 138.727 30.1067 138.914 30.04C139.101 29.96 139.287 29.8667 139.474 29.76V31.86C139.247 31.9533 139.007 32.0267 138.754 32.08C138.501 32.1333 138.201 32.16 137.854 32.16C136.907 32.16 136.154 31.8867 135.594 31.34C135.034 30.78 134.754 30.0133 134.754 29.04V23.68H132.974V21.8ZM149.255 32L145.035 21.8H147.435L150.295 29.22H150.395L153.315 21.8H155.675L151.415 32H149.255Z" fill="white"/>
<path d="M162.62 32V17.68H167.54C168.407 17.68 169.193 17.8667 169.9 18.24C170.607 18.6 171.167 19.1133 171.58 19.78C172.007 20.4333 172.22 21.1933 172.22 22.06C172.22 22.9133 172.007 23.6733 171.58 24.34C171.167 25.0067 170.607 25.5267 169.9 25.9C169.193 26.26 168.407 26.44 167.54 26.44H164.82V32H162.62ZM164.82 24.36H167.6C168.12 24.36 168.56 24.2533 168.92 24.04C169.28 23.8133 169.553 23.5267 169.74 23.18C169.94 22.82 170.04 22.4467 170.04 22.06C170.04 21.6733 169.94 21.3067 169.74 20.96C169.553 20.6133 169.28 20.3267 168.92 20.1C168.56 19.8733 168.12 19.76 167.6 19.76H164.82V24.36ZM178.072 32.32C177.072 32.32 176.179 32.0867 175.392 31.62C174.606 31.1533 173.986 30.5133 173.532 29.7C173.092 28.8867 172.872 27.96 172.872 26.92C172.872 25.9467 173.086 25.0467 173.512 24.22C173.939 23.3933 174.532 22.7333 175.292 22.24C176.066 21.7333 176.952 21.48 177.952 21.48C179.006 21.48 179.899 21.7067 180.632 22.16C181.379 22.6133 181.946 23.2333 182.332 24.02C182.719 24.8067 182.912 25.6933 182.912 26.68C182.912 26.8267 182.906 26.96 182.892 27.08C182.892 27.2 182.886 27.2933 182.872 27.36H174.992C175.046 27.92 175.186 28.4067 175.412 28.82C175.706 29.34 176.092 29.7333 176.572 30C177.052 30.2667 177.572 30.4 178.132 30.4C178.812 30.4 179.379 30.2467 179.832 29.94C180.299 29.62 180.666 29.2267 180.932 28.76L182.712 29.62C182.272 30.42 181.672 31.0733 180.912 31.58C180.152 32.0733 179.206 32.32 178.072 32.32ZM175.112 25.74H180.772C180.759 25.4867 180.692 25.22 180.572 24.94C180.452 24.6467 180.279 24.38 180.052 24.14C179.826 23.9 179.539 23.7067 179.192 23.56C178.846 23.4 178.439 23.32 177.972 23.32C177.386 23.32 176.866 23.4733 176.412 23.78C175.959 24.0733 175.606 24.4867 175.352 25.02C175.246 25.2467 175.166 25.4867 175.112 25.74ZM184.916 32V21.8H186.956V23.2H187.076C187.37 22.7067 187.803 22.3 188.376 21.98C188.963 21.6467 189.603 21.48 190.296 21.48C191.55 21.48 192.49 21.8533 193.116 22.6C193.743 23.3333 194.056 24.32 194.056 25.56V32H191.916V25.84C191.916 25.0133 191.71 24.4133 191.296 24.04C190.883 23.6533 190.343 23.46 189.676 23.46C189.156 23.46 188.703 23.6067 188.316 23.9C187.93 24.18 187.623 24.5533 187.396 25.02C187.183 25.4867 187.076 25.9867 187.076 26.52V32H184.916ZM201.178 32.32C200.178 32.32 199.284 32.0867 198.498 31.62C197.711 31.1533 197.091 30.5133 196.638 29.7C196.198 28.8867 195.978 27.96 195.978 26.92C195.978 25.9467 196.191 25.0467 196.618 24.22C197.044 23.3933 197.638 22.7333 198.398 22.24C199.171 21.7333 200.058 21.48 201.058 21.48C202.111 21.48 203.004 21.7067 203.738 22.16C204.484 22.6133 205.051 23.2333 205.438 24.02C205.824 24.8067 206.018 25.6933 206.018 26.68C206.018 26.8267 206.011 26.96 205.998 27.08C205.998 27.2 205.991 27.2933 205.978 27.36H198.098C198.151 27.92 198.291 28.4067 198.518 28.82C198.811 29.34 199.198 29.7333 199.678 30C200.158 30.2667 200.678 30.4 201.238 30.4C201.918 30.4 202.484 30.2467 202.938 29.94C203.404 29.62 203.771 29.2267 204.038 28.76L205.818 29.62C205.378 30.42 204.778 31.0733 204.018 31.58C203.258 32.0733 202.311 32.32 201.178 32.32ZM198.218 25.74H203.878C203.864 25.4867 203.798 25.22 203.678 24.94C203.558 24.6467 203.384 24.38 203.158 24.14C202.931 23.9 202.644 23.7067 202.298 23.56C201.951 23.4 201.544 23.32 201.078 23.32C200.491 23.32 199.971 23.4733 199.518 23.78C199.064 24.0733 198.711 24.4867 198.458 25.02C198.351 25.2467 198.271 25.4867 198.218 25.74ZM200.118 19.84L197.978 17.42V17.28H200.038L200.958 18.52H201.158L202.098 17.28H204.178V17.42L202.018 19.84H200.118ZM207.404 32V30.2L213.084 23.68H207.584V21.8H215.724V23.6L210.064 30.12H215.884V32H207.404ZM210.724 19.84L208.584 17.42V17.28H210.644L211.564 18.52H211.764L212.704 17.28H214.784V17.42L212.624 19.84H210.724ZM222.369 32.32C221.369 32.32 220.476 32.0867 219.689 31.62C218.903 31.1533 218.283 30.5133 217.829 29.7C217.389 28.8867 217.169 27.96 217.169 26.92C217.169 25.9467 217.383 25.0467 217.809 24.22C218.236 23.3933 218.829 22.7333 219.589 22.24C220.363 21.7333 221.249 21.48 222.249 21.48C223.303 21.48 224.196 21.7067 224.929 22.16C225.676 22.6133 226.243 23.2333 226.629 24.02C227.016 24.8067 227.209 25.6933 227.209 26.68C227.209 26.8267 227.203 26.96 227.189 27.08C227.189 27.2 227.183 27.2933 227.169 27.36H219.289C219.343 27.92 219.483 28.4067 219.709 28.82C220.003 29.34 220.389 29.7333 220.869 30C221.349 30.2667 221.869 30.4 222.429 30.4C223.109 30.4 223.676 30.2467 224.129 29.94C224.596 29.62 224.963 29.2267 225.229 28.76L227.009 29.62C226.569 30.42 225.969 31.0733 225.209 31.58C224.449 32.0733 223.503 32.32 222.369 32.32ZM219.409 25.74H225.069C225.056 25.4867 224.989 25.22 224.869 24.94C224.749 24.6467 224.576 24.38 224.349 24.14C224.123 23.9 223.836 23.7067 223.489 23.56C223.143 23.4 222.736 23.32 222.269 23.32C221.683 23.32 221.163 23.4733 220.709 23.78C220.256 24.0733 219.903 24.4867 219.649 25.02C219.543 25.2467 219.463 25.4867 219.409 25.74ZM229.213 32V21.8H231.253V23.2H231.373C231.666 22.7067 232.1 22.3 232.673 21.98C233.26 21.6467 233.9 21.48 234.593 21.48C235.846 21.48 236.786 21.8533 237.413 22.6C238.04 23.3333 238.353 24.32 238.353 25.56V32H236.213V25.84C236.213 25.0133 236.006 24.4133 235.593 24.04C235.18 23.6533 234.64 23.46 233.973 23.46C233.453 23.46 233 23.6067 232.613 23.9C232.226 24.18 231.92 24.5533 231.693 25.02C231.48 25.4867 231.373 25.9867 231.373 26.52V32H229.213ZM245.535 32.32C244.508 32.32 243.595 32.0867 242.795 31.62C242.008 31.1533 241.388 30.5133 240.935 29.7C240.495 28.8733 240.275 27.94 240.275 26.9C240.275 25.86 240.495 24.9333 240.935 24.12C241.388 23.3067 242.008 22.6667 242.795 22.2C243.595 21.72 244.508 21.48 245.535 21.48C246.668 21.48 247.621 21.7333 248.395 22.24C249.181 22.7467 249.741 23.4333 250.075 24.3L248.115 25.1C247.875 24.5533 247.528 24.1467 247.075 23.88C246.635 23.6 246.108 23.46 245.495 23.46C244.935 23.46 244.421 23.6067 243.955 23.9C243.488 24.18 243.115 24.5733 242.835 25.08C242.555 25.5867 242.415 26.1933 242.415 26.9C242.415 27.5933 242.555 28.2 242.835 28.72C243.115 29.24 243.488 29.64 243.955 29.92C244.421 30.2 244.935 30.34 245.495 30.34C246.148 30.34 246.701 30.1933 247.155 29.9C247.608 29.6067 247.961 29.1933 248.215 28.66L250.135 29.5C249.761 30.3133 249.181 30.9867 248.395 31.52C247.621 32.0533 246.668 32.32 245.535 32.32ZM256.549 32.32C255.549 32.32 254.656 32.0867 253.869 31.62C253.082 31.1533 252.462 30.5133 252.009 29.7C251.569 28.8867 251.349 27.96 251.349 26.92C251.349 25.9467 251.562 25.0467 251.989 24.22C252.416 23.3933 253.009 22.7333 253.769 22.24C254.542 21.7333 255.429 21.48 256.429 21.48C257.482 21.48 258.376 21.7067 259.109 22.16C259.856 22.6133 260.422 23.2333 260.809 24.02C261.196 24.8067 261.389 25.6933 261.389 26.68C261.389 26.8267 261.382 26.96 261.369 27.08C261.369 27.2 261.362 27.2933 261.349 27.36H253.469C253.522 27.92 253.662 28.4067 253.889 28.82C254.182 29.34 254.569 29.7333 255.049 30C255.529 30.2667 256.049 30.4 256.609 30.4C257.289 30.4 257.856 30.2467 258.309 29.94C258.776 29.62 259.142 29.2267 259.409 28.76L261.189 29.62C260.749 30.42 260.149 31.0733 259.389 31.58C258.629 32.0733 257.682 32.32 256.549 32.32ZM253.589 25.74H259.249C259.236 25.4867 259.169 25.22 259.049 24.94C258.929 24.6467 258.756 24.38 258.529 24.14C258.302 23.9 258.016 23.7067 257.669 23.56C257.322 23.4 256.916 23.32 256.449 23.32C255.862 23.32 255.342 23.4733 254.889 23.78C254.436 24.0733 254.082 24.4867 253.829 25.02C253.722 25.2467 253.642 25.4867 253.589 25.74ZM274.81 32.32C273.783 32.32 272.817 32.1333 271.91 31.76C271.003 31.3867 270.203 30.8667 269.51 30.2C268.83 29.52 268.29 28.7267 267.89 27.82C267.503 26.9 267.31 25.9067 267.31 24.84C267.31 23.7733 267.503 22.7867 267.89 21.88C268.29 20.96 268.83 20.1667 269.51 19.5C270.203 18.82 271.003 18.2933 271.91 17.92C272.817 17.5467 273.783 17.36 274.81 17.36C275.903 17.36 276.91 17.5533 277.83 17.94C278.763 18.3267 279.543 18.8667 280.17 19.56L278.65 21.06C278.343 20.7133 277.99 20.42 277.59 20.18C277.203 19.94 276.777 19.76 276.31 19.64C275.843 19.5067 275.343 19.44 274.81 19.44C274.103 19.44 273.43 19.5667 272.79 19.82C272.15 20.0733 271.583 20.44 271.09 20.92C270.61 21.3867 270.23 21.9533 269.95 22.62C269.67 23.2733 269.53 24.0133 269.53 24.84C269.53 25.6667 269.67 26.4133 269.95 27.08C270.243 27.7333 270.63 28.3 271.11 28.78C271.603 29.2467 272.17 29.6067 272.81 29.86C273.45 30.1133 274.123 30.24 274.83 30.24C275.483 30.24 276.09 30.1467 276.65 29.96C277.223 29.7733 277.723 29.5067 278.15 29.16C278.577 28.8133 278.923 28.3933 279.19 27.9C279.457 27.3933 279.623 26.8267 279.69 26.2H274.79V24.26H281.75C281.777 24.42 281.803 24.6067 281.83 24.82C281.857 25.02 281.87 25.2133 281.87 25.4V25.42C281.87 26.4467 281.69 27.3867 281.33 28.24C280.983 29.0933 280.497 29.8267 279.87 30.44C279.243 31.04 278.497 31.5067 277.63 31.84C276.777 32.16 275.837 32.32 274.81 32.32ZM288.31 32.32C287.257 32.32 286.33 32.08 285.53 31.6C284.73 31.12 284.103 30.4733 283.65 29.66C283.197 28.8333 282.97 27.9133 282.97 26.9C282.97 25.8867 283.197 24.9733 283.65 24.16C284.103 23.3333 284.73 22.68 285.53 22.2C286.33 21.72 287.257 21.48 288.31 21.48C289.35 21.48 290.27 21.7267 291.07 22.22C291.87 22.7 292.497 23.3467 292.95 24.16C293.403 24.9733 293.63 25.8867 293.63 26.9C293.63 27.9133 293.403 28.8333 292.95 29.66C292.497 30.4733 291.87 31.12 291.07 31.6C290.27 32.08 289.35 32.32 288.31 32.32ZM288.31 30.34C288.87 30.34 289.39 30.2067 289.87 29.94C290.35 29.66 290.737 29.2667 291.03 28.76C291.337 28.24 291.49 27.62 291.49 26.9C291.49 26.18 291.337 25.5667 291.03 25.06C290.737 24.54 290.35 24.1467 289.87 23.88C289.39 23.6 288.87 23.46 288.31 23.46C287.75 23.46 287.223 23.6 286.73 23.88C286.25 24.1467 285.857 24.54 285.55 25.06C285.257 25.5667 285.11 26.18 285.11 26.9C285.11 27.62 285.257 28.24 285.55 28.76C285.857 29.2667 286.257 29.66 286.75 29.94C287.243 30.2067 287.763 30.34 288.31 30.34ZM300.419 32.32C299.366 32.32 298.439 32.08 297.639 31.6C296.839 31.12 296.213 30.4733 295.759 29.66C295.306 28.8333 295.079 27.9133 295.079 26.9C295.079 25.8867 295.306 24.9733 295.759 24.16C296.213 23.3333 296.839 22.68 297.639 22.2C298.439 21.72 299.366 21.48 300.419 21.48C301.459 21.48 302.379 21.7267 303.179 22.22C303.979 22.7 304.606 23.3467 305.059 24.16C305.513 24.9733 305.739 25.8867 305.739 26.9C305.739 27.9133 305.513 28.8333 305.059 29.66C304.606 30.4733 303.979 31.12 303.179 31.6C302.379 32.08 301.459 32.32 300.419 32.32ZM300.419 30.34C300.979 30.34 301.499 30.2067 301.979 29.94C302.459 29.66 302.846 29.2667 303.139 28.76C303.446 28.24 303.599 27.62 303.599 26.9C303.599 26.18 303.446 25.5667 303.139 25.06C302.846 24.54 302.459 24.1467 301.979 23.88C301.499 23.6 300.979 23.46 300.419 23.46C299.859 23.46 299.333 23.6 298.839 23.88C298.359 24.1467 297.966 24.54 297.659 25.06C297.366 25.5667 297.219 26.18 297.219 26.9C297.219 27.62 297.366 28.24 297.659 28.76C297.966 29.2667 298.366 29.66 298.859 29.94C299.353 30.2067 299.873 30.34 300.419 30.34ZM312.329 36.64C311.435 36.64 310.662 36.4933 310.009 36.2C309.369 35.92 308.849 35.5533 308.449 35.1C308.049 34.66 307.762 34.2067 307.589 33.74L309.589 32.9C309.802 33.4333 310.142 33.8667 310.609 34.2C311.089 34.5467 311.662 34.72 312.329 34.72C313.275 34.72 314.015 34.44 314.549 33.88C315.082 33.32 315.349 32.5267 315.349 31.5V30.52H315.229C314.909 30.9867 314.469 31.3667 313.909 31.66C313.349 31.9533 312.702 32.1 311.969 32.1C311.102 32.1 310.302 31.88 309.569 31.44C308.849 31 308.269 30.3867 307.829 29.6C307.402 28.8 307.189 27.8667 307.189 26.8C307.189 25.72 307.402 24.7867 307.829 24C308.269 23.2 308.849 22.58 309.569 22.14C310.302 21.7 311.102 21.48 311.969 21.48C312.702 21.48 313.349 21.6267 313.909 21.92C314.469 22.2 314.909 22.5867 315.229 23.08H315.349V21.8H317.409V31.46C317.409 32.5667 317.189 33.5067 316.749 34.28C316.322 35.0533 315.729 35.64 314.969 36.04C314.209 36.44 313.329 36.64 312.329 36.64ZM312.349 30.14C312.882 30.14 313.375 30.0133 313.829 29.76C314.295 29.4933 314.662 29.1133 314.929 28.62C315.209 28.1133 315.349 27.5067 315.349 26.8C315.349 26.0533 315.209 25.4333 314.929 24.94C314.662 24.4467 314.295 24.0733 313.829 23.82C313.375 23.5667 312.882 23.44 312.349 23.44C311.815 23.44 311.315 23.5667 310.849 23.82C310.395 24.0733 310.029 24.4533 309.749 24.96C309.469 25.4533 309.329 26.0667 309.329 26.8C309.329 27.52 309.469 28.1333 309.749 28.64C310.029 29.1333 310.395 29.5067 310.849 29.76C311.315 30.0133 311.815 30.14 312.349 30.14ZM319.956 32V17.68H322.116V32H319.956ZM329.225 32.32C328.225 32.32 327.331 32.0867 326.545 31.62C325.758 31.1533 325.138 30.5133 324.685 29.7C324.245 28.8867 324.025 27.96 324.025 26.92C324.025 25.9467 324.238 25.0467 324.665 24.22C325.091 23.3933 325.685 22.7333 326.445 22.24C327.218 21.7333 328.105 21.48 329.105 21.48C330.158 21.48 331.051 21.7067 331.785 22.16C332.531 22.6133 333.098 23.2333 333.485 24.02C333.871 24.8067 334.065 25.6933 334.065 26.68C334.065 26.8267 334.058 26.96 334.045 27.08C334.045 27.2 334.038 27.2933 334.025 27.36H326.145C326.198 27.92 326.338 28.4067 326.565 28.82C326.858 29.34 327.245 29.7333 327.725 30C328.205 30.2667 328.725 30.4 329.285 30.4C329.965 30.4 330.531 30.2467 330.985 29.94C331.451 29.62 331.818 29.2267 332.085 28.76L333.865 29.62C333.425 30.42 332.825 31.0733 332.065 31.58C331.305 32.0733 330.358 32.32 329.225 32.32ZM326.265 25.74H331.925C331.911 25.4867 331.845 25.22 331.725 24.94C331.605 24.6467 331.431 24.38 331.205 24.14C330.978 23.9 330.691 23.7067 330.345 23.56C329.998 23.4 329.591 23.32 329.125 23.32C328.538 23.32 328.018 23.4733 327.565 23.78C327.111 24.0733 326.758 24.4867 326.505 25.02C326.398 25.2467 326.318 25.4867 326.265 25.74Z" fill="white"/>
</svg>
