<svg width="323" height="50" viewBox="0 0 323 50" fill="none" xmlns="http://www.w3.org/2000/svg">
<rect x="0.5" y="0.5" width="322" height="49" rx="24.5" fill="#1F1F1F"/>
<rect x="0.5" y="0.5" width="322" height="49" rx="24.5" stroke="#747775"/>
<path d="M51 22H21V17C21 14.2857 23.2018 12 25.8165 12H46.1835C48.7982 12 51 14.2857 51 17V22Z" fill="#34A853"/>
<path d="M51 26.0537H21V21.0537C21 18.3394 23.2018 16.0537 25.8165 16.0537H46.1835C48.7982 16.0537 51 18.3394 51 21.0537V26.0537Z" fill="#FBBC04"/>
<path d="M51 30.2468H21V25.2468C21 22.5325 23.2018 20.2468 25.8165 20.2468H46.1835C48.7982 20.2468 51 22.5325 51 25.2468V30.2468Z" fill="#EA4335"/>
<path d="M21 23.2752L40.0411 27.6789C42.2329 28.2294 44.6986 27.6789 46.4795 26.3028L51 23V33.3211C51 35.9358 48.8082 38 46.2055 38H25.7945C23.1918 38 21 35.9358 21 33.3211V23.2752Z" fill="#4285F4"/>
<path d="M64.62 32V17.68H66.82V32H64.62ZM69.7092 32V21.8H71.7492V23.2H71.8692C72.1626 22.7067 72.5959 22.3 73.1692 21.98C73.7559 21.6467 74.3959 21.48 75.0892 21.48C76.3426 21.48 77.2826 21.8533 77.9092 22.6C78.5359 23.3333 78.8492 24.32 78.8492 25.56V32H76.7092V25.84C76.7092 25.0133 76.5026 24.4133 76.0892 24.04C75.6759 23.6533 75.1359 23.46 74.4692 23.46C73.9492 23.46 73.4959 23.6067 73.1092 23.9C72.7226 24.18 72.4159 24.5533 72.1892 25.02C71.9759 25.4867 71.8692 25.9867 71.8692 26.52V32H69.7092Z" fill="white"/>
<path d="M94.4 32.32C93.3733 32.32 92.4067 32.1333 91.5 31.76C90.5933 31.3867 89.7933 30.8667 89.1 30.2C88.42 29.52 87.88 28.7267 87.48 27.82C87.0933 26.9 86.9 25.9067 86.9 24.84C86.9 23.7733 87.0933 22.7867 87.48 21.88C87.88 20.96 88.42 20.1667 89.1 19.5C89.7933 18.82 90.5933 18.2933 91.5 17.92C92.4067 17.5467 93.3733 17.36 94.4 17.36C95.4933 17.36 96.5 17.5533 97.42 17.94C98.3533 18.3267 99.1333 18.8667 99.76 19.56L98.24 21.06C97.9333 20.7133 97.58 20.42 97.18 20.18C96.7933 19.94 96.3667 19.76 95.9 19.64C95.4333 19.5067 94.9333 19.44 94.4 19.44C93.6933 19.44 93.02 19.5667 92.38 19.82C91.74 20.0733 91.1733 20.44 90.68 20.92C90.2 21.3867 89.82 21.9533 89.54 22.62C89.26 23.2733 89.12 24.0133 89.12 24.84C89.12 25.6667 89.26 26.4133 89.54 27.08C89.8333 27.7333 90.22 28.3 90.7 28.78C91.1933 29.2467 91.76 29.6067 92.4 29.86C93.04 30.1133 93.7133 30.24 94.42 30.24C95.0733 30.24 95.68 30.1467 96.24 29.96C96.8133 29.7733 97.3133 29.5067 97.74 29.16C98.1667 28.8133 98.5133 28.3933 98.78 27.9C99.0467 27.3933 99.2133 26.8267 99.28 26.2H94.38V24.26H101.34C101.367 24.42 101.393 24.6067 101.42 24.82C101.447 25.02 101.46 25.2133 101.46 25.4V25.42C101.46 26.4467 101.28 27.3867 100.92 28.24C100.573 29.0933 100.087 29.8267 99.46 30.44C98.8333 31.04 98.0867 31.5067 97.22 31.84C96.3667 32.16 95.4267 32.32 94.4 32.32ZM107.9 32.32C106.847 32.32 105.92 32.08 105.12 31.6C104.32 31.12 103.693 30.4733 103.24 29.66C102.787 28.8333 102.56 27.9133 102.56 26.9C102.56 25.8867 102.787 24.9733 103.24 24.16C103.693 23.3333 104.32 22.68 105.12 22.2C105.92 21.72 106.847 21.48 107.9 21.48C108.94 21.48 109.86 21.7267 110.66 22.22C111.46 22.7 112.087 23.3467 112.54 24.16C112.993 24.9733 113.22 25.8867 113.22 26.9C113.22 27.9133 112.993 28.8333 112.54 29.66C112.087 30.4733 111.46 31.12 110.66 31.6C109.86 32.08 108.94 32.32 107.9 32.32ZM107.9 30.34C108.46 30.34 108.98 30.2067 109.46 29.94C109.94 29.66 110.327 29.2667 110.62 28.76C110.927 28.24 111.08 27.62 111.08 26.9C111.08 26.18 110.927 25.5667 110.62 25.06C110.327 24.54 109.94 24.1467 109.46 23.88C108.98 23.6 108.46 23.46 107.9 23.46C107.34 23.46 106.813 23.6 106.32 23.88C105.84 24.1467 105.447 24.54 105.14 25.06C104.847 25.5667 104.7 26.18 104.7 26.9C104.7 27.62 104.847 28.24 105.14 28.76C105.447 29.2667 105.847 29.66 106.34 29.94C106.833 30.2067 107.353 30.34 107.9 30.34ZM120.009 32.32C118.956 32.32 118.029 32.08 117.229 31.6C116.429 31.12 115.803 30.4733 115.349 29.66C114.896 28.8333 114.669 27.9133 114.669 26.9C114.669 25.8867 114.896 24.9733 115.349 24.16C115.803 23.3333 116.429 22.68 117.229 22.2C118.029 21.72 118.956 21.48 120.009 21.48C121.049 21.48 121.969 21.7267 122.769 22.22C123.569 22.7 124.196 23.3467 124.649 24.16C125.103 24.9733 125.329 25.8867 125.329 26.9C125.329 27.9133 125.103 28.8333 124.649 29.66C124.196 30.4733 123.569 31.12 122.769 31.6C121.969 32.08 121.049 32.32 120.009 32.32ZM120.009 30.34C120.569 30.34 121.089 30.2067 121.569 29.94C122.049 29.66 122.436 29.2667 122.729 28.76C123.036 28.24 123.189 27.62 123.189 26.9C123.189 26.18 123.036 25.5667 122.729 25.06C122.436 24.54 122.049 24.1467 121.569 23.88C121.089 23.6 120.569 23.46 120.009 23.46C119.449 23.46 118.923 23.6 118.429 23.88C117.949 24.1467 117.556 24.54 117.249 25.06C116.956 25.5667 116.809 26.18 116.809 26.9C116.809 27.62 116.956 28.24 117.249 28.76C117.556 29.2667 117.956 29.66 118.449 29.94C118.943 30.2067 119.463 30.34 120.009 30.34ZM131.919 36.64C131.025 36.64 130.252 36.4933 129.599 36.2C128.959 35.92 128.439 35.5533 128.039 35.1C127.639 34.66 127.352 34.2067 127.179 33.74L129.179 32.9C129.392 33.4333 129.732 33.8667 130.199 34.2C130.679 34.5467 131.252 34.72 131.919 34.72C132.865 34.72 133.605 34.44 134.139 33.88C134.672 33.32 134.939 32.5267 134.939 31.5V30.52H134.819C134.499 30.9867 134.059 31.3667 133.499 31.66C132.939 31.9533 132.292 32.1 131.559 32.1C130.692 32.1 129.892 31.88 129.159 31.44C128.439 31 127.859 30.3867 127.419 29.6C126.992 28.8 126.779 27.8667 126.779 26.8C126.779 25.72 126.992 24.7867 127.419 24C127.859 23.2 128.439 22.58 129.159 22.14C129.892 21.7 130.692 21.48 131.559 21.48C132.292 21.48 132.939 21.6267 133.499 21.92C134.059 22.2 134.499 22.5867 134.819 23.08H134.939V21.8H136.999V31.46C136.999 32.5667 136.779 33.5067 136.339 34.28C135.912 35.0533 135.319 35.64 134.559 36.04C133.799 36.44 132.919 36.64 131.919 36.64ZM131.939 30.14C132.472 30.14 132.965 30.0133 133.419 29.76C133.885 29.4933 134.252 29.1133 134.519 28.62C134.799 28.1133 134.939 27.5067 134.939 26.8C134.939 26.0533 134.799 25.4333 134.519 24.94C134.252 24.4467 133.885 24.0733 133.419 23.82C132.965 23.5667 132.472 23.44 131.939 23.44C131.405 23.44 130.905 23.5667 130.439 23.82C129.985 24.0733 129.619 24.4533 129.339 24.96C129.059 25.4533 128.919 26.0667 128.919 26.8C128.919 27.52 129.059 28.1333 129.339 28.64C129.619 29.1333 129.985 29.5067 130.439 29.76C130.905 30.0133 131.405 30.14 131.939 30.14ZM139.546 32V17.68H141.706V32H139.546ZM148.815 32.32C147.815 32.32 146.921 32.0867 146.135 31.62C145.348 31.1533 144.728 30.5133 144.275 29.7C143.835 28.8867 143.615 27.96 143.615 26.92C143.615 25.9467 143.828 25.0467 144.255 24.22C144.681 23.3933 145.275 22.7333 146.035 22.24C146.808 21.7333 147.695 21.48 148.695 21.48C149.748 21.48 150.641 21.7067 151.375 22.16C152.121 22.6133 152.688 23.2333 153.075 24.02C153.461 24.8067 153.655 25.6933 153.655 26.68C153.655 26.8267 153.648 26.96 153.635 27.08C153.635 27.2 153.628 27.2933 153.615 27.36H145.735C145.788 27.92 145.928 28.4067 146.155 28.82C146.448 29.34 146.835 29.7333 147.315 30C147.795 30.2667 148.315 30.4 148.875 30.4C149.555 30.4 150.121 30.2467 150.575 29.94C151.041 29.62 151.408 29.2267 151.675 28.76L153.455 29.62C153.015 30.42 152.415 31.0733 151.655 31.58C150.895 32.0733 149.948 32.32 148.815 32.32ZM145.855 25.74H151.515C151.501 25.4867 151.435 25.22 151.315 24.94C151.195 24.6467 151.021 24.38 150.795 24.14C150.568 23.9 150.281 23.7067 149.935 23.56C149.588 23.4 149.181 23.32 148.715 23.32C148.128 23.32 147.608 23.4733 147.155 23.78C146.701 24.0733 146.348 24.4867 146.095 25.02C145.988 25.2467 145.908 25.4867 145.855 25.74ZM162.446 32L158.606 17.68H161.046L163.326 26.98L163.566 28.22H163.686L163.986 26.98L166.866 17.68H169.066L171.826 26.98L172.126 28.2H172.246L172.486 26.98L174.766 17.68H177.186L173.406 32H171.086L168.346 22.5L168.026 21.16H167.906L167.566 22.5L164.706 32H162.446ZM181.202 32.32C180.469 32.32 179.816 32.1733 179.242 31.88C178.682 31.5867 178.236 31.1867 177.902 30.68C177.582 30.16 177.422 29.5667 177.422 28.9C177.422 28.1667 177.609 27.5467 177.982 27.04C178.369 26.5333 178.882 26.1467 179.522 25.88C180.162 25.6133 180.869 25.48 181.642 25.48C182.069 25.48 182.462 25.5133 182.822 25.58C183.196 25.6333 183.516 25.7 183.782 25.78C184.062 25.86 184.282 25.9467 184.442 26.04V25.5C184.442 24.8333 184.202 24.3 183.722 23.9C183.242 23.5 182.622 23.3 181.862 23.3C181.342 23.3 180.849 23.42 180.382 23.66C179.916 23.8867 179.542 24.2 179.262 24.6L177.782 23.46C178.076 23.0467 178.429 22.6933 178.842 22.4C179.269 22.1067 179.742 21.88 180.262 21.72C180.796 21.56 181.349 21.48 181.922 21.48C183.402 21.48 184.542 21.8467 185.342 22.58C186.142 23.3 186.542 24.3133 186.542 25.62V32H184.442V30.74H184.322C184.149 31.0067 183.909 31.26 183.602 31.5C183.309 31.74 182.956 31.9333 182.542 32.08C182.142 32.24 181.696 32.32 181.202 32.32ZM181.582 30.56C182.142 30.56 182.636 30.4267 183.062 30.16C183.502 29.8933 183.842 29.5467 184.082 29.12C184.322 28.68 184.442 28.2067 184.442 27.7C184.149 27.5267 183.789 27.3867 183.362 27.28C182.949 27.16 182.509 27.1 182.042 27.1C181.162 27.1 180.536 27.2733 180.162 27.62C179.789 27.9667 179.602 28.4 179.602 28.92C179.602 29.4 179.782 29.7933 180.142 30.1C180.502 30.4067 180.982 30.56 181.582 30.56ZM188.94 32V17.68H191.1V32H188.94ZM193.667 32V17.68H195.827V32H193.667ZM202.936 32.32C201.936 32.32 201.042 32.0867 200.256 31.62C199.469 31.1533 198.849 30.5133 198.396 29.7C197.956 28.8867 197.736 27.96 197.736 26.92C197.736 25.9467 197.949 25.0467 198.376 24.22C198.802 23.3933 199.396 22.7333 200.156 22.24C200.929 21.7333 201.816 21.48 202.816 21.48C203.869 21.48 204.762 21.7067 205.496 22.16C206.242 22.6133 206.809 23.2333 207.196 24.02C207.582 24.8067 207.776 25.6933 207.776 26.68C207.776 26.8267 207.769 26.96 207.756 27.08C207.756 27.2 207.749 27.2933 207.736 27.36H199.856C199.909 27.92 200.049 28.4067 200.276 28.82C200.569 29.34 200.956 29.7333 201.436 30C201.916 30.2667 202.436 30.4 202.996 30.4C203.676 30.4 204.242 30.2467 204.696 29.94C205.162 29.62 205.529 29.2267 205.796 28.76L207.576 29.62C207.136 30.42 206.536 31.0733 205.776 31.58C205.016 32.0733 204.069 32.32 202.936 32.32ZM199.976 25.74H205.636C205.622 25.4867 205.556 25.22 205.436 24.94C205.316 24.6467 205.142 24.38 204.916 24.14C204.689 23.9 204.402 23.7067 204.056 23.56C203.709 23.4 203.302 23.32 202.836 23.32C202.249 23.32 201.729 23.4733 201.276 23.78C200.822 24.0733 200.469 24.4867 200.216 25.02C200.109 25.2467 200.029 25.4867 199.976 25.74ZM208.787 21.8H210.567V18.92H212.727V21.8H215.227V23.68H212.727V28.58C212.727 29.0867 212.827 29.4733 213.027 29.74C213.24 30.0067 213.593 30.14 214.087 30.14C214.327 30.14 214.54 30.1067 214.727 30.04C214.913 29.96 215.1 29.8667 215.287 29.76V31.86C215.06 31.9533 214.82 32.0267 214.567 32.08C214.313 32.1333 214.013 32.16 213.667 32.16C212.72 32.16 211.967 31.8867 211.407 31.34C210.847 30.78 210.567 30.0133 210.567 29.04V23.68H208.787V21.8ZM225.167 32.32C224.434 32.32 223.78 32.1733 223.207 31.88C222.647 31.5867 222.2 31.1867 221.867 30.68C221.547 30.16 221.387 29.5667 221.387 28.9C221.387 28.1667 221.574 27.5467 221.947 27.04C222.334 26.5333 222.847 26.1467 223.487 25.88C224.127 25.6133 224.834 25.48 225.607 25.48C226.034 25.48 226.427 25.5133 226.787 25.58C227.16 25.6333 227.48 25.7 227.747 25.78C228.027 25.86 228.247 25.9467 228.407 26.04V25.5C228.407 24.8333 228.167 24.3 227.687 23.9C227.207 23.5 226.587 23.3 225.827 23.3C225.307 23.3 224.814 23.42 224.347 23.66C223.88 23.8867 223.507 24.2 223.227 24.6L221.747 23.46C222.04 23.0467 222.394 22.6933 222.807 22.4C223.234 22.1067 223.707 21.88 224.227 21.72C224.76 21.56 225.314 21.48 225.887 21.48C227.367 21.48 228.507 21.8467 229.307 22.58C230.107 23.3 230.507 24.3133 230.507 25.62V32H228.407V30.74H228.287C228.114 31.0067 227.874 31.26 227.567 31.5C227.274 31.74 226.92 31.9333 226.507 32.08C226.107 32.24 225.66 32.32 225.167 32.32ZM225.547 30.56C226.107 30.56 226.6 30.4267 227.027 30.16C227.467 29.8933 227.807 29.5467 228.047 29.12C228.287 28.68 228.407 28.2067 228.407 27.7C228.114 27.5267 227.754 27.3867 227.327 27.28C226.914 27.16 226.474 27.1 226.007 27.1C225.127 27.1 224.5 27.2733 224.127 27.62C223.754 27.9667 223.567 28.4 223.567 28.92C223.567 29.4 223.747 29.7933 224.107 30.1C224.467 30.4067 224.947 30.56 225.547 30.56ZM236.585 32.32C235.332 32.32 234.385 31.9467 233.745 31.2C233.118 30.44 232.805 29.4133 232.805 28.12V21.8H234.965V27.82C234.965 28.6733 235.165 29.3067 235.565 29.72C235.978 30.1333 236.492 30.34 237.105 30.34C237.665 30.34 238.145 30.2 238.545 29.92C238.945 29.6267 239.252 29.2467 239.465 28.78C239.692 28.3133 239.805 27.8133 239.805 27.28V21.8H241.945V32H239.925V30.62H239.805C239.618 30.94 239.358 31.2267 239.025 31.48C238.692 31.7333 238.318 31.9333 237.905 32.08C237.492 32.24 237.052 32.32 236.585 32.32ZM243.884 23.68V21.8H245.744V20.96C245.744 20.2267 245.898 19.6067 246.204 19.1C246.511 18.58 246.931 18.1867 247.464 17.92C247.998 17.6533 248.591 17.52 249.244 17.52C249.604 17.52 249.911 17.5467 250.164 17.6C250.431 17.64 250.651 17.6933 250.824 17.76V19.86C250.651 19.7933 250.451 19.7267 250.224 19.66C250.011 19.58 249.744 19.54 249.424 19.54C249.011 19.54 248.651 19.68 248.344 19.96C248.038 20.2267 247.884 20.62 247.884 21.14V21.8H250.444V23.68H247.884V32H245.744V23.68H243.884ZM252.514 32V21.8H254.554V23.3H254.674C254.834 22.9533 255.061 22.6467 255.354 22.38C255.661 22.1133 256.007 21.9 256.394 21.74C256.794 21.58 257.207 21.5 257.634 21.5C257.914 21.5 258.147 21.52 258.334 21.56C258.534 21.5867 258.714 21.6333 258.874 21.7V23.94C258.621 23.8333 258.361 23.7467 258.094 23.68C257.841 23.6133 257.574 23.58 257.294 23.58C256.787 23.58 256.334 23.72 255.934 24C255.547 24.2667 255.241 24.6267 255.014 25.08C254.787 25.5333 254.674 26.04 254.674 26.6V32H252.514ZM264.241 32.32C262.988 32.32 262.041 31.9467 261.401 31.2C260.775 30.44 260.461 29.4133 260.461 28.12V21.8H262.621V27.82C262.621 28.6733 262.821 29.3067 263.221 29.72C263.635 30.1333 264.148 30.34 264.761 30.34C265.321 30.34 265.801 30.2 266.201 29.92C266.601 29.6267 266.908 29.2467 267.121 28.78C267.348 28.3133 267.461 27.8133 267.461 27.28V21.8H269.601V32H267.581V30.62H267.461C267.275 30.94 267.015 31.2267 266.681 31.48C266.348 31.7333 265.975 31.9333 265.561 32.08C265.148 32.24 264.708 32.32 264.241 32.32ZM271.54 23.68V21.8H273.4V20.96C273.4 20.2267 273.554 19.6067 273.86 19.1C274.167 18.58 274.587 18.1867 275.12 17.92C275.654 17.6533 276.247 17.52 276.9 17.52C277.26 17.52 277.567 17.5467 277.82 17.6C278.087 17.64 278.307 17.6933 278.48 17.76V19.86C278.307 19.7933 278.107 19.7267 277.88 19.66C277.667 19.58 277.4 19.54 277.08 19.54C276.667 19.54 276.307 19.68 276 19.96C275.694 20.2267 275.54 20.62 275.54 21.14V21.8H278.1V23.68H275.54V32H273.4V23.68H271.54ZM284.205 32.32C283.205 32.32 282.312 32.0867 281.525 31.62C280.738 31.1533 280.118 30.5133 279.665 29.7C279.225 28.8867 279.005 27.96 279.005 26.92C279.005 25.9467 279.218 25.0467 279.645 24.22C280.072 23.3933 280.665 22.7333 281.425 22.24C282.198 21.7333 283.085 21.48 284.085 21.48C285.138 21.48 286.032 21.7067 286.765 22.16C287.512 22.6133 288.078 23.2333 288.465 24.02C288.852 24.8067 289.045 25.6933 289.045 26.68C289.045 26.8267 289.038 26.96 289.025 27.08C289.025 27.2 289.018 27.2933 289.005 27.36H281.125C281.178 27.92 281.318 28.4067 281.545 28.82C281.838 29.34 282.225 29.7333 282.705 30C283.185 30.2667 283.705 30.4 284.265 30.4C284.945 30.4 285.512 30.2467 285.965 29.94C286.432 29.62 286.798 29.2267 287.065 28.76L288.845 29.62C288.405 30.42 287.805 31.0733 287.045 31.58C286.285 32.0733 285.338 32.32 284.205 32.32ZM281.245 25.74H286.905C286.892 25.4867 286.825 25.22 286.705 24.94C286.585 24.6467 286.412 24.38 286.185 24.14C285.958 23.9 285.672 23.7067 285.325 23.56C284.978 23.4 284.572 23.32 284.105 23.32C283.518 23.32 282.998 23.4733 282.545 23.78C282.092 24.0733 281.738 24.4867 281.485 25.02C281.378 25.2467 281.298 25.4867 281.245 25.74ZM291.049 32V21.8H293.089V23.2H293.209C293.502 22.7067 293.936 22.3 294.509 21.98C295.096 21.6467 295.736 21.48 296.429 21.48C297.682 21.48 298.622 21.8533 299.249 22.6C299.876 23.3333 300.189 24.32 300.189 25.56V32H298.049V25.84C298.049 25.0133 297.842 24.4133 297.429 24.04C297.016 23.6533 296.476 23.46 295.809 23.46C295.289 23.46 294.836 23.6067 294.449 23.9C294.062 24.18 293.756 24.5533 293.529 25.02C293.316 25.4867 293.209 25.9867 293.209 26.52V32H291.049Z" fill="white"/>
</svg>
