<svg width="391" height="50" viewBox="0 0 391 50" fill="none" xmlns="http://www.w3.org/2000/svg">
<rect x="0.5" y="0.5" width="390" height="49" rx="24.5" fill="#1F1F1F"/>
<rect x="0.5" y="0.5" width="390" height="49" rx="24.5" stroke="#747775"/>
<path d="M51 22H21V17C21 14.2857 23.2018 12 25.8165 12H46.1835C48.7982 12 51 14.2857 51 17V22Z" fill="#34A853"/>
<path d="M51 26.0537H21V21.0537C21 18.3394 23.2018 16.0537 25.8165 16.0537H46.1835C48.7982 16.0537 51 18.3394 51 21.0537V26.0537Z" fill="#FBBC04"/>
<path d="M51 30.2468H21V25.2468C21 22.5325 23.2018 20.2468 25.8165 20.2468H46.1835C48.7982 20.2468 51 22.5325 51 25.2468V30.2468Z" fill="#EA4335"/>
<path d="M21 23.2752L40.0411 27.6789C42.2329 28.2294 44.6986 27.6789 46.4795 26.3028L51 23V33.3211C51 35.9358 48.8082 38 46.2055 38H25.7945C23.1918 38 21 35.9358 21 33.3211V23.2752Z" fill="#4285F4"/>
<path d="M64.62 32V17.68H75.42V32H73.22V19.76H66.82V32H64.62ZM78.0277 36.32V27.06C78.0277 25.9267 78.2477 24.9467 78.6877 24.12C79.141 23.28 79.7543 22.6333 80.5277 22.18C81.3143 21.7133 82.201 21.48 83.1877 21.48C84.0277 21.48 84.7677 21.6267 85.4077 21.92C86.0477 22.2133 86.5877 22.6133 87.0277 23.12C87.4677 23.6267 87.801 24.2067 88.0277 24.86C88.2543 25.5133 88.3677 26.2 88.3677 26.92C88.3677 27.9733 88.1477 28.9067 87.7077 29.72C87.281 30.5333 86.701 31.1733 85.9677 31.64C85.2343 32.0933 84.421 32.32 83.5277 32.32C82.9943 32.32 82.5077 32.24 82.0677 32.08C81.641 31.9333 81.2677 31.7333 80.9477 31.48C80.641 31.2267 80.3877 30.9467 80.1877 30.64H80.0677L80.1877 32.04V36.32H78.0277ZM83.1277 30.34C83.6743 30.34 84.181 30.2 84.6477 29.92C85.1277 29.6267 85.5077 29.2267 85.7877 28.72C86.081 28.2133 86.2277 27.62 86.2277 26.94C86.2277 26.2067 86.081 25.58 85.7877 25.06C85.4943 24.54 85.1077 24.1467 84.6277 23.88C84.161 23.6 83.661 23.46 83.1277 23.46C82.6343 23.46 82.1543 23.5933 81.6877 23.86C81.221 24.1267 80.8343 24.52 80.5277 25.04C80.221 25.56 80.0677 26.2067 80.0677 26.98C80.0677 27.62 80.2077 28.2 80.4877 28.72C80.7677 29.2267 81.141 29.6267 81.6077 29.92C82.0743 30.2 82.581 30.34 83.1277 30.34ZM95.1538 32.32C94.1004 32.32 93.1738 32.08 92.3738 31.6C91.5738 31.12 90.9471 30.4733 90.4938 29.66C90.0404 28.8333 89.8138 27.9133 89.8138 26.9C89.8138 25.8867 90.0404 24.9733 90.4938 24.16C90.9471 23.3333 91.5738 22.68 92.3738 22.2C93.1738 21.72 94.1004 21.48 95.1538 21.48C96.1938 21.48 97.1138 21.7267 97.9138 22.22C98.7138 22.7 99.3404 23.3467 99.7938 24.16C100.247 24.9733 100.474 25.8867 100.474 26.9C100.474 27.9133 100.247 28.8333 99.7938 29.66C99.3404 30.4733 98.7138 31.12 97.9138 31.6C97.1138 32.08 96.1938 32.32 95.1538 32.32ZM95.1538 30.34C95.7138 30.34 96.2338 30.2067 96.7138 29.94C97.1938 29.66 97.5804 29.2667 97.8738 28.76C98.1804 28.24 98.3338 27.62 98.3338 26.9C98.3338 26.18 98.1804 25.5667 97.8738 25.06C97.5804 24.54 97.1938 24.1467 96.7138 23.88C96.2338 23.6 95.7138 23.46 95.1538 23.46C94.5938 23.46 94.0671 23.6 93.5738 23.88C93.0938 24.1467 92.7004 24.54 92.3938 25.06C92.1004 25.5667 91.9538 26.18 91.9538 26.9C91.9538 27.62 92.1004 28.24 92.3938 28.76C92.7004 29.2667 93.1004 29.66 93.5938 29.94C94.0871 30.2067 94.6071 30.34 95.1538 30.34ZM102.383 36.32V22.64C102.383 21.5467 102.59 20.62 103.003 19.86C103.43 19.1 104.016 18.5267 104.763 18.14C105.51 17.74 106.383 17.54 107.383 17.54C108.183 17.54 108.87 17.6533 109.443 17.88C110.03 18.0933 110.51 18.3867 110.883 18.76C111.256 19.12 111.53 19.5333 111.703 20C111.89 20.4667 111.983 20.94 111.983 21.42C111.983 21.9667 111.89 22.44 111.703 22.84C111.53 23.2267 111.296 23.5533 111.003 23.82C110.71 24.0733 110.383 24.2667 110.023 24.4V24.52C110.61 24.68 111.103 24.92 111.503 25.24C111.903 25.5467 112.203 25.9333 112.403 26.4C112.616 26.8667 112.723 27.4133 112.723 28.04C112.723 28.88 112.516 29.62 112.103 30.26C111.703 30.9 111.15 31.4067 110.443 31.78C109.736 32.14 108.923 32.32 108.003 32.32C107.51 32.32 107.036 32.2467 106.583 32.1C106.13 31.9533 105.723 31.76 105.363 31.52C105.016 31.2667 104.743 30.98 104.543 30.66H104.423L104.543 32.2V36.32H102.383ZM107.883 30.38C108.47 30.38 108.963 30.2667 109.363 30.04C109.776 29.8133 110.083 29.52 110.283 29.16C110.496 28.7867 110.603 28.38 110.603 27.94C110.603 27.14 110.37 26.5533 109.903 26.18C109.436 25.7933 108.743 25.6 107.823 25.6H106.503V23.72H107.623C108.156 23.72 108.583 23.6333 108.903 23.46C109.236 23.2733 109.483 23.0267 109.643 22.72C109.803 22.4 109.883 22.06 109.883 21.7C109.883 20.98 109.643 20.4333 109.163 20.06C108.696 19.6867 108.096 19.5 107.363 19.5C106.79 19.5 106.283 19.62 105.843 19.86C105.416 20.0867 105.083 20.4333 104.843 20.9C104.616 21.3667 104.503 21.9667 104.503 22.7V26.9C104.503 27.5933 104.643 28.2067 104.923 28.74C105.203 29.26 105.596 29.6667 106.103 29.96C106.61 30.24 107.203 30.38 107.883 30.38ZM119.529 32.32C118.475 32.32 117.549 32.08 116.749 31.6C115.949 31.12 115.322 30.4733 114.869 29.66C114.415 28.8333 114.189 27.9133 114.189 26.9C114.189 25.8867 114.415 24.9733 114.869 24.16C115.322 23.3333 115.949 22.68 116.749 22.2C117.549 21.72 118.475 21.48 119.529 21.48C120.569 21.48 121.489 21.7267 122.289 22.22C123.089 22.7 123.715 23.3467 124.169 24.16C124.622 24.9733 124.849 25.8867 124.849 26.9C124.849 27.9133 124.622 28.8333 124.169 29.66C123.715 30.4733 123.089 31.12 122.289 31.6C121.489 32.08 120.569 32.32 119.529 32.32ZM119.529 30.34C120.089 30.34 120.609 30.2067 121.089 29.94C121.569 29.66 121.955 29.2667 122.249 28.76C122.555 28.24 122.709 27.62 122.709 26.9C122.709 26.18 122.555 25.5667 122.249 25.06C121.955 24.54 121.569 24.1467 121.089 23.88C120.609 23.6 120.089 23.46 119.529 23.46C118.969 23.46 118.442 23.6 117.949 23.88C117.469 24.1467 117.075 24.54 116.769 25.06C116.475 25.5667 116.329 26.18 116.329 26.9C116.329 27.62 116.475 28.24 116.769 28.76C117.075 29.2667 117.475 29.66 117.969 29.94C118.462 30.2067 118.982 30.34 119.529 30.34ZM133.588 32L130.768 25.04H130.668L127.748 32H125.348L129.588 22.44L128.848 20.86C128.608 20.3267 128.374 19.9733 128.148 19.8C127.921 19.6267 127.634 19.54 127.288 19.54C127.128 19.54 126.968 19.56 126.808 19.6C126.661 19.64 126.514 19.7067 126.368 19.8V17.7C126.554 17.6333 126.754 17.5867 126.968 17.56C127.181 17.5333 127.428 17.52 127.708 17.52C128.254 17.52 128.701 17.6067 129.048 17.78C129.408 17.94 129.714 18.2067 129.968 18.58C130.234 18.9533 130.501 19.4533 130.768 20.08L135.948 32H133.588ZM136.975 32V21.8H139.015V23.2H139.135C139.428 22.7067 139.862 22.3 140.435 21.98C141.022 21.6467 141.662 21.48 142.355 21.48C143.608 21.48 144.548 21.8533 145.175 22.6C145.802 23.3333 146.115 24.32 146.115 25.56V36.32H143.975V25.84C143.975 25.0133 143.768 24.4133 143.355 24.04C142.942 23.6533 142.402 23.46 141.735 23.46C141.215 23.46 140.762 23.6067 140.375 23.9C139.988 24.18 139.682 24.5533 139.455 25.02C139.242 25.4867 139.135 25.9867 139.135 26.52V32H136.975ZM140.355 19.84L141.095 16.72H143.655L142.175 19.84H140.355ZM157.904 32.32C156.878 32.32 155.971 32.0933 155.184 31.64C154.411 31.1733 153.804 30.5467 153.364 29.76C152.924 28.96 152.704 28.06 152.704 27.06C152.704 26.0467 152.924 25.1467 153.364 24.36C153.818 23.5733 154.451 22.9533 155.264 22.5C156.078 22.0333 157.044 21.8 158.164 21.8H164.384V23.68H163.204L161.624 23.54V23.66C161.944 23.9 162.218 24.1867 162.444 24.52C162.671 24.84 162.844 25.2133 162.964 25.64C163.098 26.0533 163.164 26.5067 163.164 27C163.164 28 162.944 28.9067 162.504 29.72C162.064 30.52 161.444 31.1533 160.644 31.62C159.858 32.0867 158.944 32.32 157.904 32.32ZM157.924 30.34C158.471 30.34 158.978 30.2133 159.444 29.96C159.911 29.6933 160.291 29.3133 160.584 28.82C160.878 28.3267 161.024 27.7333 161.024 27.04C161.024 26.32 160.878 25.7133 160.584 25.22C160.291 24.7133 159.911 24.3267 159.444 24.06C158.978 23.7933 158.471 23.66 157.924 23.66C157.391 23.66 156.884 23.7933 156.404 24.06C155.938 24.3267 155.558 24.7133 155.264 25.22C154.984 25.7133 154.844 26.32 154.844 27.04C154.844 27.7333 154.984 28.3267 155.264 28.82C155.558 29.3133 155.938 29.6933 156.404 29.96C156.884 30.2133 157.391 30.34 157.924 30.34ZM171.913 32.16C171.286 32.16 170.739 32.04 170.273 31.8C169.806 31.56 169.439 31.2067 169.173 30.74C168.919 30.2733 168.793 29.7133 168.793 29.06V23.68H165.533V21.8H174.773V23.68H170.933V28.6C170.933 29.1067 171.039 29.4933 171.253 29.76C171.479 30.0133 171.833 30.14 172.313 30.14C172.566 30.14 172.779 30.1067 172.953 30.04C173.139 29.96 173.319 29.8667 173.493 29.76V31.86C173.253 31.9667 173.006 32.04 172.753 32.08C172.499 32.1333 172.219 32.16 171.913 32.16ZM181.423 32.32C180.37 32.32 179.443 32.08 178.643 31.6C177.843 31.12 177.217 30.4733 176.763 29.66C176.31 28.8333 176.083 27.9133 176.083 26.9C176.083 25.8867 176.31 24.9733 176.763 24.16C177.217 23.3333 177.843 22.68 178.643 22.2C179.443 21.72 180.37 21.48 181.423 21.48C182.463 21.48 183.383 21.7267 184.183 22.22C184.983 22.7 185.61 23.3467 186.063 24.16C186.517 24.9733 186.743 25.8867 186.743 26.9C186.743 27.9133 186.517 28.8333 186.063 29.66C185.61 30.4733 184.983 31.12 184.183 31.6C183.383 32.08 182.463 32.32 181.423 32.32ZM181.423 30.34C181.983 30.34 182.503 30.2067 182.983 29.94C183.463 29.66 183.85 29.2667 184.143 28.76C184.45 28.24 184.603 27.62 184.603 26.9C184.603 26.18 184.45 25.5667 184.143 25.06C183.85 24.54 183.463 24.1467 182.983 23.88C182.503 23.6 181.983 23.46 181.423 23.46C180.863 23.46 180.337 23.6 179.843 23.88C179.363 24.1467 178.97 24.54 178.663 25.06C178.37 25.5667 178.223 26.18 178.223 26.9C178.223 27.62 178.37 28.24 178.663 28.76C178.97 29.2667 179.37 29.66 179.863 29.94C180.357 30.2067 180.877 30.34 181.423 30.34Z" fill="white"/>
<path d="M194.62 32V17.68H205.42V32H203.22V19.76H196.82V32H194.62ZM212.908 32.32C211.854 32.32 210.928 32.08 210.128 31.6C209.328 31.12 208.701 30.4733 208.248 29.66C207.794 28.8333 207.568 27.9133 207.568 26.9C207.568 25.8867 207.794 24.9733 208.248 24.16C208.701 23.3333 209.328 22.68 210.128 22.2C210.928 21.72 211.854 21.48 212.908 21.48C213.948 21.48 214.868 21.7267 215.668 22.22C216.468 22.7 217.094 23.3467 217.548 24.16C218.001 24.9733 218.228 25.8867 218.228 26.9C218.228 27.9133 218.001 28.8333 217.548 29.66C217.094 30.4733 216.468 31.12 215.668 31.6C214.868 32.08 213.948 32.32 212.908 32.32ZM212.908 30.34C213.468 30.34 213.988 30.2067 214.468 29.94C214.948 29.66 215.334 29.2667 215.628 28.76C215.934 28.24 216.088 27.62 216.088 26.9C216.088 26.18 215.934 25.5667 215.628 25.06C215.334 24.54 214.948 24.1467 214.468 23.88C213.988 23.6 213.468 23.46 212.908 23.46C212.348 23.46 211.821 23.6 211.328 23.88C210.848 24.1467 210.454 24.54 210.148 25.06C209.854 25.5667 209.708 26.18 209.708 26.9C209.708 27.62 209.854 28.24 210.148 28.76C210.454 29.2667 210.854 29.66 211.348 29.94C211.841 30.2067 212.361 30.34 212.908 30.34ZM219.942 36.32V27.06C219.942 25.9267 220.162 24.9467 220.602 24.12C221.055 23.28 221.668 22.6333 222.442 22.18C223.228 21.7133 224.115 21.48 225.102 21.48C225.942 21.48 226.682 21.6267 227.322 21.92C227.962 22.2133 228.502 22.6133 228.942 23.12C229.382 23.6267 229.715 24.2067 229.942 24.86C230.168 25.5133 230.282 26.2 230.282 26.92C230.282 27.9733 230.062 28.9067 229.622 29.72C229.195 30.5333 228.615 31.1733 227.882 31.64C227.148 32.0933 226.335 32.32 225.442 32.32C224.908 32.32 224.422 32.24 223.982 32.08C223.555 31.9333 223.182 31.7333 222.862 31.48C222.555 31.2267 222.302 30.9467 222.102 30.64H221.982L222.102 32.04V36.32H219.942ZM225.042 30.34C225.588 30.34 226.095 30.2 226.562 29.92C227.042 29.6267 227.422 29.2267 227.702 28.72C227.995 28.2133 228.142 27.62 228.142 26.94C228.142 26.2067 227.995 25.58 227.702 25.06C227.408 24.54 227.022 24.1467 226.542 23.88C226.075 23.6 225.575 23.46 225.042 23.46C224.548 23.46 224.068 23.5933 223.602 23.86C223.135 24.1267 222.748 24.52 222.442 25.04C222.135 25.56 221.982 26.2067 221.982 26.98C221.982 27.62 222.122 28.2 222.402 28.72C222.682 29.2267 223.055 29.6267 223.522 29.92C223.988 30.2 224.495 30.34 225.042 30.34ZM237.753 32.16C237.126 32.16 236.579 32.04 236.113 31.8C235.646 31.56 235.279 31.2067 235.013 30.74C234.759 30.2733 234.633 29.7133 234.633 29.06V23.68H231.373V21.8H240.613V23.68H236.773V28.6C236.773 29.1067 236.879 29.4933 237.093 29.76C237.319 30.0133 237.673 30.14 238.153 30.14C238.406 30.14 238.619 30.1067 238.793 30.04C238.979 29.96 239.159 29.8667 239.333 29.76V31.86C239.093 31.9667 238.846 32.04 238.593 32.08C238.339 32.1333 238.059 32.16 237.753 32.16ZM247.263 32.32C246.21 32.32 245.283 32.08 244.483 31.6C243.683 31.12 243.056 30.4733 242.603 29.66C242.15 28.8333 241.923 27.9133 241.923 26.9C241.923 25.8867 242.15 24.9733 242.603 24.16C243.056 23.3333 243.683 22.68 244.483 22.2C245.283 21.72 246.21 21.48 247.263 21.48C248.303 21.48 249.223 21.7267 250.023 22.22C250.823 22.7 251.45 23.3467 251.903 24.16C252.356 24.9733 252.583 25.8867 252.583 26.9C252.583 27.9133 252.356 28.8333 251.903 29.66C251.45 30.4733 250.823 31.12 250.023 31.6C249.223 32.08 248.303 32.32 247.263 32.32ZM247.263 30.34C247.823 30.34 248.343 30.2067 248.823 29.94C249.303 29.66 249.69 29.2667 249.983 28.76C250.29 28.24 250.443 27.62 250.443 26.9C250.443 26.18 250.29 25.5667 249.983 25.06C249.69 24.54 249.303 24.1467 248.823 23.88C248.343 23.6 247.823 23.46 247.263 23.46C246.703 23.46 246.176 23.6 245.683 23.88C245.203 24.1467 244.81 24.54 244.503 25.06C244.21 25.5667 244.063 26.18 244.063 26.9C244.063 27.62 244.21 28.24 244.503 28.76C244.81 29.2667 245.21 29.66 245.703 29.94C246.196 30.2067 246.716 30.34 247.263 30.34ZM254.033 26.9C254.033 25.8467 254.266 24.9067 254.733 24.08C255.213 23.24 255.946 22.58 256.933 22.1C257.666 21.74 258.566 21.5133 259.633 21.42V18.92H261.793V21.42C262.859 21.5133 263.766 21.74 264.513 22.1C265.499 22.58 266.219 23.24 266.673 24.08C267.139 24.9067 267.373 25.8467 267.373 26.9C267.373 27.9 267.139 28.82 266.673 29.66C266.206 30.5 265.486 31.1733 264.513 31.68C263.766 32.0533 262.859 32.2867 261.793 32.38V36.32H259.633V32.38C258.566 32.2867 257.666 32.0533 256.933 31.68C255.933 31.1733 255.199 30.5 254.733 29.66C254.266 28.82 254.033 27.9 254.033 26.9ZM261.793 23.28V30.54C262.379 30.46 262.886 30.32 263.312 30.12C263.966 29.8 264.446 29.3667 264.753 28.82C265.073 28.26 265.233 27.62 265.233 26.9C265.233 26.1267 265.079 25.4667 264.773 24.92C264.466 24.3733 263.986 23.9533 263.333 23.66C262.906 23.4733 262.393 23.3467 261.793 23.28ZM256.193 26.9C256.193 27.62 256.346 28.26 256.653 28.82C256.959 29.3667 257.446 29.8 258.113 30.12C258.526 30.32 259.033 30.4533 259.633 30.52V23.28C259.046 23.3467 258.539 23.4733 258.113 23.66C257.446 23.9533 256.959 24.38 256.653 24.94C256.346 25.4867 256.193 26.14 256.193 26.9ZM274.158 32.32C273.104 32.32 272.178 32.08 271.378 31.6C270.578 31.12 269.951 30.4733 269.498 29.66C269.044 28.8333 268.818 27.9133 268.818 26.9C268.818 25.8867 269.044 24.9733 269.498 24.16C269.951 23.3333 270.578 22.68 271.378 22.2C272.178 21.72 273.104 21.48 274.158 21.48C275.198 21.48 276.118 21.7267 276.918 22.22C277.718 22.7 278.344 23.3467 278.798 24.16C279.251 24.9733 279.478 25.8867 279.478 26.9C279.478 27.9133 279.251 28.8333 278.798 29.66C278.344 30.4733 277.718 31.12 276.918 31.6C276.118 32.08 275.198 32.32 274.158 32.32ZM274.158 30.34C274.718 30.34 275.238 30.2067 275.718 29.94C276.198 29.66 276.584 29.2667 276.878 28.76C277.184 28.24 277.338 27.62 277.338 26.9C277.338 26.18 277.184 25.5667 276.878 25.06C276.584 24.54 276.198 24.1467 275.718 23.88C275.238 23.6 274.718 23.46 274.158 23.46C273.598 23.46 273.071 23.6 272.578 23.88C272.098 24.1467 271.704 24.54 271.398 25.06C271.104 25.5667 270.958 26.18 270.958 26.9C270.958 27.62 271.104 28.24 271.398 28.76C271.704 29.2667 272.104 29.66 272.598 29.94C273.091 30.2067 273.611 30.34 274.158 30.34ZM273.238 19.84L273.978 16.72H276.538L275.058 19.84H273.238ZM288.216 32L285.396 25.04H285.296L282.376 32H279.976L284.216 22.44L283.476 20.86C283.236 20.3267 283.003 19.9733 282.776 19.8C282.55 19.6267 282.263 19.54 281.916 19.54C281.756 19.54 281.596 19.56 281.436 19.6C281.29 19.64 281.143 19.7067 280.996 19.8V17.7C281.183 17.6333 281.383 17.5867 281.596 17.56C281.81 17.5333 282.056 17.52 282.336 17.52C282.883 17.52 283.33 17.6067 283.676 17.78C284.036 17.94 284.343 18.2067 284.596 18.58C284.863 18.9533 285.13 19.4533 285.396 20.08L290.576 32H288.216ZM294.839 32.16C293.879 32.16 293.119 31.8867 292.559 31.34C291.999 30.78 291.719 30.0133 291.719 29.04V21.8H293.879V28.58C293.879 29.0867 293.986 29.4733 294.199 29.74C294.412 30.0067 294.759 30.14 295.239 30.14C295.492 30.14 295.706 30.1067 295.879 30.04C296.066 29.96 296.252 29.8667 296.439 29.76V31.86C296.212 31.9533 295.972 32.0267 295.719 32.08C295.466 32.1333 295.172 32.16 294.839 32.16ZM309.701 32.32C308.674 32.32 307.707 32.1333 306.801 31.76C305.894 31.3867 305.094 30.8667 304.401 30.2C303.721 29.52 303.181 28.7267 302.781 27.82C302.394 26.9 302.201 25.9067 302.201 24.84C302.201 23.7733 302.394 22.7867 302.781 21.88C303.181 20.96 303.721 20.1667 304.401 19.5C305.094 18.82 305.894 18.2933 306.801 17.92C307.707 17.5467 308.674 17.36 309.701 17.36C310.794 17.36 311.801 17.5533 312.721 17.94C313.654 18.3267 314.434 18.8667 315.061 19.56L313.541 21.06C313.234 20.7133 312.881 20.42 312.481 20.18C312.094 19.94 311.667 19.76 311.201 19.64C310.734 19.5067 310.234 19.44 309.701 19.44C308.994 19.44 308.321 19.5667 307.681 19.82C307.041 20.0733 306.474 20.44 305.981 20.92C305.501 21.3867 305.121 21.9533 304.841 22.62C304.561 23.2733 304.421 24.0133 304.421 24.84C304.421 25.6667 304.561 26.4133 304.841 27.08C305.134 27.7333 305.521 28.3 306.001 28.78C306.494 29.2467 307.061 29.6067 307.701 29.86C308.341 30.1133 309.014 30.24 309.721 30.24C310.374 30.24 310.981 30.1467 311.541 29.96C312.114 29.7733 312.614 29.5067 313.041 29.16C313.467 28.8133 313.814 28.3933 314.081 27.9C314.347 27.3933 314.514 26.8267 314.581 26.2H309.681V24.26H316.641C316.667 24.42 316.694 24.6067 316.721 24.82C316.747 25.02 316.761 25.2133 316.761 25.4V25.42C316.761 26.4467 316.581 27.3867 316.221 28.24C315.874 29.0933 315.387 29.8267 314.761 30.44C314.134 31.04 313.387 31.5067 312.521 31.84C311.667 32.16 310.727 32.32 309.701 32.32ZM323.201 32.32C322.147 32.32 321.221 32.08 320.421 31.6C319.621 31.12 318.994 30.4733 318.541 29.66C318.087 28.8333 317.861 27.9133 317.861 26.9C317.861 25.8867 318.087 24.9733 318.541 24.16C318.994 23.3333 319.621 22.68 320.421 22.2C321.221 21.72 322.147 21.48 323.201 21.48C324.241 21.48 325.161 21.7267 325.961 22.22C326.761 22.7 327.387 23.3467 327.841 24.16C328.294 24.9733 328.521 25.8867 328.521 26.9C328.521 27.9133 328.294 28.8333 327.841 29.66C327.387 30.4733 326.761 31.12 325.961 31.6C325.161 32.08 324.241 32.32 323.201 32.32ZM323.201 30.34C323.761 30.34 324.281 30.2067 324.761 29.94C325.241 29.66 325.627 29.2667 325.921 28.76C326.227 28.24 326.381 27.62 326.381 26.9C326.381 26.18 326.227 25.5667 325.921 25.06C325.627 24.54 325.241 24.1467 324.761 23.88C324.281 23.6 323.761 23.46 323.201 23.46C322.641 23.46 322.114 23.6 321.621 23.88C321.141 24.1467 320.747 24.54 320.441 25.06C320.147 25.5667 320.001 26.18 320.001 26.9C320.001 27.62 320.147 28.24 320.441 28.76C320.747 29.2667 321.147 29.66 321.641 29.94C322.134 30.2067 322.654 30.34 323.201 30.34ZM335.31 32.32C334.257 32.32 333.33 32.08 332.53 31.6C331.73 31.12 331.103 30.4733 330.65 29.66C330.197 28.8333 329.97 27.9133 329.97 26.9C329.97 25.8867 330.197 24.9733 330.65 24.16C331.103 23.3333 331.73 22.68 332.53 22.2C333.33 21.72 334.257 21.48 335.31 21.48C336.35 21.48 337.27 21.7267 338.07 22.22C338.87 22.7 339.497 23.3467 339.95 24.16C340.403 24.9733 340.63 25.8867 340.63 26.9C340.63 27.9133 340.403 28.8333 339.95 29.66C339.497 30.4733 338.87 31.12 338.07 31.6C337.27 32.08 336.35 32.32 335.31 32.32ZM335.31 30.34C335.87 30.34 336.39 30.2067 336.87 29.94C337.35 29.66 337.737 29.2667 338.03 28.76C338.337 28.24 338.49 27.62 338.49 26.9C338.49 26.18 338.337 25.5667 338.03 25.06C337.737 24.54 337.35 24.1467 336.87 23.88C336.39 23.6 335.87 23.46 335.31 23.46C334.75 23.46 334.223 23.6 333.73 23.88C333.25 24.1467 332.857 24.54 332.55 25.06C332.257 25.5667 332.11 26.18 332.11 26.9C332.11 27.62 332.257 28.24 332.55 28.76C332.857 29.2667 333.257 29.66 333.75 29.94C334.243 30.2067 334.763 30.34 335.31 30.34ZM347.219 36.64C346.326 36.64 345.553 36.4933 344.899 36.2C344.259 35.92 343.739 35.5533 343.339 35.1C342.939 34.66 342.653 34.2067 342.479 33.74L344.479 32.9C344.693 33.4333 345.033 33.8667 345.499 34.2C345.979 34.5467 346.553 34.72 347.219 34.72C348.166 34.72 348.906 34.44 349.439 33.88C349.973 33.32 350.239 32.5267 350.239 31.5V30.52H350.119C349.799 30.9867 349.359 31.3667 348.799 31.66C348.239 31.9533 347.593 32.1 346.859 32.1C345.993 32.1 345.193 31.88 344.459 31.44C343.739 31 343.159 30.3867 342.719 29.6C342.293 28.8 342.079 27.8667 342.079 26.8C342.079 25.72 342.293 24.7867 342.719 24C343.159 23.2 343.739 22.58 344.459 22.14C345.193 21.7 345.993 21.48 346.859 21.48C347.593 21.48 348.239 21.6267 348.799 21.92C349.359 22.2 349.799 22.5867 350.119 23.08H350.239V21.8H352.299V31.46C352.299 32.5667 352.079 33.5067 351.639 34.28C351.213 35.0533 350.619 35.64 349.859 36.04C349.099 36.44 348.219 36.64 347.219 36.64ZM347.239 30.14C347.773 30.14 348.266 30.0133 348.719 29.76C349.186 29.4933 349.553 29.1133 349.819 28.62C350.099 28.1133 350.239 27.5067 350.239 26.8C350.239 26.0533 350.099 25.4333 349.819 24.94C349.553 24.4467 349.186 24.0733 348.719 23.82C348.266 23.5667 347.773 23.44 347.239 23.44C346.706 23.44 346.206 23.5667 345.739 23.82C345.286 24.0733 344.919 24.4533 344.639 24.96C344.359 25.4533 344.219 26.0667 344.219 26.8C344.219 27.52 344.359 28.1333 344.639 28.64C344.919 29.1333 345.286 29.5067 345.739 29.76C346.206 30.0133 346.706 30.14 347.239 30.14ZM354.846 32V17.68H357.006V32H354.846ZM364.115 32.32C363.115 32.32 362.222 32.0867 361.435 31.62C360.649 31.1533 360.029 30.5133 359.575 29.7C359.135 28.8867 358.915 27.96 358.915 26.92C358.915 25.9467 359.129 25.0467 359.555 24.22C359.982 23.3933 360.575 22.7333 361.335 22.24C362.109 21.7333 362.995 21.48 363.995 21.48C365.049 21.48 365.942 21.7067 366.675 22.16C367.422 22.6133 367.989 23.2333 368.375 24.02C368.762 24.8067 368.955 25.6933 368.955 26.68C368.955 26.8267 368.949 26.96 368.935 27.08C368.935 27.2 368.929 27.2933 368.915 27.36H361.035C361.089 27.92 361.229 28.4067 361.455 28.82C361.749 29.34 362.135 29.7333 362.615 30C363.095 30.2667 363.615 30.4 364.175 30.4C364.855 30.4 365.422 30.2467 365.875 29.94C366.342 29.62 366.709 29.2267 366.975 28.76L368.755 29.62C368.315 30.42 367.715 31.0733 366.955 31.58C366.195 32.0733 365.249 32.32 364.115 32.32ZM361.155 25.74H366.815C366.802 25.4867 366.735 25.22 366.615 24.94C366.495 24.6467 366.322 24.38 366.095 24.14C365.869 23.9 365.582 23.7067 365.235 23.56C364.889 23.4 364.482 23.32 364.015 23.32C363.429 23.32 362.909 23.4733 362.455 23.78C362.002 24.0733 361.649 24.4867 361.395 25.02C361.289 25.2467 361.209 25.4867 361.155 25.74Z" fill="white"/>
</svg>
