<svg width="280" height="50" viewBox="0 0 280 50" fill="none" xmlns="http://www.w3.org/2000/svg">
<rect x="0.5" y="0.5" width="279" height="49" rx="24.5" fill="#1F1F1F"/>
<rect x="0.5" y="0.5" width="279" height="49" rx="24.5" stroke="#747775"/>
<path d="M51 22H21V17C21 14.2857 23.2018 12 25.8165 12H46.1835C48.7982 12 51 14.2857 51 17V22Z" fill="#34A853"/>
<path d="M51 26.0537H21V21.0537C21 18.3394 23.2018 16.0537 25.8165 16.0537H46.1835C48.7982 16.0537 51 18.3394 51 21.0537V26.0537Z" fill="#FBBC04"/>
<path d="M51 30.2468H21V25.2468C21 22.5325 23.2018 20.2468 25.8165 20.2468H46.1835C48.7982 20.2468 51 22.5325 51 25.2468V30.2468Z" fill="#EA4335"/>
<path d="M21 23.2752L40.0411 27.6789C42.2329 28.2294 44.6986 27.6789 46.4795 26.3028L51 23V33.3211C51 35.9358 48.8082 38 46.2055 38H25.7945C23.1918 38 21 35.9358 21 33.3211V23.2752Z" fill="#4285F4"/>
<path d="M68.36 32L63.28 17.68H65.68L68.92 27.2L69.42 28.82H69.54L70.08 27.2L73.46 17.68H75.86L70.64 32H68.36ZM80.8731 32.32C79.8731 32.32 78.9798 32.0867 78.1931 31.62C77.4065 31.1533 76.7865 30.5133 76.3331 29.7C75.8931 28.8867 75.6731 27.96 75.6731 26.92C75.6731 25.9467 75.8865 25.0467 76.3131 24.22C76.7398 23.3933 77.3331 22.7333 78.0931 22.24C78.8665 21.7333 79.7531 21.48 80.7531 21.48C81.8065 21.48 82.6998 21.7067 83.4331 22.16C84.1798 22.6133 84.7465 23.2333 85.1331 24.02C85.5198 24.8067 85.7131 25.6933 85.7131 26.68C85.7131 26.8267 85.7065 26.96 85.6931 27.08C85.6931 27.2 85.6865 27.2933 85.6731 27.36H77.7931C77.8465 27.92 77.9865 28.4067 78.2131 28.82C78.5065 29.34 78.8931 29.7333 79.3731 30C79.8531 30.2667 80.3731 30.4 80.9331 30.4C81.6131 30.4 82.1798 30.2467 82.6331 29.94C83.0998 29.62 83.4665 29.2267 83.7331 28.76L85.5131 29.62C85.0731 30.42 84.4731 31.0733 83.7131 31.58C82.9531 32.0733 82.0065 32.32 80.8731 32.32ZM77.9131 25.74H83.5731C83.5598 25.4867 83.4931 25.22 83.3731 24.94C83.2531 24.6467 83.0798 24.38 82.8531 24.14C82.6265 23.9 82.3398 23.7067 81.9931 23.56C81.6465 23.4 81.2398 23.32 80.7731 23.32C80.1865 23.32 79.6665 23.4733 79.2131 23.78C78.7598 24.0733 78.4065 24.4867 78.1531 25.02C78.0465 25.2467 77.9665 25.4867 77.9131 25.74ZM87.717 32V21.8H89.757V23.3H89.877C90.037 22.9533 90.2637 22.6467 90.557 22.38C90.8637 22.1133 91.2104 21.9 91.597 21.74C91.997 21.58 92.4104 21.5 92.837 21.5C93.117 21.5 93.3504 21.52 93.537 21.56C93.737 21.5867 93.917 21.6333 94.077 21.7V23.94C93.8237 23.8333 93.5637 23.7467 93.297 23.68C93.0437 23.6133 92.777 23.58 92.497 23.58C91.9904 23.58 91.537 23.72 91.137 24C90.7504 24.2667 90.4437 24.6267 90.217 25.08C89.9904 25.5333 89.877 26.04 89.877 26.6V32H87.717ZM105.072 32.32C104.072 32.32 103.179 32.0867 102.392 31.62C101.606 31.1533 100.986 30.5133 100.532 29.7C100.092 28.8867 99.8723 27.96 99.8723 26.92C99.8723 25.9467 100.086 25.0467 100.512 24.22C100.939 23.3933 101.532 22.7333 102.292 22.24C103.066 21.7333 103.952 21.48 104.952 21.48C106.006 21.48 106.899 21.7067 107.632 22.16C108.379 22.6133 108.946 23.2333 109.332 24.02C109.719 24.8067 109.912 25.6933 109.912 26.68C109.912 26.8267 109.906 26.96 109.892 27.08C109.892 27.2 109.886 27.2933 109.872 27.36H101.992C102.046 27.92 102.186 28.4067 102.412 28.82C102.706 29.34 103.092 29.7333 103.572 30C104.052 30.2667 104.572 30.4 105.132 30.4C105.812 30.4 106.379 30.2467 106.832 29.94C107.299 29.62 107.666 29.2267 107.932 28.76L109.712 29.62C109.272 30.42 108.672 31.0733 107.912 31.58C107.152 32.0733 106.206 32.32 105.072 32.32ZM102.112 25.74H107.772C107.759 25.4867 107.692 25.22 107.572 24.94C107.452 24.6467 107.279 24.38 107.052 24.14C106.826 23.9 106.539 23.7067 106.192 23.56C105.846 23.4 105.439 23.32 104.972 23.32C104.386 23.32 103.866 23.4733 103.412 23.78C102.959 24.0733 102.606 24.4867 102.352 25.02C102.246 25.2467 102.166 25.4867 102.112 25.74ZM111.916 32V21.8H113.956V23.2H114.076C114.37 22.7067 114.803 22.3 115.376 21.98C115.963 21.6467 116.603 21.48 117.296 21.48C118.55 21.48 119.49 21.8533 120.116 22.6C120.743 23.3333 121.056 24.32 121.056 25.56V32H118.916V25.84C118.916 25.0133 118.71 24.4133 118.296 24.04C117.883 23.6533 117.343 23.46 116.676 23.46C116.156 23.46 115.703 23.6067 115.316 23.9C114.93 24.18 114.623 24.5533 114.396 25.02C114.183 25.4867 114.076 25.9867 114.076 26.52V32H111.916Z" fill="white"/>
<path d="M136.4 32.32C135.373 32.32 134.407 32.1333 133.5 31.76C132.593 31.3867 131.793 30.8667 131.1 30.2C130.42 29.52 129.88 28.7267 129.48 27.82C129.093 26.9 128.9 25.9067 128.9 24.84C128.9 23.7733 129.093 22.7867 129.48 21.88C129.88 20.96 130.42 20.1667 131.1 19.5C131.793 18.82 132.593 18.2933 133.5 17.92C134.407 17.5467 135.373 17.36 136.4 17.36C137.493 17.36 138.5 17.5533 139.42 17.94C140.353 18.3267 141.133 18.8667 141.76 19.56L140.24 21.06C139.933 20.7133 139.58 20.42 139.18 20.18C138.793 19.94 138.367 19.76 137.9 19.64C137.433 19.5067 136.933 19.44 136.4 19.44C135.693 19.44 135.02 19.5667 134.38 19.82C133.74 20.0733 133.173 20.44 132.68 20.92C132.2 21.3867 131.82 21.9533 131.54 22.62C131.26 23.2733 131.12 24.0133 131.12 24.84C131.12 25.6667 131.26 26.4133 131.54 27.08C131.833 27.7333 132.22 28.3 132.7 28.78C133.193 29.2467 133.76 29.6067 134.4 29.86C135.04 30.1133 135.713 30.24 136.42 30.24C137.073 30.24 137.68 30.1467 138.24 29.96C138.813 29.7733 139.313 29.5067 139.74 29.16C140.167 28.8133 140.513 28.3933 140.78 27.9C141.047 27.3933 141.213 26.8267 141.28 26.2H136.38V24.26H143.34C143.367 24.42 143.393 24.6067 143.42 24.82C143.447 25.02 143.46 25.2133 143.46 25.4V25.42C143.46 26.4467 143.28 27.3867 142.92 28.24C142.573 29.0933 142.087 29.8267 141.46 30.44C140.833 31.04 140.087 31.5067 139.22 31.84C138.367 32.16 137.427 32.32 136.4 32.32ZM149.9 32.32C148.847 32.32 147.92 32.08 147.12 31.6C146.32 31.12 145.693 30.4733 145.24 29.66C144.787 28.8333 144.56 27.9133 144.56 26.9C144.56 25.8867 144.787 24.9733 145.24 24.16C145.693 23.3333 146.32 22.68 147.12 22.2C147.92 21.72 148.847 21.48 149.9 21.48C150.94 21.48 151.86 21.7267 152.66 22.22C153.46 22.7 154.087 23.3467 154.54 24.16C154.993 24.9733 155.22 25.8867 155.22 26.9C155.22 27.9133 154.993 28.8333 154.54 29.66C154.087 30.4733 153.46 31.12 152.66 31.6C151.86 32.08 150.94 32.32 149.9 32.32ZM149.9 30.34C150.46 30.34 150.98 30.2067 151.46 29.94C151.94 29.66 152.327 29.2667 152.62 28.76C152.927 28.24 153.08 27.62 153.08 26.9C153.08 26.18 152.927 25.5667 152.62 25.06C152.327 24.54 151.94 24.1467 151.46 23.88C150.98 23.6 150.46 23.46 149.9 23.46C149.34 23.46 148.813 23.6 148.32 23.88C147.84 24.1467 147.447 24.54 147.14 25.06C146.847 25.5667 146.7 26.18 146.7 26.9C146.7 27.62 146.847 28.24 147.14 28.76C147.447 29.2667 147.847 29.66 148.34 29.94C148.833 30.2067 149.353 30.34 149.9 30.34ZM162.009 32.32C160.956 32.32 160.029 32.08 159.229 31.6C158.429 31.12 157.803 30.4733 157.349 29.66C156.896 28.8333 156.669 27.9133 156.669 26.9C156.669 25.8867 156.896 24.9733 157.349 24.16C157.803 23.3333 158.429 22.68 159.229 22.2C160.029 21.72 160.956 21.48 162.009 21.48C163.049 21.48 163.969 21.7267 164.769 22.22C165.569 22.7 166.196 23.3467 166.649 24.16C167.103 24.9733 167.329 25.8867 167.329 26.9C167.329 27.9133 167.103 28.8333 166.649 29.66C166.196 30.4733 165.569 31.12 164.769 31.6C163.969 32.08 163.049 32.32 162.009 32.32ZM162.009 30.34C162.569 30.34 163.089 30.2067 163.569 29.94C164.049 29.66 164.436 29.2667 164.729 28.76C165.036 28.24 165.189 27.62 165.189 26.9C165.189 26.18 165.036 25.5667 164.729 25.06C164.436 24.54 164.049 24.1467 163.569 23.88C163.089 23.6 162.569 23.46 162.009 23.46C161.449 23.46 160.923 23.6 160.429 23.88C159.949 24.1467 159.556 24.54 159.249 25.06C158.956 25.5667 158.809 26.18 158.809 26.9C158.809 27.62 158.956 28.24 159.249 28.76C159.556 29.2667 159.956 29.66 160.449 29.94C160.943 30.2067 161.463 30.34 162.009 30.34ZM173.919 36.64C173.025 36.64 172.252 36.4933 171.599 36.2C170.959 35.92 170.439 35.5533 170.039 35.1C169.639 34.66 169.352 34.2067 169.179 33.74L171.179 32.9C171.392 33.4333 171.732 33.8667 172.199 34.2C172.679 34.5467 173.252 34.72 173.919 34.72C174.865 34.72 175.605 34.44 176.139 33.88C176.672 33.32 176.939 32.5267 176.939 31.5V30.52H176.819C176.499 30.9867 176.059 31.3667 175.499 31.66C174.939 31.9533 174.292 32.1 173.559 32.1C172.692 32.1 171.892 31.88 171.159 31.44C170.439 31 169.859 30.3867 169.419 29.6C168.992 28.8 168.779 27.8667 168.779 26.8C168.779 25.72 168.992 24.7867 169.419 24C169.859 23.2 170.439 22.58 171.159 22.14C171.892 21.7 172.692 21.48 173.559 21.48C174.292 21.48 174.939 21.6267 175.499 21.92C176.059 22.2 176.499 22.5867 176.819 23.08H176.939V21.8H178.999V31.46C178.999 32.5667 178.779 33.5067 178.339 34.28C177.912 35.0533 177.319 35.64 176.559 36.04C175.799 36.44 174.919 36.64 173.919 36.64ZM173.939 30.14C174.472 30.14 174.965 30.0133 175.419 29.76C175.885 29.4933 176.252 29.1133 176.519 28.62C176.799 28.1133 176.939 27.5067 176.939 26.8C176.939 26.0533 176.799 25.4333 176.519 24.94C176.252 24.4467 175.885 24.0733 175.419 23.82C174.965 23.5667 174.472 23.44 173.939 23.44C173.405 23.44 172.905 23.5667 172.439 23.82C171.985 24.0733 171.619 24.4533 171.339 24.96C171.059 25.4533 170.919 26.0667 170.919 26.8C170.919 27.52 171.059 28.1333 171.339 28.64C171.619 29.1333 171.985 29.5067 172.439 29.76C172.905 30.0133 173.405 30.14 173.939 30.14ZM181.546 32V17.68H183.706V32H181.546ZM190.815 32.32C189.815 32.32 188.921 32.0867 188.135 31.62C187.348 31.1533 186.728 30.5133 186.275 29.7C185.835 28.8867 185.615 27.96 185.615 26.92C185.615 25.9467 185.828 25.0467 186.255 24.22C186.681 23.3933 187.275 22.7333 188.035 22.24C188.808 21.7333 189.695 21.48 190.695 21.48C191.748 21.48 192.641 21.7067 193.375 22.16C194.121 22.6133 194.688 23.2333 195.075 24.02C195.461 24.8067 195.655 25.6933 195.655 26.68C195.655 26.8267 195.648 26.96 195.635 27.08C195.635 27.2 195.628 27.2933 195.615 27.36H187.735C187.788 27.92 187.928 28.4067 188.155 28.82C188.448 29.34 188.835 29.7333 189.315 30C189.795 30.2667 190.315 30.4 190.875 30.4C191.555 30.4 192.121 30.2467 192.575 29.94C193.041 29.62 193.408 29.2267 193.675 28.76L195.455 29.62C195.015 30.42 194.415 31.0733 193.655 31.58C192.895 32.0733 191.948 32.32 190.815 32.32ZM187.855 25.74H193.515C193.501 25.4867 193.435 25.22 193.315 24.94C193.195 24.6467 193.021 24.38 192.795 24.14C192.568 23.9 192.281 23.7067 191.935 23.56C191.588 23.4 191.181 23.32 190.715 23.32C190.128 23.32 189.608 23.4733 189.155 23.78C188.701 24.0733 188.348 24.4867 188.095 25.02C187.988 25.2467 187.908 25.4867 187.855 25.74ZM204.446 32L200.606 17.68H203.046L205.326 26.98L205.566 28.22H205.686L205.986 26.98L208.866 17.68H211.066L213.826 26.98L214.126 28.2H214.246L214.486 26.98L216.766 17.68H219.186L215.406 32H213.086L210.346 22.5L210.026 21.16H209.906L209.566 22.5L206.706 32H204.446ZM223.202 32.32C222.469 32.32 221.816 32.1733 221.242 31.88C220.682 31.5867 220.236 31.1867 219.902 30.68C219.582 30.16 219.422 29.5667 219.422 28.9C219.422 28.1667 219.609 27.5467 219.982 27.04C220.369 26.5333 220.882 26.1467 221.522 25.88C222.162 25.6133 222.869 25.48 223.642 25.48C224.069 25.48 224.462 25.5133 224.822 25.58C225.196 25.6333 225.516 25.7 225.782 25.78C226.062 25.86 226.282 25.9467 226.442 26.04V25.5C226.442 24.8333 226.202 24.3 225.722 23.9C225.242 23.5 224.622 23.3 223.862 23.3C223.342 23.3 222.849 23.42 222.382 23.66C221.916 23.8867 221.542 24.2 221.262 24.6L219.782 23.46C220.076 23.0467 220.429 22.6933 220.842 22.4C221.269 22.1067 221.742 21.88 222.262 21.72C222.796 21.56 223.349 21.48 223.922 21.48C225.402 21.48 226.542 21.8467 227.342 22.58C228.142 23.3 228.542 24.3133 228.542 25.62V32H226.442V30.74H226.322C226.149 31.0067 225.909 31.26 225.602 31.5C225.309 31.74 224.956 31.9333 224.542 32.08C224.142 32.24 223.696 32.32 223.202 32.32ZM223.582 30.56C224.142 30.56 224.636 30.4267 225.062 30.16C225.502 29.8933 225.842 29.5467 226.082 29.12C226.322 28.68 226.442 28.2067 226.442 27.7C226.149 27.5267 225.789 27.3867 225.362 27.28C224.949 27.16 224.509 27.1 224.042 27.1C223.162 27.1 222.536 27.2733 222.162 27.62C221.789 27.9667 221.602 28.4 221.602 28.92C221.602 29.4 221.782 29.7933 222.142 30.1C222.502 30.4067 222.982 30.56 223.582 30.56ZM230.94 32V17.68H233.1V32H230.94ZM235.667 32V17.68H237.827V32H235.667ZM244.936 32.32C243.936 32.32 243.042 32.0867 242.256 31.62C241.469 31.1533 240.849 30.5133 240.396 29.7C239.956 28.8867 239.736 27.96 239.736 26.92C239.736 25.9467 239.949 25.0467 240.376 24.22C240.802 23.3933 241.396 22.7333 242.156 22.24C242.929 21.7333 243.816 21.48 244.816 21.48C245.869 21.48 246.762 21.7067 247.496 22.16C248.242 22.6133 248.809 23.2333 249.196 24.02C249.582 24.8067 249.776 25.6933 249.776 26.68C249.776 26.8267 249.769 26.96 249.756 27.08C249.756 27.2 249.749 27.2933 249.736 27.36H241.856C241.909 27.92 242.049 28.4067 242.276 28.82C242.569 29.34 242.956 29.7333 243.436 30C243.916 30.2667 244.436 30.4 244.996 30.4C245.676 30.4 246.242 30.2467 246.696 29.94C247.162 29.62 247.529 29.2267 247.796 28.76L249.576 29.62C249.136 30.42 248.536 31.0733 247.776 31.58C247.016 32.0733 246.069 32.32 244.936 32.32ZM241.976 25.74H247.636C247.622 25.4867 247.556 25.22 247.436 24.94C247.316 24.6467 247.142 24.38 246.916 24.14C246.689 23.9 246.402 23.7067 246.056 23.56C245.709 23.4 245.302 23.32 244.836 23.32C244.249 23.32 243.729 23.4733 243.276 23.78C242.822 24.0733 242.469 24.4867 242.216 25.02C242.109 25.2467 242.029 25.4867 241.976 25.74ZM250.787 21.8H252.567V18.92H254.727V21.8H257.227V23.68H254.727V28.58C254.727 29.0867 254.827 29.4733 255.027 29.74C255.24 30.0067 255.593 30.14 256.087 30.14C256.327 30.14 256.54 30.1067 256.727 30.04C256.913 29.96 257.1 29.8667 257.287 29.76V31.86C257.06 31.9533 256.82 32.0267 256.567 32.08C256.313 32.1333 256.013 32.16 255.667 32.16C254.72 32.16 253.967 31.8867 253.407 31.34C252.847 30.78 252.567 30.0133 252.567 29.04V23.68H250.787V21.8Z" fill="white"/>
</svg>
