<svg width="346" height="50" viewBox="0 0 346 50" fill="none" xmlns="http://www.w3.org/2000/svg">
<rect x="0.5" y="0.5" width="345" height="49" rx="24.5" fill="#1F1F1F"/>
<rect x="0.5" y="0.5" width="345" height="49" rx="24.5" stroke="#747775"/>
<path d="M51 22H21V17C21 14.2857 23.2018 12 25.8165 12H46.1835C48.7982 12 51 14.2857 51 17V22Z" fill="#34A853"/>
<path d="M51 26.0537H21V21.0537C21 18.3394 23.2018 16.0537 25.8165 16.0537H46.1835C48.7982 16.0537 51 18.3394 51 21.0537V26.0537Z" fill="#FBBC04"/>
<path d="M51 30.2468H21V25.2468C21 22.5325 23.2018 20.2468 25.8165 20.2468H46.1835C48.7982 20.2468 51 22.5325 51 25.2468V30.2468Z" fill="#EA4335"/>
<path d="M21 23.2752L40.0411 27.6789C42.2329 28.2294 44.6986 27.6789 46.4795 26.3028L51 23V33.3211C51 35.9358 48.8082 38 46.2055 38H25.7945C23.1918 38 21 35.9358 21 33.3211V23.2752Z" fill="#4285F4"/>
<path d="M68.36 32L63.28 17.68H65.68L68.92 27.2L69.42 28.82H69.54L70.08 27.2L73.46 17.68H75.86L70.64 32H68.36ZM80.8731 32.32C79.8731 32.32 78.9798 32.0867 78.1931 31.62C77.4065 31.1533 76.7865 30.5133 76.3331 29.7C75.8931 28.8867 75.6731 27.96 75.6731 26.92C75.6731 25.9467 75.8865 25.0467 76.3131 24.22C76.7398 23.3933 77.3331 22.7333 78.0931 22.24C78.8665 21.7333 79.7531 21.48 80.7531 21.48C81.8065 21.48 82.6998 21.7067 83.4331 22.16C84.1798 22.6133 84.7465 23.2333 85.1331 24.02C85.5198 24.8067 85.7131 25.6933 85.7131 26.68C85.7131 26.8267 85.7065 26.96 85.6931 27.08C85.6931 27.2 85.6865 27.2933 85.6731 27.36H77.7931C77.8465 27.92 77.9865 28.4067 78.2131 28.82C78.5065 29.34 78.8931 29.7333 79.3731 30C79.8531 30.2667 80.3731 30.4 80.9331 30.4C81.6131 30.4 82.1798 30.2467 82.6331 29.94C83.0998 29.62 83.4665 29.2267 83.7331 28.76L85.5131 29.62C85.0731 30.42 84.4731 31.0733 83.7131 31.58C82.9531 32.0733 82.0065 32.32 80.8731 32.32ZM77.9131 25.74H83.5731C83.5598 25.4867 83.4931 25.22 83.3731 24.94C83.2531 24.6467 83.0798 24.38 82.8531 24.14C82.6265 23.9 82.3398 23.7067 81.9931 23.56C81.6465 23.4 81.2398 23.32 80.7731 23.32C80.1865 23.32 79.6665 23.4733 79.2131 23.78C78.7598 24.0733 78.4065 24.4867 78.1531 25.02C78.0465 25.2467 77.9665 25.4867 77.9131 25.74ZM87.717 32V21.8H89.757V23.3H89.877C90.037 22.9533 90.2637 22.6467 90.557 22.38C90.8637 22.1133 91.2104 21.9 91.597 21.74C91.997 21.58 92.4104 21.5 92.837 21.5C93.117 21.5 93.3504 21.52 93.537 21.56C93.737 21.5867 93.917 21.6333 94.077 21.7V23.94C93.8237 23.8333 93.5637 23.7467 93.297 23.68C93.0437 23.6133 92.777 23.58 92.497 23.58C91.9904 23.58 91.537 23.72 91.137 24C90.7504 24.2667 90.4437 24.6267 90.217 25.08C89.9904 25.5333 89.877 26.04 89.877 26.6V32H87.717ZM105.072 32.32C104.072 32.32 103.179 32.0867 102.392 31.62C101.606 31.1533 100.986 30.5133 100.532 29.7C100.092 28.8867 99.8723 27.96 99.8723 26.92C99.8723 25.9467 100.086 25.0467 100.512 24.22C100.939 23.3933 101.532 22.7333 102.292 22.24C103.066 21.7333 103.952 21.48 104.952 21.48C106.006 21.48 106.899 21.7067 107.632 22.16C108.379 22.6133 108.946 23.2333 109.332 24.02C109.719 24.8067 109.912 25.6933 109.912 26.68C109.912 26.8267 109.906 26.96 109.892 27.08C109.892 27.2 109.886 27.2933 109.872 27.36H101.992C102.046 27.92 102.186 28.4067 102.412 28.82C102.706 29.34 103.092 29.7333 103.572 30C104.052 30.2667 104.572 30.4 105.132 30.4C105.812 30.4 106.379 30.2467 106.832 29.94C107.299 29.62 107.666 29.2267 107.932 28.76L109.712 29.62C109.272 30.42 108.672 31.0733 107.912 31.58C107.152 32.0733 106.206 32.32 105.072 32.32ZM102.112 25.74H107.772C107.759 25.4867 107.692 25.22 107.572 24.94C107.452 24.6467 107.279 24.38 107.052 24.14C106.826 23.9 106.539 23.7067 106.192 23.56C105.846 23.4 105.439 23.32 104.972 23.32C104.386 23.32 103.866 23.4733 103.412 23.78C102.959 24.0733 102.606 24.4867 102.352 25.02C102.246 25.2467 102.166 25.4867 102.112 25.74ZM111.916 32V21.8H113.956V23.2H114.076C114.37 22.7067 114.803 22.3 115.376 21.98C115.963 21.6467 116.603 21.48 117.296 21.48C118.55 21.48 119.49 21.8533 120.116 22.6C120.743 23.3333 121.056 24.32 121.056 25.56V32H118.916V25.84C118.916 25.0133 118.71 24.4133 118.296 24.04C117.883 23.6533 117.343 23.46 116.676 23.46C116.156 23.46 115.703 23.6067 115.316 23.9C114.93 24.18 114.623 24.5533 114.396 25.02C114.183 25.4867 114.076 25.9867 114.076 26.52V32H111.916ZM128.206 32V17.68H130.366V32H128.206ZM136.015 32.32C135.281 32.32 134.628 32.1733 134.055 31.88C133.495 31.5867 133.048 31.1867 132.715 30.68C132.395 30.16 132.235 29.5667 132.235 28.9C132.235 28.1667 132.421 27.5467 132.795 27.04C133.181 26.5333 133.695 26.1467 134.335 25.88C134.975 25.6133 135.681 25.48 136.455 25.48C136.881 25.48 137.275 25.5133 137.635 25.58C138.008 25.6333 138.328 25.7 138.595 25.78C138.875 25.86 139.095 25.9467 139.255 26.04V25.5C139.255 24.8333 139.015 24.3 138.535 23.9C138.055 23.5 137.435 23.3 136.675 23.3C136.155 23.3 135.661 23.42 135.195 23.66C134.728 23.8867 134.355 24.2 134.075 24.6L132.595 23.46C132.888 23.0467 133.241 22.6933 133.655 22.4C134.081 22.1067 134.555 21.88 135.075 21.72C135.608 21.56 136.161 21.48 136.735 21.48C138.215 21.48 139.355 21.8467 140.155 22.58C140.955 23.3 141.355 24.3133 141.355 25.62V32H139.255V30.74H139.135C138.961 31.0067 138.721 31.26 138.415 31.5C138.121 31.74 137.768 31.9333 137.355 32.08C136.955 32.24 136.508 32.32 136.015 32.32ZM136.395 30.56C136.955 30.56 137.448 30.4267 137.875 30.16C138.315 29.8933 138.655 29.5467 138.895 29.12C139.135 28.68 139.255 28.2067 139.255 27.7C138.961 27.5267 138.601 27.3867 138.175 27.28C137.761 27.16 137.321 27.1 136.855 27.1C135.975 27.1 135.348 27.2733 134.975 27.62C134.601 27.9667 134.415 28.4 134.415 28.92C134.415 29.4 134.595 29.7933 134.955 30.1C135.315 30.4067 135.795 30.56 136.395 30.56Z" fill="white"/>
<path d="M149.62 32V17.68H154.98C155.767 17.68 156.48 17.8467 157.12 18.18C157.76 18.5133 158.267 18.9667 158.64 19.54C159.027 20.1133 159.22 20.76 159.22 21.48C159.22 22.2133 159.04 22.84 158.68 23.36C158.32 23.88 157.853 24.2733 157.28 24.54V24.64C158 24.88 158.587 25.2933 159.04 25.88C159.493 26.4667 159.72 27.1667 159.72 27.98C159.72 28.78 159.513 29.48 159.1 30.08C158.7 30.68 158.153 31.1533 157.46 31.5C156.78 31.8333 156.033 32 155.22 32H149.62ZM151.82 25.66V29.96H155.22C155.7 29.96 156.113 29.86 156.46 29.66C156.807 29.46 157.067 29.1933 157.24 28.86C157.427 28.5267 157.52 28.18 157.52 27.82C157.52 27.4333 157.427 27.08 157.24 26.76C157.053 26.4267 156.78 26.16 156.42 25.96C156.073 25.76 155.647 25.66 155.14 25.66H151.82ZM151.82 23.7H154.88C155.347 23.7 155.74 23.6067 156.06 23.42C156.393 23.22 156.647 22.9667 156.82 22.66C156.993 22.34 157.08 22.0133 157.08 21.68C157.08 21.3467 156.993 21.0333 156.82 20.74C156.66 20.4333 156.42 20.1867 156.1 20C155.78 19.8 155.4 19.7 154.96 19.7H151.82V23.7ZM161.94 32V21.8H164.1V32H161.94ZM163.02 20.3C162.62 20.3 162.273 20.16 161.98 19.88C161.7 19.5867 161.56 19.24 161.56 18.84C161.56 18.4267 161.7 18.0867 161.98 17.82C162.273 17.54 162.62 17.4 163.02 17.4C163.433 17.4 163.78 17.54 164.06 17.82C164.34 18.0867 164.48 18.4267 164.48 18.84C164.48 19.24 164.34 19.5867 164.06 19.88C163.78 20.16 163.433 20.3 163.02 20.3ZM166.8 32V17.68H168.96V32H166.8ZM171.526 32V17.68H173.686V32H171.526ZM180.795 32.32C179.795 32.32 178.902 32.0867 178.115 31.62C177.328 31.1533 176.708 30.5133 176.255 29.7C175.815 28.8867 175.595 27.96 175.595 26.92C175.595 25.9467 175.808 25.0467 176.235 24.22C176.662 23.3933 177.255 22.7333 178.015 22.24C178.788 21.7333 179.675 21.48 180.675 21.48C181.728 21.48 182.622 21.7067 183.355 22.16C184.102 22.6133 184.668 23.2333 185.055 24.02C185.442 24.8067 185.635 25.6933 185.635 26.68C185.635 26.8267 185.628 26.96 185.615 27.08C185.615 27.2 185.608 27.2933 185.595 27.36H177.715C177.768 27.92 177.908 28.4067 178.135 28.82C178.428 29.34 178.815 29.7333 179.295 30C179.775 30.2667 180.295 30.4 180.855 30.4C181.535 30.4 182.102 30.2467 182.555 29.94C183.022 29.62 183.388 29.2267 183.655 28.76L185.435 29.62C184.995 30.42 184.395 31.0733 183.635 31.58C182.875 32.0733 181.928 32.32 180.795 32.32ZM177.835 25.74H183.495C183.482 25.4867 183.415 25.22 183.295 24.94C183.175 24.6467 183.002 24.38 182.775 24.14C182.548 23.9 182.262 23.7067 181.915 23.56C181.568 23.4 181.162 23.32 180.695 23.32C180.108 23.32 179.588 23.4733 179.135 23.78C178.682 24.0733 178.328 24.4867 178.075 25.02C177.968 25.2467 177.888 25.4867 177.835 25.74ZM186.646 21.8H188.426V18.92H190.586V21.8H193.086V23.68H190.586V28.58C190.586 29.0867 190.686 29.4733 190.886 29.74C191.099 30.0067 191.453 30.14 191.946 30.14C192.186 30.14 192.399 30.1067 192.586 30.04C192.773 29.96 192.959 29.8667 193.146 29.76V31.86C192.919 31.9533 192.679 32.0267 192.426 32.08C192.173 32.1333 191.873 32.16 191.526 32.16C190.579 32.16 189.826 31.8867 189.266 31.34C188.706 30.78 188.426 30.0133 188.426 29.04V23.68H186.646V21.8ZM199.428 32.32C198.428 32.32 197.534 32.0867 196.748 31.62C195.961 31.1533 195.341 30.5133 194.888 29.7C194.448 28.8867 194.228 27.96 194.228 26.92C194.228 25.9467 194.441 25.0467 194.868 24.22C195.294 23.3933 195.888 22.7333 196.648 22.24C197.421 21.7333 198.308 21.48 199.308 21.48C200.361 21.48 201.254 21.7067 201.988 22.16C202.734 22.6133 203.301 23.2333 203.688 24.02C204.074 24.8067 204.268 25.6933 204.268 26.68C204.268 26.8267 204.261 26.96 204.248 27.08C204.248 27.2 204.241 27.2933 204.228 27.36H196.348C196.401 27.92 196.541 28.4067 196.768 28.82C197.061 29.34 197.448 29.7333 197.928 30C198.408 30.2667 198.928 30.4 199.488 30.4C200.168 30.4 200.734 30.2467 201.188 29.94C201.654 29.62 202.021 29.2267 202.288 28.76L204.068 29.62C203.628 30.42 203.028 31.0733 202.268 31.58C201.508 32.0733 200.561 32.32 199.428 32.32ZM196.468 25.74H202.128C202.114 25.4867 202.048 25.22 201.928 24.94C201.808 24.6467 201.634 24.38 201.408 24.14C201.181 23.9 200.894 23.7067 200.548 23.56C200.201 23.4 199.794 23.32 199.328 23.32C198.741 23.32 198.221 23.4733 197.768 23.78C197.314 24.0733 196.961 24.4867 196.708 25.02C196.601 25.2467 196.521 25.4867 196.468 25.74ZM206.272 32V21.8H208.312V23.3H208.432C208.592 22.9533 208.818 22.6467 209.112 22.38C209.418 22.1133 209.765 21.9 210.152 21.74C210.552 21.58 210.965 21.5 211.392 21.5C211.672 21.5 211.905 21.52 212.092 21.56C212.292 21.5867 212.472 21.6333 212.632 21.7V23.94C212.378 23.8333 212.118 23.7467 211.852 23.68C211.598 23.6133 211.332 23.58 211.052 23.58C210.545 23.58 210.092 23.72 209.692 24C209.305 24.2667 208.998 24.6267 208.772 25.08C208.545 25.5333 208.432 26.04 208.432 26.6V32H206.272ZM217.148 32.32C216.414 32.32 215.761 32.1733 215.188 31.88C214.628 31.5867 214.181 31.1867 213.848 30.68C213.528 30.16 213.368 29.5667 213.368 28.9C213.368 28.1667 213.554 27.5467 213.928 27.04C214.314 26.5333 214.828 26.1467 215.468 25.88C216.108 25.6133 216.814 25.48 217.588 25.48C218.014 25.48 218.408 25.5133 218.768 25.58C219.141 25.6333 219.461 25.7 219.728 25.78C220.008 25.86 220.228 25.9467 220.388 26.04V25.5C220.388 24.8333 220.148 24.3 219.668 23.9C219.188 23.5 218.568 23.3 217.808 23.3C217.288 23.3 216.794 23.42 216.328 23.66C215.861 23.8867 215.488 24.2 215.208 24.6L213.728 23.46C214.021 23.0467 214.374 22.6933 214.788 22.4C215.214 22.1067 215.688 21.88 216.208 21.72C216.741 21.56 217.294 21.48 217.868 21.48C219.348 21.48 220.488 21.8467 221.288 22.58C222.088 23.3 222.488 24.3133 222.488 25.62V32H220.388V30.74H220.268C220.094 31.0067 219.854 31.26 219.548 31.5C219.254 31.74 218.901 31.9333 218.488 32.08C218.088 32.24 217.641 32.32 217.148 32.32ZM217.528 30.56C218.088 30.56 218.581 30.4267 219.008 30.16C219.448 29.8933 219.788 29.5467 220.028 29.12C220.268 28.68 220.388 28.2067 220.388 27.7C220.094 27.5267 219.734 27.3867 219.308 27.28C218.894 27.16 218.454 27.1 217.988 27.1C217.108 27.1 216.481 27.2733 216.108 27.62C215.734 27.9667 215.548 28.4 215.548 28.92C215.548 29.4 215.728 29.7933 216.088 30.1C216.448 30.4067 216.928 30.56 217.528 30.56ZM233.893 32.32C232.973 32.32 232.14 32.0867 231.393 31.62C230.647 31.1533 230.06 30.5133 229.633 29.7C229.207 28.8867 228.993 27.9533 228.993 26.9C228.993 25.8467 229.207 24.9133 229.633 24.1C230.06 23.2867 230.647 22.6467 231.393 22.18C232.14 21.7133 232.973 21.48 233.893 21.48C234.427 21.48 234.907 21.56 235.333 21.72C235.76 21.88 236.127 22.0933 236.433 22.36C236.753 22.6133 237 22.8867 237.173 23.18H237.293L237.173 21.76V17.68H239.313V32H237.293V30.64H237.173C237 30.92 236.753 31.1933 236.433 31.46C236.127 31.7133 235.76 31.92 235.333 32.08C234.907 32.24 234.427 32.32 233.893 32.32ZM234.213 30.34C234.747 30.34 235.247 30.2 235.713 29.92C236.193 29.64 236.573 29.2467 236.853 28.74C237.147 28.22 237.293 27.6067 237.293 26.9C237.293 26.1933 237.147 25.5867 236.853 25.08C236.573 24.56 236.193 24.16 235.713 23.88C235.247 23.6 234.747 23.46 234.213 23.46C233.68 23.46 233.18 23.6 232.713 23.88C232.247 24.16 231.867 24.56 231.573 25.08C231.28 25.5867 231.133 26.1933 231.133 26.9C231.133 27.5933 231.28 28.2 231.573 28.72C231.867 29.24 232.247 29.64 232.713 29.92C233.18 30.2 233.68 30.34 234.213 30.34ZM246.42 32.32C245.42 32.32 244.527 32.0867 243.74 31.62C242.953 31.1533 242.333 30.5133 241.88 29.7C241.44 28.8867 241.22 27.96 241.22 26.92C241.22 25.9467 241.433 25.0467 241.86 24.22C242.287 23.3933 242.88 22.7333 243.64 22.24C244.413 21.7333 245.3 21.48 246.3 21.48C247.353 21.48 248.247 21.7067 248.98 22.16C249.727 22.6133 250.293 23.2333 250.68 24.02C251.067 24.8067 251.26 25.6933 251.26 26.68C251.26 26.8267 251.253 26.96 251.24 27.08C251.24 27.2 251.233 27.2933 251.22 27.36H243.34C243.393 27.92 243.533 28.4067 243.76 28.82C244.053 29.34 244.44 29.7333 244.92 30C245.4 30.2667 245.92 30.4 246.48 30.4C247.16 30.4 247.727 30.2467 248.18 29.94C248.647 29.62 249.013 29.2267 249.28 28.76L251.06 29.62C250.62 30.42 250.02 31.0733 249.26 31.58C248.5 32.0733 247.553 32.32 246.42 32.32ZM243.46 25.74H249.12C249.107 25.4867 249.04 25.22 248.92 24.94C248.8 24.6467 248.627 24.38 248.4 24.14C248.173 23.9 247.887 23.7067 247.54 23.56C247.193 23.4 246.787 23.32 246.32 23.32C245.733 23.32 245.213 23.4733 244.76 23.78C244.307 24.0733 243.953 24.4867 243.7 25.02C243.593 25.2467 243.513 25.4867 243.46 25.74ZM264.681 32.32C263.655 32.32 262.688 32.1333 261.781 31.76C260.875 31.3867 260.075 30.8667 259.381 30.2C258.701 29.52 258.161 28.7267 257.761 27.82C257.375 26.9 257.181 25.9067 257.181 24.84C257.181 23.7733 257.375 22.7867 257.761 21.88C258.161 20.96 258.701 20.1667 259.381 19.5C260.075 18.82 260.875 18.2933 261.781 17.92C262.688 17.5467 263.655 17.36 264.681 17.36C265.775 17.36 266.781 17.5533 267.701 17.94C268.635 18.3267 269.415 18.8667 270.041 19.56L268.521 21.06C268.215 20.7133 267.861 20.42 267.461 20.18C267.075 19.94 266.648 19.76 266.181 19.64C265.715 19.5067 265.215 19.44 264.681 19.44C263.975 19.44 263.301 19.5667 262.661 19.82C262.021 20.0733 261.455 20.44 260.961 20.92C260.481 21.3867 260.101 21.9533 259.821 22.62C259.541 23.2733 259.401 24.0133 259.401 24.84C259.401 25.6667 259.541 26.4133 259.821 27.08C260.115 27.7333 260.501 28.3 260.981 28.78C261.475 29.2467 262.041 29.6067 262.681 29.86C263.321 30.1133 263.995 30.24 264.701 30.24C265.355 30.24 265.961 30.1467 266.521 29.96C267.095 29.7733 267.595 29.5067 268.021 29.16C268.448 28.8133 268.795 28.3933 269.061 27.9C269.328 27.3933 269.495 26.8267 269.561 26.2H264.661V24.26H271.621C271.648 24.42 271.675 24.6067 271.701 24.82C271.728 25.02 271.741 25.2133 271.741 25.4V25.42C271.741 26.4467 271.561 27.3867 271.201 28.24C270.855 29.0933 270.368 29.8267 269.741 30.44C269.115 31.04 268.368 31.5067 267.501 31.84C266.648 32.16 265.708 32.32 264.681 32.32ZM278.181 32.32C277.128 32.32 276.201 32.08 275.401 31.6C274.601 31.12 273.974 30.4733 273.521 29.66C273.068 28.8333 272.841 27.9133 272.841 26.9C272.841 25.8867 273.068 24.9733 273.521 24.16C273.974 23.3333 274.601 22.68 275.401 22.2C276.201 21.72 277.128 21.48 278.181 21.48C279.221 21.48 280.141 21.7267 280.941 22.22C281.741 22.7 282.368 23.3467 282.821 24.16C283.274 24.9733 283.501 25.8867 283.501 26.9C283.501 27.9133 283.274 28.8333 282.821 29.66C282.368 30.4733 281.741 31.12 280.941 31.6C280.141 32.08 279.221 32.32 278.181 32.32ZM278.181 30.34C278.741 30.34 279.261 30.2067 279.741 29.94C280.221 29.66 280.608 29.2667 280.901 28.76C281.208 28.24 281.361 27.62 281.361 26.9C281.361 26.18 281.208 25.5667 280.901 25.06C280.608 24.54 280.221 24.1467 279.741 23.88C279.261 23.6 278.741 23.46 278.181 23.46C277.621 23.46 277.094 23.6 276.601 23.88C276.121 24.1467 275.728 24.54 275.421 25.06C275.128 25.5667 274.981 26.18 274.981 26.9C274.981 27.62 275.128 28.24 275.421 28.76C275.728 29.2667 276.128 29.66 276.621 29.94C277.114 30.2067 277.634 30.34 278.181 30.34ZM290.29 32.32C289.237 32.32 288.31 32.08 287.51 31.6C286.71 31.12 286.084 30.4733 285.63 29.66C285.177 28.8333 284.95 27.9133 284.95 26.9C284.95 25.8867 285.177 24.9733 285.63 24.16C286.084 23.3333 286.71 22.68 287.51 22.2C288.31 21.72 289.237 21.48 290.29 21.48C291.33 21.48 292.25 21.7267 293.05 22.22C293.85 22.7 294.477 23.3467 294.93 24.16C295.384 24.9733 295.61 25.8867 295.61 26.9C295.61 27.9133 295.384 28.8333 294.93 29.66C294.477 30.4733 293.85 31.12 293.05 31.6C292.25 32.08 291.33 32.32 290.29 32.32ZM290.29 30.34C290.85 30.34 291.37 30.2067 291.85 29.94C292.33 29.66 292.717 29.2667 293.01 28.76C293.317 28.24 293.47 27.62 293.47 26.9C293.47 26.18 293.317 25.5667 293.01 25.06C292.717 24.54 292.33 24.1467 291.85 23.88C291.37 23.6 290.85 23.46 290.29 23.46C289.73 23.46 289.204 23.6 288.71 23.88C288.23 24.1467 287.837 24.54 287.53 25.06C287.237 25.5667 287.09 26.18 287.09 26.9C287.09 27.62 287.237 28.24 287.53 28.76C287.837 29.2667 288.237 29.66 288.73 29.94C289.224 30.2067 289.744 30.34 290.29 30.34ZM302.2 36.64C301.307 36.64 300.533 36.4933 299.88 36.2C299.24 35.92 298.72 35.5533 298.32 35.1C297.92 34.66 297.633 34.2067 297.46 33.74L299.46 32.9C299.673 33.4333 300.013 33.8667 300.48 34.2C300.96 34.5467 301.533 34.72 302.2 34.72C303.147 34.72 303.887 34.44 304.42 33.88C304.953 33.32 305.22 32.5267 305.22 31.5V30.52H305.1C304.78 30.9867 304.34 31.3667 303.78 31.66C303.22 31.9533 302.573 32.1 301.84 32.1C300.973 32.1 300.173 31.88 299.44 31.44C298.72 31 298.14 30.3867 297.7 29.6C297.273 28.8 297.06 27.8667 297.06 26.8C297.06 25.72 297.273 24.7867 297.7 24C298.14 23.2 298.72 22.58 299.44 22.14C300.173 21.7 300.973 21.48 301.84 21.48C302.573 21.48 303.22 21.6267 303.78 21.92C304.34 22.2 304.78 22.5867 305.1 23.08H305.22V21.8H307.28V31.46C307.28 32.5667 307.06 33.5067 306.62 34.28C306.193 35.0533 305.6 35.64 304.84 36.04C304.08 36.44 303.2 36.64 302.2 36.64ZM302.22 30.14C302.753 30.14 303.247 30.0133 303.7 29.76C304.167 29.4933 304.533 29.1133 304.8 28.62C305.08 28.1133 305.22 27.5067 305.22 26.8C305.22 26.0533 305.08 25.4333 304.8 24.94C304.533 24.4467 304.167 24.0733 303.7 23.82C303.247 23.5667 302.753 23.44 302.22 23.44C301.687 23.44 301.187 23.5667 300.72 23.82C300.267 24.0733 299.9 24.4533 299.62 24.96C299.34 25.4533 299.2 26.0667 299.2 26.8C299.2 27.52 299.34 28.1333 299.62 28.64C299.9 29.1333 300.267 29.5067 300.72 29.76C301.187 30.0133 301.687 30.14 302.22 30.14ZM309.827 32V17.68H311.987V32H309.827ZM319.096 32.32C318.096 32.32 317.202 32.0867 316.416 31.62C315.629 31.1533 315.009 30.5133 314.556 29.7C314.116 28.8867 313.896 27.96 313.896 26.92C313.896 25.9467 314.109 25.0467 314.536 24.22C314.962 23.3933 315.556 22.7333 316.316 22.24C317.089 21.7333 317.976 21.48 318.976 21.48C320.029 21.48 320.922 21.7067 321.656 22.16C322.402 22.6133 322.969 23.2333 323.356 24.02C323.742 24.8067 323.936 25.6933 323.936 26.68C323.936 26.8267 323.929 26.96 323.916 27.08C323.916 27.2 323.909 27.2933 323.896 27.36H316.016C316.069 27.92 316.209 28.4067 316.436 28.82C316.729 29.34 317.116 29.7333 317.596 30C318.076 30.2667 318.596 30.4 319.156 30.4C319.836 30.4 320.402 30.2467 320.856 29.94C321.322 29.62 321.689 29.2267 321.956 28.76L323.736 29.62C323.296 30.42 322.696 31.0733 321.936 31.58C321.176 32.0733 320.229 32.32 319.096 32.32ZM316.136 25.74H321.796C321.782 25.4867 321.716 25.22 321.596 24.94C321.476 24.6467 321.302 24.38 321.076 24.14C320.849 23.9 320.562 23.7067 320.216 23.56C319.869 23.4 319.462 23.32 318.996 23.32C318.409 23.32 317.889 23.4733 317.436 23.78C316.982 24.0733 316.629 24.4867 316.376 25.02C316.269 25.2467 316.189 25.4867 316.136 25.74Z" fill="white"/>
</svg>
