<svg width="281" height="50" viewBox="0 0 281 50" fill="none" xmlns="http://www.w3.org/2000/svg">
<rect x="0.5" y="0.5" width="280" height="49" rx="24.5" fill="#1F1F1F"/>
<rect x="0.5" y="0.5" width="280" height="49" rx="24.5" stroke="#747775"/>
<path d="M51 22H21V17C21 14.2857 23.2018 12 25.8165 12H46.1835C48.7982 12 51 14.2857 51 17V22Z" fill="#34A853"/>
<path d="M51 26.0537H21V21.0537C21 18.3394 23.2018 16.0537 25.8165 16.0537H46.1835C48.7982 16.0537 51 18.3394 51 21.0537V26.0537Z" fill="#FBBC04"/>
<path d="M51 30.2468H21V25.2468C21 22.5325 23.2018 20.2468 25.8165 20.2468H46.1835C48.7982 20.2468 51 22.5325 51 25.2468V30.2468Z" fill="#EA4335"/>
<path d="M21 23.2752L40.0411 27.6789C42.2329 28.2294 44.6986 27.6789 46.4795 26.3028L51 23V33.3211C51 35.9358 48.8082 38 46.2055 38H25.7945C23.1918 38 21 35.9358 21 33.3211V23.2752Z" fill="#4285F4"/>
<path d="M64.62 32V17.68H66.82V24.72L72.78 17.68H75.5V17.8L70.26 23.84L75.96 31.88V32H73.28L68.78 25.56L66.82 27.84V32H64.62ZM80.7334 32.32C79.4801 32.32 78.5334 31.9467 77.8934 31.2C77.2668 30.44 76.9534 29.4133 76.9534 28.12V21.8H79.1134V27.82C79.1134 28.6733 79.3134 29.3067 79.7134 29.72C80.1268 30.1333 80.6401 30.34 81.2534 30.34C81.8134 30.34 82.2934 30.2 82.6934 29.92C83.0934 29.6267 83.4001 29.2467 83.6134 28.78C83.8401 28.3133 83.9534 27.8133 83.9534 27.28V21.8H86.0934V32H84.0734V30.62H83.9534C83.7668 30.94 83.5068 31.2267 83.1734 31.48C82.8401 31.7333 82.4668 31.9333 82.0534 32.08C81.6401 32.24 81.2001 32.32 80.7334 32.32ZM91.735 32L87.515 21.8H89.915L92.775 29.22H92.875L95.795 21.8H98.155L93.895 32H91.735ZM102.558 32.32C101.824 32.32 101.171 32.1733 100.598 31.88C100.038 31.5867 99.591 31.1867 99.2577 30.68C98.9377 30.16 98.7777 29.5667 98.7777 28.9C98.7777 28.1667 98.9643 27.5467 99.3377 27.04C99.7243 26.5333 100.238 26.1467 100.878 25.88C101.518 25.6133 102.224 25.48 102.998 25.48C103.424 25.48 103.818 25.5133 104.178 25.58C104.551 25.6333 104.871 25.7 105.138 25.78C105.418 25.86 105.638 25.9467 105.798 26.04V25.5C105.798 24.8333 105.558 24.3 105.078 23.9C104.598 23.5 103.978 23.3 103.218 23.3C102.698 23.3 102.204 23.42 101.738 23.66C101.271 23.8867 100.898 24.2 100.618 24.6L99.1377 23.46C99.431 23.0467 99.7843 22.6933 100.198 22.4C100.624 22.1067 101.098 21.88 101.618 21.72C102.151 21.56 102.704 21.48 103.278 21.48C104.758 21.48 105.898 21.8467 106.698 22.58C107.498 23.3 107.898 24.3133 107.898 25.62V32H105.798V30.74H105.678C105.504 31.0067 105.264 31.26 104.958 31.5C104.664 31.74 104.311 31.9333 103.898 32.08C103.498 32.24 103.051 32.32 102.558 32.32ZM102.938 30.56C103.498 30.56 103.991 30.4267 104.418 30.16C104.858 29.8933 105.198 29.5467 105.438 29.12C105.678 28.68 105.798 28.2067 105.798 27.7C105.504 27.5267 105.144 27.3867 104.718 27.28C104.304 27.16 103.864 27.1 103.398 27.1C102.518 27.1 101.891 27.2733 101.518 27.62C101.144 27.9667 100.958 28.4 100.958 28.92C100.958 29.4 101.138 29.7933 101.498 30.1C101.858 30.4067 102.338 30.56 102.938 30.56Z" fill="white"/>
<path d="M123.4 32.32C122.373 32.32 121.407 32.1333 120.5 31.76C119.593 31.3867 118.793 30.8667 118.1 30.2C117.42 29.52 116.88 28.7267 116.48 27.82C116.093 26.9 115.9 25.9067 115.9 24.84C115.9 23.7733 116.093 22.7867 116.48 21.88C116.88 20.96 117.42 20.1667 118.1 19.5C118.793 18.82 119.593 18.2933 120.5 17.92C121.407 17.5467 122.373 17.36 123.4 17.36C124.493 17.36 125.5 17.5533 126.42 17.94C127.353 18.3267 128.133 18.8667 128.76 19.56L127.24 21.06C126.933 20.7133 126.58 20.42 126.18 20.18C125.793 19.94 125.367 19.76 124.9 19.64C124.433 19.5067 123.933 19.44 123.4 19.44C122.693 19.44 122.02 19.5667 121.38 19.82C120.74 20.0733 120.173 20.44 119.68 20.92C119.2 21.3867 118.82 21.9533 118.54 22.62C118.26 23.2733 118.12 24.0133 118.12 24.84C118.12 25.6667 118.26 26.4133 118.54 27.08C118.833 27.7333 119.22 28.3 119.7 28.78C120.193 29.2467 120.76 29.6067 121.4 29.86C122.04 30.1133 122.713 30.24 123.42 30.24C124.073 30.24 124.68 30.1467 125.24 29.96C125.813 29.7733 126.313 29.5067 126.74 29.16C127.167 28.8133 127.513 28.3933 127.78 27.9C128.047 27.3933 128.213 26.8267 128.28 26.2H123.38V24.26H130.34C130.367 24.42 130.393 24.6067 130.42 24.82C130.447 25.02 130.46 25.2133 130.46 25.4V25.42C130.46 26.4467 130.28 27.3867 129.92 28.24C129.573 29.0933 129.087 29.8267 128.46 30.44C127.833 31.04 127.087 31.5067 126.22 31.84C125.367 32.16 124.427 32.32 123.4 32.32ZM136.9 32.32C135.847 32.32 134.92 32.08 134.12 31.6C133.32 31.12 132.693 30.4733 132.24 29.66C131.787 28.8333 131.56 27.9133 131.56 26.9C131.56 25.8867 131.787 24.9733 132.24 24.16C132.693 23.3333 133.32 22.68 134.12 22.2C134.92 21.72 135.847 21.48 136.9 21.48C137.94 21.48 138.86 21.7267 139.66 22.22C140.46 22.7 141.087 23.3467 141.54 24.16C141.993 24.9733 142.22 25.8867 142.22 26.9C142.22 27.9133 141.993 28.8333 141.54 29.66C141.087 30.4733 140.46 31.12 139.66 31.6C138.86 32.08 137.94 32.32 136.9 32.32ZM136.9 30.34C137.46 30.34 137.98 30.2067 138.46 29.94C138.94 29.66 139.327 29.2667 139.62 28.76C139.927 28.24 140.08 27.62 140.08 26.9C140.08 26.18 139.927 25.5667 139.62 25.06C139.327 24.54 138.94 24.1467 138.46 23.88C137.98 23.6 137.46 23.46 136.9 23.46C136.34 23.46 135.813 23.6 135.32 23.88C134.84 24.1467 134.447 24.54 134.14 25.06C133.847 25.5667 133.7 26.18 133.7 26.9C133.7 27.62 133.847 28.24 134.14 28.76C134.447 29.2667 134.847 29.66 135.34 29.94C135.833 30.2067 136.353 30.34 136.9 30.34ZM149.009 32.32C147.956 32.32 147.029 32.08 146.229 31.6C145.429 31.12 144.803 30.4733 144.349 29.66C143.896 28.8333 143.669 27.9133 143.669 26.9C143.669 25.8867 143.896 24.9733 144.349 24.16C144.803 23.3333 145.429 22.68 146.229 22.2C147.029 21.72 147.956 21.48 149.009 21.48C150.049 21.48 150.969 21.7267 151.769 22.22C152.569 22.7 153.196 23.3467 153.649 24.16C154.103 24.9733 154.329 25.8867 154.329 26.9C154.329 27.9133 154.103 28.8333 153.649 29.66C153.196 30.4733 152.569 31.12 151.769 31.6C150.969 32.08 150.049 32.32 149.009 32.32ZM149.009 30.34C149.569 30.34 150.089 30.2067 150.569 29.94C151.049 29.66 151.436 29.2667 151.729 28.76C152.036 28.24 152.189 27.62 152.189 26.9C152.189 26.18 152.036 25.5667 151.729 25.06C151.436 24.54 151.049 24.1467 150.569 23.88C150.089 23.6 149.569 23.46 149.009 23.46C148.449 23.46 147.923 23.6 147.429 23.88C146.949 24.1467 146.556 24.54 146.249 25.06C145.956 25.5667 145.809 26.18 145.809 26.9C145.809 27.62 145.956 28.24 146.249 28.76C146.556 29.2667 146.956 29.66 147.449 29.94C147.943 30.2067 148.463 30.34 149.009 30.34ZM160.919 36.64C160.025 36.64 159.252 36.4933 158.599 36.2C157.959 35.92 157.439 35.5533 157.039 35.1C156.639 34.66 156.352 34.2067 156.179 33.74L158.179 32.9C158.392 33.4333 158.732 33.8667 159.199 34.2C159.679 34.5467 160.252 34.72 160.919 34.72C161.865 34.72 162.605 34.44 163.139 33.88C163.672 33.32 163.939 32.5267 163.939 31.5V30.52H163.819C163.499 30.9867 163.059 31.3667 162.499 31.66C161.939 31.9533 161.292 32.1 160.559 32.1C159.692 32.1 158.892 31.88 158.159 31.44C157.439 31 156.859 30.3867 156.419 29.6C155.992 28.8 155.779 27.8667 155.779 26.8C155.779 25.72 155.992 24.7867 156.419 24C156.859 23.2 157.439 22.58 158.159 22.14C158.892 21.7 159.692 21.48 160.559 21.48C161.292 21.48 161.939 21.6267 162.499 21.92C163.059 22.2 163.499 22.5867 163.819 23.08H163.939V21.8H165.999V31.46C165.999 32.5667 165.779 33.5067 165.339 34.28C164.912 35.0533 164.319 35.64 163.559 36.04C162.799 36.44 161.919 36.64 160.919 36.64ZM160.939 30.14C161.472 30.14 161.965 30.0133 162.419 29.76C162.885 29.4933 163.252 29.1133 163.519 28.62C163.799 28.1133 163.939 27.5067 163.939 26.8C163.939 26.0533 163.799 25.4333 163.519 24.94C163.252 24.4467 162.885 24.0733 162.419 23.82C161.965 23.5667 161.472 23.44 160.939 23.44C160.405 23.44 159.905 23.5667 159.439 23.82C158.985 24.0733 158.619 24.4533 158.339 24.96C158.059 25.4533 157.919 26.0667 157.919 26.8C157.919 27.52 158.059 28.1333 158.339 28.64C158.619 29.1333 158.985 29.5067 159.439 29.76C159.905 30.0133 160.405 30.14 160.939 30.14ZM168.546 32V17.68H170.706V32H168.546ZM177.815 32.32C176.815 32.32 175.921 32.0867 175.135 31.62C174.348 31.1533 173.728 30.5133 173.275 29.7C172.835 28.8867 172.615 27.96 172.615 26.92C172.615 25.9467 172.828 25.0467 173.255 24.22C173.681 23.3933 174.275 22.7333 175.035 22.24C175.808 21.7333 176.695 21.48 177.695 21.48C178.748 21.48 179.641 21.7067 180.375 22.16C181.121 22.6133 181.688 23.2333 182.075 24.02C182.461 24.8067 182.655 25.6933 182.655 26.68C182.655 26.8267 182.648 26.96 182.635 27.08C182.635 27.2 182.628 27.2933 182.615 27.36H174.735C174.788 27.92 174.928 28.4067 175.155 28.82C175.448 29.34 175.835 29.7333 176.315 30C176.795 30.2667 177.315 30.4 177.875 30.4C178.555 30.4 179.121 30.2467 179.575 29.94C180.041 29.62 180.408 29.2267 180.675 28.76L182.455 29.62C182.015 30.42 181.415 31.0733 180.655 31.58C179.895 32.0733 178.948 32.32 177.815 32.32ZM174.855 25.74H180.515C180.501 25.4867 180.435 25.22 180.315 24.94C180.195 24.6467 180.021 24.38 179.795 24.14C179.568 23.9 179.281 23.7067 178.935 23.56C178.588 23.4 178.181 23.32 177.715 23.32C177.128 23.32 176.608 23.4733 176.155 23.78C175.701 24.0733 175.348 24.4867 175.095 25.02C174.988 25.2467 174.908 25.4867 174.855 25.74ZM191.446 32L187.606 17.68H190.046L192.326 26.98L192.566 28.22H192.686L192.986 26.98L195.866 17.68H198.066L200.826 26.98L201.126 28.2H201.246L201.486 26.98L203.766 17.68H206.186L202.406 32H200.086L197.346 22.5L197.026 21.16H196.906L196.566 22.5L193.706 32H191.446ZM210.202 32.32C209.469 32.32 208.816 32.1733 208.242 31.88C207.682 31.5867 207.236 31.1867 206.902 30.68C206.582 30.16 206.422 29.5667 206.422 28.9C206.422 28.1667 206.609 27.5467 206.982 27.04C207.369 26.5333 207.882 26.1467 208.522 25.88C209.162 25.6133 209.869 25.48 210.642 25.48C211.069 25.48 211.462 25.5133 211.822 25.58C212.196 25.6333 212.516 25.7 212.782 25.78C213.062 25.86 213.282 25.9467 213.442 26.04V25.5C213.442 24.8333 213.202 24.3 212.722 23.9C212.242 23.5 211.622 23.3 210.862 23.3C210.342 23.3 209.849 23.42 209.382 23.66C208.916 23.8867 208.542 24.2 208.262 24.6L206.782 23.46C207.076 23.0467 207.429 22.6933 207.842 22.4C208.269 22.1067 208.742 21.88 209.262 21.72C209.796 21.56 210.349 21.48 210.922 21.48C212.402 21.48 213.542 21.8467 214.342 22.58C215.142 23.3 215.542 24.3133 215.542 25.62V32H213.442V30.74H213.322C213.149 31.0067 212.909 31.26 212.602 31.5C212.309 31.74 211.956 31.9333 211.542 32.08C211.142 32.24 210.696 32.32 210.202 32.32ZM210.582 30.56C211.142 30.56 211.636 30.4267 212.062 30.16C212.502 29.8933 212.842 29.5467 213.082 29.12C213.322 28.68 213.442 28.2067 213.442 27.7C213.149 27.5267 212.789 27.3867 212.362 27.28C211.949 27.16 211.509 27.1 211.042 27.1C210.162 27.1 209.536 27.2733 209.162 27.62C208.789 27.9667 208.602 28.4 208.602 28.92C208.602 29.4 208.782 29.7933 209.142 30.1C209.502 30.4067 209.982 30.56 210.582 30.56ZM217.94 32V17.68H220.1V32H217.94ZM222.667 32V17.68H224.827V32H222.667ZM231.936 32.32C230.936 32.32 230.042 32.0867 229.256 31.62C228.469 31.1533 227.849 30.5133 227.396 29.7C226.956 28.8867 226.736 27.96 226.736 26.92C226.736 25.9467 226.949 25.0467 227.376 24.22C227.802 23.3933 228.396 22.7333 229.156 22.24C229.929 21.7333 230.816 21.48 231.816 21.48C232.869 21.48 233.762 21.7067 234.496 22.16C235.242 22.6133 235.809 23.2333 236.196 24.02C236.582 24.8067 236.776 25.6933 236.776 26.68C236.776 26.8267 236.769 26.96 236.756 27.08C236.756 27.2 236.749 27.2933 236.736 27.36H228.856C228.909 27.92 229.049 28.4067 229.276 28.82C229.569 29.34 229.956 29.7333 230.436 30C230.916 30.2667 231.436 30.4 231.996 30.4C232.676 30.4 233.242 30.2467 233.696 29.94C234.162 29.62 234.529 29.2267 234.796 28.76L236.576 29.62C236.136 30.42 235.536 31.0733 234.776 31.58C234.016 32.0733 233.069 32.32 231.936 32.32ZM228.976 25.74H234.636C234.622 25.4867 234.556 25.22 234.436 24.94C234.316 24.6467 234.142 24.38 233.916 24.14C233.689 23.9 233.402 23.7067 233.056 23.56C232.709 23.4 232.302 23.32 231.836 23.32C231.249 23.32 230.729 23.4733 230.276 23.78C229.822 24.0733 229.469 24.4867 229.216 25.02C229.109 25.2467 229.029 25.4867 228.976 25.74ZM237.787 21.8H239.567V18.92H241.727V21.8H244.227V23.68H241.727V28.58C241.727 29.0867 241.827 29.4733 242.027 29.74C242.24 30.0067 242.593 30.14 243.087 30.14C243.327 30.14 243.54 30.1067 243.727 30.04C243.913 29.96 244.1 29.8667 244.287 29.76V31.86C244.06 31.9533 243.82 32.0267 243.567 32.08C243.313 32.1333 243.013 32.16 242.667 32.16C241.72 32.16 240.967 31.8867 240.407 31.34C239.847 30.78 239.567 30.0133 239.567 29.04V23.68H237.787V21.8ZM246.557 32V21.8H248.717V32H246.557ZM247.637 20.3C247.237 20.3 246.89 20.16 246.597 19.88C246.317 19.5867 246.177 19.24 246.177 18.84C246.177 18.4267 246.317 18.0867 246.597 17.82C246.89 17.54 247.237 17.4 247.637 17.4C248.05 17.4 248.397 17.54 248.677 17.82C248.957 18.0867 249.097 18.4267 249.097 18.84C249.097 19.24 248.957 19.5867 248.677 19.88C248.397 20.16 248.05 20.3 247.637 20.3ZM255.117 32.32C254.303 32.32 253.597 32.2 252.997 31.96C252.397 31.7067 251.903 31.3733 251.517 30.96C251.13 30.5333 250.843 30.0733 250.657 29.58L252.597 28.74C252.837 29.2867 253.177 29.7067 253.617 30C254.07 30.28 254.59 30.42 255.177 30.42C255.71 30.42 256.17 30.3267 256.557 30.14C256.943 29.94 257.137 29.62 257.137 29.18C257.137 28.9 257.043 28.6733 256.857 28.5C256.683 28.3133 256.443 28.16 256.137 28.04C255.843 27.92 255.503 27.8133 255.117 27.72L253.897 27.44C253.417 27.32 252.957 27.1333 252.517 26.88C252.09 26.6133 251.743 26.28 251.477 25.88C251.21 25.48 251.077 25.0067 251.077 24.46C251.077 23.8467 251.25 23.32 251.597 22.88C251.957 22.4267 252.437 22.08 253.037 21.84C253.637 21.6 254.283 21.48 254.977 21.48C255.617 21.48 256.197 21.5667 256.717 21.74C257.25 21.9 257.71 22.1467 258.097 22.48C258.497 22.8 258.81 23.2 259.037 23.68L257.177 24.52C256.95 24.0667 256.643 23.7533 256.257 23.58C255.87 23.3933 255.45 23.3 254.997 23.3C254.49 23.3 254.063 23.4067 253.717 23.62C253.383 23.82 253.217 24.0867 253.217 24.42C253.217 24.7667 253.363 25.04 253.657 25.24C253.963 25.44 254.337 25.6 254.777 25.72L256.257 26.08C257.27 26.3333 258.03 26.72 258.537 27.24C259.043 27.7467 259.297 28.3667 259.297 29.1C259.297 29.7533 259.11 30.3267 258.737 30.82C258.363 31.3 257.857 31.6733 257.217 31.94C256.59 32.1933 255.89 32.32 255.117 32.32Z" fill="white"/>
</svg>
