<svg width="417" height="50" viewBox="0 0 417 50" fill="none" xmlns="http://www.w3.org/2000/svg">
<rect x="0.5" y="0.5" width="416" height="49" rx="24.5" fill="#1F1F1F"/>
<rect x="0.5" y="0.5" width="416" height="49" rx="24.5" stroke="#747775"/>
<path d="M51 22H21V17C21 14.2857 23.2018 12 25.8165 12H46.1835C48.7982 12 51 14.2857 51 17V22Z" fill="#34A853"/>
<path d="M51 26.0537H21V21.0537C21 18.3394 23.2018 16.0537 25.8165 16.0537H46.1835C48.7982 16.0537 51 18.3394 51 21.0537V26.0537Z" fill="#FBBC04"/>
<path d="M51 30.2468H21V25.2468C21 22.5325 23.2018 20.2468 25.8165 20.2468H46.1835C48.7982 20.2468 51 22.5325 51 25.2468V30.2468Z" fill="#EA4335"/>
<path d="M21 23.2752L40.0411 27.6789C42.2329 28.2294 44.6986 27.6789 46.4795 26.3028L51 23V33.3211C51 35.9358 48.8082 38 46.2055 38H25.7945C23.1918 38 21 35.9358 21 33.3211V23.2752Z" fill="#4285F4"/>
<path d="M64.62 32V17.68H66.82V32H64.62ZM69.7092 32V17.68H71.8692V26.12L76.1892 21.8H78.8692V21.92L74.9292 25.82L79.0092 31.88V32H76.4492L73.4092 27.32L71.8692 28.84V32H69.7092ZM84.0538 32.32C82.8004 32.32 81.8538 31.9467 81.2138 31.2C80.5871 30.44 80.2738 29.4133 80.2738 28.12V21.8H82.4338V27.82C82.4338 28.6733 82.6338 29.3067 83.0338 29.72C83.4471 30.1333 83.9604 30.34 84.5738 30.34C85.1338 30.34 85.6138 30.2 86.0138 29.92C86.4138 29.6267 86.7204 29.2467 86.9338 28.78C87.1604 28.3133 87.2738 27.8133 87.2738 27.28V21.8H89.4138V32H87.3938V30.62H87.2738C87.0871 30.94 86.8271 31.2267 86.4938 31.48C86.1604 31.7333 85.7871 31.9333 85.3738 32.08C84.9604 32.24 84.5204 32.32 84.0538 32.32ZM95.5777 32.32C94.7643 32.32 94.0577 32.2 93.4577 31.96C92.8577 31.7067 92.3643 31.3733 91.9777 30.96C91.591 30.5333 91.3043 30.0733 91.1177 29.58L93.0577 28.74C93.2977 29.2867 93.6377 29.7067 94.0777 30C94.531 30.28 95.051 30.42 95.6377 30.42C96.171 30.42 96.631 30.3267 97.0177 30.14C97.4043 29.94 97.5977 29.62 97.5977 29.18C97.5977 28.9 97.5043 28.6733 97.3177 28.5C97.1443 28.3133 96.9043 28.16 96.5977 28.04C96.3043 27.92 95.9643 27.8133 95.5777 27.72L94.3577 27.44C93.8777 27.32 93.4177 27.1333 92.9777 26.88C92.551 26.6133 92.2043 26.28 91.9377 25.88C91.671 25.48 91.5377 25.0067 91.5377 24.46C91.5377 23.8467 91.711 23.32 92.0577 22.88C92.4177 22.4267 92.8977 22.08 93.4977 21.84C94.0977 21.6 94.7443 21.48 95.4377 21.48C96.0777 21.48 96.6577 21.5667 97.1777 21.74C97.711 21.9 98.171 22.1467 98.5577 22.48C98.9577 22.8 99.271 23.2 99.4977 23.68L97.6377 24.52C97.411 24.0667 97.1043 23.7533 96.7177 23.58C96.331 23.3933 95.911 23.3 95.4577 23.3C94.951 23.3 94.5243 23.4067 94.1777 23.62C93.8443 23.82 93.6777 24.0867 93.6777 24.42C93.6777 24.7667 93.8243 25.04 94.1177 25.24C94.4243 25.44 94.7977 25.6 95.2377 25.72L96.7177 26.08C97.731 26.3333 98.491 26.72 98.9977 27.24C99.5043 27.7467 99.7577 28.3667 99.7577 29.1C99.7577 29.7533 99.571 30.3267 99.1977 30.82C98.8243 31.3 98.3177 31.6733 97.6777 31.94C97.051 32.1933 96.351 32.32 95.5777 32.32ZM101.705 32V21.8H103.865V32H101.705ZM102.785 20.3C102.385 20.3 102.038 20.16 101.745 19.88C101.465 19.5867 101.325 19.24 101.325 18.84C101.325 18.4267 101.465 18.0867 101.745 17.82C102.038 17.54 102.385 17.4 102.785 17.4C103.198 17.4 103.545 17.54 103.825 17.82C104.105 18.0867 104.245 18.4267 104.245 18.84C104.245 19.24 104.105 19.5867 103.825 19.88C103.545 20.16 103.198 20.3 102.785 20.3Z" fill="white"/>
<path d="M119.4 32.32C118.373 32.32 117.407 32.1333 116.5 31.76C115.593 31.3867 114.793 30.8667 114.1 30.2C113.42 29.52 112.88 28.7267 112.48 27.82C112.093 26.9 111.9 25.9067 111.9 24.84C111.9 23.7733 112.093 22.7867 112.48 21.88C112.88 20.96 113.42 20.1667 114.1 19.5C114.793 18.82 115.593 18.2933 116.5 17.92C117.407 17.5467 118.373 17.36 119.4 17.36C120.493 17.36 121.5 17.5533 122.42 17.94C123.353 18.3267 124.133 18.8667 124.76 19.56L123.24 21.06C122.933 20.7133 122.58 20.42 122.18 20.18C121.793 19.94 121.367 19.76 120.9 19.64C120.433 19.5067 119.933 19.44 119.4 19.44C118.693 19.44 118.02 19.5667 117.38 19.82C116.74 20.0733 116.173 20.44 115.68 20.92C115.2 21.3867 114.82 21.9533 114.54 22.62C114.26 23.2733 114.12 24.0133 114.12 24.84C114.12 25.6667 114.26 26.4133 114.54 27.08C114.833 27.7333 115.22 28.3 115.7 28.78C116.193 29.2467 116.76 29.6067 117.4 29.86C118.04 30.1133 118.713 30.24 119.42 30.24C120.073 30.24 120.68 30.1467 121.24 29.96C121.813 29.7733 122.313 29.5067 122.74 29.16C123.167 28.8133 123.513 28.3933 123.78 27.9C124.047 27.3933 124.213 26.8267 124.28 26.2H119.38V24.26H126.34C126.367 24.42 126.393 24.6067 126.42 24.82C126.447 25.02 126.46 25.2133 126.46 25.4V25.42C126.46 26.4467 126.28 27.3867 125.92 28.24C125.573 29.0933 125.087 29.8267 124.46 30.44C123.833 31.04 123.087 31.5067 122.22 31.84C121.367 32.16 120.427 32.32 119.4 32.32ZM132.9 32.32C131.847 32.32 130.92 32.08 130.12 31.6C129.32 31.12 128.693 30.4733 128.24 29.66C127.787 28.8333 127.56 27.9133 127.56 26.9C127.56 25.8867 127.787 24.9733 128.24 24.16C128.693 23.3333 129.32 22.68 130.12 22.2C130.92 21.72 131.847 21.48 132.9 21.48C133.94 21.48 134.86 21.7267 135.66 22.22C136.46 22.7 137.087 23.3467 137.54 24.16C137.993 24.9733 138.22 25.8867 138.22 26.9C138.22 27.9133 137.993 28.8333 137.54 29.66C137.087 30.4733 136.46 31.12 135.66 31.6C134.86 32.08 133.94 32.32 132.9 32.32ZM132.9 30.34C133.46 30.34 133.98 30.2067 134.46 29.94C134.94 29.66 135.327 29.2667 135.62 28.76C135.927 28.24 136.08 27.62 136.08 26.9C136.08 26.18 135.927 25.5667 135.62 25.06C135.327 24.54 134.94 24.1467 134.46 23.88C133.98 23.6 133.46 23.46 132.9 23.46C132.34 23.46 131.813 23.6 131.32 23.88C130.84 24.1467 130.447 24.54 130.14 25.06C129.847 25.5667 129.7 26.18 129.7 26.9C129.7 27.62 129.847 28.24 130.14 28.76C130.447 29.2667 130.847 29.66 131.34 29.94C131.833 30.2067 132.353 30.34 132.9 30.34ZM145.009 32.32C143.956 32.32 143.029 32.08 142.229 31.6C141.429 31.12 140.803 30.4733 140.349 29.66C139.896 28.8333 139.669 27.9133 139.669 26.9C139.669 25.8867 139.896 24.9733 140.349 24.16C140.803 23.3333 141.429 22.68 142.229 22.2C143.029 21.72 143.956 21.48 145.009 21.48C146.049 21.48 146.969 21.7267 147.769 22.22C148.569 22.7 149.196 23.3467 149.649 24.16C150.103 24.9733 150.329 25.8867 150.329 26.9C150.329 27.9133 150.103 28.8333 149.649 29.66C149.196 30.4733 148.569 31.12 147.769 31.6C146.969 32.08 146.049 32.32 145.009 32.32ZM145.009 30.34C145.569 30.34 146.089 30.2067 146.569 29.94C147.049 29.66 147.436 29.2667 147.729 28.76C148.036 28.24 148.189 27.62 148.189 26.9C148.189 26.18 148.036 25.5667 147.729 25.06C147.436 24.54 147.049 24.1467 146.569 23.88C146.089 23.6 145.569 23.46 145.009 23.46C144.449 23.46 143.923 23.6 143.429 23.88C142.949 24.1467 142.556 24.54 142.249 25.06C141.956 25.5667 141.809 26.18 141.809 26.9C141.809 27.62 141.956 28.24 142.249 28.76C142.556 29.2667 142.956 29.66 143.449 29.94C143.943 30.2067 144.463 30.34 145.009 30.34ZM156.919 36.64C156.025 36.64 155.252 36.4933 154.599 36.2C153.959 35.92 153.439 35.5533 153.039 35.1C152.639 34.66 152.352 34.2067 152.179 33.74L154.179 32.9C154.392 33.4333 154.732 33.8667 155.199 34.2C155.679 34.5467 156.252 34.72 156.919 34.72C157.865 34.72 158.605 34.44 159.139 33.88C159.672 33.32 159.939 32.5267 159.939 31.5V30.52H159.819C159.499 30.9867 159.059 31.3667 158.499 31.66C157.939 31.9533 157.292 32.1 156.559 32.1C155.692 32.1 154.892 31.88 154.159 31.44C153.439 31 152.859 30.3867 152.419 29.6C151.992 28.8 151.779 27.8667 151.779 26.8C151.779 25.72 151.992 24.7867 152.419 24C152.859 23.2 153.439 22.58 154.159 22.14C154.892 21.7 155.692 21.48 156.559 21.48C157.292 21.48 157.939 21.6267 158.499 21.92C159.059 22.2 159.499 22.5867 159.819 23.08H159.939V21.8H161.999V31.46C161.999 32.5667 161.779 33.5067 161.339 34.28C160.912 35.0533 160.319 35.64 159.559 36.04C158.799 36.44 157.919 36.64 156.919 36.64ZM156.939 30.14C157.472 30.14 157.965 30.0133 158.419 29.76C158.885 29.4933 159.252 29.1133 159.519 28.62C159.799 28.1133 159.939 27.5067 159.939 26.8C159.939 26.0533 159.799 25.4333 159.519 24.94C159.252 24.4467 158.885 24.0733 158.419 23.82C157.965 23.5667 157.472 23.44 156.939 23.44C156.405 23.44 155.905 23.5667 155.439 23.82C154.985 24.0733 154.619 24.4533 154.339 24.96C154.059 25.4533 153.919 26.0667 153.919 26.8C153.919 27.52 154.059 28.1333 154.339 28.64C154.619 29.1333 154.985 29.5067 155.439 29.76C155.905 30.0133 156.405 30.14 156.939 30.14ZM164.546 32V17.68H166.706V32H164.546ZM173.815 32.32C172.815 32.32 171.921 32.0867 171.135 31.62C170.348 31.1533 169.728 30.5133 169.275 29.7C168.835 28.8867 168.615 27.96 168.615 26.92C168.615 25.9467 168.828 25.0467 169.255 24.22C169.681 23.3933 170.275 22.7333 171.035 22.24C171.808 21.7333 172.695 21.48 173.695 21.48C174.748 21.48 175.641 21.7067 176.375 22.16C177.121 22.6133 177.688 23.2333 178.075 24.02C178.461 24.8067 178.655 25.6933 178.655 26.68C178.655 26.8267 178.648 26.96 178.635 27.08C178.635 27.2 178.628 27.2933 178.615 27.36H170.735C170.788 27.92 170.928 28.4067 171.155 28.82C171.448 29.34 171.835 29.7333 172.315 30C172.795 30.2667 173.315 30.4 173.875 30.4C174.555 30.4 175.121 30.2467 175.575 29.94C176.041 29.62 176.408 29.2267 176.675 28.76L178.455 29.62C178.015 30.42 177.415 31.0733 176.655 31.58C175.895 32.0733 174.948 32.32 173.815 32.32ZM170.855 25.74H176.515C176.501 25.4867 176.435 25.22 176.315 24.94C176.195 24.6467 176.021 24.38 175.795 24.14C175.568 23.9 175.281 23.7067 174.935 23.56C174.588 23.4 174.181 23.32 173.715 23.32C173.128 23.32 172.608 23.4733 172.155 23.78C171.701 24.0733 171.348 24.4867 171.095 25.02C170.988 25.2467 170.908 25.4867 170.855 25.74ZM185.686 32V17.68H190.266C191.773 17.68 193.066 17.9867 194.146 18.6C195.24 19.2 196.08 20.04 196.666 21.12C197.266 22.2 197.566 23.44 197.566 24.84C197.566 26.24 197.266 27.48 196.666 28.56C196.08 29.64 195.24 30.4867 194.146 31.1C193.066 31.7 191.773 32 190.266 32H185.686ZM187.886 29.92H190.206C191.286 29.92 192.213 29.72 192.986 29.32C193.76 28.9067 194.346 28.32 194.746 27.56C195.146 26.8 195.346 25.8933 195.346 24.84C195.346 23.7867 195.146 22.88 194.746 22.12C194.346 21.36 193.76 20.78 192.986 20.38C192.213 19.9667 191.286 19.76 190.206 19.76H187.886V29.92ZM199.881 32V21.8H202.041V32H199.881ZM200.961 20.3C200.561 20.3 200.214 20.16 199.921 19.88C199.641 19.5867 199.501 19.24 199.501 18.84C199.501 18.4267 199.641 18.0867 199.921 17.82C200.214 17.54 200.561 17.4 200.961 17.4C201.374 17.4 201.721 17.54 202.001 17.82C202.281 18.0867 202.421 18.4267 202.421 18.84C202.421 19.24 202.281 19.5867 202.001 19.88C201.721 20.16 201.374 20.3 200.961 20.3ZM204.721 32V21.8H206.761V23.3H206.881C207.041 22.9533 207.268 22.6467 207.561 22.38C207.868 22.1133 208.214 21.9 208.601 21.74C209.001 21.58 209.414 21.5 209.841 21.5C210.121 21.5 210.354 21.52 210.541 21.56C210.741 21.5867 210.921 21.6333 211.081 21.7V23.94C210.828 23.8333 210.568 23.7467 210.301 23.68C210.048 23.6133 209.781 23.58 209.501 23.58C208.994 23.58 208.541 23.72 208.141 24C207.754 24.2667 207.448 24.6267 207.221 25.08C206.994 25.5333 206.881 26.04 206.881 26.6V32H204.721ZM216.448 32.32C215.195 32.32 214.248 31.9467 213.608 31.2C212.982 30.44 212.668 29.4133 212.668 28.12V21.8H214.828V27.82C214.828 28.6733 215.028 29.3067 215.428 29.72C215.842 30.1333 216.355 30.34 216.968 30.34C217.528 30.34 218.008 30.2 218.408 29.92C218.808 29.6267 219.115 29.2467 219.328 28.78C219.555 28.3133 219.668 27.8133 219.668 27.28V21.8H221.808V32H219.788V30.62H219.668C219.482 30.94 219.222 31.2267 218.888 31.48C218.555 31.7333 218.182 31.9333 217.768 32.08C217.355 32.24 216.915 32.32 216.448 32.32ZM224.33 26.72V24.88H230.89V26.72H224.33ZM232.892 32V30.2L238.572 23.68H233.072V21.8H241.212V23.6L235.552 30.12H241.372V32H232.892ZM247.998 32.32C246.944 32.32 246.018 32.08 245.218 31.6C244.418 31.12 243.791 30.4733 243.338 29.66C242.884 28.8333 242.658 27.9133 242.658 26.9C242.658 25.8867 242.884 24.9733 243.338 24.16C243.791 23.3333 244.418 22.68 245.218 22.2C246.018 21.72 246.944 21.48 247.998 21.48C249.038 21.48 249.958 21.7267 250.758 22.22C251.558 22.7 252.184 23.3467 252.638 24.16C253.091 24.9733 253.318 25.8867 253.318 26.9C253.318 27.9133 253.091 28.8333 252.638 29.66C252.184 30.4733 251.558 31.12 250.758 31.6C249.958 32.08 249.038 32.32 247.998 32.32ZM247.998 30.34C248.558 30.34 249.078 30.2067 249.558 29.94C250.038 29.66 250.424 29.2667 250.718 28.76C251.024 28.24 251.178 27.62 251.178 26.9C251.178 26.18 251.024 25.5667 250.718 25.06C250.424 24.54 250.038 24.1467 249.558 23.88C249.078 23.6 248.558 23.46 247.998 23.46C247.438 23.46 246.911 23.6 246.418 23.88C245.938 24.1467 245.544 24.54 245.238 25.06C244.944 25.5667 244.798 26.18 244.798 26.9C244.798 27.62 244.944 28.24 245.238 28.76C245.544 29.2667 245.944 29.66 246.438 29.94C246.931 30.2067 247.451 30.34 247.998 30.34ZM255.112 32V21.8H257.152V23.3H257.272C257.432 22.9533 257.658 22.6467 257.952 22.38C258.258 22.1133 258.605 21.9 258.992 21.74C259.392 21.58 259.805 21.5 260.232 21.5C260.512 21.5 260.745 21.52 260.932 21.56C261.132 21.5867 261.312 21.6333 261.472 21.7V23.94C261.218 23.8333 260.958 23.7467 260.692 23.68C260.438 23.6133 260.172 23.58 259.892 23.58C259.385 23.58 258.932 23.72 258.532 24C258.145 24.2667 257.838 24.6267 257.612 25.08C257.385 25.5333 257.272 26.04 257.272 26.6V32H255.112ZM263.139 32V21.8H265.179V23.3H265.299C265.459 22.9533 265.686 22.6467 265.979 22.38C266.286 22.1133 266.632 21.9 267.019 21.74C267.419 21.58 267.832 21.5 268.259 21.5C268.539 21.5 268.772 21.52 268.959 21.56C269.159 21.5867 269.339 21.6333 269.499 21.7V23.94C269.246 23.8333 268.986 23.7467 268.719 23.68C268.466 23.6133 268.199 23.58 267.919 23.58C267.412 23.58 266.959 23.72 266.559 24C266.172 24.2667 265.866 24.6267 265.639 25.08C265.412 25.5333 265.299 26.04 265.299 26.6V32H263.139ZM275.361 32.32C274.307 32.32 273.381 32.08 272.581 31.6C271.781 31.12 271.154 30.4733 270.701 29.66C270.247 28.8333 270.021 27.9133 270.021 26.9C270.021 25.8867 270.247 24.9733 270.701 24.16C271.154 23.3333 271.781 22.68 272.581 22.2C273.381 21.72 274.307 21.48 275.361 21.48C276.401 21.48 277.321 21.7267 278.121 22.22C278.921 22.7 279.547 23.3467 280.001 24.16C280.454 24.9733 280.681 25.8867 280.681 26.9C280.681 27.9133 280.454 28.8333 280.001 29.66C279.547 30.4733 278.921 31.12 278.121 31.6C277.321 32.08 276.401 32.32 275.361 32.32ZM275.361 30.34C275.921 30.34 276.441 30.2067 276.921 29.94C277.401 29.66 277.787 29.2667 278.081 28.76C278.387 28.24 278.541 27.62 278.541 26.9C278.541 26.18 278.387 25.5667 278.081 25.06C277.787 24.54 277.401 24.1467 276.921 23.88C276.441 23.6 275.921 23.46 275.361 23.46C274.801 23.46 274.274 23.6 273.781 23.88C273.301 24.1467 272.907 24.54 272.601 25.06C272.307 25.5667 272.161 26.18 272.161 26.9C272.161 27.62 272.307 28.24 272.601 28.76C272.907 29.2667 273.307 29.66 273.801 29.94C274.294 30.2067 274.814 30.34 275.361 30.34ZM285.87 32.32C285.137 32.32 284.483 32.1733 283.91 31.88C283.35 31.5867 282.903 31.1867 282.57 30.68C282.25 30.16 282.09 29.5667 282.09 28.9C282.09 28.1667 282.277 27.5467 282.65 27.04C283.037 26.5333 283.55 26.1467 284.19 25.88C284.83 25.6133 285.537 25.48 286.31 25.48C286.737 25.48 287.13 25.5133 287.49 25.58C287.863 25.6333 288.183 25.7 288.45 25.78C288.73 25.86 288.95 25.9467 289.11 26.04V25.5C289.11 24.8333 288.87 24.3 288.39 23.9C287.91 23.5 287.29 23.3 286.53 23.3C286.01 23.3 285.517 23.42 285.05 23.66C284.583 23.8867 284.21 24.2 283.93 24.6L282.45 23.46C282.743 23.0467 283.097 22.6933 283.51 22.4C283.937 22.1067 284.41 21.88 284.93 21.72C285.463 21.56 286.017 21.48 286.59 21.48C288.07 21.48 289.21 21.8467 290.01 22.58C290.81 23.3 291.21 24.3133 291.21 25.62V32H289.11V30.74H288.99C288.817 31.0067 288.577 31.26 288.27 31.5C287.977 31.74 287.623 31.9333 287.21 32.08C286.81 32.24 286.363 32.32 285.87 32.32ZM286.25 30.56C286.81 30.56 287.303 30.4267 287.73 30.16C288.17 29.8933 288.51 29.5467 288.75 29.12C288.99 28.68 289.11 28.2067 289.11 27.7C288.817 27.5267 288.457 27.3867 288.03 27.28C287.617 27.16 287.177 27.1 286.71 27.1C285.83 27.1 285.203 27.2733 284.83 27.62C284.457 27.9667 284.27 28.4 284.27 28.92C284.27 29.4 284.45 29.7933 284.81 30.1C285.17 30.4067 285.65 30.56 286.25 30.56ZM297.736 32V30.2L303.416 23.68H297.916V21.8H306.056V23.6L300.396 30.12H306.216V32H297.736ZM312.701 32.32C311.701 32.32 310.808 32.0867 310.021 31.62C309.235 31.1533 308.615 30.5133 308.161 29.7C307.721 28.8867 307.501 27.96 307.501 26.92C307.501 25.9467 307.715 25.0467 308.141 24.22C308.568 23.3933 309.161 22.7333 309.921 22.24C310.695 21.7333 311.581 21.48 312.581 21.48C313.635 21.48 314.528 21.7067 315.261 22.16C316.008 22.6133 316.575 23.2333 316.961 24.02C317.348 24.8067 317.541 25.6933 317.541 26.68C317.541 26.8267 317.535 26.96 317.521 27.08C317.521 27.2 317.515 27.2933 317.501 27.36H309.621C309.675 27.92 309.815 28.4067 310.041 28.82C310.335 29.34 310.721 29.7333 311.201 30C311.681 30.2667 312.201 30.4 312.761 30.4C313.441 30.4 314.008 30.2467 314.461 29.94C314.928 29.62 315.295 29.2267 315.561 28.76L317.341 29.62C316.901 30.42 316.301 31.0733 315.541 31.58C314.781 32.0733 313.835 32.32 312.701 32.32ZM309.741 25.74H315.401C315.388 25.4867 315.321 25.22 315.201 24.94C315.081 24.6467 314.908 24.38 314.681 24.14C314.455 23.9 314.168 23.7067 313.821 23.56C313.475 23.4 313.068 23.32 312.601 23.32C312.015 23.32 311.495 23.4733 311.041 23.78C310.588 24.0733 310.235 24.4867 309.981 25.02C309.875 25.2467 309.795 25.4867 309.741 25.74ZM319.545 32V21.8H321.585V23.3H321.705C321.865 22.9533 322.092 22.6467 322.385 22.38C322.692 22.1133 323.038 21.9 323.425 21.74C323.825 21.58 324.238 21.5 324.665 21.5C324.945 21.5 325.178 21.52 325.365 21.56C325.565 21.5867 325.745 21.6333 325.905 21.7V23.94C325.652 23.8333 325.392 23.7467 325.125 23.68C324.872 23.6133 324.605 23.58 324.325 23.58C323.818 23.58 323.365 23.72 322.965 24C322.578 24.2667 322.272 24.6267 322.045 25.08C321.818 25.5333 321.705 26.04 321.705 26.6V32H319.545ZM333.11 32.32C332.59 32.32 332.117 32.24 331.69 32.08C331.263 31.92 330.89 31.7133 330.57 31.46C330.263 31.1933 330.017 30.92 329.83 30.64H329.71V32H327.67V17.68H329.83V21.76L329.71 23.18H329.83C330.017 22.8867 330.263 22.6133 330.57 22.36C330.89 22.0933 331.263 21.88 331.69 21.72C332.117 21.56 332.59 21.48 333.11 21.48C334.043 21.48 334.877 21.7133 335.61 22.18C336.343 22.6467 336.923 23.2867 337.35 24.1C337.79 24.9133 338.01 25.8467 338.01 26.9C338.01 27.9533 337.79 28.8867 337.35 29.7C336.923 30.5133 336.343 31.1533 335.61 31.62C334.877 32.0867 334.043 32.32 333.11 32.32ZM332.79 30.34C333.323 30.34 333.823 30.2 334.29 29.92C334.77 29.64 335.15 29.24 335.43 28.72C335.723 28.2 335.87 27.5933 335.87 26.9C335.87 26.1933 335.723 25.5867 335.43 25.08C335.15 24.56 334.77 24.16 334.29 23.88C333.823 23.6 333.323 23.46 332.79 23.46C332.257 23.46 331.757 23.6 331.29 23.88C330.823 24.16 330.443 24.56 330.15 25.08C329.857 25.5867 329.71 26.1933 329.71 26.9C329.71 27.6067 329.857 28.22 330.15 28.74C330.443 29.2467 330.823 29.64 331.29 29.92C331.757 30.2 332.257 30.34 332.79 30.34ZM340.057 32V21.8H342.217V32H340.057ZM341.137 20.3C340.737 20.3 340.39 20.16 340.097 19.88C339.817 19.5867 339.677 19.24 339.677 18.84C339.677 18.4267 339.817 18.0867 340.097 17.82C340.39 17.54 340.737 17.4 341.137 17.4C341.55 17.4 341.897 17.54 342.177 17.82C342.457 18.0867 342.597 18.4267 342.597 18.84C342.597 19.24 342.457 19.5867 342.177 19.88C341.897 20.16 341.55 20.3 341.137 20.3ZM344.099 21.8H345.879V18.92H348.039V21.8H350.539V23.68H348.039V28.58C348.039 29.0867 348.139 29.4733 348.339 29.74C348.552 30.0067 348.906 30.14 349.399 30.14C349.639 30.14 349.852 30.1067 350.039 30.04C350.226 29.96 350.412 29.8667 350.599 29.76V31.86C350.372 31.9533 350.132 32.0267 349.879 32.08C349.626 32.1333 349.326 32.16 348.979 32.16C348.032 32.16 347.279 31.8867 346.719 31.34C346.159 30.78 345.879 30.0133 345.879 29.04V23.68H344.099V21.8ZM352.287 32V30.2L357.967 23.68H352.467V21.8H360.607V23.6L354.947 30.12H360.767V32H352.287ZM366.487 32.32C365.234 32.32 364.287 31.9467 363.647 31.2C363.021 30.44 362.707 29.4133 362.707 28.12V21.8H364.867V27.82C364.867 28.6733 365.067 29.3067 365.467 29.72C365.881 30.1333 366.394 30.34 367.007 30.34C367.567 30.34 368.047 30.2 368.447 29.92C368.847 29.6267 369.154 29.2467 369.367 28.78C369.594 28.3133 369.707 27.8133 369.707 27.28V21.8H371.847V32H369.827V30.62H369.707C369.521 30.94 369.261 31.2267 368.927 31.48C368.594 31.7333 368.221 31.9333 367.807 32.08C367.394 32.24 366.954 32.32 366.487 32.32ZM377.491 32.32C376.758 32.32 376.105 32.1733 375.531 31.88C374.971 31.5867 374.525 31.1867 374.191 30.68C373.871 30.16 373.711 29.5667 373.711 28.9C373.711 28.1667 373.898 27.5467 374.271 27.04C374.658 26.5333 375.171 26.1467 375.811 25.88C376.451 25.6133 377.158 25.48 377.931 25.48C378.358 25.48 378.751 25.5133 379.111 25.58C379.485 25.6333 379.805 25.7 380.071 25.78C380.351 25.86 380.571 25.9467 380.731 26.04V25.5C380.731 24.8333 380.491 24.3 380.011 23.9C379.531 23.5 378.911 23.3 378.151 23.3C377.631 23.3 377.138 23.42 376.671 23.66C376.205 23.8867 375.831 24.2 375.551 24.6L374.071 23.46C374.365 23.0467 374.718 22.6933 375.131 22.4C375.558 22.1067 376.031 21.88 376.551 21.72C377.085 21.56 377.638 21.48 378.211 21.48C379.691 21.48 380.831 21.8467 381.631 22.58C382.431 23.3 382.831 24.3133 382.831 25.62V32H380.731V30.74H380.611C380.438 31.0067 380.198 31.26 379.891 31.5C379.598 31.74 379.245 31.9333 378.831 32.08C378.431 32.24 377.985 32.32 377.491 32.32ZM377.871 30.56C378.431 30.56 378.925 30.4267 379.351 30.16C379.791 29.8933 380.131 29.5467 380.371 29.12C380.611 28.68 380.731 28.2067 380.731 27.7C380.438 27.5267 380.078 27.3867 379.651 27.28C379.238 27.16 378.798 27.1 378.331 27.1C377.451 27.1 376.825 27.2733 376.451 27.62C376.078 27.9667 375.891 28.4 375.891 28.92C375.891 29.4 376.071 29.7933 376.431 30.1C376.791 30.4067 377.271 30.56 377.871 30.56ZM385.209 32V21.8H387.249V23.2H387.369C387.663 22.7067 388.096 22.3 388.669 21.98C389.256 21.6467 389.896 21.48 390.589 21.48C391.843 21.48 392.783 21.8533 393.409 22.6C394.036 23.3333 394.349 24.32 394.349 25.56V32H392.209V25.84C392.209 25.0133 392.003 24.4133 391.589 24.04C391.176 23.6533 390.636 23.46 389.969 23.46C389.449 23.46 388.996 23.6067 388.609 23.9C388.223 24.18 387.916 24.5533 387.689 25.02C387.476 25.4867 387.369 25.9867 387.369 26.52V32H385.209Z" fill="white"/>
</svg>
