<svg width="310" height="50" viewBox="0 0 310 50" fill="none" xmlns="http://www.w3.org/2000/svg">
<rect x="0.5" y="0.5" width="309" height="49" rx="24.5" fill="#1F1F1F"/>
<rect x="0.5" y="0.5" width="309" height="49" rx="24.5" stroke="#747775"/>
<path d="M51 22H21V17C21 14.2857 23.2018 12 25.8165 12H46.1835C48.7982 12 51 14.2857 51 17V22Z" fill="#34A853"/>
<path d="M51 26.0537H21V21.0537C21 18.3394 23.2018 16.0537 25.8165 16.0537H46.1835C48.7982 16.0537 51 18.3394 51 21.0537V26.0537Z" fill="#FBBC04"/>
<path d="M51 30.2468H21V25.2468C21 22.5325 23.2018 20.2468 25.8165 20.2468H46.1835C48.7982 20.2468 51 22.5325 51 25.2468V30.2468Z" fill="#EA4335"/>
<path d="M21 23.2752L40.0411 27.6789C42.2329 28.2294 44.6986 27.6789 46.4795 26.3028L51 23V33.3211C51 35.9358 48.8082 38 46.2055 38H25.7945C23.1918 38 21 35.9358 21 33.3211V23.2752Z" fill="#4285F4"/>
<path d="M64.62 32V17.68H67.22L73.7 28.2H73.82L73.7 25.44V17.68H75.88V32H73.6L66.8 20.94H66.68L66.8 23.7V32H64.62ZM81.6592 32.32C80.9259 32.32 80.2726 32.1733 79.6992 31.88C79.1392 31.5867 78.6926 31.1867 78.3592 30.68C78.0392 30.16 77.8792 29.5667 77.8792 28.9C77.8792 28.1667 78.0659 27.5467 78.4392 27.04C78.8259 26.5333 79.3392 26.1467 79.9792 25.88C80.6192 25.6133 81.3259 25.48 82.0992 25.48C82.5259 25.48 82.9192 25.5133 83.2792 25.58C83.6526 25.6333 83.9726 25.7 84.2392 25.78C84.5192 25.86 84.7392 25.9467 84.8992 26.04V25.5C84.8992 24.8333 84.6592 24.3 84.1792 23.9C83.6992 23.5 83.0792 23.3 82.3192 23.3C81.7992 23.3 81.3059 23.42 80.8392 23.66C80.3726 23.8867 79.9992 24.2 79.7192 24.6L78.2392 23.46C78.5326 23.0467 78.8859 22.6933 79.2992 22.4C79.7259 22.1067 80.1992 21.88 80.7192 21.72C81.2526 21.56 81.8059 21.48 82.3792 21.48C83.8592 21.48 84.9992 21.8467 85.7992 22.58C86.5992 23.3 86.9992 24.3133 86.9992 25.62V32H84.8992V30.74H84.7792C84.6059 31.0067 84.3659 31.26 84.0592 31.5C83.7659 31.74 83.4126 31.9333 82.9992 32.08C82.5992 32.24 82.1526 32.32 81.6592 32.32ZM82.0392 30.56C82.5992 30.56 83.0926 30.4267 83.5192 30.16C83.9592 29.8933 84.2992 29.5467 84.5392 29.12C84.7792 28.68 84.8992 28.2067 84.8992 27.7C84.6059 27.5267 84.2459 27.3867 83.8192 27.28C83.4059 27.16 82.9659 27.1 82.4992 27.1C81.6192 27.1 80.9926 27.2733 80.6192 27.62C80.2459 27.9667 80.0592 28.4 80.0592 28.92C80.0592 29.4 80.2392 29.7933 80.5992 30.1C80.9592 30.4067 81.4392 30.56 82.0392 30.56ZM84.2392 19.72C83.9059 19.72 83.6126 19.6 83.3592 19.36C83.1192 19.1067 82.9992 18.8133 82.9992 18.48C82.9992 18.12 83.1192 17.8267 83.3592 17.6C83.6126 17.36 83.9059 17.24 84.2392 17.24C84.5992 17.24 84.8992 17.36 85.1392 17.6C85.3792 17.8267 85.4992 18.12 85.4992 18.48C85.4992 18.8133 85.3792 19.1067 85.1392 19.36C84.8992 19.6 84.5992 19.72 84.2392 19.72ZM80.6992 19.72C80.3659 19.72 80.0726 19.6 79.8192 19.36C79.5792 19.1067 79.4592 18.8133 79.4592 18.48C79.4592 18.12 79.5792 17.8267 79.8192 17.6C80.0726 17.36 80.3659 17.24 80.6992 17.24C81.0592 17.24 81.3526 17.36 81.5792 17.6C81.8192 17.8267 81.9392 18.12 81.9392 18.48C81.9392 18.8133 81.8192 19.1067 81.5792 19.36C81.3526 19.6 81.0592 19.72 80.6992 19.72ZM92.6619 35.82C92.6219 35.9133 92.5752 36.0067 92.5219 36.1C92.4819 36.2067 92.4552 36.28 92.4419 36.32H90.1419C90.2085 36.1733 90.3019 35.9667 90.4219 35.7C90.5552 35.4333 90.6819 35.1667 90.8019 34.9C90.8819 34.7267 90.9619 34.54 91.0419 34.34C91.1352 34.14 91.2285 33.9333 91.3219 33.72C91.4285 33.5067 91.5285 33.3 91.6219 33.1L92.3819 31.44L88.1219 21.8H90.5219L93.4419 28.76H93.5419L96.3619 21.8H98.7419L93.4619 33.96C93.3685 34.1867 93.2619 34.4267 93.1419 34.68C93.0352 34.9333 92.9352 35.16 92.8419 35.36C92.7619 35.5733 92.7019 35.7267 92.6619 35.82ZM99.478 21.8H101.258V18.92H103.418V21.8H105.918V23.68H103.418V28.58C103.418 29.0867 103.518 29.4733 103.718 29.74C103.931 30.0067 104.285 30.14 104.778 30.14C105.018 30.14 105.231 30.1067 105.418 30.04C105.605 29.96 105.791 29.8667 105.978 29.76V31.86C105.751 31.9533 105.511 32.0267 105.258 32.08C105.005 32.1333 104.705 32.16 104.358 32.16C103.411 32.16 102.658 31.8867 102.098 31.34C101.538 30.78 101.258 30.0133 101.258 29.04V23.68H99.478V21.8ZM110.995 32.32C110.262 32.32 109.608 32.1733 109.035 31.88C108.475 31.5867 108.028 31.1867 107.695 30.68C107.375 30.16 107.215 29.5667 107.215 28.9C107.215 28.1667 107.402 27.5467 107.775 27.04C108.162 26.5333 108.675 26.1467 109.315 25.88C109.955 25.6133 110.662 25.48 111.435 25.48C111.862 25.48 112.255 25.5133 112.615 25.58C112.988 25.6333 113.308 25.7 113.575 25.78C113.855 25.86 114.075 25.9467 114.235 26.04V25.5C114.235 24.8333 113.995 24.3 113.515 23.9C113.035 23.5 112.415 23.3 111.655 23.3C111.135 23.3 110.642 23.42 110.175 23.66C109.708 23.8867 109.335 24.2 109.055 24.6L107.575 23.46C107.868 23.0467 108.222 22.6933 108.635 22.4C109.062 22.1067 109.535 21.88 110.055 21.72C110.588 21.56 111.142 21.48 111.715 21.48C113.195 21.48 114.335 21.8467 115.135 22.58C115.935 23.3 116.335 24.3133 116.335 25.62V32H114.235V30.74H114.115C113.942 31.0067 113.702 31.26 113.395 31.5C113.102 31.74 112.748 31.9333 112.335 32.08C111.935 32.24 111.488 32.32 110.995 32.32ZM111.375 30.56C111.935 30.56 112.428 30.4267 112.855 30.16C113.295 29.8933 113.635 29.5467 113.875 29.12C114.115 28.68 114.235 28.2067 114.235 27.7C113.942 27.5267 113.582 27.3867 113.155 27.28C112.742 27.16 112.302 27.1 111.835 27.1C110.955 27.1 110.328 27.2733 109.955 27.62C109.582 27.9667 109.395 28.4 109.395 28.92C109.395 29.4 109.575 29.7933 109.935 30.1C110.295 30.4067 110.775 30.56 111.375 30.56ZM113.575 19.72C113.242 19.72 112.948 19.6 112.695 19.36C112.455 19.1067 112.335 18.8133 112.335 18.48C112.335 18.12 112.455 17.8267 112.695 17.6C112.948 17.36 113.242 17.24 113.575 17.24C113.935 17.24 114.235 17.36 114.475 17.6C114.715 17.8267 114.835 18.12 114.835 18.48C114.835 18.8133 114.715 19.1067 114.475 19.36C114.235 19.6 113.935 19.72 113.575 19.72ZM110.035 19.72C109.702 19.72 109.408 19.6 109.155 19.36C108.915 19.1067 108.795 18.8133 108.795 18.48C108.795 18.12 108.915 17.8267 109.155 17.6C109.408 17.36 109.702 17.24 110.035 17.24C110.395 17.24 110.688 17.36 110.915 17.6C111.155 17.8267 111.275 18.12 111.275 18.48C111.275 18.8133 111.155 19.1067 110.915 19.36C110.688 19.6 110.395 19.72 110.035 19.72Z" fill="white"/>
<path d="M131.4 32.32C130.373 32.32 129.407 32.1333 128.5 31.76C127.593 31.3867 126.793 30.8667 126.1 30.2C125.42 29.52 124.88 28.7267 124.48 27.82C124.093 26.9 123.9 25.9067 123.9 24.84C123.9 23.7733 124.093 22.7867 124.48 21.88C124.88 20.96 125.42 20.1667 126.1 19.5C126.793 18.82 127.593 18.2933 128.5 17.92C129.407 17.5467 130.373 17.36 131.4 17.36C132.493 17.36 133.5 17.5533 134.42 17.94C135.353 18.3267 136.133 18.8667 136.76 19.56L135.24 21.06C134.933 20.7133 134.58 20.42 134.18 20.18C133.793 19.94 133.367 19.76 132.9 19.64C132.433 19.5067 131.933 19.44 131.4 19.44C130.693 19.44 130.02 19.5667 129.38 19.82C128.74 20.0733 128.173 20.44 127.68 20.92C127.2 21.3867 126.82 21.9533 126.54 22.62C126.26 23.2733 126.12 24.0133 126.12 24.84C126.12 25.6667 126.26 26.4133 126.54 27.08C126.833 27.7333 127.22 28.3 127.7 28.78C128.193 29.2467 128.76 29.6067 129.4 29.86C130.04 30.1133 130.713 30.24 131.42 30.24C132.073 30.24 132.68 30.1467 133.24 29.96C133.813 29.7733 134.313 29.5067 134.74 29.16C135.167 28.8133 135.513 28.3933 135.78 27.9C136.047 27.3933 136.213 26.8267 136.28 26.2H131.38V24.26H138.34C138.367 24.42 138.393 24.6067 138.42 24.82C138.447 25.02 138.46 25.2133 138.46 25.4V25.42C138.46 26.4467 138.28 27.3867 137.92 28.24C137.573 29.0933 137.087 29.8267 136.46 30.44C135.833 31.04 135.087 31.5067 134.22 31.84C133.367 32.16 132.427 32.32 131.4 32.32ZM144.9 32.32C143.847 32.32 142.92 32.08 142.12 31.6C141.32 31.12 140.693 30.4733 140.24 29.66C139.787 28.8333 139.56 27.9133 139.56 26.9C139.56 25.8867 139.787 24.9733 140.24 24.16C140.693 23.3333 141.32 22.68 142.12 22.2C142.92 21.72 143.847 21.48 144.9 21.48C145.94 21.48 146.86 21.7267 147.66 22.22C148.46 22.7 149.087 23.3467 149.54 24.16C149.993 24.9733 150.22 25.8867 150.22 26.9C150.22 27.9133 149.993 28.8333 149.54 29.66C149.087 30.4733 148.46 31.12 147.66 31.6C146.86 32.08 145.94 32.32 144.9 32.32ZM144.9 30.34C145.46 30.34 145.98 30.2067 146.46 29.94C146.94 29.66 147.327 29.2667 147.62 28.76C147.927 28.24 148.08 27.62 148.08 26.9C148.08 26.18 147.927 25.5667 147.62 25.06C147.327 24.54 146.94 24.1467 146.46 23.88C145.98 23.6 145.46 23.46 144.9 23.46C144.34 23.46 143.813 23.6 143.32 23.88C142.84 24.1467 142.447 24.54 142.14 25.06C141.847 25.5667 141.7 26.18 141.7 26.9C141.7 27.62 141.847 28.24 142.14 28.76C142.447 29.2667 142.847 29.66 143.34 29.94C143.833 30.2067 144.353 30.34 144.9 30.34ZM157.009 32.32C155.956 32.32 155.029 32.08 154.229 31.6C153.429 31.12 152.803 30.4733 152.349 29.66C151.896 28.8333 151.669 27.9133 151.669 26.9C151.669 25.8867 151.896 24.9733 152.349 24.16C152.803 23.3333 153.429 22.68 154.229 22.2C155.029 21.72 155.956 21.48 157.009 21.48C158.049 21.48 158.969 21.7267 159.769 22.22C160.569 22.7 161.196 23.3467 161.649 24.16C162.103 24.9733 162.329 25.8867 162.329 26.9C162.329 27.9133 162.103 28.8333 161.649 29.66C161.196 30.4733 160.569 31.12 159.769 31.6C158.969 32.08 158.049 32.32 157.009 32.32ZM157.009 30.34C157.569 30.34 158.089 30.2067 158.569 29.94C159.049 29.66 159.436 29.2667 159.729 28.76C160.036 28.24 160.189 27.62 160.189 26.9C160.189 26.18 160.036 25.5667 159.729 25.06C159.436 24.54 159.049 24.1467 158.569 23.88C158.089 23.6 157.569 23.46 157.009 23.46C156.449 23.46 155.923 23.6 155.429 23.88C154.949 24.1467 154.556 24.54 154.249 25.06C153.956 25.5667 153.809 26.18 153.809 26.9C153.809 27.62 153.956 28.24 154.249 28.76C154.556 29.2667 154.956 29.66 155.449 29.94C155.943 30.2067 156.463 30.34 157.009 30.34ZM168.919 36.64C168.025 36.64 167.252 36.4933 166.599 36.2C165.959 35.92 165.439 35.5533 165.039 35.1C164.639 34.66 164.352 34.2067 164.179 33.74L166.179 32.9C166.392 33.4333 166.732 33.8667 167.199 34.2C167.679 34.5467 168.252 34.72 168.919 34.72C169.865 34.72 170.605 34.44 171.139 33.88C171.672 33.32 171.939 32.5267 171.939 31.5V30.52H171.819C171.499 30.9867 171.059 31.3667 170.499 31.66C169.939 31.9533 169.292 32.1 168.559 32.1C167.692 32.1 166.892 31.88 166.159 31.44C165.439 31 164.859 30.3867 164.419 29.6C163.992 28.8 163.779 27.8667 163.779 26.8C163.779 25.72 163.992 24.7867 164.419 24C164.859 23.2 165.439 22.58 166.159 22.14C166.892 21.7 167.692 21.48 168.559 21.48C169.292 21.48 169.939 21.6267 170.499 21.92C171.059 22.2 171.499 22.5867 171.819 23.08H171.939V21.8H173.999V31.46C173.999 32.5667 173.779 33.5067 173.339 34.28C172.912 35.0533 172.319 35.64 171.559 36.04C170.799 36.44 169.919 36.64 168.919 36.64ZM168.939 30.14C169.472 30.14 169.965 30.0133 170.419 29.76C170.885 29.4933 171.252 29.1133 171.519 28.62C171.799 28.1133 171.939 27.5067 171.939 26.8C171.939 26.0533 171.799 25.4333 171.519 24.94C171.252 24.4467 170.885 24.0733 170.419 23.82C169.965 23.5667 169.472 23.44 168.939 23.44C168.405 23.44 167.905 23.5667 167.439 23.82C166.985 24.0733 166.619 24.4533 166.339 24.96C166.059 25.4533 165.919 26.0667 165.919 26.8C165.919 27.52 166.059 28.1333 166.339 28.64C166.619 29.1333 166.985 29.5067 167.439 29.76C167.905 30.0133 168.405 30.14 168.939 30.14ZM176.546 32V17.68H178.706V32H176.546ZM185.815 32.32C184.815 32.32 183.921 32.0867 183.135 31.62C182.348 31.1533 181.728 30.5133 181.275 29.7C180.835 28.8867 180.615 27.96 180.615 26.92C180.615 25.9467 180.828 25.0467 181.255 24.22C181.681 23.3933 182.275 22.7333 183.035 22.24C183.808 21.7333 184.695 21.48 185.695 21.48C186.748 21.48 187.641 21.7067 188.375 22.16C189.121 22.6133 189.688 23.2333 190.075 24.02C190.461 24.8067 190.655 25.6933 190.655 26.68C190.655 26.8267 190.648 26.96 190.635 27.08C190.635 27.2 190.628 27.2933 190.615 27.36H182.735C182.788 27.92 182.928 28.4067 183.155 28.82C183.448 29.34 183.835 29.7333 184.315 30C184.795 30.2667 185.315 30.4 185.875 30.4C186.555 30.4 187.121 30.2467 187.575 29.94C188.041 29.62 188.408 29.2267 188.675 28.76L190.455 29.62C190.015 30.42 189.415 31.0733 188.655 31.58C187.895 32.0733 186.948 32.32 185.815 32.32ZM182.855 25.74H188.515C188.501 25.4867 188.435 25.22 188.315 24.94C188.195 24.6467 188.021 24.38 187.795 24.14C187.568 23.9 187.281 23.7067 186.935 23.56C186.588 23.4 186.181 23.32 185.715 23.32C185.128 23.32 184.608 23.4733 184.155 23.78C183.701 24.0733 183.348 24.4867 183.095 25.02C182.988 25.2467 182.908 25.4867 182.855 25.74ZM199.446 32L195.606 17.68H198.046L200.326 26.98L200.566 28.22H200.686L200.986 26.98L203.866 17.68H206.066L208.826 26.98L209.126 28.2H209.246L209.486 26.98L211.766 17.68H214.186L210.406 32H208.086L205.346 22.5L205.026 21.16H204.906L204.566 22.5L201.706 32H199.446ZM218.202 32.32C217.469 32.32 216.816 32.1733 216.242 31.88C215.682 31.5867 215.236 31.1867 214.902 30.68C214.582 30.16 214.422 29.5667 214.422 28.9C214.422 28.1667 214.609 27.5467 214.982 27.04C215.369 26.5333 215.882 26.1467 216.522 25.88C217.162 25.6133 217.869 25.48 218.642 25.48C219.069 25.48 219.462 25.5133 219.822 25.58C220.196 25.6333 220.516 25.7 220.782 25.78C221.062 25.86 221.282 25.9467 221.442 26.04V25.5C221.442 24.8333 221.202 24.3 220.722 23.9C220.242 23.5 219.622 23.3 218.862 23.3C218.342 23.3 217.849 23.42 217.382 23.66C216.916 23.8867 216.542 24.2 216.262 24.6L214.782 23.46C215.076 23.0467 215.429 22.6933 215.842 22.4C216.269 22.1067 216.742 21.88 217.262 21.72C217.796 21.56 218.349 21.48 218.922 21.48C220.402 21.48 221.542 21.8467 222.342 22.58C223.142 23.3 223.542 24.3133 223.542 25.62V32H221.442V30.74H221.322C221.149 31.0067 220.909 31.26 220.602 31.5C220.309 31.74 219.956 31.9333 219.542 32.08C219.142 32.24 218.696 32.32 218.202 32.32ZM218.582 30.56C219.142 30.56 219.636 30.4267 220.062 30.16C220.502 29.8933 220.842 29.5467 221.082 29.12C221.322 28.68 221.442 28.2067 221.442 27.7C221.149 27.5267 220.789 27.3867 220.362 27.28C219.949 27.16 219.509 27.1 219.042 27.1C218.162 27.1 217.536 27.2733 217.162 27.62C216.789 27.9667 216.602 28.4 216.602 28.92C216.602 29.4 216.782 29.7933 217.142 30.1C217.502 30.4067 217.982 30.56 218.582 30.56ZM225.94 32V17.68H228.1V32H225.94ZM230.667 32V17.68H232.827V32H230.667ZM239.936 32.32C238.936 32.32 238.042 32.0867 237.256 31.62C236.469 31.1533 235.849 30.5133 235.396 29.7C234.956 28.8867 234.736 27.96 234.736 26.92C234.736 25.9467 234.949 25.0467 235.376 24.22C235.802 23.3933 236.396 22.7333 237.156 22.24C237.929 21.7333 238.816 21.48 239.816 21.48C240.869 21.48 241.762 21.7067 242.496 22.16C243.242 22.6133 243.809 23.2333 244.196 24.02C244.582 24.8067 244.776 25.6933 244.776 26.68C244.776 26.8267 244.769 26.96 244.756 27.08C244.756 27.2 244.749 27.2933 244.736 27.36H236.856C236.909 27.92 237.049 28.4067 237.276 28.82C237.569 29.34 237.956 29.7333 238.436 30C238.916 30.2667 239.436 30.4 239.996 30.4C240.676 30.4 241.242 30.2467 241.696 29.94C242.162 29.62 242.529 29.2267 242.796 28.76L244.576 29.62C244.136 30.42 243.536 31.0733 242.776 31.58C242.016 32.0733 241.069 32.32 239.936 32.32ZM236.976 25.74H242.636C242.622 25.4867 242.556 25.22 242.436 24.94C242.316 24.6467 242.142 24.38 241.916 24.14C241.689 23.9 241.402 23.7067 241.056 23.56C240.709 23.4 240.302 23.32 239.836 23.32C239.249 23.32 238.729 23.4733 238.276 23.78C237.822 24.0733 237.469 24.4867 237.216 25.02C237.109 25.2467 237.029 25.4867 236.976 25.74ZM245.787 21.8H247.567V18.92H249.727V21.8H252.227V23.68H249.727V28.58C249.727 29.0867 249.827 29.4733 250.027 29.74C250.24 30.0067 250.593 30.14 251.087 30.14C251.327 30.14 251.54 30.1067 251.727 30.04C251.913 29.96 252.1 29.8667 252.287 29.76V31.86C252.06 31.9533 251.82 32.0267 251.567 32.08C251.313 32.1333 251.013 32.16 250.667 32.16C249.72 32.16 248.967 31.8867 248.407 31.34C247.847 30.78 247.567 30.0133 247.567 29.04V23.68H245.787V21.8ZM254.557 32V21.8H256.717V32H254.557ZM255.637 20.3C255.237 20.3 254.89 20.16 254.597 19.88C254.317 19.5867 254.177 19.24 254.177 18.84C254.177 18.4267 254.317 18.0867 254.597 17.82C254.89 17.54 255.237 17.4 255.637 17.4C256.05 17.4 256.397 17.54 256.677 17.82C256.957 18.0867 257.097 18.4267 257.097 18.84C257.097 19.24 256.957 19.5867 256.677 19.88C256.397 20.16 256.05 20.3 255.637 20.3ZM263.117 32.32C262.303 32.32 261.597 32.2 260.997 31.96C260.397 31.7067 259.903 31.3733 259.517 30.96C259.13 30.5333 258.843 30.0733 258.657 29.58L260.597 28.74C260.837 29.2867 261.177 29.7067 261.617 30C262.07 30.28 262.59 30.42 263.177 30.42C263.71 30.42 264.17 30.3267 264.557 30.14C264.943 29.94 265.137 29.62 265.137 29.18C265.137 28.9 265.043 28.6733 264.857 28.5C264.683 28.3133 264.443 28.16 264.137 28.04C263.843 27.92 263.503 27.8133 263.117 27.72L261.897 27.44C261.417 27.32 260.957 27.1333 260.517 26.88C260.09 26.6133 259.743 26.28 259.477 25.88C259.21 25.48 259.077 25.0067 259.077 24.46C259.077 23.8467 259.25 23.32 259.597 22.88C259.957 22.4267 260.437 22.08 261.037 21.84C261.637 21.6 262.283 21.48 262.977 21.48C263.617 21.48 264.197 21.5667 264.717 21.74C265.25 21.9 265.71 22.1467 266.097 22.48C266.497 22.8 266.81 23.2 267.037 23.68L265.177 24.52C264.95 24.0667 264.643 23.7533 264.257 23.58C263.87 23.3933 263.45 23.3 262.997 23.3C262.49 23.3 262.063 23.4067 261.717 23.62C261.383 23.82 261.217 24.0867 261.217 24.42C261.217 24.7667 261.363 25.04 261.657 25.24C261.963 25.44 262.337 25.6 262.777 25.72L264.257 26.08C265.27 26.3333 266.03 26.72 266.537 27.24C267.043 27.7467 267.297 28.3667 267.297 29.1C267.297 29.7533 267.11 30.3267 266.737 30.82C266.363 31.3 265.857 31.6733 265.217 31.94C264.59 32.1933 263.89 32.32 263.117 32.32ZM272.902 32.32C272.089 32.32 271.382 32.2 270.782 31.96C270.182 31.7067 269.689 31.3733 269.302 30.96C268.915 30.5333 268.629 30.0733 268.442 29.58L270.382 28.74C270.622 29.2867 270.962 29.7067 271.402 30C271.855 30.28 272.375 30.42 272.962 30.42C273.495 30.42 273.955 30.3267 274.342 30.14C274.729 29.94 274.922 29.62 274.922 29.18C274.922 28.9 274.829 28.6733 274.642 28.5C274.469 28.3133 274.229 28.16 273.922 28.04C273.629 27.92 273.289 27.8133 272.902 27.72L271.682 27.44C271.202 27.32 270.742 27.1333 270.302 26.88C269.875 26.6133 269.529 26.28 269.262 25.88C268.995 25.48 268.862 25.0067 268.862 24.46C268.862 23.8467 269.035 23.32 269.382 22.88C269.742 22.4267 270.222 22.08 270.822 21.84C271.422 21.6 272.069 21.48 272.762 21.48C273.402 21.48 273.982 21.5667 274.502 21.74C275.035 21.9 275.495 22.1467 275.882 22.48C276.282 22.8 276.595 23.2 276.822 23.68L274.962 24.52C274.735 24.0667 274.429 23.7533 274.042 23.58C273.655 23.3933 273.235 23.3 272.782 23.3C272.275 23.3 271.849 23.4067 271.502 23.62C271.169 23.82 271.002 24.0867 271.002 24.42C271.002 24.7667 271.149 25.04 271.442 25.24C271.749 25.44 272.122 25.6 272.562 25.72L274.042 26.08C275.055 26.3333 275.815 26.72 276.322 27.24C276.829 27.7467 277.082 28.3667 277.082 29.1C277.082 29.7533 276.895 30.3267 276.522 30.82C276.149 31.3 275.642 31.6733 275.002 31.94C274.375 32.1933 273.675 32.32 272.902 32.32ZM282.265 32.32C281.531 32.32 280.878 32.1733 280.305 31.88C279.745 31.5867 279.298 31.1867 278.965 30.68C278.645 30.16 278.485 29.5667 278.485 28.9C278.485 28.1667 278.671 27.5467 279.045 27.04C279.431 26.5333 279.945 26.1467 280.585 25.88C281.225 25.6133 281.931 25.48 282.705 25.48C283.131 25.48 283.525 25.5133 283.885 25.58C284.258 25.6333 284.578 25.7 284.845 25.78C285.125 25.86 285.345 25.9467 285.505 26.04V25.5C285.505 24.8333 285.265 24.3 284.785 23.9C284.305 23.5 283.685 23.3 282.925 23.3C282.405 23.3 281.911 23.42 281.445 23.66C280.978 23.8867 280.605 24.2 280.325 24.6L278.845 23.46C279.138 23.0467 279.491 22.6933 279.905 22.4C280.331 22.1067 280.805 21.88 281.325 21.72C281.858 21.56 282.411 21.48 282.985 21.48C284.465 21.48 285.605 21.8467 286.405 22.58C287.205 23.3 287.605 24.3133 287.605 25.62V32H285.505V30.74H285.385C285.211 31.0067 284.971 31.26 284.665 31.5C284.371 31.74 284.018 31.9333 283.605 32.08C283.205 32.24 282.758 32.32 282.265 32.32ZM282.645 30.56C283.205 30.56 283.698 30.4267 284.125 30.16C284.565 29.8933 284.905 29.5467 285.145 29.12C285.385 28.68 285.505 28.2067 285.505 27.7C285.211 27.5267 284.851 27.3867 284.425 27.28C284.011 27.16 283.571 27.1 283.105 27.1C282.225 27.1 281.598 27.2733 281.225 27.62C280.851 27.9667 280.665 28.4 280.665 28.92C280.665 29.4 280.845 29.7933 281.205 30.1C281.565 30.4067 282.045 30.56 282.645 30.56Z" fill="white"/>
</svg>
