<svg width="320" height="50" viewBox="0 0 320 50" fill="none" xmlns="http://www.w3.org/2000/svg">
<rect x="0.5" y="0.5" width="319" height="49" rx="24.5" fill="#1F1F1F"/>
<rect x="0.5" y="0.5" width="319" height="49" rx="24.5" stroke="#747775"/>
<path d="M51 22H21V17C21 14.2857 23.2018 12 25.8165 12H46.1835C48.7982 12 51 14.2857 51 17V22Z" fill="#34A853"/>
<path d="M51 26.0537H21V21.0537C21 18.3394 23.2018 16.0537 25.8165 16.0537H46.1835C48.7982 16.0537 51 18.3394 51 21.0537V26.0537Z" fill="#FBBC04"/>
<path d="M51 30.2468H21V25.2468C21 22.5325 23.2018 20.2468 25.8165 20.2468H46.1835C48.7982 20.2468 51 22.5325 51 25.2468V30.2468Z" fill="#EA4335"/>
<path d="M21 23.2752L40.0411 27.6789C42.2329 28.2294 44.6986 27.6789 46.4795 26.3028L51 23V33.3211C51 35.9358 48.8082 38 46.2055 38H25.7945C23.1918 38 21 35.9358 21 33.3211V23.2752Z" fill="#4285F4"/>
<path d="M67.54 32V19.76H63.52V17.68H73.72V19.76H69.72V32H67.54ZM75.338 32V21.8H77.498V32H75.338ZM76.418 20.3C76.018 20.3 75.6713 20.16 75.378 19.88C75.098 19.5867 74.958 19.24 74.958 18.84C74.958 18.4267 75.098 18.0867 75.378 17.82C75.6713 17.54 76.018 17.4 76.418 17.4C76.8313 17.4 77.178 17.54 77.458 17.82C77.738 18.0867 77.878 18.4267 77.878 18.84C77.878 19.24 77.738 19.5867 77.458 19.88C77.178 20.16 76.8313 20.3 76.418 20.3ZM80.178 32V21.8H82.218V23.2H82.338C82.6313 22.7067 83.0646 22.3 83.638 21.98C84.2246 21.6467 84.8646 21.48 85.558 21.48C86.8113 21.48 87.7513 21.8533 88.378 22.6C89.0046 23.3333 89.318 24.32 89.318 25.56V32H87.178V25.84C87.178 25.0133 86.9713 24.4133 86.558 24.04C86.1446 23.6533 85.6046 23.46 84.938 23.46C84.418 23.46 83.9646 23.6067 83.578 23.9C83.1913 24.18 82.8846 24.5533 82.658 25.02C82.4446 25.4867 82.338 25.9867 82.338 26.52V32H80.178ZM96.2819 36.64C95.3885 36.64 94.6152 36.4933 93.9619 36.2C93.3219 35.92 92.8019 35.5533 92.4019 35.1C92.0019 34.66 91.7152 34.2067 91.5419 33.74L93.5419 32.9C93.7552 33.4333 94.0952 33.8667 94.5619 34.2C95.0419 34.5467 95.6152 34.72 96.2819 34.72C97.2285 34.72 97.9685 34.44 98.5019 33.88C99.0352 33.32 99.3019 32.5267 99.3019 31.5V30.52H99.1819C98.8619 30.9867 98.4219 31.3667 97.8619 31.66C97.3019 31.9533 96.6552 32.1 95.9219 32.1C95.0552 32.1 94.2552 31.88 93.5219 31.44C92.8019 31 92.2219 30.3867 91.7819 29.6C91.3552 28.8 91.1419 27.8667 91.1419 26.8C91.1419 25.72 91.3552 24.7867 91.7819 24C92.2219 23.2 92.8019 22.58 93.5219 22.14C94.2552 21.7 95.0552 21.48 95.9219 21.48C96.6552 21.48 97.3019 21.6267 97.8619 21.92C98.4219 22.2 98.8619 22.5867 99.1819 23.08H99.3019V21.8H101.362V31.46C101.362 32.5667 101.142 33.5067 100.702 34.28C100.275 35.0533 99.6819 35.64 98.9219 36.04C98.1619 36.44 97.2819 36.64 96.2819 36.64ZM96.3019 30.14C96.8352 30.14 97.3285 30.0133 97.7819 29.76C98.2485 29.4933 98.6152 29.1133 98.8819 28.62C99.1619 28.1133 99.3019 27.5067 99.3019 26.8C99.3019 26.0533 99.1619 25.4333 98.8819 24.94C98.6152 24.4467 98.2485 24.0733 97.7819 23.82C97.3285 23.5667 96.8352 23.44 96.3019 23.44C95.7685 23.44 95.2685 23.5667 94.8019 23.82C94.3485 24.0733 93.9819 24.4533 93.7019 24.96C93.4219 25.4533 93.2819 26.0667 93.2819 26.8C93.2819 27.52 93.4219 28.1333 93.7019 28.64C93.9819 29.1333 94.3485 29.5067 94.8019 29.76C95.2685 30.0133 95.7685 30.14 96.3019 30.14ZM103.889 32V21.8H105.929V23.2H106.049C106.342 22.7067 106.776 22.3 107.349 21.98C107.936 21.6467 108.576 21.48 109.269 21.48C110.522 21.48 111.462 21.8533 112.089 22.6C112.716 23.3333 113.029 24.32 113.029 25.56V32H110.889V25.84C110.889 25.0133 110.682 24.4133 110.269 24.04C109.856 23.6533 109.316 23.46 108.649 23.46C108.129 23.46 107.676 23.6067 107.289 23.9C106.902 24.18 106.596 24.5533 106.369 25.02C106.156 25.4867 106.049 25.9867 106.049 26.52V32H103.889ZM118.593 32.32C117.859 32.32 117.206 32.1733 116.633 31.88C116.073 31.5867 115.626 31.1867 115.293 30.68C114.973 30.16 114.813 29.5667 114.813 28.9C114.813 28.1667 114.999 27.5467 115.373 27.04C115.759 26.5333 116.273 26.1467 116.913 25.88C117.553 25.6133 118.259 25.48 119.033 25.48C119.459 25.48 119.853 25.5133 120.213 25.58C120.586 25.6333 120.906 25.7 121.173 25.78C121.453 25.86 121.673 25.9467 121.833 26.04V25.5C121.833 24.8333 121.593 24.3 121.113 23.9C120.633 23.5 120.013 23.3 119.253 23.3C118.733 23.3 118.239 23.42 117.773 23.66C117.306 23.8867 116.933 24.2 116.653 24.6L115.173 23.46C115.466 23.0467 115.819 22.6933 116.233 22.4C116.659 22.1067 117.133 21.88 117.653 21.72C118.186 21.56 118.739 21.48 119.313 21.48C120.793 21.48 121.933 21.8467 122.733 22.58C123.533 23.3 123.933 24.3133 123.933 25.62V32H121.833V30.74H121.713C121.539 31.0067 121.299 31.26 120.993 31.5C120.699 31.74 120.346 31.9333 119.933 32.08C119.533 32.24 119.086 32.32 118.593 32.32ZM118.973 30.56C119.533 30.56 120.026 30.4267 120.453 30.16C120.893 29.8933 121.233 29.5467 121.473 29.12C121.713 28.68 121.833 28.2067 121.833 27.7C121.539 27.5267 121.179 27.3867 120.753 27.28C120.339 27.16 119.899 27.1 119.433 27.1C118.553 27.1 117.926 27.2733 117.553 27.62C117.179 27.9667 116.993 28.4 116.993 28.92C116.993 29.4 117.173 29.7933 117.533 30.1C117.893 30.4067 118.373 30.56 118.973 30.56ZM126.311 32V21.8H128.351V23.2H128.471C128.764 22.7067 129.197 22.3 129.771 21.98C130.357 21.6467 130.997 21.48 131.691 21.48C132.944 21.48 133.884 21.8533 134.511 22.6C135.137 23.3333 135.451 24.32 135.451 25.56V32H133.311V25.84C133.311 25.0133 133.104 24.4133 132.691 24.04C132.277 23.6533 131.737 23.46 131.071 23.46C130.551 23.46 130.097 23.6067 129.711 23.9C129.324 24.18 129.017 24.5533 128.791 25.02C128.577 25.4867 128.471 25.9867 128.471 26.52V32H126.311ZM146.3 32.32C145.487 32.32 144.78 32.2 144.18 31.96C143.58 31.7067 143.087 31.3733 142.7 30.96C142.314 30.5333 142.027 30.0733 141.84 29.58L143.78 28.74C144.02 29.2867 144.36 29.7067 144.8 30C145.254 30.28 145.774 30.42 146.36 30.42C146.894 30.42 147.354 30.3267 147.74 30.14C148.127 29.94 148.32 29.62 148.32 29.18C148.32 28.9 148.227 28.6733 148.04 28.5C147.867 28.3133 147.627 28.16 147.32 28.04C147.027 27.92 146.687 27.8133 146.3 27.72L145.08 27.44C144.6 27.32 144.14 27.1333 143.7 26.88C143.274 26.6133 142.927 26.28 142.66 25.88C142.394 25.48 142.26 25.0067 142.26 24.46C142.26 23.8467 142.434 23.32 142.78 22.88C143.14 22.4267 143.62 22.08 144.22 21.84C144.82 21.6 145.467 21.48 146.16 21.48C146.8 21.48 147.38 21.5667 147.9 21.74C148.434 21.9 148.894 22.1467 149.28 22.48C149.68 22.8 149.994 23.2 150.22 23.68L148.36 24.52C148.134 24.0667 147.827 23.7533 147.44 23.58C147.054 23.3933 146.634 23.3 146.18 23.3C145.674 23.3 145.247 23.4067 144.9 23.62C144.567 23.82 144.4 24.0867 144.4 24.42C144.4 24.7667 144.547 25.04 144.84 25.24C145.147 25.44 145.52 25.6 145.96 25.72L147.44 26.08C148.454 26.3333 149.214 26.72 149.72 27.24C150.227 27.7467 150.48 28.3667 150.48 29.1C150.48 29.7533 150.294 30.3267 149.92 30.82C149.547 31.3 149.04 31.6733 148.4 31.94C147.774 32.1933 147.074 32.32 146.3 32.32ZM155.663 32.32C154.93 32.32 154.276 32.1733 153.703 31.88C153.143 31.5867 152.696 31.1867 152.363 30.68C152.043 30.16 151.883 29.5667 151.883 28.9C151.883 28.1667 152.07 27.5467 152.443 27.04C152.83 26.5333 153.343 26.1467 153.983 25.88C154.623 25.6133 155.33 25.48 156.103 25.48C156.53 25.48 156.923 25.5133 157.283 25.58C157.656 25.6333 157.976 25.7 158.243 25.78C158.523 25.86 158.743 25.9467 158.903 26.04V25.5C158.903 24.8333 158.663 24.3 158.183 23.9C157.703 23.5 157.083 23.3 156.323 23.3C155.803 23.3 155.31 23.42 154.843 23.66C154.376 23.8867 154.003 24.2 153.723 24.6L152.243 23.46C152.536 23.0467 152.89 22.6933 153.303 22.4C153.73 22.1067 154.203 21.88 154.723 21.72C155.256 21.56 155.81 21.48 156.383 21.48C157.863 21.48 159.003 21.8467 159.803 22.58C160.603 23.3 161.003 24.3133 161.003 25.62V32H158.903V30.74H158.783C158.61 31.0067 158.37 31.26 158.063 31.5C157.77 31.74 157.416 31.9333 157.003 32.08C156.603 32.24 156.156 32.32 155.663 32.32ZM156.043 30.56C156.603 30.56 157.096 30.4267 157.523 30.16C157.963 29.8933 158.303 29.5467 158.543 29.12C158.783 28.68 158.903 28.2067 158.903 27.7C158.61 27.5267 158.25 27.3867 157.823 27.28C157.41 27.16 156.97 27.1 156.503 27.1C155.623 27.1 154.996 27.2733 154.623 27.62C154.25 27.9667 154.063 28.4 154.063 28.92C154.063 29.4 154.243 29.7933 154.603 30.1C154.963 30.4067 155.443 30.56 156.043 30.56Z" fill="white"/>
<path d="M176.4 32.32C175.373 32.32 174.407 32.1333 173.5 31.76C172.593 31.3867 171.793 30.8667 171.1 30.2C170.42 29.52 169.88 28.7267 169.48 27.82C169.093 26.9 168.9 25.9067 168.9 24.84C168.9 23.7733 169.093 22.7867 169.48 21.88C169.88 20.96 170.42 20.1667 171.1 19.5C171.793 18.82 172.593 18.2933 173.5 17.92C174.407 17.5467 175.373 17.36 176.4 17.36C177.493 17.36 178.5 17.5533 179.42 17.94C180.353 18.3267 181.133 18.8667 181.76 19.56L180.24 21.06C179.933 20.7133 179.58 20.42 179.18 20.18C178.793 19.94 178.367 19.76 177.9 19.64C177.433 19.5067 176.933 19.44 176.4 19.44C175.693 19.44 175.02 19.5667 174.38 19.82C173.74 20.0733 173.173 20.44 172.68 20.92C172.2 21.3867 171.82 21.9533 171.54 22.62C171.26 23.2733 171.12 24.0133 171.12 24.84C171.12 25.6667 171.26 26.4133 171.54 27.08C171.833 27.7333 172.22 28.3 172.7 28.78C173.193 29.2467 173.76 29.6067 174.4 29.86C175.04 30.1133 175.713 30.24 176.42 30.24C177.073 30.24 177.68 30.1467 178.24 29.96C178.813 29.7733 179.313 29.5067 179.74 29.16C180.167 28.8133 180.513 28.3933 180.78 27.9C181.047 27.3933 181.213 26.8267 181.28 26.2H176.38V24.26H183.34C183.367 24.42 183.393 24.6067 183.42 24.82C183.447 25.02 183.46 25.2133 183.46 25.4V25.42C183.46 26.4467 183.28 27.3867 182.92 28.24C182.573 29.0933 182.087 29.8267 181.46 30.44C180.833 31.04 180.087 31.5067 179.22 31.84C178.367 32.16 177.427 32.32 176.4 32.32ZM189.9 32.32C188.847 32.32 187.92 32.08 187.12 31.6C186.32 31.12 185.693 30.4733 185.24 29.66C184.787 28.8333 184.56 27.9133 184.56 26.9C184.56 25.8867 184.787 24.9733 185.24 24.16C185.693 23.3333 186.32 22.68 187.12 22.2C187.92 21.72 188.847 21.48 189.9 21.48C190.94 21.48 191.86 21.7267 192.66 22.22C193.46 22.7 194.087 23.3467 194.54 24.16C194.993 24.9733 195.22 25.8867 195.22 26.9C195.22 27.9133 194.993 28.8333 194.54 29.66C194.087 30.4733 193.46 31.12 192.66 31.6C191.86 32.08 190.94 32.32 189.9 32.32ZM189.9 30.34C190.46 30.34 190.98 30.2067 191.46 29.94C191.94 29.66 192.327 29.2667 192.62 28.76C192.927 28.24 193.08 27.62 193.08 26.9C193.08 26.18 192.927 25.5667 192.62 25.06C192.327 24.54 191.94 24.1467 191.46 23.88C190.98 23.6 190.46 23.46 189.9 23.46C189.34 23.46 188.813 23.6 188.32 23.88C187.84 24.1467 187.447 24.54 187.14 25.06C186.847 25.5667 186.7 26.18 186.7 26.9C186.7 27.62 186.847 28.24 187.14 28.76C187.447 29.2667 187.847 29.66 188.34 29.94C188.833 30.2067 189.353 30.34 189.9 30.34ZM202.009 32.32C200.956 32.32 200.029 32.08 199.229 31.6C198.429 31.12 197.803 30.4733 197.349 29.66C196.896 28.8333 196.669 27.9133 196.669 26.9C196.669 25.8867 196.896 24.9733 197.349 24.16C197.803 23.3333 198.429 22.68 199.229 22.2C200.029 21.72 200.956 21.48 202.009 21.48C203.049 21.48 203.969 21.7267 204.769 22.22C205.569 22.7 206.196 23.3467 206.649 24.16C207.103 24.9733 207.329 25.8867 207.329 26.9C207.329 27.9133 207.103 28.8333 206.649 29.66C206.196 30.4733 205.569 31.12 204.769 31.6C203.969 32.08 203.049 32.32 202.009 32.32ZM202.009 30.34C202.569 30.34 203.089 30.2067 203.569 29.94C204.049 29.66 204.436 29.2667 204.729 28.76C205.036 28.24 205.189 27.62 205.189 26.9C205.189 26.18 205.036 25.5667 204.729 25.06C204.436 24.54 204.049 24.1467 203.569 23.88C203.089 23.6 202.569 23.46 202.009 23.46C201.449 23.46 200.923 23.6 200.429 23.88C199.949 24.1467 199.556 24.54 199.249 25.06C198.956 25.5667 198.809 26.18 198.809 26.9C198.809 27.62 198.956 28.24 199.249 28.76C199.556 29.2667 199.956 29.66 200.449 29.94C200.943 30.2067 201.463 30.34 202.009 30.34ZM213.919 36.64C213.025 36.64 212.252 36.4933 211.599 36.2C210.959 35.92 210.439 35.5533 210.039 35.1C209.639 34.66 209.352 34.2067 209.179 33.74L211.179 32.9C211.392 33.4333 211.732 33.8667 212.199 34.2C212.679 34.5467 213.252 34.72 213.919 34.72C214.865 34.72 215.605 34.44 216.139 33.88C216.672 33.32 216.939 32.5267 216.939 31.5V30.52H216.819C216.499 30.9867 216.059 31.3667 215.499 31.66C214.939 31.9533 214.292 32.1 213.559 32.1C212.692 32.1 211.892 31.88 211.159 31.44C210.439 31 209.859 30.3867 209.419 29.6C208.992 28.8 208.779 27.8667 208.779 26.8C208.779 25.72 208.992 24.7867 209.419 24C209.859 23.2 210.439 22.58 211.159 22.14C211.892 21.7 212.692 21.48 213.559 21.48C214.292 21.48 214.939 21.6267 215.499 21.92C216.059 22.2 216.499 22.5867 216.819 23.08H216.939V21.8H218.999V31.46C218.999 32.5667 218.779 33.5067 218.339 34.28C217.912 35.0533 217.319 35.64 216.559 36.04C215.799 36.44 214.919 36.64 213.919 36.64ZM213.939 30.14C214.472 30.14 214.965 30.0133 215.419 29.76C215.885 29.4933 216.252 29.1133 216.519 28.62C216.799 28.1133 216.939 27.5067 216.939 26.8C216.939 26.0533 216.799 25.4333 216.519 24.94C216.252 24.4467 215.885 24.0733 215.419 23.82C214.965 23.5667 214.472 23.44 213.939 23.44C213.405 23.44 212.905 23.5667 212.439 23.82C211.985 24.0733 211.619 24.4533 211.339 24.96C211.059 25.4533 210.919 26.0667 210.919 26.8C210.919 27.52 211.059 28.1333 211.339 28.64C211.619 29.1333 211.985 29.5067 212.439 29.76C212.905 30.0133 213.405 30.14 213.939 30.14ZM221.546 32V17.68H223.706V32H221.546ZM230.815 32.32C229.815 32.32 228.921 32.0867 228.135 31.62C227.348 31.1533 226.728 30.5133 226.275 29.7C225.835 28.8867 225.615 27.96 225.615 26.92C225.615 25.9467 225.828 25.0467 226.255 24.22C226.681 23.3933 227.275 22.7333 228.035 22.24C228.808 21.7333 229.695 21.48 230.695 21.48C231.748 21.48 232.641 21.7067 233.375 22.16C234.121 22.6133 234.688 23.2333 235.075 24.02C235.461 24.8067 235.655 25.6933 235.655 26.68C235.655 26.8267 235.648 26.96 235.635 27.08C235.635 27.2 235.628 27.2933 235.615 27.36H227.735C227.788 27.92 227.928 28.4067 228.155 28.82C228.448 29.34 228.835 29.7333 229.315 30C229.795 30.2667 230.315 30.4 230.875 30.4C231.555 30.4 232.121 30.2467 232.575 29.94C233.041 29.62 233.408 29.2267 233.675 28.76L235.455 29.62C235.015 30.42 234.415 31.0733 233.655 31.58C232.895 32.0733 231.948 32.32 230.815 32.32ZM227.855 25.74H233.515C233.501 25.4867 233.435 25.22 233.315 24.94C233.195 24.6467 233.021 24.38 232.795 24.14C232.568 23.9 232.281 23.7067 231.935 23.56C231.588 23.4 231.181 23.32 230.715 23.32C230.128 23.32 229.608 23.4733 229.155 23.78C228.701 24.0733 228.348 24.4867 228.095 25.02C227.988 25.2467 227.908 25.4867 227.855 25.74ZM244.446 32L240.606 17.68H243.046L245.326 26.98L245.566 28.22H245.686L245.986 26.98L248.866 17.68H251.066L253.826 26.98L254.126 28.2H254.246L254.486 26.98L256.766 17.68H259.186L255.406 32H253.086L250.346 22.5L250.026 21.16H249.906L249.566 22.5L246.706 32H244.446ZM263.202 32.32C262.469 32.32 261.816 32.1733 261.242 31.88C260.682 31.5867 260.236 31.1867 259.902 30.68C259.582 30.16 259.422 29.5667 259.422 28.9C259.422 28.1667 259.609 27.5467 259.982 27.04C260.369 26.5333 260.882 26.1467 261.522 25.88C262.162 25.6133 262.869 25.48 263.642 25.48C264.069 25.48 264.462 25.5133 264.822 25.58C265.196 25.6333 265.516 25.7 265.782 25.78C266.062 25.86 266.282 25.9467 266.442 26.04V25.5C266.442 24.8333 266.202 24.3 265.722 23.9C265.242 23.5 264.622 23.3 263.862 23.3C263.342 23.3 262.849 23.42 262.382 23.66C261.916 23.8867 261.542 24.2 261.262 24.6L259.782 23.46C260.076 23.0467 260.429 22.6933 260.842 22.4C261.269 22.1067 261.742 21.88 262.262 21.72C262.796 21.56 263.349 21.48 263.922 21.48C265.402 21.48 266.542 21.8467 267.342 22.58C268.142 23.3 268.542 24.3133 268.542 25.62V32H266.442V30.74H266.322C266.149 31.0067 265.909 31.26 265.602 31.5C265.309 31.74 264.956 31.9333 264.542 32.08C264.142 32.24 263.696 32.32 263.202 32.32ZM263.582 30.56C264.142 30.56 264.636 30.4267 265.062 30.16C265.502 29.8933 265.842 29.5467 266.082 29.12C266.322 28.68 266.442 28.2067 266.442 27.7C266.149 27.5267 265.789 27.3867 265.362 27.28C264.949 27.16 264.509 27.1 264.042 27.1C263.162 27.1 262.536 27.2733 262.162 27.62C261.789 27.9667 261.602 28.4 261.602 28.92C261.602 29.4 261.782 29.7933 262.142 30.1C262.502 30.4067 262.982 30.56 263.582 30.56ZM270.94 32V17.68H273.1V32H270.94ZM275.667 32V17.68H277.827V32H275.667ZM284.936 32.32C283.936 32.32 283.042 32.0867 282.256 31.62C281.469 31.1533 280.849 30.5133 280.396 29.7C279.956 28.8867 279.736 27.96 279.736 26.92C279.736 25.9467 279.949 25.0467 280.376 24.22C280.802 23.3933 281.396 22.7333 282.156 22.24C282.929 21.7333 283.816 21.48 284.816 21.48C285.869 21.48 286.762 21.7067 287.496 22.16C288.242 22.6133 288.809 23.2333 289.196 24.02C289.582 24.8067 289.776 25.6933 289.776 26.68C289.776 26.8267 289.769 26.96 289.756 27.08C289.756 27.2 289.749 27.2933 289.736 27.36H281.856C281.909 27.92 282.049 28.4067 282.276 28.82C282.569 29.34 282.956 29.7333 283.436 30C283.916 30.2667 284.436 30.4 284.996 30.4C285.676 30.4 286.242 30.2467 286.696 29.94C287.162 29.62 287.529 29.2267 287.796 28.76L289.576 29.62C289.136 30.42 288.536 31.0733 287.776 31.58C287.016 32.0733 286.069 32.32 284.936 32.32ZM281.976 25.74H287.636C287.622 25.4867 287.556 25.22 287.436 24.94C287.316 24.6467 287.142 24.38 286.916 24.14C286.689 23.9 286.402 23.7067 286.056 23.56C285.709 23.4 285.302 23.32 284.836 23.32C284.249 23.32 283.729 23.4733 283.276 23.78C282.822 24.0733 282.469 24.4867 282.216 25.02C282.109 25.2467 282.029 25.4867 281.976 25.74ZM290.787 21.8H292.567V18.92H294.727V21.8H297.227V23.68H294.727V28.58C294.727 29.0867 294.827 29.4733 295.027 29.74C295.24 30.0067 295.593 30.14 296.087 30.14C296.327 30.14 296.54 30.1067 296.727 30.04C296.913 29.96 297.1 29.8667 297.287 29.76V31.86C297.06 31.9533 296.82 32.0267 296.567 32.08C296.313 32.1333 296.013 32.16 295.667 32.16C294.72 32.16 293.967 31.8867 293.407 31.34C292.847 30.78 292.567 30.0133 292.567 29.04V23.68H290.787V21.8Z" fill="white"/>
</svg>
