<svg width="393" height="50" viewBox="0 0 393 50" fill="none" xmlns="http://www.w3.org/2000/svg">
<rect x="0.5" y="0.5" width="392" height="49" rx="24.5" fill="#1F1F1F"/>
<rect x="0.5" y="0.5" width="392" height="49" rx="24.5" stroke="#747775"/>
<path d="M51 22H21V17C21 14.2857 23.2018 12 25.8165 12H46.1835C48.7982 12 51 14.2857 51 17V22Z" fill="#34A853"/>
<path d="M51 26.0537H21V21.0537C21 18.3394 23.2018 16.0537 25.8165 16.0537H46.1835C48.7982 16.0537 51 18.3394 51 21.0537V26.0537Z" fill="#FBBC04"/>
<path d="M51 30.2468H21V25.2468C21 22.5325 23.2018 20.2468 25.8165 20.2468H46.1835C48.7982 20.2468 51 22.5325 51 25.2468V30.2468Z" fill="#EA4335"/>
<path d="M21 23.2752L40.0411 27.6789C42.2329 28.2294 44.6986 27.6789 46.4795 26.3028L51 23V33.3211C51 35.9358 48.8082 38 46.2055 38H25.7945C23.1918 38 21 35.9358 21 33.3211V23.2752Z" fill="#4285F4"/>
<path d="M63.3 32L68.7 17.68H71.2L76.62 32H74.2L72.88 28.32H67.04L65.72 32H63.3ZM72.14 26.28L70.56 21.9L70.02 20.26H69.9L69.36 21.9L67.78 26.28H72.14ZM76.7827 23.68V21.8H78.6427V20.96C78.6427 20.2267 78.796 19.6067 79.1027 19.1C79.4093 18.58 79.8293 18.1867 80.3627 17.92C80.896 17.6533 81.4893 17.52 82.1427 17.52C82.476 17.52 82.7427 17.54 82.9427 17.58C83.1427 17.62 83.3093 17.66 83.4427 17.7V19.78C83.3093 19.74 83.1493 19.6933 82.9627 19.64C82.776 19.5733 82.536 19.54 82.2427 19.54C81.9893 19.54 81.7493 19.6 81.5227 19.72C81.296 19.84 81.116 20.02 80.9827 20.26C80.8493 20.5 80.7827 20.7933 80.7827 21.14V21.8H85.1427V20.96C85.1427 20.2267 85.296 19.6067 85.6027 19.1C85.9093 18.58 86.3293 18.1867 86.8627 17.92C87.396 17.6533 87.9893 17.52 88.6427 17.52C88.976 17.52 89.2427 17.54 89.4427 17.58C89.6427 17.62 89.8093 17.66 89.9427 17.7V19.78C89.8093 19.74 89.6493 19.6933 89.4627 19.64C89.276 19.5733 89.036 19.54 88.7427 19.54C88.4893 19.54 88.2493 19.6 88.0227 19.72C87.796 19.84 87.616 20.02 87.4827 20.26C87.3493 20.5 87.2827 20.7933 87.2827 21.14V21.8H93.7627V32H91.6027V23.68H87.2827V32H85.1427V23.68H80.7827V32H78.6427V23.68H76.7827ZM92.6827 20.3C92.2827 20.3 91.936 20.16 91.6427 19.88C91.3627 19.5867 91.2227 19.24 91.2227 18.84C91.2227 18.4267 91.3627 18.0867 91.6427 17.82C91.936 17.54 92.2827 17.4 92.6827 17.4C93.096 17.4 93.4427 17.54 93.7227 17.82C94.0027 18.0867 94.1427 18.4267 94.1427 18.84C94.1427 19.24 94.0027 19.5867 93.7227 19.88C93.4427 20.16 93.096 20.3 92.6827 20.3ZM101.07 32.32C100.043 32.32 99.1298 32.0867 98.3298 31.62C97.5432 31.1533 96.9232 30.5133 96.4698 29.7C96.0298 28.8733 95.8098 27.94 95.8098 26.9C95.8098 25.86 96.0298 24.9333 96.4698 24.12C96.9232 23.3067 97.5432 22.6667 98.3298 22.2C99.1298 21.72 100.043 21.48 101.07 21.48C102.203 21.48 103.157 21.7333 103.93 22.24C104.717 22.7467 105.277 23.4333 105.61 24.3L103.65 25.1C103.41 24.5533 103.063 24.1467 102.61 23.88C102.17 23.6 101.643 23.46 101.03 23.46C100.47 23.46 99.9565 23.6067 99.4898 23.9C99.0232 24.18 98.6498 24.5733 98.3698 25.08C98.0898 25.5867 97.9498 26.1933 97.9498 26.9C97.9498 27.5933 98.0898 28.2 98.3698 28.72C98.6498 29.24 99.0232 29.64 99.4898 29.92C99.9565 30.2 100.47 30.34 101.03 30.34C101.683 30.34 102.237 30.1933 102.69 29.9C103.143 29.6067 103.497 29.1933 103.75 28.66L105.67 29.5C105.297 30.3133 104.717 30.9867 103.93 31.52C103.157 32.0533 102.203 32.32 101.07 32.32ZM107.522 32V17.68H109.682V21.6L109.562 23.2H109.682C109.962 22.7067 110.388 22.3 110.962 21.98C111.548 21.6467 112.195 21.48 112.902 21.48C113.755 21.48 114.462 21.6533 115.022 22C115.595 22.3467 116.022 22.8267 116.302 23.44C116.582 24.04 116.722 24.7467 116.722 25.56V32H114.582V25.84C114.582 25.2933 114.475 24.8467 114.262 24.5C114.062 24.1533 113.795 23.8933 113.462 23.72C113.128 23.5467 112.755 23.46 112.342 23.46C111.822 23.46 111.362 23.6067 110.962 23.9C110.562 24.1933 110.248 24.58 110.022 25.06C109.795 25.5267 109.682 26.0267 109.682 26.56V32H107.522ZM123.842 32.32C122.842 32.32 121.949 32.0867 121.162 31.62C120.375 31.1533 119.755 30.5133 119.302 29.7C118.862 28.8867 118.642 27.96 118.642 26.92C118.642 25.9467 118.855 25.0467 119.282 24.22C119.709 23.3933 120.302 22.7333 121.062 22.24C121.835 21.7333 122.722 21.48 123.722 21.48C124.775 21.48 125.669 21.7067 126.402 22.16C127.149 22.6133 127.715 23.2333 128.102 24.02C128.489 24.8067 128.682 25.6933 128.682 26.68C128.682 26.8267 128.675 26.96 128.662 27.08C128.662 27.2 128.655 27.2933 128.642 27.36H120.762C120.815 27.92 120.955 28.4067 121.182 28.82C121.475 29.34 121.862 29.7333 122.342 30C122.822 30.2667 123.342 30.4 123.902 30.4C124.582 30.4 125.149 30.2467 125.602 29.94C126.069 29.62 126.435 29.2267 126.702 28.76L128.482 29.62C128.042 30.42 127.442 31.0733 126.682 31.58C125.922 32.0733 124.975 32.32 123.842 32.32ZM120.882 25.74H126.542C126.529 25.4867 126.462 25.22 126.342 24.94C126.222 24.6467 126.049 24.38 125.822 24.14C125.595 23.9 125.309 23.7067 124.962 23.56C124.615 23.4 124.209 23.32 123.742 23.32C123.155 23.32 122.635 23.4733 122.182 23.78C121.729 24.0733 121.375 24.4867 121.122 25.02C121.015 25.2467 120.935 25.4867 120.882 25.74ZM130.686 32V21.8H132.726V23.3H132.846C133.006 22.9533 133.232 22.6467 133.526 22.38C133.832 22.1133 134.179 21.9 134.566 21.74C134.966 21.58 135.379 21.5 135.806 21.5C136.086 21.5 136.319 21.52 136.506 21.56C136.706 21.5867 136.886 21.6333 137.046 21.7V23.94C136.792 23.8333 136.532 23.7467 136.266 23.68C136.012 23.6133 135.746 23.58 135.466 23.58C134.959 23.58 134.506 23.72 134.106 24C133.719 24.2667 133.412 24.6267 133.186 25.08C132.959 25.5333 132.846 26.04 132.846 26.6V32H130.686ZM147.741 32.32C146.821 32.32 145.988 32.0867 145.241 31.62C144.494 31.1533 143.908 30.5133 143.481 29.7C143.054 28.8867 142.841 27.9533 142.841 26.9C142.841 25.8467 143.054 24.9133 143.481 24.1C143.908 23.2867 144.494 22.6467 145.241 22.18C145.988 21.7133 146.821 21.48 147.741 21.48C148.274 21.48 148.754 21.56 149.181 21.72C149.608 21.88 149.974 22.0933 150.281 22.36C150.601 22.6133 150.848 22.8867 151.021 23.18H151.141L151.021 21.76V17.68H153.161V32H151.141V30.64H151.021C150.848 30.92 150.601 31.1933 150.281 31.46C149.974 31.7133 149.608 31.92 149.181 32.08C148.754 32.24 148.274 32.32 147.741 32.32ZM148.061 30.34C148.594 30.34 149.094 30.2 149.561 29.92C150.041 29.64 150.421 29.2467 150.701 28.74C150.994 28.22 151.141 27.6067 151.141 26.9C151.141 26.1933 150.994 25.5867 150.701 25.08C150.421 24.56 150.041 24.16 149.561 23.88C149.094 23.6 148.594 23.46 148.061 23.46C147.528 23.46 147.028 23.6 146.561 23.88C146.094 24.16 145.714 24.56 145.421 25.08C145.128 25.5867 144.981 26.1933 144.981 26.9C144.981 27.5933 145.128 28.2 145.421 28.72C145.714 29.24 146.094 29.64 146.561 29.92C147.028 30.2 147.528 30.34 148.061 30.34ZM158.808 32.32C158.074 32.32 157.421 32.1733 156.848 31.88C156.288 31.5867 155.841 31.1867 155.508 30.68C155.188 30.16 155.028 29.5667 155.028 28.9C155.028 28.1667 155.214 27.5467 155.588 27.04C155.974 26.5333 156.488 26.1467 157.128 25.88C157.768 25.6133 158.474 25.48 159.248 25.48C159.674 25.48 160.068 25.5133 160.428 25.58C160.801 25.6333 161.121 25.7 161.388 25.78C161.668 25.86 161.888 25.9467 162.048 26.04V25.5C162.048 24.8333 161.808 24.3 161.328 23.9C160.848 23.5 160.228 23.3 159.468 23.3C158.948 23.3 158.454 23.42 157.988 23.66C157.521 23.8867 157.148 24.2 156.868 24.6L155.388 23.46C155.681 23.0467 156.034 22.6933 156.448 22.4C156.874 22.1067 157.348 21.88 157.868 21.72C158.401 21.56 158.954 21.48 159.528 21.48C161.008 21.48 162.148 21.8467 162.948 22.58C163.748 23.3 164.148 24.3133 164.148 25.62V32H162.048V30.74H161.928C161.754 31.0067 161.514 31.26 161.208 31.5C160.914 31.74 160.561 31.9333 160.148 32.08C159.748 32.24 159.301 32.32 158.808 32.32ZM159.188 30.56C159.748 30.56 160.241 30.4267 160.668 30.16C161.108 29.8933 161.448 29.5467 161.688 29.12C161.928 28.68 162.048 28.2067 162.048 27.7C161.754 27.5267 161.394 27.3867 160.968 27.28C160.554 27.16 160.114 27.1 159.648 27.1C158.768 27.1 158.141 27.2733 157.768 27.62C157.394 27.9667 157.208 28.4 157.208 28.92C157.208 29.4 157.388 29.7933 157.748 30.1C158.108 30.4067 158.588 30.56 159.188 30.56ZM166.526 32V21.8H168.566V23.2H168.686C168.979 22.7067 169.412 22.3 169.986 21.98C170.572 21.6467 171.212 21.48 171.906 21.48C173.159 21.48 174.099 21.8533 174.726 22.6C175.352 23.3333 175.666 24.32 175.666 25.56V32H173.526V25.84C173.526 25.0133 173.319 24.4133 172.906 24.04C172.492 23.6533 171.952 23.46 171.286 23.46C170.766 23.46 170.312 23.6067 169.926 23.9C169.539 24.18 169.232 24.5533 169.006 25.02C168.792 25.4867 168.686 25.9867 168.686 26.52V32H166.526ZM181.75 32.32C180.936 32.32 180.23 32.2 179.63 31.96C179.03 31.7067 178.536 31.3733 178.15 30.96C177.763 30.5333 177.476 30.0733 177.29 29.58L179.23 28.74C179.47 29.2867 179.81 29.7067 180.25 30C180.703 30.28 181.223 30.42 181.81 30.42C182.343 30.42 182.803 30.3267 183.19 30.14C183.576 29.94 183.77 29.62 183.77 29.18C183.77 28.9 183.676 28.6733 183.49 28.5C183.316 28.3133 183.076 28.16 182.77 28.04C182.476 27.92 182.136 27.8133 181.75 27.72L180.53 27.44C180.05 27.32 179.59 27.1333 179.15 26.88C178.723 26.6133 178.376 26.28 178.11 25.88C177.843 25.48 177.71 25.0067 177.71 24.46C177.71 23.8467 177.883 23.32 178.23 22.88C178.59 22.4267 179.07 22.08 179.67 21.84C180.27 21.6 180.916 21.48 181.61 21.48C182.25 21.48 182.83 21.5667 183.35 21.74C183.883 21.9 184.343 22.1467 184.73 22.48C185.13 22.8 185.443 23.2 185.67 23.68L183.81 24.52C183.583 24.0667 183.276 23.7533 182.89 23.58C182.503 23.3933 182.083 23.3 181.63 23.3C181.123 23.3 180.696 23.4067 180.35 23.62C180.016 23.82 179.85 24.0867 179.85 24.42C179.85 24.7667 179.996 25.04 180.29 25.24C180.596 25.44 180.97 25.6 181.41 25.72L182.89 26.08C183.903 26.3333 184.663 26.72 185.17 27.24C185.676 27.7467 185.93 28.3667 185.93 29.1C185.93 29.7533 185.743 30.3267 185.37 30.82C184.996 31.3 184.49 31.6733 183.85 31.94C183.223 32.1933 182.523 32.32 181.75 32.32Z" fill="white"/>
<path d="M200.4 32.32C199.373 32.32 198.407 32.1333 197.5 31.76C196.593 31.3867 195.793 30.8667 195.1 30.2C194.42 29.52 193.88 28.7267 193.48 27.82C193.093 26.9 192.9 25.9067 192.9 24.84C192.9 23.7733 193.093 22.7867 193.48 21.88C193.88 20.96 194.42 20.1667 195.1 19.5C195.793 18.82 196.593 18.2933 197.5 17.92C198.407 17.5467 199.373 17.36 200.4 17.36C201.493 17.36 202.5 17.5533 203.42 17.94C204.353 18.3267 205.133 18.8667 205.76 19.56L204.24 21.06C203.933 20.7133 203.58 20.42 203.18 20.18C202.793 19.94 202.367 19.76 201.9 19.64C201.433 19.5067 200.933 19.44 200.4 19.44C199.693 19.44 199.02 19.5667 198.38 19.82C197.74 20.0733 197.173 20.44 196.68 20.92C196.2 21.3867 195.82 21.9533 195.54 22.62C195.26 23.2733 195.12 24.0133 195.12 24.84C195.12 25.6667 195.26 26.4133 195.54 27.08C195.833 27.7333 196.22 28.3 196.7 28.78C197.193 29.2467 197.76 29.6067 198.4 29.86C199.04 30.1133 199.713 30.24 200.42 30.24C201.073 30.24 201.68 30.1467 202.24 29.96C202.813 29.7733 203.313 29.5067 203.74 29.16C204.167 28.8133 204.513 28.3933 204.78 27.9C205.047 27.3933 205.213 26.8267 205.28 26.2H200.38V24.26H207.34C207.367 24.42 207.393 24.6067 207.42 24.82C207.447 25.02 207.46 25.2133 207.46 25.4V25.42C207.46 26.4467 207.28 27.3867 206.92 28.24C206.573 29.0933 206.087 29.8267 205.46 30.44C204.833 31.04 204.087 31.5067 203.22 31.84C202.367 32.16 201.427 32.32 200.4 32.32ZM213.9 32.32C212.847 32.32 211.92 32.08 211.12 31.6C210.32 31.12 209.693 30.4733 209.24 29.66C208.787 28.8333 208.56 27.9133 208.56 26.9C208.56 25.8867 208.787 24.9733 209.24 24.16C209.693 23.3333 210.32 22.68 211.12 22.2C211.92 21.72 212.847 21.48 213.9 21.48C214.94 21.48 215.86 21.7267 216.66 22.22C217.46 22.7 218.087 23.3467 218.54 24.16C218.993 24.9733 219.22 25.8867 219.22 26.9C219.22 27.9133 218.993 28.8333 218.54 29.66C218.087 30.4733 217.46 31.12 216.66 31.6C215.86 32.08 214.94 32.32 213.9 32.32ZM213.9 30.34C214.46 30.34 214.98 30.2067 215.46 29.94C215.94 29.66 216.327 29.2667 216.62 28.76C216.927 28.24 217.08 27.62 217.08 26.9C217.08 26.18 216.927 25.5667 216.62 25.06C216.327 24.54 215.94 24.1467 215.46 23.88C214.98 23.6 214.46 23.46 213.9 23.46C213.34 23.46 212.813 23.6 212.32 23.88C211.84 24.1467 211.447 24.54 211.14 25.06C210.847 25.5667 210.7 26.18 210.7 26.9C210.7 27.62 210.847 28.24 211.14 28.76C211.447 29.2667 211.847 29.66 212.34 29.94C212.833 30.2067 213.353 30.34 213.9 30.34ZM226.009 32.32C224.956 32.32 224.029 32.08 223.229 31.6C222.429 31.12 221.803 30.4733 221.349 29.66C220.896 28.8333 220.669 27.9133 220.669 26.9C220.669 25.8867 220.896 24.9733 221.349 24.16C221.803 23.3333 222.429 22.68 223.229 22.2C224.029 21.72 224.956 21.48 226.009 21.48C227.049 21.48 227.969 21.7267 228.769 22.22C229.569 22.7 230.196 23.3467 230.649 24.16C231.103 24.9733 231.329 25.8867 231.329 26.9C231.329 27.9133 231.103 28.8333 230.649 29.66C230.196 30.4733 229.569 31.12 228.769 31.6C227.969 32.08 227.049 32.32 226.009 32.32ZM226.009 30.34C226.569 30.34 227.089 30.2067 227.569 29.94C228.049 29.66 228.436 29.2667 228.729 28.76C229.036 28.24 229.189 27.62 229.189 26.9C229.189 26.18 229.036 25.5667 228.729 25.06C228.436 24.54 228.049 24.1467 227.569 23.88C227.089 23.6 226.569 23.46 226.009 23.46C225.449 23.46 224.923 23.6 224.429 23.88C223.949 24.1467 223.556 24.54 223.249 25.06C222.956 25.5667 222.809 26.18 222.809 26.9C222.809 27.62 222.956 28.24 223.249 28.76C223.556 29.2667 223.956 29.66 224.449 29.94C224.943 30.2067 225.463 30.34 226.009 30.34ZM237.919 36.64C237.025 36.64 236.252 36.4933 235.599 36.2C234.959 35.92 234.439 35.5533 234.039 35.1C233.639 34.66 233.352 34.2067 233.179 33.74L235.179 32.9C235.392 33.4333 235.732 33.8667 236.199 34.2C236.679 34.5467 237.252 34.72 237.919 34.72C238.865 34.72 239.605 34.44 240.139 33.88C240.672 33.32 240.939 32.5267 240.939 31.5V30.52H240.819C240.499 30.9867 240.059 31.3667 239.499 31.66C238.939 31.9533 238.292 32.1 237.559 32.1C236.692 32.1 235.892 31.88 235.159 31.44C234.439 31 233.859 30.3867 233.419 29.6C232.992 28.8 232.779 27.8667 232.779 26.8C232.779 25.72 232.992 24.7867 233.419 24C233.859 23.2 234.439 22.58 235.159 22.14C235.892 21.7 236.692 21.48 237.559 21.48C238.292 21.48 238.939 21.6267 239.499 21.92C240.059 22.2 240.499 22.5867 240.819 23.08H240.939V21.8H242.999V31.46C242.999 32.5667 242.779 33.5067 242.339 34.28C241.912 35.0533 241.319 35.64 240.559 36.04C239.799 36.44 238.919 36.64 237.919 36.64ZM237.939 30.14C238.472 30.14 238.965 30.0133 239.419 29.76C239.885 29.4933 240.252 29.1133 240.519 28.62C240.799 28.1133 240.939 27.5067 240.939 26.8C240.939 26.0533 240.799 25.4333 240.519 24.94C240.252 24.4467 239.885 24.0733 239.419 23.82C238.965 23.5667 238.472 23.44 237.939 23.44C237.405 23.44 236.905 23.5667 236.439 23.82C235.985 24.0733 235.619 24.4533 235.339 24.96C235.059 25.4533 234.919 26.0667 234.919 26.8C234.919 27.52 235.059 28.1333 235.339 28.64C235.619 29.1333 235.985 29.5067 236.439 29.76C236.905 30.0133 237.405 30.14 237.939 30.14ZM245.546 32V17.68H247.706V32H245.546ZM254.815 32.32C253.815 32.32 252.921 32.0867 252.135 31.62C251.348 31.1533 250.728 30.5133 250.275 29.7C249.835 28.8867 249.615 27.96 249.615 26.92C249.615 25.9467 249.828 25.0467 250.255 24.22C250.681 23.3933 251.275 22.7333 252.035 22.24C252.808 21.7333 253.695 21.48 254.695 21.48C255.748 21.48 256.641 21.7067 257.375 22.16C258.121 22.6133 258.688 23.2333 259.075 24.02C259.461 24.8067 259.655 25.6933 259.655 26.68C259.655 26.8267 259.648 26.96 259.635 27.08C259.635 27.2 259.628 27.2933 259.615 27.36H251.735C251.788 27.92 251.928 28.4067 252.155 28.82C252.448 29.34 252.835 29.7333 253.315 30C253.795 30.2667 254.315 30.4 254.875 30.4C255.555 30.4 256.121 30.2467 256.575 29.94C257.041 29.62 257.408 29.2267 257.675 28.76L259.455 29.62C259.015 30.42 258.415 31.0733 257.655 31.58C256.895 32.0733 255.948 32.32 254.815 32.32ZM251.855 25.74H257.515C257.501 25.4867 257.435 25.22 257.315 24.94C257.195 24.6467 257.021 24.38 256.795 24.14C256.568 23.9 256.281 23.7067 255.935 23.56C255.588 23.4 255.181 23.32 254.715 23.32C254.128 23.32 253.608 23.4733 253.155 23.78C252.701 24.0733 252.348 24.4867 252.095 25.02C251.988 25.2467 251.908 25.4867 251.855 25.74ZM266.686 32V17.68H271.606C272.473 17.68 273.26 17.8667 273.966 18.24C274.673 18.6 275.233 19.1133 275.646 19.78C276.073 20.4333 276.286 21.1933 276.286 22.06C276.286 22.9133 276.073 23.6733 275.646 24.34C275.233 25.0067 274.673 25.5267 273.966 25.9C273.26 26.26 272.473 26.44 271.606 26.44H268.886V32H266.686ZM268.886 24.36H271.666C272.186 24.36 272.626 24.2533 272.986 24.04C273.346 23.8133 273.62 23.5267 273.806 23.18C274.006 22.82 274.106 22.4467 274.106 22.06C274.106 21.6733 274.006 21.3067 273.806 20.96C273.62 20.6133 273.346 20.3267 272.986 20.1C272.626 19.8733 272.186 19.76 271.666 19.76H268.886V24.36ZM282.279 32.32C281.225 32.32 280.299 32.08 279.499 31.6C278.699 31.12 278.072 30.4733 277.619 29.66C277.165 28.8333 276.939 27.9133 276.939 26.9C276.939 25.8867 277.165 24.9733 277.619 24.16C278.072 23.3333 278.699 22.68 279.499 22.2C280.299 21.72 281.225 21.48 282.279 21.48C283.319 21.48 284.239 21.7267 285.039 22.22C285.839 22.7 286.465 23.3467 286.919 24.16C287.372 24.9733 287.599 25.8867 287.599 26.9C287.599 27.9133 287.372 28.8333 286.919 29.66C286.465 30.4733 285.839 31.12 285.039 31.6C284.239 32.08 283.319 32.32 282.279 32.32ZM282.279 30.34C282.839 30.34 283.359 30.2067 283.839 29.94C284.319 29.66 284.705 29.2667 284.999 28.76C285.305 28.24 285.459 27.62 285.459 26.9C285.459 26.18 285.305 25.5667 284.999 25.06C284.705 24.54 284.319 24.1467 283.839 23.88C283.359 23.6 282.839 23.46 282.279 23.46C281.719 23.46 281.192 23.6 280.699 23.88C280.219 24.1467 279.825 24.54 279.519 25.06C279.225 25.5667 279.079 26.18 279.079 26.9C279.079 27.62 279.225 28.24 279.519 28.76C279.825 29.2667 280.225 29.66 280.719 29.94C281.212 30.2067 281.732 30.34 282.279 30.34ZM296.793 21.8H298.573V18.92H300.733V21.8H303.233V23.68H300.733V28.58C300.733 29.0867 300.833 29.4733 301.033 29.74C301.246 30.0067 301.599 30.14 302.093 30.14C302.333 30.14 302.546 30.1067 302.733 30.04C302.919 29.96 303.106 29.8667 303.293 29.76V31.86C303.066 31.9533 302.826 32.0267 302.573 32.08C302.319 32.1333 302.026 32.16 301.693 32.16C300.733 32.16 299.973 31.8867 299.413 31.34C298.853 30.78 298.573 30.0133 298.573 29.04V23.68H296.793V21.8ZM289.393 32V21.8H291.433V23.3H291.553C291.739 22.9267 291.986 22.6133 292.293 22.36C292.599 22.0933 292.953 21.8867 293.353 21.74C293.766 21.5933 294.186 21.52 294.613 21.52C294.813 21.52 294.973 21.5267 295.093 21.54C295.226 21.54 295.346 21.56 295.453 21.6V23.76C295.306 23.7067 295.146 23.6733 294.973 23.66C294.799 23.6333 294.599 23.62 294.373 23.62C293.813 23.62 293.319 23.7467 292.893 24C292.466 24.24 292.133 24.5867 291.893 25.04C291.666 25.4933 291.553 26.0333 291.553 26.66V32H289.393ZM309.6 32.32C308.6 32.32 307.706 32.0867 306.92 31.62C306.133 31.1533 305.513 30.5133 305.06 29.7C304.62 28.8867 304.4 27.96 304.4 26.92C304.4 25.9467 304.613 25.0467 305.04 24.22C305.466 23.3933 306.06 22.7333 306.82 22.24C307.593 21.7333 308.48 21.48 309.48 21.48C310.533 21.48 311.426 21.7067 312.16 22.16C312.906 22.6133 313.473 23.2333 313.86 24.02C314.246 24.8067 314.44 25.6933 314.44 26.68C314.44 26.8267 314.433 26.96 314.42 27.08C314.42 27.2 314.413 27.2933 314.4 27.36H306.52C306.573 27.92 306.713 28.4067 306.94 28.82C307.233 29.34 307.62 29.7333 308.1 30C308.58 30.2667 309.1 30.4 309.66 30.4C310.34 30.4 310.906 30.2467 311.36 29.94C311.826 29.62 312.193 29.2267 312.46 28.76L314.24 29.62C313.8 30.42 313.2 31.0733 312.44 31.58C311.68 32.0733 310.733 32.32 309.6 32.32ZM306.64 25.74H312.3C312.286 25.4867 312.22 25.22 312.1 24.94C311.98 24.6467 311.806 24.38 311.58 24.14C311.353 23.9 311.066 23.7067 310.72 23.56C310.373 23.4 309.966 23.32 309.5 23.32C308.913 23.32 308.393 23.4733 307.94 23.78C307.486 24.0733 307.133 24.4867 306.88 25.02C306.773 25.2467 306.693 25.4867 306.64 25.74ZM315.548 23.68V21.8H317.408V20.96C317.408 20.2267 317.562 19.6067 317.868 19.1C318.175 18.58 318.595 18.1867 319.128 17.92C319.662 17.6533 320.255 17.52 320.908 17.52C321.268 17.52 321.575 17.5467 321.828 17.6C322.095 17.64 322.315 17.6933 322.488 17.76V19.86C322.315 19.7933 322.115 19.7267 321.888 19.66C321.675 19.58 321.408 19.54 321.088 19.54C320.675 19.54 320.315 19.68 320.008 19.96C319.702 20.2267 319.548 20.62 319.548 21.14V21.8H322.108V23.68H319.548V32H317.408V23.68H315.548ZM328.213 32.32C327.213 32.32 326.32 32.0867 325.533 31.62C324.746 31.1533 324.126 30.5133 323.673 29.7C323.233 28.8867 323.013 27.96 323.013 26.92C323.013 25.9467 323.226 25.0467 323.653 24.22C324.08 23.3933 324.673 22.7333 325.433 22.24C326.206 21.7333 327.093 21.48 328.093 21.48C329.146 21.48 330.04 21.7067 330.773 22.16C331.52 22.6133 332.086 23.2333 332.473 24.02C332.86 24.8067 333.053 25.6933 333.053 26.68C333.053 26.8267 333.046 26.96 333.033 27.08C333.033 27.2 333.026 27.2933 333.013 27.36H325.133C325.186 27.92 325.326 28.4067 325.553 28.82C325.846 29.34 326.233 29.7333 326.713 30C327.193 30.2667 327.713 30.4 328.273 30.4C328.953 30.4 329.52 30.2467 329.973 29.94C330.44 29.62 330.806 29.2267 331.073 28.76L332.853 29.62C332.413 30.42 331.813 31.0733 331.053 31.58C330.293 32.0733 329.346 32.32 328.213 32.32ZM325.253 25.74H330.913C330.9 25.4867 330.833 25.22 330.713 24.94C330.593 24.6467 330.42 24.38 330.193 24.14C329.966 23.9 329.68 23.7067 329.333 23.56C328.986 23.4 328.58 23.32 328.113 23.32C327.526 23.32 327.006 23.4733 326.553 23.78C326.1 24.0733 325.746 24.4867 325.493 25.02C325.386 25.2467 325.306 25.4867 325.253 25.74ZM338.757 32.32C337.504 32.32 336.557 31.9467 335.917 31.2C335.29 30.44 334.977 29.4133 334.977 28.12V21.8H337.137V27.82C337.137 28.6733 337.337 29.3067 337.737 29.72C338.15 30.1333 338.664 30.34 339.277 30.34C339.837 30.34 340.317 30.2 340.717 29.92C341.117 29.6267 341.424 29.2467 341.637 28.78C341.864 28.3133 341.977 27.8133 341.977 27.28V21.8H344.117V32H342.097V30.62H341.977C341.79 30.94 341.53 31.2267 341.197 31.48C340.864 31.7333 340.49 31.9333 340.077 32.08C339.664 32.24 339.224 32.32 338.757 32.32ZM346.818 32V21.8H348.978V32H346.818ZM347.898 20.3C347.498 20.3 347.152 20.16 346.858 19.88C346.578 19.5867 346.438 19.24 346.438 18.84C346.438 18.4267 346.578 18.0867 346.858 17.82C347.152 17.54 347.498 17.4 347.898 17.4C348.312 17.4 348.658 17.54 348.938 17.82C349.218 18.0867 349.358 18.4267 349.358 18.84C349.358 19.24 349.218 19.5867 348.938 19.88C348.658 20.16 348.312 20.3 347.898 20.3ZM351.678 32V17.68H353.838V32H351.678ZM356.405 32V17.68H358.565V32H356.405ZM365.674 32.32C364.674 32.32 363.781 32.0867 362.994 31.62C362.207 31.1533 361.587 30.5133 361.134 29.7C360.694 28.8867 360.474 27.96 360.474 26.92C360.474 25.9467 360.687 25.0467 361.114 24.22C361.541 23.3933 362.134 22.7333 362.894 22.24C363.667 21.7333 364.554 21.48 365.554 21.48C366.607 21.48 367.501 21.7067 368.234 22.16C368.981 22.6133 369.547 23.2333 369.934 24.02C370.321 24.8067 370.514 25.6933 370.514 26.68C370.514 26.8267 370.507 26.96 370.494 27.08C370.494 27.2 370.487 27.2933 370.474 27.36H362.594C362.647 27.92 362.787 28.4067 363.014 28.82C363.307 29.34 363.694 29.7333 364.174 30C364.654 30.2667 365.174 30.4 365.734 30.4C366.414 30.4 366.981 30.2467 367.434 29.94C367.901 29.62 368.267 29.2267 368.534 28.76L370.314 29.62C369.874 30.42 369.274 31.0733 368.514 31.58C367.754 32.0733 366.807 32.32 365.674 32.32ZM362.714 25.74H368.374C368.361 25.4867 368.294 25.22 368.174 24.94C368.054 24.6467 367.881 24.38 367.654 24.14C367.427 23.9 367.141 23.7067 366.794 23.56C366.447 23.4 366.041 23.32 365.574 23.32C364.987 23.32 364.467 23.4733 364.014 23.78C363.561 24.0733 363.207 24.4867 362.954 25.02C362.847 25.2467 362.767 25.4867 362.714 25.74Z" fill="white"/>
</svg>
