<svg width="278" height="50" viewBox="0 0 278 50" fill="none" xmlns="http://www.w3.org/2000/svg">
<rect x="0.5" y="0.5" width="277" height="49" rx="24.5" fill="#1F1F1F"/>
<rect x="0.5" y="0.5" width="277" height="49" rx="24.5" stroke="#747775"/>
<path d="M51 22H21V17C21 14.2857 23.2018 12 25.8165 12H46.1835C48.7982 12 51 14.2857 51 17V22Z" fill="#34A853"/>
<path d="M51 26.0537H21V21.0537C21 18.3394 23.2018 16.0537 25.8165 16.0537H46.1835C48.7982 16.0537 51 18.3394 51 21.0537V26.0537Z" fill="#FBBC04"/>
<path d="M51 30.2468H21V25.2468C21 22.5325 23.2018 20.2468 25.8165 20.2468H46.1835C48.7982 20.2468 51 22.5325 51 25.2468V30.2468Z" fill="#EA4335"/>
<path d="M21 23.2752L40.0411 27.6789C42.2329 28.2294 44.6986 27.6789 46.4795 26.3028L51 23V33.3211C51 35.9358 48.8082 38 46.2055 38H25.7945C23.1918 38 21 35.9358 21 33.3211V23.2752Z" fill="#4285F4"/>
<path d="M71.4 32.32C70.3733 32.32 69.4067 32.1333 68.5 31.76C67.5933 31.3867 66.7933 30.8667 66.1 30.2C65.42 29.52 64.88 28.7267 64.48 27.82C64.0933 26.9 63.9 25.9067 63.9 24.84C63.9 23.7733 64.0933 22.7867 64.48 21.88C64.88 20.96 65.42 20.1667 66.1 19.5C66.7933 18.82 67.5933 18.2933 68.5 17.92C69.4067 17.5467 70.3733 17.36 71.4 17.36C72.4933 17.36 73.5 17.5533 74.42 17.94C75.3533 18.3267 76.1333 18.8667 76.76 19.56L75.24 21.06C74.9333 20.7133 74.58 20.42 74.18 20.18C73.7933 19.94 73.3667 19.76 72.9 19.64C72.4333 19.5067 71.9333 19.44 71.4 19.44C70.6933 19.44 70.02 19.5667 69.38 19.82C68.74 20.0733 68.1733 20.44 67.68 20.92C67.2 21.3867 66.82 21.9533 66.54 22.62C66.26 23.2733 66.12 24.0133 66.12 24.84C66.12 25.6667 66.26 26.4133 66.54 27.08C66.8333 27.7333 67.22 28.3 67.7 28.78C68.1933 29.2467 68.76 29.6067 69.4 29.86C70.04 30.1133 70.7133 30.24 71.42 30.24C72.0733 30.24 72.68 30.1467 73.24 29.96C73.8133 29.7733 74.3133 29.5067 74.74 29.16C75.1667 28.8133 75.5133 28.3933 75.78 27.9C76.0467 27.3933 76.2133 26.8267 76.28 26.2H71.38V24.26H78.34C78.3667 24.42 78.3933 24.6067 78.42 24.82C78.4467 25.02 78.46 25.2133 78.46 25.4V25.42C78.46 26.4467 78.28 27.3867 77.92 28.24C77.5733 29.0933 77.0867 29.8267 76.46 30.44C75.8333 31.04 75.0867 31.5067 74.22 31.84C73.3667 32.16 72.4267 32.32 71.4 32.32ZM84.8998 32.32C83.8465 32.32 82.9198 32.08 82.1198 31.6C81.3198 31.12 80.6932 30.4733 80.2398 29.66C79.7865 28.8333 79.5598 27.9133 79.5598 26.9C79.5598 25.8867 79.7865 24.9733 80.2398 24.16C80.6932 23.3333 81.3198 22.68 82.1198 22.2C82.9198 21.72 83.8465 21.48 84.8998 21.48C85.9398 21.48 86.8598 21.7267 87.6598 22.22C88.4598 22.7 89.0865 23.3467 89.5398 24.16C89.9932 24.9733 90.2198 25.8867 90.2198 26.9C90.2198 27.9133 89.9932 28.8333 89.5398 29.66C89.0865 30.4733 88.4598 31.12 87.6598 31.6C86.8598 32.08 85.9398 32.32 84.8998 32.32ZM84.8998 30.34C85.4598 30.34 85.9798 30.2067 86.4598 29.94C86.9398 29.66 87.3265 29.2667 87.6198 28.76C87.9265 28.24 88.0798 27.62 88.0798 26.9C88.0798 26.18 87.9265 25.5667 87.6198 25.06C87.3265 24.54 86.9398 24.1467 86.4598 23.88C85.9798 23.6 85.4598 23.46 84.8998 23.46C84.3398 23.46 83.8132 23.6 83.3198 23.88C82.8398 24.1467 82.4465 24.54 82.1398 25.06C81.8465 25.5667 81.6998 26.18 81.6998 26.9C81.6998 27.62 81.8465 28.24 82.1398 28.76C82.4465 29.2667 82.8465 29.66 83.3398 29.94C83.8332 30.2067 84.3532 30.34 84.8998 30.34ZM97.0092 32.32C95.9559 32.32 95.0292 32.08 94.2292 31.6C93.4292 31.12 92.8026 30.4733 92.3492 29.66C91.8959 28.8333 91.6692 27.9133 91.6692 26.9C91.6692 25.8867 91.8959 24.9733 92.3492 24.16C92.8026 23.3333 93.4292 22.68 94.2292 22.2C95.0292 21.72 95.9559 21.48 97.0092 21.48C98.0492 21.48 98.9692 21.7267 99.7692 22.22C100.569 22.7 101.196 23.3467 101.649 24.16C102.103 24.9733 102.329 25.8867 102.329 26.9C102.329 27.9133 102.103 28.8333 101.649 29.66C101.196 30.4733 100.569 31.12 99.7692 31.6C98.9692 32.08 98.0492 32.32 97.0092 32.32ZM97.0092 30.34C97.5692 30.34 98.0892 30.2067 98.5692 29.94C99.0492 29.66 99.4359 29.2667 99.7292 28.76C100.036 28.24 100.189 27.62 100.189 26.9C100.189 26.18 100.036 25.5667 99.7292 25.06C99.4359 24.54 99.0492 24.1467 98.5692 23.88C98.0892 23.6 97.5692 23.46 97.0092 23.46C96.4492 23.46 95.9226 23.6 95.4292 23.88C94.9492 24.1467 94.5559 24.54 94.2492 25.06C93.9559 25.5667 93.8092 26.18 93.8092 26.9C93.8092 27.62 93.9559 28.24 94.2492 28.76C94.5559 29.2667 94.9559 29.66 95.4492 29.94C95.9426 30.2067 96.4626 30.34 97.0092 30.34ZM108.919 36.64C108.025 36.64 107.252 36.4933 106.599 36.2C105.959 35.92 105.439 35.5533 105.039 35.1C104.639 34.66 104.352 34.2067 104.179 33.74L106.179 32.9C106.392 33.4333 106.732 33.8667 107.199 34.2C107.679 34.5467 108.252 34.72 108.919 34.72C109.865 34.72 110.605 34.44 111.139 33.88C111.672 33.32 111.939 32.5267 111.939 31.5V30.52H111.819C111.499 30.9867 111.059 31.3667 110.499 31.66C109.939 31.9533 109.292 32.1 108.559 32.1C107.692 32.1 106.892 31.88 106.159 31.44C105.439 31 104.859 30.3867 104.419 29.6C103.992 28.8 103.779 27.8667 103.779 26.8C103.779 25.72 103.992 24.7867 104.419 24C104.859 23.2 105.439 22.58 106.159 22.14C106.892 21.7 107.692 21.48 108.559 21.48C109.292 21.48 109.939 21.6267 110.499 21.92C111.059 22.2 111.499 22.5867 111.819 23.08H111.939V21.8H113.999V31.46C113.999 32.5667 113.779 33.5067 113.339 34.28C112.912 35.0533 112.319 35.64 111.559 36.04C110.799 36.44 109.919 36.64 108.919 36.64ZM108.939 30.14C109.472 30.14 109.965 30.0133 110.419 29.76C110.885 29.4933 111.252 29.1133 111.519 28.62C111.799 28.1133 111.939 27.5067 111.939 26.8C111.939 26.0533 111.799 25.4333 111.519 24.94C111.252 24.4467 110.885 24.0733 110.419 23.82C109.965 23.5667 109.472 23.44 108.939 23.44C108.405 23.44 107.905 23.5667 107.439 23.82C106.985 24.0733 106.619 24.4533 106.339 24.96C106.059 25.4533 105.919 26.0667 105.919 26.8C105.919 27.52 106.059 28.1333 106.339 28.64C106.619 29.1333 106.985 29.5067 107.439 29.76C107.905 30.0133 108.405 30.14 108.939 30.14ZM116.546 32V17.68H118.706V32H116.546ZM125.815 32.32C124.815 32.32 123.921 32.0867 123.135 31.62C122.348 31.1533 121.728 30.5133 121.275 29.7C120.835 28.8867 120.615 27.96 120.615 26.92C120.615 25.9467 120.828 25.0467 121.255 24.22C121.681 23.3933 122.275 22.7333 123.035 22.24C123.808 21.7333 124.695 21.48 125.695 21.48C126.748 21.48 127.641 21.7067 128.375 22.16C129.121 22.6133 129.688 23.2333 130.075 24.02C130.461 24.8067 130.655 25.6933 130.655 26.68C130.655 26.8267 130.648 26.96 130.635 27.08C130.635 27.2 130.628 27.2933 130.615 27.36H122.735C122.788 27.92 122.928 28.4067 123.155 28.82C123.448 29.34 123.835 29.7333 124.315 30C124.795 30.2667 125.315 30.4 125.875 30.4C126.555 30.4 127.121 30.2467 127.575 29.94C128.041 29.62 128.408 29.2267 128.675 28.76L130.455 29.62C130.015 30.42 129.415 31.0733 128.655 31.58C127.895 32.0733 126.948 32.32 125.815 32.32ZM122.855 25.74H128.515C128.501 25.4867 128.435 25.22 128.315 24.94C128.195 24.6467 128.021 24.38 127.795 24.14C127.568 23.9 127.281 23.7067 126.935 23.56C126.588 23.4 126.181 23.32 125.715 23.32C125.128 23.32 124.608 23.4733 124.155 23.78C123.701 24.0733 123.348 24.4867 123.095 25.02C122.988 25.2467 122.908 25.4867 122.855 25.74ZM139.446 32L135.606 17.68H138.046L140.326 26.98L140.566 28.22H140.686L140.986 26.98L143.866 17.68H146.066L148.826 26.98L149.126 28.2H149.246L149.486 26.98L151.766 17.68H154.186L150.406 32H148.086L145.346 22.5L145.026 21.16H144.906L144.566 22.5L141.706 32H139.446ZM158.202 32.32C157.469 32.32 156.816 32.1733 156.242 31.88C155.682 31.5867 155.236 31.1867 154.902 30.68C154.582 30.16 154.422 29.5667 154.422 28.9C154.422 28.1667 154.609 27.5467 154.982 27.04C155.369 26.5333 155.882 26.1467 156.522 25.88C157.162 25.6133 157.869 25.48 158.642 25.48C159.069 25.48 159.462 25.5133 159.822 25.58C160.196 25.6333 160.516 25.7 160.782 25.78C161.062 25.86 161.282 25.9467 161.442 26.04V25.5C161.442 24.8333 161.202 24.3 160.722 23.9C160.242 23.5 159.622 23.3 158.862 23.3C158.342 23.3 157.849 23.42 157.382 23.66C156.916 23.8867 156.542 24.2 156.262 24.6L154.782 23.46C155.076 23.0467 155.429 22.6933 155.842 22.4C156.269 22.1067 156.742 21.88 157.262 21.72C157.796 21.56 158.349 21.48 158.922 21.48C160.402 21.48 161.542 21.8467 162.342 22.58C163.142 23.3 163.542 24.3133 163.542 25.62V32H161.442V30.74H161.322C161.149 31.0067 160.909 31.26 160.602 31.5C160.309 31.74 159.956 31.9333 159.542 32.08C159.142 32.24 158.696 32.32 158.202 32.32ZM158.582 30.56C159.142 30.56 159.636 30.4267 160.062 30.16C160.502 29.8933 160.842 29.5467 161.082 29.12C161.322 28.68 161.442 28.2067 161.442 27.7C161.149 27.5267 160.789 27.3867 160.362 27.28C159.949 27.16 159.509 27.1 159.042 27.1C158.162 27.1 157.536 27.2733 157.162 27.62C156.789 27.9667 156.602 28.4 156.602 28.92C156.602 29.4 156.782 29.7933 157.142 30.1C157.502 30.4067 157.982 30.56 158.582 30.56ZM165.94 32V17.68H168.1V32H165.94ZM170.667 32V17.68H172.827V32H170.667ZM179.936 32.32C178.936 32.32 178.042 32.0867 177.256 31.62C176.469 31.1533 175.849 30.5133 175.396 29.7C174.956 28.8867 174.736 27.96 174.736 26.92C174.736 25.9467 174.949 25.0467 175.376 24.22C175.802 23.3933 176.396 22.7333 177.156 22.24C177.929 21.7333 178.816 21.48 179.816 21.48C180.869 21.48 181.762 21.7067 182.496 22.16C183.242 22.6133 183.809 23.2333 184.196 24.02C184.582 24.8067 184.776 25.6933 184.776 26.68C184.776 26.8267 184.769 26.96 184.756 27.08C184.756 27.2 184.749 27.2933 184.736 27.36H176.856C176.909 27.92 177.049 28.4067 177.276 28.82C177.569 29.34 177.956 29.7333 178.436 30C178.916 30.2667 179.436 30.4 179.996 30.4C180.676 30.4 181.242 30.2467 181.696 29.94C182.162 29.62 182.529 29.2267 182.796 28.76L184.576 29.62C184.136 30.42 183.536 31.0733 182.776 31.58C182.016 32.0733 181.069 32.32 179.936 32.32ZM176.976 25.74H182.636C182.622 25.4867 182.556 25.22 182.436 24.94C182.316 24.6467 182.142 24.38 181.916 24.14C181.689 23.9 181.402 23.7067 181.056 23.56C180.709 23.4 180.302 23.32 179.836 23.32C179.249 23.32 178.729 23.4733 178.276 23.78C177.822 24.0733 177.469 24.4867 177.216 25.02C177.109 25.2467 177.029 25.4867 176.976 25.74ZM185.787 21.8H187.567V18.92H189.727V21.8H192.227V23.68H189.727V28.58C189.727 29.0867 189.827 29.4733 190.027 29.74C190.24 30.0067 190.593 30.14 191.087 30.14C191.327 30.14 191.54 30.1067 191.727 30.04C191.913 29.96 192.1 29.8667 192.287 29.76V31.86C192.06 31.9533 191.82 32.0267 191.567 32.08C191.313 32.1333 191.013 32.16 190.667 32.16C189.72 32.16 188.967 31.8867 188.407 31.34C187.847 30.78 187.567 30.0133 187.567 29.04V23.68H185.787V21.8ZM201.438 27.1172H197.258V27.8789C197.258 28.2695 197.17 28.5755 196.994 28.7969C196.818 29.0182 196.584 29.1289 196.291 29.1289C195.979 29.1289 195.63 28.9889 195.246 28.709C194.862 28.4225 194.54 28.0742 194.279 27.6641C194.025 27.2474 193.898 26.8763 193.898 26.5508C193.898 26.2708 194.003 26.056 194.211 25.9062C194.419 25.75 194.722 25.6719 195.119 25.6719H195.656V23.1914C195.656 22.6771 195.604 22.3223 195.5 22.127C195.396 21.9316 195.233 21.7982 195.012 21.7266C194.797 21.6484 194.436 21.6094 193.928 21.6094L194.084 20.1543H194.289C194.868 20.1543 195.344 20.2194 195.715 20.3496C196.086 20.4733 196.382 20.6426 196.604 20.8574C196.825 21.0723 196.988 21.3457 197.092 21.6777C197.202 22.0033 197.258 22.485 197.258 23.123V25.6719H201.438V19.9492L203.039 20.1641V28.9629C203.039 29.3796 203.065 29.679 203.117 29.8613C203.176 30.0371 203.264 30.1771 203.381 30.2812C203.498 30.3789 203.664 30.4473 203.879 30.4863C204.094 30.5254 204.39 30.5449 204.768 30.5449L204.611 32H204.406C203.664 32 203.068 31.8893 202.619 31.668C202.17 31.4401 201.861 31.1276 201.691 30.7305C201.522 30.3268 201.438 29.7604 201.438 29.0312V27.1172ZM206.74 19.9492L208.342 20.1641V28.9629C208.342 29.3796 208.368 29.679 208.42 29.8613C208.479 30.0371 208.566 30.1771 208.684 30.2812C208.801 30.3789 208.967 30.4473 209.182 30.4863C209.396 30.5254 209.693 30.5449 210.07 30.5449L209.914 32H209.709C208.967 32 208.371 31.8893 207.922 31.668C207.473 31.4401 207.163 31.1276 206.994 30.7305C206.825 30.3268 206.74 29.7604 206.74 29.0312V19.9492ZM207.58 15.5938C207.886 15.5938 208.146 15.7109 208.361 15.9453C208.576 16.1732 208.684 16.4434 208.684 16.7559C208.684 17.0749 208.576 17.3483 208.361 17.5762C208.146 17.804 207.886 17.918 207.58 17.918C207.274 17.918 207.014 17.804 206.799 17.5762C206.584 17.3418 206.477 17.0684 206.477 16.7559C206.477 16.4434 206.584 16.1732 206.799 15.9453C207.014 15.7109 207.274 15.5938 207.58 15.5938Z" fill="white"/>
<path d="M228.109 22.8984C229.333 22.0195 230.889 21.0299 232.777 19.9297L233.588 21.2578C231.765 22.2995 230.271 23.224 229.105 24.0312C229.691 24.7865 230.131 25.5449 230.424 26.3066C230.717 27.0684 230.863 27.8366 230.863 28.6113C230.863 29.7376 230.554 30.6165 229.936 31.248C229.317 31.8796 228.471 32.1953 227.396 32.1953C226.27 32.1953 225.401 31.8796 224.789 31.248C224.177 30.6165 223.871 29.7995 223.871 28.7969C223.871 27.8724 224.112 27.0163 224.594 26.2285C225.076 25.4408 225.85 24.627 226.918 23.7871C226.358 23.2207 225.756 22.7552 225.111 22.3906C224.467 22.0195 223.783 21.7493 223.061 21.5801C223.393 22.1855 223.559 22.8659 223.559 23.6211C223.559 24.194 223.415 24.7311 223.129 25.2324C222.849 25.7272 222.442 26.1113 221.908 26.3848C221.381 26.6582 220.759 26.7949 220.043 26.7949C219.008 26.7949 218.184 26.4922 217.572 25.8867C216.96 25.2812 216.654 24.4837 216.654 23.4941C216.654 22.4655 217.055 21.6191 217.855 20.9551C218.656 20.2845 219.747 19.9492 221.127 19.9492C222.481 19.9492 223.731 20.1901 224.877 20.6719C226.029 21.1471 227.107 21.8893 228.109 22.8984ZM221.342 21.3555C221.277 21.3555 221.212 21.3522 221.146 21.3457H220.951C220.092 21.3457 219.428 21.5443 218.959 21.9414C218.497 22.332 218.266 22.8626 218.266 23.5332C218.266 24.0931 218.425 24.5326 218.744 24.8516C219.063 25.1706 219.496 25.3301 220.043 25.3301C220.648 25.3301 221.12 25.1673 221.459 24.8418C221.798 24.5098 221.967 24.0801 221.967 23.5527C221.967 22.7064 221.758 21.974 221.342 21.3555ZM227.895 24.9102C227.146 25.4766 226.56 26.069 226.137 26.6875C225.72 27.306 225.512 28.0059 225.512 28.7871C225.512 29.4382 225.668 29.9297 225.98 30.2617C226.299 30.5872 226.762 30.75 227.367 30.75C227.979 30.75 228.441 30.5677 228.754 30.2031C229.066 29.8385 229.223 29.3047 229.223 28.6016C229.223 27.9375 229.112 27.2995 228.891 26.6875C228.669 26.069 228.337 25.4766 227.895 24.9102ZM225.98 32.4688C226.677 32.1562 227.419 32 228.207 32C229.197 32 229.975 32.2376 230.541 32.7129C231.101 33.1947 231.381 33.8555 231.381 34.6953C231.381 35.5091 231.065 36.1536 230.434 36.6289C229.802 37.1107 228.923 37.3516 227.797 37.3516C226.625 37.3516 225.557 37.0781 224.594 36.5312C223.624 35.9909 222.696 35.1478 221.811 34.002L223.061 33.1426C223.861 34.1647 224.617 34.8841 225.326 35.3008C226.029 35.7174 226.853 35.9258 227.797 35.9258C229.203 35.9258 229.906 35.4668 229.906 34.5488C229.906 34.1777 229.763 33.888 229.477 33.6797C229.19 33.4714 228.799 33.3672 228.305 33.3672C227.667 33.3672 227.064 33.5104 226.498 33.7969L225.98 32.4688ZM234.604 21.834L234.066 20.4766C234.418 20.3203 234.825 20.1934 235.287 20.0957C235.749 19.998 236.205 19.9492 236.654 19.9492C237.872 19.9492 238.812 20.2552 239.477 20.8672C240.147 21.4792 240.482 22.3353 240.482 23.4355C240.482 24.2103 240.232 24.9134 239.73 25.5449C239.229 26.1764 238.542 26.6452 237.67 26.9512C237.904 27.4395 238.24 27.8203 238.676 28.0938C239.118 28.3607 239.62 28.4941 240.18 28.4941C240.902 28.4941 241.485 28.3444 241.928 28.0449C242.377 27.7454 242.693 27.3353 242.875 26.8145C243.064 26.2871 243.158 25.5449 243.158 24.5879V23.0547L244.76 23.2695V25.3887C245.014 25.7988 245.395 26.0039 245.902 26.0039C246.54 26.0039 247.107 25.737 247.602 25.2031V19.9492L249.203 20.1641V28.9629C249.203 29.3796 249.229 29.679 249.281 29.8613C249.34 30.0371 249.428 30.1771 249.545 30.2812C249.662 30.3789 249.828 30.4473 250.043 30.4863C250.258 30.5254 250.554 30.5449 250.932 30.5449L250.775 32H250.57C249.828 32 249.232 31.8893 248.783 31.668C248.334 31.4401 248.025 31.1276 247.855 30.7305C247.686 30.3268 247.602 29.7604 247.602 29.0312V26.9707C247.133 27.2897 246.566 27.4492 245.902 27.4492C245.316 27.4492 244.835 27.3027 244.457 27.0098C244.177 27.9538 243.679 28.6797 242.963 29.1875C242.247 29.6888 241.361 29.9395 240.307 29.9395C239.363 29.9395 238.536 29.7181 237.826 29.2754C237.117 28.8262 236.524 28.1556 236.049 27.2637H235.785C235.238 27.2637 234.825 27.166 234.545 26.9707C234.271 26.7689 234.135 26.4889 234.135 26.1309C234.135 25.4408 234.503 25.0957 235.238 25.0957C235.844 25.0957 236.378 25.3268 236.84 25.7891C237.465 25.5938 237.96 25.2812 238.324 24.8516C238.695 24.4219 238.881 23.9401 238.881 23.4062C238.881 22.7617 238.695 22.2669 238.324 21.9219C237.953 21.5703 237.377 21.3945 236.596 21.3945C236.29 21.3945 235.951 21.4368 235.58 21.5215C235.209 21.6061 234.883 21.7103 234.604 21.834ZM252.904 19.9492L254.506 20.1641V28.9629C254.506 29.3796 254.532 29.679 254.584 29.8613C254.643 30.0371 254.73 30.1771 254.848 30.2812C254.965 30.3789 255.131 30.4473 255.346 30.4863C255.561 30.5254 255.857 30.5449 256.234 30.5449L256.078 32H255.873C255.131 32 254.535 31.8893 254.086 31.668C253.637 31.4401 253.327 31.1276 253.158 30.7305C252.989 30.3268 252.904 29.7604 252.904 29.0312V19.9492ZM252.914 19.1777C252.576 17.9342 252.195 17.0195 251.771 16.4336C251.355 15.8477 250.801 15.5547 250.111 15.5547C249.747 15.5547 249.402 15.6165 249.076 15.7402L248.607 14.3145C249.141 14.1517 249.678 14.0703 250.219 14.0703C251.046 14.0703 251.706 14.2689 252.201 14.666C252.702 15.0566 253.119 15.6361 253.451 16.4043C253.79 17.1725 254.086 18.097 254.34 19.1777H252.914Z" fill="white"/>
</svg>
