<svg width="319" height="50" viewBox="0 0 319 50" fill="none" xmlns="http://www.w3.org/2000/svg">
<rect x="0.5" y="0.5" width="318" height="49" rx="24.5" fill="#1F1F1F"/>
<rect x="0.5" y="0.5" width="318" height="49" rx="24.5" stroke="#747775"/>
<path d="M51 22H21V17C21 14.2857 23.2018 12 25.8165 12H46.1835C48.7982 12 51 14.2857 51 17V22Z" fill="#34A853"/>
<path d="M51 26.0537H21V21.0537C21 18.3394 23.2018 16.0537 25.8165 16.0537H46.1835C48.7982 16.0537 51 18.3394 51 21.0537V26.0537Z" fill="#FBBC04"/>
<path d="M51 30.2468H21V25.2468C21 22.5325 23.2018 20.2468 25.8165 20.2468H46.1835C48.7982 20.2468 51 22.5325 51 25.2468V30.2468Z" fill="#EA4335"/>
<path d="M21 23.2752L40.0411 27.6789C42.2329 28.2294 44.6986 27.6789 46.4795 26.3028L51 23V33.3211C51 35.9358 48.8082 38 46.2055 38H25.7945C23.1918 38 21 35.9358 21 33.3211V23.2752Z" fill="#4285F4"/>
<path d="M64.62 32V17.68H69.54C70.4067 17.68 71.1933 17.8667 71.9 18.24C72.6067 18.6 73.1667 19.1133 73.58 19.78C74.0067 20.4333 74.22 21.1933 74.22 22.06C74.22 22.9133 74.0067 23.6733 73.58 24.34C73.1667 25.0067 72.6067 25.5267 71.9 25.9C71.1933 26.26 70.4067 26.44 69.54 26.44H66.82V32H64.62ZM66.82 24.36H69.6C70.12 24.36 70.56 24.2533 70.92 24.04C71.28 23.8133 71.5533 23.5267 71.74 23.18C71.94 22.82 72.04 22.4467 72.04 22.06C72.04 21.6733 71.94 21.3067 71.74 20.96C71.5533 20.6133 71.28 20.3267 70.92 20.1C70.56 19.8733 70.12 19.76 69.6 19.76H66.82V24.36ZM76.1155 32V21.8H78.1555V23.3H78.2755C78.4355 22.9533 78.6621 22.6467 78.9555 22.38C79.2621 22.1133 79.6088 21.9 79.9955 21.74C80.3955 21.58 80.8088 21.5 81.2355 21.5C81.5155 21.5 81.7488 21.52 81.9355 21.56C82.1355 21.5867 82.3155 21.6333 82.4755 21.7V23.94C82.2221 23.8333 81.9621 23.7467 81.6955 23.68C81.4421 23.6133 81.1755 23.58 80.8955 23.58C80.3888 23.58 79.9355 23.72 79.5355 24C79.1488 24.2667 78.8421 24.6267 78.6155 25.08C78.3888 25.5333 78.2755 26.04 78.2755 26.6V32H76.1155ZM88.1973 32.32C87.1973 32.32 86.304 32.0867 85.5173 31.62C84.7307 31.1533 84.1107 30.5133 83.6573 29.7C83.2173 28.8867 82.9973 27.96 82.9973 26.92C82.9973 25.9467 83.2107 25.0467 83.6373 24.22C84.064 23.3933 84.6573 22.7333 85.4173 22.24C86.1907 21.7333 87.0773 21.48 88.0773 21.48C89.1307 21.48 90.024 21.7067 90.7573 22.16C91.504 22.6133 92.0707 23.2333 92.4573 24.02C92.844 24.8067 93.0373 25.6933 93.0373 26.68C93.0373 26.8267 93.0307 26.96 93.0173 27.08C93.0173 27.2 93.0107 27.2933 92.9973 27.36H85.1173C85.1707 27.92 85.3107 28.4067 85.5373 28.82C85.8307 29.34 86.2173 29.7333 86.6973 30C87.1773 30.2667 87.6973 30.4 88.2573 30.4C88.9373 30.4 89.504 30.2467 89.9573 29.94C90.424 29.62 90.7907 29.2267 91.0573 28.76L92.8373 29.62C92.3973 30.42 91.7973 31.0733 91.0373 31.58C90.2773 32.0733 89.3307 32.32 88.1973 32.32ZM85.2373 25.74H90.8973C90.884 25.4867 90.8173 25.22 90.6973 24.94C90.5773 24.6467 90.404 24.38 90.1773 24.14C89.9507 23.9 89.664 23.7067 89.3173 23.56C88.9707 23.4 88.564 23.32 88.0973 23.32C87.5107 23.32 86.9907 23.4733 86.5373 23.78C86.084 24.0733 85.7307 24.4867 85.4773 25.02C85.3707 25.2467 85.2907 25.4867 85.2373 25.74ZM99.7389 36.64C98.8456 36.64 98.0722 36.4933 97.4189 36.2C96.7789 35.92 96.2589 35.5533 95.8589 35.1C95.4589 34.66 95.1722 34.2067 94.9989 33.74L96.9989 32.9C97.2122 33.4333 97.5522 33.8667 98.0189 34.2C98.4989 34.5467 99.0722 34.72 99.7389 34.72C100.686 34.72 101.426 34.44 101.959 33.88C102.492 33.32 102.759 32.5267 102.759 31.5V30.52H102.639C102.319 30.9867 101.879 31.3667 101.319 31.66C100.759 31.9533 100.112 32.1 99.3789 32.1C98.5122 32.1 97.7122 31.88 96.9789 31.44C96.2589 31 95.6789 30.3867 95.2389 29.6C94.8122 28.8 94.5989 27.8667 94.5989 26.8C94.5989 25.72 94.8122 24.7867 95.2389 24C95.6789 23.2 96.2589 22.58 96.9789 22.14C97.7122 21.7 98.5122 21.48 99.3789 21.48C100.112 21.48 100.759 21.6267 101.319 21.92C101.879 22.2 102.319 22.5867 102.639 23.08H102.759V21.8H104.819V31.46C104.819 32.5667 104.599 33.5067 104.159 34.28C103.732 35.0533 103.139 35.64 102.379 36.04C101.619 36.44 100.739 36.64 99.7389 36.64ZM99.7589 30.14C100.292 30.14 100.786 30.0133 101.239 29.76C101.706 29.4933 102.072 29.1133 102.339 28.62C102.619 28.1133 102.759 27.5067 102.759 26.8C102.759 26.0533 102.619 25.4333 102.339 24.94C102.072 24.4467 101.706 24.0733 101.239 23.82C100.786 23.5667 100.292 23.44 99.7589 23.44C99.2256 23.44 98.7256 23.5667 98.2589 23.82C97.8056 24.0733 97.4389 24.4533 97.1589 24.96C96.8789 25.4533 96.7389 26.0667 96.7389 26.8C96.7389 27.52 96.8789 28.1333 97.1589 28.64C97.4389 29.1333 97.8056 29.5067 98.2589 29.76C98.7256 30.0133 99.2256 30.14 99.7589 30.14ZM107.366 32V17.68H109.526V32H107.366ZM116.635 32.32C115.635 32.32 114.742 32.0867 113.955 31.62C113.168 31.1533 112.548 30.5133 112.095 29.7C111.655 28.8867 111.435 27.96 111.435 26.92C111.435 25.9467 111.648 25.0467 112.075 24.22C112.502 23.3933 113.095 22.7333 113.855 22.24C114.628 21.7333 115.515 21.48 116.515 21.48C117.568 21.48 118.462 21.7067 119.195 22.16C119.942 22.6133 120.508 23.2333 120.895 24.02C121.282 24.8067 121.475 25.6933 121.475 26.68C121.475 26.8267 121.468 26.96 121.455 27.08C121.455 27.2 121.448 27.2933 121.435 27.36H113.555C113.608 27.92 113.748 28.4067 113.975 28.82C114.268 29.34 114.655 29.7333 115.135 30C115.615 30.2667 116.135 30.4 116.695 30.4C117.375 30.4 117.942 30.2467 118.395 29.94C118.862 29.62 119.228 29.2267 119.495 28.76L121.275 29.62C120.835 30.42 120.235 31.0733 119.475 31.58C118.715 32.0733 117.768 32.32 116.635 32.32ZM113.675 25.74H119.335C119.322 25.4867 119.255 25.22 119.135 24.94C119.015 24.6467 118.842 24.38 118.615 24.14C118.388 23.9 118.102 23.7067 117.755 23.56C117.408 23.4 117.002 23.32 116.535 23.32C115.948 23.32 115.428 23.4733 114.975 23.78C114.522 24.0733 114.168 24.4867 113.915 25.02C113.808 25.2467 113.728 25.4867 113.675 25.74ZM127.936 32.32C127.016 32.32 126.183 32.0867 125.436 31.62C124.69 31.1533 124.103 30.5133 123.676 29.7C123.25 28.8867 123.036 27.9533 123.036 26.9C123.036 25.8467 123.25 24.9133 123.676 24.1C124.103 23.2867 124.69 22.6467 125.436 22.18C126.183 21.7133 127.016 21.48 127.936 21.48C128.47 21.48 128.95 21.56 129.376 21.72C129.803 21.88 130.17 22.0933 130.476 22.36C130.796 22.6133 131.043 22.8867 131.216 23.18H131.336L131.216 21.76V17.68H133.356V32H131.336V30.64H131.216C131.043 30.92 130.796 31.1933 130.476 31.46C130.17 31.7133 129.803 31.92 129.376 32.08C128.95 32.24 128.47 32.32 127.936 32.32ZM128.256 30.34C128.79 30.34 129.29 30.2 129.756 29.92C130.236 29.64 130.616 29.2467 130.896 28.74C131.19 28.22 131.336 27.6067 131.336 26.9C131.336 26.1933 131.19 25.5867 130.896 25.08C130.616 24.56 130.236 24.16 129.756 23.88C129.29 23.6 128.79 23.46 128.256 23.46C127.723 23.46 127.223 23.6 126.756 23.88C126.29 24.16 125.91 24.56 125.616 25.08C125.323 25.5867 125.176 26.1933 125.176 26.9C125.176 27.5933 125.323 28.2 125.616 28.72C125.91 29.24 126.29 29.64 126.756 29.92C127.223 30.2 127.723 30.34 128.256 30.34ZM144.269 32.32C143.015 32.32 142.069 31.9467 141.429 31.2C140.802 30.44 140.489 29.4133 140.489 28.12V21.8H142.649V27.82C142.649 28.6733 142.849 29.3067 143.249 29.72C143.662 30.1333 144.175 30.34 144.789 30.34C145.349 30.34 145.829 30.2 146.229 29.92C146.629 29.6267 146.935 29.2467 147.149 28.78C147.375 28.3133 147.489 27.8133 147.489 27.28V21.8H149.629V32H147.609V30.62H147.489C147.302 30.94 147.042 31.2267 146.709 31.48C146.375 31.7333 146.002 31.9333 145.589 32.08C145.175 32.24 144.735 32.32 144.269 32.32ZM151.943 32V30.2L157.623 23.68H152.123V21.8H160.263V23.6L154.603 30.12H160.423V32H151.943Z" fill="white"/>
<path d="M175.4 32.32C174.373 32.32 173.407 32.1333 172.5 31.76C171.593 31.3867 170.793 30.8667 170.1 30.2C169.42 29.52 168.88 28.7267 168.48 27.82C168.093 26.9 167.9 25.9067 167.9 24.84C167.9 23.7733 168.093 22.7867 168.48 21.88C168.88 20.96 169.42 20.1667 170.1 19.5C170.793 18.82 171.593 18.2933 172.5 17.92C173.407 17.5467 174.373 17.36 175.4 17.36C176.493 17.36 177.5 17.5533 178.42 17.94C179.353 18.3267 180.133 18.8667 180.76 19.56L179.24 21.06C178.933 20.7133 178.58 20.42 178.18 20.18C177.793 19.94 177.367 19.76 176.9 19.64C176.433 19.5067 175.933 19.44 175.4 19.44C174.693 19.44 174.02 19.5667 173.38 19.82C172.74 20.0733 172.173 20.44 171.68 20.92C171.2 21.3867 170.82 21.9533 170.54 22.62C170.26 23.2733 170.12 24.0133 170.12 24.84C170.12 25.6667 170.26 26.4133 170.54 27.08C170.833 27.7333 171.22 28.3 171.7 28.78C172.193 29.2467 172.76 29.6067 173.4 29.86C174.04 30.1133 174.713 30.24 175.42 30.24C176.073 30.24 176.68 30.1467 177.24 29.96C177.813 29.7733 178.313 29.5067 178.74 29.16C179.167 28.8133 179.513 28.3933 179.78 27.9C180.047 27.3933 180.213 26.8267 180.28 26.2H175.38V24.26H182.34C182.367 24.42 182.393 24.6067 182.42 24.82C182.447 25.02 182.46 25.2133 182.46 25.4V25.42C182.46 26.4467 182.28 27.3867 181.92 28.24C181.573 29.0933 181.087 29.8267 180.46 30.44C179.833 31.04 179.087 31.5067 178.22 31.84C177.367 32.16 176.427 32.32 175.4 32.32ZM188.9 32.32C187.847 32.32 186.92 32.08 186.12 31.6C185.32 31.12 184.693 30.4733 184.24 29.66C183.787 28.8333 183.56 27.9133 183.56 26.9C183.56 25.8867 183.787 24.9733 184.24 24.16C184.693 23.3333 185.32 22.68 186.12 22.2C186.92 21.72 187.847 21.48 188.9 21.48C189.94 21.48 190.86 21.7267 191.66 22.22C192.46 22.7 193.087 23.3467 193.54 24.16C193.993 24.9733 194.22 25.8867 194.22 26.9C194.22 27.9133 193.993 28.8333 193.54 29.66C193.087 30.4733 192.46 31.12 191.66 31.6C190.86 32.08 189.94 32.32 188.9 32.32ZM188.9 30.34C189.46 30.34 189.98 30.2067 190.46 29.94C190.94 29.66 191.327 29.2667 191.62 28.76C191.927 28.24 192.08 27.62 192.08 26.9C192.08 26.18 191.927 25.5667 191.62 25.06C191.327 24.54 190.94 24.1467 190.46 23.88C189.98 23.6 189.46 23.46 188.9 23.46C188.34 23.46 187.813 23.6 187.32 23.88C186.84 24.1467 186.447 24.54 186.14 25.06C185.847 25.5667 185.7 26.18 185.7 26.9C185.7 27.62 185.847 28.24 186.14 28.76C186.447 29.2667 186.847 29.66 187.34 29.94C187.833 30.2067 188.353 30.34 188.9 30.34ZM201.009 32.32C199.956 32.32 199.029 32.08 198.229 31.6C197.429 31.12 196.803 30.4733 196.349 29.66C195.896 28.8333 195.669 27.9133 195.669 26.9C195.669 25.8867 195.896 24.9733 196.349 24.16C196.803 23.3333 197.429 22.68 198.229 22.2C199.029 21.72 199.956 21.48 201.009 21.48C202.049 21.48 202.969 21.7267 203.769 22.22C204.569 22.7 205.196 23.3467 205.649 24.16C206.103 24.9733 206.329 25.8867 206.329 26.9C206.329 27.9133 206.103 28.8333 205.649 29.66C205.196 30.4733 204.569 31.12 203.769 31.6C202.969 32.08 202.049 32.32 201.009 32.32ZM201.009 30.34C201.569 30.34 202.089 30.2067 202.569 29.94C203.049 29.66 203.436 29.2667 203.729 28.76C204.036 28.24 204.189 27.62 204.189 26.9C204.189 26.18 204.036 25.5667 203.729 25.06C203.436 24.54 203.049 24.1467 202.569 23.88C202.089 23.6 201.569 23.46 201.009 23.46C200.449 23.46 199.923 23.6 199.429 23.88C198.949 24.1467 198.556 24.54 198.249 25.06C197.956 25.5667 197.809 26.18 197.809 26.9C197.809 27.62 197.956 28.24 198.249 28.76C198.556 29.2667 198.956 29.66 199.449 29.94C199.943 30.2067 200.463 30.34 201.009 30.34ZM212.919 36.64C212.025 36.64 211.252 36.4933 210.599 36.2C209.959 35.92 209.439 35.5533 209.039 35.1C208.639 34.66 208.352 34.2067 208.179 33.74L210.179 32.9C210.392 33.4333 210.732 33.8667 211.199 34.2C211.679 34.5467 212.252 34.72 212.919 34.72C213.865 34.72 214.605 34.44 215.139 33.88C215.672 33.32 215.939 32.5267 215.939 31.5V30.52H215.819C215.499 30.9867 215.059 31.3667 214.499 31.66C213.939 31.9533 213.292 32.1 212.559 32.1C211.692 32.1 210.892 31.88 210.159 31.44C209.439 31 208.859 30.3867 208.419 29.6C207.992 28.8 207.779 27.8667 207.779 26.8C207.779 25.72 207.992 24.7867 208.419 24C208.859 23.2 209.439 22.58 210.159 22.14C210.892 21.7 211.692 21.48 212.559 21.48C213.292 21.48 213.939 21.6267 214.499 21.92C215.059 22.2 215.499 22.5867 215.819 23.08H215.939V21.8H217.999V31.46C217.999 32.5667 217.779 33.5067 217.339 34.28C216.912 35.0533 216.319 35.64 215.559 36.04C214.799 36.44 213.919 36.64 212.919 36.64ZM212.939 30.14C213.472 30.14 213.965 30.0133 214.419 29.76C214.885 29.4933 215.252 29.1133 215.519 28.62C215.799 28.1133 215.939 27.5067 215.939 26.8C215.939 26.0533 215.799 25.4333 215.519 24.94C215.252 24.4467 214.885 24.0733 214.419 23.82C213.965 23.5667 213.472 23.44 212.939 23.44C212.405 23.44 211.905 23.5667 211.439 23.82C210.985 24.0733 210.619 24.4533 210.339 24.96C210.059 25.4533 209.919 26.0667 209.919 26.8C209.919 27.52 210.059 28.1333 210.339 28.64C210.619 29.1333 210.985 29.5067 211.439 29.76C211.905 30.0133 212.405 30.14 212.939 30.14ZM220.546 32V17.68H222.706V32H220.546ZM229.815 32.32C228.815 32.32 227.921 32.0867 227.135 31.62C226.348 31.1533 225.728 30.5133 225.275 29.7C224.835 28.8867 224.615 27.96 224.615 26.92C224.615 25.9467 224.828 25.0467 225.255 24.22C225.681 23.3933 226.275 22.7333 227.035 22.24C227.808 21.7333 228.695 21.48 229.695 21.48C230.748 21.48 231.641 21.7067 232.375 22.16C233.121 22.6133 233.688 23.2333 234.075 24.02C234.461 24.8067 234.655 25.6933 234.655 26.68C234.655 26.8267 234.648 26.96 234.635 27.08C234.635 27.2 234.628 27.2933 234.615 27.36H226.735C226.788 27.92 226.928 28.4067 227.155 28.82C227.448 29.34 227.835 29.7333 228.315 30C228.795 30.2667 229.315 30.4 229.875 30.4C230.555 30.4 231.121 30.2467 231.575 29.94C232.041 29.62 232.408 29.2267 232.675 28.76L234.455 29.62C234.015 30.42 233.415 31.0733 232.655 31.58C231.895 32.0733 230.948 32.32 229.815 32.32ZM226.855 25.74H232.515C232.501 25.4867 232.435 25.22 232.315 24.94C232.195 24.6467 232.021 24.38 231.795 24.14C231.568 23.9 231.281 23.7067 230.935 23.56C230.588 23.4 230.181 23.32 229.715 23.32C229.128 23.32 228.608 23.4733 228.155 23.78C227.701 24.0733 227.348 24.4867 227.095 25.02C226.988 25.2467 226.908 25.4867 226.855 25.74ZM243.446 32L239.606 17.68H242.046L244.326 26.98L244.566 28.22H244.686L244.986 26.98L247.866 17.68H250.066L252.826 26.98L253.126 28.2H253.246L253.486 26.98L255.766 17.68H258.186L254.406 32H252.086L249.346 22.5L249.026 21.16H248.906L248.566 22.5L245.706 32H243.446ZM262.202 32.32C261.469 32.32 260.816 32.1733 260.242 31.88C259.682 31.5867 259.236 31.1867 258.902 30.68C258.582 30.16 258.422 29.5667 258.422 28.9C258.422 28.1667 258.609 27.5467 258.982 27.04C259.369 26.5333 259.882 26.1467 260.522 25.88C261.162 25.6133 261.869 25.48 262.642 25.48C263.069 25.48 263.462 25.5133 263.822 25.58C264.196 25.6333 264.516 25.7 264.782 25.78C265.062 25.86 265.282 25.9467 265.442 26.04V25.5C265.442 24.8333 265.202 24.3 264.722 23.9C264.242 23.5 263.622 23.3 262.862 23.3C262.342 23.3 261.849 23.42 261.382 23.66C260.916 23.8867 260.542 24.2 260.262 24.6L258.782 23.46C259.076 23.0467 259.429 22.6933 259.842 22.4C260.269 22.1067 260.742 21.88 261.262 21.72C261.796 21.56 262.349 21.48 262.922 21.48C264.402 21.48 265.542 21.8467 266.342 22.58C267.142 23.3 267.542 24.3133 267.542 25.62V32H265.442V30.74H265.322C265.149 31.0067 264.909 31.26 264.602 31.5C264.309 31.74 263.956 31.9333 263.542 32.08C263.142 32.24 262.696 32.32 262.202 32.32ZM262.582 30.56C263.142 30.56 263.636 30.4267 264.062 30.16C264.502 29.8933 264.842 29.5467 265.082 29.12C265.322 28.68 265.442 28.2067 265.442 27.7C265.149 27.5267 264.789 27.3867 264.362 27.28C263.949 27.16 263.509 27.1 263.042 27.1C262.162 27.1 261.536 27.2733 261.162 27.62C260.789 27.9667 260.602 28.4 260.602 28.92C260.602 29.4 260.782 29.7933 261.142 30.1C261.502 30.4067 261.982 30.56 262.582 30.56ZM269.94 32V17.68H272.1V32H269.94ZM274.667 32V17.68H276.827V32H274.667ZM283.936 32.32C282.936 32.32 282.042 32.0867 281.256 31.62C280.469 31.1533 279.849 30.5133 279.396 29.7C278.956 28.8867 278.736 27.96 278.736 26.92C278.736 25.9467 278.949 25.0467 279.376 24.22C279.802 23.3933 280.396 22.7333 281.156 22.24C281.929 21.7333 282.816 21.48 283.816 21.48C284.869 21.48 285.762 21.7067 286.496 22.16C287.242 22.6133 287.809 23.2333 288.196 24.02C288.582 24.8067 288.776 25.6933 288.776 26.68C288.776 26.8267 288.769 26.96 288.756 27.08C288.756 27.2 288.749 27.2933 288.736 27.36H280.856C280.909 27.92 281.049 28.4067 281.276 28.82C281.569 29.34 281.956 29.7333 282.436 30C282.916 30.2667 283.436 30.4 283.996 30.4C284.676 30.4 285.242 30.2467 285.696 29.94C286.162 29.62 286.529 29.2267 286.796 28.76L288.576 29.62C288.136 30.42 287.536 31.0733 286.776 31.58C286.016 32.0733 285.069 32.32 283.936 32.32ZM280.976 25.74H286.636C286.622 25.4867 286.556 25.22 286.436 24.94C286.316 24.6467 286.142 24.38 285.916 24.14C285.689 23.9 285.402 23.7067 285.056 23.56C284.709 23.4 284.302 23.32 283.836 23.32C283.249 23.32 282.729 23.4733 282.276 23.78C281.822 24.0733 281.469 24.4867 281.216 25.02C281.109 25.2467 281.029 25.4867 280.976 25.74ZM289.787 21.8H291.567V18.92H293.727V21.8H296.227V23.68H293.727V28.58C293.727 29.0867 293.827 29.4733 294.027 29.74C294.24 30.0067 294.593 30.14 295.087 30.14C295.327 30.14 295.54 30.1067 295.727 30.04C295.913 29.96 296.1 29.8667 296.287 29.76V31.86C296.06 31.9533 295.82 32.0267 295.567 32.08C295.313 32.1333 295.013 32.16 294.667 32.16C293.72 32.16 292.967 31.8867 292.407 31.34C291.847 30.78 291.567 30.0133 291.567 29.04V23.68H289.787V21.8Z" fill="white"/>
</svg>
