<svg width="386" height="50" viewBox="0 0 386 50" fill="none" xmlns="http://www.w3.org/2000/svg">
<rect x="0.5" y="0.5" width="385" height="49" rx="24.5" fill="#1F1F1F"/>
<rect x="0.5" y="0.5" width="385" height="49" rx="24.5" stroke="#747775"/>
<path d="M51 22H21V17C21 14.2857 23.2018 12 25.8165 12H46.1835C48.7982 12 51 14.2857 51 17V22Z" fill="#34A853"/>
<path d="M51 26.0537H21V21.0537C21 18.3394 23.2018 16.0537 25.8165 16.0537H46.1835C48.7982 16.0537 51 18.3394 51 21.0537V26.0537Z" fill="#FBBC04"/>
<path d="M51 30.2468H21V25.2468C21 22.5325 23.2018 20.2468 25.8165 20.2468H46.1835C48.7982 20.2468 51 22.5325 51 25.2468V30.2468Z" fill="#EA4335"/>
<path d="M21 23.2752L40.0411 27.6789C42.2329 28.2294 44.6986 27.6789 46.4795 26.3028L51 23V33.3211C51 35.9358 48.8082 38 46.2055 38H25.7945C23.1918 38 21 35.9358 21 33.3211V23.2752Z" fill="#4285F4"/>
<path d="M64.62 32V17.68H67.58L71.76 28.58H71.88L76.08 17.68H79.04V32H76.88V23.9L77 21.36H76.88L72.7 32H70.96L66.78 21.36H66.66L66.78 23.9V32H64.62ZM86.3809 32.32C85.3809 32.32 84.4876 32.0867 83.7009 31.62C82.9143 31.1533 82.2943 30.5133 81.8409 29.7C81.4009 28.8867 81.1809 27.96 81.1809 26.92C81.1809 25.9467 81.3943 25.0467 81.8209 24.22C82.2476 23.3933 82.8409 22.7333 83.6009 22.24C84.3743 21.7333 85.2609 21.48 86.2609 21.48C87.3143 21.48 88.2076 21.7067 88.9409 22.16C89.6876 22.6133 90.2543 23.2333 90.6409 24.02C91.0276 24.8067 91.2209 25.6933 91.2209 26.68C91.2209 26.8267 91.2143 26.96 91.2009 27.08C91.2009 27.2 91.1943 27.2933 91.1809 27.36H83.3009C83.3543 27.92 83.4943 28.4067 83.7209 28.82C84.0143 29.34 84.4009 29.7333 84.8809 30C85.3609 30.2667 85.8809 30.4 86.4409 30.4C87.1209 30.4 87.6876 30.2467 88.1409 29.94C88.6076 29.62 88.9743 29.2267 89.2409 28.76L91.0209 29.62C90.5809 30.42 89.9809 31.0733 89.2209 31.58C88.4609 32.0733 87.5143 32.32 86.3809 32.32ZM83.4209 25.74H89.0809C89.0676 25.4867 89.0009 25.22 88.8809 24.94C88.7609 24.6467 88.5876 24.38 88.3609 24.14C88.1343 23.9 87.8476 23.7067 87.5009 23.56C87.1543 23.4 86.7476 23.32 86.2809 23.32C85.6943 23.32 85.1743 23.4733 84.7209 23.78C84.2676 24.0733 83.9143 24.4867 83.6609 25.02C83.5543 25.2467 83.4743 25.4867 83.4209 25.74ZM97.9225 36.64C97.0292 36.64 96.2558 36.4933 95.6025 36.2C94.9625 35.92 94.4425 35.5533 94.0425 35.1C93.6425 34.66 93.3558 34.2067 93.1825 33.74L95.1825 32.9C95.3958 33.4333 95.7358 33.8667 96.2025 34.2C96.6825 34.5467 97.2558 34.72 97.9225 34.72C98.8692 34.72 99.6092 34.44 100.143 33.88C100.676 33.32 100.943 32.5267 100.943 31.5V30.52H100.823C100.503 30.9867 100.063 31.3667 99.5025 31.66C98.9425 31.9533 98.2958 32.1 97.5625 32.1C96.6958 32.1 95.8958 31.88 95.1625 31.44C94.4425 31 93.8625 30.3867 93.4225 29.6C92.9958 28.8 92.7825 27.8667 92.7825 26.8C92.7825 25.72 92.9958 24.7867 93.4225 24C93.8625 23.2 94.4425 22.58 95.1625 22.14C95.8958 21.7 96.6958 21.48 97.5625 21.48C98.2958 21.48 98.9425 21.6267 99.5025 21.92C100.063 22.2 100.503 22.5867 100.823 23.08H100.943V21.8H103.003V31.46C103.003 32.5667 102.783 33.5067 102.342 34.28C101.916 35.0533 101.323 35.64 100.563 36.04C99.8025 36.44 98.9225 36.64 97.9225 36.64ZM97.9425 30.14C98.4758 30.14 98.9692 30.0133 99.4225 29.76C99.8892 29.4933 100.256 29.1133 100.523 28.62C100.803 28.1133 100.943 27.5067 100.943 26.8C100.943 26.0533 100.803 25.4333 100.523 24.94C100.256 24.4467 99.8892 24.0733 99.4225 23.82C98.9692 23.5667 98.4758 23.44 97.9425 23.44C97.4092 23.44 96.9092 23.5667 96.4425 23.82C95.9892 24.0733 95.6225 24.4533 95.3425 24.96C95.0625 25.4533 94.9225 26.0667 94.9225 26.8C94.9225 27.52 95.0625 28.1333 95.3425 28.64C95.6225 29.1333 95.9892 29.5067 96.4425 29.76C96.9092 30.0133 97.4092 30.14 97.9425 30.14ZM104.732 21.8H106.512V18.92H108.672V21.8H111.172V23.68H108.672V28.58C108.672 29.0867 108.772 29.4733 108.972 29.74C109.185 30.0067 109.539 30.14 110.032 30.14C110.272 30.14 110.485 30.1067 110.672 30.04C110.859 29.96 111.045 29.8667 111.232 29.76V31.86C111.005 31.9533 110.765 32.0267 110.512 32.08C110.259 32.1333 109.959 32.16 109.612 32.16C108.665 32.16 107.912 31.8867 107.352 31.34C106.792 30.78 106.512 30.0133 106.512 29.04V23.68H104.732V21.8ZM117.514 32.32C116.514 32.32 115.62 32.0867 114.834 31.62C114.047 31.1533 113.427 30.5133 112.974 29.7C112.534 28.8867 112.314 27.96 112.314 26.92C112.314 25.9467 112.527 25.0467 112.954 24.22C113.38 23.3933 113.974 22.7333 114.734 22.24C115.507 21.7333 116.394 21.48 117.394 21.48C118.447 21.48 119.34 21.7067 120.074 22.16C120.82 22.6133 121.387 23.2333 121.774 24.02C122.16 24.8067 122.354 25.6933 122.354 26.68C122.354 26.8267 122.347 26.96 122.334 27.08C122.334 27.2 122.327 27.2933 122.314 27.36H114.434C114.487 27.92 114.627 28.4067 114.854 28.82C115.147 29.34 115.534 29.7333 116.014 30C116.494 30.2667 117.014 30.4 117.574 30.4C118.254 30.4 118.82 30.2467 119.274 29.94C119.74 29.62 120.107 29.2267 120.374 28.76L122.154 29.62C121.714 30.42 121.114 31.0733 120.354 31.58C119.594 32.0733 118.647 32.32 117.514 32.32ZM114.554 25.74H120.214C120.2 25.4867 120.134 25.22 120.014 24.94C119.894 24.6467 119.72 24.38 119.494 24.14C119.267 23.9 118.98 23.7067 118.634 23.56C118.287 23.4 117.88 23.32 117.414 23.32C116.827 23.32 116.307 23.4733 115.854 23.78C115.4 24.0733 115.047 24.4867 114.794 25.02C114.687 25.2467 114.607 25.4867 114.554 25.74ZM124.358 32V17.68H126.518V26.12L130.838 21.8H133.518V21.92L129.578 25.82L133.658 31.88V32H131.098L128.058 27.32L126.518 28.84V32H124.358ZM135.162 32V21.8H137.322V32H135.162ZM136.242 20.3C135.842 20.3 135.496 20.16 135.202 19.88C134.922 19.5867 134.782 19.24 134.782 18.84C134.782 18.4267 134.922 18.0867 135.202 17.82C135.496 17.54 135.842 17.4 136.242 17.4C136.656 17.4 137.002 17.54 137.282 17.82C137.562 18.0867 137.702 18.4267 137.702 18.84C137.702 19.24 137.562 19.5867 137.282 19.88C137.002 20.16 136.656 20.3 136.242 20.3ZM140.002 32V21.8H142.042V23.2H142.162C142.456 22.7067 142.889 22.3 143.462 21.98C144.049 21.6467 144.689 21.48 145.382 21.48C146.636 21.48 147.576 21.8533 148.202 22.6C148.829 23.3333 149.142 24.32 149.142 25.56V32H147.002V25.84C147.002 25.0133 146.796 24.4133 146.382 24.04C145.969 23.6533 145.429 23.46 144.762 23.46C144.242 23.46 143.789 23.6067 143.402 23.9C143.016 24.18 142.709 24.5533 142.482 25.02C142.269 25.4867 142.162 25.9867 142.162 26.52V32H140.002ZM150.396 21.8H152.176V18.92H154.336V21.8H156.836V23.68H154.336V28.58C154.336 29.0867 154.436 29.4733 154.636 29.74C154.849 30.0067 155.203 30.14 155.696 30.14C155.936 30.14 156.149 30.1067 156.336 30.04C156.523 29.96 156.709 29.8667 156.896 29.76V31.86C156.669 31.9533 156.429 32.0267 156.176 32.08C155.923 32.1333 155.623 32.16 155.276 32.16C154.329 32.16 153.576 31.8867 153.016 31.34C152.456 30.78 152.176 30.0133 152.176 29.04V23.68H150.396V21.8ZM163.178 32.32C162.178 32.32 161.284 32.0867 160.498 31.62C159.711 31.1533 159.091 30.5133 158.638 29.7C158.198 28.8867 157.978 27.96 157.978 26.92C157.978 25.9467 158.191 25.0467 158.618 24.22C159.044 23.3933 159.638 22.7333 160.398 22.24C161.171 21.7333 162.058 21.48 163.058 21.48C164.111 21.48 165.004 21.7067 165.738 22.16C166.484 22.6133 167.051 23.2333 167.438 24.02C167.824 24.8067 168.018 25.6933 168.018 26.68C168.018 26.8267 168.011 26.96 167.998 27.08C167.998 27.2 167.991 27.2933 167.978 27.36H160.098C160.151 27.92 160.291 28.4067 160.518 28.82C160.811 29.34 161.198 29.7333 161.678 30C162.158 30.2667 162.678 30.4 163.238 30.4C163.918 30.4 164.484 30.2467 164.938 29.94C165.404 29.62 165.771 29.2267 166.038 28.76L167.818 29.62C167.378 30.42 166.778 31.0733 166.018 31.58C165.258 32.0733 164.311 32.32 163.178 32.32ZM160.218 25.74H165.878C165.864 25.4867 165.798 25.22 165.678 24.94C165.558 24.6467 165.384 24.38 165.158 24.14C164.931 23.9 164.644 23.7067 164.298 23.56C163.951 23.4 163.544 23.32 163.078 23.32C162.491 23.32 161.971 23.4733 161.518 23.78C161.064 24.0733 160.711 24.4867 160.458 25.02C160.351 25.2467 160.271 25.4867 160.218 25.74ZM162.178 19.84L163.118 17.28H165.558L163.958 19.84H162.178ZM173.839 32.32C173.026 32.32 172.319 32.2 171.719 31.96C171.119 31.7067 170.626 31.3733 170.239 30.96C169.853 30.5333 169.566 30.0733 169.379 29.58L171.319 28.74C171.559 29.2867 171.899 29.7067 172.339 30C172.793 30.28 173.313 30.42 173.899 30.42C174.433 30.42 174.893 30.3267 175.279 30.14C175.666 29.94 175.859 29.62 175.859 29.18C175.859 28.9 175.766 28.6733 175.579 28.5C175.406 28.3133 175.166 28.16 174.859 28.04C174.566 27.92 174.226 27.8133 173.839 27.72L172.619 27.44C172.139 27.32 171.679 27.1333 171.239 26.88C170.813 26.6133 170.466 26.28 170.199 25.88C169.933 25.48 169.799 25.0067 169.799 24.46C169.799 23.8467 169.973 23.32 170.319 22.88C170.679 22.4267 171.159 22.08 171.759 21.84C172.359 21.6 173.006 21.48 173.699 21.48C174.339 21.48 174.919 21.5667 175.439 21.74C175.973 21.9 176.433 22.1467 176.819 22.48C177.219 22.8 177.533 23.2 177.759 23.68L175.899 24.52C175.673 24.0667 175.366 23.7533 174.979 23.58C174.593 23.3933 174.173 23.3 173.719 23.3C173.213 23.3 172.786 23.4067 172.439 23.62C172.106 23.82 171.939 24.0867 171.939 24.42C171.939 24.7667 172.086 25.04 172.379 25.24C172.686 25.44 173.059 25.6 173.499 25.72L174.979 26.08C175.993 26.3333 176.753 26.72 177.259 27.24C177.766 27.7467 178.019 28.3667 178.019 29.1C178.019 29.7533 177.833 30.3267 177.459 30.82C177.086 31.3 176.579 31.6733 175.939 31.94C175.313 32.1933 174.613 32.32 173.839 32.32Z" fill="white"/>
<path d="M188.46 32.32C187.727 32.32 187.073 32.1733 186.5 31.88C185.94 31.5867 185.493 31.1867 185.16 30.68C184.84 30.16 184.68 29.5667 184.68 28.9C184.68 28.1667 184.867 27.5467 185.24 27.04C185.627 26.5333 186.14 26.1467 186.78 25.88C187.42 25.6133 188.127 25.48 188.9 25.48C189.327 25.48 189.72 25.5133 190.08 25.58C190.453 25.6333 190.773 25.7 191.04 25.78C191.32 25.86 191.54 25.9467 191.7 26.04V25.5C191.7 24.8333 191.46 24.3 190.98 23.9C190.5 23.5 189.88 23.3 189.12 23.3C188.6 23.3 188.107 23.42 187.64 23.66C187.173 23.8867 186.8 24.2 186.52 24.6L185.04 23.46C185.333 23.0467 185.687 22.6933 186.1 22.4C186.527 22.1067 187 21.88 187.52 21.72C188.053 21.56 188.607 21.48 189.18 21.48C190.66 21.48 191.8 21.8467 192.6 22.58C193.4 23.3 193.8 24.3133 193.8 25.62V32H191.7V30.74H191.58C191.407 31.0067 191.167 31.26 190.86 31.5C190.567 31.74 190.213 31.9333 189.8 32.08C189.4 32.24 188.953 32.32 188.46 32.32ZM188.84 30.56C189.4 30.56 189.893 30.4267 190.32 30.16C190.76 29.8933 191.1 29.5467 191.34 29.12C191.58 28.68 191.7 28.2067 191.7 27.7C191.407 27.5267 191.047 27.3867 190.62 27.28C190.207 27.16 189.767 27.1 189.3 27.1C188.42 27.1 187.793 27.2733 187.42 27.62C187.047 27.9667 186.86 28.4 186.86 28.92C186.86 29.4 187.04 29.7933 187.4 30.1C187.76 30.4067 188.24 30.56 188.84 30.56ZM207.595 32.32C206.569 32.32 205.602 32.1333 204.695 31.76C203.789 31.3867 202.989 30.8667 202.295 30.2C201.615 29.52 201.075 28.7267 200.675 27.82C200.289 26.9 200.095 25.9067 200.095 24.84C200.095 23.7733 200.289 22.7867 200.675 21.88C201.075 20.96 201.615 20.1667 202.295 19.5C202.989 18.82 203.789 18.2933 204.695 17.92C205.602 17.5467 206.569 17.36 207.595 17.36C208.689 17.36 209.695 17.5533 210.615 17.94C211.549 18.3267 212.329 18.8667 212.955 19.56L211.435 21.06C211.129 20.7133 210.775 20.42 210.375 20.18C209.989 19.94 209.562 19.76 209.095 19.64C208.629 19.5067 208.129 19.44 207.595 19.44C206.889 19.44 206.215 19.5667 205.575 19.82C204.935 20.0733 204.369 20.44 203.875 20.92C203.395 21.3867 203.015 21.9533 202.735 22.62C202.455 23.2733 202.315 24.0133 202.315 24.84C202.315 25.6667 202.455 26.4133 202.735 27.08C203.029 27.7333 203.415 28.3 203.895 28.78C204.389 29.2467 204.955 29.6067 205.595 29.86C206.235 30.1133 206.909 30.24 207.615 30.24C208.269 30.24 208.875 30.1467 209.435 29.96C210.009 29.7733 210.509 29.5067 210.935 29.16C211.362 28.8133 211.709 28.3933 211.975 27.9C212.242 27.3933 212.409 26.8267 212.475 26.2H207.575V24.26H214.535C214.562 24.42 214.589 24.6067 214.615 24.82C214.642 25.02 214.655 25.2133 214.655 25.4V25.42C214.655 26.4467 214.475 27.3867 214.115 28.24C213.769 29.0933 213.282 29.8267 212.655 30.44C212.029 31.04 211.282 31.5067 210.415 31.84C209.562 32.16 208.622 32.32 207.595 32.32ZM221.095 32.32C220.042 32.32 219.115 32.08 218.315 31.6C217.515 31.12 216.888 30.4733 216.435 29.66C215.982 28.8333 215.755 27.9133 215.755 26.9C215.755 25.8867 215.982 24.9733 216.435 24.16C216.888 23.3333 217.515 22.68 218.315 22.2C219.115 21.72 220.042 21.48 221.095 21.48C222.135 21.48 223.055 21.7267 223.855 22.22C224.655 22.7 225.282 23.3467 225.735 24.16C226.188 24.9733 226.415 25.8867 226.415 26.9C226.415 27.9133 226.188 28.8333 225.735 29.66C225.282 30.4733 224.655 31.12 223.855 31.6C223.055 32.08 222.135 32.32 221.095 32.32ZM221.095 30.34C221.655 30.34 222.175 30.2067 222.655 29.94C223.135 29.66 223.522 29.2667 223.815 28.76C224.122 28.24 224.275 27.62 224.275 26.9C224.275 26.18 224.122 25.5667 223.815 25.06C223.522 24.54 223.135 24.1467 222.655 23.88C222.175 23.6 221.655 23.46 221.095 23.46C220.535 23.46 220.008 23.6 219.515 23.88C219.035 24.1467 218.642 24.54 218.335 25.06C218.042 25.5667 217.895 26.18 217.895 26.9C217.895 27.62 218.042 28.24 218.335 28.76C218.642 29.2667 219.042 29.66 219.535 29.94C220.028 30.2067 220.548 30.34 221.095 30.34ZM233.205 32.32C232.151 32.32 231.225 32.08 230.425 31.6C229.625 31.12 228.998 30.4733 228.545 29.66C228.091 28.8333 227.865 27.9133 227.865 26.9C227.865 25.8867 228.091 24.9733 228.545 24.16C228.998 23.3333 229.625 22.68 230.425 22.2C231.225 21.72 232.151 21.48 233.205 21.48C234.245 21.48 235.165 21.7267 235.965 22.22C236.765 22.7 237.391 23.3467 237.845 24.16C238.298 24.9733 238.525 25.8867 238.525 26.9C238.525 27.9133 238.298 28.8333 237.845 29.66C237.391 30.4733 236.765 31.12 235.965 31.6C235.165 32.08 234.245 32.32 233.205 32.32ZM233.205 30.34C233.765 30.34 234.285 30.2067 234.765 29.94C235.245 29.66 235.631 29.2667 235.925 28.76C236.231 28.24 236.385 27.62 236.385 26.9C236.385 26.18 236.231 25.5667 235.925 25.06C235.631 24.54 235.245 24.1467 234.765 23.88C234.285 23.6 233.765 23.46 233.205 23.46C232.645 23.46 232.118 23.6 231.625 23.88C231.145 24.1467 230.751 24.54 230.445 25.06C230.151 25.5667 230.005 26.18 230.005 26.9C230.005 27.62 230.151 28.24 230.445 28.76C230.751 29.2667 231.151 29.66 231.645 29.94C232.138 30.2067 232.658 30.34 233.205 30.34ZM245.114 36.64C244.221 36.64 243.447 36.4933 242.794 36.2C242.154 35.92 241.634 35.5533 241.234 35.1C240.834 34.66 240.547 34.2067 240.374 33.74L242.374 32.9C242.587 33.4333 242.927 33.8667 243.394 34.2C243.874 34.5467 244.447 34.72 245.114 34.72C246.061 34.72 246.801 34.44 247.334 33.88C247.867 33.32 248.134 32.5267 248.134 31.5V30.52H248.014C247.694 30.9867 247.254 31.3667 246.694 31.66C246.134 31.9533 245.487 32.1 244.754 32.1C243.887 32.1 243.087 31.88 242.354 31.44C241.634 31 241.054 30.3867 240.614 29.6C240.187 28.8 239.974 27.8667 239.974 26.8C239.974 25.72 240.187 24.7867 240.614 24C241.054 23.2 241.634 22.58 242.354 22.14C243.087 21.7 243.887 21.48 244.754 21.48C245.487 21.48 246.134 21.6267 246.694 21.92C247.254 22.2 247.694 22.5867 248.014 23.08H248.134V21.8H250.194V31.46C250.194 32.5667 249.974 33.5067 249.534 34.28C249.107 35.0533 248.514 35.64 247.754 36.04C246.994 36.44 246.114 36.64 245.114 36.64ZM245.134 30.14C245.667 30.14 246.161 30.0133 246.614 29.76C247.081 29.4933 247.447 29.1133 247.714 28.62C247.994 28.1133 248.134 27.5067 248.134 26.8C248.134 26.0533 247.994 25.4333 247.714 24.94C247.447 24.4467 247.081 24.0733 246.614 23.82C246.161 23.5667 245.667 23.44 245.134 23.44C244.601 23.44 244.101 23.5667 243.634 23.82C243.181 24.0733 242.814 24.4533 242.534 24.96C242.254 25.4533 242.114 26.0667 242.114 26.8C242.114 27.52 242.254 28.1333 242.534 28.64C242.814 29.1333 243.181 29.5067 243.634 29.76C244.101 30.0133 244.601 30.14 245.134 30.14ZM252.741 32V17.68H254.901V32H252.741ZM262.01 32.32C261.01 32.32 260.117 32.0867 259.33 31.62C258.543 31.1533 257.923 30.5133 257.47 29.7C257.03 28.8867 256.81 27.96 256.81 26.92C256.81 25.9467 257.023 25.0467 257.45 24.22C257.877 23.3933 258.47 22.7333 259.23 22.24C260.003 21.7333 260.89 21.48 261.89 21.48C262.943 21.48 263.837 21.7067 264.57 22.16C265.317 22.6133 265.883 23.2333 266.27 24.02C266.657 24.8067 266.85 25.6933 266.85 26.68C266.85 26.8267 266.843 26.96 266.83 27.08C266.83 27.2 266.823 27.2933 266.81 27.36H258.93C258.983 27.92 259.123 28.4067 259.35 28.82C259.643 29.34 260.03 29.7333 260.51 30C260.99 30.2667 261.51 30.4 262.07 30.4C262.75 30.4 263.317 30.2467 263.77 29.94C264.237 29.62 264.603 29.2267 264.87 28.76L266.65 29.62C266.21 30.42 265.61 31.0733 264.85 31.58C264.09 32.0733 263.143 32.32 262.01 32.32ZM259.05 25.74H264.71C264.697 25.4867 264.63 25.22 264.51 24.94C264.39 24.6467 264.217 24.38 263.99 24.14C263.763 23.9 263.477 23.7067 263.13 23.56C262.783 23.4 262.377 23.32 261.91 23.32C261.323 23.32 260.803 23.4733 260.35 23.78C259.897 24.0733 259.543 24.4867 259.29 25.02C259.183 25.2467 259.103 25.4867 259.05 25.74ZM275.641 32L271.801 17.68H274.241L276.521 26.98L276.761 28.22H276.881L277.181 26.98L280.061 17.68H282.261L285.021 26.98L285.321 28.2H285.441L285.681 26.98L287.961 17.68H290.381L286.601 32H284.281L281.541 22.5L281.221 21.16H281.101L280.761 22.5L277.901 32H275.641ZM294.398 32.32C293.664 32.32 293.011 32.1733 292.438 31.88C291.878 31.5867 291.431 31.1867 291.098 30.68C290.778 30.16 290.618 29.5667 290.618 28.9C290.618 28.1667 290.804 27.5467 291.178 27.04C291.564 26.5333 292.078 26.1467 292.718 25.88C293.358 25.6133 294.064 25.48 294.838 25.48C295.264 25.48 295.658 25.5133 296.018 25.58C296.391 25.6333 296.711 25.7 296.978 25.78C297.258 25.86 297.478 25.9467 297.638 26.04V25.5C297.638 24.8333 297.398 24.3 296.918 23.9C296.438 23.5 295.818 23.3 295.058 23.3C294.538 23.3 294.044 23.42 293.578 23.66C293.111 23.8867 292.738 24.2 292.458 24.6L290.978 23.46C291.271 23.0467 291.624 22.6933 292.038 22.4C292.464 22.1067 292.938 21.88 293.458 21.72C293.991 21.56 294.544 21.48 295.118 21.48C296.598 21.48 297.738 21.8467 298.538 22.58C299.338 23.3 299.738 24.3133 299.738 25.62V32H297.638V30.74H297.518C297.344 31.0067 297.104 31.26 296.798 31.5C296.504 31.74 296.151 31.9333 295.738 32.08C295.338 32.24 294.891 32.32 294.398 32.32ZM294.778 30.56C295.338 30.56 295.831 30.4267 296.258 30.16C296.698 29.8933 297.038 29.5467 297.278 29.12C297.518 28.68 297.638 28.2067 297.638 27.7C297.344 27.5267 296.984 27.3867 296.558 27.28C296.144 27.16 295.704 27.1 295.238 27.1C294.358 27.1 293.731 27.2733 293.358 27.62C292.984 27.9667 292.798 28.4 292.798 28.92C292.798 29.4 292.978 29.7933 293.338 30.1C293.698 30.4067 294.178 30.56 294.778 30.56ZM302.135 32V17.68H304.295V32H302.135ZM306.862 32V17.68H309.022V32H306.862ZM316.131 32.32C315.131 32.32 314.238 32.0867 313.451 31.62C312.664 31.1533 312.044 30.5133 311.591 29.7C311.151 28.8867 310.931 27.96 310.931 26.92C310.931 25.9467 311.144 25.0467 311.571 24.22C311.998 23.3933 312.591 22.7333 313.351 22.24C314.124 21.7333 315.011 21.48 316.011 21.48C317.064 21.48 317.958 21.7067 318.691 22.16C319.438 22.6133 320.004 23.2333 320.391 24.02C320.778 24.8067 320.971 25.6933 320.971 26.68C320.971 26.8267 320.964 26.96 320.951 27.08C320.951 27.2 320.944 27.2933 320.931 27.36H313.051C313.104 27.92 313.244 28.4067 313.471 28.82C313.764 29.34 314.151 29.7333 314.631 30C315.111 30.2667 315.631 30.4 316.191 30.4C316.871 30.4 317.438 30.2467 317.891 29.94C318.358 29.62 318.724 29.2267 318.991 28.76L320.771 29.62C320.331 30.42 319.731 31.0733 318.971 31.58C318.211 32.0733 317.264 32.32 316.131 32.32ZM313.171 25.74H318.831C318.818 25.4867 318.751 25.22 318.631 24.94C318.511 24.6467 318.338 24.38 318.111 24.14C317.884 23.9 317.598 23.7067 317.251 23.56C316.904 23.4 316.498 23.32 316.031 23.32C315.444 23.32 314.924 23.4733 314.471 23.78C314.018 24.0733 313.664 24.4867 313.411 25.02C313.304 25.2467 313.224 25.4867 313.171 25.74ZM321.982 21.8H323.762V18.92H325.922V21.8H328.422V23.68H325.922V28.58C325.922 29.0867 326.022 29.4733 326.222 29.74C326.435 30.0067 326.789 30.14 327.282 30.14C327.522 30.14 327.735 30.1067 327.922 30.04C328.109 29.96 328.295 29.8667 328.482 29.76V31.86C328.255 31.9533 328.015 32.0267 327.762 32.08C327.509 32.1333 327.209 32.16 326.862 32.16C325.915 32.16 325.162 31.8867 324.602 31.34C324.042 30.78 323.762 30.0133 323.762 29.04V23.68H321.982V21.8ZM336.032 32.32C335.512 32.32 335.039 32.24 334.612 32.08C334.185 31.92 333.812 31.7133 333.492 31.46C333.185 31.1933 332.939 30.92 332.752 30.64H332.632V32H330.592V17.68H332.752V21.76L332.632 23.18H332.752C332.939 22.8867 333.185 22.6133 333.492 22.36C333.812 22.0933 334.185 21.88 334.612 21.72C335.039 21.56 335.512 21.48 336.032 21.48C336.965 21.48 337.799 21.7133 338.532 22.18C339.265 22.6467 339.845 23.2867 340.272 24.1C340.712 24.9133 340.932 25.8467 340.932 26.9C340.932 27.9533 340.712 28.8867 340.272 29.7C339.845 30.5133 339.265 31.1533 338.532 31.62C337.799 32.0867 336.965 32.32 336.032 32.32ZM335.712 30.34C336.245 30.34 336.745 30.2 337.212 29.92C337.692 29.64 338.072 29.24 338.352 28.72C338.645 28.2 338.792 27.5933 338.792 26.9C338.792 26.1933 338.645 25.5867 338.352 25.08C338.072 24.56 337.692 24.16 337.212 23.88C336.745 23.6 336.245 23.46 335.712 23.46C335.179 23.46 334.679 23.6 334.212 23.88C333.745 24.16 333.365 24.56 333.072 25.08C332.779 25.5867 332.632 26.1933 332.632 26.9C332.632 27.6067 332.779 28.22 333.072 28.74C333.365 29.2467 333.745 29.64 334.212 29.92C334.679 30.2 335.179 30.34 335.712 30.34ZM347.576 32.32C346.576 32.32 345.683 32.0867 344.896 31.62C344.11 31.1533 343.49 30.5133 343.036 29.7C342.596 28.8867 342.376 27.96 342.376 26.92C342.376 25.9467 342.59 25.0467 343.016 24.22C343.443 23.3933 344.036 22.7333 344.796 22.24C345.57 21.7333 346.456 21.48 347.456 21.48C348.51 21.48 349.403 21.7067 350.136 22.16C350.883 22.6133 351.45 23.2333 351.836 24.02C352.223 24.8067 352.416 25.6933 352.416 26.68C352.416 26.8267 352.41 26.96 352.396 27.08C352.396 27.2 352.39 27.2933 352.376 27.36H344.496C344.55 27.92 344.69 28.4067 344.916 28.82C345.21 29.34 345.596 29.7333 346.076 30C346.556 30.2667 347.076 30.4 347.636 30.4C348.316 30.4 348.883 30.2467 349.336 29.94C349.803 29.62 350.17 29.2267 350.436 28.76L352.216 29.62C351.776 30.42 351.176 31.0733 350.416 31.58C349.656 32.0733 348.71 32.32 347.576 32.32ZM344.616 25.74H350.276C350.263 25.4867 350.196 25.22 350.076 24.94C349.956 24.6467 349.783 24.38 349.556 24.14C349.33 23.9 349.043 23.7067 348.696 23.56C348.35 23.4 347.943 23.32 347.476 23.32C346.89 23.32 346.37 23.4733 345.916 23.78C345.463 24.0733 345.11 24.4867 344.856 25.02C344.75 25.2467 344.67 25.4867 344.616 25.74ZM354.42 32V21.8H356.46V23.2H356.58C356.873 22.7067 357.307 22.3 357.88 21.98C358.467 21.6467 359.107 21.48 359.8 21.48C361.053 21.48 361.993 21.8533 362.62 22.6C363.247 23.3333 363.56 24.32 363.56 25.56V32H361.42V25.84C361.42 25.0133 361.213 24.4133 360.8 24.04C360.387 23.6533 359.847 23.46 359.18 23.46C358.66 23.46 358.207 23.6067 357.82 23.9C357.433 24.18 357.127 24.5533 356.9 25.02C356.687 25.4867 356.58 25.9867 356.58 26.52V32H354.42Z" fill="white"/>
</svg>
