<svg width="321" height="50" viewBox="0 0 321 50" fill="none" xmlns="http://www.w3.org/2000/svg">
<rect x="0.5" y="0.5" width="320" height="49" rx="24.5" fill="#1F1F1F"/>
<rect x="0.5" y="0.5" width="320" height="49" rx="24.5" stroke="#747775"/>
<path d="M51 22H21V17C21 14.2857 23.2018 12 25.8165 12H46.1835C48.7982 12 51 14.2857 51 17V22Z" fill="#34A853"/>
<path d="M51 26.0537H21V21.0537C21 18.3394 23.2018 16.0537 25.8165 16.0537H46.1835C48.7982 16.0537 51 18.3394 51 21.0537V26.0537Z" fill="#FBBC04"/>
<path d="M51 30.2468H21V25.2468C21 22.5325 23.2018 20.2468 25.8165 20.2468H46.1835C48.7982 20.2468 51 22.5325 51 25.2468V30.2468Z" fill="#EA4335"/>
<path d="M21 23.2752L40.0411 27.6789C42.2329 28.2294 44.6986 27.6789 46.4795 26.3028L51 23V33.3211C51 35.9358 48.8082 38 46.2055 38H25.7945C23.1918 38 21 35.9358 21 33.3211V23.2752Z" fill="#4285F4"/>
<path d="M71.98 32V23.06C71.98 22.3667 71.8667 21.7533 71.64 21.22C71.4267 20.6733 71.1 20.24 70.66 19.92C70.22 19.6 69.6733 19.44 69.02 19.44C68.38 19.44 67.84 19.6 67.4 19.92C66.96 20.24 66.6267 20.6733 66.4 21.22C66.1867 21.7533 66.08 22.3667 66.08 23.06V26.14H63.9V23.2C63.9 22 64.1133 20.9667 64.54 20.1C64.98 19.22 65.5867 18.5467 66.36 18.08C67.1333 17.6 68.0267 17.36 69.04 17.36C70.08 17.36 70.98 17.6067 71.74 18.1C72.5133 18.5933 73.1067 19.28 73.52 20.16C73.9467 21.0267 74.16 22.04 74.16 23.2V26.08H76.96V28.06H74.16V32H71.98ZM78.6155 36.74V17.68H80.7755V21.88L80.6555 23.46H80.7755C81.0688 22.98 81.4888 22.5867 82.0355 22.28C82.5955 21.96 83.2088 21.8 83.8755 21.8C85.0888 21.8 86.0021 22.1667 86.6155 22.9C87.2288 23.62 87.5355 24.5733 87.5355 25.76V32H85.3955V26.04C85.3955 25.2667 85.1955 24.7 84.7955 24.34C84.4088 23.9667 83.9021 23.78 83.2755 23.78C82.7688 23.78 82.3288 23.92 81.9555 24.2C81.5821 24.4667 81.2888 24.8267 81.0755 25.28C80.8755 25.72 80.7755 26.2 80.7755 26.72V36.74H78.6155ZM93.4245 32.32C92.2379 32.32 91.3379 31.9533 90.7245 31.22C90.1245 30.4733 89.8245 29.4733 89.8245 28.22V22.12H91.9845V27.92C91.9845 28.7333 92.1712 29.34 92.5445 29.74C92.9179 30.14 93.3845 30.34 93.9445 30.34C94.4645 30.34 94.9112 30.2067 95.2845 29.94C95.6579 29.66 95.9445 29.2933 96.1445 28.84C96.3579 28.3867 96.4645 27.9 96.4645 27.38V22.12H98.4845V23.46H98.6045C98.8845 22.98 99.2979 22.5867 99.8445 22.28C100.391 21.96 100.985 21.8 101.625 21.8C102.825 21.8 103.725 22.1667 104.325 22.9C104.925 23.62 105.225 24.5733 105.225 25.76V32H103.085V26.04C103.085 25.2667 102.891 24.7 102.505 24.34C102.131 23.9667 101.645 23.78 101.045 23.78C100.551 23.78 100.118 23.92 99.7445 24.2C99.3845 24.4667 99.1045 24.8267 98.9045 25.28C98.7045 25.72 98.6045 26.2 98.6045 26.72V32H96.5845V30.68H96.4645C96.1845 31.1467 95.7712 31.54 95.2245 31.86C94.6779 32.1667 94.0779 32.32 93.4245 32.32ZM111.08 32.32C109.907 32.32 109.014 31.9533 108.4 31.22C107.8 30.4733 107.5 29.4733 107.5 28.22V17.68H109.66V22.12H116.28V24H109.66V27.92C109.66 28.7333 109.847 29.34 110.22 29.74C110.594 30.14 111.054 30.34 111.6 30.34C112.12 30.34 112.567 30.2067 112.94 29.94C113.314 29.66 113.6 29.2933 113.8 28.84C114.014 28.3867 114.12 27.9 114.12 27.38V26.26H116.26V32H114.24V30.68H114.12C113.84 31.1467 113.427 31.54 112.88 31.86C112.334 32.1667 111.734 32.32 111.08 32.32ZM118.791 36.74V22.12H120.951V34.86H123.751V36.74H118.791Z" fill="white"/>
<path d="M137.4 32.32C136.373 32.32 135.407 32.1333 134.5 31.76C133.593 31.3867 132.793 30.8667 132.1 30.2C131.42 29.52 130.88 28.7267 130.48 27.82C130.093 26.9 129.9 25.9067 129.9 24.84C129.9 23.7733 130.093 22.7867 130.48 21.88C130.88 20.96 131.42 20.1667 132.1 19.5C132.793 18.82 133.593 18.2933 134.5 17.92C135.407 17.5467 136.373 17.36 137.4 17.36C138.493 17.36 139.5 17.5533 140.42 17.94C141.353 18.3267 142.133 18.8667 142.76 19.56L141.24 21.06C140.933 20.7133 140.58 20.42 140.18 20.18C139.793 19.94 139.367 19.76 138.9 19.64C138.433 19.5067 137.933 19.44 137.4 19.44C136.693 19.44 136.02 19.5667 135.38 19.82C134.74 20.0733 134.173 20.44 133.68 20.92C133.2 21.3867 132.82 21.9533 132.54 22.62C132.26 23.2733 132.12 24.0133 132.12 24.84C132.12 25.6667 132.26 26.4133 132.54 27.08C132.833 27.7333 133.22 28.3 133.7 28.78C134.193 29.2467 134.76 29.6067 135.4 29.86C136.04 30.1133 136.713 30.24 137.42 30.24C138.073 30.24 138.68 30.1467 139.24 29.96C139.813 29.7733 140.313 29.5067 140.74 29.16C141.167 28.8133 141.513 28.3933 141.78 27.9C142.047 27.3933 142.213 26.8267 142.28 26.2H137.38V24.26H144.34C144.367 24.42 144.393 24.6067 144.42 24.82C144.447 25.02 144.46 25.2133 144.46 25.4V25.42C144.46 26.4467 144.28 27.3867 143.92 28.24C143.573 29.0933 143.087 29.8267 142.46 30.44C141.833 31.04 141.087 31.5067 140.22 31.84C139.367 32.16 138.427 32.32 137.4 32.32ZM150.9 32.32C149.847 32.32 148.92 32.08 148.12 31.6C147.32 31.12 146.693 30.4733 146.24 29.66C145.787 28.8333 145.56 27.9133 145.56 26.9C145.56 25.8867 145.787 24.9733 146.24 24.16C146.693 23.3333 147.32 22.68 148.12 22.2C148.92 21.72 149.847 21.48 150.9 21.48C151.94 21.48 152.86 21.7267 153.66 22.22C154.46 22.7 155.087 23.3467 155.54 24.16C155.993 24.9733 156.22 25.8867 156.22 26.9C156.22 27.9133 155.993 28.8333 155.54 29.66C155.087 30.4733 154.46 31.12 153.66 31.6C152.86 32.08 151.94 32.32 150.9 32.32ZM150.9 30.34C151.46 30.34 151.98 30.2067 152.46 29.94C152.94 29.66 153.327 29.2667 153.62 28.76C153.927 28.24 154.08 27.62 154.08 26.9C154.08 26.18 153.927 25.5667 153.62 25.06C153.327 24.54 152.94 24.1467 152.46 23.88C151.98 23.6 151.46 23.46 150.9 23.46C150.34 23.46 149.813 23.6 149.32 23.88C148.84 24.1467 148.447 24.54 148.14 25.06C147.847 25.5667 147.7 26.18 147.7 26.9C147.7 27.62 147.847 28.24 148.14 28.76C148.447 29.2667 148.847 29.66 149.34 29.94C149.833 30.2067 150.353 30.34 150.9 30.34ZM163.009 32.32C161.956 32.32 161.029 32.08 160.229 31.6C159.429 31.12 158.803 30.4733 158.349 29.66C157.896 28.8333 157.669 27.9133 157.669 26.9C157.669 25.8867 157.896 24.9733 158.349 24.16C158.803 23.3333 159.429 22.68 160.229 22.2C161.029 21.72 161.956 21.48 163.009 21.48C164.049 21.48 164.969 21.7267 165.769 22.22C166.569 22.7 167.196 23.3467 167.649 24.16C168.103 24.9733 168.329 25.8867 168.329 26.9C168.329 27.9133 168.103 28.8333 167.649 29.66C167.196 30.4733 166.569 31.12 165.769 31.6C164.969 32.08 164.049 32.32 163.009 32.32ZM163.009 30.34C163.569 30.34 164.089 30.2067 164.569 29.94C165.049 29.66 165.436 29.2667 165.729 28.76C166.036 28.24 166.189 27.62 166.189 26.9C166.189 26.18 166.036 25.5667 165.729 25.06C165.436 24.54 165.049 24.1467 164.569 23.88C164.089 23.6 163.569 23.46 163.009 23.46C162.449 23.46 161.923 23.6 161.429 23.88C160.949 24.1467 160.556 24.54 160.249 25.06C159.956 25.5667 159.809 26.18 159.809 26.9C159.809 27.62 159.956 28.24 160.249 28.76C160.556 29.2667 160.956 29.66 161.449 29.94C161.943 30.2067 162.463 30.34 163.009 30.34ZM174.919 36.64C174.025 36.64 173.252 36.4933 172.599 36.2C171.959 35.92 171.439 35.5533 171.039 35.1C170.639 34.66 170.352 34.2067 170.179 33.74L172.179 32.9C172.392 33.4333 172.732 33.8667 173.199 34.2C173.679 34.5467 174.252 34.72 174.919 34.72C175.865 34.72 176.605 34.44 177.139 33.88C177.672 33.32 177.939 32.5267 177.939 31.5V30.52H177.819C177.499 30.9867 177.059 31.3667 176.499 31.66C175.939 31.9533 175.292 32.1 174.559 32.1C173.692 32.1 172.892 31.88 172.159 31.44C171.439 31 170.859 30.3867 170.419 29.6C169.992 28.8 169.779 27.8667 169.779 26.8C169.779 25.72 169.992 24.7867 170.419 24C170.859 23.2 171.439 22.58 172.159 22.14C172.892 21.7 173.692 21.48 174.559 21.48C175.292 21.48 175.939 21.6267 176.499 21.92C177.059 22.2 177.499 22.5867 177.819 23.08H177.939V21.8H179.999V31.46C179.999 32.5667 179.779 33.5067 179.339 34.28C178.912 35.0533 178.319 35.64 177.559 36.04C176.799 36.44 175.919 36.64 174.919 36.64ZM174.939 30.14C175.472 30.14 175.965 30.0133 176.419 29.76C176.885 29.4933 177.252 29.1133 177.519 28.62C177.799 28.1133 177.939 27.5067 177.939 26.8C177.939 26.0533 177.799 25.4333 177.519 24.94C177.252 24.4467 176.885 24.0733 176.419 23.82C175.965 23.5667 175.472 23.44 174.939 23.44C174.405 23.44 173.905 23.5667 173.439 23.82C172.985 24.0733 172.619 24.4533 172.339 24.96C172.059 25.4533 171.919 26.0667 171.919 26.8C171.919 27.52 172.059 28.1333 172.339 28.64C172.619 29.1333 172.985 29.5067 173.439 29.76C173.905 30.0133 174.405 30.14 174.939 30.14ZM182.546 32V17.68H184.706V32H182.546ZM191.815 32.32C190.815 32.32 189.921 32.0867 189.135 31.62C188.348 31.1533 187.728 30.5133 187.275 29.7C186.835 28.8867 186.615 27.96 186.615 26.92C186.615 25.9467 186.828 25.0467 187.255 24.22C187.681 23.3933 188.275 22.7333 189.035 22.24C189.808 21.7333 190.695 21.48 191.695 21.48C192.748 21.48 193.641 21.7067 194.375 22.16C195.121 22.6133 195.688 23.2333 196.075 24.02C196.461 24.8067 196.655 25.6933 196.655 26.68C196.655 26.8267 196.648 26.96 196.635 27.08C196.635 27.2 196.628 27.2933 196.615 27.36H188.735C188.788 27.92 188.928 28.4067 189.155 28.82C189.448 29.34 189.835 29.7333 190.315 30C190.795 30.2667 191.315 30.4 191.875 30.4C192.555 30.4 193.121 30.2467 193.575 29.94C194.041 29.62 194.408 29.2267 194.675 28.76L196.455 29.62C196.015 30.42 195.415 31.0733 194.655 31.58C193.895 32.0733 192.948 32.32 191.815 32.32ZM188.855 25.74H194.515C194.501 25.4867 194.435 25.22 194.315 24.94C194.195 24.6467 194.021 24.38 193.795 24.14C193.568 23.9 193.281 23.7067 192.935 23.56C192.588 23.4 192.181 23.32 191.715 23.32C191.128 23.32 190.608 23.4733 190.155 23.78C189.701 24.0733 189.348 24.4867 189.095 25.02C188.988 25.2467 188.908 25.4867 188.855 25.74ZM205.446 32L201.606 17.68H204.046L206.326 26.98L206.566 28.22H206.686L206.986 26.98L209.866 17.68H212.066L214.826 26.98L215.126 28.2H215.246L215.486 26.98L217.766 17.68H220.186L216.406 32H214.086L211.346 22.5L211.026 21.16H210.906L210.566 22.5L207.706 32H205.446ZM224.202 32.32C223.469 32.32 222.816 32.1733 222.242 31.88C221.682 31.5867 221.236 31.1867 220.902 30.68C220.582 30.16 220.422 29.5667 220.422 28.9C220.422 28.1667 220.609 27.5467 220.982 27.04C221.369 26.5333 221.882 26.1467 222.522 25.88C223.162 25.6133 223.869 25.48 224.642 25.48C225.069 25.48 225.462 25.5133 225.822 25.58C226.196 25.6333 226.516 25.7 226.782 25.78C227.062 25.86 227.282 25.9467 227.442 26.04V25.5C227.442 24.8333 227.202 24.3 226.722 23.9C226.242 23.5 225.622 23.3 224.862 23.3C224.342 23.3 223.849 23.42 223.382 23.66C222.916 23.8867 222.542 24.2 222.262 24.6L220.782 23.46C221.076 23.0467 221.429 22.6933 221.842 22.4C222.269 22.1067 222.742 21.88 223.262 21.72C223.796 21.56 224.349 21.48 224.922 21.48C226.402 21.48 227.542 21.8467 228.342 22.58C229.142 23.3 229.542 24.3133 229.542 25.62V32H227.442V30.74H227.322C227.149 31.0067 226.909 31.26 226.602 31.5C226.309 31.74 225.956 31.9333 225.542 32.08C225.142 32.24 224.696 32.32 224.202 32.32ZM224.582 30.56C225.142 30.56 225.636 30.4267 226.062 30.16C226.502 29.8933 226.842 29.5467 227.082 29.12C227.322 28.68 227.442 28.2067 227.442 27.7C227.149 27.5267 226.789 27.3867 226.362 27.28C225.949 27.16 225.509 27.1 225.042 27.1C224.162 27.1 223.536 27.2733 223.162 27.62C222.789 27.9667 222.602 28.4 222.602 28.92C222.602 29.4 222.782 29.7933 223.142 30.1C223.502 30.4067 223.982 30.56 224.582 30.56ZM231.94 32V17.68H234.1V32H231.94ZM236.667 32V17.68H238.827V32H236.667ZM245.936 32.32C244.936 32.32 244.042 32.0867 243.256 31.62C242.469 31.1533 241.849 30.5133 241.396 29.7C240.956 28.8867 240.736 27.96 240.736 26.92C240.736 25.9467 240.949 25.0467 241.376 24.22C241.802 23.3933 242.396 22.7333 243.156 22.24C243.929 21.7333 244.816 21.48 245.816 21.48C246.869 21.48 247.762 21.7067 248.496 22.16C249.242 22.6133 249.809 23.2333 250.196 24.02C250.582 24.8067 250.776 25.6933 250.776 26.68C250.776 26.8267 250.769 26.96 250.756 27.08C250.756 27.2 250.749 27.2933 250.736 27.36H242.856C242.909 27.92 243.049 28.4067 243.276 28.82C243.569 29.34 243.956 29.7333 244.436 30C244.916 30.2667 245.436 30.4 245.996 30.4C246.676 30.4 247.242 30.2467 247.696 29.94C248.162 29.62 248.529 29.2267 248.796 28.76L250.576 29.62C250.136 30.42 249.536 31.0733 248.776 31.58C248.016 32.0733 247.069 32.32 245.936 32.32ZM242.976 25.74H248.636C248.622 25.4867 248.556 25.22 248.436 24.94C248.316 24.6467 248.142 24.38 247.916 24.14C247.689 23.9 247.402 23.7067 247.056 23.56C246.709 23.4 246.302 23.32 245.836 23.32C245.249 23.32 244.729 23.4733 244.276 23.78C243.822 24.0733 243.469 24.4867 243.216 25.02C243.109 25.2467 243.029 25.4867 242.976 25.74ZM251.787 21.8H253.567V18.92H255.727V21.8H258.227V23.68H255.727V28.58C255.727 29.0867 255.827 29.4733 256.027 29.74C256.24 30.0067 256.593 30.14 257.087 30.14C257.327 30.14 257.54 30.1067 257.727 30.04C257.913 29.96 258.1 29.8667 258.287 29.76V31.86C258.06 31.9533 257.82 32.0267 257.567 32.08C257.313 32.1333 257.013 32.16 256.667 32.16C255.72 32.16 254.967 31.8867 254.407 31.34C253.847 30.78 253.567 30.0133 253.567 29.04V23.68H251.787V21.8ZM260.279 26.72V24.88H266.839V26.72H260.279ZM269.362 32V22.12H271.402V23.46H271.522C271.815 22.98 272.235 22.5867 272.782 22.28C273.342 21.96 273.955 21.8 274.622 21.8C275.835 21.8 276.748 22.1667 277.362 22.9C277.975 23.62 278.282 24.5733 278.282 25.76V32H276.142V26.04C276.142 25.2667 275.942 24.7 275.542 24.34C275.155 23.9667 274.648 23.78 274.022 23.78C273.515 23.78 273.075 23.92 272.702 24.2C272.328 24.4667 272.035 24.8267 271.822 25.28C271.622 25.72 271.522 26.2 271.522 26.72V32H269.362ZM280.748 32V22.12H282.908V30.12H287.608V32H280.748ZM292.453 32.32C291.24 32.32 290.327 31.9533 289.713 31.22C289.1 30.4733 288.793 29.4733 288.793 28.22V22.12H290.953V27.92C290.953 28.7333 291.147 29.34 291.533 29.74C291.92 30.14 292.4 30.34 292.973 30.34C293.507 30.34 293.967 30.2067 294.353 29.94C294.74 29.66 295.04 29.2933 295.253 28.84C295.467 28.3867 295.573 27.9 295.573 27.38V17.68H299.713V19.56H297.713V32H295.693V30.68H295.573C295.293 31.1467 294.873 31.54 294.313 31.86C293.753 32.1667 293.133 32.32 292.453 32.32Z" fill="white"/>
</svg>
