<svg width="288" height="50" viewBox="0 0 288 50" fill="none" xmlns="http://www.w3.org/2000/svg">
<rect x="0.5" y="0.5" width="287" height="49" rx="24.5" fill="#1F1F1F"/>
<rect x="0.5" y="0.5" width="287" height="49" rx="24.5" stroke="#747775"/>
<path d="M51 22H21V17C21 14.2857 23.2018 12 25.8165 12H46.1835C48.7982 12 51 14.2857 51 17V22Z" fill="#34A853"/>
<path d="M51 26.0537H21V21.0537C21 18.3394 23.2018 16.0537 25.8165 16.0537H46.1835C48.7982 16.0537 51 18.3394 51 21.0537V26.0537Z" fill="#FBBC04"/>
<path d="M51 30.2468H21V25.2468C21 22.5325 23.2018 20.2468 25.8165 20.2468H46.1835C48.7982 20.2468 51 22.5325 51 25.2468V30.2468Z" fill="#EA4335"/>
<path d="M21 23.2752L40.0411 27.6789C42.2329 28.2294 44.6986 27.6789 46.4795 26.3028L51 23V33.3211C51 35.9358 48.8082 38 46.2055 38H25.7945C23.1918 38 21 35.9358 21 33.3211V23.2752Z" fill="#4285F4"/>
<path d="M64.62 32V17.68H66.82V29.92H72.98V32H64.62ZM75.0255 32V21.8H77.1855V32H75.0255ZM76.1055 20.3C75.7055 20.3 75.3588 20.16 75.0655 19.88C74.7855 19.5867 74.6455 19.24 74.6455 18.84C74.6455 18.4267 74.7855 18.0867 75.0655 17.82C75.3588 17.54 75.7055 17.4 76.1055 17.4C76.5188 17.4 76.8655 17.54 77.1455 17.82C77.4255 18.0867 77.5655 18.4267 77.5655 18.84C77.5655 19.24 77.4255 19.5867 77.1455 19.88C76.8655 20.16 76.5188 20.3 76.1055 20.3ZM79.8655 32V17.68H82.0255V21.6L81.9055 23.2H82.0255C82.3055 22.7067 82.7321 22.3 83.3055 21.98C83.8921 21.6467 84.5388 21.48 85.2455 21.48C86.0988 21.48 86.8055 21.6533 87.3655 22C87.9388 22.3467 88.3655 22.8267 88.6455 23.44C88.9255 24.04 89.0655 24.7467 89.0655 25.56V32H86.9255V25.84C86.9255 25.2933 86.8188 24.8467 86.6055 24.5C86.4055 24.1533 86.1388 23.8933 85.8055 23.72C85.4721 23.5467 85.0988 23.46 84.6855 23.46C84.1655 23.46 83.7055 23.6067 83.3055 23.9C82.9055 24.1933 82.5921 24.58 82.3655 25.06C82.1388 25.5267 82.0255 26.0267 82.0255 26.56V32H79.8655ZM94.628 32.32C93.8946 32.32 93.2413 32.1733 92.668 31.88C92.108 31.5867 91.6613 31.1867 91.328 30.68C91.008 30.16 90.848 29.5667 90.848 28.9C90.848 28.1667 91.0346 27.5467 91.408 27.04C91.7946 26.5333 92.308 26.1467 92.948 25.88C93.588 25.6133 94.2946 25.48 95.068 25.48C95.4946 25.48 95.888 25.5133 96.248 25.58C96.6213 25.6333 96.9413 25.7 97.208 25.78C97.488 25.86 97.708 25.9467 97.868 26.04V25.5C97.868 24.8333 97.628 24.3 97.148 23.9C96.668 23.5 96.048 23.3 95.288 23.3C94.768 23.3 94.2746 23.42 93.808 23.66C93.3413 23.8867 92.968 24.2 92.688 24.6L91.208 23.46C91.5013 23.0467 91.8546 22.6933 92.268 22.4C92.6946 22.1067 93.168 21.88 93.688 21.72C94.2213 21.56 94.7746 21.48 95.348 21.48C96.828 21.48 97.968 21.8467 98.768 22.58C99.568 23.3 99.968 24.3133 99.968 25.62V32H97.868V30.74H97.748C97.5746 31.0067 97.3346 31.26 97.028 31.5C96.7346 31.74 96.3813 31.9333 95.968 32.08C95.568 32.24 95.1213 32.32 94.628 32.32ZM95.008 30.56C95.568 30.56 96.0613 30.4267 96.488 30.16C96.928 29.8933 97.268 29.5467 97.508 29.12C97.748 28.68 97.868 28.2067 97.868 27.7C97.5746 27.5267 97.2146 27.3867 96.788 27.28C96.3746 27.16 95.9346 27.1 95.468 27.1C94.588 27.1 93.9613 27.2733 93.588 27.62C93.2146 27.9667 93.028 28.4 93.028 28.92C93.028 29.4 93.208 29.7933 93.568 30.1C93.928 30.4067 94.408 30.56 95.008 30.56ZM101.451 21.8H103.231V18.92H105.391V21.8H107.891V23.68H105.391V28.58C105.391 29.0867 105.491 29.4733 105.691 29.74C105.904 30.0067 106.257 30.14 106.751 30.14C106.991 30.14 107.204 30.1067 107.391 30.04C107.577 29.96 107.764 29.8667 107.951 29.76V31.86C107.724 31.9533 107.484 32.0267 107.231 32.08C106.977 32.1333 106.677 32.16 106.331 32.16C105.384 32.16 104.631 31.8867 104.071 31.34C103.511 30.78 103.231 30.0133 103.231 29.04V23.68H101.451V21.8ZM118.991 32.32C118.071 32.32 117.238 32.0867 116.491 31.62C115.744 31.1533 115.158 30.5133 114.731 29.7C114.304 28.8867 114.091 27.9533 114.091 26.9C114.091 25.8467 114.304 24.9133 114.731 24.1C115.158 23.2867 115.744 22.6467 116.491 22.18C117.238 21.7133 118.071 21.48 118.991 21.48C119.524 21.48 120.004 21.56 120.431 21.72C120.858 21.88 121.224 22.0933 121.531 22.36C121.851 22.6133 122.098 22.8867 122.271 23.18H122.391L122.271 21.76V17.68H124.411V32H122.391V30.64H122.271C122.098 30.92 121.851 31.1933 121.531 31.46C121.224 31.7133 120.858 31.92 120.431 32.08C120.004 32.24 119.524 32.32 118.991 32.32ZM119.311 30.34C119.844 30.34 120.344 30.2 120.811 29.92C121.291 29.64 121.671 29.2467 121.951 28.74C122.244 28.22 122.391 27.6067 122.391 26.9C122.391 26.1933 122.244 25.5867 121.951 25.08C121.671 24.56 121.291 24.16 120.811 23.88C120.344 23.6 119.844 23.46 119.311 23.46C118.778 23.46 118.278 23.6 117.811 23.88C117.344 24.16 116.964 24.56 116.671 25.08C116.378 25.5867 116.231 26.1933 116.231 26.9C116.231 27.5933 116.378 28.2 116.671 28.72C116.964 29.24 117.344 29.64 117.811 29.92C118.278 30.2 118.778 30.34 119.311 30.34ZM127.115 32V21.8H129.275V32H127.115ZM128.195 20.3C127.795 20.3 127.449 20.16 127.155 19.88C126.875 19.5867 126.735 19.24 126.735 18.84C126.735 18.4267 126.875 18.0867 127.155 17.82C127.449 17.54 127.795 17.4 128.195 17.4C128.609 17.4 128.955 17.54 129.235 17.82C129.515 18.0867 129.655 18.4267 129.655 18.84C129.655 19.24 129.515 19.5867 129.235 19.88C128.955 20.16 128.609 20.3 128.195 20.3Z" fill="white"/>
<path d="M144.4 32.32C143.373 32.32 142.407 32.1333 141.5 31.76C140.593 31.3867 139.793 30.8667 139.1 30.2C138.42 29.52 137.88 28.7267 137.48 27.82C137.093 26.9 136.9 25.9067 136.9 24.84C136.9 23.7733 137.093 22.7867 137.48 21.88C137.88 20.96 138.42 20.1667 139.1 19.5C139.793 18.82 140.593 18.2933 141.5 17.92C142.407 17.5467 143.373 17.36 144.4 17.36C145.493 17.36 146.5 17.5533 147.42 17.94C148.353 18.3267 149.133 18.8667 149.76 19.56L148.24 21.06C147.933 20.7133 147.58 20.42 147.18 20.18C146.793 19.94 146.367 19.76 145.9 19.64C145.433 19.5067 144.933 19.44 144.4 19.44C143.693 19.44 143.02 19.5667 142.38 19.82C141.74 20.0733 141.173 20.44 140.68 20.92C140.2 21.3867 139.82 21.9533 139.54 22.62C139.26 23.2733 139.12 24.0133 139.12 24.84C139.12 25.6667 139.26 26.4133 139.54 27.08C139.833 27.7333 140.22 28.3 140.7 28.78C141.193 29.2467 141.76 29.6067 142.4 29.86C143.04 30.1133 143.713 30.24 144.42 30.24C145.073 30.24 145.68 30.1467 146.24 29.96C146.813 29.7733 147.313 29.5067 147.74 29.16C148.167 28.8133 148.513 28.3933 148.78 27.9C149.047 27.3933 149.213 26.8267 149.28 26.2H144.38V24.26H151.34C151.367 24.42 151.393 24.6067 151.42 24.82C151.447 25.02 151.46 25.2133 151.46 25.4V25.42C151.46 26.4467 151.28 27.3867 150.92 28.24C150.573 29.0933 150.087 29.8267 149.46 30.44C148.833 31.04 148.087 31.5067 147.22 31.84C146.367 32.16 145.427 32.32 144.4 32.32ZM157.9 32.32C156.847 32.32 155.92 32.08 155.12 31.6C154.32 31.12 153.693 30.4733 153.24 29.66C152.787 28.8333 152.56 27.9133 152.56 26.9C152.56 25.8867 152.787 24.9733 153.24 24.16C153.693 23.3333 154.32 22.68 155.12 22.2C155.92 21.72 156.847 21.48 157.9 21.48C158.94 21.48 159.86 21.7267 160.66 22.22C161.46 22.7 162.087 23.3467 162.54 24.16C162.993 24.9733 163.22 25.8867 163.22 26.9C163.22 27.9133 162.993 28.8333 162.54 29.66C162.087 30.4733 161.46 31.12 160.66 31.6C159.86 32.08 158.94 32.32 157.9 32.32ZM157.9 30.34C158.46 30.34 158.98 30.2067 159.46 29.94C159.94 29.66 160.327 29.2667 160.62 28.76C160.927 28.24 161.08 27.62 161.08 26.9C161.08 26.18 160.927 25.5667 160.62 25.06C160.327 24.54 159.94 24.1467 159.46 23.88C158.98 23.6 158.46 23.46 157.9 23.46C157.34 23.46 156.813 23.6 156.32 23.88C155.84 24.1467 155.447 24.54 155.14 25.06C154.847 25.5667 154.7 26.18 154.7 26.9C154.7 27.62 154.847 28.24 155.14 28.76C155.447 29.2667 155.847 29.66 156.34 29.94C156.833 30.2067 157.353 30.34 157.9 30.34ZM170.009 32.32C168.956 32.32 168.029 32.08 167.229 31.6C166.429 31.12 165.803 30.4733 165.349 29.66C164.896 28.8333 164.669 27.9133 164.669 26.9C164.669 25.8867 164.896 24.9733 165.349 24.16C165.803 23.3333 166.429 22.68 167.229 22.2C168.029 21.72 168.956 21.48 170.009 21.48C171.049 21.48 171.969 21.7267 172.769 22.22C173.569 22.7 174.196 23.3467 174.649 24.16C175.103 24.9733 175.329 25.8867 175.329 26.9C175.329 27.9133 175.103 28.8333 174.649 29.66C174.196 30.4733 173.569 31.12 172.769 31.6C171.969 32.08 171.049 32.32 170.009 32.32ZM170.009 30.34C170.569 30.34 171.089 30.2067 171.569 29.94C172.049 29.66 172.436 29.2667 172.729 28.76C173.036 28.24 173.189 27.62 173.189 26.9C173.189 26.18 173.036 25.5667 172.729 25.06C172.436 24.54 172.049 24.1467 171.569 23.88C171.089 23.6 170.569 23.46 170.009 23.46C169.449 23.46 168.923 23.6 168.429 23.88C167.949 24.1467 167.556 24.54 167.249 25.06C166.956 25.5667 166.809 26.18 166.809 26.9C166.809 27.62 166.956 28.24 167.249 28.76C167.556 29.2667 167.956 29.66 168.449 29.94C168.943 30.2067 169.463 30.34 170.009 30.34ZM181.919 36.64C181.025 36.64 180.252 36.4933 179.599 36.2C178.959 35.92 178.439 35.5533 178.039 35.1C177.639 34.66 177.352 34.2067 177.179 33.74L179.179 32.9C179.392 33.4333 179.732 33.8667 180.199 34.2C180.679 34.5467 181.252 34.72 181.919 34.72C182.865 34.72 183.605 34.44 184.139 33.88C184.672 33.32 184.939 32.5267 184.939 31.5V30.52H184.819C184.499 30.9867 184.059 31.3667 183.499 31.66C182.939 31.9533 182.292 32.1 181.559 32.1C180.692 32.1 179.892 31.88 179.159 31.44C178.439 31 177.859 30.3867 177.419 29.6C176.992 28.8 176.779 27.8667 176.779 26.8C176.779 25.72 176.992 24.7867 177.419 24C177.859 23.2 178.439 22.58 179.159 22.14C179.892 21.7 180.692 21.48 181.559 21.48C182.292 21.48 182.939 21.6267 183.499 21.92C184.059 22.2 184.499 22.5867 184.819 23.08H184.939V21.8H186.999V31.46C186.999 32.5667 186.779 33.5067 186.339 34.28C185.912 35.0533 185.319 35.64 184.559 36.04C183.799 36.44 182.919 36.64 181.919 36.64ZM181.939 30.14C182.472 30.14 182.965 30.0133 183.419 29.76C183.885 29.4933 184.252 29.1133 184.519 28.62C184.799 28.1133 184.939 27.5067 184.939 26.8C184.939 26.0533 184.799 25.4333 184.519 24.94C184.252 24.4467 183.885 24.0733 183.419 23.82C182.965 23.5667 182.472 23.44 181.939 23.44C181.405 23.44 180.905 23.5667 180.439 23.82C179.985 24.0733 179.619 24.4533 179.339 24.96C179.059 25.4533 178.919 26.0667 178.919 26.8C178.919 27.52 179.059 28.1333 179.339 28.64C179.619 29.1333 179.985 29.5067 180.439 29.76C180.905 30.0133 181.405 30.14 181.939 30.14ZM189.546 32V17.68H191.706V32H189.546ZM198.815 32.32C197.815 32.32 196.921 32.0867 196.135 31.62C195.348 31.1533 194.728 30.5133 194.275 29.7C193.835 28.8867 193.615 27.96 193.615 26.92C193.615 25.9467 193.828 25.0467 194.255 24.22C194.681 23.3933 195.275 22.7333 196.035 22.24C196.808 21.7333 197.695 21.48 198.695 21.48C199.748 21.48 200.641 21.7067 201.375 22.16C202.121 22.6133 202.688 23.2333 203.075 24.02C203.461 24.8067 203.655 25.6933 203.655 26.68C203.655 26.8267 203.648 26.96 203.635 27.08C203.635 27.2 203.628 27.2933 203.615 27.36H195.735C195.788 27.92 195.928 28.4067 196.155 28.82C196.448 29.34 196.835 29.7333 197.315 30C197.795 30.2667 198.315 30.4 198.875 30.4C199.555 30.4 200.121 30.2467 200.575 29.94C201.041 29.62 201.408 29.2267 201.675 28.76L203.455 29.62C203.015 30.42 202.415 31.0733 201.655 31.58C200.895 32.0733 199.948 32.32 198.815 32.32ZM195.855 25.74H201.515C201.501 25.4867 201.435 25.22 201.315 24.94C201.195 24.6467 201.021 24.38 200.795 24.14C200.568 23.9 200.281 23.7067 199.935 23.56C199.588 23.4 199.181 23.32 198.715 23.32C198.128 23.32 197.608 23.4733 197.155 23.78C196.701 24.0733 196.348 24.4867 196.095 25.02C195.988 25.2467 195.908 25.4867 195.855 25.74ZM212.446 32L208.606 17.68H211.046L213.326 26.98L213.566 28.22H213.686L213.986 26.98L216.866 17.68H219.066L221.826 26.98L222.126 28.2H222.246L222.486 26.98L224.766 17.68H227.186L223.406 32H221.086L218.346 22.5L218.026 21.16H217.906L217.566 22.5L214.706 32H212.446ZM231.202 32.32C230.469 32.32 229.816 32.1733 229.242 31.88C228.682 31.5867 228.236 31.1867 227.902 30.68C227.582 30.16 227.422 29.5667 227.422 28.9C227.422 28.1667 227.609 27.5467 227.982 27.04C228.369 26.5333 228.882 26.1467 229.522 25.88C230.162 25.6133 230.869 25.48 231.642 25.48C232.069 25.48 232.462 25.5133 232.822 25.58C233.196 25.6333 233.516 25.7 233.782 25.78C234.062 25.86 234.282 25.9467 234.442 26.04V25.5C234.442 24.8333 234.202 24.3 233.722 23.9C233.242 23.5 232.622 23.3 231.862 23.3C231.342 23.3 230.849 23.42 230.382 23.66C229.916 23.8867 229.542 24.2 229.262 24.6L227.782 23.46C228.076 23.0467 228.429 22.6933 228.842 22.4C229.269 22.1067 229.742 21.88 230.262 21.72C230.796 21.56 231.349 21.48 231.922 21.48C233.402 21.48 234.542 21.8467 235.342 22.58C236.142 23.3 236.542 24.3133 236.542 25.62V32H234.442V30.74H234.322C234.149 31.0067 233.909 31.26 233.602 31.5C233.309 31.74 232.956 31.9333 232.542 32.08C232.142 32.24 231.696 32.32 231.202 32.32ZM231.582 30.56C232.142 30.56 232.636 30.4267 233.062 30.16C233.502 29.8933 233.842 29.5467 234.082 29.12C234.322 28.68 234.442 28.2067 234.442 27.7C234.149 27.5267 233.789 27.3867 233.362 27.28C232.949 27.16 232.509 27.1 232.042 27.1C231.162 27.1 230.536 27.2733 230.162 27.62C229.789 27.9667 229.602 28.4 229.602 28.92C229.602 29.4 229.782 29.7933 230.142 30.1C230.502 30.4067 230.982 30.56 231.582 30.56ZM238.94 32V17.68H241.1V32H238.94ZM243.667 32V17.68H245.827V32H243.667ZM252.936 32.32C251.936 32.32 251.042 32.0867 250.256 31.62C249.469 31.1533 248.849 30.5133 248.396 29.7C247.956 28.8867 247.736 27.96 247.736 26.92C247.736 25.9467 247.949 25.0467 248.376 24.22C248.802 23.3933 249.396 22.7333 250.156 22.24C250.929 21.7333 251.816 21.48 252.816 21.48C253.869 21.48 254.762 21.7067 255.496 22.16C256.242 22.6133 256.809 23.2333 257.196 24.02C257.582 24.8067 257.776 25.6933 257.776 26.68C257.776 26.8267 257.769 26.96 257.756 27.08C257.756 27.2 257.749 27.2933 257.736 27.36H249.856C249.909 27.92 250.049 28.4067 250.276 28.82C250.569 29.34 250.956 29.7333 251.436 30C251.916 30.2667 252.436 30.4 252.996 30.4C253.676 30.4 254.242 30.2467 254.696 29.94C255.162 29.62 255.529 29.2267 255.796 28.76L257.576 29.62C257.136 30.42 256.536 31.0733 255.776 31.58C255.016 32.0733 254.069 32.32 252.936 32.32ZM249.976 25.74H255.636C255.622 25.4867 255.556 25.22 255.436 24.94C255.316 24.6467 255.142 24.38 254.916 24.14C254.689 23.9 254.402 23.7067 254.056 23.56C253.709 23.4 253.302 23.32 252.836 23.32C252.249 23.32 251.729 23.4733 251.276 23.78C250.822 24.0733 250.469 24.4867 250.216 25.02C250.109 25.2467 250.029 25.4867 249.976 25.74ZM258.787 21.8H260.567V18.92H262.727V21.8H265.227V23.68H262.727V28.58C262.727 29.0867 262.827 29.4733 263.027 29.74C263.24 30.0067 263.593 30.14 264.087 30.14C264.327 30.14 264.54 30.1067 264.727 30.04C264.913 29.96 265.1 29.8667 265.287 29.76V31.86C265.06 31.9533 264.82 32.0267 264.567 32.08C264.313 32.1333 264.013 32.16 263.667 32.16C262.72 32.16 261.967 31.8867 261.407 31.34C260.847 30.78 260.567 30.0133 260.567 29.04V23.68H258.787V21.8Z" fill="white"/>
</svg>
