<svg width="282" height="50" viewBox="0 0 282 50" fill="none" xmlns="http://www.w3.org/2000/svg">
<rect x="0.5" y="0.5" width="281" height="49" rx="24.5" fill="#1F1F1F"/>
<rect x="0.5" y="0.5" width="281" height="49" rx="24.5" stroke="#747775"/>
<path d="M51 22H21V17C21 14.2857 23.2018 12 25.8165 12H46.1835C48.7982 12 51 14.2857 51 17V22Z" fill="#34A853"/>
<path d="M51 26.0537H21V21.0537C21 18.3394 23.2018 16.0537 25.8165 16.0537H46.1835C48.7982 16.0537 51 18.3394 51 21.0537V26.0537Z" fill="#FBBC04"/>
<path d="M51 30.2468H21V25.2468C21 22.5325 23.2018 20.2468 25.8165 20.2468H46.1835C48.7982 20.2468 51 22.5325 51 25.2468V30.2468Z" fill="#EA4335"/>
<path d="M21 23.2752L40.0411 27.6789C42.2329 28.2294 44.6986 27.6789 46.4795 26.3028L51 23V33.3211C51 35.9358 48.8082 38 46.2055 38H25.7945C23.1918 38 21 35.9358 21 33.3211V23.2752Z" fill="#4285F4"/>
<path d="M68.78 32.32C68.02 32.32 67.2933 32.1733 66.6 31.88C65.9067 31.5733 65.2933 31.1267 64.76 30.54C64.24 29.9533 63.8533 29.2267 63.6 28.36L65.68 27.52C65.8933 28.2933 66.2667 28.94 66.8 29.46C67.3333 29.98 68 30.24 68.8 30.24C69.2533 30.24 69.6733 30.16 70.06 30C70.46 29.84 70.78 29.6067 71.02 29.3C71.26 28.98 71.38 28.5933 71.38 28.14C71.38 27.7133 71.28 27.3533 71.08 27.06C70.88 26.7533 70.56 26.48 70.12 26.24C69.68 25.9867 69.12 25.74 68.44 25.5L67.54 25.18C67.1533 25.0333 66.76 24.8533 66.36 24.64C65.96 24.4267 65.5867 24.1667 65.24 23.86C64.9067 23.54 64.64 23.1667 64.44 22.74C64.24 22.3133 64.14 21.82 64.14 21.26C64.14 20.54 64.3267 19.8867 64.7 19.3C65.0867 18.7133 65.6133 18.2467 66.28 17.9C66.96 17.54 67.7467 17.36 68.64 17.36C69.56 17.36 70.3267 17.5267 70.94 17.86C71.5667 18.18 72.0533 18.5667 72.4 19.02C72.76 19.4733 73.0067 19.9067 73.14 20.32L71.16 21.16C71.08 20.88 70.9333 20.6067 70.72 20.34C70.52 20.0733 70.2467 19.8533 69.9 19.68C69.5667 19.4933 69.1533 19.4 68.66 19.4C68.2333 19.4 67.84 19.48 67.48 19.64C67.1333 19.8 66.8533 20.02 66.64 20.3C66.4267 20.5667 66.32 20.88 66.32 21.24C66.32 21.76 66.5333 22.1867 66.96 22.52C67.3867 22.84 68.0067 23.1333 68.82 23.4L69.74 23.72C70.2067 23.88 70.6667 24.0733 71.12 24.3C71.5733 24.5133 71.9867 24.7933 72.36 25.14C72.7333 25.4733 73.0267 25.8867 73.24 26.38C73.4667 26.86 73.58 27.4333 73.58 28.1C73.58 28.8333 73.4333 29.4733 73.14 30.02C72.86 30.5533 72.48 30.9933 72 31.34C71.5333 31.6733 71.0133 31.92 70.44 32.08C69.88 32.24 69.3267 32.32 68.78 32.32ZM75.7639 32V17.68H77.9239V26.12L82.2439 21.8H84.9239V21.92L80.9839 25.82L85.0639 31.88V32H82.5039L79.4639 27.32L77.9239 28.84V32H75.7639ZM90.9155 32.32C89.8621 32.32 88.9355 32.08 88.1355 31.6C87.3355 31.12 86.7088 30.4733 86.2555 29.66C85.8021 28.8333 85.5755 27.9133 85.5755 26.9C85.5755 25.8867 85.8021 24.9733 86.2555 24.16C86.7088 23.3333 87.3355 22.68 88.1355 22.2C88.9355 21.72 89.8621 21.48 90.9155 21.48C91.9555 21.48 92.8755 21.7267 93.6755 22.22C94.4755 22.7 95.1021 23.3467 95.5555 24.16C96.0088 24.9733 96.2355 25.8867 96.2355 26.9C96.2355 27.9133 96.0088 28.8333 95.5555 29.66C95.1021 30.4733 94.4755 31.12 93.6755 31.6C92.8755 32.08 91.9555 32.32 90.9155 32.32ZM90.9155 30.34C91.4755 30.34 91.9955 30.2067 92.4755 29.94C92.9555 29.66 93.3421 29.2667 93.6355 28.76C93.9421 28.24 94.0955 27.62 94.0955 26.9C94.0955 26.18 93.9421 25.5667 93.6355 25.06C93.3421 24.54 92.9555 24.1467 92.4755 23.88C91.9955 23.6 91.4755 23.46 90.9155 23.46C90.3555 23.46 89.8288 23.6 89.3355 23.88C88.8555 24.1467 88.4621 24.54 88.1555 25.06C87.8621 25.5667 87.7155 26.18 87.7155 26.9C87.7155 27.62 87.8621 28.24 88.1555 28.76C88.4621 29.2667 88.8621 29.66 89.3555 29.94C89.8488 30.2067 90.3688 30.34 90.9155 30.34ZM102.845 32.32C101.925 32.32 101.085 32.0933 100.325 31.64C99.5782 31.1733 98.9848 30.5533 98.5448 29.78C98.1048 29.0067 97.8848 28.1533 97.8848 27.22C97.8848 26.2333 98.1115 25.3667 98.5648 24.62C99.0182 23.86 99.6048 23.2667 100.325 22.84C101.058 22.4 101.832 22.18 102.645 22.18C103.245 22.18 103.752 22.2867 104.165 22.5C104.592 22.7 104.912 22.9067 105.125 23.12L105.245 23.04C105.072 22.5733 104.785 22.1267 104.385 21.7C104.092 21.38 103.758 21.08 103.385 20.8L100.965 21.88L100.365 20.46L101.805 19.82C101.658 19.74 101.512 19.6733 101.365 19.62C100.792 19.3667 100.252 19.1933 99.7448 19.1L100.425 17.4C101.158 17.56 101.885 17.8133 102.605 18.16C103.058 18.36 103.492 18.6067 103.905 18.9L105.925 18L106.525 19.4L105.225 19.98C105.625 20.3667 105.992 20.8 106.325 21.28C106.818 22 107.205 22.82 107.485 23.74C107.765 24.66 107.905 25.6867 107.905 26.82C107.905 27.9133 107.685 28.8733 107.245 29.7C106.818 30.5267 106.225 31.1733 105.465 31.64C104.705 32.0933 103.832 32.32 102.845 32.32ZM102.865 30.34C103.412 30.34 103.898 30.2133 104.325 29.96C104.765 29.6933 105.112 29.3267 105.365 28.86C105.618 28.3933 105.745 27.8533 105.745 27.24C105.745 26.6133 105.618 26.0667 105.365 25.6C105.112 25.1333 104.765 24.7733 104.325 24.52C103.898 24.2533 103.418 24.12 102.885 24.12C102.352 24.12 101.865 24.2533 101.425 24.52C100.998 24.7733 100.652 25.1333 100.385 25.6C100.132 26.0667 100.005 26.6067 100.005 27.22C100.005 27.8467 100.132 28.3933 100.385 28.86C100.638 29.3267 100.978 29.6933 101.405 29.96C101.845 30.2133 102.332 30.34 102.865 30.34ZM113.28 32.32C112.547 32.32 111.894 32.1733 111.32 31.88C110.76 31.5867 110.314 31.1867 109.98 30.68C109.66 30.16 109.5 29.5667 109.5 28.9C109.5 28.1667 109.687 27.5467 110.06 27.04C110.447 26.5333 110.96 26.1467 111.6 25.88C112.24 25.6133 112.947 25.48 113.72 25.48C114.147 25.48 114.54 25.5133 114.9 25.58C115.274 25.6333 115.594 25.7 115.86 25.78C116.14 25.86 116.36 25.9467 116.52 26.04V25.5C116.52 24.8333 116.28 24.3 115.8 23.9C115.32 23.5 114.7 23.3 113.94 23.3C113.42 23.3 112.927 23.42 112.46 23.66C111.994 23.8867 111.62 24.2 111.34 24.6L109.86 23.46C110.154 23.0467 110.507 22.6933 110.92 22.4C111.347 22.1067 111.82 21.88 112.34 21.72C112.874 21.56 113.427 21.48 114 21.48C115.48 21.48 116.62 21.8467 117.42 22.58C118.22 23.3 118.62 24.3133 118.62 25.62V32H116.52V30.74H116.4C116.227 31.0067 115.987 31.26 115.68 31.5C115.387 31.74 115.034 31.9333 114.62 32.08C114.22 32.24 113.774 32.32 113.28 32.32ZM113.66 30.56C114.22 30.56 114.714 30.4267 115.14 30.16C115.58 29.8933 115.92 29.5467 116.16 29.12C116.4 28.68 116.52 28.2067 116.52 27.7C116.227 27.5267 115.867 27.3867 115.44 27.28C115.027 27.16 114.587 27.1 114.12 27.1C113.24 27.1 112.614 27.2733 112.24 27.62C111.867 27.9667 111.68 28.4 111.68 28.92C111.68 29.4 111.86 29.7933 112.22 30.1C112.58 30.4067 113.06 30.56 113.66 30.56ZM125.826 32V21.8H127.986V32H125.826ZM126.026 19.84L126.966 17.28H129.406L127.806 19.84H126.026Z" fill="white"/>
<path d="M143.4 32.32C142.373 32.32 141.407 32.1333 140.5 31.76C139.593 31.3867 138.793 30.8667 138.1 30.2C137.42 29.52 136.88 28.7267 136.48 27.82C136.093 26.9 135.9 25.9067 135.9 24.84C135.9 23.7733 136.093 22.7867 136.48 21.88C136.88 20.96 137.42 20.1667 138.1 19.5C138.793 18.82 139.593 18.2933 140.5 17.92C141.407 17.5467 142.373 17.36 143.4 17.36C144.493 17.36 145.5 17.5533 146.42 17.94C147.353 18.3267 148.133 18.8667 148.76 19.56L147.24 21.06C146.933 20.7133 146.58 20.42 146.18 20.18C145.793 19.94 145.367 19.76 144.9 19.64C144.433 19.5067 143.933 19.44 143.4 19.44C142.693 19.44 142.02 19.5667 141.38 19.82C140.74 20.0733 140.173 20.44 139.68 20.92C139.2 21.3867 138.82 21.9533 138.54 22.62C138.26 23.2733 138.12 24.0133 138.12 24.84C138.12 25.6667 138.26 26.4133 138.54 27.08C138.833 27.7333 139.22 28.3 139.7 28.78C140.193 29.2467 140.76 29.6067 141.4 29.86C142.04 30.1133 142.713 30.24 143.42 30.24C144.073 30.24 144.68 30.1467 145.24 29.96C145.813 29.7733 146.313 29.5067 146.74 29.16C147.167 28.8133 147.513 28.3933 147.78 27.9C148.047 27.3933 148.213 26.8267 148.28 26.2H143.38V24.26H150.34C150.367 24.42 150.393 24.6067 150.42 24.82C150.447 25.02 150.46 25.2133 150.46 25.4V25.42C150.46 26.4467 150.28 27.3867 149.92 28.24C149.573 29.0933 149.087 29.8267 148.46 30.44C147.833 31.04 147.087 31.5067 146.22 31.84C145.367 32.16 144.427 32.32 143.4 32.32ZM156.9 32.32C155.847 32.32 154.92 32.08 154.12 31.6C153.32 31.12 152.693 30.4733 152.24 29.66C151.787 28.8333 151.56 27.9133 151.56 26.9C151.56 25.8867 151.787 24.9733 152.24 24.16C152.693 23.3333 153.32 22.68 154.12 22.2C154.92 21.72 155.847 21.48 156.9 21.48C157.94 21.48 158.86 21.7267 159.66 22.22C160.46 22.7 161.087 23.3467 161.54 24.16C161.993 24.9733 162.22 25.8867 162.22 26.9C162.22 27.9133 161.993 28.8333 161.54 29.66C161.087 30.4733 160.46 31.12 159.66 31.6C158.86 32.08 157.94 32.32 156.9 32.32ZM156.9 30.34C157.46 30.34 157.98 30.2067 158.46 29.94C158.94 29.66 159.327 29.2667 159.62 28.76C159.927 28.24 160.08 27.62 160.08 26.9C160.08 26.18 159.927 25.5667 159.62 25.06C159.327 24.54 158.94 24.1467 158.46 23.88C157.98 23.6 157.46 23.46 156.9 23.46C156.34 23.46 155.813 23.6 155.32 23.88C154.84 24.1467 154.447 24.54 154.14 25.06C153.847 25.5667 153.7 26.18 153.7 26.9C153.7 27.62 153.847 28.24 154.14 28.76C154.447 29.2667 154.847 29.66 155.34 29.94C155.833 30.2067 156.353 30.34 156.9 30.34ZM169.009 32.32C167.956 32.32 167.029 32.08 166.229 31.6C165.429 31.12 164.803 30.4733 164.349 29.66C163.896 28.8333 163.669 27.9133 163.669 26.9C163.669 25.8867 163.896 24.9733 164.349 24.16C164.803 23.3333 165.429 22.68 166.229 22.2C167.029 21.72 167.956 21.48 169.009 21.48C170.049 21.48 170.969 21.7267 171.769 22.22C172.569 22.7 173.196 23.3467 173.649 24.16C174.103 24.9733 174.329 25.8867 174.329 26.9C174.329 27.9133 174.103 28.8333 173.649 29.66C173.196 30.4733 172.569 31.12 171.769 31.6C170.969 32.08 170.049 32.32 169.009 32.32ZM169.009 30.34C169.569 30.34 170.089 30.2067 170.569 29.94C171.049 29.66 171.436 29.2667 171.729 28.76C172.036 28.24 172.189 27.62 172.189 26.9C172.189 26.18 172.036 25.5667 171.729 25.06C171.436 24.54 171.049 24.1467 170.569 23.88C170.089 23.6 169.569 23.46 169.009 23.46C168.449 23.46 167.923 23.6 167.429 23.88C166.949 24.1467 166.556 24.54 166.249 25.06C165.956 25.5667 165.809 26.18 165.809 26.9C165.809 27.62 165.956 28.24 166.249 28.76C166.556 29.2667 166.956 29.66 167.449 29.94C167.943 30.2067 168.463 30.34 169.009 30.34ZM180.919 36.64C180.025 36.64 179.252 36.4933 178.599 36.2C177.959 35.92 177.439 35.5533 177.039 35.1C176.639 34.66 176.352 34.2067 176.179 33.74L178.179 32.9C178.392 33.4333 178.732 33.8667 179.199 34.2C179.679 34.5467 180.252 34.72 180.919 34.72C181.865 34.72 182.605 34.44 183.139 33.88C183.672 33.32 183.939 32.5267 183.939 31.5V30.52H183.819C183.499 30.9867 183.059 31.3667 182.499 31.66C181.939 31.9533 181.292 32.1 180.559 32.1C179.692 32.1 178.892 31.88 178.159 31.44C177.439 31 176.859 30.3867 176.419 29.6C175.992 28.8 175.779 27.8667 175.779 26.8C175.779 25.72 175.992 24.7867 176.419 24C176.859 23.2 177.439 22.58 178.159 22.14C178.892 21.7 179.692 21.48 180.559 21.48C181.292 21.48 181.939 21.6267 182.499 21.92C183.059 22.2 183.499 22.5867 183.819 23.08H183.939V21.8H185.999V31.46C185.999 32.5667 185.779 33.5067 185.339 34.28C184.912 35.0533 184.319 35.64 183.559 36.04C182.799 36.44 181.919 36.64 180.919 36.64ZM180.939 30.14C181.472 30.14 181.965 30.0133 182.419 29.76C182.885 29.4933 183.252 29.1133 183.519 28.62C183.799 28.1133 183.939 27.5067 183.939 26.8C183.939 26.0533 183.799 25.4333 183.519 24.94C183.252 24.4467 182.885 24.0733 182.419 23.82C181.965 23.5667 181.472 23.44 180.939 23.44C180.405 23.44 179.905 23.5667 179.439 23.82C178.985 24.0733 178.619 24.4533 178.339 24.96C178.059 25.4533 177.919 26.0667 177.919 26.8C177.919 27.52 178.059 28.1333 178.339 28.64C178.619 29.1333 178.985 29.5067 179.439 29.76C179.905 30.0133 180.405 30.14 180.939 30.14ZM188.546 32V17.68H190.706V32H188.546ZM197.815 32.32C196.815 32.32 195.921 32.0867 195.135 31.62C194.348 31.1533 193.728 30.5133 193.275 29.7C192.835 28.8867 192.615 27.96 192.615 26.92C192.615 25.9467 192.828 25.0467 193.255 24.22C193.681 23.3933 194.275 22.7333 195.035 22.24C195.808 21.7333 196.695 21.48 197.695 21.48C198.748 21.48 199.641 21.7067 200.375 22.16C201.121 22.6133 201.688 23.2333 202.075 24.02C202.461 24.8067 202.655 25.6933 202.655 26.68C202.655 26.8267 202.648 26.96 202.635 27.08C202.635 27.2 202.628 27.2933 202.615 27.36H194.735C194.788 27.92 194.928 28.4067 195.155 28.82C195.448 29.34 195.835 29.7333 196.315 30C196.795 30.2667 197.315 30.4 197.875 30.4C198.555 30.4 199.121 30.2467 199.575 29.94C200.041 29.62 200.408 29.2267 200.675 28.76L202.455 29.62C202.015 30.42 201.415 31.0733 200.655 31.58C199.895 32.0733 198.948 32.32 197.815 32.32ZM194.855 25.74H200.515C200.501 25.4867 200.435 25.22 200.315 24.94C200.195 24.6467 200.021 24.38 199.795 24.14C199.568 23.9 199.281 23.7067 198.935 23.56C198.588 23.4 198.181 23.32 197.715 23.32C197.128 23.32 196.608 23.4733 196.155 23.78C195.701 24.0733 195.348 24.4867 195.095 25.02C194.988 25.2467 194.908 25.4867 194.855 25.74ZM204.638 26.72V24.88H211.198V26.72H204.638ZM216.821 32L212.601 21.8H215.001L217.861 29.22H217.961L220.881 21.8H223.241L218.981 32H216.821ZM229.006 32.32C228.006 32.32 227.113 32.0867 226.326 31.62C225.539 31.1533 224.919 30.5133 224.466 29.7C224.026 28.8867 223.806 27.96 223.806 26.92C223.806 25.9467 224.019 25.0467 224.446 24.22C224.873 23.3933 225.466 22.7333 226.226 22.24C226.999 21.7333 227.886 21.48 228.886 21.48C229.939 21.48 230.833 21.7067 231.566 22.16C232.313 22.6133 232.879 23.2333 233.266 24.02C233.653 24.8067 233.846 25.6933 233.846 26.68C233.846 26.8267 233.839 26.96 233.826 27.08C233.826 27.2 233.819 27.2933 233.806 27.36H225.926C225.979 27.92 226.119 28.4067 226.346 28.82C226.639 29.34 227.026 29.7333 227.506 30C227.986 30.2667 228.506 30.4 229.066 30.4C229.746 30.4 230.313 30.2467 230.766 29.94C231.233 29.62 231.599 29.2267 231.866 28.76L233.646 29.62C233.206 30.42 232.606 31.0733 231.846 31.58C231.086 32.0733 230.139 32.32 229.006 32.32ZM226.046 25.74H231.706C231.693 25.4867 231.626 25.22 231.506 24.94C231.386 24.6467 231.213 24.38 230.986 24.14C230.759 23.9 230.473 23.7067 230.126 23.56C229.779 23.4 229.373 23.32 228.906 23.32C228.319 23.32 227.799 23.4733 227.346 23.78C226.893 24.0733 226.539 24.4867 226.286 25.02C226.179 25.2467 226.099 25.4867 226.046 25.74ZM239.668 32.32C238.854 32.32 238.148 32.2 237.548 31.96C236.948 31.7067 236.454 31.3733 236.068 30.96C235.681 30.5333 235.394 30.0733 235.208 29.58L237.148 28.74C237.388 29.2867 237.728 29.7067 238.168 30C238.621 30.28 239.141 30.42 239.728 30.42C240.261 30.42 240.721 30.3267 241.108 30.14C241.494 29.94 241.688 29.62 241.688 29.18C241.688 28.9 241.594 28.6733 241.408 28.5C241.234 28.3133 240.994 28.16 240.688 28.04C240.394 27.92 240.054 27.8133 239.668 27.72L238.448 27.44C237.968 27.32 237.508 27.1333 237.068 26.88C236.641 26.6133 236.294 26.28 236.028 25.88C235.761 25.48 235.628 25.0067 235.628 24.46C235.628 23.8467 235.801 23.32 236.148 22.88C236.508 22.4267 236.988 22.08 237.588 21.84C238.188 21.6 238.834 21.48 239.528 21.48C240.168 21.48 240.748 21.5667 241.268 21.74C241.801 21.9 242.261 22.1467 242.648 22.48C243.048 22.8 243.361 23.2 243.588 23.68L241.728 24.52C241.501 24.0667 241.194 23.7533 240.808 23.58C240.421 23.3933 240.001 23.3 239.548 23.3C239.041 23.3 238.614 23.4067 238.268 23.62C237.934 23.82 237.768 24.0867 237.768 24.42C237.768 24.7667 237.914 25.04 238.208 25.24C238.514 25.44 238.888 25.6 239.328 25.72L240.808 26.08C241.821 26.3333 242.581 26.72 243.088 27.24C243.594 27.7467 243.848 28.3667 243.848 29.1C243.848 29.7533 243.661 30.3267 243.288 30.82C242.914 31.3 242.408 31.6733 241.768 31.94C241.141 32.1933 240.441 32.32 239.668 32.32ZM245.733 32V17.68H247.893V26.12L252.213 21.8H254.893V21.92L250.953 25.82L255.033 31.88V32H252.473L249.433 27.32L247.893 28.84V32H245.733ZM256.537 32V21.8H258.697V32H256.537ZM257.617 20.3C257.217 20.3 256.871 20.16 256.577 19.88C256.297 19.5867 256.157 19.24 256.157 18.84C256.157 18.4267 256.297 18.0867 256.577 17.82C256.871 17.54 257.217 17.4 257.617 17.4C258.031 17.4 258.377 17.54 258.657 17.82C258.937 18.0867 259.077 18.4267 259.077 18.84C259.077 19.24 258.937 19.5867 258.657 19.88C258.377 20.16 258.031 20.3 257.617 20.3Z" fill="white"/>
</svg>
