<svg width="332" height="50" viewBox="0 0 332 50" fill="none" xmlns="http://www.w3.org/2000/svg">
<rect x="0.5" y="0.5" width="331" height="49" rx="24.5" fill="#1F1F1F"/>
<rect x="0.5" y="0.5" width="331" height="49" rx="24.5" stroke="#747775"/>
<path d="M51 22H21V17C21 14.2857 23.2018 12 25.8165 12H46.1835C48.7982 12 51 14.2857 51 17V22Z" fill="#34A853"/>
<path d="M51 26.0537H21V21.0537C21 18.3394 23.2018 16.0537 25.8165 16.0537H46.1835C48.7982 16.0537 51 18.3394 51 21.0537V26.0537Z" fill="#FBBC04"/>
<path d="M51 30.2468H21V25.2468C21 22.5325 23.2018 20.2468 25.8165 20.2468H46.1835C48.7982 20.2468 51 22.5325 51 25.2468V30.2468Z" fill="#EA4335"/>
<path d="M21 23.2752L40.0411 27.6789C42.2329 28.2294 44.6986 27.6789 46.4795 26.3028L51 23V33.3211C51 35.9358 48.8082 38 46.2055 38H25.7945C23.1918 38 21 35.9358 21 33.3211V23.2752Z" fill="#4285F4"/>
<path d="M68.36 32L63.28 17.68H65.68L68.92 27.2L69.42 28.82H69.54L70.08 27.2L73.46 17.68H75.86L70.64 32H68.36ZM77.1739 32V21.8H79.3339V32H77.1739ZM78.2539 20.3C77.8539 20.3 77.5072 20.16 77.2139 19.88C76.9339 19.5867 76.7939 19.24 76.7939 18.84C76.7939 18.4267 76.9339 18.0867 77.2139 17.82C77.5072 17.54 77.8539 17.4 78.2539 17.4C78.6672 17.4 79.0139 17.54 79.2939 17.82C79.5739 18.0867 79.7139 18.4267 79.7139 18.84C79.7139 19.24 79.5739 19.5867 79.2939 19.88C79.0139 20.16 78.6672 20.3 78.2539 20.3ZM85.7339 32.32C84.9206 32.32 84.2139 32.2 83.6139 31.96C83.0139 31.7067 82.5206 31.3733 82.1339 30.96C81.7472 30.5333 81.4606 30.0733 81.2739 29.58L83.2139 28.74C83.4539 29.2867 83.7939 29.7067 84.2339 30C84.6872 30.28 85.2072 30.42 85.7939 30.42C86.3272 30.42 86.7872 30.3267 87.1739 30.14C87.5606 29.94 87.7539 29.62 87.7539 29.18C87.7539 28.9 87.6606 28.6733 87.4739 28.5C87.3006 28.3133 87.0606 28.16 86.7539 28.04C86.4606 27.92 86.1206 27.8133 85.7339 27.72L84.5139 27.44C84.0339 27.32 83.5739 27.1333 83.1339 26.88C82.7072 26.6133 82.3606 26.28 82.0939 25.88C81.8272 25.48 81.6939 25.0067 81.6939 24.46C81.6939 23.8467 81.8672 23.32 82.2139 22.88C82.5739 22.4267 83.0539 22.08 83.6539 21.84C84.2539 21.6 84.9006 21.48 85.5939 21.48C86.2339 21.48 86.8139 21.5667 87.3339 21.74C87.8672 21.9 88.3272 22.1467 88.7139 22.48C89.1139 22.8 89.4272 23.2 89.6539 23.68L87.7939 24.52C87.5672 24.0667 87.2606 23.7533 86.8739 23.58C86.4872 23.3933 86.0672 23.3 85.6139 23.3C85.1072 23.3 84.6806 23.4067 84.3339 23.62C84.0006 23.82 83.8339 24.0867 83.8339 24.42C83.8339 24.7667 83.9806 25.04 84.2739 25.24C84.5806 25.44 84.9539 25.6 85.3939 25.72L86.8739 26.08C87.8872 26.3333 88.6472 26.72 89.1539 27.24C89.6606 27.7467 89.9139 28.3667 89.9139 29.1C89.9139 29.7533 89.7272 30.3267 89.3539 30.82C88.9806 31.3 88.4739 31.6733 87.8339 31.94C87.2072 32.1933 86.5072 32.32 85.7339 32.32ZM95.4991 32.32C94.2457 32.32 93.2991 31.9467 92.6591 31.2C92.0324 30.44 91.7191 29.4133 91.7191 28.12V21.8H93.8791V27.82C93.8791 28.6733 94.0791 29.3067 94.4791 29.72C94.8924 30.1333 95.4057 30.34 96.0191 30.34C96.5791 30.34 97.0591 30.2 97.4591 29.92C97.8591 29.6267 98.1657 29.2467 98.3791 28.78C98.6057 28.3133 98.7191 27.8133 98.7191 27.28V21.8H100.859V32H98.8391V30.62H98.7191C98.5324 30.94 98.2724 31.2267 97.9391 31.48C97.6057 31.7333 97.2324 31.9333 96.8191 32.08C96.4057 32.24 95.9657 32.32 95.4991 32.32ZM106.503 32.32C105.77 32.32 105.116 32.1733 104.543 31.88C103.983 31.5867 103.536 31.1867 103.203 30.68C102.883 30.16 102.723 29.5667 102.723 28.9C102.723 28.1667 102.91 27.5467 103.283 27.04C103.67 26.5333 104.183 26.1467 104.823 25.88C105.463 25.6133 106.17 25.48 106.943 25.48C107.37 25.48 107.763 25.5133 108.123 25.58C108.496 25.6333 108.816 25.7 109.083 25.78C109.363 25.86 109.583 25.9467 109.743 26.04V25.5C109.743 24.8333 109.503 24.3 109.023 23.9C108.543 23.5 107.923 23.3 107.163 23.3C106.643 23.3 106.15 23.42 105.683 23.66C105.216 23.8867 104.843 24.2 104.563 24.6L103.083 23.46C103.376 23.0467 103.73 22.6933 104.143 22.4C104.57 22.1067 105.043 21.88 105.563 21.72C106.096 21.56 106.65 21.48 107.223 21.48C108.703 21.48 109.843 21.8467 110.643 22.58C111.443 23.3 111.843 24.3133 111.843 25.62V32H109.743V30.74H109.623C109.45 31.0067 109.21 31.26 108.903 31.5C108.61 31.74 108.256 31.9333 107.843 32.08C107.443 32.24 106.996 32.32 106.503 32.32ZM106.883 30.56C107.443 30.56 107.936 30.4267 108.363 30.16C108.803 29.8933 109.143 29.5467 109.383 29.12C109.623 28.68 109.743 28.2067 109.743 27.7C109.45 27.5267 109.09 27.3867 108.663 27.28C108.25 27.16 107.81 27.1 107.343 27.1C106.463 27.1 105.836 27.2733 105.463 27.62C105.09 27.9667 104.903 28.4 104.903 28.92C104.903 29.4 105.083 29.7933 105.443 30.1C105.803 30.4067 106.283 30.56 106.883 30.56ZM114.241 32V17.68H116.401V32H114.241ZM119.108 32V21.8H121.268V32H119.108ZM120.188 20.3C119.788 20.3 119.441 20.16 119.148 19.88C118.868 19.5867 118.728 19.24 118.728 18.84C118.728 18.4267 118.868 18.0867 119.148 17.82C119.441 17.54 119.788 17.4 120.188 17.4C120.601 17.4 120.948 17.54 121.228 17.82C121.508 18.0867 121.648 18.4267 121.648 18.84C121.648 19.24 121.508 19.5867 121.228 19.88C120.948 20.16 120.601 20.3 120.188 20.3ZM123.428 32V30.2L129.108 23.68H123.608V21.8H131.748V23.6L126.088 30.12H131.908V32H123.428ZM133.408 32V30.2L139.088 23.68H133.588V21.8H141.728V23.6L136.068 30.12H141.888V32H133.408ZM146.913 32.32C146.18 32.32 145.526 32.1733 144.953 31.88C144.393 31.5867 143.946 31.1867 143.613 30.68C143.293 30.16 143.133 29.5667 143.133 28.9C143.133 28.1667 143.32 27.5467 143.693 27.04C144.08 26.5333 144.593 26.1467 145.233 25.88C145.873 25.6133 146.58 25.48 147.353 25.48C147.78 25.48 148.173 25.5133 148.533 25.58C148.906 25.6333 149.226 25.7 149.493 25.78C149.773 25.86 149.993 25.9467 150.153 26.04V25.5C150.153 24.8333 149.913 24.3 149.433 23.9C148.953 23.5 148.333 23.3 147.573 23.3C147.053 23.3 146.56 23.42 146.093 23.66C145.626 23.8867 145.253 24.2 144.973 24.6L143.493 23.46C143.786 23.0467 144.14 22.6933 144.553 22.4C144.98 22.1067 145.453 21.88 145.973 21.72C146.506 21.56 147.06 21.48 147.633 21.48C149.113 21.48 150.253 21.8467 151.053 22.58C151.853 23.3 152.253 24.3133 152.253 25.62V32H150.153V30.74H150.033C149.86 31.0067 149.62 31.26 149.313 31.5C149.02 31.74 148.666 31.9333 148.253 32.08C147.853 32.24 147.406 32.32 146.913 32.32ZM147.293 30.56C147.853 30.56 148.346 30.4267 148.773 30.16C149.213 29.8933 149.553 29.5467 149.793 29.12C150.033 28.68 150.153 28.2067 150.153 27.7C149.86 27.5267 149.5 27.3867 149.073 27.28C148.66 27.16 148.22 27.1 147.753 27.1C146.873 27.1 146.246 27.2733 145.873 27.62C145.5 27.9667 145.313 28.4 145.313 28.92C145.313 29.4 145.493 29.7933 145.853 30.1C146.213 30.4067 146.693 30.56 147.293 30.56ZM159.459 32V21.8H161.619V32H159.459ZM160.539 20.3C160.139 20.3 159.792 20.16 159.499 19.88C159.219 19.5867 159.079 19.24 159.079 18.84C159.079 18.4267 159.219 18.0867 159.499 17.82C159.792 17.54 160.139 17.4 160.539 17.4C160.952 17.4 161.299 17.54 161.579 17.82C161.859 18.0867 161.999 18.4267 161.999 18.84C161.999 19.24 161.859 19.5867 161.579 19.88C161.299 20.16 160.952 20.3 160.539 20.3ZM164.299 32V21.8H166.339V23.2H166.459C166.752 22.7067 167.186 22.3 167.759 21.98C168.346 21.6467 168.986 21.48 169.679 21.48C170.932 21.48 171.872 21.8533 172.499 22.6C173.126 23.3333 173.439 24.32 173.439 25.56V32H171.299V25.84C171.299 25.0133 171.092 24.4133 170.679 24.04C170.266 23.6533 169.726 23.46 169.059 23.46C168.539 23.46 168.086 23.6067 167.699 23.9C167.312 24.18 167.006 24.5533 166.779 25.02C166.566 25.4867 166.459 25.9867 166.459 26.52V32H164.299Z" fill="white"/>
<path d="M188.4 32.32C187.373 32.32 186.407 32.1333 185.5 31.76C184.593 31.3867 183.793 30.8667 183.1 30.2C182.42 29.52 181.88 28.7267 181.48 27.82C181.093 26.9 180.9 25.9067 180.9 24.84C180.9 23.7733 181.093 22.7867 181.48 21.88C181.88 20.96 182.42 20.1667 183.1 19.5C183.793 18.82 184.593 18.2933 185.5 17.92C186.407 17.5467 187.373 17.36 188.4 17.36C189.493 17.36 190.5 17.5533 191.42 17.94C192.353 18.3267 193.133 18.8667 193.76 19.56L192.24 21.06C191.933 20.7133 191.58 20.42 191.18 20.18C190.793 19.94 190.367 19.76 189.9 19.64C189.433 19.5067 188.933 19.44 188.4 19.44C187.693 19.44 187.02 19.5667 186.38 19.82C185.74 20.0733 185.173 20.44 184.68 20.92C184.2 21.3867 183.82 21.9533 183.54 22.62C183.26 23.2733 183.12 24.0133 183.12 24.84C183.12 25.6667 183.26 26.4133 183.54 27.08C183.833 27.7333 184.22 28.3 184.7 28.78C185.193 29.2467 185.76 29.6067 186.4 29.86C187.04 30.1133 187.713 30.24 188.42 30.24C189.073 30.24 189.68 30.1467 190.24 29.96C190.813 29.7733 191.313 29.5067 191.74 29.16C192.167 28.8133 192.513 28.3933 192.78 27.9C193.047 27.3933 193.213 26.8267 193.28 26.2H188.38V24.26H195.34C195.367 24.42 195.393 24.6067 195.42 24.82C195.447 25.02 195.46 25.2133 195.46 25.4V25.42C195.46 26.4467 195.28 27.3867 194.92 28.24C194.573 29.0933 194.087 29.8267 193.46 30.44C192.833 31.04 192.087 31.5067 191.22 31.84C190.367 32.16 189.427 32.32 188.4 32.32ZM201.9 32.32C200.847 32.32 199.92 32.08 199.12 31.6C198.32 31.12 197.693 30.4733 197.24 29.66C196.787 28.8333 196.56 27.9133 196.56 26.9C196.56 25.8867 196.787 24.9733 197.24 24.16C197.693 23.3333 198.32 22.68 199.12 22.2C199.92 21.72 200.847 21.48 201.9 21.48C202.94 21.48 203.86 21.7267 204.66 22.22C205.46 22.7 206.087 23.3467 206.54 24.16C206.993 24.9733 207.22 25.8867 207.22 26.9C207.22 27.9133 206.993 28.8333 206.54 29.66C206.087 30.4733 205.46 31.12 204.66 31.6C203.86 32.08 202.94 32.32 201.9 32.32ZM201.9 30.34C202.46 30.34 202.98 30.2067 203.46 29.94C203.94 29.66 204.327 29.2667 204.62 28.76C204.927 28.24 205.08 27.62 205.08 26.9C205.08 26.18 204.927 25.5667 204.62 25.06C204.327 24.54 203.94 24.1467 203.46 23.88C202.98 23.6 202.46 23.46 201.9 23.46C201.34 23.46 200.813 23.6 200.32 23.88C199.84 24.1467 199.447 24.54 199.14 25.06C198.847 25.5667 198.7 26.18 198.7 26.9C198.7 27.62 198.847 28.24 199.14 28.76C199.447 29.2667 199.847 29.66 200.34 29.94C200.833 30.2067 201.353 30.34 201.9 30.34ZM214.009 32.32C212.956 32.32 212.029 32.08 211.229 31.6C210.429 31.12 209.803 30.4733 209.349 29.66C208.896 28.8333 208.669 27.9133 208.669 26.9C208.669 25.8867 208.896 24.9733 209.349 24.16C209.803 23.3333 210.429 22.68 211.229 22.2C212.029 21.72 212.956 21.48 214.009 21.48C215.049 21.48 215.969 21.7267 216.769 22.22C217.569 22.7 218.196 23.3467 218.649 24.16C219.103 24.9733 219.329 25.8867 219.329 26.9C219.329 27.9133 219.103 28.8333 218.649 29.66C218.196 30.4733 217.569 31.12 216.769 31.6C215.969 32.08 215.049 32.32 214.009 32.32ZM214.009 30.34C214.569 30.34 215.089 30.2067 215.569 29.94C216.049 29.66 216.436 29.2667 216.729 28.76C217.036 28.24 217.189 27.62 217.189 26.9C217.189 26.18 217.036 25.5667 216.729 25.06C216.436 24.54 216.049 24.1467 215.569 23.88C215.089 23.6 214.569 23.46 214.009 23.46C213.449 23.46 212.923 23.6 212.429 23.88C211.949 24.1467 211.556 24.54 211.249 25.06C210.956 25.5667 210.809 26.18 210.809 26.9C210.809 27.62 210.956 28.24 211.249 28.76C211.556 29.2667 211.956 29.66 212.449 29.94C212.943 30.2067 213.463 30.34 214.009 30.34ZM225.919 36.64C225.025 36.64 224.252 36.4933 223.599 36.2C222.959 35.92 222.439 35.5533 222.039 35.1C221.639 34.66 221.352 34.2067 221.179 33.74L223.179 32.9C223.392 33.4333 223.732 33.8667 224.199 34.2C224.679 34.5467 225.252 34.72 225.919 34.72C226.865 34.72 227.605 34.44 228.139 33.88C228.672 33.32 228.939 32.5267 228.939 31.5V30.52H228.819C228.499 30.9867 228.059 31.3667 227.499 31.66C226.939 31.9533 226.292 32.1 225.559 32.1C224.692 32.1 223.892 31.88 223.159 31.44C222.439 31 221.859 30.3867 221.419 29.6C220.992 28.8 220.779 27.8667 220.779 26.8C220.779 25.72 220.992 24.7867 221.419 24C221.859 23.2 222.439 22.58 223.159 22.14C223.892 21.7 224.692 21.48 225.559 21.48C226.292 21.48 226.939 21.6267 227.499 21.92C228.059 22.2 228.499 22.5867 228.819 23.08H228.939V21.8H230.999V31.46C230.999 32.5667 230.779 33.5067 230.339 34.28C229.912 35.0533 229.319 35.64 228.559 36.04C227.799 36.44 226.919 36.64 225.919 36.64ZM225.939 30.14C226.472 30.14 226.965 30.0133 227.419 29.76C227.885 29.4933 228.252 29.1133 228.519 28.62C228.799 28.1133 228.939 27.5067 228.939 26.8C228.939 26.0533 228.799 25.4333 228.519 24.94C228.252 24.4467 227.885 24.0733 227.419 23.82C226.965 23.5667 226.472 23.44 225.939 23.44C225.405 23.44 224.905 23.5667 224.439 23.82C223.985 24.0733 223.619 24.4533 223.339 24.96C223.059 25.4533 222.919 26.0667 222.919 26.8C222.919 27.52 223.059 28.1333 223.339 28.64C223.619 29.1333 223.985 29.5067 224.439 29.76C224.905 30.0133 225.405 30.14 225.939 30.14ZM233.546 32V17.68H235.706V32H233.546ZM242.815 32.32C241.815 32.32 240.921 32.0867 240.135 31.62C239.348 31.1533 238.728 30.5133 238.275 29.7C237.835 28.8867 237.615 27.96 237.615 26.92C237.615 25.9467 237.828 25.0467 238.255 24.22C238.681 23.3933 239.275 22.7333 240.035 22.24C240.808 21.7333 241.695 21.48 242.695 21.48C243.748 21.48 244.641 21.7067 245.375 22.16C246.121 22.6133 246.688 23.2333 247.075 24.02C247.461 24.8067 247.655 25.6933 247.655 26.68C247.655 26.8267 247.648 26.96 247.635 27.08C247.635 27.2 247.628 27.2933 247.615 27.36H239.735C239.788 27.92 239.928 28.4067 240.155 28.82C240.448 29.34 240.835 29.7333 241.315 30C241.795 30.2667 242.315 30.4 242.875 30.4C243.555 30.4 244.121 30.2467 244.575 29.94C245.041 29.62 245.408 29.2267 245.675 28.76L247.455 29.62C247.015 30.42 246.415 31.0733 245.655 31.58C244.895 32.0733 243.948 32.32 242.815 32.32ZM239.855 25.74H245.515C245.501 25.4867 245.435 25.22 245.315 24.94C245.195 24.6467 245.021 24.38 244.795 24.14C244.568 23.9 244.281 23.7067 243.935 23.56C243.588 23.4 243.181 23.32 242.715 23.32C242.128 23.32 241.608 23.4733 241.155 23.78C240.701 24.0733 240.348 24.4867 240.095 25.02C239.988 25.2467 239.908 25.4867 239.855 25.74ZM256.446 32L252.606 17.68H255.046L257.326 26.98L257.566 28.22H257.686L257.986 26.98L260.866 17.68H263.066L265.826 26.98L266.126 28.2H266.246L266.486 26.98L268.766 17.68H271.186L267.406 32H265.086L262.346 22.5L262.026 21.16H261.906L261.566 22.5L258.706 32H256.446ZM275.202 32.32C274.469 32.32 273.816 32.1733 273.242 31.88C272.682 31.5867 272.236 31.1867 271.902 30.68C271.582 30.16 271.422 29.5667 271.422 28.9C271.422 28.1667 271.609 27.5467 271.982 27.04C272.369 26.5333 272.882 26.1467 273.522 25.88C274.162 25.6133 274.869 25.48 275.642 25.48C276.069 25.48 276.462 25.5133 276.822 25.58C277.196 25.6333 277.516 25.7 277.782 25.78C278.062 25.86 278.282 25.9467 278.442 26.04V25.5C278.442 24.8333 278.202 24.3 277.722 23.9C277.242 23.5 276.622 23.3 275.862 23.3C275.342 23.3 274.849 23.42 274.382 23.66C273.916 23.8867 273.542 24.2 273.262 24.6L271.782 23.46C272.076 23.0467 272.429 22.6933 272.842 22.4C273.269 22.1067 273.742 21.88 274.262 21.72C274.796 21.56 275.349 21.48 275.922 21.48C277.402 21.48 278.542 21.8467 279.342 22.58C280.142 23.3 280.542 24.3133 280.542 25.62V32H278.442V30.74H278.322C278.149 31.0067 277.909 31.26 277.602 31.5C277.309 31.74 276.956 31.9333 276.542 32.08C276.142 32.24 275.696 32.32 275.202 32.32ZM275.582 30.56C276.142 30.56 276.636 30.4267 277.062 30.16C277.502 29.8933 277.842 29.5467 278.082 29.12C278.322 28.68 278.442 28.2067 278.442 27.7C278.149 27.5267 277.789 27.3867 277.362 27.28C276.949 27.16 276.509 27.1 276.042 27.1C275.162 27.1 274.536 27.2733 274.162 27.62C273.789 27.9667 273.602 28.4 273.602 28.92C273.602 29.4 273.782 29.7933 274.142 30.1C274.502 30.4067 274.982 30.56 275.582 30.56ZM282.94 32V17.68H285.1V32H282.94ZM287.667 32V17.68H289.827V32H287.667ZM296.936 32.32C295.936 32.32 295.042 32.0867 294.256 31.62C293.469 31.1533 292.849 30.5133 292.396 29.7C291.956 28.8867 291.736 27.96 291.736 26.92C291.736 25.9467 291.949 25.0467 292.376 24.22C292.802 23.3933 293.396 22.7333 294.156 22.24C294.929 21.7333 295.816 21.48 296.816 21.48C297.869 21.48 298.762 21.7067 299.496 22.16C300.242 22.6133 300.809 23.2333 301.196 24.02C301.582 24.8067 301.776 25.6933 301.776 26.68C301.776 26.8267 301.769 26.96 301.756 27.08C301.756 27.2 301.749 27.2933 301.736 27.36H293.856C293.909 27.92 294.049 28.4067 294.276 28.82C294.569 29.34 294.956 29.7333 295.436 30C295.916 30.2667 296.436 30.4 296.996 30.4C297.676 30.4 298.242 30.2467 298.696 29.94C299.162 29.62 299.529 29.2267 299.796 28.76L301.576 29.62C301.136 30.42 300.536 31.0733 299.776 31.58C299.016 32.0733 298.069 32.32 296.936 32.32ZM293.976 25.74H299.636C299.622 25.4867 299.556 25.22 299.436 24.94C299.316 24.6467 299.142 24.38 298.916 24.14C298.689 23.9 298.402 23.7067 298.056 23.56C297.709 23.4 297.302 23.32 296.836 23.32C296.249 23.32 295.729 23.4733 295.276 23.78C294.822 24.0733 294.469 24.4867 294.216 25.02C294.109 25.2467 294.029 25.4867 293.976 25.74ZM302.787 21.8H304.567V18.92H306.727V21.8H309.227V23.68H306.727V28.58C306.727 29.0867 306.827 29.4733 307.027 29.74C307.24 30.0067 307.593 30.14 308.087 30.14C308.327 30.14 308.54 30.1067 308.727 30.04C308.913 29.96 309.1 29.8667 309.287 29.76V31.86C309.06 31.9533 308.82 32.0267 308.567 32.08C308.313 32.1333 308.013 32.16 307.667 32.16C306.72 32.16 305.967 31.8867 305.407 31.34C304.847 30.78 304.567 30.0133 304.567 29.04V23.68H302.787V21.8Z" fill="white"/>
</svg>
