<svg width="307" height="50" viewBox="0 0 307 50" fill="none" xmlns="http://www.w3.org/2000/svg">
<rect x="0.5" y="0.5" width="306" height="49" rx="24.5" fill="#1F1F1F"/>
<rect x="0.5" y="0.5" width="306" height="49" rx="24.5" stroke="#747775"/>
<path d="M51 22H21V17C21 14.2857 23.2018 12 25.8165 12H46.1835C48.7982 12 51 14.2857 51 17V22Z" fill="#34A853"/>
<path d="M51 26.0537H21V21.0537C21 18.3394 23.2018 16.0537 25.8165 16.0537H46.1835C48.7982 16.0537 51 18.3394 51 21.0537V26.0537Z" fill="#FBBC04"/>
<path d="M51 30.2468H21V25.2468C21 22.5325 23.2018 20.2468 25.8165 20.2468H46.1835C48.7982 20.2468 51 22.5325 51 25.2468V30.2468Z" fill="#EA4335"/>
<path d="M21 23.2752L40.0411 27.6789C42.2329 28.2294 44.6986 27.6789 46.4795 26.3028L51 23V33.3211C51 35.9358 48.8082 38 46.2055 38H25.7945C23.1918 38 21 35.9358 21 33.3211V23.2752Z" fill="#4285F4"/>
<path d="M72.3609 32.32C71.3343 32.32 70.3676 32.1333 69.4609 31.76C68.5543 31.3867 67.7543 30.8667 67.0609 30.2C66.3809 29.52 65.8409 28.7267 65.4409 27.82C65.0543 26.9 64.8609 25.9067 64.8609 24.84C64.8609 23.7733 65.0543 22.7867 65.4409 21.88C65.8409 20.96 66.3809 20.1667 67.0609 19.5C67.7543 18.82 68.5543 18.2933 69.4609 17.92C70.3676 17.5467 71.3343 17.36 72.3609 17.36C73.4543 17.36 74.4609 17.5533 75.3809 17.94C76.3143 18.3267 77.0943 18.8667 77.7209 19.56L76.2009 21.06C75.8943 20.7133 75.5409 20.42 75.1409 20.18C74.7543 19.94 74.3276 19.76 73.8609 19.64C73.3943 19.5067 72.8943 19.44 72.3609 19.44C71.6543 19.44 70.9809 19.5667 70.3409 19.82C69.7009 20.0733 69.1343 20.44 68.6409 20.92C68.1609 21.3867 67.7809 21.9533 67.5009 22.62C67.2209 23.2733 67.0809 24.0133 67.0809 24.84C67.0809 25.6667 67.2209 26.4133 67.5009 27.08C67.7943 27.7333 68.1809 28.3 68.6609 28.78C69.1543 29.2467 69.7209 29.6067 70.3609 29.86C71.0009 30.1133 71.6743 30.24 72.3809 30.24C73.0343 30.24 73.6409 30.1467 74.2009 29.96C74.7743 29.7733 75.2743 29.5067 75.7009 29.16C76.1276 28.8133 76.4743 28.3933 76.7409 27.9C77.0076 27.3933 77.1743 26.8267 77.2409 26.2H72.3409V24.26H79.3009C79.3276 24.42 79.3543 24.6067 79.3809 24.82C79.4076 25.02 79.4209 25.2133 79.4209 25.4V25.42C79.4209 26.4467 79.2409 27.3867 78.8809 28.24C78.5343 29.0933 78.0476 29.8267 77.4209 30.44C76.7943 31.04 76.0476 31.5067 75.1809 31.84C74.3276 32.16 73.3876 32.32 72.3609 32.32ZM85.8608 32.32C84.8074 32.32 83.8808 32.08 83.0808 31.6C82.2808 31.12 81.6541 30.4733 81.2008 29.66C80.7474 28.8333 80.5208 27.9133 80.5208 26.9C80.5208 25.8867 80.7474 24.9733 81.2008 24.16C81.6541 23.3333 82.2808 22.68 83.0808 22.2C83.8808 21.72 84.8074 21.48 85.8608 21.48C86.9008 21.48 87.8208 21.7267 88.6208 22.22C89.4208 22.7 90.0474 23.3467 90.5008 24.16C90.9541 24.9733 91.1808 25.8867 91.1808 26.9C91.1808 27.9133 90.9541 28.8333 90.5008 29.66C90.0474 30.4733 89.4208 31.12 88.6208 31.6C87.8208 32.08 86.9008 32.32 85.8608 32.32ZM85.8608 30.34C86.4208 30.34 86.9408 30.2067 87.4208 29.94C87.9008 29.66 88.2874 29.2667 88.5808 28.76C88.8874 28.24 89.0408 27.62 89.0408 26.9C89.0408 26.18 88.8874 25.5667 88.5808 25.06C88.2874 24.54 87.9008 24.1467 87.4208 23.88C86.9408 23.6 86.4208 23.46 85.8608 23.46C85.3008 23.46 84.7741 23.6 84.2808 23.88C83.8008 24.1467 83.4074 24.54 83.1008 25.06C82.8074 25.5667 82.6608 26.18 82.6608 26.9C82.6608 27.62 82.8074 28.24 83.1008 28.76C83.4074 29.2667 83.8074 29.66 84.3008 29.94C84.7941 30.2067 85.3141 30.34 85.8608 30.34ZM97.9702 32.32C96.9168 32.32 95.9902 32.08 95.1902 31.6C94.3902 31.12 93.7635 30.4733 93.3102 29.66C92.8568 28.8333 92.6302 27.9133 92.6302 26.9C92.6302 25.8867 92.8568 24.9733 93.3102 24.16C93.7635 23.3333 94.3902 22.68 95.1902 22.2C95.9902 21.72 96.9168 21.48 97.9702 21.48C99.0102 21.48 99.9302 21.7267 100.73 22.22C101.53 22.7 102.157 23.3467 102.61 24.16C103.063 24.9733 103.29 25.8867 103.29 26.9C103.29 27.9133 103.063 28.8333 102.61 29.66C102.157 30.4733 101.53 31.12 100.73 31.6C99.9302 32.08 99.0102 32.32 97.9702 32.32ZM97.9702 30.34C98.5302 30.34 99.0502 30.2067 99.5302 29.94C100.01 29.66 100.397 29.2667 100.69 28.76C100.997 28.24 101.15 27.62 101.15 26.9C101.15 26.18 100.997 25.5667 100.69 25.06C100.397 24.54 100.01 24.1467 99.5302 23.88C99.0502 23.6 98.5302 23.46 97.9702 23.46C97.4102 23.46 96.8835 23.6 96.3902 23.88C95.9102 24.1467 95.5168 24.54 95.2102 25.06C94.9168 25.5667 94.7702 26.18 94.7702 26.9C94.7702 27.62 94.9168 28.24 95.2102 28.76C95.5168 29.2667 95.9168 29.66 96.4102 29.94C96.9035 30.2067 97.4235 30.34 97.9702 30.34ZM109.88 36.64C108.986 36.64 108.213 36.4933 107.56 36.2C106.92 35.92 106.4 35.5533 106 35.1C105.6 34.66 105.313 34.2067 105.14 33.74L107.14 32.9C107.353 33.4333 107.693 33.8667 108.16 34.2C108.64 34.5467 109.213 34.72 109.88 34.72C110.826 34.72 111.566 34.44 112.1 33.88C112.633 33.32 112.9 32.5267 112.9 31.5V30.52H112.78C112.46 30.9867 112.02 31.3667 111.46 31.66C110.9 31.9533 110.253 32.1 109.52 32.1C108.653 32.1 107.853 31.88 107.12 31.44C106.4 31 105.82 30.3867 105.38 29.6C104.953 28.8 104.74 27.8667 104.74 26.8C104.74 25.72 104.953 24.7867 105.38 24C105.82 23.2 106.4 22.58 107.12 22.14C107.853 21.7 108.653 21.48 109.52 21.48C110.253 21.48 110.9 21.6267 111.46 21.92C112.02 22.2 112.46 22.5867 112.78 23.08H112.9V21.8H114.96V31.46C114.96 32.5667 114.74 33.5067 114.3 34.28C113.873 35.0533 113.28 35.64 112.52 36.04C111.76 36.44 110.88 36.64 109.88 36.64ZM109.9 30.14C110.433 30.14 110.926 30.0133 111.38 29.76C111.846 29.4933 112.213 29.1133 112.48 28.62C112.76 28.1133 112.9 27.5067 112.9 26.8C112.9 26.0533 112.76 25.4333 112.48 24.94C112.213 24.4467 111.846 24.0733 111.38 23.82C110.926 23.5667 110.433 23.44 109.9 23.44C109.366 23.44 108.866 23.5667 108.4 23.82C107.946 24.0733 107.58 24.4533 107.3 24.96C107.02 25.4533 106.88 26.0667 106.88 26.8C106.88 27.52 107.02 28.1333 107.3 28.64C107.58 29.1333 107.946 29.5067 108.4 29.76C108.866 30.0133 109.366 30.14 109.9 30.14ZM117.507 32V17.68H119.667V32H117.507ZM126.775 32.32C125.775 32.32 124.882 32.0867 124.095 31.62C123.309 31.1533 122.689 30.5133 122.235 29.7C121.795 28.8867 121.575 27.96 121.575 26.92C121.575 25.9467 121.789 25.0467 122.215 24.22C122.642 23.3933 123.235 22.7333 123.995 22.24C124.769 21.7333 125.655 21.48 126.655 21.48C127.709 21.48 128.602 21.7067 129.335 22.16C130.082 22.6133 130.649 23.2333 131.035 24.02C131.422 24.8067 131.615 25.6933 131.615 26.68C131.615 26.8267 131.609 26.96 131.595 27.08C131.595 27.2 131.589 27.2933 131.575 27.36H123.695C123.749 27.92 123.889 28.4067 124.115 28.82C124.409 29.34 124.795 29.7333 125.275 30C125.755 30.2667 126.275 30.4 126.835 30.4C127.515 30.4 128.082 30.2467 128.535 29.94C129.002 29.62 129.369 29.2267 129.635 28.76L131.415 29.62C130.975 30.42 130.375 31.0733 129.615 31.58C128.855 32.0733 127.909 32.32 126.775 32.32ZM123.815 25.74H129.475C129.462 25.4867 129.395 25.22 129.275 24.94C129.155 24.6467 128.982 24.38 128.755 24.14C128.529 23.9 128.242 23.7067 127.895 23.56C127.549 23.4 127.142 23.32 126.675 23.32C126.089 23.32 125.569 23.4733 125.115 23.78C124.662 24.0733 124.309 24.4867 124.055 25.02C123.949 25.2467 123.869 25.4867 123.815 25.74ZM140.407 32L136.567 17.68H139.007L141.287 26.98L141.527 28.22H141.647L141.947 26.98L144.827 17.68H147.027L149.787 26.98L150.087 28.2H150.207L150.447 26.98L152.727 17.68H155.147L151.367 32H149.047L146.307 22.5L145.987 21.16H145.867L145.527 22.5L142.667 32H140.407ZM159.163 32.32C158.43 32.32 157.776 32.1733 157.203 31.88C156.643 31.5867 156.196 31.1867 155.863 30.68C155.543 30.16 155.383 29.5667 155.383 28.9C155.383 28.1667 155.57 27.5467 155.943 27.04C156.33 26.5333 156.843 26.1467 157.483 25.88C158.123 25.6133 158.83 25.48 159.603 25.48C160.03 25.48 160.423 25.5133 160.783 25.58C161.156 25.6333 161.476 25.7 161.743 25.78C162.023 25.86 162.243 25.9467 162.403 26.04V25.5C162.403 24.8333 162.163 24.3 161.683 23.9C161.203 23.5 160.583 23.3 159.823 23.3C159.303 23.3 158.81 23.42 158.343 23.66C157.876 23.8867 157.503 24.2 157.223 24.6L155.743 23.46C156.036 23.0467 156.39 22.6933 156.803 22.4C157.23 22.1067 157.703 21.88 158.223 21.72C158.756 21.56 159.31 21.48 159.883 21.48C161.363 21.48 162.503 21.8467 163.303 22.58C164.103 23.3 164.503 24.3133 164.503 25.62V32H162.403V30.74H162.283C162.11 31.0067 161.87 31.26 161.563 31.5C161.27 31.74 160.916 31.9333 160.503 32.08C160.103 32.24 159.656 32.32 159.163 32.32ZM159.543 30.56C160.103 30.56 160.596 30.4267 161.023 30.16C161.463 29.8933 161.803 29.5467 162.043 29.12C162.283 28.68 162.403 28.2067 162.403 27.7C162.11 27.5267 161.75 27.3867 161.323 27.28C160.91 27.16 160.47 27.1 160.003 27.1C159.123 27.1 158.496 27.2733 158.123 27.62C157.75 27.9667 157.563 28.4 157.563 28.92C157.563 29.4 157.743 29.7933 158.103 30.1C158.463 30.4067 158.943 30.56 159.543 30.56ZM166.901 32V17.68H169.061V32H166.901ZM171.628 32V17.68H173.788V32H171.628ZM180.897 32.32C179.897 32.32 179.003 32.0867 178.217 31.62C177.43 31.1533 176.81 30.5133 176.357 29.7C175.917 28.8867 175.697 27.96 175.697 26.92C175.697 25.9467 175.91 25.0467 176.337 24.22C176.763 23.3933 177.357 22.7333 178.117 22.24C178.89 21.7333 179.777 21.48 180.777 21.48C181.83 21.48 182.723 21.7067 183.457 22.16C184.203 22.6133 184.77 23.2333 185.157 24.02C185.543 24.8067 185.737 25.6933 185.737 26.68C185.737 26.8267 185.73 26.96 185.717 27.08C185.717 27.2 185.71 27.2933 185.697 27.36H177.817C177.87 27.92 178.01 28.4067 178.237 28.82C178.53 29.34 178.917 29.7333 179.397 30C179.877 30.2667 180.397 30.4 180.957 30.4C181.637 30.4 182.203 30.2467 182.657 29.94C183.123 29.62 183.49 29.2267 183.757 28.76L185.537 29.62C185.097 30.42 184.497 31.0733 183.737 31.58C182.977 32.0733 182.03 32.32 180.897 32.32ZM177.937 25.74H183.597C183.583 25.4867 183.517 25.22 183.397 24.94C183.277 24.6467 183.103 24.38 182.877 24.14C182.65 23.9 182.363 23.7067 182.017 23.56C181.67 23.4 181.263 23.32 180.797 23.32C180.21 23.32 179.69 23.4733 179.237 23.78C178.783 24.0733 178.43 24.4867 178.177 25.02C178.07 25.2467 177.99 25.4867 177.937 25.74ZM186.748 21.8H188.528V18.92H190.688V21.8H193.188V23.68H190.688V28.58C190.688 29.0867 190.788 29.4733 190.988 29.74C191.201 30.0067 191.554 30.14 192.048 30.14C192.288 30.14 192.501 30.1067 192.688 30.04C192.874 29.96 193.061 29.8667 193.248 29.76V31.86C193.021 31.9533 192.781 32.0267 192.528 32.08C192.274 32.1333 191.974 32.16 191.628 32.16C190.681 32.16 189.928 31.8867 189.368 31.34C188.808 30.78 188.528 30.0133 188.528 29.04V23.68H186.748V21.8Z" fill="white"/>
<path d="M201.029 26.72V24.88H207.589V26.72H201.029ZM209.952 32V29.86H216.892V25.26C216.892 24.3933 216.785 23.72 216.572 23.24C216.358 22.7467 215.998 22.4 215.492 22.2C214.985 22 214.305 21.9 213.452 21.9H209.952V19.76H213.512C214.872 19.76 215.972 19.94 216.812 20.3C217.652 20.6467 218.265 21.22 218.652 22.02C219.052 22.82 219.252 23.8867 219.252 25.22V29.86H221.052V32H209.952ZM236.586 32V25.4C236.586 24.5333 236.473 23.8467 236.246 23.34C236.033 22.82 235.679 22.4533 235.186 22.24C234.693 22.0133 234.019 21.9 233.166 21.9H228.046V19.76H233.166C234.526 19.76 235.633 19.9733 236.486 20.4C237.339 20.8133 237.959 21.44 238.346 22.28C238.746 23.12 238.946 24.16 238.946 25.4V32H236.586ZM228.046 32V25.24H230.426V32H228.046ZM241.147 26.6V19.76H243.507V26.6H241.147ZM246.069 26.6V19.76H248.429V26.6H246.069ZM251.571 32V29.86H255.231C256.164 29.86 256.951 29.6933 257.591 29.36C258.244 29.0133 258.738 28.5333 259.071 27.92C259.418 27.2933 259.591 26.5667 259.591 25.74C259.591 24.8867 259.424 24.1467 259.091 23.52C258.771 22.88 258.324 22.3933 257.751 22.06C257.191 21.7133 256.538 21.54 255.791 21.54C255.284 21.54 254.844 21.6 254.471 21.72C254.111 21.8267 253.811 21.9733 253.571 22.16C253.344 22.36 253.171 22.5867 253.051 22.84C252.944 23.08 252.891 23.34 252.891 23.62C252.891 24.18 253.064 24.6133 253.411 24.92C253.758 25.2133 254.258 25.36 254.911 25.36H255.531V27.34H254.851C253.918 27.34 253.131 27.1867 252.491 26.88C251.851 26.56 251.364 26.1267 251.031 25.58C250.711 25.0333 250.551 24.3867 250.551 23.64C250.551 23.0133 250.678 22.4467 250.931 21.94C251.184 21.42 251.544 20.9733 252.011 20.6C252.464 20.2267 253.011 19.94 253.651 19.74C254.304 19.5267 255.018 19.42 255.791 19.42C257.018 19.42 258.084 19.7 258.991 20.26C259.911 20.8067 260.624 21.5533 261.131 22.5C261.638 23.4467 261.891 24.5267 261.891 25.74C261.891 26.9267 261.624 27.9933 261.091 28.94C260.558 29.8867 259.791 30.6333 258.791 31.18C257.804 31.7267 256.618 32 255.231 32H251.571ZM263.105 32V29.86H270.105L269.105 28.52L262.405 19.86V19.76H265.165L268.885 24.76C269.232 24.6133 269.525 24.4533 269.765 24.28C270.099 24.04 270.339 23.74 270.485 23.38C270.632 23.0067 270.705 22.54 270.705 21.98V19.76H273.065V21.88C273.065 22.5733 272.972 23.1733 272.785 23.68C272.612 24.1867 272.365 24.62 272.045 24.98C271.739 25.34 271.385 25.64 270.985 25.88C270.679 26.0533 270.365 26.2067 270.045 26.34L272.685 29.86V32H263.105ZM278.998 32L282.658 21.9H275.418V16.2H277.798V19.76H285.138V21.9L281.518 32H278.998Z" fill="white"/>
</svg>
