<svg width="323" height="50" viewBox="0 0 323 50" fill="none" xmlns="http://www.w3.org/2000/svg">
<rect x="0.5" y="0.5" width="322" height="49" rx="24.5" fill="#1F1F1F"/>
<rect x="0.5" y="0.5" width="322" height="49" rx="24.5" stroke="#747775"/>
<path d="M51 22H21V17C21 14.2857 23.2018 12 25.8165 12H46.1835C48.7982 12 51 14.2857 51 17V22Z" fill="#34A853"/>
<path d="M51 26.0537H21V21.0537C21 18.3394 23.2018 16.0537 25.8165 16.0537H46.1835C48.7982 16.0537 51 18.3394 51 21.0537V26.0537Z" fill="#FBBC04"/>
<path d="M51 30.2468H21V25.2468C21 22.5325 23.2018 20.2468 25.8165 20.2468H46.1835C48.7982 20.2468 51 22.5325 51 25.2468V30.2468Z" fill="#EA4335"/>
<path d="M21 23.2752L40.0411 27.6789C42.2329 28.2294 44.6986 27.6789 46.4795 26.3028L51 23V33.3211C51 35.9358 48.8082 38 46.2055 38H25.7945C23.1918 38 21 35.9358 21 33.3211V23.2752Z" fill="#4285F4"/>
<path d="M71.4 32.32C70.3733 32.32 69.4067 32.1333 68.5 31.76C67.5933 31.3867 66.7933 30.8667 66.1 30.2C65.42 29.52 64.88 28.7267 64.48 27.82C64.0933 26.9 63.9 25.9067 63.9 24.84C63.9 23.7733 64.0933 22.7867 64.48 21.88C64.88 20.96 65.42 20.1667 66.1 19.5C66.7933 18.82 67.5933 18.2933 68.5 17.92C69.4067 17.5467 70.3733 17.36 71.4 17.36C72.4933 17.36 73.5 17.5533 74.42 17.94C75.3533 18.3267 76.1333 18.8667 76.76 19.56L75.24 21.06C74.9333 20.7133 74.58 20.42 74.18 20.18C73.7933 19.94 73.3667 19.76 72.9 19.64C72.4333 19.5067 71.9333 19.44 71.4 19.44C70.6933 19.44 70.02 19.5667 69.38 19.82C68.74 20.0733 68.1733 20.44 67.68 20.92C67.2 21.3867 66.82 21.9533 66.54 22.62C66.26 23.2733 66.12 24.0133 66.12 24.84C66.12 25.6667 66.26 26.4133 66.54 27.08C66.8333 27.7333 67.22 28.3 67.7 28.78C68.1933 29.2467 68.76 29.6067 69.4 29.86C70.04 30.1133 70.7133 30.24 71.42 30.24C72.0733 30.24 72.68 30.1467 73.24 29.96C73.8133 29.7733 74.3133 29.5067 74.74 29.16C75.1667 28.8133 75.5133 28.3933 75.78 27.9C76.0467 27.3933 76.2133 26.8267 76.28 26.2H71.38V24.26H78.34C78.3667 24.42 78.3933 24.6067 78.42 24.82C78.4467 25.02 78.46 25.2133 78.46 25.4V25.42C78.46 26.4467 78.28 27.3867 77.92 28.24C77.5733 29.0933 77.0867 29.8267 76.46 30.44C75.8333 31.04 75.0867 31.5067 74.22 31.84C73.3667 32.16 72.4267 32.32 71.4 32.32ZM84.8998 32.32C83.8465 32.32 82.9198 32.08 82.1198 31.6C81.3198 31.12 80.6932 30.4733 80.2398 29.66C79.7865 28.8333 79.5598 27.9133 79.5598 26.9C79.5598 25.8867 79.7865 24.9733 80.2398 24.16C80.6932 23.3333 81.3198 22.68 82.1198 22.2C82.9198 21.72 83.8465 21.48 84.8998 21.48C85.9398 21.48 86.8598 21.7267 87.6598 22.22C88.4598 22.7 89.0865 23.3467 89.5398 24.16C89.9932 24.9733 90.2198 25.8867 90.2198 26.9C90.2198 27.9133 89.9932 28.8333 89.5398 29.66C89.0865 30.4733 88.4598 31.12 87.6598 31.6C86.8598 32.08 85.9398 32.32 84.8998 32.32ZM84.8998 30.34C85.4598 30.34 85.9798 30.2067 86.4598 29.94C86.9398 29.66 87.3265 29.2667 87.6198 28.76C87.9265 28.24 88.0798 27.62 88.0798 26.9C88.0798 26.18 87.9265 25.5667 87.6198 25.06C87.3265 24.54 86.9398 24.1467 86.4598 23.88C85.9798 23.6 85.4598 23.46 84.8998 23.46C84.3398 23.46 83.8132 23.6 83.3198 23.88C82.8398 24.1467 82.4465 24.54 82.1398 25.06C81.8465 25.5667 81.6998 26.18 81.6998 26.9C81.6998 27.62 81.8465 28.24 82.1398 28.76C82.4465 29.2667 82.8465 29.66 83.3398 29.94C83.8332 30.2067 84.3532 30.34 84.8998 30.34ZM97.0092 32.32C95.9559 32.32 95.0292 32.08 94.2292 31.6C93.4292 31.12 92.8026 30.4733 92.3492 29.66C91.8959 28.8333 91.6692 27.9133 91.6692 26.9C91.6692 25.8867 91.8959 24.9733 92.3492 24.16C92.8026 23.3333 93.4292 22.68 94.2292 22.2C95.0292 21.72 95.9559 21.48 97.0092 21.48C98.0492 21.48 98.9692 21.7267 99.7692 22.22C100.569 22.7 101.196 23.3467 101.649 24.16C102.103 24.9733 102.329 25.8867 102.329 26.9C102.329 27.9133 102.103 28.8333 101.649 29.66C101.196 30.4733 100.569 31.12 99.7692 31.6C98.9692 32.08 98.0492 32.32 97.0092 32.32ZM97.0092 30.34C97.5692 30.34 98.0892 30.2067 98.5692 29.94C99.0492 29.66 99.4359 29.2667 99.7292 28.76C100.036 28.24 100.189 27.62 100.189 26.9C100.189 26.18 100.036 25.5667 99.7292 25.06C99.4359 24.54 99.0492 24.1467 98.5692 23.88C98.0892 23.6 97.5692 23.46 97.0092 23.46C96.4492 23.46 95.9226 23.6 95.4292 23.88C94.9492 24.1467 94.5559 24.54 94.2492 25.06C93.9559 25.5667 93.8092 26.18 93.8092 26.9C93.8092 27.62 93.9559 28.24 94.2492 28.76C94.5559 29.2667 94.9559 29.66 95.4492 29.94C95.9426 30.2067 96.4626 30.34 97.0092 30.34ZM108.919 36.64C108.025 36.64 107.252 36.4933 106.599 36.2C105.959 35.92 105.439 35.5533 105.039 35.1C104.639 34.66 104.352 34.2067 104.179 33.74L106.179 32.9C106.392 33.4333 106.732 33.8667 107.199 34.2C107.679 34.5467 108.252 34.72 108.919 34.72C109.865 34.72 110.605 34.44 111.139 33.88C111.672 33.32 111.939 32.5267 111.939 31.5V30.52H111.819C111.499 30.9867 111.059 31.3667 110.499 31.66C109.939 31.9533 109.292 32.1 108.559 32.1C107.692 32.1 106.892 31.88 106.159 31.44C105.439 31 104.859 30.3867 104.419 29.6C103.992 28.8 103.779 27.8667 103.779 26.8C103.779 25.72 103.992 24.7867 104.419 24C104.859 23.2 105.439 22.58 106.159 22.14C106.892 21.7 107.692 21.48 108.559 21.48C109.292 21.48 109.939 21.6267 110.499 21.92C111.059 22.2 111.499 22.5867 111.819 23.08H111.939V21.8H113.999V31.46C113.999 32.5667 113.779 33.5067 113.339 34.28C112.912 35.0533 112.319 35.64 111.559 36.04C110.799 36.44 109.919 36.64 108.919 36.64ZM108.939 30.14C109.472 30.14 109.965 30.0133 110.419 29.76C110.885 29.4933 111.252 29.1133 111.519 28.62C111.799 28.1133 111.939 27.5067 111.939 26.8C111.939 26.0533 111.799 25.4333 111.519 24.94C111.252 24.4467 110.885 24.0733 110.419 23.82C109.965 23.5667 109.472 23.44 108.939 23.44C108.405 23.44 107.905 23.5667 107.439 23.82C106.985 24.0733 106.619 24.4533 106.339 24.96C106.059 25.4533 105.919 26.0667 105.919 26.8C105.919 27.52 106.059 28.1333 106.339 28.64C106.619 29.1333 106.985 29.5067 107.439 29.76C107.905 30.0133 108.405 30.14 108.939 30.14ZM116.546 32V17.68H118.706V32H116.546ZM125.815 32.32C124.815 32.32 123.921 32.0867 123.135 31.62C122.348 31.1533 121.728 30.5133 121.275 29.7C120.835 28.8867 120.615 27.96 120.615 26.92C120.615 25.9467 120.828 25.0467 121.255 24.22C121.681 23.3933 122.275 22.7333 123.035 22.24C123.808 21.7333 124.695 21.48 125.695 21.48C126.748 21.48 127.641 21.7067 128.375 22.16C129.121 22.6133 129.688 23.2333 130.075 24.02C130.461 24.8067 130.655 25.6933 130.655 26.68C130.655 26.8267 130.648 26.96 130.635 27.08C130.635 27.2 130.628 27.2933 130.615 27.36H122.735C122.788 27.92 122.928 28.4067 123.155 28.82C123.448 29.34 123.835 29.7333 124.315 30C124.795 30.2667 125.315 30.4 125.875 30.4C126.555 30.4 127.121 30.2467 127.575 29.94C128.041 29.62 128.408 29.2267 128.675 28.76L130.455 29.62C130.015 30.42 129.415 31.0733 128.655 31.58C127.895 32.0733 126.948 32.32 125.815 32.32ZM122.855 25.74H128.515C128.501 25.4867 128.435 25.22 128.315 24.94C128.195 24.6467 128.021 24.38 127.795 24.14C127.568 23.9 127.281 23.7067 126.935 23.56C126.588 23.4 126.181 23.32 125.715 23.32C125.128 23.32 124.608 23.4733 124.155 23.78C123.701 24.0733 123.348 24.4867 123.095 25.02C122.988 25.2467 122.908 25.4867 122.855 25.74ZM146.866 16C146.786 16.62 146.766 17.08 146.766 17.5C146.766 17.96 146.766 19.46 146.766 20.16H145.066C145.066 19.38 145.066 17.96 145.066 17.5C145.066 17.08 145.046 16.62 144.966 16H146.866ZM153.686 19.88C153.586 20.16 153.466 20.7 153.406 21.08C153.126 22.68 152.546 25.18 151.426 27.08C149.946 29.7 147.186 31.74 143.526 32.74L142.226 31.26C142.886 31.14 143.646 30.94 144.286 30.7C146.306 30.04 148.486 28.56 149.726 26.66C150.806 24.96 151.426 22.54 151.606 20.84H140.446C140.446 21.66 140.446 23.8 140.446 24.42C140.446 24.76 140.466 25.3 140.506 25.6H138.766C138.826 25.26 138.846 24.72 138.846 24.32C138.846 23.68 138.846 21.5 138.846 20.8C138.846 20.38 138.846 19.7 138.766 19.28C139.346 19.32 139.946 19.36 140.646 19.36H151.246C151.986 19.36 152.346 19.28 152.606 19.2L153.686 19.88ZM169.086 19.78C169.006 20.2 169.006 20.68 169.006 21.14C169.046 22.9 169.146 28.98 169.186 31.88C169.186 32.74 168.546 33.24 167.666 33.24C166.886 33.24 165.566 33.18 164.786 33.14L164.686 31.66C165.506 31.78 166.546 31.86 167.126 31.86C167.506 31.86 167.686 31.64 167.686 31.26C167.686 28.9 167.586 22.9 167.506 21.14C167.506 20.74 167.466 20.22 167.386 19.78H169.086ZM160.066 22.66C160.546 22.74 161.086 22.76 161.566 22.76C162.406 22.76 171.086 22.76 171.906 22.76C172.326 22.76 172.966 22.72 173.246 22.66V24.24C172.906 24.22 172.346 24.2 171.966 24.2C171.246 24.2 162.306 24.2 161.586 24.2C161.066 24.2 160.546 24.22 160.066 24.26V22.66ZM159.546 30.32C162.766 28.78 166.046 25.84 167.206 23.74L168.026 23.76L168.046 24.96C166.986 26.92 163.706 29.94 160.646 31.54L159.546 30.32ZM180.506 31.38C180.646 31.06 180.686 30.78 180.686 30.4C180.686 29.14 180.686 20.86 180.686 18.96C180.686 18.42 180.606 17.52 180.526 17.14H182.486C182.426 17.62 182.346 18.38 182.346 18.94C182.346 20.84 182.346 29.28 182.346 30.3C186.186 29.32 190.806 26.7 193.306 23.48L194.206 24.88C191.606 28.1 187.486 30.56 182.486 32.02C182.286 32.08 181.966 32.18 181.646 32.36L180.506 31.38ZM205.726 20.5C206.066 21.3 207.046 23.94 207.286 24.8L205.806 25.34C205.586 24.42 204.666 21.88 204.246 21L205.726 20.5ZM212.966 21.62C212.826 22.02 212.726 22.34 212.646 22.6C212.126 24.8 211.246 26.96 209.826 28.76C207.966 31.1 205.526 32.66 203.306 33.5L201.986 32.16C204.286 31.48 206.846 29.96 208.486 27.92C209.906 26.18 210.926 23.62 211.246 21.06L212.966 21.62ZM201.066 21.5C201.466 22.34 202.526 24.96 202.886 26.02L201.386 26.58C201.066 25.54 199.986 22.76 199.586 22.06L201.066 21.5ZM222.786 30.24C222.786 29.12 222.786 20.28 222.786 18.62C222.786 18.04 222.746 17.16 222.646 16.52H224.606C224.526 17.14 224.466 18 224.466 18.62C224.466 21.72 224.486 29.3 224.486 30.24C224.486 30.88 224.526 31.96 224.606 32.62H222.666C222.766 31.98 222.786 30.98 222.786 30.24ZM224.106 21.78C226.746 22.54 230.786 24.08 233.006 25.16L232.306 26.86C230.026 25.64 226.286 24.22 224.106 23.54V21.78Z" fill="white"/>
<path d="M243.56 18.84C244.32 18.82 244.96 18.78 245.36 18.74C246.64 18.6 250.42 18.24 254.1 17.92C256.3 17.74 258.16 17.62 259.5 17.58L259.52 19.18C258.36 19.16 256.62 19.2 255.6 19.48C252.74 20.4 251 23.46 251 25.82C251 29.72 254.66 30.98 257.9 31.1L257.32 32.74C253.62 32.6 249.42 30.64 249.42 26.16C249.42 23.06 251.32 20.5 253.14 19.42C251 19.64 245.9 20.14 243.74 20.6L243.56 18.84ZM256.62 21.62C257.08 22.28 257.84 23.52 258.28 24.42L257.24 24.88C256.78 23.92 256.22 22.9 255.62 22.06L256.62 21.62ZM258.8 20.78C259.3 21.44 260.08 22.66 260.54 23.54L259.52 24.04C259.04 23.08 258.44 22.08 257.82 21.24L258.8 20.78ZM263.98 16.88H280.04V18.18H263.98V16.88ZM264.9 19.82H279.26V21.08H264.9V19.82ZM263.24 22.88H280.72V24.2H263.24V22.88ZM271.18 15.2H272.7V23.9H271.18V15.2ZM271.12 23.32L272.42 23.94C270.34 26.22 266.64 28.32 263.54 29.34C263.3 28.96 262.88 28.4 262.56 28.1C265.64 27.22 269.26 25.3 271.12 23.32ZM273.3 23.52C274.5 27.8 277.1 30.96 281.34 32.22C281 32.52 280.58 33.14 280.36 33.54C275.94 32.02 273.32 28.64 271.94 23.8L273.3 23.52ZM279 24.86L280.2 25.8C278.78 26.94 276.88 28.16 275.44 28.96L274.52 28.14C275.92 27.3 277.86 25.92 279 24.86ZM264.78 32.22C267.08 31.72 270.68 30.82 274.1 29.98L274.24 31.32C271.08 32.14 267.66 33 265.26 33.6L264.78 32.22ZM267.6 27.04L268.68 25.96L269.1 26.08V32.12H267.6V27.04ZM291.2 22.34H292.82V31.66C292.82 32.62 292.58 33.08 291.88 33.34C291.16 33.56 289.98 33.58 288.22 33.58C288.14 33.14 287.9 32.48 287.66 32.02C289.02 32.06 290.34 32.06 290.72 32.04C291.1 32.04 291.2 31.94 291.2 31.62V22.34ZM286.66 25L288.22 25.4C287.24 27.86 285.66 30.26 284.06 31.8C283.76 31.52 283.08 31.1 282.68 30.88C284.32 29.46 285.8 27.26 286.66 25ZM295.66 25.6L297.04 25.02C298.52 26.9 300.08 29.44 300.66 31.14L299.16 31.8C298.62 30.14 297.12 27.52 295.66 25.6ZM284.98 16.7H299.04V18.18H284.98V16.7ZM283.18 21.54H300.82V23.04H283.18V21.54Z" fill="white"/>
</svg>
