<svg width="328" height="50" viewBox="0 0 328 50" fill="none" xmlns="http://www.w3.org/2000/svg">
<rect x="0.5" y="0.5" width="327" height="49" rx="24.5" fill="#1F1F1F"/>
<rect x="0.5" y="0.5" width="327" height="49" rx="24.5" stroke="#747775"/>
<path d="M51 22H21V17C21 14.2857 23.2018 12 25.8165 12H46.1835C48.7982 12 51 14.2857 51 17V22Z" fill="#34A853"/>
<path d="M51 26.0537H21V21.0537C21 18.3394 23.2018 16.0537 25.8165 16.0537H46.1835C48.7982 16.0537 51 18.3394 51 21.0537V26.0537Z" fill="#FBBC04"/>
<path d="M51 30.2468H21V25.2468C21 22.5325 23.2018 20.2468 25.8165 20.2468H46.1835C48.7982 20.2468 51 22.5325 51 25.2468V30.2468Z" fill="#EA4335"/>
<path d="M21 23.2752L40.0411 27.6789C42.2329 28.2294 44.6986 27.6789 46.4795 26.3028L51 23V33.3211C51 35.9358 48.8082 38 46.2055 38H25.7945C23.1918 38 21 35.9358 21 33.3211V23.2752Z" fill="#4285F4"/>
<path d="M76.4 32.32C75.3733 32.32 74.4067 32.1333 73.5 31.76C72.5933 31.3867 71.7933 30.8667 71.1 30.2C70.42 29.52 69.88 28.7267 69.48 27.82C69.0933 26.9 68.9 25.9067 68.9 24.84C68.9 23.7733 69.0933 22.7867 69.48 21.88C69.88 20.96 70.42 20.1667 71.1 19.5C71.7933 18.82 72.5933 18.2933 73.5 17.92C74.4067 17.5467 75.3733 17.36 76.4 17.36C77.4933 17.36 78.5 17.5533 79.42 17.94C80.3533 18.3267 81.1333 18.8667 81.76 19.56L80.24 21.06C79.9333 20.7133 79.58 20.42 79.18 20.18C78.7933 19.94 78.3667 19.76 77.9 19.64C77.4333 19.5067 76.9333 19.44 76.4 19.44C75.6933 19.44 75.02 19.5667 74.38 19.82C73.74 20.0733 73.1733 20.44 72.68 20.92C72.2 21.3867 71.82 21.9533 71.54 22.62C71.26 23.2733 71.12 24.0133 71.12 24.84C71.12 25.6667 71.26 26.4133 71.54 27.08C71.8333 27.7333 72.22 28.3 72.7 28.78C73.1933 29.2467 73.76 29.6067 74.4 29.86C75.04 30.1133 75.7133 30.24 76.42 30.24C77.0733 30.24 77.68 30.1467 78.24 29.96C78.8133 29.7733 79.3133 29.5067 79.74 29.16C80.1667 28.8133 80.5133 28.3933 80.78 27.9C81.0467 27.3933 81.2133 26.8267 81.28 26.2H76.38V24.26H83.34C83.3667 24.42 83.3933 24.6067 83.42 24.82C83.4467 25.02 83.46 25.2133 83.46 25.4V25.42C83.46 26.4467 83.28 27.3867 82.92 28.24C82.5733 29.0933 82.0867 29.8267 81.46 30.44C80.8333 31.04 80.0867 31.5067 79.22 31.84C78.3667 32.16 77.4267 32.32 76.4 32.32ZM89.8998 32.32C88.8465 32.32 87.9198 32.08 87.1198 31.6C86.3198 31.12 85.6932 30.4733 85.2398 29.66C84.7865 28.8333 84.5598 27.9133 84.5598 26.9C84.5598 25.8867 84.7865 24.9733 85.2398 24.16C85.6932 23.3333 86.3198 22.68 87.1198 22.2C87.9198 21.72 88.8465 21.48 89.8998 21.48C90.9398 21.48 91.8598 21.7267 92.6598 22.22C93.4598 22.7 94.0865 23.3467 94.5398 24.16C94.9932 24.9733 95.2198 25.8867 95.2198 26.9C95.2198 27.9133 94.9932 28.8333 94.5398 29.66C94.0865 30.4733 93.4598 31.12 92.6598 31.6C91.8598 32.08 90.9398 32.32 89.8998 32.32ZM89.8998 30.34C90.4598 30.34 90.9798 30.2067 91.4598 29.94C91.9398 29.66 92.3265 29.2667 92.6198 28.76C92.9265 28.24 93.0798 27.62 93.0798 26.9C93.0798 26.18 92.9265 25.5667 92.6198 25.06C92.3265 24.54 91.9398 24.1467 91.4598 23.88C90.9798 23.6 90.4598 23.46 89.8998 23.46C89.3398 23.46 88.8132 23.6 88.3198 23.88C87.8398 24.1467 87.4465 24.54 87.1398 25.06C86.8465 25.5667 86.6998 26.18 86.6998 26.9C86.6998 27.62 86.8465 28.24 87.1398 28.76C87.4465 29.2667 87.8465 29.66 88.3398 29.94C88.8332 30.2067 89.3532 30.34 89.8998 30.34ZM102.009 32.32C100.956 32.32 100.029 32.08 99.2292 31.6C98.4292 31.12 97.8026 30.4733 97.3492 29.66C96.8959 28.8333 96.6692 27.9133 96.6692 26.9C96.6692 25.8867 96.8959 24.9733 97.3492 24.16C97.8026 23.3333 98.4292 22.68 99.2292 22.2C100.029 21.72 100.956 21.48 102.009 21.48C103.049 21.48 103.969 21.7267 104.769 22.22C105.569 22.7 106.196 23.3467 106.649 24.16C107.103 24.9733 107.329 25.8867 107.329 26.9C107.329 27.9133 107.103 28.8333 106.649 29.66C106.196 30.4733 105.569 31.12 104.769 31.6C103.969 32.08 103.049 32.32 102.009 32.32ZM102.009 30.34C102.569 30.34 103.089 30.2067 103.569 29.94C104.049 29.66 104.436 29.2667 104.729 28.76C105.036 28.24 105.189 27.62 105.189 26.9C105.189 26.18 105.036 25.5667 104.729 25.06C104.436 24.54 104.049 24.1467 103.569 23.88C103.089 23.6 102.569 23.46 102.009 23.46C101.449 23.46 100.923 23.6 100.429 23.88C99.9492 24.1467 99.5559 24.54 99.2492 25.06C98.9559 25.5667 98.8092 26.18 98.8092 26.9C98.8092 27.62 98.9559 28.24 99.2492 28.76C99.5559 29.2667 99.9559 29.66 100.449 29.94C100.943 30.2067 101.463 30.34 102.009 30.34ZM113.919 36.64C113.025 36.64 112.252 36.4933 111.599 36.2C110.959 35.92 110.439 35.5533 110.039 35.1C109.639 34.66 109.352 34.2067 109.179 33.74L111.179 32.9C111.392 33.4333 111.732 33.8667 112.199 34.2C112.679 34.5467 113.252 34.72 113.919 34.72C114.865 34.72 115.605 34.44 116.139 33.88C116.672 33.32 116.939 32.5267 116.939 31.5V30.52H116.819C116.499 30.9867 116.059 31.3667 115.499 31.66C114.939 31.9533 114.292 32.1 113.559 32.1C112.692 32.1 111.892 31.88 111.159 31.44C110.439 31 109.859 30.3867 109.419 29.6C108.992 28.8 108.779 27.8667 108.779 26.8C108.779 25.72 108.992 24.7867 109.419 24C109.859 23.2 110.439 22.58 111.159 22.14C111.892 21.7 112.692 21.48 113.559 21.48C114.292 21.48 114.939 21.6267 115.499 21.92C116.059 22.2 116.499 22.5867 116.819 23.08H116.939V21.8H118.999V31.46C118.999 32.5667 118.779 33.5067 118.339 34.28C117.912 35.0533 117.319 35.64 116.559 36.04C115.799 36.44 114.919 36.64 113.919 36.64ZM113.939 30.14C114.472 30.14 114.965 30.0133 115.419 29.76C115.885 29.4933 116.252 29.1133 116.519 28.62C116.799 28.1133 116.939 27.5067 116.939 26.8C116.939 26.0533 116.799 25.4333 116.519 24.94C116.252 24.4467 115.885 24.0733 115.419 23.82C114.965 23.5667 114.472 23.44 113.939 23.44C113.405 23.44 112.905 23.5667 112.439 23.82C111.985 24.0733 111.619 24.4533 111.339 24.96C111.059 25.4533 110.919 26.0667 110.919 26.8C110.919 27.52 111.059 28.1333 111.339 28.64C111.619 29.1333 111.985 29.5067 112.439 29.76C112.905 30.0133 113.405 30.14 113.939 30.14ZM121.546 32V17.68H123.706V32H121.546ZM130.815 32.32C129.815 32.32 128.921 32.0867 128.135 31.62C127.348 31.1533 126.728 30.5133 126.275 29.7C125.835 28.8867 125.615 27.96 125.615 26.92C125.615 25.9467 125.828 25.0467 126.255 24.22C126.681 23.3933 127.275 22.7333 128.035 22.24C128.808 21.7333 129.695 21.48 130.695 21.48C131.748 21.48 132.641 21.7067 133.375 22.16C134.121 22.6133 134.688 23.2333 135.075 24.02C135.461 24.8067 135.655 25.6933 135.655 26.68C135.655 26.8267 135.648 26.96 135.635 27.08C135.635 27.2 135.628 27.2933 135.615 27.36H127.735C127.788 27.92 127.928 28.4067 128.155 28.82C128.448 29.34 128.835 29.7333 129.315 30C129.795 30.2667 130.315 30.4 130.875 30.4C131.555 30.4 132.121 30.2467 132.575 29.94C133.041 29.62 133.408 29.2267 133.675 28.76L135.455 29.62C135.015 30.42 134.415 31.0733 133.655 31.58C132.895 32.0733 131.948 32.32 130.815 32.32ZM127.855 25.74H133.515C133.501 25.4867 133.435 25.22 133.315 24.94C133.195 24.6467 133.021 24.38 132.795 24.14C132.568 23.9 132.281 23.7067 131.935 23.56C131.588 23.4 131.181 23.32 130.715 23.32C130.128 23.32 129.608 23.4733 129.155 23.78C128.701 24.0733 128.348 24.4867 128.095 25.02C127.988 25.2467 127.908 25.4867 127.855 25.74ZM147.126 32.32C146.14 32.32 145.28 32.1 144.546 31.66C143.813 31.22 143.24 30.6133 142.826 29.84C142.413 29.0533 142.206 28.1533 142.206 27.14V17.68H144.366V27.18C144.366 27.82 144.486 28.38 144.726 28.86C144.966 29.3267 145.293 29.6933 145.706 29.96C146.133 30.2267 146.6 30.36 147.106 30.36C147.666 30.36 148.16 30.24 148.586 30C149.013 29.76 149.346 29.44 149.586 29.04C149.826 28.64 149.946 28.1933 149.946 27.7C149.946 27.3933 149.9 27.1067 149.806 26.84C149.726 26.56 149.593 26.28 149.406 26L148.846 25.14C148.566 24.7267 148.353 24.3067 148.206 23.88C148.073 23.44 148.006 22.9133 148.006 22.3H150.166C150.153 22.6333 150.2 22.9667 150.306 23.3C150.413 23.62 150.553 23.9133 150.726 24.18L151.326 25.08C151.58 25.4533 151.766 25.8533 151.886 26.28C152.02 26.7067 152.086 27.1667 152.086 27.66C152.086 28.5 151.88 29.2733 151.466 29.98C151.066 30.6867 150.493 31.2533 149.746 31.68C149 32.1067 148.126 32.32 147.126 32.32ZM157.965 32.32C157.111 32.32 156.338 32.1467 155.645 31.8C154.951 31.4533 154.398 30.9733 153.985 30.36C153.571 29.7333 153.365 29 153.365 28.16C153.365 27.9467 153.378 27.7333 153.405 27.52C153.445 27.2933 153.498 27.08 153.565 26.88L155.605 27.2C155.578 27.3467 155.558 27.4867 155.545 27.62C155.531 27.7533 155.525 27.88 155.525 28C155.525 28.5067 155.631 28.94 155.845 29.3C156.058 29.6467 156.345 29.9133 156.705 30.1C157.078 30.2867 157.491 30.38 157.945 30.38C158.651 30.38 159.231 30.18 159.685 29.78C160.151 29.3667 160.385 28.8333 160.385 28.18C160.385 27.8067 160.311 27.48 160.165 27.2C160.031 26.92 159.871 26.6867 159.685 26.5C159.498 26.3133 159.331 26.16 159.185 26.04L158.345 25.38C157.958 25.0733 157.611 24.68 157.305 24.2C157.011 23.7067 156.865 23.0733 156.865 22.3H159.025C159.025 22.7267 159.131 23.0867 159.345 23.38C159.571 23.6733 159.825 23.94 160.105 24.18L160.965 24.9C161.245 25.1267 161.498 25.3867 161.725 25.68C161.965 25.9733 162.158 26.3267 162.305 26.74C162.451 27.1533 162.525 27.6467 162.525 28.22C162.525 29.0067 162.325 29.7133 161.925 30.34C161.525 30.9533 160.978 31.44 160.285 31.8C159.605 32.1467 158.831 32.32 157.965 32.32ZM173.076 36.64C171.982 36.64 171.009 36.48 170.156 36.16C169.316 35.84 168.662 35.3733 168.196 34.76C167.742 34.1467 167.549 33.4133 167.616 32.56L169.816 32.66C169.802 33.1133 169.936 33.4933 170.216 33.8C170.509 34.12 170.909 34.36 171.416 34.52C171.936 34.68 172.509 34.76 173.136 34.76C174.136 34.76 174.922 34.5333 175.496 34.08C176.082 33.6267 176.376 33.0667 176.376 32.4C176.376 31.8133 176.176 31.3267 175.776 30.94C175.389 30.5533 174.876 30.3533 174.236 30.34L173.976 30.32V28.4H174.556C175.209 28.4 175.729 28.2133 176.116 27.84C176.516 27.4667 176.716 26.92 176.716 26.2C176.716 25.4533 176.542 24.8933 176.196 24.52C175.849 24.1333 175.382 23.94 174.796 23.94C174.236 23.94 173.782 24.1267 173.436 24.5C173.089 24.86 172.916 25.4 172.916 26.12V26.9C172.916 27.6867 172.722 28.4067 172.336 29.06C171.962 29.7133 171.436 30.2333 170.756 30.62C170.076 30.9933 169.296 31.18 168.416 31.18C167.522 31.18 166.736 30.9867 166.056 30.6C165.376 30.2 164.842 29.66 164.456 28.98C164.082 28.2867 163.896 27.4933 163.896 26.6C163.896 25.6933 164.082 24.8933 164.456 24.2C164.842 23.5067 165.369 22.9667 166.036 22.58C166.716 22.18 167.496 21.98 168.376 21.98C169.109 21.98 169.776 22.14 170.376 22.46C170.989 22.7667 171.442 23.2 171.736 23.76H171.796C172.062 23.2 172.462 22.7667 172.996 22.46C173.542 22.14 174.189 21.98 174.936 21.98C175.682 21.98 176.349 22.14 176.936 22.46C177.536 22.7667 178.009 23.22 178.356 23.82C178.702 24.4067 178.876 25.12 178.876 25.96C178.876 26.9467 178.656 27.7133 178.216 28.26C177.776 28.8067 177.256 29.18 176.656 29.38V29.5C177.256 29.7133 177.716 30.0867 178.036 30.62C178.356 31.14 178.516 31.7467 178.516 32.44C178.516 33.2533 178.296 33.9733 177.856 34.6C177.416 35.24 176.789 35.74 175.976 36.1C175.162 36.46 174.196 36.64 173.076 36.64ZM168.416 29.26C169.122 29.26 169.696 29.02 170.136 28.54C170.589 28.06 170.816 27.4133 170.816 26.6C170.816 25.7733 170.589 25.12 170.136 24.64C169.682 24.16 169.109 23.92 168.416 23.92C167.709 23.92 167.129 24.16 166.676 24.64C166.222 25.12 165.996 25.7733 165.996 26.6C165.996 27.4133 166.222 28.06 166.676 28.54C167.142 29.02 167.722 29.26 168.416 29.26ZM185.162 36.64C184.228 36.64 183.395 36.44 182.662 36.04C181.928 35.64 181.355 35.0867 180.942 34.38C180.528 33.6867 180.322 32.8933 180.322 32C180.322 31.3733 180.442 30.74 180.682 30.1L182.682 30.54C182.615 30.78 182.562 31.0133 182.522 31.24C182.482 31.4667 182.462 31.6867 182.462 31.9C182.462 32.66 182.695 33.3067 183.162 33.84C183.642 34.3867 184.308 34.66 185.162 34.66C185.682 34.66 186.148 34.54 186.562 34.3C186.988 34.0733 187.322 33.74 187.562 33.3C187.802 32.86 187.922 32.3267 187.922 31.7V25.4C187.922 24.9467 187.795 24.5867 187.542 24.32C187.302 24.04 186.955 23.9 186.502 23.9C186.048 23.9 185.702 24.04 185.462 24.32C185.235 24.5867 185.122 24.9467 185.122 25.4V27.86H183.002V25.52C183.002 25.0267 182.868 24.6733 182.602 24.46C182.348 24.2333 182.008 24.12 181.582 24.12H180.322V22.1H181.762C182.268 22.1 182.722 22.2067 183.122 22.42C183.535 22.62 183.835 22.92 184.022 23.32H184.142C184.368 22.92 184.708 22.6 185.162 22.36C185.615 22.1067 186.162 21.98 186.802 21.98C187.415 21.98 187.962 22.1133 188.442 22.38C188.935 22.6333 189.322 23.0067 189.602 23.5C189.895 23.9933 190.042 24.58 190.042 25.26V31.62C190.042 32.6067 189.835 33.4733 189.422 34.22C189.022 34.98 188.455 35.5733 187.722 36C186.988 36.4267 186.135 36.64 185.162 36.64ZM203.065 36.32C203.025 35.8 202.805 35.36 202.405 35C202.005 34.6533 201.492 34.3867 200.865 34.2C200.238 34.0133 199.538 33.92 198.765 33.92C198.152 33.92 197.525 33.9933 196.885 34.14C196.245 34.2867 195.638 34.5133 195.065 34.82L194.265 33.38C194.585 33.2067 194.885 33.06 195.165 32.94C195.445 32.8333 195.712 32.7533 195.965 32.7V32.58C195.192 32.3267 194.492 31.9533 193.865 31.46C193.252 30.9533 192.765 30.3133 192.405 29.54C192.045 28.7667 191.858 27.8533 191.845 26.8C191.832 25.7333 191.998 24.8467 192.345 24.14C192.692 23.42 193.158 22.88 193.745 22.52C194.332 22.16 194.972 21.98 195.665 21.98C196.012 21.98 196.365 22.04 196.725 22.16C197.085 22.28 197.418 22.4733 197.725 22.74C198.045 22.9933 198.305 23.3467 198.505 23.8H198.625C198.878 23.16 199.252 22.7 199.745 22.42C200.238 22.1267 200.778 21.98 201.365 21.98C201.965 21.98 202.512 22.1267 203.005 22.42C203.498 22.7 203.865 23.16 204.105 23.8H204.225C204.412 23.3733 204.652 23.0267 204.945 22.76C205.238 22.4933 205.565 22.3 205.925 22.18C206.285 22.0467 206.665 21.98 207.065 21.98C207.772 21.98 208.412 22.16 208.985 22.52C209.558 22.88 210.018 23.42 210.365 24.14C210.712 24.8467 210.885 25.7267 210.885 26.78C210.885 27.66 210.772 28.5 210.545 29.3C210.332 30.0867 210.058 30.7933 209.725 31.42L207.685 30.96C208.018 30.2933 208.278 29.62 208.465 28.94C208.652 28.26 208.745 27.5533 208.745 26.82C208.745 25.9533 208.572 25.2667 208.225 24.76C207.892 24.24 207.452 23.98 206.905 23.98C206.398 23.98 205.985 24.1667 205.665 24.54C205.345 24.9133 205.185 25.5 205.185 26.3V29.14H203.065V26.1C203.065 25.4067 202.898 24.88 202.565 24.52C202.232 24.16 201.832 23.98 201.365 23.98C200.858 23.98 200.438 24.16 200.105 24.52C199.785 24.88 199.625 25.4067 199.625 26.1V29.14H197.485V26.3C197.485 25.5133 197.325 24.9333 197.005 24.56C196.685 24.1733 196.292 23.98 195.825 23.98C195.265 23.98 194.818 24.2267 194.485 24.72C194.152 25.2133 193.985 25.92 193.985 26.84C193.998 28.2 194.392 29.2933 195.165 30.12C195.938 30.9467 197.098 31.5067 198.645 31.8L200.785 32.2C202.065 32.44 203.092 32.9133 203.865 33.62C204.638 34.3267 205.085 35.2267 205.205 36.32H203.065ZM217.113 36.64C216.18 36.64 215.347 36.44 214.613 36.04C213.88 35.64 213.307 35.0867 212.893 34.38C212.48 33.6867 212.273 32.8933 212.273 32C212.273 31.3733 212.393 30.74 212.633 30.1L214.633 30.54C214.567 30.78 214.513 31.0133 214.473 31.24C214.433 31.4667 214.413 31.6867 214.413 31.9C214.413 32.66 214.647 33.3067 215.113 33.84C215.593 34.3867 216.26 34.66 217.113 34.66C217.633 34.66 218.1 34.54 218.513 34.3C218.94 34.0733 219.273 33.74 219.513 33.3C219.753 32.86 219.873 32.3267 219.873 31.7V26.54C219.873 25.74 219.627 25.1133 219.133 24.66C218.653 24.1933 218.027 23.96 217.253 23.96C216.813 23.96 216.393 24.0533 215.993 24.24C215.607 24.4133 215.293 24.68 215.053 25.04C214.813 25.3867 214.693 25.8067 214.693 26.3C214.693 26.4333 214.7 26.5667 214.713 26.7C214.74 26.8333 214.767 26.9733 214.793 27.12L212.713 27.38C212.673 27.18 212.64 26.98 212.613 26.78C212.587 26.58 212.573 26.3733 212.573 26.16C212.573 25.32 212.78 24.5867 213.193 23.96C213.62 23.3333 214.187 22.8467 214.893 22.5C215.613 22.1533 216.4 21.98 217.253 21.98C218.187 21.98 219.007 22.1667 219.713 22.54C220.42 22.9133 220.973 23.4533 221.373 24.16C221.787 24.8533 221.993 25.68 221.993 26.64V31.62C221.993 32.6067 221.787 33.4733 221.373 34.22C220.96 34.98 220.387 35.5733 219.653 36C218.933 36.4267 218.087 36.64 217.113 36.64ZM228.959 32.32C227.932 32.32 227.039 32.0933 226.279 31.64C225.532 31.1733 224.952 30.5533 224.539 29.78C224.125 29.0067 223.919 28.16 223.919 27.24C223.919 26.2933 224.119 25.44 224.519 24.68C224.919 23.92 225.472 23.32 226.179 22.88C226.885 22.4267 227.692 22.2 228.599 22.2C229.319 22.2 229.939 22.36 230.459 22.68C230.979 23 231.385 23.3667 231.679 23.78H231.799L231.719 22.7V20.8C231.719 20.36 231.599 20 231.359 19.72C231.119 19.4267 230.759 19.28 230.279 19.28C229.825 19.28 229.479 19.4133 229.239 19.68C229.012 19.9333 228.899 20.2533 228.899 20.64V21.16H226.779V20.68C226.779 20.2133 226.645 19.8733 226.379 19.66C226.125 19.4467 225.785 19.34 225.359 19.34C225.039 19.34 224.765 19.3733 224.539 19.44C224.312 19.4933 224.112 19.5533 223.939 19.62V17.58C224.125 17.5133 224.352 17.46 224.619 17.42C224.885 17.38 225.199 17.36 225.559 17.36C226.065 17.36 226.512 17.4733 226.899 17.7C227.299 17.9133 227.619 18.24 227.859 18.68H227.979C228.219 18.2667 228.559 17.9467 228.999 17.72C229.452 17.48 230.005 17.36 230.659 17.36C231.245 17.36 231.779 17.4933 232.259 17.76C232.739 18.0267 233.119 18.4067 233.399 18.9C233.692 19.3933 233.839 19.98 233.839 20.66V27.12C233.839 28.08 233.632 28.9533 233.219 29.74C232.805 30.5267 232.232 31.1533 231.499 31.62C230.765 32.0867 229.919 32.32 228.959 32.32ZM228.939 30.34C229.459 30.34 229.939 30.2133 230.379 29.96C230.819 29.6933 231.172 29.3333 231.439 28.88C231.705 28.4133 231.839 27.8667 231.839 27.24C231.839 26.6133 231.705 26.0733 231.439 25.62C231.172 25.1533 230.819 24.7933 230.379 24.54C229.939 24.2867 229.465 24.16 228.959 24.16C228.439 24.16 227.959 24.2867 227.519 24.54C227.079 24.78 226.725 25.1333 226.459 25.6C226.192 26.0533 226.059 26.6 226.059 27.24C226.059 27.8667 226.192 28.4133 226.459 28.88C226.725 29.3333 227.079 29.6933 227.519 29.96C227.959 30.2133 228.432 30.34 228.939 30.34ZM236.814 32C236.521 31.3867 236.247 30.66 235.994 29.82C235.754 28.9667 235.634 28.06 235.634 27.1C235.634 26.0733 235.834 25.18 236.234 24.42C236.647 23.6467 237.214 23.0467 237.934 22.62C238.667 22.1933 239.527 21.98 240.514 21.98C241.487 21.98 242.341 22.1933 243.074 22.62C243.821 23.0467 244.401 23.6467 244.814 24.42C245.227 25.18 245.434 26.0733 245.434 27.1C245.434 28.06 245.314 28.9667 245.074 29.82C244.834 30.66 244.561 31.3867 244.254 32H242.034C242.447 31.1867 242.761 30.3867 242.974 29.6C243.201 28.8 243.314 27.9733 243.314 27.12C243.314 26.44 243.187 25.8667 242.934 25.4C242.681 24.92 242.341 24.56 241.914 24.32C241.501 24.0667 241.034 23.94 240.514 23.94C240.007 23.94 239.547 24.06 239.134 24.3C238.734 24.54 238.414 24.9 238.174 25.38C237.934 25.8467 237.807 26.4267 237.794 27.12C237.781 27.96 237.874 28.78 238.074 29.58C238.287 30.3667 238.607 31.1733 239.034 32H236.814ZM256.753 32.32C255.793 32.32 254.946 32.0867 254.213 31.62C253.479 31.1533 252.906 30.52 252.493 29.72C252.079 28.9067 251.873 28.0067 251.873 27.02V21.48C251.873 20.68 252.059 20 252.433 19.44C252.806 18.8667 253.319 18.4333 253.973 18.14C254.626 17.8333 255.366 17.68 256.193 17.68H260.853V19.64H256.253C255.599 19.64 255.059 19.8067 254.633 20.14C254.219 20.4733 254.013 20.92 254.013 21.48V22.5L253.953 23.56H254.073C254.379 23.1467 254.779 22.78 255.273 22.46C255.779 22.14 256.399 21.98 257.133 21.98C258.039 21.98 258.839 22.2067 259.533 22.66C260.239 23.1133 260.793 23.7267 261.193 24.5C261.593 25.2733 261.793 26.1533 261.793 27.14C261.793 28.1 261.586 28.9733 261.173 29.76C260.759 30.5333 260.173 31.1533 259.413 31.62C258.666 32.0867 257.779 32.32 256.753 32.32ZM256.773 30.34C257.293 30.34 257.766 30.2067 258.193 29.94C258.633 29.6733 258.986 29.3 259.253 28.82C259.519 28.34 259.653 27.78 259.653 27.14C259.653 26.4867 259.519 25.9267 259.253 25.46C258.986 24.98 258.633 24.6133 258.193 24.36C257.753 24.0933 257.273 23.96 256.753 23.96C256.259 23.96 255.793 24.0933 255.353 24.36C254.913 24.6133 254.553 24.98 254.273 25.46C254.006 25.9267 253.873 26.4867 253.873 27.14C253.873 27.78 254.006 28.34 254.273 28.82C254.553 29.3 254.906 29.6733 255.333 29.94C255.773 30.2067 256.253 30.34 256.773 30.34ZM267.769 32.32C266.916 32.32 266.143 32.1467 265.449 31.8C264.756 31.4533 264.203 30.9733 263.789 30.36C263.376 29.7333 263.169 29 263.169 28.16C263.169 27.9467 263.183 27.7333 263.209 27.52C263.249 27.2933 263.303 27.08 263.369 26.88L265.409 27.2C265.383 27.3467 265.363 27.4867 265.349 27.62C265.336 27.7533 265.329 27.88 265.329 28C265.329 28.5067 265.436 28.94 265.649 29.3C265.863 29.6467 266.149 29.9133 266.509 30.1C266.883 30.2867 267.296 30.38 267.749 30.38C268.456 30.38 269.036 30.18 269.489 29.78C269.956 29.3667 270.189 28.8333 270.189 28.18C270.189 27.8067 270.116 27.48 269.969 27.2C269.836 26.92 269.676 26.6867 269.489 26.5C269.303 26.3133 269.136 26.16 268.989 26.04L268.149 25.38C267.763 25.0733 267.416 24.68 267.109 24.2C266.816 23.7067 266.669 23.0733 266.669 22.3H268.829C268.829 22.7267 268.936 23.0867 269.149 23.38C269.376 23.6733 269.629 23.94 269.909 24.18L270.769 24.9C271.049 25.1267 271.303 25.3867 271.529 25.68C271.769 25.9733 271.963 26.3267 272.109 26.74C272.256 27.1533 272.329 27.6467 272.329 28.22C272.329 29.0067 272.129 29.7133 271.729 30.34C271.329 30.9533 270.783 31.44 270.089 31.8C269.409 32.1467 268.636 32.32 267.769 32.32ZM279.02 32.32C278.047 32.32 277.194 32.0933 276.46 31.64C275.727 31.1867 275.154 30.56 274.74 29.76C274.327 28.9467 274.12 28.0267 274.12 27L274.14 17.68H276.28V22.22L276.16 23.58H276.24C276.534 23.1667 276.947 22.8 277.48 22.48C278.014 22.1467 278.667 21.98 279.44 21.98C280.347 21.98 281.147 22.2067 281.84 22.66C282.534 23.1 283.08 23.7067 283.48 24.48C283.88 25.2533 284.08 26.1333 284.08 27.12C284.08 28.1067 283.874 28.9933 283.46 29.78C283.047 30.5667 282.46 31.1867 281.7 31.64C280.954 32.0933 280.06 32.32 279.02 32.32ZM279.04 30.36C279.547 30.36 280.02 30.2267 280.46 29.96C280.9 29.6933 281.254 29.32 281.52 28.84C281.8 28.3467 281.94 27.7733 281.94 27.12C281.94 26.4667 281.8 25.9067 281.52 25.44C281.254 24.96 280.9 24.5933 280.46 24.34C280.02 24.0733 279.54 23.94 279.02 23.94C278.527 23.94 278.06 24.0733 277.62 24.34C277.18 24.5933 276.82 24.96 276.54 25.44C276.274 25.9067 276.14 26.4667 276.14 27.12C276.14 27.7733 276.274 28.3467 276.54 28.84C276.82 29.32 277.18 29.6933 277.62 29.96C278.06 30.2267 278.534 30.36 279.04 30.36ZM290.495 36.64C289.522 36.64 288.662 36.4467 287.915 36.06C287.168 35.6867 286.582 35.1667 286.155 34.5C285.742 33.8333 285.535 33.0867 285.535 32.26C285.535 32.0467 285.548 31.8267 285.575 31.6C285.615 31.36 285.668 31.12 285.735 30.88L287.795 31.2C287.755 31.3733 287.728 31.5267 287.715 31.66C287.702 31.7933 287.695 31.9333 287.695 32.08C287.695 32.5733 287.808 33.0133 288.035 33.4C288.262 33.7867 288.588 34.0933 289.015 34.32C289.442 34.56 289.935 34.68 290.495 34.68C291.335 34.68 292.022 34.46 292.555 34.02C293.088 33.58 293.355 32.9867 293.355 32.24C293.355 31.5067 293.102 30.9267 292.595 30.5C292.088 30.0733 291.442 29.86 290.655 29.86H289.815V27.92H290.655C291.375 27.92 291.948 27.7533 292.375 27.42C292.815 27.0867 293.035 26.6067 293.035 25.98C293.035 25.34 292.795 24.84 292.315 24.48C291.835 24.1067 291.248 23.92 290.555 23.92C290.062 23.92 289.615 24.0133 289.215 24.2C288.828 24.3733 288.522 24.6267 288.295 24.96C288.082 25.28 287.975 25.6733 287.975 26.14C287.975 26.2333 287.975 26.3333 287.975 26.44C287.988 26.5333 288.002 26.6333 288.015 26.74L285.915 26.92C285.888 26.7733 285.868 26.6267 285.855 26.48C285.842 26.32 285.835 26.1733 285.835 26.04C285.835 25.24 286.048 24.54 286.475 23.94C286.902 23.3267 287.475 22.8467 288.195 22.5C288.928 22.1533 289.722 21.98 290.575 21.98C291.455 21.98 292.242 22.1533 292.935 22.5C293.628 22.8333 294.175 23.2933 294.575 23.88C294.975 24.4667 295.175 25.1267 295.175 25.86C295.175 26.62 294.995 27.24 294.635 27.72C294.275 28.2 293.815 28.5533 293.255 28.78V28.9C293.922 29.14 294.462 29.5667 294.875 30.18C295.288 30.78 295.495 31.4867 295.495 32.3C295.495 33.1 295.288 33.8267 294.875 34.48C294.462 35.1467 293.875 35.6733 293.115 36.06C292.368 36.4467 291.495 36.64 290.495 36.64ZM301.383 32.32C300.529 32.32 299.756 32.1467 299.063 31.8C298.369 31.4533 297.816 30.9733 297.403 30.36C296.989 29.7333 296.783 29 296.783 28.16C296.783 27.9467 296.796 27.7333 296.823 27.52C296.863 27.2933 296.916 27.08 296.983 26.88L299.023 27.2C298.996 27.3467 298.976 27.4867 298.963 27.62C298.949 27.7533 298.943 27.88 298.943 28C298.943 28.5067 299.049 28.94 299.263 29.3C299.476 29.6467 299.763 29.9133 300.123 30.1C300.496 30.2867 300.909 30.38 301.363 30.38C302.069 30.38 302.649 30.18 303.103 29.78C303.569 29.3667 303.803 28.8333 303.803 28.18C303.803 27.8067 303.729 27.48 303.583 27.2C303.449 26.92 303.289 26.6867 303.103 26.5C302.916 26.3133 302.749 26.16 302.603 26.04L301.763 25.38C301.376 25.0733 301.029 24.68 300.723 24.2C300.429 23.7067 300.283 23.0733 300.283 22.3H302.443C302.443 22.7267 302.549 23.0867 302.763 23.38C302.989 23.6733 303.243 23.94 303.523 24.18L304.383 24.9C304.663 25.1267 304.916 25.3867 305.143 25.68C305.383 25.9733 305.576 26.3267 305.723 26.74C305.869 27.1533 305.943 27.6467 305.943 28.22C305.943 29.0067 305.743 29.7133 305.343 30.34C304.943 30.9533 304.396 31.44 303.703 31.8C303.023 32.1467 302.249 32.32 301.383 32.32Z" fill="white"/>
</svg>
