<svg width="296" height="50" viewBox="0 0 296 50" fill="none" xmlns="http://www.w3.org/2000/svg">
<rect x="0.5" y="0.5" width="295" height="49" rx="24.5" fill="#1F1F1F"/>
<rect x="0.5" y="0.5" width="295" height="49" rx="24.5" stroke="#747775"/>
<path d="M51 22H21V17C21 14.2857 23.2018 12 25.8165 12H46.1835C48.7982 12 51 14.2857 51 17V22Z" fill="#34A853"/>
<path d="M51 26.0537H21V21.0537C21 18.3394 23.2018 16.0537 25.8165 16.0537H46.1835C48.7982 16.0537 51 18.3394 51 21.0537V26.0537Z" fill="#FBBC04"/>
<path d="M51 30.2468H21V25.2468C21 22.5325 23.2018 20.2468 25.8165 20.2468H46.1835C48.7982 20.2468 51 22.5325 51 25.2468V30.2468Z" fill="#EA4335"/>
<path d="M21 23.2752L40.0411 27.6789C42.2329 28.2294 44.6986 27.6789 46.4795 26.3028L51 23V33.3211C51 35.9358 48.8082 38 46.2055 38H25.7945C23.1918 38 21 35.9358 21 33.3211V23.2752Z" fill="#4285F4"/>
<path d="M71.4 32.32C70.3733 32.32 69.4067 32.1333 68.5 31.76C67.5933 31.3867 66.7933 30.8667 66.1 30.2C65.42 29.52 64.88 28.7267 64.48 27.82C64.0933 26.9 63.9 25.9067 63.9 24.84C63.9 23.7733 64.0933 22.7867 64.48 21.88C64.88 20.96 65.42 20.1667 66.1 19.5C66.7933 18.82 67.5933 18.2933 68.5 17.92C69.4067 17.5467 70.3733 17.36 71.4 17.36C72.4933 17.36 73.5 17.5533 74.42 17.94C75.3533 18.3267 76.1333 18.8667 76.76 19.56L75.24 21.06C74.9333 20.7133 74.58 20.42 74.18 20.18C73.7933 19.94 73.3667 19.76 72.9 19.64C72.4333 19.5067 71.9333 19.44 71.4 19.44C70.6933 19.44 70.02 19.5667 69.38 19.82C68.74 20.0733 68.1733 20.44 67.68 20.92C67.2 21.3867 66.82 21.9533 66.54 22.62C66.26 23.2733 66.12 24.0133 66.12 24.84C66.12 25.6667 66.26 26.4133 66.54 27.08C66.8333 27.7333 67.22 28.3 67.7 28.78C68.1933 29.2467 68.76 29.6067 69.4 29.86C70.04 30.1133 70.7133 30.24 71.42 30.24C72.0733 30.24 72.68 30.1467 73.24 29.96C73.8133 29.7733 74.3133 29.5067 74.74 29.16C75.1667 28.8133 75.5133 28.3933 75.78 27.9C76.0467 27.3933 76.2133 26.8267 76.28 26.2H71.38V24.26H78.34C78.3667 24.42 78.3933 24.6067 78.42 24.82C78.4467 25.02 78.46 25.2133 78.46 25.4V25.42C78.46 26.4467 78.28 27.3867 77.92 28.24C77.5733 29.0933 77.0867 29.8267 76.46 30.44C75.8333 31.04 75.0867 31.5067 74.22 31.84C73.3667 32.16 72.4267 32.32 71.4 32.32ZM84.8998 32.32C83.8465 32.32 82.9198 32.08 82.1198 31.6C81.3198 31.12 80.6932 30.4733 80.2398 29.66C79.7865 28.8333 79.5598 27.9133 79.5598 26.9C79.5598 25.8867 79.7865 24.9733 80.2398 24.16C80.6932 23.3333 81.3198 22.68 82.1198 22.2C82.9198 21.72 83.8465 21.48 84.8998 21.48C85.9398 21.48 86.8598 21.7267 87.6598 22.22C88.4598 22.7 89.0865 23.3467 89.5398 24.16C89.9932 24.9733 90.2198 25.8867 90.2198 26.9C90.2198 27.9133 89.9932 28.8333 89.5398 29.66C89.0865 30.4733 88.4598 31.12 87.6598 31.6C86.8598 32.08 85.9398 32.32 84.8998 32.32ZM84.8998 30.34C85.4598 30.34 85.9798 30.2067 86.4598 29.94C86.9398 29.66 87.3265 29.2667 87.6198 28.76C87.9265 28.24 88.0798 27.62 88.0798 26.9C88.0798 26.18 87.9265 25.5667 87.6198 25.06C87.3265 24.54 86.9398 24.1467 86.4598 23.88C85.9798 23.6 85.4598 23.46 84.8998 23.46C84.3398 23.46 83.8132 23.6 83.3198 23.88C82.8398 24.1467 82.4465 24.54 82.1398 25.06C81.8465 25.5667 81.6998 26.18 81.6998 26.9C81.6998 27.62 81.8465 28.24 82.1398 28.76C82.4465 29.2667 82.8465 29.66 83.3398 29.94C83.8332 30.2067 84.3532 30.34 84.8998 30.34ZM97.0092 32.32C95.9559 32.32 95.0292 32.08 94.2292 31.6C93.4292 31.12 92.8026 30.4733 92.3492 29.66C91.8959 28.8333 91.6692 27.9133 91.6692 26.9C91.6692 25.8867 91.8959 24.9733 92.3492 24.16C92.8026 23.3333 93.4292 22.68 94.2292 22.2C95.0292 21.72 95.9559 21.48 97.0092 21.48C98.0492 21.48 98.9692 21.7267 99.7692 22.22C100.569 22.7 101.196 23.3467 101.649 24.16C102.103 24.9733 102.329 25.8867 102.329 26.9C102.329 27.9133 102.103 28.8333 101.649 29.66C101.196 30.4733 100.569 31.12 99.7692 31.6C98.9692 32.08 98.0492 32.32 97.0092 32.32ZM97.0092 30.34C97.5692 30.34 98.0892 30.2067 98.5692 29.94C99.0492 29.66 99.4359 29.2667 99.7292 28.76C100.036 28.24 100.189 27.62 100.189 26.9C100.189 26.18 100.036 25.5667 99.7292 25.06C99.4359 24.54 99.0492 24.1467 98.5692 23.88C98.0892 23.6 97.5692 23.46 97.0092 23.46C96.4492 23.46 95.9226 23.6 95.4292 23.88C94.9492 24.1467 94.5559 24.54 94.2492 25.06C93.9559 25.5667 93.8092 26.18 93.8092 26.9C93.8092 27.62 93.9559 28.24 94.2492 28.76C94.5559 29.2667 94.9559 29.66 95.4492 29.94C95.9426 30.2067 96.4626 30.34 97.0092 30.34ZM108.919 36.64C108.025 36.64 107.252 36.4933 106.599 36.2C105.959 35.92 105.439 35.5533 105.039 35.1C104.639 34.66 104.352 34.2067 104.179 33.74L106.179 32.9C106.392 33.4333 106.732 33.8667 107.199 34.2C107.679 34.5467 108.252 34.72 108.919 34.72C109.865 34.72 110.605 34.44 111.139 33.88C111.672 33.32 111.939 32.5267 111.939 31.5V30.52H111.819C111.499 30.9867 111.059 31.3667 110.499 31.66C109.939 31.9533 109.292 32.1 108.559 32.1C107.692 32.1 106.892 31.88 106.159 31.44C105.439 31 104.859 30.3867 104.419 29.6C103.992 28.8 103.779 27.8667 103.779 26.8C103.779 25.72 103.992 24.7867 104.419 24C104.859 23.2 105.439 22.58 106.159 22.14C106.892 21.7 107.692 21.48 108.559 21.48C109.292 21.48 109.939 21.6267 110.499 21.92C111.059 22.2 111.499 22.5867 111.819 23.08H111.939V21.8H113.999V31.46C113.999 32.5667 113.779 33.5067 113.339 34.28C112.912 35.0533 112.319 35.64 111.559 36.04C110.799 36.44 109.919 36.64 108.919 36.64ZM108.939 30.14C109.472 30.14 109.965 30.0133 110.419 29.76C110.885 29.4933 111.252 29.1133 111.519 28.62C111.799 28.1133 111.939 27.5067 111.939 26.8C111.939 26.0533 111.799 25.4333 111.519 24.94C111.252 24.4467 110.885 24.0733 110.419 23.82C109.965 23.5667 109.472 23.44 108.939 23.44C108.405 23.44 107.905 23.5667 107.439 23.82C106.985 24.0733 106.619 24.4533 106.339 24.96C106.059 25.4533 105.919 26.0667 105.919 26.8C105.919 27.52 106.059 28.1333 106.339 28.64C106.619 29.1333 106.985 29.5067 107.439 29.76C107.905 30.0133 108.405 30.14 108.939 30.14ZM116.546 32V17.68H118.706V32H116.546ZM125.815 32.32C124.815 32.32 123.921 32.0867 123.135 31.62C122.348 31.1533 121.728 30.5133 121.275 29.7C120.835 28.8867 120.615 27.96 120.615 26.92C120.615 25.9467 120.828 25.0467 121.255 24.22C121.681 23.3933 122.275 22.7333 123.035 22.24C123.808 21.7333 124.695 21.48 125.695 21.48C126.748 21.48 127.641 21.7067 128.375 22.16C129.121 22.6133 129.688 23.2333 130.075 24.02C130.461 24.8067 130.655 25.6933 130.655 26.68C130.655 26.8267 130.648 26.96 130.635 27.08C130.635 27.2 130.628 27.2933 130.615 27.36H122.735C122.788 27.92 122.928 28.4067 123.155 28.82C123.448 29.34 123.835 29.7333 124.315 30C124.795 30.2667 125.315 30.4 125.875 30.4C126.555 30.4 127.121 30.2467 127.575 29.94C128.041 29.62 128.408 29.2267 128.675 28.76L130.455 29.62C130.015 30.42 129.415 31.0733 128.655 31.58C127.895 32.0733 126.948 32.32 125.815 32.32ZM122.855 25.74H128.515C128.501 25.4867 128.435 25.22 128.315 24.94C128.195 24.6467 128.021 24.38 127.795 24.14C127.568 23.9 127.281 23.7067 126.935 23.56C126.588 23.4 126.181 23.32 125.715 23.32C125.128 23.32 124.608 23.4733 124.155 23.78C123.701 24.0733 123.348 24.4867 123.095 25.02C122.988 25.2467 122.908 25.4867 122.855 25.74ZM139.446 32L135.606 17.68H138.046L140.326 26.98L140.566 28.22H140.686L140.986 26.98L143.866 17.68H146.066L148.826 26.98L149.126 28.2H149.246L149.486 26.98L151.766 17.68H154.186L150.406 32H148.086L145.346 22.5L145.026 21.16H144.906L144.566 22.5L141.706 32H139.446ZM158.202 32.32C157.469 32.32 156.816 32.1733 156.242 31.88C155.682 31.5867 155.236 31.1867 154.902 30.68C154.582 30.16 154.422 29.5667 154.422 28.9C154.422 28.1667 154.609 27.5467 154.982 27.04C155.369 26.5333 155.882 26.1467 156.522 25.88C157.162 25.6133 157.869 25.48 158.642 25.48C159.069 25.48 159.462 25.5133 159.822 25.58C160.196 25.6333 160.516 25.7 160.782 25.78C161.062 25.86 161.282 25.9467 161.442 26.04V25.5C161.442 24.8333 161.202 24.3 160.722 23.9C160.242 23.5 159.622 23.3 158.862 23.3C158.342 23.3 157.849 23.42 157.382 23.66C156.916 23.8867 156.542 24.2 156.262 24.6L154.782 23.46C155.076 23.0467 155.429 22.6933 155.842 22.4C156.269 22.1067 156.742 21.88 157.262 21.72C157.796 21.56 158.349 21.48 158.922 21.48C160.402 21.48 161.542 21.8467 162.342 22.58C163.142 23.3 163.542 24.3133 163.542 25.62V32H161.442V30.74H161.322C161.149 31.0067 160.909 31.26 160.602 31.5C160.309 31.74 159.956 31.9333 159.542 32.08C159.142 32.24 158.696 32.32 158.202 32.32ZM158.582 30.56C159.142 30.56 159.636 30.4267 160.062 30.16C160.502 29.8933 160.842 29.5467 161.082 29.12C161.322 28.68 161.442 28.2067 161.442 27.7C161.149 27.5267 160.789 27.3867 160.362 27.28C159.949 27.16 159.509 27.1 159.042 27.1C158.162 27.1 157.536 27.2733 157.162 27.62C156.789 27.9667 156.602 28.4 156.602 28.92C156.602 29.4 156.782 29.7933 157.142 30.1C157.502 30.4067 157.982 30.56 158.582 30.56ZM165.94 32V17.68H168.1V32H165.94ZM170.667 32V17.68H172.827V32H170.667ZM179.936 32.32C178.936 32.32 178.042 32.0867 177.256 31.62C176.469 31.1533 175.849 30.5133 175.396 29.7C174.956 28.8867 174.736 27.96 174.736 26.92C174.736 25.9467 174.949 25.0467 175.376 24.22C175.802 23.3933 176.396 22.7333 177.156 22.24C177.929 21.7333 178.816 21.48 179.816 21.48C180.869 21.48 181.762 21.7067 182.496 22.16C183.242 22.6133 183.809 23.2333 184.196 24.02C184.582 24.8067 184.776 25.6933 184.776 26.68C184.776 26.8267 184.769 26.96 184.756 27.08C184.756 27.2 184.749 27.2933 184.736 27.36H176.856C176.909 27.92 177.049 28.4067 177.276 28.82C177.569 29.34 177.956 29.7333 178.436 30C178.916 30.2667 179.436 30.4 179.996 30.4C180.676 30.4 181.242 30.2467 181.696 29.94C182.162 29.62 182.529 29.2267 182.796 28.76L184.576 29.62C184.136 30.42 183.536 31.0733 182.776 31.58C182.016 32.0733 181.069 32.32 179.936 32.32ZM176.976 25.74H182.636C182.622 25.4867 182.556 25.22 182.436 24.94C182.316 24.6467 182.142 24.38 181.916 24.14C181.689 23.9 181.402 23.7067 181.056 23.56C180.709 23.4 180.302 23.32 179.836 23.32C179.249 23.32 178.729 23.4733 178.276 23.78C177.822 24.0733 177.469 24.4867 177.216 25.02C177.109 25.2467 177.029 25.4867 176.976 25.74ZM185.787 21.8H187.567V18.92H189.727V21.8H192.227V23.68H189.727V28.58C189.727 29.0867 189.827 29.4733 190.027 29.74C190.24 30.0067 190.593 30.14 191.087 30.14C191.327 30.14 191.54 30.1067 191.727 30.04C191.913 29.96 192.1 29.8667 192.287 29.76V31.86C192.06 31.9533 191.82 32.0267 191.567 32.08C191.313 32.1333 191.013 32.16 190.667 32.16C189.72 32.16 188.967 31.8867 188.407 31.34C187.847 30.78 187.567 30.0133 187.567 29.04V23.68H185.787V21.8ZM194.279 26.72V24.88H200.839V26.72H194.279ZM205.61 32V23.68H202.25V21.8H211.11V23.68H207.75V32H205.61ZM217.533 32.32C216.533 32.32 215.64 32.0867 214.853 31.62C214.067 31.1533 213.447 30.5133 212.993 29.7C212.553 28.8867 212.333 27.96 212.333 26.92C212.333 25.9467 212.547 25.0467 212.973 24.22C213.4 23.3933 213.993 22.7333 214.753 22.24C215.527 21.7333 216.413 21.48 217.413 21.48C218.467 21.48 219.36 21.7067 220.093 22.16C220.84 22.6133 221.407 23.2333 221.793 24.02C222.18 24.8067 222.373 25.6933 222.373 26.68C222.373 26.8267 222.367 26.96 222.353 27.08C222.353 27.2 222.347 27.2933 222.333 27.36H214.453C214.507 27.92 214.647 28.4067 214.873 28.82C215.167 29.34 215.553 29.7333 216.033 30C216.513 30.2667 217.033 30.4 217.593 30.4C218.273 30.4 218.84 30.2467 219.293 29.94C219.76 29.62 220.127 29.2267 220.393 28.76L222.173 29.62C221.733 30.42 221.133 31.0733 220.373 31.58C219.613 32.0733 218.667 32.32 217.533 32.32ZM214.573 25.74H220.233C220.22 25.4867 220.153 25.22 220.033 24.94C219.913 24.6467 219.74 24.38 219.513 24.14C219.287 23.9 219 23.7067 218.653 23.56C218.307 23.4 217.9 23.32 217.433 23.32C216.847 23.32 216.327 23.4733 215.873 23.78C215.42 24.0733 215.067 24.4867 214.813 25.02C214.707 25.2467 214.627 25.4867 214.573 25.74Z" fill="white"/>
<path d="M230.26 32V21.8H232.42V26.32H232.54L236.54 21.8H239.02V21.92L234.76 26.58L239.18 31.88V32H236.62L232.54 26.98H232.42V32H230.26ZM245.119 32.32C244.065 32.32 243.139 32.08 242.339 31.6C241.539 31.12 240.912 30.4733 240.459 29.66C240.005 28.8333 239.779 27.9133 239.779 26.9C239.779 25.8867 240.005 24.9733 240.459 24.16C240.912 23.3333 241.539 22.68 242.339 22.2C243.139 21.72 244.059 21.48 245.099 21.48C246.152 21.48 247.079 21.7267 247.879 22.22C248.679 22.7 249.305 23.3467 249.759 24.16C250.212 24.9733 250.439 25.8867 250.439 26.9C250.439 27.9133 250.212 28.8333 249.759 29.66C249.305 30.4733 248.679 31.12 247.879 31.6C247.079 32.08 246.159 32.32 245.119 32.32ZM245.119 30.4C245.679 30.4 246.205 30.2667 246.699 30C247.192 29.72 247.592 29.32 247.899 28.8C248.085 28.48 248.219 28.12 248.299 27.72H241.919C241.999 28.12 242.132 28.4733 242.319 28.78C242.612 29.3133 243.005 29.72 243.499 30C244.005 30.2667 244.545 30.4 245.119 30.4ZM248.279 26.02C248.199 25.6467 248.072 25.3133 247.899 25.02C247.605 24.5 247.212 24.1 246.719 23.82C246.225 23.54 245.692 23.4 245.119 23.4C244.545 23.4 244.005 23.54 243.499 23.82C243.005 24.1 242.612 24.5 242.319 25.02C242.145 25.3133 242.019 25.6467 241.939 26.02H248.279ZM252.31 36.32V21.8H254.33V23.18H254.45C254.637 22.8867 254.884 22.6133 255.19 22.36C255.51 22.0933 255.884 21.88 256.31 21.72C256.737 21.56 257.21 21.48 257.73 21.48C258.664 21.48 259.497 21.7133 260.23 22.18C260.964 22.6467 261.544 23.2867 261.97 24.1C262.41 24.9133 262.63 25.8467 262.63 26.9C262.63 27.9533 262.41 28.8867 261.97 29.7C261.544 30.5133 260.964 31.1533 260.23 31.62C259.497 32.0867 258.664 32.32 257.73 32.32C256.957 32.32 256.284 32.1467 255.71 31.8C255.137 31.4533 254.717 31.0667 254.45 30.64H254.33L254.45 32.06V36.32H252.31ZM257.41 30.34C257.944 30.34 258.444 30.2 258.91 29.92C259.39 29.64 259.77 29.24 260.05 28.72C260.344 28.2 260.49 27.5933 260.49 26.9C260.49 26.1933 260.344 25.5867 260.05 25.08C259.77 24.56 259.39 24.16 258.91 23.88C258.444 23.6 257.944 23.46 257.41 23.46C256.877 23.46 256.377 23.6 255.91 23.88C255.444 24.16 255.064 24.56 254.77 25.08C254.477 25.5867 254.33 26.1933 254.33 26.9C254.33 27.6067 254.477 28.22 254.77 28.74C255.064 29.2467 255.444 29.64 255.91 29.92C256.377 30.2 256.877 30.34 257.41 30.34ZM267.666 35.82C267.626 35.9133 267.579 36.0067 267.526 36.1C267.486 36.2067 267.459 36.28 267.446 36.32H265.146C265.212 36.1733 265.306 35.9667 265.426 35.7C265.559 35.4333 265.686 35.1667 265.806 34.9C265.886 34.7267 265.966 34.54 266.046 34.34C266.139 34.14 266.232 33.9333 266.326 33.72C266.432 33.5067 266.532 33.3 266.626 33.1L267.386 31.44L263.126 21.8H265.526L268.446 28.76H268.546L271.366 21.8H273.746L268.466 33.96C268.372 34.1867 268.266 34.4267 268.146 34.68C268.039 34.9333 267.939 35.16 267.846 35.36C267.766 35.5733 267.706 35.7267 267.666 35.82Z" fill="white"/>
</svg>
