<svg width="307" height="50" viewBox="0 0 307 50" fill="none" xmlns="http://www.w3.org/2000/svg">
<rect x="0.5" y="0.5" width="306" height="49" rx="24.5" fill="#1F1F1F"/>
<rect x="0.5" y="0.5" width="306" height="49" rx="24.5" stroke="#747775"/>
<path d="M51 22H21V17C21 14.2857 23.2018 12 25.8165 12H46.1835C48.7982 12 51 14.2857 51 17V22Z" fill="#34A853"/>
<path d="M51 26.0537H21V21.0537C21 18.3394 23.2018 16.0537 25.8165 16.0537H46.1835C48.7982 16.0537 51 18.3394 51 21.0537V26.0537Z" fill="#FBBC04"/>
<path d="M51 30.2468H21V25.2468C21 22.5325 23.2018 20.2468 25.8165 20.2468H46.1835C48.7982 20.2468 51 22.5325 51 25.2468V30.2468Z" fill="#EA4335"/>
<path d="M21 23.2752L40.0411 27.6789C42.2329 28.2294 44.6986 27.6789 46.4795 26.3028L51 23V33.3211C51 35.9358 48.8082 38 46.2055 38H25.7945C23.1918 38 21 35.9358 21 33.3211V23.2752Z" fill="#4285F4"/>
<path d="M64.62 23.22C64.62 22.3533 64.84 21.7133 65.28 21.3C65.72 20.8733 66.3267 20.66 67.1 20.66C67.46 20.66 67.7733 20.7 68.04 20.78C68.32 20.86 68.5533 20.9467 68.74 21.04L68.24 22.74C68.1467 22.6733 68.0333 22.62 67.9 22.58C67.78 22.54 67.6467 22.52 67.5 22.52C67.2867 22.52 67.1 22.5867 66.94 22.72C66.7933 22.84 66.72 23.04 66.72 23.32V28.24C66.8 28.24 66.88 28.24 66.96 28.24C67.44 28.24 67.8333 28.4133 68.14 28.76C68.46 29.1067 68.62 29.5533 68.62 30.1V30.2C68.62 30.8133 68.4267 31.3 68.04 31.66C67.6667 32.02 67.2133 32.2 66.68 32.2C66.0933 32.2 65.6 32.02 65.2 31.66C64.8133 31.3 64.62 30.7533 64.62 30.02V23.22ZM66.68 31.02C66.88 31.02 67.0467 30.9467 67.18 30.8C67.3267 30.6533 67.4 30.46 67.4 30.22V30.1C67.4 29.86 67.3267 29.6667 67.18 29.52C67.0467 29.3733 66.8733 29.3 66.66 29.3C66.46 29.3 66.2933 29.3733 66.16 29.52C66.0267 29.6667 65.96 29.86 65.96 30.1V30.22C65.96 30.46 66.0267 30.6533 66.16 30.8C66.2933 30.9467 66.4667 31.02 66.68 31.02ZM75.9992 32.2C75.1192 32.2 74.3459 32.02 73.6792 31.66C73.0259 31.3 72.5126 30.8 72.1392 30.16C71.7792 29.5067 71.5992 28.7467 71.5992 27.88V24.76C71.2392 24.5333 70.9659 24.2667 70.7792 23.96C70.5926 23.6533 70.4992 23.2867 70.4992 22.86C70.4992 22.2333 70.7059 21.7333 71.1192 21.36C71.5326 20.9867 72.1259 20.8 72.8992 20.8H73.9992V22.68H72.9792C72.5526 22.68 72.3392 22.86 72.3392 23.22C72.3392 23.3933 72.3992 23.54 72.5192 23.66C72.6392 23.7667 72.8192 23.8867 73.0592 24.02L73.6992 24.36V25.82H78.3192V24.76C77.9726 24.5333 77.6992 24.2667 77.4992 23.96C77.3126 23.6533 77.2192 23.2867 77.2192 22.86C77.2192 22.2333 77.4259 21.7333 77.8392 21.36C78.2659 20.9867 78.8659 20.8 79.6392 20.8H80.7192V22.68H79.6992C79.2726 22.68 79.0592 22.86 79.0592 23.22C79.0592 23.3933 79.1192 23.54 79.2392 23.66C79.3726 23.7667 79.5592 23.8867 79.7992 24.02L80.4192 24.36V27.88C80.4192 28.7467 80.2326 29.5067 79.8592 30.16C79.4992 30.8 78.9859 31.3 78.3192 31.66C77.6659 32.02 76.8926 32.2 75.9992 32.2ZM73.6992 27.44V27.88C73.6992 28.6133 73.9059 29.2067 74.3192 29.66C74.7459 30.1 75.3059 30.32 75.9992 30.32C76.7059 30.32 77.2659 30.1 77.6792 29.66C78.1059 29.2067 78.3192 28.6133 78.3192 27.88V27.44H73.6992ZM73.0466 18.8V17.98C73.0466 17.0733 73.3399 16.36 73.9266 15.84C74.4999 15.32 75.2332 15.06 76.1266 15.06C76.8199 15.06 77.4066 15.18 77.8866 15.42C78.3532 15.66 78.7466 15.9267 79.0666 16.22H79.1066V14.22H80.7266V18.8H73.0466ZM74.8066 17.7H78.7666V17.66C78.5799 17.4733 78.3599 17.2933 78.1066 17.12C77.8532 16.9333 77.5666 16.78 77.2466 16.66C76.9266 16.5267 76.5666 16.46 76.1666 16.46C75.7532 16.46 75.4266 16.5733 75.1866 16.8C74.9332 17.0133 74.8066 17.2867 74.8066 17.62V17.7ZM83.7802 24.72C83.7802 23.8933 83.9535 23.1733 84.3002 22.56C84.6468 21.9333 85.1402 21.4533 85.7802 21.12C86.4202 20.7733 87.1602 20.6 88.0002 20.6C88.8668 20.6 89.6135 20.7733 90.2402 21.12C90.8668 21.4533 91.3535 21.9333 91.7002 22.56C92.0602 23.1733 92.2402 23.8933 92.2402 24.72V28.06C92.2402 28.74 92.4268 29.2867 92.8002 29.7C93.1868 30.1133 93.6868 30.32 94.3002 30.32C94.9268 30.32 95.4268 30.1133 95.8002 29.7C96.1868 29.2867 96.3802 28.74 96.3802 28.06V24.78C96.0068 24.5533 95.7002 24.28 95.4602 23.96C95.2335 23.64 95.1202 23.2667 95.1202 22.84C95.1202 22.2133 95.3402 21.72 95.7802 21.36C96.2202 20.9867 96.8402 20.8 97.6402 20.8H98.7802V22.68H97.7602C97.2935 22.68 97.0602 22.86 97.0602 23.22C97.0602 23.4067 97.1268 23.5533 97.2602 23.66C97.4068 23.7667 97.6002 23.8867 97.8402 24.02L98.4802 24.34V28.06C98.4802 28.8867 98.3068 29.6133 97.9602 30.24C97.6135 30.8533 97.1268 31.3333 96.5002 31.68C95.8735 32.0267 95.1402 32.2 94.3002 32.2C93.4735 32.2 92.7468 32.0267 92.1202 31.68C91.4935 31.3333 91.0068 30.8533 90.6602 30.24C90.3135 29.6133 90.1402 28.8867 90.1402 28.06V24.74C90.1402 24.06 89.9468 23.5133 89.5602 23.1C89.1735 22.6867 88.6535 22.48 88.0002 22.48C87.3602 22.48 86.8468 22.6867 86.4602 23.1C86.0735 23.5133 85.8802 24.06 85.8802 24.74V28.26C85.9868 28.2333 86.1002 28.22 86.2202 28.22C86.7668 28.22 87.2068 28.4 87.5402 28.76C87.8868 29.1067 88.0602 29.5667 88.0602 30.14V30.2C88.0602 30.7867 87.8602 31.2667 87.4602 31.64C87.0735 32.0133 86.5735 32.2 85.9602 32.2C85.2802 32.2 84.7468 32 84.3602 31.6C83.9735 31.1867 83.7802 30.64 83.7802 29.96V24.72ZM86.0002 31.02C86.2135 31.02 86.3868 30.9467 86.5202 30.8C86.6668 30.64 86.7402 30.4467 86.7402 30.22V30.12C86.7402 29.88 86.6668 29.6867 86.5202 29.54C86.3868 29.38 86.2068 29.3 85.9802 29.3C85.7668 29.3 85.5868 29.38 85.4402 29.54C85.3068 29.6867 85.2402 29.88 85.2402 30.12V30.22C85.2402 30.4467 85.3068 30.64 85.4402 30.8C85.5868 30.9467 85.7735 31.02 86.0002 31.02ZM101.847 23.22C101.847 22.3533 102.067 21.7133 102.507 21.3C102.947 20.8733 103.553 20.66 104.327 20.66C104.687 20.66 105 20.7 105.267 20.78C105.547 20.86 105.78 20.9467 105.967 21.04L105.467 22.74C105.373 22.6733 105.26 22.62 105.127 22.58C105.007 22.54 104.873 22.52 104.727 22.52C104.513 22.52 104.327 22.5867 104.167 22.72C104.02 22.84 103.947 23.04 103.947 23.32V28.24C104.027 28.24 104.107 28.24 104.187 28.24C104.667 28.24 105.06 28.4133 105.367 28.76C105.687 29.1067 105.847 29.5533 105.847 30.1V30.2C105.847 30.8133 105.653 31.3 105.267 31.66C104.893 32.02 104.44 32.2 103.907 32.2C103.32 32.2 102.827 32.02 102.427 31.66C102.04 31.3 101.847 30.7533 101.847 30.02V23.22ZM103.907 31.02C104.107 31.02 104.273 30.9467 104.407 30.8C104.553 30.6533 104.627 30.46 104.627 30.22V30.1C104.627 29.86 104.553 29.6667 104.407 29.52C104.273 29.3733 104.1 29.3 103.887 29.3C103.687 29.3 103.52 29.3733 103.387 29.52C103.253 29.6667 103.187 29.86 103.187 30.1V30.22C103.187 30.46 103.253 30.6533 103.387 30.8C103.52 30.9467 103.693 31.02 103.907 31.02ZM114.311 32.16C113.765 32.16 113.305 32.0733 112.931 31.9C112.571 31.7267 112.258 31.5267 111.991 31.3C111.738 31.0733 111.498 30.88 111.271 30.72C111.058 30.5467 110.818 30.46 110.551 30.46V32H108.551V28.06H110.551V28.84C111.018 28.84 111.405 28.92 111.711 29.08C112.031 29.24 112.305 29.4333 112.531 29.66C112.771 29.8733 113.005 30.06 113.231 30.22C113.471 30.38 113.751 30.46 114.071 30.46C114.391 30.46 114.625 30.3667 114.771 30.18C114.931 29.9933 115.011 29.7267 115.011 29.38V27.82L111.631 27.3C111.018 27.1933 110.451 27.02 109.931 26.78C109.411 26.54 108.998 26.2 108.691 25.76C108.398 25.3067 108.251 24.7267 108.251 24.02C108.251 23.3133 108.431 22.7 108.791 22.18C109.151 21.6467 109.651 21.2333 110.291 20.94C110.945 20.6333 111.698 20.48 112.551 20.48C113.458 20.48 114.225 20.6267 114.851 20.92C115.491 21.2 116.005 21.5867 116.391 22.08C116.778 22.56 117.031 23.1 117.151 23.7L115.271 24.32C115.058 23.68 114.731 23.1933 114.291 22.86C113.851 22.5133 113.271 22.34 112.551 22.34C111.898 22.34 111.365 22.4933 110.951 22.8C110.551 23.1067 110.351 23.52 110.351 24.04C110.351 24.4933 110.498 24.8667 110.791 25.16C111.098 25.44 111.518 25.62 112.051 25.7L117.071 26.5V29.28C117.071 30.16 116.825 30.86 116.331 31.38C115.838 31.9 115.165 32.16 114.311 32.16ZM120.951 32V24.68C120.951 23.9867 120.771 23.48 120.411 23.16C120.065 22.84 119.538 22.68 118.831 22.68H117.911V20.8H119.031C119.538 20.8 119.951 20.86 120.271 20.98C120.605 21.0867 120.878 21.28 121.091 21.56H121.171V18.26C121.171 17.82 120.951 17.6 120.511 17.6H119.971V16H120.771C121.558 16 122.131 16.1733 122.491 16.52C122.865 16.8667 123.051 17.42 123.051 18.18V32H120.951ZM126.573 32V27.96C126.573 27.0933 126.76 26.3333 127.133 25.68C127.506 25.0267 128.026 24.52 128.693 24.16C129.373 23.7867 130.166 23.6 131.073 23.6C131.966 23.6 132.746 23.7867 133.413 24.16C134.093 24.52 134.62 25.0267 134.993 25.68C135.366 26.3333 135.553 27.0933 135.553 27.96V32H133.453V27.96C133.453 27.2133 133.233 26.6133 132.793 26.16C132.353 25.7067 131.773 25.48 131.053 25.48C130.346 25.48 129.773 25.7067 129.333 26.16C128.893 26.6133 128.673 27.2133 128.673 27.96V32H126.573ZM126.473 22.68V20.8H135.653V22.68H126.473ZM129.446 37.72C128.686 37.72 128.066 37.5267 127.586 37.14C127.093 36.7533 126.846 36.2067 126.846 35.5C126.846 34.8733 127.086 34.34 127.566 33.9C128.033 33.46 128.7 33.24 129.566 33.24H132.626V32.84H134.306V33.24H135.306V34.7H134.306V35.52C134.413 35.5733 134.506 35.6467 134.586 35.74C134.813 35.9667 134.926 36.2467 134.926 36.58C134.926 36.8867 134.82 37.1533 134.606 37.38C134.38 37.6067 134.1 37.72 133.766 37.72C133.433 37.72 133.153 37.6067 132.926 37.38C132.793 37.2467 132.7 37.0933 132.646 36.92L129.586 37.72H129.446ZM132.626 34.7H129.546C129.28 34.7 129.066 34.7733 128.906 34.92C128.733 35.08 128.646 35.2867 128.646 35.54C128.646 35.78 128.733 35.98 128.906 36.14C129.08 36.3 129.293 36.38 129.546 36.38H129.746L132.626 35.68V34.7ZM133.046 41.46V39.36H132.286V38.28H134.786V41.46H133.046ZM138.8 32V27.56H138.02V25.86H140.02C140.606 25.86 140.9 26.1467 140.9 26.72V29.7L143.02 27.8H143.46L145.6 29.7V25.88C145.6 25.44 145.506 25.0933 145.32 24.84C145.133 24.5867 144.893 24.4533 144.6 24.44C144.24 24.6 143.873 24.7333 143.5 24.84C143.126 24.9467 142.713 25 142.26 25C141.1 25 140.193 24.6867 139.54 24.06C138.9 23.4333 138.58 22.6067 138.58 21.58V19.44H140.6V21.54C140.6 22.06 140.76 22.5067 141.08 22.88C141.413 23.2533 141.886 23.44 142.5 23.44C142.713 23.44 142.92 23.42 143.12 23.38C143.2 23.3533 143.28 23.3267 143.36 23.3C143.173 23.0067 143.08 22.6933 143.08 22.36C143.08 21.8533 143.26 21.4267 143.62 21.08C143.993 20.72 144.446 20.54 144.98 20.54C145.526 20.54 145.986 20.72 146.36 21.08C146.746 21.4267 146.94 21.86 146.94 22.38C146.94 22.7267 146.84 23.0467 146.64 23.34C146.56 23.4733 146.46 23.5933 146.34 23.7V23.76C146.82 23.9733 147.166 24.26 147.38 24.62C147.593 24.9667 147.7 25.3867 147.7 25.88V32H145.76L143.24 29.74L140.74 32H138.8ZM145 23.1C145.2 23.1 145.366 23.0333 145.5 22.9C145.633 22.7533 145.7 22.58 145.7 22.38C145.7 22.1667 145.633 21.9933 145.5 21.86C145.366 21.7267 145.2 21.66 145 21.66C144.8 21.66 144.633 21.7267 144.5 21.86C144.366 21.9933 144.3 22.1667 144.3 22.38C144.3 22.58 144.366 22.7533 144.5 22.9C144.633 23.0333 144.8 23.1 145 23.1Z" fill="white"/>
<path d="M163.4 32.32C162.373 32.32 161.407 32.1333 160.5 31.76C159.593 31.3867 158.793 30.8667 158.1 30.2C157.42 29.52 156.88 28.7267 156.48 27.82C156.093 26.9 155.9 25.9067 155.9 24.84C155.9 23.7733 156.093 22.7867 156.48 21.88C156.88 20.96 157.42 20.1667 158.1 19.5C158.793 18.82 159.593 18.2933 160.5 17.92C161.407 17.5467 162.373 17.36 163.4 17.36C164.493 17.36 165.5 17.5533 166.42 17.94C167.353 18.3267 168.133 18.8667 168.76 19.56L167.24 21.06C166.933 20.7133 166.58 20.42 166.18 20.18C165.793 19.94 165.367 19.76 164.9 19.64C164.433 19.5067 163.933 19.44 163.4 19.44C162.693 19.44 162.02 19.5667 161.38 19.82C160.74 20.0733 160.173 20.44 159.68 20.92C159.2 21.3867 158.82 21.9533 158.54 22.62C158.26 23.2733 158.12 24.0133 158.12 24.84C158.12 25.6667 158.26 26.4133 158.54 27.08C158.833 27.7333 159.22 28.3 159.7 28.78C160.193 29.2467 160.76 29.6067 161.4 29.86C162.04 30.1133 162.713 30.24 163.42 30.24C164.073 30.24 164.68 30.1467 165.24 29.96C165.813 29.7733 166.313 29.5067 166.74 29.16C167.167 28.8133 167.513 28.3933 167.78 27.9C168.047 27.3933 168.213 26.8267 168.28 26.2H163.38V24.26H170.34C170.367 24.42 170.393 24.6067 170.42 24.82C170.447 25.02 170.46 25.2133 170.46 25.4V25.42C170.46 26.4467 170.28 27.3867 169.92 28.24C169.573 29.0933 169.087 29.8267 168.46 30.44C167.833 31.04 167.087 31.5067 166.22 31.84C165.367 32.16 164.427 32.32 163.4 32.32ZM176.9 32.32C175.847 32.32 174.92 32.08 174.12 31.6C173.32 31.12 172.693 30.4733 172.24 29.66C171.787 28.8333 171.56 27.9133 171.56 26.9C171.56 25.8867 171.787 24.9733 172.24 24.16C172.693 23.3333 173.32 22.68 174.12 22.2C174.92 21.72 175.847 21.48 176.9 21.48C177.94 21.48 178.86 21.7267 179.66 22.22C180.46 22.7 181.087 23.3467 181.54 24.16C181.993 24.9733 182.22 25.8867 182.22 26.9C182.22 27.9133 181.993 28.8333 181.54 29.66C181.087 30.4733 180.46 31.12 179.66 31.6C178.86 32.08 177.94 32.32 176.9 32.32ZM176.9 30.34C177.46 30.34 177.98 30.2067 178.46 29.94C178.94 29.66 179.327 29.2667 179.62 28.76C179.927 28.24 180.08 27.62 180.08 26.9C180.08 26.18 179.927 25.5667 179.62 25.06C179.327 24.54 178.94 24.1467 178.46 23.88C177.98 23.6 177.46 23.46 176.9 23.46C176.34 23.46 175.813 23.6 175.32 23.88C174.84 24.1467 174.447 24.54 174.14 25.06C173.847 25.5667 173.7 26.18 173.7 26.9C173.7 27.62 173.847 28.24 174.14 28.76C174.447 29.2667 174.847 29.66 175.34 29.94C175.833 30.2067 176.353 30.34 176.9 30.34ZM189.009 32.32C187.956 32.32 187.029 32.08 186.229 31.6C185.429 31.12 184.803 30.4733 184.349 29.66C183.896 28.8333 183.669 27.9133 183.669 26.9C183.669 25.8867 183.896 24.9733 184.349 24.16C184.803 23.3333 185.429 22.68 186.229 22.2C187.029 21.72 187.956 21.48 189.009 21.48C190.049 21.48 190.969 21.7267 191.769 22.22C192.569 22.7 193.196 23.3467 193.649 24.16C194.103 24.9733 194.329 25.8867 194.329 26.9C194.329 27.9133 194.103 28.8333 193.649 29.66C193.196 30.4733 192.569 31.12 191.769 31.6C190.969 32.08 190.049 32.32 189.009 32.32ZM189.009 30.34C189.569 30.34 190.089 30.2067 190.569 29.94C191.049 29.66 191.436 29.2667 191.729 28.76C192.036 28.24 192.189 27.62 192.189 26.9C192.189 26.18 192.036 25.5667 191.729 25.06C191.436 24.54 191.049 24.1467 190.569 23.88C190.089 23.6 189.569 23.46 189.009 23.46C188.449 23.46 187.923 23.6 187.429 23.88C186.949 24.1467 186.556 24.54 186.249 25.06C185.956 25.5667 185.809 26.18 185.809 26.9C185.809 27.62 185.956 28.24 186.249 28.76C186.556 29.2667 186.956 29.66 187.449 29.94C187.943 30.2067 188.463 30.34 189.009 30.34ZM200.919 36.64C200.025 36.64 199.252 36.4933 198.599 36.2C197.959 35.92 197.439 35.5533 197.039 35.1C196.639 34.66 196.352 34.2067 196.179 33.74L198.179 32.9C198.392 33.4333 198.732 33.8667 199.199 34.2C199.679 34.5467 200.252 34.72 200.919 34.72C201.865 34.72 202.605 34.44 203.139 33.88C203.672 33.32 203.939 32.5267 203.939 31.5V30.52H203.819C203.499 30.9867 203.059 31.3667 202.499 31.66C201.939 31.9533 201.292 32.1 200.559 32.1C199.692 32.1 198.892 31.88 198.159 31.44C197.439 31 196.859 30.3867 196.419 29.6C195.992 28.8 195.779 27.8667 195.779 26.8C195.779 25.72 195.992 24.7867 196.419 24C196.859 23.2 197.439 22.58 198.159 22.14C198.892 21.7 199.692 21.48 200.559 21.48C201.292 21.48 201.939 21.6267 202.499 21.92C203.059 22.2 203.499 22.5867 203.819 23.08H203.939V21.8H205.999V31.46C205.999 32.5667 205.779 33.5067 205.339 34.28C204.912 35.0533 204.319 35.64 203.559 36.04C202.799 36.44 201.919 36.64 200.919 36.64ZM200.939 30.14C201.472 30.14 201.965 30.0133 202.419 29.76C202.885 29.4933 203.252 29.1133 203.519 28.62C203.799 28.1133 203.939 27.5067 203.939 26.8C203.939 26.0533 203.799 25.4333 203.519 24.94C203.252 24.4467 202.885 24.0733 202.419 23.82C201.965 23.5667 201.472 23.44 200.939 23.44C200.405 23.44 199.905 23.5667 199.439 23.82C198.985 24.0733 198.619 24.4533 198.339 24.96C198.059 25.4533 197.919 26.0667 197.919 26.8C197.919 27.52 198.059 28.1333 198.339 28.64C198.619 29.1333 198.985 29.5067 199.439 29.76C199.905 30.0133 200.405 30.14 200.939 30.14ZM208.546 32V17.68H210.706V32H208.546ZM217.815 32.32C216.815 32.32 215.921 32.0867 215.135 31.62C214.348 31.1533 213.728 30.5133 213.275 29.7C212.835 28.8867 212.615 27.96 212.615 26.92C212.615 25.9467 212.828 25.0467 213.255 24.22C213.681 23.3933 214.275 22.7333 215.035 22.24C215.808 21.7333 216.695 21.48 217.695 21.48C218.748 21.48 219.641 21.7067 220.375 22.16C221.121 22.6133 221.688 23.2333 222.075 24.02C222.461 24.8067 222.655 25.6933 222.655 26.68C222.655 26.8267 222.648 26.96 222.635 27.08C222.635 27.2 222.628 27.2933 222.615 27.36H214.735C214.788 27.92 214.928 28.4067 215.155 28.82C215.448 29.34 215.835 29.7333 216.315 30C216.795 30.2667 217.315 30.4 217.875 30.4C218.555 30.4 219.121 30.2467 219.575 29.94C220.041 29.62 220.408 29.2267 220.675 28.76L222.455 29.62C222.015 30.42 221.415 31.0733 220.655 31.58C219.895 32.0733 218.948 32.32 217.815 32.32ZM214.855 25.74H220.515C220.501 25.4867 220.435 25.22 220.315 24.94C220.195 24.6467 220.021 24.38 219.795 24.14C219.568 23.9 219.281 23.7067 218.935 23.56C218.588 23.4 218.181 23.32 217.715 23.32C217.128 23.32 216.608 23.4733 216.155 23.78C215.701 24.0733 215.348 24.4867 215.095 25.02C214.988 25.2467 214.908 25.4867 214.855 25.74ZM231.446 32L227.606 17.68H230.046L232.326 26.98L232.566 28.22H232.686L232.986 26.98L235.866 17.68H238.066L240.826 26.98L241.126 28.2H241.246L241.486 26.98L243.766 17.68H246.186L242.406 32H240.086L237.346 22.5L237.026 21.16H236.906L236.566 22.5L233.706 32H231.446ZM250.202 32.32C249.469 32.32 248.816 32.1733 248.242 31.88C247.682 31.5867 247.236 31.1867 246.902 30.68C246.582 30.16 246.422 29.5667 246.422 28.9C246.422 28.1667 246.609 27.5467 246.982 27.04C247.369 26.5333 247.882 26.1467 248.522 25.88C249.162 25.6133 249.869 25.48 250.642 25.48C251.069 25.48 251.462 25.5133 251.822 25.58C252.196 25.6333 252.516 25.7 252.782 25.78C253.062 25.86 253.282 25.9467 253.442 26.04V25.5C253.442 24.8333 253.202 24.3 252.722 23.9C252.242 23.5 251.622 23.3 250.862 23.3C250.342 23.3 249.849 23.42 249.382 23.66C248.916 23.8867 248.542 24.2 248.262 24.6L246.782 23.46C247.076 23.0467 247.429 22.6933 247.842 22.4C248.269 22.1067 248.742 21.88 249.262 21.72C249.796 21.56 250.349 21.48 250.922 21.48C252.402 21.48 253.542 21.8467 254.342 22.58C255.142 23.3 255.542 24.3133 255.542 25.62V32H253.442V30.74H253.322C253.149 31.0067 252.909 31.26 252.602 31.5C252.309 31.74 251.956 31.9333 251.542 32.08C251.142 32.24 250.696 32.32 250.202 32.32ZM250.582 30.56C251.142 30.56 251.636 30.4267 252.062 30.16C252.502 29.8933 252.842 29.5467 253.082 29.12C253.322 28.68 253.442 28.2067 253.442 27.7C253.149 27.5267 252.789 27.3867 252.362 27.28C251.949 27.16 251.509 27.1 251.042 27.1C250.162 27.1 249.536 27.2733 249.162 27.62C248.789 27.9667 248.602 28.4 248.602 28.92C248.602 29.4 248.782 29.7933 249.142 30.1C249.502 30.4067 249.982 30.56 250.582 30.56ZM257.94 32V17.68H260.1V32H257.94ZM262.667 32V17.68H264.827V32H262.667ZM271.936 32.32C270.936 32.32 270.042 32.0867 269.256 31.62C268.469 31.1533 267.849 30.5133 267.396 29.7C266.956 28.8867 266.736 27.96 266.736 26.92C266.736 25.9467 266.949 25.0467 267.376 24.22C267.802 23.3933 268.396 22.7333 269.156 22.24C269.929 21.7333 270.816 21.48 271.816 21.48C272.869 21.48 273.762 21.7067 274.496 22.16C275.242 22.6133 275.809 23.2333 276.196 24.02C276.582 24.8067 276.776 25.6933 276.776 26.68C276.776 26.8267 276.769 26.96 276.756 27.08C276.756 27.2 276.749 27.2933 276.736 27.36H268.856C268.909 27.92 269.049 28.4067 269.276 28.82C269.569 29.34 269.956 29.7333 270.436 30C270.916 30.2667 271.436 30.4 271.996 30.4C272.676 30.4 273.242 30.2467 273.696 29.94C274.162 29.62 274.529 29.2267 274.796 28.76L276.576 29.62C276.136 30.42 275.536 31.0733 274.776 31.58C274.016 32.0733 273.069 32.32 271.936 32.32ZM268.976 25.74H274.636C274.622 25.4867 274.556 25.22 274.436 24.94C274.316 24.6467 274.142 24.38 273.916 24.14C273.689 23.9 273.402 23.7067 273.056 23.56C272.709 23.4 272.302 23.32 271.836 23.32C271.249 23.32 270.729 23.4733 270.276 23.78C269.822 24.0733 269.469 24.4867 269.216 25.02C269.109 25.2467 269.029 25.4867 268.976 25.74ZM277.787 21.8H279.567V18.92H281.727V21.8H284.227V23.68H281.727V28.58C281.727 29.0867 281.827 29.4733 282.027 29.74C282.24 30.0067 282.593 30.14 283.087 30.14C283.327 30.14 283.54 30.1067 283.727 30.04C283.913 29.96 284.1 29.8667 284.287 29.76V31.86C284.06 31.9533 283.82 32.0267 283.567 32.08C283.313 32.1333 283.013 32.16 282.667 32.16C281.72 32.16 280.967 31.8867 280.407 31.34C279.847 30.78 279.567 30.0133 279.567 29.04V23.68H277.787V21.8Z" fill="white"/>
</svg>
