<svg width="307" height="50" viewBox="0 0 307 50" fill="none" xmlns="http://www.w3.org/2000/svg">
<rect x="0.5" y="0.5" width="306" height="49" rx="24.5" fill="#1F1F1F"/>
<rect x="0.5" y="0.5" width="306" height="49" rx="24.5" stroke="#747775"/>
<path d="M51 22H21V17C21 14.2857 23.2018 12 25.8165 12H46.1835C48.7982 12 51 14.2857 51 17V22Z" fill="#34A853"/>
<path d="M51 26.0537H21V21.0537C21 18.3394 23.2018 16.0537 25.8165 16.0537H46.1835C48.7982 16.0537 51 18.3394 51 21.0537V26.0537Z" fill="#FBBC04"/>
<path d="M51 30.2468H21V25.2468C21 22.5325 23.2018 20.2468 25.8165 20.2468H46.1835C48.7982 20.2468 51 22.5325 51 25.2468V30.2468Z" fill="#EA4335"/>
<path d="M21 23.2752L40.0411 27.6789C42.2329 28.2294 44.6986 27.6789 46.4795 26.3028L51 23V33.3211C51 35.9358 48.8082 38 46.2055 38H25.7945C23.1918 38 21 35.9358 21 33.3211V23.2752Z" fill="#4285F4"/>
<path d="M71.4 32.32C70.3733 32.32 69.4067 32.1333 68.5 31.76C67.5933 31.3867 66.7933 30.8667 66.1 30.2C65.42 29.52 64.88 28.7267 64.48 27.82C64.0933 26.9 63.9 25.9067 63.9 24.84C63.9 23.7733 64.0933 22.7867 64.48 21.88C64.88 20.96 65.42 20.1667 66.1 19.5C66.7933 18.82 67.5933 18.2933 68.5 17.92C69.4067 17.5467 70.3733 17.36 71.4 17.36C72.4933 17.36 73.5 17.5533 74.42 17.94C75.3533 18.3267 76.1333 18.8667 76.76 19.56L75.24 21.06C74.9333 20.7133 74.58 20.42 74.18 20.18C73.7933 19.94 73.3667 19.76 72.9 19.64C72.4333 19.5067 71.9333 19.44 71.4 19.44C70.6933 19.44 70.02 19.5667 69.38 19.82C68.74 20.0733 68.1733 20.44 67.68 20.92C67.2 21.3867 66.82 21.9533 66.54 22.62C66.26 23.2733 66.12 24.0133 66.12 24.84C66.12 25.6667 66.26 26.4133 66.54 27.08C66.8333 27.7333 67.22 28.3 67.7 28.78C68.1933 29.2467 68.76 29.6067 69.4 29.86C70.04 30.1133 70.7133 30.24 71.42 30.24C72.0733 30.24 72.68 30.1467 73.24 29.96C73.8133 29.7733 74.3133 29.5067 74.74 29.16C75.1667 28.8133 75.5133 28.3933 75.78 27.9C76.0467 27.3933 76.2133 26.8267 76.28 26.2H71.38V24.26H78.34C78.3667 24.42 78.3933 24.6067 78.42 24.82C78.4467 25.02 78.46 25.2133 78.46 25.4V25.42C78.46 26.4467 78.28 27.3867 77.92 28.24C77.5733 29.0933 77.0867 29.8267 76.46 30.44C75.8333 31.04 75.0867 31.5067 74.22 31.84C73.3667 32.16 72.4267 32.32 71.4 32.32ZM84.8998 32.32C83.8465 32.32 82.9198 32.08 82.1198 31.6C81.3198 31.12 80.6932 30.4733 80.2398 29.66C79.7865 28.8333 79.5598 27.9133 79.5598 26.9C79.5598 25.8867 79.7865 24.9733 80.2398 24.16C80.6932 23.3333 81.3198 22.68 82.1198 22.2C82.9198 21.72 83.8465 21.48 84.8998 21.48C85.9398 21.48 86.8598 21.7267 87.6598 22.22C88.4598 22.7 89.0865 23.3467 89.5398 24.16C89.9932 24.9733 90.2198 25.8867 90.2198 26.9C90.2198 27.9133 89.9932 28.8333 89.5398 29.66C89.0865 30.4733 88.4598 31.12 87.6598 31.6C86.8598 32.08 85.9398 32.32 84.8998 32.32ZM84.8998 30.34C85.4598 30.34 85.9798 30.2067 86.4598 29.94C86.9398 29.66 87.3265 29.2667 87.6198 28.76C87.9265 28.24 88.0798 27.62 88.0798 26.9C88.0798 26.18 87.9265 25.5667 87.6198 25.06C87.3265 24.54 86.9398 24.1467 86.4598 23.88C85.9798 23.6 85.4598 23.46 84.8998 23.46C84.3398 23.46 83.8132 23.6 83.3198 23.88C82.8398 24.1467 82.4465 24.54 82.1398 25.06C81.8465 25.5667 81.6998 26.18 81.6998 26.9C81.6998 27.62 81.8465 28.24 82.1398 28.76C82.4465 29.2667 82.8465 29.66 83.3398 29.94C83.8332 30.2067 84.3532 30.34 84.8998 30.34ZM97.0092 32.32C95.9559 32.32 95.0292 32.08 94.2292 31.6C93.4292 31.12 92.8026 30.4733 92.3492 29.66C91.8959 28.8333 91.6692 27.9133 91.6692 26.9C91.6692 25.8867 91.8959 24.9733 92.3492 24.16C92.8026 23.3333 93.4292 22.68 94.2292 22.2C95.0292 21.72 95.9559 21.48 97.0092 21.48C98.0492 21.48 98.9692 21.7267 99.7692 22.22C100.569 22.7 101.196 23.3467 101.649 24.16C102.103 24.9733 102.329 25.8867 102.329 26.9C102.329 27.9133 102.103 28.8333 101.649 29.66C101.196 30.4733 100.569 31.12 99.7692 31.6C98.9692 32.08 98.0492 32.32 97.0092 32.32ZM97.0092 30.34C97.5692 30.34 98.0892 30.2067 98.5692 29.94C99.0492 29.66 99.4359 29.2667 99.7292 28.76C100.036 28.24 100.189 27.62 100.189 26.9C100.189 26.18 100.036 25.5667 99.7292 25.06C99.4359 24.54 99.0492 24.1467 98.5692 23.88C98.0892 23.6 97.5692 23.46 97.0092 23.46C96.4492 23.46 95.9226 23.6 95.4292 23.88C94.9492 24.1467 94.5559 24.54 94.2492 25.06C93.9559 25.5667 93.8092 26.18 93.8092 26.9C93.8092 27.62 93.9559 28.24 94.2492 28.76C94.5559 29.2667 94.9559 29.66 95.4492 29.94C95.9426 30.2067 96.4626 30.34 97.0092 30.34ZM108.919 36.64C108.025 36.64 107.252 36.4933 106.599 36.2C105.959 35.92 105.439 35.5533 105.039 35.1C104.639 34.66 104.352 34.2067 104.179 33.74L106.179 32.9C106.392 33.4333 106.732 33.8667 107.199 34.2C107.679 34.5467 108.252 34.72 108.919 34.72C109.865 34.72 110.605 34.44 111.139 33.88C111.672 33.32 111.939 32.5267 111.939 31.5V30.52H111.819C111.499 30.9867 111.059 31.3667 110.499 31.66C109.939 31.9533 109.292 32.1 108.559 32.1C107.692 32.1 106.892 31.88 106.159 31.44C105.439 31 104.859 30.3867 104.419 29.6C103.992 28.8 103.779 27.8667 103.779 26.8C103.779 25.72 103.992 24.7867 104.419 24C104.859 23.2 105.439 22.58 106.159 22.14C106.892 21.7 107.692 21.48 108.559 21.48C109.292 21.48 109.939 21.6267 110.499 21.92C111.059 22.2 111.499 22.5867 111.819 23.08H111.939V21.8H113.999V31.46C113.999 32.5667 113.779 33.5067 113.339 34.28C112.912 35.0533 112.319 35.64 111.559 36.04C110.799 36.44 109.919 36.64 108.919 36.64ZM108.939 30.14C109.472 30.14 109.965 30.0133 110.419 29.76C110.885 29.4933 111.252 29.1133 111.519 28.62C111.799 28.1133 111.939 27.5067 111.939 26.8C111.939 26.0533 111.799 25.4333 111.519 24.94C111.252 24.4467 110.885 24.0733 110.419 23.82C109.965 23.5667 109.472 23.44 108.939 23.44C108.405 23.44 107.905 23.5667 107.439 23.82C106.985 24.0733 106.619 24.4533 106.339 24.96C106.059 25.4533 105.919 26.0667 105.919 26.8C105.919 27.52 106.059 28.1333 106.339 28.64C106.619 29.1333 106.985 29.5067 107.439 29.76C107.905 30.0133 108.405 30.14 108.939 30.14ZM116.546 32V17.68H118.706V32H116.546ZM125.815 32.32C124.815 32.32 123.921 32.0867 123.135 31.62C122.348 31.1533 121.728 30.5133 121.275 29.7C120.835 28.8867 120.615 27.96 120.615 26.92C120.615 25.9467 120.828 25.0467 121.255 24.22C121.681 23.3933 122.275 22.7333 123.035 22.24C123.808 21.7333 124.695 21.48 125.695 21.48C126.748 21.48 127.641 21.7067 128.375 22.16C129.121 22.6133 129.688 23.2333 130.075 24.02C130.461 24.8067 130.655 25.6933 130.655 26.68C130.655 26.8267 130.648 26.96 130.635 27.08C130.635 27.2 130.628 27.2933 130.615 27.36H122.735C122.788 27.92 122.928 28.4067 123.155 28.82C123.448 29.34 123.835 29.7333 124.315 30C124.795 30.2667 125.315 30.4 125.875 30.4C126.555 30.4 127.121 30.2467 127.575 29.94C128.041 29.62 128.408 29.2267 128.675 28.76L130.455 29.62C130.015 30.42 129.415 31.0733 128.655 31.58C127.895 32.0733 126.948 32.32 125.815 32.32ZM122.855 25.74H128.515C128.501 25.4867 128.435 25.22 128.315 24.94C128.195 24.6467 128.021 24.38 127.795 24.14C127.568 23.9 127.281 23.7067 126.935 23.56C126.588 23.4 126.181 23.32 125.715 23.32C125.128 23.32 124.608 23.4733 124.155 23.78C123.701 24.0733 123.348 24.4867 123.095 25.02C122.988 25.2467 122.908 25.4867 122.855 25.74ZM139.446 32L135.606 17.68H138.046L140.326 26.98L140.566 28.22H140.686L140.986 26.98L143.866 17.68H146.066L148.826 26.98L149.126 28.2H149.246L149.486 26.98L151.766 17.68H154.186L150.406 32H148.086L145.346 22.5L145.026 21.16H144.906L144.566 22.5L141.706 32H139.446ZM158.202 32.32C157.469 32.32 156.816 32.1733 156.242 31.88C155.682 31.5867 155.236 31.1867 154.902 30.68C154.582 30.16 154.422 29.5667 154.422 28.9C154.422 28.1667 154.609 27.5467 154.982 27.04C155.369 26.5333 155.882 26.1467 156.522 25.88C157.162 25.6133 157.869 25.48 158.642 25.48C159.069 25.48 159.462 25.5133 159.822 25.58C160.196 25.6333 160.516 25.7 160.782 25.78C161.062 25.86 161.282 25.9467 161.442 26.04V25.5C161.442 24.8333 161.202 24.3 160.722 23.9C160.242 23.5 159.622 23.3 158.862 23.3C158.342 23.3 157.849 23.42 157.382 23.66C156.916 23.8867 156.542 24.2 156.262 24.6L154.782 23.46C155.076 23.0467 155.429 22.6933 155.842 22.4C156.269 22.1067 156.742 21.88 157.262 21.72C157.796 21.56 158.349 21.48 158.922 21.48C160.402 21.48 161.542 21.8467 162.342 22.58C163.142 23.3 163.542 24.3133 163.542 25.62V32H161.442V30.74H161.322C161.149 31.0067 160.909 31.26 160.602 31.5C160.309 31.74 159.956 31.9333 159.542 32.08C159.142 32.24 158.696 32.32 158.202 32.32ZM158.582 30.56C159.142 30.56 159.636 30.4267 160.062 30.16C160.502 29.8933 160.842 29.5467 161.082 29.12C161.322 28.68 161.442 28.2067 161.442 27.7C161.149 27.5267 160.789 27.3867 160.362 27.28C159.949 27.16 159.509 27.1 159.042 27.1C158.162 27.1 157.536 27.2733 157.162 27.62C156.789 27.9667 156.602 28.4 156.602 28.92C156.602 29.4 156.782 29.7933 157.142 30.1C157.502 30.4067 157.982 30.56 158.582 30.56ZM165.94 32V17.68H168.1V32H165.94ZM170.667 32V17.68H172.827V32H170.667ZM179.936 32.32C178.936 32.32 178.042 32.0867 177.256 31.62C176.469 31.1533 175.849 30.5133 175.396 29.7C174.956 28.8867 174.736 27.96 174.736 26.92C174.736 25.9467 174.949 25.0467 175.376 24.22C175.802 23.3933 176.396 22.7333 177.156 22.24C177.929 21.7333 178.816 21.48 179.816 21.48C180.869 21.48 181.762 21.7067 182.496 22.16C183.242 22.6133 183.809 23.2333 184.196 24.02C184.582 24.8067 184.776 25.6933 184.776 26.68C184.776 26.8267 184.769 26.96 184.756 27.08C184.756 27.2 184.749 27.2933 184.736 27.36H176.856C176.909 27.92 177.049 28.4067 177.276 28.82C177.569 29.34 177.956 29.7333 178.436 30C178.916 30.2667 179.436 30.4 179.996 30.4C180.676 30.4 181.242 30.2467 181.696 29.94C182.162 29.62 182.529 29.2267 182.796 28.76L184.576 29.62C184.136 30.42 183.536 31.0733 182.776 31.58C182.016 32.0733 181.069 32.32 179.936 32.32ZM176.976 25.74H182.636C182.622 25.4867 182.556 25.22 182.436 24.94C182.316 24.6467 182.142 24.38 181.916 24.14C181.689 23.9 181.402 23.7067 181.056 23.56C180.709 23.4 180.302 23.32 179.836 23.32C179.249 23.32 178.729 23.4733 178.276 23.78C177.822 24.0733 177.469 24.4867 177.216 25.02C177.109 25.2467 177.029 25.4867 176.976 25.74ZM185.787 21.8H187.567V18.92H189.727V21.8H192.227V23.68H189.727V28.58C189.727 29.0867 189.827 29.4733 190.027 29.74C190.24 30.0067 190.593 30.14 191.087 30.14C191.327 30.14 191.54 30.1067 191.727 30.04C191.913 29.96 192.1 29.8667 192.287 29.76V31.86C192.06 31.9533 191.82 32.0267 191.567 32.08C191.313 32.1333 191.013 32.16 190.667 32.16C189.72 32.16 188.967 31.8867 188.407 31.34C187.847 30.78 187.567 30.0133 187.567 29.04V23.68H185.787V21.8ZM200.939 31.6582L199.387 32.2734C199.055 31.8242 198.794 31.3197 198.605 30.7598C198.417 30.1999 198.322 29.6465 198.322 29.0996C198.322 28.1882 198.609 27.4264 199.182 26.8145C199.761 26.2025 200.474 25.8965 201.32 25.8965C202.023 25.8965 202.619 26.0495 203.107 26.3555C203.602 26.6549 204.13 27.2897 204.689 28.2598C205.1 28.9694 205.422 29.4707 205.656 29.7637C205.897 30.0566 206.167 30.278 206.467 30.4277C206.766 30.5775 207.124 30.6523 207.541 30.6523C208.16 30.6523 208.632 30.4375 208.957 30.0078C209.289 29.5716 209.455 28.9661 209.455 28.1914C209.455 26.8568 209.045 25.6523 208.225 24.5781C207.404 23.5039 206.343 22.8171 205.041 22.5176H198.361V20.9648H206.867C207.564 20.9648 208.088 20.929 208.439 20.8574C208.791 20.7793 209.051 20.6393 209.221 20.4375C209.39 20.2292 209.475 19.9557 209.475 19.6172C209.475 18.7643 209.042 17.9147 208.176 17.0684L209.475 16.1992C210.021 16.8112 210.428 17.3939 210.695 17.9473C210.962 18.5007 211.096 19.1029 211.096 19.7539C211.096 20.4831 210.852 21.1016 210.363 21.6094C209.875 22.1107 209.117 22.4036 208.088 22.4883C209.058 23.1589 209.8 23.9694 210.314 24.9199C210.835 25.8704 211.096 26.9121 211.096 28.0449C211.096 29.36 210.767 30.3887 210.109 31.1309C209.452 31.8665 208.54 32.2344 207.375 32.2344C206.796 32.2344 206.285 32.1367 205.842 31.9414C205.406 31.7396 205.021 31.4564 204.689 31.0918C204.357 30.7207 203.99 30.1901 203.586 29.5C203.247 28.9271 202.964 28.4974 202.736 28.2109C202.515 27.9245 202.297 27.7227 202.082 27.6055C201.874 27.4883 201.626 27.4297 201.34 27.4297C200.904 27.4297 200.559 27.5729 200.305 27.8594C200.057 28.1458 199.934 28.5397 199.934 29.041C199.934 29.8548 200.269 30.7272 200.939 31.6582ZM214.23 25.9258C214.23 27.3451 214.693 28.4811 215.617 29.334C216.542 30.1868 217.844 30.6133 219.523 30.6133C221.346 30.6133 222.769 30.0859 223.791 29.0312C224.82 27.9766 225.334 26.4954 225.334 24.5879C225.334 23.7285 225.233 22.8887 225.031 22.0684C224.836 21.2415 224.546 20.5189 224.162 19.9004C223.895 20.4473 223.514 20.8704 223.02 21.1699C222.525 21.4694 221.945 21.6191 221.281 21.6191C220.396 21.6191 219.702 21.4076 219.201 20.9844C218.706 20.5547 218.459 19.9492 218.459 19.168C218.459 18.4714 218.729 17.8952 219.27 17.4395C219.81 16.9772 220.52 16.7461 221.398 16.7461C222.499 16.7461 223.475 17.0749 224.328 17.7324C225.181 18.3835 225.842 19.3177 226.311 20.5352C226.786 21.7461 227.023 23.097 227.023 24.5879C227.023 26.9902 226.363 28.8652 225.041 30.2129C223.726 31.5605 221.838 32.2344 219.377 32.2344C218.003 32.2344 216.805 31.9707 215.783 31.4434C214.761 30.9095 213.98 30.151 213.439 29.168C212.899 28.1849 212.629 27.0684 212.629 25.8184C212.629 24.8418 212.805 23.9661 213.156 23.1914C213.508 22.4102 214.003 21.8047 214.641 21.375C215.279 20.9453 215.985 20.7305 216.76 20.7305C217.632 20.7305 218.329 20.9746 218.85 21.4629C219.37 21.9512 219.631 22.6022 219.631 23.416C219.631 24.321 219.322 25.0501 218.703 25.6035C218.085 26.1569 217.242 26.4336 216.174 26.4336C215.445 26.4336 214.797 26.2643 214.23 25.9258ZM223.059 18.6895C222.531 18.3249 221.955 18.1426 221.33 18.1426C220.926 18.1426 220.607 18.237 220.373 18.4258C220.145 18.6146 220.031 18.8685 220.031 19.1875C220.031 19.5065 220.132 19.7604 220.334 19.9492C220.536 20.1315 220.829 20.2227 221.213 20.2227C221.727 20.2227 222.137 20.0892 222.443 19.8223C222.756 19.5553 222.961 19.1777 223.059 18.6895ZM214.367 24.5C214.849 24.8516 215.406 25.0273 216.037 25.0273C216.695 25.0273 217.196 24.8939 217.541 24.627C217.893 24.3535 218.068 23.9727 218.068 23.4844C218.068 23.0612 217.948 22.7324 217.707 22.498C217.473 22.2572 217.154 22.1367 216.75 22.1367C216.158 22.1367 215.65 22.3451 215.227 22.7617C214.81 23.1719 214.523 23.7513 214.367 24.5ZM225.236 34.6465C225.614 34.1322 225.972 33.7839 226.311 33.6016C226.649 33.4258 227.043 33.3379 227.492 33.3379C228.234 33.3379 228.837 33.5788 229.299 34.0605C229.768 34.5488 230.002 35.1543 230.002 35.877C230.002 36.4694 229.855 37.0293 229.562 37.5566C229.276 38.0905 228.791 38.6309 228.107 39.1777L227.17 38.1426C227.665 37.7585 228.023 37.3939 228.244 37.0488C228.472 36.7038 228.586 36.3392 228.586 35.9551C228.586 35.6035 228.485 35.3105 228.283 35.0762C228.081 34.8418 227.795 34.7246 227.424 34.7246C227.001 34.7246 226.656 34.8776 226.389 35.1836C226.122 35.4896 225.975 35.9095 225.949 36.4434H224.543C224.484 35.8965 224.325 35.4733 224.064 35.1738C223.798 34.8743 223.465 34.7246 223.068 34.7246C222.697 34.7246 222.411 34.832 222.209 35.0469C222.007 35.2682 221.906 35.5807 221.906 35.9844C221.906 36.3424 222.01 36.6842 222.219 37.0098C222.427 37.3353 222.795 37.7096 223.322 38.1328L222.385 39.1777C221.714 38.6309 221.232 38.0905 220.939 37.5566C220.64 37.0228 220.49 36.4499 220.49 35.8379C220.49 35.1413 220.725 34.5488 221.193 34.0605C221.662 33.5788 222.264 33.3379 223 33.3379C223.495 33.3379 223.902 33.4258 224.221 33.6016C224.533 33.7773 224.872 34.1257 225.236 34.6465Z" fill="white"/>
<path d="M243.164 30.4375C242.773 31.0365 242.305 31.4857 241.758 31.7852C241.217 32.0846 240.456 32.2344 239.473 32.2344C238.327 32.2344 237.389 31.9056 236.66 31.248C235.938 30.5905 235.576 29.7311 235.576 28.6699C235.576 27.7454 235.856 26.9902 236.416 26.4043C236.976 25.8118 237.708 25.5156 238.613 25.5156C239.323 25.5156 239.893 25.6849 240.322 26.0234C240.752 26.362 240.967 26.8145 240.967 27.3809C240.967 27.8757 240.879 28.2695 240.703 28.5625L239.336 28.4355C239.421 28.1947 239.463 27.9798 239.463 27.791C239.463 27.5046 239.382 27.2897 239.219 27.1465C239.056 26.9967 238.835 26.9219 238.555 26.9219C238.105 26.9219 237.751 27.0749 237.49 27.3809C237.23 27.6803 237.1 28.084 237.1 28.5918C237.1 29.2298 237.318 29.7344 237.754 30.1055C238.197 30.4701 238.828 30.6523 239.648 30.6523C241.328 30.6523 242.243 29.8027 242.393 28.1035H243.926C243.984 28.9173 244.225 29.5456 244.648 29.9883C245.072 30.431 245.625 30.6523 246.309 30.6523C248.014 30.6523 248.867 29.3893 248.867 26.8633C248.867 25.3073 248.525 23.8327 247.842 22.4395C247.165 21.0462 246.247 19.9525 245.088 19.1582C244.873 19.9655 244.492 20.5775 243.945 20.9941C243.405 21.4108 242.734 21.6191 241.934 21.6191C241.035 21.6191 240.339 21.4076 239.844 20.9844C239.355 20.5547 239.111 19.9492 239.111 19.168C239.111 18.4648 239.378 17.8854 239.912 17.4297C240.452 16.974 241.162 16.7461 242.041 16.7461C243.551 16.7461 244.961 17.1953 246.27 18.0938C247.585 18.9922 248.623 20.2292 249.385 21.8047C250.146 23.3737 250.527 25.0729 250.527 26.9023C250.527 28.6341 250.163 29.9557 249.434 30.8672C248.711 31.7786 247.679 32.2344 246.338 32.2344C245.622 32.2344 245.026 32.1107 244.551 31.8633C244.076 31.6094 243.613 31.1341 243.164 30.4375ZM243.75 18.4648C243.177 18.25 242.588 18.1426 241.982 18.1426C241.579 18.1426 241.26 18.237 241.025 18.4258C240.798 18.6081 240.684 18.862 240.684 19.1875C240.684 19.5065 240.785 19.7604 240.986 19.9492C241.188 20.1315 241.481 20.2227 241.865 20.2227C242.406 20.2227 242.839 20.0729 243.164 19.7734C243.49 19.474 243.685 19.0378 243.75 18.4648ZM253.691 25.9844C253.763 27.0195 254.128 27.931 254.785 28.7188C255.449 29.5065 256.406 30.1738 257.656 30.7207L256.787 32.2344C255.251 31.4922 254.085 30.5547 253.291 29.4219C252.497 28.2826 252.1 26.987 252.1 25.5352C252.1 24.0898 252.474 22.9277 253.223 22.0488C253.971 21.1699 254.932 20.7305 256.104 20.7305C257.015 20.7305 257.728 20.9746 258.242 21.4629C258.763 21.9447 259.023 22.5924 259.023 23.4062C259.023 24.3047 258.711 25.0339 258.086 25.5938C257.467 26.1471 256.618 26.4238 255.537 26.4238C254.86 26.4238 254.245 26.2773 253.691 25.9844ZM253.74 24.4707C254.235 24.8353 254.782 25.0176 255.381 25.0176C256.032 25.0176 256.53 24.8841 256.875 24.6172C257.227 24.3503 257.402 23.9694 257.402 23.4746C257.402 22.5827 256.947 22.1367 256.035 22.1367C255.488 22.1367 255 22.3483 254.57 22.7715C254.147 23.1882 253.87 23.7546 253.74 24.4707ZM264.521 24.4902C265.29 24.2428 265.889 23.8652 266.318 23.3574C266.748 22.8431 266.976 22.2539 267.002 21.5898C266.396 22.1497 265.645 22.4297 264.746 22.4297C263.958 22.4297 263.314 22.2344 262.812 21.8438C262.311 21.4531 262.061 20.9062 262.061 20.2031C262.061 19.4935 262.324 18.9108 262.852 18.4551C263.385 17.9928 264.082 17.7617 264.941 17.7617C266.009 17.7617 266.865 18.1068 267.51 18.7969C268.154 19.4805 268.477 20.3366 268.477 21.3652C268.477 22.6152 268.053 23.6569 267.207 24.4902H270.391V25.8867L268.447 25.8574C268.916 26.1374 269.281 26.5085 269.541 26.9707C269.801 27.4264 269.932 27.9245 269.932 28.4648C269.932 29.6497 269.528 30.5742 268.721 31.2383C267.913 31.9023 266.764 32.2344 265.273 32.2344C263.88 32.2344 262.78 31.9023 261.973 31.2383C261.165 30.5677 260.762 29.6725 260.762 28.5527C260.762 27.4199 261.237 26.5247 262.188 25.8672L260.322 25.8867V24.4902H264.521ZM266.777 20.2422C266.602 19.8841 266.344 19.6074 266.006 19.4121C265.674 19.2103 265.306 19.1094 264.902 19.1094C264.466 19.1094 264.134 19.2005 263.906 19.3828C263.685 19.5586 263.574 19.7995 263.574 20.1055C263.574 20.431 263.682 20.6784 263.896 20.8477C264.111 21.0169 264.385 21.1016 264.717 21.1016C265.146 21.1016 265.524 21.0365 265.85 20.9062C266.175 20.776 266.484 20.5547 266.777 20.2422ZM265.342 25.8867C264.385 25.8867 263.649 26.1048 263.135 26.541C262.627 26.9772 262.373 27.5729 262.373 28.3281C262.373 29.0638 262.627 29.64 263.135 30.0566C263.643 30.4668 264.378 30.6719 265.342 30.6719C266.305 30.6719 267.041 30.4668 267.549 30.0566C268.063 29.64 268.32 29.0638 268.32 28.3281C268.32 27.5599 268.063 26.9609 267.549 26.5312C267.035 26.1016 266.299 25.8867 265.342 25.8867ZM269.844 31.6484C270.41 32.3711 270.833 33.1719 271.113 34.0508C271.4 34.9362 271.543 35.8997 271.543 36.9414C271.543 37.7096 271.468 38.4095 271.318 39.041L269.932 38.8164C270.173 38.0221 270.293 37.2962 270.293 36.6387C270.293 36.515 270.283 36.3457 270.264 36.1309C269.925 36.9512 269.274 37.3613 268.311 37.3613C267.848 37.3613 267.448 37.2702 267.109 37.0879C266.771 36.9121 266.471 36.6224 266.211 36.2188C265.905 36.6159 265.55 36.9056 265.146 37.0879C264.743 37.2702 264.245 37.3613 263.652 37.3613C262.852 37.3613 262.184 37.1302 261.65 36.668C261.117 36.2122 260.85 35.6198 260.85 34.8906C260.85 34.2461 261.048 33.722 261.445 33.3184C261.849 32.9212 262.383 32.7227 263.047 32.7227C263.594 32.7227 264.023 32.8496 264.336 33.1035C264.655 33.3574 264.814 33.7025 264.814 34.1387C264.814 34.5033 264.743 34.793 264.6 35.0078L263.438 34.9102C263.496 34.7539 263.525 34.6074 263.525 34.4707C263.525 34.321 263.48 34.194 263.389 34.0898C263.298 33.9857 263.148 33.9336 262.939 33.9336C262.712 33.9336 262.526 34.0117 262.383 34.168C262.246 34.3242 262.178 34.5553 262.178 34.8613C262.178 35.2715 262.314 35.5742 262.588 35.7695C262.868 35.9648 263.252 36.0625 263.74 36.0625C264.281 36.0625 264.71 35.929 265.029 35.6621C265.348 35.4017 265.54 35.0176 265.605 34.5098H266.924C266.995 35.5514 267.464 36.0723 268.33 36.0723C268.76 36.0723 269.085 35.9486 269.307 35.7012C269.535 35.4538 269.648 35.1055 269.648 34.6562C269.648 34.2721 269.574 33.9043 269.424 33.5527C269.281 33.2012 269.02 32.8171 268.643 32.4004L269.844 31.6484ZM279.043 21.5898C278.438 22.1497 277.686 22.4297 276.787 22.4297C275.993 22.4297 275.345 22.2344 274.844 21.8438C274.342 21.4531 274.092 20.9062 274.092 20.2031C274.092 19.4935 274.355 18.9108 274.883 18.4551C275.417 17.9928 276.107 17.7617 276.953 17.7617C278.021 17.7617 278.88 18.11 279.531 18.8066C280.182 19.4967 280.508 20.3724 280.508 21.4336C280.508 22.5794 280.218 23.4486 279.639 24.041C279.059 24.6335 278.213 24.9297 277.1 24.9297C276.084 24.9297 275.173 24.7214 274.365 24.3047L275.146 23.084C275.745 23.416 276.38 23.582 277.051 23.582C277.754 23.582 278.262 23.4258 278.574 23.1133C278.887 22.8008 279.043 22.332 279.043 21.707V21.5898ZM278.809 20.2422C278.626 19.8841 278.369 19.6074 278.037 19.4121C277.712 19.2103 277.347 19.1094 276.943 19.1094C276.507 19.1094 276.175 19.2005 275.947 19.3828C275.719 19.5586 275.605 19.7995 275.605 20.1055C275.605 20.431 275.713 20.6784 275.928 20.8477C276.143 21.0169 276.419 21.1016 276.758 21.1016C277.188 21.1016 277.565 21.0365 277.891 20.9062C278.216 20.776 278.522 20.5547 278.809 20.2422ZM274.326 31.6582L272.773 32.2734C272.441 31.8307 272.181 31.3294 271.992 30.7695C271.803 30.2031 271.709 29.6432 271.709 29.0898C271.709 28.1784 271.999 27.4199 272.578 26.8145C273.158 26.2025 273.867 25.8965 274.707 25.8965C275.241 25.8965 275.697 25.9746 276.074 26.1309C276.452 26.2871 276.787 26.5215 277.08 26.834C277.38 27.1465 277.712 27.6217 278.076 28.2598C278.48 28.9629 278.805 29.4642 279.053 29.7637C279.3 30.0566 279.567 30.278 279.854 30.4277C280.146 30.5775 280.495 30.6523 280.898 30.6523C281.517 30.6523 281.995 30.4277 282.334 29.9785C282.679 29.5228 282.852 28.901 282.852 28.1133C282.852 27.4167 282.712 26.7591 282.432 26.1406C282.158 25.5156 281.742 24.8874 281.182 24.2559L282.529 23.3086C283.838 24.7083 284.492 26.2546 284.492 27.9473C284.492 29.3014 284.163 30.3561 283.506 31.1113C282.855 31.86 281.94 32.2344 280.762 32.2344C280.182 32.2344 279.671 32.1367 279.229 31.9414C278.792 31.7396 278.408 31.4564 278.076 31.0918C277.744 30.7207 277.376 30.1901 276.973 29.5C276.634 28.9271 276.351 28.4974 276.123 28.2109C275.902 27.9245 275.684 27.7227 275.469 27.6055C275.26 27.4883 275.013 27.4297 274.727 27.4297C274.29 27.4297 273.945 27.5729 273.691 27.8594C273.444 28.1458 273.32 28.5397 273.32 29.041C273.32 29.8613 273.656 30.7337 274.326 31.6582Z" fill="white"/>
</svg>
