<svg width="309" height="50" viewBox="0 0 309 50" fill="none" xmlns="http://www.w3.org/2000/svg">
<rect x="0.5" y="0.5" width="308" height="49" rx="24.5" fill="#1F1F1F"/>
<rect x="0.5" y="0.5" width="308" height="49" rx="24.5" stroke="#747775"/>
<path d="M51 22H21V17C21 14.2857 23.2018 12 25.8165 12H46.1835C48.7982 12 51 14.2857 51 17V22Z" fill="#34A853"/>
<path d="M51 26.0537H21V21.0537C21 18.3394 23.2018 16.0537 25.8165 16.0537H46.1835C48.7982 16.0537 51 18.3394 51 21.0537V26.0537Z" fill="#FBBC04"/>
<path d="M51 30.2468H21V25.2468C21 22.5325 23.2018 20.2468 25.8165 20.2468H46.1835C48.7982 20.2468 51 22.5325 51 25.2468V30.2468Z" fill="#EA4335"/>
<path d="M21 23.2752L40.0411 27.6789C42.2329 28.2294 44.6986 27.6789 46.4795 26.3028L51 23V33.3211C51 35.9358 48.8082 38 46.2055 38H25.7945C23.1918 38 21 35.9358 21 33.3211V23.2752Z" fill="#4285F4"/>
<path d="M71.4 32.32C70.3733 32.32 69.4067 32.1333 68.5 31.76C67.5933 31.3867 66.7933 30.8667 66.1 30.2C65.42 29.52 64.88 28.7267 64.48 27.82C64.0933 26.9 63.9 25.9067 63.9 24.84C63.9 23.7733 64.0933 22.7867 64.48 21.88C64.88 20.96 65.42 20.1667 66.1 19.5C66.7933 18.82 67.5933 18.2933 68.5 17.92C69.4067 17.5467 70.3733 17.36 71.4 17.36C72.4933 17.36 73.5 17.5533 74.42 17.94C75.3533 18.3267 76.1333 18.8667 76.76 19.56L75.24 21.06C74.9333 20.7133 74.58 20.42 74.18 20.18C73.7933 19.94 73.3667 19.76 72.9 19.64C72.4333 19.5067 71.9333 19.44 71.4 19.44C70.6933 19.44 70.02 19.5667 69.38 19.82C68.74 20.0733 68.1733 20.44 67.68 20.92C67.2 21.3867 66.82 21.9533 66.54 22.62C66.26 23.2733 66.12 24.0133 66.12 24.84C66.12 25.6667 66.26 26.4133 66.54 27.08C66.8333 27.7333 67.22 28.3 67.7 28.78C68.1933 29.2467 68.76 29.6067 69.4 29.86C70.04 30.1133 70.7133 30.24 71.42 30.24C72.0733 30.24 72.68 30.1467 73.24 29.96C73.8133 29.7733 74.3133 29.5067 74.74 29.16C75.1667 28.8133 75.5133 28.3933 75.78 27.9C76.0467 27.3933 76.2133 26.8267 76.28 26.2H71.38V24.26H78.34C78.3667 24.42 78.3933 24.6067 78.42 24.82C78.4467 25.02 78.46 25.2133 78.46 25.4V25.42C78.46 26.4467 78.28 27.3867 77.92 28.24C77.5733 29.0933 77.0867 29.8267 76.46 30.44C75.8333 31.04 75.0867 31.5067 74.22 31.84C73.3667 32.16 72.4267 32.32 71.4 32.32ZM84.8998 32.32C83.8465 32.32 82.9198 32.08 82.1198 31.6C81.3198 31.12 80.6932 30.4733 80.2398 29.66C79.7865 28.8333 79.5598 27.9133 79.5598 26.9C79.5598 25.8867 79.7865 24.9733 80.2398 24.16C80.6932 23.3333 81.3198 22.68 82.1198 22.2C82.9198 21.72 83.8465 21.48 84.8998 21.48C85.9398 21.48 86.8598 21.7267 87.6598 22.22C88.4598 22.7 89.0865 23.3467 89.5398 24.16C89.9932 24.9733 90.2198 25.8867 90.2198 26.9C90.2198 27.9133 89.9932 28.8333 89.5398 29.66C89.0865 30.4733 88.4598 31.12 87.6598 31.6C86.8598 32.08 85.9398 32.32 84.8998 32.32ZM84.8998 30.34C85.4598 30.34 85.9798 30.2067 86.4598 29.94C86.9398 29.66 87.3265 29.2667 87.6198 28.76C87.9265 28.24 88.0798 27.62 88.0798 26.9C88.0798 26.18 87.9265 25.5667 87.6198 25.06C87.3265 24.54 86.9398 24.1467 86.4598 23.88C85.9798 23.6 85.4598 23.46 84.8998 23.46C84.3398 23.46 83.8132 23.6 83.3198 23.88C82.8398 24.1467 82.4465 24.54 82.1398 25.06C81.8465 25.5667 81.6998 26.18 81.6998 26.9C81.6998 27.62 81.8465 28.24 82.1398 28.76C82.4465 29.2667 82.8465 29.66 83.3398 29.94C83.8332 30.2067 84.3532 30.34 84.8998 30.34ZM97.0092 32.32C95.9559 32.32 95.0292 32.08 94.2292 31.6C93.4292 31.12 92.8026 30.4733 92.3492 29.66C91.8959 28.8333 91.6692 27.9133 91.6692 26.9C91.6692 25.8867 91.8959 24.9733 92.3492 24.16C92.8026 23.3333 93.4292 22.68 94.2292 22.2C95.0292 21.72 95.9559 21.48 97.0092 21.48C98.0492 21.48 98.9692 21.7267 99.7692 22.22C100.569 22.7 101.196 23.3467 101.649 24.16C102.103 24.9733 102.329 25.8867 102.329 26.9C102.329 27.9133 102.103 28.8333 101.649 29.66C101.196 30.4733 100.569 31.12 99.7692 31.6C98.9692 32.08 98.0492 32.32 97.0092 32.32ZM97.0092 30.34C97.5692 30.34 98.0892 30.2067 98.5692 29.94C99.0492 29.66 99.4359 29.2667 99.7292 28.76C100.036 28.24 100.189 27.62 100.189 26.9C100.189 26.18 100.036 25.5667 99.7292 25.06C99.4359 24.54 99.0492 24.1467 98.5692 23.88C98.0892 23.6 97.5692 23.46 97.0092 23.46C96.4492 23.46 95.9226 23.6 95.4292 23.88C94.9492 24.1467 94.5559 24.54 94.2492 25.06C93.9559 25.5667 93.8092 26.18 93.8092 26.9C93.8092 27.62 93.9559 28.24 94.2492 28.76C94.5559 29.2667 94.9559 29.66 95.4492 29.94C95.9426 30.2067 96.4626 30.34 97.0092 30.34ZM108.919 36.64C108.025 36.64 107.252 36.4933 106.599 36.2C105.959 35.92 105.439 35.5533 105.039 35.1C104.639 34.66 104.352 34.2067 104.179 33.74L106.179 32.9C106.392 33.4333 106.732 33.8667 107.199 34.2C107.679 34.5467 108.252 34.72 108.919 34.72C109.865 34.72 110.605 34.44 111.139 33.88C111.672 33.32 111.939 32.5267 111.939 31.5V30.52H111.819C111.499 30.9867 111.059 31.3667 110.499 31.66C109.939 31.9533 109.292 32.1 108.559 32.1C107.692 32.1 106.892 31.88 106.159 31.44C105.439 31 104.859 30.3867 104.419 29.6C103.992 28.8 103.779 27.8667 103.779 26.8C103.779 25.72 103.992 24.7867 104.419 24C104.859 23.2 105.439 22.58 106.159 22.14C106.892 21.7 107.692 21.48 108.559 21.48C109.292 21.48 109.939 21.6267 110.499 21.92C111.059 22.2 111.499 22.5867 111.819 23.08H111.939V21.8H113.999V31.46C113.999 32.5667 113.779 33.5067 113.339 34.28C112.912 35.0533 112.319 35.64 111.559 36.04C110.799 36.44 109.919 36.64 108.919 36.64ZM108.939 30.14C109.472 30.14 109.965 30.0133 110.419 29.76C110.885 29.4933 111.252 29.1133 111.519 28.62C111.799 28.1133 111.939 27.5067 111.939 26.8C111.939 26.0533 111.799 25.4333 111.519 24.94C111.252 24.4467 110.885 24.0733 110.419 23.82C109.965 23.5667 109.472 23.44 108.939 23.44C108.405 23.44 107.905 23.5667 107.439 23.82C106.985 24.0733 106.619 24.4533 106.339 24.96C106.059 25.4533 105.919 26.0667 105.919 26.8C105.919 27.52 106.059 28.1333 106.339 28.64C106.619 29.1333 106.985 29.5067 107.439 29.76C107.905 30.0133 108.405 30.14 108.939 30.14ZM116.546 32V17.68H118.706V32H116.546ZM125.815 32.32C124.815 32.32 123.921 32.0867 123.135 31.62C122.348 31.1533 121.728 30.5133 121.275 29.7C120.835 28.8867 120.615 27.96 120.615 26.92C120.615 25.9467 120.828 25.0467 121.255 24.22C121.681 23.3933 122.275 22.7333 123.035 22.24C123.808 21.7333 124.695 21.48 125.695 21.48C126.748 21.48 127.641 21.7067 128.375 22.16C129.121 22.6133 129.688 23.2333 130.075 24.02C130.461 24.8067 130.655 25.6933 130.655 26.68C130.655 26.8267 130.648 26.96 130.635 27.08C130.635 27.2 130.628 27.2933 130.615 27.36H122.735C122.788 27.92 122.928 28.4067 123.155 28.82C123.448 29.34 123.835 29.7333 124.315 30C124.795 30.2667 125.315 30.4 125.875 30.4C126.555 30.4 127.121 30.2467 127.575 29.94C128.041 29.62 128.408 29.2267 128.675 28.76L130.455 29.62C130.015 30.42 129.415 31.0733 128.655 31.58C127.895 32.0733 126.948 32.32 125.815 32.32ZM122.855 25.74H128.515C128.501 25.4867 128.435 25.22 128.315 24.94C128.195 24.6467 128.021 24.38 127.795 24.14C127.568 23.9 127.281 23.7067 126.935 23.56C126.588 23.4 126.181 23.32 125.715 23.32C125.128 23.32 124.608 23.4733 124.155 23.78C123.701 24.0733 123.348 24.4867 123.095 25.02C122.988 25.2467 122.908 25.4867 122.855 25.74ZM137.686 32V17.68H139.886V24.62H140.006L145.706 17.68H148.466V17.8L142.426 24.96L148.786 31.88V32H145.906L140.006 25.44H139.886V32H137.686ZM153.222 32.32C152.488 32.32 151.835 32.1733 151.262 31.88C150.702 31.5867 150.255 31.1867 149.922 30.68C149.602 30.16 149.442 29.5667 149.442 28.9C149.442 28.1667 149.628 27.5467 150.002 27.04C150.388 26.5333 150.902 26.1467 151.542 25.88C152.182 25.6133 152.888 25.48 153.662 25.48C154.088 25.48 154.482 25.5133 154.842 25.58C155.215 25.6333 155.535 25.7 155.802 25.78C156.082 25.86 156.302 25.9467 156.462 26.04V25.5C156.462 24.8333 156.222 24.3 155.742 23.9C155.262 23.5 154.642 23.3 153.882 23.3C153.362 23.3 152.868 23.42 152.402 23.66C151.935 23.8867 151.562 24.2 151.282 24.6L149.802 23.46C150.095 23.0467 150.448 22.6933 150.862 22.4C151.288 22.1067 151.762 21.88 152.282 21.72C152.815 21.56 153.368 21.48 153.942 21.48C155.422 21.48 156.562 21.8467 157.362 22.58C158.162 23.3 158.562 24.3133 158.562 25.62V32H156.462V30.74H156.342C156.168 31.0067 155.928 31.26 155.622 31.5C155.328 31.74 154.975 31.9333 154.562 32.08C154.162 32.24 153.715 32.32 153.222 32.32ZM153.602 30.56C154.162 30.56 154.655 30.4267 155.082 30.16C155.522 29.8933 155.862 29.5467 156.102 29.12C156.342 28.68 156.462 28.2067 156.462 27.7C156.168 27.5267 155.808 27.3867 155.382 27.28C154.968 27.16 154.528 27.1 154.062 27.1C153.182 27.1 152.555 27.2733 152.182 27.62C151.808 27.9667 151.622 28.4 151.622 28.92C151.622 29.4 151.802 29.7933 152.162 30.1C152.522 30.4067 153.002 30.56 153.602 30.56ZM160.94 32V21.8H169.9V32H167.74V23.68H163.1V32H160.94ZM178.284 32V28.32C178.004 28.52 177.651 28.68 177.224 28.8C176.797 28.9067 176.331 28.96 175.824 28.96C174.651 28.96 173.711 28.62 173.004 27.94C172.311 27.26 171.964 26.34 171.964 25.18V21.8H174.124V24.96C174.124 25.6 174.304 26.1067 174.664 26.48C175.037 26.84 175.557 27.02 176.224 27.02C176.624 27.02 177.011 26.96 177.384 26.84C177.771 26.7067 178.071 26.5333 178.284 26.32V21.8H180.424V32H178.284ZM185.131 21.8V25.2H187.071C187.764 25.2 188.384 25.3467 188.931 25.64C189.491 25.9333 189.931 26.34 190.251 26.86C190.571 27.3667 190.731 27.9467 190.731 28.6C190.731 29.24 190.571 29.82 190.251 30.34C189.931 30.86 189.498 31.2667 188.951 31.56C188.404 31.8533 187.778 32 187.071 32H182.971V21.8H185.131ZM192.151 32V21.8H194.311V32H192.151ZM185.131 26.98V30.2H186.891C187.371 30.2 187.771 30.0467 188.091 29.74C188.411 29.4333 188.571 29.0533 188.571 28.6C188.571 28.1467 188.411 27.7667 188.091 27.46C187.771 27.14 187.371 26.98 186.891 26.98H185.131ZM196.838 32V21.8H198.998V26.32H199.118L203.118 21.8H205.598V21.92L201.338 26.58L205.758 31.88V32H203.198L199.118 26.98H198.998V32H196.838ZM209.692 32V23.68H206.332V21.8H215.192V23.68H211.832V32H209.692ZM220.155 32.32C219.422 32.32 218.769 32.1733 218.195 31.88C217.635 31.5867 217.189 31.1867 216.855 30.68C216.535 30.16 216.375 29.5667 216.375 28.9C216.375 28.1667 216.562 27.5467 216.935 27.04C217.322 26.5333 217.835 26.1467 218.475 25.88C219.115 25.6133 219.822 25.48 220.595 25.48C221.022 25.48 221.415 25.5133 221.775 25.58C222.149 25.6333 222.469 25.7 222.735 25.78C223.015 25.86 223.235 25.9467 223.395 26.04V25.5C223.395 24.8333 223.155 24.3 222.675 23.9C222.195 23.5 221.575 23.3 220.815 23.3C220.295 23.3 219.802 23.42 219.335 23.66C218.869 23.8867 218.495 24.2 218.215 24.6L216.735 23.46C217.029 23.0467 217.382 22.6933 217.795 22.4C218.222 22.1067 218.695 21.88 219.215 21.72C219.749 21.56 220.302 21.48 220.875 21.48C222.355 21.48 223.495 21.8467 224.295 22.58C225.095 23.3 225.495 24.3133 225.495 25.62V32H223.395V30.74H223.275C223.102 31.0067 222.862 31.26 222.555 31.5C222.262 31.74 221.909 31.9333 221.495 32.08C221.095 32.24 220.649 32.32 220.155 32.32ZM220.535 30.56C221.095 30.56 221.589 30.4267 222.015 30.16C222.455 29.8933 222.795 29.5467 223.035 29.12C223.275 28.68 223.395 28.2067 223.395 27.7C223.102 27.5267 222.742 27.3867 222.315 27.28C221.902 27.16 221.462 27.1 220.995 27.1C220.115 27.1 219.489 27.2733 219.115 27.62C218.742 27.9667 218.555 28.4 218.555 28.92C218.555 29.4 218.735 29.7933 219.095 30.1C219.455 30.4067 219.935 30.56 220.535 30.56Z" fill="white"/>
<path d="M233.26 32V21.8H235.42V26.32H235.54L239.54 21.8H242.02V21.92L237.76 26.58L242.18 31.88V32H239.62L235.54 26.98H235.42V32H233.26ZM248.119 32.32C247.065 32.32 246.139 32.08 245.339 31.6C244.539 31.12 243.912 30.4733 243.459 29.66C243.005 28.8333 242.779 27.9133 242.779 26.9C242.779 25.8867 243.005 24.9733 243.459 24.16C243.912 23.3333 244.539 22.68 245.339 22.2C246.139 21.72 247.059 21.48 248.099 21.48C249.152 21.48 250.079 21.7267 250.879 22.22C251.679 22.7 252.305 23.3467 252.759 24.16C253.212 24.9733 253.439 25.8867 253.439 26.9C253.439 27.9133 253.212 28.8333 252.759 29.66C252.305 30.4733 251.679 31.12 250.879 31.6C250.079 32.08 249.159 32.32 248.119 32.32ZM248.119 30.4C248.679 30.4 249.205 30.2667 249.699 30C250.192 29.72 250.592 29.32 250.899 28.8C251.085 28.48 251.219 28.12 251.299 27.72H244.919C244.999 28.12 245.132 28.4733 245.319 28.78C245.612 29.3133 246.005 29.72 246.499 30C247.005 30.2667 247.545 30.4 248.119 30.4ZM251.279 26.02C251.199 25.6467 251.072 25.3133 250.899 25.02C250.605 24.5 250.212 24.1 249.719 23.82C249.225 23.54 248.692 23.4 248.119 23.4C247.545 23.4 247.005 23.54 246.499 23.82C246.005 24.1 245.612 24.5 245.319 25.02C245.145 25.3133 245.019 25.6467 244.939 26.02H251.279ZM255.31 36.32V21.8H257.33V23.18H257.45C257.637 22.8867 257.884 22.6133 258.19 22.36C258.51 22.0933 258.884 21.88 259.31 21.72C259.737 21.56 260.21 21.48 260.73 21.48C261.664 21.48 262.497 21.7133 263.23 22.18C263.964 22.6467 264.544 23.2867 264.97 24.1C265.41 24.9133 265.63 25.8467 265.63 26.9C265.63 27.9533 265.41 28.8867 264.97 29.7C264.544 30.5133 263.964 31.1533 263.23 31.62C262.497 32.0867 261.664 32.32 260.73 32.32C259.957 32.32 259.284 32.1467 258.71 31.8C258.137 31.4533 257.717 31.0667 257.45 30.64H257.33L257.45 32.06V36.32H255.31ZM260.41 30.34C260.944 30.34 261.444 30.2 261.91 29.92C262.39 29.64 262.77 29.24 263.05 28.72C263.344 28.2 263.49 27.5933 263.49 26.9C263.49 26.1933 263.344 25.5867 263.05 25.08C262.77 24.56 262.39 24.16 261.91 23.88C261.444 23.6 260.944 23.46 260.41 23.46C259.877 23.46 259.377 23.6 258.91 23.88C258.444 24.16 258.064 24.56 257.77 25.08C257.477 25.5867 257.33 26.1933 257.33 26.9C257.33 27.6067 257.477 28.22 257.77 28.74C258.064 29.2467 258.444 29.64 258.91 29.92C259.377 30.2 259.877 30.34 260.41 30.34ZM270.381 36.32V32L266.261 21.8H268.641L271.481 29.42H271.501L274.381 21.8H276.721L272.541 32V36.32H270.381ZM281.123 36.32V32L277.003 21.8H279.383L282.223 29.42H282.243L285.123 21.8H287.463L283.283 32V36.32H281.123Z" fill="white"/>
</svg>
