<svg width="270" height="50" viewBox="0 0 270 50" fill="none" xmlns="http://www.w3.org/2000/svg">
<rect x="0.5" y="0.5" width="269" height="49" rx="24.5" fill="#1F1F1F"/>
<rect x="0.5" y="0.5" width="269" height="49" rx="24.5" stroke="#747775"/>
<path d="M51 22H21V17C21 14.2857 23.2018 12 25.8165 12H46.1835C48.7982 12 51 14.2857 51 17V22Z" fill="#34A853"/>
<path d="M51 26.0537H21V21.0537C21 18.3394 23.2018 16.0537 25.8165 16.0537H46.1835C48.7982 16.0537 51 18.3394 51 21.0537V26.0537Z" fill="#FBBC04"/>
<path d="M51 30.2468H21V25.2468C21 22.5325 23.2018 20.2468 25.8165 20.2468H46.1835C48.7982 20.2468 51 22.5325 51 25.2468V30.2468Z" fill="#EA4335"/>
<path d="M21 23.2752L40.0411 27.6789C42.2329 28.2294 44.6986 27.6789 46.4795 26.3028L51 23V33.3211C51 35.9358 48.8082 38 46.2055 38H25.7945C23.1918 38 21 35.9358 21 33.3211V23.2752Z" fill="#4285F4"/>
<path d="M66.76 32.24C66.1067 32.24 65.5667 32.0267 65.14 31.6C64.7133 31.1733 64.5 30.6267 64.5 29.96V21.2H66.62V28.1C66.74 28.0867 66.86 28.08 66.98 28.08C67.58 28.08 68.0667 28.2733 68.44 28.66C68.8267 29.0467 69.02 29.54 69.02 30.14C69.02 30.7533 68.8067 31.26 68.38 31.66C67.9533 32.0467 67.4133 32.24 66.76 32.24ZM66.82 30.96C67.0733 30.96 67.2733 30.88 67.42 30.72C67.58 30.56 67.66 30.36 67.66 30.12C67.66 29.88 67.58 29.68 67.42 29.52C67.2733 29.36 67.0733 29.28 66.82 29.28C66.58 29.28 66.38 29.36 66.22 29.52C66.06 29.68 65.98 29.88 65.98 30.12C65.98 30.36 66.06 30.56 66.22 30.72C66.38 30.88 66.58 30.96 66.82 30.96ZM76.038 32.32C75.1446 32.32 74.3646 32.1733 73.698 31.88C73.0446 31.5733 72.5313 31.1467 72.158 30.6C71.798 30.04 71.618 29.3867 71.618 28.64V25.12C71.498 25.1333 71.3846 25.14 71.278 25.14C70.6913 25.14 70.2046 24.9467 69.818 24.56C69.4313 24.1733 69.238 23.68 69.238 23.08C69.238 22.4667 69.4513 21.9667 69.878 21.58C70.3046 21.18 70.8446 20.98 71.498 20.98C72.138 20.98 72.6646 21.1933 73.078 21.62C73.5046 22.0467 73.718 22.5933 73.718 23.26V28.62C73.718 29.2067 73.9313 29.68 74.358 30.04C74.7846 30.3867 75.3446 30.56 76.038 30.56C76.7313 30.56 77.2846 30.38 77.698 30.02C78.1246 29.6467 78.338 29.16 78.338 28.56V21.2H80.458V28.54C80.458 29.3 80.2713 29.9667 79.898 30.54C79.538 31.1 79.0246 31.54 78.358 31.86C77.7046 32.1667 76.9313 32.32 76.038 32.32ZM71.438 23.94C71.678 23.94 71.878 23.86 72.038 23.7C72.198 23.54 72.278 23.34 72.278 23.1C72.278 22.8467 72.198 22.6467 72.038 22.5C71.878 22.34 71.678 22.26 71.438 22.26C71.198 22.26 70.998 22.34 70.838 22.5C70.678 22.6467 70.598 22.8467 70.598 23.1C70.598 23.34 70.678 23.54 70.838 23.7C70.998 23.86 71.198 23.94 71.438 23.94ZM71.858 19.68C71.658 19.4933 71.5046 19.2733 71.398 19.02C71.2913 18.7533 71.238 18.5 71.238 18.26C71.238 17.54 71.6446 16.9733 72.458 16.56C73.258 16.1333 74.3446 15.92 75.718 15.92C77.0913 15.92 78.1846 16.1333 78.998 16.56C79.798 16.9733 80.198 17.54 80.198 18.26C80.198 18.5 80.1446 18.7533 80.038 19.02C79.9313 19.2733 79.778 19.4933 79.578 19.68H78.058C78.138 19.4933 78.2046 19.3133 78.258 19.14C78.298 18.9667 78.318 18.82 78.318 18.7C78.318 18.2733 78.0846 17.9333 77.618 17.68C77.138 17.4133 76.5046 17.28 75.718 17.28C74.9313 17.28 74.3046 17.4133 73.838 17.68C73.3713 17.9333 73.138 18.2733 73.138 18.7C73.138 18.82 73.1646 18.9667 73.218 19.14C73.258 19.3133 73.3113 19.4933 73.378 19.68H71.858ZM74.978 15.22L74.778 12.18H76.658L76.458 15.22H74.978ZM86.7509 36.52C85.6309 36.52 84.6776 36.2267 83.8909 35.64C83.1176 35.0533 82.5843 34.2333 82.2909 33.18L84.0309 32.48C84.2709 33.24 84.6243 33.8133 85.0909 34.2C85.5576 34.6 86.1109 34.8 86.7509 34.8C87.5376 34.8 88.1443 34.5867 88.5709 34.16C88.9976 33.7333 89.2109 33.12 89.2109 32.32V25.14C89.2109 24.3133 88.9909 23.68 88.5509 23.24C88.1109 22.7867 87.4909 22.56 86.6909 22.56C86.3043 22.56 85.9509 22.62 85.6309 22.74C85.5376 22.7667 85.4509 22.8 85.3709 22.84C85.6109 22.9467 85.8176 23.0933 85.9909 23.28C86.2976 23.6267 86.4509 24.0267 86.4509 24.48C86.4509 25.04 86.2576 25.5 85.8709 25.86C85.4843 26.22 84.9909 26.4 84.3909 26.4C83.7643 26.4 83.2509 26.2 82.8509 25.8C82.4643 25.4 82.2709 24.8867 82.2709 24.26C82.2709 23.22 82.6776 22.4 83.4909 21.8C84.3176 21.1867 85.4243 20.88 86.8109 20.88C88.2643 20.88 89.3776 21.2533 90.1509 22C90.9243 22.7333 91.3109 23.8 91.3109 25.2V32C91.3109 33.4533 90.9176 34.5667 90.1309 35.34C89.3443 36.1267 88.2176 36.52 86.7509 36.52ZM84.3909 25.26C84.6176 25.26 84.8043 25.1867 84.9509 25.04C85.1109 24.8933 85.1909 24.7067 85.1909 24.48C85.1909 24.24 85.1109 24.0467 84.9509 23.9C84.8043 23.7533 84.6176 23.68 84.3909 23.68C84.1643 23.68 83.9709 23.7533 83.8109 23.9C83.6643 24.0467 83.5909 24.24 83.5909 24.48C83.5909 24.7067 83.6643 24.8933 83.8109 25.04C83.9709 25.1867 84.1643 25.26 84.3909 25.26ZM97.4098 32.24C96.7565 32.24 96.2165 32.0267 95.7898 31.6C95.3632 31.1733 95.1498 30.6267 95.1498 29.96V21.86C95.1498 21.3267 95.2698 20.8133 95.5098 20.32C95.7498 19.8133 96.0832 19.2733 96.5098 18.7C96.8565 18.22 97.1165 17.8067 97.2898 17.46C97.4765 17.1 97.5698 16.76 97.5698 16.44C97.5698 15.9467 97.3965 15.5467 97.0498 15.24C96.7032 14.92 96.2565 14.76 95.7098 14.76C95.5498 14.76 95.3698 14.7867 95.1698 14.84C95.0898 14.8533 95.0232 14.8733 94.9698 14.9C95.3165 15.0067 95.6098 15.2067 95.8498 15.5C96.1298 15.8467 96.2698 16.2467 96.2698 16.7C96.2698 17.2867 96.0698 17.7733 95.6698 18.16C95.2698 18.5333 94.7565 18.72 94.1298 18.72C93.4898 18.72 92.9565 18.5067 92.5298 18.08C92.1032 17.64 91.8898 17.0867 91.8898 16.42C91.8898 15.78 92.0498 15.22 92.3698 14.74C92.6898 14.2467 93.1365 13.8667 93.7098 13.6C94.2965 13.3333 94.9632 13.2 95.7098 13.2C96.4432 13.2 97.0898 13.34 97.6498 13.62C98.2232 13.8867 98.6698 14.2667 98.9898 14.76C99.3232 15.24 99.4898 15.8 99.4898 16.44C99.4898 16.9067 99.3898 17.3467 99.1898 17.76C99.0032 18.1733 98.7298 18.6467 98.3698 19.18C98.1432 19.5133 97.9498 19.8267 97.7898 20.12C97.6298 20.4133 97.5032 20.7 97.4098 20.98C97.3165 21.26 97.2698 21.56 97.2698 21.88V28.1C97.3898 28.0867 97.5098 28.08 97.6298 28.08C98.2298 28.08 98.7165 28.2733 99.0898 28.66C99.4765 29.0467 99.6698 29.54 99.6698 30.14C99.6698 30.7533 99.4565 31.26 99.0298 31.66C98.6165 32.0467 98.0765 32.24 97.4098 32.24ZM94.1498 17.6C94.4032 17.6 94.6098 17.52 94.7698 17.36C94.9432 17.1867 95.0298 16.9733 95.0298 16.72C95.0298 16.4667 94.9432 16.26 94.7698 16.1C94.6098 15.9267 94.3965 15.84 94.1298 15.84C93.8765 15.84 93.6632 15.9267 93.4898 16.1C93.3298 16.26 93.2498 16.4667 93.2498 16.72C93.2498 16.9733 93.3365 17.1867 93.5098 17.36C93.6832 17.52 93.8965 17.6 94.1498 17.6ZM97.4698 30.96C97.7232 30.96 97.9232 30.88 98.0698 30.72C98.2298 30.56 98.3098 30.36 98.3098 30.12C98.3098 29.88 98.2298 29.68 98.0698 29.52C97.9232 29.36 97.7232 29.28 97.4698 29.28C97.2298 29.28 97.0298 29.36 96.8698 29.52C96.7098 29.68 96.6298 29.88 96.6298 30.12C96.6298 30.36 96.7098 30.56 96.8698 30.72C97.0298 30.88 97.2298 30.96 97.4698 30.96ZM107.714 32.32C106.994 32.32 106.34 32.1733 105.754 31.88C105.354 31.6667 105 31.3867 104.694 31.04C104.48 31.3867 104.207 31.66 103.874 31.86C103.487 32.1133 103.06 32.24 102.594 32.24C102.234 32.24 101.92 32.2133 101.654 32.16C101.4 32.1067 101.167 32.0333 100.954 31.94V30.22C101.287 30.3667 101.6 30.44 101.894 30.44C102.307 30.44 102.607 30.3133 102.794 30.06C102.98 29.7933 103.074 29.4 103.074 28.88V25.12C102.954 25.1333 102.84 25.14 102.734 25.14C102.147 25.14 101.66 24.9467 101.274 24.56C100.887 24.1733 100.694 23.68 100.694 23.08C100.694 22.4667 100.907 21.9667 101.334 21.58C101.76 21.18 102.3 20.98 102.954 20.98C103.594 20.98 104.127 21.1933 104.554 21.62C104.98 22.0467 105.194 22.5933 105.194 23.26V28.46C105.194 29.1267 105.394 29.6533 105.794 30.04C106.194 30.4133 106.74 30.6 107.434 30.6C108.034 30.6 108.5 30.42 108.834 30.06C109.167 29.7 109.334 29.1867 109.334 28.52V21.2H111.454V28.54C111.454 29.38 111.294 30.08 110.974 30.64C110.654 31.2 110.214 31.62 109.654 31.9C109.094 32.18 108.447 32.32 107.714 32.32ZM102.894 23.94C103.134 23.94 103.334 23.86 103.494 23.7C103.654 23.54 103.734 23.34 103.734 23.1C103.734 22.8467 103.654 22.6467 103.494 22.5C103.334 22.34 103.134 22.26 102.894 22.26C102.654 22.26 102.454 22.34 102.294 22.5C102.134 22.6467 102.054 22.8467 102.054 23.1C102.054 23.34 102.134 23.54 102.294 23.7C102.454 23.86 102.654 23.94 102.894 23.94Z" fill="white"/>
<path d="M126.4 32.32C125.373 32.32 124.407 32.1333 123.5 31.76C122.593 31.3867 121.793 30.8667 121.1 30.2C120.42 29.52 119.88 28.7267 119.48 27.82C119.093 26.9 118.9 25.9067 118.9 24.84C118.9 23.7733 119.093 22.7867 119.48 21.88C119.88 20.96 120.42 20.1667 121.1 19.5C121.793 18.82 122.593 18.2933 123.5 17.92C124.407 17.5467 125.373 17.36 126.4 17.36C127.493 17.36 128.5 17.5533 129.42 17.94C130.353 18.3267 131.133 18.8667 131.76 19.56L130.24 21.06C129.933 20.7133 129.58 20.42 129.18 20.18C128.793 19.94 128.367 19.76 127.9 19.64C127.433 19.5067 126.933 19.44 126.4 19.44C125.693 19.44 125.02 19.5667 124.38 19.82C123.74 20.0733 123.173 20.44 122.68 20.92C122.2 21.3867 121.82 21.9533 121.54 22.62C121.26 23.2733 121.12 24.0133 121.12 24.84C121.12 25.6667 121.26 26.4133 121.54 27.08C121.833 27.7333 122.22 28.3 122.7 28.78C123.193 29.2467 123.76 29.6067 124.4 29.86C125.04 30.1133 125.713 30.24 126.42 30.24C127.073 30.24 127.68 30.1467 128.24 29.96C128.813 29.7733 129.313 29.5067 129.74 29.16C130.167 28.8133 130.513 28.3933 130.78 27.9C131.047 27.3933 131.213 26.8267 131.28 26.2H126.38V24.26H133.34C133.367 24.42 133.393 24.6067 133.42 24.82C133.447 25.02 133.46 25.2133 133.46 25.4V25.42C133.46 26.4467 133.28 27.3867 132.92 28.24C132.573 29.0933 132.087 29.8267 131.46 30.44C130.833 31.04 130.087 31.5067 129.22 31.84C128.367 32.16 127.427 32.32 126.4 32.32ZM139.9 32.32C138.847 32.32 137.92 32.08 137.12 31.6C136.32 31.12 135.693 30.4733 135.24 29.66C134.787 28.8333 134.56 27.9133 134.56 26.9C134.56 25.8867 134.787 24.9733 135.24 24.16C135.693 23.3333 136.32 22.68 137.12 22.2C137.92 21.72 138.847 21.48 139.9 21.48C140.94 21.48 141.86 21.7267 142.66 22.22C143.46 22.7 144.087 23.3467 144.54 24.16C144.993 24.9733 145.22 25.8867 145.22 26.9C145.22 27.9133 144.993 28.8333 144.54 29.66C144.087 30.4733 143.46 31.12 142.66 31.6C141.86 32.08 140.94 32.32 139.9 32.32ZM139.9 30.34C140.46 30.34 140.98 30.2067 141.46 29.94C141.94 29.66 142.327 29.2667 142.62 28.76C142.927 28.24 143.08 27.62 143.08 26.9C143.08 26.18 142.927 25.5667 142.62 25.06C142.327 24.54 141.94 24.1467 141.46 23.88C140.98 23.6 140.46 23.46 139.9 23.46C139.34 23.46 138.813 23.6 138.32 23.88C137.84 24.1467 137.447 24.54 137.14 25.06C136.847 25.5667 136.7 26.18 136.7 26.9C136.7 27.62 136.847 28.24 137.14 28.76C137.447 29.2667 137.847 29.66 138.34 29.94C138.833 30.2067 139.353 30.34 139.9 30.34ZM152.009 32.32C150.956 32.32 150.029 32.08 149.229 31.6C148.429 31.12 147.803 30.4733 147.349 29.66C146.896 28.8333 146.669 27.9133 146.669 26.9C146.669 25.8867 146.896 24.9733 147.349 24.16C147.803 23.3333 148.429 22.68 149.229 22.2C150.029 21.72 150.956 21.48 152.009 21.48C153.049 21.48 153.969 21.7267 154.769 22.22C155.569 22.7 156.196 23.3467 156.649 24.16C157.103 24.9733 157.329 25.8867 157.329 26.9C157.329 27.9133 157.103 28.8333 156.649 29.66C156.196 30.4733 155.569 31.12 154.769 31.6C153.969 32.08 153.049 32.32 152.009 32.32ZM152.009 30.34C152.569 30.34 153.089 30.2067 153.569 29.94C154.049 29.66 154.436 29.2667 154.729 28.76C155.036 28.24 155.189 27.62 155.189 26.9C155.189 26.18 155.036 25.5667 154.729 25.06C154.436 24.54 154.049 24.1467 153.569 23.88C153.089 23.6 152.569 23.46 152.009 23.46C151.449 23.46 150.923 23.6 150.429 23.88C149.949 24.1467 149.556 24.54 149.249 25.06C148.956 25.5667 148.809 26.18 148.809 26.9C148.809 27.62 148.956 28.24 149.249 28.76C149.556 29.2667 149.956 29.66 150.449 29.94C150.943 30.2067 151.463 30.34 152.009 30.34ZM163.919 36.64C163.025 36.64 162.252 36.4933 161.599 36.2C160.959 35.92 160.439 35.5533 160.039 35.1C159.639 34.66 159.352 34.2067 159.179 33.74L161.179 32.9C161.392 33.4333 161.732 33.8667 162.199 34.2C162.679 34.5467 163.252 34.72 163.919 34.72C164.865 34.72 165.605 34.44 166.139 33.88C166.672 33.32 166.939 32.5267 166.939 31.5V30.52H166.819C166.499 30.9867 166.059 31.3667 165.499 31.66C164.939 31.9533 164.292 32.1 163.559 32.1C162.692 32.1 161.892 31.88 161.159 31.44C160.439 31 159.859 30.3867 159.419 29.6C158.992 28.8 158.779 27.8667 158.779 26.8C158.779 25.72 158.992 24.7867 159.419 24C159.859 23.2 160.439 22.58 161.159 22.14C161.892 21.7 162.692 21.48 163.559 21.48C164.292 21.48 164.939 21.6267 165.499 21.92C166.059 22.2 166.499 22.5867 166.819 23.08H166.939V21.8H168.999V31.46C168.999 32.5667 168.779 33.5067 168.339 34.28C167.912 35.0533 167.319 35.64 166.559 36.04C165.799 36.44 164.919 36.64 163.919 36.64ZM163.939 30.14C164.472 30.14 164.965 30.0133 165.419 29.76C165.885 29.4933 166.252 29.1133 166.519 28.62C166.799 28.1133 166.939 27.5067 166.939 26.8C166.939 26.0533 166.799 25.4333 166.519 24.94C166.252 24.4467 165.885 24.0733 165.419 23.82C164.965 23.5667 164.472 23.44 163.939 23.44C163.405 23.44 162.905 23.5667 162.439 23.82C161.985 24.0733 161.619 24.4533 161.339 24.96C161.059 25.4533 160.919 26.0667 160.919 26.8C160.919 27.52 161.059 28.1333 161.339 28.64C161.619 29.1333 161.985 29.5067 162.439 29.76C162.905 30.0133 163.405 30.14 163.939 30.14ZM171.546 32V17.68H173.706V32H171.546ZM180.815 32.32C179.815 32.32 178.921 32.0867 178.135 31.62C177.348 31.1533 176.728 30.5133 176.275 29.7C175.835 28.8867 175.615 27.96 175.615 26.92C175.615 25.9467 175.828 25.0467 176.255 24.22C176.681 23.3933 177.275 22.7333 178.035 22.24C178.808 21.7333 179.695 21.48 180.695 21.48C181.748 21.48 182.641 21.7067 183.375 22.16C184.121 22.6133 184.688 23.2333 185.075 24.02C185.461 24.8067 185.655 25.6933 185.655 26.68C185.655 26.8267 185.648 26.96 185.635 27.08C185.635 27.2 185.628 27.2933 185.615 27.36H177.735C177.788 27.92 177.928 28.4067 178.155 28.82C178.448 29.34 178.835 29.7333 179.315 30C179.795 30.2667 180.315 30.4 180.875 30.4C181.555 30.4 182.121 30.2467 182.575 29.94C183.041 29.62 183.408 29.2267 183.675 28.76L185.455 29.62C185.015 30.42 184.415 31.0733 183.655 31.58C182.895 32.0733 181.948 32.32 180.815 32.32ZM177.855 25.74H183.515C183.501 25.4867 183.435 25.22 183.315 24.94C183.195 24.6467 183.021 24.38 182.795 24.14C182.568 23.9 182.281 23.7067 181.935 23.56C181.588 23.4 181.181 23.32 180.715 23.32C180.128 23.32 179.608 23.4733 179.155 23.78C178.701 24.0733 178.348 24.4867 178.095 25.02C177.988 25.2467 177.908 25.4867 177.855 25.74ZM194.446 32L190.606 17.68H193.046L195.326 26.98L195.566 28.22H195.686L195.986 26.98L198.866 17.68H201.066L203.826 26.98L204.126 28.2H204.246L204.486 26.98L206.766 17.68H209.186L205.406 32H203.086L200.346 22.5L200.026 21.16H199.906L199.566 22.5L196.706 32H194.446ZM213.202 32.32C212.469 32.32 211.816 32.1733 211.242 31.88C210.682 31.5867 210.236 31.1867 209.902 30.68C209.582 30.16 209.422 29.5667 209.422 28.9C209.422 28.1667 209.609 27.5467 209.982 27.04C210.369 26.5333 210.882 26.1467 211.522 25.88C212.162 25.6133 212.869 25.48 213.642 25.48C214.069 25.48 214.462 25.5133 214.822 25.58C215.196 25.6333 215.516 25.7 215.782 25.78C216.062 25.86 216.282 25.9467 216.442 26.04V25.5C216.442 24.8333 216.202 24.3 215.722 23.9C215.242 23.5 214.622 23.3 213.862 23.3C213.342 23.3 212.849 23.42 212.382 23.66C211.916 23.8867 211.542 24.2 211.262 24.6L209.782 23.46C210.076 23.0467 210.429 22.6933 210.842 22.4C211.269 22.1067 211.742 21.88 212.262 21.72C212.796 21.56 213.349 21.48 213.922 21.48C215.402 21.48 216.542 21.8467 217.342 22.58C218.142 23.3 218.542 24.3133 218.542 25.62V32H216.442V30.74H216.322C216.149 31.0067 215.909 31.26 215.602 31.5C215.309 31.74 214.956 31.9333 214.542 32.08C214.142 32.24 213.696 32.32 213.202 32.32ZM213.582 30.56C214.142 30.56 214.636 30.4267 215.062 30.16C215.502 29.8933 215.842 29.5467 216.082 29.12C216.322 28.68 216.442 28.2067 216.442 27.7C216.149 27.5267 215.789 27.3867 215.362 27.28C214.949 27.16 214.509 27.1 214.042 27.1C213.162 27.1 212.536 27.2733 212.162 27.62C211.789 27.9667 211.602 28.4 211.602 28.92C211.602 29.4 211.782 29.7933 212.142 30.1C212.502 30.4067 212.982 30.56 213.582 30.56ZM220.94 32V17.68H223.1V32H220.94ZM225.667 32V17.68H227.827V32H225.667ZM234.936 32.32C233.936 32.32 233.042 32.0867 232.256 31.62C231.469 31.1533 230.849 30.5133 230.396 29.7C229.956 28.8867 229.736 27.96 229.736 26.92C229.736 25.9467 229.949 25.0467 230.376 24.22C230.802 23.3933 231.396 22.7333 232.156 22.24C232.929 21.7333 233.816 21.48 234.816 21.48C235.869 21.48 236.762 21.7067 237.496 22.16C238.242 22.6133 238.809 23.2333 239.196 24.02C239.582 24.8067 239.776 25.6933 239.776 26.68C239.776 26.8267 239.769 26.96 239.756 27.08C239.756 27.2 239.749 27.2933 239.736 27.36H231.856C231.909 27.92 232.049 28.4067 232.276 28.82C232.569 29.34 232.956 29.7333 233.436 30C233.916 30.2667 234.436 30.4 234.996 30.4C235.676 30.4 236.242 30.2467 236.696 29.94C237.162 29.62 237.529 29.2267 237.796 28.76L239.576 29.62C239.136 30.42 238.536 31.0733 237.776 31.58C237.016 32.0733 236.069 32.32 234.936 32.32ZM231.976 25.74H237.636C237.622 25.4867 237.556 25.22 237.436 24.94C237.316 24.6467 237.142 24.38 236.916 24.14C236.689 23.9 236.402 23.7067 236.056 23.56C235.709 23.4 235.302 23.32 234.836 23.32C234.249 23.32 233.729 23.4733 233.276 23.78C232.822 24.0733 232.469 24.4867 232.216 25.02C232.109 25.2467 232.029 25.4867 231.976 25.74ZM240.787 21.8H242.567V18.92H244.727V21.8H247.227V23.68H244.727V28.58C244.727 29.0867 244.827 29.4733 245.027 29.74C245.24 30.0067 245.593 30.14 246.087 30.14C246.327 30.14 246.54 30.1067 246.727 30.04C246.913 29.96 247.1 29.8667 247.287 29.76V31.86C247.06 31.9533 246.82 32.0267 246.567 32.08C246.313 32.1333 246.013 32.16 245.667 32.16C244.72 32.16 243.967 31.8867 243.407 31.34C242.847 30.78 242.567 30.0133 242.567 29.04V23.68H240.787V21.8Z" fill="white"/>
</svg>
