<svg width="297" height="50" viewBox="0 0 297 50" fill="none" xmlns="http://www.w3.org/2000/svg">
<rect x="0.5" y="0.5" width="296" height="49" rx="24.5" fill="#1F1F1F"/>
<rect x="0.5" y="0.5" width="296" height="49" rx="24.5" stroke="#747775"/>
<path d="M51 22H21V17C21 14.2857 23.2018 12 25.8165 12H46.1835C48.7982 12 51 14.2857 51 17V22Z" fill="#34A853"/>
<path d="M51 26.0537H21V21.0537C21 18.3394 23.2018 16.0537 25.8165 16.0537H46.1835C48.7982 16.0537 51 18.3394 51 21.0537V26.0537Z" fill="#FBBC04"/>
<path d="M51 30.2468H21V25.2468C21 22.5325 23.2018 20.2468 25.8165 20.2468H46.1835C48.7982 20.2468 51 22.5325 51 25.2468V30.2468Z" fill="#EA4335"/>
<path d="M21 23.2752L40.0411 27.6789C42.2329 28.2294 44.6986 27.6789 46.4795 26.3028L51 23V33.3211C51 35.9358 48.8082 38 46.2055 38H25.7945C23.1918 38 21 35.9358 21 33.3211V23.2752Z" fill="#4285F4"/>
<path d="M63.76 32V29.76L71.26 19.76H64.08V17.68H73.8V19.92L66.36 29.92H73.88V32H63.76ZM68 16.42L65.86 14V13.86H67.92L68.84 15.1H69.04L69.98 13.86H72.06V14L69.9 16.42H68ZM76.2364 32V21.8H78.3964V32H76.2364ZM77.3164 20.3C76.9164 20.3 76.5697 20.16 76.2764 19.88C75.9964 19.5867 75.8564 19.24 75.8564 18.84C75.8564 18.4267 75.9964 18.0867 76.2764 17.82C76.5697 17.54 76.9164 17.4 77.3164 17.4C77.7297 17.4 78.0764 17.54 78.3564 17.82C78.6364 18.0867 78.7764 18.4267 78.7764 18.84C78.7764 19.24 78.6364 19.5867 78.3564 19.88C78.0764 20.16 77.7297 20.3 77.3164 20.3ZM84.7764 32.32C83.5231 32.32 82.5764 31.9467 81.9364 31.2C81.3097 30.44 80.9964 29.4133 80.9964 28.12V21.8H83.1564V27.82C83.1564 28.6733 83.3564 29.3067 83.7564 29.72C84.1697 30.1333 84.6831 30.34 85.2964 30.34C85.8564 30.34 86.3364 30.2 86.7364 29.92C87.1364 29.6267 87.4431 29.2467 87.6564 28.78C87.8831 28.3133 87.9964 27.8133 87.9964 27.28V21.8H90.1364V32H88.1164V30.62H87.9964C87.8097 30.94 87.5497 31.2267 87.2164 31.48C86.8831 31.7333 86.5097 31.9333 86.0964 32.08C85.6831 32.24 85.2431 32.32 84.7764 32.32ZM82.7164 19.26V17.6H88.4364V19.26H82.7164ZM92.678 32V21.8H94.718V23.3H94.838C94.998 22.9533 95.2246 22.6467 95.518 22.38C95.8246 22.1133 96.1713 21.9 96.558 21.74C96.958 21.58 97.3713 21.5 97.798 21.5C98.078 21.5 98.3113 21.52 98.498 21.56C98.698 21.5867 98.878 21.6333 99.038 21.7V23.94C98.7846 23.8333 98.5246 23.7467 98.258 23.68C98.0046 23.6133 97.738 23.58 97.458 23.58C96.9513 23.58 96.498 23.72 96.098 24C95.7113 24.2667 95.4046 24.6267 95.178 25.08C94.9513 25.5333 94.838 26.04 94.838 26.6V32H92.678ZM104.76 32.32C103.76 32.32 102.867 32.0867 102.08 31.62C101.293 31.1533 100.673 30.5133 100.22 29.7C99.7798 28.8867 99.5598 27.96 99.5598 26.92C99.5598 25.9467 99.7732 25.0467 100.2 24.22C100.627 23.3933 101.22 22.7333 101.98 22.24C102.753 21.7333 103.64 21.48 104.64 21.48C105.693 21.48 106.587 21.7067 107.32 22.16C108.067 22.6133 108.633 23.2333 109.02 24.02C109.407 24.8067 109.6 25.6933 109.6 26.68C109.6 26.8267 109.593 26.96 109.58 27.08C109.58 27.2 109.573 27.2933 109.56 27.36H101.68C101.733 27.92 101.873 28.4067 102.1 28.82C102.393 29.34 102.78 29.7333 103.26 30C103.74 30.2667 104.26 30.4 104.82 30.4C105.5 30.4 106.067 30.2467 106.52 29.94C106.987 29.62 107.353 29.2267 107.62 28.76L109.4 29.62C108.96 30.42 108.36 31.0733 107.6 31.58C106.84 32.0733 105.893 32.32 104.76 32.32ZM101.8 25.74H107.46C107.447 25.4867 107.38 25.22 107.26 24.94C107.14 24.6467 106.967 24.38 106.74 24.14C106.513 23.9 106.227 23.7067 105.88 23.56C105.533 23.4 105.127 23.32 104.66 23.32C104.073 23.32 103.553 23.4733 103.1 23.78C102.647 24.0733 102.293 24.4867 102.04 25.02C101.933 25.2467 101.853 25.4867 101.8 25.74ZM104.64 19.8C104.293 19.8 103.993 19.6733 103.74 19.42C103.487 19.1533 103.36 18.8467 103.36 18.5C103.36 18.14 103.487 17.84 103.74 17.6C103.993 17.3467 104.293 17.22 104.64 17.22C105.013 17.22 105.32 17.3467 105.56 17.6C105.8 17.84 105.92 18.14 105.92 18.5C105.92 18.8467 105.8 19.1533 105.56 19.42C105.32 19.6733 105.013 19.8 104.64 19.8ZM110.611 21.8H112.391V18.92H114.551V21.8H117.051V23.68H114.551V28.58C114.551 29.0867 114.651 29.4733 114.851 29.74C115.064 30.0067 115.417 30.14 115.911 30.14C116.151 30.14 116.364 30.1067 116.551 30.04C116.737 29.96 116.924 29.8667 117.111 29.76V31.86C116.884 31.9533 116.644 32.0267 116.391 32.08C116.137 32.1333 115.837 32.16 115.491 32.16C114.544 32.16 113.791 31.8867 113.231 31.34C112.671 30.78 112.391 30.0133 112.391 29.04V23.68H110.611V21.8ZM119.381 32V21.8H121.541V32H119.381ZM120.461 20.3C120.061 20.3 119.714 20.16 119.421 19.88C119.141 19.5867 119.001 19.24 119.001 18.84C119.001 18.4267 119.141 18.0867 119.421 17.82C119.714 17.54 120.061 17.4 120.461 17.4C120.874 17.4 121.221 17.54 121.501 17.82C121.781 18.0867 121.921 18.4267 121.921 18.84C121.921 19.24 121.781 19.5867 121.501 19.88C121.221 20.16 120.874 20.3 120.461 20.3Z" fill="white"/>
<path d="M128.96 33.52L130.06 32C129.767 31.9333 129.513 31.78 129.3 31.54C129.087 31.3 128.98 31 128.98 30.64C128.98 30.2267 129.127 29.8733 129.42 29.58C129.713 29.2867 130.067 29.14 130.48 29.14C130.693 29.14 130.887 29.18 131.06 29.26C131.247 29.34 131.407 29.4467 131.54 29.58C131.673 29.7133 131.78 29.8733 131.86 30.06C131.94 30.2333 131.98 30.4267 131.98 30.64C131.98 30.8 131.953 30.9533 131.9 31.1C131.86 31.2467 131.8 31.3933 131.72 31.54C131.64 31.6733 131.553 31.82 131.46 31.98L129.96 34.18L128.96 33.52ZM132.74 33.52L133.84 32C133.547 31.9333 133.293 31.78 133.08 31.54C132.867 31.3 132.76 31 132.76 30.64C132.76 30.2267 132.907 29.8733 133.2 29.58C133.493 29.2867 133.847 29.14 134.26 29.14C134.473 29.14 134.667 29.18 134.84 29.26C135.027 29.34 135.187 29.4467 135.32 29.58C135.453 29.7133 135.56 29.8733 135.64 30.06C135.72 30.2333 135.76 30.4267 135.76 30.64C135.76 30.8 135.733 30.9533 135.68 31.1C135.64 31.2467 135.58 31.3933 135.5 31.54C135.42 31.6733 135.333 31.82 135.24 31.98L133.74 34.18L132.74 33.52ZM145.091 32.32C144.065 32.32 143.098 32.1333 142.191 31.76C141.285 31.3867 140.485 30.8667 139.791 30.2C139.111 29.52 138.571 28.7267 138.171 27.82C137.785 26.9 137.591 25.9067 137.591 24.84C137.591 23.7733 137.785 22.7867 138.171 21.88C138.571 20.96 139.111 20.1667 139.791 19.5C140.485 18.82 141.285 18.2933 142.191 17.92C143.098 17.5467 144.065 17.36 145.091 17.36C146.185 17.36 147.191 17.5533 148.111 17.94C149.045 18.3267 149.825 18.8667 150.451 19.56L148.931 21.06C148.625 20.7133 148.271 20.42 147.871 20.18C147.485 19.94 147.058 19.76 146.591 19.64C146.125 19.5067 145.625 19.44 145.091 19.44C144.385 19.44 143.711 19.5667 143.071 19.82C142.431 20.0733 141.865 20.44 141.371 20.92C140.891 21.3867 140.511 21.9533 140.231 22.62C139.951 23.2733 139.811 24.0133 139.811 24.84C139.811 25.6667 139.951 26.4133 140.231 27.08C140.525 27.7333 140.911 28.3 141.391 28.78C141.885 29.2467 142.451 29.6067 143.091 29.86C143.731 30.1133 144.405 30.24 145.111 30.24C145.765 30.24 146.371 30.1467 146.931 29.96C147.505 29.7733 148.005 29.5067 148.431 29.16C148.858 28.8133 149.205 28.3933 149.471 27.9C149.738 27.3933 149.905 26.8267 149.971 26.2H145.071V24.26H152.031C152.058 24.42 152.085 24.6067 152.111 24.82C152.138 25.02 152.151 25.2133 152.151 25.4V25.42C152.151 26.4467 151.971 27.3867 151.611 28.24C151.265 29.0933 150.778 29.8267 150.151 30.44C149.525 31.04 148.778 31.5067 147.911 31.84C147.058 32.16 146.118 32.32 145.091 32.32ZM158.591 32.32C157.538 32.32 156.611 32.08 155.811 31.6C155.011 31.12 154.385 30.4733 153.931 29.66C153.478 28.8333 153.251 27.9133 153.251 26.9C153.251 25.8867 153.478 24.9733 153.931 24.16C154.385 23.3333 155.011 22.68 155.811 22.2C156.611 21.72 157.538 21.48 158.591 21.48C159.631 21.48 160.551 21.7267 161.351 22.22C162.151 22.7 162.778 23.3467 163.231 24.16C163.685 24.9733 163.911 25.8867 163.911 26.9C163.911 27.9133 163.685 28.8333 163.231 29.66C162.778 30.4733 162.151 31.12 161.351 31.6C160.551 32.08 159.631 32.32 158.591 32.32ZM158.591 30.34C159.151 30.34 159.671 30.2067 160.151 29.94C160.631 29.66 161.018 29.2667 161.311 28.76C161.618 28.24 161.771 27.62 161.771 26.9C161.771 26.18 161.618 25.5667 161.311 25.06C161.018 24.54 160.631 24.1467 160.151 23.88C159.671 23.6 159.151 23.46 158.591 23.46C158.031 23.46 157.505 23.6 157.011 23.88C156.531 24.1467 156.138 24.54 155.831 25.06C155.538 25.5667 155.391 26.18 155.391 26.9C155.391 27.62 155.538 28.24 155.831 28.76C156.138 29.2667 156.538 29.66 157.031 29.94C157.525 30.2067 158.045 30.34 158.591 30.34ZM170.701 32.32C169.647 32.32 168.721 32.08 167.921 31.6C167.121 31.12 166.494 30.4733 166.041 29.66C165.587 28.8333 165.361 27.9133 165.361 26.9C165.361 25.8867 165.587 24.9733 166.041 24.16C166.494 23.3333 167.121 22.68 167.921 22.2C168.721 21.72 169.647 21.48 170.701 21.48C171.741 21.48 172.661 21.7267 173.461 22.22C174.261 22.7 174.887 23.3467 175.341 24.16C175.794 24.9733 176.021 25.8867 176.021 26.9C176.021 27.9133 175.794 28.8333 175.341 29.66C174.887 30.4733 174.261 31.12 173.461 31.6C172.661 32.08 171.741 32.32 170.701 32.32ZM170.701 30.34C171.261 30.34 171.781 30.2067 172.261 29.94C172.741 29.66 173.127 29.2667 173.421 28.76C173.727 28.24 173.881 27.62 173.881 26.9C173.881 26.18 173.727 25.5667 173.421 25.06C173.127 24.54 172.741 24.1467 172.261 23.88C171.781 23.6 171.261 23.46 170.701 23.46C170.141 23.46 169.614 23.6 169.121 23.88C168.641 24.1467 168.247 24.54 167.941 25.06C167.647 25.5667 167.501 26.18 167.501 26.9C167.501 27.62 167.647 28.24 167.941 28.76C168.247 29.2667 168.647 29.66 169.141 29.94C169.634 30.2067 170.154 30.34 170.701 30.34ZM182.61 36.64C181.717 36.64 180.943 36.4933 180.29 36.2C179.65 35.92 179.13 35.5533 178.73 35.1C178.33 34.66 178.043 34.2067 177.87 33.74L179.87 32.9C180.083 33.4333 180.423 33.8667 180.89 34.2C181.37 34.5467 181.943 34.72 182.61 34.72C183.557 34.72 184.297 34.44 184.83 33.88C185.363 33.32 185.63 32.5267 185.63 31.5V30.52H185.51C185.19 30.9867 184.75 31.3667 184.19 31.66C183.63 31.9533 182.983 32.1 182.25 32.1C181.383 32.1 180.583 31.88 179.85 31.44C179.13 31 178.55 30.3867 178.11 29.6C177.683 28.8 177.47 27.8667 177.47 26.8C177.47 25.72 177.683 24.7867 178.11 24C178.55 23.2 179.13 22.58 179.85 22.14C180.583 21.7 181.383 21.48 182.25 21.48C182.983 21.48 183.63 21.6267 184.19 21.92C184.75 22.2 185.19 22.5867 185.51 23.08H185.63V21.8H187.69V31.46C187.69 32.5667 187.47 33.5067 187.03 34.28C186.603 35.0533 186.01 35.64 185.25 36.04C184.49 36.44 183.61 36.64 182.61 36.64ZM182.63 30.14C183.163 30.14 183.657 30.0133 184.11 29.76C184.577 29.4933 184.943 29.1133 185.21 28.62C185.49 28.1133 185.63 27.5067 185.63 26.8C185.63 26.0533 185.49 25.4333 185.21 24.94C184.943 24.4467 184.577 24.0733 184.11 23.82C183.657 23.5667 183.163 23.44 182.63 23.44C182.097 23.44 181.597 23.5667 181.13 23.82C180.677 24.0733 180.31 24.4533 180.03 24.96C179.75 25.4533 179.61 26.0667 179.61 26.8C179.61 27.52 179.75 28.1333 180.03 28.64C180.31 29.1333 180.677 29.5067 181.13 29.76C181.597 30.0133 182.097 30.14 182.63 30.14ZM190.237 32V17.68H192.397V32H190.237ZM199.506 32.32C198.506 32.32 197.613 32.0867 196.826 31.62C196.039 31.1533 195.419 30.5133 194.966 29.7C194.526 28.8867 194.306 27.96 194.306 26.92C194.306 25.9467 194.519 25.0467 194.946 24.22C195.373 23.3933 195.966 22.7333 196.726 22.24C197.499 21.7333 198.386 21.48 199.386 21.48C200.439 21.48 201.333 21.7067 202.066 22.16C202.813 22.6133 203.379 23.2333 203.766 24.02C204.153 24.8067 204.346 25.6933 204.346 26.68C204.346 26.8267 204.339 26.96 204.326 27.08C204.326 27.2 204.319 27.2933 204.306 27.36H196.426C196.479 27.92 196.619 28.4067 196.846 28.82C197.139 29.34 197.526 29.7333 198.006 30C198.486 30.2667 199.006 30.4 199.566 30.4C200.246 30.4 200.813 30.2467 201.266 29.94C201.733 29.62 202.099 29.2267 202.366 28.76L204.146 29.62C203.706 30.42 203.106 31.0733 202.346 31.58C201.586 32.0733 200.639 32.32 199.506 32.32ZM196.546 25.74H202.206C202.193 25.4867 202.126 25.22 202.006 24.94C201.886 24.6467 201.713 24.38 201.486 24.14C201.259 23.9 200.973 23.7067 200.626 23.56C200.279 23.4 199.873 23.32 199.406 23.32C198.819 23.32 198.299 23.4733 197.846 23.78C197.393 24.0733 197.039 24.4867 196.786 25.02C196.679 25.2467 196.599 25.4867 196.546 25.74ZM213.137 32L209.297 17.68H211.737L214.017 26.98L214.257 28.22H214.377L214.677 26.98L217.557 17.68H219.757L222.517 26.98L222.817 28.2H222.937L223.177 26.98L225.457 17.68H227.877L224.097 32H221.777L219.037 22.5L218.717 21.16H218.597L218.257 22.5L215.397 32H213.137ZM231.894 32.32C231.16 32.32 230.507 32.1733 229.934 31.88C229.374 31.5867 228.927 31.1867 228.594 30.68C228.274 30.16 228.114 29.5667 228.114 28.9C228.114 28.1667 228.3 27.5467 228.674 27.04C229.06 26.5333 229.574 26.1467 230.214 25.88C230.854 25.6133 231.56 25.48 232.334 25.48C232.76 25.48 233.154 25.5133 233.514 25.58C233.887 25.6333 234.207 25.7 234.474 25.78C234.754 25.86 234.974 25.9467 235.134 26.04V25.5C235.134 24.8333 234.894 24.3 234.414 23.9C233.934 23.5 233.314 23.3 232.554 23.3C232.034 23.3 231.54 23.42 231.074 23.66C230.607 23.8867 230.234 24.2 229.954 24.6L228.474 23.46C228.767 23.0467 229.12 22.6933 229.534 22.4C229.96 22.1067 230.434 21.88 230.954 21.72C231.487 21.56 232.04 21.48 232.614 21.48C234.094 21.48 235.234 21.8467 236.034 22.58C236.834 23.3 237.234 24.3133 237.234 25.62V32H235.134V30.74H235.014C234.84 31.0067 234.6 31.26 234.294 31.5C234 31.74 233.647 31.9333 233.234 32.08C232.834 32.24 232.387 32.32 231.894 32.32ZM232.274 30.56C232.834 30.56 233.327 30.4267 233.754 30.16C234.194 29.8933 234.534 29.5467 234.774 29.12C235.014 28.68 235.134 28.2067 235.134 27.7C234.84 27.5267 234.48 27.3867 234.054 27.28C233.64 27.16 233.2 27.1 232.734 27.1C231.854 27.1 231.227 27.2733 230.854 27.62C230.48 27.9667 230.294 28.4 230.294 28.92C230.294 29.4 230.474 29.7933 230.834 30.1C231.194 30.4067 231.674 30.56 232.274 30.56ZM239.632 32V17.68H241.792V32H239.632ZM244.358 32V17.68H246.518V32H244.358ZM253.627 32.32C252.627 32.32 251.734 32.0867 250.947 31.62C250.16 31.1533 249.54 30.5133 249.087 29.7C248.647 28.8867 248.427 27.96 248.427 26.92C248.427 25.9467 248.64 25.0467 249.067 24.22C249.494 23.3933 250.087 22.7333 250.847 22.24C251.62 21.7333 252.507 21.48 253.507 21.48C254.56 21.48 255.454 21.7067 256.187 22.16C256.934 22.6133 257.5 23.2333 257.887 24.02C258.274 24.8067 258.467 25.6933 258.467 26.68C258.467 26.8267 258.46 26.96 258.447 27.08C258.447 27.2 258.44 27.2933 258.427 27.36H250.547C250.6 27.92 250.74 28.4067 250.967 28.82C251.26 29.34 251.647 29.7333 252.127 30C252.607 30.2667 253.127 30.4 253.687 30.4C254.367 30.4 254.934 30.2467 255.387 29.94C255.854 29.62 256.22 29.2267 256.487 28.76L258.267 29.62C257.827 30.42 257.227 31.0733 256.467 31.58C255.707 32.0733 254.76 32.32 253.627 32.32ZM250.667 25.74H256.327C256.314 25.4867 256.247 25.22 256.127 24.94C256.007 24.6467 255.834 24.38 255.607 24.14C255.38 23.9 255.094 23.7067 254.747 23.56C254.4 23.4 253.994 23.32 253.527 23.32C252.94 23.32 252.42 23.4733 251.967 23.78C251.514 24.0733 251.16 24.4867 250.907 25.02C250.8 25.2467 250.72 25.4867 250.667 25.74ZM259.478 21.8H261.258V18.92H263.418V21.8H265.918V23.68H263.418V28.58C263.418 29.0867 263.518 29.4733 263.718 29.74C263.931 30.0067 264.285 30.14 264.778 30.14C265.018 30.14 265.231 30.1067 265.418 30.04C265.605 29.96 265.791 29.8667 265.978 29.76V31.86C265.751 31.9533 265.511 32.0267 265.258 32.08C265.005 32.1333 264.705 32.16 264.358 32.16C263.411 32.16 262.658 31.8867 262.098 31.34C261.538 30.78 261.258 30.0133 261.258 29.04V23.68H259.478V21.8ZM269.69 17.36L270.69 18L269.69 19.54C269.957 19.6067 270.184 19.76 270.37 20C270.57 20.2267 270.67 20.52 270.67 20.88C270.67 21.3067 270.524 21.6667 270.23 21.96C269.95 22.2533 269.604 22.4 269.19 22.4C268.977 22.4 268.777 22.36 268.59 22.28C268.404 22.2 268.244 22.0933 268.11 21.96C267.977 21.8267 267.87 21.6667 267.79 21.48C267.71 21.2933 267.67 21.0933 267.67 20.88C267.67 20.72 267.69 20.5667 267.73 20.42C267.784 20.2733 267.85 20.1267 267.93 19.98C268.01 19.8333 268.104 19.6933 268.21 19.56L269.69 17.36ZM273.57 17.36L274.57 18L273.57 19.54C273.837 19.6067 274.064 19.76 274.25 20C274.45 20.2267 274.55 20.52 274.55 20.88C274.55 21.3067 274.404 21.6667 274.11 21.96C273.83 22.2533 273.484 22.4 273.07 22.4C272.857 22.4 272.657 22.36 272.47 22.28C272.284 22.2 272.124 22.0933 271.99 21.96C271.857 21.8267 271.75 21.6667 271.67 21.48C271.59 21.2933 271.55 21.0933 271.55 20.88C271.55 20.72 271.57 20.5667 271.61 20.42C271.664 20.2733 271.73 20.1267 271.81 19.98C271.89 19.8333 271.984 19.6933 272.09 19.56L273.57 17.36Z" fill="white"/>
</svg>
