<svg width="340" height="50" viewBox="0 0 340 50" fill="none" xmlns="http://www.w3.org/2000/svg">
<rect x="0.5" y="0.5" width="339" height="49" rx="24.5" fill="#1F1F1F"/>
<rect x="0.5" y="0.5" width="339" height="49" rx="24.5" stroke="#747775"/>
<path d="M51 22H21V17C21 14.2857 23.2018 12 25.8165 12H46.1835C48.7982 12 51 14.2857 51 17V22Z" fill="#34A853"/>
<path d="M51 26.0537H21V21.0537C21 18.3394 23.2018 16.0537 25.8165 16.0537H46.1835C48.7982 16.0537 51 18.3394 51 21.0537V26.0537Z" fill="#FBBC04"/>
<path d="M51 30.2468H21V25.2468C21 22.5325 23.2018 20.2468 25.8165 20.2468H46.1835C48.7982 20.2468 51 22.5325 51 25.2468V30.2468Z" fill="#EA4335"/>
<path d="M21 23.2752L40.0411 27.6789C42.2329 28.2294 44.6986 27.6789 46.4795 26.3028L51 23V33.3211C51 35.9358 48.8082 38 46.2055 38H25.7945C23.1918 38 21 35.9358 21 33.3211V23.2752Z" fill="#4285F4"/>
<path d="M68.78 32.32C68.02 32.32 67.2933 32.1733 66.6 31.88C65.9067 31.5733 65.2933 31.1267 64.76 30.54C64.24 29.9533 63.8533 29.2267 63.6 28.36L65.68 27.52C65.8933 28.2933 66.2667 28.94 66.8 29.46C67.3333 29.98 68 30.24 68.8 30.24C69.2533 30.24 69.6733 30.16 70.06 30C70.46 29.84 70.78 29.6067 71.02 29.3C71.26 28.98 71.38 28.5933 71.38 28.14C71.38 27.7133 71.28 27.3533 71.08 27.06C70.88 26.7533 70.56 26.48 70.12 26.24C69.68 25.9867 69.12 25.74 68.44 25.5L67.54 25.18C67.1533 25.0333 66.76 24.8533 66.36 24.64C65.96 24.4267 65.5867 24.1667 65.24 23.86C64.9067 23.54 64.64 23.1667 64.44 22.74C64.24 22.3133 64.14 21.82 64.14 21.26C64.14 20.54 64.3267 19.8867 64.7 19.3C65.0867 18.7133 65.6133 18.2467 66.28 17.9C66.96 17.54 67.7467 17.36 68.64 17.36C69.56 17.36 70.3267 17.5267 70.94 17.86C71.5667 18.18 72.0533 18.5667 72.4 19.02C72.76 19.4733 73.0067 19.9067 73.14 20.32L71.16 21.16C71.08 20.88 70.9333 20.6067 70.72 20.34C70.52 20.0733 70.2467 19.8533 69.9 19.68C69.5667 19.4933 69.1533 19.4 68.66 19.4C68.2333 19.4 67.84 19.48 67.48 19.64C67.1333 19.8 66.8533 20.02 66.64 20.3C66.4267 20.5667 66.32 20.88 66.32 21.24C66.32 21.76 66.5333 22.1867 66.96 22.52C67.3867 22.84 68.0067 23.1333 68.82 23.4L69.74 23.72C70.2067 23.88 70.6667 24.0733 71.12 24.3C71.5733 24.5133 71.9867 24.7933 72.36 25.14C72.7333 25.4733 73.0267 25.8867 73.24 26.38C73.4667 26.86 73.58 27.4333 73.58 28.1C73.58 28.8333 73.4333 29.4733 73.14 30.02C72.86 30.5533 72.48 30.9933 72 31.34C71.5333 31.6733 71.0133 31.92 70.44 32.08C69.88 32.24 69.3267 32.32 68.78 32.32ZM75.7639 32V17.68H77.9239V26.12L82.2439 21.8H84.9239V21.92L80.9839 25.82L85.0639 31.88V32H82.5039L79.4639 27.32L77.9239 28.84V32H75.7639ZM89.4131 32.32C88.6798 32.32 88.0265 32.1733 87.4531 31.88C86.8931 31.5867 86.4465 31.1867 86.1131 30.68C85.7931 30.16 85.6331 29.5667 85.6331 28.9C85.6331 28.1667 85.8198 27.5467 86.1931 27.04C86.5798 26.5333 87.0931 26.1467 87.7331 25.88C88.3731 25.6133 89.0798 25.48 89.8531 25.48C90.2798 25.48 90.6731 25.5133 91.0331 25.58C91.4065 25.6333 91.7265 25.7 91.9931 25.78C92.2731 25.86 92.4931 25.9467 92.6531 26.04V25.5C92.6531 24.8333 92.4131 24.3 91.9331 23.9C91.4531 23.5 90.8331 23.3 90.0731 23.3C89.5531 23.3 89.0598 23.42 88.5931 23.66C88.1265 23.8867 87.7531 24.2 87.4731 24.6L85.9931 23.46C86.2865 23.0467 86.6398 22.6933 87.0531 22.4C87.4798 22.1067 87.9531 21.88 88.4731 21.72C89.0065 21.56 89.5598 21.48 90.1331 21.48C91.6131 21.48 92.7531 21.8467 93.5531 22.58C94.3531 23.3 94.7531 24.3133 94.7531 25.62V32H92.6531V30.74H92.5331C92.3598 31.0067 92.1198 31.26 91.8131 31.5C91.5198 31.74 91.1665 31.9333 90.7531 32.08C90.3531 32.24 89.9065 32.32 89.4131 32.32ZM89.7931 30.56C90.3531 30.56 90.8465 30.4267 91.2731 30.16C91.7131 29.8933 92.0531 29.5467 92.2931 29.12C92.5331 28.68 92.6531 28.2067 92.6531 27.7C92.3598 27.5267 91.9998 27.3867 91.5731 27.28C91.1598 27.16 90.7198 27.1 90.2531 27.1C89.3731 27.1 88.7465 27.2733 88.3731 27.62C87.9998 27.9667 87.8131 28.4 87.8131 28.92C87.8131 29.4 87.9931 29.7933 88.3531 30.1C88.7131 30.4067 89.1931 30.56 89.7931 30.56ZM96.2358 21.8H98.0158V18.92H100.176V21.8H102.676V23.68H100.176V28.58C100.176 29.0867 100.276 29.4733 100.476 29.74C100.689 30.0067 101.042 30.14 101.536 30.14C101.776 30.14 101.989 30.1067 102.176 30.04C102.362 29.96 102.549 29.8667 102.736 29.76V31.86C102.509 31.9533 102.269 32.0267 102.016 32.08C101.762 32.1333 101.462 32.16 101.116 32.16C100.169 32.16 99.4158 31.8867 98.8558 31.34C98.2958 30.78 98.0158 30.0133 98.0158 29.04V23.68H96.2358V21.8ZM104.908 32V21.8H107.068V32H104.908ZM103.148 19.26V17.6H108.868V19.26H103.148ZM108.951 21.8H110.731V18.92H112.891V21.8H115.391V23.68H112.891V28.58C112.891 29.0867 112.991 29.4733 113.191 29.74C113.404 30.0067 113.757 30.14 114.251 30.14C114.491 30.14 114.704 30.1067 114.891 30.04C115.077 29.96 115.264 29.8667 115.451 29.76V31.86C115.224 31.9533 114.984 32.0267 114.731 32.08C114.477 32.1333 114.177 32.16 113.831 32.16C112.884 32.16 112.131 31.8867 111.571 31.34C111.011 30.78 110.731 30.0133 110.731 29.04V23.68H108.951V21.8ZM122.151 32V17.68H124.311V32H122.151ZM127.018 32V21.8H129.178V32H127.018ZM128.098 20.3C127.698 20.3 127.351 20.16 127.058 19.88C126.778 19.5867 126.638 19.24 126.638 18.84C126.638 18.4267 126.778 18.0867 127.058 17.82C127.351 17.54 127.698 17.4 128.098 17.4C128.511 17.4 128.858 17.54 129.138 17.82C129.418 18.0867 129.558 18.4267 129.558 18.84C129.558 19.24 129.418 19.5867 129.138 19.88C128.858 20.16 128.511 20.3 128.098 20.3ZM136.42 32.32C135.42 32.32 134.527 32.0867 133.74 31.62C132.953 31.1533 132.333 30.5133 131.88 29.7C131.44 28.8867 131.22 27.96 131.22 26.92C131.22 25.9467 131.433 25.0467 131.86 24.22C132.287 23.3933 132.88 22.7333 133.64 22.24C134.413 21.7333 135.3 21.48 136.3 21.48C137.353 21.48 138.247 21.7067 138.98 22.16C139.727 22.6133 140.293 23.2333 140.68 24.02C141.067 24.8067 141.26 25.6933 141.26 26.68C141.26 26.8267 141.253 26.96 141.24 27.08C141.24 27.2 141.233 27.2933 141.22 27.36H133.34C133.393 27.92 133.533 28.4067 133.76 28.82C134.053 29.34 134.44 29.7333 134.92 30C135.4 30.2667 135.92 30.4 136.48 30.4C137.16 30.4 137.727 30.2467 138.18 29.94C138.647 29.62 139.013 29.2267 139.28 28.76L141.06 29.62C140.62 30.42 140.02 31.0733 139.26 31.58C138.5 32.0733 137.553 32.32 136.42 32.32ZM133.46 25.74H139.12C139.107 25.4867 139.04 25.22 138.92 24.94C138.8 24.6467 138.627 24.38 138.4 24.14C138.173 23.9 137.887 23.7067 137.54 23.56C137.193 23.4 136.787 23.32 136.32 23.32C135.733 23.32 135.213 23.4733 134.76 23.78C134.307 24.0733 133.953 24.4867 133.7 25.02C133.593 25.2467 133.513 25.4867 133.46 25.74ZM142.271 21.8H144.051V18.92H146.211V21.8H148.711V23.68H146.211V28.58C146.211 29.0867 146.311 29.4733 146.511 29.74C146.724 30.0067 147.078 30.14 147.571 30.14C147.811 30.14 148.024 30.1067 148.211 30.04C148.398 29.96 148.584 29.8667 148.771 29.76V31.86C148.544 31.9533 148.304 32.0267 148.051 32.08C147.798 32.1333 147.498 32.16 147.151 32.16C146.204 32.16 145.451 31.8867 144.891 31.34C144.331 30.78 144.051 30.0133 144.051 29.04V23.68H142.271V21.8ZM155.193 32.32C154.139 32.32 153.213 32.08 152.413 31.6C151.613 31.12 150.986 30.4733 150.533 29.66C150.079 28.8333 149.853 27.9133 149.853 26.9C149.853 25.8867 150.079 24.9733 150.533 24.16C150.986 23.3333 151.613 22.68 152.413 22.2C153.213 21.72 154.139 21.48 155.193 21.48C156.233 21.48 157.153 21.7267 157.953 22.22C158.753 22.7 159.379 23.3467 159.833 24.16C160.286 24.9733 160.513 25.8867 160.513 26.9C160.513 27.9133 160.286 28.8333 159.833 29.66C159.379 30.4733 158.753 31.12 157.953 31.6C157.153 32.08 156.233 32.32 155.193 32.32ZM155.193 30.34C155.753 30.34 156.273 30.2067 156.753 29.94C157.233 29.66 157.619 29.2667 157.913 28.76C158.219 28.24 158.373 27.62 158.373 26.9C158.373 26.18 158.219 25.5667 157.913 25.06C157.619 24.54 157.233 24.1467 156.753 23.88C156.273 23.6 155.753 23.46 155.193 23.46C154.633 23.46 154.106 23.6 153.613 23.88C153.133 24.1467 152.739 24.54 152.433 25.06C152.139 25.5667 151.993 26.18 151.993 26.9C151.993 27.62 152.139 28.24 152.433 28.76C152.739 29.2667 153.139 29.66 153.633 29.94C154.126 30.2067 154.646 30.34 155.193 30.34ZM161.509 21.8H163.289V18.92H165.449V21.8H167.949V23.68H165.449V28.58C165.449 29.0867 165.549 29.4733 165.749 29.74C165.963 30.0067 166.316 30.14 166.809 30.14C167.049 30.14 167.263 30.1067 167.449 30.04C167.636 29.96 167.823 29.8667 168.009 29.76V31.86C167.783 31.9533 167.543 32.0267 167.289 32.08C167.036 32.1333 166.736 32.16 166.389 32.16C165.443 32.16 164.689 31.8867 164.129 31.34C163.569 30.78 163.289 30.0133 163.289 29.04V23.68H161.509V21.8ZM170.119 32V21.8H172.159V23.2H172.279C172.573 22.7067 173.006 22.3 173.579 21.98C174.166 21.6467 174.806 21.48 175.499 21.48C176.753 21.48 177.693 21.8533 178.319 22.6C178.946 23.3333 179.259 24.32 179.259 25.56V32H177.119V25.84C177.119 25.0133 176.913 24.4133 176.499 24.04C176.086 23.6533 175.546 23.46 174.879 23.46C174.359 23.46 173.906 23.6067 173.519 23.9C173.133 24.18 172.826 24.5533 172.599 25.02C172.386 25.4867 172.279 25.9867 172.279 26.52V32H170.119ZM186.381 32.32C185.381 32.32 184.488 32.0867 183.701 31.62C182.914 31.1533 182.294 30.5133 181.841 29.7C181.401 28.8867 181.181 27.96 181.181 26.92C181.181 25.9467 181.394 25.0467 181.821 24.22C182.248 23.3933 182.841 22.7333 183.601 22.24C184.374 21.7333 185.261 21.48 186.261 21.48C187.314 21.48 188.208 21.7067 188.941 22.16C189.688 22.6133 190.254 23.2333 190.641 24.02C191.028 24.8067 191.221 25.6933 191.221 26.68C191.221 26.8267 191.214 26.96 191.201 27.08C191.201 27.2 191.194 27.2933 191.181 27.36H183.301C183.354 27.92 183.494 28.4067 183.721 28.82C184.014 29.34 184.401 29.7333 184.881 30C185.361 30.2667 185.881 30.4 186.441 30.4C187.121 30.4 187.688 30.2467 188.141 29.94C188.608 29.62 188.974 29.2267 189.241 28.76L191.021 29.62C190.581 30.42 189.981 31.0733 189.221 31.58C188.461 32.0733 187.514 32.32 186.381 32.32ZM183.421 25.74H189.081C189.068 25.4867 189.001 25.22 188.881 24.94C188.761 24.6467 188.588 24.38 188.361 24.14C188.134 23.9 187.848 23.7067 187.501 23.56C187.154 23.4 186.748 23.32 186.281 23.32C185.694 23.32 185.174 23.4733 184.721 23.78C184.268 24.0733 183.914 24.4867 183.661 25.02C183.554 25.2467 183.474 25.4867 183.421 25.74ZM183.421 19.26V17.6H189.141V19.26H183.421Z" fill="white"/>
<path d="M205.4 32.32C204.373 32.32 203.407 32.1333 202.5 31.76C201.593 31.3867 200.793 30.8667 200.1 30.2C199.42 29.52 198.88 28.7267 198.48 27.82C198.093 26.9 197.9 25.9067 197.9 24.84C197.9 23.7733 198.093 22.7867 198.48 21.88C198.88 20.96 199.42 20.1667 200.1 19.5C200.793 18.82 201.593 18.2933 202.5 17.92C203.407 17.5467 204.373 17.36 205.4 17.36C206.493 17.36 207.5 17.5533 208.42 17.94C209.353 18.3267 210.133 18.8667 210.76 19.56L209.24 21.06C208.933 20.7133 208.58 20.42 208.18 20.18C207.793 19.94 207.367 19.76 206.9 19.64C206.433 19.5067 205.933 19.44 205.4 19.44C204.693 19.44 204.02 19.5667 203.38 19.82C202.74 20.0733 202.173 20.44 201.68 20.92C201.2 21.3867 200.82 21.9533 200.54 22.62C200.26 23.2733 200.12 24.0133 200.12 24.84C200.12 25.6667 200.26 26.4133 200.54 27.08C200.833 27.7333 201.22 28.3 201.7 28.78C202.193 29.2467 202.76 29.6067 203.4 29.86C204.04 30.1133 204.713 30.24 205.42 30.24C206.073 30.24 206.68 30.1467 207.24 29.96C207.813 29.7733 208.313 29.5067 208.74 29.16C209.167 28.8133 209.513 28.3933 209.78 27.9C210.047 27.3933 210.213 26.8267 210.28 26.2H205.38V24.26H212.34C212.367 24.42 212.393 24.6067 212.42 24.82C212.447 25.02 212.46 25.2133 212.46 25.4V25.42C212.46 26.4467 212.28 27.3867 211.92 28.24C211.573 29.0933 211.087 29.8267 210.46 30.44C209.833 31.04 209.087 31.5067 208.22 31.84C207.367 32.16 206.427 32.32 205.4 32.32ZM218.9 32.32C217.847 32.32 216.92 32.08 216.12 31.6C215.32 31.12 214.693 30.4733 214.24 29.66C213.787 28.8333 213.56 27.9133 213.56 26.9C213.56 25.8867 213.787 24.9733 214.24 24.16C214.693 23.3333 215.32 22.68 216.12 22.2C216.92 21.72 217.847 21.48 218.9 21.48C219.94 21.48 220.86 21.7267 221.66 22.22C222.46 22.7 223.087 23.3467 223.54 24.16C223.993 24.9733 224.22 25.8867 224.22 26.9C224.22 27.9133 223.993 28.8333 223.54 29.66C223.087 30.4733 222.46 31.12 221.66 31.6C220.86 32.08 219.94 32.32 218.9 32.32ZM218.9 30.34C219.46 30.34 219.98 30.2067 220.46 29.94C220.94 29.66 221.327 29.2667 221.62 28.76C221.927 28.24 222.08 27.62 222.08 26.9C222.08 26.18 221.927 25.5667 221.62 25.06C221.327 24.54 220.94 24.1467 220.46 23.88C219.98 23.6 219.46 23.46 218.9 23.46C218.34 23.46 217.813 23.6 217.32 23.88C216.84 24.1467 216.447 24.54 216.14 25.06C215.847 25.5667 215.7 26.18 215.7 26.9C215.7 27.62 215.847 28.24 216.14 28.76C216.447 29.2667 216.847 29.66 217.34 29.94C217.833 30.2067 218.353 30.34 218.9 30.34ZM231.009 32.32C229.956 32.32 229.029 32.08 228.229 31.6C227.429 31.12 226.803 30.4733 226.349 29.66C225.896 28.8333 225.669 27.9133 225.669 26.9C225.669 25.8867 225.896 24.9733 226.349 24.16C226.803 23.3333 227.429 22.68 228.229 22.2C229.029 21.72 229.956 21.48 231.009 21.48C232.049 21.48 232.969 21.7267 233.769 22.22C234.569 22.7 235.196 23.3467 235.649 24.16C236.103 24.9733 236.329 25.8867 236.329 26.9C236.329 27.9133 236.103 28.8333 235.649 29.66C235.196 30.4733 234.569 31.12 233.769 31.6C232.969 32.08 232.049 32.32 231.009 32.32ZM231.009 30.34C231.569 30.34 232.089 30.2067 232.569 29.94C233.049 29.66 233.436 29.2667 233.729 28.76C234.036 28.24 234.189 27.62 234.189 26.9C234.189 26.18 234.036 25.5667 233.729 25.06C233.436 24.54 233.049 24.1467 232.569 23.88C232.089 23.6 231.569 23.46 231.009 23.46C230.449 23.46 229.923 23.6 229.429 23.88C228.949 24.1467 228.556 24.54 228.249 25.06C227.956 25.5667 227.809 26.18 227.809 26.9C227.809 27.62 227.956 28.24 228.249 28.76C228.556 29.2667 228.956 29.66 229.449 29.94C229.943 30.2067 230.463 30.34 231.009 30.34ZM242.919 36.64C242.025 36.64 241.252 36.4933 240.599 36.2C239.959 35.92 239.439 35.5533 239.039 35.1C238.639 34.66 238.352 34.2067 238.179 33.74L240.179 32.9C240.392 33.4333 240.732 33.8667 241.199 34.2C241.679 34.5467 242.252 34.72 242.919 34.72C243.865 34.72 244.605 34.44 245.139 33.88C245.672 33.32 245.939 32.5267 245.939 31.5V30.52H245.819C245.499 30.9867 245.059 31.3667 244.499 31.66C243.939 31.9533 243.292 32.1 242.559 32.1C241.692 32.1 240.892 31.88 240.159 31.44C239.439 31 238.859 30.3867 238.419 29.6C237.992 28.8 237.779 27.8667 237.779 26.8C237.779 25.72 237.992 24.7867 238.419 24C238.859 23.2 239.439 22.58 240.159 22.14C240.892 21.7 241.692 21.48 242.559 21.48C243.292 21.48 243.939 21.6267 244.499 21.92C245.059 22.2 245.499 22.5867 245.819 23.08H245.939V21.8H247.999V31.46C247.999 32.5667 247.779 33.5067 247.339 34.28C246.912 35.0533 246.319 35.64 245.559 36.04C244.799 36.44 243.919 36.64 242.919 36.64ZM242.939 30.14C243.472 30.14 243.965 30.0133 244.419 29.76C244.885 29.4933 245.252 29.1133 245.519 28.62C245.799 28.1133 245.939 27.5067 245.939 26.8C245.939 26.0533 245.799 25.4333 245.519 24.94C245.252 24.4467 244.885 24.0733 244.419 23.82C243.965 23.5667 243.472 23.44 242.939 23.44C242.405 23.44 241.905 23.5667 241.439 23.82C240.985 24.0733 240.619 24.4533 240.339 24.96C240.059 25.4533 239.919 26.0667 239.919 26.8C239.919 27.52 240.059 28.1333 240.339 28.64C240.619 29.1333 240.985 29.5067 241.439 29.76C241.905 30.0133 242.405 30.14 242.939 30.14ZM250.546 32V17.68H252.706V32H250.546ZM259.815 32.32C258.815 32.32 257.921 32.0867 257.135 31.62C256.348 31.1533 255.728 30.5133 255.275 29.7C254.835 28.8867 254.615 27.96 254.615 26.92C254.615 25.9467 254.828 25.0467 255.255 24.22C255.681 23.3933 256.275 22.7333 257.035 22.24C257.808 21.7333 258.695 21.48 259.695 21.48C260.748 21.48 261.641 21.7067 262.375 22.16C263.121 22.6133 263.688 23.2333 264.075 24.02C264.461 24.8067 264.655 25.6933 264.655 26.68C264.655 26.8267 264.648 26.96 264.635 27.08C264.635 27.2 264.628 27.2933 264.615 27.36H256.735C256.788 27.92 256.928 28.4067 257.155 28.82C257.448 29.34 257.835 29.7333 258.315 30C258.795 30.2667 259.315 30.4 259.875 30.4C260.555 30.4 261.121 30.2467 261.575 29.94C262.041 29.62 262.408 29.2267 262.675 28.76L264.455 29.62C264.015 30.42 263.415 31.0733 262.655 31.58C261.895 32.0733 260.948 32.32 259.815 32.32ZM256.855 25.74H262.515C262.501 25.4867 262.435 25.22 262.315 24.94C262.195 24.6467 262.021 24.38 261.795 24.14C261.568 23.9 261.281 23.7067 260.935 23.56C260.588 23.4 260.181 23.32 259.715 23.32C259.128 23.32 258.608 23.4733 258.155 23.78C257.701 24.0733 257.348 24.4867 257.095 25.02C256.988 25.2467 256.908 25.4867 256.855 25.74ZM271.326 32V21.8H273.366V23.2H273.486C273.686 22.8667 273.946 22.5733 274.266 22.32C274.586 22.0667 274.946 21.8667 275.346 21.72C275.76 21.56 276.186 21.48 276.626 21.48C277.386 21.48 278.033 21.66 278.566 22.02C279.1 22.38 279.48 22.8333 279.706 23.38C280.04 22.8467 280.493 22.4 281.066 22.04C281.64 21.6667 282.34 21.48 283.166 21.48C284.366 21.48 285.26 21.8467 285.846 22.58C286.433 23.3 286.726 24.26 286.726 25.46V32H284.586V25.82C284.586 24.9933 284.406 24.3933 284.046 24.02C283.7 23.6467 283.213 23.46 282.586 23.46C282.093 23.46 281.66 23.6 281.286 23.88C280.913 24.1467 280.62 24.5133 280.406 24.98C280.206 25.4467 280.106 25.9667 280.106 26.54V32H277.966V25.82C277.966 25.0067 277.786 24.4133 277.426 24.04C277.066 23.6533 276.56 23.46 275.906 23.46C275.44 23.46 275.02 23.6 274.646 23.88C274.286 24.16 274 24.5333 273.786 25C273.586 25.4667 273.486 25.9867 273.486 26.56V32H271.326ZM292.261 32.32C291.527 32.32 290.874 32.1733 290.301 31.88C289.741 31.5867 289.294 31.1867 288.961 30.68C288.641 30.16 288.481 29.5667 288.481 28.9C288.481 28.1667 288.667 27.5467 289.041 27.04C289.427 26.5333 289.941 26.1467 290.581 25.88C291.221 25.6133 291.927 25.48 292.701 25.48C293.127 25.48 293.521 25.5133 293.881 25.58C294.254 25.6333 294.574 25.7 294.841 25.78C295.121 25.86 295.341 25.9467 295.501 26.04V25.5C295.501 24.8333 295.261 24.3 294.781 23.9C294.301 23.5 293.681 23.3 292.921 23.3C292.401 23.3 291.907 23.42 291.441 23.66C290.974 23.8867 290.601 24.2 290.321 24.6L288.841 23.46C289.134 23.0467 289.487 22.6933 289.901 22.4C290.327 22.1067 290.801 21.88 291.321 21.72C291.854 21.56 292.407 21.48 292.981 21.48C294.461 21.48 295.601 21.8467 296.401 22.58C297.201 23.3 297.601 24.3133 297.601 25.62V32H295.501V30.74H295.381C295.207 31.0067 294.967 31.26 294.661 31.5C294.367 31.74 294.014 31.9333 293.601 32.08C293.201 32.24 292.754 32.32 292.261 32.32ZM292.641 30.56C293.201 30.56 293.694 30.4267 294.121 30.16C294.561 29.8933 294.901 29.5467 295.141 29.12C295.381 28.68 295.501 28.2067 295.501 27.7C295.207 27.5267 294.847 27.3867 294.421 27.28C294.007 27.16 293.567 27.1 293.101 27.1C292.221 27.1 291.594 27.2733 291.221 27.62C290.847 27.9667 290.661 28.4 290.661 28.92C290.661 29.4 290.841 29.7933 291.201 30.1C291.561 30.4067 292.041 30.56 292.641 30.56ZM299.979 32V17.68H302.139V26.12L306.459 21.8H309.139V21.92L305.199 25.82L309.279 31.88V32H306.719L303.679 27.32L302.139 28.84V32H299.979ZM314.148 32.32C313.335 32.32 312.628 32.2 312.028 31.96C311.428 31.7067 310.935 31.3733 310.548 30.96C310.161 30.5333 309.875 30.0733 309.688 29.58L311.628 28.74C311.868 29.2867 312.208 29.7067 312.648 30C313.101 30.28 313.621 30.42 314.208 30.42C314.741 30.42 315.201 30.3267 315.588 30.14C315.975 29.94 316.168 29.62 316.168 29.18C316.168 28.9 316.075 28.6733 315.888 28.5C315.715 28.3133 315.475 28.16 315.168 28.04C314.875 27.92 314.535 27.8133 314.148 27.72L312.928 27.44C312.448 27.32 311.988 27.1333 311.548 26.88C311.121 26.6133 310.775 26.28 310.508 25.88C310.241 25.48 310.108 25.0067 310.108 24.46C310.108 23.8467 310.281 23.32 310.628 22.88C310.988 22.4267 311.468 22.08 312.068 21.84C312.668 21.6 313.315 21.48 314.008 21.48C314.648 21.48 315.228 21.5667 315.748 21.74C316.281 21.9 316.741 22.1467 317.128 22.48C317.528 22.8 317.841 23.2 318.068 23.68L316.208 24.52C315.981 24.0667 315.675 23.7533 315.288 23.58C314.901 23.3933 314.481 23.3 314.028 23.3C313.521 23.3 313.095 23.4067 312.748 23.62C312.415 23.82 312.248 24.0867 312.248 24.42C312.248 24.7667 312.395 25.04 312.688 25.24C312.995 25.44 313.368 25.6 313.808 25.72L315.288 26.08C316.301 26.3333 317.061 26.72 317.568 27.24C318.075 27.7467 318.328 28.3667 318.328 29.1C318.328 29.7533 318.141 30.3267 317.768 30.82C317.395 31.3 316.888 31.6733 316.248 31.94C315.621 32.1933 314.921 32.32 314.148 32.32Z" fill="white"/>
</svg>
