<svg width="366" height="50" viewBox="0 0 366 50" fill="none" xmlns="http://www.w3.org/2000/svg">
<rect x="0.5" y="0.5" width="365" height="49" rx="24.5" fill="#1F1F1F"/>
<rect x="0.5" y="0.5" width="365" height="49" rx="24.5" stroke="#747775"/>
<path d="M51 22H21V17C21 14.2857 23.2018 12 25.8165 12H46.1835C48.7982 12 51 14.2857 51 17V22Z" fill="#34A853"/>
<path d="M51 26.0537H21V21.0537C21 18.3394 23.2018 16.0537 25.8165 16.0537H46.1835C48.7982 16.0537 51 18.3394 51 21.0537V26.0537Z" fill="#FBBC04"/>
<path d="M51 30.2468H21V25.2468C21 22.5325 23.2018 20.2468 25.8165 20.2468H46.1835C48.7982 20.2468 51 22.5325 51 25.2468V30.2468Z" fill="#EA4335"/>
<path d="M21 23.2752L40.0411 27.6789C42.2329 28.2294 44.6986 27.6789 46.4795 26.3028L51 23V33.3211C51 35.9358 48.8082 38 46.2055 38H25.7945C23.1918 38 21 35.9358 21 33.3211V23.2752Z" fill="#4285F4"/>
<path d="M64.62 32V17.68H75.42V32H73.22V19.76H66.82V32H64.62ZM78.283 36.32V21.8H80.303V23.18H80.423C80.6096 22.8867 80.8563 22.6133 81.163 22.36C81.483 22.0933 81.8563 21.88 82.283 21.72C82.7096 21.56 83.183 21.48 83.703 21.48C84.6363 21.48 85.4696 21.7133 86.203 22.18C86.9363 22.6467 87.5163 23.2867 87.943 24.1C88.383 24.9133 88.603 25.8467 88.603 26.9C88.603 27.9533 88.383 28.8867 87.943 29.7C87.5163 30.5133 86.9363 31.1533 86.203 31.62C85.4696 32.0867 84.6363 32.32 83.703 32.32C82.9296 32.32 82.2563 32.1467 81.683 31.8C81.1096 31.4533 80.6896 31.0667 80.423 30.64H80.303L80.423 32.06V36.32H78.283ZM83.383 30.34C83.9163 30.34 84.4163 30.2 84.883 29.92C85.363 29.64 85.743 29.24 86.023 28.72C86.3163 28.2 86.463 27.5933 86.463 26.9C86.463 26.1933 86.3163 25.5867 86.023 25.08C85.743 24.56 85.363 24.16 84.883 23.88C84.4163 23.6 83.9163 23.46 83.383 23.46C82.8496 23.46 82.3496 23.6 81.883 23.88C81.4163 24.16 81.0363 24.56 80.743 25.08C80.4496 25.5867 80.303 26.1933 80.303 26.9C80.303 27.6067 80.4496 28.22 80.743 28.74C81.0363 29.2467 81.4163 29.64 81.883 29.92C82.3496 30.2 82.8496 30.34 83.383 30.34ZM95.2091 32.32C94.2091 32.32 93.3157 32.0867 92.5291 31.62C91.7424 31.1533 91.1224 30.5133 90.6691 29.7C90.2291 28.8867 90.0091 27.96 90.0091 26.92C90.0091 25.9467 90.2224 25.0467 90.6491 24.22C91.0757 23.3933 91.6691 22.7333 92.4291 22.24C93.2024 21.7333 94.0891 21.48 95.0891 21.48C96.1424 21.48 97.0357 21.7067 97.7691 22.16C98.5157 22.6133 99.0824 23.2333 99.4691 24.02C99.8557 24.8067 100.049 25.6933 100.049 26.68C100.049 26.8267 100.042 26.96 100.029 27.08C100.029 27.2 100.022 27.2933 100.009 27.36H92.1291C92.1824 27.92 92.3224 28.4067 92.5491 28.82C92.8424 29.34 93.2291 29.7333 93.7091 30C94.1891 30.2667 94.7091 30.4 95.2691 30.4C95.9491 30.4 96.5157 30.2467 96.9691 29.94C97.4357 29.62 97.8024 29.2267 98.0691 28.76L99.8491 29.62C99.4091 30.42 98.8091 31.0733 98.0491 31.58C97.2891 32.0733 96.3424 32.32 95.2091 32.32ZM92.2491 25.74H97.9091C97.8957 25.4867 97.8291 25.22 97.7091 24.94C97.5891 24.6467 97.4157 24.38 97.1891 24.14C96.9624 23.9 96.6757 23.7067 96.3291 23.56C95.9824 23.4 95.5757 23.32 95.1091 23.32C94.5224 23.32 94.0024 23.4733 93.5491 23.78C93.0957 24.0733 92.7424 24.4867 92.4891 25.02C92.3824 25.2467 92.3024 25.4867 92.2491 25.74ZM102.053 32V21.8H108.733V23.68H104.213V32H102.053ZM110.104 32.16C109.957 32.16 109.804 32.1467 109.644 32.12C109.497 32.1067 109.357 32.0867 109.224 32.06V30.06C109.317 30.1 109.424 30.1333 109.544 30.16C109.664 30.1867 109.764 30.2 109.844 30.2C110.297 30.2 110.617 30.0267 110.804 29.68C110.99 29.32 111.104 28.8667 111.144 28.32C111.184 27.7733 111.204 27.2067 111.204 26.62V21.8H119.004V32H116.864V23.68H113.244V26.96C113.244 27.64 113.197 28.2933 113.104 28.92C113.01 29.5467 112.85 30.1067 112.624 30.6C112.41 31.08 112.097 31.46 111.684 31.74C111.284 32.02 110.757 32.16 110.104 32.16ZM126.108 32.32C125.108 32.32 124.214 32.0867 123.428 31.62C122.641 31.1533 122.021 30.5133 121.568 29.7C121.128 28.8867 120.908 27.96 120.908 26.92C120.908 25.9467 121.121 25.0467 121.548 24.22C121.974 23.3933 122.568 22.7333 123.328 22.24C124.101 21.7333 124.988 21.48 125.988 21.48C127.041 21.48 127.934 21.7067 128.668 22.16C129.414 22.6133 129.981 23.2333 130.368 24.02C130.754 24.8067 130.948 25.6933 130.948 26.68C130.948 26.8267 130.941 26.96 130.928 27.08C130.928 27.2 130.921 27.2933 130.908 27.36H123.028C123.081 27.92 123.221 28.4067 123.448 28.82C123.741 29.34 124.128 29.7333 124.608 30C125.088 30.2667 125.608 30.4 126.168 30.4C126.848 30.4 127.414 30.2467 127.868 29.94C128.334 29.62 128.701 29.2267 128.968 28.76L130.747 29.62C130.308 30.42 129.708 31.0733 128.948 31.58C128.188 32.0733 127.241 32.32 126.108 32.32ZM123.148 25.74H128.808C128.794 25.4867 128.728 25.22 128.608 24.94C128.488 24.6467 128.314 24.38 128.088 24.14C127.861 23.9 127.574 23.7067 127.228 23.56C126.881 23.4 126.474 23.32 126.008 23.32C125.421 23.32 124.901 23.4733 124.448 23.78C123.994 24.0733 123.641 24.4867 123.388 25.02C123.281 25.2467 123.201 25.4867 123.148 25.74ZM131.878 35.04V30.12H132.998C133.212 29.8533 133.405 29.4867 133.578 29.02C133.752 28.5533 133.885 28.02 133.978 27.42C134.072 26.82 134.118 26.2133 134.118 25.6V21.8H141.758V30.12H143.238V35.04H141.258V32H133.878V35.04H131.878ZM135.318 30.12H139.618V23.68H136.158V25.78C136.158 26.3933 136.125 26.9533 136.058 27.46C136.005 27.9667 135.912 28.4267 135.778 28.84C135.658 29.2533 135.505 29.64 135.318 30V30.12ZM148.358 32.32C147.625 32.32 146.972 32.1733 146.398 31.88C145.838 31.5867 145.392 31.1867 145.058 30.68C144.738 30.16 144.578 29.5667 144.578 28.9C144.578 28.1667 144.765 27.5467 145.138 27.04C145.525 26.5333 146.038 26.1467 146.678 25.88C147.318 25.6133 148.025 25.48 148.798 25.48C149.225 25.48 149.618 25.5133 149.978 25.58C150.352 25.6333 150.672 25.7 150.938 25.78C151.218 25.86 151.438 25.9467 151.598 26.04V25.5C151.598 24.8333 151.358 24.3 150.878 23.9C150.398 23.5 149.778 23.3 149.018 23.3C148.498 23.3 148.005 23.42 147.538 23.66C147.072 23.8867 146.698 24.2 146.418 24.6L144.938 23.46C145.232 23.0467 145.585 22.6933 145.998 22.4C146.425 22.1067 146.898 21.88 147.418 21.72C147.952 21.56 148.505 21.48 149.078 21.48C150.558 21.48 151.698 21.8467 152.498 22.58C153.298 23.3 153.698 24.3133 153.698 25.62V32H151.598V30.74H151.478C151.305 31.0067 151.065 31.26 150.758 31.5C150.465 31.74 150.112 31.9333 149.698 32.08C149.298 32.24 148.852 32.32 148.358 32.32ZM148.738 30.56C149.298 30.56 149.792 30.4267 150.218 30.16C150.658 29.8933 150.998 29.5467 151.238 29.12C151.478 28.68 151.598 28.2067 151.598 27.7C151.305 27.5267 150.945 27.3867 150.518 27.28C150.105 27.16 149.665 27.1 149.198 27.1C148.318 27.1 147.692 27.2733 147.318 27.62C146.945 27.9667 146.758 28.4 146.758 28.92C146.758 29.4 146.938 29.7933 147.298 30.1C147.658 30.4067 148.138 30.56 148.738 30.56ZM155.376 36.52C155.163 36.52 154.97 36.5067 154.796 36.48C154.61 36.4533 154.43 36.42 154.256 36.38V34.3C154.376 34.3667 154.523 34.4267 154.696 34.48C154.87 34.5333 155.036 34.56 155.196 34.56C155.57 34.56 155.836 34.44 155.996 34.2C156.156 33.9733 156.236 33.64 156.236 33.2V21.8H158.396V33.22C158.396 34.0067 158.263 34.64 157.996 35.12C157.743 35.6 157.39 35.9533 156.936 36.18C156.483 36.4067 155.963 36.52 155.376 36.52ZM157.316 20.3C156.916 20.3 156.57 20.16 156.276 19.88C155.996 19.5867 155.856 19.24 155.856 18.84C155.856 18.4267 155.996 18.0867 156.276 17.82C156.57 17.54 156.916 17.4 157.316 17.4C157.73 17.4 158.076 17.54 158.356 17.82C158.636 18.0867 158.776 18.4267 158.776 18.84C158.776 19.24 158.636 19.5867 158.356 19.88C158.076 20.16 157.73 20.3 157.316 20.3ZM163.676 32V23.68H160.316V21.8H169.176V23.68H165.816V32H163.676ZM175.6 32.32C174.6 32.32 173.706 32.0867 172.92 31.62C172.133 31.1533 171.513 30.5133 171.06 29.7C170.62 28.8867 170.4 27.96 170.4 26.92C170.4 25.9467 170.613 25.0467 171.04 24.22C171.466 23.3933 172.06 22.7333 172.82 22.24C173.593 21.7333 174.48 21.48 175.48 21.48C176.533 21.48 177.426 21.7067 178.16 22.16C178.906 22.6133 179.473 23.2333 179.86 24.02C180.246 24.8067 180.44 25.6933 180.44 26.68C180.44 26.8267 180.433 26.96 180.42 27.08C180.42 27.2 180.413 27.2933 180.4 27.36H172.52C172.573 27.92 172.713 28.4067 172.94 28.82C173.233 29.34 173.62 29.7333 174.1 30C174.58 30.2667 175.1 30.4 175.66 30.4C176.34 30.4 176.906 30.2467 177.36 29.94C177.826 29.62 178.193 29.2267 178.46 28.76L180.24 29.62C179.8 30.42 179.2 31.0733 178.44 31.58C177.68 32.0733 176.733 32.32 175.6 32.32ZM172.64 25.74H178.3C178.286 25.4867 178.22 25.22 178.1 24.94C177.98 24.6467 177.806 24.38 177.58 24.14C177.353 23.9 177.066 23.7067 176.72 23.56C176.373 23.4 175.966 23.32 175.5 23.32C174.913 23.32 174.393 23.4733 173.94 23.78C173.486 24.0733 173.133 24.4867 172.88 25.02C172.773 25.2467 172.693 25.4867 172.64 25.74ZM187.112 32V21.8H192.172C192.772 21.8 193.305 21.92 193.772 22.16C194.252 22.3867 194.625 22.7 194.892 23.1C195.172 23.5 195.312 23.9467 195.312 24.44C195.312 24.9733 195.192 25.4333 194.952 25.82C194.725 26.2067 194.425 26.4933 194.052 26.68V26.8C194.558 27 194.958 27.3 195.252 27.7C195.558 28.1 195.712 28.56 195.712 29.08C195.712 29.68 195.552 30.2 195.232 30.64C194.925 31.08 194.525 31.42 194.032 31.66C193.538 31.8867 193.012 32 192.452 32H187.112ZM189.272 27.56V30.2H192.232C192.618 30.2 192.938 30.08 193.192 29.84C193.458 29.5867 193.592 29.2667 193.592 28.88C193.592 28.5067 193.458 28.1933 193.192 27.94C192.938 27.6867 192.618 27.56 192.232 27.56H189.272ZM189.272 23.56V25.96H191.912C192.272 25.96 192.572 25.8467 192.812 25.62C193.052 25.3933 193.172 25.1067 193.172 24.76C193.172 24.4 193.052 24.1133 192.812 23.9C192.572 23.6733 192.272 23.56 191.912 23.56H189.272ZM202.517 32.32C201.464 32.32 200.537 32.08 199.737 31.6C198.937 31.12 198.31 30.4733 197.857 29.66C197.404 28.8333 197.177 27.9133 197.177 26.9C197.177 25.8867 197.404 24.9733 197.857 24.16C198.31 23.3333 198.937 22.68 199.737 22.2C200.537 21.72 201.464 21.48 202.517 21.48C203.557 21.48 204.477 21.7267 205.277 22.22C206.077 22.7 206.704 23.3467 207.157 24.16C207.61 24.9733 207.837 25.8867 207.837 26.9C207.837 27.9133 207.61 28.8333 207.157 29.66C206.704 30.4733 206.077 31.12 205.277 31.6C204.477 32.08 203.557 32.32 202.517 32.32ZM202.517 30.34C203.077 30.34 203.597 30.2067 204.077 29.94C204.557 29.66 204.944 29.2667 205.237 28.76C205.544 28.24 205.697 27.62 205.697 26.9C205.697 26.18 205.544 25.5667 205.237 25.06C204.944 24.54 204.557 24.1467 204.077 23.88C203.597 23.6 203.077 23.46 202.517 23.46C201.957 23.46 201.43 23.6 200.937 23.88C200.457 24.1467 200.064 24.54 199.757 25.06C199.464 25.5667 199.317 26.18 199.317 26.9C199.317 27.62 199.464 28.24 199.757 28.76C200.064 29.2667 200.464 29.66 200.957 29.94C201.45 30.2067 201.97 30.34 202.517 30.34Z" fill="white"/>
<path d="M222.4 32.32C221.373 32.32 220.407 32.1333 219.5 31.76C218.593 31.3867 217.793 30.8667 217.1 30.2C216.42 29.52 215.88 28.7267 215.48 27.82C215.093 26.9 214.9 25.9067 214.9 24.84C214.9 23.7733 215.093 22.7867 215.48 21.88C215.88 20.96 216.42 20.1667 217.1 19.5C217.793 18.82 218.593 18.2933 219.5 17.92C220.407 17.5467 221.373 17.36 222.4 17.36C223.493 17.36 224.5 17.5533 225.42 17.94C226.353 18.3267 227.133 18.8667 227.76 19.56L226.24 21.06C225.933 20.7133 225.58 20.42 225.18 20.18C224.793 19.94 224.367 19.76 223.9 19.64C223.433 19.5067 222.933 19.44 222.4 19.44C221.693 19.44 221.02 19.5667 220.38 19.82C219.74 20.0733 219.173 20.44 218.68 20.92C218.2 21.3867 217.82 21.9533 217.54 22.62C217.26 23.2733 217.12 24.0133 217.12 24.84C217.12 25.6667 217.26 26.4133 217.54 27.08C217.833 27.7333 218.22 28.3 218.7 28.78C219.193 29.2467 219.76 29.6067 220.4 29.86C221.04 30.1133 221.713 30.24 222.42 30.24C223.073 30.24 223.68 30.1467 224.24 29.96C224.813 29.7733 225.313 29.5067 225.74 29.16C226.167 28.8133 226.513 28.3933 226.78 27.9C227.047 27.3933 227.213 26.8267 227.28 26.2H222.38V24.26H229.34C229.367 24.42 229.393 24.6067 229.42 24.82C229.447 25.02 229.46 25.2133 229.46 25.4V25.42C229.46 26.4467 229.28 27.3867 228.92 28.24C228.573 29.0933 228.087 29.8267 227.46 30.44C226.833 31.04 226.087 31.5067 225.22 31.84C224.367 32.16 223.427 32.32 222.4 32.32ZM235.9 32.32C234.847 32.32 233.92 32.08 233.12 31.6C232.32 31.12 231.693 30.4733 231.24 29.66C230.787 28.8333 230.56 27.9133 230.56 26.9C230.56 25.8867 230.787 24.9733 231.24 24.16C231.693 23.3333 232.32 22.68 233.12 22.2C233.92 21.72 234.847 21.48 235.9 21.48C236.94 21.48 237.86 21.7267 238.66 22.22C239.46 22.7 240.087 23.3467 240.54 24.16C240.993 24.9733 241.22 25.8867 241.22 26.9C241.22 27.9133 240.993 28.8333 240.54 29.66C240.087 30.4733 239.46 31.12 238.66 31.6C237.86 32.08 236.94 32.32 235.9 32.32ZM235.9 30.34C236.46 30.34 236.98 30.2067 237.46 29.94C237.94 29.66 238.327 29.2667 238.62 28.76C238.927 28.24 239.08 27.62 239.08 26.9C239.08 26.18 238.927 25.5667 238.62 25.06C238.327 24.54 237.94 24.1467 237.46 23.88C236.98 23.6 236.46 23.46 235.9 23.46C235.34 23.46 234.813 23.6 234.32 23.88C233.84 24.1467 233.447 24.54 233.14 25.06C232.847 25.5667 232.7 26.18 232.7 26.9C232.7 27.62 232.847 28.24 233.14 28.76C233.447 29.2667 233.847 29.66 234.34 29.94C234.833 30.2067 235.353 30.34 235.9 30.34ZM248.009 32.32C246.956 32.32 246.029 32.08 245.229 31.6C244.429 31.12 243.803 30.4733 243.349 29.66C242.896 28.8333 242.669 27.9133 242.669 26.9C242.669 25.8867 242.896 24.9733 243.349 24.16C243.803 23.3333 244.429 22.68 245.229 22.2C246.029 21.72 246.956 21.48 248.009 21.48C249.049 21.48 249.969 21.7267 250.769 22.22C251.569 22.7 252.196 23.3467 252.649 24.16C253.103 24.9733 253.329 25.8867 253.329 26.9C253.329 27.9133 253.103 28.8333 252.649 29.66C252.196 30.4733 251.569 31.12 250.769 31.6C249.969 32.08 249.049 32.32 248.009 32.32ZM248.009 30.34C248.569 30.34 249.089 30.2067 249.569 29.94C250.049 29.66 250.436 29.2667 250.729 28.76C251.036 28.24 251.189 27.62 251.189 26.9C251.189 26.18 251.036 25.5667 250.729 25.06C250.436 24.54 250.049 24.1467 249.569 23.88C249.089 23.6 248.569 23.46 248.009 23.46C247.449 23.46 246.923 23.6 246.429 23.88C245.949 24.1467 245.556 24.54 245.249 25.06C244.956 25.5667 244.809 26.18 244.809 26.9C244.809 27.62 244.956 28.24 245.249 28.76C245.556 29.2667 245.956 29.66 246.449 29.94C246.943 30.2067 247.463 30.34 248.009 30.34ZM259.919 36.64C259.025 36.64 258.252 36.4933 257.599 36.2C256.959 35.92 256.439 35.5533 256.039 35.1C255.639 34.66 255.352 34.2067 255.179 33.74L257.179 32.9C257.392 33.4333 257.732 33.8667 258.199 34.2C258.679 34.5467 259.252 34.72 259.919 34.72C260.865 34.72 261.605 34.44 262.139 33.88C262.672 33.32 262.939 32.5267 262.939 31.5V30.52H262.819C262.499 30.9867 262.059 31.3667 261.499 31.66C260.939 31.9533 260.292 32.1 259.559 32.1C258.692 32.1 257.892 31.88 257.159 31.44C256.439 31 255.859 30.3867 255.419 29.6C254.992 28.8 254.779 27.8667 254.779 26.8C254.779 25.72 254.992 24.7867 255.419 24C255.859 23.2 256.439 22.58 257.159 22.14C257.892 21.7 258.692 21.48 259.559 21.48C260.292 21.48 260.939 21.6267 261.499 21.92C262.059 22.2 262.499 22.5867 262.819 23.08H262.939V21.8H264.999V31.46C264.999 32.5667 264.779 33.5067 264.339 34.28C263.912 35.0533 263.319 35.64 262.559 36.04C261.799 36.44 260.919 36.64 259.919 36.64ZM259.939 30.14C260.472 30.14 260.965 30.0133 261.419 29.76C261.885 29.4933 262.252 29.1133 262.519 28.62C262.799 28.1133 262.939 27.5067 262.939 26.8C262.939 26.0533 262.799 25.4333 262.519 24.94C262.252 24.4467 261.885 24.0733 261.419 23.82C260.965 23.5667 260.472 23.44 259.939 23.44C259.405 23.44 258.905 23.5667 258.439 23.82C257.985 24.0733 257.619 24.4533 257.339 24.96C257.059 25.4533 256.919 26.0667 256.919 26.8C256.919 27.52 257.059 28.1333 257.339 28.64C257.619 29.1333 257.985 29.5067 258.439 29.76C258.905 30.0133 259.405 30.14 259.939 30.14ZM267.546 32V17.68H269.706V32H267.546ZM276.815 32.32C275.815 32.32 274.921 32.0867 274.135 31.62C273.348 31.1533 272.728 30.5133 272.275 29.7C271.835 28.8867 271.615 27.96 271.615 26.92C271.615 25.9467 271.828 25.0467 272.255 24.22C272.681 23.3933 273.275 22.7333 274.035 22.24C274.808 21.7333 275.695 21.48 276.695 21.48C277.748 21.48 278.641 21.7067 279.375 22.16C280.121 22.6133 280.688 23.2333 281.075 24.02C281.461 24.8067 281.655 25.6933 281.655 26.68C281.655 26.8267 281.648 26.96 281.635 27.08C281.635 27.2 281.628 27.2933 281.615 27.36H273.735C273.788 27.92 273.928 28.4067 274.155 28.82C274.448 29.34 274.835 29.7333 275.315 30C275.795 30.2667 276.315 30.4 276.875 30.4C277.555 30.4 278.121 30.2467 278.575 29.94C279.041 29.62 279.408 29.2267 279.675 28.76L281.455 29.62C281.015 30.42 280.415 31.0733 279.655 31.58C278.895 32.0733 277.948 32.32 276.815 32.32ZM273.855 25.74H279.515C279.501 25.4867 279.435 25.22 279.315 24.94C279.195 24.6467 279.021 24.38 278.795 24.14C278.568 23.9 278.281 23.7067 277.935 23.56C277.588 23.4 277.181 23.32 276.715 23.32C276.128 23.32 275.608 23.4733 275.155 23.78C274.701 24.0733 274.348 24.4867 274.095 25.02C273.988 25.2467 273.908 25.4867 273.855 25.74ZM290.446 32L286.606 17.68H289.046L291.326 26.98L291.566 28.22H291.686L291.986 26.98L294.866 17.68H297.066L299.826 26.98L300.126 28.2H300.246L300.486 26.98L302.766 17.68H305.186L301.406 32H299.086L296.346 22.5L296.026 21.16H295.906L295.566 22.5L292.706 32H290.446ZM309.202 32.32C308.469 32.32 307.816 32.1733 307.242 31.88C306.682 31.5867 306.236 31.1867 305.902 30.68C305.582 30.16 305.422 29.5667 305.422 28.9C305.422 28.1667 305.609 27.5467 305.982 27.04C306.369 26.5333 306.882 26.1467 307.522 25.88C308.162 25.6133 308.869 25.48 309.642 25.48C310.069 25.48 310.462 25.5133 310.822 25.58C311.196 25.6333 311.516 25.7 311.782 25.78C312.062 25.86 312.282 25.9467 312.442 26.04V25.5C312.442 24.8333 312.202 24.3 311.722 23.9C311.242 23.5 310.622 23.3 309.862 23.3C309.342 23.3 308.849 23.42 308.382 23.66C307.916 23.8867 307.542 24.2 307.262 24.6L305.782 23.46C306.076 23.0467 306.429 22.6933 306.842 22.4C307.269 22.1067 307.742 21.88 308.262 21.72C308.796 21.56 309.349 21.48 309.922 21.48C311.402 21.48 312.542 21.8467 313.342 22.58C314.142 23.3 314.542 24.3133 314.542 25.62V32H312.442V30.74H312.322C312.149 31.0067 311.909 31.26 311.602 31.5C311.309 31.74 310.956 31.9333 310.542 32.08C310.142 32.24 309.696 32.32 309.202 32.32ZM309.582 30.56C310.142 30.56 310.636 30.4267 311.062 30.16C311.502 29.8933 311.842 29.5467 312.082 29.12C312.322 28.68 312.442 28.2067 312.442 27.7C312.149 27.5267 311.789 27.3867 311.362 27.28C310.949 27.16 310.509 27.1 310.042 27.1C309.162 27.1 308.536 27.2733 308.162 27.62C307.789 27.9667 307.602 28.4 307.602 28.92C307.602 29.4 307.782 29.7933 308.142 30.1C308.502 30.4067 308.982 30.56 309.582 30.56ZM316.94 32V17.68H319.1V32H316.94ZM321.667 32V17.68H323.827V32H321.667ZM330.936 32.32C329.936 32.32 329.042 32.0867 328.256 31.62C327.469 31.1533 326.849 30.5133 326.396 29.7C325.956 28.8867 325.736 27.96 325.736 26.92C325.736 25.9467 325.949 25.0467 326.376 24.22C326.802 23.3933 327.396 22.7333 328.156 22.24C328.929 21.7333 329.816 21.48 330.816 21.48C331.869 21.48 332.762 21.7067 333.496 22.16C334.242 22.6133 334.809 23.2333 335.196 24.02C335.582 24.8067 335.776 25.6933 335.776 26.68C335.776 26.8267 335.769 26.96 335.756 27.08C335.756 27.2 335.749 27.2933 335.736 27.36H327.856C327.909 27.92 328.049 28.4067 328.276 28.82C328.569 29.34 328.956 29.7333 329.436 30C329.916 30.2667 330.436 30.4 330.996 30.4C331.676 30.4 332.242 30.2467 332.696 29.94C333.162 29.62 333.529 29.2267 333.796 28.76L335.576 29.62C335.136 30.42 334.536 31.0733 333.776 31.58C333.016 32.0733 332.069 32.32 330.936 32.32ZM327.976 25.74H333.636C333.622 25.4867 333.556 25.22 333.436 24.94C333.316 24.6467 333.142 24.38 332.916 24.14C332.689 23.9 332.402 23.7067 332.056 23.56C331.709 23.4 331.302 23.32 330.836 23.32C330.249 23.32 329.729 23.4733 329.276 23.78C328.822 24.0733 328.469 24.4867 328.216 25.02C328.109 25.2467 328.029 25.4867 327.976 25.74ZM336.787 21.8H338.567V18.92H340.727V21.8H343.227V23.68H340.727V28.58C340.727 29.0867 340.827 29.4733 341.027 29.74C341.24 30.0067 341.593 30.14 342.087 30.14C342.327 30.14 342.54 30.1067 342.727 30.04C342.913 29.96 343.1 29.8667 343.287 29.76V31.86C343.06 31.9533 342.82 32.0267 342.567 32.08C342.313 32.1333 342.013 32.16 341.667 32.16C340.72 32.16 339.967 31.8867 339.407 31.34C338.847 30.78 338.567 30.0133 338.567 29.04V23.68H336.787V21.8Z" fill="white"/>
</svg>
