<svg width="339" height="50" viewBox="0 0 339 50" fill="none" xmlns="http://www.w3.org/2000/svg">
<rect x="0.5" y="0.5" width="338" height="49" rx="24.5" fill="#1F1F1F"/>
<rect x="0.5" y="0.5" width="338" height="49" rx="24.5" stroke="#747775"/>
<path d="M51 22H21V17C21 14.2857 23.2018 12 25.8165 12H46.1835C48.7982 12 51 14.2857 51 17V22Z" fill="#34A853"/>
<path d="M51 26.0537H21V21.0537C21 18.3394 23.2018 16.0537 25.8165 16.0537H46.1835C48.7982 16.0537 51 18.3394 51 21.0537V26.0537Z" fill="#FBBC04"/>
<path d="M51 30.2468H21V25.2468C21 22.5325 23.2018 20.2468 25.8165 20.2468H46.1835C48.7982 20.2468 51 22.5325 51 25.2468V30.2468Z" fill="#EA4335"/>
<path d="M21 23.2752L40.0411 27.6789C42.2329 28.2294 44.6986 27.6789 46.4795 26.3028L51 23V33.3211C51 35.9358 48.8082 38 46.2055 38H25.7945C23.1918 38 21 35.9358 21 33.3211V23.2752Z" fill="#4285F4"/>
<path d="M71.4 32.32C70.3733 32.32 69.4067 32.1333 68.5 31.76C67.5933 31.3867 66.7933 30.8667 66.1 30.2C65.42 29.52 64.88 28.7267 64.48 27.82C64.0933 26.9 63.9 25.9067 63.9 24.84C63.9 23.7733 64.0933 22.7867 64.48 21.88C64.88 20.96 65.42 20.1667 66.1 19.5C66.7933 18.82 67.5933 18.2933 68.5 17.92C69.4067 17.5467 70.3733 17.36 71.4 17.36C72.4933 17.36 73.5 17.5533 74.42 17.94C75.3533 18.3267 76.1333 18.8667 76.76 19.56L75.24 21.06C74.9333 20.7133 74.58 20.42 74.18 20.18C73.7933 19.94 73.3667 19.76 72.9 19.64C72.4333 19.5067 71.9333 19.44 71.4 19.44C70.6933 19.44 70.02 19.5667 69.38 19.82C68.74 20.0733 68.1733 20.44 67.68 20.92C67.2 21.3867 66.82 21.9533 66.54 22.62C66.26 23.2733 66.12 24.0133 66.12 24.84C66.12 25.6667 66.26 26.4133 66.54 27.08C66.8333 27.7333 67.22 28.3 67.7 28.78C68.1933 29.2467 68.76 29.6067 69.4 29.86C70.04 30.1133 70.7133 30.24 71.42 30.24C72.0733 30.24 72.68 30.1467 73.24 29.96C73.8133 29.7733 74.3133 29.5067 74.74 29.16C75.1667 28.8133 75.5133 28.3933 75.78 27.9C76.0467 27.3933 76.2133 26.8267 76.28 26.2H71.38V24.26H78.34C78.3667 24.42 78.3933 24.6067 78.42 24.82C78.4467 25.02 78.46 25.2133 78.46 25.4V25.42C78.46 26.4467 78.28 27.3867 77.92 28.24C77.5733 29.0933 77.0867 29.8267 76.46 30.44C75.8333 31.04 75.0867 31.5067 74.22 31.84C73.3667 32.16 72.4267 32.32 71.4 32.32ZM84.8998 32.32C83.8465 32.32 82.9198 32.08 82.1198 31.6C81.3198 31.12 80.6932 30.4733 80.2398 29.66C79.7865 28.8333 79.5598 27.9133 79.5598 26.9C79.5598 25.8867 79.7865 24.9733 80.2398 24.16C80.6932 23.3333 81.3198 22.68 82.1198 22.2C82.9198 21.72 83.8465 21.48 84.8998 21.48C85.9398 21.48 86.8598 21.7267 87.6598 22.22C88.4598 22.7 89.0865 23.3467 89.5398 24.16C89.9932 24.9733 90.2198 25.8867 90.2198 26.9C90.2198 27.9133 89.9932 28.8333 89.5398 29.66C89.0865 30.4733 88.4598 31.12 87.6598 31.6C86.8598 32.08 85.9398 32.32 84.8998 32.32ZM84.8998 30.34C85.4598 30.34 85.9798 30.2067 86.4598 29.94C86.9398 29.66 87.3265 29.2667 87.6198 28.76C87.9265 28.24 88.0798 27.62 88.0798 26.9C88.0798 26.18 87.9265 25.5667 87.6198 25.06C87.3265 24.54 86.9398 24.1467 86.4598 23.88C85.9798 23.6 85.4598 23.46 84.8998 23.46C84.3398 23.46 83.8132 23.6 83.3198 23.88C82.8398 24.1467 82.4465 24.54 82.1398 25.06C81.8465 25.5667 81.6998 26.18 81.6998 26.9C81.6998 27.62 81.8465 28.24 82.1398 28.76C82.4465 29.2667 82.8465 29.66 83.3398 29.94C83.8332 30.2067 84.3532 30.34 84.8998 30.34ZM97.0092 32.32C95.9559 32.32 95.0292 32.08 94.2292 31.6C93.4292 31.12 92.8026 30.4733 92.3492 29.66C91.8959 28.8333 91.6692 27.9133 91.6692 26.9C91.6692 25.8867 91.8959 24.9733 92.3492 24.16C92.8026 23.3333 93.4292 22.68 94.2292 22.2C95.0292 21.72 95.9559 21.48 97.0092 21.48C98.0492 21.48 98.9692 21.7267 99.7692 22.22C100.569 22.7 101.196 23.3467 101.649 24.16C102.103 24.9733 102.329 25.8867 102.329 26.9C102.329 27.9133 102.103 28.8333 101.649 29.66C101.196 30.4733 100.569 31.12 99.7692 31.6C98.9692 32.08 98.0492 32.32 97.0092 32.32ZM97.0092 30.34C97.5692 30.34 98.0892 30.2067 98.5692 29.94C99.0492 29.66 99.4359 29.2667 99.7292 28.76C100.036 28.24 100.189 27.62 100.189 26.9C100.189 26.18 100.036 25.5667 99.7292 25.06C99.4359 24.54 99.0492 24.1467 98.5692 23.88C98.0892 23.6 97.5692 23.46 97.0092 23.46C96.4492 23.46 95.9226 23.6 95.4292 23.88C94.9492 24.1467 94.5559 24.54 94.2492 25.06C93.9559 25.5667 93.8092 26.18 93.8092 26.9C93.8092 27.62 93.9559 28.24 94.2492 28.76C94.5559 29.2667 94.9559 29.66 95.4492 29.94C95.9426 30.2067 96.4626 30.34 97.0092 30.34ZM108.919 36.64C108.025 36.64 107.252 36.4933 106.599 36.2C105.959 35.92 105.439 35.5533 105.039 35.1C104.639 34.66 104.352 34.2067 104.179 33.74L106.179 32.9C106.392 33.4333 106.732 33.8667 107.199 34.2C107.679 34.5467 108.252 34.72 108.919 34.72C109.865 34.72 110.605 34.44 111.139 33.88C111.672 33.32 111.939 32.5267 111.939 31.5V30.52H111.819C111.499 30.9867 111.059 31.3667 110.499 31.66C109.939 31.9533 109.292 32.1 108.559 32.1C107.692 32.1 106.892 31.88 106.159 31.44C105.439 31 104.859 30.3867 104.419 29.6C103.992 28.8 103.779 27.8667 103.779 26.8C103.779 25.72 103.992 24.7867 104.419 24C104.859 23.2 105.439 22.58 106.159 22.14C106.892 21.7 107.692 21.48 108.559 21.48C109.292 21.48 109.939 21.6267 110.499 21.92C111.059 22.2 111.499 22.5867 111.819 23.08H111.939V21.8H113.999V31.46C113.999 32.5667 113.779 33.5067 113.339 34.28C112.912 35.0533 112.319 35.64 111.559 36.04C110.799 36.44 109.919 36.64 108.919 36.64ZM108.939 30.14C109.472 30.14 109.965 30.0133 110.419 29.76C110.885 29.4933 111.252 29.1133 111.519 28.62C111.799 28.1133 111.939 27.5067 111.939 26.8C111.939 26.0533 111.799 25.4333 111.519 24.94C111.252 24.4467 110.885 24.0733 110.419 23.82C109.965 23.5667 109.472 23.44 108.939 23.44C108.405 23.44 107.905 23.5667 107.439 23.82C106.985 24.0733 106.619 24.4533 106.339 24.96C106.059 25.4533 105.919 26.0667 105.919 26.8C105.919 27.52 106.059 28.1333 106.339 28.64C106.619 29.1333 106.985 29.5067 107.439 29.76C107.905 30.0133 108.405 30.14 108.939 30.14ZM116.546 32V17.68H118.706V32H116.546ZM125.815 32.32C124.815 32.32 123.921 32.0867 123.135 31.62C122.348 31.1533 121.728 30.5133 121.275 29.7C120.835 28.8867 120.615 27.96 120.615 26.92C120.615 25.9467 120.828 25.0467 121.255 24.22C121.681 23.3933 122.275 22.7333 123.035 22.24C123.808 21.7333 124.695 21.48 125.695 21.48C126.748 21.48 127.641 21.7067 128.375 22.16C129.121 22.6133 129.688 23.2333 130.075 24.02C130.461 24.8067 130.655 25.6933 130.655 26.68C130.655 26.8267 130.648 26.96 130.635 27.08C130.635 27.2 130.628 27.2933 130.615 27.36H122.735C122.788 27.92 122.928 28.4067 123.155 28.82C123.448 29.34 123.835 29.7333 124.315 30C124.795 30.2667 125.315 30.4 125.875 30.4C126.555 30.4 127.121 30.2467 127.575 29.94C128.041 29.62 128.408 29.2267 128.675 28.76L130.455 29.62C130.015 30.42 129.415 31.0733 128.655 31.58C127.895 32.0733 126.948 32.32 125.815 32.32ZM122.855 25.74H128.515C128.501 25.4867 128.435 25.22 128.315 24.94C128.195 24.6467 128.021 24.38 127.795 24.14C127.568 23.9 127.281 23.7067 126.935 23.56C126.588 23.4 126.181 23.32 125.715 23.32C125.128 23.32 124.608 23.4733 124.155 23.78C123.701 24.0733 123.348 24.4867 123.095 25.02C122.988 25.2467 122.908 25.4867 122.855 25.74ZM139.446 32L135.606 17.68H138.046L140.326 26.98L140.566 28.22H140.686L140.986 26.98L143.866 17.68H146.066L148.826 26.98L149.126 28.2H149.246L149.486 26.98L151.766 17.68H154.186L150.406 32H148.086L145.346 22.5L145.026 21.16H144.906L144.566 22.5L141.706 32H139.446ZM158.202 32.32C157.469 32.32 156.816 32.1733 156.242 31.88C155.682 31.5867 155.236 31.1867 154.902 30.68C154.582 30.16 154.422 29.5667 154.422 28.9C154.422 28.1667 154.609 27.5467 154.982 27.04C155.369 26.5333 155.882 26.1467 156.522 25.88C157.162 25.6133 157.869 25.48 158.642 25.48C159.069 25.48 159.462 25.5133 159.822 25.58C160.196 25.6333 160.516 25.7 160.782 25.78C161.062 25.86 161.282 25.9467 161.442 26.04V25.5C161.442 24.8333 161.202 24.3 160.722 23.9C160.242 23.5 159.622 23.3 158.862 23.3C158.342 23.3 157.849 23.42 157.382 23.66C156.916 23.8867 156.542 24.2 156.262 24.6L154.782 23.46C155.076 23.0467 155.429 22.6933 155.842 22.4C156.269 22.1067 156.742 21.88 157.262 21.72C157.796 21.56 158.349 21.48 158.922 21.48C160.402 21.48 161.542 21.8467 162.342 22.58C163.142 23.3 163.542 24.3133 163.542 25.62V32H161.442V30.74H161.322C161.149 31.0067 160.909 31.26 160.602 31.5C160.309 31.74 159.956 31.9333 159.542 32.08C159.142 32.24 158.696 32.32 158.202 32.32ZM158.582 30.56C159.142 30.56 159.636 30.4267 160.062 30.16C160.502 29.8933 160.842 29.5467 161.082 29.12C161.322 28.68 161.442 28.2067 161.442 27.7C161.149 27.5267 160.789 27.3867 160.362 27.28C159.949 27.16 159.509 27.1 159.042 27.1C158.162 27.1 157.536 27.2733 157.162 27.62C156.789 27.9667 156.602 28.4 156.602 28.92C156.602 29.4 156.782 29.7933 157.142 30.1C157.502 30.4067 157.982 30.56 158.582 30.56ZM165.94 32V17.68H168.1V32H165.94ZM170.667 32V17.68H172.827V32H170.667ZM179.936 32.32C178.936 32.32 178.042 32.0867 177.256 31.62C176.469 31.1533 175.849 30.5133 175.396 29.7C174.956 28.8867 174.736 27.96 174.736 26.92C174.736 25.9467 174.949 25.0467 175.376 24.22C175.802 23.3933 176.396 22.7333 177.156 22.24C177.929 21.7333 178.816 21.48 179.816 21.48C180.869 21.48 181.762 21.7067 182.496 22.16C183.242 22.6133 183.809 23.2333 184.196 24.02C184.582 24.8067 184.776 25.6933 184.776 26.68C184.776 26.8267 184.769 26.96 184.756 27.08C184.756 27.2 184.749 27.2933 184.736 27.36H176.856C176.909 27.92 177.049 28.4067 177.276 28.82C177.569 29.34 177.956 29.7333 178.436 30C178.916 30.2667 179.436 30.4 179.996 30.4C180.676 30.4 181.242 30.2467 181.696 29.94C182.162 29.62 182.529 29.2267 182.796 28.76L184.576 29.62C184.136 30.42 183.536 31.0733 182.776 31.58C182.016 32.0733 181.069 32.32 179.936 32.32ZM176.976 25.74H182.636C182.622 25.4867 182.556 25.22 182.436 24.94C182.316 24.6467 182.142 24.38 181.916 24.14C181.689 23.9 181.402 23.7067 181.056 23.56C180.709 23.4 180.302 23.32 179.836 23.32C179.249 23.32 178.729 23.4733 178.276 23.78C177.822 24.0733 177.469 24.4867 177.216 25.02C177.109 25.2467 177.029 25.4867 176.976 25.74ZM185.787 21.8H187.567V18.92H189.727V21.8H192.227V23.68H189.727V28.58C189.727 29.0867 189.827 29.4733 190.027 29.74C190.24 30.0067 190.593 30.14 191.087 30.14C191.327 30.14 191.54 30.1067 191.727 30.04C191.913 29.96 192.1 29.8667 192.287 29.76V31.86C192.06 31.9533 191.82 32.0267 191.567 32.08C191.313 32.1333 191.013 32.16 190.667 32.16C189.72 32.16 188.967 31.8867 188.407 31.34C187.847 30.78 187.567 30.0133 187.567 29.04V23.68H185.787V21.8ZM194.279 26.72V24.88H200.839V26.72H194.279ZM216.722 19.36C217.308 19.36 217.868 19.3933 218.402 19.46C218.948 19.5133 219.468 19.6067 219.962 19.74C220.455 19.8733 220.908 20.06 221.322 20.3L221.782 20.5C222.982 21.1133 223.862 21.9333 224.422 22.96C224.995 23.9733 225.282 25.0733 225.282 26.26C225.282 27.7133 224.935 28.8533 224.242 29.68C223.548 30.5067 222.548 30.92 221.242 30.92C220.402 30.92 219.682 30.7467 219.082 30.4C218.495 30.04 218.048 29.52 217.742 28.84C217.435 28.1467 217.282 27.3133 217.282 26.34C217.282 25.5667 217.402 24.8533 217.642 24.2C217.882 23.5333 218.215 22.9067 218.642 22.32C219.082 21.7333 219.582 21.18 220.142 20.66L220.682 20.08C221.068 19.7333 221.408 19.36 221.702 18.96C221.995 18.56 222.142 18.1267 222.142 17.66C222.142 17.3 222.022 16.98 221.782 16.7C221.542 16.42 221.142 16.28 220.582 16.28C220.288 16.28 220.008 16.3 219.742 16.34C219.475 16.38 219.255 16.4333 219.082 16.5L218.702 15.12C218.928 15.0533 219.235 14.9933 219.622 14.94C220.008 14.8733 220.422 14.84 220.862 14.84C221.662 14.84 222.275 14.9867 222.702 15.28C223.142 15.56 223.448 15.8933 223.622 16.28C223.795 16.6667 223.882 17.0133 223.882 17.32C223.882 18.0133 223.702 18.6333 223.342 19.18C222.995 19.7267 222.515 20.2867 221.902 20.86L221.482 21.4C220.922 21.8667 220.462 22.3733 220.102 22.92C219.742 23.4533 219.475 24.0133 219.302 24.6C219.128 25.1733 219.042 25.7667 219.042 26.38C219.042 27.1933 219.142 27.8333 219.342 28.3C219.555 28.7533 219.828 29.0733 220.162 29.26C220.508 29.4333 220.875 29.52 221.262 29.52C221.995 29.52 222.548 29.26 222.922 28.74C223.308 28.2067 223.502 27.42 223.502 26.38C223.502 25.6333 223.388 24.9467 223.162 24.32C222.948 23.6933 222.622 23.14 222.182 22.66C221.742 22.1667 221.175 21.7667 220.482 21.46L220.142 21.32C219.675 21.1467 219.155 21.02 218.582 20.94C218.008 20.8467 217.382 20.8 216.702 20.8C216.088 20.8 215.482 20.8467 214.882 20.94C214.295 21.02 213.728 21.1733 213.182 21.4L212.802 21.56C211.948 21.96 211.255 22.54 210.722 23.3C210.188 24.06 209.922 25.0467 209.922 26.26C209.922 27.1133 210.028 27.78 210.242 28.26C210.468 28.7267 210.755 29.0533 211.102 29.24C211.462 29.4267 211.842 29.52 212.242 29.52C212.655 29.52 213.035 29.4333 213.382 29.26C213.742 29.0733 214.028 28.7467 214.242 28.28C214.455 27.8 214.562 27.1267 214.562 26.26C214.562 25.5133 214.435 24.8067 214.182 24.14C213.928 23.4733 213.582 22.8867 213.142 22.38C212.702 21.8733 212.188 21.4867 211.602 21.22L211.182 21.02C210.875 20.9133 210.575 20.84 210.282 20.8C209.988 20.76 209.655 20.74 209.282 20.74C208.282 20.74 207.435 20.94 206.742 21.34C206.062 21.7267 205.542 22.26 205.182 22.94C204.835 23.6067 204.662 24.3667 204.662 25.22C204.662 25.9133 204.762 26.5333 204.962 27.08C205.162 27.6267 205.442 28.1067 205.802 28.52C206.175 28.9333 206.608 29.2933 207.102 29.6L206.102 30.86C205.528 30.5267 204.995 30.1 204.502 29.58C204.022 29.0467 203.628 28.4133 203.322 27.68C203.028 26.9333 202.882 26.0867 202.882 25.14C202.882 24.3133 203.015 23.5533 203.282 22.86C203.562 22.1533 203.968 21.54 204.502 21.02C205.035 20.5 205.688 20.0933 206.462 19.8C207.235 19.5067 208.122 19.36 209.122 19.36C209.775 19.36 210.375 19.4267 210.922 19.56C211.482 19.68 212.035 19.8933 212.582 20.2L213.082 20.62C214.015 21.1533 214.788 21.9133 215.402 22.9C216.015 23.8867 216.322 25.02 216.322 26.3C216.322 27.2467 216.162 28.0667 215.842 28.76C215.535 29.4533 215.075 29.9867 214.462 30.36C213.862 30.7333 213.122 30.92 212.242 30.92C211.375 30.92 210.635 30.7333 210.022 30.36C209.408 29.9867 208.942 29.4533 208.622 28.76C208.315 28.0667 208.162 27.2467 208.162 26.3C208.162 25.4333 208.295 24.6533 208.562 23.96C208.828 23.2667 209.202 22.6533 209.682 22.12C210.162 21.5733 210.715 21.1067 211.342 20.72L211.862 20.42C212.568 20.0333 213.315 19.76 214.102 19.6C214.888 19.44 215.762 19.36 216.722 19.36Z" fill="white"/>
<path d="M236.32 30.92C235.12 30.92 234.207 30.6267 233.58 30.04C232.953 29.4533 232.64 28.6533 232.64 27.64C232.64 27.0133 232.78 26.4733 233.06 26.02C233.34 25.5533 233.713 25.1867 234.18 24.92C234.5 24.7333 234.853 24.58 235.24 24.46C235.64 24.34 236.113 24.2533 236.66 24.2C237.22 24.1467 237.887 24.12 238.66 24.12H246.32C247.467 24.12 248.38 24.1867 249.06 24.32C249.753 24.4533 250.347 24.6933 250.84 25.04C251.227 25.3067 251.533 25.6533 251.76 26.08C252 26.4933 252.12 27.0133 252.12 27.64C252.12 28.6533 251.82 29.4533 251.22 30.04C250.62 30.6267 249.76 30.92 248.64 30.92C248.307 30.92 247.96 30.9067 247.6 30.88C247.253 30.84 246.927 30.7733 246.62 30.68L247 29.34C247.187 29.3933 247.407 29.44 247.66 29.48C247.927 29.5067 248.167 29.52 248.38 29.52C249.06 29.52 249.567 29.3667 249.9 29.06C250.233 28.74 250.4 28.2733 250.4 27.66C250.4 27.2733 250.327 26.96 250.18 26.72C250.033 26.4667 249.84 26.26 249.6 26.1C249.227 25.86 248.767 25.7067 248.22 25.64C247.687 25.56 247 25.52 246.16 25.52H238.62C237.673 25.52 236.947 25.56 236.44 25.64C235.947 25.7067 235.513 25.86 235.14 26.1C234.9 26.2467 234.707 26.4467 234.56 26.7C234.427 26.9533 234.36 27.2533 234.36 27.6C234.36 28.04 234.44 28.4067 234.6 28.7C234.773 28.98 235.013 29.1867 235.32 29.32C235.627 29.4533 235.98 29.52 236.38 29.52C236.807 29.52 237.233 29.4533 237.66 29.32C238.1 29.1733 238.56 28.92 239.04 28.56L240.04 29.64C239.64 29.9333 239.247 30.1733 238.86 30.36C238.473 30.5467 238.073 30.6867 237.66 30.78C237.26 30.8733 236.813 30.92 236.32 30.92ZM242.46 19.36C243.527 19.36 244.4 19.6133 245.08 20.12C245.773 20.6133 246.287 21.2933 246.62 22.16C246.953 23.0133 247.12 23.9933 247.12 25.1C247.12 26.3533 246.933 27.4133 246.56 28.28C246.187 29.1467 245.653 29.8067 244.96 30.26C244.267 30.7 243.44 30.92 242.48 30.92C241.76 30.92 241.107 30.8 240.52 30.56C239.947 30.3067 239.453 29.9333 239.04 29.44C238.627 28.9467 238.307 28.34 238.08 27.62C237.867 26.8867 237.76 26.0467 237.76 25.1C237.76 23.3133 238.18 21.9133 239.02 20.9C239.86 19.8733 241.007 19.36 242.46 19.36ZM242.46 20.76C241.447 20.76 240.693 21.12 240.2 21.84C239.72 22.56 239.48 23.6533 239.48 25.12C239.48 26.1067 239.587 26.9267 239.8 27.58C240.027 28.2333 240.36 28.72 240.8 29.04C241.24 29.36 241.78 29.52 242.42 29.52C243.073 29.52 243.62 29.3667 244.06 29.06C244.5 28.74 244.833 28.2533 245.06 27.6C245.287 26.9467 245.4 26.12 245.4 25.12C245.4 24.12 245.287 23.3 245.06 22.66C244.847 22.0067 244.52 21.5267 244.08 21.22C243.64 20.9133 243.1 20.76 242.46 20.76ZM262.022 25.1C262.022 25.8733 261.942 26.6067 261.782 27.3C261.635 27.9933 261.382 28.6133 261.022 29.16C260.662 29.7067 260.182 30.14 259.582 30.46C258.995 30.7667 258.262 30.92 257.382 30.92C256.702 30.92 256.108 30.8133 255.602 30.6C255.108 30.3733 254.688 30.08 254.342 29.72C254.008 29.36 253.742 28.9667 253.542 28.54C253.342 28.1133 253.195 27.7 253.102 27.3L254.842 26.96C254.935 27.32 255.068 27.7 255.242 28.1C255.428 28.5 255.688 28.84 256.022 29.12C256.368 29.3867 256.815 29.52 257.362 29.52C258.068 29.52 258.628 29.3333 259.042 28.96C259.468 28.5867 259.775 28.0733 259.962 27.42C260.162 26.7533 260.262 25.9867 260.262 25.12C260.262 24.2533 260.162 23.4933 259.962 22.84C259.775 22.1867 259.475 21.68 259.062 21.32C258.648 20.9467 258.115 20.76 257.462 20.76C256.942 20.76 256.508 20.9 256.162 21.18C255.815 21.4467 255.542 21.7733 255.342 22.16C255.142 22.5467 254.995 22.92 254.902 23.28L253.182 22.94C253.302 22.5133 253.468 22.0933 253.682 21.68C253.908 21.2533 254.195 20.8667 254.542 20.52C254.888 20.1733 255.308 19.8933 255.802 19.68C256.308 19.4667 256.902 19.36 257.582 19.36C258.408 19.36 259.102 19.52 259.662 19.84C260.235 20.1467 260.695 20.5733 261.042 21.12C261.388 21.6533 261.635 22.2667 261.782 22.96C261.942 23.64 262.022 24.3533 262.022 25.1ZM270 19.36C271.12 19.36 272.013 19.54 272.68 19.9C273.347 20.26 273.907 20.7267 274.36 21.3L274.08 21.24C274.507 20.6133 275.02 20.1467 275.62 19.84C276.233 19.52 276.907 19.36 277.64 19.36C278.533 19.36 279.253 19.5267 279.8 19.86C280.36 20.1933 280.807 20.6533 281.14 21.24L280.9 21.38C281.407 20.6333 281.947 20.1133 282.52 19.82C283.093 19.5133 283.787 19.36 284.6 19.36C285.627 19.36 286.5 19.6067 287.22 20.1C287.94 20.58 288.487 21.2333 288.86 22.06C289.233 22.8867 289.42 23.8133 289.42 24.84C289.42 25.72 289.3 26.52 289.06 27.24C288.833 27.9467 288.487 28.5933 288.02 29.18C287.567 29.7667 287 30.3267 286.32 30.86L285.26 29.62C285.727 29.2867 286.14 28.9 286.5 28.46C286.86 28.0067 287.14 27.4867 287.34 26.9C287.553 26.3 287.66 25.6133 287.66 24.84C287.66 24.0667 287.533 23.38 287.28 22.78C287.027 22.1667 286.667 21.6867 286.2 21.34C285.747 20.98 285.207 20.8 284.58 20.8C284.06 20.8 283.613 20.8933 283.24 21.08C282.88 21.2667 282.593 21.5533 282.38 21.94C282.207 22.2467 282.087 22.6133 282.02 23.04C281.967 23.4667 281.94 24.0933 281.94 24.92V30.68H280.22V24.36C280.22 23.6267 280.167 23.04 280.06 22.6C279.967 22.1467 279.787 21.78 279.52 21.5C279.32 21.2733 279.067 21.1 278.76 20.98C278.453 20.86 278.073 20.8 277.62 20.8C277.207 20.8 276.847 20.8733 276.54 21.02C276.233 21.1533 275.973 21.3333 275.76 21.56C275.507 21.84 275.32 22.2 275.2 22.64C275.08 23.08 275.02 23.7133 275.02 24.54V30.68H273.3V24.7C273.3 23.8333 273.227 23.1667 273.08 22.7C272.933 22.22 272.707 21.84 272.4 21.56C272.12 21.3067 271.78 21.12 271.38 21C270.993 20.8667 270.527 20.8 269.98 20.8C269.02 20.8 268.187 21.0267 267.48 21.48C266.787 21.92 266.247 22.5267 265.86 23.3C265.487 24.06 265.3 24.9267 265.3 25.9V26.12C265.3 26.8667 265.4 27.4933 265.6 28C265.8 28.5067 266.073 28.8867 266.42 29.14C266.78 29.3933 267.2 29.52 267.68 29.52C268.013 29.52 268.307 29.4467 268.56 29.3C268.813 29.14 269.013 28.9133 269.16 28.62C269.307 28.3267 269.38 27.9667 269.38 27.54C269.38 26.8733 269.207 26.3733 268.86 26.04C268.513 25.6933 268.06 25.52 267.5 25.52C266.98 25.52 266.487 25.6533 266.02 25.92C265.553 26.1867 265.127 26.5333 264.74 26.96L264.44 25.72C264.827 25.24 265.32 24.8533 265.92 24.56C266.52 24.2667 267.147 24.12 267.8 24.12C268.44 24.12 269 24.2467 269.48 24.5C269.973 24.7533 270.353 25.1267 270.62 25.62C270.9 26.1 271.04 26.6867 271.04 27.38C271.04 28.1133 270.9 28.7467 270.62 29.28C270.34 29.8133 269.947 30.22 269.44 30.5C268.933 30.78 268.333 30.92 267.64 30.92C266.947 30.92 266.293 30.7467 265.68 30.4C265.08 30.0533 264.593 29.5067 264.22 28.76C263.86 28.0133 263.68 27.0467 263.68 25.86C263.68 24.4467 263.96 23.26 264.52 22.3C265.093 21.34 265.853 20.6133 266.8 20.12C267.76 19.6133 268.827 19.36 270 19.36ZM293.303 35.22C292.183 35.22 291.296 34.8933 290.643 34.24C290.003 33.6 289.683 32.7667 289.683 31.74C289.683 31.06 289.836 30.46 290.143 29.94C290.45 29.42 290.876 29.0133 291.423 28.72C291.97 28.4267 292.59 28.28 293.283 28.28C294.003 28.28 294.63 28.42 295.163 28.7C295.71 28.98 296.136 29.38 296.443 29.9C296.75 30.4067 296.903 31.02 296.903 31.74C296.903 32.4467 296.75 33.06 296.443 33.58C296.136 34.1 295.71 34.5 295.163 34.78C294.63 35.0733 294.01 35.22 293.303 35.22ZM293.303 33.9C293.85 33.9 294.31 33.72 294.683 33.36C295.07 33 295.263 32.46 295.263 31.74C295.263 31.0333 295.076 30.5 294.703 30.14C294.33 29.78 293.856 29.6 293.283 29.6C292.723 29.6 292.256 29.78 291.883 30.14C291.51 30.5 291.323 31.04 291.323 31.76C291.323 32.4533 291.51 32.98 291.883 33.34C292.27 33.7133 292.743 33.9 293.303 33.9ZM292.283 19.36C293.083 19.36 293.71 19.5133 294.163 19.82C294.63 20.1133 294.956 20.5133 295.143 21.02C295.343 21.5267 295.443 22.08 295.443 22.68C295.443 23.4933 295.323 24.46 295.083 25.58C294.856 26.6867 294.556 27.8267 294.183 29L292.583 28.7C292.916 27.5533 293.183 26.5 293.383 25.54C293.583 24.5667 293.683 23.6467 293.683 22.78C293.683 22.22 293.57 21.7533 293.343 21.38C293.13 20.9933 292.71 20.8 292.083 20.8C291.87 20.8 291.65 20.82 291.423 20.86C291.21 20.8867 291.03 20.92 290.883 20.96L290.543 19.58C290.756 19.5133 291.016 19.46 291.323 19.42C291.63 19.38 291.95 19.36 292.283 19.36ZM301.164 30.92C299.964 30.92 299.05 30.6267 298.424 30.04C297.797 29.4533 297.484 28.6533 297.484 27.64C297.484 27.0133 297.624 26.4733 297.904 26.02C298.184 25.5533 298.557 25.1867 299.024 24.92C299.344 24.7333 299.697 24.58 300.084 24.46C300.484 24.34 300.957 24.2533 301.504 24.2C302.064 24.1467 302.73 24.12 303.504 24.12H311.164C312.31 24.12 313.224 24.1867 313.904 24.32C314.597 24.4533 315.19 24.6933 315.684 25.04C316.07 25.3067 316.377 25.6533 316.604 26.08C316.844 26.4933 316.964 27.0133 316.964 27.64C316.964 28.6533 316.664 29.4533 316.064 30.04C315.464 30.6267 314.604 30.92 313.484 30.92C313.15 30.92 312.804 30.9067 312.444 30.88C312.097 30.84 311.77 30.7733 311.464 30.68L311.844 29.34C312.03 29.3933 312.25 29.44 312.504 29.48C312.77 29.5067 313.01 29.52 313.224 29.52C313.904 29.52 314.41 29.3667 314.744 29.06C315.077 28.74 315.244 28.2733 315.244 27.66C315.244 27.2733 315.17 26.96 315.024 26.72C314.877 26.4667 314.684 26.26 314.444 26.1C314.07 25.86 313.61 25.7067 313.064 25.64C312.53 25.56 311.844 25.52 311.004 25.52H303.464C302.517 25.52 301.79 25.56 301.284 25.64C300.79 25.7067 300.357 25.86 299.984 26.1C299.744 26.2467 299.55 26.4467 299.404 26.7C299.27 26.9533 299.204 27.2533 299.204 27.6C299.204 28.04 299.284 28.4067 299.444 28.7C299.617 28.98 299.857 29.1867 300.164 29.32C300.47 29.4533 300.824 29.52 301.224 29.52C301.65 29.52 302.077 29.4533 302.504 29.32C302.944 29.1733 303.404 28.92 303.884 28.56L304.884 29.64C304.484 29.9333 304.09 30.1733 303.704 30.36C303.317 30.5467 302.917 30.6867 302.504 30.78C302.104 30.8733 301.657 30.92 301.164 30.92ZM307.304 19.36C308.37 19.36 309.244 19.6133 309.924 20.12C310.617 20.6133 311.13 21.2933 311.464 22.16C311.797 23.0133 311.964 23.9933 311.964 25.1C311.964 26.3533 311.777 27.4133 311.404 28.28C311.03 29.1467 310.497 29.8067 309.804 30.26C309.11 30.7 308.284 30.92 307.324 30.92C306.604 30.92 305.95 30.8 305.364 30.56C304.79 30.3067 304.297 29.9333 303.884 29.44C303.47 28.9467 303.15 28.34 302.924 27.62C302.71 26.8867 302.604 26.0467 302.604 25.1C302.604 23.3133 303.024 21.9133 303.864 20.9C304.704 19.8733 305.85 19.36 307.304 19.36ZM307.304 20.76C306.29 20.76 305.537 21.12 305.044 21.84C304.564 22.56 304.324 23.6533 304.324 25.12C304.324 26.1067 304.43 26.9267 304.644 27.58C304.87 28.2333 305.204 28.72 305.644 29.04C306.084 29.36 306.624 29.52 307.264 29.52C307.917 29.52 308.464 29.3667 308.904 29.06C309.344 28.74 309.677 28.2533 309.904 27.6C310.13 26.9467 310.244 26.12 310.244 25.12C310.244 24.12 310.13 23.3 309.904 22.66C309.69 22.0067 309.364 21.5267 308.924 21.22C308.484 20.9133 307.944 20.76 307.304 20.76Z" fill="white"/>
</svg>
