<svg width="351" height="50" viewBox="0 0 351 50" fill="none" xmlns="http://www.w3.org/2000/svg">
<rect x="0.5" y="0.5" width="350" height="49" rx="24.5" fill="#1F1F1F"/>
<rect x="0.5" y="0.5" width="350" height="49" rx="24.5" stroke="#747775"/>
<path d="M51 22H21V17C21 14.2857 23.2018 12 25.8165 12H46.1835C48.7982 12 51 14.2857 51 17V22Z" fill="#34A853"/>
<path d="M51 26.0537H21V21.0537C21 18.3394 23.2018 16.0537 25.8165 16.0537H46.1835C48.7982 16.0537 51 18.3394 51 21.0537V26.0537Z" fill="#FBBC04"/>
<path d="M51 30.2468H21V25.2468C21 22.5325 23.2018 20.2468 25.8165 20.2468H46.1835C48.7982 20.2468 51 22.5325 51 25.2468V30.2468Z" fill="#EA4335"/>
<path d="M21 23.2752L40.0411 27.6789C42.2329 28.2294 44.6986 27.6789 46.4795 26.3028L51 23V33.3211C51 35.9358 48.8082 38 46.2055 38H25.7945C23.1918 38 21 35.9358 21 33.3211V23.2752Z" fill="#4285F4"/>
<path d="M76.4 32.32C75.3733 32.32 74.4067 32.1333 73.5 31.76C72.5933 31.3867 71.7933 30.8667 71.1 30.2C70.42 29.52 69.88 28.7267 69.48 27.82C69.0933 26.9 68.9 25.9067 68.9 24.84C68.9 23.7733 69.0933 22.7867 69.48 21.88C69.88 20.96 70.42 20.1667 71.1 19.5C71.7933 18.82 72.5933 18.2933 73.5 17.92C74.4067 17.5467 75.3733 17.36 76.4 17.36C77.4933 17.36 78.5 17.5533 79.42 17.94C80.3533 18.3267 81.1333 18.8667 81.76 19.56L80.24 21.06C79.9333 20.7133 79.58 20.42 79.18 20.18C78.7933 19.94 78.3667 19.76 77.9 19.64C77.4333 19.5067 76.9333 19.44 76.4 19.44C75.6933 19.44 75.02 19.5667 74.38 19.82C73.74 20.0733 73.1733 20.44 72.68 20.92C72.2 21.3867 71.82 21.9533 71.54 22.62C71.26 23.2733 71.12 24.0133 71.12 24.84C71.12 25.6667 71.26 26.4133 71.54 27.08C71.8333 27.7333 72.22 28.3 72.7 28.78C73.1933 29.2467 73.76 29.6067 74.4 29.86C75.04 30.1133 75.7133 30.24 76.42 30.24C77.0733 30.24 77.68 30.1467 78.24 29.96C78.8133 29.7733 79.3133 29.5067 79.74 29.16C80.1667 28.8133 80.5133 28.3933 80.78 27.9C81.0467 27.3933 81.2133 26.8267 81.28 26.2H76.38V24.26H83.34C83.3667 24.42 83.3933 24.6067 83.42 24.82C83.4467 25.02 83.46 25.2133 83.46 25.4V25.42C83.46 26.4467 83.28 27.3867 82.92 28.24C82.5733 29.0933 82.0867 29.8267 81.46 30.44C80.8333 31.04 80.0867 31.5067 79.22 31.84C78.3667 32.16 77.4267 32.32 76.4 32.32ZM89.8998 32.32C88.8465 32.32 87.9198 32.08 87.1198 31.6C86.3198 31.12 85.6932 30.4733 85.2398 29.66C84.7865 28.8333 84.5598 27.9133 84.5598 26.9C84.5598 25.8867 84.7865 24.9733 85.2398 24.16C85.6932 23.3333 86.3198 22.68 87.1198 22.2C87.9198 21.72 88.8465 21.48 89.8998 21.48C90.9398 21.48 91.8598 21.7267 92.6598 22.22C93.4598 22.7 94.0865 23.3467 94.5398 24.16C94.9932 24.9733 95.2198 25.8867 95.2198 26.9C95.2198 27.9133 94.9932 28.8333 94.5398 29.66C94.0865 30.4733 93.4598 31.12 92.6598 31.6C91.8598 32.08 90.9398 32.32 89.8998 32.32ZM89.8998 30.34C90.4598 30.34 90.9798 30.2067 91.4598 29.94C91.9398 29.66 92.3265 29.2667 92.6198 28.76C92.9265 28.24 93.0798 27.62 93.0798 26.9C93.0798 26.18 92.9265 25.5667 92.6198 25.06C92.3265 24.54 91.9398 24.1467 91.4598 23.88C90.9798 23.6 90.4598 23.46 89.8998 23.46C89.3398 23.46 88.8132 23.6 88.3198 23.88C87.8398 24.1467 87.4465 24.54 87.1398 25.06C86.8465 25.5667 86.6998 26.18 86.6998 26.9C86.6998 27.62 86.8465 28.24 87.1398 28.76C87.4465 29.2667 87.8465 29.66 88.3398 29.94C88.8332 30.2067 89.3532 30.34 89.8998 30.34ZM102.009 32.32C100.956 32.32 100.029 32.08 99.2292 31.6C98.4292 31.12 97.8026 30.4733 97.3492 29.66C96.8959 28.8333 96.6692 27.9133 96.6692 26.9C96.6692 25.8867 96.8959 24.9733 97.3492 24.16C97.8026 23.3333 98.4292 22.68 99.2292 22.2C100.029 21.72 100.956 21.48 102.009 21.48C103.049 21.48 103.969 21.7267 104.769 22.22C105.569 22.7 106.196 23.3467 106.649 24.16C107.103 24.9733 107.329 25.8867 107.329 26.9C107.329 27.9133 107.103 28.8333 106.649 29.66C106.196 30.4733 105.569 31.12 104.769 31.6C103.969 32.08 103.049 32.32 102.009 32.32ZM102.009 30.34C102.569 30.34 103.089 30.2067 103.569 29.94C104.049 29.66 104.436 29.2667 104.729 28.76C105.036 28.24 105.189 27.62 105.189 26.9C105.189 26.18 105.036 25.5667 104.729 25.06C104.436 24.54 104.049 24.1467 103.569 23.88C103.089 23.6 102.569 23.46 102.009 23.46C101.449 23.46 100.923 23.6 100.429 23.88C99.9492 24.1467 99.5559 24.54 99.2492 25.06C98.9559 25.5667 98.8092 26.18 98.8092 26.9C98.8092 27.62 98.9559 28.24 99.2492 28.76C99.5559 29.2667 99.9559 29.66 100.449 29.94C100.943 30.2067 101.463 30.34 102.009 30.34ZM113.919 36.64C113.025 36.64 112.252 36.4933 111.599 36.2C110.959 35.92 110.439 35.5533 110.039 35.1C109.639 34.66 109.352 34.2067 109.179 33.74L111.179 32.9C111.392 33.4333 111.732 33.8667 112.199 34.2C112.679 34.5467 113.252 34.72 113.919 34.72C114.865 34.72 115.605 34.44 116.139 33.88C116.672 33.32 116.939 32.5267 116.939 31.5V30.52H116.819C116.499 30.9867 116.059 31.3667 115.499 31.66C114.939 31.9533 114.292 32.1 113.559 32.1C112.692 32.1 111.892 31.88 111.159 31.44C110.439 31 109.859 30.3867 109.419 29.6C108.992 28.8 108.779 27.8667 108.779 26.8C108.779 25.72 108.992 24.7867 109.419 24C109.859 23.2 110.439 22.58 111.159 22.14C111.892 21.7 112.692 21.48 113.559 21.48C114.292 21.48 114.939 21.6267 115.499 21.92C116.059 22.2 116.499 22.5867 116.819 23.08H116.939V21.8H118.999V31.46C118.999 32.5667 118.779 33.5067 118.339 34.28C117.912 35.0533 117.319 35.64 116.559 36.04C115.799 36.44 114.919 36.64 113.919 36.64ZM113.939 30.14C114.472 30.14 114.965 30.0133 115.419 29.76C115.885 29.4933 116.252 29.1133 116.519 28.62C116.799 28.1133 116.939 27.5067 116.939 26.8C116.939 26.0533 116.799 25.4333 116.519 24.94C116.252 24.4467 115.885 24.0733 115.419 23.82C114.965 23.5667 114.472 23.44 113.939 23.44C113.405 23.44 112.905 23.5667 112.439 23.82C111.985 24.0733 111.619 24.4533 111.339 24.96C111.059 25.4533 110.919 26.0667 110.919 26.8C110.919 27.52 111.059 28.1333 111.339 28.64C111.619 29.1333 111.985 29.5067 112.439 29.76C112.905 30.0133 113.405 30.14 113.939 30.14ZM121.546 32V17.68H123.706V32H121.546ZM130.815 32.32C129.815 32.32 128.921 32.0867 128.135 31.62C127.348 31.1533 126.728 30.5133 126.275 29.7C125.835 28.8867 125.615 27.96 125.615 26.92C125.615 25.9467 125.828 25.0467 126.255 24.22C126.681 23.3933 127.275 22.7333 128.035 22.24C128.808 21.7333 129.695 21.48 130.695 21.48C131.748 21.48 132.641 21.7067 133.375 22.16C134.121 22.6133 134.688 23.2333 135.075 24.02C135.461 24.8067 135.655 25.6933 135.655 26.68C135.655 26.8267 135.648 26.96 135.635 27.08C135.635 27.2 135.628 27.2933 135.615 27.36H127.735C127.788 27.92 127.928 28.4067 128.155 28.82C128.448 29.34 128.835 29.7333 129.315 30C129.795 30.2667 130.315 30.4 130.875 30.4C131.555 30.4 132.121 30.2467 132.575 29.94C133.041 29.62 133.408 29.2267 133.675 28.76L135.455 29.62C135.015 30.42 134.415 31.0733 133.655 31.58C132.895 32.0733 131.948 32.32 130.815 32.32ZM127.855 25.74H133.515C133.501 25.4867 133.435 25.22 133.315 24.94C133.195 24.6467 133.021 24.38 132.795 24.14C132.568 23.9 132.281 23.7067 131.935 23.56C131.588 23.4 131.181 23.32 130.715 23.32C130.128 23.32 129.608 23.4733 129.155 23.78C128.701 24.0733 128.348 24.4867 128.095 25.02C127.988 25.2467 127.908 25.4867 127.855 25.74ZM144.446 32L140.606 17.68H143.046L145.326 26.98L145.566 28.22H145.686L145.986 26.98L148.866 17.68H151.066L153.826 26.98L154.126 28.2H154.246L154.486 26.98L156.766 17.68H159.186L155.406 32H153.086L150.346 22.5L150.026 21.16H149.906L149.566 22.5L146.706 32H144.446ZM163.202 32.32C162.469 32.32 161.816 32.1733 161.242 31.88C160.682 31.5867 160.236 31.1867 159.902 30.68C159.582 30.16 159.422 29.5667 159.422 28.9C159.422 28.1667 159.609 27.5467 159.982 27.04C160.369 26.5333 160.882 26.1467 161.522 25.88C162.162 25.6133 162.869 25.48 163.642 25.48C164.069 25.48 164.462 25.5133 164.822 25.58C165.196 25.6333 165.516 25.7 165.782 25.78C166.062 25.86 166.282 25.9467 166.442 26.04V25.5C166.442 24.8333 166.202 24.3 165.722 23.9C165.242 23.5 164.622 23.3 163.862 23.3C163.342 23.3 162.849 23.42 162.382 23.66C161.916 23.8867 161.542 24.2 161.262 24.6L159.782 23.46C160.076 23.0467 160.429 22.6933 160.842 22.4C161.269 22.1067 161.742 21.88 162.262 21.72C162.796 21.56 163.349 21.48 163.922 21.48C165.402 21.48 166.542 21.8467 167.342 22.58C168.142 23.3 168.542 24.3133 168.542 25.62V32H166.442V30.74H166.322C166.149 31.0067 165.909 31.26 165.602 31.5C165.309 31.74 164.956 31.9333 164.542 32.08C164.142 32.24 163.696 32.32 163.202 32.32ZM163.582 30.56C164.142 30.56 164.636 30.4267 165.062 30.16C165.502 29.8933 165.842 29.5467 166.082 29.12C166.322 28.68 166.442 28.2067 166.442 27.7C166.149 27.5267 165.789 27.3867 165.362 27.28C164.949 27.16 164.509 27.1 164.042 27.1C163.162 27.1 162.536 27.2733 162.162 27.62C161.789 27.9667 161.602 28.4 161.602 28.92C161.602 29.4 161.782 29.7933 162.142 30.1C162.502 30.4067 162.982 30.56 163.582 30.56ZM170.94 32V17.68H173.1V32H170.94ZM175.667 32V17.68H177.827V32H175.667ZM184.936 32.32C183.936 32.32 183.042 32.0867 182.256 31.62C181.469 31.1533 180.849 30.5133 180.396 29.7C179.956 28.8867 179.736 27.96 179.736 26.92C179.736 25.9467 179.949 25.0467 180.376 24.22C180.802 23.3933 181.396 22.7333 182.156 22.24C182.929 21.7333 183.816 21.48 184.816 21.48C185.869 21.48 186.762 21.7067 187.496 22.16C188.242 22.6133 188.809 23.2333 189.196 24.02C189.582 24.8067 189.776 25.6933 189.776 26.68C189.776 26.8267 189.769 26.96 189.756 27.08C189.756 27.2 189.749 27.2933 189.736 27.36H181.856C181.909 27.92 182.049 28.4067 182.276 28.82C182.569 29.34 182.956 29.7333 183.436 30C183.916 30.2667 184.436 30.4 184.996 30.4C185.676 30.4 186.242 30.2467 186.696 29.94C187.162 29.62 187.529 29.2267 187.796 28.76L189.576 29.62C189.136 30.42 188.536 31.0733 187.776 31.58C187.016 32.0733 186.069 32.32 184.936 32.32ZM181.976 25.74H187.636C187.622 25.4867 187.556 25.22 187.436 24.94C187.316 24.6467 187.142 24.38 186.916 24.14C186.689 23.9 186.402 23.7067 186.056 23.56C185.709 23.4 185.302 23.32 184.836 23.32C184.249 23.32 183.729 23.4733 183.276 23.78C182.822 24.0733 182.469 24.4867 182.216 25.02C182.109 25.2467 182.029 25.4867 181.976 25.74ZM190.787 21.8H192.567V18.92H194.727V21.8H197.227V23.68H194.727V28.58C194.727 29.0867 194.827 29.4733 195.027 29.74C195.24 30.0067 195.593 30.14 196.087 30.14C196.327 30.14 196.54 30.1067 196.727 30.04C196.913 29.96 197.1 29.8667 197.287 29.76V31.86C197.06 31.9533 196.82 32.0267 196.567 32.08C196.313 32.1333 196.013 32.16 195.667 32.16C194.72 32.16 193.967 31.8867 193.407 31.34C192.847 30.78 192.567 30.0133 192.567 29.04V23.68H190.787V21.8ZM203.187 35.04V30.12H204.307C204.52 29.8533 204.714 29.4867 204.887 29.02C205.06 28.5533 205.194 28.02 205.287 27.42C205.38 26.82 205.427 26.2133 205.427 25.6V21.8H213.067V30.12H214.547V35.04H212.567V32H205.187V35.04H203.187ZM206.627 30.12H210.927V23.68H207.467V25.78C207.467 26.3933 207.434 26.9533 207.367 27.46C207.314 27.9667 207.22 28.4267 207.087 28.84C206.967 29.2533 206.814 29.64 206.627 30V30.12ZM225.727 26.9C225.727 27.94 225.5 28.8733 225.047 29.7C224.607 30.5133 223.994 31.1533 223.207 31.62C222.42 32.0867 221.514 32.32 220.487 32.32C219.3 32.32 218.314 32.0533 217.527 31.52C216.754 30.9867 216.18 30.3133 215.807 29.5L217.727 28.66C217.967 29.22 218.32 29.6533 218.787 29.96C219.267 30.2667 219.854 30.42 220.547 30.42C221.04 30.42 221.527 30.3 222.007 30.06C222.487 29.8067 222.887 29.4133 223.207 28.88C223.407 28.5333 223.54 28.1267 223.607 27.66H219.267V26.04H223.607C223.54 25.5867 223.407 25.2 223.207 24.88C222.9 24.3733 222.507 24.0067 222.027 23.78C221.56 23.54 221.08 23.42 220.587 23.42C219.934 23.42 219.367 23.5667 218.887 23.86C218.42 24.14 218.054 24.5467 217.787 25.08L215.847 24.28C216.274 23.4267 216.86 22.7467 217.607 22.24C218.367 21.7333 219.34 21.48 220.527 21.48C221.54 21.48 222.44 21.72 223.227 22.2C224.014 22.6667 224.627 23.3067 225.067 24.12C225.507 24.9333 225.727 25.86 225.727 26.9ZM236.958 26.9C236.958 27.94 236.731 28.8733 236.278 29.7C235.838 30.5133 235.224 31.1533 234.438 31.62C233.651 32.0867 232.744 32.32 231.717 32.32C230.531 32.32 229.544 32.0533 228.758 31.52C227.984 30.9867 227.411 30.3133 227.038 29.5L228.958 28.66C229.198 29.22 229.551 29.6533 230.018 29.96C230.498 30.2667 231.084 30.42 231.778 30.42C232.271 30.42 232.758 30.3 233.238 30.06C233.718 29.8067 234.118 29.4133 234.438 28.88C234.638 28.5333 234.771 28.1267 234.838 27.66H230.498V26.04H234.838C234.771 25.5867 234.638 25.2 234.438 24.88C234.131 24.3733 233.738 24.0067 233.258 23.78C232.791 23.54 232.311 23.42 231.818 23.42C231.164 23.42 230.598 23.5667 230.118 23.86C229.651 24.14 229.284 24.5467 229.018 25.08L227.078 24.28C227.504 23.4267 228.091 22.7467 228.838 22.24C229.598 21.7333 230.571 21.48 231.758 21.48C232.771 21.48 233.671 21.72 234.458 22.2C235.244 22.6667 235.858 23.3067 236.298 24.12C236.738 24.9333 236.958 25.86 236.958 26.9ZM238.81 36.32V21.8H240.83V23.18H240.95C241.137 22.8867 241.384 22.6133 241.69 22.36C242.01 22.0933 242.384 21.88 242.81 21.72C243.237 21.56 243.71 21.48 244.23 21.48C245.164 21.48 245.997 21.7133 246.73 22.18C247.464 22.6467 248.044 23.2867 248.47 24.1C248.91 24.9133 249.13 25.8467 249.13 26.9C249.13 27.9533 248.91 28.8867 248.47 29.7C248.044 30.5133 247.464 31.1533 246.73 31.62C245.997 32.0867 245.164 32.32 244.23 32.32C243.457 32.32 242.784 32.1467 242.21 31.8C241.637 31.4533 241.217 31.0667 240.95 30.64H240.83L240.95 32.06V36.32H238.81ZM243.91 30.34C244.444 30.34 244.944 30.2 245.41 29.92C245.89 29.64 246.27 29.24 246.55 28.72C246.844 28.2 246.99 27.5933 246.99 26.9C246.99 26.1933 246.844 25.5867 246.55 25.08C246.27 24.56 245.89 24.16 245.41 23.88C244.944 23.6 244.444 23.46 243.91 23.46C243.377 23.46 242.877 23.6 242.41 23.88C241.944 24.16 241.564 24.56 241.27 25.08C240.977 25.5867 240.83 26.1933 240.83 26.9C240.83 27.6067 240.977 28.22 241.27 28.74C241.564 29.2467 241.944 29.64 242.41 29.92C242.877 30.2 243.377 30.34 243.91 30.34ZM260.336 26.9C260.336 27.94 260.11 28.8733 259.656 29.7C259.216 30.5133 258.603 31.1533 257.816 31.62C257.03 32.0867 256.123 32.32 255.096 32.32C253.91 32.32 252.923 32.0533 252.136 31.52C251.363 30.9867 250.79 30.3133 250.416 29.5L252.336 28.66C252.576 29.22 252.93 29.6533 253.396 29.96C253.876 30.2667 254.463 30.42 255.156 30.42C255.65 30.42 256.136 30.3 256.616 30.06C257.096 29.8067 257.496 29.4133 257.816 28.88C258.016 28.5333 258.15 28.1267 258.216 27.66H253.876V26.04H258.216C258.15 25.5867 258.016 25.2 257.816 24.88C257.51 24.3733 257.116 24.0067 256.636 23.78C256.17 23.54 255.69 23.42 255.196 23.42C254.543 23.42 253.976 23.5667 253.496 23.86C253.03 24.14 252.663 24.5467 252.396 25.08L250.456 24.28C250.883 23.4267 251.47 22.7467 252.216 22.24C252.976 21.7333 253.95 21.48 255.136 21.48C256.15 21.48 257.05 21.72 257.836 22.2C258.623 22.6667 259.236 23.3067 259.676 24.12C260.116 24.9333 260.336 25.86 260.336 26.9ZM271.567 26.9C271.567 27.94 271.34 28.8733 270.887 29.7C270.447 30.5133 269.834 31.1533 269.047 31.62C268.26 32.0867 267.354 32.32 266.327 32.32C265.14 32.32 264.154 32.0533 263.367 31.52C262.594 30.9867 262.02 30.3133 261.647 29.5L263.567 28.66C263.807 29.22 264.16 29.6533 264.627 29.96C265.107 30.2667 265.694 30.42 266.387 30.42C266.88 30.42 267.367 30.3 267.847 30.06C268.327 29.8067 268.727 29.4133 269.047 28.88C269.247 28.5333 269.38 28.1267 269.447 27.66H265.107V26.04H269.447C269.38 25.5867 269.247 25.2 269.047 24.88C268.74 24.3733 268.347 24.0067 267.867 23.78C267.4 23.54 266.92 23.42 266.427 23.42C265.774 23.42 265.207 23.5667 264.727 23.86C264.26 24.14 263.894 24.5467 263.627 25.08L261.687 24.28C262.114 23.4267 262.7 22.7467 263.447 22.24C264.207 21.7333 265.18 21.48 266.367 21.48C267.38 21.48 268.28 21.72 269.067 22.2C269.854 22.6667 270.467 23.3067 270.907 24.12C271.347 24.9333 271.567 25.86 271.567 26.9ZM278.257 32.32C277.231 32.32 276.317 32.0867 275.517 31.62C274.731 31.1533 274.111 30.5133 273.657 29.7C273.217 28.8733 272.997 27.94 272.997 26.9C272.997 25.86 273.217 24.9333 273.657 24.12C274.111 23.3067 274.731 22.6667 275.517 22.2C276.317 21.72 277.231 21.48 278.257 21.48C279.391 21.48 280.344 21.7333 281.117 22.24C281.904 22.7467 282.464 23.4333 282.797 24.3L280.837 25.1C280.597 24.5533 280.251 24.1467 279.797 23.88C279.357 23.6 278.831 23.46 278.217 23.46C277.657 23.46 277.144 23.6067 276.677 23.9C276.211 24.18 275.837 24.5733 275.557 25.08C275.277 25.5867 275.137 26.1933 275.137 26.9C275.137 27.5933 275.277 28.2 275.557 28.72C275.837 29.24 276.211 29.64 276.677 29.92C277.144 30.2 277.657 30.34 278.217 30.34C278.871 30.34 279.424 30.1933 279.877 29.9C280.331 29.6067 280.684 29.1933 280.937 28.66L282.857 29.5C282.484 30.3133 281.904 30.9867 281.117 31.52C280.344 32.0533 279.391 32.32 278.257 32.32ZM292.377 36.32V32L288.257 21.8H290.637L293.477 29.42H293.497L296.377 21.8H298.717L294.537 32V36.32H292.377ZM303.662 32.32C303.115 32.32 302.555 32.2533 301.982 32.12C301.422 31.9867 300.902 31.76 300.422 31.44C299.942 31.1067 299.535 30.6467 299.202 30.06L300.922 29.06C301.295 29.58 301.722 29.94 302.202 30.14C302.695 30.3267 303.182 30.42 303.662 30.42C304.355 30.42 304.882 30.2867 305.242 30.02C305.602 29.7533 305.782 29.4067 305.782 28.98C305.782 28.6067 305.615 28.3067 305.282 28.08C304.962 27.84 304.508 27.72 303.922 27.72H302.262V26.02H303.922C304.428 26.02 304.815 25.9 305.082 25.66C305.362 25.42 305.502 25.1133 305.502 24.74C305.502 24.3 305.315 23.9533 304.942 23.7C304.568 23.4333 304.095 23.3 303.522 23.3C303.015 23.3 302.528 23.4067 302.062 23.62C301.595 23.82 301.242 24.0933 301.002 24.44L299.402 23.38C299.708 22.98 300.075 22.64 300.502 22.36C300.928 22.08 301.395 21.8667 301.902 21.72C302.422 21.56 302.968 21.48 303.542 21.48C304.302 21.48 304.982 21.6067 305.582 21.86C306.182 22.1133 306.655 22.4667 307.002 22.92C307.362 23.36 307.542 23.8733 307.542 24.46C307.542 24.9667 307.415 25.42 307.162 25.82C306.908 26.22 306.575 26.5133 306.162 26.7V26.82C306.682 27.0333 307.102 27.3533 307.422 27.78C307.742 28.2067 307.902 28.6933 307.902 29.24C307.902 29.84 307.722 30.3733 307.362 30.84C307.015 31.3067 306.522 31.6733 305.882 31.94C305.255 32.1933 304.515 32.32 303.662 32.32ZM319.028 26.9C319.028 27.94 318.801 28.8733 318.348 29.7C317.908 30.5133 317.294 31.1533 316.508 31.62C315.721 32.0867 314.814 32.32 313.788 32.32C312.601 32.32 311.614 32.0533 310.828 31.52C310.054 30.9867 309.481 30.3133 309.108 29.5L311.028 28.66C311.268 29.22 311.621 29.6533 312.088 29.96C312.568 30.2667 313.154 30.42 313.848 30.42C314.341 30.42 314.828 30.3 315.308 30.06C315.788 29.8067 316.188 29.4133 316.508 28.88C316.708 28.5333 316.841 28.1267 316.908 27.66H312.568V26.04H316.908C316.841 25.5867 316.708 25.2 316.508 24.88C316.201 24.3733 315.808 24.0067 315.328 23.78C314.861 23.54 314.381 23.42 313.888 23.42C313.234 23.42 312.668 23.5667 312.188 23.86C311.721 24.14 311.354 24.5467 311.088 25.08L309.148 24.28C309.574 23.4267 310.161 22.7467 310.908 22.24C311.668 21.7333 312.641 21.48 313.828 21.48C314.841 21.48 315.741 21.72 316.528 22.2C317.314 22.6667 317.928 23.3067 318.368 24.12C318.808 24.9333 319.028 25.86 319.028 26.9ZM319.705 32L323.285 26.82L319.765 21.8H322.265L324.585 25.2L326.785 21.8H329.385L325.805 26.82L329.405 32H326.885L324.545 28.5L322.245 32H319.705Z" fill="white"/>
</svg>
