<svg width="286" height="50" viewBox="0 0 286 50" fill="none" xmlns="http://www.w3.org/2000/svg">
<rect x="0.5" y="0.5" width="285" height="49" rx="24.5" fill="#1F1F1F"/>
<rect x="0.5" y="0.5" width="285" height="49" rx="24.5" stroke="#747775"/>
<path d="M51 22H21V17C21 14.2857 23.2018 12 25.8165 12H46.1835C48.7982 12 51 14.2857 51 17V22Z" fill="#34A853"/>
<path d="M51 26.0537H21V21.0537C21 18.3394 23.2018 16.0537 25.8165 16.0537H46.1835C48.7982 16.0537 51 18.3394 51 21.0537V26.0537Z" fill="#FBBC04"/>
<path d="M51 30.2468H21V25.2468C21 22.5325 23.2018 20.2468 25.8165 20.2468H46.1835C48.7982 20.2468 51 22.5325 51 25.2468V30.2468Z" fill="#EA4335"/>
<path d="M21 23.2752L40.0411 27.6789C42.2329 28.2294 44.6986 27.6789 46.4795 26.3028L51 23V33.3211C51 35.9358 48.8082 38 46.2055 38H25.7945C23.1918 38 21 35.9358 21 33.3211V23.2752Z" fill="#4285F4"/>
<path d="M71.4 32.32C70.3733 32.32 69.4067 32.1333 68.5 31.76C67.5933 31.3867 66.7933 30.8667 66.1 30.2C65.42 29.52 64.88 28.7267 64.48 27.82C64.0933 26.9 63.9 25.9067 63.9 24.84C63.9 23.7733 64.0933 22.7867 64.48 21.88C64.88 20.96 65.42 20.1667 66.1 19.5C66.7933 18.82 67.5933 18.2933 68.5 17.92C69.4067 17.5467 70.3733 17.36 71.4 17.36C72.4933 17.36 73.5 17.5533 74.42 17.94C75.3533 18.3267 76.1333 18.8667 76.76 19.56L75.24 21.06C74.9333 20.7133 74.58 20.42 74.18 20.18C73.7933 19.94 73.3667 19.76 72.9 19.64C72.4333 19.5067 71.9333 19.44 71.4 19.44C70.6933 19.44 70.02 19.5667 69.38 19.82C68.74 20.0733 68.1733 20.44 67.68 20.92C67.2 21.3867 66.82 21.9533 66.54 22.62C66.26 23.2733 66.12 24.0133 66.12 24.84C66.12 25.6667 66.26 26.4133 66.54 27.08C66.8333 27.7333 67.22 28.3 67.7 28.78C68.1933 29.2467 68.76 29.6067 69.4 29.86C70.04 30.1133 70.7133 30.24 71.42 30.24C72.0733 30.24 72.68 30.1467 73.24 29.96C73.8133 29.7733 74.3133 29.5067 74.74 29.16C75.1667 28.8133 75.5133 28.3933 75.78 27.9C76.0467 27.3933 76.2133 26.8267 76.28 26.2H71.38V24.26H78.34C78.3667 24.42 78.3933 24.6067 78.42 24.82C78.4467 25.02 78.46 25.2133 78.46 25.4V25.42C78.46 26.4467 78.28 27.3867 77.92 28.24C77.5733 29.0933 77.0867 29.8267 76.46 30.44C75.8333 31.04 75.0867 31.5067 74.22 31.84C73.3667 32.16 72.4267 32.32 71.4 32.32ZM84.8998 32.32C83.8465 32.32 82.9198 32.08 82.1198 31.6C81.3198 31.12 80.6932 30.4733 80.2398 29.66C79.7865 28.8333 79.5598 27.9133 79.5598 26.9C79.5598 25.8867 79.7865 24.9733 80.2398 24.16C80.6932 23.3333 81.3198 22.68 82.1198 22.2C82.9198 21.72 83.8465 21.48 84.8998 21.48C85.9398 21.48 86.8598 21.7267 87.6598 22.22C88.4598 22.7 89.0865 23.3467 89.5398 24.16C89.9932 24.9733 90.2198 25.8867 90.2198 26.9C90.2198 27.9133 89.9932 28.8333 89.5398 29.66C89.0865 30.4733 88.4598 31.12 87.6598 31.6C86.8598 32.08 85.9398 32.32 84.8998 32.32ZM84.8998 30.34C85.4598 30.34 85.9798 30.2067 86.4598 29.94C86.9398 29.66 87.3265 29.2667 87.6198 28.76C87.9265 28.24 88.0798 27.62 88.0798 26.9C88.0798 26.18 87.9265 25.5667 87.6198 25.06C87.3265 24.54 86.9398 24.1467 86.4598 23.88C85.9798 23.6 85.4598 23.46 84.8998 23.46C84.3398 23.46 83.8132 23.6 83.3198 23.88C82.8398 24.1467 82.4465 24.54 82.1398 25.06C81.8465 25.5667 81.6998 26.18 81.6998 26.9C81.6998 27.62 81.8465 28.24 82.1398 28.76C82.4465 29.2667 82.8465 29.66 83.3398 29.94C83.8332 30.2067 84.3532 30.34 84.8998 30.34ZM97.0092 32.32C95.9559 32.32 95.0292 32.08 94.2292 31.6C93.4292 31.12 92.8026 30.4733 92.3492 29.66C91.8959 28.8333 91.6692 27.9133 91.6692 26.9C91.6692 25.8867 91.8959 24.9733 92.3492 24.16C92.8026 23.3333 93.4292 22.68 94.2292 22.2C95.0292 21.72 95.9559 21.48 97.0092 21.48C98.0492 21.48 98.9692 21.7267 99.7692 22.22C100.569 22.7 101.196 23.3467 101.649 24.16C102.103 24.9733 102.329 25.8867 102.329 26.9C102.329 27.9133 102.103 28.8333 101.649 29.66C101.196 30.4733 100.569 31.12 99.7692 31.6C98.9692 32.08 98.0492 32.32 97.0092 32.32ZM97.0092 30.34C97.5692 30.34 98.0892 30.2067 98.5692 29.94C99.0492 29.66 99.4359 29.2667 99.7292 28.76C100.036 28.24 100.189 27.62 100.189 26.9C100.189 26.18 100.036 25.5667 99.7292 25.06C99.4359 24.54 99.0492 24.1467 98.5692 23.88C98.0892 23.6 97.5692 23.46 97.0092 23.46C96.4492 23.46 95.9226 23.6 95.4292 23.88C94.9492 24.1467 94.5559 24.54 94.2492 25.06C93.9559 25.5667 93.8092 26.18 93.8092 26.9C93.8092 27.62 93.9559 28.24 94.2492 28.76C94.5559 29.2667 94.9559 29.66 95.4492 29.94C95.9426 30.2067 96.4626 30.34 97.0092 30.34ZM108.919 36.64C108.025 36.64 107.252 36.4933 106.599 36.2C105.959 35.92 105.439 35.5533 105.039 35.1C104.639 34.66 104.352 34.2067 104.179 33.74L106.179 32.9C106.392 33.4333 106.732 33.8667 107.199 34.2C107.679 34.5467 108.252 34.72 108.919 34.72C109.865 34.72 110.605 34.44 111.139 33.88C111.672 33.32 111.939 32.5267 111.939 31.5V30.52H111.819C111.499 30.9867 111.059 31.3667 110.499 31.66C109.939 31.9533 109.292 32.1 108.559 32.1C107.692 32.1 106.892 31.88 106.159 31.44C105.439 31 104.859 30.3867 104.419 29.6C103.992 28.8 103.779 27.8667 103.779 26.8C103.779 25.72 103.992 24.7867 104.419 24C104.859 23.2 105.439 22.58 106.159 22.14C106.892 21.7 107.692 21.48 108.559 21.48C109.292 21.48 109.939 21.6267 110.499 21.92C111.059 22.2 111.499 22.5867 111.819 23.08H111.939V21.8H113.999V31.46C113.999 32.5667 113.779 33.5067 113.339 34.28C112.912 35.0533 112.319 35.64 111.559 36.04C110.799 36.44 109.919 36.64 108.919 36.64ZM108.939 30.14C109.472 30.14 109.965 30.0133 110.419 29.76C110.885 29.4933 111.252 29.1133 111.519 28.62C111.799 28.1133 111.939 27.5067 111.939 26.8C111.939 26.0533 111.799 25.4333 111.519 24.94C111.252 24.4467 110.885 24.0733 110.419 23.82C109.965 23.5667 109.472 23.44 108.939 23.44C108.405 23.44 107.905 23.5667 107.439 23.82C106.985 24.0733 106.619 24.4533 106.339 24.96C106.059 25.4533 105.919 26.0667 105.919 26.8C105.919 27.52 106.059 28.1333 106.339 28.64C106.619 29.1333 106.985 29.5067 107.439 29.76C107.905 30.0133 108.405 30.14 108.939 30.14ZM116.546 32V17.68H118.706V32H116.546ZM125.815 32.32C124.815 32.32 123.921 32.0867 123.135 31.62C122.348 31.1533 121.728 30.5133 121.275 29.7C120.835 28.8867 120.615 27.96 120.615 26.92C120.615 25.9467 120.828 25.0467 121.255 24.22C121.681 23.3933 122.275 22.7333 123.035 22.24C123.808 21.7333 124.695 21.48 125.695 21.48C126.748 21.48 127.641 21.7067 128.375 22.16C129.121 22.6133 129.688 23.2333 130.075 24.02C130.461 24.8067 130.655 25.6933 130.655 26.68C130.655 26.8267 130.648 26.96 130.635 27.08C130.635 27.2 130.628 27.2933 130.615 27.36H122.735C122.788 27.92 122.928 28.4067 123.155 28.82C123.448 29.34 123.835 29.7333 124.315 30C124.795 30.2667 125.315 30.4 125.875 30.4C126.555 30.4 127.121 30.2467 127.575 29.94C128.041 29.62 128.408 29.2267 128.675 28.76L130.455 29.62C130.015 30.42 129.415 31.0733 128.655 31.58C127.895 32.0733 126.948 32.32 125.815 32.32ZM122.855 25.74H128.515C128.501 25.4867 128.435 25.22 128.315 24.94C128.195 24.6467 128.021 24.38 127.795 24.14C127.568 23.9 127.281 23.7067 126.935 23.56C126.588 23.4 126.181 23.32 125.715 23.32C125.128 23.32 124.608 23.4733 124.155 23.78C123.701 24.0733 123.348 24.4867 123.095 25.02C122.988 25.2467 122.908 25.4867 122.855 25.74ZM139.446 32L135.606 17.68H138.046L140.326 26.98L140.566 28.22H140.686L140.986 26.98L143.866 17.68H146.066L148.826 26.98L149.126 28.2H149.246L149.486 26.98L151.766 17.68H154.186L150.406 32H148.086L145.346 22.5L145.026 21.16H144.906L144.566 22.5L141.706 32H139.446ZM158.202 32.32C157.469 32.32 156.816 32.1733 156.242 31.88C155.682 31.5867 155.236 31.1867 154.902 30.68C154.582 30.16 154.422 29.5667 154.422 28.9C154.422 28.1667 154.609 27.5467 154.982 27.04C155.369 26.5333 155.882 26.1467 156.522 25.88C157.162 25.6133 157.869 25.48 158.642 25.48C159.069 25.48 159.462 25.5133 159.822 25.58C160.196 25.6333 160.516 25.7 160.782 25.78C161.062 25.86 161.282 25.9467 161.442 26.04V25.5C161.442 24.8333 161.202 24.3 160.722 23.9C160.242 23.5 159.622 23.3 158.862 23.3C158.342 23.3 157.849 23.42 157.382 23.66C156.916 23.8867 156.542 24.2 156.262 24.6L154.782 23.46C155.076 23.0467 155.429 22.6933 155.842 22.4C156.269 22.1067 156.742 21.88 157.262 21.72C157.796 21.56 158.349 21.48 158.922 21.48C160.402 21.48 161.542 21.8467 162.342 22.58C163.142 23.3 163.542 24.3133 163.542 25.62V32H161.442V30.74H161.322C161.149 31.0067 160.909 31.26 160.602 31.5C160.309 31.74 159.956 31.9333 159.542 32.08C159.142 32.24 158.696 32.32 158.202 32.32ZM158.582 30.56C159.142 30.56 159.636 30.4267 160.062 30.16C160.502 29.8933 160.842 29.5467 161.082 29.12C161.322 28.68 161.442 28.2067 161.442 27.7C161.149 27.5267 160.789 27.3867 160.362 27.28C159.949 27.16 159.509 27.1 159.042 27.1C158.162 27.1 157.536 27.2733 157.162 27.62C156.789 27.9667 156.602 28.4 156.602 28.92C156.602 29.4 156.782 29.7933 157.142 30.1C157.502 30.4067 157.982 30.56 158.582 30.56ZM165.94 32V17.68H168.1V32H165.94ZM170.667 32V17.68H172.827V32H170.667ZM179.936 32.32C178.936 32.32 178.042 32.0867 177.256 31.62C176.469 31.1533 175.849 30.5133 175.396 29.7C174.956 28.8867 174.736 27.96 174.736 26.92C174.736 25.9467 174.949 25.0467 175.376 24.22C175.802 23.3933 176.396 22.7333 177.156 22.24C177.929 21.7333 178.816 21.48 179.816 21.48C180.869 21.48 181.762 21.7067 182.496 22.16C183.242 22.6133 183.809 23.2333 184.196 24.02C184.582 24.8067 184.776 25.6933 184.776 26.68C184.776 26.8267 184.769 26.96 184.756 27.08C184.756 27.2 184.749 27.2933 184.736 27.36H176.856C176.909 27.92 177.049 28.4067 177.276 28.82C177.569 29.34 177.956 29.7333 178.436 30C178.916 30.2667 179.436 30.4 179.996 30.4C180.676 30.4 181.242 30.2467 181.696 29.94C182.162 29.62 182.529 29.2267 182.796 28.76L184.576 29.62C184.136 30.42 183.536 31.0733 182.776 31.58C182.016 32.0733 181.069 32.32 179.936 32.32ZM176.976 25.74H182.636C182.622 25.4867 182.556 25.22 182.436 24.94C182.316 24.6467 182.142 24.38 181.916 24.14C181.689 23.9 181.402 23.7067 181.056 23.56C180.709 23.4 180.302 23.32 179.836 23.32C179.249 23.32 178.729 23.4733 178.276 23.78C177.822 24.0733 177.469 24.4867 177.216 25.02C177.109 25.2467 177.029 25.4867 176.976 25.74ZM185.787 21.8H187.567V18.92H189.727V21.8H192.227V23.68H189.727V28.58C189.727 29.0867 189.827 29.4733 190.027 29.74C190.24 30.0067 190.593 30.14 191.087 30.14C191.327 30.14 191.54 30.1067 191.727 30.04C191.913 29.96 192.1 29.8667 192.287 29.76V31.86C192.06 31.9533 191.82 32.0267 191.567 32.08C191.313 32.1333 191.013 32.16 190.667 32.16C189.72 32.16 188.967 31.8867 188.407 31.34C187.847 30.78 187.567 30.0133 187.567 29.04V23.68H185.787V21.8Z" fill="white"/>
<path d="M202.62 29.18C202.34 29.18 202.04 29.0933 201.72 28.92C201.413 28.7333 201.12 28.4933 200.84 28.2C200.56 27.9067 200.333 27.6 200.16 27.28C199.987 26.9467 199.9 26.6267 199.9 26.32C199.9 25.96 200.007 25.6867 200.22 25.5C200.447 25.3133 200.733 25.22 201.08 25.22H201.58V20.34H198.6V18.7H211.78V20.34H209.98V32H207.98V26.98H203.56V28.16C203.56 28.4667 203.473 28.7133 203.3 28.9C203.14 29.0867 202.913 29.18 202.62 29.18ZM207.98 25.22V20.34H203.56V25.22H207.98ZM217.383 30.12C216.476 30.12 215.676 29.9667 214.983 29.66C214.289 29.3533 213.743 28.9267 213.343 28.38C212.956 27.8333 212.763 27.2133 212.763 26.52C212.763 25.9867 212.869 25.5067 213.083 25.08C213.296 24.6533 213.603 24.3 214.003 24.02V23.92C213.469 23.64 213.063 23.2933 212.783 22.88C212.503 22.4533 212.363 21.96 212.363 21.4C212.363 20.4933 212.683 19.7667 213.323 19.22C213.976 18.6733 214.823 18.4 215.863 18.4C216.289 18.4 216.683 18.44 217.043 18.52C217.403 18.5867 217.749 18.7 218.083 18.86L217.303 20.56C217.089 20.4533 216.876 20.3733 216.663 20.32C216.449 20.2667 216.209 20.24 215.943 20.24C215.476 20.24 215.103 20.3733 214.823 20.64C214.556 20.8933 214.423 21.2333 214.423 21.66C214.423 22.1133 214.596 22.4733 214.943 22.74C215.289 23.0067 215.756 23.14 216.343 23.14H218.223V24.9H216.803C216.176 24.9 215.689 25.0467 215.343 25.34C214.996 25.6333 214.823 26.0333 214.823 26.54C214.823 27.0733 215.043 27.4933 215.483 27.8C215.936 28.1067 216.549 28.26 217.323 28.26C217.883 28.26 218.383 28.18 218.823 28.02C219.276 27.86 219.703 27.6067 220.103 27.26C220.503 26.9133 220.889 26.4667 221.263 25.92L222.763 27.1C222.056 28.1133 221.263 28.8733 220.383 29.38C219.503 29.8733 218.503 30.12 217.383 30.12ZM228.305 32V30.6L228.385 29.18H228.285C227.925 29.4467 227.505 29.6467 227.025 29.78C226.545 29.9133 226.018 29.98 225.445 29.98C224.498 29.98 223.658 29.78 222.925 29.38C222.191 28.98 221.611 28.42 221.185 27.7C220.771 26.98 220.565 26.1533 220.565 25.22V24.34L221.345 24.24C222.065 24.1467 222.625 23.92 223.025 23.56C223.438 23.1867 223.645 22.7133 223.645 22.14C223.645 21.54 223.485 20.94 223.165 20.34H219.245V18.7H232.105V20.34H230.305V32H228.305ZM228.305 20.34H226.545L225.045 20.24V20.34C225.205 20.7133 225.331 21.1 225.425 21.5C225.518 21.9 225.565 22.2733 225.565 22.62C225.565 23.58 225.245 24.3667 224.605 24.98C224.085 25.4733 223.385 25.82 222.505 26.02C222.598 26.5933 222.851 27.06 223.265 27.42C223.785 27.8867 224.505 28.12 225.425 28.12C226.318 28.12 227.018 27.88 227.525 27.4C228.045 26.92 228.305 26.26 228.305 25.42V20.34ZM228.25 18.94L227.23 16.78C226.977 16.26 226.73 15.8533 226.49 15.56C226.25 15.2667 225.977 15.06 225.67 14.94C225.363 14.8067 224.99 14.74 224.55 14.74H223.49V12.86H224.47C224.99 12.86 225.45 12.9133 225.85 13.02C226.25 13.1267 226.617 13.3067 226.95 13.56C227.297 13.8 227.61 14.12 227.89 14.52C228.183 14.92 228.477 15.4133 228.77 16L230.21 18.94H228.25ZM244.583 32V29.62L244.663 28.18H244.543C244.25 28.38 243.917 28.5333 243.543 28.64C243.183 28.7467 242.763 28.8 242.283 28.8C241.403 28.8 240.637 28.6133 239.983 28.24C239.33 27.8667 238.823 27.3467 238.463 26.68C238.103 26.0133 237.923 25.2333 237.923 24.34V20.34H235.963V18.7H248.383V20.34H246.583V32H244.583ZM239.923 20.34V24.48C239.923 25.2533 240.123 25.86 240.523 26.3C240.937 26.7267 241.51 26.94 242.243 26.94C242.99 26.94 243.563 26.7267 243.963 26.3C244.377 25.86 244.583 25.2533 244.583 24.48V20.34H239.923ZM255.084 35.5C253.991 35.1667 253.031 34.72 252.204 34.16C251.391 33.6133 250.758 32.98 250.304 32.26C249.851 31.54 249.624 30.7533 249.624 29.9C249.624 28.7 250.058 27.7133 250.924 26.94V26.84C250.391 26.6133 249.971 26.2933 249.664 25.88C249.371 25.4533 249.224 24.9733 249.224 24.44C249.224 23.6533 249.498 23.0333 250.044 22.58C250.604 22.1133 251.358 21.88 252.304 21.88H255.644V20.34H247.584V18.7H259.584V20.34H257.564V23.6H252.524C252.124 23.6 251.804 23.7 251.564 23.9C251.338 24.0867 251.224 24.34 251.224 24.66C251.224 24.9933 251.338 25.2533 251.564 25.44C251.804 25.6133 252.124 25.7 252.524 25.7H253.924C254.831 25.7 255.618 25.86 256.284 26.18C256.964 26.4867 257.484 26.92 257.844 27.48C258.218 28.0267 258.404 28.68 258.404 29.44C258.404 30.5333 257.998 31.5067 257.184 32.36L255.624 31.14C255.864 30.8867 256.051 30.6267 256.184 30.36C256.318 30.08 256.384 29.7867 256.384 29.48C256.384 28.9067 256.178 28.4467 255.764 28.1C255.351 27.74 254.798 27.56 254.104 27.56C253.344 27.56 252.744 27.7733 252.304 28.2C251.864 28.6267 251.644 29.2 251.644 29.92C251.644 30.8267 252.011 31.5933 252.744 32.22C253.478 32.86 254.478 33.36 255.744 33.72L255.084 35.5ZM261.076 32V20.34H258.776V18.7H264.876V20.34H263.076V32H261.076Z" fill="white"/>
</svg>
