<svg width="327" height="50" viewBox="0 0 327 50" fill="none" xmlns="http://www.w3.org/2000/svg">
<rect x="0.5" y="0.5" width="326" height="49" rx="24.5" fill="#1F1F1F"/>
<rect x="0.5" y="0.5" width="326" height="49" rx="24.5" stroke="#747775"/>
<path d="M51 22H21V17C21 14.2857 23.2018 12 25.8165 12H46.1835C48.7982 12 51 14.2857 51 17V22Z" fill="#34A853"/>
<path d="M51 26.0537H21V21.0537C21 18.3394 23.2018 16.0537 25.8165 16.0537H46.1835C48.7982 16.0537 51 18.3394 51 21.0537V26.0537Z" fill="#FBBC04"/>
<path d="M51 30.2468H21V25.2468C21 22.5325 23.2018 20.2468 25.8165 20.2468H46.1835C48.7982 20.2468 51 22.5325 51 25.2468V30.2468Z" fill="#EA4335"/>
<path d="M21 23.2752L40.0411 27.6789C42.2329 28.2294 44.6986 27.6789 46.4795 26.3028L51 23V33.3211C51 35.9358 48.8082 38 46.2055 38H25.7945C23.1918 38 21 35.9358 21 33.3211V23.2752Z" fill="#4285F4"/>
<path d="M64.62 32V17.68H66.82V29.92H72.98V32H64.62ZM75.0255 32V21.8H77.1855V32H75.0255ZM76.1055 20.3C75.7055 20.3 75.3588 20.16 75.0655 19.88C74.7855 19.5867 74.6455 19.24 74.6455 18.84C74.6455 18.4267 74.7855 18.0867 75.0655 17.82C75.3588 17.54 75.7055 17.4 76.1055 17.4C76.5188 17.4 76.8655 17.54 77.1455 17.82C77.4255 18.0867 77.5655 18.4267 77.5655 18.84C77.5655 19.24 77.4255 19.5867 77.1455 19.88C76.8655 20.16 76.5188 20.3 76.1055 20.3ZM79.8655 32V17.68H82.0255V21.6L81.9055 23.2H82.0255C82.3055 22.7067 82.7321 22.3 83.3055 21.98C83.8921 21.6467 84.5388 21.48 85.2455 21.48C86.0988 21.48 86.8055 21.6533 87.3655 22C87.9388 22.3467 88.3655 22.8267 88.6455 23.44C88.9255 24.04 89.0655 24.7467 89.0655 25.56V32H86.9255V25.84C86.9255 25.2933 86.8188 24.8467 86.6055 24.5C86.4055 24.1533 86.1388 23.8933 85.8055 23.72C85.4721 23.5467 85.0988 23.46 84.6855 23.46C84.1655 23.46 83.7055 23.6067 83.3055 23.9C82.9055 24.1933 82.5921 24.58 82.3655 25.06C82.1388 25.5267 82.0255 26.0267 82.0255 26.56V32H79.8655ZM94.628 32.32C93.8946 32.32 93.2413 32.1733 92.668 31.88C92.108 31.5867 91.6613 31.1867 91.328 30.68C91.008 30.16 90.848 29.5667 90.848 28.9C90.848 28.1667 91.0346 27.5467 91.408 27.04C91.7946 26.5333 92.308 26.1467 92.948 25.88C93.588 25.6133 94.2946 25.48 95.068 25.48C95.4946 25.48 95.888 25.5133 96.248 25.58C96.6213 25.6333 96.9413 25.7 97.208 25.78C97.488 25.86 97.708 25.9467 97.868 26.04V25.5C97.868 24.8333 97.628 24.3 97.148 23.9C96.668 23.5 96.048 23.3 95.288 23.3C94.768 23.3 94.2746 23.42 93.808 23.66C93.3413 23.8867 92.968 24.2 92.688 24.6L91.208 23.46C91.5013 23.0467 91.8546 22.6933 92.268 22.4C92.6946 22.1067 93.168 21.88 93.688 21.72C94.2213 21.56 94.7746 21.48 95.348 21.48C96.828 21.48 97.968 21.8467 98.768 22.58C99.568 23.3 99.968 24.3133 99.968 25.62V32H97.868V30.74H97.748C97.5746 31.0067 97.3346 31.26 97.028 31.5C96.7346 31.74 96.3813 31.9333 95.968 32.08C95.568 32.24 95.1213 32.32 94.628 32.32ZM95.008 30.56C95.568 30.56 96.0613 30.4267 96.488 30.16C96.928 29.8933 97.268 29.5467 97.508 29.12C97.748 28.68 97.868 28.2067 97.868 27.7C97.5746 27.5267 97.2146 27.3867 96.788 27.28C96.3746 27.16 95.9346 27.1 95.468 27.1C94.588 27.1 93.9613 27.2733 93.588 27.62C93.2146 27.9667 93.028 28.4 93.028 28.92C93.028 29.4 93.208 29.7933 93.568 30.1C93.928 30.4067 94.408 30.56 95.008 30.56ZM101.451 21.8H103.231V18.92H105.391V21.8H107.891V23.68H105.391V28.58C105.391 29.0867 105.491 29.4733 105.691 29.74C105.904 30.0067 106.257 30.14 106.751 30.14C106.991 30.14 107.204 30.1067 107.391 30.04C107.577 29.96 107.764 29.8667 107.951 29.76V31.86C107.724 31.9533 107.484 32.0267 107.231 32.08C106.977 32.1333 106.677 32.16 106.331 32.16C105.384 32.16 104.631 31.8867 104.071 31.34C103.511 30.78 103.231 30.0133 103.231 29.04V23.68H101.451V21.8ZM118.991 32.32C118.071 32.32 117.238 32.0867 116.491 31.62C115.744 31.1533 115.158 30.5133 114.731 29.7C114.304 28.8867 114.091 27.9533 114.091 26.9C114.091 25.8467 114.304 24.9133 114.731 24.1C115.158 23.2867 115.744 22.6467 116.491 22.18C117.238 21.7133 118.071 21.48 118.991 21.48C119.524 21.48 120.004 21.56 120.431 21.72C120.858 21.88 121.224 22.0933 121.531 22.36C121.851 22.6133 122.098 22.8867 122.271 23.18H122.391L122.271 21.76V17.68H124.411V32H122.391V30.64H122.271C122.098 30.92 121.851 31.1933 121.531 31.46C121.224 31.7133 120.858 31.92 120.431 32.08C120.004 32.24 119.524 32.32 118.991 32.32ZM119.311 30.34C119.844 30.34 120.344 30.2 120.811 29.92C121.291 29.64 121.671 29.2467 121.951 28.74C122.244 28.22 122.391 27.6067 122.391 26.9C122.391 26.1933 122.244 25.5867 121.951 25.08C121.671 24.56 121.291 24.16 120.811 23.88C120.344 23.6 119.844 23.46 119.311 23.46C118.778 23.46 118.278 23.6 117.811 23.88C117.344 24.16 116.964 24.56 116.671 25.08C116.378 25.5867 116.231 26.1933 116.231 26.9C116.231 27.5933 116.378 28.2 116.671 28.72C116.964 29.24 117.344 29.64 117.811 29.92C118.278 30.2 118.778 30.34 119.311 30.34ZM130.058 32.32C129.324 32.32 128.671 32.1733 128.098 31.88C127.538 31.5867 127.091 31.1867 126.758 30.68C126.438 30.16 126.278 29.5667 126.278 28.9C126.278 28.1667 126.464 27.5467 126.838 27.04C127.224 26.5333 127.738 26.1467 128.378 25.88C129.018 25.6133 129.724 25.48 130.498 25.48C130.924 25.48 131.318 25.5133 131.678 25.58C132.051 25.6333 132.371 25.7 132.638 25.78C132.918 25.86 133.138 25.9467 133.298 26.04V25.5C133.298 24.8333 133.058 24.3 132.578 23.9C132.098 23.5 131.478 23.3 130.718 23.3C130.198 23.3 129.704 23.42 129.238 23.66C128.771 23.8867 128.398 24.2 128.118 24.6L126.638 23.46C126.931 23.0467 127.284 22.6933 127.698 22.4C128.124 22.1067 128.598 21.88 129.118 21.72C129.651 21.56 130.204 21.48 130.778 21.48C132.258 21.48 133.398 21.8467 134.198 22.58C134.998 23.3 135.398 24.3133 135.398 25.62V32H133.298V30.74H133.178C133.004 31.0067 132.764 31.26 132.458 31.5C132.164 31.74 131.811 31.9333 131.398 32.08C130.998 32.24 130.551 32.32 130.058 32.32ZM130.438 30.56C130.998 30.56 131.491 30.4267 131.918 30.16C132.358 29.8933 132.698 29.5467 132.938 29.12C133.178 28.68 133.298 28.2067 133.298 27.7C133.004 27.5267 132.644 27.3867 132.218 27.28C131.804 27.16 131.364 27.1 130.898 27.1C130.018 27.1 129.391 27.2733 129.018 27.62C128.644 27.9667 128.458 28.4 128.458 28.92C128.458 29.4 128.638 29.7933 128.998 30.1C129.358 30.4067 129.838 30.56 130.438 30.56ZM137.796 32V17.68H139.956V32H137.796ZM145.605 32.32C144.871 32.32 144.218 32.1733 143.645 31.88C143.085 31.5867 142.638 31.1867 142.305 30.68C141.985 30.16 141.825 29.5667 141.825 28.9C141.825 28.1667 142.011 27.5467 142.385 27.04C142.771 26.5333 143.285 26.1467 143.925 25.88C144.565 25.6133 145.271 25.48 146.045 25.48C146.471 25.48 146.865 25.5133 147.225 25.58C147.598 25.6333 147.918 25.7 148.185 25.78C148.465 25.86 148.685 25.9467 148.845 26.04V25.5C148.845 24.8333 148.605 24.3 148.125 23.9C147.645 23.5 147.025 23.3 146.265 23.3C145.745 23.3 145.251 23.42 144.785 23.66C144.318 23.8867 143.945 24.2 143.665 24.6L142.185 23.46C142.478 23.0467 142.831 22.6933 143.245 22.4C143.671 22.1067 144.145 21.88 144.665 21.72C145.198 21.56 145.751 21.48 146.325 21.48C147.805 21.48 148.945 21.8467 149.745 22.58C150.545 23.3 150.945 24.3133 150.945 25.62V32H148.845V30.74H148.725C148.551 31.0067 148.311 31.26 148.005 31.5C147.711 31.74 147.358 31.9333 146.945 32.08C146.545 32.24 146.098 32.32 145.605 32.32ZM145.985 30.56C146.545 30.56 147.038 30.4267 147.465 30.16C147.905 29.8933 148.245 29.5467 148.485 29.12C148.725 28.68 148.845 28.2067 148.845 27.7C148.551 27.5267 148.191 27.3867 147.765 27.28C147.351 27.16 146.911 27.1 146.445 27.1C145.565 27.1 144.938 27.2733 144.565 27.62C144.191 27.9667 144.005 28.4 144.005 28.92C144.005 29.4 144.185 29.7933 144.545 30.1C144.905 30.4067 145.385 30.56 145.985 30.56ZM153.323 32V21.8H155.363V23.2H155.483C155.683 22.8667 155.943 22.5733 156.263 22.32C156.583 22.0667 156.943 21.8667 157.342 21.72C157.756 21.56 158.183 21.48 158.623 21.48C159.383 21.48 160.029 21.66 160.563 22.02C161.096 22.38 161.476 22.8333 161.703 23.38C162.036 22.8467 162.489 22.4 163.063 22.04C163.636 21.6667 164.336 21.48 165.163 21.48C166.363 21.48 167.256 21.8467 167.843 22.58C168.429 23.3 168.723 24.26 168.723 25.46V32H166.583V25.82C166.583 24.9933 166.403 24.3933 166.043 24.02C165.696 23.6467 165.209 23.46 164.583 23.46C164.089 23.46 163.656 23.6 163.283 23.88C162.909 24.1467 162.616 24.5133 162.403 24.98C162.203 25.4467 162.103 25.9667 162.103 26.54V32H159.963V25.82C159.963 25.0067 159.783 24.4133 159.423 24.04C159.063 23.6533 158.556 23.46 157.903 23.46C157.436 23.46 157.016 23.6 156.643 23.88C156.283 24.16 155.996 24.5333 155.783 25C155.583 25.4667 155.483 25.9867 155.483 26.56V32H153.323Z" fill="white"/>
<path d="M183.4 32.32C182.373 32.32 181.407 32.1333 180.5 31.76C179.593 31.3867 178.793 30.8667 178.1 30.2C177.42 29.52 176.88 28.7267 176.48 27.82C176.093 26.9 175.9 25.9067 175.9 24.84C175.9 23.7733 176.093 22.7867 176.48 21.88C176.88 20.96 177.42 20.1667 178.1 19.5C178.793 18.82 179.593 18.2933 180.5 17.92C181.407 17.5467 182.373 17.36 183.4 17.36C184.493 17.36 185.5 17.5533 186.42 17.94C187.353 18.3267 188.133 18.8667 188.76 19.56L187.24 21.06C186.933 20.7133 186.58 20.42 186.18 20.18C185.793 19.94 185.367 19.76 184.9 19.64C184.433 19.5067 183.933 19.44 183.4 19.44C182.693 19.44 182.02 19.5667 181.38 19.82C180.74 20.0733 180.173 20.44 179.68 20.92C179.2 21.3867 178.82 21.9533 178.54 22.62C178.26 23.2733 178.12 24.0133 178.12 24.84C178.12 25.6667 178.26 26.4133 178.54 27.08C178.833 27.7333 179.22 28.3 179.7 28.78C180.193 29.2467 180.76 29.6067 181.4 29.86C182.04 30.1133 182.713 30.24 183.42 30.24C184.073 30.24 184.68 30.1467 185.24 29.96C185.813 29.7733 186.313 29.5067 186.74 29.16C187.167 28.8133 187.513 28.3933 187.78 27.9C188.047 27.3933 188.213 26.8267 188.28 26.2H183.38V24.26H190.34C190.367 24.42 190.393 24.6067 190.42 24.82C190.447 25.02 190.46 25.2133 190.46 25.4V25.42C190.46 26.4467 190.28 27.3867 189.92 28.24C189.573 29.0933 189.087 29.8267 188.46 30.44C187.833 31.04 187.087 31.5067 186.22 31.84C185.367 32.16 184.427 32.32 183.4 32.32ZM196.9 32.32C195.847 32.32 194.92 32.08 194.12 31.6C193.32 31.12 192.693 30.4733 192.24 29.66C191.787 28.8333 191.56 27.9133 191.56 26.9C191.56 25.8867 191.787 24.9733 192.24 24.16C192.693 23.3333 193.32 22.68 194.12 22.2C194.92 21.72 195.847 21.48 196.9 21.48C197.94 21.48 198.86 21.7267 199.66 22.22C200.46 22.7 201.087 23.3467 201.54 24.16C201.993 24.9733 202.22 25.8867 202.22 26.9C202.22 27.9133 201.993 28.8333 201.54 29.66C201.087 30.4733 200.46 31.12 199.66 31.6C198.86 32.08 197.94 32.32 196.9 32.32ZM196.9 30.34C197.46 30.34 197.98 30.2067 198.46 29.94C198.94 29.66 199.327 29.2667 199.62 28.76C199.927 28.24 200.08 27.62 200.08 26.9C200.08 26.18 199.927 25.5667 199.62 25.06C199.327 24.54 198.94 24.1467 198.46 23.88C197.98 23.6 197.46 23.46 196.9 23.46C196.34 23.46 195.813 23.6 195.32 23.88C194.84 24.1467 194.447 24.54 194.14 25.06C193.847 25.5667 193.7 26.18 193.7 26.9C193.7 27.62 193.847 28.24 194.14 28.76C194.447 29.2667 194.847 29.66 195.34 29.94C195.833 30.2067 196.353 30.34 196.9 30.34ZM209.009 32.32C207.956 32.32 207.029 32.08 206.229 31.6C205.429 31.12 204.803 30.4733 204.349 29.66C203.896 28.8333 203.669 27.9133 203.669 26.9C203.669 25.8867 203.896 24.9733 204.349 24.16C204.803 23.3333 205.429 22.68 206.229 22.2C207.029 21.72 207.956 21.48 209.009 21.48C210.049 21.48 210.969 21.7267 211.769 22.22C212.569 22.7 213.196 23.3467 213.649 24.16C214.103 24.9733 214.329 25.8867 214.329 26.9C214.329 27.9133 214.103 28.8333 213.649 29.66C213.196 30.4733 212.569 31.12 211.769 31.6C210.969 32.08 210.049 32.32 209.009 32.32ZM209.009 30.34C209.569 30.34 210.089 30.2067 210.569 29.94C211.049 29.66 211.436 29.2667 211.729 28.76C212.036 28.24 212.189 27.62 212.189 26.9C212.189 26.18 212.036 25.5667 211.729 25.06C211.436 24.54 211.049 24.1467 210.569 23.88C210.089 23.6 209.569 23.46 209.009 23.46C208.449 23.46 207.923 23.6 207.429 23.88C206.949 24.1467 206.556 24.54 206.249 25.06C205.956 25.5667 205.809 26.18 205.809 26.9C205.809 27.62 205.956 28.24 206.249 28.76C206.556 29.2667 206.956 29.66 207.449 29.94C207.943 30.2067 208.463 30.34 209.009 30.34ZM220.919 36.64C220.025 36.64 219.252 36.4933 218.599 36.2C217.959 35.92 217.439 35.5533 217.039 35.1C216.639 34.66 216.352 34.2067 216.179 33.74L218.179 32.9C218.392 33.4333 218.732 33.8667 219.199 34.2C219.679 34.5467 220.252 34.72 220.919 34.72C221.865 34.72 222.605 34.44 223.139 33.88C223.672 33.32 223.939 32.5267 223.939 31.5V30.52H223.819C223.499 30.9867 223.059 31.3667 222.499 31.66C221.939 31.9533 221.292 32.1 220.559 32.1C219.692 32.1 218.892 31.88 218.159 31.44C217.439 31 216.859 30.3867 216.419 29.6C215.992 28.8 215.779 27.8667 215.779 26.8C215.779 25.72 215.992 24.7867 216.419 24C216.859 23.2 217.439 22.58 218.159 22.14C218.892 21.7 219.692 21.48 220.559 21.48C221.292 21.48 221.939 21.6267 222.499 21.92C223.059 22.2 223.499 22.5867 223.819 23.08H223.939V21.8H225.999V31.46C225.999 32.5667 225.779 33.5067 225.339 34.28C224.912 35.0533 224.319 35.64 223.559 36.04C222.799 36.44 221.919 36.64 220.919 36.64ZM220.939 30.14C221.472 30.14 221.965 30.0133 222.419 29.76C222.885 29.4933 223.252 29.1133 223.519 28.62C223.799 28.1133 223.939 27.5067 223.939 26.8C223.939 26.0533 223.799 25.4333 223.519 24.94C223.252 24.4467 222.885 24.0733 222.419 23.82C221.965 23.5667 221.472 23.44 220.939 23.44C220.405 23.44 219.905 23.5667 219.439 23.82C218.985 24.0733 218.619 24.4533 218.339 24.96C218.059 25.4533 217.919 26.0667 217.919 26.8C217.919 27.52 218.059 28.1333 218.339 28.64C218.619 29.1333 218.985 29.5067 219.439 29.76C219.905 30.0133 220.405 30.14 220.939 30.14ZM228.546 32V17.68H230.706V32H228.546ZM237.815 32.32C236.815 32.32 235.921 32.0867 235.135 31.62C234.348 31.1533 233.728 30.5133 233.275 29.7C232.835 28.8867 232.615 27.96 232.615 26.92C232.615 25.9467 232.828 25.0467 233.255 24.22C233.681 23.3933 234.275 22.7333 235.035 22.24C235.808 21.7333 236.695 21.48 237.695 21.48C238.748 21.48 239.641 21.7067 240.375 22.16C241.121 22.6133 241.688 23.2333 242.075 24.02C242.461 24.8067 242.655 25.6933 242.655 26.68C242.655 26.8267 242.648 26.96 242.635 27.08C242.635 27.2 242.628 27.2933 242.615 27.36H234.735C234.788 27.92 234.928 28.4067 235.155 28.82C235.448 29.34 235.835 29.7333 236.315 30C236.795 30.2667 237.315 30.4 237.875 30.4C238.555 30.4 239.121 30.2467 239.575 29.94C240.041 29.62 240.408 29.2267 240.675 28.76L242.455 29.62C242.015 30.42 241.415 31.0733 240.655 31.58C239.895 32.0733 238.948 32.32 237.815 32.32ZM234.855 25.74H240.515C240.501 25.4867 240.435 25.22 240.315 24.94C240.195 24.6467 240.021 24.38 239.795 24.14C239.568 23.9 239.281 23.7067 238.935 23.56C238.588 23.4 238.181 23.32 237.715 23.32C237.128 23.32 236.608 23.4733 236.155 23.78C235.701 24.0733 235.348 24.4867 235.095 25.02C234.988 25.2467 234.908 25.4867 234.855 25.74ZM251.446 32L247.606 17.68H250.046L252.326 26.98L252.566 28.22H252.686L252.986 26.98L255.866 17.68H258.066L260.826 26.98L261.126 28.2H261.246L261.486 26.98L263.766 17.68H266.186L262.406 32H260.086L257.346 22.5L257.026 21.16H256.906L256.566 22.5L253.706 32H251.446ZM270.202 32.32C269.469 32.32 268.816 32.1733 268.242 31.88C267.682 31.5867 267.236 31.1867 266.902 30.68C266.582 30.16 266.422 29.5667 266.422 28.9C266.422 28.1667 266.609 27.5467 266.982 27.04C267.369 26.5333 267.882 26.1467 268.522 25.88C269.162 25.6133 269.869 25.48 270.642 25.48C271.069 25.48 271.462 25.5133 271.822 25.58C272.196 25.6333 272.516 25.7 272.782 25.78C273.062 25.86 273.282 25.9467 273.442 26.04V25.5C273.442 24.8333 273.202 24.3 272.722 23.9C272.242 23.5 271.622 23.3 270.862 23.3C270.342 23.3 269.849 23.42 269.382 23.66C268.916 23.8867 268.542 24.2 268.262 24.6L266.782 23.46C267.076 23.0467 267.429 22.6933 267.842 22.4C268.269 22.1067 268.742 21.88 269.262 21.72C269.796 21.56 270.349 21.48 270.922 21.48C272.402 21.48 273.542 21.8467 274.342 22.58C275.142 23.3 275.542 24.3133 275.542 25.62V32H273.442V30.74H273.322C273.149 31.0067 272.909 31.26 272.602 31.5C272.309 31.74 271.956 31.9333 271.542 32.08C271.142 32.24 270.696 32.32 270.202 32.32ZM270.582 30.56C271.142 30.56 271.636 30.4267 272.062 30.16C272.502 29.8933 272.842 29.5467 273.082 29.12C273.322 28.68 273.442 28.2067 273.442 27.7C273.149 27.5267 272.789 27.3867 272.362 27.28C271.949 27.16 271.509 27.1 271.042 27.1C270.162 27.1 269.536 27.2733 269.162 27.62C268.789 27.9667 268.602 28.4 268.602 28.92C268.602 29.4 268.782 29.7933 269.142 30.1C269.502 30.4067 269.982 30.56 270.582 30.56ZM277.94 32V17.68H280.1V32H277.94ZM282.667 32V17.68H284.827V32H282.667ZM291.936 32.32C290.936 32.32 290.042 32.0867 289.256 31.62C288.469 31.1533 287.849 30.5133 287.396 29.7C286.956 28.8867 286.736 27.96 286.736 26.92C286.736 25.9467 286.949 25.0467 287.376 24.22C287.802 23.3933 288.396 22.7333 289.156 22.24C289.929 21.7333 290.816 21.48 291.816 21.48C292.869 21.48 293.762 21.7067 294.496 22.16C295.242 22.6133 295.809 23.2333 296.196 24.02C296.582 24.8067 296.776 25.6933 296.776 26.68C296.776 26.8267 296.769 26.96 296.756 27.08C296.756 27.2 296.749 27.2933 296.736 27.36H288.856C288.909 27.92 289.049 28.4067 289.276 28.82C289.569 29.34 289.956 29.7333 290.436 30C290.916 30.2667 291.436 30.4 291.996 30.4C292.676 30.4 293.242 30.2467 293.696 29.94C294.162 29.62 294.529 29.2267 294.796 28.76L296.576 29.62C296.136 30.42 295.536 31.0733 294.776 31.58C294.016 32.0733 293.069 32.32 291.936 32.32ZM288.976 25.74H294.636C294.622 25.4867 294.556 25.22 294.436 24.94C294.316 24.6467 294.142 24.38 293.916 24.14C293.689 23.9 293.402 23.7067 293.056 23.56C292.709 23.4 292.302 23.32 291.836 23.32C291.249 23.32 290.729 23.4733 290.276 23.78C289.822 24.0733 289.469 24.4867 289.216 25.02C289.109 25.2467 289.029 25.4867 288.976 25.74ZM297.787 21.8H299.567V18.92H301.727V21.8H304.227V23.68H301.727V28.58C301.727 29.0867 301.827 29.4733 302.027 29.74C302.24 30.0067 302.593 30.14 303.087 30.14C303.327 30.14 303.54 30.1067 303.727 30.04C303.913 29.96 304.1 29.8667 304.287 29.76V31.86C304.06 31.9533 303.82 32.0267 303.567 32.08C303.313 32.1333 303.013 32.16 302.667 32.16C301.72 32.16 300.967 31.8867 300.407 31.34C299.847 30.78 299.567 30.0133 299.567 29.04V23.68H297.787V21.8Z" fill="white"/>
</svg>
