<svg width="308" height="50" viewBox="0 0 308 50" fill="none" xmlns="http://www.w3.org/2000/svg">
<rect x="0.5" y="0.5" width="307" height="49" rx="24.5" fill="#1F1F1F"/>
<rect x="0.5" y="0.5" width="307" height="49" rx="24.5" stroke="#747775"/>
<path d="M51 22H21V17C21 14.2857 23.2018 12 25.8165 12H46.1835C48.7982 12 51 14.2857 51 17V22Z" fill="#34A853"/>
<path d="M51 26.0537H21V21.0537C21 18.3394 23.2018 16.0537 25.8165 16.0537H46.1835C48.7982 16.0537 51 18.3394 51 21.0537V26.0537Z" fill="#FBBC04"/>
<path d="M51 30.2468H21V25.2468C21 22.5325 23.2018 20.2468 25.8165 20.2468H46.1835C48.7982 20.2468 51 22.5325 51 25.2468V30.2468Z" fill="#EA4335"/>
<path d="M21 23.2752L40.0411 27.6789C42.2329 28.2294 44.6986 27.6789 46.4795 26.3028L51 23V33.3211C51 35.9358 48.8082 38 46.2055 38H25.7945C23.1918 38 21 35.9358 21 33.3211V23.2752Z" fill="#4285F4"/>
<path d="M76.4 32.32C75.3733 32.32 74.4067 32.1333 73.5 31.76C72.5933 31.3867 71.7933 30.8667 71.1 30.2C70.42 29.52 69.88 28.7267 69.48 27.82C69.0933 26.9 68.9 25.9067 68.9 24.84C68.9 23.7733 69.0933 22.7867 69.48 21.88C69.88 20.96 70.42 20.1667 71.1 19.5C71.7933 18.82 72.5933 18.2933 73.5 17.92C74.4067 17.5467 75.3733 17.36 76.4 17.36C77.4933 17.36 78.5 17.5533 79.42 17.94C80.3533 18.3267 81.1333 18.8667 81.76 19.56L80.24 21.06C79.9333 20.7133 79.58 20.42 79.18 20.18C78.7933 19.94 78.3667 19.76 77.9 19.64C77.4333 19.5067 76.9333 19.44 76.4 19.44C75.6933 19.44 75.02 19.5667 74.38 19.82C73.74 20.0733 73.1733 20.44 72.68 20.92C72.2 21.3867 71.82 21.9533 71.54 22.62C71.26 23.2733 71.12 24.0133 71.12 24.84C71.12 25.6667 71.26 26.4133 71.54 27.08C71.8333 27.7333 72.22 28.3 72.7 28.78C73.1933 29.2467 73.76 29.6067 74.4 29.86C75.04 30.1133 75.7133 30.24 76.42 30.24C77.0733 30.24 77.68 30.1467 78.24 29.96C78.8133 29.7733 79.3133 29.5067 79.74 29.16C80.1667 28.8133 80.5133 28.3933 80.78 27.9C81.0467 27.3933 81.2133 26.8267 81.28 26.2H76.38V24.26H83.34C83.3667 24.42 83.3933 24.6067 83.42 24.82C83.4467 25.02 83.46 25.2133 83.46 25.4V25.42C83.46 26.4467 83.28 27.3867 82.92 28.24C82.5733 29.0933 82.0867 29.8267 81.46 30.44C80.8333 31.04 80.0867 31.5067 79.22 31.84C78.3667 32.16 77.4267 32.32 76.4 32.32ZM89.8998 32.32C88.8465 32.32 87.9198 32.08 87.1198 31.6C86.3198 31.12 85.6932 30.4733 85.2398 29.66C84.7865 28.8333 84.5598 27.9133 84.5598 26.9C84.5598 25.8867 84.7865 24.9733 85.2398 24.16C85.6932 23.3333 86.3198 22.68 87.1198 22.2C87.9198 21.72 88.8465 21.48 89.8998 21.48C90.9398 21.48 91.8598 21.7267 92.6598 22.22C93.4598 22.7 94.0865 23.3467 94.5398 24.16C94.9932 24.9733 95.2198 25.8867 95.2198 26.9C95.2198 27.9133 94.9932 28.8333 94.5398 29.66C94.0865 30.4733 93.4598 31.12 92.6598 31.6C91.8598 32.08 90.9398 32.32 89.8998 32.32ZM89.8998 30.34C90.4598 30.34 90.9798 30.2067 91.4598 29.94C91.9398 29.66 92.3265 29.2667 92.6198 28.76C92.9265 28.24 93.0798 27.62 93.0798 26.9C93.0798 26.18 92.9265 25.5667 92.6198 25.06C92.3265 24.54 91.9398 24.1467 91.4598 23.88C90.9798 23.6 90.4598 23.46 89.8998 23.46C89.3398 23.46 88.8132 23.6 88.3198 23.88C87.8398 24.1467 87.4465 24.54 87.1398 25.06C86.8465 25.5667 86.6998 26.18 86.6998 26.9C86.6998 27.62 86.8465 28.24 87.1398 28.76C87.4465 29.2667 87.8465 29.66 88.3398 29.94C88.8332 30.2067 89.3532 30.34 89.8998 30.34ZM102.009 32.32C100.956 32.32 100.029 32.08 99.2292 31.6C98.4292 31.12 97.8026 30.4733 97.3492 29.66C96.8959 28.8333 96.6692 27.9133 96.6692 26.9C96.6692 25.8867 96.8959 24.9733 97.3492 24.16C97.8026 23.3333 98.4292 22.68 99.2292 22.2C100.029 21.72 100.956 21.48 102.009 21.48C103.049 21.48 103.969 21.7267 104.769 22.22C105.569 22.7 106.196 23.3467 106.649 24.16C107.103 24.9733 107.329 25.8867 107.329 26.9C107.329 27.9133 107.103 28.8333 106.649 29.66C106.196 30.4733 105.569 31.12 104.769 31.6C103.969 32.08 103.049 32.32 102.009 32.32ZM102.009 30.34C102.569 30.34 103.089 30.2067 103.569 29.94C104.049 29.66 104.436 29.2667 104.729 28.76C105.036 28.24 105.189 27.62 105.189 26.9C105.189 26.18 105.036 25.5667 104.729 25.06C104.436 24.54 104.049 24.1467 103.569 23.88C103.089 23.6 102.569 23.46 102.009 23.46C101.449 23.46 100.923 23.6 100.429 23.88C99.9492 24.1467 99.5559 24.54 99.2492 25.06C98.9559 25.5667 98.8092 26.18 98.8092 26.9C98.8092 27.62 98.9559 28.24 99.2492 28.76C99.5559 29.2667 99.9559 29.66 100.449 29.94C100.943 30.2067 101.463 30.34 102.009 30.34ZM113.919 36.64C113.025 36.64 112.252 36.4933 111.599 36.2C110.959 35.92 110.439 35.5533 110.039 35.1C109.639 34.66 109.352 34.2067 109.179 33.74L111.179 32.9C111.392 33.4333 111.732 33.8667 112.199 34.2C112.679 34.5467 113.252 34.72 113.919 34.72C114.865 34.72 115.605 34.44 116.139 33.88C116.672 33.32 116.939 32.5267 116.939 31.5V30.52H116.819C116.499 30.9867 116.059 31.3667 115.499 31.66C114.939 31.9533 114.292 32.1 113.559 32.1C112.692 32.1 111.892 31.88 111.159 31.44C110.439 31 109.859 30.3867 109.419 29.6C108.992 28.8 108.779 27.8667 108.779 26.8C108.779 25.72 108.992 24.7867 109.419 24C109.859 23.2 110.439 22.58 111.159 22.14C111.892 21.7 112.692 21.48 113.559 21.48C114.292 21.48 114.939 21.6267 115.499 21.92C116.059 22.2 116.499 22.5867 116.819 23.08H116.939V21.8H118.999V31.46C118.999 32.5667 118.779 33.5067 118.339 34.28C117.912 35.0533 117.319 35.64 116.559 36.04C115.799 36.44 114.919 36.64 113.919 36.64ZM113.939 30.14C114.472 30.14 114.965 30.0133 115.419 29.76C115.885 29.4933 116.252 29.1133 116.519 28.62C116.799 28.1133 116.939 27.5067 116.939 26.8C116.939 26.0533 116.799 25.4333 116.519 24.94C116.252 24.4467 115.885 24.0733 115.419 23.82C114.965 23.5667 114.472 23.44 113.939 23.44C113.405 23.44 112.905 23.5667 112.439 23.82C111.985 24.0733 111.619 24.4533 111.339 24.96C111.059 25.4533 110.919 26.0667 110.919 26.8C110.919 27.52 111.059 28.1333 111.339 28.64C111.619 29.1333 111.985 29.5067 112.439 29.76C112.905 30.0133 113.405 30.14 113.939 30.14ZM121.546 32V17.68H123.706V32H121.546ZM130.815 32.32C129.815 32.32 128.921 32.0867 128.135 31.62C127.348 31.1533 126.728 30.5133 126.275 29.7C125.835 28.8867 125.615 27.96 125.615 26.92C125.615 25.9467 125.828 25.0467 126.255 24.22C126.681 23.3933 127.275 22.7333 128.035 22.24C128.808 21.7333 129.695 21.48 130.695 21.48C131.748 21.48 132.641 21.7067 133.375 22.16C134.121 22.6133 134.688 23.2333 135.075 24.02C135.461 24.8067 135.655 25.6933 135.655 26.68C135.655 26.8267 135.648 26.96 135.635 27.08C135.635 27.2 135.628 27.2933 135.615 27.36H127.735C127.788 27.92 127.928 28.4067 128.155 28.82C128.448 29.34 128.835 29.7333 129.315 30C129.795 30.2667 130.315 30.4 130.875 30.4C131.555 30.4 132.121 30.2467 132.575 29.94C133.041 29.62 133.408 29.2267 133.675 28.76L135.455 29.62C135.015 30.42 134.415 31.0733 133.655 31.58C132.895 32.0733 131.948 32.32 130.815 32.32ZM127.855 25.74H133.515C133.501 25.4867 133.435 25.22 133.315 24.94C133.195 24.6467 133.021 24.38 132.795 24.14C132.568 23.9 132.281 23.7067 131.935 23.56C131.588 23.4 131.181 23.32 130.715 23.32C130.128 23.32 129.608 23.4733 129.155 23.78C128.701 24.0733 128.348 24.4867 128.095 25.02C127.988 25.2467 127.908 25.4867 127.855 25.74ZM144.446 32L140.606 17.68H143.046L145.326 26.98L145.566 28.22H145.686L145.986 26.98L148.866 17.68H151.066L153.826 26.98L154.126 28.2H154.246L154.486 26.98L156.766 17.68H159.186L155.406 32H153.086L150.346 22.5L150.026 21.16H149.906L149.566 22.5L146.706 32H144.446ZM163.202 32.32C162.469 32.32 161.816 32.1733 161.242 31.88C160.682 31.5867 160.236 31.1867 159.902 30.68C159.582 30.16 159.422 29.5667 159.422 28.9C159.422 28.1667 159.609 27.5467 159.982 27.04C160.369 26.5333 160.882 26.1467 161.522 25.88C162.162 25.6133 162.869 25.48 163.642 25.48C164.069 25.48 164.462 25.5133 164.822 25.58C165.196 25.6333 165.516 25.7 165.782 25.78C166.062 25.86 166.282 25.9467 166.442 26.04V25.5C166.442 24.8333 166.202 24.3 165.722 23.9C165.242 23.5 164.622 23.3 163.862 23.3C163.342 23.3 162.849 23.42 162.382 23.66C161.916 23.8867 161.542 24.2 161.262 24.6L159.782 23.46C160.076 23.0467 160.429 22.6933 160.842 22.4C161.269 22.1067 161.742 21.88 162.262 21.72C162.796 21.56 163.349 21.48 163.922 21.48C165.402 21.48 166.542 21.8467 167.342 22.58C168.142 23.3 168.542 24.3133 168.542 25.62V32H166.442V30.74H166.322C166.149 31.0067 165.909 31.26 165.602 31.5C165.309 31.74 164.956 31.9333 164.542 32.08C164.142 32.24 163.696 32.32 163.202 32.32ZM163.582 30.56C164.142 30.56 164.636 30.4267 165.062 30.16C165.502 29.8933 165.842 29.5467 166.082 29.12C166.322 28.68 166.442 28.2067 166.442 27.7C166.149 27.5267 165.789 27.3867 165.362 27.28C164.949 27.16 164.509 27.1 164.042 27.1C163.162 27.1 162.536 27.2733 162.162 27.62C161.789 27.9667 161.602 28.4 161.602 28.92C161.602 29.4 161.782 29.7933 162.142 30.1C162.502 30.4067 162.982 30.56 163.582 30.56ZM170.94 32V17.68H173.1V32H170.94ZM175.667 32V17.68H177.827V32H175.667ZM184.936 32.32C183.936 32.32 183.042 32.0867 182.256 31.62C181.469 31.1533 180.849 30.5133 180.396 29.7C179.956 28.8867 179.736 27.96 179.736 26.92C179.736 25.9467 179.949 25.0467 180.376 24.22C180.802 23.3933 181.396 22.7333 182.156 22.24C182.929 21.7333 183.816 21.48 184.816 21.48C185.869 21.48 186.762 21.7067 187.496 22.16C188.242 22.6133 188.809 23.2333 189.196 24.02C189.582 24.8067 189.776 25.6933 189.776 26.68C189.776 26.8267 189.769 26.96 189.756 27.08C189.756 27.2 189.749 27.2933 189.736 27.36H181.856C181.909 27.92 182.049 28.4067 182.276 28.82C182.569 29.34 182.956 29.7333 183.436 30C183.916 30.2667 184.436 30.4 184.996 30.4C185.676 30.4 186.242 30.2467 186.696 29.94C187.162 29.62 187.529 29.2267 187.796 28.76L189.576 29.62C189.136 30.42 188.536 31.0733 187.776 31.58C187.016 32.0733 186.069 32.32 184.936 32.32ZM181.976 25.74H187.636C187.622 25.4867 187.556 25.22 187.436 24.94C187.316 24.6467 187.142 24.38 186.916 24.14C186.689 23.9 186.402 23.7067 186.056 23.56C185.709 23.4 185.302 23.32 184.836 23.32C184.249 23.32 183.729 23.4733 183.276 23.78C182.822 24.0733 182.469 24.4867 182.216 25.02C182.109 25.2467 182.029 25.4867 181.976 25.74ZM190.787 21.8H192.567V18.92H194.727V21.8H197.227V23.68H194.727V28.58C194.727 29.0867 194.827 29.4733 195.027 29.74C195.24 30.0067 195.593 30.14 196.087 30.14C196.327 30.14 196.54 30.1067 196.727 30.04C196.913 29.96 197.1 29.8667 197.287 29.76V31.86C197.06 31.9533 196.82 32.0267 196.567 32.08C196.313 32.1333 196.013 32.16 195.667 32.16C194.72 32.16 193.967 31.8867 193.407 31.34C192.847 30.78 192.567 30.0133 192.567 29.04V23.68H190.787V21.8ZM206.327 29.18C206.047 29.18 205.747 29.0933 205.427 28.92C205.12 28.7333 204.827 28.4933 204.547 28.2C204.267 27.9067 204.04 27.6 203.867 27.28C203.694 26.9467 203.607 26.6267 203.607 26.32C203.607 25.96 203.714 25.6867 203.927 25.5C204.154 25.3133 204.44 25.22 204.787 25.22H205.287V20.34H202.307V18.7H215.487V20.34H213.687V32H211.687V26.98H207.267V28.16C207.267 28.4667 207.18 28.7133 207.007 28.9C206.847 29.0867 206.62 29.18 206.327 29.18ZM211.687 25.22V20.34H207.267V25.22H211.687ZM216.99 32V20.34H214.69V18.7H220.79V20.34H218.99V32H216.99ZM232.151 35.5C231.057 35.1667 230.097 34.72 229.271 34.16C228.457 33.6133 227.824 32.98 227.371 32.26C226.917 31.54 226.691 30.7533 226.691 29.9C226.691 28.7 227.124 27.7133 227.991 26.94V26.84C227.457 26.6133 227.037 26.2933 226.731 25.88C226.437 25.4533 226.291 24.9733 226.291 24.44C226.291 23.6533 226.564 23.0333 227.111 22.58C227.671 22.1133 228.424 21.88 229.371 21.88H232.711V20.34H224.651V18.7H236.651V20.34H234.631V23.6H229.591C229.191 23.6 228.871 23.7 228.631 23.9C228.404 24.0867 228.291 24.34 228.291 24.66C228.291 24.9933 228.404 25.2533 228.631 25.44C228.871 25.6133 229.191 25.7 229.591 25.7H230.991C231.897 25.7 232.684 25.86 233.351 26.18C234.031 26.4867 234.551 26.92 234.911 27.48C235.284 28.0267 235.471 28.68 235.471 29.44C235.471 30.5333 235.064 31.5067 234.251 32.36L232.691 31.14C232.931 30.8867 233.117 30.6267 233.251 30.36C233.384 30.08 233.451 29.7867 233.451 29.48C233.451 28.9067 233.244 28.4467 232.831 28.1C232.417 27.74 231.864 27.56 231.171 27.56C230.411 27.56 229.811 27.7733 229.371 28.2C228.931 28.6267 228.711 29.2 228.711 29.92C228.711 30.8267 229.077 31.5933 229.811 32.22C230.544 32.86 231.544 33.36 232.811 33.72L232.151 35.5ZM240.902 18.94L239.882 16.78C239.629 16.26 239.382 15.8533 239.142 15.56C238.902 15.2667 238.629 15.06 238.322 14.94C238.016 14.8067 237.642 14.74 237.202 14.74H236.142V12.86H237.122C237.642 12.86 238.102 12.9133 238.502 13.02C238.902 13.1267 239.269 13.3067 239.602 13.56C239.949 13.8 240.262 14.12 240.542 14.52C240.836 14.92 241.129 15.4133 241.422 16L242.862 18.94H240.902ZM242.362 32.36L236.822 25.42L238.302 24.18C238.489 24.3933 238.682 24.5533 238.882 24.66C239.096 24.7533 239.336 24.8 239.602 24.8C240.029 24.8 240.356 24.6733 240.582 24.42C240.822 24.1533 240.942 23.8 240.942 23.36V20.34H235.842V18.7H244.982V20.34H242.942V23.42C242.942 24.3933 242.669 25.1533 242.122 25.7C241.642 26.18 240.976 26.4467 240.122 26.5L240.042 26.62L241.102 27.64L243.982 31.1L242.362 32.36ZM249.982 37.26L249.082 36.1C248.722 35.66 248.382 35.34 248.062 35.14C247.755 34.9533 247.382 34.86 246.942 34.86C246.729 34.86 246.495 34.88 246.242 34.92C246.002 34.9733 245.762 35.0467 245.522 35.14L244.982 33.3C245.315 33.1933 245.649 33.1067 245.982 33.04C246.329 32.9867 246.649 32.96 246.942 32.96C247.422 32.96 247.842 33.02 248.202 33.14C248.562 33.2733 248.915 33.4933 249.262 33.8C249.622 34.1067 250.015 34.5333 250.442 35.08L251.362 36.22L249.982 37.26ZM248.082 28.12C247.789 28.12 247.475 28.0267 247.142 27.84C246.809 27.64 246.495 27.3867 246.202 27.08C245.922 26.7733 245.689 26.4467 245.502 26.1C245.329 25.74 245.242 25.4067 245.242 25.1C245.242 24.7533 245.349 24.4867 245.562 24.3C245.775 24.1 246.062 24 246.422 24H252.762V20.34H244.182V18.7H256.562V20.34H254.762V32H252.762V25.76H249.042V27.08C249.042 27.4 248.955 27.6533 248.782 27.84C248.622 28.0267 248.389 28.12 248.082 28.12ZM262.404 37.64C261.231 37.64 260.157 37.3333 259.184 36.72C258.224 36.12 257.351 35.2 256.564 33.96L258.144 32.92C258.811 33.8933 259.477 34.6133 260.144 35.08C260.811 35.56 261.551 35.8 262.364 35.8C262.884 35.8 263.297 35.68 263.604 35.44C263.924 35.2 264.084 34.8867 264.084 34.5C264.084 34.14 263.977 33.8533 263.764 33.64C263.551 33.4267 263.257 33.32 262.884 33.32C262.377 33.32 261.844 33.5533 261.284 34.02L260.104 32.62C260.944 31.9133 261.871 31.56 262.884 31.56C263.537 31.56 264.104 31.6933 264.584 31.96C265.077 32.2133 265.457 32.56 265.724 33C266.004 33.4533 266.144 33.9667 266.144 34.54C266.144 35.4733 265.804 36.22 265.124 36.78C264.444 37.3533 263.537 37.64 262.404 37.64ZM263.264 35.5C262.171 35.1667 261.211 34.72 260.384 34.16C259.571 33.6133 258.937 32.98 258.484 32.26C258.031 31.54 257.804 30.7533 257.804 29.9C257.804 28.7 258.237 27.7133 259.104 26.94V26.84C258.571 26.6133 258.151 26.2933 257.844 25.88C257.551 25.4533 257.404 24.9733 257.404 24.44C257.404 23.6533 257.677 23.0333 258.224 22.58C258.784 22.1133 259.537 21.88 260.484 21.88H263.824V20.34H255.764V18.7H267.764V20.34H265.744V23.6H260.704C260.304 23.6 259.984 23.7 259.744 23.9C259.517 24.0867 259.404 24.34 259.404 24.66C259.404 24.9933 259.517 25.2533 259.744 25.44C259.984 25.6133 260.304 25.7 260.704 25.7H262.104C263.011 25.7 263.797 25.86 264.464 26.18C265.144 26.4867 265.664 26.92 266.024 27.48C266.397 28.0267 266.584 28.68 266.584 29.44C266.584 30.5333 266.177 31.5067 265.364 32.36L263.804 31.14C264.044 30.8867 264.231 30.6267 264.364 30.36C264.497 30.08 264.564 29.7867 264.564 29.48C264.564 28.9067 264.357 28.4467 263.944 28.1C263.531 27.74 262.977 27.56 262.284 27.56C261.524 27.56 260.924 27.7733 260.484 28.2C260.044 28.6267 259.824 29.2 259.824 29.92C259.824 30.8267 260.191 31.5933 260.924 32.22C261.657 32.86 262.657 33.36 263.924 33.72L263.264 35.5ZM269.255 32V20.34H266.955V18.7H269.095L268.175 16.78C267.922 16.26 267.675 15.8533 267.435 15.56C267.195 15.2667 266.922 15.06 266.615 14.94C266.309 14.8067 265.935 14.74 265.495 14.74H264.435V12.86H265.415C265.935 12.86 266.395 12.9133 266.795 13.02C267.195 13.1267 267.562 13.3067 267.895 13.56C268.242 13.8 268.555 14.12 268.835 14.52C269.129 14.92 269.422 15.4133 269.715 16L271.035 18.7H273.055V20.34H271.255V32H269.255ZM278.768 32.36L273.228 25.42L274.708 24.18C274.895 24.3933 275.088 24.5533 275.288 24.66C275.502 24.7533 275.742 24.8 276.008 24.8C276.435 24.8 276.762 24.6733 276.988 24.42C277.228 24.1533 277.348 23.8 277.348 23.36V20.34H272.248V18.7H287.228V20.34H285.428V32H283.428V26.68H279.248L276.528 26.5L276.448 26.64L277.508 27.64L280.388 31.1L278.768 32.36ZM279.308 20.34V23.36C279.308 23.9733 279.202 24.5067 278.988 24.96H283.428V20.34H279.308ZM292.228 37.26L291.328 36.1C290.968 35.66 290.628 35.34 290.308 35.14C290.001 34.9533 289.628 34.86 289.188 34.86C288.975 34.86 288.741 34.88 288.488 34.92C288.248 34.9733 288.008 35.0467 287.768 35.14L287.228 33.3C287.561 33.1933 287.895 33.1067 288.228 33.04C288.575 32.9867 288.895 32.96 289.188 32.96C289.668 32.96 290.088 33.02 290.448 33.14C290.808 33.2733 291.161 33.4933 291.508 33.8C291.868 34.1067 292.261 34.5333 292.688 35.08L293.608 36.22L292.228 37.26Z" fill="white"/>
</svg>
