<svg width="320" height="50" viewBox="0 0 320 50" fill="none" xmlns="http://www.w3.org/2000/svg">
<rect x="0.5" y="0.5" width="319" height="49" rx="24.5" fill="#1F1F1F"/>
<rect x="0.5" y="0.5" width="319" height="49" rx="24.5" stroke="#747775"/>
<path d="M51 22H21V17C21 14.2857 23.2018 12 25.8165 12H46.1835C48.7982 12 51 14.2857 51 17V22Z" fill="#34A853"/>
<path d="M51 26.0537H21V21.0537C21 18.3394 23.2018 16.0537 25.8165 16.0537H46.1835C48.7982 16.0537 51 18.3394 51 21.0537V26.0537Z" fill="#FBBC04"/>
<path d="M51 30.2468H21V25.2468C21 22.5325 23.2018 20.2468 25.8165 20.2468H46.1835C48.7982 20.2468 51 22.5325 51 25.2468V30.2468Z" fill="#EA4335"/>
<path d="M21 23.2752L40.0411 27.6789C42.2329 28.2294 44.6986 27.6789 46.4795 26.3028L51 23V33.3211C51 35.9358 48.8082 38 46.2055 38H25.7945C23.1918 38 21 35.9358 21 33.3211V23.2752Z" fill="#4285F4"/>
<path d="M64.62 32V17.68H69.98C70.7667 17.68 71.48 17.8467 72.12 18.18C72.76 18.5133 73.2667 18.9667 73.64 19.54C74.0267 20.1133 74.22 20.76 74.22 21.48C74.22 22.2133 74.04 22.84 73.68 23.36C73.32 23.88 72.8533 24.2733 72.28 24.54V24.64C73 24.88 73.5867 25.2933 74.04 25.88C74.4933 26.4667 74.72 27.1667 74.72 27.98C74.72 28.78 74.5133 29.48 74.1 30.08C73.7 30.68 73.1533 31.1533 72.46 31.5C71.78 31.8333 71.0333 32 70.22 32H64.62ZM66.82 25.66V29.96H70.22C70.7 29.96 71.1133 29.86 71.46 29.66C71.8067 29.46 72.0667 29.1933 72.24 28.86C72.4267 28.5267 72.52 28.18 72.52 27.82C72.52 27.4333 72.4267 27.08 72.24 26.76C72.0533 26.4267 71.78 26.16 71.42 25.96C71.0733 25.76 70.6467 25.66 70.14 25.66H66.82ZM66.82 23.7H69.88C70.3467 23.7 70.74 23.6067 71.06 23.42C71.3933 23.22 71.6467 22.9667 71.82 22.66C71.9933 22.34 72.08 22.0133 72.08 21.68C72.08 21.3467 71.9933 21.0333 71.82 20.74C71.66 20.4333 71.42 20.1867 71.1 20C70.78 19.8 70.4 19.7 69.96 19.7H66.82V23.7ZM81.4395 32.32C80.4395 32.32 79.5462 32.0867 78.7595 31.62C77.9729 31.1533 77.3529 30.5133 76.8995 29.7C76.4595 28.8867 76.2395 27.96 76.2395 26.92C76.2395 25.9467 76.4529 25.0467 76.8795 24.22C77.3062 23.3933 77.8995 22.7333 78.6595 22.24C79.4329 21.7333 80.3195 21.48 81.3195 21.48C82.3729 21.48 83.2662 21.7067 83.9995 22.16C84.7462 22.6133 85.3129 23.2333 85.6995 24.02C86.0862 24.8067 86.2795 25.6933 86.2795 26.68C86.2795 26.8267 86.2729 26.96 86.2595 27.08C86.2595 27.2 86.2529 27.2933 86.2395 27.36H78.3595C78.4129 27.92 78.5529 28.4067 78.7795 28.82C79.0729 29.34 79.4595 29.7333 79.9395 30C80.4195 30.2667 80.9395 30.4 81.4995 30.4C82.1795 30.4 82.7462 30.2467 83.1995 29.94C83.6662 29.62 84.0329 29.2267 84.2995 28.76L86.0795 29.62C85.6395 30.42 85.0395 31.0733 84.2795 31.58C83.5195 32.0733 82.5729 32.32 81.4395 32.32ZM78.4795 25.74H84.1395C84.1262 25.4867 84.0595 25.22 83.9395 24.94C83.8195 24.6467 83.6462 24.38 83.4195 24.14C83.1929 23.9 82.9062 23.7067 82.5595 23.56C82.2129 23.4 81.8062 23.32 81.3395 23.32C80.7529 23.32 80.2329 23.4733 79.7795 23.78C79.3262 24.0733 78.9729 24.4867 78.7195 25.02C78.6129 25.2467 78.5329 25.4867 78.4795 25.74ZM88.2834 32V17.68H90.4434V26.12L94.7634 21.8H97.4434V21.92L93.5034 25.82L97.5834 31.88V32H95.0234L91.9834 27.32L90.4434 28.84V32H88.2834ZM99.088 32V21.8H101.248V32H99.088ZM100.168 20.3C99.768 20.3 99.4213 20.16 99.128 19.88C98.848 19.5867 98.708 19.24 98.708 18.84C98.708 18.4267 98.848 18.0867 99.128 17.82C99.4213 17.54 99.768 17.4 100.168 17.4C100.581 17.4 100.928 17.54 101.208 17.82C101.488 18.0867 101.628 18.4267 101.628 18.84C101.628 19.24 101.488 19.5867 101.208 19.88C100.928 20.16 100.581 20.3 100.168 20.3ZM103.228 36.52C103.015 36.52 102.821 36.5067 102.648 36.48C102.461 36.4533 102.281 36.42 102.108 36.38V34.3C102.228 34.3667 102.375 34.4267 102.548 34.48C102.721 34.5333 102.888 34.56 103.048 34.56C103.421 34.56 103.688 34.44 103.848 34.2C104.008 33.9733 104.088 33.64 104.088 33.2V21.8H106.248V33.22C106.248 34.0067 106.115 34.64 105.848 35.12C105.595 35.6 105.241 35.9533 104.788 36.18C104.335 36.4067 103.815 36.52 103.228 36.52ZM105.168 20.3C104.768 20.3 104.421 20.16 104.128 19.88C103.848 19.5867 103.708 19.24 103.708 18.84C103.708 18.4267 103.848 18.0867 104.128 17.82C104.421 17.54 104.768 17.4 105.168 17.4C105.581 17.4 105.928 17.54 106.208 17.82C106.488 18.0867 106.628 18.4267 106.628 18.84C106.628 19.24 106.488 19.5867 106.208 19.88C105.928 20.16 105.581 20.3 105.168 20.3ZM108.928 32V17.68H111.088V26.12L115.408 21.8H118.088V21.92L114.148 25.82L118.228 31.88V32H115.668L112.628 27.32L111.088 28.84V32H108.928ZM123.94 32.32C122.94 32.32 122.046 32.0867 121.26 31.62C120.473 31.1533 119.853 30.5133 119.4 29.7C118.96 28.8867 118.74 27.96 118.74 26.92C118.74 25.9467 118.953 25.0467 119.38 24.22C119.806 23.3933 120.4 22.7333 121.16 22.24C121.933 21.7333 122.82 21.48 123.82 21.48C124.873 21.48 125.766 21.7067 126.5 22.16C127.246 22.6133 127.813 23.2333 128.2 24.02C128.586 24.8067 128.78 25.6933 128.78 26.68C128.78 26.8267 128.773 26.96 128.76 27.08C128.76 27.2 128.753 27.2933 128.74 27.36H120.86C120.913 27.92 121.053 28.4067 121.28 28.82C121.573 29.34 121.96 29.7333 122.44 30C122.92 30.2667 123.44 30.4 124 30.4C124.68 30.4 125.246 30.2467 125.7 29.94C126.166 29.62 126.533 29.2267 126.8 28.76L128.58 29.62C128.14 30.42 127.54 31.0733 126.78 31.58C126.02 32.0733 125.073 32.32 123.94 32.32ZM120.98 25.74H126.64C126.626 25.4867 126.56 25.22 126.44 24.94C126.32 24.6467 126.146 24.38 125.92 24.14C125.693 23.9 125.406 23.7067 125.06 23.56C124.713 23.4 124.306 23.32 123.84 23.32C123.253 23.32 122.733 23.4733 122.28 23.78C121.826 24.0733 121.473 24.4867 121.22 25.02C121.113 25.2467 121.033 25.4867 120.98 25.74ZM130.783 32V21.8H132.823V23.2H132.943C133.237 22.7067 133.67 22.3 134.243 21.98C134.83 21.6467 135.47 21.48 136.163 21.48C137.417 21.48 138.357 21.8533 138.983 22.6C139.61 23.3333 139.923 24.32 139.923 25.56V32H137.783V25.84C137.783 25.0133 137.577 24.4133 137.163 24.04C136.75 23.6533 136.21 23.46 135.543 23.46C135.023 23.46 134.57 23.6067 134.183 23.9C133.797 24.18 133.49 24.5533 133.263 25.02C133.05 25.4867 132.943 25.9867 132.943 26.52V32H130.783ZM147.213 32V21.8H149.373V32H147.213ZM148.293 20.3C147.893 20.3 147.546 20.16 147.253 19.88C146.973 19.5867 146.833 19.24 146.833 18.84C146.833 18.4267 146.973 18.0867 147.253 17.82C147.546 17.54 147.893 17.4 148.293 17.4C148.706 17.4 149.053 17.54 149.333 17.82C149.613 18.0867 149.753 18.4267 149.753 18.84C149.753 19.24 149.613 19.5867 149.333 19.88C149.053 20.16 148.706 20.3 148.293 20.3ZM152.053 32V21.8H154.093V23.2H154.213C154.506 22.7067 154.94 22.3 155.513 21.98C156.1 21.6467 156.74 21.48 157.433 21.48C158.686 21.48 159.626 21.8533 160.253 22.6C160.88 23.3333 161.193 24.32 161.193 25.56V32H159.053V25.84C159.053 25.0133 158.846 24.4133 158.433 24.04C158.02 23.6533 157.48 23.46 156.813 23.46C156.293 23.46 155.84 23.6067 155.453 23.9C155.066 24.18 154.76 24.5533 154.533 25.02C154.32 25.4867 154.213 25.9867 154.213 26.52V32H152.053Z" fill="white"/>
<path d="M176.4 32.32C175.373 32.32 174.407 32.1333 173.5 31.76C172.593 31.3867 171.793 30.8667 171.1 30.2C170.42 29.52 169.88 28.7267 169.48 27.82C169.093 26.9 168.9 25.9067 168.9 24.84C168.9 23.7733 169.093 22.7867 169.48 21.88C169.88 20.96 170.42 20.1667 171.1 19.5C171.793 18.82 172.593 18.2933 173.5 17.92C174.407 17.5467 175.373 17.36 176.4 17.36C177.493 17.36 178.5 17.5533 179.42 17.94C180.353 18.3267 181.133 18.8667 181.76 19.56L180.24 21.06C179.933 20.7133 179.58 20.42 179.18 20.18C178.793 19.94 178.367 19.76 177.9 19.64C177.433 19.5067 176.933 19.44 176.4 19.44C175.693 19.44 175.02 19.5667 174.38 19.82C173.74 20.0733 173.173 20.44 172.68 20.92C172.2 21.3867 171.82 21.9533 171.54 22.62C171.26 23.2733 171.12 24.0133 171.12 24.84C171.12 25.6667 171.26 26.4133 171.54 27.08C171.833 27.7333 172.22 28.3 172.7 28.78C173.193 29.2467 173.76 29.6067 174.4 29.86C175.04 30.1133 175.713 30.24 176.42 30.24C177.073 30.24 177.68 30.1467 178.24 29.96C178.813 29.7733 179.313 29.5067 179.74 29.16C180.167 28.8133 180.513 28.3933 180.78 27.9C181.047 27.3933 181.213 26.8267 181.28 26.2H176.38V24.26H183.34C183.367 24.42 183.393 24.6067 183.42 24.82C183.447 25.02 183.46 25.2133 183.46 25.4V25.42C183.46 26.4467 183.28 27.3867 182.92 28.24C182.573 29.0933 182.087 29.8267 181.46 30.44C180.833 31.04 180.087 31.5067 179.22 31.84C178.367 32.16 177.427 32.32 176.4 32.32ZM189.9 32.32C188.847 32.32 187.92 32.08 187.12 31.6C186.32 31.12 185.693 30.4733 185.24 29.66C184.787 28.8333 184.56 27.9133 184.56 26.9C184.56 25.8867 184.787 24.9733 185.24 24.16C185.693 23.3333 186.32 22.68 187.12 22.2C187.92 21.72 188.847 21.48 189.9 21.48C190.94 21.48 191.86 21.7267 192.66 22.22C193.46 22.7 194.087 23.3467 194.54 24.16C194.993 24.9733 195.22 25.8867 195.22 26.9C195.22 27.9133 194.993 28.8333 194.54 29.66C194.087 30.4733 193.46 31.12 192.66 31.6C191.86 32.08 190.94 32.32 189.9 32.32ZM189.9 30.34C190.46 30.34 190.98 30.2067 191.46 29.94C191.94 29.66 192.327 29.2667 192.62 28.76C192.927 28.24 193.08 27.62 193.08 26.9C193.08 26.18 192.927 25.5667 192.62 25.06C192.327 24.54 191.94 24.1467 191.46 23.88C190.98 23.6 190.46 23.46 189.9 23.46C189.34 23.46 188.813 23.6 188.32 23.88C187.84 24.1467 187.447 24.54 187.14 25.06C186.847 25.5667 186.7 26.18 186.7 26.9C186.7 27.62 186.847 28.24 187.14 28.76C187.447 29.2667 187.847 29.66 188.34 29.94C188.833 30.2067 189.353 30.34 189.9 30.34ZM202.009 32.32C200.956 32.32 200.029 32.08 199.229 31.6C198.429 31.12 197.803 30.4733 197.349 29.66C196.896 28.8333 196.669 27.9133 196.669 26.9C196.669 25.8867 196.896 24.9733 197.349 24.16C197.803 23.3333 198.429 22.68 199.229 22.2C200.029 21.72 200.956 21.48 202.009 21.48C203.049 21.48 203.969 21.7267 204.769 22.22C205.569 22.7 206.196 23.3467 206.649 24.16C207.103 24.9733 207.329 25.8867 207.329 26.9C207.329 27.9133 207.103 28.8333 206.649 29.66C206.196 30.4733 205.569 31.12 204.769 31.6C203.969 32.08 203.049 32.32 202.009 32.32ZM202.009 30.34C202.569 30.34 203.089 30.2067 203.569 29.94C204.049 29.66 204.436 29.2667 204.729 28.76C205.036 28.24 205.189 27.62 205.189 26.9C205.189 26.18 205.036 25.5667 204.729 25.06C204.436 24.54 204.049 24.1467 203.569 23.88C203.089 23.6 202.569 23.46 202.009 23.46C201.449 23.46 200.923 23.6 200.429 23.88C199.949 24.1467 199.556 24.54 199.249 25.06C198.956 25.5667 198.809 26.18 198.809 26.9C198.809 27.62 198.956 28.24 199.249 28.76C199.556 29.2667 199.956 29.66 200.449 29.94C200.943 30.2067 201.463 30.34 202.009 30.34ZM213.919 36.64C213.025 36.64 212.252 36.4933 211.599 36.2C210.959 35.92 210.439 35.5533 210.039 35.1C209.639 34.66 209.352 34.2067 209.179 33.74L211.179 32.9C211.392 33.4333 211.732 33.8667 212.199 34.2C212.679 34.5467 213.252 34.72 213.919 34.72C214.865 34.72 215.605 34.44 216.139 33.88C216.672 33.32 216.939 32.5267 216.939 31.5V30.52H216.819C216.499 30.9867 216.059 31.3667 215.499 31.66C214.939 31.9533 214.292 32.1 213.559 32.1C212.692 32.1 211.892 31.88 211.159 31.44C210.439 31 209.859 30.3867 209.419 29.6C208.992 28.8 208.779 27.8667 208.779 26.8C208.779 25.72 208.992 24.7867 209.419 24C209.859 23.2 210.439 22.58 211.159 22.14C211.892 21.7 212.692 21.48 213.559 21.48C214.292 21.48 214.939 21.6267 215.499 21.92C216.059 22.2 216.499 22.5867 216.819 23.08H216.939V21.8H218.999V31.46C218.999 32.5667 218.779 33.5067 218.339 34.28C217.912 35.0533 217.319 35.64 216.559 36.04C215.799 36.44 214.919 36.64 213.919 36.64ZM213.939 30.14C214.472 30.14 214.965 30.0133 215.419 29.76C215.885 29.4933 216.252 29.1133 216.519 28.62C216.799 28.1133 216.939 27.5067 216.939 26.8C216.939 26.0533 216.799 25.4333 216.519 24.94C216.252 24.4467 215.885 24.0733 215.419 23.82C214.965 23.5667 214.472 23.44 213.939 23.44C213.405 23.44 212.905 23.5667 212.439 23.82C211.985 24.0733 211.619 24.4533 211.339 24.96C211.059 25.4533 210.919 26.0667 210.919 26.8C210.919 27.52 211.059 28.1333 211.339 28.64C211.619 29.1333 211.985 29.5067 212.439 29.76C212.905 30.0133 213.405 30.14 213.939 30.14ZM221.546 32V17.68H223.706V32H221.546ZM230.815 32.32C229.815 32.32 228.921 32.0867 228.135 31.62C227.348 31.1533 226.728 30.5133 226.275 29.7C225.835 28.8867 225.615 27.96 225.615 26.92C225.615 25.9467 225.828 25.0467 226.255 24.22C226.681 23.3933 227.275 22.7333 228.035 22.24C228.808 21.7333 229.695 21.48 230.695 21.48C231.748 21.48 232.641 21.7067 233.375 22.16C234.121 22.6133 234.688 23.2333 235.075 24.02C235.461 24.8067 235.655 25.6933 235.655 26.68C235.655 26.8267 235.648 26.96 235.635 27.08C235.635 27.2 235.628 27.2933 235.615 27.36H227.735C227.788 27.92 227.928 28.4067 228.155 28.82C228.448 29.34 228.835 29.7333 229.315 30C229.795 30.2667 230.315 30.4 230.875 30.4C231.555 30.4 232.121 30.2467 232.575 29.94C233.041 29.62 233.408 29.2267 233.675 28.76L235.455 29.62C235.015 30.42 234.415 31.0733 233.655 31.58C232.895 32.0733 231.948 32.32 230.815 32.32ZM227.855 25.74H233.515C233.501 25.4867 233.435 25.22 233.315 24.94C233.195 24.6467 233.021 24.38 232.795 24.14C232.568 23.9 232.281 23.7067 231.935 23.56C231.588 23.4 231.181 23.32 230.715 23.32C230.128 23.32 229.608 23.4733 229.155 23.78C228.701 24.0733 228.348 24.4867 228.095 25.02C227.988 25.2467 227.908 25.4867 227.855 25.74ZM244.446 32L240.606 17.68H243.046L245.326 26.98L245.566 28.22H245.686L245.986 26.98L248.866 17.68H251.066L253.826 26.98L254.126 28.2H254.246L254.486 26.98L256.766 17.68H259.186L255.406 32H253.086L250.346 22.5L250.026 21.16H249.906L249.566 22.5L246.706 32H244.446ZM263.202 32.32C262.469 32.32 261.816 32.1733 261.242 31.88C260.682 31.5867 260.236 31.1867 259.902 30.68C259.582 30.16 259.422 29.5667 259.422 28.9C259.422 28.1667 259.609 27.5467 259.982 27.04C260.369 26.5333 260.882 26.1467 261.522 25.88C262.162 25.6133 262.869 25.48 263.642 25.48C264.069 25.48 264.462 25.5133 264.822 25.58C265.196 25.6333 265.516 25.7 265.782 25.78C266.062 25.86 266.282 25.9467 266.442 26.04V25.5C266.442 24.8333 266.202 24.3 265.722 23.9C265.242 23.5 264.622 23.3 263.862 23.3C263.342 23.3 262.849 23.42 262.382 23.66C261.916 23.8867 261.542 24.2 261.262 24.6L259.782 23.46C260.076 23.0467 260.429 22.6933 260.842 22.4C261.269 22.1067 261.742 21.88 262.262 21.72C262.796 21.56 263.349 21.48 263.922 21.48C265.402 21.48 266.542 21.8467 267.342 22.58C268.142 23.3 268.542 24.3133 268.542 25.62V32H266.442V30.74H266.322C266.149 31.0067 265.909 31.26 265.602 31.5C265.309 31.74 264.956 31.9333 264.542 32.08C264.142 32.24 263.696 32.32 263.202 32.32ZM263.582 30.56C264.142 30.56 264.636 30.4267 265.062 30.16C265.502 29.8933 265.842 29.5467 266.082 29.12C266.322 28.68 266.442 28.2067 266.442 27.7C266.149 27.5267 265.789 27.3867 265.362 27.28C264.949 27.16 264.509 27.1 264.042 27.1C263.162 27.1 262.536 27.2733 262.162 27.62C261.789 27.9667 261.602 28.4 261.602 28.92C261.602 29.4 261.782 29.7933 262.142 30.1C262.502 30.4067 262.982 30.56 263.582 30.56ZM270.94 32V17.68H273.1V32H270.94ZM275.667 32V17.68H277.827V32H275.667ZM284.936 32.32C283.936 32.32 283.042 32.0867 282.256 31.62C281.469 31.1533 280.849 30.5133 280.396 29.7C279.956 28.8867 279.736 27.96 279.736 26.92C279.736 25.9467 279.949 25.0467 280.376 24.22C280.802 23.3933 281.396 22.7333 282.156 22.24C282.929 21.7333 283.816 21.48 284.816 21.48C285.869 21.48 286.762 21.7067 287.496 22.16C288.242 22.6133 288.809 23.2333 289.196 24.02C289.582 24.8067 289.776 25.6933 289.776 26.68C289.776 26.8267 289.769 26.96 289.756 27.08C289.756 27.2 289.749 27.2933 289.736 27.36H281.856C281.909 27.92 282.049 28.4067 282.276 28.82C282.569 29.34 282.956 29.7333 283.436 30C283.916 30.2667 284.436 30.4 284.996 30.4C285.676 30.4 286.242 30.2467 286.696 29.94C287.162 29.62 287.529 29.2267 287.796 28.76L289.576 29.62C289.136 30.42 288.536 31.0733 287.776 31.58C287.016 32.0733 286.069 32.32 284.936 32.32ZM281.976 25.74H287.636C287.622 25.4867 287.556 25.22 287.436 24.94C287.316 24.6467 287.142 24.38 286.916 24.14C286.689 23.9 286.402 23.7067 286.056 23.56C285.709 23.4 285.302 23.32 284.836 23.32C284.249 23.32 283.729 23.4733 283.276 23.78C282.822 24.0733 282.469 24.4867 282.216 25.02C282.109 25.2467 282.029 25.4867 281.976 25.74ZM290.787 21.8H292.567V18.92H294.727V21.8H297.227V23.68H294.727V28.58C294.727 29.0867 294.827 29.4733 295.027 29.74C295.24 30.0067 295.593 30.14 296.087 30.14C296.327 30.14 296.54 30.1067 296.727 30.04C296.913 29.96 297.1 29.8667 297.287 29.76V31.86C297.06 31.9533 296.82 32.0267 296.567 32.08C296.313 32.1333 296.013 32.16 295.667 32.16C294.72 32.16 293.967 31.8867 293.407 31.34C292.847 30.78 292.567 30.0133 292.567 29.04V23.68H290.787V21.8Z" fill="white"/>
</svg>
