<svg width="253" height="50" viewBox="0 0 253 50" fill="none" xmlns="http://www.w3.org/2000/svg">
<rect x="0.5" y="0.5" width="252" height="49" rx="24.5" fill="#1F1F1F"/>
<rect x="0.5" y="0.5" width="252" height="49" rx="24.5" stroke="#747775"/>
<path d="M51 22H21V17C21 14.2857 23.2018 12 25.8165 12H46.1835C48.7982 12 51 14.2857 51 17V22Z" fill="#34A853"/>
<path d="M51 26.0537H21V21.0537C21 18.3394 23.2018 16.0537 25.8165 16.0537H46.1835C48.7982 16.0537 51 18.3394 51 21.0537V26.0537Z" fill="#FBBC04"/>
<path d="M51 30.2468H21V25.2468C21 22.5325 23.2018 20.2468 25.8165 20.2468H46.1835C48.7982 20.2468 51 22.5325 51 25.2468V30.2468Z" fill="#EA4335"/>
<path d="M21 23.2752L40.0411 27.6789C42.2329 28.2294 44.6986 27.6789 46.4795 26.3028L51 23V33.3211C51 35.9358 48.8082 38 46.2055 38H25.7945C23.1918 38 21 35.9358 21 33.3211V23.2752Z" fill="#4285F4"/>
<path d="M68.78 32.32C68.02 32.32 67.2933 32.1733 66.6 31.88C65.9067 31.5733 65.2933 31.1267 64.76 30.54C64.24 29.9533 63.8533 29.2267 63.6 28.36L65.68 27.52C65.8933 28.2933 66.2667 28.94 66.8 29.46C67.3333 29.98 68 30.24 68.8 30.24C69.2533 30.24 69.6733 30.16 70.06 30C70.46 29.84 70.78 29.6067 71.02 29.3C71.26 28.98 71.38 28.5933 71.38 28.14C71.38 27.7133 71.28 27.3533 71.08 27.06C70.88 26.7533 70.56 26.48 70.12 26.24C69.68 25.9867 69.12 25.74 68.44 25.5L67.54 25.18C67.1533 25.0333 66.76 24.8533 66.36 24.64C65.96 24.4267 65.5867 24.1667 65.24 23.86C64.9067 23.54 64.64 23.1667 64.44 22.74C64.24 22.3133 64.14 21.82 64.14 21.26C64.14 20.54 64.3267 19.8867 64.7 19.3C65.0867 18.7133 65.6133 18.2467 66.28 17.9C66.96 17.54 67.7467 17.36 68.64 17.36C69.56 17.36 70.3267 17.5267 70.94 17.86C71.5667 18.18 72.0533 18.5667 72.4 19.02C72.76 19.4733 73.0067 19.9067 73.14 20.32L71.16 21.16C71.08 20.88 70.9333 20.6067 70.72 20.34C70.52 20.0733 70.2467 19.8533 69.9 19.68C69.5667 19.4933 69.1533 19.4 68.66 19.4C68.2333 19.4 67.84 19.48 67.48 19.64C67.1333 19.8 66.8533 20.02 66.64 20.3C66.4267 20.5667 66.32 20.88 66.32 21.24C66.32 21.76 66.5333 22.1867 66.96 22.52C67.3867 22.84 68.0067 23.1333 68.82 23.4L69.74 23.72C70.2067 23.88 70.6667 24.0733 71.12 24.3C71.5733 24.5133 71.9867 24.7933 72.36 25.14C72.7333 25.4733 73.0267 25.8867 73.24 26.38C73.4667 26.86 73.58 27.4333 73.58 28.1C73.58 28.8333 73.4333 29.4733 73.14 30.02C72.86 30.5533 72.48 30.9933 72 31.34C71.5333 31.6733 71.0133 31.92 70.44 32.08C69.88 32.24 69.3267 32.32 68.78 32.32ZM80.4239 32.32C79.4239 32.32 78.5306 32.0867 77.7439 31.62C76.9572 31.1533 76.3372 30.5133 75.8839 29.7C75.4439 28.8867 75.2239 27.96 75.2239 26.92C75.2239 25.9467 75.4372 25.0467 75.8639 24.22C76.2906 23.3933 76.8839 22.7333 77.6439 22.24C78.4172 21.7333 79.3039 21.48 80.3039 21.48C81.3572 21.48 82.2506 21.7067 82.9839 22.16C83.7306 22.6133 84.2972 23.2333 84.6839 24.02C85.0706 24.8067 85.2639 25.6933 85.2639 26.68C85.2639 26.8267 85.2572 26.96 85.2439 27.08C85.2439 27.2 85.2372 27.2933 85.2239 27.36H77.3439C77.3972 27.92 77.5372 28.4067 77.7639 28.82C78.0572 29.34 78.4439 29.7333 78.9239 30C79.4039 30.2667 79.9239 30.4 80.4839 30.4C81.1639 30.4 81.7306 30.2467 82.1839 29.94C82.6506 29.62 83.0172 29.2267 83.2839 28.76L85.0639 29.62C84.6239 30.42 84.0239 31.0733 83.2639 31.58C82.5039 32.0733 81.5572 32.32 80.4239 32.32ZM77.4639 25.74H83.1239C83.1106 25.4867 83.0439 25.22 82.9239 24.94C82.8039 24.6467 82.6306 24.38 82.4039 24.14C82.1772 23.9 81.8906 23.7067 81.5439 23.56C81.1972 23.4 80.7906 23.32 80.3239 23.32C79.7372 23.32 79.2172 23.4733 78.7639 23.78C78.3106 24.0733 77.9572 24.4867 77.7039 25.02C77.5972 25.2467 77.5172 25.4867 77.4639 25.74ZM92.0958 32V21.8H94.2558V32H92.0958ZM93.1758 20.3C92.7758 20.3 92.4291 20.16 92.1358 19.88C91.8558 19.5867 91.7158 19.24 91.7158 18.84C91.7158 18.4267 91.8558 18.0867 92.1358 17.82C92.4291 17.54 92.7758 17.4 93.1758 17.4C93.5891 17.4 93.9358 17.54 94.2158 17.82C94.4958 18.0867 94.6358 18.4267 94.6358 18.84C94.6358 19.24 94.4958 19.5867 94.2158 19.88C93.9358 20.16 93.5891 20.3 93.1758 20.3Z" fill="white"/>
<path d="M109.4 32.32C108.373 32.32 107.407 32.1333 106.5 31.76C105.593 31.3867 104.793 30.8667 104.1 30.2C103.42 29.52 102.88 28.7267 102.48 27.82C102.093 26.9 101.9 25.9067 101.9 24.84C101.9 23.7733 102.093 22.7867 102.48 21.88C102.88 20.96 103.42 20.1667 104.1 19.5C104.793 18.82 105.593 18.2933 106.5 17.92C107.407 17.5467 108.373 17.36 109.4 17.36C110.493 17.36 111.5 17.5533 112.42 17.94C113.353 18.3267 114.133 18.8667 114.76 19.56L113.24 21.06C112.933 20.7133 112.58 20.42 112.18 20.18C111.793 19.94 111.367 19.76 110.9 19.64C110.433 19.5067 109.933 19.44 109.4 19.44C108.693 19.44 108.02 19.5667 107.38 19.82C106.74 20.0733 106.173 20.44 105.68 20.92C105.2 21.3867 104.82 21.9533 104.54 22.62C104.26 23.2733 104.12 24.0133 104.12 24.84C104.12 25.6667 104.26 26.4133 104.54 27.08C104.833 27.7333 105.22 28.3 105.7 28.78C106.193 29.2467 106.76 29.6067 107.4 29.86C108.04 30.1133 108.713 30.24 109.42 30.24C110.073 30.24 110.68 30.1467 111.24 29.96C111.813 29.7733 112.313 29.5067 112.74 29.16C113.167 28.8133 113.513 28.3933 113.78 27.9C114.047 27.3933 114.213 26.8267 114.28 26.2H109.38V24.26H116.34C116.367 24.42 116.393 24.6067 116.42 24.82C116.447 25.02 116.46 25.2133 116.46 25.4V25.42C116.46 26.4467 116.28 27.3867 115.92 28.24C115.573 29.0933 115.087 29.8267 114.46 30.44C113.833 31.04 113.087 31.5067 112.22 31.84C111.367 32.16 110.427 32.32 109.4 32.32ZM122.9 32.32C121.847 32.32 120.92 32.08 120.12 31.6C119.32 31.12 118.693 30.4733 118.24 29.66C117.787 28.8333 117.56 27.9133 117.56 26.9C117.56 25.8867 117.787 24.9733 118.24 24.16C118.693 23.3333 119.32 22.68 120.12 22.2C120.92 21.72 121.847 21.48 122.9 21.48C123.94 21.48 124.86 21.7267 125.66 22.22C126.46 22.7 127.087 23.3467 127.54 24.16C127.993 24.9733 128.22 25.8867 128.22 26.9C128.22 27.9133 127.993 28.8333 127.54 29.66C127.087 30.4733 126.46 31.12 125.66 31.6C124.86 32.08 123.94 32.32 122.9 32.32ZM122.9 30.34C123.46 30.34 123.98 30.2067 124.46 29.94C124.94 29.66 125.327 29.2667 125.62 28.76C125.927 28.24 126.08 27.62 126.08 26.9C126.08 26.18 125.927 25.5667 125.62 25.06C125.327 24.54 124.94 24.1467 124.46 23.88C123.98 23.6 123.46 23.46 122.9 23.46C122.34 23.46 121.813 23.6 121.32 23.88C120.84 24.1467 120.447 24.54 120.14 25.06C119.847 25.5667 119.7 26.18 119.7 26.9C119.7 27.62 119.847 28.24 120.14 28.76C120.447 29.2667 120.847 29.66 121.34 29.94C121.833 30.2067 122.353 30.34 122.9 30.34ZM135.009 32.32C133.956 32.32 133.029 32.08 132.229 31.6C131.429 31.12 130.803 30.4733 130.349 29.66C129.896 28.8333 129.669 27.9133 129.669 26.9C129.669 25.8867 129.896 24.9733 130.349 24.16C130.803 23.3333 131.429 22.68 132.229 22.2C133.029 21.72 133.956 21.48 135.009 21.48C136.049 21.48 136.969 21.7267 137.769 22.22C138.569 22.7 139.196 23.3467 139.649 24.16C140.103 24.9733 140.329 25.8867 140.329 26.9C140.329 27.9133 140.103 28.8333 139.649 29.66C139.196 30.4733 138.569 31.12 137.769 31.6C136.969 32.08 136.049 32.32 135.009 32.32ZM135.009 30.34C135.569 30.34 136.089 30.2067 136.569 29.94C137.049 29.66 137.436 29.2667 137.729 28.76C138.036 28.24 138.189 27.62 138.189 26.9C138.189 26.18 138.036 25.5667 137.729 25.06C137.436 24.54 137.049 24.1467 136.569 23.88C136.089 23.6 135.569 23.46 135.009 23.46C134.449 23.46 133.923 23.6 133.429 23.88C132.949 24.1467 132.556 24.54 132.249 25.06C131.956 25.5667 131.809 26.18 131.809 26.9C131.809 27.62 131.956 28.24 132.249 28.76C132.556 29.2667 132.956 29.66 133.449 29.94C133.943 30.2067 134.463 30.34 135.009 30.34ZM146.919 36.64C146.025 36.64 145.252 36.4933 144.599 36.2C143.959 35.92 143.439 35.5533 143.039 35.1C142.639 34.66 142.352 34.2067 142.179 33.74L144.179 32.9C144.392 33.4333 144.732 33.8667 145.199 34.2C145.679 34.5467 146.252 34.72 146.919 34.72C147.865 34.72 148.605 34.44 149.139 33.88C149.672 33.32 149.939 32.5267 149.939 31.5V30.52H149.819C149.499 30.9867 149.059 31.3667 148.499 31.66C147.939 31.9533 147.292 32.1 146.559 32.1C145.692 32.1 144.892 31.88 144.159 31.44C143.439 31 142.859 30.3867 142.419 29.6C141.992 28.8 141.779 27.8667 141.779 26.8C141.779 25.72 141.992 24.7867 142.419 24C142.859 23.2 143.439 22.58 144.159 22.14C144.892 21.7 145.692 21.48 146.559 21.48C147.292 21.48 147.939 21.6267 148.499 21.92C149.059 22.2 149.499 22.5867 149.819 23.08H149.939V21.8H151.999V31.46C151.999 32.5667 151.779 33.5067 151.339 34.28C150.912 35.0533 150.319 35.64 149.559 36.04C148.799 36.44 147.919 36.64 146.919 36.64ZM146.939 30.14C147.472 30.14 147.965 30.0133 148.419 29.76C148.885 29.4933 149.252 29.1133 149.519 28.62C149.799 28.1133 149.939 27.5067 149.939 26.8C149.939 26.0533 149.799 25.4333 149.519 24.94C149.252 24.4467 148.885 24.0733 148.419 23.82C147.965 23.5667 147.472 23.44 146.939 23.44C146.405 23.44 145.905 23.5667 145.439 23.82C144.985 24.0733 144.619 24.4533 144.339 24.96C144.059 25.4533 143.919 26.0667 143.919 26.8C143.919 27.52 144.059 28.1333 144.339 28.64C144.619 29.1333 144.985 29.5067 145.439 29.76C145.905 30.0133 146.405 30.14 146.939 30.14ZM154.546 32V17.68H156.706V32H154.546ZM163.815 32.32C162.815 32.32 161.921 32.0867 161.135 31.62C160.348 31.1533 159.728 30.5133 159.275 29.7C158.835 28.8867 158.615 27.96 158.615 26.92C158.615 25.9467 158.828 25.0467 159.255 24.22C159.681 23.3933 160.275 22.7333 161.035 22.24C161.808 21.7333 162.695 21.48 163.695 21.48C164.748 21.48 165.641 21.7067 166.375 22.16C167.121 22.6133 167.688 23.2333 168.075 24.02C168.461 24.8067 168.655 25.6933 168.655 26.68C168.655 26.8267 168.648 26.96 168.635 27.08C168.635 27.2 168.628 27.2933 168.615 27.36H160.735C160.788 27.92 160.928 28.4067 161.155 28.82C161.448 29.34 161.835 29.7333 162.315 30C162.795 30.2667 163.315 30.4 163.875 30.4C164.555 30.4 165.121 30.2467 165.575 29.94C166.041 29.62 166.408 29.2267 166.675 28.76L168.455 29.62C168.015 30.42 167.415 31.0733 166.655 31.58C165.895 32.0733 164.948 32.32 163.815 32.32ZM160.855 25.74H166.515C166.501 25.4867 166.435 25.22 166.315 24.94C166.195 24.6467 166.021 24.38 165.795 24.14C165.568 23.9 165.281 23.7067 164.935 23.56C164.588 23.4 164.181 23.32 163.715 23.32C163.128 23.32 162.608 23.4733 162.155 23.78C161.701 24.0733 161.348 24.4867 161.095 25.02C160.988 25.2467 160.908 25.4867 160.855 25.74ZM177.446 32L173.606 17.68H176.046L178.326 26.98L178.566 28.22H178.686L178.986 26.98L181.866 17.68H184.066L186.826 26.98L187.126 28.2H187.246L187.486 26.98L189.766 17.68H192.186L188.406 32H186.086L183.346 22.5L183.026 21.16H182.906L182.566 22.5L179.706 32H177.446ZM196.202 32.32C195.469 32.32 194.816 32.1733 194.242 31.88C193.682 31.5867 193.236 31.1867 192.902 30.68C192.582 30.16 192.422 29.5667 192.422 28.9C192.422 28.1667 192.609 27.5467 192.982 27.04C193.369 26.5333 193.882 26.1467 194.522 25.88C195.162 25.6133 195.869 25.48 196.642 25.48C197.069 25.48 197.462 25.5133 197.822 25.58C198.196 25.6333 198.516 25.7 198.782 25.78C199.062 25.86 199.282 25.9467 199.442 26.04V25.5C199.442 24.8333 199.202 24.3 198.722 23.9C198.242 23.5 197.622 23.3 196.862 23.3C196.342 23.3 195.849 23.42 195.382 23.66C194.916 23.8867 194.542 24.2 194.262 24.6L192.782 23.46C193.076 23.0467 193.429 22.6933 193.842 22.4C194.269 22.1067 194.742 21.88 195.262 21.72C195.796 21.56 196.349 21.48 196.922 21.48C198.402 21.48 199.542 21.8467 200.342 22.58C201.142 23.3 201.542 24.3133 201.542 25.62V32H199.442V30.74H199.322C199.149 31.0067 198.909 31.26 198.602 31.5C198.309 31.74 197.956 31.9333 197.542 32.08C197.142 32.24 196.696 32.32 196.202 32.32ZM196.582 30.56C197.142 30.56 197.636 30.4267 198.062 30.16C198.502 29.8933 198.842 29.5467 199.082 29.12C199.322 28.68 199.442 28.2067 199.442 27.7C199.149 27.5267 198.789 27.3867 198.362 27.28C197.949 27.16 197.509 27.1 197.042 27.1C196.162 27.1 195.536 27.2733 195.162 27.62C194.789 27.9667 194.602 28.4 194.602 28.92C194.602 29.4 194.782 29.7933 195.142 30.1C195.502 30.4067 195.982 30.56 196.582 30.56ZM203.94 32V17.68H206.1V32H203.94ZM208.667 32V17.68H210.827V32H208.667ZM217.936 32.32C216.936 32.32 216.042 32.0867 215.256 31.62C214.469 31.1533 213.849 30.5133 213.396 29.7C212.956 28.8867 212.736 27.96 212.736 26.92C212.736 25.9467 212.949 25.0467 213.376 24.22C213.802 23.3933 214.396 22.7333 215.156 22.24C215.929 21.7333 216.816 21.48 217.816 21.48C218.869 21.48 219.762 21.7067 220.496 22.16C221.242 22.6133 221.809 23.2333 222.196 24.02C222.582 24.8067 222.776 25.6933 222.776 26.68C222.776 26.8267 222.769 26.96 222.756 27.08C222.756 27.2 222.749 27.2933 222.736 27.36H214.856C214.909 27.92 215.049 28.4067 215.276 28.82C215.569 29.34 215.956 29.7333 216.436 30C216.916 30.2667 217.436 30.4 217.996 30.4C218.676 30.4 219.242 30.2467 219.696 29.94C220.162 29.62 220.529 29.2267 220.796 28.76L222.576 29.62C222.136 30.42 221.536 31.0733 220.776 31.58C220.016 32.0733 219.069 32.32 217.936 32.32ZM214.976 25.74H220.636C220.622 25.4867 220.556 25.22 220.436 24.94C220.316 24.6467 220.142 24.38 219.916 24.14C219.689 23.9 219.402 23.7067 219.056 23.56C218.709 23.4 218.302 23.32 217.836 23.32C217.249 23.32 216.729 23.4733 216.276 23.78C215.822 24.0733 215.469 24.4867 215.216 25.02C215.109 25.2467 215.029 25.4867 214.976 25.74ZM223.787 21.8H225.567V18.92H227.727V21.8H230.227V23.68H227.727V28.58C227.727 29.0867 227.827 29.4733 228.027 29.74C228.24 30.0067 228.593 30.14 229.087 30.14C229.327 30.14 229.54 30.1067 229.727 30.04C229.913 29.96 230.1 29.8667 230.287 29.76V31.86C230.06 31.9533 229.82 32.0267 229.567 32.08C229.313 32.1333 229.013 32.16 228.667 32.16C227.72 32.16 226.967 31.8867 226.407 31.34C225.847 30.78 225.567 30.0133 225.567 29.04V23.68H223.787V21.8Z" fill="white"/>
</svg>
