<svg width="342" height="50" viewBox="0 0 342 50" fill="none" xmlns="http://www.w3.org/2000/svg">
<rect x="0.5" y="0.5" width="341" height="49" rx="24.5" fill="#1F1F1F"/>
<rect x="0.5" y="0.5" width="341" height="49" rx="24.5" stroke="#747775"/>
<path d="M51 22H21V17C21 14.2857 23.2018 12 25.8165 12H46.1835C48.7982 12 51 14.2857 51 17V22Z" fill="#34A853"/>
<path d="M51 26.0537H21V21.0537C21 18.3394 23.2018 16.0537 25.8165 16.0537H46.1835C48.7982 16.0537 51 18.3394 51 21.0537V26.0537Z" fill="#FBBC04"/>
<path d="M51 30.2468H21V25.2468C21 22.5325 23.2018 20.2468 25.8165 20.2468H46.1835C48.7982 20.2468 51 22.5325 51 25.2468V30.2468Z" fill="#EA4335"/>
<path d="M21 23.2752L40.0411 27.6789C42.2329 28.2294 44.6986 27.6789 46.4795 26.3028L51 23V33.3211C51 35.9358 48.8082 38 46.2055 38H25.7945C23.1918 38 21 35.9358 21 33.3211V23.2752Z" fill="#4285F4"/>
<path d="M67.18 32L63.34 17.68H65.78L68.06 26.98L68.3 28.22H68.42L68.72 26.98L71.6 17.68H73.8L76.56 26.98L76.86 28.2H76.98L77.22 26.98L79.5 17.68H81.92L78.14 32H75.82L73.08 22.5L72.76 21.16H72.64L72.3 22.5L69.44 32H67.18ZM86.822 35.82C86.782 35.9133 86.7354 36.0067 86.682 36.1C86.642 36.2067 86.6154 36.28 86.602 36.32H84.302C84.3687 36.1733 84.462 35.9667 84.582 35.7C84.7154 35.4333 84.842 35.1667 84.962 34.9C85.042 34.7267 85.122 34.54 85.202 34.34C85.2954 34.14 85.3887 33.9333 85.482 33.72C85.5887 33.5067 85.6887 33.3 85.782 33.1L86.542 31.44L82.282 21.8H84.682L87.602 28.76H87.702L90.522 21.8H92.902L87.622 33.96C87.5287 34.1867 87.422 34.4267 87.302 34.68C87.1954 34.9333 87.0954 35.16 87.002 35.36C86.922 35.5733 86.862 35.7267 86.822 35.82ZM97.8628 32.32C97.0495 32.32 96.3428 32.2 95.7428 31.96C95.1428 31.7067 94.6495 31.3733 94.2628 30.96C93.8761 30.5333 93.5895 30.0733 93.4028 29.58L95.3428 28.74C95.5828 29.2867 95.9228 29.7067 96.3628 30C96.8161 30.28 97.3361 30.42 97.9228 30.42C98.4561 30.42 98.9161 30.3267 99.3028 30.14C99.6895 29.94 99.8828 29.62 99.8828 29.18C99.8828 28.9 99.7895 28.6733 99.6028 28.5C99.4295 28.3133 99.1895 28.16 98.8828 28.04C98.5895 27.92 98.2495 27.8133 97.8628 27.72L96.6428 27.44C96.1628 27.32 95.7028 27.1333 95.2628 26.88C94.8361 26.6133 94.4895 26.28 94.2228 25.88C93.9561 25.48 93.8228 25.0067 93.8228 24.46C93.8228 23.8467 93.9961 23.32 94.3428 22.88C94.7028 22.4267 95.1828 22.08 95.7828 21.84C96.3828 21.6 97.0295 21.48 97.7228 21.48C98.3628 21.48 98.9428 21.5667 99.4628 21.74C99.9961 21.9 100.456 22.1467 100.843 22.48C101.243 22.8 101.556 23.2 101.783 23.68L99.9228 24.52C99.6961 24.0667 99.3895 23.7533 99.0028 23.58C98.6161 23.3933 98.1961 23.3 97.7428 23.3C97.2361 23.3 96.8095 23.4067 96.4628 23.62C96.1295 23.82 95.9628 24.0867 95.9628 24.42C95.9628 24.7667 96.1095 25.04 96.4028 25.24C96.7095 25.44 97.0828 25.6 97.5228 25.72L99.0028 26.08C100.016 26.3333 100.776 26.72 101.283 27.24C101.789 27.7467 102.043 28.3667 102.043 29.1C102.043 29.7533 101.856 30.3267 101.483 30.82C101.109 31.3 100.603 31.6733 99.9628 31.94C99.3361 32.1933 98.6361 32.32 97.8628 32.32ZM96.8428 19.84L97.7828 17.28H100.223L98.6228 19.84H96.8428ZM106.068 32L102.808 21.8H105.148L107.248 29.14H107.328L109.628 21.8H111.848L114.148 29.14H114.228L116.328 21.8H118.628L115.348 32H113.088L110.728 24.62H110.648L108.308 32H106.068ZM120.182 32V21.8H122.342V32H120.182ZM121.262 20.3C120.862 20.3 120.515 20.16 120.222 19.88C119.942 19.5867 119.802 19.24 119.802 18.84C119.802 18.4267 119.942 18.0867 120.222 17.82C120.515 17.54 120.862 17.4 121.262 17.4C121.675 17.4 122.022 17.54 122.302 17.82C122.582 18.0867 122.722 18.4267 122.722 18.84C122.722 19.24 122.582 19.5867 122.302 19.88C122.022 20.16 121.675 20.3 121.262 20.3ZM129.584 32.32C128.584 32.32 127.691 32.0867 126.904 31.62C126.117 31.1533 125.497 30.5133 125.044 29.7C124.604 28.8867 124.384 27.96 124.384 26.92C124.384 25.9467 124.597 25.0467 125.024 24.22C125.451 23.3933 126.044 22.7333 126.804 22.24C127.577 21.7333 128.464 21.48 129.464 21.48C130.517 21.48 131.411 21.7067 132.144 22.16C132.891 22.6133 133.457 23.2333 133.844 24.02C134.231 24.8067 134.424 25.6933 134.424 26.68C134.424 26.8267 134.417 26.96 134.404 27.08C134.404 27.2 134.397 27.2933 134.384 27.36H126.504C126.557 27.92 126.697 28.4067 126.924 28.82C127.217 29.34 127.604 29.7333 128.084 30C128.564 30.2667 129.084 30.4 129.644 30.4C130.324 30.4 130.891 30.2467 131.344 29.94C131.811 29.62 132.177 29.2267 132.444 28.76L134.224 29.62C133.784 30.42 133.184 31.0733 132.424 31.58C131.664 32.0733 130.717 32.32 129.584 32.32ZM126.624 25.74H132.284C132.271 25.4867 132.204 25.22 132.084 24.94C131.964 24.6467 131.791 24.38 131.564 24.14C131.337 23.9 131.051 23.7067 130.704 23.56C130.357 23.4 129.951 23.32 129.484 23.32C128.897 23.32 128.377 23.4733 127.924 23.78C127.471 24.0733 127.117 24.4867 126.864 25.02C126.757 25.2467 126.677 25.4867 126.624 25.74ZM135.435 21.8H137.215V18.92H139.375V21.8H141.875V23.68H139.375V28.58C139.375 29.0867 139.475 29.4733 139.675 29.74C139.888 30.0067 140.242 30.14 140.735 30.14C140.975 30.14 141.188 30.1067 141.375 30.04C141.562 29.96 141.748 29.8667 141.935 29.76V31.86C141.708 31.9533 141.468 32.0267 141.215 32.08C140.962 32.1333 140.662 32.16 140.315 32.16C139.368 32.16 138.615 31.8867 138.055 31.34C137.495 30.78 137.215 30.0133 137.215 29.04V23.68H135.435V21.8ZM144.065 32V17.68H146.225V32H144.065Z" fill="white"/>
<path d="M156.4 32L153.14 21.8H155.48L157.58 29.14H157.66L159.96 21.8H162.18L164.48 29.14H164.56L166.66 21.8H168.96L165.68 32H163.42L161.06 24.62H160.98L158.64 32H156.4ZM175.382 32V17.68H180.302C181.168 17.68 181.955 17.8667 182.662 18.24C183.368 18.6 183.928 19.1133 184.342 19.78C184.768 20.4333 184.982 21.1933 184.982 22.06C184.982 22.9133 184.768 23.6733 184.342 24.34C183.928 25.0067 183.368 25.5267 182.662 25.9C181.955 26.26 181.168 26.44 180.302 26.44H177.582V32H175.382ZM177.582 24.36H180.362C180.882 24.36 181.322 24.2533 181.682 24.04C182.042 23.8133 182.315 23.5267 182.502 23.18C182.702 22.82 182.802 22.4467 182.802 22.06C182.802 21.6733 182.702 21.3067 182.502 20.96C182.315 20.6133 182.042 20.3267 181.682 20.1C181.322 19.8733 180.882 19.76 180.362 19.76H177.582V24.36ZM190.974 32.32C189.921 32.32 188.994 32.08 188.194 31.6C187.394 31.12 186.767 30.4733 186.314 29.66C185.861 28.8333 185.634 27.9133 185.634 26.9C185.634 25.8867 185.861 24.9733 186.314 24.16C186.767 23.3333 187.394 22.68 188.194 22.2C188.994 21.72 189.921 21.48 190.974 21.48C192.014 21.48 192.934 21.7267 193.734 22.22C194.534 22.7 195.161 23.3467 195.614 24.16C196.067 24.9733 196.294 25.8867 196.294 26.9C196.294 27.9133 196.067 28.8333 195.614 29.66C195.161 30.4733 194.534 31.12 193.734 31.6C192.934 32.08 192.014 32.32 190.974 32.32ZM190.974 30.34C191.534 30.34 192.054 30.2067 192.534 29.94C193.014 29.66 193.401 29.2667 193.694 28.76C194.001 28.24 194.154 27.62 194.154 26.9C194.154 26.18 194.001 25.5667 193.694 25.06C193.401 24.54 193.014 24.1467 192.534 23.88C192.054 23.6 191.534 23.46 190.974 23.46C190.414 23.46 189.887 23.6 189.394 23.88C188.914 24.1467 188.521 24.54 188.214 25.06C187.921 25.5667 187.774 26.18 187.774 26.9C187.774 27.62 187.921 28.24 188.214 28.76C188.521 29.2667 188.921 29.66 189.414 29.94C189.907 30.2067 190.427 30.34 190.974 30.34ZM205.488 21.8H207.268V18.92H209.428V21.8H211.928V23.68H209.428V28.58C209.428 29.0867 209.528 29.4733 209.728 29.74C209.941 30.0067 210.295 30.14 210.788 30.14C211.028 30.14 211.241 30.1067 211.428 30.04C211.615 29.96 211.801 29.8667 211.988 29.76V31.86C211.761 31.9533 211.521 32.0267 211.268 32.08C211.015 32.1333 210.721 32.16 210.388 32.16C209.428 32.16 208.668 31.8867 208.108 31.34C207.548 30.78 207.268 30.0133 207.268 29.04V23.68H205.488V21.8ZM198.088 32V21.8H200.128V23.3H200.248C200.435 22.9267 200.681 22.6133 200.988 22.36C201.295 22.0933 201.648 21.8867 202.048 21.74C202.461 21.5933 202.881 21.52 203.308 21.52C203.508 21.52 203.668 21.5267 203.788 21.54C203.921 21.54 204.041 21.56 204.148 21.6V23.76C204.001 23.7067 203.841 23.6733 203.668 23.66C203.495 23.6333 203.295 23.62 203.068 23.62C202.508 23.62 202.015 23.7467 201.588 24C201.161 24.24 200.828 24.5867 200.588 25.04C200.361 25.4933 200.248 26.0333 200.248 26.66V32H198.088ZM213.521 23.68V21.8H215.381V20.96C215.381 20.2267 215.534 19.6067 215.841 19.1C216.148 18.58 216.568 18.1867 217.101 17.92C217.634 17.6533 218.228 17.52 218.881 17.52C219.241 17.52 219.548 17.5467 219.801 17.6C220.068 17.64 220.288 17.6933 220.461 17.76V19.86C220.288 19.7933 220.088 19.7267 219.861 19.66C219.648 19.58 219.381 19.54 219.061 19.54C218.648 19.54 218.288 19.68 217.981 19.96C217.674 20.2267 217.521 20.62 217.521 21.14V21.8H220.081V23.68H217.521V32H215.381V23.68H213.521ZM226.186 32.32C225.186 32.32 224.292 32.0867 223.506 31.62C222.719 31.1533 222.099 30.5133 221.646 29.7C221.206 28.8867 220.986 27.96 220.986 26.92C220.986 25.9467 221.199 25.0467 221.626 24.22C222.052 23.3933 222.646 22.7333 223.406 22.24C224.179 21.7333 225.066 21.48 226.066 21.48C227.119 21.48 228.012 21.7067 228.746 22.16C229.492 22.6133 230.059 23.2333 230.446 24.02C230.832 24.8067 231.026 25.6933 231.026 26.68C231.026 26.8267 231.019 26.96 231.006 27.08C231.006 27.2 230.999 27.2933 230.986 27.36H223.106C223.159 27.92 223.299 28.4067 223.526 28.82C223.819 29.34 224.206 29.7333 224.686 30C225.166 30.2667 225.686 30.4 226.246 30.4C226.926 30.4 227.492 30.2467 227.946 29.94C228.412 29.62 228.779 29.2267 229.046 28.76L230.826 29.62C230.386 30.42 229.786 31.0733 229.026 31.58C228.266 32.0733 227.319 32.32 226.186 32.32ZM223.226 25.74H228.886C228.872 25.4867 228.806 25.22 228.686 24.94C228.566 24.6467 228.392 24.38 228.166 24.14C227.939 23.9 227.652 23.7067 227.306 23.56C226.959 23.4 226.552 23.32 226.086 23.32C225.499 23.32 224.979 23.4733 224.526 23.78C224.072 24.0733 223.719 24.4867 223.466 25.02C223.359 25.2467 223.279 25.4867 223.226 25.74ZM233.05 32V17.68H235.21V32H233.05ZM241.456 32.32C240.203 32.32 239.256 31.9467 238.616 31.2C237.989 30.44 237.676 29.4133 237.676 28.12V21.8H239.836V27.82C239.836 28.6733 240.036 29.3067 240.436 29.72C240.849 30.1333 241.363 30.34 241.976 30.34C242.536 30.34 243.016 30.2 243.416 29.92C243.816 29.6267 244.123 29.2467 244.336 28.78C244.563 28.3133 244.676 27.8133 244.676 27.28V21.8H246.816V32H244.796V30.62H244.676C244.489 30.94 244.229 31.2267 243.896 31.48C243.563 31.7333 243.189 31.9333 242.776 32.08C242.363 32.24 241.923 32.32 241.456 32.32ZM260.775 32.32C259.748 32.32 258.782 32.1333 257.875 31.76C256.968 31.3867 256.168 30.8667 255.475 30.2C254.795 29.52 254.255 28.7267 253.855 27.82C253.468 26.9 253.275 25.9067 253.275 24.84C253.275 23.7733 253.468 22.7867 253.855 21.88C254.255 20.96 254.795 20.1667 255.475 19.5C256.168 18.82 256.968 18.2933 257.875 17.92C258.782 17.5467 259.748 17.36 260.775 17.36C261.868 17.36 262.875 17.5533 263.795 17.94C264.728 18.3267 265.508 18.8667 266.135 19.56L264.615 21.06C264.308 20.7133 263.955 20.42 263.555 20.18C263.168 19.94 262.742 19.76 262.275 19.64C261.808 19.5067 261.308 19.44 260.775 19.44C260.068 19.44 259.395 19.5667 258.755 19.82C258.115 20.0733 257.548 20.44 257.055 20.92C256.575 21.3867 256.195 21.9533 255.915 22.62C255.635 23.2733 255.495 24.0133 255.495 24.84C255.495 25.6667 255.635 26.4133 255.915 27.08C256.208 27.7333 256.595 28.3 257.075 28.78C257.568 29.2467 258.135 29.6067 258.775 29.86C259.415 30.1133 260.088 30.24 260.795 30.24C261.448 30.24 262.055 30.1467 262.615 29.96C263.188 29.7733 263.688 29.5067 264.115 29.16C264.542 28.8133 264.888 28.3933 265.155 27.9C265.422 27.3933 265.588 26.8267 265.655 26.2H260.755V24.26H267.715C267.742 24.42 267.768 24.6067 267.795 24.82C267.822 25.02 267.835 25.2133 267.835 25.4V25.42C267.835 26.4467 267.655 27.3867 267.295 28.24C266.948 29.0933 266.462 29.8267 265.835 30.44C265.208 31.04 264.462 31.5067 263.595 31.84C262.742 32.16 261.802 32.32 260.775 32.32ZM274.275 32.32C273.222 32.32 272.295 32.08 271.495 31.6C270.695 31.12 270.068 30.4733 269.615 29.66C269.162 28.8333 268.935 27.9133 268.935 26.9C268.935 25.8867 269.162 24.9733 269.615 24.16C270.068 23.3333 270.695 22.68 271.495 22.2C272.295 21.72 273.222 21.48 274.275 21.48C275.315 21.48 276.235 21.7267 277.035 22.22C277.835 22.7 278.462 23.3467 278.915 24.16C279.368 24.9733 279.595 25.8867 279.595 26.9C279.595 27.9133 279.368 28.8333 278.915 29.66C278.462 30.4733 277.835 31.12 277.035 31.6C276.235 32.08 275.315 32.32 274.275 32.32ZM274.275 30.34C274.835 30.34 275.355 30.2067 275.835 29.94C276.315 29.66 276.702 29.2667 276.995 28.76C277.302 28.24 277.455 27.62 277.455 26.9C277.455 26.18 277.302 25.5667 276.995 25.06C276.702 24.54 276.315 24.1467 275.835 23.88C275.355 23.6 274.835 23.46 274.275 23.46C273.715 23.46 273.188 23.6 272.695 23.88C272.215 24.1467 271.822 24.54 271.515 25.06C271.222 25.5667 271.075 26.18 271.075 26.9C271.075 27.62 271.222 28.24 271.515 28.76C271.822 29.2667 272.222 29.66 272.715 29.94C273.208 30.2067 273.728 30.34 274.275 30.34ZM286.384 32.32C285.331 32.32 284.404 32.08 283.604 31.6C282.804 31.12 282.178 30.4733 281.724 29.66C281.271 28.8333 281.044 27.9133 281.044 26.9C281.044 25.8867 281.271 24.9733 281.724 24.16C282.178 23.3333 282.804 22.68 283.604 22.2C284.404 21.72 285.331 21.48 286.384 21.48C287.424 21.48 288.344 21.7267 289.144 22.22C289.944 22.7 290.571 23.3467 291.024 24.16C291.478 24.9733 291.704 25.8867 291.704 26.9C291.704 27.9133 291.478 28.8333 291.024 29.66C290.571 30.4733 289.944 31.12 289.144 31.6C288.344 32.08 287.424 32.32 286.384 32.32ZM286.384 30.34C286.944 30.34 287.464 30.2067 287.944 29.94C288.424 29.66 288.811 29.2667 289.104 28.76C289.411 28.24 289.564 27.62 289.564 26.9C289.564 26.18 289.411 25.5667 289.104 25.06C288.811 24.54 288.424 24.1467 287.944 23.88C287.464 23.6 286.944 23.46 286.384 23.46C285.824 23.46 285.298 23.6 284.804 23.88C284.324 24.1467 283.931 24.54 283.624 25.06C283.331 25.5667 283.184 26.18 283.184 26.9C283.184 27.62 283.331 28.24 283.624 28.76C283.931 29.2667 284.331 29.66 284.824 29.94C285.318 30.2067 285.838 30.34 286.384 30.34ZM298.294 36.64C297.4 36.64 296.627 36.4933 295.974 36.2C295.334 35.92 294.814 35.5533 294.414 35.1C294.014 34.66 293.727 34.2067 293.554 33.74L295.554 32.9C295.767 33.4333 296.107 33.8667 296.574 34.2C297.054 34.5467 297.627 34.72 298.294 34.72C299.24 34.72 299.98 34.44 300.514 33.88C301.047 33.32 301.314 32.5267 301.314 31.5V30.52H301.194C300.874 30.9867 300.434 31.3667 299.874 31.66C299.314 31.9533 298.667 32.1 297.934 32.1C297.067 32.1 296.267 31.88 295.534 31.44C294.814 31 294.234 30.3867 293.794 29.6C293.367 28.8 293.154 27.8667 293.154 26.8C293.154 25.72 293.367 24.7867 293.794 24C294.234 23.2 294.814 22.58 295.534 22.14C296.267 21.7 297.067 21.48 297.934 21.48C298.667 21.48 299.314 21.6267 299.874 21.92C300.434 22.2 300.874 22.5867 301.194 23.08H301.314V21.8H303.374V31.46C303.374 32.5667 303.154 33.5067 302.714 34.28C302.287 35.0533 301.694 35.64 300.934 36.04C300.174 36.44 299.294 36.64 298.294 36.64ZM298.314 30.14C298.847 30.14 299.34 30.0133 299.794 29.76C300.26 29.4933 300.627 29.1133 300.894 28.62C301.174 28.1133 301.314 27.5067 301.314 26.8C301.314 26.0533 301.174 25.4333 300.894 24.94C300.627 24.4467 300.26 24.0733 299.794 23.82C299.34 23.5667 298.847 23.44 298.314 23.44C297.78 23.44 297.28 23.5667 296.814 23.82C296.36 24.0733 295.994 24.4533 295.714 24.96C295.434 25.4533 295.294 26.0667 295.294 26.8C295.294 27.52 295.434 28.1333 295.714 28.64C295.994 29.1333 296.36 29.5067 296.814 29.76C297.28 30.0133 297.78 30.14 298.314 30.14ZM305.921 32V17.68H308.081V32H305.921ZM315.19 32.32C314.19 32.32 313.296 32.0867 312.51 31.62C311.723 31.1533 311.103 30.5133 310.65 29.7C310.21 28.8867 309.99 27.96 309.99 26.92C309.99 25.9467 310.203 25.0467 310.63 24.22C311.056 23.3933 311.65 22.7333 312.41 22.24C313.183 21.7333 314.07 21.48 315.07 21.48C316.123 21.48 317.016 21.7067 317.75 22.16C318.496 22.6133 319.063 23.2333 319.45 24.02C319.836 24.8067 320.03 25.6933 320.03 26.68C320.03 26.8267 320.023 26.96 320.01 27.08C320.01 27.2 320.003 27.2933 319.99 27.36H312.11C312.163 27.92 312.303 28.4067 312.53 28.82C312.823 29.34 313.21 29.7333 313.69 30C314.17 30.2667 314.69 30.4 315.25 30.4C315.93 30.4 316.496 30.2467 316.95 29.94C317.416 29.62 317.783 29.2267 318.05 28.76L319.83 29.62C319.39 30.42 318.79 31.0733 318.03 31.58C317.27 32.0733 316.323 32.32 315.19 32.32ZM312.23 25.74H317.89C317.876 25.4867 317.81 25.22 317.69 24.94C317.57 24.6467 317.396 24.38 317.17 24.14C316.943 23.9 316.656 23.7067 316.31 23.56C315.963 23.4 315.556 23.32 315.09 23.32C314.503 23.32 313.983 23.4733 313.53 23.78C313.076 24.0733 312.723 24.4867 312.47 25.02C312.363 25.2467 312.283 25.4867 312.23 25.74Z" fill="white"/>
</svg>
