<svg width="342" height="50" viewBox="0 0 342 50" fill="none" xmlns="http://www.w3.org/2000/svg">
<rect x="0.5" y="0.5" width="341" height="49" rx="24.5" fill="#1F1F1F"/>
<rect x="0.5" y="0.5" width="341" height="49" rx="24.5" stroke="#747775"/>
<path d="M51 22H21V17C21 14.2857 23.2018 12 25.8165 12H46.1835C48.7982 12 51 14.2857 51 17V22Z" fill="#34A853"/>
<path d="M51 26.0537H21V21.0537C21 18.3394 23.2018 16.0537 25.8165 16.0537H46.1835C48.7982 16.0537 51 18.3394 51 21.0537V26.0537Z" fill="#FBBC04"/>
<path d="M51 30.2468H21V25.2468C21 22.5325 23.2018 20.2468 25.8165 20.2468H46.1835C48.7982 20.2468 51 22.5325 51 25.2468V30.2468Z" fill="#EA4335"/>
<path d="M21 23.2752L40.0411 27.6789C42.2329 28.2294 44.6986 27.6789 46.4795 26.3028L51 23V33.3211C51 35.9358 48.8082 38 46.2055 38H25.7945C23.1918 38 21 35.9358 21 33.3211V23.2752Z" fill="#4285F4"/>
<path d="M63.3 32L68.7 17.68H71.2L76.62 32H74.2L72.88 28.32H67.04L65.72 32H63.3ZM72.14 26.28L70.56 21.9L70.02 20.26H69.9L69.36 21.9L67.78 26.28H72.14ZM83.6258 32.32C83.1058 32.32 82.6324 32.24 82.2058 32.08C81.7791 31.92 81.4058 31.7133 81.0858 31.46C80.7791 31.1933 80.5324 30.92 80.3458 30.64H80.2258V32H78.1858V17.68H80.3458V21.76L80.2258 23.18H80.3458C80.5324 22.8867 80.7791 22.6133 81.0858 22.36C81.4058 22.0933 81.7791 21.88 82.2058 21.72C82.6324 21.56 83.1058 21.48 83.6258 21.48C84.5591 21.48 85.3924 21.7133 86.1258 22.18C86.8591 22.6467 87.4391 23.2867 87.8658 24.1C88.3058 24.9133 88.5258 25.8467 88.5258 26.9C88.5258 27.9533 88.3058 28.8867 87.8658 29.7C87.4391 30.5133 86.8591 31.1533 86.1258 31.62C85.3924 32.0867 84.5591 32.32 83.6258 32.32ZM83.3058 30.34C83.8391 30.34 84.3391 30.2 84.8058 29.92C85.2858 29.64 85.6658 29.24 85.9458 28.72C86.2391 28.2 86.3858 27.5933 86.3858 26.9C86.3858 26.1933 86.2391 25.5867 85.9458 25.08C85.6658 24.56 85.2858 24.16 84.8058 23.88C84.3391 23.6 83.8391 23.46 83.3058 23.46C82.7724 23.46 82.2724 23.6 81.8058 23.88C81.3391 24.16 80.9591 24.56 80.6658 25.08C80.3724 25.5867 80.2258 26.1933 80.2258 26.9C80.2258 27.6067 80.3724 28.22 80.6658 28.74C80.9591 29.2467 81.3391 29.64 81.8058 29.92C82.2724 30.2 82.7724 30.34 83.3058 30.34ZM90.3147 32V21.8H92.3547V23.3H92.4747C92.6347 22.9533 92.8614 22.6467 93.1547 22.38C93.4614 22.1133 93.808 21.9 94.1947 21.74C94.5947 21.58 95.008 21.5 95.4347 21.5C95.7147 21.5 95.948 21.52 96.1347 21.56C96.3347 21.5867 96.5147 21.6333 96.6747 21.7V23.94C96.4214 23.8333 96.1614 23.7467 95.8947 23.68C95.6414 23.6133 95.3747 23.58 95.0947 23.58C94.588 23.58 94.1347 23.72 93.7347 24C93.348 24.2667 93.0414 24.6267 92.8147 25.08C92.588 25.5333 92.4747 26.04 92.4747 26.6V32H90.3147ZM98.502 32V21.8H100.662V32H98.502ZM99.582 20.3C99.182 20.3 98.8354 20.16 98.542 19.88C98.262 19.5867 98.122 19.24 98.122 18.84C98.122 18.4267 98.262 18.0867 98.542 17.82C98.8354 17.54 99.182 17.4 99.582 17.4C99.9954 17.4 100.342 17.54 100.622 17.82C100.902 18.0867 101.042 18.4267 101.042 18.84C101.042 19.24 100.902 19.5867 100.622 19.88C100.342 20.16 99.9954 20.3 99.582 20.3ZM103.342 32V21.8H105.382V23.3H105.502C105.662 22.9533 105.889 22.6467 106.182 22.38C106.489 22.1133 106.835 21.9 107.222 21.74C107.622 21.58 108.035 21.5 108.462 21.5C108.742 21.5 108.975 21.52 109.162 21.56C109.362 21.5867 109.542 21.6333 109.702 21.7V23.94C109.449 23.8333 109.189 23.7467 108.922 23.68C108.669 23.6133 108.402 23.58 108.122 23.58C107.615 23.58 107.162 23.72 106.762 24C106.375 24.2667 106.069 24.6267 105.842 25.08C105.615 25.5333 105.502 26.04 105.502 26.6V32H103.342ZM116.037 32V21.8H118.077V23.2H118.197C118.491 22.7067 118.924 22.3 119.497 21.98C120.084 21.6467 120.724 21.48 121.417 21.48C122.671 21.48 123.611 21.8533 124.237 22.6C124.864 23.3333 125.177 24.32 125.177 25.56V32H123.037V25.84C123.037 25.0133 122.831 24.4133 122.417 24.04C122.004 23.6533 121.464 23.46 120.797 23.46C120.277 23.46 119.824 23.6067 119.437 23.9C119.051 24.18 118.744 24.5533 118.517 25.02C118.304 25.4867 118.197 25.9867 118.197 26.52V32H116.037ZM130.741 32.32C130.008 32.32 129.355 32.1733 128.781 31.88C128.221 31.5867 127.775 31.1867 127.441 30.68C127.121 30.16 126.961 29.5667 126.961 28.9C126.961 28.1667 127.148 27.5467 127.521 27.04C127.908 26.5333 128.421 26.1467 129.061 25.88C129.701 25.6133 130.408 25.48 131.181 25.48C131.608 25.48 132.001 25.5133 132.361 25.58C132.735 25.6333 133.055 25.7 133.321 25.78C133.601 25.86 133.821 25.9467 133.981 26.04V25.5C133.981 24.8333 133.741 24.3 133.261 23.9C132.781 23.5 132.161 23.3 131.401 23.3C130.881 23.3 130.388 23.42 129.921 23.66C129.455 23.8867 129.081 24.2 128.801 24.6L127.321 23.46C127.615 23.0467 127.968 22.6933 128.381 22.4C128.808 22.1067 129.281 21.88 129.801 21.72C130.335 21.56 130.888 21.48 131.461 21.48C132.941 21.48 134.081 21.8467 134.881 22.58C135.681 23.3 136.081 24.3133 136.081 25.62V32H133.981V30.74H133.861C133.688 31.0067 133.448 31.26 133.141 31.5C132.848 31.74 132.495 31.9333 132.081 32.08C131.681 32.24 131.235 32.32 130.741 32.32ZM131.121 30.56C131.681 30.56 132.175 30.4267 132.601 30.16C133.041 29.8933 133.381 29.5467 133.621 29.12C133.861 28.68 133.981 28.2067 133.981 27.7C133.688 27.5267 133.328 27.3867 132.901 27.28C132.488 27.16 132.048 27.1 131.581 27.1C130.701 27.1 130.075 27.2733 129.701 27.62C129.328 27.9667 129.141 28.4 129.141 28.92C129.141 29.4 129.321 29.7933 129.681 30.1C130.041 30.4067 130.521 30.56 131.121 30.56Z" fill="white"/>
<path d="M151.36 32.32C150.307 32.32 149.327 32.1333 148.42 31.76C147.513 31.3733 146.72 30.8467 146.04 30.18C145.373 29.5 144.847 28.7067 144.46 27.8C144.087 26.88 143.9 25.8933 143.9 24.84C143.9 23.7733 144.087 22.7867 144.46 21.88C144.847 20.9733 145.373 20.1867 146.04 19.52C146.72 18.84 147.513 18.3133 148.42 17.94C149.327 17.5533 150.307 17.36 151.36 17.36C152.107 17.36 152.8 17.4533 153.44 17.64C154.08 17.8267 154.667 18.0933 155.2 18.44C155.733 18.7867 156.22 19.2067 156.66 19.7L155.12 21.2C154.8 20.8133 154.453 20.4933 154.08 20.24C153.707 19.9733 153.293 19.7733 152.84 19.64C152.4 19.5067 151.913 19.44 151.38 19.44C150.42 19.44 149.54 19.6667 148.74 20.12C147.94 20.56 147.3 21.18 146.82 21.98C146.353 22.78 146.12 23.7333 146.12 24.84C146.12 25.9333 146.353 26.8867 146.82 27.7C147.3 28.5 147.94 29.1267 148.74 29.58C149.54 30.02 150.42 30.24 151.38 30.24C151.967 30.24 152.5 30.16 152.98 30C153.473 29.84 153.927 29.6067 154.34 29.3C154.753 28.9933 155.133 28.6333 155.48 28.22L157.06 29.74C156.62 30.26 156.107 30.7133 155.52 31.1C154.933 31.4867 154.293 31.7867 153.6 32C152.907 32.2133 152.16 32.32 151.36 32.32ZM161.972 32.32C161.238 32.32 160.585 32.1733 160.012 31.88C159.452 31.5867 159.005 31.1867 158.672 30.68C158.352 30.16 158.192 29.5667 158.192 28.9C158.192 28.1667 158.378 27.5467 158.752 27.04C159.138 26.5333 159.652 26.1467 160.292 25.88C160.932 25.6133 161.638 25.48 162.412 25.48C162.838 25.48 163.232 25.5133 163.592 25.58C163.965 25.6333 164.285 25.7 164.552 25.78C164.832 25.86 165.052 25.9467 165.212 26.04V25.5C165.212 24.8333 164.972 24.3 164.492 23.9C164.012 23.5 163.392 23.3 162.632 23.3C162.112 23.3 161.618 23.42 161.152 23.66C160.685 23.8867 160.312 24.2 160.032 24.6L158.552 23.46C158.845 23.0467 159.198 22.6933 159.612 22.4C160.038 22.1067 160.512 21.88 161.032 21.72C161.565 21.56 162.118 21.48 162.692 21.48C164.172 21.48 165.312 21.8467 166.112 22.58C166.912 23.3 167.312 24.3133 167.312 25.62V32H165.212V30.74H165.092C164.918 31.0067 164.678 31.26 164.372 31.5C164.078 31.74 163.725 31.9333 163.312 32.08C162.912 32.24 162.465 32.32 161.972 32.32ZM162.352 30.56C162.912 30.56 163.405 30.4267 163.832 30.16C164.272 29.8933 164.612 29.5467 164.852 29.12C165.092 28.68 165.212 28.2067 165.212 27.7C164.918 27.5267 164.558 27.3867 164.132 27.28C163.718 27.16 163.278 27.1 162.812 27.1C161.932 27.1 161.305 27.2733 160.932 27.62C160.558 27.9667 160.372 28.4 160.372 28.92C160.372 29.4 160.552 29.7933 160.912 30.1C161.272 30.4067 161.752 30.56 162.352 30.56ZM177.09 21.8H178.87V18.92H181.03V21.8H183.53V23.68H181.03V28.58C181.03 29.0867 181.13 29.4733 181.33 29.74C181.543 30.0067 181.896 30.14 182.39 30.14C182.63 30.14 182.843 30.1067 183.03 30.04C183.216 29.96 183.403 29.8667 183.59 29.76V31.86C183.363 31.9533 183.123 32.0267 182.87 32.08C182.616 32.1333 182.323 32.16 181.99 32.16C181.03 32.16 180.27 31.8867 179.71 31.34C179.15 30.78 178.87 30.0133 178.87 29.04V23.68H177.09V21.8ZM169.69 32V21.8H171.73V23.3H171.85C172.036 22.9267 172.283 22.6133 172.59 22.36C172.896 22.0933 173.25 21.8867 173.65 21.74C174.063 21.5933 174.483 21.52 174.91 21.52C175.11 21.52 175.27 21.5267 175.39 21.54C175.523 21.54 175.643 21.56 175.75 21.6V23.76C175.603 23.7067 175.443 23.6733 175.27 23.66C175.096 23.6333 174.896 23.62 174.67 23.62C174.11 23.62 173.616 23.7467 173.19 24C172.763 24.24 172.43 24.5867 172.19 25.04C171.963 25.4933 171.85 26.0333 171.85 26.66V32H169.69ZM189.897 32.32C188.897 32.32 188.003 32.0867 187.217 31.62C186.43 31.1533 185.81 30.5133 185.357 29.7C184.917 28.8867 184.697 27.96 184.697 26.92C184.697 25.9467 184.91 25.0467 185.337 24.22C185.763 23.3933 186.357 22.7333 187.117 22.24C187.89 21.7333 188.777 21.48 189.777 21.48C190.83 21.48 191.723 21.7067 192.457 22.16C193.203 22.6133 193.77 23.2333 194.157 24.02C194.543 24.8067 194.737 25.6933 194.737 26.68C194.737 26.8267 194.73 26.96 194.717 27.08C194.717 27.2 194.71 27.2933 194.697 27.36H186.817C186.87 27.92 187.01 28.4067 187.237 28.82C187.53 29.34 187.917 29.7333 188.397 30C188.877 30.2667 189.397 30.4 189.957 30.4C190.637 30.4 191.203 30.2467 191.657 29.94C192.123 29.62 192.49 29.2267 192.757 28.76L194.537 29.62C194.097 30.42 193.497 31.0733 192.737 31.58C191.977 32.0733 191.03 32.32 189.897 32.32ZM186.937 25.74H192.597C192.583 25.4867 192.517 25.22 192.397 24.94C192.277 24.6467 192.103 24.38 191.877 24.14C191.65 23.9 191.363 23.7067 191.017 23.56C190.67 23.4 190.263 23.32 189.797 23.32C189.21 23.32 188.69 23.4733 188.237 23.78C187.783 24.0733 187.43 24.4867 187.177 25.02C187.07 25.2467 186.99 25.4867 186.937 25.74ZM196.9 32V21.8H199.06V32H196.9ZM197.98 20.3C197.58 20.3 197.234 20.16 196.94 19.88C196.66 19.5867 196.52 19.24 196.52 18.84C196.52 18.4267 196.66 18.0867 196.94 17.82C197.234 17.54 197.58 17.4 197.98 17.4C198.394 17.4 198.74 17.54 199.02 17.82C199.3 18.0867 199.44 18.4267 199.44 18.84C199.44 19.24 199.3 19.5867 199.02 19.88C198.74 20.16 198.394 20.3 197.98 20.3ZM201.74 32V21.8H203.78V23.3H203.9C204.06 22.9533 204.287 22.6467 204.58 22.38C204.887 22.1133 205.234 21.9 205.62 21.74C206.02 21.58 206.434 21.5 206.86 21.5C207.14 21.5 207.374 21.52 207.56 21.56C207.76 21.5867 207.94 21.6333 208.1 21.7V23.94C207.847 23.8333 207.587 23.7467 207.32 23.68C207.067 23.6133 206.8 23.58 206.52 23.58C206.014 23.58 205.56 23.72 205.16 24C204.774 24.2667 204.467 24.6267 204.24 25.08C204.014 25.5333 203.9 26.04 203.9 26.6V32H201.74ZM212.616 32.32C211.883 32.32 211.23 32.1733 210.656 31.88C210.096 31.5867 209.65 31.1867 209.316 30.68C208.996 30.16 208.836 29.5667 208.836 28.9C208.836 28.1667 209.023 27.5467 209.396 27.04C209.783 26.5333 210.296 26.1467 210.936 25.88C211.576 25.6133 212.283 25.48 213.056 25.48C213.483 25.48 213.876 25.5133 214.236 25.58C214.61 25.6333 214.93 25.7 215.196 25.78C215.476 25.86 215.696 25.9467 215.856 26.04V25.5C215.856 24.8333 215.616 24.3 215.136 23.9C214.656 23.5 214.036 23.3 213.276 23.3C212.756 23.3 212.263 23.42 211.796 23.66C211.33 23.8867 210.956 24.2 210.676 24.6L209.196 23.46C209.49 23.0467 209.843 22.6933 210.256 22.4C210.683 22.1067 211.156 21.88 211.676 21.72C212.21 21.56 212.763 21.48 213.336 21.48C214.816 21.48 215.956 21.8467 216.756 22.58C217.556 23.3 217.956 24.3133 217.956 25.62V32H215.856V30.74H215.736C215.563 31.0067 215.323 31.26 215.016 31.5C214.723 31.74 214.37 31.9333 213.956 32.08C213.556 32.24 213.11 32.32 212.616 32.32ZM212.996 30.56C213.556 30.56 214.05 30.4267 214.476 30.16C214.916 29.8933 215.256 29.5467 215.496 29.12C215.736 28.68 215.856 28.2067 215.856 27.7C215.563 27.5267 215.203 27.3867 214.776 27.28C214.363 27.16 213.923 27.1 213.456 27.1C212.576 27.1 211.95 27.2733 211.576 27.62C211.203 27.9667 211.016 28.4 211.016 28.92C211.016 29.4 211.196 29.7933 211.556 30.1C211.916 30.4067 212.396 30.56 212.996 30.56ZM229.362 32.32C228.442 32.32 227.609 32.0867 226.862 31.62C226.116 31.1533 225.529 30.5133 225.102 29.7C224.676 28.8867 224.462 27.9533 224.462 26.9C224.462 25.8467 224.676 24.9133 225.102 24.1C225.529 23.2867 226.116 22.6467 226.862 22.18C227.609 21.7133 228.442 21.48 229.362 21.48C229.896 21.48 230.376 21.56 230.802 21.72C231.229 21.88 231.596 22.0933 231.902 22.36C232.222 22.6133 232.469 22.8867 232.642 23.18H232.762L232.642 21.76V17.68H234.782V32H232.762V30.64H232.642C232.469 30.92 232.222 31.1933 231.902 31.46C231.596 31.7133 231.229 31.92 230.802 32.08C230.376 32.24 229.896 32.32 229.362 32.32ZM229.682 30.34C230.216 30.34 230.716 30.2 231.182 29.92C231.662 29.64 232.042 29.2467 232.322 28.74C232.616 28.22 232.762 27.6067 232.762 26.9C232.762 26.1933 232.616 25.5867 232.322 25.08C232.042 24.56 231.662 24.16 231.182 23.88C230.716 23.6 230.216 23.46 229.682 23.46C229.149 23.46 228.649 23.6 228.182 23.88C227.716 24.16 227.336 24.56 227.042 25.08C226.749 25.5867 226.602 26.1933 226.602 26.9C226.602 27.5933 226.749 28.2 227.042 28.72C227.336 29.24 227.716 29.64 228.182 29.92C228.649 30.2 229.149 30.34 229.682 30.34ZM242.029 32.32C240.975 32.32 240.049 32.08 239.249 31.6C238.449 31.12 237.822 30.4733 237.369 29.66C236.915 28.8333 236.689 27.9133 236.689 26.9C236.689 25.8867 236.915 24.9733 237.369 24.16C237.822 23.3333 238.449 22.68 239.249 22.2C240.049 21.72 240.975 21.48 242.029 21.48C243.069 21.48 243.989 21.7267 244.789 22.22C245.589 22.7 246.215 23.3467 246.669 24.16C247.122 24.9733 247.349 25.8867 247.349 26.9C247.349 27.9133 247.122 28.8333 246.669 29.66C246.215 30.4733 245.589 31.12 244.789 31.6C243.989 32.08 243.069 32.32 242.029 32.32ZM242.029 30.34C242.589 30.34 243.109 30.2067 243.589 29.94C244.069 29.66 244.455 29.2667 244.749 28.76C245.055 28.24 245.209 27.62 245.209 26.9C245.209 26.18 245.055 25.5667 244.749 25.06C244.455 24.54 244.069 24.1467 243.589 23.88C243.109 23.6 242.589 23.46 242.029 23.46C241.469 23.46 240.942 23.6 240.449 23.88C239.969 24.1467 239.575 24.54 239.269 25.06C238.975 25.5667 238.829 26.18 238.829 26.9C238.829 27.62 238.975 28.24 239.269 28.76C239.575 29.2667 239.975 29.66 240.469 29.94C240.962 30.2067 241.482 30.34 242.029 30.34ZM260.755 32.32C259.729 32.32 258.762 32.1333 257.855 31.76C256.949 31.3867 256.149 30.8667 255.455 30.2C254.775 29.52 254.235 28.7267 253.835 27.82C253.449 26.9 253.255 25.9067 253.255 24.84C253.255 23.7733 253.449 22.7867 253.835 21.88C254.235 20.96 254.775 20.1667 255.455 19.5C256.149 18.82 256.949 18.2933 257.855 17.92C258.762 17.5467 259.729 17.36 260.755 17.36C261.849 17.36 262.855 17.5533 263.775 17.94C264.709 18.3267 265.489 18.8667 266.115 19.56L264.595 21.06C264.289 20.7133 263.935 20.42 263.535 20.18C263.149 19.94 262.722 19.76 262.255 19.64C261.789 19.5067 261.289 19.44 260.755 19.44C260.049 19.44 259.375 19.5667 258.735 19.82C258.095 20.0733 257.529 20.44 257.035 20.92C256.555 21.3867 256.175 21.9533 255.895 22.62C255.615 23.2733 255.475 24.0133 255.475 24.84C255.475 25.6667 255.615 26.4133 255.895 27.08C256.189 27.7333 256.575 28.3 257.055 28.78C257.549 29.2467 258.115 29.6067 258.755 29.86C259.395 30.1133 260.069 30.24 260.775 30.24C261.429 30.24 262.035 30.1467 262.595 29.96C263.169 29.7733 263.669 29.5067 264.095 29.16C264.522 28.8133 264.869 28.3933 265.135 27.9C265.402 27.3933 265.569 26.8267 265.635 26.2H260.735V24.26H267.695C267.722 24.42 267.749 24.6067 267.775 24.82C267.802 25.02 267.815 25.2133 267.815 25.4V25.42C267.815 26.4467 267.635 27.3867 267.275 28.24C266.929 29.0933 266.442 29.8267 265.815 30.44C265.189 31.04 264.442 31.5067 263.575 31.84C262.722 32.16 261.782 32.32 260.755 32.32ZM274.255 32.32C273.202 32.32 272.275 32.08 271.475 31.6C270.675 31.12 270.049 30.4733 269.595 29.66C269.142 28.8333 268.915 27.9133 268.915 26.9C268.915 25.8867 269.142 24.9733 269.595 24.16C270.049 23.3333 270.675 22.68 271.475 22.2C272.275 21.72 273.202 21.48 274.255 21.48C275.295 21.48 276.215 21.7267 277.015 22.22C277.815 22.7 278.442 23.3467 278.895 24.16C279.349 24.9733 279.575 25.8867 279.575 26.9C279.575 27.9133 279.349 28.8333 278.895 29.66C278.442 30.4733 277.815 31.12 277.015 31.6C276.215 32.08 275.295 32.32 274.255 32.32ZM274.255 30.34C274.815 30.34 275.335 30.2067 275.815 29.94C276.295 29.66 276.682 29.2667 276.975 28.76C277.282 28.24 277.435 27.62 277.435 26.9C277.435 26.18 277.282 25.5667 276.975 25.06C276.682 24.54 276.295 24.1467 275.815 23.88C275.335 23.6 274.815 23.46 274.255 23.46C273.695 23.46 273.169 23.6 272.675 23.88C272.195 24.1467 271.802 24.54 271.495 25.06C271.202 25.5667 271.055 26.18 271.055 26.9C271.055 27.62 271.202 28.24 271.495 28.76C271.802 29.2667 272.202 29.66 272.695 29.94C273.189 30.2067 273.709 30.34 274.255 30.34ZM286.365 32.32C285.311 32.32 284.385 32.08 283.585 31.6C282.785 31.12 282.158 30.4733 281.705 29.66C281.251 28.8333 281.025 27.9133 281.025 26.9C281.025 25.8867 281.251 24.9733 281.705 24.16C282.158 23.3333 282.785 22.68 283.585 22.2C284.385 21.72 285.311 21.48 286.365 21.48C287.405 21.48 288.325 21.7267 289.125 22.22C289.925 22.7 290.551 23.3467 291.005 24.16C291.458 24.9733 291.685 25.8867 291.685 26.9C291.685 27.9133 291.458 28.8333 291.005 29.66C290.551 30.4733 289.925 31.12 289.125 31.6C288.325 32.08 287.405 32.32 286.365 32.32ZM286.365 30.34C286.925 30.34 287.445 30.2067 287.925 29.94C288.405 29.66 288.791 29.2667 289.085 28.76C289.391 28.24 289.545 27.62 289.545 26.9C289.545 26.18 289.391 25.5667 289.085 25.06C288.791 24.54 288.405 24.1467 287.925 23.88C287.445 23.6 286.925 23.46 286.365 23.46C285.805 23.46 285.278 23.6 284.785 23.88C284.305 24.1467 283.911 24.54 283.605 25.06C283.311 25.5667 283.165 26.18 283.165 26.9C283.165 27.62 283.311 28.24 283.605 28.76C283.911 29.2667 284.311 29.66 284.805 29.94C285.298 30.2067 285.818 30.34 286.365 30.34ZM298.274 36.64C297.381 36.64 296.607 36.4933 295.954 36.2C295.314 35.92 294.794 35.5533 294.394 35.1C293.994 34.66 293.707 34.2067 293.534 33.74L295.534 32.9C295.747 33.4333 296.087 33.8667 296.554 34.2C297.034 34.5467 297.607 34.72 298.274 34.72C299.221 34.72 299.961 34.44 300.494 33.88C301.027 33.32 301.294 32.5267 301.294 31.5V30.52H301.174C300.854 30.9867 300.414 31.3667 299.854 31.66C299.294 31.9533 298.647 32.1 297.914 32.1C297.047 32.1 296.247 31.88 295.514 31.44C294.794 31 294.214 30.3867 293.774 29.6C293.347 28.8 293.134 27.8667 293.134 26.8C293.134 25.72 293.347 24.7867 293.774 24C294.214 23.2 294.794 22.58 295.514 22.14C296.247 21.7 297.047 21.48 297.914 21.48C298.647 21.48 299.294 21.6267 299.854 21.92C300.414 22.2 300.854 22.5867 301.174 23.08H301.294V21.8H303.354V31.46C303.354 32.5667 303.134 33.5067 302.694 34.28C302.267 35.0533 301.674 35.64 300.914 36.04C300.154 36.44 299.274 36.64 298.274 36.64ZM298.294 30.14C298.827 30.14 299.321 30.0133 299.774 29.76C300.241 29.4933 300.607 29.1133 300.874 28.62C301.154 28.1133 301.294 27.5067 301.294 26.8C301.294 26.0533 301.154 25.4333 300.874 24.94C300.607 24.4467 300.241 24.0733 299.774 23.82C299.321 23.5667 298.827 23.44 298.294 23.44C297.761 23.44 297.261 23.5667 296.794 23.82C296.341 24.0733 295.974 24.4533 295.694 24.96C295.414 25.4533 295.274 26.0667 295.274 26.8C295.274 27.52 295.414 28.1333 295.694 28.64C295.974 29.1333 296.341 29.5067 296.794 29.76C297.261 30.0133 297.761 30.14 298.294 30.14ZM305.901 32V17.68H308.061V32H305.901ZM315.17 32.32C314.17 32.32 313.277 32.0867 312.49 31.62C311.703 31.1533 311.083 30.5133 310.63 29.7C310.19 28.8867 309.97 27.96 309.97 26.92C309.97 25.9467 310.183 25.0467 310.61 24.22C311.037 23.3933 311.63 22.7333 312.39 22.24C313.163 21.7333 314.05 21.48 315.05 21.48C316.103 21.48 316.997 21.7067 317.73 22.16C318.477 22.6133 319.043 23.2333 319.43 24.02C319.817 24.8067 320.01 25.6933 320.01 26.68C320.01 26.8267 320.003 26.96 319.99 27.08C319.99 27.2 319.983 27.2933 319.97 27.36H312.09C312.143 27.92 312.283 28.4067 312.51 28.82C312.803 29.34 313.19 29.7333 313.67 30C314.15 30.2667 314.67 30.4 315.23 30.4C315.91 30.4 316.477 30.2467 316.93 29.94C317.397 29.62 317.763 29.2267 318.03 28.76L319.81 29.62C319.37 30.42 318.77 31.0733 318.01 31.58C317.25 32.0733 316.303 32.32 315.17 32.32ZM312.21 25.74H317.87C317.857 25.4867 317.79 25.22 317.67 24.94C317.55 24.6467 317.377 24.38 317.15 24.14C316.923 23.9 316.637 23.7067 316.29 23.56C315.943 23.4 315.537 23.32 315.07 23.32C314.483 23.32 313.963 23.4733 313.51 23.78C313.057 24.0733 312.703 24.4867 312.45 25.02C312.343 25.2467 312.263 25.4867 312.21 25.74Z" fill="white"/>
</svg>
