<svg width="326" height="50" viewBox="0 0 326 50" fill="none" xmlns="http://www.w3.org/2000/svg">
<rect x="0.5" y="0.5" width="325" height="49" rx="24.5" fill="#1F1F1F"/>
<rect x="0.5" y="0.5" width="325" height="49" rx="24.5" stroke="#747775"/>
<path d="M51 22H21V17C21 14.2857 23.2018 12 25.8165 12H46.1835C48.7982 12 51 14.2857 51 17V22Z" fill="#34A853"/>
<path d="M51 26.0537H21V21.0537C21 18.3394 23.2018 16.0537 25.8165 16.0537H46.1835C48.7982 16.0537 51 18.3394 51 21.0537V26.0537Z" fill="#FBBC04"/>
<path d="M51 30.2468H21V25.2468C21 22.5325 23.2018 20.2468 25.8165 20.2468H46.1835C48.7982 20.2468 51 22.5325 51 25.2468V30.2468Z" fill="#EA4335"/>
<path d="M21 23.2752L40.0411 27.6789C42.2329 28.2294 44.6986 27.6789 46.4795 26.3028L51 23V33.3211C51 35.9358 48.8082 38 46.2055 38H25.7945C23.1918 38 21 35.9358 21 33.3211V23.2752Z" fill="#4285F4"/>
<path d="M68.36 32L63.28 17.68H65.68L68.92 27.2L69.42 28.82H69.54L70.08 27.2L73.46 17.68H75.86L70.64 32H68.36ZM80.8731 32.32C79.8731 32.32 78.9798 32.0867 78.1931 31.62C77.4065 31.1533 76.7865 30.5133 76.3331 29.7C75.8931 28.8867 75.6731 27.96 75.6731 26.92C75.6731 25.9467 75.8865 25.0467 76.3131 24.22C76.7398 23.3933 77.3331 22.7333 78.0931 22.24C78.8665 21.7333 79.7531 21.48 80.7531 21.48C81.8065 21.48 82.6998 21.7067 83.4331 22.16C84.1798 22.6133 84.7465 23.2333 85.1331 24.02C85.5198 24.8067 85.7131 25.6933 85.7131 26.68C85.7131 26.8267 85.7065 26.96 85.6931 27.08C85.6931 27.2 85.6865 27.2933 85.6731 27.36H77.7931C77.8465 27.92 77.9865 28.4067 78.2131 28.82C78.5065 29.34 78.8931 29.7333 79.3731 30C79.8531 30.2667 80.3731 30.4 80.9331 30.4C81.6131 30.4 82.1798 30.2467 82.6331 29.94C83.0998 29.62 83.4665 29.2267 83.7331 28.76L85.5131 29.62C85.0731 30.42 84.4731 31.0733 83.7131 31.58C82.9531 32.0733 82.0065 32.32 80.8731 32.32ZM77.9131 25.74H83.5731C83.5598 25.4867 83.4931 25.22 83.3731 24.94C83.2531 24.6467 83.0798 24.38 82.8531 24.14C82.6265 23.9 82.3398 23.7067 81.9931 23.56C81.6465 23.4 81.2398 23.32 80.7731 23.32C80.1865 23.32 79.6665 23.4733 79.2131 23.78C78.7598 24.0733 78.4065 24.4867 78.1531 25.02C78.0465 25.2467 77.9665 25.4867 77.9131 25.74ZM87.717 32V21.8H89.757V23.3H89.877C90.037 22.9533 90.2637 22.6467 90.557 22.38C90.8637 22.1133 91.2104 21.9 91.597 21.74C91.997 21.58 92.4104 21.5 92.837 21.5C93.117 21.5 93.3504 21.52 93.537 21.56C93.737 21.5867 93.917 21.6333 94.077 21.7V23.94C93.8237 23.8333 93.5637 23.7467 93.297 23.68C93.0437 23.6133 92.777 23.58 92.497 23.58C91.9904 23.58 91.537 23.72 91.137 24C90.7504 24.2667 90.4437 24.6267 90.217 25.08C89.9904 25.5333 89.877 26.04 89.877 26.6V32H87.717ZM100.412 32V21.8H102.452V23.2H102.572C102.866 22.7067 103.299 22.3 103.872 21.98C104.459 21.6467 105.099 21.48 105.792 21.48C107.046 21.48 107.986 21.8533 108.612 22.6C109.239 23.3333 109.552 24.32 109.552 25.56V32H107.412V25.84C107.412 25.0133 107.206 24.4133 106.792 24.04C106.379 23.6533 105.839 23.46 105.172 23.46C104.652 23.46 104.199 23.6067 103.812 23.9C103.426 24.18 103.119 24.5533 102.892 25.02C102.679 25.4867 102.572 25.9867 102.572 26.52V32H100.412ZM115.116 32.32C114.383 32.32 113.73 32.1733 113.156 31.88C112.596 31.5867 112.15 31.1867 111.816 30.68C111.496 30.16 111.336 29.5667 111.336 28.9C111.336 28.1667 111.523 27.5467 111.896 27.04C112.283 26.5333 112.796 26.1467 113.436 25.88C114.076 25.6133 114.783 25.48 115.556 25.48C115.983 25.48 116.376 25.5133 116.736 25.58C117.11 25.6333 117.43 25.7 117.696 25.78C117.976 25.86 118.196 25.9467 118.356 26.04V25.5C118.356 24.8333 118.116 24.3 117.636 23.9C117.156 23.5 116.536 23.3 115.776 23.3C115.256 23.3 114.763 23.42 114.296 23.66C113.83 23.8867 113.456 24.2 113.176 24.6L111.696 23.46C111.99 23.0467 112.343 22.6933 112.756 22.4C113.183 22.1067 113.656 21.88 114.176 21.72C114.71 21.56 115.263 21.48 115.836 21.48C117.316 21.48 118.456 21.8467 119.256 22.58C120.056 23.3 120.456 24.3133 120.456 25.62V32H118.356V30.74H118.236C118.063 31.0067 117.823 31.26 117.516 31.5C117.223 31.74 116.87 31.9333 116.456 32.08C116.056 32.24 115.61 32.32 115.116 32.32ZM115.496 30.56C116.056 30.56 116.55 30.4267 116.976 30.16C117.416 29.8933 117.756 29.5467 117.996 29.12C118.236 28.68 118.356 28.2067 118.356 27.7C118.063 27.5267 117.703 27.3867 117.276 27.28C116.863 27.16 116.423 27.1 115.956 27.1C115.076 27.1 114.45 27.2733 114.076 27.62C113.703 27.9667 113.516 28.4 113.516 28.92C113.516 29.4 113.696 29.7933 114.056 30.1C114.416 30.4067 114.896 30.56 115.496 30.56Z" fill="white"/>
<path d="M135.36 32.32C134.307 32.32 133.327 32.1333 132.42 31.76C131.513 31.3733 130.72 30.8467 130.04 30.18C129.373 29.5 128.847 28.7067 128.46 27.8C128.087 26.88 127.9 25.8933 127.9 24.84C127.9 23.7733 128.087 22.7867 128.46 21.88C128.847 20.9733 129.373 20.1867 130.04 19.52C130.72 18.84 131.513 18.3133 132.42 17.94C133.327 17.5533 134.307 17.36 135.36 17.36C136.107 17.36 136.8 17.4533 137.44 17.64C138.08 17.8267 138.667 18.0933 139.2 18.44C139.733 18.7867 140.22 19.2067 140.66 19.7L139.12 21.2C138.8 20.8133 138.453 20.4933 138.08 20.24C137.707 19.9733 137.293 19.7733 136.84 19.64C136.4 19.5067 135.913 19.44 135.38 19.44C134.42 19.44 133.54 19.6667 132.74 20.12C131.94 20.56 131.3 21.18 130.82 21.98C130.353 22.78 130.12 23.7333 130.12 24.84C130.12 25.9333 130.353 26.8867 130.82 27.7C131.3 28.5 131.94 29.1267 132.74 29.58C133.54 30.02 134.42 30.24 135.38 30.24C135.967 30.24 136.5 30.16 136.98 30C137.473 29.84 137.927 29.6067 138.34 29.3C138.753 28.9933 139.133 28.6333 139.48 28.22L141.06 29.74C140.62 30.26 140.107 30.7133 139.52 31.1C138.933 31.4867 138.293 31.7867 137.6 32C136.907 32.2133 136.16 32.32 135.36 32.32ZM145.972 32.32C145.238 32.32 144.585 32.1733 144.012 31.88C143.452 31.5867 143.005 31.1867 142.672 30.68C142.352 30.16 142.192 29.5667 142.192 28.9C142.192 28.1667 142.378 27.5467 142.752 27.04C143.138 26.5333 143.652 26.1467 144.292 25.88C144.932 25.6133 145.638 25.48 146.412 25.48C146.838 25.48 147.232 25.5133 147.592 25.58C147.965 25.6333 148.285 25.7 148.552 25.78C148.832 25.86 149.052 25.9467 149.212 26.04V25.5C149.212 24.8333 148.972 24.3 148.492 23.9C148.012 23.5 147.392 23.3 146.632 23.3C146.112 23.3 145.618 23.42 145.152 23.66C144.685 23.8867 144.312 24.2 144.032 24.6L142.552 23.46C142.845 23.0467 143.198 22.6933 143.612 22.4C144.038 22.1067 144.512 21.88 145.032 21.72C145.565 21.56 146.118 21.48 146.692 21.48C148.172 21.48 149.312 21.8467 150.112 22.58C150.912 23.3 151.312 24.3133 151.312 25.62V32H149.212V30.74H149.092C148.918 31.0067 148.678 31.26 148.372 31.5C148.078 31.74 147.725 31.9333 147.312 32.08C146.912 32.24 146.465 32.32 145.972 32.32ZM146.352 30.56C146.912 30.56 147.405 30.4267 147.832 30.16C148.272 29.8933 148.612 29.5467 148.852 29.12C149.092 28.68 149.212 28.2067 149.212 27.7C148.918 27.5267 148.558 27.3867 148.132 27.28C147.718 27.16 147.278 27.1 146.812 27.1C145.932 27.1 145.305 27.2733 144.932 27.62C144.558 27.9667 144.372 28.4 144.372 28.92C144.372 29.4 144.552 29.7933 144.912 30.1C145.272 30.4067 145.752 30.56 146.352 30.56ZM161.09 21.8H162.87V18.92H165.03V21.8H167.53V23.68H165.03V28.58C165.03 29.0867 165.13 29.4733 165.33 29.74C165.543 30.0067 165.896 30.14 166.39 30.14C166.63 30.14 166.843 30.1067 167.03 30.04C167.216 29.96 167.403 29.8667 167.59 29.76V31.86C167.363 31.9533 167.123 32.0267 166.87 32.08C166.616 32.1333 166.323 32.16 165.99 32.16C165.03 32.16 164.27 31.8867 163.71 31.34C163.15 30.78 162.87 30.0133 162.87 29.04V23.68H161.09V21.8ZM153.69 32V21.8H155.73V23.3H155.85C156.036 22.9267 156.283 22.6133 156.59 22.36C156.896 22.0933 157.25 21.8867 157.65 21.74C158.063 21.5933 158.483 21.52 158.91 21.52C159.11 21.52 159.27 21.5267 159.39 21.54C159.523 21.54 159.643 21.56 159.75 21.6V23.76C159.603 23.7067 159.443 23.6733 159.27 23.66C159.096 23.6333 158.896 23.62 158.67 23.62C158.11 23.62 157.616 23.7467 157.19 24C156.763 24.24 156.43 24.5867 156.19 25.04C155.963 25.4933 155.85 26.0333 155.85 26.66V32H153.69ZM173.897 32.32C172.897 32.32 172.003 32.0867 171.217 31.62C170.43 31.1533 169.81 30.5133 169.357 29.7C168.917 28.8867 168.697 27.96 168.697 26.92C168.697 25.9467 168.91 25.0467 169.337 24.22C169.763 23.3933 170.357 22.7333 171.117 22.24C171.89 21.7333 172.777 21.48 173.777 21.48C174.83 21.48 175.723 21.7067 176.457 22.16C177.203 22.6133 177.77 23.2333 178.157 24.02C178.543 24.8067 178.737 25.6933 178.737 26.68C178.737 26.8267 178.73 26.96 178.717 27.08C178.717 27.2 178.71 27.2933 178.697 27.36H170.817C170.87 27.92 171.01 28.4067 171.237 28.82C171.53 29.34 171.917 29.7333 172.397 30C172.877 30.2667 173.397 30.4 173.957 30.4C174.637 30.4 175.203 30.2467 175.657 29.94C176.123 29.62 176.49 29.2267 176.757 28.76L178.537 29.62C178.097 30.42 177.497 31.0733 176.737 31.58C175.977 32.0733 175.03 32.32 173.897 32.32ZM170.937 25.74H176.597C176.583 25.4867 176.517 25.22 176.397 24.94C176.277 24.6467 176.103 24.38 175.877 24.14C175.65 23.9 175.363 23.7067 175.017 23.56C174.67 23.4 174.263 23.32 173.797 23.32C173.21 23.32 172.69 23.4733 172.237 23.78C171.783 24.0733 171.43 24.4867 171.177 25.02C171.07 25.2467 170.99 25.4867 170.937 25.74ZM180.9 32V21.8H183.06V32H180.9ZM181.98 20.3C181.58 20.3 181.234 20.16 180.94 19.88C180.66 19.5867 180.52 19.24 180.52 18.84C180.52 18.4267 180.66 18.0867 180.94 17.82C181.234 17.54 181.58 17.4 181.98 17.4C182.394 17.4 182.74 17.54 183.02 17.82C183.3 18.0867 183.44 18.4267 183.44 18.84C183.44 19.24 183.3 19.5867 183.02 19.88C182.74 20.16 182.394 20.3 181.98 20.3ZM185.74 32V21.8H187.78V23.3H187.9C188.06 22.9533 188.287 22.6467 188.58 22.38C188.887 22.1133 189.234 21.9 189.62 21.74C190.02 21.58 190.434 21.5 190.86 21.5C191.14 21.5 191.374 21.52 191.56 21.56C191.76 21.5867 191.94 21.6333 192.1 21.7V23.94C191.847 23.8333 191.587 23.7467 191.32 23.68C191.067 23.6133 190.8 23.58 190.52 23.58C190.014 23.58 189.56 23.72 189.16 24C188.774 24.2667 188.467 24.6267 188.24 25.08C188.014 25.5333 187.9 26.04 187.9 26.6V32H185.74ZM196.616 32.32C195.883 32.32 195.23 32.1733 194.656 31.88C194.096 31.5867 193.65 31.1867 193.316 30.68C192.996 30.16 192.836 29.5667 192.836 28.9C192.836 28.1667 193.023 27.5467 193.396 27.04C193.783 26.5333 194.296 26.1467 194.936 25.88C195.576 25.6133 196.283 25.48 197.056 25.48C197.483 25.48 197.876 25.5133 198.236 25.58C198.61 25.6333 198.93 25.7 199.196 25.78C199.476 25.86 199.696 25.9467 199.856 26.04V25.5C199.856 24.8333 199.616 24.3 199.136 23.9C198.656 23.5 198.036 23.3 197.276 23.3C196.756 23.3 196.263 23.42 195.796 23.66C195.33 23.8867 194.956 24.2 194.676 24.6L193.196 23.46C193.49 23.0467 193.843 22.6933 194.256 22.4C194.683 22.1067 195.156 21.88 195.676 21.72C196.21 21.56 196.763 21.48 197.336 21.48C198.816 21.48 199.956 21.8467 200.756 22.58C201.556 23.3 201.956 24.3133 201.956 25.62V32H199.856V30.74H199.736C199.563 31.0067 199.323 31.26 199.016 31.5C198.723 31.74 198.37 31.9333 197.956 32.08C197.556 32.24 197.11 32.32 196.616 32.32ZM196.996 30.56C197.556 30.56 198.05 30.4267 198.476 30.16C198.916 29.8933 199.256 29.5467 199.496 29.12C199.736 28.68 199.856 28.2067 199.856 27.7C199.563 27.5267 199.203 27.3867 198.776 27.28C198.363 27.16 197.923 27.1 197.456 27.1C196.576 27.1 195.95 27.2733 195.576 27.62C195.203 27.9667 195.016 28.4 195.016 28.92C195.016 29.4 195.196 29.7933 195.556 30.1C195.916 30.4067 196.396 30.56 196.996 30.56ZM213.362 32.32C212.442 32.32 211.609 32.0867 210.862 31.62C210.116 31.1533 209.529 30.5133 209.102 29.7C208.676 28.8867 208.462 27.9533 208.462 26.9C208.462 25.8467 208.676 24.9133 209.102 24.1C209.529 23.2867 210.116 22.6467 210.862 22.18C211.609 21.7133 212.442 21.48 213.362 21.48C213.896 21.48 214.376 21.56 214.802 21.72C215.229 21.88 215.596 22.0933 215.902 22.36C216.222 22.6133 216.469 22.8867 216.642 23.18H216.762L216.642 21.76V17.68H218.782V32H216.762V30.64H216.642C216.469 30.92 216.222 31.1933 215.902 31.46C215.596 31.7133 215.229 31.92 214.802 32.08C214.376 32.24 213.896 32.32 213.362 32.32ZM213.682 30.34C214.216 30.34 214.716 30.2 215.182 29.92C215.662 29.64 216.042 29.2467 216.322 28.74C216.616 28.22 216.762 27.6067 216.762 26.9C216.762 26.1933 216.616 25.5867 216.322 25.08C216.042 24.56 215.662 24.16 215.182 23.88C214.716 23.6 214.216 23.46 213.682 23.46C213.149 23.46 212.649 23.6 212.182 23.88C211.716 24.16 211.336 24.56 211.042 25.08C210.749 25.5867 210.602 26.1933 210.602 26.9C210.602 27.5933 210.749 28.2 211.042 28.72C211.336 29.24 211.716 29.64 212.182 29.92C212.649 30.2 213.149 30.34 213.682 30.34ZM226.029 32.32C224.975 32.32 224.049 32.08 223.249 31.6C222.449 31.12 221.822 30.4733 221.369 29.66C220.915 28.8333 220.689 27.9133 220.689 26.9C220.689 25.8867 220.915 24.9733 221.369 24.16C221.822 23.3333 222.449 22.68 223.249 22.2C224.049 21.72 224.975 21.48 226.029 21.48C227.069 21.48 227.989 21.7267 228.789 22.22C229.589 22.7 230.215 23.3467 230.669 24.16C231.122 24.9733 231.349 25.8867 231.349 26.9C231.349 27.9133 231.122 28.8333 230.669 29.66C230.215 30.4733 229.589 31.12 228.789 31.6C227.989 32.08 227.069 32.32 226.029 32.32ZM226.029 30.34C226.589 30.34 227.109 30.2067 227.589 29.94C228.069 29.66 228.455 29.2667 228.749 28.76C229.055 28.24 229.209 27.62 229.209 26.9C229.209 26.18 229.055 25.5667 228.749 25.06C228.455 24.54 228.069 24.1467 227.589 23.88C227.109 23.6 226.589 23.46 226.029 23.46C225.469 23.46 224.942 23.6 224.449 23.88C223.969 24.1467 223.575 24.54 223.269 25.06C222.975 25.5667 222.829 26.18 222.829 26.9C222.829 27.62 222.975 28.24 223.269 28.76C223.575 29.2667 223.975 29.66 224.469 29.94C224.962 30.2067 225.482 30.34 226.029 30.34ZM244.755 32.32C243.729 32.32 242.762 32.1333 241.855 31.76C240.949 31.3867 240.149 30.8667 239.455 30.2C238.775 29.52 238.235 28.7267 237.835 27.82C237.449 26.9 237.255 25.9067 237.255 24.84C237.255 23.7733 237.449 22.7867 237.835 21.88C238.235 20.96 238.775 20.1667 239.455 19.5C240.149 18.82 240.949 18.2933 241.855 17.92C242.762 17.5467 243.729 17.36 244.755 17.36C245.849 17.36 246.855 17.5533 247.775 17.94C248.709 18.3267 249.489 18.8667 250.115 19.56L248.595 21.06C248.289 20.7133 247.935 20.42 247.535 20.18C247.149 19.94 246.722 19.76 246.255 19.64C245.789 19.5067 245.289 19.44 244.755 19.44C244.049 19.44 243.375 19.5667 242.735 19.82C242.095 20.0733 241.529 20.44 241.035 20.92C240.555 21.3867 240.175 21.9533 239.895 22.62C239.615 23.2733 239.475 24.0133 239.475 24.84C239.475 25.6667 239.615 26.4133 239.895 27.08C240.189 27.7333 240.575 28.3 241.055 28.78C241.549 29.2467 242.115 29.6067 242.755 29.86C243.395 30.1133 244.069 30.24 244.775 30.24C245.429 30.24 246.035 30.1467 246.595 29.96C247.169 29.7733 247.669 29.5067 248.095 29.16C248.522 28.8133 248.869 28.3933 249.135 27.9C249.402 27.3933 249.569 26.8267 249.635 26.2H244.735V24.26H251.695C251.722 24.42 251.749 24.6067 251.775 24.82C251.802 25.02 251.815 25.2133 251.815 25.4V25.42C251.815 26.4467 251.635 27.3867 251.275 28.24C250.929 29.0933 250.442 29.8267 249.815 30.44C249.189 31.04 248.442 31.5067 247.575 31.84C246.722 32.16 245.782 32.32 244.755 32.32ZM258.255 32.32C257.202 32.32 256.275 32.08 255.475 31.6C254.675 31.12 254.049 30.4733 253.595 29.66C253.142 28.8333 252.915 27.9133 252.915 26.9C252.915 25.8867 253.142 24.9733 253.595 24.16C254.049 23.3333 254.675 22.68 255.475 22.2C256.275 21.72 257.202 21.48 258.255 21.48C259.295 21.48 260.215 21.7267 261.015 22.22C261.815 22.7 262.442 23.3467 262.895 24.16C263.349 24.9733 263.575 25.8867 263.575 26.9C263.575 27.9133 263.349 28.8333 262.895 29.66C262.442 30.4733 261.815 31.12 261.015 31.6C260.215 32.08 259.295 32.32 258.255 32.32ZM258.255 30.34C258.815 30.34 259.335 30.2067 259.815 29.94C260.295 29.66 260.682 29.2667 260.975 28.76C261.282 28.24 261.435 27.62 261.435 26.9C261.435 26.18 261.282 25.5667 260.975 25.06C260.682 24.54 260.295 24.1467 259.815 23.88C259.335 23.6 258.815 23.46 258.255 23.46C257.695 23.46 257.169 23.6 256.675 23.88C256.195 24.1467 255.802 24.54 255.495 25.06C255.202 25.5667 255.055 26.18 255.055 26.9C255.055 27.62 255.202 28.24 255.495 28.76C255.802 29.2667 256.202 29.66 256.695 29.94C257.189 30.2067 257.709 30.34 258.255 30.34ZM270.365 32.32C269.311 32.32 268.385 32.08 267.585 31.6C266.785 31.12 266.158 30.4733 265.705 29.66C265.251 28.8333 265.025 27.9133 265.025 26.9C265.025 25.8867 265.251 24.9733 265.705 24.16C266.158 23.3333 266.785 22.68 267.585 22.2C268.385 21.72 269.311 21.48 270.365 21.48C271.405 21.48 272.325 21.7267 273.125 22.22C273.925 22.7 274.551 23.3467 275.005 24.16C275.458 24.9733 275.685 25.8867 275.685 26.9C275.685 27.9133 275.458 28.8333 275.005 29.66C274.551 30.4733 273.925 31.12 273.125 31.6C272.325 32.08 271.405 32.32 270.365 32.32ZM270.365 30.34C270.925 30.34 271.445 30.2067 271.925 29.94C272.405 29.66 272.791 29.2667 273.085 28.76C273.391 28.24 273.545 27.62 273.545 26.9C273.545 26.18 273.391 25.5667 273.085 25.06C272.791 24.54 272.405 24.1467 271.925 23.88C271.445 23.6 270.925 23.46 270.365 23.46C269.805 23.46 269.278 23.6 268.785 23.88C268.305 24.1467 267.911 24.54 267.605 25.06C267.311 25.5667 267.165 26.18 267.165 26.9C267.165 27.62 267.311 28.24 267.605 28.76C267.911 29.2667 268.311 29.66 268.805 29.94C269.298 30.2067 269.818 30.34 270.365 30.34ZM282.274 36.64C281.381 36.64 280.607 36.4933 279.954 36.2C279.314 35.92 278.794 35.5533 278.394 35.1C277.994 34.66 277.707 34.2067 277.534 33.74L279.534 32.9C279.747 33.4333 280.087 33.8667 280.554 34.2C281.034 34.5467 281.607 34.72 282.274 34.72C283.221 34.72 283.961 34.44 284.494 33.88C285.027 33.32 285.294 32.5267 285.294 31.5V30.52H285.174C284.854 30.9867 284.414 31.3667 283.854 31.66C283.294 31.9533 282.647 32.1 281.914 32.1C281.047 32.1 280.247 31.88 279.514 31.44C278.794 31 278.214 30.3867 277.774 29.6C277.347 28.8 277.134 27.8667 277.134 26.8C277.134 25.72 277.347 24.7867 277.774 24C278.214 23.2 278.794 22.58 279.514 22.14C280.247 21.7 281.047 21.48 281.914 21.48C282.647 21.48 283.294 21.6267 283.854 21.92C284.414 22.2 284.854 22.5867 285.174 23.08H285.294V21.8H287.354V31.46C287.354 32.5667 287.134 33.5067 286.694 34.28C286.267 35.0533 285.674 35.64 284.914 36.04C284.154 36.44 283.274 36.64 282.274 36.64ZM282.294 30.14C282.827 30.14 283.321 30.0133 283.774 29.76C284.241 29.4933 284.607 29.1133 284.874 28.62C285.154 28.1133 285.294 27.5067 285.294 26.8C285.294 26.0533 285.154 25.4333 284.874 24.94C284.607 24.4467 284.241 24.0733 283.774 23.82C283.321 23.5667 282.827 23.44 282.294 23.44C281.761 23.44 281.261 23.5667 280.794 23.82C280.341 24.0733 279.974 24.4533 279.694 24.96C279.414 25.4533 279.274 26.0667 279.274 26.8C279.274 27.52 279.414 28.1333 279.694 28.64C279.974 29.1333 280.341 29.5067 280.794 29.76C281.261 30.0133 281.761 30.14 282.294 30.14ZM289.901 32V17.68H292.061V32H289.901ZM299.17 32.32C298.17 32.32 297.277 32.0867 296.49 31.62C295.703 31.1533 295.083 30.5133 294.63 29.7C294.19 28.8867 293.97 27.96 293.97 26.92C293.97 25.9467 294.183 25.0467 294.61 24.22C295.037 23.3933 295.63 22.7333 296.39 22.24C297.163 21.7333 298.05 21.48 299.05 21.48C300.103 21.48 300.997 21.7067 301.73 22.16C302.477 22.6133 303.043 23.2333 303.43 24.02C303.817 24.8067 304.01 25.6933 304.01 26.68C304.01 26.8267 304.003 26.96 303.99 27.08C303.99 27.2 303.983 27.2933 303.97 27.36H296.09C296.143 27.92 296.283 28.4067 296.51 28.82C296.803 29.34 297.19 29.7333 297.67 30C298.15 30.2667 298.67 30.4 299.23 30.4C299.91 30.4 300.477 30.2467 300.93 29.94C301.397 29.62 301.763 29.2267 302.03 28.76L303.81 29.62C303.37 30.42 302.77 31.0733 302.01 31.58C301.25 32.0733 300.303 32.32 299.17 32.32ZM296.21 25.74H301.87C301.857 25.4867 301.79 25.22 301.67 24.94C301.55 24.6467 301.377 24.38 301.15 24.14C300.923 23.9 300.637 23.7067 300.29 23.56C299.943 23.4 299.537 23.32 299.07 23.32C298.483 23.32 297.963 23.4733 297.51 23.78C297.057 24.0733 296.703 24.4867 296.45 25.02C296.343 25.2467 296.263 25.4867 296.21 25.74Z" fill="white"/>
</svg>
