<svg width="296" height="50" viewBox="0 0 296 50" fill="none" xmlns="http://www.w3.org/2000/svg">
<rect x="0.5" y="0.5" width="295" height="49" rx="24.5" fill="#1F1F1F"/>
<rect x="0.5" y="0.5" width="295" height="49" rx="24.5" stroke="#747775"/>
<path d="M51 22H21V17C21 14.2857 23.2018 12 25.8165 12H46.1835C48.7982 12 51 14.2857 51 17V22Z" fill="#34A853"/>
<path d="M51 26.0537H21V21.0537C21 18.3394 23.2018 16.0537 25.8165 16.0537H46.1835C48.7982 16.0537 51 18.3394 51 21.0537V26.0537Z" fill="#FBBC04"/>
<path d="M51 30.2468H21V25.2468C21 22.5325 23.2018 20.2468 25.8165 20.2468H46.1835C48.7982 20.2468 51 22.5325 51 25.2468V30.2468Z" fill="#EA4335"/>
<path d="M21 23.2752L40.0411 27.6789C42.2329 28.2294 44.6986 27.6789 46.4795 26.3028L51 23V33.3211C51 35.9358 48.8082 38 46.2055 38H25.7945C23.1918 38 21 35.9358 21 33.3211V23.2752Z" fill="#4285F4"/>
<path d="M68.36 32L63.28 17.68H65.68L68.92 27.2L69.42 28.82H69.54L70.08 27.2L73.46 17.68H75.86L70.64 32H68.36ZM80.8731 32.32C79.8731 32.32 78.9798 32.0867 78.1931 31.62C77.4065 31.1533 76.7865 30.5133 76.3331 29.7C75.8931 28.8867 75.6731 27.96 75.6731 26.92C75.6731 25.9467 75.8865 25.0467 76.3131 24.22C76.7398 23.3933 77.3331 22.7333 78.0931 22.24C78.8665 21.7333 79.7531 21.48 80.7531 21.48C81.8065 21.48 82.6998 21.7067 83.4331 22.16C84.1798 22.6133 84.7465 23.2333 85.1331 24.02C85.5198 24.8067 85.7131 25.6933 85.7131 26.68C85.7131 26.8267 85.7065 26.96 85.6931 27.08C85.6931 27.2 85.6865 27.2933 85.6731 27.36H77.7931C77.8465 27.92 77.9865 28.4067 78.2131 28.82C78.5065 29.34 78.8931 29.7333 79.3731 30C79.8531 30.2667 80.3731 30.4 80.9331 30.4C81.6131 30.4 82.1798 30.2467 82.6331 29.94C83.0998 29.62 83.4665 29.2267 83.7331 28.76L85.5131 29.62C85.0731 30.42 84.4731 31.0733 83.7131 31.58C82.9531 32.0733 82.0065 32.32 80.8731 32.32ZM77.9131 25.74H83.5731C83.5598 25.4867 83.4931 25.22 83.3731 24.94C83.2531 24.6467 83.0798 24.38 82.8531 24.14C82.6265 23.9 82.3398 23.7067 81.9931 23.56C81.6465 23.4 81.2398 23.32 80.7731 23.32C80.1865 23.32 79.6665 23.4733 79.2131 23.78C78.7598 24.0733 78.4065 24.4867 78.1531 25.02C78.0465 25.2467 77.9665 25.4867 77.9131 25.74ZM87.0994 32V30.2L92.7794 23.68H87.2794V21.8H95.4194V23.6L89.7594 30.12H95.5794V32H87.0994ZM97.9552 32V21.8H100.115V32H97.9552ZM99.0352 20.3C98.6352 20.3 98.2885 20.16 97.9952 19.88C97.7152 19.5867 97.5752 19.24 97.5752 18.84C97.5752 18.4267 97.7152 18.0867 97.9952 17.82C98.2885 17.54 98.6352 17.4 99.0352 17.4C99.4485 17.4 99.7952 17.54 100.075 17.82C100.355 18.0867 100.495 18.4267 100.495 18.84C100.495 19.24 100.355 19.5867 100.075 19.88C99.7952 20.16 99.4485 20.3 99.0352 20.3ZM107.603 32V21.8H109.763V32H107.603ZM105.623 19.84V19.7L107.763 17.28H109.663L111.823 19.7V19.84H109.743L108.803 18.6H108.603L107.683 19.84H105.623ZM112.463 32V21.8H114.503V23.2H114.623C114.916 22.7067 115.35 22.3 115.923 21.98C116.51 21.6467 117.15 21.48 117.843 21.48C119.096 21.48 120.036 21.8533 120.663 22.6C121.29 23.3333 121.603 24.32 121.603 25.56V32H119.463V25.84C119.463 25.0133 119.256 24.4133 118.843 24.04C118.43 23.6533 117.89 23.46 117.223 23.46C116.703 23.46 116.25 23.6067 115.863 23.9C115.476 24.18 115.17 24.5533 114.943 25.02C114.73 25.4867 114.623 25.9867 114.623 26.52V32H112.463Z" fill="white"/>
<path d="M129.62 32V17.68H134.54C135.407 17.68 136.193 17.8667 136.9 18.24C137.607 18.6 138.167 19.1133 138.58 19.78C139.007 20.4333 139.22 21.1933 139.22 22.06C139.22 22.9133 139.007 23.6733 138.58 24.34C138.167 25.0067 137.607 25.5267 136.9 25.9C136.193 26.26 135.407 26.44 134.54 26.44H131.82V32H129.62ZM131.82 24.36H134.6C135.12 24.36 135.56 24.2533 135.92 24.04C136.28 23.8133 136.553 23.5267 136.74 23.18C136.94 22.82 137.04 22.4467 137.04 22.06C137.04 21.6733 136.94 21.3067 136.74 20.96C136.553 20.6133 136.28 20.3267 135.92 20.1C135.56 19.8733 135.12 19.76 134.6 19.76H131.82V24.36ZM145.212 32.32C144.159 32.32 143.232 32.08 142.432 31.6C141.632 31.12 141.006 30.4733 140.552 29.66C140.099 28.8333 139.872 27.9133 139.872 26.9C139.872 25.8867 140.099 24.9733 140.552 24.16C141.006 23.3333 141.632 22.68 142.432 22.2C143.232 21.72 144.159 21.48 145.212 21.48C146.252 21.48 147.172 21.7267 147.972 22.22C148.772 22.7 149.399 23.3467 149.852 24.16C150.306 24.9733 150.532 25.8867 150.532 26.9C150.532 27.9133 150.306 28.8333 149.852 29.66C149.399 30.4733 148.772 31.12 147.972 31.6C147.172 32.08 146.252 32.32 145.212 32.32ZM145.212 30.34C145.772 30.34 146.292 30.2067 146.772 29.94C147.252 29.66 147.639 29.2667 147.932 28.76C148.239 28.24 148.392 27.62 148.392 26.9C148.392 26.18 148.239 25.5667 147.932 25.06C147.639 24.54 147.252 24.1467 146.772 23.88C146.292 23.6 145.772 23.46 145.212 23.46C144.652 23.46 144.126 23.6 143.632 23.88C143.152 24.1467 142.759 24.54 142.452 25.06C142.159 25.5667 142.012 26.18 142.012 26.9C142.012 27.62 142.159 28.24 142.452 28.76C142.759 29.2667 143.159 29.66 143.652 29.94C144.146 30.2067 144.666 30.34 145.212 30.34ZM159.726 21.8H161.506V18.92H163.666V21.8H166.166V23.68H163.666V28.58C163.666 29.0867 163.766 29.4733 163.966 29.74C164.18 30.0067 164.533 30.14 165.026 30.14C165.266 30.14 165.48 30.1067 165.666 30.04C165.853 29.96 166.04 29.8667 166.226 29.76V31.86C166 31.9533 165.76 32.0267 165.506 32.08C165.253 32.1333 164.96 32.16 164.626 32.16C163.666 32.16 162.906 31.8867 162.346 31.34C161.786 30.78 161.506 30.0133 161.506 29.04V23.68H159.726V21.8ZM152.326 32V21.8H154.366V23.3H154.486C154.673 22.9267 154.92 22.6133 155.226 22.36C155.533 22.0933 155.886 21.8867 156.286 21.74C156.7 21.5933 157.12 21.52 157.546 21.52C157.746 21.52 157.906 21.5267 158.026 21.54C158.16 21.54 158.28 21.56 158.386 21.6V23.76C158.24 23.7067 158.08 23.6733 157.906 23.66C157.733 23.6333 157.533 23.62 157.306 23.62C156.746 23.62 156.253 23.7467 155.826 24C155.4 24.24 155.066 24.5867 154.826 25.04C154.6 25.4933 154.486 26.0333 154.486 26.66V32H152.326ZM172.673 32.32C171.62 32.32 170.693 32.08 169.893 31.6C169.093 31.12 168.467 30.4733 168.013 29.66C167.56 28.8333 167.333 27.9133 167.333 26.9C167.333 25.8867 167.56 24.9733 168.013 24.16C168.467 23.3333 169.093 22.68 169.893 22.2C170.693 21.72 171.62 21.48 172.673 21.48C173.713 21.48 174.633 21.7267 175.433 22.22C176.233 22.7 176.86 23.3467 177.313 24.16C177.767 24.9733 177.993 25.8867 177.993 26.9C177.993 27.9133 177.767 28.8333 177.313 29.66C176.86 30.4733 176.233 31.12 175.433 31.6C174.633 32.08 173.713 32.32 172.673 32.32ZM172.673 30.34C173.233 30.34 173.753 30.2067 174.233 29.94C174.713 29.66 175.1 29.2667 175.393 28.76C175.7 28.24 175.853 27.62 175.853 26.9C175.853 26.18 175.7 25.5667 175.393 25.06C175.1 24.54 174.713 24.1467 174.233 23.88C173.753 23.6 173.233 23.46 172.673 23.46C172.113 23.46 171.587 23.6 171.093 23.88C170.613 24.1467 170.22 24.54 169.913 25.06C169.62 25.5667 169.473 26.18 169.473 26.9C169.473 27.62 169.62 28.24 169.913 28.76C170.22 29.2667 170.62 29.66 171.113 29.94C171.607 30.2067 172.127 30.34 172.673 30.34ZM178.99 23.68V21.8H180.85V20.96C180.85 20.2267 181.003 19.6067 181.31 19.1C181.616 18.58 182.036 18.1867 182.57 17.92C183.103 17.6533 183.696 17.52 184.35 17.52C184.71 17.52 185.016 17.5467 185.27 17.6C185.536 17.64 185.756 17.6933 185.93 17.76V19.86C185.756 19.7933 185.556 19.7267 185.33 19.66C185.116 19.58 184.85 19.54 184.53 19.54C184.116 19.54 183.756 19.68 183.45 19.96C183.143 20.2267 182.99 20.62 182.99 21.14V21.8H185.55V23.68H182.99V32H180.85V23.68H178.99ZM191.654 32.32C190.654 32.32 189.761 32.0867 188.974 31.62C188.188 31.1533 187.568 30.5133 187.114 29.7C186.674 28.8867 186.454 27.96 186.454 26.92C186.454 25.9467 186.668 25.0467 187.094 24.22C187.521 23.3933 188.114 22.7333 188.874 22.24C189.648 21.7333 190.534 21.48 191.534 21.48C192.588 21.48 193.481 21.7067 194.214 22.16C194.961 22.6133 195.528 23.2333 195.914 24.02C196.301 24.8067 196.494 25.6933 196.494 26.68C196.494 26.8267 196.488 26.96 196.474 27.08C196.474 27.2 196.468 27.2933 196.454 27.36H188.574C188.628 27.92 188.768 28.4067 188.994 28.82C189.288 29.34 189.674 29.7333 190.154 30C190.634 30.2667 191.154 30.4 191.714 30.4C192.394 30.4 192.961 30.2467 193.414 29.94C193.881 29.62 194.248 29.2267 194.514 28.76L196.294 29.62C195.854 30.42 195.254 31.0733 194.494 31.58C193.734 32.0733 192.788 32.32 191.654 32.32ZM188.694 25.74H194.354C194.341 25.4867 194.274 25.22 194.154 24.94C194.034 24.6467 193.861 24.38 193.634 24.14C193.408 23.9 193.121 23.7067 192.774 23.56C192.428 23.4 192.021 23.32 191.554 23.32C190.968 23.32 190.448 23.4733 189.994 23.78C189.541 24.0733 189.188 24.4867 188.934 25.02C188.828 25.2467 188.748 25.4867 188.694 25.74ZM198.518 32V17.68H200.678V32H198.518ZM214.642 32.32C213.616 32.32 212.649 32.1333 211.742 31.76C210.836 31.3867 210.036 30.8667 209.342 30.2C208.662 29.52 208.122 28.7267 207.722 27.82C207.336 26.9 207.142 25.9067 207.142 24.84C207.142 23.7733 207.336 22.7867 207.722 21.88C208.122 20.96 208.662 20.1667 209.342 19.5C210.036 18.82 210.836 18.2933 211.742 17.92C212.649 17.5467 213.616 17.36 214.642 17.36C215.736 17.36 216.742 17.5533 217.662 17.94C218.596 18.3267 219.376 18.8667 220.002 19.56L218.482 21.06C218.176 20.7133 217.822 20.42 217.422 20.18C217.036 19.94 216.609 19.76 216.142 19.64C215.676 19.5067 215.176 19.44 214.642 19.44C213.936 19.44 213.262 19.5667 212.622 19.82C211.982 20.0733 211.416 20.44 210.922 20.92C210.442 21.3867 210.062 21.9533 209.782 22.62C209.502 23.2733 209.362 24.0133 209.362 24.84C209.362 25.6667 209.502 26.4133 209.782 27.08C210.076 27.7333 210.462 28.3 210.942 28.78C211.436 29.2467 212.002 29.6067 212.642 29.86C213.282 30.1133 213.956 30.24 214.662 30.24C215.316 30.24 215.922 30.1467 216.482 29.96C217.056 29.7733 217.556 29.5067 217.982 29.16C218.409 28.8133 218.756 28.3933 219.022 27.9C219.289 27.3933 219.456 26.8267 219.522 26.2H214.622V24.26H221.582C221.609 24.42 221.636 24.6067 221.662 24.82C221.689 25.02 221.702 25.2133 221.702 25.4V25.42C221.702 26.4467 221.522 27.3867 221.162 28.24C220.816 29.0933 220.329 29.8267 219.702 30.44C219.076 31.04 218.329 31.5067 217.462 31.84C216.609 32.16 215.669 32.32 214.642 32.32ZM228.142 32.32C227.089 32.32 226.162 32.08 225.362 31.6C224.562 31.12 223.935 30.4733 223.482 29.66C223.029 28.8333 222.802 27.9133 222.802 26.9C222.802 25.8867 223.029 24.9733 223.482 24.16C223.935 23.3333 224.562 22.68 225.362 22.2C226.162 21.72 227.089 21.48 228.142 21.48C229.182 21.48 230.102 21.7267 230.902 22.22C231.702 22.7 232.329 23.3467 232.782 24.16C233.235 24.9733 233.462 25.8867 233.462 26.9C233.462 27.9133 233.235 28.8333 232.782 29.66C232.329 30.4733 231.702 31.12 230.902 31.6C230.102 32.08 229.182 32.32 228.142 32.32ZM228.142 30.34C228.702 30.34 229.222 30.2067 229.702 29.94C230.182 29.66 230.569 29.2667 230.862 28.76C231.169 28.24 231.322 27.62 231.322 26.9C231.322 26.18 231.169 25.5667 230.862 25.06C230.569 24.54 230.182 24.1467 229.702 23.88C229.222 23.6 228.702 23.46 228.142 23.46C227.582 23.46 227.055 23.6 226.562 23.88C226.082 24.1467 225.689 24.54 225.382 25.06C225.089 25.5667 224.942 26.18 224.942 26.9C224.942 27.62 225.089 28.24 225.382 28.76C225.689 29.2667 226.089 29.66 226.582 29.94C227.075 30.2067 227.595 30.34 228.142 30.34ZM240.251 32.32C239.198 32.32 238.271 32.08 237.471 31.6C236.671 31.12 236.045 30.4733 235.591 29.66C235.138 28.8333 234.911 27.9133 234.911 26.9C234.911 25.8867 235.138 24.9733 235.591 24.16C236.045 23.3333 236.671 22.68 237.471 22.2C238.271 21.72 239.198 21.48 240.251 21.48C241.291 21.48 242.211 21.7267 243.011 22.22C243.811 22.7 244.438 23.3467 244.891 24.16C245.345 24.9733 245.571 25.8867 245.571 26.9C245.571 27.9133 245.345 28.8333 244.891 29.66C244.438 30.4733 243.811 31.12 243.011 31.6C242.211 32.08 241.291 32.32 240.251 32.32ZM240.251 30.34C240.811 30.34 241.331 30.2067 241.811 29.94C242.291 29.66 242.678 29.2667 242.971 28.76C243.278 28.24 243.431 27.62 243.431 26.9C243.431 26.18 243.278 25.5667 242.971 25.06C242.678 24.54 242.291 24.1467 241.811 23.88C241.331 23.6 240.811 23.46 240.251 23.46C239.691 23.46 239.165 23.6 238.671 23.88C238.191 24.1467 237.798 24.54 237.491 25.06C237.198 25.5667 237.051 26.18 237.051 26.9C237.051 27.62 237.198 28.24 237.491 28.76C237.798 29.2667 238.198 29.66 238.691 29.94C239.185 30.2067 239.705 30.34 240.251 30.34ZM252.161 36.64C251.267 36.64 250.494 36.4933 249.841 36.2C249.201 35.92 248.681 35.5533 248.281 35.1C247.881 34.66 247.594 34.2067 247.421 33.74L249.421 32.9C249.634 33.4333 249.974 33.8667 250.441 34.2C250.921 34.5467 251.494 34.72 252.161 34.72C253.107 34.72 253.847 34.44 254.381 33.88C254.914 33.32 255.181 32.5267 255.181 31.5V30.52H255.061C254.741 30.9867 254.301 31.3667 253.741 31.66C253.181 31.9533 252.534 32.1 251.801 32.1C250.934 32.1 250.134 31.88 249.401 31.44C248.681 31 248.101 30.3867 247.661 29.6C247.234 28.8 247.021 27.8667 247.021 26.8C247.021 25.72 247.234 24.7867 247.661 24C248.101 23.2 248.681 22.58 249.401 22.14C250.134 21.7 250.934 21.48 251.801 21.48C252.534 21.48 253.181 21.6267 253.741 21.92C254.301 22.2 254.741 22.5867 255.061 23.08H255.181V21.8H257.241V31.46C257.241 32.5667 257.021 33.5067 256.581 34.28C256.154 35.0533 255.561 35.64 254.801 36.04C254.041 36.44 253.161 36.64 252.161 36.64ZM252.181 30.14C252.714 30.14 253.207 30.0133 253.661 29.76C254.127 29.4933 254.494 29.1133 254.761 28.62C255.041 28.1133 255.181 27.5067 255.181 26.8C255.181 26.0533 255.041 25.4333 254.761 24.94C254.494 24.4467 254.127 24.0733 253.661 23.82C253.207 23.5667 252.714 23.44 252.181 23.44C251.647 23.44 251.147 23.5667 250.681 23.82C250.227 24.0733 249.861 24.4533 249.581 24.96C249.301 25.4533 249.161 26.0667 249.161 26.8C249.161 27.52 249.301 28.1333 249.581 28.64C249.861 29.1333 250.227 29.5067 250.681 29.76C251.147 30.0133 251.647 30.14 252.181 30.14ZM259.788 32V17.68H261.948V32H259.788ZM269.057 32.32C268.057 32.32 267.163 32.0867 266.377 31.62C265.59 31.1533 264.97 30.5133 264.517 29.7C264.077 28.8867 263.857 27.96 263.857 26.92C263.857 25.9467 264.07 25.0467 264.497 24.22C264.923 23.3933 265.517 22.7333 266.277 22.24C267.05 21.7333 267.937 21.48 268.937 21.48C269.99 21.48 270.883 21.7067 271.617 22.16C272.363 22.6133 272.93 23.2333 273.317 24.02C273.703 24.8067 273.897 25.6933 273.897 26.68C273.897 26.8267 273.89 26.96 273.877 27.08C273.877 27.2 273.87 27.2933 273.857 27.36H265.977C266.03 27.92 266.17 28.4067 266.397 28.82C266.69 29.34 267.077 29.7333 267.557 30C268.037 30.2667 268.557 30.4 269.117 30.4C269.797 30.4 270.363 30.2467 270.817 29.94C271.283 29.62 271.65 29.2267 271.917 28.76L273.697 29.62C273.257 30.42 272.657 31.0733 271.897 31.58C271.137 32.0733 270.19 32.32 269.057 32.32ZM266.097 25.74H271.757C271.743 25.4867 271.677 25.22 271.557 24.94C271.437 24.6467 271.263 24.38 271.037 24.14C270.81 23.9 270.523 23.7067 270.177 23.56C269.83 23.4 269.423 23.32 268.957 23.32C268.37 23.32 267.85 23.4733 267.397 23.78C266.943 24.0733 266.59 24.4867 266.337 25.02C266.23 25.2467 266.15 25.4867 266.097 25.74Z" fill="white"/>
</svg>
