<svg width="389" height="50" viewBox="0 0 389 50" fill="none" xmlns="http://www.w3.org/2000/svg">
<rect x="0.5" y="0.5" width="388" height="49" rx="24.5" fill="#1F1F1F"/>
<rect x="0.5" y="0.5" width="388" height="49" rx="24.5" stroke="#747775"/>
<path d="M51 22H21V17C21 14.2857 23.2018 12 25.8165 12H46.1835C48.7982 12 51 14.2857 51 17V22Z" fill="#34A853"/>
<path d="M51 26.0537H21V21.0537C21 18.3394 23.2018 16.0537 25.8165 16.0537H46.1835C48.7982 16.0537 51 18.3394 51 21.0537V26.0537Z" fill="#FBBC04"/>
<path d="M51 30.2468H21V25.2468C21 22.5325 23.2018 20.2468 25.8165 20.2468H46.1835C48.7982 20.2468 51 22.5325 51 25.2468V30.2468Z" fill="#EA4335"/>
<path d="M21 23.2752L40.0411 27.6789C42.2329 28.2294 44.6986 27.6789 46.4795 26.3028L51 23V33.3211C51 35.9358 48.8082 38 46.2055 38H25.7945C23.1918 38 21 35.9358 21 33.3211V23.2752Z" fill="#4285F4"/>
<path d="M64.62 32V17.68H75.42V32H73.22V19.76H66.82V32H64.62ZM83.103 32.32C82.0496 32.32 81.123 32.08 80.323 31.6C79.523 31.12 78.8963 30.4733 78.443 29.66C77.9896 28.8333 77.763 27.9133 77.763 26.9C77.763 25.8867 77.9896 24.9733 78.443 24.16C78.8963 23.3333 79.523 22.68 80.323 22.2C81.123 21.72 82.0496 21.48 83.103 21.48C84.143 21.48 85.063 21.7267 85.863 22.22C86.663 22.7 87.2896 23.3467 87.743 24.16C88.1963 24.9733 88.423 25.8867 88.423 26.9C88.423 27.9133 88.1963 28.8333 87.743 29.66C87.2896 30.4733 86.663 31.12 85.863 31.6C85.063 32.08 84.143 32.32 83.103 32.32ZM83.103 30.34C83.663 30.34 84.183 30.2067 84.663 29.94C85.143 29.66 85.5296 29.2667 85.823 28.76C86.1296 28.24 86.283 27.62 86.283 26.9C86.283 26.18 86.1296 25.5667 85.823 25.06C85.5296 24.54 85.143 24.1467 84.663 23.88C84.183 23.6 83.663 23.46 83.103 23.46C82.543 23.46 82.0163 23.6 81.523 23.88C81.043 24.1467 80.6496 24.54 80.343 25.06C80.0496 25.5667 79.903 26.18 79.903 26.9C79.903 27.62 80.0496 28.24 80.343 28.76C80.6496 29.2667 81.0496 29.66 81.543 29.94C82.0363 30.2067 82.5563 30.34 83.103 30.34ZM95.1323 32.32C94.1057 32.32 93.1923 32.0867 92.3923 31.62C91.6057 31.1533 90.9857 30.5133 90.5323 29.7C90.0923 28.8733 89.8723 27.94 89.8723 26.9C89.8723 25.86 90.0923 24.9333 90.5323 24.12C90.9857 23.3067 91.6057 22.6667 92.3923 22.2C93.1923 21.72 94.1057 21.48 95.1323 21.48C96.2657 21.48 97.219 21.7333 97.9923 22.24C98.779 22.7467 99.339 23.4333 99.6723 24.3L97.7123 25.1C97.4723 24.5533 97.1257 24.1467 96.6723 23.88C96.2323 23.6 95.7057 23.46 95.0923 23.46C94.5323 23.46 94.019 23.6067 93.5523 23.9C93.0857 24.18 92.7123 24.5733 92.4323 25.08C92.1523 25.5867 92.0123 26.1933 92.0123 26.9C92.0123 27.5933 92.1523 28.2 92.4323 28.72C92.7123 29.24 93.0857 29.64 93.5523 29.92C94.019 30.2 94.5323 30.34 95.0923 30.34C95.7457 30.34 96.299 30.1933 96.7523 29.9C97.2057 29.6067 97.559 29.1933 97.8123 28.66L99.7323 29.5C99.359 30.3133 98.779 30.9867 97.9923 31.52C97.219 32.0533 96.2657 32.32 95.1323 32.32ZM101.584 32V21.8H104.144L107.284 28.04H107.384L110.544 21.8H113.044V32H110.984V27.04L111.084 25.08H110.964L108.024 30.7H106.604L103.664 25.08H103.544L103.644 27.04V32H101.584ZM120.271 32.32C119.218 32.32 118.291 32.08 117.491 31.6C116.691 31.12 116.064 30.4733 115.611 29.66C115.158 28.8333 114.931 27.9133 114.931 26.9C114.931 25.8867 115.158 24.9733 115.611 24.16C116.064 23.3333 116.691 22.68 117.491 22.2C118.291 21.72 119.218 21.48 120.271 21.48C121.311 21.48 122.231 21.7267 123.031 22.22C123.831 22.7 124.458 23.3467 124.911 24.16C125.364 24.9733 125.591 25.8867 125.591 26.9C125.591 27.9133 125.364 28.8333 124.911 29.66C124.458 30.4733 123.831 31.12 123.031 31.6C122.231 32.08 121.311 32.32 120.271 32.32ZM120.271 30.34C120.831 30.34 121.351 30.2067 121.831 29.94C122.311 29.66 122.698 29.2667 122.991 28.76C123.298 28.24 123.451 27.62 123.451 26.9C123.451 26.18 123.298 25.5667 122.991 25.06C122.698 24.54 122.311 24.1467 121.831 23.88C121.351 23.6 120.831 23.46 120.271 23.46C119.711 23.46 119.184 23.6 118.691 23.88C118.211 24.1467 117.818 24.54 117.511 25.06C117.218 25.5667 117.071 26.18 117.071 26.9C117.071 27.62 117.218 28.24 117.511 28.76C117.818 29.2667 118.218 29.66 118.711 29.94C119.204 30.2067 119.724 30.34 120.271 30.34ZM129.79 32V23.68H126.43V21.8H135.29V23.68H131.93V32H129.79ZM137.033 36.32V21.8H139.053V23.18H139.173C139.36 22.8867 139.606 22.6133 139.913 22.36C140.233 22.0933 140.606 21.88 141.033 21.72C141.46 21.56 141.933 21.48 142.453 21.48C143.386 21.48 144.22 21.7133 144.953 22.18C145.686 22.6467 146.266 23.2867 146.693 24.1C147.133 24.9133 147.353 25.8467 147.353 26.9C147.353 27.9533 147.133 28.8867 146.693 29.7C146.266 30.5133 145.686 31.1533 144.953 31.62C144.22 32.0867 143.386 32.32 142.453 32.32C141.68 32.32 141.006 32.1467 140.433 31.8C139.86 31.4533 139.44 31.0667 139.173 30.64H139.053L139.173 32.06V36.32H137.033ZM142.133 30.34C142.666 30.34 143.166 30.2 143.633 29.92C144.113 29.64 144.493 29.24 144.773 28.72C145.066 28.2 145.213 27.5933 145.213 26.9C145.213 26.1933 145.066 25.5867 144.773 25.08C144.493 24.56 144.113 24.16 143.633 23.88C143.166 23.6 142.666 23.46 142.133 23.46C141.6 23.46 141.1 23.6 140.633 23.88C140.166 24.16 139.786 24.56 139.493 25.08C139.2 25.5867 139.053 26.1933 139.053 26.9C139.053 27.6067 139.2 28.22 139.493 28.74C139.786 29.2467 140.166 29.64 140.633 29.92C141.1 30.2 141.6 30.34 142.133 30.34ZM153.959 32.32C152.959 32.32 152.066 32.0867 151.279 31.62C150.492 31.1533 149.872 30.5133 149.419 29.7C148.979 28.8867 148.759 27.96 148.759 26.92C148.759 25.9467 148.972 25.0467 149.399 24.22C149.826 23.3933 150.419 22.7333 151.179 22.24C151.952 21.7333 152.839 21.48 153.839 21.48C154.892 21.48 155.786 21.7067 156.519 22.16C157.266 22.6133 157.832 23.2333 158.219 24.02C158.606 24.8067 158.799 25.6933 158.799 26.68C158.799 26.8267 158.792 26.96 158.779 27.08C158.779 27.2 158.772 27.2933 158.759 27.36H150.879C150.932 27.92 151.072 28.4067 151.299 28.82C151.592 29.34 151.979 29.7333 152.459 30C152.939 30.2667 153.459 30.4 154.019 30.4C154.699 30.4 155.266 30.2467 155.719 29.94C156.186 29.62 156.552 29.2267 156.819 28.76L158.599 29.62C158.159 30.42 157.559 31.0733 156.799 31.58C156.039 32.0733 155.092 32.32 153.959 32.32ZM150.999 25.74H156.659C156.646 25.4867 156.579 25.22 156.459 24.94C156.339 24.6467 156.166 24.38 155.939 24.14C155.712 23.9 155.426 23.7067 155.079 23.56C154.732 23.4 154.326 23.32 153.859 23.32C153.272 23.32 152.752 23.4733 152.299 23.78C151.846 24.0733 151.492 24.4867 151.239 25.02C151.132 25.2467 151.052 25.4867 150.999 25.74ZM163.208 32V23.68H159.848V21.8H168.708V23.68H165.348V32H163.208ZM172.631 21.8V25.2H174.971C175.678 25.2 176.304 25.3467 176.851 25.64C177.398 25.9333 177.831 26.34 178.151 26.86C178.471 27.3667 178.631 27.9467 178.631 28.6C178.631 29.24 178.471 29.82 178.151 30.34C177.831 30.86 177.398 31.2667 176.851 31.56C176.304 31.8533 175.678 32 174.971 32H170.471V21.8H172.631ZM172.631 26.98V30.2H174.791C175.271 30.2 175.671 30.0467 175.991 29.74C176.311 29.4333 176.471 29.0533 176.471 28.6C176.471 28.1467 176.311 27.7667 175.991 27.46C175.671 27.14 175.271 26.98 174.791 26.98H172.631ZM185.1 32V21.8H190.16C190.76 21.8 191.293 21.92 191.76 22.16C192.24 22.3867 192.613 22.7 192.88 23.1C193.16 23.5 193.3 23.9467 193.3 24.44C193.3 24.9733 193.18 25.4333 192.94 25.82C192.713 26.2067 192.413 26.4933 192.04 26.68V26.8C192.547 27 192.947 27.3 193.24 27.7C193.547 28.1 193.7 28.56 193.7 29.08C193.7 29.68 193.54 30.2 193.22 30.64C192.913 31.08 192.513 31.42 192.02 31.66C191.527 31.8867 191 32 190.44 32H185.1ZM187.26 27.56V30.2H190.22C190.607 30.2 190.927 30.08 191.18 29.84C191.447 29.5867 191.58 29.2667 191.58 28.88C191.58 28.5067 191.447 28.1933 191.18 27.94C190.927 27.6867 190.607 27.56 190.22 27.56H187.26ZM187.26 23.56V25.96H189.9C190.26 25.96 190.56 25.8467 190.8 25.62C191.04 25.3933 191.16 25.1067 191.16 24.76C191.16 24.4 191.04 24.1133 190.8 23.9C190.56 23.6733 190.26 23.56 189.9 23.56H187.26Z" fill="white"/>
<path d="M208.4 32.32C207.373 32.32 206.407 32.1333 205.5 31.76C204.593 31.3867 203.793 30.8667 203.1 30.2C202.42 29.52 201.88 28.7267 201.48 27.82C201.093 26.9 200.9 25.9067 200.9 24.84C200.9 23.7733 201.093 22.7867 201.48 21.88C201.88 20.96 202.42 20.1667 203.1 19.5C203.793 18.82 204.593 18.2933 205.5 17.92C206.407 17.5467 207.373 17.36 208.4 17.36C209.493 17.36 210.5 17.5533 211.42 17.94C212.353 18.3267 213.133 18.8667 213.76 19.56L212.24 21.06C211.933 20.7133 211.58 20.42 211.18 20.18C210.793 19.94 210.367 19.76 209.9 19.64C209.433 19.5067 208.933 19.44 208.4 19.44C207.693 19.44 207.02 19.5667 206.38 19.82C205.74 20.0733 205.173 20.44 204.68 20.92C204.2 21.3867 203.82 21.9533 203.54 22.62C203.26 23.2733 203.12 24.0133 203.12 24.84C203.12 25.6667 203.26 26.4133 203.54 27.08C203.833 27.7333 204.22 28.3 204.7 28.78C205.193 29.2467 205.76 29.6067 206.4 29.86C207.04 30.1133 207.713 30.24 208.42 30.24C209.073 30.24 209.68 30.1467 210.24 29.96C210.813 29.7733 211.313 29.5067 211.74 29.16C212.167 28.8133 212.513 28.3933 212.78 27.9C213.047 27.3933 213.213 26.8267 213.28 26.2H208.38V24.26H215.34C215.367 24.42 215.393 24.6067 215.42 24.82C215.447 25.02 215.46 25.2133 215.46 25.4V25.42C215.46 26.4467 215.28 27.3867 214.92 28.24C214.573 29.0933 214.087 29.8267 213.46 30.44C212.833 31.04 212.087 31.5067 211.22 31.84C210.367 32.16 209.427 32.32 208.4 32.32ZM221.9 32.32C220.847 32.32 219.92 32.08 219.12 31.6C218.32 31.12 217.693 30.4733 217.24 29.66C216.787 28.8333 216.56 27.9133 216.56 26.9C216.56 25.8867 216.787 24.9733 217.24 24.16C217.693 23.3333 218.32 22.68 219.12 22.2C219.92 21.72 220.847 21.48 221.9 21.48C222.94 21.48 223.86 21.7267 224.66 22.22C225.46 22.7 226.087 23.3467 226.54 24.16C226.993 24.9733 227.22 25.8867 227.22 26.9C227.22 27.9133 226.993 28.8333 226.54 29.66C226.087 30.4733 225.46 31.12 224.66 31.6C223.86 32.08 222.94 32.32 221.9 32.32ZM221.9 30.34C222.46 30.34 222.98 30.2067 223.46 29.94C223.94 29.66 224.327 29.2667 224.62 28.76C224.927 28.24 225.08 27.62 225.08 26.9C225.08 26.18 224.927 25.5667 224.62 25.06C224.327 24.54 223.94 24.1467 223.46 23.88C222.98 23.6 222.46 23.46 221.9 23.46C221.34 23.46 220.813 23.6 220.32 23.88C219.84 24.1467 219.447 24.54 219.14 25.06C218.847 25.5667 218.7 26.18 218.7 26.9C218.7 27.62 218.847 28.24 219.14 28.76C219.447 29.2667 219.847 29.66 220.34 29.94C220.833 30.2067 221.353 30.34 221.9 30.34ZM234.009 32.32C232.956 32.32 232.029 32.08 231.229 31.6C230.429 31.12 229.803 30.4733 229.349 29.66C228.896 28.8333 228.669 27.9133 228.669 26.9C228.669 25.8867 228.896 24.9733 229.349 24.16C229.803 23.3333 230.429 22.68 231.229 22.2C232.029 21.72 232.956 21.48 234.009 21.48C235.049 21.48 235.969 21.7267 236.769 22.22C237.569 22.7 238.196 23.3467 238.649 24.16C239.103 24.9733 239.329 25.8867 239.329 26.9C239.329 27.9133 239.103 28.8333 238.649 29.66C238.196 30.4733 237.569 31.12 236.769 31.6C235.969 32.08 235.049 32.32 234.009 32.32ZM234.009 30.34C234.569 30.34 235.089 30.2067 235.569 29.94C236.049 29.66 236.436 29.2667 236.729 28.76C237.036 28.24 237.189 27.62 237.189 26.9C237.189 26.18 237.036 25.5667 236.729 25.06C236.436 24.54 236.049 24.1467 235.569 23.88C235.089 23.6 234.569 23.46 234.009 23.46C233.449 23.46 232.923 23.6 232.429 23.88C231.949 24.1467 231.556 24.54 231.249 25.06C230.956 25.5667 230.809 26.18 230.809 26.9C230.809 27.62 230.956 28.24 231.249 28.76C231.556 29.2667 231.956 29.66 232.449 29.94C232.943 30.2067 233.463 30.34 234.009 30.34ZM245.919 36.64C245.025 36.64 244.252 36.4933 243.599 36.2C242.959 35.92 242.439 35.5533 242.039 35.1C241.639 34.66 241.352 34.2067 241.179 33.74L243.179 32.9C243.392 33.4333 243.732 33.8667 244.199 34.2C244.679 34.5467 245.252 34.72 245.919 34.72C246.865 34.72 247.605 34.44 248.139 33.88C248.672 33.32 248.939 32.5267 248.939 31.5V30.52H248.819C248.499 30.9867 248.059 31.3667 247.499 31.66C246.939 31.9533 246.292 32.1 245.559 32.1C244.692 32.1 243.892 31.88 243.159 31.44C242.439 31 241.859 30.3867 241.419 29.6C240.992 28.8 240.779 27.8667 240.779 26.8C240.779 25.72 240.992 24.7867 241.419 24C241.859 23.2 242.439 22.58 243.159 22.14C243.892 21.7 244.692 21.48 245.559 21.48C246.292 21.48 246.939 21.6267 247.499 21.92C248.059 22.2 248.499 22.5867 248.819 23.08H248.939V21.8H250.999V31.46C250.999 32.5667 250.779 33.5067 250.339 34.28C249.912 35.0533 249.319 35.64 248.559 36.04C247.799 36.44 246.919 36.64 245.919 36.64ZM245.939 30.14C246.472 30.14 246.965 30.0133 247.419 29.76C247.885 29.4933 248.252 29.1133 248.519 28.62C248.799 28.1133 248.939 27.5067 248.939 26.8C248.939 26.0533 248.799 25.4333 248.519 24.94C248.252 24.4467 247.885 24.0733 247.419 23.82C246.965 23.5667 246.472 23.44 245.939 23.44C245.405 23.44 244.905 23.5667 244.439 23.82C243.985 24.0733 243.619 24.4533 243.339 24.96C243.059 25.4533 242.919 26.0667 242.919 26.8C242.919 27.52 243.059 28.1333 243.339 28.64C243.619 29.1333 243.985 29.5067 244.439 29.76C244.905 30.0133 245.405 30.14 245.939 30.14ZM253.546 32V17.68H255.706V32H253.546ZM262.815 32.32C261.815 32.32 260.921 32.0867 260.135 31.62C259.348 31.1533 258.728 30.5133 258.275 29.7C257.835 28.8867 257.615 27.96 257.615 26.92C257.615 25.9467 257.828 25.0467 258.255 24.22C258.681 23.3933 259.275 22.7333 260.035 22.24C260.808 21.7333 261.695 21.48 262.695 21.48C263.748 21.48 264.641 21.7067 265.375 22.16C266.121 22.6133 266.688 23.2333 267.075 24.02C267.461 24.8067 267.655 25.6933 267.655 26.68C267.655 26.8267 267.648 26.96 267.635 27.08C267.635 27.2 267.628 27.2933 267.615 27.36H259.735C259.788 27.92 259.928 28.4067 260.155 28.82C260.448 29.34 260.835 29.7333 261.315 30C261.795 30.2667 262.315 30.4 262.875 30.4C263.555 30.4 264.121 30.2467 264.575 29.94C265.041 29.62 265.408 29.2267 265.675 28.76L267.455 29.62C267.015 30.42 266.415 31.0733 265.655 31.58C264.895 32.0733 263.948 32.32 262.815 32.32ZM259.855 25.74H265.515C265.501 25.4867 265.435 25.22 265.315 24.94C265.195 24.6467 265.021 24.38 264.795 24.14C264.568 23.9 264.281 23.7067 263.935 23.56C263.588 23.4 263.181 23.32 262.715 23.32C262.128 23.32 261.608 23.4733 261.155 23.78C260.701 24.0733 260.348 24.4867 260.095 25.02C259.988 25.2467 259.908 25.4867 259.855 25.74ZM274.686 32V17.68H276.886V24.62H277.006L282.706 17.68H285.466V17.8L279.426 24.96L285.786 31.88V32H282.906L277.006 25.44H276.886V32H274.686ZM291.275 32.32C290.222 32.32 289.295 32.08 288.495 31.6C287.695 31.12 287.068 30.4733 286.615 29.66C286.162 28.8333 285.935 27.9133 285.935 26.9C285.935 25.8867 286.162 24.9733 286.615 24.16C287.068 23.3333 287.695 22.68 288.495 22.2C289.295 21.72 290.222 21.48 291.275 21.48C292.315 21.48 293.235 21.7267 294.035 22.22C294.835 22.7 295.462 23.3467 295.915 24.16C296.368 24.9733 296.595 25.8867 296.595 26.9C296.595 27.9133 296.368 28.8333 295.915 29.66C295.462 30.4733 294.835 31.12 294.035 31.6C293.235 32.08 292.315 32.32 291.275 32.32ZM291.275 30.34C291.835 30.34 292.355 30.2067 292.835 29.94C293.315 29.66 293.702 29.2667 293.995 28.76C294.302 28.24 294.455 27.62 294.455 26.9C294.455 26.18 294.302 25.5667 293.995 25.06C293.702 24.54 293.315 24.1467 292.835 23.88C292.355 23.6 291.835 23.46 291.275 23.46C290.715 23.46 290.188 23.6 289.695 23.88C289.215 24.1467 288.822 24.54 288.515 25.06C288.222 25.5667 288.075 26.18 288.075 26.9C288.075 27.62 288.222 28.24 288.515 28.76C288.822 29.2667 289.222 29.66 289.715 29.94C290.208 30.2067 290.728 30.34 291.275 30.34ZM298.389 32V21.8H300.529V30.12H303.889V21.8H306.029V30.12H309.389V21.8H311.529V32H298.389ZM318.635 32.32C317.635 32.32 316.742 32.0867 315.955 31.62C315.168 31.1533 314.548 30.5133 314.095 29.7C313.655 28.8867 313.435 27.96 313.435 26.92C313.435 25.9467 313.648 25.0467 314.075 24.22C314.502 23.3933 315.095 22.7333 315.855 22.24C316.628 21.7333 317.515 21.48 318.515 21.48C319.568 21.48 320.462 21.7067 321.195 22.16C321.942 22.6133 322.508 23.2333 322.895 24.02C323.282 24.8067 323.475 25.6933 323.475 26.68C323.475 26.8267 323.468 26.96 323.455 27.08C323.455 27.2 323.448 27.2933 323.435 27.36H315.555C315.608 27.92 315.748 28.4067 315.975 28.82C316.268 29.34 316.655 29.7333 317.135 30C317.615 30.2667 318.135 30.4 318.695 30.4C319.375 30.4 319.942 30.2467 320.395 29.94C320.862 29.62 321.228 29.2267 321.495 28.76L323.275 29.62C322.835 30.42 322.235 31.0733 321.475 31.58C320.715 32.0733 319.768 32.32 318.635 32.32ZM315.675 25.74H321.335C321.322 25.4867 321.255 25.22 321.135 24.94C321.015 24.6467 320.842 24.38 320.615 24.14C320.388 23.9 320.102 23.7067 319.755 23.56C319.408 23.4 319.002 23.32 318.535 23.32C317.948 23.32 317.428 23.4733 316.975 23.78C316.522 24.0733 316.168 24.4867 315.915 25.02C315.808 25.2467 315.728 25.4867 315.675 25.74ZM325.443 32.16C325.297 32.16 325.143 32.1467 324.983 32.12C324.837 32.1067 324.697 32.0867 324.563 32.06V30.06C324.657 30.1 324.763 30.1333 324.883 30.16C325.003 30.1867 325.103 30.2 325.183 30.2C325.637 30.2 325.957 30.0267 326.143 29.68C326.33 29.32 326.443 28.8667 326.483 28.32C326.523 27.7733 326.543 27.2067 326.543 26.62V21.8H334.343V32H332.203V23.68H328.583V26.96C328.583 27.64 328.537 28.2933 328.443 28.92C328.35 29.5467 328.19 30.1067 327.963 30.6C327.75 31.08 327.437 31.46 327.023 31.74C326.623 32.02 326.097 32.16 325.443 32.16ZM339.045 21.8V25.2H341.385C342.092 25.2 342.718 25.3467 343.265 25.64C343.812 25.9333 344.245 26.34 344.565 26.86C344.885 27.3667 345.045 27.9467 345.045 28.6C345.045 29.24 344.885 29.82 344.565 30.34C344.245 30.86 343.812 31.2667 343.265 31.56C342.718 31.8533 342.092 32 341.385 32H336.885V21.8H339.045ZM339.045 26.98V30.2H341.205C341.685 30.2 342.085 30.0467 342.405 29.74C342.725 29.4333 342.885 29.0533 342.885 28.6C342.885 28.1467 342.725 27.7667 342.405 27.46C342.085 27.14 341.685 26.98 341.205 26.98H339.045ZM346.846 32V21.8H349.006V26.32H349.126L353.126 21.8H355.606V21.92L351.346 26.58L355.766 31.88V32H353.206L349.126 26.98H349.006V32H346.846ZM361.565 32.32C360.565 32.32 359.671 32.0867 358.885 31.62C358.098 31.1533 357.478 30.5133 357.025 29.7C356.585 28.8867 356.365 27.96 356.365 26.92C356.365 25.9467 356.578 25.0467 357.005 24.22C357.431 23.3933 358.025 22.7333 358.785 22.24C359.558 21.7333 360.445 21.48 361.445 21.48C362.498 21.48 363.391 21.7067 364.125 22.16C364.871 22.6133 365.438 23.2333 365.825 24.02C366.211 24.8067 366.405 25.6933 366.405 26.68C366.405 26.8267 366.398 26.96 366.385 27.08C366.385 27.2 366.378 27.2933 366.365 27.36H358.485C358.538 27.92 358.678 28.4067 358.905 28.82C359.198 29.34 359.585 29.7333 360.065 30C360.545 30.2667 361.065 30.4 361.625 30.4C362.305 30.4 362.871 30.2467 363.325 29.94C363.791 29.62 364.158 29.2267 364.425 28.76L366.205 29.62C365.765 30.42 365.165 31.0733 364.405 31.58C363.645 32.0733 362.698 32.32 361.565 32.32ZM358.605 25.74H364.265C364.251 25.4867 364.185 25.22 364.065 24.94C363.945 24.6467 363.771 24.38 363.545 24.14C363.318 23.9 363.031 23.7067 362.685 23.56C362.338 23.4 361.931 23.32 361.465 23.32C360.878 23.32 360.358 23.4733 359.905 23.78C359.451 24.0733 359.098 24.4867 358.845 25.02C358.738 25.2467 358.658 25.4867 358.605 25.74Z" fill="white"/>
</svg>
