<svg width="339" height="50" viewBox="0 0 339 50" fill="none" xmlns="http://www.w3.org/2000/svg">
<rect x="0.5" y="0.5" width="338" height="49" rx="24.5" fill="#1F1F1F"/>
<rect x="0.5" y="0.5" width="338" height="49" rx="24.5" stroke="#747775"/>
<path d="M51 22H21V17C21 14.2857 23.2018 12 25.8165 12H46.1835C48.7982 12 51 14.2857 51 17V22Z" fill="#34A853"/>
<path d="M51 26.0537H21V21.0537C21 18.3394 23.2018 16.0537 25.8165 16.0537H46.1835C48.7982 16.0537 51 18.3394 51 21.0537V26.0537Z" fill="#FBBC04"/>
<path d="M51 30.2468H21V25.2468C21 22.5325 23.2018 20.2468 25.8165 20.2468H46.1835C48.7982 20.2468 51 22.5325 51 25.2468V30.2468Z" fill="#EA4335"/>
<path d="M21 23.2752L40.0411 27.6789C42.2329 28.2294 44.6986 27.6789 46.4795 26.3028L51 23V33.3211C51 35.9358 48.8082 38 46.2055 38H25.7945C23.1918 38 21 35.9358 21 33.3211V23.2752Z" fill="#4285F4"/>
<path d="M71.4 32.32C70.3733 32.32 69.4067 32.1333 68.5 31.76C67.5933 31.3867 66.7933 30.8667 66.1 30.2C65.42 29.52 64.88 28.7267 64.48 27.82C64.0933 26.9 63.9 25.9067 63.9 24.84C63.9 23.7733 64.0933 22.7867 64.48 21.88C64.88 20.96 65.42 20.1667 66.1 19.5C66.7933 18.82 67.5933 18.2933 68.5 17.92C69.4067 17.5467 70.3733 17.36 71.4 17.36C72.4933 17.36 73.5 17.5533 74.42 17.94C75.3533 18.3267 76.1333 18.8667 76.76 19.56L75.24 21.06C74.9333 20.7133 74.58 20.42 74.18 20.18C73.7933 19.94 73.3667 19.76 72.9 19.64C72.4333 19.5067 71.9333 19.44 71.4 19.44C70.6933 19.44 70.02 19.5667 69.38 19.82C68.74 20.0733 68.1733 20.44 67.68 20.92C67.2 21.3867 66.82 21.9533 66.54 22.62C66.26 23.2733 66.12 24.0133 66.12 24.84C66.12 25.6667 66.26 26.4133 66.54 27.08C66.8333 27.7333 67.22 28.3 67.7 28.78C68.1933 29.2467 68.76 29.6067 69.4 29.86C70.04 30.1133 70.7133 30.24 71.42 30.24C72.0733 30.24 72.68 30.1467 73.24 29.96C73.8133 29.7733 74.3133 29.5067 74.74 29.16C75.1667 28.8133 75.5133 28.3933 75.78 27.9C76.0467 27.3933 76.2133 26.8267 76.28 26.2H71.38V24.26H78.34C78.3667 24.42 78.3933 24.6067 78.42 24.82C78.4467 25.02 78.46 25.2133 78.46 25.4V25.42C78.46 26.4467 78.28 27.3867 77.92 28.24C77.5733 29.0933 77.0867 29.8267 76.46 30.44C75.8333 31.04 75.0867 31.5067 74.22 31.84C73.3667 32.16 72.4267 32.32 71.4 32.32ZM84.8998 32.32C83.8465 32.32 82.9198 32.08 82.1198 31.6C81.3198 31.12 80.6932 30.4733 80.2398 29.66C79.7865 28.8333 79.5598 27.9133 79.5598 26.9C79.5598 25.8867 79.7865 24.9733 80.2398 24.16C80.6932 23.3333 81.3198 22.68 82.1198 22.2C82.9198 21.72 83.8465 21.48 84.8998 21.48C85.9398 21.48 86.8598 21.7267 87.6598 22.22C88.4598 22.7 89.0865 23.3467 89.5398 24.16C89.9932 24.9733 90.2198 25.8867 90.2198 26.9C90.2198 27.9133 89.9932 28.8333 89.5398 29.66C89.0865 30.4733 88.4598 31.12 87.6598 31.6C86.8598 32.08 85.9398 32.32 84.8998 32.32ZM84.8998 30.34C85.4598 30.34 85.9798 30.2067 86.4598 29.94C86.9398 29.66 87.3265 29.2667 87.6198 28.76C87.9265 28.24 88.0798 27.62 88.0798 26.9C88.0798 26.18 87.9265 25.5667 87.6198 25.06C87.3265 24.54 86.9398 24.1467 86.4598 23.88C85.9798 23.6 85.4598 23.46 84.8998 23.46C84.3398 23.46 83.8132 23.6 83.3198 23.88C82.8398 24.1467 82.4465 24.54 82.1398 25.06C81.8465 25.5667 81.6998 26.18 81.6998 26.9C81.6998 27.62 81.8465 28.24 82.1398 28.76C82.4465 29.2667 82.8465 29.66 83.3398 29.94C83.8332 30.2067 84.3532 30.34 84.8998 30.34ZM97.0092 32.32C95.9559 32.32 95.0292 32.08 94.2292 31.6C93.4292 31.12 92.8026 30.4733 92.3492 29.66C91.8959 28.8333 91.6692 27.9133 91.6692 26.9C91.6692 25.8867 91.8959 24.9733 92.3492 24.16C92.8026 23.3333 93.4292 22.68 94.2292 22.2C95.0292 21.72 95.9559 21.48 97.0092 21.48C98.0492 21.48 98.9692 21.7267 99.7692 22.22C100.569 22.7 101.196 23.3467 101.649 24.16C102.103 24.9733 102.329 25.8867 102.329 26.9C102.329 27.9133 102.103 28.8333 101.649 29.66C101.196 30.4733 100.569 31.12 99.7692 31.6C98.9692 32.08 98.0492 32.32 97.0092 32.32ZM97.0092 30.34C97.5692 30.34 98.0892 30.2067 98.5692 29.94C99.0492 29.66 99.4359 29.2667 99.7292 28.76C100.036 28.24 100.189 27.62 100.189 26.9C100.189 26.18 100.036 25.5667 99.7292 25.06C99.4359 24.54 99.0492 24.1467 98.5692 23.88C98.0892 23.6 97.5692 23.46 97.0092 23.46C96.4492 23.46 95.9226 23.6 95.4292 23.88C94.9492 24.1467 94.5559 24.54 94.2492 25.06C93.9559 25.5667 93.8092 26.18 93.8092 26.9C93.8092 27.62 93.9559 28.24 94.2492 28.76C94.5559 29.2667 94.9559 29.66 95.4492 29.94C95.9426 30.2067 96.4626 30.34 97.0092 30.34ZM108.919 36.64C108.025 36.64 107.252 36.4933 106.599 36.2C105.959 35.92 105.439 35.5533 105.039 35.1C104.639 34.66 104.352 34.2067 104.179 33.74L106.179 32.9C106.392 33.4333 106.732 33.8667 107.199 34.2C107.679 34.5467 108.252 34.72 108.919 34.72C109.865 34.72 110.605 34.44 111.139 33.88C111.672 33.32 111.939 32.5267 111.939 31.5V30.52H111.819C111.499 30.9867 111.059 31.3667 110.499 31.66C109.939 31.9533 109.292 32.1 108.559 32.1C107.692 32.1 106.892 31.88 106.159 31.44C105.439 31 104.859 30.3867 104.419 29.6C103.992 28.8 103.779 27.8667 103.779 26.8C103.779 25.72 103.992 24.7867 104.419 24C104.859 23.2 105.439 22.58 106.159 22.14C106.892 21.7 107.692 21.48 108.559 21.48C109.292 21.48 109.939 21.6267 110.499 21.92C111.059 22.2 111.499 22.5867 111.819 23.08H111.939V21.8H113.999V31.46C113.999 32.5667 113.779 33.5067 113.339 34.28C112.912 35.0533 112.319 35.64 111.559 36.04C110.799 36.44 109.919 36.64 108.919 36.64ZM108.939 30.14C109.472 30.14 109.965 30.0133 110.419 29.76C110.885 29.4933 111.252 29.1133 111.519 28.62C111.799 28.1133 111.939 27.5067 111.939 26.8C111.939 26.0533 111.799 25.4333 111.519 24.94C111.252 24.4467 110.885 24.0733 110.419 23.82C109.965 23.5667 109.472 23.44 108.939 23.44C108.405 23.44 107.905 23.5667 107.439 23.82C106.985 24.0733 106.619 24.4533 106.339 24.96C106.059 25.4533 105.919 26.0667 105.919 26.8C105.919 27.52 106.059 28.1333 106.339 28.64C106.619 29.1333 106.985 29.5067 107.439 29.76C107.905 30.0133 108.405 30.14 108.939 30.14ZM116.546 32V17.68H118.706V32H116.546ZM125.815 32.32C124.815 32.32 123.921 32.0867 123.135 31.62C122.348 31.1533 121.728 30.5133 121.275 29.7C120.835 28.8867 120.615 27.96 120.615 26.92C120.615 25.9467 120.828 25.0467 121.255 24.22C121.681 23.3933 122.275 22.7333 123.035 22.24C123.808 21.7333 124.695 21.48 125.695 21.48C126.748 21.48 127.641 21.7067 128.375 22.16C129.121 22.6133 129.688 23.2333 130.075 24.02C130.461 24.8067 130.655 25.6933 130.655 26.68C130.655 26.8267 130.648 26.96 130.635 27.08C130.635 27.2 130.628 27.2933 130.615 27.36H122.735C122.788 27.92 122.928 28.4067 123.155 28.82C123.448 29.34 123.835 29.7333 124.315 30C124.795 30.2667 125.315 30.4 125.875 30.4C126.555 30.4 127.121 30.2467 127.575 29.94C128.041 29.62 128.408 29.2267 128.675 28.76L130.455 29.62C130.015 30.42 129.415 31.0733 128.655 31.58C127.895 32.0733 126.948 32.32 125.815 32.32ZM122.855 25.74H128.515C128.501 25.4867 128.435 25.22 128.315 24.94C128.195 24.6467 128.021 24.38 127.795 24.14C127.568 23.9 127.281 23.7067 126.935 23.56C126.588 23.4 126.181 23.32 125.715 23.32C125.128 23.32 124.608 23.4733 124.155 23.78C123.701 24.0733 123.348 24.4867 123.095 25.02C122.988 25.2467 122.908 25.4867 122.855 25.74ZM139.446 32L135.606 17.68H138.046L140.326 26.98L140.566 28.22H140.686L140.986 26.98L143.866 17.68H146.066L148.826 26.98L149.126 28.2H149.246L149.486 26.98L151.766 17.68H154.186L150.406 32H148.086L145.346 22.5L145.026 21.16H144.906L144.566 22.5L141.706 32H139.446ZM158.202 32.32C157.469 32.32 156.816 32.1733 156.242 31.88C155.682 31.5867 155.236 31.1867 154.902 30.68C154.582 30.16 154.422 29.5667 154.422 28.9C154.422 28.1667 154.609 27.5467 154.982 27.04C155.369 26.5333 155.882 26.1467 156.522 25.88C157.162 25.6133 157.869 25.48 158.642 25.48C159.069 25.48 159.462 25.5133 159.822 25.58C160.196 25.6333 160.516 25.7 160.782 25.78C161.062 25.86 161.282 25.9467 161.442 26.04V25.5C161.442 24.8333 161.202 24.3 160.722 23.9C160.242 23.5 159.622 23.3 158.862 23.3C158.342 23.3 157.849 23.42 157.382 23.66C156.916 23.8867 156.542 24.2 156.262 24.6L154.782 23.46C155.076 23.0467 155.429 22.6933 155.842 22.4C156.269 22.1067 156.742 21.88 157.262 21.72C157.796 21.56 158.349 21.48 158.922 21.48C160.402 21.48 161.542 21.8467 162.342 22.58C163.142 23.3 163.542 24.3133 163.542 25.62V32H161.442V30.74H161.322C161.149 31.0067 160.909 31.26 160.602 31.5C160.309 31.74 159.956 31.9333 159.542 32.08C159.142 32.24 158.696 32.32 158.202 32.32ZM158.582 30.56C159.142 30.56 159.636 30.4267 160.062 30.16C160.502 29.8933 160.842 29.5467 161.082 29.12C161.322 28.68 161.442 28.2067 161.442 27.7C161.149 27.5267 160.789 27.3867 160.362 27.28C159.949 27.16 159.509 27.1 159.042 27.1C158.162 27.1 157.536 27.2733 157.162 27.62C156.789 27.9667 156.602 28.4 156.602 28.92C156.602 29.4 156.782 29.7933 157.142 30.1C157.502 30.4067 157.982 30.56 158.582 30.56ZM165.94 32V17.68H168.1V32H165.94ZM170.667 32V17.68H172.827V32H170.667ZM179.936 32.32C178.936 32.32 178.042 32.0867 177.256 31.62C176.469 31.1533 175.849 30.5133 175.396 29.7C174.956 28.8867 174.736 27.96 174.736 26.92C174.736 25.9467 174.949 25.0467 175.376 24.22C175.802 23.3933 176.396 22.7333 177.156 22.24C177.929 21.7333 178.816 21.48 179.816 21.48C180.869 21.48 181.762 21.7067 182.496 22.16C183.242 22.6133 183.809 23.2333 184.196 24.02C184.582 24.8067 184.776 25.6933 184.776 26.68C184.776 26.8267 184.769 26.96 184.756 27.08C184.756 27.2 184.749 27.2933 184.736 27.36H176.856C176.909 27.92 177.049 28.4067 177.276 28.82C177.569 29.34 177.956 29.7333 178.436 30C178.916 30.2667 179.436 30.4 179.996 30.4C180.676 30.4 181.242 30.2467 181.696 29.94C182.162 29.62 182.529 29.2267 182.796 28.76L184.576 29.62C184.136 30.42 183.536 31.0733 182.776 31.58C182.016 32.0733 181.069 32.32 179.936 32.32ZM176.976 25.74H182.636C182.622 25.4867 182.556 25.22 182.436 24.94C182.316 24.6467 182.142 24.38 181.916 24.14C181.689 23.9 181.402 23.7067 181.056 23.56C180.709 23.4 180.302 23.32 179.836 23.32C179.249 23.32 178.729 23.4733 178.276 23.78C177.822 24.0733 177.469 24.4867 177.216 25.02C177.109 25.2467 177.029 25.4867 176.976 25.74ZM185.787 21.8H187.567V18.92H189.727V21.8H192.227V23.68H189.727V28.58C189.727 29.0867 189.827 29.4733 190.027 29.74C190.24 30.0067 190.593 30.14 191.087 30.14C191.327 30.14 191.54 30.1067 191.727 30.04C191.913 29.96 192.1 29.8667 192.287 29.76V31.86C192.06 31.9533 191.82 32.0267 191.567 32.08C191.313 32.1333 191.013 32.16 190.667 32.16C189.72 32.16 188.967 31.8867 188.407 31.34C187.847 30.78 187.567 30.0133 187.567 29.04V23.68H185.787V21.8Z" fill="white"/>
<path d="M206.58 33.22C205.647 33.22 204.8 33.08 204.04 32.8C203.293 32.52 202.693 32.08 202.24 31.48C201.8 30.8667 201.58 30.0733 201.58 29.1V29.04L200.9 30.2L199.42 29.36C200.18 28.3067 200.92 27.3267 201.64 26.42C202.36 25.5133 203.08 24.7067 203.8 24C203.693 23.6 203.527 23.28 203.3 23.04C203.087 22.7867 202.8 22.66 202.44 22.66C201.68 22.66 201.3 23.0733 201.3 23.9C201.3 24.0867 201.32 24.2667 201.36 24.44C201.4 24.6133 201.447 24.7867 201.5 24.96L199.86 25.28C199.78 25.0133 199.713 24.7467 199.66 24.48C199.62 24.2133 199.6 23.9533 199.6 23.7C199.6 22.8867 199.853 22.26 200.36 21.82C200.867 21.38 201.547 21.16 202.4 21.16C203.093 21.16 203.653 21.3267 204.08 21.66C204.507 21.9933 204.833 22.4067 205.06 22.9C205.927 22.2067 206.84 21.68 207.8 21.32C208.76 20.9467 209.793 20.76 210.9 20.76C212.327 20.76 213.533 21.0333 214.52 21.58C215.507 22.1267 216.247 22.8933 216.74 23.88C217.247 24.8533 217.5 25.9867 217.5 27.28C217.5 28.5333 217.273 29.5933 216.82 30.46C216.38 31.3133 215.773 31.96 215 32.4C214.227 32.84 213.367 33.06 212.42 33.06C212.353 33.06 212.287 33.06 212.22 33.06C211.673 33.4467 211.4 33.9267 211.4 34.5C211.4 34.9667 211.56 35.3267 211.88 35.58C212.2 35.8467 212.713 35.98 213.42 35.98C214.06 35.98 214.547 35.8867 214.88 35.7C215.227 35.5133 215.467 35.2533 215.6 34.92C215.733 34.6 215.8 34.2267 215.8 33.8C215.8 33.5733 215.78 33.34 215.74 33.1L217.38 33C217.407 33.16 217.427 33.3133 217.44 33.46C217.453 33.6067 217.46 33.7533 217.46 33.9C217.46 34.58 217.327 35.1933 217.06 35.74C216.807 36.3 216.387 36.74 215.8 37.06C215.213 37.3933 214.42 37.56 213.42 37.56C212.473 37.56 211.733 37.4133 211.2 37.12C210.667 36.84 210.287 36.4733 210.06 36.02C209.847 35.58 209.74 35.1267 209.74 34.66C209.74 33.9533 209.927 33.3467 210.3 32.84C210.673 32.3333 211.18 31.8667 211.82 31.44C211.887 31.44 211.973 31.4467 212.08 31.46C212.187 31.46 212.273 31.46 212.34 31.46C213.153 31.4467 213.813 31.2533 214.32 30.88C214.827 30.5067 215.193 30.0067 215.42 29.38C215.66 28.74 215.78 28.0267 215.78 27.24C215.78 25.6667 215.327 24.48 214.42 23.68C213.527 22.8667 212.327 22.46 210.82 22.46C209.78 22.46 208.84 22.6267 208 22.96C207.16 23.2933 206.393 23.7267 205.7 24.26C205.94 24.2067 206.207 24.16 206.5 24.12C206.793 24.0667 207.093 24.04 207.4 24.04C208.96 24.04 210.133 24.4333 210.92 25.22C211.72 26.0067 212.12 27.0733 212.12 28.42C212.12 28.9933 212.04 29.5667 211.88 30.14C211.72 30.7 211.44 31.2133 211.04 31.68C210.64 32.1467 210.073 32.52 209.34 32.8C208.62 33.08 207.7 33.22 206.58 33.22ZM203.1 28.82C203.1 29.7267 203.407 30.3933 204.02 30.82C204.647 31.2333 205.513 31.44 206.62 31.44C207.98 31.44 208.953 31.1667 209.54 30.62C210.14 30.0733 210.44 29.3333 210.44 28.4C210.44 27.4133 210.127 26.6933 209.5 26.24C208.873 25.7867 208.027 25.56 206.96 25.56C206.387 25.56 205.867 25.5933 205.4 25.66C204.947 25.7267 204.487 25.8467 204.02 26.02C203.753 26.3267 203.487 26.64 203.22 26.96C202.967 27.2667 202.72 27.58 202.48 27.9L203.2 27.94C203.133 28.2067 203.1 28.5 203.1 28.82ZM226.239 37.34C224.879 37.34 223.726 37.1667 222.779 36.82C221.833 36.4733 221.059 35.9933 220.459 35.38C219.873 34.78 219.439 34.0867 219.159 33.3C218.893 32.5133 218.759 31.68 218.759 30.8C218.759 28.4933 219.659 26.74 221.459 25.54C221.446 25.3267 221.439 25.0933 221.439 24.84C221.439 23.5867 221.746 22.5933 222.359 21.86C222.986 21.1267 223.813 20.76 224.839 20.76C225.413 20.76 225.866 20.8733 226.199 21.1C226.546 21.3133 226.813 21.5333 226.999 21.76C227.266 21.4667 227.593 21.2267 227.979 21.04C228.366 20.8533 228.806 20.76 229.299 20.76C230.366 20.76 231.193 21.0933 231.779 21.76C232.379 22.4267 232.679 23.3733 232.679 24.6V25.4H229.979C228.273 25.4 226.879 25.4733 225.799 25.62C224.733 25.7667 223.853 26.0133 223.159 26.36C223.359 27.44 223.793 28.24 224.459 28.76C225.139 29.28 226.019 29.54 227.099 29.54C228.299 29.54 229.226 29.3267 229.879 28.9C230.533 28.4733 230.906 27.7733 230.999 26.8L232.639 26.96C232.506 28.28 231.999 29.3133 231.119 30.06C230.253 30.8067 228.946 31.18 227.199 31.18C226.119 31.18 225.206 31.02 224.459 30.7C223.726 30.3667 223.133 29.9133 222.679 29.34C222.239 28.7667 221.919 28.1067 221.719 27.36C221.319 27.76 221.026 28.24 220.839 28.8C220.653 29.36 220.559 30.0133 220.559 30.76C220.559 32.2533 221.039 33.44 221.999 34.32C222.959 35.2133 224.386 35.66 226.279 35.66C227.986 35.66 229.313 35.3333 230.259 34.68C231.206 34.04 231.679 33.1333 231.679 31.96C231.679 31.9067 231.679 31.8333 231.679 31.74C231.679 31.6467 231.673 31.5533 231.659 31.46L233.319 31.38C233.346 31.5133 233.359 31.6333 233.359 31.74C233.373 31.8333 233.379 31.9533 233.379 32.1C233.379 33.26 233.079 34.2267 232.479 35C231.879 35.7733 231.039 36.3533 229.959 36.74C228.893 37.14 227.653 37.34 226.239 37.34ZM224.859 22.26C223.713 22.26 223.106 23.0867 223.039 24.74C223.773 24.4467 224.626 24.2333 225.599 24.1C226.573 23.9667 227.733 23.9 229.079 23.9H231.039C231.013 23.3667 230.839 22.96 230.519 22.68C230.213 22.4 229.799 22.26 229.279 22.26C228.399 22.26 227.899 22.6667 227.779 23.48H226.199C226.173 23.16 226.053 22.88 225.839 22.64C225.639 22.3867 225.313 22.26 224.859 22.26ZM255.148 33.22C254.175 33.22 253.455 32.9667 252.988 32.46C252.522 31.94 252.288 31.32 252.288 30.6C252.288 30.2133 252.342 29.8467 252.448 29.5C252.555 29.14 252.695 28.7533 252.868 28.34C253.015 27.98 253.142 27.6267 253.248 27.28C253.355 26.9333 253.408 26.5533 253.408 26.14C253.408 25.34 253.142 24.7067 252.608 24.24C252.075 23.7733 251.315 23.54 250.328 23.54C249.008 23.54 247.955 23.96 247.168 24.8C246.395 25.6267 246.008 26.7467 246.008 28.16C246.008 28.4 246.022 28.64 246.048 28.88C246.075 29.1067 246.115 29.3333 246.168 29.56C246.528 29.1733 246.948 28.8533 247.428 28.6C247.908 28.3333 248.455 28.2 249.068 28.2C249.975 28.2 250.642 28.4467 251.068 28.94C251.495 29.4333 251.708 30 251.708 30.64C251.708 31.4267 251.462 32.0533 250.968 32.52C250.488 32.9867 249.742 33.22 248.728 33.22C247.822 33.22 247.035 33 246.368 32.56C245.715 32.1067 245.215 31.4933 244.868 30.72C244.522 29.9333 244.348 29.0467 244.348 28.06C244.348 26.8467 244.588 25.7733 245.068 24.84C245.562 23.9067 246.262 23.1733 247.168 22.64C248.088 22.0933 249.188 21.82 250.468 21.82C251.468 21.82 252.322 21.9933 253.028 22.34C253.735 22.6867 254.275 23.1667 254.648 23.78C255.022 24.38 255.208 25.0667 255.208 25.84C255.208 26.3467 255.142 26.82 255.008 27.26C254.875 27.7 254.715 28.1533 254.528 28.62C254.382 29.0067 254.262 29.3267 254.168 29.58C254.088 29.8333 254.048 30.0867 254.048 30.34C254.048 30.74 254.162 31.0333 254.388 31.22C254.628 31.4067 254.935 31.5 255.308 31.5C255.935 31.5 256.508 31.26 257.028 30.78C257.562 30.2867 257.982 29.5933 258.288 28.7C258.595 27.7933 258.748 26.7133 258.748 25.46C258.748 23.9667 258.495 22.6533 257.988 21.52C257.482 20.3867 256.708 19.5 255.668 18.86C254.628 18.22 253.302 17.9 251.688 17.9C250.528 17.9 249.435 18.0333 248.408 18.3C247.382 18.5533 246.382 18.9533 245.408 19.5L244.648 18C245.715 17.44 246.842 17.0133 248.028 16.72C249.215 16.4267 250.455 16.28 251.748 16.28C253.708 16.28 255.335 16.66 256.628 17.42C257.922 18.18 258.888 19.2467 259.528 20.62C260.168 21.98 260.488 23.5667 260.488 25.38C260.488 26.9133 260.282 28.2667 259.868 29.44C259.468 30.6133 258.868 31.54 258.068 32.22C257.282 32.8867 256.308 33.22 255.148 33.22ZM248.888 29.68C248.142 29.68 247.435 30.0667 246.768 30.84C247.222 31.4133 247.862 31.7 248.688 31.7C249.168 31.7 249.515 31.6133 249.728 31.44C249.942 31.2533 250.048 31 250.048 30.68C250.048 30.4133 249.948 30.18 249.748 29.98C249.562 29.78 249.275 29.68 248.888 29.68ZM270.326 37.22C268.379 37.22 266.793 36.88 265.566 36.2C264.339 35.52 263.433 34.58 262.846 33.38C262.259 32.1933 261.966 30.82 261.966 29.26C261.966 27.5933 262.319 26.12 263.026 24.84C263.746 23.56 264.786 22.56 266.146 21.84C267.506 21.12 269.153 20.76 271.086 20.76C272.713 20.76 274.013 20.9667 274.986 21.38C275.959 21.7933 276.659 22.36 277.086 23.08C277.526 23.7867 277.746 24.58 277.746 25.46C277.746 26.58 277.379 27.5 276.646 28.22C275.926 28.94 274.826 29.3 273.346 29.3C272.053 29.3 271.139 29.0467 270.606 28.54C270.073 28.02 269.806 27.3467 269.806 26.52C269.806 26.32 269.833 26.1133 269.886 25.9H267.106V24.32H274.466V25.9H271.626C271.533 26.0733 271.486 26.26 271.486 26.46C271.486 26.82 271.626 27.12 271.906 27.36C272.186 27.5867 272.673 27.7 273.366 27.7C274.246 27.7 274.906 27.5067 275.346 27.12C275.799 26.7333 276.026 26.18 276.026 25.46C276.026 24.8467 275.873 24.3067 275.566 23.84C275.259 23.3733 274.746 23.0133 274.026 22.76C273.319 22.4933 272.366 22.36 271.166 22.36C269.513 22.36 268.139 22.6467 267.046 23.22C265.966 23.78 265.153 24.58 264.606 25.62C264.073 26.6467 263.806 27.86 263.806 29.26C263.806 31.2733 264.373 32.82 265.506 33.9C266.639 34.98 268.259 35.52 270.366 35.52C271.459 35.52 272.453 35.34 273.346 34.98C274.239 34.6333 274.946 34.0867 275.466 33.34C275.986 32.6067 276.246 31.6667 276.246 30.52C276.246 30.4533 276.246 30.3467 276.246 30.2C276.246 30.04 276.233 29.9 276.206 29.78L277.866 29.7C277.906 30.0067 277.926 30.2933 277.926 30.56C277.926 31.6933 277.726 32.68 277.326 33.52C276.926 34.36 276.373 35.0533 275.666 35.6C274.973 36.1467 274.166 36.5533 273.246 36.82C272.326 37.0867 271.353 37.22 270.326 37.22ZM286.09 33.22C284.917 33.22 283.85 33.02 282.89 32.62C281.93 32.2067 281.124 31.5467 280.47 30.64C279.817 29.7333 279.357 28.5267 279.09 27.02L280.69 26.74C280.73 26.98 280.784 27.2067 280.85 27.42C280.93 27.42 281.01 27.42 281.09 27.42C281.53 27.42 281.957 27.36 282.37 27.24C282.784 27.12 283.164 26.88 283.51 26.52C283.87 26.1467 284.177 25.6 284.43 24.88C284.364 24.2667 284.21 23.7467 283.97 23.32C283.744 22.88 283.384 22.66 282.89 22.66C282.13 22.66 281.75 23.0733 281.75 23.9C281.75 24.0867 281.77 24.2667 281.81 24.44C281.864 24.6133 281.91 24.7867 281.95 24.96L280.31 25.28C280.23 25.0133 280.164 24.7467 280.11 24.48C280.07 24.2133 280.05 23.9533 280.05 23.7C280.05 22.8867 280.304 22.26 280.81 21.82C281.317 21.38 282.004 21.16 282.87 21.16C283.59 21.16 284.15 21.3333 284.55 21.68C284.964 22.0133 285.27 22.44 285.47 22.96C286.017 22.36 286.71 21.8467 287.55 21.42C288.39 20.98 289.384 20.76 290.53 20.76C291.97 20.76 293.184 21.0333 294.17 21.58C295.17 22.1267 295.924 22.8867 296.43 23.86C296.95 24.8333 297.21 25.96 297.21 27.24C297.21 28.52 296.99 29.5933 296.55 30.46C296.11 31.3267 295.517 31.98 294.77 32.42C294.024 32.8467 293.19 33.06 292.27 33.06C292.084 33.06 291.917 33.0533 291.77 33.04C291.624 33.04 291.464 33.0333 291.29 33.02L291.37 31.42C291.45 31.4333 291.564 31.4467 291.71 31.46C291.857 31.46 291.964 31.46 292.03 31.46C292.87 31.46 293.544 31.2733 294.05 30.9C294.557 30.5267 294.924 30.0333 295.15 29.42C295.377 28.7933 295.49 28.0933 295.49 27.32C295.49 26.28 295.277 25.4 294.85 24.68C294.424 23.96 293.83 23.4133 293.07 23.04C292.31 22.6533 291.43 22.46 290.43 22.46C289.537 22.46 288.77 22.6133 288.13 22.92C287.504 23.2133 286.964 23.6 286.51 24.08C286.75 24.0533 286.99 24.04 287.23 24.04C288.737 24.04 289.884 24.4267 290.67 25.2C291.47 25.96 291.87 27.0333 291.87 28.42C291.87 28.9933 291.777 29.5667 291.59 30.14C291.404 30.7 291.09 31.2133 290.65 31.68C290.224 32.1467 289.637 32.52 288.89 32.8C288.144 33.08 287.21 33.22 286.09 33.22ZM286.79 25.56C286.457 25.56 286.15 25.5733 285.87 25.6C285.604 26.4267 285.25 27.08 284.81 27.56C284.384 28.0267 283.877 28.3667 283.29 28.58C282.717 28.78 282.09 28.8933 281.41 28.92C281.877 29.8133 282.497 30.46 283.27 30.86C284.057 31.2467 285.01 31.44 286.13 31.44C287.45 31.44 288.457 31.16 289.15 30.6C289.844 30.04 290.19 29.2733 290.19 28.3C290.19 27.38 289.89 26.6933 289.29 26.24C288.69 25.7867 287.857 25.56 286.79 25.56ZM293.55 22.54V16.68C293.55 16.3867 293.537 16.1533 293.51 15.98C293.484 15.7933 293.437 15.64 293.37 15.52C293.21 15.2267 292.93 15.0067 292.53 14.86L293.13 13.5C293.81 13.6867 294.25 14.0133 294.45 14.48C294.597 14.1867 294.804 13.9533 295.07 13.78C295.35 13.5933 295.69 13.5 296.09 13.5C296.624 13.5 297.057 13.6667 297.39 14C297.737 14.32 297.91 14.7933 297.91 15.42C297.91 16.06 297.724 16.5533 297.35 16.9C296.977 17.2467 296.43 17.42 295.71 17.42C295.497 17.42 295.29 17.4067 295.09 17.38V22.54H293.55ZM295.09 15.86V16.14C295.264 16.1667 295.437 16.18 295.61 16.18C296.29 16.18 296.63 15.9267 296.63 15.42C296.63 15.1933 296.564 15.0267 296.43 14.92C296.297 14.8 296.137 14.74 295.95 14.74C295.604 14.74 295.37 14.84 295.25 15.04C295.144 15.24 295.09 15.5133 295.09 15.86ZM305.426 33.22C304.253 33.22 303.186 33.02 302.226 32.62C301.266 32.2067 300.46 31.5467 299.806 30.64C299.153 29.7333 298.693 28.5267 298.426 27.02L300.026 26.74C300.066 26.98 300.12 27.2067 300.186 27.42C300.266 27.42 300.346 27.42 300.426 27.42C300.866 27.42 301.293 27.36 301.706 27.24C302.12 27.12 302.5 26.88 302.846 26.52C303.206 26.1467 303.513 25.6 303.766 24.88C303.7 24.2667 303.546 23.7467 303.306 23.32C303.08 22.88 302.72 22.66 302.226 22.66C301.466 22.66 301.086 23.0733 301.086 23.9C301.086 24.0867 301.106 24.2667 301.146 24.44C301.2 24.6133 301.246 24.7867 301.286 24.96L299.646 25.28C299.566 25.0133 299.5 24.7467 299.446 24.48C299.406 24.2133 299.386 23.9533 299.386 23.7C299.386 22.8867 299.64 22.26 300.146 21.82C300.653 21.38 301.34 21.16 302.206 21.16C302.926 21.16 303.486 21.3333 303.886 21.68C304.3 22.0133 304.606 22.44 304.806 22.96C305.353 22.36 306.046 21.8467 306.886 21.42C307.726 20.98 308.72 20.76 309.866 20.76C311.306 20.76 312.52 21.0333 313.506 21.58C314.506 22.1267 315.26 22.8867 315.766 23.86C316.286 24.8333 316.546 25.96 316.546 27.24C316.546 28.52 316.326 29.5933 315.886 30.46C315.446 31.3267 314.853 31.98 314.106 32.42C313.36 32.8467 312.526 33.06 311.606 33.06C311.42 33.06 311.253 33.0533 311.106 33.04C310.96 33.04 310.8 33.0333 310.626 33.02L310.706 31.42C310.786 31.4333 310.9 31.4467 311.046 31.46C311.193 31.46 311.3 31.46 311.366 31.46C312.206 31.46 312.88 31.2733 313.386 30.9C313.893 30.5267 314.26 30.0333 314.486 29.42C314.713 28.7933 314.826 28.0933 314.826 27.32C314.826 26.28 314.613 25.4 314.186 24.68C313.76 23.96 313.166 23.4133 312.406 23.04C311.646 22.6533 310.766 22.46 309.766 22.46C308.873 22.46 308.106 22.6133 307.466 22.92C306.84 23.2133 306.3 23.6 305.846 24.08C306.086 24.0533 306.326 24.04 306.566 24.04C308.073 24.04 309.22 24.4267 310.006 25.2C310.806 25.96 311.206 27.0333 311.206 28.42C311.206 28.9933 311.113 29.5667 310.926 30.14C310.74 30.7 310.426 31.2133 309.986 31.68C309.56 32.1467 308.973 32.52 308.226 32.8C307.48 33.08 306.546 33.22 305.426 33.22ZM306.126 25.56C305.793 25.56 305.486 25.5733 305.206 25.6C304.94 26.4267 304.586 27.08 304.146 27.56C303.72 28.0267 303.213 28.3667 302.626 28.58C302.053 28.78 301.426 28.8933 300.746 28.92C301.213 29.8133 301.833 30.46 302.606 30.86C303.393 31.2467 304.346 31.44 305.466 31.44C306.786 31.44 307.793 31.16 308.486 30.6C309.18 30.04 309.526 29.2733 309.526 28.3C309.526 27.38 309.226 26.6933 308.626 26.24C308.026 25.7867 307.193 25.56 306.126 25.56Z" fill="white"/>
</svg>
