<svg width="356" height="50" viewBox="0 0 356 50" fill="none" xmlns="http://www.w3.org/2000/svg">
<rect x="0.5" y="0.5" width="355" height="49" rx="24.5" fill="#1F1F1F"/>
<rect x="0.5" y="0.5" width="355" height="49" rx="24.5" stroke="#747775"/>
<path d="M51 22H21V17C21 14.2857 23.2018 12 25.8165 12H46.1835C48.7982 12 51 14.2857 51 17V22Z" fill="#34A853"/>
<path d="M51 26.0537H21V21.0537C21 18.3394 23.2018 16.0537 25.8165 16.0537H46.1835C48.7982 16.0537 51 18.3394 51 21.0537V26.0537Z" fill="#FBBC04"/>
<path d="M51 30.2468H21V25.2468C21 22.5325 23.2018 20.2468 25.8165 20.2468H46.1835C48.7982 20.2468 51 22.5325 51 25.2468V30.2468Z" fill="#EA4335"/>
<path d="M21 23.2752L40.0411 27.6789C42.2329 28.2294 44.6986 27.6789 46.4795 26.3028L51 23V33.3211C51 35.9358 48.8082 38 46.2055 38H25.7945C23.1918 38 21 35.9358 21 33.3211V23.2752Z" fill="#4285F4"/>
<path d="M63.76 32V29.76L71.26 19.76H64.08V17.68H73.8V19.92L66.36 29.92H73.88V32H63.76ZM80.6811 32.32C79.6278 32.32 78.7011 32.08 77.9011 31.6C77.1011 31.12 76.4744 30.4733 76.0211 29.66C75.5678 28.8333 75.3411 27.9133 75.3411 26.9C75.3411 25.8867 75.5678 24.9733 76.0211 24.16C76.4744 23.3333 77.1011 22.68 77.9011 22.2C78.7011 21.72 79.6278 21.48 80.6811 21.48C81.7211 21.48 82.6411 21.7267 83.4411 22.22C84.2411 22.7 84.8678 23.3467 85.3211 24.16C85.7744 24.9733 86.0011 25.8867 86.0011 26.9C86.0011 27.9133 85.7744 28.8333 85.3211 29.66C84.8678 30.4733 84.2411 31.12 83.4411 31.6C82.6411 32.08 81.7211 32.32 80.6811 32.32ZM80.6811 30.34C81.2411 30.34 81.7611 30.2067 82.2411 29.94C82.7211 29.66 83.1078 29.2667 83.4011 28.76C83.7078 28.24 83.8611 27.62 83.8611 26.9C83.8611 26.18 83.7078 25.5667 83.4011 25.06C83.1078 24.54 82.7211 24.1467 82.2411 23.88C81.7611 23.6 81.2411 23.46 80.6811 23.46C80.1211 23.46 79.5944 23.6 79.1011 23.88C78.6211 24.1467 78.2278 24.54 77.9211 25.06C77.6278 25.5667 77.4811 26.18 77.4811 26.9C77.4811 27.62 77.6278 28.24 77.9211 28.76C78.2278 29.2667 78.6278 29.66 79.1211 29.94C79.6144 30.2067 80.1344 30.34 80.6811 30.34ZM93.3328 32.32C92.8128 32.32 92.3395 32.24 91.9128 32.08C91.4861 31.92 91.1128 31.7133 90.7928 31.46C90.4861 31.1933 90.2395 30.92 90.0528 30.64H89.9328V32H87.8928V17.68H90.0528V21.76L89.9328 23.18H90.0528C90.2395 22.8867 90.4861 22.6133 90.7928 22.36C91.1128 22.0933 91.4861 21.88 91.9128 21.72C92.3395 21.56 92.8128 21.48 93.3328 21.48C94.2661 21.48 95.0995 21.7133 95.8328 22.18C96.5661 22.6467 97.1461 23.2867 97.5728 24.1C98.0128 24.9133 98.2328 25.8467 98.2328 26.9C98.2328 27.9533 98.0128 28.8867 97.5728 29.7C97.1461 30.5133 96.5661 31.1533 95.8328 31.62C95.0995 32.0867 94.2661 32.32 93.3328 32.32ZM93.0128 30.34C93.5461 30.34 94.0461 30.2 94.5128 29.92C94.9928 29.64 95.3728 29.24 95.6528 28.72C95.9461 28.2 96.0928 27.5933 96.0928 26.9C96.0928 26.1933 95.9461 25.5867 95.6528 25.08C95.3728 24.56 94.9928 24.16 94.5128 23.88C94.0461 23.6 93.5461 23.46 93.0128 23.46C92.4795 23.46 91.9795 23.6 91.5128 23.88C91.0461 24.16 90.6661 24.56 90.3728 25.08C90.0795 25.5867 89.9328 26.1933 89.9328 26.9C89.9328 27.6067 90.0795 28.22 90.3728 28.74C90.6661 29.2467 91.0461 29.64 91.5128 29.92C91.9795 30.2 92.4795 30.34 93.0128 30.34ZM100.022 32V21.8H102.062V23.3H102.182C102.342 22.9533 102.568 22.6467 102.862 22.38C103.168 22.1133 103.515 21.9 103.902 21.74C104.302 21.58 104.715 21.5 105.142 21.5C105.422 21.5 105.655 21.52 105.842 21.56C106.042 21.5867 106.222 21.6333 106.382 21.7V23.94C106.128 23.8333 105.868 23.7467 105.602 23.68C105.348 23.6133 105.082 23.58 104.802 23.58C104.295 23.58 103.842 23.72 103.442 24C103.055 24.2667 102.748 24.6267 102.522 25.08C102.295 25.5333 102.182 26.04 102.182 26.6V32H100.022ZM110.898 32.32C110.164 32.32 109.511 32.1733 108.938 31.88C108.378 31.5867 107.931 31.1867 107.598 30.68C107.278 30.16 107.118 29.5667 107.118 28.9C107.118 28.1667 107.304 27.5467 107.678 27.04C108.064 26.5333 108.578 26.1467 109.218 25.88C109.858 25.6133 110.564 25.48 111.338 25.48C111.764 25.48 112.158 25.5133 112.518 25.58C112.891 25.6333 113.211 25.7 113.478 25.78C113.758 25.86 113.978 25.9467 114.138 26.04V25.5C114.138 24.8333 113.898 24.3 113.418 23.9C112.938 23.5 112.318 23.3 111.558 23.3C111.038 23.3 110.544 23.42 110.078 23.66C109.611 23.8867 109.238 24.2 108.958 24.6L107.478 23.46C107.771 23.0467 108.124 22.6933 108.538 22.4C108.964 22.1067 109.438 21.88 109.958 21.72C110.491 21.56 111.044 21.48 111.618 21.48C113.098 21.48 114.238 21.8467 115.038 22.58C115.838 23.3 116.238 24.3133 116.238 25.62V32H114.138V30.74H114.018C113.844 31.0067 113.604 31.26 113.298 31.5C113.004 31.74 112.651 31.9333 112.238 32.08C111.838 32.24 111.391 32.32 110.898 32.32ZM111.278 30.56C111.838 30.56 112.331 30.4267 112.758 30.16C113.198 29.8933 113.538 29.5467 113.778 29.12C114.018 28.68 114.138 28.2067 114.138 27.7C113.844 27.5267 113.484 27.3867 113.058 27.28C112.644 27.16 112.204 27.1 111.738 27.1C110.858 27.1 110.231 27.2733 109.858 27.62C109.484 27.9667 109.298 28.4 109.298 28.92C109.298 29.4 109.478 29.7933 109.838 30.1C110.198 30.4067 110.678 30.56 111.278 30.56ZM118.076 32V30.2L123.756 23.68H118.256V21.8H126.396V23.6L120.736 30.12H126.556V32H118.076ZM128.932 32V21.8H131.092V32H128.932ZM130.012 20.3C129.612 20.3 129.265 20.16 128.972 19.88C128.692 19.5867 128.552 19.24 128.552 18.84C128.552 18.4267 128.692 18.0867 128.972 17.82C129.265 17.54 129.612 17.4 130.012 17.4C130.425 17.4 130.772 17.54 131.052 17.82C131.332 18.0867 131.472 18.4267 131.472 18.84C131.472 19.24 131.332 19.5867 131.052 19.88C130.772 20.16 130.425 20.3 130.012 20.3ZM132.974 21.8H134.754V18.92H136.914V21.8H139.414V23.68H136.914V28.58C136.914 29.0867 137.014 29.4733 137.214 29.74C137.427 30.0067 137.781 30.14 138.274 30.14C138.514 30.14 138.727 30.1067 138.914 30.04C139.101 29.96 139.287 29.8667 139.474 29.76V31.86C139.247 31.9533 139.007 32.0267 138.754 32.08C138.501 32.1333 138.201 32.16 137.854 32.16C136.907 32.16 136.154 31.8867 135.594 31.34C135.034 30.78 134.754 30.0133 134.754 29.04V23.68H132.974V21.8ZM138.034 20.62V17.68H140.054L139.554 20.62H138.034Z" fill="white"/>
<path d="M150.36 32L146.14 21.8H148.54L151.4 29.22H151.5L154.42 21.8H156.78L152.52 32H150.36ZM163.206 32V17.68H168.126C168.993 17.68 169.779 17.8667 170.486 18.24C171.193 18.6 171.753 19.1133 172.166 19.78C172.593 20.4333 172.806 21.1933 172.806 22.06C172.806 22.9133 172.593 23.6733 172.166 24.34C171.753 25.0067 171.193 25.5267 170.486 25.9C169.779 26.26 168.993 26.44 168.126 26.44H165.406V32H163.206ZM165.406 24.36H168.186C168.706 24.36 169.146 24.2533 169.506 24.04C169.866 23.8133 170.139 23.5267 170.326 23.18C170.526 22.82 170.626 22.4467 170.626 22.06C170.626 21.6733 170.526 21.3067 170.326 20.96C170.139 20.6133 169.866 20.3267 169.506 20.1C169.146 19.8733 168.706 19.76 168.186 19.76H165.406V24.36ZM178.658 32.32C177.658 32.32 176.765 32.0867 175.978 31.62C175.192 31.1533 174.572 30.5133 174.118 29.7C173.678 28.8867 173.458 27.96 173.458 26.92C173.458 25.9467 173.672 25.0467 174.098 24.22C174.525 23.3933 175.118 22.7333 175.878 22.24C176.652 21.7333 177.538 21.48 178.538 21.48C179.592 21.48 180.485 21.7067 181.218 22.16C181.965 22.6133 182.532 23.2333 182.918 24.02C183.305 24.8067 183.498 25.6933 183.498 26.68C183.498 26.8267 183.492 26.96 183.478 27.08C183.478 27.2 183.472 27.2933 183.458 27.36H175.578C175.632 27.92 175.772 28.4067 175.998 28.82C176.292 29.34 176.678 29.7333 177.158 30C177.638 30.2667 178.158 30.4 178.718 30.4C179.398 30.4 179.965 30.2467 180.418 29.94C180.885 29.62 181.252 29.2267 181.518 28.76L183.298 29.62C182.858 30.42 182.258 31.0733 181.498 31.58C180.738 32.0733 179.792 32.32 178.658 32.32ZM175.698 25.74H181.358C181.345 25.4867 181.278 25.22 181.158 24.94C181.038 24.6467 180.865 24.38 180.638 24.14C180.412 23.9 180.125 23.7067 179.778 23.56C179.432 23.4 179.025 23.32 178.558 23.32C177.972 23.32 177.452 23.4733 176.998 23.78C176.545 24.0733 176.192 24.4867 175.938 25.02C175.832 25.2467 175.752 25.4867 175.698 25.74ZM185.502 32V21.8H187.542V23.2H187.662C187.956 22.7067 188.389 22.3 188.962 21.98C189.549 21.6467 190.189 21.48 190.882 21.48C192.136 21.48 193.076 21.8533 193.702 22.6C194.329 23.3333 194.642 24.32 194.642 25.56V32H192.502V25.84C192.502 25.0133 192.296 24.4133 191.882 24.04C191.469 23.6533 190.929 23.46 190.262 23.46C189.742 23.46 189.289 23.6067 188.902 23.9C188.516 24.18 188.209 24.5533 187.982 25.02C187.769 25.4867 187.662 25.9867 187.662 26.52V32H185.502ZM189.362 19.84L187.222 17.42V17.28H189.282L190.202 18.52H190.402L191.342 17.28H193.422V17.42L191.262 19.84H189.362ZM200.206 32.32C199.473 32.32 198.819 32.1733 198.246 31.88C197.686 31.5867 197.239 31.1867 196.906 30.68C196.586 30.16 196.426 29.5667 196.426 28.9C196.426 28.1667 196.613 27.5467 196.986 27.04C197.373 26.5333 197.886 26.1467 198.526 25.88C199.166 25.6133 199.873 25.48 200.646 25.48C201.073 25.48 201.466 25.5133 201.826 25.58C202.199 25.6333 202.519 25.7 202.786 25.78C203.066 25.86 203.286 25.9467 203.446 26.04V25.5C203.446 24.8333 203.206 24.3 202.726 23.9C202.246 23.5 201.626 23.3 200.866 23.3C200.346 23.3 199.853 23.42 199.386 23.66C198.919 23.8867 198.546 24.2 198.266 24.6L196.786 23.46C197.079 23.0467 197.433 22.6933 197.846 22.4C198.273 22.1067 198.746 21.88 199.266 21.72C199.799 21.56 200.353 21.48 200.926 21.48C202.406 21.48 203.546 21.8467 204.346 22.58C205.146 23.3 205.546 24.3133 205.546 25.62V32H203.446V30.74H203.326C203.153 31.0067 202.913 31.26 202.606 31.5C202.313 31.74 201.959 31.9333 201.546 32.08C201.146 32.24 200.699 32.32 200.206 32.32ZM200.586 30.56C201.146 30.56 201.639 30.4267 202.066 30.16C202.506 29.8933 202.846 29.5467 203.086 29.12C203.326 28.68 203.446 28.2067 203.446 27.7C203.153 27.5267 202.793 27.3867 202.366 27.28C201.953 27.16 201.513 27.1 201.046 27.1C200.166 27.1 199.539 27.2733 199.166 27.62C198.793 27.9667 198.606 28.4 198.606 28.92C198.606 29.4 198.786 29.7933 199.146 30.1C199.506 30.4067 199.986 30.56 200.586 30.56ZM207.385 32V30.2L213.065 23.68H207.565V21.8H215.705V23.6L210.045 30.12H215.865V32H207.385ZM210.705 19.84L208.565 17.42V17.28H210.625L211.545 18.52H211.745L212.685 17.28H214.765V17.42L212.605 19.84H210.705ZM222.35 32.32C221.35 32.32 220.456 32.0867 219.67 31.62C218.883 31.1533 218.263 30.5133 217.81 29.7C217.37 28.8867 217.15 27.96 217.15 26.92C217.15 25.9467 217.363 25.0467 217.79 24.22C218.216 23.3933 218.81 22.7333 219.57 22.24C220.343 21.7333 221.23 21.48 222.23 21.48C223.283 21.48 224.176 21.7067 224.91 22.16C225.656 22.6133 226.223 23.2333 226.61 24.02C226.996 24.8067 227.19 25.6933 227.19 26.68C227.19 26.8267 227.183 26.96 227.17 27.08C227.17 27.2 227.163 27.2933 227.15 27.36H219.27C219.323 27.92 219.463 28.4067 219.69 28.82C219.983 29.34 220.37 29.7333 220.85 30C221.33 30.2667 221.85 30.4 222.41 30.4C223.09 30.4 223.656 30.2467 224.11 29.94C224.576 29.62 224.943 29.2267 225.21 28.76L226.99 29.62C226.55 30.42 225.95 31.0733 225.19 31.58C224.43 32.0733 223.483 32.32 222.35 32.32ZM219.39 25.74H225.05C225.036 25.4867 224.97 25.22 224.85 24.94C224.73 24.6467 224.556 24.38 224.33 24.14C224.103 23.9 223.816 23.7067 223.47 23.56C223.123 23.4 222.716 23.32 222.25 23.32C221.663 23.32 221.143 23.4733 220.69 23.78C220.236 24.0733 219.883 24.4867 219.63 25.02C219.523 25.2467 219.443 25.4867 219.39 25.74ZM229.194 32V21.8H231.234V23.2H231.354C231.647 22.7067 232.08 22.3 232.654 21.98C233.24 21.6467 233.88 21.48 234.574 21.48C235.827 21.48 236.767 21.8533 237.394 22.6C238.02 23.3333 238.334 24.32 238.334 25.56V32H236.194V25.84C236.194 25.0133 235.987 24.4133 235.574 24.04C235.16 23.6533 234.62 23.46 233.954 23.46C233.434 23.46 232.98 23.6067 232.594 23.9C232.207 24.18 231.9 24.5533 231.674 25.02C231.46 25.4867 231.354 25.9867 231.354 26.52V32H229.194ZM240.795 32V17.68H242.955V26.12L247.275 21.8H249.955V21.92L246.015 25.82L250.095 31.88V32H247.535L244.495 27.32L242.955 28.84V32H240.795ZM255.807 32.32C254.807 32.32 253.913 32.0867 253.127 31.62C252.34 31.1533 251.72 30.5133 251.267 29.7C250.827 28.8867 250.607 27.96 250.607 26.92C250.607 25.9467 250.82 25.0467 251.247 24.22C251.673 23.3933 252.267 22.7333 253.027 22.24C253.8 21.7333 254.687 21.48 255.687 21.48C256.74 21.48 257.633 21.7067 258.367 22.16C259.113 22.6133 259.68 23.2333 260.067 24.02C260.453 24.8067 260.647 25.6933 260.647 26.68C260.647 26.8267 260.64 26.96 260.627 27.08C260.627 27.2 260.62 27.2933 260.607 27.36H252.727C252.78 27.92 252.92 28.4067 253.147 28.82C253.44 29.34 253.827 29.7333 254.307 30C254.787 30.2667 255.307 30.4 255.867 30.4C256.547 30.4 257.113 30.2467 257.567 29.94C258.033 29.62 258.4 29.2267 258.667 28.76L260.447 29.62C260.007 30.42 259.407 31.0733 258.647 31.58C257.887 32.0733 256.94 32.32 255.807 32.32ZM252.847 25.74H258.507C258.493 25.4867 258.427 25.22 258.307 24.94C258.187 24.6467 258.013 24.38 257.787 24.14C257.56 23.9 257.273 23.7067 256.927 23.56C256.58 23.4 256.173 23.32 255.707 23.32C255.12 23.32 254.6 23.4733 254.147 23.78C253.693 24.0733 253.34 24.4867 253.087 25.02C252.98 25.2467 252.9 25.4867 252.847 25.74ZM274.068 32.32C273.041 32.32 272.075 32.1333 271.168 31.76C270.261 31.3867 269.461 30.8667 268.768 30.2C268.088 29.52 267.548 28.7267 267.148 27.82C266.761 26.9 266.568 25.9067 266.568 24.84C266.568 23.7733 266.761 22.7867 267.148 21.88C267.548 20.96 268.088 20.1667 268.768 19.5C269.461 18.82 270.261 18.2933 271.168 17.92C272.075 17.5467 273.041 17.36 274.068 17.36C275.161 17.36 276.168 17.5533 277.088 17.94C278.021 18.3267 278.801 18.8667 279.428 19.56L277.908 21.06C277.601 20.7133 277.248 20.42 276.848 20.18C276.461 19.94 276.035 19.76 275.568 19.64C275.101 19.5067 274.601 19.44 274.068 19.44C273.361 19.44 272.688 19.5667 272.048 19.82C271.408 20.0733 270.841 20.44 270.348 20.92C269.868 21.3867 269.488 21.9533 269.208 22.62C268.928 23.2733 268.788 24.0133 268.788 24.84C268.788 25.6667 268.928 26.4133 269.208 27.08C269.501 27.7333 269.888 28.3 270.368 28.78C270.861 29.2467 271.428 29.6067 272.068 29.86C272.708 30.1133 273.381 30.24 274.088 30.24C274.741 30.24 275.348 30.1467 275.908 29.96C276.481 29.7733 276.981 29.5067 277.408 29.16C277.835 28.8133 278.181 28.3933 278.448 27.9C278.715 27.3933 278.881 26.8267 278.948 26.2H274.048V24.26H281.008C281.035 24.42 281.061 24.6067 281.088 24.82C281.115 25.02 281.128 25.2133 281.128 25.4V25.42C281.128 26.4467 280.948 27.3867 280.588 28.24C280.241 29.0933 279.755 29.8267 279.128 30.44C278.501 31.04 277.755 31.5067 276.888 31.84C276.035 32.16 275.095 32.32 274.068 32.32ZM287.568 32.32C286.514 32.32 285.588 32.08 284.788 31.6C283.988 31.12 283.361 30.4733 282.908 29.66C282.454 28.8333 282.228 27.9133 282.228 26.9C282.228 25.8867 282.454 24.9733 282.908 24.16C283.361 23.3333 283.988 22.68 284.788 22.2C285.588 21.72 286.514 21.48 287.568 21.48C288.608 21.48 289.528 21.7267 290.328 22.22C291.128 22.7 291.754 23.3467 292.208 24.16C292.661 24.9733 292.888 25.8867 292.888 26.9C292.888 27.9133 292.661 28.8333 292.208 29.66C291.754 30.4733 291.128 31.12 290.328 31.6C289.528 32.08 288.608 32.32 287.568 32.32ZM287.568 30.34C288.128 30.34 288.648 30.2067 289.128 29.94C289.608 29.66 289.994 29.2667 290.288 28.76C290.594 28.24 290.748 27.62 290.748 26.9C290.748 26.18 290.594 25.5667 290.288 25.06C289.994 24.54 289.608 24.1467 289.128 23.88C288.648 23.6 288.128 23.46 287.568 23.46C287.008 23.46 286.481 23.6 285.988 23.88C285.508 24.1467 285.114 24.54 284.808 25.06C284.514 25.5667 284.368 26.18 284.368 26.9C284.368 27.62 284.514 28.24 284.808 28.76C285.114 29.2667 285.514 29.66 286.008 29.94C286.501 30.2067 287.021 30.34 287.568 30.34ZM299.677 32.32C298.624 32.32 297.697 32.08 296.897 31.6C296.097 31.12 295.471 30.4733 295.017 29.66C294.564 28.8333 294.337 27.9133 294.337 26.9C294.337 25.8867 294.564 24.9733 295.017 24.16C295.471 23.3333 296.097 22.68 296.897 22.2C297.697 21.72 298.624 21.48 299.677 21.48C300.717 21.48 301.637 21.7267 302.437 22.22C303.237 22.7 303.864 23.3467 304.317 24.16C304.771 24.9733 304.997 25.8867 304.997 26.9C304.997 27.9133 304.771 28.8333 304.317 29.66C303.864 30.4733 303.237 31.12 302.437 31.6C301.637 32.08 300.717 32.32 299.677 32.32ZM299.677 30.34C300.237 30.34 300.757 30.2067 301.237 29.94C301.717 29.66 302.104 29.2667 302.397 28.76C302.704 28.24 302.857 27.62 302.857 26.9C302.857 26.18 302.704 25.5667 302.397 25.06C302.104 24.54 301.717 24.1467 301.237 23.88C300.757 23.6 300.237 23.46 299.677 23.46C299.117 23.46 298.591 23.6 298.097 23.88C297.617 24.1467 297.224 24.54 296.917 25.06C296.624 25.5667 296.477 26.18 296.477 26.9C296.477 27.62 296.624 28.24 296.917 28.76C297.224 29.2667 297.624 29.66 298.117 29.94C298.611 30.2067 299.131 30.34 299.677 30.34ZM311.587 36.64C310.693 36.64 309.92 36.4933 309.267 36.2C308.627 35.92 308.107 35.5533 307.707 35.1C307.307 34.66 307.02 34.2067 306.847 33.74L308.847 32.9C309.06 33.4333 309.4 33.8667 309.867 34.2C310.347 34.5467 310.92 34.72 311.587 34.72C312.533 34.72 313.273 34.44 313.807 33.88C314.34 33.32 314.607 32.5267 314.607 31.5V30.52H314.487C314.167 30.9867 313.727 31.3667 313.167 31.66C312.607 31.9533 311.96 32.1 311.227 32.1C310.36 32.1 309.56 31.88 308.827 31.44C308.107 31 307.527 30.3867 307.087 29.6C306.66 28.8 306.447 27.8667 306.447 26.8C306.447 25.72 306.66 24.7867 307.087 24C307.527 23.2 308.107 22.58 308.827 22.14C309.56 21.7 310.36 21.48 311.227 21.48C311.96 21.48 312.607 21.6267 313.167 21.92C313.727 22.2 314.167 22.5867 314.487 23.08H314.607V21.8H316.667V31.46C316.667 32.5667 316.447 33.5067 316.007 34.28C315.58 35.0533 314.987 35.64 314.227 36.04C313.467 36.44 312.587 36.64 311.587 36.64ZM311.607 30.14C312.14 30.14 312.633 30.0133 313.087 29.76C313.553 29.4933 313.92 29.1133 314.187 28.62C314.467 28.1133 314.607 27.5067 314.607 26.8C314.607 26.0533 314.467 25.4333 314.187 24.94C313.92 24.4467 313.553 24.0733 313.087 23.82C312.633 23.5667 312.14 23.44 311.607 23.44C311.073 23.44 310.573 23.5667 310.107 23.82C309.653 24.0733 309.287 24.4533 309.007 24.96C308.727 25.4533 308.587 26.0667 308.587 26.8C308.587 27.52 308.727 28.1333 309.007 28.64C309.287 29.1333 309.653 29.5067 310.107 29.76C310.573 30.0133 311.073 30.14 311.607 30.14ZM319.214 32V17.68H321.374V32H319.214ZM328.483 32.32C327.483 32.32 326.589 32.0867 325.803 31.62C325.016 31.1533 324.396 30.5133 323.943 29.7C323.503 28.8867 323.283 27.96 323.283 26.92C323.283 25.9467 323.496 25.0467 323.923 24.22C324.349 23.3933 324.943 22.7333 325.703 22.24C326.476 21.7333 327.363 21.48 328.363 21.48C329.416 21.48 330.309 21.7067 331.043 22.16C331.789 22.6133 332.356 23.2333 332.743 24.02C333.129 24.8067 333.323 25.6933 333.323 26.68C333.323 26.8267 333.316 26.96 333.303 27.08C333.303 27.2 333.296 27.2933 333.283 27.36H325.403C325.456 27.92 325.596 28.4067 325.823 28.82C326.116 29.34 326.503 29.7333 326.983 30C327.463 30.2667 327.983 30.4 328.543 30.4C329.223 30.4 329.789 30.2467 330.243 29.94C330.709 29.62 331.076 29.2267 331.343 28.76L333.122 29.62C332.683 30.42 332.083 31.0733 331.323 31.58C330.563 32.0733 329.616 32.32 328.483 32.32ZM325.523 25.74H331.183C331.169 25.4867 331.103 25.22 330.983 24.94C330.863 24.6467 330.689 24.38 330.463 24.14C330.236 23.9 329.949 23.7067 329.603 23.56C329.256 23.4 328.849 23.32 328.383 23.32C327.796 23.32 327.276 23.4733 326.823 23.78C326.369 24.0733 326.016 24.4867 325.763 25.02C325.656 25.2467 325.576 25.4867 325.523 25.74Z" fill="white"/>
</svg>
