<svg width="324" height="50" viewBox="0 0 324 50" fill="none" xmlns="http://www.w3.org/2000/svg">
<rect x="0.5" y="0.5" width="323" height="49" rx="24.5" fill="#1F1F1F"/>
<rect x="0.5" y="0.5" width="323" height="49" rx="24.5" stroke="#747775"/>
<path d="M51 22H21V17C21 14.2857 23.2018 12 25.8165 12H46.1835C48.7982 12 51 14.2857 51 17V22Z" fill="#34A853"/>
<path d="M51 26.0537H21V21.0537C21 18.3394 23.2018 16.0537 25.8165 16.0537H46.1835C48.7982 16.0537 51 18.3394 51 21.0537V26.0537Z" fill="#FBBC04"/>
<path d="M51 30.2468H21V25.2468C21 22.5325 23.2018 20.2468 25.8165 20.2468H46.1835C48.7982 20.2468 51 22.5325 51 25.2468V30.2468Z" fill="#EA4335"/>
<path d="M21 23.2752L40.0411 27.6789C42.2329 28.2294 44.6986 27.6789 46.4795 26.3028L51 23V33.3211C51 35.9358 48.8082 38 46.2055 38H25.7945C23.1918 38 21 35.9358 21 33.3211V23.2752Z" fill="#4285F4"/>
<path d="M71.32 32.32C70.2533 32.32 69.2667 32.1267 68.36 31.74C67.4667 31.3533 66.6867 30.82 66.02 30.14C65.3533 29.4467 64.8333 28.6533 64.46 27.76C64.0867 26.8533 63.9 25.88 63.9 24.84C63.9 23.8 64.0867 22.8333 64.46 21.94C64.8333 21.0333 65.3533 20.24 66.02 19.56C66.6867 18.8667 67.4667 18.3267 68.36 17.94C69.2667 17.5533 70.2533 17.36 71.32 17.36C72.3867 17.36 73.3667 17.5533 74.26 17.94C75.1533 18.3267 75.9333 18.8667 76.6 19.56C77.28 20.24 77.8 21.0333 78.16 21.94C78.5333 22.8333 78.72 23.8 78.72 24.84C78.72 25.88 78.5333 26.8533 78.16 27.76C77.8 28.6533 77.28 29.4467 76.6 30.14C75.9333 30.82 75.1533 31.3533 74.26 31.74C73.3667 32.1267 72.3867 32.32 71.32 32.32ZM71.32 30.24C72.2933 30.24 73.1667 30.0133 73.94 29.56C74.7267 29.1067 75.3533 28.4733 75.82 27.66C76.2867 26.8467 76.52 25.9067 76.52 24.84C76.52 23.76 76.2867 22.82 75.82 22.02C75.3533 21.2067 74.7267 20.5733 73.94 20.12C73.1667 19.6667 72.2933 19.44 71.32 19.44C70.36 19.44 69.4867 19.6667 68.7 20.12C67.9133 20.5733 67.2867 21.2067 66.82 22.02C66.3533 22.82 66.12 23.76 66.12 24.84C66.12 25.9067 66.3533 26.8467 66.82 27.66C67.2867 28.4733 67.9133 29.1067 68.7 29.56C69.4867 30.0133 70.36 30.24 71.32 30.24ZM85.5006 36.64C84.6073 36.64 83.834 36.4933 83.1806 36.2C82.5406 35.92 82.0206 35.5533 81.6206 35.1C81.2206 34.66 80.934 34.2067 80.7606 33.74L82.7606 32.9C82.974 33.4333 83.314 33.8667 83.7806 34.2C84.2606 34.5467 84.834 34.72 85.5006 34.72C86.4473 34.72 87.1873 34.44 87.7206 33.88C88.254 33.32 88.5206 32.5267 88.5206 31.5V30.52H88.4006C88.0806 30.9867 87.6406 31.3667 87.0806 31.66C86.5206 31.9533 85.874 32.1 85.1406 32.1C84.274 32.1 83.474 31.88 82.7406 31.44C82.0206 31 81.4406 30.3867 81.0006 29.6C80.574 28.8 80.3606 27.8667 80.3606 26.8C80.3606 25.72 80.574 24.7867 81.0006 24C81.4406 23.2 82.0206 22.58 82.7406 22.14C83.474 21.7 84.274 21.48 85.1406 21.48C85.874 21.48 86.5206 21.6267 87.0806 21.92C87.6406 22.2 88.0806 22.5867 88.4006 23.08H88.5206V21.8H90.5806V31.46C90.5806 32.5667 90.3606 33.5067 89.9206 34.28C89.494 35.0533 88.9006 35.64 88.1406 36.04C87.3806 36.44 86.5006 36.64 85.5006 36.64ZM85.5206 30.14C86.054 30.14 86.5473 30.0133 87.0006 29.76C87.4673 29.4933 87.834 29.1133 88.1006 28.62C88.3806 28.1133 88.5206 27.5067 88.5206 26.8C88.5206 26.0533 88.3806 25.4333 88.1006 24.94C87.834 24.4467 87.4673 24.0733 87.0006 23.82C86.5473 23.5667 86.054 23.44 85.5206 23.44C84.9873 23.44 84.4873 23.5667 84.0206 23.82C83.5673 24.0733 83.2006 24.4533 82.9206 24.96C82.6406 25.4533 82.5006 26.0667 82.5006 26.8C82.5006 27.52 82.6406 28.1333 82.9206 28.64C83.2006 29.1333 83.5673 29.5067 84.0206 29.76C84.4873 30.0133 84.9873 30.14 85.5206 30.14ZM93.1277 32V17.68H95.2877V32H93.1277ZM102.397 32.32C101.397 32.32 100.503 32.0867 99.7166 31.62C98.9299 31.1533 98.3099 30.5133 97.8566 29.7C97.4166 28.8867 97.1966 27.96 97.1966 26.92C97.1966 25.9467 97.4099 25.0467 97.8366 24.22C98.2632 23.3933 98.8566 22.7333 99.6166 22.24C100.39 21.7333 101.277 21.48 102.277 21.48C103.33 21.48 104.223 21.7067 104.957 22.16C105.703 22.6133 106.27 23.2333 106.657 24.02C107.043 24.8067 107.237 25.6933 107.237 26.68C107.237 26.8267 107.23 26.96 107.217 27.08C107.217 27.2 107.21 27.2933 107.197 27.36H99.3166C99.3699 27.92 99.5099 28.4067 99.7366 28.82C100.03 29.34 100.417 29.7333 100.897 30C101.377 30.2667 101.897 30.4 102.457 30.4C103.137 30.4 103.703 30.2467 104.157 29.94C104.623 29.62 104.99 29.2267 105.257 28.76L107.037 29.62C106.597 30.42 105.997 31.0733 105.237 31.58C104.477 32.0733 103.53 32.32 102.397 32.32ZM99.4366 25.74H105.097C105.083 25.4867 105.017 25.22 104.897 24.94C104.777 24.6467 104.603 24.38 104.377 24.14C104.15 23.9 103.863 23.7067 103.517 23.56C103.17 23.4 102.763 23.32 102.297 23.32C101.71 23.32 101.19 23.4733 100.737 23.78C100.283 24.0733 99.9299 24.4867 99.6766 25.02C99.5699 25.2467 99.4899 25.4867 99.4366 25.74ZM113.698 32.32C112.778 32.32 111.945 32.0867 111.198 31.62C110.451 31.1533 109.865 30.5133 109.438 29.7C109.011 28.8867 108.798 27.9533 108.798 26.9C108.798 25.8467 109.011 24.9133 109.438 24.1C109.865 23.2867 110.451 22.6467 111.198 22.18C111.945 21.7133 112.778 21.48 113.698 21.48C114.231 21.48 114.711 21.56 115.138 21.72C115.565 21.88 115.931 22.0933 116.238 22.36C116.558 22.6133 116.805 22.8867 116.978 23.18H117.098L116.978 21.76V17.68H119.118V32H117.098V30.64H116.978C116.805 30.92 116.558 31.1933 116.238 31.46C115.931 31.7133 115.565 31.92 115.138 32.08C114.711 32.24 114.231 32.32 113.698 32.32ZM114.018 30.34C114.551 30.34 115.051 30.2 115.518 29.92C115.998 29.64 116.378 29.2467 116.658 28.74C116.951 28.22 117.098 27.6067 117.098 26.9C117.098 26.1933 116.951 25.5867 116.658 25.08C116.378 24.56 115.998 24.16 115.518 23.88C115.051 23.6 114.551 23.46 114.018 23.46C113.485 23.46 112.985 23.6 112.518 23.88C112.051 24.16 111.671 24.56 111.378 25.08C111.085 25.5867 110.938 26.1933 110.938 26.9C110.938 27.5933 111.085 28.2 111.378 28.72C111.671 29.24 112.051 29.64 112.518 29.92C112.985 30.2 113.485 30.34 114.018 30.34ZM129.43 32L125.21 21.8H127.61L130.47 29.22H130.57L133.49 21.8H135.85L131.59 32H129.43Z" fill="white"/>
<path d="M149.4 32.32C148.373 32.32 147.407 32.1333 146.5 31.76C145.593 31.3867 144.793 30.8667 144.1 30.2C143.42 29.52 142.88 28.7267 142.48 27.82C142.093 26.9 141.9 25.9067 141.9 24.84C141.9 23.7733 142.093 22.7867 142.48 21.88C142.88 20.96 143.42 20.1667 144.1 19.5C144.793 18.82 145.593 18.2933 146.5 17.92C147.407 17.5467 148.373 17.36 149.4 17.36C150.493 17.36 151.5 17.5533 152.42 17.94C153.353 18.3267 154.133 18.8667 154.76 19.56L153.24 21.06C152.933 20.7133 152.58 20.42 152.18 20.18C151.793 19.94 151.367 19.76 150.9 19.64C150.433 19.5067 149.933 19.44 149.4 19.44C148.693 19.44 148.02 19.5667 147.38 19.82C146.74 20.0733 146.173 20.44 145.68 20.92C145.2 21.3867 144.82 21.9533 144.54 22.62C144.26 23.2733 144.12 24.0133 144.12 24.84C144.12 25.6667 144.26 26.4133 144.54 27.08C144.833 27.7333 145.22 28.3 145.7 28.78C146.193 29.2467 146.76 29.6067 147.4 29.86C148.04 30.1133 148.713 30.24 149.42 30.24C150.073 30.24 150.68 30.1467 151.24 29.96C151.813 29.7733 152.313 29.5067 152.74 29.16C153.167 28.8133 153.513 28.3933 153.78 27.9C154.047 27.3933 154.213 26.8267 154.28 26.2H149.38V24.26H156.34C156.367 24.42 156.393 24.6067 156.42 24.82C156.447 25.02 156.46 25.2133 156.46 25.4V25.42C156.46 26.4467 156.28 27.3867 155.92 28.24C155.573 29.0933 155.087 29.8267 154.46 30.44C153.833 31.04 153.087 31.5067 152.22 31.84C151.367 32.16 150.427 32.32 149.4 32.32ZM162.9 32.32C161.847 32.32 160.92 32.08 160.12 31.6C159.32 31.12 158.693 30.4733 158.24 29.66C157.787 28.8333 157.56 27.9133 157.56 26.9C157.56 25.8867 157.787 24.9733 158.24 24.16C158.693 23.3333 159.32 22.68 160.12 22.2C160.92 21.72 161.847 21.48 162.9 21.48C163.94 21.48 164.86 21.7267 165.66 22.22C166.46 22.7 167.087 23.3467 167.54 24.16C167.993 24.9733 168.22 25.8867 168.22 26.9C168.22 27.9133 167.993 28.8333 167.54 29.66C167.087 30.4733 166.46 31.12 165.66 31.6C164.86 32.08 163.94 32.32 162.9 32.32ZM162.9 30.34C163.46 30.34 163.98 30.2067 164.46 29.94C164.94 29.66 165.327 29.2667 165.62 28.76C165.927 28.24 166.08 27.62 166.08 26.9C166.08 26.18 165.927 25.5667 165.62 25.06C165.327 24.54 164.94 24.1467 164.46 23.88C163.98 23.6 163.46 23.46 162.9 23.46C162.34 23.46 161.813 23.6 161.32 23.88C160.84 24.1467 160.447 24.54 160.14 25.06C159.847 25.5667 159.7 26.18 159.7 26.9C159.7 27.62 159.847 28.24 160.14 28.76C160.447 29.2667 160.847 29.66 161.34 29.94C161.833 30.2067 162.353 30.34 162.9 30.34ZM175.009 32.32C173.956 32.32 173.029 32.08 172.229 31.6C171.429 31.12 170.803 30.4733 170.349 29.66C169.896 28.8333 169.669 27.9133 169.669 26.9C169.669 25.8867 169.896 24.9733 170.349 24.16C170.803 23.3333 171.429 22.68 172.229 22.2C173.029 21.72 173.956 21.48 175.009 21.48C176.049 21.48 176.969 21.7267 177.769 22.22C178.569 22.7 179.196 23.3467 179.649 24.16C180.103 24.9733 180.329 25.8867 180.329 26.9C180.329 27.9133 180.103 28.8333 179.649 29.66C179.196 30.4733 178.569 31.12 177.769 31.6C176.969 32.08 176.049 32.32 175.009 32.32ZM175.009 30.34C175.569 30.34 176.089 30.2067 176.569 29.94C177.049 29.66 177.436 29.2667 177.729 28.76C178.036 28.24 178.189 27.62 178.189 26.9C178.189 26.18 178.036 25.5667 177.729 25.06C177.436 24.54 177.049 24.1467 176.569 23.88C176.089 23.6 175.569 23.46 175.009 23.46C174.449 23.46 173.923 23.6 173.429 23.88C172.949 24.1467 172.556 24.54 172.249 25.06C171.956 25.5667 171.809 26.18 171.809 26.9C171.809 27.62 171.956 28.24 172.249 28.76C172.556 29.2667 172.956 29.66 173.449 29.94C173.943 30.2067 174.463 30.34 175.009 30.34ZM186.919 36.64C186.025 36.64 185.252 36.4933 184.599 36.2C183.959 35.92 183.439 35.5533 183.039 35.1C182.639 34.66 182.352 34.2067 182.179 33.74L184.179 32.9C184.392 33.4333 184.732 33.8667 185.199 34.2C185.679 34.5467 186.252 34.72 186.919 34.72C187.865 34.72 188.605 34.44 189.139 33.88C189.672 33.32 189.939 32.5267 189.939 31.5V30.52H189.819C189.499 30.9867 189.059 31.3667 188.499 31.66C187.939 31.9533 187.292 32.1 186.559 32.1C185.692 32.1 184.892 31.88 184.159 31.44C183.439 31 182.859 30.3867 182.419 29.6C181.992 28.8 181.779 27.8667 181.779 26.8C181.779 25.72 181.992 24.7867 182.419 24C182.859 23.2 183.439 22.58 184.159 22.14C184.892 21.7 185.692 21.48 186.559 21.48C187.292 21.48 187.939 21.6267 188.499 21.92C189.059 22.2 189.499 22.5867 189.819 23.08H189.939V21.8H191.999V31.46C191.999 32.5667 191.779 33.5067 191.339 34.28C190.912 35.0533 190.319 35.64 189.559 36.04C188.799 36.44 187.919 36.64 186.919 36.64ZM186.939 30.14C187.472 30.14 187.965 30.0133 188.419 29.76C188.885 29.4933 189.252 29.1133 189.519 28.62C189.799 28.1133 189.939 27.5067 189.939 26.8C189.939 26.0533 189.799 25.4333 189.519 24.94C189.252 24.4467 188.885 24.0733 188.419 23.82C187.965 23.5667 187.472 23.44 186.939 23.44C186.405 23.44 185.905 23.5667 185.439 23.82C184.985 24.0733 184.619 24.4533 184.339 24.96C184.059 25.4533 183.919 26.0667 183.919 26.8C183.919 27.52 184.059 28.1333 184.339 28.64C184.619 29.1333 184.985 29.5067 185.439 29.76C185.905 30.0133 186.405 30.14 186.939 30.14ZM194.546 32V17.68H196.706V32H194.546ZM203.815 32.32C202.815 32.32 201.921 32.0867 201.135 31.62C200.348 31.1533 199.728 30.5133 199.275 29.7C198.835 28.8867 198.615 27.96 198.615 26.92C198.615 25.9467 198.828 25.0467 199.255 24.22C199.681 23.3933 200.275 22.7333 201.035 22.24C201.808 21.7333 202.695 21.48 203.695 21.48C204.748 21.48 205.641 21.7067 206.375 22.16C207.121 22.6133 207.688 23.2333 208.075 24.02C208.461 24.8067 208.655 25.6933 208.655 26.68C208.655 26.8267 208.648 26.96 208.635 27.08C208.635 27.2 208.628 27.2933 208.615 27.36H200.735C200.788 27.92 200.928 28.4067 201.155 28.82C201.448 29.34 201.835 29.7333 202.315 30C202.795 30.2667 203.315 30.4 203.875 30.4C204.555 30.4 205.121 30.2467 205.575 29.94C206.041 29.62 206.408 29.2267 206.675 28.76L208.455 29.62C208.015 30.42 207.415 31.0733 206.655 31.58C205.895 32.0733 204.948 32.32 203.815 32.32ZM200.855 25.74H206.515C206.501 25.4867 206.435 25.22 206.315 24.94C206.195 24.6467 206.021 24.38 205.795 24.14C205.568 23.9 205.281 23.7067 204.935 23.56C204.588 23.4 204.181 23.32 203.715 23.32C203.128 23.32 202.608 23.4733 202.155 23.78C201.701 24.0733 201.348 24.4867 201.095 25.02C200.988 25.2467 200.908 25.4867 200.855 25.74ZM215.686 32V17.68H220.266C221.773 17.68 223.066 17.9867 224.146 18.6C225.24 19.2 226.08 20.04 226.666 21.12C227.266 22.2 227.566 23.44 227.566 24.84C227.566 26.24 227.266 27.48 226.666 28.56C226.08 29.64 225.24 30.4867 224.146 31.1C223.066 31.7 221.773 32 220.266 32H215.686ZM217.886 29.92H220.206C221.286 29.92 222.213 29.72 222.986 29.32C223.76 28.9067 224.346 28.32 224.746 27.56C225.146 26.8 225.346 25.8933 225.346 24.84C225.346 23.7867 225.146 22.88 224.746 22.12C224.346 21.36 223.76 20.78 222.986 20.38C222.213 19.9667 221.286 19.76 220.206 19.76H217.886V29.92ZM234.088 32.32C233.088 32.32 232.195 32.0867 231.408 31.62C230.621 31.1533 230.001 30.5133 229.548 29.7C229.108 28.8867 228.888 27.96 228.888 26.92C228.888 25.9467 229.101 25.0467 229.528 24.22C229.955 23.3933 230.548 22.7333 231.308 22.24C232.081 21.7333 232.968 21.48 233.968 21.48C235.021 21.48 235.915 21.7067 236.648 22.16C237.395 22.6133 237.961 23.2333 238.348 24.02C238.735 24.8067 238.928 25.6933 238.928 26.68C238.928 26.8267 238.921 26.96 238.908 27.08C238.908 27.2 238.901 27.2933 238.888 27.36H231.008C231.061 27.92 231.201 28.4067 231.428 28.82C231.721 29.34 232.108 29.7333 232.588 30C233.068 30.2667 233.588 30.4 234.148 30.4C234.828 30.4 235.395 30.2467 235.848 29.94C236.315 29.62 236.681 29.2267 236.948 28.76L238.728 29.62C238.288 30.42 237.688 31.0733 236.928 31.58C236.168 32.0733 235.221 32.32 234.088 32.32ZM231.128 25.74H236.788C236.775 25.4867 236.708 25.22 236.588 24.94C236.468 24.6467 236.295 24.38 236.068 24.14C235.841 23.9 235.555 23.7067 235.208 23.56C234.861 23.4 234.455 23.32 233.988 23.32C233.401 23.32 232.881 23.4733 232.428 23.78C231.975 24.0733 231.621 24.4867 231.368 25.02C231.261 25.2467 231.181 25.4867 231.128 25.74ZM240.932 32V21.8H242.972V23.2H243.092C243.385 22.7067 243.819 22.3 244.392 21.98C244.979 21.6467 245.619 21.48 246.312 21.48C247.565 21.48 248.505 21.8533 249.132 22.6C249.759 23.3333 250.072 24.32 250.072 25.56V32H247.932V25.84C247.932 25.0133 247.725 24.4133 247.312 24.04C246.899 23.6533 246.359 23.46 245.692 23.46C245.172 23.46 244.719 23.6067 244.332 23.9C243.945 24.18 243.639 24.5533 243.412 25.02C243.199 25.4867 243.092 25.9867 243.092 26.52V32H240.932ZM255.636 32.32C254.902 32.32 254.249 32.1733 253.676 31.88C253.116 31.5867 252.669 31.1867 252.336 30.68C252.016 30.16 251.856 29.5667 251.856 28.9C251.856 28.1667 252.042 27.5467 252.416 27.04C252.802 26.5333 253.316 26.1467 253.956 25.88C254.596 25.6133 255.302 25.48 256.076 25.48C256.502 25.48 256.896 25.5133 257.256 25.58C257.629 25.6333 257.949 25.7 258.216 25.78C258.496 25.86 258.716 25.9467 258.876 26.04V25.5C258.876 24.8333 258.636 24.3 258.156 23.9C257.676 23.5 257.056 23.3 256.296 23.3C255.776 23.3 255.282 23.42 254.816 23.66C254.349 23.8867 253.976 24.2 253.696 24.6L252.216 23.46C252.509 23.0467 252.862 22.6933 253.276 22.4C253.702 22.1067 254.176 21.88 254.696 21.72C255.229 21.56 255.782 21.48 256.356 21.48C257.836 21.48 258.976 21.8467 259.776 22.58C260.576 23.3 260.976 24.3133 260.976 25.62V32H258.876V30.74H258.756C258.582 31.0067 258.342 31.26 258.036 31.5C257.742 31.74 257.389 31.9333 256.976 32.08C256.576 32.24 256.129 32.32 255.636 32.32ZM256.016 30.56C256.576 30.56 257.069 30.4267 257.496 30.16C257.936 29.8933 258.276 29.5467 258.516 29.12C258.756 28.68 258.876 28.2067 258.876 27.7C258.582 27.5267 258.222 27.3867 257.796 27.28C257.382 27.16 256.942 27.1 256.476 27.1C255.596 27.1 254.969 27.2733 254.596 27.62C254.222 27.9667 254.036 28.4 254.036 28.92C254.036 29.4 254.216 29.7933 254.576 30.1C254.936 30.4067 255.416 30.56 256.016 30.56ZM263.354 32V21.8H265.394V23.3H265.514C265.674 22.9533 265.9 22.6467 266.194 22.38C266.5 22.1133 266.847 21.9 267.234 21.74C267.634 21.58 268.047 21.5 268.474 21.5C268.754 21.5 268.987 21.52 269.174 21.56C269.374 21.5867 269.554 21.6333 269.714 21.7V23.94C269.46 23.8333 269.2 23.7467 268.934 23.68C268.68 23.6133 268.414 23.58 268.134 23.58C267.627 23.58 267.174 23.72 266.774 24C266.387 24.2667 266.08 24.6267 265.854 25.08C265.627 25.5333 265.514 26.04 265.514 26.6V32H263.354ZM271.381 32V21.8H273.421V23.2H273.541C273.834 22.7067 274.268 22.3 274.841 21.98C275.428 21.6467 276.068 21.48 276.761 21.48C278.014 21.48 278.954 21.8533 279.581 22.6C280.208 23.3333 280.521 24.32 280.521 25.56V32H278.381V25.84C278.381 25.0133 278.174 24.4133 277.761 24.04C277.348 23.6533 276.808 23.46 276.141 23.46C275.621 23.46 275.168 23.6067 274.781 23.9C274.394 24.18 274.088 24.5533 273.861 25.02C273.648 25.4867 273.541 25.9867 273.541 26.52V32H271.381ZM283.143 32V21.8H285.303V32H283.143ZM284.223 20.3C283.823 20.3 283.476 20.16 283.183 19.88C282.903 19.5867 282.763 19.24 282.763 18.84C282.763 18.4267 282.903 18.0867 283.183 17.82C283.476 17.54 283.823 17.4 284.223 17.4C284.636 17.4 284.983 17.54 285.263 17.82C285.543 18.0867 285.683 18.4267 285.683 18.84C285.683 19.24 285.543 19.5867 285.263 19.88C284.983 20.16 284.636 20.3 284.223 20.3ZM292.605 32.32C291.578 32.32 290.665 32.0867 289.865 31.62C289.078 31.1533 288.458 30.5133 288.005 29.7C287.565 28.8733 287.345 27.94 287.345 26.9C287.345 25.86 287.565 24.9333 288.005 24.12C288.458 23.3067 289.078 22.6667 289.865 22.2C290.665 21.72 291.578 21.48 292.605 21.48C293.738 21.48 294.692 21.7333 295.465 22.24C296.252 22.7467 296.812 23.4333 297.145 24.3L295.185 25.1C294.945 24.5533 294.598 24.1467 294.145 23.88C293.705 23.6 293.178 23.46 292.565 23.46C292.005 23.46 291.492 23.6067 291.025 23.9C290.558 24.18 290.185 24.5733 289.905 25.08C289.625 25.5867 289.485 26.1933 289.485 26.9C289.485 27.5933 289.625 28.2 289.905 28.72C290.185 29.24 290.558 29.64 291.025 29.92C291.492 30.2 292.005 30.34 292.565 30.34C293.218 30.34 293.772 30.1933 294.225 29.9C294.678 29.6067 295.032 29.1933 295.285 28.66L297.205 29.5C296.832 30.3133 296.252 30.9867 295.465 31.52C294.692 32.0533 293.738 32.32 292.605 32.32ZM299.217 32V21.8H301.377V32H299.217ZM300.297 20.3C299.897 20.3 299.55 20.16 299.257 19.88C298.977 19.5867 298.837 19.24 298.837 18.84C298.837 18.4267 298.977 18.0867 299.257 17.82C299.55 17.54 299.897 17.4 300.297 17.4C300.71 17.4 301.057 17.54 301.337 17.82C301.617 18.0867 301.757 18.4267 301.757 18.84C301.757 19.24 301.617 19.5867 301.337 19.88C301.057 20.16 300.71 20.3 300.297 20.3Z" fill="white"/>
</svg>
