<svg width="341" height="50" viewBox="0 0 341 50" fill="none" xmlns="http://www.w3.org/2000/svg">
<rect x="0.5" y="0.5" width="340" height="49" rx="24.5" fill="#1F1F1F"/>
<rect x="0.5" y="0.5" width="340" height="49" rx="24.5" stroke="#747775"/>
<path d="M51 22H21V17C21 14.2857 23.2018 12 25.8165 12H46.1835C48.7982 12 51 14.2857 51 17V22Z" fill="#34A853"/>
<path d="M51 26.0537H21V21.0537C21 18.3394 23.2018 16.0537 25.8165 16.0537H46.1835C48.7982 16.0537 51 18.3394 51 21.0537V26.0537Z" fill="#FBBC04"/>
<path d="M51 30.2468H21V25.2468C21 22.5325 23.2018 20.2468 25.8165 20.2468H46.1835C48.7982 20.2468 51 22.5325 51 25.2468V30.2468Z" fill="#EA4335"/>
<path d="M21 23.2752L40.0411 27.6789C42.2329 28.2294 44.6986 27.6789 46.4795 26.3028L51 23V33.3211C51 35.9358 48.8082 38 46.2055 38H25.7945C23.1918 38 21 35.9358 21 33.3211V23.2752Z" fill="#4285F4"/>
<path d="M68.78 32.32C68.02 32.32 67.2933 32.1733 66.6 31.88C65.9067 31.5733 65.2933 31.1267 64.76 30.54C64.24 29.9533 63.8533 29.2267 63.6 28.36L65.68 27.52C65.8933 28.2933 66.2667 28.94 66.8 29.46C67.3333 29.98 68 30.24 68.8 30.24C69.2533 30.24 69.6733 30.16 70.06 30C70.46 29.84 70.78 29.6067 71.02 29.3C71.26 28.98 71.38 28.5933 71.38 28.14C71.38 27.7133 71.28 27.3533 71.08 27.06C70.88 26.7533 70.56 26.48 70.12 26.24C69.68 25.9867 69.12 25.74 68.44 25.5L67.54 25.18C67.1533 25.0333 66.76 24.8533 66.36 24.64C65.96 24.4267 65.5867 24.1667 65.24 23.86C64.9067 23.54 64.64 23.1667 64.44 22.74C64.24 22.3133 64.14 21.82 64.14 21.26C64.14 20.54 64.3267 19.8867 64.7 19.3C65.0867 18.7133 65.6133 18.2467 66.28 17.9C66.96 17.54 67.7467 17.36 68.64 17.36C69.56 17.36 70.3267 17.5267 70.94 17.86C71.5667 18.18 72.0533 18.5667 72.4 19.02C72.76 19.4733 73.0067 19.9067 73.14 20.32L71.16 21.16C71.08 20.88 70.9333 20.6067 70.72 20.34C70.52 20.0733 70.2467 19.8533 69.9 19.68C69.5667 19.4933 69.1533 19.4 68.66 19.4C68.2333 19.4 67.84 19.48 67.48 19.64C67.1333 19.8 66.8533 20.02 66.64 20.3C66.4267 20.5667 66.32 20.88 66.32 21.24C66.32 21.76 66.5333 22.1867 66.96 22.52C67.3867 22.84 68.0067 23.1333 68.82 23.4L69.74 23.72C70.2067 23.88 70.6667 24.0733 71.12 24.3C71.5733 24.5133 71.9867 24.7933 72.36 25.14C72.7333 25.4733 73.0267 25.8867 73.24 26.38C73.4667 26.86 73.58 27.4333 73.58 28.1C73.58 28.8333 73.4333 29.4733 73.14 30.02C72.86 30.5533 72.48 30.9933 72 31.34C71.5333 31.6733 71.0133 31.92 70.44 32.08C69.88 32.24 69.3267 32.32 68.78 32.32ZM75.7639 32V17.68H77.9239V21.6L77.8039 23.2H77.9239C78.2039 22.7067 78.6306 22.3 79.2039 21.98C79.7906 21.6467 80.4372 21.48 81.1439 21.48C81.9972 21.48 82.7039 21.6533 83.2639 22C83.8372 22.3467 84.2639 22.8267 84.5439 23.44C84.8239 24.04 84.9639 24.7467 84.9639 25.56V32H82.8239V25.84C82.8239 25.2933 82.7172 24.8467 82.5039 24.5C82.3039 24.1533 82.0372 23.8933 81.7039 23.72C81.3706 23.5467 80.9972 23.46 80.5839 23.46C80.0639 23.46 79.6039 23.6067 79.2039 23.9C78.8039 24.1933 78.4906 24.58 78.2639 25.06C78.0372 25.5267 77.9239 26.0267 77.9239 26.56V32H75.7639ZM87.5841 32V21.8H89.7441V32H87.5841ZM88.6641 20.3C88.2641 20.3 87.9174 20.16 87.6241 19.88C87.3441 19.5867 87.2041 19.24 87.2041 18.84C87.2041 18.4267 87.3441 18.0867 87.6241 17.82C87.9174 17.54 88.2641 17.4 88.6641 17.4C89.0774 17.4 89.4241 17.54 89.7041 17.82C89.9841 18.0867 90.1241 18.4267 90.1241 18.84C90.1241 19.24 89.9841 19.5867 89.7041 19.88C89.4241 20.16 89.0774 20.3 88.6641 20.3ZM92.4241 32V17.68H94.5841V26.12L98.9041 21.8H101.584V21.92L97.6441 25.82L101.724 31.88V32H99.1641L96.1241 27.32L94.5841 28.84V32H92.4241ZM107.576 32.32C106.522 32.32 105.596 32.08 104.796 31.6C103.996 31.12 103.369 30.4733 102.916 29.66C102.462 28.8333 102.236 27.9133 102.236 26.9C102.236 25.8867 102.462 24.9733 102.916 24.16C103.369 23.3333 103.996 22.68 104.796 22.2C105.596 21.72 106.522 21.48 107.576 21.48C108.616 21.48 109.536 21.7267 110.336 22.22C111.136 22.7 111.762 23.3467 112.216 24.16C112.669 24.9733 112.896 25.8867 112.896 26.9C112.896 27.9133 112.669 28.8333 112.216 29.66C111.762 30.4733 111.136 31.12 110.336 31.6C109.536 32.08 108.616 32.32 107.576 32.32ZM107.576 30.34C108.136 30.34 108.656 30.2067 109.136 29.94C109.616 29.66 110.002 29.2667 110.296 28.76C110.602 28.24 110.756 27.62 110.756 26.9C110.756 26.18 110.602 25.5667 110.296 25.06C110.002 24.54 109.616 24.1467 109.136 23.88C108.656 23.6 108.136 23.46 107.576 23.46C107.016 23.46 106.489 23.6 105.996 23.88C105.516 24.1467 105.122 24.54 104.816 25.06C104.522 25.5667 104.376 26.18 104.376 26.9C104.376 27.62 104.522 28.24 104.816 28.76C105.122 29.2667 105.522 29.66 106.016 29.94C106.509 30.2067 107.029 30.34 107.576 30.34ZM118.853 21.8H120.633V18.92H122.793V21.8H125.293V23.68H122.793V28.58C122.793 29.0867 122.893 29.4733 123.093 29.74C123.306 30.0067 123.66 30.14 124.153 30.14C124.393 30.14 124.606 30.1067 124.793 30.04C124.98 29.96 125.166 29.8667 125.353 29.76V31.86C125.126 31.9533 124.886 32.0267 124.633 32.08C124.38 32.1333 124.08 32.16 123.733 32.16C122.786 32.16 122.033 31.8867 121.473 31.34C120.913 30.78 120.633 30.0133 120.633 29.04V23.68H118.853V21.8ZM131.635 32.32C130.635 32.32 129.742 32.0867 128.955 31.62C128.168 31.1533 127.548 30.5133 127.095 29.7C126.655 28.8867 126.435 27.96 126.435 26.92C126.435 25.9467 126.648 25.0467 127.075 24.22C127.502 23.3933 128.095 22.7333 128.855 22.24C129.628 21.7333 130.515 21.48 131.515 21.48C132.568 21.48 133.462 21.7067 134.195 22.16C134.942 22.6133 135.508 23.2333 135.895 24.02C136.282 24.8067 136.475 25.6933 136.475 26.68C136.475 26.8267 136.468 26.96 136.455 27.08C136.455 27.2 136.448 27.2933 136.435 27.36H128.555C128.608 27.92 128.748 28.4067 128.975 28.82C129.268 29.34 129.655 29.7333 130.135 30C130.615 30.2667 131.135 30.4 131.695 30.4C132.375 30.4 132.942 30.2467 133.395 29.94C133.862 29.62 134.228 29.2267 134.495 28.76L136.275 29.62C135.835 30.42 135.235 31.0733 134.475 31.58C133.715 32.0733 132.768 32.32 131.635 32.32ZM128.675 25.74H134.335C134.322 25.4867 134.255 25.22 134.135 24.94C134.015 24.6467 133.842 24.38 133.615 24.14C133.388 23.9 133.102 23.7067 132.755 23.56C132.408 23.4 132.002 23.32 131.535 23.32C130.948 23.32 130.428 23.4733 129.975 23.78C129.522 24.0733 129.168 24.4867 128.915 25.02C128.808 25.2467 128.728 25.4867 128.675 25.74Z" fill="white"/>
<path d="M147.18 22.14V17.68H149.14V22.14H147.18ZM144.02 22.14V17.68H145.98V22.14H144.02ZM151.808 32V17.68H156.728C157.594 17.68 158.381 17.8667 159.088 18.24C159.794 18.6 160.354 19.1133 160.768 19.78C161.194 20.4333 161.408 21.1933 161.408 22.06C161.408 22.9133 161.194 23.6733 160.768 24.34C160.354 25.0067 159.794 25.5267 159.088 25.9C158.381 26.26 157.594 26.44 156.728 26.44H154.008V32H151.808ZM154.008 24.36H156.788C157.308 24.36 157.748 24.2533 158.108 24.04C158.468 23.8133 158.741 23.5267 158.928 23.18C159.128 22.82 159.228 22.4467 159.228 22.06C159.228 21.6733 159.128 21.3067 158.928 20.96C158.741 20.6133 158.468 20.3267 158.108 20.1C157.748 19.8733 157.308 19.76 156.788 19.76H154.008V24.36ZM167.4 32.32C166.347 32.32 165.42 32.08 164.62 31.6C163.82 31.12 163.193 30.4733 162.74 29.66C162.287 28.8333 162.06 27.9133 162.06 26.9C162.06 25.8867 162.287 24.9733 162.74 24.16C163.193 23.3333 163.82 22.68 164.62 22.2C165.42 21.72 166.347 21.48 167.4 21.48C168.44 21.48 169.36 21.7267 170.16 22.22C170.96 22.7 171.587 23.3467 172.04 24.16C172.493 24.9733 172.72 25.8867 172.72 26.9C172.72 27.9133 172.493 28.8333 172.04 29.66C171.587 30.4733 170.96 31.12 170.16 31.6C169.36 32.08 168.44 32.32 167.4 32.32ZM167.4 30.34C167.96 30.34 168.48 30.2067 168.96 29.94C169.44 29.66 169.827 29.2667 170.12 28.76C170.427 28.24 170.58 27.62 170.58 26.9C170.58 26.18 170.427 25.5667 170.12 25.06C169.827 24.54 169.44 24.1467 168.96 23.88C168.48 23.6 167.96 23.46 167.4 23.46C166.84 23.46 166.313 23.6 165.82 23.88C165.34 24.1467 164.947 24.54 164.64 25.06C164.347 25.5667 164.2 26.18 164.2 26.9C164.2 27.62 164.347 28.24 164.64 28.76C164.947 29.2667 165.347 29.66 165.84 29.94C166.333 30.2067 166.853 30.34 167.4 30.34ZM181.914 21.8H183.694V18.92H185.854V21.8H188.354V23.68H185.854V28.58C185.854 29.0867 185.954 29.4733 186.154 29.74C186.367 30.0067 186.721 30.14 187.214 30.14C187.454 30.14 187.667 30.1067 187.854 30.04C188.041 29.96 188.227 29.8667 188.414 29.76V31.86C188.187 31.9533 187.947 32.0267 187.694 32.08C187.441 32.1333 187.147 32.16 186.814 32.16C185.854 32.16 185.094 31.8867 184.534 31.34C183.974 30.78 183.694 30.0133 183.694 29.04V23.68H181.914V21.8ZM174.514 32V21.8H176.554V23.3H176.674C176.861 22.9267 177.107 22.6133 177.414 22.36C177.721 22.0933 178.074 21.8867 178.474 21.74C178.887 21.5933 179.307 21.52 179.734 21.52C179.934 21.52 180.094 21.5267 180.214 21.54C180.347 21.54 180.467 21.56 180.574 21.6V23.76C180.427 23.7067 180.267 23.6733 180.094 23.66C179.921 23.6333 179.721 23.62 179.494 23.62C178.934 23.62 178.441 23.7467 178.014 24C177.587 24.24 177.254 24.5867 177.014 25.04C176.787 25.4933 176.674 26.0333 176.674 26.66V32H174.514ZM194.861 32.32C193.807 32.32 192.881 32.08 192.081 31.6C191.281 31.12 190.654 30.4733 190.201 29.66C189.747 28.8333 189.521 27.9133 189.521 26.9C189.521 25.8867 189.747 24.9733 190.201 24.16C190.654 23.3333 191.281 22.68 192.081 22.2C192.881 21.72 193.807 21.48 194.861 21.48C195.901 21.48 196.821 21.7267 197.621 22.22C198.421 22.7 199.047 23.3467 199.501 24.16C199.954 24.9733 200.181 25.8867 200.181 26.9C200.181 27.9133 199.954 28.8333 199.501 29.66C199.047 30.4733 198.421 31.12 197.621 31.6C196.821 32.08 195.901 32.32 194.861 32.32ZM194.861 30.34C195.421 30.34 195.941 30.2067 196.421 29.94C196.901 29.66 197.287 29.2667 197.581 28.76C197.887 28.24 198.041 27.62 198.041 26.9C198.041 26.18 197.887 25.5667 197.581 25.06C197.287 24.54 196.901 24.1467 196.421 23.88C195.941 23.6 195.421 23.46 194.861 23.46C194.301 23.46 193.774 23.6 193.281 23.88C192.801 24.1467 192.407 24.54 192.101 25.06C191.807 25.5667 191.661 26.18 191.661 26.9C191.661 27.62 191.807 28.24 192.101 28.76C192.407 29.2667 192.807 29.66 193.301 29.94C193.794 30.2067 194.314 30.34 194.861 30.34ZM201.177 23.68V21.8H203.037V20.96C203.037 20.2267 203.191 19.6067 203.497 19.1C203.804 18.58 204.224 18.1867 204.757 17.92C205.291 17.6533 205.884 17.52 206.537 17.52C206.897 17.52 207.204 17.5467 207.457 17.6C207.724 17.64 207.944 17.6933 208.117 17.76V19.86C207.944 19.7933 207.744 19.7267 207.517 19.66C207.304 19.58 207.037 19.54 206.717 19.54C206.304 19.54 205.944 19.68 205.637 19.96C205.331 20.2267 205.177 20.62 205.177 21.14V21.8H207.737V23.68H205.177V32H203.037V23.68H201.177ZM213.982 32.32C212.929 32.32 212.002 32.08 211.202 31.6C210.402 31.12 209.775 30.4733 209.322 29.66C208.869 28.8333 208.642 27.9133 208.642 26.9C208.642 25.8867 208.869 24.9733 209.322 24.16C209.775 23.3333 210.402 22.68 211.202 22.2C212.002 21.72 212.929 21.48 213.982 21.48C215.022 21.48 215.942 21.7267 216.742 22.22C217.542 22.7 218.169 23.3467 218.622 24.16C219.075 24.9733 219.302 25.8867 219.302 26.9C219.302 27.9133 219.075 28.8333 218.622 29.66C218.169 30.4733 217.542 31.12 216.742 31.6C215.942 32.08 215.022 32.32 213.982 32.32ZM213.982 30.34C214.542 30.34 215.062 30.2067 215.542 29.94C216.022 29.66 216.409 29.2667 216.702 28.76C217.009 28.24 217.162 27.62 217.162 26.9C217.162 26.18 217.009 25.5667 216.702 25.06C216.409 24.54 216.022 24.1467 215.542 23.88C215.062 23.6 214.542 23.46 213.982 23.46C213.422 23.46 212.895 23.6 212.402 23.88C211.922 24.1467 211.529 24.54 211.222 25.06C210.929 25.5667 210.782 26.18 210.782 26.9C210.782 27.62 210.929 28.24 211.222 28.76C211.529 29.2667 211.929 29.66 212.422 29.94C212.915 30.2067 213.435 30.34 213.982 30.34ZM221.214 32V17.68H223.374V32H221.214ZM226.08 32V21.8H228.24V32H226.08ZM227.16 20.3C226.76 20.3 226.413 20.16 226.12 19.88C225.84 19.5867 225.7 19.24 225.7 18.84C225.7 18.4267 225.84 18.0867 226.12 17.82C226.413 17.54 226.76 17.4 227.16 17.4C227.573 17.4 227.92 17.54 228.2 17.82C228.48 18.0867 228.62 18.4267 228.62 18.84C228.62 19.24 228.48 19.5867 228.2 19.88C227.92 20.16 227.573 20.3 227.16 20.3ZM235.748 32V21.8H237.908V32H235.748ZM236.828 20.3C236.428 20.3 236.081 20.16 235.788 19.88C235.508 19.5867 235.368 19.24 235.368 18.84C235.368 18.4267 235.508 18.0867 235.788 17.82C236.081 17.54 236.428 17.4 236.828 17.4C237.241 17.4 237.588 17.54 237.868 17.82C238.148 18.0867 238.288 18.4267 238.288 18.84C238.288 19.24 238.148 19.5867 237.868 19.88C237.588 20.16 237.241 20.3 236.828 20.3ZM252.005 32.32C250.979 32.32 250.012 32.1333 249.105 31.76C248.199 31.3867 247.399 30.8667 246.705 30.2C246.025 29.52 245.485 28.7267 245.085 27.82C244.699 26.9 244.505 25.9067 244.505 24.84C244.505 23.7733 244.699 22.7867 245.085 21.88C245.485 20.96 246.025 20.1667 246.705 19.5C247.399 18.82 248.199 18.2933 249.105 17.92C250.012 17.5467 250.979 17.36 252.005 17.36C253.099 17.36 254.105 17.5533 255.025 17.94C255.959 18.3267 256.739 18.8667 257.365 19.56L255.845 21.06C255.539 20.7133 255.185 20.42 254.785 20.18C254.399 19.94 253.972 19.76 253.505 19.64C253.039 19.5067 252.539 19.44 252.005 19.44C251.299 19.44 250.625 19.5667 249.985 19.82C249.345 20.0733 248.779 20.44 248.285 20.92C247.805 21.3867 247.425 21.9533 247.145 22.62C246.865 23.2733 246.725 24.0133 246.725 24.84C246.725 25.6667 246.865 26.4133 247.145 27.08C247.439 27.7333 247.825 28.3 248.305 28.78C248.799 29.2467 249.365 29.6067 250.005 29.86C250.645 30.1133 251.319 30.24 252.025 30.24C252.679 30.24 253.285 30.1467 253.845 29.96C254.419 29.7733 254.919 29.5067 255.345 29.16C255.772 28.8133 256.119 28.3933 256.385 27.9C256.652 27.3933 256.819 26.8267 256.885 26.2H251.985V24.26H258.945C258.972 24.42 258.999 24.6067 259.025 24.82C259.052 25.02 259.065 25.2133 259.065 25.4V25.42C259.065 26.4467 258.885 27.3867 258.525 28.24C258.179 29.0933 257.692 29.8267 257.065 30.44C256.439 31.04 255.692 31.5067 254.825 31.84C253.972 32.16 253.032 32.32 252.005 32.32ZM265.505 32.32C264.452 32.32 263.525 32.08 262.725 31.6C261.925 31.12 261.299 30.4733 260.845 29.66C260.392 28.8333 260.165 27.9133 260.165 26.9C260.165 25.8867 260.392 24.9733 260.845 24.16C261.299 23.3333 261.925 22.68 262.725 22.2C263.525 21.72 264.452 21.48 265.505 21.48C266.545 21.48 267.465 21.7267 268.265 22.22C269.065 22.7 269.692 23.3467 270.145 24.16C270.599 24.9733 270.825 25.8867 270.825 26.9C270.825 27.9133 270.599 28.8333 270.145 29.66C269.692 30.4733 269.065 31.12 268.265 31.6C267.465 32.08 266.545 32.32 265.505 32.32ZM265.505 30.34C266.065 30.34 266.585 30.2067 267.065 29.94C267.545 29.66 267.932 29.2667 268.225 28.76C268.532 28.24 268.685 27.62 268.685 26.9C268.685 26.18 268.532 25.5667 268.225 25.06C267.932 24.54 267.545 24.1467 267.065 23.88C266.585 23.6 266.065 23.46 265.505 23.46C264.945 23.46 264.419 23.6 263.925 23.88C263.445 24.1467 263.052 24.54 262.745 25.06C262.452 25.5667 262.305 26.18 262.305 26.9C262.305 27.62 262.452 28.24 262.745 28.76C263.052 29.2667 263.452 29.66 263.945 29.94C264.439 30.2067 264.959 30.34 265.505 30.34ZM277.615 32.32C276.561 32.32 275.635 32.08 274.835 31.6C274.035 31.12 273.408 30.4733 272.955 29.66C272.501 28.8333 272.275 27.9133 272.275 26.9C272.275 25.8867 272.501 24.9733 272.955 24.16C273.408 23.3333 274.035 22.68 274.835 22.2C275.635 21.72 276.561 21.48 277.615 21.48C278.655 21.48 279.575 21.7267 280.375 22.22C281.175 22.7 281.801 23.3467 282.255 24.16C282.708 24.9733 282.935 25.8867 282.935 26.9C282.935 27.9133 282.708 28.8333 282.255 29.66C281.801 30.4733 281.175 31.12 280.375 31.6C279.575 32.08 278.655 32.32 277.615 32.32ZM277.615 30.34C278.175 30.34 278.695 30.2067 279.175 29.94C279.655 29.66 280.041 29.2667 280.335 28.76C280.641 28.24 280.795 27.62 280.795 26.9C280.795 26.18 280.641 25.5667 280.335 25.06C280.041 24.54 279.655 24.1467 279.175 23.88C278.695 23.6 278.175 23.46 277.615 23.46C277.055 23.46 276.528 23.6 276.035 23.88C275.555 24.1467 275.161 24.54 274.855 25.06C274.561 25.5667 274.415 26.18 274.415 26.9C274.415 27.62 274.561 28.24 274.855 28.76C275.161 29.2667 275.561 29.66 276.055 29.94C276.548 30.2067 277.068 30.34 277.615 30.34ZM289.524 36.64C288.631 36.64 287.857 36.4933 287.204 36.2C286.564 35.92 286.044 35.5533 285.644 35.1C285.244 34.66 284.957 34.2067 284.784 33.74L286.784 32.9C286.997 33.4333 287.337 33.8667 287.804 34.2C288.284 34.5467 288.857 34.72 289.524 34.72C290.471 34.72 291.211 34.44 291.744 33.88C292.277 33.32 292.544 32.5267 292.544 31.5V30.52H292.424C292.104 30.9867 291.664 31.3667 291.104 31.66C290.544 31.9533 289.897 32.1 289.164 32.1C288.297 32.1 287.497 31.88 286.764 31.44C286.044 31 285.464 30.3867 285.024 29.6C284.597 28.8 284.384 27.8667 284.384 26.8C284.384 25.72 284.597 24.7867 285.024 24C285.464 23.2 286.044 22.58 286.764 22.14C287.497 21.7 288.297 21.48 289.164 21.48C289.897 21.48 290.544 21.6267 291.104 21.92C291.664 22.2 292.104 22.5867 292.424 23.08H292.544V21.8H294.604V31.46C294.604 32.5667 294.384 33.5067 293.944 34.28C293.517 35.0533 292.924 35.64 292.164 36.04C291.404 36.44 290.524 36.64 289.524 36.64ZM289.544 30.14C290.077 30.14 290.571 30.0133 291.024 29.76C291.491 29.4933 291.857 29.1133 292.124 28.62C292.404 28.1133 292.544 27.5067 292.544 26.8C292.544 26.0533 292.404 25.4333 292.124 24.94C291.857 24.4467 291.491 24.0733 291.024 23.82C290.571 23.5667 290.077 23.44 289.544 23.44C289.011 23.44 288.511 23.5667 288.044 23.82C287.591 24.0733 287.224 24.4533 286.944 24.96C286.664 25.4533 286.524 26.0667 286.524 26.8C286.524 27.52 286.664 28.1333 286.944 28.64C287.224 29.1333 287.591 29.5067 288.044 29.76C288.511 30.0133 289.011 30.14 289.544 30.14ZM297.151 32V17.68H299.311V32H297.151ZM306.42 32.32C305.42 32.32 304.527 32.0867 303.74 31.62C302.953 31.1533 302.333 30.5133 301.88 29.7C301.44 28.8867 301.22 27.96 301.22 26.92C301.22 25.9467 301.433 25.0467 301.86 24.22C302.287 23.3933 302.88 22.7333 303.64 22.24C304.413 21.7333 305.3 21.48 306.3 21.48C307.353 21.48 308.247 21.7067 308.98 22.16C309.727 22.6133 310.293 23.2333 310.68 24.02C311.067 24.8067 311.26 25.6933 311.26 26.68C311.26 26.8267 311.253 26.96 311.24 27.08C311.24 27.2 311.233 27.2933 311.22 27.36H303.34C303.393 27.92 303.533 28.4067 303.76 28.82C304.053 29.34 304.44 29.7333 304.92 30C305.4 30.2667 305.92 30.4 306.48 30.4C307.16 30.4 307.727 30.2467 308.18 29.94C308.647 29.62 309.013 29.2267 309.28 28.76L311.06 29.62C310.62 30.42 310.02 31.0733 309.26 31.58C308.5 32.0733 307.553 32.32 306.42 32.32ZM303.46 25.74H309.12C309.107 25.4867 309.04 25.22 308.92 24.94C308.8 24.6467 308.627 24.38 308.4 24.14C308.173 23.9 307.887 23.7067 307.54 23.56C307.193 23.4 306.787 23.32 306.32 23.32C305.733 23.32 305.213 23.4733 304.76 23.78C304.307 24.0733 303.953 24.4867 303.7 25.02C303.593 25.2467 303.513 25.4867 303.46 25.74ZM316.184 22.14V17.68H318.144V22.14H316.184ZM313.024 22.14V17.68H314.984V22.14H313.024Z" fill="white"/>
</svg>
