<svg width="365" height="50" viewBox="0 0 365 50" fill="none" xmlns="http://www.w3.org/2000/svg">
<rect x="0.5" y="0.5" width="364" height="49" rx="24.5" fill="#1F1F1F"/>
<rect x="0.5" y="0.5" width="364" height="49" rx="24.5" stroke="#747775"/>
<path d="M51 22H21V17C21 14.2857 23.2018 12 25.8165 12H46.1835C48.7982 12 51 14.2857 51 17V22Z" fill="#34A853"/>
<path d="M51 26.0537H21V21.0537C21 18.3394 23.2018 16.0537 25.8165 16.0537H46.1835C48.7982 16.0537 51 18.3394 51 21.0537V26.0537Z" fill="#FBBC04"/>
<path d="M51 30.2468H21V25.2468C21 22.5325 23.2018 20.2468 25.8165 20.2468H46.1835C48.7982 20.2468 51 22.5325 51 25.2468V30.2468Z" fill="#EA4335"/>
<path d="M21 23.2752L40.0411 27.6789C42.2329 28.2294 44.6986 27.6789 46.4795 26.3028L51 23V33.3211C51 35.9358 48.8082 38 46.2055 38H25.7945C23.1918 38 21 35.9358 21 33.3211V23.2752Z" fill="#4285F4"/>
<path d="M64.62 32V17.68H75.42V32H73.22V19.76H66.82V32H64.62ZM78.283 36.32V21.8H80.303V23.18H80.423C80.6096 22.8867 80.8563 22.6133 81.163 22.36C81.483 22.0933 81.8563 21.88 82.283 21.72C82.7096 21.56 83.183 21.48 83.703 21.48C84.6363 21.48 85.4696 21.7133 86.203 22.18C86.9363 22.6467 87.5163 23.2867 87.943 24.1C88.383 24.9133 88.603 25.8467 88.603 26.9C88.603 27.9533 88.383 28.8867 87.943 29.7C87.5163 30.5133 86.9363 31.1533 86.203 31.62C85.4696 32.0867 84.6363 32.32 83.703 32.32C82.9296 32.32 82.2563 32.1467 81.683 31.8C81.1096 31.4533 80.6896 31.0667 80.423 30.64H80.303L80.423 32.06V36.32H78.283ZM83.383 30.34C83.9163 30.34 84.4163 30.2 84.883 29.92C85.363 29.64 85.743 29.24 86.023 28.72C86.3163 28.2 86.463 27.5933 86.463 26.9C86.463 26.1933 86.3163 25.5867 86.023 25.08C85.743 24.56 85.363 24.16 84.883 23.88C84.4163 23.6 83.9163 23.46 83.383 23.46C82.8496 23.46 82.3496 23.6 81.883 23.88C81.4163 24.16 81.0363 24.56 80.743 25.08C80.4496 25.5867 80.303 26.1933 80.303 26.9C80.303 27.6067 80.4496 28.22 80.743 28.74C81.0363 29.2467 81.4163 29.64 81.883 29.92C82.3496 30.2 82.8496 30.34 83.383 30.34ZM90.4514 32V21.8H92.6114V27.02L92.4914 28.94H92.6114L97.7114 21.8H99.8514V32H97.7114V26.8L97.8314 24.88H97.7114L92.6114 32H90.4514ZM102.385 32V21.8H104.545V26.32H104.665L108.665 21.8H111.145V21.92L106.885 26.58L111.305 31.88V32H108.745L104.665 26.98H104.545V32H102.385ZM115.644 32.32C114.91 32.32 114.257 32.1733 113.684 31.88C113.124 31.5867 112.677 31.1867 112.344 30.68C112.024 30.16 111.864 29.5667 111.864 28.9C111.864 28.1667 112.05 27.5467 112.424 27.04C112.81 26.5333 113.324 26.1467 113.964 25.88C114.604 25.6133 115.31 25.48 116.084 25.48C116.51 25.48 116.904 25.5133 117.264 25.58C117.637 25.6333 117.957 25.7 118.224 25.78C118.504 25.86 118.724 25.9467 118.884 26.04V25.5C118.884 24.8333 118.644 24.3 118.164 23.9C117.684 23.5 117.064 23.3 116.304 23.3C115.784 23.3 115.29 23.42 114.824 23.66C114.357 23.8867 113.984 24.2 113.704 24.6L112.224 23.46C112.517 23.0467 112.87 22.6933 113.284 22.4C113.71 22.1067 114.184 21.88 114.704 21.72C115.237 21.56 115.79 21.48 116.364 21.48C117.844 21.48 118.984 21.8467 119.784 22.58C120.584 23.3 120.984 24.3133 120.984 25.62V32H118.884V30.74H118.764C118.59 31.0067 118.35 31.26 118.044 31.5C117.75 31.74 117.397 31.9333 116.984 32.08C116.584 32.24 116.137 32.32 115.644 32.32ZM116.024 30.56C116.584 30.56 117.077 30.4267 117.504 30.16C117.944 29.8933 118.284 29.5467 118.524 29.12C118.764 28.68 118.884 28.2067 118.884 27.7C118.59 27.5267 118.23 27.3867 117.804 27.28C117.39 27.16 116.95 27.1 116.484 27.1C115.604 27.1 114.977 27.2733 114.604 27.62C114.23 27.9667 114.044 28.4 114.044 28.92C114.044 29.4 114.224 29.7933 114.584 30.1C114.944 30.4067 115.424 30.56 116.024 30.56ZM122.182 32V31.88L126.342 26.6L122.402 21.92V21.8H124.922L128.462 26.32H128.582V21.8H130.742V26.32H130.862L134.422 21.8H136.962V21.92L133.002 26.6L137.162 31.88V32H134.622L130.862 26.98H130.742V32H128.582V26.98H128.462L124.722 32H122.182ZM138.498 32V21.8H140.658V27.02L140.538 28.94H140.658L145.758 21.8H147.898V32H145.758V26.8L145.878 24.88H145.758L140.658 32H138.498ZM158.58 35.82C158.54 35.9133 158.493 36.0067 158.44 36.1C158.4 36.2067 158.373 36.28 158.36 36.32H156.06C156.127 36.1733 156.22 35.9667 156.34 35.7C156.473 35.4333 156.6 35.1667 156.72 34.9C156.8 34.7267 156.88 34.54 156.96 34.34C157.053 34.14 157.147 33.9333 157.24 33.72C157.347 33.5067 157.447 33.3 157.54 33.1L158.3 31.44L154.04 21.8H156.44L159.36 28.76H159.46L162.28 21.8H164.66L159.38 33.96C159.287 34.1867 159.18 34.4267 159.06 34.68C158.953 34.9333 158.853 35.16 158.76 35.36C158.68 35.5733 158.62 35.7267 158.58 35.82Z" fill="white"/>
<path d="M178.4 32.32C177.373 32.32 176.407 32.1333 175.5 31.76C174.593 31.3867 173.793 30.8667 173.1 30.2C172.42 29.52 171.88 28.7267 171.48 27.82C171.093 26.9 170.9 25.9067 170.9 24.84C170.9 23.7733 171.093 22.7867 171.48 21.88C171.88 20.96 172.42 20.1667 173.1 19.5C173.793 18.82 174.593 18.2933 175.5 17.92C176.407 17.5467 177.373 17.36 178.4 17.36C179.493 17.36 180.5 17.5533 181.42 17.94C182.353 18.3267 183.133 18.8667 183.76 19.56L182.24 21.06C181.933 20.7133 181.58 20.42 181.18 20.18C180.793 19.94 180.367 19.76 179.9 19.64C179.433 19.5067 178.933 19.44 178.4 19.44C177.693 19.44 177.02 19.5667 176.38 19.82C175.74 20.0733 175.173 20.44 174.68 20.92C174.2 21.3867 173.82 21.9533 173.54 22.62C173.26 23.2733 173.12 24.0133 173.12 24.84C173.12 25.6667 173.26 26.4133 173.54 27.08C173.833 27.7333 174.22 28.3 174.7 28.78C175.193 29.2467 175.76 29.6067 176.4 29.86C177.04 30.1133 177.713 30.24 178.42 30.24C179.073 30.24 179.68 30.1467 180.24 29.96C180.813 29.7733 181.313 29.5067 181.74 29.16C182.167 28.8133 182.513 28.3933 182.78 27.9C183.047 27.3933 183.213 26.8267 183.28 26.2H178.38V24.26H185.34C185.367 24.42 185.393 24.6067 185.42 24.82C185.447 25.02 185.46 25.2133 185.46 25.4V25.42C185.46 26.4467 185.28 27.3867 184.92 28.24C184.573 29.0933 184.087 29.8267 183.46 30.44C182.833 31.04 182.087 31.5067 181.22 31.84C180.367 32.16 179.427 32.32 178.4 32.32ZM191.9 32.32C190.847 32.32 189.92 32.08 189.12 31.6C188.32 31.12 187.693 30.4733 187.24 29.66C186.787 28.8333 186.56 27.9133 186.56 26.9C186.56 25.8867 186.787 24.9733 187.24 24.16C187.693 23.3333 188.32 22.68 189.12 22.2C189.92 21.72 190.847 21.48 191.9 21.48C192.94 21.48 193.86 21.7267 194.66 22.22C195.46 22.7 196.087 23.3467 196.54 24.16C196.993 24.9733 197.22 25.8867 197.22 26.9C197.22 27.9133 196.993 28.8333 196.54 29.66C196.087 30.4733 195.46 31.12 194.66 31.6C193.86 32.08 192.94 32.32 191.9 32.32ZM191.9 30.34C192.46 30.34 192.98 30.2067 193.46 29.94C193.94 29.66 194.327 29.2667 194.62 28.76C194.927 28.24 195.08 27.62 195.08 26.9C195.08 26.18 194.927 25.5667 194.62 25.06C194.327 24.54 193.94 24.1467 193.46 23.88C192.98 23.6 192.46 23.46 191.9 23.46C191.34 23.46 190.813 23.6 190.32 23.88C189.84 24.1467 189.447 24.54 189.14 25.06C188.847 25.5667 188.7 26.18 188.7 26.9C188.7 27.62 188.847 28.24 189.14 28.76C189.447 29.2667 189.847 29.66 190.34 29.94C190.833 30.2067 191.353 30.34 191.9 30.34ZM204.009 32.32C202.956 32.32 202.029 32.08 201.229 31.6C200.429 31.12 199.803 30.4733 199.349 29.66C198.896 28.8333 198.669 27.9133 198.669 26.9C198.669 25.8867 198.896 24.9733 199.349 24.16C199.803 23.3333 200.429 22.68 201.229 22.2C202.029 21.72 202.956 21.48 204.009 21.48C205.049 21.48 205.969 21.7267 206.769 22.22C207.569 22.7 208.196 23.3467 208.649 24.16C209.103 24.9733 209.329 25.8867 209.329 26.9C209.329 27.9133 209.103 28.8333 208.649 29.66C208.196 30.4733 207.569 31.12 206.769 31.6C205.969 32.08 205.049 32.32 204.009 32.32ZM204.009 30.34C204.569 30.34 205.089 30.2067 205.569 29.94C206.049 29.66 206.436 29.2667 206.729 28.76C207.036 28.24 207.189 27.62 207.189 26.9C207.189 26.18 207.036 25.5667 206.729 25.06C206.436 24.54 206.049 24.1467 205.569 23.88C205.089 23.6 204.569 23.46 204.009 23.46C203.449 23.46 202.923 23.6 202.429 23.88C201.949 24.1467 201.556 24.54 201.249 25.06C200.956 25.5667 200.809 26.18 200.809 26.9C200.809 27.62 200.956 28.24 201.249 28.76C201.556 29.2667 201.956 29.66 202.449 29.94C202.943 30.2067 203.463 30.34 204.009 30.34ZM215.919 36.64C215.025 36.64 214.252 36.4933 213.599 36.2C212.959 35.92 212.439 35.5533 212.039 35.1C211.639 34.66 211.352 34.2067 211.179 33.74L213.179 32.9C213.392 33.4333 213.732 33.8667 214.199 34.2C214.679 34.5467 215.252 34.72 215.919 34.72C216.865 34.72 217.605 34.44 218.139 33.88C218.672 33.32 218.939 32.5267 218.939 31.5V30.52H218.819C218.499 30.9867 218.059 31.3667 217.499 31.66C216.939 31.9533 216.292 32.1 215.559 32.1C214.692 32.1 213.892 31.88 213.159 31.44C212.439 31 211.859 30.3867 211.419 29.6C210.992 28.8 210.779 27.8667 210.779 26.8C210.779 25.72 210.992 24.7867 211.419 24C211.859 23.2 212.439 22.58 213.159 22.14C213.892 21.7 214.692 21.48 215.559 21.48C216.292 21.48 216.939 21.6267 217.499 21.92C218.059 22.2 218.499 22.5867 218.819 23.08H218.939V21.8H220.999V31.46C220.999 32.5667 220.779 33.5067 220.339 34.28C219.912 35.0533 219.319 35.64 218.559 36.04C217.799 36.44 216.919 36.64 215.919 36.64ZM215.939 30.14C216.472 30.14 216.965 30.0133 217.419 29.76C217.885 29.4933 218.252 29.1133 218.519 28.62C218.799 28.1133 218.939 27.5067 218.939 26.8C218.939 26.0533 218.799 25.4333 218.519 24.94C218.252 24.4467 217.885 24.0733 217.419 23.82C216.965 23.5667 216.472 23.44 215.939 23.44C215.405 23.44 214.905 23.5667 214.439 23.82C213.985 24.0733 213.619 24.4533 213.339 24.96C213.059 25.4533 212.919 26.0667 212.919 26.8C212.919 27.52 213.059 28.1333 213.339 28.64C213.619 29.1333 213.985 29.5067 214.439 29.76C214.905 30.0133 215.405 30.14 215.939 30.14ZM223.546 32V17.68H225.706V32H223.546ZM232.815 32.32C231.815 32.32 230.921 32.0867 230.135 31.62C229.348 31.1533 228.728 30.5133 228.275 29.7C227.835 28.8867 227.615 27.96 227.615 26.92C227.615 25.9467 227.828 25.0467 228.255 24.22C228.681 23.3933 229.275 22.7333 230.035 22.24C230.808 21.7333 231.695 21.48 232.695 21.48C233.748 21.48 234.641 21.7067 235.375 22.16C236.121 22.6133 236.688 23.2333 237.075 24.02C237.461 24.8067 237.655 25.6933 237.655 26.68C237.655 26.8267 237.648 26.96 237.635 27.08C237.635 27.2 237.628 27.2933 237.615 27.36H229.735C229.788 27.92 229.928 28.4067 230.155 28.82C230.448 29.34 230.835 29.7333 231.315 30C231.795 30.2667 232.315 30.4 232.875 30.4C233.555 30.4 234.121 30.2467 234.575 29.94C235.041 29.62 235.408 29.2267 235.675 28.76L237.455 29.62C237.015 30.42 236.415 31.0733 235.655 31.58C234.895 32.0733 233.948 32.32 232.815 32.32ZM229.855 25.74H235.515C235.501 25.4867 235.435 25.22 235.315 24.94C235.195 24.6467 235.021 24.38 234.795 24.14C234.568 23.9 234.281 23.7067 233.935 23.56C233.588 23.4 233.181 23.32 232.715 23.32C232.128 23.32 231.608 23.4733 231.155 23.78C230.701 24.0733 230.348 24.4867 230.095 25.02C229.988 25.2467 229.908 25.4867 229.855 25.74ZM244.326 32V21.8H246.486V25.9H251.326V21.8H253.486V32H251.326V27.78H246.486V32H244.326ZM260.708 32.32C259.655 32.32 258.728 32.08 257.928 31.6C257.128 31.12 256.502 30.4733 256.048 29.66C255.595 28.8333 255.368 27.9133 255.368 26.9C255.368 25.8867 255.595 24.9733 256.048 24.16C256.502 23.3333 257.128 22.68 257.928 22.2C258.728 21.72 259.655 21.48 260.708 21.48C261.748 21.48 262.668 21.7267 263.468 22.22C264.268 22.7 264.895 23.3467 265.348 24.16C265.802 24.9733 266.028 25.8867 266.028 26.9C266.028 27.9133 265.802 28.8333 265.348 29.66C264.895 30.4733 264.268 31.12 263.468 31.6C262.668 32.08 261.748 32.32 260.708 32.32ZM260.708 30.34C261.268 30.34 261.788 30.2067 262.268 29.94C262.748 29.66 263.135 29.2667 263.428 28.76C263.735 28.24 263.888 27.62 263.888 26.9C263.888 26.18 263.735 25.5667 263.428 25.06C263.135 24.54 262.748 24.1467 262.268 23.88C261.788 23.6 261.268 23.46 260.708 23.46C260.148 23.46 259.622 23.6 259.128 23.88C258.648 24.1467 258.255 24.54 257.948 25.06C257.655 25.5667 257.508 26.18 257.508 26.9C257.508 27.62 257.655 28.24 257.948 28.76C258.255 29.2667 258.655 29.66 259.148 29.94C259.642 30.2067 260.162 30.34 260.708 30.34ZM267.823 32V21.8H272.883C273.483 21.8 274.016 21.92 274.483 22.16C274.963 22.3867 275.336 22.7 275.603 23.1C275.883 23.5 276.023 23.9467 276.023 24.44C276.023 24.9733 275.903 25.4333 275.663 25.82C275.436 26.2067 275.136 26.4933 274.763 26.68V26.8C275.269 27 275.669 27.3 275.963 27.7C276.269 28.1 276.423 28.56 276.423 29.08C276.423 29.68 276.263 30.2 275.943 30.64C275.636 31.08 275.236 31.42 274.743 31.66C274.249 31.8867 273.723 32 273.163 32H267.823ZM269.983 27.56V30.2H272.943C273.329 30.2 273.649 30.08 273.903 29.84C274.169 29.5867 274.303 29.2667 274.303 28.88C274.303 28.5067 274.169 28.1933 273.903 27.94C273.649 27.6867 273.329 27.56 272.943 27.56H269.983ZM269.983 23.56V25.96H272.623C272.983 25.96 273.283 25.8467 273.523 25.62C273.763 25.3933 273.883 25.1067 273.883 24.76C273.883 24.4 273.763 24.1133 273.523 23.9C273.283 23.6733 272.983 23.56 272.623 23.56H269.983ZM284.19 32V28.32C283.91 28.52 283.557 28.68 283.13 28.8C282.704 28.9067 282.237 28.96 281.73 28.96C280.557 28.96 279.617 28.62 278.91 27.94C278.217 27.26 277.87 26.34 277.87 25.18V21.8H280.03V24.96C280.03 25.6 280.21 26.1067 280.57 26.48C280.944 26.84 281.464 27.02 282.13 27.02C282.53 27.02 282.917 26.96 283.29 26.84C283.677 26.7067 283.977 26.5333 284.19 26.32V21.8H286.33V32H284.19ZM291.98 32.32C291.246 32.32 290.593 32.1733 290.02 31.88C289.46 31.5867 289.013 31.1867 288.68 30.68C288.36 30.16 288.2 29.5667 288.2 28.9C288.2 28.1667 288.386 27.5467 288.76 27.04C289.146 26.5333 289.66 26.1467 290.3 25.88C290.94 25.6133 291.646 25.48 292.42 25.48C292.846 25.48 293.24 25.5133 293.6 25.58C293.973 25.6333 294.293 25.7 294.56 25.78C294.84 25.86 295.06 25.9467 295.22 26.04V25.5C295.22 24.8333 294.98 24.3 294.5 23.9C294.02 23.5 293.4 23.3 292.64 23.3C292.12 23.3 291.626 23.42 291.16 23.66C290.693 23.8867 290.32 24.2 290.04 24.6L288.56 23.46C288.853 23.0467 289.206 22.6933 289.62 22.4C290.046 22.1067 290.52 21.88 291.04 21.72C291.573 21.56 292.126 21.48 292.7 21.48C294.18 21.48 295.32 21.8467 296.12 22.58C296.92 23.3 297.32 24.3133 297.32 25.62V32H295.22V30.74H295.1C294.926 31.0067 294.686 31.26 294.38 31.5C294.086 31.74 293.733 31.9333 293.32 32.08C292.92 32.24 292.473 32.32 291.98 32.32ZM292.36 30.56C292.92 30.56 293.413 30.4267 293.84 30.16C294.28 29.8933 294.62 29.5467 294.86 29.12C295.1 28.68 295.22 28.2067 295.22 27.7C294.926 27.5267 294.566 27.3867 294.14 27.28C293.726 27.16 293.286 27.1 292.82 27.1C291.94 27.1 291.313 27.2733 290.94 27.62C290.566 27.9667 290.38 28.4 290.38 28.92C290.38 29.4 290.56 29.7933 290.92 30.1C291.28 30.4067 291.76 30.56 292.36 30.56ZM299.698 32V21.8H301.858V25.9H306.698V21.8H308.858V32H306.698V27.78H301.858V32H299.698ZM311.377 32V21.8H313.537V27.02L313.417 28.94H313.537L318.637 21.8H320.777V32H318.637V26.8L318.757 24.88H318.637L313.537 32H311.377ZM323.311 32V21.8H325.471V26.32H325.591L329.591 21.8H332.071V21.92L327.811 26.58L332.231 31.88V32H329.671L325.591 26.98H325.471V32H323.311ZM337.24 35.82C337.2 35.9133 337.153 36.0067 337.1 36.1C337.06 36.2067 337.033 36.28 337.02 36.32H334.72C334.787 36.1733 334.88 35.9667 335 35.7C335.133 35.4333 335.26 35.1667 335.38 34.9C335.46 34.7267 335.54 34.54 335.62 34.34C335.713 34.14 335.807 33.9333 335.9 33.72C336.007 33.5067 336.107 33.3 336.2 33.1L336.96 31.44L332.7 21.8H335.1L338.02 28.76H338.12L340.94 21.8H343.32L338.04 33.96C337.947 34.1867 337.84 34.4267 337.72 34.68C337.613 34.9333 337.513 35.16 337.42 35.36C337.34 35.5733 337.28 35.7267 337.24 35.82Z" fill="white"/>
</svg>
