<svg width="269" height="50" viewBox="0 0 269 50" fill="none" xmlns="http://www.w3.org/2000/svg">
<rect x="0.5" y="0.5" width="268" height="49" rx="24.5" fill="#1F1F1F"/>
<rect x="0.5" y="0.5" width="268" height="49" rx="24.5" stroke="#747775"/>
<path d="M51 22H21V17C21 14.2857 23.2018 12 25.8165 12H46.1835C48.7982 12 51 14.2857 51 17V22Z" fill="#34A853"/>
<path d="M51 26.0537H21V21.0537C21 18.3394 23.2018 16.0537 25.8165 16.0537H46.1835C48.7982 16.0537 51 18.3394 51 21.0537V26.0537Z" fill="#FBBC04"/>
<path d="M51 30.2468H21V25.2468C21 22.5325 23.2018 20.2468 25.8165 20.2468H46.1835C48.7982 20.2468 51 22.5325 51 25.2468V30.2468Z" fill="#EA4335"/>
<path d="M21 23.2752L40.0411 27.6789C42.2329 28.2294 44.6986 27.6789 46.4795 26.3028L51 23V33.3211C51 35.9358 48.8082 38 46.2055 38H25.7945C23.1918 38 21 35.9358 21 33.3211V23.2752Z" fill="#4285F4"/>
<path d="M68.36 32L63.28 17.68H65.68L68.92 27.2L69.42 28.82H69.54L70.08 27.2L73.46 17.68H75.86L70.64 32H68.36ZM77.1739 32V21.8H79.3339V32H77.1739ZM78.2539 20.3C77.8539 20.3 77.5072 20.16 77.2139 19.88C76.9339 19.5867 76.7939 19.24 76.7939 18.84C76.7939 18.4267 76.9339 18.0867 77.2139 17.82C77.5072 17.54 77.8539 17.4 78.2539 17.4C78.6672 17.4 79.0139 17.54 79.2939 17.82C79.5739 18.0867 79.7139 18.4267 79.7139 18.84C79.7139 19.24 79.5739 19.5867 79.2939 19.88C79.0139 20.16 78.6672 20.3 78.2539 20.3ZM85.7339 32.32C84.9206 32.32 84.2139 32.2 83.6139 31.96C83.0139 31.7067 82.5206 31.3733 82.1339 30.96C81.7472 30.5333 81.4606 30.0733 81.2739 29.58L83.2139 28.74C83.4539 29.2867 83.7939 29.7067 84.2339 30C84.6872 30.28 85.2072 30.42 85.7939 30.42C86.3272 30.42 86.7872 30.3267 87.1739 30.14C87.5606 29.94 87.7539 29.62 87.7539 29.18C87.7539 28.9 87.6606 28.6733 87.4739 28.5C87.3006 28.3133 87.0606 28.16 86.7539 28.04C86.4606 27.92 86.1206 27.8133 85.7339 27.72L84.5139 27.44C84.0339 27.32 83.5739 27.1333 83.1339 26.88C82.7072 26.6133 82.3606 26.28 82.0939 25.88C81.8272 25.48 81.6939 25.0067 81.6939 24.46C81.6939 23.8467 81.8672 23.32 82.2139 22.88C82.5739 22.4267 83.0539 22.08 83.6539 21.84C84.2539 21.6 84.9006 21.48 85.5939 21.48C86.2339 21.48 86.8139 21.5667 87.3339 21.74C87.8672 21.9 88.3272 22.1467 88.7139 22.48C89.1139 22.8 89.4272 23.2 89.6539 23.68L87.7939 24.52C87.5672 24.0667 87.2606 23.7533 86.8739 23.58C86.4872 23.3933 86.0672 23.3 85.6139 23.3C85.1072 23.3 84.6806 23.4067 84.3339 23.62C84.0006 23.82 83.8339 24.0867 83.8339 24.42C83.8339 24.7667 83.9806 25.04 84.2739 25.24C84.5806 25.44 84.9539 25.6 85.3939 25.72L86.8739 26.08C87.8872 26.3333 88.6472 26.72 89.1539 27.24C89.6606 27.7467 89.9139 28.3667 89.9139 29.1C89.9139 29.7533 89.7272 30.3267 89.3539 30.82C88.9806 31.3 88.4739 31.6733 87.8339 31.94C87.2072 32.1933 86.5072 32.32 85.7339 32.32ZM95.0967 32.32C94.3634 32.32 93.7101 32.1733 93.1367 31.88C92.5767 31.5867 92.1301 31.1867 91.7967 30.68C91.4767 30.16 91.3167 29.5667 91.3167 28.9C91.3167 28.1667 91.5034 27.5467 91.8767 27.04C92.2634 26.5333 92.7767 26.1467 93.4167 25.88C94.0567 25.6133 94.7634 25.48 95.5367 25.48C95.9634 25.48 96.3567 25.5133 96.7167 25.58C97.0901 25.6333 97.4101 25.7 97.6767 25.78C97.9567 25.86 98.1767 25.9467 98.3367 26.04V25.5C98.3367 24.8333 98.0967 24.3 97.6167 23.9C97.1367 23.5 96.5167 23.3 95.7567 23.3C95.2367 23.3 94.7434 23.42 94.2767 23.66C93.8101 23.8867 93.4367 24.2 93.1567 24.6L91.6767 23.46C91.9701 23.0467 92.3234 22.6933 92.7367 22.4C93.1634 22.1067 93.6367 21.88 94.1567 21.72C94.6901 21.56 95.2434 21.48 95.8167 21.48C97.2967 21.48 98.4367 21.8467 99.2367 22.58C100.037 23.3 100.437 24.3133 100.437 25.62V32H98.3367V30.74H98.2167C98.0434 31.0067 97.8034 31.26 97.4967 31.5C97.2034 31.74 96.8501 31.9333 96.4367 32.08C96.0367 32.24 95.5901 32.32 95.0967 32.32ZM95.4767 30.56C96.0367 30.56 96.5301 30.4267 96.9567 30.16C97.3967 29.8933 97.7367 29.5467 97.9767 29.12C98.2167 28.68 98.3367 28.2067 98.3367 27.7C98.0434 27.5267 97.6834 27.3867 97.2567 27.28C96.8434 27.16 96.4034 27.1 95.9367 27.1C95.0567 27.1 94.4301 27.2733 94.0567 27.62C93.6834 27.9667 93.4967 28.4 93.4967 28.92C93.4967 29.4 93.6767 29.7933 94.0367 30.1C94.3967 30.4067 94.8767 30.56 95.4767 30.56ZM107.643 32V21.8H109.803V32H107.643ZM108.723 20.3C108.323 20.3 107.976 20.16 107.683 19.88C107.403 19.5867 107.263 19.24 107.263 18.84C107.263 18.4267 107.403 18.0867 107.683 17.82C107.976 17.54 108.323 17.4 108.723 17.4C109.136 17.4 109.483 17.54 109.763 17.82C110.043 18.0867 110.183 18.4267 110.183 18.84C110.183 19.24 110.043 19.5867 109.763 19.88C109.483 20.16 109.136 20.3 108.723 20.3Z" fill="white"/>
<path d="M125.4 32.32C124.373 32.32 123.407 32.1333 122.5 31.76C121.593 31.3867 120.793 30.8667 120.1 30.2C119.42 29.52 118.88 28.7267 118.48 27.82C118.093 26.9 117.9 25.9067 117.9 24.84C117.9 23.7733 118.093 22.7867 118.48 21.88C118.88 20.96 119.42 20.1667 120.1 19.5C120.793 18.82 121.593 18.2933 122.5 17.92C123.407 17.5467 124.373 17.36 125.4 17.36C126.493 17.36 127.5 17.5533 128.42 17.94C129.353 18.3267 130.133 18.8667 130.76 19.56L129.24 21.06C128.933 20.7133 128.58 20.42 128.18 20.18C127.793 19.94 127.367 19.76 126.9 19.64C126.433 19.5067 125.933 19.44 125.4 19.44C124.693 19.44 124.02 19.5667 123.38 19.82C122.74 20.0733 122.173 20.44 121.68 20.92C121.2 21.3867 120.82 21.9533 120.54 22.62C120.26 23.2733 120.12 24.0133 120.12 24.84C120.12 25.6667 120.26 26.4133 120.54 27.08C120.833 27.7333 121.22 28.3 121.7 28.78C122.193 29.2467 122.76 29.6067 123.4 29.86C124.04 30.1133 124.713 30.24 125.42 30.24C126.073 30.24 126.68 30.1467 127.24 29.96C127.813 29.7733 128.313 29.5067 128.74 29.16C129.167 28.8133 129.513 28.3933 129.78 27.9C130.047 27.3933 130.213 26.8267 130.28 26.2H125.38V24.26H132.34C132.367 24.42 132.393 24.6067 132.42 24.82C132.447 25.02 132.46 25.2133 132.46 25.4V25.42C132.46 26.4467 132.28 27.3867 131.92 28.24C131.573 29.0933 131.087 29.8267 130.46 30.44C129.833 31.04 129.087 31.5067 128.22 31.84C127.367 32.16 126.427 32.32 125.4 32.32ZM138.9 32.32C137.847 32.32 136.92 32.08 136.12 31.6C135.32 31.12 134.693 30.4733 134.24 29.66C133.787 28.8333 133.56 27.9133 133.56 26.9C133.56 25.8867 133.787 24.9733 134.24 24.16C134.693 23.3333 135.32 22.68 136.12 22.2C136.92 21.72 137.847 21.48 138.9 21.48C139.94 21.48 140.86 21.7267 141.66 22.22C142.46 22.7 143.087 23.3467 143.54 24.16C143.993 24.9733 144.22 25.8867 144.22 26.9C144.22 27.9133 143.993 28.8333 143.54 29.66C143.087 30.4733 142.46 31.12 141.66 31.6C140.86 32.08 139.94 32.32 138.9 32.32ZM138.9 30.34C139.46 30.34 139.98 30.2067 140.46 29.94C140.94 29.66 141.327 29.2667 141.62 28.76C141.927 28.24 142.08 27.62 142.08 26.9C142.08 26.18 141.927 25.5667 141.62 25.06C141.327 24.54 140.94 24.1467 140.46 23.88C139.98 23.6 139.46 23.46 138.9 23.46C138.34 23.46 137.813 23.6 137.32 23.88C136.84 24.1467 136.447 24.54 136.14 25.06C135.847 25.5667 135.7 26.18 135.7 26.9C135.7 27.62 135.847 28.24 136.14 28.76C136.447 29.2667 136.847 29.66 137.34 29.94C137.833 30.2067 138.353 30.34 138.9 30.34ZM151.009 32.32C149.956 32.32 149.029 32.08 148.229 31.6C147.429 31.12 146.803 30.4733 146.349 29.66C145.896 28.8333 145.669 27.9133 145.669 26.9C145.669 25.8867 145.896 24.9733 146.349 24.16C146.803 23.3333 147.429 22.68 148.229 22.2C149.029 21.72 149.956 21.48 151.009 21.48C152.049 21.48 152.969 21.7267 153.769 22.22C154.569 22.7 155.196 23.3467 155.649 24.16C156.103 24.9733 156.329 25.8867 156.329 26.9C156.329 27.9133 156.103 28.8333 155.649 29.66C155.196 30.4733 154.569 31.12 153.769 31.6C152.969 32.08 152.049 32.32 151.009 32.32ZM151.009 30.34C151.569 30.34 152.089 30.2067 152.569 29.94C153.049 29.66 153.436 29.2667 153.729 28.76C154.036 28.24 154.189 27.62 154.189 26.9C154.189 26.18 154.036 25.5667 153.729 25.06C153.436 24.54 153.049 24.1467 152.569 23.88C152.089 23.6 151.569 23.46 151.009 23.46C150.449 23.46 149.923 23.6 149.429 23.88C148.949 24.1467 148.556 24.54 148.249 25.06C147.956 25.5667 147.809 26.18 147.809 26.9C147.809 27.62 147.956 28.24 148.249 28.76C148.556 29.2667 148.956 29.66 149.449 29.94C149.943 30.2067 150.463 30.34 151.009 30.34ZM162.919 36.64C162.025 36.64 161.252 36.4933 160.599 36.2C159.959 35.92 159.439 35.5533 159.039 35.1C158.639 34.66 158.352 34.2067 158.179 33.74L160.179 32.9C160.392 33.4333 160.732 33.8667 161.199 34.2C161.679 34.5467 162.252 34.72 162.919 34.72C163.865 34.72 164.605 34.44 165.139 33.88C165.672 33.32 165.939 32.5267 165.939 31.5V30.52H165.819C165.499 30.9867 165.059 31.3667 164.499 31.66C163.939 31.9533 163.292 32.1 162.559 32.1C161.692 32.1 160.892 31.88 160.159 31.44C159.439 31 158.859 30.3867 158.419 29.6C157.992 28.8 157.779 27.8667 157.779 26.8C157.779 25.72 157.992 24.7867 158.419 24C158.859 23.2 159.439 22.58 160.159 22.14C160.892 21.7 161.692 21.48 162.559 21.48C163.292 21.48 163.939 21.6267 164.499 21.92C165.059 22.2 165.499 22.5867 165.819 23.08H165.939V21.8H167.999V31.46C167.999 32.5667 167.779 33.5067 167.339 34.28C166.912 35.0533 166.319 35.64 165.559 36.04C164.799 36.44 163.919 36.64 162.919 36.64ZM162.939 30.14C163.472 30.14 163.965 30.0133 164.419 29.76C164.885 29.4933 165.252 29.1133 165.519 28.62C165.799 28.1133 165.939 27.5067 165.939 26.8C165.939 26.0533 165.799 25.4333 165.519 24.94C165.252 24.4467 164.885 24.0733 164.419 23.82C163.965 23.5667 163.472 23.44 162.939 23.44C162.405 23.44 161.905 23.5667 161.439 23.82C160.985 24.0733 160.619 24.4533 160.339 24.96C160.059 25.4533 159.919 26.0667 159.919 26.8C159.919 27.52 160.059 28.1333 160.339 28.64C160.619 29.1333 160.985 29.5067 161.439 29.76C161.905 30.0133 162.405 30.14 162.939 30.14ZM170.546 32V17.68H172.706V32H170.546ZM179.815 32.32C178.815 32.32 177.921 32.0867 177.135 31.62C176.348 31.1533 175.728 30.5133 175.275 29.7C174.835 28.8867 174.615 27.96 174.615 26.92C174.615 25.9467 174.828 25.0467 175.255 24.22C175.681 23.3933 176.275 22.7333 177.035 22.24C177.808 21.7333 178.695 21.48 179.695 21.48C180.748 21.48 181.641 21.7067 182.375 22.16C183.121 22.6133 183.688 23.2333 184.075 24.02C184.461 24.8067 184.655 25.6933 184.655 26.68C184.655 26.8267 184.648 26.96 184.635 27.08C184.635 27.2 184.628 27.2933 184.615 27.36H176.735C176.788 27.92 176.928 28.4067 177.155 28.82C177.448 29.34 177.835 29.7333 178.315 30C178.795 30.2667 179.315 30.4 179.875 30.4C180.555 30.4 181.121 30.2467 181.575 29.94C182.041 29.62 182.408 29.2267 182.675 28.76L184.455 29.62C184.015 30.42 183.415 31.0733 182.655 31.58C181.895 32.0733 180.948 32.32 179.815 32.32ZM176.855 25.74H182.515C182.501 25.4867 182.435 25.22 182.315 24.94C182.195 24.6467 182.021 24.38 181.795 24.14C181.568 23.9 181.281 23.7067 180.935 23.56C180.588 23.4 180.181 23.32 179.715 23.32C179.128 23.32 178.608 23.4733 178.155 23.78C177.701 24.0733 177.348 24.4867 177.095 25.02C176.988 25.2467 176.908 25.4867 176.855 25.74ZM193.446 32L189.606 17.68H192.046L194.326 26.98L194.566 28.22H194.686L194.986 26.98L197.866 17.68H200.066L202.826 26.98L203.126 28.2H203.246L203.486 26.98L205.766 17.68H208.186L204.406 32H202.086L199.346 22.5L199.026 21.16H198.906L198.566 22.5L195.706 32H193.446ZM212.202 32.32C211.469 32.32 210.816 32.1733 210.242 31.88C209.682 31.5867 209.236 31.1867 208.902 30.68C208.582 30.16 208.422 29.5667 208.422 28.9C208.422 28.1667 208.609 27.5467 208.982 27.04C209.369 26.5333 209.882 26.1467 210.522 25.88C211.162 25.6133 211.869 25.48 212.642 25.48C213.069 25.48 213.462 25.5133 213.822 25.58C214.196 25.6333 214.516 25.7 214.782 25.78C215.062 25.86 215.282 25.9467 215.442 26.04V25.5C215.442 24.8333 215.202 24.3 214.722 23.9C214.242 23.5 213.622 23.3 212.862 23.3C212.342 23.3 211.849 23.42 211.382 23.66C210.916 23.8867 210.542 24.2 210.262 24.6L208.782 23.46C209.076 23.0467 209.429 22.6933 209.842 22.4C210.269 22.1067 210.742 21.88 211.262 21.72C211.796 21.56 212.349 21.48 212.922 21.48C214.402 21.48 215.542 21.8467 216.342 22.58C217.142 23.3 217.542 24.3133 217.542 25.62V32H215.442V30.74H215.322C215.149 31.0067 214.909 31.26 214.602 31.5C214.309 31.74 213.956 31.9333 213.542 32.08C213.142 32.24 212.696 32.32 212.202 32.32ZM212.582 30.56C213.142 30.56 213.636 30.4267 214.062 30.16C214.502 29.8933 214.842 29.5467 215.082 29.12C215.322 28.68 215.442 28.2067 215.442 27.7C215.149 27.5267 214.789 27.3867 214.362 27.28C213.949 27.16 213.509 27.1 213.042 27.1C212.162 27.1 211.536 27.2733 211.162 27.62C210.789 27.9667 210.602 28.4 210.602 28.92C210.602 29.4 210.782 29.7933 211.142 30.1C211.502 30.4067 211.982 30.56 212.582 30.56ZM219.94 32V17.68H222.1V32H219.94ZM224.667 32V17.68H226.827V32H224.667ZM233.936 32.32C232.936 32.32 232.042 32.0867 231.256 31.62C230.469 31.1533 229.849 30.5133 229.396 29.7C228.956 28.8867 228.736 27.96 228.736 26.92C228.736 25.9467 228.949 25.0467 229.376 24.22C229.802 23.3933 230.396 22.7333 231.156 22.24C231.929 21.7333 232.816 21.48 233.816 21.48C234.869 21.48 235.762 21.7067 236.496 22.16C237.242 22.6133 237.809 23.2333 238.196 24.02C238.582 24.8067 238.776 25.6933 238.776 26.68C238.776 26.8267 238.769 26.96 238.756 27.08C238.756 27.2 238.749 27.2933 238.736 27.36H230.856C230.909 27.92 231.049 28.4067 231.276 28.82C231.569 29.34 231.956 29.7333 232.436 30C232.916 30.2667 233.436 30.4 233.996 30.4C234.676 30.4 235.242 30.2467 235.696 29.94C236.162 29.62 236.529 29.2267 236.796 28.76L238.576 29.62C238.136 30.42 237.536 31.0733 236.776 31.58C236.016 32.0733 235.069 32.32 233.936 32.32ZM230.976 25.74H236.636C236.622 25.4867 236.556 25.22 236.436 24.94C236.316 24.6467 236.142 24.38 235.916 24.14C235.689 23.9 235.402 23.7067 235.056 23.56C234.709 23.4 234.302 23.32 233.836 23.32C233.249 23.32 232.729 23.4733 232.276 23.78C231.822 24.0733 231.469 24.4867 231.216 25.02C231.109 25.2467 231.029 25.4867 230.976 25.74ZM239.787 21.8H241.567V18.92H243.727V21.8H246.227V23.68H243.727V28.58C243.727 29.0867 243.827 29.4733 244.027 29.74C244.24 30.0067 244.593 30.14 245.087 30.14C245.327 30.14 245.54 30.1067 245.727 30.04C245.913 29.96 246.1 29.8667 246.287 29.76V31.86C246.06 31.9533 245.82 32.0267 245.567 32.08C245.313 32.1333 245.013 32.16 244.667 32.16C243.72 32.16 242.967 31.8867 242.407 31.34C241.847 30.78 241.567 30.0133 241.567 29.04V23.68H239.787V21.8Z" fill="white"/>
</svg>
