<svg width="385" height="50" viewBox="0 0 385 50" fill="none" xmlns="http://www.w3.org/2000/svg">
<rect x="0.5" y="0.5" width="384" height="49" rx="24.5" fill="#1F1F1F"/>
<rect x="0.5" y="0.5" width="384" height="49" rx="24.5" stroke="#747775"/>
<path d="M51 22H21V17C21 14.2857 23.2018 12 25.8165 12H46.1835C48.7982 12 51 14.2857 51 17V22Z" fill="#34A853"/>
<path d="M51 26.0537H21V21.0537C21 18.3394 23.2018 16.0537 25.8165 16.0537H46.1835C48.7982 16.0537 51 18.3394 51 21.0537V26.0537Z" fill="#FBBC04"/>
<path d="M51 30.2468H21V25.2468C21 22.5325 23.2018 20.2468 25.8165 20.2468H46.1835C48.7982 20.2468 51 22.5325 51 25.2468V30.2468Z" fill="#EA4335"/>
<path d="M21 23.2752L40.0411 27.6789C42.2329 28.2294 44.6986 27.6789 46.4795 26.3028L51 23V33.3211C51 35.9358 48.8082 38 46.2055 38H25.7945C23.1918 38 21 35.9358 21 33.3211V23.2752Z" fill="#4285F4"/>
<path d="M63.3 32L68.7 17.68H71.2L76.62 32H74.2L72.88 28.32H67.04L65.72 32H63.3ZM72.14 26.28L70.56 21.9L70.02 20.26H69.9L69.36 21.9L67.78 26.28H72.14ZM78.1858 32V21.8H80.2258V23.2H80.3458C80.6391 22.7067 81.0724 22.3 81.6458 21.98C82.2324 21.6467 82.8724 21.48 83.5658 21.48C84.8191 21.48 85.7591 21.8533 86.3858 22.6C87.0124 23.3333 87.3258 24.32 87.3258 25.56V32H85.1858V25.84C85.1858 25.0133 84.9791 24.4133 84.5658 24.04C84.1524 23.6533 83.6124 23.46 82.9458 23.46C82.4258 23.46 81.9724 23.6067 81.5858 23.9C81.1991 24.18 80.8924 24.5533 80.6658 25.02C80.4524 25.4867 80.3458 25.9867 80.3458 26.52V32H78.1858ZM94.2897 36.64C93.3964 36.64 92.623 36.4933 91.9697 36.2C91.3297 35.92 90.8097 35.5533 90.4097 35.1C90.0097 34.66 89.723 34.2067 89.5497 33.74L91.5497 32.9C91.763 33.4333 92.103 33.8667 92.5697 34.2C93.0497 34.5467 93.623 34.72 94.2897 34.72C95.2364 34.72 95.9764 34.44 96.5097 33.88C97.043 33.32 97.3097 32.5267 97.3097 31.5V30.52H97.1897C96.8697 30.9867 96.4297 31.3667 95.8697 31.66C95.3097 31.9533 94.663 32.1 93.9297 32.1C93.063 32.1 92.263 31.88 91.5297 31.44C90.8097 31 90.2297 30.3867 89.7897 29.6C89.363 28.8 89.1497 27.8667 89.1497 26.8C89.1497 25.72 89.363 24.7867 89.7897 24C90.2297 23.2 90.8097 22.58 91.5297 22.14C92.263 21.7 93.063 21.48 93.9297 21.48C94.663 21.48 95.3097 21.6267 95.8697 21.92C96.4297 22.2 96.8697 22.5867 97.1897 23.08H97.3097V21.8H99.3697V31.46C99.3697 32.5667 99.1497 33.5067 98.7097 34.28C98.283 35.0533 97.6897 35.64 96.9297 36.04C96.1697 36.44 95.2897 36.64 94.2897 36.64ZM94.3097 30.14C94.843 30.14 95.3364 30.0133 95.7897 29.76C96.2564 29.4933 96.623 29.1133 96.8897 28.62C97.1697 28.1133 97.3097 27.5067 97.3097 26.8C97.3097 26.0533 97.1697 25.4333 96.8897 24.94C96.623 24.4467 96.2564 24.0733 95.7897 23.82C95.3364 23.5667 94.843 23.44 94.3097 23.44C93.7764 23.44 93.2764 23.5667 92.8097 23.82C92.3564 24.0733 91.9897 24.4533 91.7097 24.96C91.4297 25.4533 91.2897 26.0667 91.2897 26.8C91.2897 27.52 91.4297 28.1333 91.7097 28.64C91.9897 29.1333 92.3564 29.5067 92.8097 29.76C93.2764 30.0133 93.7764 30.14 94.3097 30.14ZM104.999 32.32C104.266 32.32 103.612 32.1733 103.039 31.88C102.479 31.5867 102.032 31.1867 101.699 30.68C101.379 30.16 101.219 29.5667 101.219 28.9C101.219 28.1667 101.406 27.5467 101.779 27.04C102.166 26.5333 102.679 26.1467 103.319 25.88C103.959 25.6133 104.666 25.48 105.439 25.48C105.866 25.48 106.259 25.5133 106.619 25.58C106.992 25.6333 107.312 25.7 107.579 25.78C107.859 25.86 108.079 25.9467 108.239 26.04V25.5C108.239 24.8333 107.999 24.3 107.519 23.9C107.039 23.5 106.419 23.3 105.659 23.3C105.139 23.3 104.646 23.42 104.179 23.66C103.712 23.8867 103.339 24.2 103.059 24.6L101.579 23.46C101.872 23.0467 102.226 22.6933 102.639 22.4C103.066 22.1067 103.539 21.88 104.059 21.72C104.592 21.56 105.146 21.48 105.719 21.48C107.199 21.48 108.339 21.8467 109.139 22.58C109.939 23.3 110.339 24.3133 110.339 25.62V32H108.239V30.74H108.119C107.946 31.0067 107.706 31.26 107.399 31.5C107.106 31.74 106.752 31.9333 106.339 32.08C105.939 32.24 105.492 32.32 104.999 32.32ZM105.379 30.56C105.939 30.56 106.432 30.4267 106.859 30.16C107.299 29.8933 107.639 29.5467 107.879 29.12C108.119 28.68 108.239 28.2067 108.239 27.7C107.946 27.5267 107.586 27.3867 107.159 27.28C106.746 27.16 106.306 27.1 105.839 27.1C104.959 27.1 104.332 27.2733 103.959 27.62C103.586 27.9667 103.399 28.4 103.399 28.92C103.399 29.4 103.579 29.7933 103.939 30.1C104.299 30.4067 104.779 30.56 105.379 30.56ZM112.737 32V17.68H114.897V32H112.737ZM117.604 32V21.8H119.764V32H117.604ZM118.684 20.3C118.284 20.3 117.937 20.16 117.644 19.88C117.364 19.5867 117.224 19.24 117.224 18.84C117.224 18.4267 117.364 18.0867 117.644 17.82C117.937 17.54 118.284 17.4 118.684 17.4C119.097 17.4 119.444 17.54 119.724 17.82C120.004 18.0867 120.144 18.4267 120.144 18.84C120.144 19.24 120.004 19.5867 119.724 19.88C119.444 20.16 119.097 20.3 118.684 20.3ZM125.546 32.32C124.813 32.32 124.159 32.1733 123.586 31.88C123.026 31.5867 122.579 31.1867 122.246 30.68C121.926 30.16 121.766 29.5667 121.766 28.9C121.766 28.1667 121.953 27.5467 122.326 27.04C122.713 26.5333 123.226 26.1467 123.866 25.88C124.506 25.6133 125.213 25.48 125.986 25.48C126.413 25.48 126.806 25.5133 127.166 25.58C127.539 25.6333 127.859 25.7 128.126 25.78C128.406 25.86 128.626 25.9467 128.786 26.04V25.5C128.786 24.8333 128.546 24.3 128.066 23.9C127.586 23.5 126.966 23.3 126.206 23.3C125.686 23.3 125.193 23.42 124.726 23.66C124.259 23.8867 123.886 24.2 123.606 24.6L122.126 23.46C122.419 23.0467 122.773 22.6933 123.186 22.4C123.613 22.1067 124.086 21.88 124.606 21.72C125.139 21.56 125.693 21.48 126.266 21.48C127.746 21.48 128.886 21.8467 129.686 22.58C130.486 23.3 130.886 24.3133 130.886 25.62V32H128.786V30.74H128.666C128.493 31.0067 128.253 31.26 127.946 31.5C127.653 31.74 127.299 31.9333 126.886 32.08C126.486 32.24 126.039 32.32 125.546 32.32ZM125.926 30.56C126.486 30.56 126.979 30.4267 127.406 30.16C127.846 29.8933 128.186 29.5467 128.426 29.12C128.666 28.68 128.786 28.2067 128.786 27.7C128.493 27.5267 128.133 27.3867 127.706 27.28C127.293 27.16 126.853 27.1 126.386 27.1C125.506 27.1 124.879 27.2733 124.506 27.62C124.133 27.9667 123.946 28.4 123.946 28.92C123.946 29.4 124.126 29.7933 124.486 30.1C124.846 30.4067 125.326 30.56 125.926 30.56ZM137.932 32V17.68H140.092V26.12L144.412 21.8H147.092V21.92L143.152 25.82L147.232 31.88V32H144.672L141.632 27.32L140.092 28.84V32H137.932ZM150.716 32L147.456 21.8H149.796L151.896 29.14H151.976L154.276 21.8H156.496L158.796 29.14H158.876L160.976 21.8H163.276L159.996 32H157.736L155.376 24.62H155.296L152.956 32H150.716ZM169.135 32.32C168.135 32.32 167.242 32.0867 166.455 31.62C165.668 31.1533 165.048 30.5133 164.595 29.7C164.155 28.8867 163.935 27.96 163.935 26.92C163.935 25.9467 164.148 25.0467 164.575 24.22C165.002 23.3933 165.595 22.7333 166.355 22.24C167.128 21.7333 168.015 21.48 169.015 21.48C170.068 21.48 170.962 21.7067 171.695 22.16C172.442 22.6133 173.008 23.2333 173.395 24.02C173.782 24.8067 173.975 25.6933 173.975 26.68C173.975 26.8267 173.968 26.96 173.955 27.08C173.955 27.2 173.948 27.2933 173.935 27.36H166.055C166.108 27.92 166.248 28.4067 166.475 28.82C166.768 29.34 167.155 29.7333 167.635 30C168.115 30.2667 168.635 30.4 169.195 30.4C169.875 30.4 170.442 30.2467 170.895 29.94C171.362 29.62 171.728 29.2267 171.995 28.76L173.775 29.62C173.335 30.42 172.735 31.0733 171.975 31.58C171.215 32.0733 170.268 32.32 169.135 32.32ZM166.175 25.74H171.835C171.822 25.4867 171.755 25.22 171.635 24.94C171.515 24.6467 171.342 24.38 171.115 24.14C170.888 23.9 170.602 23.7067 170.255 23.56C169.908 23.4 169.502 23.32 169.035 23.32C168.448 23.32 167.928 23.4733 167.475 23.78C167.022 24.0733 166.668 24.4867 166.415 25.02C166.308 25.2467 166.228 25.4867 166.175 25.74ZM175.979 32V21.8H178.019V23.2H178.139C178.432 22.7067 178.865 22.3 179.439 21.98C180.025 21.6467 180.665 21.48 181.359 21.48C182.612 21.48 183.552 21.8533 184.179 22.6C184.805 23.3333 185.119 24.32 185.119 25.56V32H182.979V25.84C182.979 25.0133 182.772 24.4133 182.359 24.04C181.945 23.6533 181.405 23.46 180.739 23.46C180.219 23.46 179.765 23.6067 179.379 23.9C178.992 24.18 178.685 24.5533 178.459 25.02C178.245 25.4867 178.139 25.9867 178.139 26.52V32H175.979ZM190.787 35.82C190.747 35.9133 190.7 36.0067 190.647 36.1C190.607 36.2067 190.58 36.28 190.567 36.32H188.267C188.334 36.1733 188.427 35.9667 188.547 35.7C188.68 35.4333 188.807 35.1667 188.927 34.9C189.007 34.7267 189.087 34.54 189.167 34.34C189.26 34.14 189.354 33.9333 189.447 33.72C189.554 33.5067 189.654 33.3 189.747 33.1L190.507 31.44L186.247 21.8H188.647L191.567 28.76H191.667L194.487 21.8H196.867L191.587 33.96C191.494 34.1867 191.387 34.4267 191.267 34.68C191.16 34.9333 191.06 35.16 190.967 35.36C190.887 35.5733 190.827 35.7267 190.787 35.82ZM202.572 32.32C201.572 32.32 200.679 32.0867 199.892 31.62C199.106 31.1533 198.486 30.5133 198.032 29.7C197.592 28.8867 197.372 27.96 197.372 26.92C197.372 25.9467 197.586 25.0467 198.012 24.22C198.439 23.3933 199.032 22.7333 199.792 22.24C200.566 21.7333 201.452 21.48 202.452 21.48C203.506 21.48 204.399 21.7067 205.132 22.16C205.879 22.6133 206.446 23.2333 206.832 24.02C207.219 24.8067 207.412 25.6933 207.412 26.68C207.412 26.8267 207.406 26.96 207.392 27.08C207.392 27.2 207.386 27.2933 207.372 27.36H199.492C199.546 27.92 199.686 28.4067 199.912 28.82C200.206 29.34 200.592 29.7333 201.072 30C201.552 30.2667 202.072 30.4 202.632 30.4C203.312 30.4 203.879 30.2467 204.332 29.94C204.799 29.62 205.166 29.2267 205.432 28.76L207.212 29.62C206.772 30.42 206.172 31.0733 205.412 31.58C204.652 32.0733 203.706 32.32 202.572 32.32ZM199.612 25.74H205.272C205.259 25.4867 205.192 25.22 205.072 24.94C204.952 24.6467 204.779 24.38 204.552 24.14C204.326 23.9 204.039 23.7067 203.692 23.56C203.346 23.4 202.939 23.32 202.472 23.32C201.886 23.32 201.366 23.4733 200.912 23.78C200.459 24.0733 200.106 24.4867 199.852 25.02C199.746 25.2467 199.666 25.4867 199.612 25.74Z" fill="white"/>
<path d="M215.62 32V17.68H220.54C221.407 17.68 222.193 17.8667 222.9 18.24C223.607 18.6 224.167 19.1133 224.58 19.78C225.007 20.4333 225.22 21.1933 225.22 22.06C225.22 22.9133 225.007 23.6733 224.58 24.34C224.167 25.0067 223.607 25.5267 222.9 25.9C222.193 26.26 221.407 26.44 220.54 26.44H217.82V32H215.62ZM217.82 24.36H220.6C221.12 24.36 221.56 24.2533 221.92 24.04C222.28 23.8133 222.553 23.5267 222.74 23.18C222.94 22.82 223.04 22.4467 223.04 22.06C223.04 21.6733 222.94 21.3067 222.74 20.96C222.553 20.6133 222.28 20.3267 221.92 20.1C221.56 19.8733 221.12 19.76 220.6 19.76H217.82V24.36ZM231.212 32.32C230.159 32.32 229.232 32.08 228.432 31.6C227.632 31.12 227.006 30.4733 226.552 29.66C226.099 28.8333 225.872 27.9133 225.872 26.9C225.872 25.8867 226.099 24.9733 226.552 24.16C227.006 23.3333 227.632 22.68 228.432 22.2C229.232 21.72 230.159 21.48 231.212 21.48C232.252 21.48 233.172 21.7267 233.972 22.22C234.772 22.7 235.399 23.3467 235.852 24.16C236.306 24.9733 236.532 25.8867 236.532 26.9C236.532 27.9133 236.306 28.8333 235.852 29.66C235.399 30.4733 234.772 31.12 233.972 31.6C233.172 32.08 232.252 32.32 231.212 32.32ZM231.212 30.34C231.772 30.34 232.292 30.2067 232.772 29.94C233.252 29.66 233.639 29.2667 233.932 28.76C234.239 28.24 234.392 27.62 234.392 26.9C234.392 26.18 234.239 25.5667 233.932 25.06C233.639 24.54 233.252 24.1467 232.772 23.88C232.292 23.6 231.772 23.46 231.212 23.46C230.652 23.46 230.126 23.6 229.632 23.88C229.152 24.1467 228.759 24.54 228.452 25.06C228.159 25.5667 228.012 26.18 228.012 26.9C228.012 27.62 228.159 28.24 228.452 28.76C228.759 29.2667 229.159 29.66 229.652 29.94C230.146 30.2067 230.666 30.34 231.212 30.34ZM243.242 32.32C242.215 32.32 241.302 32.0867 240.502 31.62C239.715 31.1533 239.095 30.5133 238.642 29.7C238.202 28.8733 237.982 27.94 237.982 26.9C237.982 25.86 238.202 24.9333 238.642 24.12C239.095 23.3067 239.715 22.6667 240.502 22.2C241.302 21.72 242.215 21.48 243.242 21.48C244.375 21.48 245.328 21.7333 246.102 22.24C246.888 22.7467 247.448 23.4333 247.782 24.3L245.822 25.1C245.582 24.5533 245.235 24.1467 244.782 23.88C244.342 23.6 243.815 23.46 243.202 23.46C242.642 23.46 242.128 23.6067 241.662 23.9C241.195 24.18 240.822 24.5733 240.542 25.08C240.262 25.5867 240.122 26.1933 240.122 26.9C240.122 27.5933 240.262 28.2 240.542 28.72C240.822 29.24 241.195 29.64 241.662 29.92C242.128 30.2 242.642 30.34 243.202 30.34C243.855 30.34 244.408 30.1933 244.862 29.9C245.315 29.6067 245.668 29.1933 245.922 28.66L247.842 29.5C247.468 30.3133 246.888 30.9867 246.102 31.52C245.328 32.0533 244.375 32.32 243.242 32.32ZM249.694 32V17.68H251.854V21.6L251.734 23.2H251.854C252.134 22.7067 252.56 22.3 253.134 21.98C253.72 21.6467 254.367 21.48 255.074 21.48C255.927 21.48 256.634 21.6533 257.194 22C257.767 22.3467 258.194 22.8267 258.474 23.44C258.754 24.04 258.894 24.7467 258.894 25.56V32H256.754V25.84C256.754 25.2933 256.647 24.8467 256.434 24.5C256.234 24.1533 255.967 23.8933 255.634 23.72C255.3 23.5467 254.927 23.46 254.514 23.46C253.994 23.46 253.534 23.6067 253.134 23.9C252.734 24.1933 252.42 24.58 252.194 25.06C251.967 25.5267 251.854 26.0267 251.854 26.56V32H249.694ZM261.514 32V21.8H263.674V32H261.514ZM262.594 20.3C262.194 20.3 261.847 20.16 261.554 19.88C261.274 19.5867 261.134 19.24 261.134 18.84C261.134 18.4267 261.274 18.0867 261.554 17.82C261.847 17.54 262.194 17.4 262.594 17.4C263.007 17.4 263.354 17.54 263.634 17.82C263.914 18.0867 264.054 18.4267 264.054 18.84C264.054 19.24 263.914 19.5867 263.634 19.88C263.354 20.16 263.007 20.3 262.594 20.3ZM274.502 35.82C274.462 35.9133 274.415 36.0067 274.362 36.1C274.322 36.2067 274.295 36.28 274.282 36.32H271.982C272.048 36.1733 272.142 35.9667 272.262 35.7C272.395 35.4333 272.522 35.1667 272.642 34.9C272.722 34.7267 272.802 34.54 272.882 34.34C272.975 34.14 273.068 33.9333 273.162 33.72C273.268 33.5067 273.368 33.3 273.462 33.1L274.222 31.44L269.962 21.8H272.362L275.282 28.76H275.382L278.202 21.8H280.582L275.302 33.96C275.208 34.1867 275.102 34.4267 274.982 34.68C274.875 34.9333 274.775 35.16 274.682 35.36C274.602 35.5733 274.542 35.7267 274.502 35.82ZM284.71 32.32C283.977 32.32 283.323 32.1733 282.75 31.88C282.19 31.5867 281.743 31.1867 281.41 30.68C281.09 30.16 280.93 29.5667 280.93 28.9C280.93 28.1667 281.117 27.5467 281.49 27.04C281.877 26.5333 282.39 26.1467 283.03 25.88C283.67 25.6133 284.377 25.48 285.15 25.48C285.577 25.48 285.97 25.5133 286.33 25.58C286.703 25.6333 287.023 25.7 287.29 25.78C287.57 25.86 287.79 25.9467 287.95 26.04V25.5C287.95 24.8333 287.71 24.3 287.23 23.9C286.75 23.5 286.13 23.3 285.37 23.3C284.85 23.3 284.357 23.42 283.89 23.66C283.423 23.8867 283.05 24.2 282.77 24.6L281.29 23.46C281.583 23.0467 281.937 22.6933 282.35 22.4C282.777 22.1067 283.25 21.88 283.77 21.72C284.303 21.56 284.857 21.48 285.43 21.48C286.91 21.48 288.05 21.8467 288.85 22.58C289.65 23.3 290.05 24.3133 290.05 25.62V32H287.95V30.74H287.83C287.657 31.0067 287.417 31.26 287.11 31.5C286.817 31.74 286.463 31.9333 286.05 32.08C285.65 32.24 285.203 32.32 284.71 32.32ZM285.09 30.56C285.65 30.56 286.143 30.4267 286.57 30.16C287.01 29.8933 287.35 29.5467 287.59 29.12C287.83 28.68 287.95 28.2067 287.95 27.7C287.657 27.5267 287.297 27.3867 286.87 27.28C286.457 27.16 286.017 27.1 285.55 27.1C284.67 27.1 284.043 27.2733 283.67 27.62C283.297 27.9667 283.11 28.4 283.11 28.92C283.11 29.4 283.29 29.7933 283.65 30.1C284.01 30.4067 284.49 30.56 285.09 30.56ZM303.845 32.32C302.819 32.32 301.852 32.1333 300.945 31.76C300.039 31.3867 299.239 30.8667 298.545 30.2C297.865 29.52 297.325 28.7267 296.925 27.82C296.539 26.9 296.345 25.9067 296.345 24.84C296.345 23.7733 296.539 22.7867 296.925 21.88C297.325 20.96 297.865 20.1667 298.545 19.5C299.239 18.82 300.039 18.2933 300.945 17.92C301.852 17.5467 302.819 17.36 303.845 17.36C304.939 17.36 305.945 17.5533 306.865 17.94C307.799 18.3267 308.579 18.8667 309.205 19.56L307.685 21.06C307.379 20.7133 307.025 20.42 306.625 20.18C306.239 19.94 305.812 19.76 305.345 19.64C304.879 19.5067 304.379 19.44 303.845 19.44C303.139 19.44 302.465 19.5667 301.825 19.82C301.185 20.0733 300.619 20.44 300.125 20.92C299.645 21.3867 299.265 21.9533 298.985 22.62C298.705 23.2733 298.565 24.0133 298.565 24.84C298.565 25.6667 298.705 26.4133 298.985 27.08C299.279 27.7333 299.665 28.3 300.145 28.78C300.639 29.2467 301.205 29.6067 301.845 29.86C302.485 30.1133 303.159 30.24 303.865 30.24C304.519 30.24 305.125 30.1467 305.685 29.96C306.259 29.7733 306.759 29.5067 307.185 29.16C307.612 28.8133 307.959 28.3933 308.225 27.9C308.492 27.3933 308.659 26.8267 308.725 26.2H303.825V24.26H310.785C310.812 24.42 310.839 24.6067 310.865 24.82C310.892 25.02 310.905 25.2133 310.905 25.4V25.42C310.905 26.4467 310.725 27.3867 310.365 28.24C310.019 29.0933 309.532 29.8267 308.905 30.44C308.279 31.04 307.532 31.5067 306.665 31.84C305.812 32.16 304.872 32.32 303.845 32.32ZM317.345 32.32C316.292 32.32 315.365 32.08 314.565 31.6C313.765 31.12 313.138 30.4733 312.685 29.66C312.232 28.8333 312.005 27.9133 312.005 26.9C312.005 25.8867 312.232 24.9733 312.685 24.16C313.138 23.3333 313.765 22.68 314.565 22.2C315.365 21.72 316.292 21.48 317.345 21.48C318.385 21.48 319.305 21.7267 320.105 22.22C320.905 22.7 321.532 23.3467 321.985 24.16C322.438 24.9733 322.665 25.8867 322.665 26.9C322.665 27.9133 322.438 28.8333 321.985 29.66C321.532 30.4733 320.905 31.12 320.105 31.6C319.305 32.08 318.385 32.32 317.345 32.32ZM317.345 30.34C317.905 30.34 318.425 30.2067 318.905 29.94C319.385 29.66 319.772 29.2667 320.065 28.76C320.372 28.24 320.525 27.62 320.525 26.9C320.525 26.18 320.372 25.5667 320.065 25.06C319.772 24.54 319.385 24.1467 318.905 23.88C318.425 23.6 317.905 23.46 317.345 23.46C316.785 23.46 316.258 23.6 315.765 23.88C315.285 24.1467 314.892 24.54 314.585 25.06C314.292 25.5667 314.145 26.18 314.145 26.9C314.145 27.62 314.292 28.24 314.585 28.76C314.892 29.2667 315.292 29.66 315.785 29.94C316.278 30.2067 316.798 30.34 317.345 30.34ZM329.455 32.32C328.401 32.32 327.475 32.08 326.675 31.6C325.875 31.12 325.248 30.4733 324.795 29.66C324.341 28.8333 324.115 27.9133 324.115 26.9C324.115 25.8867 324.341 24.9733 324.795 24.16C325.248 23.3333 325.875 22.68 326.675 22.2C327.475 21.72 328.401 21.48 329.455 21.48C330.495 21.48 331.415 21.7267 332.215 22.22C333.015 22.7 333.641 23.3467 334.095 24.16C334.548 24.9733 334.775 25.8867 334.775 26.9C334.775 27.9133 334.548 28.8333 334.095 29.66C333.641 30.4733 333.015 31.12 332.215 31.6C331.415 32.08 330.495 32.32 329.455 32.32ZM329.455 30.34C330.015 30.34 330.535 30.2067 331.015 29.94C331.495 29.66 331.881 29.2667 332.175 28.76C332.481 28.24 332.635 27.62 332.635 26.9C332.635 26.18 332.481 25.5667 332.175 25.06C331.881 24.54 331.495 24.1467 331.015 23.88C330.535 23.6 330.015 23.46 329.455 23.46C328.895 23.46 328.368 23.6 327.875 23.88C327.395 24.1467 327.001 24.54 326.695 25.06C326.401 25.5667 326.255 26.18 326.255 26.9C326.255 27.62 326.401 28.24 326.695 28.76C327.001 29.2667 327.401 29.66 327.895 29.94C328.388 30.2067 328.908 30.34 329.455 30.34ZM341.364 36.64C340.471 36.64 339.697 36.4933 339.044 36.2C338.404 35.92 337.884 35.5533 337.484 35.1C337.084 34.66 336.797 34.2067 336.624 33.74L338.624 32.9C338.837 33.4333 339.177 33.8667 339.644 34.2C340.124 34.5467 340.697 34.72 341.364 34.72C342.311 34.72 343.051 34.44 343.584 33.88C344.117 33.32 344.384 32.5267 344.384 31.5V30.52H344.264C343.944 30.9867 343.504 31.3667 342.944 31.66C342.384 31.9533 341.737 32.1 341.004 32.1C340.137 32.1 339.337 31.88 338.604 31.44C337.884 31 337.304 30.3867 336.864 29.6C336.437 28.8 336.224 27.8667 336.224 26.8C336.224 25.72 336.437 24.7867 336.864 24C337.304 23.2 337.884 22.58 338.604 22.14C339.337 21.7 340.137 21.48 341.004 21.48C341.737 21.48 342.384 21.6267 342.944 21.92C343.504 22.2 343.944 22.5867 344.264 23.08H344.384V21.8H346.444V31.46C346.444 32.5667 346.224 33.5067 345.784 34.28C345.357 35.0533 344.764 35.64 344.004 36.04C343.244 36.44 342.364 36.64 341.364 36.64ZM341.384 30.14C341.917 30.14 342.411 30.0133 342.864 29.76C343.331 29.4933 343.697 29.1133 343.964 28.62C344.244 28.1133 344.384 27.5067 344.384 26.8C344.384 26.0533 344.244 25.4333 343.964 24.94C343.697 24.4467 343.331 24.0733 342.864 23.82C342.411 23.5667 341.917 23.44 341.384 23.44C340.851 23.44 340.351 23.5667 339.884 23.82C339.431 24.0733 339.064 24.4533 338.784 24.96C338.504 25.4533 338.364 26.0667 338.364 26.8C338.364 27.52 338.504 28.1333 338.784 28.64C339.064 29.1333 339.431 29.5067 339.884 29.76C340.351 30.0133 340.851 30.14 341.384 30.14ZM348.991 32V17.68H351.151V32H348.991ZM358.26 32.32C357.26 32.32 356.367 32.0867 355.58 31.62C354.793 31.1533 354.173 30.5133 353.72 29.7C353.28 28.8867 353.06 27.96 353.06 26.92C353.06 25.9467 353.273 25.0467 353.7 24.22C354.127 23.3933 354.72 22.7333 355.48 22.24C356.253 21.7333 357.14 21.48 358.14 21.48C359.193 21.48 360.087 21.7067 360.82 22.16C361.567 22.6133 362.133 23.2333 362.52 24.02C362.907 24.8067 363.1 25.6933 363.1 26.68C363.1 26.8267 363.093 26.96 363.08 27.08C363.08 27.2 363.073 27.2933 363.06 27.36H355.18C355.233 27.92 355.373 28.4067 355.6 28.82C355.893 29.34 356.28 29.7333 356.76 30C357.24 30.2667 357.76 30.4 358.32 30.4C359 30.4 359.567 30.2467 360.02 29.94C360.487 29.62 360.853 29.2267 361.12 28.76L362.9 29.62C362.46 30.42 361.86 31.0733 361.1 31.58C360.34 32.0733 359.393 32.32 358.26 32.32ZM355.3 25.74H360.96C360.947 25.4867 360.88 25.22 360.76 24.94C360.64 24.6467 360.467 24.38 360.24 24.14C360.013 23.9 359.727 23.7067 359.38 23.56C359.033 23.4 358.627 23.32 358.16 23.32C357.573 23.32 357.053 23.4733 356.6 23.78C356.147 24.0733 355.793 24.4867 355.54 25.02C355.433 25.2467 355.353 25.4867 355.3 25.74Z" fill="white"/>
</svg>
