<svg width="374" height="50" viewBox="0 0 374 50" fill="none" xmlns="http://www.w3.org/2000/svg">
<rect x="0.5" y="0.5" width="373" height="49" rx="24.5" fill="#1F1F1F"/>
<rect x="0.5" y="0.5" width="373" height="49" rx="24.5" stroke="#747775"/>
<path d="M51 22H21V17C21 14.2857 23.2018 12 25.8165 12H46.1835C48.7982 12 51 14.2857 51 17V22Z" fill="#34A853"/>
<path d="M51 26.0537H21V21.0537C21 18.3394 23.2018 16.0537 25.8165 16.0537H46.1835C48.7982 16.0537 51 18.3394 51 21.0537V26.0537Z" fill="#FBBC04"/>
<path d="M51 30.2468H21V25.2468C21 22.5325 23.2018 20.2468 25.8165 20.2468H46.1835C48.7982 20.2468 51 22.5325 51 25.2468V30.2468Z" fill="#EA4335"/>
<path d="M21 23.2752L40.0411 27.6789C42.2329 28.2294 44.6986 27.6789 46.4795 26.3028L51 23V33.3211C51 35.9358 48.8082 38 46.2055 38H25.7945C23.1918 38 21 35.9358 21 33.3211V23.2752Z" fill="#4285F4"/>
<path d="M71.4 32.32C70.3733 32.32 69.4067 32.1333 68.5 31.76C67.5933 31.3867 66.7933 30.8667 66.1 30.2C65.42 29.52 64.88 28.7267 64.48 27.82C64.0933 26.9 63.9 25.9067 63.9 24.84C63.9 23.7733 64.0933 22.7867 64.48 21.88C64.88 20.96 65.42 20.1667 66.1 19.5C66.7933 18.82 67.5933 18.2933 68.5 17.92C69.4067 17.5467 70.3733 17.36 71.4 17.36C72.4933 17.36 73.5 17.5533 74.42 17.94C75.3533 18.3267 76.1333 18.8667 76.76 19.56L75.24 21.06C74.9333 20.7133 74.58 20.42 74.18 20.18C73.7933 19.94 73.3667 19.76 72.9 19.64C72.4333 19.5067 71.9333 19.44 71.4 19.44C70.6933 19.44 70.02 19.5667 69.38 19.82C68.74 20.0733 68.1733 20.44 67.68 20.92C67.2 21.3867 66.82 21.9533 66.54 22.62C66.26 23.2733 66.12 24.0133 66.12 24.84C66.12 25.6667 66.26 26.4133 66.54 27.08C66.8333 27.7333 67.22 28.3 67.7 28.78C68.1933 29.2467 68.76 29.6067 69.4 29.86C70.04 30.1133 70.7133 30.24 71.42 30.24C72.0733 30.24 72.68 30.1467 73.24 29.96C73.8133 29.7733 74.3133 29.5067 74.74 29.16C75.1667 28.8133 75.5133 28.3933 75.78 27.9C76.0467 27.3933 76.2133 26.8267 76.28 26.2H71.38V24.26H78.34C78.3667 24.42 78.3933 24.6067 78.42 24.82C78.4467 25.02 78.46 25.2133 78.46 25.4V25.42C78.46 26.4467 78.28 27.3867 77.92 28.24C77.5733 29.0933 77.0867 29.8267 76.46 30.44C75.8333 31.04 75.0867 31.5067 74.22 31.84C73.3667 32.16 72.4267 32.32 71.4 32.32ZM84.8998 32.32C83.8465 32.32 82.9198 32.08 82.1198 31.6C81.3198 31.12 80.6932 30.4733 80.2398 29.66C79.7865 28.8333 79.5598 27.9133 79.5598 26.9C79.5598 25.8867 79.7865 24.9733 80.2398 24.16C80.6932 23.3333 81.3198 22.68 82.1198 22.2C82.9198 21.72 83.8465 21.48 84.8998 21.48C85.9398 21.48 86.8598 21.7267 87.6598 22.22C88.4598 22.7 89.0865 23.3467 89.5398 24.16C89.9932 24.9733 90.2198 25.8867 90.2198 26.9C90.2198 27.9133 89.9932 28.8333 89.5398 29.66C89.0865 30.4733 88.4598 31.12 87.6598 31.6C86.8598 32.08 85.9398 32.32 84.8998 32.32ZM84.8998 30.34C85.4598 30.34 85.9798 30.2067 86.4598 29.94C86.9398 29.66 87.3265 29.2667 87.6198 28.76C87.9265 28.24 88.0798 27.62 88.0798 26.9C88.0798 26.18 87.9265 25.5667 87.6198 25.06C87.3265 24.54 86.9398 24.1467 86.4598 23.88C85.9798 23.6 85.4598 23.46 84.8998 23.46C84.3398 23.46 83.8132 23.6 83.3198 23.88C82.8398 24.1467 82.4465 24.54 82.1398 25.06C81.8465 25.5667 81.6998 26.18 81.6998 26.9C81.6998 27.62 81.8465 28.24 82.1398 28.76C82.4465 29.2667 82.8465 29.66 83.3398 29.94C83.8332 30.2067 84.3532 30.34 84.8998 30.34ZM97.0092 32.32C95.9559 32.32 95.0292 32.08 94.2292 31.6C93.4292 31.12 92.8026 30.4733 92.3492 29.66C91.8959 28.8333 91.6692 27.9133 91.6692 26.9C91.6692 25.8867 91.8959 24.9733 92.3492 24.16C92.8026 23.3333 93.4292 22.68 94.2292 22.2C95.0292 21.72 95.9559 21.48 97.0092 21.48C98.0492 21.48 98.9692 21.7267 99.7692 22.22C100.569 22.7 101.196 23.3467 101.649 24.16C102.103 24.9733 102.329 25.8867 102.329 26.9C102.329 27.9133 102.103 28.8333 101.649 29.66C101.196 30.4733 100.569 31.12 99.7692 31.6C98.9692 32.08 98.0492 32.32 97.0092 32.32ZM97.0092 30.34C97.5692 30.34 98.0892 30.2067 98.5692 29.94C99.0492 29.66 99.4359 29.2667 99.7292 28.76C100.036 28.24 100.189 27.62 100.189 26.9C100.189 26.18 100.036 25.5667 99.7292 25.06C99.4359 24.54 99.0492 24.1467 98.5692 23.88C98.0892 23.6 97.5692 23.46 97.0092 23.46C96.4492 23.46 95.9226 23.6 95.4292 23.88C94.9492 24.1467 94.5559 24.54 94.2492 25.06C93.9559 25.5667 93.8092 26.18 93.8092 26.9C93.8092 27.62 93.9559 28.24 94.2492 28.76C94.5559 29.2667 94.9559 29.66 95.4492 29.94C95.9426 30.2067 96.4626 30.34 97.0092 30.34ZM108.919 36.64C108.025 36.64 107.252 36.4933 106.599 36.2C105.959 35.92 105.439 35.5533 105.039 35.1C104.639 34.66 104.352 34.2067 104.179 33.74L106.179 32.9C106.392 33.4333 106.732 33.8667 107.199 34.2C107.679 34.5467 108.252 34.72 108.919 34.72C109.865 34.72 110.605 34.44 111.139 33.88C111.672 33.32 111.939 32.5267 111.939 31.5V30.52H111.819C111.499 30.9867 111.059 31.3667 110.499 31.66C109.939 31.9533 109.292 32.1 108.559 32.1C107.692 32.1 106.892 31.88 106.159 31.44C105.439 31 104.859 30.3867 104.419 29.6C103.992 28.8 103.779 27.8667 103.779 26.8C103.779 25.72 103.992 24.7867 104.419 24C104.859 23.2 105.439 22.58 106.159 22.14C106.892 21.7 107.692 21.48 108.559 21.48C109.292 21.48 109.939 21.6267 110.499 21.92C111.059 22.2 111.499 22.5867 111.819 23.08H111.939V21.8H113.999V31.46C113.999 32.5667 113.779 33.5067 113.339 34.28C112.912 35.0533 112.319 35.64 111.559 36.04C110.799 36.44 109.919 36.64 108.919 36.64ZM108.939 30.14C109.472 30.14 109.965 30.0133 110.419 29.76C110.885 29.4933 111.252 29.1133 111.519 28.62C111.799 28.1133 111.939 27.5067 111.939 26.8C111.939 26.0533 111.799 25.4333 111.519 24.94C111.252 24.4467 110.885 24.0733 110.419 23.82C109.965 23.5667 109.472 23.44 108.939 23.44C108.405 23.44 107.905 23.5667 107.439 23.82C106.985 24.0733 106.619 24.4533 106.339 24.96C106.059 25.4533 105.919 26.0667 105.919 26.8C105.919 27.52 106.059 28.1333 106.339 28.64C106.619 29.1333 106.985 29.5067 107.439 29.76C107.905 30.0133 108.405 30.14 108.939 30.14ZM116.546 32V17.68H118.706V32H116.546ZM125.815 32.32C124.815 32.32 123.921 32.0867 123.135 31.62C122.348 31.1533 121.728 30.5133 121.275 29.7C120.835 28.8867 120.615 27.96 120.615 26.92C120.615 25.9467 120.828 25.0467 121.255 24.22C121.681 23.3933 122.275 22.7333 123.035 22.24C123.808 21.7333 124.695 21.48 125.695 21.48C126.748 21.48 127.641 21.7067 128.375 22.16C129.121 22.6133 129.688 23.2333 130.075 24.02C130.461 24.8067 130.655 25.6933 130.655 26.68C130.655 26.8267 130.648 26.96 130.635 27.08C130.635 27.2 130.628 27.2933 130.615 27.36H122.735C122.788 27.92 122.928 28.4067 123.155 28.82C123.448 29.34 123.835 29.7333 124.315 30C124.795 30.2667 125.315 30.4 125.875 30.4C126.555 30.4 127.121 30.2467 127.575 29.94C128.041 29.62 128.408 29.2267 128.675 28.76L130.455 29.62C130.015 30.42 129.415 31.0733 128.655 31.58C127.895 32.0733 126.948 32.32 125.815 32.32ZM122.855 25.74H128.515C128.501 25.4867 128.435 25.22 128.315 24.94C128.195 24.6467 128.021 24.38 127.795 24.14C127.568 23.9 127.281 23.7067 126.935 23.56C126.588 23.4 126.181 23.32 125.715 23.32C125.128 23.32 124.608 23.4733 124.155 23.78C123.701 24.0733 123.348 24.4867 123.095 25.02C122.988 25.2467 122.908 25.4867 122.855 25.74ZM139.446 32L135.606 17.68H138.046L140.326 26.98L140.566 28.22H140.686L140.986 26.98L143.866 17.68H146.066L148.826 26.98L149.126 28.2H149.246L149.486 26.98L151.766 17.68H154.186L150.406 32H148.086L145.346 22.5L145.026 21.16H144.906L144.566 22.5L141.706 32H139.446ZM158.202 32.32C157.469 32.32 156.816 32.1733 156.242 31.88C155.682 31.5867 155.236 31.1867 154.902 30.68C154.582 30.16 154.422 29.5667 154.422 28.9C154.422 28.1667 154.609 27.5467 154.982 27.04C155.369 26.5333 155.882 26.1467 156.522 25.88C157.162 25.6133 157.869 25.48 158.642 25.48C159.069 25.48 159.462 25.5133 159.822 25.58C160.196 25.6333 160.516 25.7 160.782 25.78C161.062 25.86 161.282 25.9467 161.442 26.04V25.5C161.442 24.8333 161.202 24.3 160.722 23.9C160.242 23.5 159.622 23.3 158.862 23.3C158.342 23.3 157.849 23.42 157.382 23.66C156.916 23.8867 156.542 24.2 156.262 24.6L154.782 23.46C155.076 23.0467 155.429 22.6933 155.842 22.4C156.269 22.1067 156.742 21.88 157.262 21.72C157.796 21.56 158.349 21.48 158.922 21.48C160.402 21.48 161.542 21.8467 162.342 22.58C163.142 23.3 163.542 24.3133 163.542 25.62V32H161.442V30.74H161.322C161.149 31.0067 160.909 31.26 160.602 31.5C160.309 31.74 159.956 31.9333 159.542 32.08C159.142 32.24 158.696 32.32 158.202 32.32ZM158.582 30.56C159.142 30.56 159.636 30.4267 160.062 30.16C160.502 29.8933 160.842 29.5467 161.082 29.12C161.322 28.68 161.442 28.2067 161.442 27.7C161.149 27.5267 160.789 27.3867 160.362 27.28C159.949 27.16 159.509 27.1 159.042 27.1C158.162 27.1 157.536 27.2733 157.162 27.62C156.789 27.9667 156.602 28.4 156.602 28.92C156.602 29.4 156.782 29.7933 157.142 30.1C157.502 30.4067 157.982 30.56 158.582 30.56ZM165.94 32V17.68H168.1V32H165.94ZM170.667 32V17.68H172.827V32H170.667ZM179.936 32.32C178.936 32.32 178.042 32.0867 177.256 31.62C176.469 31.1533 175.849 30.5133 175.396 29.7C174.956 28.8867 174.736 27.96 174.736 26.92C174.736 25.9467 174.949 25.0467 175.376 24.22C175.802 23.3933 176.396 22.7333 177.156 22.24C177.929 21.7333 178.816 21.48 179.816 21.48C180.869 21.48 181.762 21.7067 182.496 22.16C183.242 22.6133 183.809 23.2333 184.196 24.02C184.582 24.8067 184.776 25.6933 184.776 26.68C184.776 26.8267 184.769 26.96 184.756 27.08C184.756 27.2 184.749 27.2933 184.736 27.36H176.856C176.909 27.92 177.049 28.4067 177.276 28.82C177.569 29.34 177.956 29.7333 178.436 30C178.916 30.2667 179.436 30.4 179.996 30.4C180.676 30.4 181.242 30.2467 181.696 29.94C182.162 29.62 182.529 29.2267 182.796 28.76L184.576 29.62C184.136 30.42 183.536 31.0733 182.776 31.58C182.016 32.0733 181.069 32.32 179.936 32.32ZM176.976 25.74H182.636C182.622 25.4867 182.556 25.22 182.436 24.94C182.316 24.6467 182.142 24.38 181.916 24.14C181.689 23.9 181.402 23.7067 181.056 23.56C180.709 23.4 180.302 23.32 179.836 23.32C179.249 23.32 178.729 23.4733 178.276 23.78C177.822 24.0733 177.469 24.4867 177.216 25.02C177.109 25.2467 177.029 25.4867 176.976 25.74ZM185.787 21.8H187.567V18.92H189.727V21.8H192.227V23.68H189.727V28.58C189.727 29.0867 189.827 29.4733 190.027 29.74C190.24 30.0067 190.593 30.14 191.087 30.14C191.327 30.14 191.54 30.1067 191.727 30.04C191.913 29.96 192.1 29.8667 192.287 29.76V31.86C192.06 31.9533 191.82 32.0267 191.567 32.08C191.313 32.1333 191.013 32.16 190.667 32.16C189.72 32.16 188.967 31.8867 188.407 31.34C187.847 30.78 187.567 30.0133 187.567 29.04V23.68H185.787V21.8ZM194.759 32V20.24H196.799V30.22H209.079V32H194.759ZM210.975 32V20.36C210.975 19.0267 210.681 18.02 210.095 17.34C209.508 16.6467 208.668 16.3 207.575 16.3C206.721 16.3 206.041 16.48 205.535 16.84C205.028 17.2 204.775 17.6933 204.775 18.32C204.775 18.9067 204.981 19.3733 205.395 19.72C205.808 20.0667 206.355 20.24 207.035 20.24V21.88L206.555 21.84C205.795 21.8 205.128 21.62 204.555 21.3C203.981 20.98 203.535 20.5533 203.215 20.02C202.895 19.4867 202.735 18.88 202.735 18.2C202.735 17.4267 202.941 16.76 203.355 16.2C203.768 15.6267 204.341 15.18 205.075 14.86C205.808 14.54 206.668 14.38 207.655 14.38C209.335 14.38 210.648 14.8933 211.595 15.92C212.541 16.9333 213.015 18.3533 213.015 20.18V32H210.975ZM220.379 32.32C219.499 32.32 218.712 32.0933 218.019 31.64C217.325 31.1733 216.779 30.54 216.379 29.74C215.992 28.9267 215.799 28.0067 215.799 26.98C215.799 25.5533 216.052 24.3133 216.559 23.26C217.065 22.2067 217.785 21.3867 218.719 20.8C219.652 20.2133 220.745 19.92 221.999 19.92C223.612 19.92 224.892 20.4133 225.839 21.4C226.785 22.3867 227.312 23.7933 227.419 25.62L227.519 27.34C227.585 28.42 227.839 29.2133 228.279 29.72C228.732 30.2133 229.352 30.46 230.139 30.46C230.912 30.46 231.505 30.1733 231.919 29.6C232.345 29.0267 232.559 28.22 232.559 27.18C232.559 26.0733 232.339 25.0333 231.899 24.06C231.459 23.0867 230.785 22.1533 229.879 21.26L231.399 19.92C232.492 20.96 233.299 22.08 233.819 23.28C234.339 24.4667 234.599 25.7667 234.599 27.18C234.599 28.22 234.412 29.1267 234.039 29.9C233.679 30.6733 233.165 31.2733 232.499 31.7C231.832 32.1133 231.045 32.32 230.139 32.32C228.765 32.32 227.685 31.9067 226.899 31.08C226.112 30.24 225.665 29.0333 225.559 27.46L225.459 25.74C225.379 24.4333 225.045 23.4467 224.459 22.78C223.872 22.1 223.045 21.76 221.979 21.76C221.099 21.76 220.332 21.9733 219.679 22.4C219.039 22.8267 218.545 23.4267 218.199 24.2C217.865 24.9333 217.685 25.78 217.659 26.74L217.819 26.8C218.139 26.3333 218.545 25.98 219.039 25.74C219.532 25.5 220.079 25.38 220.679 25.38C221.319 25.38 221.879 25.5333 222.359 25.84C222.839 26.1333 223.212 26.54 223.479 27.06C223.759 27.5667 223.899 28.1533 223.899 28.82C223.899 29.5267 223.752 30.14 223.459 30.66C223.165 31.18 222.752 31.5867 222.219 31.88C221.685 32.1733 221.072 32.32 220.379 32.32ZM217.999 28.86C218.092 29.1 218.219 29.32 218.379 29.52C218.845 30.1467 219.465 30.46 220.239 30.46C220.732 30.46 221.125 30.3067 221.419 30C221.712 29.6933 221.859 29.3 221.859 28.82C221.859 28.34 221.712 27.9467 221.419 27.64C221.125 27.32 220.732 27.16 220.239 27.16C219.652 27.16 219.139 27.3733 218.699 27.8C218.392 28.08 218.159 28.4333 217.999 28.86ZM235.773 18.28C235.36 18.28 235.007 18.1333 234.713 17.84C234.42 17.5333 234.273 17.1733 234.273 16.76C234.273 16.3333 234.42 15.98 234.713 15.7C235.007 15.4067 235.36 15.26 235.773 15.26C236.2 15.26 236.56 15.4067 236.853 15.7C237.147 15.98 237.293 16.3333 237.293 16.76C237.293 17.1733 237.147 17.5333 236.853 17.84C236.56 18.1333 236.2 18.28 235.773 18.28Z" fill="white"/>
<path d="M242.72 32V20.24H244.74V30.22H254.32V20.24H256.36V32H242.72ZM259.771 32V20.24H270.531V22.02H267.691V32H265.631V22.02H261.811V32H259.771ZM282.192 38.62C280.605 38.62 279.165 38.3733 277.872 37.88C276.578 37.3867 275.465 36.68 274.532 35.76C273.612 34.84 272.905 33.74 272.412 32.46C271.918 31.1933 271.672 29.7733 271.672 28.2C271.672 26.6667 271.872 25.22 272.272 23.86C272.672 22.5 273.285 21.1867 274.112 19.92L275.892 20.94C275.132 22.1133 274.565 23.2933 274.192 24.48C273.832 25.6533 273.652 26.8933 273.652 28.2C273.652 29.9467 273.998 31.46 274.692 32.74C275.398 34.0333 276.385 35.0267 277.652 35.72C278.932 36.4267 280.445 36.78 282.192 36.78C283.325 36.78 284.372 36.6133 285.332 36.28C286.292 35.9467 287.118 35.48 287.812 34.88C288.518 34.2933 289.065 33.5933 289.452 32.78C289.838 31.9667 290.032 31.0667 290.032 30.08C290.032 29.1333 289.852 28.4067 289.492 27.9C289.132 27.38 288.612 27.12 287.932 27.12C287.305 27.12 286.798 27.3133 286.412 27.7C286.025 28.0867 285.832 28.6 285.832 29.24H285.812V32H283.752V22.02H279.952V32H277.892V20.24H289.632V22.02H285.812V26.38H285.992C286.258 26.0067 286.598 25.7267 287.012 25.54C287.425 25.3533 287.912 25.26 288.472 25.26C289.192 25.26 289.818 25.46 290.352 25.86C290.885 26.26 291.298 26.8267 291.592 27.56C291.885 28.28 292.032 29.1333 292.032 30.12C292.032 31.3467 291.785 32.48 291.292 33.52C290.812 34.56 290.132 35.46 289.252 36.22C288.372 36.98 287.332 37.5667 286.132 37.98C284.932 38.4067 283.618 38.62 282.192 38.62ZM300.012 32V30.22H302.812C303.758 30.22 304.492 30.0267 305.012 29.64C305.532 29.24 305.792 28.6933 305.792 28C305.792 27.4267 305.638 26.9667 305.332 26.62C305.025 26.2733 304.585 26.1 304.012 26.1C303.412 26.1 302.925 26.2867 302.552 26.66C302.192 27.02 302.012 27.5267 302.012 28.18V28.64H300.012V22.02H296.752V32H294.732V20.24H304.932V22.02H302.012V25.36H302.132C302.412 25.0133 302.758 24.7467 303.172 24.56C303.598 24.36 304.078 24.26 304.612 24.26C305.252 24.26 305.812 24.4 306.292 24.68C306.772 24.9467 307.138 25.3267 307.392 25.82C307.658 26.3 307.792 26.8533 307.792 27.48C307.792 28.08 307.672 28.6 307.432 29.04C307.205 29.4667 306.865 29.84 306.412 30.16L306.472 30.32L307.892 30.22H310.332V20.24H312.372V32H300.012ZM303.617 18.28C303.204 18.28 302.851 18.1333 302.557 17.84C302.264 17.5333 302.117 17.1733 302.117 16.76C302.117 16.3333 302.264 15.98 302.557 15.7C302.851 15.4067 303.204 15.26 303.617 15.26C304.044 15.26 304.404 15.4067 304.697 15.7C304.991 15.98 305.137 16.3333 305.137 16.76C305.137 17.1733 304.991 17.5333 304.697 17.84C304.404 18.1333 304.044 18.28 303.617 18.28ZM319.406 32.32C318.5 32.32 317.7 32.1667 317.006 31.86C316.326 31.54 315.8 31.1 315.426 30.54C315.053 29.9667 314.866 29.3067 314.866 28.56C314.866 27.8133 315.033 27.1667 315.366 26.62C315.713 26.0733 316.193 25.6467 316.806 25.34C316.953 25.26 317.1 25.1933 317.246 25.14V20.24H328.006V22.02H324.386V24.88H325.526C326.9 24.88 327.98 25.22 328.766 25.9C329.566 26.5667 329.966 27.4867 329.966 28.66C329.966 29.7667 329.626 30.6533 328.946 31.32C328.28 31.9867 327.4 32.32 326.306 32.32C325.546 32.32 324.906 32.22 324.386 32.02L324.986 30.24C325.16 30.3067 325.34 30.36 325.526 30.4C325.726 30.44 325.92 30.46 326.106 30.46C326.666 30.46 327.113 30.2933 327.446 29.96C327.78 29.6267 327.946 29.18 327.946 28.62C327.946 27.9667 327.746 27.4733 327.346 27.14C326.946 26.8067 326.366 26.64 325.606 26.64H324.386V27.64C324.386 28.5867 324.18 29.4133 323.766 30.12C323.353 30.8133 322.773 31.3533 322.026 31.74C321.28 32.1267 320.406 32.32 319.406 32.32ZM319.406 30.5C320.353 30.5 321.093 30.2467 321.626 29.74C322.173 29.22 322.446 28.52 322.446 27.64V26.64H319.226C318.48 26.64 317.893 26.8067 317.466 27.14C317.04 27.4733 316.826 27.9467 316.826 28.56C316.826 29.16 317.053 29.6333 317.506 29.98C317.96 30.3267 318.593 30.5 319.406 30.5ZM319.186 24.88H322.446V22H319.186V24.88ZM336.582 32.32C335.702 32.32 334.915 32.0733 334.222 31.58C333.529 31.0867 332.982 30.4067 332.582 29.54C332.195 28.6733 332.002 27.6867 332.002 26.58C332.002 25.2467 332.249 24.08 332.742 23.08C333.249 22.08 333.955 21.3067 334.862 20.76C335.782 20.2 336.855 19.92 338.082 19.92C339.015 19.92 339.829 20.1 340.522 20.46C341.215 20.82 341.809 21.3733 342.302 22.12L342.462 22.08V20.24H352.102V22.02H349.782V32H347.722V22.02H344.222V32H342.162V26.02C342.162 24.7133 341.802 23.6867 341.082 22.94C340.375 22.18 339.415 21.8 338.202 21.8C336.869 21.8 335.815 22.2267 335.042 23.08C334.282 23.9333 333.902 25.1 333.902 26.58C333.902 26.6467 333.902 26.7133 333.902 26.78L334.062 26.84C334.382 26.3733 334.782 26.0133 335.262 25.76C335.755 25.5067 336.295 25.38 336.882 25.38C337.522 25.38 338.082 25.5333 338.562 25.84C339.042 26.1333 339.415 26.54 339.682 27.06C339.962 27.5667 340.102 28.1533 340.102 28.82C340.102 29.5133 339.955 30.1267 339.662 30.66C339.369 31.18 338.955 31.5867 338.422 31.88C337.902 32.1733 337.289 32.32 336.582 32.32ZM334.262 28.82C334.355 29.0467 334.462 29.2533 334.582 29.44C335.035 30.12 335.655 30.46 336.442 30.46C336.935 30.46 337.329 30.3067 337.622 30C337.915 29.6933 338.062 29.3 338.062 28.82C338.062 28.34 337.909 27.9467 337.602 27.64C337.309 27.32 336.922 27.16 336.442 27.16C335.842 27.16 335.329 27.3867 334.902 27.84C334.635 28.1067 334.422 28.4333 334.262 28.82ZM343.188 18.28C342.774 18.28 342.421 18.1333 342.127 17.84C341.834 17.5333 341.687 17.1733 341.687 16.76C341.687 16.3333 341.834 15.98 342.127 15.7C342.421 15.4067 342.774 15.26 343.188 15.26C343.614 15.26 343.974 15.4067 344.268 15.7C344.561 15.98 344.708 16.3333 344.708 16.76C344.708 17.1733 344.561 17.5333 344.268 17.84C343.974 18.1333 343.614 18.28 343.188 18.28Z" fill="white"/>
</svg>
