<svg width="329" height="50" viewBox="0 0 329 50" fill="none" xmlns="http://www.w3.org/2000/svg">
<rect x="0.5" y="0.5" width="328" height="49" rx="24.5" fill="#1F1F1F"/>
<rect x="0.5" y="0.5" width="328" height="49" rx="24.5" stroke="#747775"/>
<path d="M51 22H21V17C21 14.2857 23.2018 12 25.8165 12H46.1835C48.7982 12 51 14.2857 51 17V22Z" fill="#34A853"/>
<path d="M51 26.0537H21V21.0537C21 18.3394 23.2018 16.0537 25.8165 16.0537H46.1835C48.7982 16.0537 51 18.3394 51 21.0537V26.0537Z" fill="#FBBC04"/>
<path d="M51 30.2468H21V25.2468C21 22.5325 23.2018 20.2468 25.8165 20.2468H46.1835C48.7982 20.2468 51 22.5325 51 25.2468V30.2468Z" fill="#EA4335"/>
<path d="M21 23.2752L40.0411 27.6789C42.2329 28.2294 44.6986 27.6789 46.4795 26.3028L51 23V33.3211C51 35.9358 48.8082 38 46.2055 38H25.7945C23.1918 38 21 35.9358 21 33.3211V23.2752Z" fill="#4285F4"/>
<path d="M71.4 32.32C70.3733 32.32 69.4067 32.1333 68.5 31.76C67.5933 31.3867 66.7933 30.8667 66.1 30.2C65.42 29.52 64.88 28.7267 64.48 27.82C64.0933 26.9 63.9 25.9067 63.9 24.84C63.9 23.7733 64.0933 22.7867 64.48 21.88C64.88 20.96 65.42 20.1667 66.1 19.5C66.7933 18.82 67.5933 18.2933 68.5 17.92C69.4067 17.5467 70.3733 17.36 71.4 17.36C72.4933 17.36 73.5 17.5533 74.42 17.94C75.3533 18.3267 76.1333 18.8667 76.76 19.56L75.24 21.06C74.9333 20.7133 74.58 20.42 74.18 20.18C73.7933 19.94 73.3667 19.76 72.9 19.64C72.4333 19.5067 71.9333 19.44 71.4 19.44C70.6933 19.44 70.02 19.5667 69.38 19.82C68.74 20.0733 68.1733 20.44 67.68 20.92C67.2 21.3867 66.82 21.9533 66.54 22.62C66.26 23.2733 66.12 24.0133 66.12 24.84C66.12 25.6667 66.26 26.4133 66.54 27.08C66.8333 27.7333 67.22 28.3 67.7 28.78C68.1933 29.2467 68.76 29.6067 69.4 29.86C70.04 30.1133 70.7133 30.24 71.42 30.24C72.0733 30.24 72.68 30.1467 73.24 29.96C73.8133 29.7733 74.3133 29.5067 74.74 29.16C75.1667 28.8133 75.5133 28.3933 75.78 27.9C76.0467 27.3933 76.2133 26.8267 76.28 26.2H71.38V24.26H78.34C78.3667 24.42 78.3933 24.6067 78.42 24.82C78.4467 25.02 78.46 25.2133 78.46 25.4V25.42C78.46 26.4467 78.28 27.3867 77.92 28.24C77.5733 29.0933 77.0867 29.8267 76.46 30.44C75.8333 31.04 75.0867 31.5067 74.22 31.84C73.3667 32.16 72.4267 32.32 71.4 32.32ZM84.8998 32.32C83.8465 32.32 82.9198 32.08 82.1198 31.6C81.3198 31.12 80.6932 30.4733 80.2398 29.66C79.7865 28.8333 79.5598 27.9133 79.5598 26.9C79.5598 25.8867 79.7865 24.9733 80.2398 24.16C80.6932 23.3333 81.3198 22.68 82.1198 22.2C82.9198 21.72 83.8465 21.48 84.8998 21.48C85.9398 21.48 86.8598 21.7267 87.6598 22.22C88.4598 22.7 89.0865 23.3467 89.5398 24.16C89.9932 24.9733 90.2198 25.8867 90.2198 26.9C90.2198 27.9133 89.9932 28.8333 89.5398 29.66C89.0865 30.4733 88.4598 31.12 87.6598 31.6C86.8598 32.08 85.9398 32.32 84.8998 32.32ZM84.8998 30.34C85.4598 30.34 85.9798 30.2067 86.4598 29.94C86.9398 29.66 87.3265 29.2667 87.6198 28.76C87.9265 28.24 88.0798 27.62 88.0798 26.9C88.0798 26.18 87.9265 25.5667 87.6198 25.06C87.3265 24.54 86.9398 24.1467 86.4598 23.88C85.9798 23.6 85.4598 23.46 84.8998 23.46C84.3398 23.46 83.8132 23.6 83.3198 23.88C82.8398 24.1467 82.4465 24.54 82.1398 25.06C81.8465 25.5667 81.6998 26.18 81.6998 26.9C81.6998 27.62 81.8465 28.24 82.1398 28.76C82.4465 29.2667 82.8465 29.66 83.3398 29.94C83.8332 30.2067 84.3532 30.34 84.8998 30.34ZM97.0092 32.32C95.9559 32.32 95.0292 32.08 94.2292 31.6C93.4292 31.12 92.8026 30.4733 92.3492 29.66C91.8959 28.8333 91.6692 27.9133 91.6692 26.9C91.6692 25.8867 91.8959 24.9733 92.3492 24.16C92.8026 23.3333 93.4292 22.68 94.2292 22.2C95.0292 21.72 95.9559 21.48 97.0092 21.48C98.0492 21.48 98.9692 21.7267 99.7692 22.22C100.569 22.7 101.196 23.3467 101.649 24.16C102.103 24.9733 102.329 25.8867 102.329 26.9C102.329 27.9133 102.103 28.8333 101.649 29.66C101.196 30.4733 100.569 31.12 99.7692 31.6C98.9692 32.08 98.0492 32.32 97.0092 32.32ZM97.0092 30.34C97.5692 30.34 98.0892 30.2067 98.5692 29.94C99.0492 29.66 99.4359 29.2667 99.7292 28.76C100.036 28.24 100.189 27.62 100.189 26.9C100.189 26.18 100.036 25.5667 99.7292 25.06C99.4359 24.54 99.0492 24.1467 98.5692 23.88C98.0892 23.6 97.5692 23.46 97.0092 23.46C96.4492 23.46 95.9226 23.6 95.4292 23.88C94.9492 24.1467 94.5559 24.54 94.2492 25.06C93.9559 25.5667 93.8092 26.18 93.8092 26.9C93.8092 27.62 93.9559 28.24 94.2492 28.76C94.5559 29.2667 94.9559 29.66 95.4492 29.94C95.9426 30.2067 96.4626 30.34 97.0092 30.34ZM108.919 36.64C108.025 36.64 107.252 36.4933 106.599 36.2C105.959 35.92 105.439 35.5533 105.039 35.1C104.639 34.66 104.352 34.2067 104.179 33.74L106.179 32.9C106.392 33.4333 106.732 33.8667 107.199 34.2C107.679 34.5467 108.252 34.72 108.919 34.72C109.865 34.72 110.605 34.44 111.139 33.88C111.672 33.32 111.939 32.5267 111.939 31.5V30.52H111.819C111.499 30.9867 111.059 31.3667 110.499 31.66C109.939 31.9533 109.292 32.1 108.559 32.1C107.692 32.1 106.892 31.88 106.159 31.44C105.439 31 104.859 30.3867 104.419 29.6C103.992 28.8 103.779 27.8667 103.779 26.8C103.779 25.72 103.992 24.7867 104.419 24C104.859 23.2 105.439 22.58 106.159 22.14C106.892 21.7 107.692 21.48 108.559 21.48C109.292 21.48 109.939 21.6267 110.499 21.92C111.059 22.2 111.499 22.5867 111.819 23.08H111.939V21.8H113.999V31.46C113.999 32.5667 113.779 33.5067 113.339 34.28C112.912 35.0533 112.319 35.64 111.559 36.04C110.799 36.44 109.919 36.64 108.919 36.64ZM108.939 30.14C109.472 30.14 109.965 30.0133 110.419 29.76C110.885 29.4933 111.252 29.1133 111.519 28.62C111.799 28.1133 111.939 27.5067 111.939 26.8C111.939 26.0533 111.799 25.4333 111.519 24.94C111.252 24.4467 110.885 24.0733 110.419 23.82C109.965 23.5667 109.472 23.44 108.939 23.44C108.405 23.44 107.905 23.5667 107.439 23.82C106.985 24.0733 106.619 24.4533 106.339 24.96C106.059 25.4533 105.919 26.0667 105.919 26.8C105.919 27.52 106.059 28.1333 106.339 28.64C106.619 29.1333 106.985 29.5067 107.439 29.76C107.905 30.0133 108.405 30.14 108.939 30.14ZM116.546 32V17.68H118.706V32H116.546ZM125.815 32.32C124.815 32.32 123.921 32.0867 123.135 31.62C122.348 31.1533 121.728 30.5133 121.275 29.7C120.835 28.8867 120.615 27.96 120.615 26.92C120.615 25.9467 120.828 25.0467 121.255 24.22C121.681 23.3933 122.275 22.7333 123.035 22.24C123.808 21.7333 124.695 21.48 125.695 21.48C126.748 21.48 127.641 21.7067 128.375 22.16C129.121 22.6133 129.688 23.2333 130.075 24.02C130.461 24.8067 130.655 25.6933 130.655 26.68C130.655 26.8267 130.648 26.96 130.635 27.08C130.635 27.2 130.628 27.2933 130.615 27.36H122.735C122.788 27.92 122.928 28.4067 123.155 28.82C123.448 29.34 123.835 29.7333 124.315 30C124.795 30.2667 125.315 30.4 125.875 30.4C126.555 30.4 127.121 30.2467 127.575 29.94C128.041 29.62 128.408 29.2267 128.675 28.76L130.455 29.62C130.015 30.42 129.415 31.0733 128.655 31.58C127.895 32.0733 126.948 32.32 125.815 32.32ZM122.855 25.74H128.515C128.501 25.4867 128.435 25.22 128.315 24.94C128.195 24.6467 128.021 24.38 127.795 24.14C127.568 23.9 127.281 23.7067 126.935 23.56C126.588 23.4 126.181 23.32 125.715 23.32C125.128 23.32 124.608 23.4733 124.155 23.78C123.701 24.0733 123.348 24.4867 123.095 25.02C122.988 25.2467 122.908 25.4867 122.855 25.74ZM139.446 32L135.606 17.68H138.046L140.326 26.98L140.566 28.22H140.686L140.986 26.98L143.866 17.68H146.066L148.826 26.98L149.126 28.2H149.246L149.486 26.98L151.766 17.68H154.186L150.406 32H148.086L145.346 22.5L145.026 21.16H144.906L144.566 22.5L141.706 32H139.446ZM158.202 32.32C157.469 32.32 156.816 32.1733 156.242 31.88C155.682 31.5867 155.236 31.1867 154.902 30.68C154.582 30.16 154.422 29.5667 154.422 28.9C154.422 28.1667 154.609 27.5467 154.982 27.04C155.369 26.5333 155.882 26.1467 156.522 25.88C157.162 25.6133 157.869 25.48 158.642 25.48C159.069 25.48 159.462 25.5133 159.822 25.58C160.196 25.6333 160.516 25.7 160.782 25.78C161.062 25.86 161.282 25.9467 161.442 26.04V25.5C161.442 24.8333 161.202 24.3 160.722 23.9C160.242 23.5 159.622 23.3 158.862 23.3C158.342 23.3 157.849 23.42 157.382 23.66C156.916 23.8867 156.542 24.2 156.262 24.6L154.782 23.46C155.076 23.0467 155.429 22.6933 155.842 22.4C156.269 22.1067 156.742 21.88 157.262 21.72C157.796 21.56 158.349 21.48 158.922 21.48C160.402 21.48 161.542 21.8467 162.342 22.58C163.142 23.3 163.542 24.3133 163.542 25.62V32H161.442V30.74H161.322C161.149 31.0067 160.909 31.26 160.602 31.5C160.309 31.74 159.956 31.9333 159.542 32.08C159.142 32.24 158.696 32.32 158.202 32.32ZM158.582 30.56C159.142 30.56 159.636 30.4267 160.062 30.16C160.502 29.8933 160.842 29.5467 161.082 29.12C161.322 28.68 161.442 28.2067 161.442 27.7C161.149 27.5267 160.789 27.3867 160.362 27.28C159.949 27.16 159.509 27.1 159.042 27.1C158.162 27.1 157.536 27.2733 157.162 27.62C156.789 27.9667 156.602 28.4 156.602 28.92C156.602 29.4 156.782 29.7933 157.142 30.1C157.502 30.4067 157.982 30.56 158.582 30.56ZM165.94 32V17.68H168.1V32H165.94ZM170.667 32V17.68H172.827V32H170.667ZM179.936 32.32C178.936 32.32 178.042 32.0867 177.256 31.62C176.469 31.1533 175.849 30.5133 175.396 29.7C174.956 28.8867 174.736 27.96 174.736 26.92C174.736 25.9467 174.949 25.0467 175.376 24.22C175.802 23.3933 176.396 22.7333 177.156 22.24C177.929 21.7333 178.816 21.48 179.816 21.48C180.869 21.48 181.762 21.7067 182.496 22.16C183.242 22.6133 183.809 23.2333 184.196 24.02C184.582 24.8067 184.776 25.6933 184.776 26.68C184.776 26.8267 184.769 26.96 184.756 27.08C184.756 27.2 184.749 27.2933 184.736 27.36H176.856C176.909 27.92 177.049 28.4067 177.276 28.82C177.569 29.34 177.956 29.7333 178.436 30C178.916 30.2667 179.436 30.4 179.996 30.4C180.676 30.4 181.242 30.2467 181.696 29.94C182.162 29.62 182.529 29.2267 182.796 28.76L184.576 29.62C184.136 30.42 183.536 31.0733 182.776 31.58C182.016 32.0733 181.069 32.32 179.936 32.32ZM176.976 25.74H182.636C182.622 25.4867 182.556 25.22 182.436 24.94C182.316 24.6467 182.142 24.38 181.916 24.14C181.689 23.9 181.402 23.7067 181.056 23.56C180.709 23.4 180.302 23.32 179.836 23.32C179.249 23.32 178.729 23.4733 178.276 23.78C177.822 24.0733 177.469 24.4867 177.216 25.02C177.109 25.2467 177.029 25.4867 176.976 25.74ZM185.787 21.8H187.567V18.92H189.727V21.8H192.227V23.68H189.727V28.58C189.727 29.0867 189.827 29.4733 190.027 29.74C190.24 30.0067 190.593 30.14 191.087 30.14C191.327 30.14 191.54 30.1067 191.727 30.04C191.913 29.96 192.1 29.8667 192.287 29.76V31.86C192.06 31.9533 191.82 32.0267 191.567 32.08C191.313 32.1333 191.013 32.16 190.667 32.16C189.72 32.16 188.967 31.8867 188.407 31.34C187.847 30.78 187.567 30.0133 187.567 29.04V23.68H185.787V21.8ZM202.299 32.32C200.659 32.32 199.219 32.0267 197.979 31.44C196.752 30.84 195.792 30.0133 195.099 28.96C194.406 27.8933 194.059 26.6667 194.059 25.28C194.059 24.1067 194.286 23.06 194.739 22.14C195.206 21.22 195.832 20.4933 196.619 19.96C197.419 19.4267 198.319 19.16 199.319 19.16C199.986 19.16 200.579 19.3067 201.099 19.6C201.619 19.8933 202.026 20.2933 202.319 20.8C202.612 21.2933 202.759 21.8667 202.759 22.52C202.759 23.1067 202.612 23.64 202.319 24.12C202.039 24.6 201.646 24.98 201.139 25.26C200.646 25.54 200.072 25.68 199.419 25.68C198.686 25.68 198.039 25.5 197.479 25.14C196.932 24.78 196.526 24.26 196.259 23.58L196.119 23.6C195.986 24.0667 195.919 24.58 195.919 25.14C195.919 26.18 196.179 27.0933 196.699 27.88C197.232 28.6667 197.979 29.28 198.939 29.72C199.899 30.16 201.019 30.38 202.299 30.38C203.512 30.38 204.566 30.1733 205.459 29.76C206.352 29.3333 207.046 28.7467 207.539 28C208.046 27.24 208.299 26.3733 208.299 25.4C208.299 24.4533 208.052 23.5933 207.559 22.82C207.079 22.0333 206.372 21.36 205.439 20.8L206.519 19.16C207.706 19.88 208.612 20.7733 209.239 21.84C209.879 22.9067 210.199 24.0933 210.199 25.4C210.199 26.7467 209.866 27.9467 209.199 29C208.532 30.04 207.606 30.8533 206.419 31.44C205.232 32.0267 203.859 32.32 202.299 32.32ZM197.239 21.7C197.346 22.3533 197.539 22.8667 197.819 23.24C198.179 23.72 198.679 23.96 199.319 23.96C199.812 23.96 200.199 23.8267 200.479 23.56C200.772 23.2933 200.919 22.94 200.919 22.5C200.919 22.02 200.766 21.64 200.459 21.36C200.152 21.08 199.739 20.94 199.219 20.94C198.579 20.94 198.012 21.12 197.519 21.48C197.426 21.5467 197.332 21.62 197.239 21.7ZM214.923 26.5C214.349 26.5 213.809 26.3667 213.303 26.1C212.796 25.82 212.383 25.4333 212.063 24.94C211.743 24.4467 211.583 23.8733 211.583 23.22C211.583 22.6067 211.723 22.0667 212.003 21.6C212.283 21.12 212.656 20.7467 213.123 20.48C213.603 20.2133 214.136 20.08 214.723 20.08C215.096 20.08 215.443 20.1267 215.763 20.22C216.096 20.3 216.403 20.42 216.683 20.58L216.803 20.46C216.736 19.9533 216.629 19.52 216.483 19.16C216.216 18.5067 215.843 18.0333 215.363 17.74C214.896 17.4333 214.356 17.28 213.743 17.28C213.023 17.28 212.403 17.4533 211.883 17.8C211.376 18.1467 211.023 18.56 210.823 19.04L208.923 19.1C208.803 18.5667 208.556 18.08 208.183 17.64C207.796 17.1867 207.296 16.8267 206.683 16.56C206.056 16.2933 205.323 16.16 204.483 16.16C203.643 16.16 202.983 16.2467 202.503 16.42C202.023 16.5933 201.683 16.8267 201.483 17.12C201.283 17.4 201.183 17.7 201.183 18.02C201.183 18.46 201.369 18.8667 201.743 19.24C202.116 19.6 202.763 19.8667 203.683 20.04L203.223 21.48C201.903 21.2667 200.909 20.8467 200.243 20.22C199.563 19.5933 199.223 18.8267 199.223 17.92C199.223 17.3067 199.409 16.7267 199.783 16.18C200.143 15.6333 200.703 15.1933 201.463 14.86C202.209 14.5267 203.163 14.36 204.323 14.36C205.243 14.36 206.076 14.4933 206.823 14.76C207.556 15.0267 208.189 15.38 208.723 15.82C209.256 16.26 209.669 16.7333 209.963 17.24H210.063C210.463 16.68 210.989 16.24 211.643 15.92C212.056 15.72 212.489 15.5867 212.943 15.52V15.36C212.649 15.12 212.436 14.8733 212.303 14.62C212.169 14.3533 212.103 14.0533 212.103 13.72C212.103 13.12 212.349 12.5933 212.843 12.14C213.349 11.6733 214.056 11.44 214.963 11.44C215.603 11.44 216.189 11.5667 216.723 11.82C217.269 12.0733 217.709 12.38 218.043 12.74L216.863 13.86C216.609 13.6067 216.329 13.4133 216.023 13.28C215.716 13.1333 215.389 13.06 215.043 13.06C214.643 13.06 214.343 13.1533 214.143 13.34C213.943 13.5267 213.843 13.7667 213.843 14.06C213.843 14.3267 213.916 14.5533 214.063 14.74C214.209 14.9133 214.409 15.0733 214.663 15.22C214.916 15.3533 215.196 15.5 215.503 15.66C215.809 15.8067 216.116 16 216.423 16.24C217.129 16.76 217.669 17.44 218.043 18.28C218.416 19.12 218.603 20.1267 218.603 21.3C218.603 22.54 218.443 23.54 218.123 24.3C217.803 25.06 217.363 25.62 216.803 25.98C216.256 26.3267 215.629 26.5 214.923 26.5ZM216.803 22.72C216.669 22.5333 216.509 22.3667 216.323 22.22C215.883 21.8733 215.389 21.7 214.843 21.7C214.403 21.7 214.043 21.8467 213.763 22.14C213.496 22.42 213.363 22.78 213.363 23.22C213.363 23.7 213.509 24.08 213.803 24.36C214.096 24.6267 214.476 24.76 214.943 24.76C215.289 24.76 215.609 24.6667 215.903 24.48C216.196 24.28 216.429 23.96 216.603 23.52C216.696 23.2933 216.763 23.0267 216.803 22.72Z" fill="white"/>
<path d="M223.98 32.32C223.127 32.32 222.38 32.1467 221.74 31.8C221.1 31.44 220.6 30.9667 220.24 30.38C219.893 29.7933 219.72 29.1467 219.72 28.44C219.72 27.8133 219.827 27.2733 220.04 26.82C220.253 26.3533 220.573 25.9533 221 25.62L220.96 25.52C220.76 25.5467 220.547 25.5667 220.32 25.58C220.107 25.58 219.887 25.58 219.66 25.58H217.98V23.78H225.5V25.58H224.9C223.847 25.58 223.04 25.8333 222.48 26.34C221.92 26.8333 221.64 27.4467 221.64 28.18C221.64 28.8067 221.847 29.3333 222.26 29.76C222.673 30.1733 223.273 30.38 224.06 30.38C224.86 30.38 225.5 30.1333 225.98 29.64C226.473 29.1467 226.76 28.4467 226.84 27.54H228.7C228.807 28.4733 229.107 29.18 229.6 29.66C230.093 30.1267 230.753 30.36 231.58 30.36C232.367 30.36 233.04 30.08 233.6 29.52C234.16 28.9467 234.44 28.1267 234.44 27.06C234.44 26.06 234.18 25.16 233.66 24.36C233.14 23.5467 232.393 22.8933 231.42 22.4C230.46 21.8933 229.307 21.6 227.96 21.52C227.933 21.52 227.907 21.52 227.88 21.52C226.853 21.52 225.98 21.1733 225.26 20.48C224.54 19.7733 224.053 18.8333 223.8 17.66L225.66 17.24C225.9 18.2133 226.207 18.88 226.58 19.24C226.967 19.6 227.4 19.78 227.88 19.78C228.267 19.78 228.613 19.6733 228.92 19.46C229.24 19.2333 229.56 18.8667 229.88 18.36L230.48 17.42C230.867 16.7933 231.253 16.28 231.64 15.88C232.027 15.48 232.447 15.1867 232.9 15C233.353 14.8 233.86 14.7 234.42 14.7H234.78V16.5H234.54C234.193 16.5 233.88 16.56 233.6 16.68C233.333 16.8 233.067 17 232.8 17.28C232.547 17.56 232.26 17.9467 231.94 18.44L231.44 19.24C231.227 19.5867 231.007 19.8867 230.78 20.14C231.153 20.2467 231.513 20.38 231.86 20.54C232.793 20.9667 233.6 21.5133 234.28 22.18C234.96 22.8333 235.48 23.58 235.84 24.42C236.2 25.2467 236.38 26.1267 236.38 27.06C236.38 27.1933 236.38 27.32 236.38 27.44C236.513 28.3867 236.853 29.1067 237.4 29.6C237.987 30.12 238.66 30.38 239.42 30.38C240.38 30.38 241.093 30.0533 241.56 29.4C242.027 28.7467 242.26 27.8933 242.26 26.84C242.26 25.84 242.08 24.9667 241.72 24.22C241.36 23.4733 240.853 22.8933 240.2 22.48C239.56 22.0533 238.82 21.84 237.98 21.84H237.56V20H249.24C250.093 20 250.82 20.1533 251.42 20.46C252.033 20.7667 252.507 21.1867 252.84 21.72C253.173 22.24 253.34 22.84 253.34 23.52C253.34 24.16 253.187 24.7267 252.88 25.22C252.587 25.7133 252.173 26.1067 251.64 26.4C251.12 26.68 250.52 26.82 249.84 26.82C249.187 26.82 248.6 26.6867 248.08 26.42C247.573 26.14 247.173 25.7733 246.88 25.32C246.587 24.8533 246.44 24.3333 246.44 23.76C246.44 23.4 246.5 23.0733 246.62 22.78C246.74 22.4733 246.92 22.1867 247.16 21.92L247.12 21.82C246.4 21.8333 245.707 21.84 245.04 21.84H243.46C243.247 21.84 243.013 21.84 242.76 21.84C242.52 21.84 242.293 21.8333 242.08 21.82L242.02 21.92C242.727 22.52 243.26 23.2533 243.62 24.12C243.98 24.9867 244.16 25.92 244.16 26.92C244.16 27.9867 243.98 28.9267 243.62 29.74C243.26 30.5533 242.74 31.1867 242.06 31.64C241.393 32.0933 240.593 32.32 239.66 32.32C238.74 32.32 237.947 32.12 237.28 31.72C236.627 31.3067 236.113 30.7467 235.74 30.04H235.68C235.293 30.7333 234.78 31.28 234.14 31.68C233.447 32.1067 232.653 32.32 231.76 32.32C230.813 32.32 230.007 32.1133 229.34 31.7C228.673 31.2733 228.167 30.6667 227.82 29.88H227.72C227.387 30.6533 226.9 31.2533 226.26 31.68C225.62 32.1067 224.86 32.32 223.98 32.32ZM249.26 21.78C249.033 21.9267 248.84 22.1 248.68 22.3C248.373 22.6467 248.22 23.0467 248.22 23.5C248.22 23.98 248.367 24.36 248.66 24.64C248.967 24.9067 249.36 25.04 249.84 25.04C250.347 25.04 250.74 24.9 251.02 24.62C251.313 24.3267 251.46 23.94 251.46 23.46C251.46 22.98 251.28 22.58 250.92 22.26C250.573 21.94 250.067 21.78 249.4 21.78C249.36 21.78 249.313 21.78 249.26 21.78ZM259.178 32.32C258.312 32.32 257.545 32.1133 256.878 31.7C256.212 31.2733 255.692 30.6867 255.318 29.94C254.945 29.18 254.758 28.3067 254.758 27.32C254.758 26.2267 254.978 25.2133 255.418 24.28C255.872 23.3467 256.512 22.54 257.338 21.86C258.165 21.1667 259.132 20.6333 260.238 20.26C260.345 20.22 260.452 20.18 260.558 20.14C259.905 19.4733 259.465 18.5933 259.238 17.5L261.178 17.08C261.325 17.72 261.505 18.2333 261.718 18.62C261.932 18.9933 262.172 19.2667 262.438 19.44C262.718 19.6 263.018 19.68 263.338 19.68C263.725 19.68 264.072 19.5733 264.378 19.36C264.698 19.1333 265.012 18.7667 265.318 18.26L265.958 17.26C266.345 16.6467 266.732 16.14 267.118 15.74C267.505 15.3267 267.925 15.0267 268.378 14.84C268.832 14.64 269.338 14.54 269.898 14.54H270.258V16.34H270.018C269.672 16.34 269.358 16.4 269.078 16.52C268.798 16.64 268.525 16.84 268.258 17.12C268.005 17.4 267.725 17.7933 267.418 18.3L266.878 19.14C266.705 19.42 266.525 19.6733 266.338 19.9C266.712 19.98 267.085 20.0733 267.458 20.18C268.578 20.5 269.705 21.0133 270.838 21.72L269.838 23.26C268.878 22.66 267.898 22.22 266.898 21.94C265.912 21.6467 264.872 21.5 263.778 21.5C262.405 21.5 261.178 21.7467 260.098 22.24C259.032 22.7333 258.192 23.4133 257.578 24.28C256.978 25.1333 256.678 26.1133 256.678 27.22C256.678 28.1533 256.925 28.9133 257.418 29.5C257.912 30.0867 258.545 30.38 259.318 30.38C260.118 30.38 260.752 30.1067 261.218 29.56C261.685 29.0133 261.952 28.2333 262.018 27.22H263.818C264.058 28.2467 264.558 29.0667 265.318 29.68C265.692 29.9733 266.105 30.1933 266.558 30.34L266.638 30.24C266.438 29.9867 266.278 29.7 266.158 29.38C266.052 29.06 265.998 28.72 265.998 28.36C265.998 27.8667 266.118 27.4133 266.358 27C266.612 26.5733 266.965 26.2333 267.418 25.98C267.872 25.7267 268.398 25.6 268.998 25.6C269.598 25.6 270.138 25.74 270.618 26.02C271.112 26.2867 271.498 26.66 271.778 27.14C272.072 27.62 272.218 28.1667 272.218 28.78C272.218 29.4733 272.032 30.0867 271.658 30.62C271.298 31.1533 270.805 31.5733 270.178 31.88C269.565 32.1733 268.865 32.32 268.078 32.32C267.012 32.32 266.045 32.0733 265.178 31.58C264.312 31.0733 263.625 30.3667 263.118 29.46H263.018C262.685 30.38 262.192 31.0867 261.538 31.58C260.885 32.0733 260.098 32.32 259.178 32.32ZM268.458 30.58C269.018 30.5267 269.478 30.36 269.838 30.08C270.252 29.7333 270.458 29.28 270.458 28.72C270.458 28.3067 270.332 27.9667 270.078 27.7C269.838 27.4333 269.512 27.3 269.098 27.3C268.658 27.3 268.305 27.44 268.038 27.72C267.772 27.9867 267.638 28.3333 267.638 28.76C267.638 29.1733 267.765 29.5933 268.018 30.02C268.138 30.22 268.285 30.4067 268.458 30.58ZM280.49 32.32C279.61 32.32 278.796 32.1667 278.05 31.86C277.303 31.54 276.643 31.1067 276.07 30.56C275.51 30 275.07 29.36 274.75 28.64C274.443 27.9067 274.29 27.1267 274.29 26.3C274.29 25.46 274.443 24.68 274.75 23.96C275.07 23.24 275.51 22.6067 276.07 22.06C276.643 21.5 277.303 21.0667 278.05 20.76C278.796 20.44 279.61 20.28 280.49 20.28C281.37 20.28 282.183 20.44 282.93 20.76C283.69 21.0667 284.35 21.5 284.91 22.06C285.483 22.6067 285.923 23.24 286.23 23.96C286.55 24.68 286.71 25.46 286.71 26.3C286.71 27.1267 286.55 27.9067 286.23 28.64C285.923 29.36 285.483 30 284.91 30.56C284.35 31.1067 283.69 31.54 282.93 31.86C282.183 32.1667 281.37 32.32 280.49 32.32ZM280.49 30.3C281.303 30.3 282.03 30.12 282.67 29.76C283.31 29.4 283.816 28.9133 284.19 28.3C284.563 27.6867 284.75 26.9867 284.75 26.2C284.75 25.4267 284.563 24.7333 284.19 24.12C283.816 23.5067 283.31 23.02 282.67 22.66C282.03 22.3 281.303 22.12 280.49 22.12C279.69 22.12 278.97 22.3 278.33 22.66C277.69 23.02 277.183 23.5067 276.81 24.12C276.436 24.7333 276.25 25.4267 276.25 26.2C276.25 26.9733 276.436 27.6733 276.81 28.3C277.183 28.9133 277.69 29.4 278.33 29.76C278.97 30.12 279.69 30.3 280.49 30.3ZM293.163 32.32C292.296 32.32 291.529 32.1133 290.863 31.7C290.196 31.2733 289.676 30.6867 289.303 29.94C288.929 29.18 288.743 28.3067 288.743 27.32C288.743 26.2267 288.963 25.2133 289.403 24.28C289.856 23.3467 290.496 22.54 291.323 21.86C292.136 21.18 293.089 20.6467 294.183 20.26C293.783 19.98 293.423 19.6533 293.103 19.28L294.383 18.04C294.849 18.5867 295.349 18.9933 295.883 19.26C296.416 19.5267 297.016 19.66 297.683 19.66C298.309 19.66 298.829 19.54 299.243 19.3C299.669 19.0467 299.989 18.7067 300.203 18.28C300.429 17.8533 300.543 17.38 300.543 16.86C300.543 16.6333 300.523 16.42 300.483 16.22H300.343C300.116 16.82 299.763 17.2933 299.283 17.64C298.803 17.9867 298.223 18.16 297.543 18.16C296.943 18.16 296.403 18.04 295.923 17.8C295.456 17.56 295.089 17.2333 294.823 16.82C294.556 16.3933 294.423 15.92 294.423 15.4C294.423 14.8267 294.563 14.32 294.843 13.88C295.136 13.4267 295.536 13.0733 296.043 12.82C296.563 12.5533 297.149 12.42 297.803 12.42C298.669 12.42 299.436 12.62 300.103 13.02C300.769 13.42 301.296 13.9667 301.683 14.66C302.069 15.3533 302.263 16.14 302.263 17.02C302.263 17.8733 302.069 18.6333 301.683 19.3C301.509 19.58 301.309 19.84 301.083 20.08C301.203 20.1067 301.323 20.14 301.443 20.18C302.563 20.5 303.689 21.0133 304.823 21.72L303.823 23.26C302.863 22.66 301.883 22.22 300.883 21.94C299.896 21.6467 298.856 21.5 297.763 21.5C296.389 21.5 295.163 21.7467 294.083 22.24C293.016 22.7333 292.176 23.4133 291.563 24.28C290.963 25.1333 290.663 26.1133 290.663 27.22C290.663 28.1533 290.909 28.9133 291.403 29.5C291.896 30.0867 292.529 30.38 293.303 30.38C294.103 30.38 294.736 30.1067 295.203 29.56C295.669 29.0133 295.936 28.2333 296.003 27.22H297.803C298.043 28.2467 298.543 29.0667 299.303 29.68C299.676 29.9733 300.089 30.1933 300.543 30.34L300.623 30.24C300.423 29.9867 300.263 29.7 300.143 29.38C300.036 29.06 299.983 28.72 299.983 28.36C299.983 27.8667 300.103 27.4133 300.343 27C300.596 26.5733 300.949 26.2333 301.403 25.98C301.856 25.7267 302.383 25.6 302.983 25.6C303.583 25.6 304.123 25.74 304.603 26.02C305.096 26.2867 305.483 26.66 305.763 27.14C306.056 27.62 306.203 28.1667 306.203 28.78C306.203 29.4733 306.016 30.0867 305.643 30.62C305.283 31.1533 304.789 31.5733 304.163 31.88C303.549 32.1733 302.849 32.32 302.063 32.32C300.996 32.32 300.029 32.0733 299.163 31.58C298.296 31.0733 297.609 30.3667 297.103 29.46H297.003C296.669 30.38 296.176 31.0867 295.523 31.58C294.869 32.0733 294.083 32.32 293.163 32.32ZM302.443 30.58C303.003 30.5267 303.463 30.36 303.823 30.08C304.236 29.7333 304.443 29.28 304.443 28.72C304.443 28.3067 304.316 27.9667 304.063 27.7C303.823 27.4333 303.496 27.3 303.083 27.3C302.643 27.3 302.289 27.44 302.023 27.72C301.756 27.9867 301.623 28.3333 301.623 28.76C301.623 29.1733 301.749 29.5933 302.003 30.02C302.123 30.22 302.269 30.4067 302.443 30.58ZM299.403 14.6C299.336 14.5467 299.269 14.5 299.203 14.46C298.789 14.22 298.323 14.1 297.803 14.1C297.309 14.1 296.923 14.2267 296.643 14.48C296.376 14.7333 296.243 15.0467 296.243 15.42C296.243 15.7533 296.369 16.0267 296.623 16.24C296.876 16.44 297.203 16.54 297.603 16.54C298.163 16.54 298.609 16.32 298.943 15.88C299.183 15.5333 299.336 15.1067 299.403 14.6Z" fill="white"/>
</svg>
