<svg width="252" height="50" viewBox="0 0 252 50" fill="none" xmlns="http://www.w3.org/2000/svg">
<rect x="0.5" y="0.5" width="251" height="49" rx="24.5" fill="#1F1F1F"/>
<rect x="0.5" y="0.5" width="251" height="49" rx="24.5" stroke="#747775"/>
<path d="M51 22H21V17C21 14.2857 23.2018 12 25.8165 12H46.1835C48.7982 12 51 14.2857 51 17V22Z" fill="#34A853"/>
<path d="M51 26.0537H21V21.0537C21 18.3394 23.2018 16.0537 25.8165 16.0537H46.1835C48.7982 16.0537 51 18.3394 51 21.0537V26.0537Z" fill="#FBBC04"/>
<path d="M51 30.2468H21V25.2468C21 22.5325 23.2018 20.2468 25.8165 20.2468H46.1835C48.7982 20.2468 51 22.5325 51 25.2468V30.2468Z" fill="#EA4335"/>
<path d="M21 23.2752L40.0411 27.6789C42.2329 28.2294 44.6986 27.6789 46.4795 26.3028L51 23V33.3211C51 35.9358 48.8082 38 46.2055 38H25.7945C23.1918 38 21 35.9358 21 33.3211V23.2752Z" fill="#4285F4"/>
<path d="M64.26 32V25.62C64.26 24.6467 64.46 23.8067 64.86 23.1C65.26 22.3933 65.8267 21.8467 66.56 21.46C67.2933 21.0733 68.16 20.88 69.16 20.88C70.16 20.88 71.0267 21.0733 71.76 21.46C72.5067 21.8467 73.08 22.4 73.48 23.12C73.88 23.8267 74.08 24.6667 74.08 25.64V32H72V25.54C72 24.6333 71.7467 23.9267 71.24 23.42C70.7467 22.9133 70.0533 22.66 69.16 22.66C68.2533 22.66 67.5467 22.9133 67.04 23.42C66.5333 23.9267 66.28 24.6333 66.28 25.54V29.98L68.26 28.28C68.0067 28.2 67.7867 28.0667 67.6 27.88C67.2667 27.56 67.1 27.14 67.1 26.62C67.1 26.0733 67.2867 25.6267 67.66 25.28C68.0467 24.92 68.5333 24.74 69.12 24.74C69.7067 24.74 70.18 24.92 70.54 25.28C70.9 25.6267 71.08 26.0867 71.08 26.66C71.08 27.0733 70.9533 27.48 70.7 27.88C70.46 28.2667 70.04 28.7267 69.44 29.26L66.26 32H64.26ZM69.08 27.44C69.3067 27.44 69.4933 27.3667 69.64 27.22C69.8 27.06 69.88 26.8667 69.88 26.64C69.88 26.4 69.8067 26.2067 69.66 26.06C69.5133 25.9133 69.32 25.84 69.08 25.84C68.84 25.84 68.6467 25.9133 68.5 26.06C68.3533 26.2067 68.28 26.4 68.28 26.64C68.28 26.8667 68.3533 27.06 68.5 27.22C68.6467 27.3667 68.84 27.44 69.08 27.44ZM69.1014 37.5V36.3C69.0214 36.3 68.9414 36.3 68.8614 36.3C68.3681 36.3 67.9614 36.14 67.6414 35.82C67.3081 35.5133 67.1414 35.12 67.1414 34.64C67.1414 34.1333 67.3214 33.7133 67.6814 33.38C68.0281 33.06 68.4681 32.9 69.0014 32.9C69.5747 32.9 70.0347 33.06 70.3814 33.38C70.7281 33.7133 70.9014 34.14 70.9014 34.66V36.08H72.3214V33.1H74.0814V37.5H69.1014ZM69.0014 35.34C69.2014 35.34 69.3681 35.2733 69.5014 35.14C69.6347 35.02 69.7014 34.8533 69.7014 34.64C69.7014 34.44 69.6347 34.2733 69.5014 34.14C69.3547 34.02 69.1881 33.96 69.0014 33.96C68.8014 33.96 68.6347 34.02 68.5014 34.14C68.3681 34.2733 68.3014 34.44 68.3014 34.64C68.3014 34.8533 68.3681 35.02 68.5014 35.14C68.6214 35.2733 68.7881 35.34 69.0014 35.34ZM80.0038 32.24C79.3238 32.24 78.7771 32.0333 78.3638 31.62C77.9504 31.2067 77.7438 30.66 77.7438 29.98V22.08C77.7438 21.5733 77.8238 21.12 77.9837 20.72C78.1571 20.3067 78.3638 19.9267 78.6038 19.58C78.8438 19.2333 79.0838 18.9 79.3238 18.58C79.5771 18.2467 79.7838 17.9133 79.9438 17.58C80.1171 17.2467 80.2038 16.8933 80.2038 16.52C80.2038 16 80.0371 15.5667 79.7038 15.22C79.3704 14.8733 78.9238 14.7 78.3638 14.7C78.1638 14.7 77.9638 14.72 77.7638 14.76C77.5771 14.8 77.4304 14.8533 77.3238 14.92V14.96C77.8704 15.0267 78.2904 15.22 78.5838 15.54C78.8771 15.8467 79.0238 16.24 79.0238 16.72C79.0238 17.3067 78.8104 17.8 78.3838 18.2C77.9704 18.6 77.4371 18.8 76.7838 18.8C76.1571 18.8 75.6238 18.6 75.1837 18.2C74.7437 17.7867 74.5237 17.2067 74.5237 16.46C74.5237 15.8333 74.6837 15.28 75.0037 14.8C75.3104 14.3067 75.7504 13.92 76.3238 13.64C76.8971 13.3467 77.5638 13.2 78.3238 13.2C79.1371 13.2 79.8171 13.3533 80.3638 13.66C80.9104 13.9667 81.3238 14.3733 81.6038 14.88C81.8838 15.3733 82.0238 15.92 82.0238 16.52C82.0238 17.1067 81.9104 17.6333 81.6838 18.1C81.4704 18.5533 81.2171 18.9867 80.9238 19.4C80.6438 19.8133 80.3904 20.24 80.1638 20.68C79.9504 21.1067 79.8438 21.5933 79.8438 22.14V28.08C79.9638 28.0533 80.0838 28.04 80.2038 28.04C80.7904 28.04 81.2771 28.24 81.6638 28.64C82.0504 29.0267 82.2438 29.52 82.2438 30.12C82.2438 30.7467 82.0304 31.26 81.6038 31.66C81.1904 32.0467 80.6571 32.24 80.0038 32.24ZM76.8238 17.6C77.0904 17.6 77.3104 17.5133 77.4838 17.34C77.6571 17.1533 77.7438 16.9333 77.7438 16.68C77.7438 16.4133 77.6571 16.1933 77.4838 16.02C77.3104 15.8467 77.0904 15.76 76.8238 15.76C76.5704 15.76 76.3504 15.8467 76.1638 16.02C75.9904 16.1933 75.9038 16.4133 75.9038 16.68C75.9038 16.9333 75.9904 17.1533 76.1638 17.34C76.3504 17.5133 76.5704 17.6 76.8238 17.6ZM80.0238 30.94C80.2771 30.94 80.4771 30.8667 80.6237 30.72C80.7838 30.56 80.8638 30.36 80.8638 30.12C80.8638 29.8667 80.7838 29.6667 80.6237 29.52C80.4771 29.36 80.2771 29.28 80.0238 29.28C79.7971 29.28 79.6038 29.36 79.4438 29.52C79.2838 29.6667 79.2038 29.8667 79.2038 30.12C79.2038 30.36 79.2838 30.56 79.4438 30.72C79.6038 30.8667 79.7971 30.94 80.0238 30.94ZM84.8973 32V25.16C84.804 25.1733 84.7107 25.18 84.6173 25.18C84.004 25.18 83.4973 24.9867 83.0973 24.6C82.6973 24.2 82.4973 23.7 82.4973 23.1C82.4973 22.4867 82.7107 21.98 83.1373 21.58C83.564 21.18 84.104 20.98 84.7573 20.98C85.4373 20.98 85.9773 21.1867 86.3773 21.6C86.7773 22.0133 86.9773 22.56 86.9773 23.24V29.96L90.2173 27.74C90.5107 27.5267 90.704 27.34 90.7973 27.18C90.904 27.0067 90.9573 26.7867 90.9573 26.52V21.2H93.0573V26.74C93.0573 27.14 92.9773 27.4733 92.8173 27.74C92.7773 27.8067 92.7307 27.8733 92.6773 27.94C92.9707 28.0467 93.224 28.2067 93.4373 28.42C93.8773 28.8333 94.0973 29.36 94.0973 30C94.0973 30.64 93.8773 31.1733 93.4373 31.6C93.0107 32.0133 92.464 32.22 91.7973 32.22C91.1173 32.22 90.5573 32.0067 90.1173 31.58C89.7307 31.22 89.5107 30.7733 89.4573 30.24L86.8973 32H84.8973ZM91.7773 30.88C92.044 30.88 92.2573 30.8 92.4173 30.64C92.5907 30.4667 92.6773 30.2533 92.6773 30C92.6773 29.7333 92.5907 29.5133 92.4173 29.34C92.244 29.1667 92.0307 29.08 91.7773 29.08C91.524 29.08 91.3107 29.1667 91.1373 29.34C90.9773 29.5 90.8973 29.7133 90.8973 29.98C90.8973 30.2467 90.9773 30.4667 91.1373 30.64C91.3107 30.8 91.524 30.88 91.7773 30.88ZM84.7173 23.94C84.9707 23.94 85.1707 23.8667 85.3173 23.72C85.464 23.56 85.5373 23.36 85.5373 23.12C85.5373 22.8667 85.464 22.6667 85.3173 22.52C85.1707 22.36 84.9707 22.28 84.7173 22.28C84.4773 22.28 84.2773 22.36 84.1173 22.52C83.9707 22.6667 83.8973 22.8667 83.8973 23.12C83.8973 23.36 83.9707 23.56 84.1173 23.72C84.2773 23.8667 84.4773 23.94 84.7173 23.94Z" fill="white"/>
<path d="M108.4 32.32C107.373 32.32 106.407 32.1333 105.5 31.76C104.593 31.3867 103.793 30.8667 103.1 30.2C102.42 29.52 101.88 28.7267 101.48 27.82C101.093 26.9 100.9 25.9067 100.9 24.84C100.9 23.7733 101.093 22.7867 101.48 21.88C101.88 20.96 102.42 20.1667 103.1 19.5C103.793 18.82 104.593 18.2933 105.5 17.92C106.407 17.5467 107.373 17.36 108.4 17.36C109.493 17.36 110.5 17.5533 111.42 17.94C112.353 18.3267 113.133 18.8667 113.76 19.56L112.24 21.06C111.933 20.7133 111.58 20.42 111.18 20.18C110.793 19.94 110.367 19.76 109.9 19.64C109.433 19.5067 108.933 19.44 108.4 19.44C107.693 19.44 107.02 19.5667 106.38 19.82C105.74 20.0733 105.173 20.44 104.68 20.92C104.2 21.3867 103.82 21.9533 103.54 22.62C103.26 23.2733 103.12 24.0133 103.12 24.84C103.12 25.6667 103.26 26.4133 103.54 27.08C103.833 27.7333 104.22 28.3 104.7 28.78C105.193 29.2467 105.76 29.6067 106.4 29.86C107.04 30.1133 107.713 30.24 108.42 30.24C109.073 30.24 109.68 30.1467 110.24 29.96C110.813 29.7733 111.313 29.5067 111.74 29.16C112.167 28.8133 112.513 28.3933 112.78 27.9C113.047 27.3933 113.213 26.8267 113.28 26.2H108.38V24.26H115.34C115.367 24.42 115.393 24.6067 115.42 24.82C115.447 25.02 115.46 25.2133 115.46 25.4V25.42C115.46 26.4467 115.28 27.3867 114.92 28.24C114.573 29.0933 114.087 29.8267 113.46 30.44C112.833 31.04 112.087 31.5067 111.22 31.84C110.367 32.16 109.427 32.32 108.4 32.32ZM121.9 32.32C120.847 32.32 119.92 32.08 119.12 31.6C118.32 31.12 117.693 30.4733 117.24 29.66C116.787 28.8333 116.56 27.9133 116.56 26.9C116.56 25.8867 116.787 24.9733 117.24 24.16C117.693 23.3333 118.32 22.68 119.12 22.2C119.92 21.72 120.847 21.48 121.9 21.48C122.94 21.48 123.86 21.7267 124.66 22.22C125.46 22.7 126.087 23.3467 126.54 24.16C126.993 24.9733 127.22 25.8867 127.22 26.9C127.22 27.9133 126.993 28.8333 126.54 29.66C126.087 30.4733 125.46 31.12 124.66 31.6C123.86 32.08 122.94 32.32 121.9 32.32ZM121.9 30.34C122.46 30.34 122.98 30.2067 123.46 29.94C123.94 29.66 124.327 29.2667 124.62 28.76C124.927 28.24 125.08 27.62 125.08 26.9C125.08 26.18 124.927 25.5667 124.62 25.06C124.327 24.54 123.94 24.1467 123.46 23.88C122.98 23.6 122.46 23.46 121.9 23.46C121.34 23.46 120.813 23.6 120.32 23.88C119.84 24.1467 119.447 24.54 119.14 25.06C118.847 25.5667 118.7 26.18 118.7 26.9C118.7 27.62 118.847 28.24 119.14 28.76C119.447 29.2667 119.847 29.66 120.34 29.94C120.833 30.2067 121.353 30.34 121.9 30.34ZM134.009 32.32C132.956 32.32 132.029 32.08 131.229 31.6C130.429 31.12 129.803 30.4733 129.349 29.66C128.896 28.8333 128.669 27.9133 128.669 26.9C128.669 25.8867 128.896 24.9733 129.349 24.16C129.803 23.3333 130.429 22.68 131.229 22.2C132.029 21.72 132.956 21.48 134.009 21.48C135.049 21.48 135.969 21.7267 136.769 22.22C137.569 22.7 138.196 23.3467 138.649 24.16C139.103 24.9733 139.329 25.8867 139.329 26.9C139.329 27.9133 139.103 28.8333 138.649 29.66C138.196 30.4733 137.569 31.12 136.769 31.6C135.969 32.08 135.049 32.32 134.009 32.32ZM134.009 30.34C134.569 30.34 135.089 30.2067 135.569 29.94C136.049 29.66 136.436 29.2667 136.729 28.76C137.036 28.24 137.189 27.62 137.189 26.9C137.189 26.18 137.036 25.5667 136.729 25.06C136.436 24.54 136.049 24.1467 135.569 23.88C135.089 23.6 134.569 23.46 134.009 23.46C133.449 23.46 132.923 23.6 132.429 23.88C131.949 24.1467 131.556 24.54 131.249 25.06C130.956 25.5667 130.809 26.18 130.809 26.9C130.809 27.62 130.956 28.24 131.249 28.76C131.556 29.2667 131.956 29.66 132.449 29.94C132.943 30.2067 133.463 30.34 134.009 30.34ZM145.919 36.64C145.025 36.64 144.252 36.4933 143.599 36.2C142.959 35.92 142.439 35.5533 142.039 35.1C141.639 34.66 141.352 34.2067 141.179 33.74L143.179 32.9C143.392 33.4333 143.732 33.8667 144.199 34.2C144.679 34.5467 145.252 34.72 145.919 34.72C146.865 34.72 147.605 34.44 148.139 33.88C148.672 33.32 148.939 32.5267 148.939 31.5V30.52H148.819C148.499 30.9867 148.059 31.3667 147.499 31.66C146.939 31.9533 146.292 32.1 145.559 32.1C144.692 32.1 143.892 31.88 143.159 31.44C142.439 31 141.859 30.3867 141.419 29.6C140.992 28.8 140.779 27.8667 140.779 26.8C140.779 25.72 140.992 24.7867 141.419 24C141.859 23.2 142.439 22.58 143.159 22.14C143.892 21.7 144.692 21.48 145.559 21.48C146.292 21.48 146.939 21.6267 147.499 21.92C148.059 22.2 148.499 22.5867 148.819 23.08H148.939V21.8H150.999V31.46C150.999 32.5667 150.779 33.5067 150.339 34.28C149.912 35.0533 149.319 35.64 148.559 36.04C147.799 36.44 146.919 36.64 145.919 36.64ZM145.939 30.14C146.472 30.14 146.965 30.0133 147.419 29.76C147.885 29.4933 148.252 29.1133 148.519 28.62C148.799 28.1133 148.939 27.5067 148.939 26.8C148.939 26.0533 148.799 25.4333 148.519 24.94C148.252 24.4467 147.885 24.0733 147.419 23.82C146.965 23.5667 146.472 23.44 145.939 23.44C145.405 23.44 144.905 23.5667 144.439 23.82C143.985 24.0733 143.619 24.4533 143.339 24.96C143.059 25.4533 142.919 26.0667 142.919 26.8C142.919 27.52 143.059 28.1333 143.339 28.64C143.619 29.1333 143.985 29.5067 144.439 29.76C144.905 30.0133 145.405 30.14 145.939 30.14ZM153.546 32V17.68H155.706V32H153.546ZM162.815 32.32C161.815 32.32 160.921 32.0867 160.135 31.62C159.348 31.1533 158.728 30.5133 158.275 29.7C157.835 28.8867 157.615 27.96 157.615 26.92C157.615 25.9467 157.828 25.0467 158.255 24.22C158.681 23.3933 159.275 22.7333 160.035 22.24C160.808 21.7333 161.695 21.48 162.695 21.48C163.748 21.48 164.641 21.7067 165.375 22.16C166.121 22.6133 166.688 23.2333 167.075 24.02C167.461 24.8067 167.655 25.6933 167.655 26.68C167.655 26.8267 167.648 26.96 167.635 27.08C167.635 27.2 167.628 27.2933 167.615 27.36H159.735C159.788 27.92 159.928 28.4067 160.155 28.82C160.448 29.34 160.835 29.7333 161.315 30C161.795 30.2667 162.315 30.4 162.875 30.4C163.555 30.4 164.121 30.2467 164.575 29.94C165.041 29.62 165.408 29.2267 165.675 28.76L167.455 29.62C167.015 30.42 166.415 31.0733 165.655 31.58C164.895 32.0733 163.948 32.32 162.815 32.32ZM159.855 25.74H165.515C165.501 25.4867 165.435 25.22 165.315 24.94C165.195 24.6467 165.021 24.38 164.795 24.14C164.568 23.9 164.281 23.7067 163.935 23.56C163.588 23.4 163.181 23.32 162.715 23.32C162.128 23.32 161.608 23.4733 161.155 23.78C160.701 24.0733 160.348 24.4867 160.095 25.02C159.988 25.2467 159.908 25.4867 159.855 25.74ZM176.446 32L172.606 17.68H175.046L177.326 26.98L177.566 28.22H177.686L177.986 26.98L180.866 17.68H183.066L185.826 26.98L186.126 28.2H186.246L186.486 26.98L188.766 17.68H191.186L187.406 32H185.086L182.346 22.5L182.026 21.16H181.906L181.566 22.5L178.706 32H176.446ZM195.202 32.32C194.469 32.32 193.816 32.1733 193.242 31.88C192.682 31.5867 192.236 31.1867 191.902 30.68C191.582 30.16 191.422 29.5667 191.422 28.9C191.422 28.1667 191.609 27.5467 191.982 27.04C192.369 26.5333 192.882 26.1467 193.522 25.88C194.162 25.6133 194.869 25.48 195.642 25.48C196.069 25.48 196.462 25.5133 196.822 25.58C197.196 25.6333 197.516 25.7 197.782 25.78C198.062 25.86 198.282 25.9467 198.442 26.04V25.5C198.442 24.8333 198.202 24.3 197.722 23.9C197.242 23.5 196.622 23.3 195.862 23.3C195.342 23.3 194.849 23.42 194.382 23.66C193.916 23.8867 193.542 24.2 193.262 24.6L191.782 23.46C192.076 23.0467 192.429 22.6933 192.842 22.4C193.269 22.1067 193.742 21.88 194.262 21.72C194.796 21.56 195.349 21.48 195.922 21.48C197.402 21.48 198.542 21.8467 199.342 22.58C200.142 23.3 200.542 24.3133 200.542 25.62V32H198.442V30.74H198.322C198.149 31.0067 197.909 31.26 197.602 31.5C197.309 31.74 196.956 31.9333 196.542 32.08C196.142 32.24 195.696 32.32 195.202 32.32ZM195.582 30.56C196.142 30.56 196.636 30.4267 197.062 30.16C197.502 29.8933 197.842 29.5467 198.082 29.12C198.322 28.68 198.442 28.2067 198.442 27.7C198.149 27.5267 197.789 27.3867 197.362 27.28C196.949 27.16 196.509 27.1 196.042 27.1C195.162 27.1 194.536 27.2733 194.162 27.62C193.789 27.9667 193.602 28.4 193.602 28.92C193.602 29.4 193.782 29.7933 194.142 30.1C194.502 30.4067 194.982 30.56 195.582 30.56ZM202.94 32V17.68H205.1V32H202.94ZM207.667 32V17.68H209.827V32H207.667ZM216.936 32.32C215.936 32.32 215.042 32.0867 214.256 31.62C213.469 31.1533 212.849 30.5133 212.396 29.7C211.956 28.8867 211.736 27.96 211.736 26.92C211.736 25.9467 211.949 25.0467 212.376 24.22C212.802 23.3933 213.396 22.7333 214.156 22.24C214.929 21.7333 215.816 21.48 216.816 21.48C217.869 21.48 218.762 21.7067 219.496 22.16C220.242 22.6133 220.809 23.2333 221.196 24.02C221.582 24.8067 221.776 25.6933 221.776 26.68C221.776 26.8267 221.769 26.96 221.756 27.08C221.756 27.2 221.749 27.2933 221.736 27.36H213.856C213.909 27.92 214.049 28.4067 214.276 28.82C214.569 29.34 214.956 29.7333 215.436 30C215.916 30.2667 216.436 30.4 216.996 30.4C217.676 30.4 218.242 30.2467 218.696 29.94C219.162 29.62 219.529 29.2267 219.796 28.76L221.576 29.62C221.136 30.42 220.536 31.0733 219.776 31.58C219.016 32.0733 218.069 32.32 216.936 32.32ZM213.976 25.74H219.636C219.622 25.4867 219.556 25.22 219.436 24.94C219.316 24.6467 219.142 24.38 218.916 24.14C218.689 23.9 218.402 23.7067 218.056 23.56C217.709 23.4 217.302 23.32 216.836 23.32C216.249 23.32 215.729 23.4733 215.276 23.78C214.822 24.0733 214.469 24.4867 214.216 25.02C214.109 25.2467 214.029 25.4867 213.976 25.74ZM222.787 21.8H224.567V18.92H226.727V21.8H229.227V23.68H226.727V28.58C226.727 29.0867 226.827 29.4733 227.027 29.74C227.24 30.0067 227.593 30.14 228.087 30.14C228.327 30.14 228.54 30.1067 228.727 30.04C228.913 29.96 229.1 29.8667 229.287 29.76V31.86C229.06 31.9533 228.82 32.0267 228.567 32.08C228.313 32.1333 228.013 32.16 227.667 32.16C226.72 32.16 225.967 31.8867 225.407 31.34C224.847 30.78 224.567 30.0133 224.567 29.04V23.68H222.787V21.8Z" fill="white"/>
</svg>
