<svg width="321" height="50" viewBox="0 0 321 50" fill="none" xmlns="http://www.w3.org/2000/svg">
<rect x="0.5" y="0.5" width="320" height="49" rx="24.5" fill="#1F1F1F"/>
<rect x="0.5" y="0.5" width="320" height="49" rx="24.5" stroke="#747775"/>
<path d="M51 22H21V17C21 14.2857 23.2018 12 25.8165 12H46.1835C48.7982 12 51 14.2857 51 17V22Z" fill="#34A853"/>
<path d="M51 26.0537H21V21.0537C21 18.3394 23.2018 16.0537 25.8165 16.0537H46.1835C48.7982 16.0537 51 18.3394 51 21.0537V26.0537Z" fill="#FBBC04"/>
<path d="M51 30.2468H21V25.2468C21 22.5325 23.2018 20.2468 25.8165 20.2468H46.1835C48.7982 20.2468 51 22.5325 51 25.2468V30.2468Z" fill="#EA4335"/>
<path d="M21 23.2752L40.0411 27.6789C42.2329 28.2294 44.6986 27.6789 46.4795 26.3028L51 23V33.3211C51 35.9358 48.8082 38 46.2055 38H25.7945C23.1918 38 21 35.9358 21 33.3211V23.2752Z" fill="#4285F4"/>
<path d="M71.4 32.32C70.3733 32.32 69.4067 32.1333 68.5 31.76C67.5933 31.3867 66.7933 30.8667 66.1 30.2C65.42 29.52 64.88 28.7267 64.48 27.82C64.0933 26.9 63.9 25.9067 63.9 24.84C63.9 23.7733 64.0933 22.7867 64.48 21.88C64.88 20.96 65.42 20.1667 66.1 19.5C66.7933 18.82 67.5933 18.2933 68.5 17.92C69.4067 17.5467 70.3733 17.36 71.4 17.36C72.4933 17.36 73.5 17.5533 74.42 17.94C75.3533 18.3267 76.1333 18.8667 76.76 19.56L75.24 21.06C74.9333 20.7133 74.58 20.42 74.18 20.18C73.7933 19.94 73.3667 19.76 72.9 19.64C72.4333 19.5067 71.9333 19.44 71.4 19.44C70.6933 19.44 70.02 19.5667 69.38 19.82C68.74 20.0733 68.1733 20.44 67.68 20.92C67.2 21.3867 66.82 21.9533 66.54 22.62C66.26 23.2733 66.12 24.0133 66.12 24.84C66.12 25.6667 66.26 26.4133 66.54 27.08C66.8333 27.7333 67.22 28.3 67.7 28.78C68.1933 29.2467 68.76 29.6067 69.4 29.86C70.04 30.1133 70.7133 30.24 71.42 30.24C72.0733 30.24 72.68 30.1467 73.24 29.96C73.8133 29.7733 74.3133 29.5067 74.74 29.16C75.1667 28.8133 75.5133 28.3933 75.78 27.9C76.0467 27.3933 76.2133 26.8267 76.28 26.2H71.38V24.26H78.34C78.3667 24.42 78.3933 24.6067 78.42 24.82C78.4467 25.02 78.46 25.2133 78.46 25.4V25.42C78.46 26.4467 78.28 27.3867 77.92 28.24C77.5733 29.0933 77.0867 29.8267 76.46 30.44C75.8333 31.04 75.0867 31.5067 74.22 31.84C73.3667 32.16 72.4267 32.32 71.4 32.32ZM84.8998 32.32C83.8465 32.32 82.9198 32.08 82.1198 31.6C81.3198 31.12 80.6932 30.4733 80.2398 29.66C79.7865 28.8333 79.5598 27.9133 79.5598 26.9C79.5598 25.8867 79.7865 24.9733 80.2398 24.16C80.6932 23.3333 81.3198 22.68 82.1198 22.2C82.9198 21.72 83.8465 21.48 84.8998 21.48C85.9398 21.48 86.8598 21.7267 87.6598 22.22C88.4598 22.7 89.0865 23.3467 89.5398 24.16C89.9932 24.9733 90.2198 25.8867 90.2198 26.9C90.2198 27.9133 89.9932 28.8333 89.5398 29.66C89.0865 30.4733 88.4598 31.12 87.6598 31.6C86.8598 32.08 85.9398 32.32 84.8998 32.32ZM84.8998 30.34C85.4598 30.34 85.9798 30.2067 86.4598 29.94C86.9398 29.66 87.3265 29.2667 87.6198 28.76C87.9265 28.24 88.0798 27.62 88.0798 26.9C88.0798 26.18 87.9265 25.5667 87.6198 25.06C87.3265 24.54 86.9398 24.1467 86.4598 23.88C85.9798 23.6 85.4598 23.46 84.8998 23.46C84.3398 23.46 83.8132 23.6 83.3198 23.88C82.8398 24.1467 82.4465 24.54 82.1398 25.06C81.8465 25.5667 81.6998 26.18 81.6998 26.9C81.6998 27.62 81.8465 28.24 82.1398 28.76C82.4465 29.2667 82.8465 29.66 83.3398 29.94C83.8332 30.2067 84.3532 30.34 84.8998 30.34ZM97.0092 32.32C95.9559 32.32 95.0292 32.08 94.2292 31.6C93.4292 31.12 92.8026 30.4733 92.3492 29.66C91.8959 28.8333 91.6692 27.9133 91.6692 26.9C91.6692 25.8867 91.8959 24.9733 92.3492 24.16C92.8026 23.3333 93.4292 22.68 94.2292 22.2C95.0292 21.72 95.9559 21.48 97.0092 21.48C98.0492 21.48 98.9692 21.7267 99.7692 22.22C100.569 22.7 101.196 23.3467 101.649 24.16C102.103 24.9733 102.329 25.8867 102.329 26.9C102.329 27.9133 102.103 28.8333 101.649 29.66C101.196 30.4733 100.569 31.12 99.7692 31.6C98.9692 32.08 98.0492 32.32 97.0092 32.32ZM97.0092 30.34C97.5692 30.34 98.0892 30.2067 98.5692 29.94C99.0492 29.66 99.4359 29.2667 99.7292 28.76C100.036 28.24 100.189 27.62 100.189 26.9C100.189 26.18 100.036 25.5667 99.7292 25.06C99.4359 24.54 99.0492 24.1467 98.5692 23.88C98.0892 23.6 97.5692 23.46 97.0092 23.46C96.4492 23.46 95.9226 23.6 95.4292 23.88C94.9492 24.1467 94.5559 24.54 94.2492 25.06C93.9559 25.5667 93.8092 26.18 93.8092 26.9C93.8092 27.62 93.9559 28.24 94.2492 28.76C94.5559 29.2667 94.9559 29.66 95.4492 29.94C95.9426 30.2067 96.4626 30.34 97.0092 30.34ZM108.919 36.64C108.025 36.64 107.252 36.4933 106.599 36.2C105.959 35.92 105.439 35.5533 105.039 35.1C104.639 34.66 104.352 34.2067 104.179 33.74L106.179 32.9C106.392 33.4333 106.732 33.8667 107.199 34.2C107.679 34.5467 108.252 34.72 108.919 34.72C109.865 34.72 110.605 34.44 111.139 33.88C111.672 33.32 111.939 32.5267 111.939 31.5V30.52H111.819C111.499 30.9867 111.059 31.3667 110.499 31.66C109.939 31.9533 109.292 32.1 108.559 32.1C107.692 32.1 106.892 31.88 106.159 31.44C105.439 31 104.859 30.3867 104.419 29.6C103.992 28.8 103.779 27.8667 103.779 26.8C103.779 25.72 103.992 24.7867 104.419 24C104.859 23.2 105.439 22.58 106.159 22.14C106.892 21.7 107.692 21.48 108.559 21.48C109.292 21.48 109.939 21.6267 110.499 21.92C111.059 22.2 111.499 22.5867 111.819 23.08H111.939V21.8H113.999V31.46C113.999 32.5667 113.779 33.5067 113.339 34.28C112.912 35.0533 112.319 35.64 111.559 36.04C110.799 36.44 109.919 36.64 108.919 36.64ZM108.939 30.14C109.472 30.14 109.965 30.0133 110.419 29.76C110.885 29.4933 111.252 29.1133 111.519 28.62C111.799 28.1133 111.939 27.5067 111.939 26.8C111.939 26.0533 111.799 25.4333 111.519 24.94C111.252 24.4467 110.885 24.0733 110.419 23.82C109.965 23.5667 109.472 23.44 108.939 23.44C108.405 23.44 107.905 23.5667 107.439 23.82C106.985 24.0733 106.619 24.4533 106.339 24.96C106.059 25.4533 105.919 26.0667 105.919 26.8C105.919 27.52 106.059 28.1333 106.339 28.64C106.619 29.1333 106.985 29.5067 107.439 29.76C107.905 30.0133 108.405 30.14 108.939 30.14ZM116.546 32V17.68H118.706V32H116.546ZM125.815 32.32C124.815 32.32 123.921 32.0867 123.135 31.62C122.348 31.1533 121.728 30.5133 121.275 29.7C120.835 28.8867 120.615 27.96 120.615 26.92C120.615 25.9467 120.828 25.0467 121.255 24.22C121.681 23.3933 122.275 22.7333 123.035 22.24C123.808 21.7333 124.695 21.48 125.695 21.48C126.748 21.48 127.641 21.7067 128.375 22.16C129.121 22.6133 129.688 23.2333 130.075 24.02C130.461 24.8067 130.655 25.6933 130.655 26.68C130.655 26.8267 130.648 26.96 130.635 27.08C130.635 27.2 130.628 27.2933 130.615 27.36H122.735C122.788 27.92 122.928 28.4067 123.155 28.82C123.448 29.34 123.835 29.7333 124.315 30C124.795 30.2667 125.315 30.4 125.875 30.4C126.555 30.4 127.121 30.2467 127.575 29.94C128.041 29.62 128.408 29.2267 128.675 28.76L130.455 29.62C130.015 30.42 129.415 31.0733 128.655 31.58C127.895 32.0733 126.948 32.32 125.815 32.32ZM122.855 25.74H128.515C128.501 25.4867 128.435 25.22 128.315 24.94C128.195 24.6467 128.021 24.38 127.795 24.14C127.568 23.9 127.281 23.7067 126.935 23.56C126.588 23.4 126.181 23.32 125.715 23.32C125.128 23.32 124.608 23.4733 124.155 23.78C123.701 24.0733 123.348 24.4867 123.095 25.02C122.988 25.2467 122.908 25.4867 122.855 25.74ZM144.036 32.32C142.982 32.32 142.002 32.1333 141.096 31.76C140.189 31.3733 139.396 30.8467 138.716 30.18C138.049 29.5 137.522 28.7067 137.136 27.8C136.762 26.88 136.576 25.8933 136.576 24.84C136.576 23.7733 136.762 22.7867 137.136 21.88C137.522 20.9733 138.049 20.1867 138.716 19.52C139.396 18.84 140.189 18.3133 141.096 17.94C142.002 17.5533 142.982 17.36 144.036 17.36C144.782 17.36 145.476 17.4533 146.116 17.64C146.756 17.8267 147.342 18.0933 147.876 18.44C148.409 18.7867 148.896 19.2067 149.336 19.7L147.796 21.2C147.476 20.8133 147.129 20.4933 146.756 20.24C146.382 19.9733 145.969 19.7733 145.516 19.64C145.076 19.5067 144.589 19.44 144.056 19.44C143.096 19.44 142.216 19.6667 141.416 20.12C140.616 20.56 139.976 21.18 139.496 21.98C139.029 22.78 138.796 23.7333 138.796 24.84C138.796 25.9333 139.029 26.8867 139.496 27.7C139.976 28.5 140.616 29.1267 141.416 29.58C142.216 30.02 143.096 30.24 144.056 30.24C144.642 30.24 145.176 30.16 145.656 30C146.149 29.84 146.602 29.6067 147.016 29.3C147.429 28.9933 147.809 28.6333 148.156 28.22L149.736 29.74C149.296 30.26 148.782 30.7133 148.196 31.1C147.609 31.4867 146.969 31.7867 146.276 32C145.582 32.2133 144.836 32.32 144.036 32.32ZM155.245 32.32C153.992 32.32 153.045 31.9467 152.405 31.2C151.778 30.44 151.465 29.4133 151.465 28.12V21.8H153.625V27.82C153.625 28.6733 153.825 29.3067 154.225 29.72C154.638 30.1333 155.152 30.34 155.765 30.34C156.325 30.34 156.805 30.2 157.205 29.92C157.605 29.6267 157.912 29.2467 158.125 28.78C158.352 28.3133 158.465 27.8133 158.465 27.28V21.8H160.605V32H158.585V30.62H158.465C158.278 30.94 158.018 31.2267 157.685 31.48C157.352 31.7333 156.978 31.9333 156.565 32.08C156.152 32.24 155.712 32.32 155.245 32.32ZM157.805 19.72C157.472 19.72 157.178 19.6 156.925 19.36C156.685 19.1067 156.565 18.8133 156.565 18.48C156.565 18.12 156.685 17.8267 156.925 17.6C157.178 17.36 157.472 17.24 157.805 17.24C158.165 17.24 158.465 17.36 158.705 17.6C158.945 17.8267 159.065 18.12 159.065 18.48C159.065 18.8133 158.945 19.1067 158.705 19.36C158.465 19.6 158.165 19.72 157.805 19.72ZM154.265 19.72C153.932 19.72 153.638 19.6 153.385 19.36C153.145 19.1067 153.025 18.8133 153.025 18.48C153.025 18.12 153.145 17.8267 153.385 17.6C153.638 17.36 153.932 17.24 154.265 17.24C154.625 17.24 154.918 17.36 155.145 17.6C155.385 17.8267 155.505 18.12 155.505 18.48C155.505 18.8133 155.385 19.1067 155.145 19.36C154.918 19.6 154.625 19.72 154.265 19.72ZM162.92 32V30.2L168.6 23.68H163.1V21.8H171.24V23.6L165.58 30.12H171.4V32H162.92ZM177.585 32.32C176.665 32.32 175.832 32.0867 175.085 31.62C174.338 31.1533 173.752 30.5133 173.325 29.7C172.898 28.8867 172.685 27.9533 172.685 26.9C172.685 25.8467 172.898 24.9133 173.325 24.1C173.752 23.2867 174.338 22.6467 175.085 22.18C175.832 21.7133 176.665 21.48 177.585 21.48C178.118 21.48 178.598 21.56 179.025 21.72C179.452 21.88 179.818 22.0933 180.125 22.36C180.445 22.6133 180.692 22.8867 180.865 23.18H180.985L180.865 21.76V17.68H183.005V32H180.985V30.64H180.865C180.692 30.92 180.445 31.1933 180.125 31.46C179.818 31.7133 179.452 31.92 179.025 32.08C178.598 32.24 178.118 32.32 177.585 32.32ZM177.905 30.34C178.438 30.34 178.938 30.2 179.405 29.92C179.885 29.64 180.265 29.2467 180.545 28.74C180.838 28.22 180.985 27.6067 180.985 26.9C180.985 26.1933 180.838 25.5867 180.545 25.08C180.265 24.56 179.885 24.16 179.405 23.88C178.938 23.6 178.438 23.46 177.905 23.46C177.372 23.46 176.872 23.6 176.405 23.88C175.938 24.16 175.558 24.56 175.265 25.08C174.972 25.5867 174.825 26.1933 174.825 26.9C174.825 27.5933 174.972 28.2 175.265 28.72C175.558 29.24 175.938 29.64 176.405 29.92C176.872 30.2 177.372 30.34 177.905 30.34ZM188.651 32.32C187.918 32.32 187.265 32.1733 186.691 31.88C186.131 31.5867 185.685 31.1867 185.351 30.68C185.031 30.16 184.871 29.5667 184.871 28.9C184.871 28.1667 185.058 27.5467 185.431 27.04C185.818 26.5333 186.331 26.1467 186.971 25.88C187.611 25.6133 188.318 25.48 189.091 25.48C189.518 25.48 189.911 25.5133 190.271 25.58C190.645 25.6333 190.965 25.7 191.231 25.78C191.511 25.86 191.731 25.9467 191.891 26.04V25.5C191.891 24.8333 191.651 24.3 191.171 23.9C190.691 23.5 190.071 23.3 189.311 23.3C188.791 23.3 188.298 23.42 187.831 23.66C187.365 23.8867 186.991 24.2 186.711 24.6L185.231 23.46C185.525 23.0467 185.878 22.6933 186.291 22.4C186.718 22.1067 187.191 21.88 187.711 21.72C188.245 21.56 188.798 21.48 189.371 21.48C190.851 21.48 191.991 21.8467 192.791 22.58C193.591 23.3 193.991 24.3133 193.991 25.62V32H191.891V30.74H191.771C191.598 31.0067 191.358 31.26 191.051 31.5C190.758 31.74 190.405 31.9333 189.991 32.08C189.591 32.24 189.145 32.32 188.651 32.32ZM189.031 30.56C189.591 30.56 190.085 30.4267 190.511 30.16C190.951 29.8933 191.291 29.5467 191.531 29.12C191.771 28.68 191.891 28.2067 191.891 27.7C191.598 27.5267 191.238 27.3867 190.811 27.28C190.398 27.16 189.958 27.1 189.491 27.1C188.611 27.1 187.985 27.2733 187.611 27.62C187.238 27.9667 187.051 28.4 187.051 28.92C187.051 29.4 187.231 29.7933 187.591 30.1C187.951 30.4067 188.431 30.56 189.031 30.56ZM196.369 32V21.8H198.409V23.2H198.529C198.823 22.7067 199.256 22.3 199.829 21.98C200.416 21.6467 201.056 21.48 201.749 21.48C203.003 21.48 203.943 21.8533 204.569 22.6C205.196 23.3333 205.509 24.32 205.509 25.56V32H203.369V25.84C203.369 25.0133 203.163 24.4133 202.749 24.04C202.336 23.6533 201.796 23.46 201.129 23.46C200.609 23.46 200.156 23.6067 199.769 23.9C199.383 24.18 199.076 24.5533 198.849 25.02C198.636 25.4867 198.529 25.9867 198.529 26.52V32H196.369ZM207.731 22.14V17.68H209.691V22.14H207.731ZM216.374 32.32C215.454 32.32 214.621 32.0867 213.874 31.62C213.127 31.1533 212.541 30.5133 212.114 29.7C211.687 28.8867 211.474 27.9533 211.474 26.9C211.474 25.8467 211.687 24.9133 212.114 24.1C212.541 23.2867 213.127 22.6467 213.874 22.18C214.621 21.7133 215.454 21.48 216.374 21.48C216.907 21.48 217.387 21.56 217.814 21.72C218.241 21.88 218.607 22.0933 218.914 22.36C219.234 22.6133 219.481 22.8867 219.654 23.18H219.774L219.654 21.76V17.68H221.794V32H219.774V30.64H219.654C219.481 30.92 219.234 31.1933 218.914 31.46C218.607 31.7133 218.241 31.92 217.814 32.08C217.387 32.24 216.907 32.32 216.374 32.32ZM216.694 30.34C217.227 30.34 217.727 30.2 218.194 29.92C218.674 29.64 219.054 29.2467 219.334 28.74C219.627 28.22 219.774 27.6067 219.774 26.9C219.774 26.1933 219.627 25.5867 219.334 25.08C219.054 24.56 218.674 24.16 218.194 23.88C217.727 23.6 217.227 23.46 216.694 23.46C216.161 23.46 215.661 23.6 215.194 23.88C214.727 24.16 214.347 24.56 214.054 25.08C213.761 25.5867 213.614 26.1933 213.614 26.9C213.614 27.5933 213.761 28.2 214.054 28.72C214.347 29.24 214.727 29.64 215.194 29.92C215.661 30.2 216.161 30.34 216.694 30.34ZM227.44 32.32C226.707 32.32 226.054 32.1733 225.48 31.88C224.92 31.5867 224.474 31.1867 224.14 30.68C223.82 30.16 223.66 29.5667 223.66 28.9C223.66 28.1667 223.847 27.5467 224.22 27.04C224.607 26.5333 225.12 26.1467 225.76 25.88C226.4 25.6133 227.107 25.48 227.88 25.48C228.307 25.48 228.7 25.5133 229.06 25.58C229.434 25.6333 229.754 25.7 230.02 25.78C230.3 25.86 230.52 25.9467 230.68 26.04V25.5C230.68 24.8333 230.44 24.3 229.96 23.9C229.48 23.5 228.86 23.3 228.1 23.3C227.58 23.3 227.087 23.42 226.62 23.66C226.154 23.8867 225.78 24.2 225.5 24.6L224.02 23.46C224.314 23.0467 224.667 22.6933 225.08 22.4C225.507 22.1067 225.98 21.88 226.5 21.72C227.034 21.56 227.587 21.48 228.16 21.48C229.64 21.48 230.78 21.8467 231.58 22.58C232.38 23.3 232.78 24.3133 232.78 25.62V32H230.68V30.74H230.56C230.387 31.0067 230.147 31.26 229.84 31.5C229.547 31.74 229.194 31.9333 228.78 32.08C228.38 32.24 227.934 32.32 227.44 32.32ZM227.82 30.56C228.38 30.56 228.874 30.4267 229.3 30.16C229.74 29.8933 230.08 29.5467 230.32 29.12C230.56 28.68 230.68 28.2067 230.68 27.7C230.387 27.5267 230.027 27.3867 229.6 27.28C229.187 27.16 228.747 27.1 228.28 27.1C227.4 27.1 226.774 27.2733 226.4 27.62C226.027 27.9667 225.84 28.4 225.84 28.92C225.84 29.4 226.02 29.7933 226.38 30.1C226.74 30.4067 227.22 30.56 227.82 30.56Z" fill="white"/>
<path d="M244.86 36.64C243.967 36.64 243.193 36.4933 242.54 36.2C241.9 35.92 241.38 35.5533 240.98 35.1C240.58 34.66 240.293 34.2067 240.12 33.74L242.12 32.9C242.333 33.4333 242.673 33.8667 243.14 34.2C243.62 34.5467 244.193 34.72 244.86 34.72C245.807 34.72 246.547 34.44 247.08 33.88C247.613 33.32 247.88 32.5267 247.88 31.5V30.52H247.76C247.44 30.9867 247 31.3667 246.44 31.66C245.88 31.9533 245.233 32.1 244.5 32.1C243.633 32.1 242.833 31.88 242.1 31.44C241.38 31 240.8 30.3867 240.36 29.6C239.933 28.8 239.72 27.8667 239.72 26.8C239.72 25.72 239.933 24.7867 240.36 24C240.8 23.2 241.38 22.58 242.1 22.14C242.833 21.7 243.633 21.48 244.5 21.48C245.233 21.48 245.88 21.6267 246.44 21.92C247 22.2 247.44 22.5867 247.76 23.08H247.88V21.8H249.94V31.46C249.94 32.5667 249.72 33.5067 249.28 34.28C248.853 35.0533 248.26 35.64 247.5 36.04C246.74 36.44 245.86 36.64 244.86 36.64ZM244.88 30.14C245.413 30.14 245.907 30.0133 246.36 29.76C246.827 29.4933 247.193 29.1133 247.46 28.62C247.74 28.1133 247.88 27.5067 247.88 26.8C247.88 26.0533 247.74 25.4333 247.46 24.94C247.193 24.4467 246.827 24.0733 246.36 23.82C245.907 23.5667 245.413 23.44 244.88 23.44C244.347 23.44 243.847 23.5667 243.38 23.82C242.927 24.0733 242.56 24.4533 242.28 24.96C242 25.4533 241.86 26.0667 241.86 26.8C241.86 27.52 242 28.1333 242.28 28.64C242.56 29.1333 242.927 29.5067 243.38 29.76C243.847 30.0133 244.347 30.14 244.88 30.14ZM257.169 32.32C256.116 32.32 255.189 32.08 254.389 31.6C253.589 31.12 252.963 30.4733 252.509 29.66C252.056 28.8333 251.829 27.9133 251.829 26.9C251.829 25.8867 252.056 24.9733 252.509 24.16C252.963 23.3333 253.589 22.68 254.389 22.2C255.189 21.72 256.116 21.48 257.169 21.48C258.209 21.48 259.129 21.7267 259.929 22.22C260.729 22.7 261.356 23.3467 261.809 24.16C262.263 24.9733 262.489 25.8867 262.489 26.9C262.489 27.9133 262.263 28.8333 261.809 29.66C261.356 30.4733 260.729 31.12 259.929 31.6C259.129 32.08 258.209 32.32 257.169 32.32ZM257.169 30.34C257.729 30.34 258.249 30.2067 258.729 29.94C259.209 29.66 259.596 29.2667 259.889 28.76C260.196 28.24 260.349 27.62 260.349 26.9C260.349 26.18 260.196 25.5667 259.889 25.06C259.596 24.54 259.209 24.1467 258.729 23.88C258.249 23.6 257.729 23.46 257.169 23.46C256.609 23.46 256.083 23.6 255.589 23.88C255.109 24.1467 254.716 24.54 254.409 25.06C254.116 25.5667 253.969 26.18 253.969 26.9C253.969 27.62 254.116 28.24 254.409 28.76C254.716 29.2667 255.116 29.66 255.609 29.94C256.103 30.2067 256.623 30.34 257.169 30.34ZM258.929 19.72C258.596 19.72 258.303 19.6 258.049 19.36C257.809 19.1067 257.689 18.8133 257.689 18.48C257.689 18.12 257.809 17.8267 258.049 17.6C258.303 17.36 258.596 17.24 258.929 17.24C259.289 17.24 259.589 17.36 259.829 17.6C260.069 17.8267 260.189 18.12 260.189 18.48C260.189 18.8133 260.069 19.1067 259.829 19.36C259.589 19.6 259.289 19.72 258.929 19.72ZM255.389 19.72C255.056 19.72 254.763 19.6 254.509 19.36C254.269 19.1067 254.149 18.8133 254.149 18.48C254.149 18.12 254.269 17.8267 254.509 17.6C254.763 17.36 255.056 17.24 255.389 17.24C255.749 17.24 256.043 17.36 256.269 17.6C256.509 17.8267 256.629 18.12 256.629 18.48C256.629 18.8133 256.509 19.1067 256.269 19.36C256.043 19.6 255.749 19.72 255.389 19.72ZM268.101 32.32C267.288 32.32 266.581 32.2 265.981 31.96C265.381 31.7067 264.888 31.3733 264.501 30.96C264.114 30.5333 263.828 30.0733 263.641 29.58L265.581 28.74C265.821 29.2867 266.161 29.7067 266.601 30C267.054 30.28 267.574 30.42 268.161 30.42C268.694 30.42 269.154 30.3267 269.541 30.14C269.928 29.94 270.121 29.62 270.121 29.18C270.121 28.9 270.028 28.6733 269.841 28.5C269.668 28.3133 269.428 28.16 269.121 28.04C268.828 27.92 268.488 27.8133 268.101 27.72L266.881 27.44C266.401 27.32 265.941 27.1333 265.501 26.88C265.074 26.6133 264.728 26.28 264.461 25.88C264.194 25.48 264.061 25.0067 264.061 24.46C264.061 23.8467 264.234 23.32 264.581 22.88C264.941 22.4267 265.421 22.08 266.021 21.84C266.621 21.6 267.268 21.48 267.961 21.48C268.601 21.48 269.181 21.5667 269.701 21.74C270.234 21.9 270.694 22.1467 271.081 22.48C271.481 22.8 271.794 23.2 272.021 23.68L270.161 24.52C269.934 24.0667 269.628 23.7533 269.241 23.58C268.854 23.3933 268.434 23.3 267.981 23.3C267.474 23.3 267.048 23.4067 266.701 23.62C266.368 23.82 266.201 24.0867 266.201 24.42C266.201 24.7667 266.348 25.04 266.641 25.24C266.948 25.44 267.321 25.6 267.761 25.72L269.241 26.08C270.254 26.3333 271.014 26.72 271.521 27.24C272.028 27.7467 272.281 28.3667 272.281 29.1C272.281 29.7533 272.094 30.3267 271.721 30.82C271.348 31.3 270.841 31.6733 270.201 31.94C269.574 32.1933 268.874 32.32 268.101 32.32ZM273.369 21.8H275.149V18.92H277.309V21.8H279.809V23.68H277.309V28.58C277.309 29.0867 277.409 29.4733 277.609 29.74C277.822 30.0067 278.175 30.14 278.669 30.14C278.909 30.14 279.122 30.1067 279.309 30.04C279.495 29.96 279.682 29.8667 279.869 29.76V31.86C279.642 31.9533 279.402 32.0267 279.149 32.08C278.895 32.1333 278.595 32.16 278.249 32.16C277.302 32.16 276.549 31.8867 275.989 31.34C275.429 30.78 275.149 30.0133 275.149 29.04V23.68H273.369V21.8ZM286.15 32.32C285.15 32.32 284.257 32.0867 283.47 31.62C282.684 31.1533 282.064 30.5133 281.61 29.7C281.17 28.8867 280.95 27.96 280.95 26.92C280.95 25.9467 281.164 25.0467 281.59 24.22C282.017 23.3933 282.61 22.7333 283.37 22.24C284.144 21.7333 285.03 21.48 286.03 21.48C287.084 21.48 287.977 21.7067 288.71 22.16C289.457 22.6133 290.024 23.2333 290.41 24.02C290.797 24.8067 290.99 25.6933 290.99 26.68C290.99 26.8267 290.984 26.96 290.97 27.08C290.97 27.2 290.964 27.2933 290.95 27.36H283.07C283.124 27.92 283.264 28.4067 283.49 28.82C283.784 29.34 284.17 29.7333 284.65 30C285.13 30.2667 285.65 30.4 286.21 30.4C286.89 30.4 287.457 30.2467 287.91 29.94C288.377 29.62 288.744 29.2267 289.01 28.76L290.79 29.62C290.35 30.42 289.75 31.0733 288.99 31.58C288.23 32.0733 287.284 32.32 286.15 32.32ZM283.19 25.74H288.85C288.837 25.4867 288.77 25.22 288.65 24.94C288.53 24.6467 288.357 24.38 288.13 24.14C287.904 23.9 287.617 23.7067 287.27 23.56C286.924 23.4 286.517 23.32 286.05 23.32C285.464 23.32 284.944 23.4733 284.49 23.78C284.037 24.0733 283.684 24.4867 283.43 25.02C283.324 25.2467 283.244 25.4867 283.19 25.74ZM292.994 32V21.8H295.034V23.3H295.154C295.314 22.9533 295.541 22.6467 295.834 22.38C296.141 22.1133 296.488 21.9 296.874 21.74C297.274 21.58 297.688 21.5 298.114 21.5C298.394 21.5 298.628 21.52 298.814 21.56C299.014 21.5867 299.194 21.6333 299.354 21.7V23.94C299.101 23.8333 298.841 23.7467 298.574 23.68C298.321 23.6133 298.054 23.58 297.774 23.58C297.268 23.58 296.814 23.72 296.414 24C296.028 24.2667 295.721 24.6267 295.494 25.08C295.268 25.5333 295.154 26.04 295.154 26.6V32H292.994Z" fill="white"/>
</svg>
