<svg width="375" height="50" viewBox="0 0 375 50" fill="none" xmlns="http://www.w3.org/2000/svg">
<rect x="0.5" y="0.5" width="374" height="49" rx="24.5" fill="#1F1F1F"/>
<rect x="0.5" y="0.5" width="374" height="49" rx="24.5" stroke="#747775"/>
<path d="M51 22H21V17C21 14.2857 23.2018 12 25.8165 12H46.1835C48.7982 12 51 14.2857 51 17V22Z" fill="#34A853"/>
<path d="M51 26.0537H21V21.0537C21 18.3394 23.2018 16.0537 25.8165 16.0537H46.1835C48.7982 16.0537 51 18.3394 51 21.0537V26.0537Z" fill="#FBBC04"/>
<path d="M51 30.2468H21V25.2468C21 22.5325 23.2018 20.2468 25.8165 20.2468H46.1835C48.7982 20.2468 51 22.5325 51 25.2468V30.2468Z" fill="#EA4335"/>
<path d="M21 23.2752L40.0411 27.6789C42.2329 28.2294 44.6986 27.6789 46.4795 26.3028L51 23V33.3211C51 35.9358 48.8082 38 46.2055 38H25.7945C23.1918 38 21 35.9358 21 33.3211V23.2752Z" fill="#4285F4"/>
<path d="M64.62 32V17.68H75.42V32H73.22V19.76H66.82V32H64.62ZM82.963 32.32C81.963 32.32 81.0696 32.0867 80.283 31.62C79.4963 31.1533 78.8763 30.5133 78.423 29.7C77.983 28.8867 77.763 27.96 77.763 26.92C77.763 25.9467 77.9763 25.0467 78.403 24.22C78.8296 23.3933 79.423 22.7333 80.183 22.24C80.9563 21.7333 81.843 21.48 82.843 21.48C83.8963 21.48 84.7896 21.7067 85.523 22.16C86.2696 22.6133 86.8363 23.2333 87.223 24.02C87.6096 24.8067 87.803 25.6933 87.803 26.68C87.803 26.8267 87.7963 26.96 87.783 27.08C87.783 27.2 87.7763 27.2933 87.763 27.36H79.883C79.9363 27.92 80.0763 28.4067 80.303 28.82C80.5963 29.34 80.983 29.7333 81.463 30C81.943 30.2667 82.463 30.4 83.023 30.4C83.703 30.4 84.2696 30.2467 84.723 29.94C85.1896 29.62 85.5563 29.2267 85.823 28.76L87.603 29.62C87.163 30.42 86.563 31.0733 85.803 31.58C85.043 32.0733 84.0963 32.32 82.963 32.32ZM80.003 25.74H85.663C85.6496 25.4867 85.583 25.22 85.463 24.94C85.343 24.6467 85.1696 24.38 84.943 24.14C84.7163 23.9 84.4296 23.7067 84.083 23.56C83.7363 23.4 83.3296 23.32 82.863 23.32C82.2763 23.32 81.7563 23.4733 81.303 23.78C80.8496 24.0733 80.4963 24.4867 80.243 25.02C80.1363 25.2467 80.0563 25.4867 80.003 25.74ZM89.7869 36.32V21.8H91.8069V23.18H91.9269C92.1135 22.8867 92.3602 22.6133 92.6669 22.36C92.9869 22.0933 93.3602 21.88 93.7869 21.72C94.2135 21.56 94.6869 21.48 95.2069 21.48C96.1402 21.48 96.9735 21.7133 97.7069 22.18C98.4402 22.6467 99.0202 23.2867 99.4469 24.1C99.8869 24.9133 100.107 25.8467 100.107 26.9C100.107 27.9533 99.8869 28.8867 99.4469 29.7C99.0202 30.5133 98.4402 31.1533 97.7069 31.62C96.9735 32.0867 96.1402 32.32 95.2069 32.32C94.4335 32.32 93.7602 32.1467 93.1869 31.8C92.6135 31.4533 92.1935 31.0667 91.9269 30.64H91.8069L91.9269 32.06V36.32H89.7869ZM94.8869 30.34C95.4202 30.34 95.9202 30.2 96.3869 29.92C96.8669 29.64 97.2469 29.24 97.5269 28.72C97.8202 28.2 97.9669 27.5933 97.9669 26.9C97.9669 26.1933 97.8202 25.5867 97.5269 25.08C97.2469 24.56 96.8669 24.16 96.3869 23.88C95.9202 23.6 95.4202 23.46 94.8869 23.46C94.3535 23.46 93.8535 23.6 93.3869 23.88C92.9202 24.16 92.5402 24.56 92.2469 25.08C91.9535 25.5867 91.8069 26.1933 91.8069 26.9C91.8069 27.6067 91.9535 28.22 92.2469 28.74C92.5402 29.2467 92.9202 29.64 93.3869 29.92C93.8535 30.2 94.3535 30.34 94.8869 30.34ZM106.713 32.32C105.713 32.32 104.82 32.0867 104.033 31.62C103.246 31.1533 102.626 30.5133 102.173 29.7C101.733 28.8867 101.513 27.96 101.513 26.92C101.513 25.9467 101.726 25.0467 102.153 24.22C102.58 23.3933 103.173 22.7333 103.933 22.24C104.706 21.7333 105.593 21.48 106.593 21.48C107.646 21.48 108.54 21.7067 109.273 22.16C110.02 22.6133 110.586 23.2333 110.973 24.02C111.36 24.8067 111.553 25.6933 111.553 26.68C111.553 26.8267 111.546 26.96 111.533 27.08C111.533 27.2 111.526 27.2933 111.513 27.36H103.633C103.686 27.92 103.826 28.4067 104.053 28.82C104.346 29.34 104.733 29.7333 105.213 30C105.693 30.2667 106.213 30.4 106.773 30.4C107.453 30.4 108.02 30.2467 108.473 29.94C108.94 29.62 109.306 29.2267 109.573 28.76L111.353 29.62C110.913 30.42 110.313 31.0733 109.553 31.58C108.793 32.0733 107.846 32.32 106.713 32.32ZM103.753 25.74H109.413C109.4 25.4867 109.333 25.22 109.213 24.94C109.093 24.6467 108.92 24.38 108.693 24.14C108.466 23.9 108.18 23.7067 107.833 23.56C107.486 23.4 107.08 23.32 106.613 23.32C106.026 23.32 105.506 23.4733 105.053 23.78C104.6 24.0733 104.246 24.4867 103.993 25.02C103.886 25.2467 103.806 25.4867 103.753 25.74ZM113.557 32V21.8H120.237V23.68H115.717V32H113.557ZM121.608 32.16C121.461 32.16 121.308 32.1467 121.148 32.12C121.001 32.1067 120.861 32.0867 120.728 32.06V30.06C120.821 30.1 120.928 30.1333 121.048 30.16C121.168 30.1867 121.268 30.2 121.348 30.2C121.801 30.2 122.121 30.0267 122.308 29.68C122.494 29.32 122.608 28.8667 122.648 28.32C122.688 27.7733 122.708 27.2067 122.708 26.62V21.8H130.508V32H128.368V23.68H124.748V26.96C124.748 27.64 124.701 28.2933 124.608 28.92C124.514 29.5467 124.354 30.1067 124.128 30.6C123.914 31.08 123.601 31.46 123.188 31.74C122.788 32.02 122.261 32.16 121.608 32.16ZM138.789 32V28.54H137.369L134.809 32H132.389V31.88L135.109 28.34L135.069 28.22C134.976 28.1933 134.889 28.16 134.809 28.12C134.222 27.8267 133.756 27.4267 133.409 26.92C133.076 26.4133 132.909 25.84 132.909 25.2C132.909 24.5467 133.069 23.9667 133.389 23.46C133.709 22.94 134.142 22.5333 134.689 22.24C135.249 21.9467 135.876 21.8 136.569 21.8H140.949V32H138.789ZM138.789 26.82V23.6H136.729C136.262 23.6 135.862 23.7533 135.529 24.06C135.209 24.3533 135.049 24.7333 135.049 25.2C135.049 25.6667 135.209 26.0533 135.529 26.36C135.862 26.6667 136.262 26.82 136.729 26.82H138.789ZM143.479 32V21.8H145.639V25.9H150.479V21.8H152.639V32H150.479V27.78H145.639V32H143.479ZM158.638 35.82C158.598 35.9133 158.552 36.0067 158.498 36.1C158.458 36.2067 158.432 36.28 158.418 36.32H156.118C156.185 36.1733 156.278 35.9667 156.398 35.7C156.532 35.4333 156.658 35.1667 156.778 34.9C156.858 34.7267 156.938 34.54 157.018 34.34C157.112 34.14 157.205 33.9333 157.298 33.72C157.405 33.5067 157.505 33.3 157.598 33.1L158.358 31.44L154.098 21.8H156.498L159.418 28.76H159.518L162.338 21.8H164.718L159.438 33.96C159.345 34.1867 159.238 34.4267 159.118 34.68C159.012 34.9333 158.912 35.16 158.818 35.36C158.738 35.5733 158.678 35.7267 158.638 35.82ZM168.872 32V23.68H165.512V21.8H174.372V23.68H171.012V32H168.872ZM176.135 32V21.8H178.295V27.02L178.175 28.94H178.295L183.395 21.8H185.535V32H183.395V26.8L183.515 24.88H183.395L178.295 32H176.135Z" fill="white"/>
<path d="M193.26 32V21.8H198.32C198.92 21.8 199.453 21.92 199.92 22.16C200.4 22.3867 200.773 22.7 201.04 23.1C201.32 23.5 201.46 23.9467 201.46 24.44C201.46 24.9733 201.34 25.4333 201.1 25.82C200.873 26.2067 200.573 26.4933 200.2 26.68V26.8C200.707 27 201.107 27.3 201.4 27.7C201.707 28.1 201.86 28.56 201.86 29.08C201.86 29.68 201.7 30.2 201.38 30.64C201.073 31.08 200.673 31.42 200.18 31.66C199.687 31.8867 199.16 32 198.6 32H193.26ZM195.42 27.56V30.2H198.38C198.767 30.2 199.087 30.08 199.34 29.84C199.607 29.5867 199.74 29.2667 199.74 28.88C199.74 28.5067 199.607 28.1933 199.34 27.94C199.087 27.6867 198.767 27.56 198.38 27.56H195.42ZM195.42 23.56V25.96H198.06C198.42 25.96 198.72 25.8467 198.96 25.62C199.2 25.3933 199.32 25.1067 199.32 24.76C199.32 24.4 199.2 24.1133 198.96 23.9C198.72 23.6733 198.42 23.56 198.06 23.56H195.42ZM215.283 32.32C214.256 32.32 213.289 32.1333 212.383 31.76C211.476 31.3867 210.676 30.8667 209.983 30.2C209.303 29.52 208.763 28.7267 208.363 27.82C207.976 26.9 207.783 25.9067 207.783 24.84C207.783 23.7733 207.976 22.7867 208.363 21.88C208.763 20.96 209.303 20.1667 209.983 19.5C210.676 18.82 211.476 18.2933 212.383 17.92C213.289 17.5467 214.256 17.36 215.283 17.36C216.376 17.36 217.383 17.5533 218.303 17.94C219.236 18.3267 220.016 18.8667 220.643 19.56L219.123 21.06C218.816 20.7133 218.463 20.42 218.063 20.18C217.676 19.94 217.249 19.76 216.783 19.64C216.316 19.5067 215.816 19.44 215.283 19.44C214.576 19.44 213.903 19.5667 213.263 19.82C212.623 20.0733 212.056 20.44 211.563 20.92C211.083 21.3867 210.703 21.9533 210.423 22.62C210.143 23.2733 210.003 24.0133 210.003 24.84C210.003 25.6667 210.143 26.4133 210.423 27.08C210.716 27.7333 211.103 28.3 211.583 28.78C212.076 29.2467 212.643 29.6067 213.283 29.86C213.923 30.1133 214.596 30.24 215.303 30.24C215.956 30.24 216.563 30.1467 217.123 29.96C217.696 29.7733 218.196 29.5067 218.623 29.16C219.049 28.8133 219.396 28.3933 219.663 27.9C219.929 27.3933 220.096 26.8267 220.163 26.2H215.263V24.26H222.223C222.249 24.42 222.276 24.6067 222.303 24.82C222.329 25.02 222.343 25.2133 222.343 25.4V25.42C222.343 26.4467 222.163 27.3867 221.803 28.24C221.456 29.0933 220.969 29.8267 220.343 30.44C219.716 31.04 218.969 31.5067 218.103 31.84C217.249 32.16 216.309 32.32 215.283 32.32ZM228.783 32.32C227.729 32.32 226.803 32.08 226.003 31.6C225.203 31.12 224.576 30.4733 224.123 29.66C223.669 28.8333 223.443 27.9133 223.443 26.9C223.443 25.8867 223.669 24.9733 224.123 24.16C224.576 23.3333 225.203 22.68 226.003 22.2C226.803 21.72 227.729 21.48 228.783 21.48C229.823 21.48 230.743 21.7267 231.543 22.22C232.343 22.7 232.969 23.3467 233.423 24.16C233.876 24.9733 234.103 25.8867 234.103 26.9C234.103 27.9133 233.876 28.8333 233.423 29.66C232.969 30.4733 232.343 31.12 231.543 31.6C230.743 32.08 229.823 32.32 228.783 32.32ZM228.783 30.34C229.343 30.34 229.863 30.2067 230.343 29.94C230.823 29.66 231.209 29.2667 231.503 28.76C231.809 28.24 231.963 27.62 231.963 26.9C231.963 26.18 231.809 25.5667 231.503 25.06C231.209 24.54 230.823 24.1467 230.343 23.88C229.863 23.6 229.343 23.46 228.783 23.46C228.223 23.46 227.696 23.6 227.203 23.88C226.723 24.1467 226.329 24.54 226.023 25.06C225.729 25.5667 225.583 26.18 225.583 26.9C225.583 27.62 225.729 28.24 226.023 28.76C226.329 29.2667 226.729 29.66 227.223 29.94C227.716 30.2067 228.236 30.34 228.783 30.34ZM240.892 32.32C239.839 32.32 238.912 32.08 238.112 31.6C237.312 31.12 236.685 30.4733 236.232 29.66C235.779 28.8333 235.552 27.9133 235.552 26.9C235.552 25.8867 235.779 24.9733 236.232 24.16C236.685 23.3333 237.312 22.68 238.112 22.2C238.912 21.72 239.839 21.48 240.892 21.48C241.932 21.48 242.852 21.7267 243.652 22.22C244.452 22.7 245.079 23.3467 245.532 24.16C245.985 24.9733 246.212 25.8867 246.212 26.9C246.212 27.9133 245.985 28.8333 245.532 29.66C245.079 30.4733 244.452 31.12 243.652 31.6C242.852 32.08 241.932 32.32 240.892 32.32ZM240.892 30.34C241.452 30.34 241.972 30.2067 242.452 29.94C242.932 29.66 243.319 29.2667 243.612 28.76C243.919 28.24 244.072 27.62 244.072 26.9C244.072 26.18 243.919 25.5667 243.612 25.06C243.319 24.54 242.932 24.1467 242.452 23.88C241.972 23.6 241.452 23.46 240.892 23.46C240.332 23.46 239.805 23.6 239.312 23.88C238.832 24.1467 238.439 24.54 238.132 25.06C237.839 25.5667 237.692 26.18 237.692 26.9C237.692 27.62 237.839 28.24 238.132 28.76C238.439 29.2667 238.839 29.66 239.332 29.94C239.825 30.2067 240.345 30.34 240.892 30.34ZM252.801 36.64C251.908 36.64 251.135 36.4933 250.481 36.2C249.841 35.92 249.321 35.5533 248.921 35.1C248.521 34.66 248.235 34.2067 248.061 33.74L250.061 32.9C250.275 33.4333 250.615 33.8667 251.081 34.2C251.561 34.5467 252.135 34.72 252.801 34.72C253.748 34.72 254.488 34.44 255.021 33.88C255.555 33.32 255.821 32.5267 255.821 31.5V30.52H255.701C255.381 30.9867 254.941 31.3667 254.381 31.66C253.821 31.9533 253.175 32.1 252.441 32.1C251.575 32.1 250.775 31.88 250.041 31.44C249.321 31 248.741 30.3867 248.301 29.6C247.875 28.8 247.661 27.8667 247.661 26.8C247.661 25.72 247.875 24.7867 248.301 24C248.741 23.2 249.321 22.58 250.041 22.14C250.775 21.7 251.575 21.48 252.441 21.48C253.175 21.48 253.821 21.6267 254.381 21.92C254.941 22.2 255.381 22.5867 255.701 23.08H255.821V21.8H257.881V31.46C257.881 32.5667 257.661 33.5067 257.221 34.28C256.795 35.0533 256.201 35.64 255.441 36.04C254.681 36.44 253.801 36.64 252.801 36.64ZM252.821 30.14C253.355 30.14 253.848 30.0133 254.301 29.76C254.768 29.4933 255.135 29.1133 255.401 28.62C255.681 28.1133 255.821 27.5067 255.821 26.8C255.821 26.0533 255.681 25.4333 255.401 24.94C255.135 24.4467 254.768 24.0733 254.301 23.82C253.848 23.5667 253.355 23.44 252.821 23.44C252.288 23.44 251.788 23.5667 251.321 23.82C250.868 24.0733 250.501 24.4533 250.221 24.96C249.941 25.4533 249.801 26.0667 249.801 26.8C249.801 27.52 249.941 28.1333 250.221 28.64C250.501 29.1333 250.868 29.5067 251.321 29.76C251.788 30.0133 252.288 30.14 252.821 30.14ZM260.428 32V17.68H262.588V32H260.428ZM269.697 32.32C268.697 32.32 267.804 32.0867 267.017 31.62C266.231 31.1533 265.611 30.5133 265.157 29.7C264.717 28.8867 264.497 27.96 264.497 26.92C264.497 25.9467 264.711 25.0467 265.137 24.22C265.564 23.3933 266.157 22.7333 266.917 22.24C267.691 21.7333 268.577 21.48 269.577 21.48C270.631 21.48 271.524 21.7067 272.257 22.16C273.004 22.6133 273.571 23.2333 273.957 24.02C274.344 24.8067 274.537 25.6933 274.537 26.68C274.537 26.8267 274.531 26.96 274.517 27.08C274.517 27.2 274.511 27.2933 274.497 27.36H266.617C266.671 27.92 266.811 28.4067 267.037 28.82C267.331 29.34 267.717 29.7333 268.197 30C268.677 30.2667 269.197 30.4 269.757 30.4C270.437 30.4 271.004 30.2467 271.457 29.94C271.924 29.62 272.291 29.2267 272.557 28.76L274.337 29.62C273.897 30.42 273.297 31.0733 272.537 31.58C271.777 32.0733 270.831 32.32 269.697 32.32ZM266.737 25.74H272.397C272.384 25.4867 272.317 25.22 272.197 24.94C272.077 24.6467 271.904 24.38 271.677 24.14C271.451 23.9 271.164 23.7067 270.817 23.56C270.471 23.4 270.064 23.32 269.597 23.32C269.011 23.32 268.491 23.4733 268.037 23.78C267.584 24.0733 267.231 24.4867 266.977 25.02C266.871 25.2467 266.791 25.4867 266.737 25.74ZM281.569 32V17.68H289.929V19.76H283.769V32H281.569ZM293.081 32.32C292.348 32.32 291.694 32.1733 291.121 31.88C290.561 31.5867 290.114 31.1867 289.781 30.68C289.461 30.16 289.301 29.5667 289.301 28.9C289.301 28.1667 289.488 27.5467 289.861 27.04C290.248 26.5333 290.761 26.1467 291.401 25.88C292.041 25.6133 292.748 25.48 293.521 25.48C293.948 25.48 294.341 25.5133 294.701 25.58C295.074 25.6333 295.394 25.7 295.661 25.78C295.941 25.86 296.161 25.9467 296.321 26.04V25.5C296.321 24.8333 296.081 24.3 295.601 23.9C295.121 23.5 294.501 23.3 293.741 23.3C293.221 23.3 292.728 23.42 292.261 23.66C291.794 23.8867 291.421 24.2 291.141 24.6L289.661 23.46C289.954 23.0467 290.308 22.6933 290.721 22.4C291.148 22.1067 291.621 21.88 292.141 21.72C292.674 21.56 293.228 21.48 293.801 21.48C295.281 21.48 296.421 21.8467 297.221 22.58C298.021 23.3 298.421 24.3133 298.421 25.62V32H296.321V30.74H296.201C296.028 31.0067 295.788 31.26 295.481 31.5C295.188 31.74 294.834 31.9333 294.421 32.08C294.021 32.24 293.574 32.32 293.081 32.32ZM293.461 30.56C294.021 30.56 294.514 30.4267 294.941 30.16C295.381 29.8933 295.721 29.5467 295.961 29.12C296.201 28.68 296.321 28.2067 296.321 27.7C296.028 27.5267 295.668 27.3867 295.241 27.28C294.828 27.16 294.388 27.1 293.921 27.1C293.041 27.1 292.414 27.2733 292.041 27.62C291.668 27.9667 291.481 28.4 291.481 28.92C291.481 29.4 291.661 29.7933 292.021 30.1C292.381 30.4067 292.861 30.56 293.461 30.56ZM300.799 32V21.8H303.359L306.499 28.04H306.599L309.759 21.8H312.259V32H310.199V27.04L310.299 25.08H310.179L307.239 30.7H305.819L302.879 25.08H302.759L302.859 27.04V32H300.799ZM317.886 32.32C317.152 32.32 316.499 32.1733 315.926 31.88C315.366 31.5867 314.919 31.1867 314.586 30.68C314.266 30.16 314.106 29.5667 314.106 28.9C314.106 28.1667 314.292 27.5467 314.666 27.04C315.052 26.5333 315.566 26.1467 316.206 25.88C316.846 25.6133 317.552 25.48 318.326 25.48C318.752 25.48 319.146 25.5133 319.506 25.58C319.879 25.6333 320.199 25.7 320.466 25.78C320.746 25.86 320.966 25.9467 321.126 26.04V25.5C321.126 24.8333 320.886 24.3 320.406 23.9C319.926 23.5 319.306 23.3 318.546 23.3C318.026 23.3 317.532 23.42 317.066 23.66C316.599 23.8867 316.226 24.2 315.946 24.6L314.466 23.46C314.759 23.0467 315.112 22.6933 315.526 22.4C315.952 22.1067 316.426 21.88 316.946 21.72C317.479 21.56 318.032 21.48 318.606 21.48C320.086 21.48 321.226 21.8467 322.026 22.58C322.826 23.3 323.226 24.3133 323.226 25.62V32H321.126V30.74H321.006C320.832 31.0067 320.592 31.26 320.286 31.5C319.992 31.74 319.639 31.9333 319.226 32.08C318.826 32.24 318.379 32.32 317.886 32.32ZM318.266 30.56C318.826 30.56 319.319 30.4267 319.746 30.16C320.186 29.8933 320.526 29.5467 320.766 29.12C321.006 28.68 321.126 28.2067 321.126 27.7C320.832 27.5267 320.472 27.3867 320.046 27.28C319.632 27.16 319.192 27.1 318.726 27.1C317.846 27.1 317.219 27.2733 316.846 27.62C316.472 27.9667 316.286 28.4 316.286 28.92C316.286 29.4 316.466 29.7933 316.826 30.1C317.186 30.4067 317.666 30.56 318.266 30.56ZM325.604 32V21.8H327.764V25.9H332.604V21.8H334.764V32H332.604V27.78H327.764V32H325.604ZM345.543 35.04V32H337.283V21.8H339.443V30.12H343.883V21.8H346.043V30.12H347.523V35.04H345.543ZM349.611 32V21.8H351.771V32H349.611ZM350.691 20.3C350.291 20.3 349.945 20.16 349.651 19.88C349.371 19.5867 349.231 19.24 349.231 18.84C349.231 18.4267 349.371 18.0867 349.651 17.82C349.945 17.54 350.291 17.4 350.691 17.4C351.105 17.4 351.451 17.54 351.731 17.82C352.011 18.0867 352.151 18.4267 352.151 18.84C352.151 19.24 352.011 19.5867 351.731 19.88C351.451 20.16 351.105 20.3 350.691 20.3Z" fill="white"/>
</svg>
