<svg width="299" height="50" viewBox="0 0 299 50" fill="none" xmlns="http://www.w3.org/2000/svg">
<rect x="0.5" y="0.5" width="298" height="49" rx="24.5" fill="#1F1F1F"/>
<rect x="0.5" y="0.5" width="298" height="49" rx="24.5" stroke="#747775"/>
<path d="M51 22H21V17C21 14.2857 23.2018 12 25.8165 12H46.1835C48.7982 12 51 14.2857 51 17V22Z" fill="#34A853"/>
<path d="M51 26.0537H21V21.0537C21 18.3394 23.2018 16.0537 25.8165 16.0537H46.1835C48.7982 16.0537 51 18.3394 51 21.0537V26.0537Z" fill="#FBBC04"/>
<path d="M51 30.2468H21V25.2468C21 22.5325 23.2018 20.2468 25.8165 20.2468H46.1835C48.7982 20.2468 51 22.5325 51 25.2468V30.2468Z" fill="#EA4335"/>
<path d="M21 23.2752L40.0411 27.6789C42.2329 28.2294 44.6986 27.6789 46.4795 26.3028L51 23V33.3211C51 35.9358 48.8082 38 46.2055 38H25.7945C23.1918 38 21 35.9358 21 33.3211V23.2752Z" fill="#4285F4"/>
<path d="M71.4 32.32C70.3733 32.32 69.4067 32.1333 68.5 31.76C67.5933 31.3867 66.7933 30.8667 66.1 30.2C65.42 29.52 64.88 28.7267 64.48 27.82C64.0933 26.9 63.9 25.9067 63.9 24.84C63.9 23.7733 64.0933 22.7867 64.48 21.88C64.88 20.96 65.42 20.1667 66.1 19.5C66.7933 18.82 67.5933 18.2933 68.5 17.92C69.4067 17.5467 70.3733 17.36 71.4 17.36C72.4933 17.36 73.5 17.5533 74.42 17.94C75.3533 18.3267 76.1333 18.8667 76.76 19.56L75.24 21.06C74.9333 20.7133 74.58 20.42 74.18 20.18C73.7933 19.94 73.3667 19.76 72.9 19.64C72.4333 19.5067 71.9333 19.44 71.4 19.44C70.6933 19.44 70.02 19.5667 69.38 19.82C68.74 20.0733 68.1733 20.44 67.68 20.92C67.2 21.3867 66.82 21.9533 66.54 22.62C66.26 23.2733 66.12 24.0133 66.12 24.84C66.12 25.6667 66.26 26.4133 66.54 27.08C66.8333 27.7333 67.22 28.3 67.7 28.78C68.1933 29.2467 68.76 29.6067 69.4 29.86C70.04 30.1133 70.7133 30.24 71.42 30.24C72.0733 30.24 72.68 30.1467 73.24 29.96C73.8133 29.7733 74.3133 29.5067 74.74 29.16C75.1667 28.8133 75.5133 28.3933 75.78 27.9C76.0467 27.3933 76.2133 26.8267 76.28 26.2H71.38V24.26H78.34C78.3667 24.42 78.3933 24.6067 78.42 24.82C78.4467 25.02 78.46 25.2133 78.46 25.4V25.42C78.46 26.4467 78.28 27.3867 77.92 28.24C77.5733 29.0933 77.0867 29.8267 76.46 30.44C75.8333 31.04 75.0867 31.5067 74.22 31.84C73.3667 32.16 72.4267 32.32 71.4 32.32ZM84.8998 32.32C83.8465 32.32 82.9198 32.08 82.1198 31.6C81.3198 31.12 80.6932 30.4733 80.2398 29.66C79.7865 28.8333 79.5598 27.9133 79.5598 26.9C79.5598 25.8867 79.7865 24.9733 80.2398 24.16C80.6932 23.3333 81.3198 22.68 82.1198 22.2C82.9198 21.72 83.8465 21.48 84.8998 21.48C85.9398 21.48 86.8598 21.7267 87.6598 22.22C88.4598 22.7 89.0865 23.3467 89.5398 24.16C89.9932 24.9733 90.2198 25.8867 90.2198 26.9C90.2198 27.9133 89.9932 28.8333 89.5398 29.66C89.0865 30.4733 88.4598 31.12 87.6598 31.6C86.8598 32.08 85.9398 32.32 84.8998 32.32ZM84.8998 30.34C85.4598 30.34 85.9798 30.2067 86.4598 29.94C86.9398 29.66 87.3265 29.2667 87.6198 28.76C87.9265 28.24 88.0798 27.62 88.0798 26.9C88.0798 26.18 87.9265 25.5667 87.6198 25.06C87.3265 24.54 86.9398 24.1467 86.4598 23.88C85.9798 23.6 85.4598 23.46 84.8998 23.46C84.3398 23.46 83.8132 23.6 83.3198 23.88C82.8398 24.1467 82.4465 24.54 82.1398 25.06C81.8465 25.5667 81.6998 26.18 81.6998 26.9C81.6998 27.62 81.8465 28.24 82.1398 28.76C82.4465 29.2667 82.8465 29.66 83.3398 29.94C83.8332 30.2067 84.3532 30.34 84.8998 30.34ZM97.0092 32.32C95.9559 32.32 95.0292 32.08 94.2292 31.6C93.4292 31.12 92.8026 30.4733 92.3492 29.66C91.8959 28.8333 91.6692 27.9133 91.6692 26.9C91.6692 25.8867 91.8959 24.9733 92.3492 24.16C92.8026 23.3333 93.4292 22.68 94.2292 22.2C95.0292 21.72 95.9559 21.48 97.0092 21.48C98.0492 21.48 98.9692 21.7267 99.7692 22.22C100.569 22.7 101.196 23.3467 101.649 24.16C102.103 24.9733 102.329 25.8867 102.329 26.9C102.329 27.9133 102.103 28.8333 101.649 29.66C101.196 30.4733 100.569 31.12 99.7692 31.6C98.9692 32.08 98.0492 32.32 97.0092 32.32ZM97.0092 30.34C97.5692 30.34 98.0892 30.2067 98.5692 29.94C99.0492 29.66 99.4359 29.2667 99.7292 28.76C100.036 28.24 100.189 27.62 100.189 26.9C100.189 26.18 100.036 25.5667 99.7292 25.06C99.4359 24.54 99.0492 24.1467 98.5692 23.88C98.0892 23.6 97.5692 23.46 97.0092 23.46C96.4492 23.46 95.9226 23.6 95.4292 23.88C94.9492 24.1467 94.5559 24.54 94.2492 25.06C93.9559 25.5667 93.8092 26.18 93.8092 26.9C93.8092 27.62 93.9559 28.24 94.2492 28.76C94.5559 29.2667 94.9559 29.66 95.4492 29.94C95.9426 30.2067 96.4626 30.34 97.0092 30.34ZM108.919 36.64C108.025 36.64 107.252 36.4933 106.599 36.2C105.959 35.92 105.439 35.5533 105.039 35.1C104.639 34.66 104.352 34.2067 104.179 33.74L106.179 32.9C106.392 33.4333 106.732 33.8667 107.199 34.2C107.679 34.5467 108.252 34.72 108.919 34.72C109.865 34.72 110.605 34.44 111.139 33.88C111.672 33.32 111.939 32.5267 111.939 31.5V30.52H111.819C111.499 30.9867 111.059 31.3667 110.499 31.66C109.939 31.9533 109.292 32.1 108.559 32.1C107.692 32.1 106.892 31.88 106.159 31.44C105.439 31 104.859 30.3867 104.419 29.6C103.992 28.8 103.779 27.8667 103.779 26.8C103.779 25.72 103.992 24.7867 104.419 24C104.859 23.2 105.439 22.58 106.159 22.14C106.892 21.7 107.692 21.48 108.559 21.48C109.292 21.48 109.939 21.6267 110.499 21.92C111.059 22.2 111.499 22.5867 111.819 23.08H111.939V21.8H113.999V31.46C113.999 32.5667 113.779 33.5067 113.339 34.28C112.912 35.0533 112.319 35.64 111.559 36.04C110.799 36.44 109.919 36.64 108.919 36.64ZM108.939 30.14C109.472 30.14 109.965 30.0133 110.419 29.76C110.885 29.4933 111.252 29.1133 111.519 28.62C111.799 28.1133 111.939 27.5067 111.939 26.8C111.939 26.0533 111.799 25.4333 111.519 24.94C111.252 24.4467 110.885 24.0733 110.419 23.82C109.965 23.5667 109.472 23.44 108.939 23.44C108.405 23.44 107.905 23.5667 107.439 23.82C106.985 24.0733 106.619 24.4533 106.339 24.96C106.059 25.4533 105.919 26.0667 105.919 26.8C105.919 27.52 106.059 28.1333 106.339 28.64C106.619 29.1333 106.985 29.5067 107.439 29.76C107.905 30.0133 108.405 30.14 108.939 30.14ZM116.546 32V17.68H118.706V32H116.546ZM125.815 32.32C124.815 32.32 123.921 32.0867 123.135 31.62C122.348 31.1533 121.728 30.5133 121.275 29.7C120.835 28.8867 120.615 27.96 120.615 26.92C120.615 25.9467 120.828 25.0467 121.255 24.22C121.681 23.3933 122.275 22.7333 123.035 22.24C123.808 21.7333 124.695 21.48 125.695 21.48C126.748 21.48 127.641 21.7067 128.375 22.16C129.121 22.6133 129.688 23.2333 130.075 24.02C130.461 24.8067 130.655 25.6933 130.655 26.68C130.655 26.8267 130.648 26.96 130.635 27.08C130.635 27.2 130.628 27.2933 130.615 27.36H122.735C122.788 27.92 122.928 28.4067 123.155 28.82C123.448 29.34 123.835 29.7333 124.315 30C124.795 30.2667 125.315 30.4 125.875 30.4C126.555 30.4 127.121 30.2467 127.575 29.94C128.041 29.62 128.408 29.2267 128.675 28.76L130.455 29.62C130.015 30.42 129.415 31.0733 128.655 31.58C127.895 32.0733 126.948 32.32 125.815 32.32ZM122.855 25.74H128.515C128.501 25.4867 128.435 25.22 128.315 24.94C128.195 24.6467 128.021 24.38 127.795 24.14C127.568 23.9 127.281 23.7067 126.935 23.56C126.588 23.4 126.181 23.32 125.715 23.32C125.128 23.32 124.608 23.4733 124.155 23.78C123.701 24.0733 123.348 24.4867 123.095 25.02C122.988 25.2467 122.908 25.4867 122.855 25.74ZM143.866 32.42C141.493 32.42 139.7 32.1133 138.486 31.5C137.273 30.8733 136.666 29.8267 136.666 28.36C136.666 27.8667 136.726 27.3467 136.846 26.8C136.966 26.24 137.093 25.7133 137.226 25.22L138.726 25.6C138.646 25.8933 138.553 26.2667 138.446 26.72C138.353 27.1733 138.306 27.5667 138.306 27.9C138.306 28.5933 138.48 29.1533 138.826 29.58C139.186 29.9933 139.806 30.3 140.686 30.5C141.566 30.6867 142.8 30.78 144.386 30.78C145.2 30.78 146.06 30.7333 146.966 30.64C147.873 30.5333 148.773 30.3533 149.666 30.1C150.573 29.8333 151.433 29.48 152.246 29.04C153.06 28.5867 153.773 28.0067 154.386 27.3L155.646 28.04C155.526 28.3467 155.446 28.5933 155.406 28.78C155.366 28.9533 155.346 29.1133 155.346 29.26C155.346 29.46 155.42 29.6533 155.566 29.84C155.713 30.0267 155.986 30.18 156.386 30.3C156.786 30.4067 157.366 30.46 158.126 30.46C158.406 30.46 158.606 30.54 158.726 30.7C158.86 30.8467 158.926 31.0267 158.926 31.24C158.926 31.4533 158.833 31.6533 158.646 31.84C158.46 32.0133 158.22 32.1 157.926 32.1C156.753 32.1 155.786 31.9267 155.026 31.58C154.28 31.2333 153.9 30.6667 153.886 29.88C152.78 30.7333 151.346 31.3733 149.586 31.8C147.826 32.2133 145.92 32.42 143.866 32.42ZM145.886 23.42C145.646 23.42 145.36 23.4133 145.026 23.4C144.706 23.3733 144.4 23.3467 144.106 23.32C143.813 23.2933 143.593 23.2733 143.446 23.26L143.486 22.1C143.566 22.1133 143.653 22.1267 143.746 22.14C143.84 22.14 143.94 22.1467 144.046 22.16C144.18 21.92 144.326 21.6933 144.486 21.48L144.386 18.24H145.486L145.586 20.36C145.826 20.1867 146.073 20.0533 146.326 19.96C146.593 19.8533 146.86 19.8 147.126 19.8C147.62 19.8 148.013 19.9533 148.306 20.26C148.613 20.5667 148.766 20.9467 148.766 21.4C148.766 21.6667 148.686 21.96 148.526 22.28C148.38 22.5867 148.1 22.8533 147.686 23.08C147.273 23.3067 146.673 23.42 145.886 23.42ZM146.966 20.98C146.726 20.98 146.493 21.0533 146.266 21.2C146.04 21.3467 145.826 21.52 145.626 21.72C145.44 21.92 145.293 22.0933 145.186 22.24C145.4 22.2533 145.586 22.26 145.746 22.26C146.4 22.26 146.873 22.1933 147.166 22.06C147.46 21.9133 147.606 21.7267 147.606 21.5C147.606 21.3267 147.546 21.2 147.426 21.12C147.306 21.0267 147.153 20.98 146.966 20.98ZM157.922 32.1L158.102 30.46C158.862 30.46 159.395 30.3867 159.702 30.24C160.009 30.0933 160.182 29.84 160.222 29.48C160.275 29.1067 160.289 28.58 160.262 27.9L159.882 17.72H161.502L161.902 27.72C161.942 28.6667 161.875 29.4667 161.702 30.12C161.542 30.7733 161.169 31.2667 160.582 31.6C160.009 31.9333 159.122 32.1 157.922 32.1ZM164.957 32L164.557 17.72H166.177L166.577 32H164.957ZM169.043 36.6L168.683 34.96C169.536 34.8533 170.309 34.6933 171.003 34.48C171.696 34.2667 172.289 33.96 172.783 33.56C173.276 33.16 173.643 32.6267 173.883 31.96C173.643 32.0267 173.389 32.0733 173.123 32.1C172.856 32.14 172.596 32.16 172.343 32.16C171.316 32.16 170.529 31.9533 169.983 31.54C169.436 31.1267 169.163 30.4867 169.163 29.62C169.163 29.1133 169.243 28.6067 169.403 28.1C169.563 27.58 169.789 27.1067 170.083 26.68C170.376 26.2533 170.729 25.9133 171.143 25.66C171.556 25.3933 172.016 25.26 172.523 25.26C173.243 25.26 173.836 25.5 174.303 25.98C174.783 26.4467 175.136 27.0533 175.363 27.8C175.603 28.5467 175.723 29.34 175.723 30.18C175.723 32.0467 175.156 33.52 174.023 34.6C172.903 35.68 171.243 36.3467 169.043 36.6ZM170.743 29.22C170.743 29.6333 170.876 29.9667 171.143 30.22C171.409 30.46 171.869 30.58 172.523 30.58C173.096 30.58 173.643 30.5 174.163 30.34C174.163 30.26 174.163 30.1667 174.163 30.06C174.163 29.5133 174.089 29 173.943 28.52C173.796 28.0267 173.589 27.6333 173.323 27.34C173.056 27.0467 172.736 26.9 172.363 26.9C172.043 26.9 171.763 27.02 171.523 27.26C171.283 27.4867 171.089 27.78 170.943 28.14C170.809 28.5 170.743 28.86 170.743 29.22Z" fill="white"/>
<path d="M182.6 32.02C182.6 31.54 182.667 31.0067 182.8 30.42C182.933 29.8333 183.147 29.1867 183.44 28.48L184.88 29.04C184.667 29.6 184.507 30.1133 184.4 30.58C184.293 31.0467 184.24 31.48 184.24 31.88C184.24 32.6267 184.42 33.2267 184.78 33.68C185.153 34.1333 185.647 34.4667 186.26 34.68C186.887 34.8933 187.573 35 188.32 35C189.533 35 190.48 34.8333 191.16 34.5C191.853 34.1667 192.34 33.7267 192.62 33.18C192.913 32.6467 193.06 32.08 193.06 31.48C193.06 30.6 192.96 29.7933 192.76 29.06C192.573 28.3133 192.367 27.5467 192.14 26.76L193.76 26.32C193.973 27.08 194.12 27.6333 194.2 27.98C194.28 28.3133 194.353 28.5867 194.42 28.8C194.567 29.2933 194.76 29.66 195 29.9C195.24 30.1267 195.513 30.28 195.82 30.36C196.127 30.4267 196.453 30.46 196.8 30.46C197.08 30.46 197.28 30.54 197.4 30.7C197.533 30.8467 197.6 31.0267 197.6 31.24C197.6 31.4533 197.507 31.6533 197.32 31.84C197.133 32.0133 196.893 32.1 196.6 32.1C196.187 32.1 195.82 32.0467 195.5 31.94C195.193 31.82 194.933 31.6733 194.72 31.5C194.653 32.1533 194.5 32.7867 194.26 33.4C194.02 34.0133 193.653 34.56 193.16 35.04C192.68 35.5333 192.04 35.92 191.24 36.2C190.44 36.4933 189.447 36.64 188.26 36.64C187.26 36.64 186.327 36.4733 185.46 36.14C184.607 35.8067 183.913 35.3 183.38 34.62C182.86 33.94 182.6 33.0733 182.6 32.02ZM196.609 32.1L196.809 30.46C197.476 30.46 197.996 30.4133 198.369 30.32C198.743 30.2133 199.023 30.02 199.209 29.74C199.409 29.4467 199.569 29.0267 199.689 28.48C199.809 27.9333 199.956 27.22 200.129 26.34L201.689 26.64C201.609 27 201.516 27.4133 201.409 27.88C201.316 28.3467 201.269 28.74 201.269 29.06C201.269 29.26 201.283 29.4467 201.309 29.62C201.336 29.7933 201.436 29.94 201.609 30.06C201.783 30.18 202.076 30.28 202.489 30.36C202.903 30.4267 203.496 30.46 204.269 30.46C204.549 30.46 204.749 30.54 204.869 30.7C205.003 30.8467 205.069 31.0267 205.069 31.24C205.069 31.4533 204.976 31.6533 204.789 31.84C204.603 32.0133 204.363 32.1 204.069 32.1C203.203 32.1 202.523 32.0533 202.029 31.96C201.549 31.8533 201.189 31.7067 200.949 31.52C200.723 31.32 200.556 31.0733 200.449 30.78C200.063 31.3267 199.583 31.6867 199.009 31.86C198.449 32.02 197.649 32.1 196.609 32.1ZM201.649 35.88C201.369 35.88 201.129 35.78 200.929 35.58C200.743 35.3933 200.649 35.1667 200.649 34.9C200.649 34.6333 200.743 34.4 200.929 34.2C201.129 34 201.369 33.9 201.649 33.9C201.916 33.9 202.143 34 202.329 34.2C202.529 34.4 202.629 34.6333 202.629 34.9C202.629 35.1667 202.529 35.3933 202.329 35.58C202.143 35.78 201.916 35.88 201.649 35.88ZM198.909 35.88C198.629 35.88 198.389 35.78 198.189 35.58C198.003 35.3933 197.909 35.1667 197.909 34.9C197.909 34.6333 198.003 34.4 198.189 34.2C198.389 34 198.629 33.9 198.909 33.9C199.176 33.9 199.403 34 199.589 34.2C199.789 34.4 199.889 34.6333 199.889 34.9C199.889 35.1667 199.789 35.3933 199.589 35.58C199.403 35.78 199.176 35.88 198.909 35.88ZM204.07 32.1L204.27 30.46C204.524 30.46 204.77 30.46 205.01 30.46C205.25 30.46 205.49 30.4533 205.73 30.44C205.784 29.44 205.944 28.5267 206.21 27.7C206.477 26.8733 206.817 26.16 207.23 25.56C207.644 24.96 208.09 24.5 208.57 24.18C209.05 23.8467 209.524 23.68 209.99 23.68C210.644 23.68 211.19 23.96 211.63 24.52C212.07 25.0667 212.29 25.8067 212.29 26.74C212.29 27.3267 212.197 27.9133 212.01 28.5C211.824 29.0733 211.47 29.58 210.95 30.02C211.484 30.1533 212.03 30.26 212.59 30.34C213.164 30.42 213.77 30.46 214.41 30.46C214.69 30.46 214.89 30.54 215.01 30.7C215.144 30.8467 215.21 31.0267 215.21 31.24C215.21 31.4533 215.117 31.6533 214.93 31.84C214.744 32.0133 214.504 32.1 214.21 32.1C213.757 32.1 213.244 32.0667 212.67 32C212.977 32.4533 213.144 32.9267 213.17 33.42C213.21 33.9267 213.117 34.4 212.89 34.84C212.677 35.28 212.344 35.64 211.89 35.92C211.45 36.2 210.89 36.34 210.21 36.34C209.05 36.34 208.05 35.9733 207.21 35.24C206.384 34.52 205.897 33.4267 205.75 31.96C205.484 32 205.204 32.0333 204.91 32.06C204.63 32.0867 204.35 32.1 204.07 32.1ZM209.85 25.32C209.584 25.32 209.264 25.5333 208.89 25.96C208.517 26.3867 208.177 26.9733 207.87 27.72C207.564 28.4667 207.384 29.3333 207.33 30.32C207.97 30.2267 208.537 30.0667 209.03 29.84C209.537 29.6 209.93 29.2533 210.21 28.8C210.504 28.3333 210.65 27.7067 210.65 26.92C210.65 26.72 210.624 26.5 210.57 26.26C210.53 26.0067 210.45 25.7867 210.33 25.6C210.21 25.4133 210.05 25.32 209.85 25.32ZM210.25 34.7C210.597 34.7 210.937 34.6 211.27 34.4C211.604 34.2 211.77 33.8333 211.77 33.3C211.77 32.9667 211.684 32.66 211.51 32.38C211.35 32.1133 211.064 31.8933 210.65 31.72C210.237 31.5467 209.65 31.46 208.89 31.46C208.677 31.46 208.437 31.48 208.17 31.52C207.917 31.5467 207.657 31.5933 207.39 31.66C207.457 32.3133 207.597 32.84 207.81 33.24C208.024 33.64 208.27 33.9467 208.55 34.16C208.844 34.3733 209.137 34.5133 209.43 34.58C209.724 34.66 209.997 34.7 210.25 34.7ZM214.207 32.1L214.407 30.46H215.947C217.054 30.46 217.874 30.4 218.407 30.28C218.94 30.16 219.287 30.0067 219.447 29.82C219.62 29.62 219.707 29.4067 219.707 29.18C219.707 28.86 219.587 28.5067 219.347 28.12C219.107 27.7333 218.8 27.34 218.427 26.94C218.054 26.5267 217.654 26.12 217.227 25.72C216.814 25.32 216.42 24.9533 216.047 24.62C215.674 24.2867 215.367 24 215.127 23.76C214.887 23.5067 214.767 23.3267 214.767 23.22C214.767 22.9133 214.8 22.6267 214.867 22.36C214.934 22.0933 215.04 21.8867 215.187 21.74C215.547 21.3533 216.074 20.9533 216.767 20.54C217.474 20.1133 218.28 19.68 219.187 19.24C220.094 18.7867 221.02 18.3267 221.967 17.86L222.647 19.34C221.474 19.9267 220.32 20.4933 219.187 21.04C218.067 21.5867 217.087 22.1533 216.247 22.74C216.98 23.3667 217.667 23.9733 218.307 24.56C218.947 25.1467 219.54 25.78 220.087 26.46C220.634 27.1267 221.134 27.8867 221.587 28.74C221.867 29.26 222.194 29.64 222.567 29.88C222.94 30.12 223.307 30.28 223.667 30.36C224.027 30.4267 224.327 30.46 224.567 30.46C224.847 30.46 225.047 30.54 225.167 30.7C225.3 30.8467 225.367 31.0267 225.367 31.24C225.367 31.4533 225.274 31.6533 225.087 31.84C224.9 32.0133 224.66 32.1 224.367 32.1C224.047 32.1 223.674 32.06 223.247 31.98C222.834 31.8867 222.414 31.72 221.987 31.48C221.56 31.2267 221.187 30.86 220.867 30.38C220.6 30.7667 220.267 31.0867 219.867 31.34C219.467 31.5933 218.947 31.7867 218.307 31.92C217.667 32.04 216.854 32.1 215.867 32.1H214.207ZM224.363 32.1L224.563 30.46C225.337 30.46 225.943 30.4333 226.383 30.38C226.837 30.3133 227.157 30.16 227.343 29.92C227.53 29.68 227.623 29.2867 227.623 28.74C227.623 28.2467 227.503 27.6133 227.263 26.84C227.037 26.0667 226.777 25.3 226.483 24.54L228.103 23.94C228.277 24.38 228.437 24.8733 228.583 25.42C228.743 25.9533 228.877 26.4867 228.983 27.02C229.09 27.5533 229.143 28.02 229.143 28.42C229.143 29.7667 228.77 30.72 228.023 31.28C227.277 31.8267 226.057 32.1 224.363 32.1ZM228.063 35.88C227.783 35.88 227.543 35.78 227.343 35.58C227.157 35.3933 227.063 35.1667 227.063 34.9C227.063 34.6333 227.157 34.4 227.343 34.2C227.543 34 227.783 33.9 228.063 33.9C228.33 33.9 228.557 34 228.743 34.2C228.943 34.4 229.043 34.6333 229.043 34.9C229.043 35.1667 228.943 35.3933 228.743 35.58C228.557 35.78 228.33 35.88 228.063 35.88ZM225.323 35.88C225.043 35.88 224.803 35.78 224.603 35.58C224.417 35.3933 224.323 35.1667 224.323 34.9C224.323 34.6333 224.417 34.4 224.603 34.2C224.803 34 225.043 33.9 225.323 33.9C225.59 33.9 225.817 34 226.003 34.2C226.203 34.4 226.303 34.6333 226.303 34.9C226.303 35.1667 226.203 35.3933 226.003 35.58C225.817 35.78 225.59 35.88 225.323 35.88ZM231.04 31.1L231.84 29.72C232.107 29.9067 232.48 30.08 232.96 30.24C233.44 30.3867 234 30.46 234.64 30.46C235.627 30.46 236.327 30.3133 236.74 30.02C237.153 29.7133 237.36 29.2933 237.36 28.76C237.36 28.4933 237.3 28.1667 237.18 27.78C237.073 27.38 236.833 26.8467 236.46 26.18C236.087 25.5 235.513 24.6133 234.74 23.52L236.12 22.62C237.173 24.0867 237.913 25.3333 238.34 26.36C238.767 27.3867 238.98 28.22 238.98 28.86C238.98 29.4067 238.847 29.9267 238.58 30.42C238.313 30.9133 237.867 31.32 237.24 31.64C236.613 31.96 235.747 32.12 234.64 32.12C233.907 32.12 233.227 32.0333 232.6 31.86C231.973 31.6733 231.453 31.42 231.04 31.1ZM245.139 32.02C245.139 31.54 245.206 31.0067 245.339 30.42C245.472 29.8333 245.686 29.1867 245.979 28.48L247.419 29.04C247.206 29.6 247.046 30.1133 246.939 30.58C246.832 31.0467 246.779 31.48 246.779 31.88C246.779 32.6267 246.959 33.2267 247.319 33.68C247.692 34.1333 248.186 34.4667 248.799 34.68C249.426 34.8933 250.112 35 250.859 35C252.072 35 253.019 34.8333 253.699 34.5C254.392 34.1667 254.879 33.7267 255.159 33.18C255.452 32.6467 255.599 32.08 255.599 31.48C255.599 30.6 255.499 29.7933 255.299 29.06C255.112 28.3133 254.906 27.5467 254.679 26.76L256.299 26.32C256.512 27.08 256.659 27.6333 256.739 27.98C256.819 28.3133 256.892 28.5867 256.959 28.8C257.106 29.2933 257.299 29.66 257.539 29.9C257.779 30.1267 258.052 30.28 258.359 30.36C258.666 30.4267 258.992 30.46 259.339 30.46C259.619 30.46 259.819 30.54 259.939 30.7C260.072 30.8467 260.139 31.0267 260.139 31.24C260.139 31.4533 260.046 31.6533 259.859 31.84C259.672 32.0133 259.432 32.1 259.139 32.1C258.726 32.1 258.359 32.0467 258.039 31.94C257.732 31.82 257.472 31.6733 257.259 31.5C257.192 32.1533 257.039 32.7867 256.799 33.4C256.559 34.0133 256.192 34.56 255.699 35.04C255.219 35.5333 254.579 35.92 253.779 36.2C252.979 36.4933 251.986 36.64 250.799 36.64C249.799 36.64 248.866 36.4733 247.999 36.14C247.146 35.8067 246.452 35.3 245.919 34.62C245.399 33.94 245.139 33.0733 245.139 32.02ZM259.148 32.1L259.348 30.46C260.015 30.46 260.535 30.4133 260.908 30.32C261.282 30.2133 261.562 30.02 261.748 29.74C261.948 29.4467 262.108 29.0267 262.228 28.48C262.348 27.9333 262.495 27.22 262.668 26.34L264.228 26.64C264.148 27 264.055 27.4133 263.948 27.88C263.855 28.3467 263.808 28.74 263.808 29.06C263.808 29.26 263.822 29.4467 263.848 29.62C263.875 29.7933 263.975 29.94 264.148 30.06C264.322 30.18 264.615 30.28 265.028 30.36C265.442 30.4267 266.035 30.46 266.808 30.46C267.088 30.46 267.288 30.54 267.408 30.7C267.542 30.8467 267.608 31.0267 267.608 31.24C267.608 31.4533 267.515 31.6533 267.328 31.84C267.142 32.0133 266.902 32.1 266.608 32.1C265.742 32.1 265.062 32.0533 264.568 31.96C264.088 31.8533 263.728 31.7067 263.488 31.52C263.262 31.32 263.095 31.0733 262.988 30.78C262.602 31.3267 262.122 31.6867 261.548 31.86C260.988 32.02 260.188 32.1 259.148 32.1ZM264.188 35.88C263.908 35.88 263.668 35.78 263.468 35.58C263.282 35.3933 263.188 35.1667 263.188 34.9C263.188 34.6333 263.282 34.4 263.468 34.2C263.668 34 263.908 33.9 264.188 33.9C264.455 33.9 264.682 34 264.868 34.2C265.068 34.4 265.168 34.6333 265.168 34.9C265.168 35.1667 265.068 35.3933 264.868 35.58C264.682 35.78 264.455 35.88 264.188 35.88ZM261.448 35.88C261.168 35.88 260.928 35.78 260.728 35.58C260.542 35.3933 260.448 35.1667 260.448 34.9C260.448 34.6333 260.542 34.4 260.728 34.2C260.928 34 261.168 33.9 261.448 33.9C261.715 33.9 261.942 34 262.128 34.2C262.328 34.4 262.428 34.6333 262.428 34.9C262.428 35.1667 262.328 35.3933 262.128 35.58C261.942 35.78 261.715 35.88 261.448 35.88ZM266.609 32.1L266.809 30.46C267.183 30.46 267.496 30.38 267.749 30.22C268.003 30.06 268.249 29.8 268.489 29.44C268.729 29.0667 268.989 28.56 269.269 27.92C269.656 27.0667 270.036 26.42 270.409 25.98C270.796 25.54 271.176 25.24 271.549 25.08C271.936 24.92 272.316 24.84 272.689 24.84C273.143 24.84 273.563 24.96 273.949 25.2C274.336 25.4267 274.676 25.7333 274.969 26.12C275.263 26.5067 275.489 26.9333 275.649 27.4C275.823 27.8533 275.909 28.3067 275.909 28.76C275.909 29.56 275.769 30.2 275.489 30.68C275.209 31.1467 274.849 31.4867 274.409 31.7C273.983 31.9 273.536 32 273.069 32C272.683 32 272.189 31.9333 271.589 31.8C271.003 31.6667 270.263 31.32 269.369 30.76C268.943 31.3733 268.516 31.7533 268.089 31.9C267.663 32.0333 267.169 32.1 266.609 32.1ZM270.349 28.98C270.269 29.1533 270.196 29.32 270.129 29.48C270.703 29.8133 271.223 30.0467 271.689 30.18C272.169 30.3 272.569 30.36 272.889 30.36C273.463 30.36 273.869 30.2333 274.109 29.98C274.349 29.7267 274.469 29.3933 274.469 28.98C274.469 28.5933 274.376 28.2067 274.189 27.82C274.003 27.4333 273.763 27.1133 273.469 26.86C273.189 26.6067 272.889 26.48 272.569 26.48C272.329 26.48 272.096 26.5467 271.869 26.68C271.643 26.8133 271.409 27.06 271.169 27.42C270.929 27.78 270.656 28.3 270.349 28.98Z" fill="white"/>
</svg>
