<svg width="339" height="50" viewBox="0 0 339 50" fill="none" xmlns="http://www.w3.org/2000/svg">
<rect x="0.5" y="0.5" width="338" height="49" rx="24.5" fill="#1F1F1F"/>
<rect x="0.5" y="0.5" width="338" height="49" rx="24.5" stroke="#747775"/>
<path d="M51 22H21V17C21 14.2857 23.2018 12 25.8165 12H46.1835C48.7982 12 51 14.2857 51 17V22Z" fill="#34A853"/>
<path d="M51 26.0537H21V21.0537C21 18.3394 23.2018 16.0537 25.8165 16.0537H46.1835C48.7982 16.0537 51 18.3394 51 21.0537V26.0537Z" fill="#FBBC04"/>
<path d="M51 30.2468H21V25.2468C21 22.5325 23.2018 20.2468 25.8165 20.2468H46.1835C48.7982 20.2468 51 22.5325 51 25.2468V30.2468Z" fill="#EA4335"/>
<path d="M21 23.2752L40.0411 27.6789C42.2329 28.2294 44.6986 27.6789 46.4795 26.3028L51 23V33.3211C51 35.9358 48.8082 38 46.2055 38H25.7945C23.1918 38 21 35.9358 21 33.3211V23.2752Z" fill="#4285F4"/>
<path d="M71.4 32.32C70.3733 32.32 69.4067 32.1333 68.5 31.76C67.5933 31.3867 66.7933 30.8667 66.1 30.2C65.42 29.52 64.88 28.7267 64.48 27.82C64.0933 26.9 63.9 25.9067 63.9 24.84C63.9 23.7733 64.0933 22.7867 64.48 21.88C64.88 20.96 65.42 20.1667 66.1 19.5C66.7933 18.82 67.5933 18.2933 68.5 17.92C69.4067 17.5467 70.3733 17.36 71.4 17.36C72.4933 17.36 73.5 17.5533 74.42 17.94C75.3533 18.3267 76.1333 18.8667 76.76 19.56L75.24 21.06C74.9333 20.7133 74.58 20.42 74.18 20.18C73.7933 19.94 73.3667 19.76 72.9 19.64C72.4333 19.5067 71.9333 19.44 71.4 19.44C70.6933 19.44 70.02 19.5667 69.38 19.82C68.74 20.0733 68.1733 20.44 67.68 20.92C67.2 21.3867 66.82 21.9533 66.54 22.62C66.26 23.2733 66.12 24.0133 66.12 24.84C66.12 25.6667 66.26 26.4133 66.54 27.08C66.8333 27.7333 67.22 28.3 67.7 28.78C68.1933 29.2467 68.76 29.6067 69.4 29.86C70.04 30.1133 70.7133 30.24 71.42 30.24C72.0733 30.24 72.68 30.1467 73.24 29.96C73.8133 29.7733 74.3133 29.5067 74.74 29.16C75.1667 28.8133 75.5133 28.3933 75.78 27.9C76.0467 27.3933 76.2133 26.8267 76.28 26.2H71.38V24.26H78.34C78.3667 24.42 78.3933 24.6067 78.42 24.82C78.4467 25.02 78.46 25.2133 78.46 25.4V25.42C78.46 26.4467 78.28 27.3867 77.92 28.24C77.5733 29.0933 77.0867 29.8267 76.46 30.44C75.8333 31.04 75.0867 31.5067 74.22 31.84C73.3667 32.16 72.4267 32.32 71.4 32.32ZM84.8998 32.32C83.8465 32.32 82.9198 32.08 82.1198 31.6C81.3198 31.12 80.6932 30.4733 80.2398 29.66C79.7865 28.8333 79.5598 27.9133 79.5598 26.9C79.5598 25.8867 79.7865 24.9733 80.2398 24.16C80.6932 23.3333 81.3198 22.68 82.1198 22.2C82.9198 21.72 83.8465 21.48 84.8998 21.48C85.9398 21.48 86.8598 21.7267 87.6598 22.22C88.4598 22.7 89.0865 23.3467 89.5398 24.16C89.9932 24.9733 90.2198 25.8867 90.2198 26.9C90.2198 27.9133 89.9932 28.8333 89.5398 29.66C89.0865 30.4733 88.4598 31.12 87.6598 31.6C86.8598 32.08 85.9398 32.32 84.8998 32.32ZM84.8998 30.34C85.4598 30.34 85.9798 30.2067 86.4598 29.94C86.9398 29.66 87.3265 29.2667 87.6198 28.76C87.9265 28.24 88.0798 27.62 88.0798 26.9C88.0798 26.18 87.9265 25.5667 87.6198 25.06C87.3265 24.54 86.9398 24.1467 86.4598 23.88C85.9798 23.6 85.4598 23.46 84.8998 23.46C84.3398 23.46 83.8132 23.6 83.3198 23.88C82.8398 24.1467 82.4465 24.54 82.1398 25.06C81.8465 25.5667 81.6998 26.18 81.6998 26.9C81.6998 27.62 81.8465 28.24 82.1398 28.76C82.4465 29.2667 82.8465 29.66 83.3398 29.94C83.8332 30.2067 84.3532 30.34 84.8998 30.34ZM97.0092 32.32C95.9559 32.32 95.0292 32.08 94.2292 31.6C93.4292 31.12 92.8026 30.4733 92.3492 29.66C91.8959 28.8333 91.6692 27.9133 91.6692 26.9C91.6692 25.8867 91.8959 24.9733 92.3492 24.16C92.8026 23.3333 93.4292 22.68 94.2292 22.2C95.0292 21.72 95.9559 21.48 97.0092 21.48C98.0492 21.48 98.9692 21.7267 99.7692 22.22C100.569 22.7 101.196 23.3467 101.649 24.16C102.103 24.9733 102.329 25.8867 102.329 26.9C102.329 27.9133 102.103 28.8333 101.649 29.66C101.196 30.4733 100.569 31.12 99.7692 31.6C98.9692 32.08 98.0492 32.32 97.0092 32.32ZM97.0092 30.34C97.5692 30.34 98.0892 30.2067 98.5692 29.94C99.0492 29.66 99.4359 29.2667 99.7292 28.76C100.036 28.24 100.189 27.62 100.189 26.9C100.189 26.18 100.036 25.5667 99.7292 25.06C99.4359 24.54 99.0492 24.1467 98.5692 23.88C98.0892 23.6 97.5692 23.46 97.0092 23.46C96.4492 23.46 95.9226 23.6 95.4292 23.88C94.9492 24.1467 94.5559 24.54 94.2492 25.06C93.9559 25.5667 93.8092 26.18 93.8092 26.9C93.8092 27.62 93.9559 28.24 94.2492 28.76C94.5559 29.2667 94.9559 29.66 95.4492 29.94C95.9426 30.2067 96.4626 30.34 97.0092 30.34ZM108.919 36.64C108.025 36.64 107.252 36.4933 106.599 36.2C105.959 35.92 105.439 35.5533 105.039 35.1C104.639 34.66 104.352 34.2067 104.179 33.74L106.179 32.9C106.392 33.4333 106.732 33.8667 107.199 34.2C107.679 34.5467 108.252 34.72 108.919 34.72C109.865 34.72 110.605 34.44 111.139 33.88C111.672 33.32 111.939 32.5267 111.939 31.5V30.52H111.819C111.499 30.9867 111.059 31.3667 110.499 31.66C109.939 31.9533 109.292 32.1 108.559 32.1C107.692 32.1 106.892 31.88 106.159 31.44C105.439 31 104.859 30.3867 104.419 29.6C103.992 28.8 103.779 27.8667 103.779 26.8C103.779 25.72 103.992 24.7867 104.419 24C104.859 23.2 105.439 22.58 106.159 22.14C106.892 21.7 107.692 21.48 108.559 21.48C109.292 21.48 109.939 21.6267 110.499 21.92C111.059 22.2 111.499 22.5867 111.819 23.08H111.939V21.8H113.999V31.46C113.999 32.5667 113.779 33.5067 113.339 34.28C112.912 35.0533 112.319 35.64 111.559 36.04C110.799 36.44 109.919 36.64 108.919 36.64ZM108.939 30.14C109.472 30.14 109.965 30.0133 110.419 29.76C110.885 29.4933 111.252 29.1133 111.519 28.62C111.799 28.1133 111.939 27.5067 111.939 26.8C111.939 26.0533 111.799 25.4333 111.519 24.94C111.252 24.4467 110.885 24.0733 110.419 23.82C109.965 23.5667 109.472 23.44 108.939 23.44C108.405 23.44 107.905 23.5667 107.439 23.82C106.985 24.0733 106.619 24.4533 106.339 24.96C106.059 25.4533 105.919 26.0667 105.919 26.8C105.919 27.52 106.059 28.1333 106.339 28.64C106.619 29.1333 106.985 29.5067 107.439 29.76C107.905 30.0133 108.405 30.14 108.939 30.14ZM116.546 32V17.68H118.706V32H116.546ZM125.815 32.32C124.815 32.32 123.921 32.0867 123.135 31.62C122.348 31.1533 121.728 30.5133 121.275 29.7C120.835 28.8867 120.615 27.96 120.615 26.92C120.615 25.9467 120.828 25.0467 121.255 24.22C121.681 23.3933 122.275 22.7333 123.035 22.24C123.808 21.7333 124.695 21.48 125.695 21.48C126.748 21.48 127.641 21.7067 128.375 22.16C129.121 22.6133 129.688 23.2333 130.075 24.02C130.461 24.8067 130.655 25.6933 130.655 26.68C130.655 26.8267 130.648 26.96 130.635 27.08C130.635 27.2 130.628 27.2933 130.615 27.36H122.735C122.788 27.92 122.928 28.4067 123.155 28.82C123.448 29.34 123.835 29.7333 124.315 30C124.795 30.2667 125.315 30.4 125.875 30.4C126.555 30.4 127.121 30.2467 127.575 29.94C128.041 29.62 128.408 29.2267 128.675 28.76L130.455 29.62C130.015 30.42 129.415 31.0733 128.655 31.58C127.895 32.0733 126.948 32.32 125.815 32.32ZM122.855 25.74H128.515C128.501 25.4867 128.435 25.22 128.315 24.94C128.195 24.6467 128.021 24.38 127.795 24.14C127.568 23.9 127.281 23.7067 126.935 23.56C126.588 23.4 126.181 23.32 125.715 23.32C125.128 23.32 124.608 23.4733 124.155 23.78C123.701 24.0733 123.348 24.4867 123.095 25.02C122.988 25.2467 122.908 25.4867 122.855 25.74ZM139.446 32L135.606 17.68H138.046L140.326 26.98L140.566 28.22H140.686L140.986 26.98L143.866 17.68H146.066L148.826 26.98L149.126 28.2H149.246L149.486 26.98L151.766 17.68H154.186L150.406 32H148.086L145.346 22.5L145.026 21.16H144.906L144.566 22.5L141.706 32H139.446ZM158.202 32.32C157.469 32.32 156.816 32.1733 156.242 31.88C155.682 31.5867 155.236 31.1867 154.902 30.68C154.582 30.16 154.422 29.5667 154.422 28.9C154.422 28.1667 154.609 27.5467 154.982 27.04C155.369 26.5333 155.882 26.1467 156.522 25.88C157.162 25.6133 157.869 25.48 158.642 25.48C159.069 25.48 159.462 25.5133 159.822 25.58C160.196 25.6333 160.516 25.7 160.782 25.78C161.062 25.86 161.282 25.9467 161.442 26.04V25.5C161.442 24.8333 161.202 24.3 160.722 23.9C160.242 23.5 159.622 23.3 158.862 23.3C158.342 23.3 157.849 23.42 157.382 23.66C156.916 23.8867 156.542 24.2 156.262 24.6L154.782 23.46C155.076 23.0467 155.429 22.6933 155.842 22.4C156.269 22.1067 156.742 21.88 157.262 21.72C157.796 21.56 158.349 21.48 158.922 21.48C160.402 21.48 161.542 21.8467 162.342 22.58C163.142 23.3 163.542 24.3133 163.542 25.62V32H161.442V30.74H161.322C161.149 31.0067 160.909 31.26 160.602 31.5C160.309 31.74 159.956 31.9333 159.542 32.08C159.142 32.24 158.696 32.32 158.202 32.32ZM158.582 30.56C159.142 30.56 159.636 30.4267 160.062 30.16C160.502 29.8933 160.842 29.5467 161.082 29.12C161.322 28.68 161.442 28.2067 161.442 27.7C161.149 27.5267 160.789 27.3867 160.362 27.28C159.949 27.16 159.509 27.1 159.042 27.1C158.162 27.1 157.536 27.2733 157.162 27.62C156.789 27.9667 156.602 28.4 156.602 28.92C156.602 29.4 156.782 29.7933 157.142 30.1C157.502 30.4067 157.982 30.56 158.582 30.56ZM165.94 32V17.68H168.1V32H165.94ZM170.667 32V17.68H172.827V32H170.667ZM179.936 32.32C178.936 32.32 178.042 32.0867 177.256 31.62C176.469 31.1533 175.849 30.5133 175.396 29.7C174.956 28.8867 174.736 27.96 174.736 26.92C174.736 25.9467 174.949 25.0467 175.376 24.22C175.802 23.3933 176.396 22.7333 177.156 22.24C177.929 21.7333 178.816 21.48 179.816 21.48C180.869 21.48 181.762 21.7067 182.496 22.16C183.242 22.6133 183.809 23.2333 184.196 24.02C184.582 24.8067 184.776 25.6933 184.776 26.68C184.776 26.8267 184.769 26.96 184.756 27.08C184.756 27.2 184.749 27.2933 184.736 27.36H176.856C176.909 27.92 177.049 28.4067 177.276 28.82C177.569 29.34 177.956 29.7333 178.436 30C178.916 30.2667 179.436 30.4 179.996 30.4C180.676 30.4 181.242 30.2467 181.696 29.94C182.162 29.62 182.529 29.2267 182.796 28.76L184.576 29.62C184.136 30.42 183.536 31.0733 182.776 31.58C182.016 32.0733 181.069 32.32 179.936 32.32ZM176.976 25.74H182.636C182.622 25.4867 182.556 25.22 182.436 24.94C182.316 24.6467 182.142 24.38 181.916 24.14C181.689 23.9 181.402 23.7067 181.056 23.56C180.709 23.4 180.302 23.32 179.836 23.32C179.249 23.32 178.729 23.4733 178.276 23.78C177.822 24.0733 177.469 24.4867 177.216 25.02C177.109 25.2467 177.029 25.4867 176.976 25.74ZM185.787 21.8H187.567V18.92H189.727V21.8H192.227V23.68H189.727V28.58C189.727 29.0867 189.827 29.4733 190.027 29.74C190.24 30.0067 190.593 30.14 191.087 30.14C191.327 30.14 191.54 30.1067 191.727 30.04C191.913 29.96 192.1 29.8667 192.287 29.76V31.86C192.06 31.9533 191.82 32.0267 191.567 32.08C191.313 32.1333 191.013 32.16 190.667 32.16C189.72 32.16 188.967 31.8867 188.407 31.34C187.847 30.78 187.567 30.0133 187.567 29.04V23.68H185.787V21.8Z" fill="white"/>
<path d="M205.06 32.32C204.007 32.32 203.08 32.08 202.28 31.6C201.48 31.12 200.853 30.4733 200.4 29.66C199.947 28.8333 199.72 27.9133 199.72 26.9C199.72 25.8867 199.947 24.9733 200.4 24.16C200.853 23.3333 201.48 22.68 202.28 22.2C203.08 21.72 204.007 21.48 205.06 21.48C206.1 21.48 207.02 21.7267 207.82 22.22C208.62 22.7 209.247 23.3467 209.7 24.16C210.153 24.9733 210.38 25.8867 210.38 26.9C210.38 27.9133 210.153 28.8333 209.7 29.66C209.247 30.4733 208.62 31.12 207.82 31.6C207.02 32.08 206.1 32.32 205.06 32.32ZM205.06 30.34C205.62 30.34 206.14 30.2067 206.62 29.94C207.1 29.66 207.487 29.2667 207.78 28.76C208.087 28.24 208.24 27.62 208.24 26.9C208.24 26.18 208.087 25.5667 207.78 25.06C207.487 24.54 207.1 24.1467 206.62 23.88C206.14 23.6 205.62 23.46 205.06 23.46C204.5 23.46 203.973 23.6 203.48 23.88C203 24.1467 202.607 24.54 202.3 25.06C202.007 25.5667 201.86 26.18 201.86 26.9C201.86 27.62 202.007 28.24 202.3 28.76C202.607 29.2667 203.007 29.66 203.5 29.94C203.993 30.2067 204.513 30.34 205.06 30.34ZM212.174 32V21.8H214.214V23.3H214.334C214.494 22.9533 214.721 22.6467 215.014 22.38C215.321 22.1133 215.667 21.9 216.054 21.74C216.454 21.58 216.867 21.5 217.294 21.5C217.574 21.5 217.807 21.52 217.994 21.56C218.194 21.5867 218.374 21.6333 218.534 21.7V23.94C218.281 23.8333 218.021 23.7467 217.754 23.68C217.501 23.6133 217.234 23.58 216.954 23.58C216.447 23.58 215.994 23.72 215.594 24C215.207 24.2667 214.901 24.6267 214.674 25.08C214.447 25.5333 214.334 26.04 214.334 26.6V32H212.174ZM227.236 36.32V32.06L227.356 30.64H227.236C227.063 30.92 226.816 31.1933 226.496 31.46C226.189 31.7133 225.823 31.92 225.396 32.08C224.969 32.24 224.489 32.32 223.956 32.32C223.036 32.32 222.203 32.0867 221.456 31.62C220.709 31.1533 220.123 30.5133 219.696 29.7C219.269 28.8867 219.056 27.9533 219.056 26.9C219.056 25.8467 219.269 24.9133 219.696 24.1C220.123 23.2867 220.709 22.6467 221.456 22.18C222.203 21.7133 223.036 21.48 223.956 21.48C224.489 21.48 224.969 21.56 225.396 21.72C225.823 21.88 226.189 22.0933 226.496 22.36C226.816 22.6133 227.063 22.8867 227.236 23.18H227.356V21.8H229.376V36.32H227.236ZM224.276 30.34C224.809 30.34 225.309 30.2 225.776 29.92C226.256 29.64 226.636 29.2467 226.916 28.74C227.209 28.22 227.356 27.6067 227.356 26.9C227.356 26.1933 227.209 25.5867 226.916 25.08C226.636 24.56 226.256 24.16 225.776 23.88C225.309 23.6 224.809 23.46 224.276 23.46C223.743 23.46 223.243 23.6 222.776 23.88C222.309 24.16 221.929 24.56 221.636 25.08C221.343 25.5867 221.196 26.1933 221.196 26.9C221.196 27.5933 221.343 28.2 221.636 28.72C221.929 29.24 222.309 29.64 222.776 29.92C223.243 30.2 223.743 30.34 224.276 30.34ZM234.983 32.32C234.25 32.32 233.597 32.1733 233.023 31.88C232.463 31.5867 232.017 31.1867 231.683 30.68C231.363 30.16 231.203 29.5667 231.203 28.9C231.203 28.1667 231.39 27.5467 231.763 27.04C232.15 26.5333 232.663 26.1467 233.303 25.88C233.943 25.6133 234.65 25.48 235.423 25.48C235.85 25.48 236.243 25.5133 236.603 25.58C236.977 25.6333 237.297 25.7 237.563 25.78C237.843 25.86 238.063 25.9467 238.223 26.04V25.5C238.223 24.8333 237.983 24.3 237.503 23.9C237.023 23.5 236.403 23.3 235.643 23.3C235.123 23.3 234.63 23.42 234.163 23.66C233.697 23.8867 233.323 24.2 233.043 24.6L231.563 23.46C231.857 23.0467 232.21 22.6933 232.623 22.4C233.05 22.1067 233.523 21.88 234.043 21.72C234.577 21.56 235.13 21.48 235.703 21.48C237.183 21.48 238.323 21.8467 239.123 22.58C239.923 23.3 240.323 24.3133 240.323 25.62V32H238.223V30.74H238.103C237.93 31.0067 237.69 31.26 237.383 31.5C237.09 31.74 236.737 31.9333 236.323 32.08C235.923 32.24 235.477 32.32 234.983 32.32ZM235.363 30.56C235.923 30.56 236.417 30.4267 236.843 30.16C237.283 29.8933 237.623 29.5467 237.863 29.12C238.103 28.68 238.223 28.2067 238.223 27.7C237.93 27.5267 237.57 27.3867 237.143 27.28C236.73 27.16 236.29 27.1 235.823 27.1C234.943 27.1 234.317 27.2733 233.943 27.62C233.57 27.9667 233.383 28.4 233.383 28.92C233.383 29.4 233.563 29.7933 233.923 30.1C234.283 30.4067 234.763 30.56 235.363 30.56ZM242.721 32V17.68H244.881V32H242.721ZM247.588 32V21.8H249.748V32H247.588ZM248.668 20.3C248.268 20.3 247.921 20.16 247.628 19.88C247.348 19.5867 247.208 19.24 247.208 18.84C247.208 18.4267 247.348 18.0867 247.628 17.82C247.921 17.54 248.268 17.4 248.668 17.4C249.081 17.4 249.428 17.54 249.708 17.82C249.988 18.0867 250.128 18.4267 250.128 18.84C250.128 19.24 249.988 19.5867 249.708 19.88C249.428 20.16 249.081 20.3 248.668 20.3ZM261.896 32.32C260.843 32.32 259.916 32.08 259.116 31.6C258.316 31.12 257.689 30.4733 257.236 29.66C256.783 28.8333 256.556 27.9133 256.556 26.9C256.556 25.8867 256.783 24.9733 257.236 24.16C257.689 23.3333 258.316 22.68 259.116 22.2C259.916 21.72 260.843 21.48 261.896 21.48C262.936 21.48 263.856 21.7267 264.656 22.22C265.456 22.7 266.083 23.3467 266.536 24.16C266.989 24.9733 267.216 25.8867 267.216 26.9C267.216 27.9133 266.989 28.8333 266.536 29.66C266.083 30.4733 265.456 31.12 264.656 31.6C263.856 32.08 262.936 32.32 261.896 32.32ZM261.896 30.34C262.456 30.34 262.976 30.2067 263.456 29.94C263.936 29.66 264.323 29.2667 264.616 28.76C264.923 28.24 265.076 27.62 265.076 26.9C265.076 26.18 264.923 25.5667 264.616 25.06C264.323 24.54 263.936 24.1467 263.456 23.88C262.976 23.6 262.456 23.46 261.896 23.46C261.336 23.46 260.809 23.6 260.316 23.88C259.836 24.1467 259.443 24.54 259.136 25.06C258.843 25.5667 258.696 26.18 258.696 26.9C258.696 27.62 258.843 28.24 259.136 28.76C259.443 29.2667 259.843 29.66 260.336 29.94C260.829 30.2067 261.349 30.34 261.896 30.34ZM273.925 32.32C272.899 32.32 271.985 32.0867 271.185 31.62C270.399 31.1533 269.779 30.5133 269.325 29.7C268.885 28.8733 268.665 27.94 268.665 26.9C268.665 25.86 268.885 24.9333 269.325 24.12C269.779 23.3067 270.399 22.6667 271.185 22.2C271.985 21.72 272.899 21.48 273.925 21.48C275.059 21.48 276.012 21.7333 276.785 22.24C277.572 22.7467 278.132 23.4333 278.465 24.3L276.505 25.1C276.265 24.5533 275.919 24.1467 275.465 23.88C275.025 23.6 274.499 23.46 273.885 23.46C273.325 23.46 272.812 23.6067 272.345 23.9C271.879 24.18 271.505 24.5733 271.225 25.08C270.945 25.5867 270.805 26.1933 270.805 26.9C270.805 27.5933 270.945 28.2 271.225 28.72C271.505 29.24 271.879 29.64 272.345 29.92C272.812 30.2 273.325 30.34 273.885 30.34C274.539 30.34 275.092 30.1933 275.545 29.9C275.999 29.6067 276.352 29.1933 276.605 28.66L278.525 29.5C278.152 30.3133 277.572 30.9867 276.785 31.52C276.012 32.0533 275.059 32.32 273.925 32.32ZM280.377 32V17.68H282.537V21.6L282.417 23.2H282.537C282.817 22.7067 283.244 22.3 283.817 21.98C284.404 21.6467 285.051 21.48 285.757 21.48C286.611 21.48 287.317 21.6533 287.877 22C288.451 22.3467 288.877 22.8267 289.157 23.44C289.437 24.04 289.577 24.7467 289.577 25.56V32H287.437V25.84C287.437 25.2933 287.331 24.8467 287.117 24.5C286.917 24.1533 286.651 23.8933 286.317 23.72C285.984 23.5467 285.611 23.46 285.197 23.46C284.677 23.46 284.217 23.6067 283.817 23.9C283.417 24.1933 283.104 24.58 282.877 25.06C282.651 25.5267 282.537 26.0267 282.537 26.56V32H280.377ZM292.197 32V21.8H294.357V32H292.197ZM293.277 20.3C292.877 20.3 292.531 20.16 292.237 19.88C291.957 19.5867 291.817 19.24 291.817 18.84C291.817 18.4267 291.957 18.0867 292.237 17.82C292.531 17.54 292.877 17.4 293.277 17.4C293.691 17.4 294.037 17.54 294.317 17.82C294.597 18.0867 294.737 18.4267 294.737 18.84C294.737 19.24 294.597 19.5867 294.317 19.88C294.037 20.16 293.691 20.3 293.277 20.3ZM300.757 32.32C299.944 32.32 299.237 32.2 298.637 31.96C298.037 31.7067 297.544 31.3733 297.157 30.96C296.771 30.5333 296.484 30.0733 296.297 29.58L298.237 28.74C298.477 29.2867 298.817 29.7067 299.257 30C299.711 30.28 300.231 30.42 300.817 30.42C301.351 30.42 301.811 30.3267 302.197 30.14C302.584 29.94 302.777 29.62 302.777 29.18C302.777 28.9 302.684 28.6733 302.497 28.5C302.324 28.3133 302.084 28.16 301.777 28.04C301.484 27.92 301.144 27.8133 300.757 27.72L299.537 27.44C299.057 27.32 298.597 27.1333 298.157 26.88C297.731 26.6133 297.384 26.28 297.117 25.88C296.851 25.48 296.717 25.0067 296.717 24.46C296.717 23.8467 296.891 23.32 297.237 22.88C297.597 22.4267 298.077 22.08 298.677 21.84C299.277 21.6 299.924 21.48 300.617 21.48C301.257 21.48 301.837 21.5667 302.357 21.74C302.891 21.9 303.351 22.1467 303.737 22.48C304.137 22.8 304.451 23.2 304.677 23.68L302.817 24.52C302.591 24.0667 302.284 23.7533 301.897 23.58C301.511 23.3933 301.091 23.3 300.637 23.3C300.131 23.3 299.704 23.4067 299.357 23.62C299.024 23.82 298.857 24.0867 298.857 24.42C298.857 24.7667 299.004 25.04 299.297 25.24C299.604 25.44 299.977 25.6 300.417 25.72L301.897 26.08C302.911 26.3333 303.671 26.72 304.177 27.24C304.684 27.7467 304.937 28.3667 304.937 29.1C304.937 29.7533 304.751 30.3267 304.377 30.82C304.004 31.3 303.497 31.6733 302.857 31.94C302.231 32.1933 301.531 32.32 300.757 32.32ZM306.823 32V17.68H308.983V21.6L308.863 23.2H308.983C309.263 22.7067 309.689 22.3 310.263 21.98C310.849 21.6467 311.496 21.48 312.203 21.48C313.056 21.48 313.763 21.6533 314.323 22C314.896 22.3467 315.323 22.8267 315.603 23.44C315.883 24.04 316.023 24.7467 316.023 25.56V32H313.883V25.84C313.883 25.2933 313.776 24.8467 313.563 24.5C313.363 24.1533 313.096 23.8933 312.763 23.72C312.429 23.5467 312.056 23.46 311.643 23.46C311.123 23.46 310.663 23.6067 310.263 23.9C309.863 24.1933 309.549 24.58 309.323 25.06C309.096 25.5267 308.983 26.0267 308.983 26.56V32H306.823Z" fill="white"/>
</svg>
