<svg width="318" height="50" viewBox="0 0 318 50" fill="none" xmlns="http://www.w3.org/2000/svg">
<rect x="0.5" y="0.5" width="317" height="49" rx="24.5" fill="#1F1F1F"/>
<rect x="0.5" y="0.5" width="317" height="49" rx="24.5" stroke="#747775"/>
<path d="M51 22H21V17C21 14.2857 23.2018 12 25.8165 12H46.1835C48.7982 12 51 14.2857 51 17V22Z" fill="#34A853"/>
<path d="M51 26.0537H21V21.0537C21 18.3394 23.2018 16.0537 25.8165 16.0537H46.1835C48.7982 16.0537 51 18.3394 51 21.0537V26.0537Z" fill="#FBBC04"/>
<path d="M51 30.2468H21V25.2468C21 22.5325 23.2018 20.2468 25.8165 20.2468H46.1835C48.7982 20.2468 51 22.5325 51 25.2468V30.2468Z" fill="#EA4335"/>
<path d="M21 23.2752L40.0411 27.6789C42.2329 28.2294 44.6986 27.6789 46.4795 26.3028L51 23V33.3211C51 35.9358 48.8082 38 46.2055 38H25.7945C23.1918 38 21 35.9358 21 33.3211V23.2752Z" fill="#4285F4"/>
<path d="M63.68 17.68H66.38L69.56 22.82H69.68L72.88 17.68H75.56L71.1 24.56L75.88 32H73.2L69.68 26.42H69.56L66.04 32H63.36L68.14 24.56L63.68 17.68ZM81.6544 32.32C80.6544 32.32 79.761 32.0867 78.9744 31.62C78.1877 31.1533 77.5677 30.5133 77.1144 29.7C76.6744 28.8867 76.4544 27.96 76.4544 26.92C76.4544 25.9467 76.6677 25.0467 77.0944 24.22C77.521 23.3933 78.1144 22.7333 78.8744 22.24C79.6477 21.7333 80.5344 21.48 81.5344 21.48C82.5877 21.48 83.481 21.7067 84.2144 22.16C84.961 22.6133 85.5277 23.2333 85.9144 24.02C86.301 24.8067 86.4944 25.6933 86.4944 26.68C86.4944 26.8267 86.4877 26.96 86.4744 27.08C86.4744 27.2 86.4677 27.2933 86.4544 27.36H78.5744C78.6277 27.92 78.7677 28.4067 78.9944 28.82C79.2877 29.34 79.6744 29.7333 80.1544 30C80.6344 30.2667 81.1544 30.4 81.7144 30.4C82.3944 30.4 82.961 30.2467 83.4144 29.94C83.881 29.62 84.2477 29.2267 84.5144 28.76L86.2944 29.62C85.8544 30.42 85.2544 31.0733 84.4944 31.58C83.7344 32.0733 82.7877 32.32 81.6544 32.32ZM78.6944 25.74H84.3544C84.341 25.4867 84.2744 25.22 84.1544 24.94C84.0344 24.6467 83.861 24.38 83.6344 24.14C83.4077 23.9 83.121 23.7067 82.7744 23.56C82.4277 23.4 82.021 23.32 81.5544 23.32C80.9677 23.32 80.4477 23.4733 79.9944 23.78C79.541 24.0733 79.1877 24.4867 78.9344 25.02C78.8277 25.2467 78.7477 25.4867 78.6944 25.74ZM88.4983 32V21.8H90.5383V23.2H90.6583C90.8583 22.8667 91.1183 22.5733 91.4383 22.32C91.7583 22.0667 92.1183 21.8667 92.5183 21.72C92.9316 21.56 93.3583 21.48 93.7983 21.48C94.5583 21.48 95.2049 21.66 95.7383 22.02C96.2716 22.38 96.6516 22.8333 96.8783 23.38C97.2116 22.8467 97.6649 22.4 98.2383 22.04C98.8116 21.6667 99.5116 21.48 100.338 21.48C101.538 21.48 102.432 21.8467 103.018 22.58C103.605 23.3 103.898 24.26 103.898 25.46V32H101.758V25.82C101.758 24.9933 101.578 24.3933 101.218 24.02C100.872 23.6467 100.385 23.46 99.7583 23.46C99.2649 23.46 98.8316 23.6 98.4583 23.88C98.0849 24.1467 97.7916 24.5133 97.5783 24.98C97.3783 25.4467 97.2783 25.9667 97.2783 26.54V32H95.1383V25.82C95.1383 25.0067 94.9583 24.4133 94.5983 24.04C94.2383 23.6533 93.7316 23.46 93.0783 23.46C92.6116 23.46 92.1916 23.6 91.8183 23.88C91.4583 24.16 91.1716 24.5333 90.9583 25C90.7583 25.4667 90.6583 25.9867 90.6583 26.56V32H88.4983ZM110.298 21.8H112.078V18.92H114.238V21.8H116.738V23.68H114.238V28.58C114.238 29.0867 114.338 29.4733 114.538 29.74C114.752 30.0067 115.105 30.14 115.598 30.14C115.838 30.14 116.052 30.1067 116.238 30.04C116.425 29.96 116.612 29.8667 116.798 29.76V31.86C116.572 31.9533 116.332 32.0267 116.078 32.08C115.825 32.1333 115.525 32.16 115.178 32.16C114.232 32.16 113.478 31.8867 112.918 31.34C112.358 30.78 112.078 30.0133 112.078 29.04V23.68H110.298V21.8ZM118.811 32V21.8H120.851V23.3H120.971C121.131 22.9533 121.357 22.6467 121.651 22.38C121.957 22.1133 122.304 21.9 122.691 21.74C123.091 21.58 123.504 21.5 123.931 21.5C124.211 21.5 124.444 21.52 124.631 21.56C124.831 21.5867 125.011 21.6333 125.171 21.7V23.94C124.917 23.8333 124.657 23.7467 124.391 23.68C124.137 23.6133 123.871 23.58 123.591 23.58C123.084 23.58 122.631 23.72 122.231 24C121.844 24.2667 121.537 24.6267 121.311 25.08C121.084 25.5333 120.971 26.04 120.971 26.6V32H118.811ZM131.033 32.32C129.979 32.32 129.053 32.08 128.253 31.6C127.453 31.12 126.826 30.4733 126.373 29.66C125.919 28.8333 125.693 27.9133 125.693 26.9C125.693 25.8867 125.919 24.9733 126.373 24.16C126.826 23.3333 127.453 22.68 128.253 22.2C129.053 21.72 129.979 21.48 131.033 21.48C132.073 21.48 132.993 21.7267 133.793 22.22C134.593 22.7 135.219 23.3467 135.673 24.16C136.126 24.9733 136.353 25.8867 136.353 26.9C136.353 27.9133 136.126 28.8333 135.673 29.66C135.219 30.4733 134.593 31.12 133.793 31.6C132.993 32.08 132.073 32.32 131.033 32.32ZM131.033 30.34C131.593 30.34 132.113 30.2067 132.593 29.94C133.073 29.66 133.459 29.2667 133.753 28.76C134.059 28.24 134.213 27.62 134.213 26.9C134.213 26.18 134.059 25.5667 133.753 25.06C133.459 24.54 133.073 24.1467 132.593 23.88C132.113 23.6 131.593 23.46 131.033 23.46C130.473 23.46 129.946 23.6 129.453 23.88C128.973 24.1467 128.579 24.54 128.273 25.06C127.979 25.5667 127.833 26.18 127.833 26.9C127.833 27.62 127.979 28.24 128.273 28.76C128.579 29.2667 128.979 29.66 129.473 29.94C129.966 30.2067 130.486 30.34 131.033 30.34ZM138.147 32V21.8H140.187V23.2H140.307C140.6 22.7067 141.033 22.3 141.607 21.98C142.193 21.6467 142.833 21.48 143.527 21.48C144.78 21.48 145.72 21.8533 146.347 22.6C146.973 23.3333 147.287 24.32 147.287 25.56V32H145.147V25.84C145.147 25.0133 144.94 24.4133 144.527 24.04C144.113 23.6533 143.573 23.46 142.907 23.46C142.387 23.46 141.933 23.6067 141.547 23.9C141.16 24.18 140.853 24.5533 140.627 25.02C140.413 25.4867 140.307 25.9867 140.307 26.52V32H138.147ZM154.251 36.64C153.357 36.64 152.584 36.4933 151.931 36.2C151.291 35.92 150.771 35.5533 150.371 35.1C149.971 34.66 149.684 34.2067 149.511 33.74L151.511 32.9C151.724 33.4333 152.064 33.8667 152.531 34.2C153.011 34.5467 153.584 34.72 154.251 34.72C155.197 34.72 155.937 34.44 156.471 33.88C157.004 33.32 157.271 32.5267 157.271 31.5V30.52H157.151C156.831 30.9867 156.391 31.3667 155.831 31.66C155.271 31.9533 154.624 32.1 153.891 32.1C153.024 32.1 152.224 31.88 151.491 31.44C150.771 31 150.191 30.3867 149.751 29.6C149.324 28.8 149.111 27.8667 149.111 26.8C149.111 25.72 149.324 24.7867 149.751 24C150.191 23.2 150.771 22.58 151.491 22.14C152.224 21.7 153.024 21.48 153.891 21.48C154.624 21.48 155.271 21.6267 155.831 21.92C156.391 22.2 156.831 22.5867 157.151 23.08H157.271V21.8H159.331V31.46C159.331 32.5667 159.111 33.5067 158.671 34.28C158.244 35.0533 157.651 35.64 156.891 36.04C156.131 36.44 155.251 36.64 154.251 36.64ZM154.271 30.14C154.804 30.14 155.297 30.0133 155.751 29.76C156.217 29.4933 156.584 29.1133 156.851 28.62C157.131 28.1133 157.271 27.5067 157.271 26.8C157.271 26.0533 157.131 25.4333 156.851 24.94C156.584 24.4467 156.217 24.0733 155.751 23.82C155.297 23.5667 154.804 23.44 154.271 23.44C153.737 23.44 153.237 23.5667 152.771 23.82C152.317 24.0733 151.951 24.4533 151.671 24.96C151.391 25.4533 151.251 26.0667 151.251 26.8C151.251 27.52 151.391 28.1333 151.671 28.64C151.951 29.1333 152.317 29.5067 152.771 29.76C153.237 30.0133 153.737 30.14 154.271 30.14Z" fill="white"/>
<path d="M174.4 32.32C173.373 32.32 172.407 32.1333 171.5 31.76C170.593 31.3867 169.793 30.8667 169.1 30.2C168.42 29.52 167.88 28.7267 167.48 27.82C167.093 26.9 166.9 25.9067 166.9 24.84C166.9 23.7733 167.093 22.7867 167.48 21.88C167.88 20.96 168.42 20.1667 169.1 19.5C169.793 18.82 170.593 18.2933 171.5 17.92C172.407 17.5467 173.373 17.36 174.4 17.36C175.493 17.36 176.5 17.5533 177.42 17.94C178.353 18.3267 179.133 18.8667 179.76 19.56L178.24 21.06C177.933 20.7133 177.58 20.42 177.18 20.18C176.793 19.94 176.367 19.76 175.9 19.64C175.433 19.5067 174.933 19.44 174.4 19.44C173.693 19.44 173.02 19.5667 172.38 19.82C171.74 20.0733 171.173 20.44 170.68 20.92C170.2 21.3867 169.82 21.9533 169.54 22.62C169.26 23.2733 169.12 24.0133 169.12 24.84C169.12 25.6667 169.26 26.4133 169.54 27.08C169.833 27.7333 170.22 28.3 170.7 28.78C171.193 29.2467 171.76 29.6067 172.4 29.86C173.04 30.1133 173.713 30.24 174.42 30.24C175.073 30.24 175.68 30.1467 176.24 29.96C176.813 29.7733 177.313 29.5067 177.74 29.16C178.167 28.8133 178.513 28.3933 178.78 27.9C179.047 27.3933 179.213 26.8267 179.28 26.2H174.38V24.26H181.34C181.367 24.42 181.393 24.6067 181.42 24.82C181.447 25.02 181.46 25.2133 181.46 25.4V25.42C181.46 26.4467 181.28 27.3867 180.92 28.24C180.573 29.0933 180.087 29.8267 179.46 30.44C178.833 31.04 178.087 31.5067 177.22 31.84C176.367 32.16 175.427 32.32 174.4 32.32ZM187.9 32.32C186.847 32.32 185.92 32.08 185.12 31.6C184.32 31.12 183.693 30.4733 183.24 29.66C182.787 28.8333 182.56 27.9133 182.56 26.9C182.56 25.8867 182.787 24.9733 183.24 24.16C183.693 23.3333 184.32 22.68 185.12 22.2C185.92 21.72 186.847 21.48 187.9 21.48C188.94 21.48 189.86 21.7267 190.66 22.22C191.46 22.7 192.087 23.3467 192.54 24.16C192.993 24.9733 193.22 25.8867 193.22 26.9C193.22 27.9133 192.993 28.8333 192.54 29.66C192.087 30.4733 191.46 31.12 190.66 31.6C189.86 32.08 188.94 32.32 187.9 32.32ZM187.9 30.34C188.46 30.34 188.98 30.2067 189.46 29.94C189.94 29.66 190.327 29.2667 190.62 28.76C190.927 28.24 191.08 27.62 191.08 26.9C191.08 26.18 190.927 25.5667 190.62 25.06C190.327 24.54 189.94 24.1467 189.46 23.88C188.98 23.6 188.46 23.46 187.9 23.46C187.34 23.46 186.813 23.6 186.32 23.88C185.84 24.1467 185.447 24.54 185.14 25.06C184.847 25.5667 184.7 26.18 184.7 26.9C184.7 27.62 184.847 28.24 185.14 28.76C185.447 29.2667 185.847 29.66 186.34 29.94C186.833 30.2067 187.353 30.34 187.9 30.34ZM200.009 32.32C198.956 32.32 198.029 32.08 197.229 31.6C196.429 31.12 195.803 30.4733 195.349 29.66C194.896 28.8333 194.669 27.9133 194.669 26.9C194.669 25.8867 194.896 24.9733 195.349 24.16C195.803 23.3333 196.429 22.68 197.229 22.2C198.029 21.72 198.956 21.48 200.009 21.48C201.049 21.48 201.969 21.7267 202.769 22.22C203.569 22.7 204.196 23.3467 204.649 24.16C205.103 24.9733 205.329 25.8867 205.329 26.9C205.329 27.9133 205.103 28.8333 204.649 29.66C204.196 30.4733 203.569 31.12 202.769 31.6C201.969 32.08 201.049 32.32 200.009 32.32ZM200.009 30.34C200.569 30.34 201.089 30.2067 201.569 29.94C202.049 29.66 202.436 29.2667 202.729 28.76C203.036 28.24 203.189 27.62 203.189 26.9C203.189 26.18 203.036 25.5667 202.729 25.06C202.436 24.54 202.049 24.1467 201.569 23.88C201.089 23.6 200.569 23.46 200.009 23.46C199.449 23.46 198.923 23.6 198.429 23.88C197.949 24.1467 197.556 24.54 197.249 25.06C196.956 25.5667 196.809 26.18 196.809 26.9C196.809 27.62 196.956 28.24 197.249 28.76C197.556 29.2667 197.956 29.66 198.449 29.94C198.943 30.2067 199.463 30.34 200.009 30.34ZM211.919 36.64C211.025 36.64 210.252 36.4933 209.599 36.2C208.959 35.92 208.439 35.5533 208.039 35.1C207.639 34.66 207.352 34.2067 207.179 33.74L209.179 32.9C209.392 33.4333 209.732 33.8667 210.199 34.2C210.679 34.5467 211.252 34.72 211.919 34.72C212.865 34.72 213.605 34.44 214.139 33.88C214.672 33.32 214.939 32.5267 214.939 31.5V30.52H214.819C214.499 30.9867 214.059 31.3667 213.499 31.66C212.939 31.9533 212.292 32.1 211.559 32.1C210.692 32.1 209.892 31.88 209.159 31.44C208.439 31 207.859 30.3867 207.419 29.6C206.992 28.8 206.779 27.8667 206.779 26.8C206.779 25.72 206.992 24.7867 207.419 24C207.859 23.2 208.439 22.58 209.159 22.14C209.892 21.7 210.692 21.48 211.559 21.48C212.292 21.48 212.939 21.6267 213.499 21.92C214.059 22.2 214.499 22.5867 214.819 23.08H214.939V21.8H216.999V31.46C216.999 32.5667 216.779 33.5067 216.339 34.28C215.912 35.0533 215.319 35.64 214.559 36.04C213.799 36.44 212.919 36.64 211.919 36.64ZM211.939 30.14C212.472 30.14 212.965 30.0133 213.419 29.76C213.885 29.4933 214.252 29.1133 214.519 28.62C214.799 28.1133 214.939 27.5067 214.939 26.8C214.939 26.0533 214.799 25.4333 214.519 24.94C214.252 24.4467 213.885 24.0733 213.419 23.82C212.965 23.5667 212.472 23.44 211.939 23.44C211.405 23.44 210.905 23.5667 210.439 23.82C209.985 24.0733 209.619 24.4533 209.339 24.96C209.059 25.4533 208.919 26.0667 208.919 26.8C208.919 27.52 209.059 28.1333 209.339 28.64C209.619 29.1333 209.985 29.5067 210.439 29.76C210.905 30.0133 211.405 30.14 211.939 30.14ZM219.546 32V17.68H221.706V32H219.546ZM228.815 32.32C227.815 32.32 226.921 32.0867 226.135 31.62C225.348 31.1533 224.728 30.5133 224.275 29.7C223.835 28.8867 223.615 27.96 223.615 26.92C223.615 25.9467 223.828 25.0467 224.255 24.22C224.681 23.3933 225.275 22.7333 226.035 22.24C226.808 21.7333 227.695 21.48 228.695 21.48C229.748 21.48 230.641 21.7067 231.375 22.16C232.121 22.6133 232.688 23.2333 233.075 24.02C233.461 24.8067 233.655 25.6933 233.655 26.68C233.655 26.8267 233.648 26.96 233.635 27.08C233.635 27.2 233.628 27.2933 233.615 27.36H225.735C225.788 27.92 225.928 28.4067 226.155 28.82C226.448 29.34 226.835 29.7333 227.315 30C227.795 30.2667 228.315 30.4 228.875 30.4C229.555 30.4 230.121 30.2467 230.575 29.94C231.041 29.62 231.408 29.2267 231.675 28.76L233.455 29.62C233.015 30.42 232.415 31.0733 231.655 31.58C230.895 32.0733 229.948 32.32 228.815 32.32ZM225.855 25.74H231.515C231.501 25.4867 231.435 25.22 231.315 24.94C231.195 24.6467 231.021 24.38 230.795 24.14C230.568 23.9 230.281 23.7067 229.935 23.56C229.588 23.4 229.181 23.32 228.715 23.32C228.128 23.32 227.608 23.4733 227.155 23.78C226.701 24.0733 226.348 24.4867 226.095 25.02C225.988 25.2467 225.908 25.4867 225.855 25.74ZM242.446 32L238.606 17.68H241.046L243.326 26.98L243.566 28.22H243.686L243.986 26.98L246.866 17.68H249.066L251.826 26.98L252.126 28.2H252.246L252.486 26.98L254.766 17.68H257.186L253.406 32H251.086L248.346 22.5L248.026 21.16H247.906L247.566 22.5L244.706 32H242.446ZM261.202 32.32C260.469 32.32 259.816 32.1733 259.242 31.88C258.682 31.5867 258.236 31.1867 257.902 30.68C257.582 30.16 257.422 29.5667 257.422 28.9C257.422 28.1667 257.609 27.5467 257.982 27.04C258.369 26.5333 258.882 26.1467 259.522 25.88C260.162 25.6133 260.869 25.48 261.642 25.48C262.069 25.48 262.462 25.5133 262.822 25.58C263.196 25.6333 263.516 25.7 263.782 25.78C264.062 25.86 264.282 25.9467 264.442 26.04V25.5C264.442 24.8333 264.202 24.3 263.722 23.9C263.242 23.5 262.622 23.3 261.862 23.3C261.342 23.3 260.849 23.42 260.382 23.66C259.916 23.8867 259.542 24.2 259.262 24.6L257.782 23.46C258.076 23.0467 258.429 22.6933 258.842 22.4C259.269 22.1067 259.742 21.88 260.262 21.72C260.796 21.56 261.349 21.48 261.922 21.48C263.402 21.48 264.542 21.8467 265.342 22.58C266.142 23.3 266.542 24.3133 266.542 25.62V32H264.442V30.74H264.322C264.149 31.0067 263.909 31.26 263.602 31.5C263.309 31.74 262.956 31.9333 262.542 32.08C262.142 32.24 261.696 32.32 261.202 32.32ZM261.582 30.56C262.142 30.56 262.636 30.4267 263.062 30.16C263.502 29.8933 263.842 29.5467 264.082 29.12C264.322 28.68 264.442 28.2067 264.442 27.7C264.149 27.5267 263.789 27.3867 263.362 27.28C262.949 27.16 262.509 27.1 262.042 27.1C261.162 27.1 260.536 27.2733 260.162 27.62C259.789 27.9667 259.602 28.4 259.602 28.92C259.602 29.4 259.782 29.7933 260.142 30.1C260.502 30.4067 260.982 30.56 261.582 30.56ZM268.94 32V17.68H271.1V32H268.94ZM273.667 32V17.68H275.827V32H273.667ZM282.936 32.32C281.936 32.32 281.042 32.0867 280.256 31.62C279.469 31.1533 278.849 30.5133 278.396 29.7C277.956 28.8867 277.736 27.96 277.736 26.92C277.736 25.9467 277.949 25.0467 278.376 24.22C278.802 23.3933 279.396 22.7333 280.156 22.24C280.929 21.7333 281.816 21.48 282.816 21.48C283.869 21.48 284.762 21.7067 285.496 22.16C286.242 22.6133 286.809 23.2333 287.196 24.02C287.582 24.8067 287.776 25.6933 287.776 26.68C287.776 26.8267 287.769 26.96 287.756 27.08C287.756 27.2 287.749 27.2933 287.736 27.36H279.856C279.909 27.92 280.049 28.4067 280.276 28.82C280.569 29.34 280.956 29.7333 281.436 30C281.916 30.2667 282.436 30.4 282.996 30.4C283.676 30.4 284.242 30.2467 284.696 29.94C285.162 29.62 285.529 29.2267 285.796 28.76L287.576 29.62C287.136 30.42 286.536 31.0733 285.776 31.58C285.016 32.0733 284.069 32.32 282.936 32.32ZM279.976 25.74H285.636C285.622 25.4867 285.556 25.22 285.436 24.94C285.316 24.6467 285.142 24.38 284.916 24.14C284.689 23.9 284.402 23.7067 284.056 23.56C283.709 23.4 283.302 23.32 282.836 23.32C282.249 23.32 281.729 23.4733 281.276 23.78C280.822 24.0733 280.469 24.4867 280.216 25.02C280.109 25.2467 280.029 25.4867 279.976 25.74ZM288.787 21.8H290.567V18.92H292.727V21.8H295.227V23.68H292.727V28.58C292.727 29.0867 292.827 29.4733 293.027 29.74C293.24 30.0067 293.593 30.14 294.087 30.14C294.327 30.14 294.54 30.1067 294.727 30.04C294.913 29.96 295.1 29.8667 295.287 29.76V31.86C295.06 31.9533 294.82 32.0267 294.567 32.08C294.313 32.1333 294.013 32.16 293.667 32.16C292.72 32.16 291.967 31.8867 291.407 31.34C290.847 30.78 290.567 30.0133 290.567 29.04V23.68H288.787V21.8Z" fill="white"/>
</svg>
