<svg width="297" height="50" viewBox="0 0 297 50" fill="none" xmlns="http://www.w3.org/2000/svg">
<rect x="0.5" y="0.5" width="296" height="49" rx="24.5" fill="#1F1F1F"/>
<rect x="0.5" y="0.5" width="296" height="49" rx="24.5" stroke="#747775"/>
<path d="M51 22H21V17C21 14.2857 23.2018 12 25.8165 12H46.1835C48.7982 12 51 14.2857 51 17V22Z" fill="#34A853"/>
<path d="M51 26.0537H21V21.0537C21 18.3394 23.2018 16.0537 25.8165 16.0537H46.1835C48.7982 16.0537 51 18.3394 51 21.0537V26.0537Z" fill="#FBBC04"/>
<path d="M51 30.2468H21V25.2468C21 22.5325 23.2018 20.2468 25.8165 20.2468H46.1835C48.7982 20.2468 51 22.5325 51 25.2468V30.2468Z" fill="#EA4335"/>
<path d="M21 23.2752L40.0411 27.6789C42.2329 28.2294 44.6986 27.6789 46.4795 26.3028L51 23V33.3211C51 35.9358 48.8082 38 46.2055 38H25.7945C23.1918 38 21 35.9358 21 33.3211V23.2752Z" fill="#4285F4"/>
<path d="M64.62 32V17.68H69.98C70.7667 17.68 71.48 17.8467 72.12 18.18C72.76 18.5133 73.2667 18.9667 73.64 19.54C74.0267 20.1133 74.22 20.76 74.22 21.48C74.22 22.2133 74.04 22.84 73.68 23.36C73.32 23.88 72.8533 24.2733 72.28 24.54V24.64C73 24.88 73.5867 25.2933 74.04 25.88C74.4933 26.4667 74.72 27.1667 74.72 27.98C74.72 28.78 74.5133 29.48 74.1 30.08C73.7 30.68 73.1533 31.1533 72.46 31.5C71.78 31.8333 71.0333 32 70.22 32H64.62ZM66.82 25.66V29.96H70.22C70.7 29.96 71.1133 29.86 71.46 29.66C71.8067 29.46 72.0667 29.1933 72.24 28.86C72.4267 28.5267 72.52 28.18 72.52 27.82C72.52 27.4333 72.4267 27.08 72.24 26.76C72.0533 26.4267 71.78 26.16 71.42 25.96C71.0733 25.76 70.6467 25.66 70.14 25.66H66.82ZM66.82 23.7H69.88C70.3467 23.7 70.74 23.6067 71.06 23.42C71.3933 23.22 71.6467 22.9667 71.82 22.66C71.9933 22.34 72.08 22.0133 72.08 21.68C72.08 21.3467 71.9933 21.0333 71.82 20.74C71.66 20.4333 71.42 20.1867 71.1 20C70.78 19.8 70.4 19.7 69.96 19.7H66.82V23.7ZM80.4795 32.32C79.2262 32.32 78.2795 31.9467 77.6395 31.2C77.0129 30.44 76.6995 29.4133 76.6995 28.12V21.8H78.8595V27.82C78.8595 28.6733 79.0595 29.3067 79.4595 29.72C79.8729 30.1333 80.3862 30.34 80.9995 30.34C81.5595 30.34 82.0395 30.2 82.4395 29.92C82.8395 29.6267 83.1462 29.2467 83.3595 28.78C83.5862 28.3133 83.6995 27.8133 83.6995 27.28V21.8H85.8395V32H83.8195V30.62H83.6995C83.5129 30.94 83.2529 31.2267 82.9195 31.48C82.5862 31.7333 82.2129 31.9333 81.7995 32.08C81.3862 32.24 80.9462 32.32 80.4795 32.32ZM88.3811 32V17.68H90.5411V26.12L94.8611 21.8H97.5411V21.92L93.6011 25.82L97.6811 31.88V32H95.1211L92.0811 27.32L90.5411 28.84V32H88.3811ZM102.03 32.32C101.297 32.32 100.644 32.1733 100.07 31.88C99.5103 31.5867 99.0636 31.1867 98.7303 30.68C98.4103 30.16 98.2503 29.5667 98.2503 28.9C98.2503 28.1667 98.437 27.5467 98.8103 27.04C99.197 26.5333 99.7103 26.1467 100.35 25.88C100.99 25.6133 101.697 25.48 102.47 25.48C102.897 25.48 103.29 25.5133 103.65 25.58C104.024 25.6333 104.344 25.7 104.61 25.78C104.89 25.86 105.11 25.9467 105.27 26.04V25.5C105.27 24.8333 105.03 24.3 104.55 23.9C104.07 23.5 103.45 23.3 102.69 23.3C102.17 23.3 101.677 23.42 101.21 23.66C100.744 23.8867 100.37 24.2 100.09 24.6L98.6103 23.46C98.9036 23.0467 99.257 22.6933 99.6703 22.4C100.097 22.1067 100.57 21.88 101.09 21.72C101.624 21.56 102.177 21.48 102.75 21.48C104.23 21.48 105.37 21.8467 106.17 22.58C106.97 23.3 107.37 24.3133 107.37 25.62V32H105.27V30.74H105.15C104.977 31.0067 104.737 31.26 104.43 31.5C104.137 31.74 103.784 31.9333 103.37 32.08C102.97 32.24 102.524 32.32 102.03 32.32ZM102.41 30.56C102.97 30.56 103.464 30.4267 103.89 30.16C104.33 29.8933 104.67 29.5467 104.91 29.12C105.15 28.68 105.27 28.2067 105.27 27.7C104.977 27.5267 104.617 27.3867 104.19 27.28C103.777 27.16 103.337 27.1 102.87 27.1C101.99 27.1 101.364 27.2733 100.99 27.62C100.617 27.9667 100.43 28.4 100.43 28.92C100.43 29.4 100.61 29.7933 100.97 30.1C101.33 30.4067 101.81 30.56 102.41 30.56Z" fill="white"/>
<path d="M115.26 32V17.68H117.42V26.12L121.74 21.8H124.42V21.92L120.48 25.82L124.56 31.88V32H122L118.96 27.32L117.42 28.84V32H115.26ZM129.605 32.32C128.351 32.32 127.405 31.9467 126.765 31.2C126.138 30.44 125.825 29.4133 125.825 28.12V21.8H127.985V27.82C127.985 28.6733 128.185 29.3067 128.585 29.72C128.998 30.1333 129.511 30.34 130.125 30.34C130.685 30.34 131.165 30.2 131.565 29.92C131.965 29.6267 132.271 29.2467 132.485 28.78C132.711 28.3133 132.825 27.8133 132.825 27.28V21.8H134.965V32H132.945V30.62H132.825C132.638 30.94 132.378 31.2267 132.045 31.48C131.711 31.7333 131.338 31.9333 130.925 32.08C130.511 32.24 130.071 32.32 129.605 32.32ZM137.486 26.72V24.88H144.046V26.72H137.486ZM153.709 32.32C152.682 32.32 151.715 32.1333 150.809 31.76C149.902 31.3867 149.102 30.8667 148.409 30.2C147.729 29.52 147.189 28.7267 146.789 27.82C146.402 26.9 146.209 25.9067 146.209 24.84C146.209 23.7733 146.402 22.7867 146.789 21.88C147.189 20.96 147.729 20.1667 148.409 19.5C149.102 18.82 149.902 18.2933 150.809 17.92C151.715 17.5467 152.682 17.36 153.709 17.36C154.802 17.36 155.809 17.5533 156.729 17.94C157.662 18.3267 158.442 18.8667 159.069 19.56L157.549 21.06C157.242 20.7133 156.889 20.42 156.489 20.18C156.102 19.94 155.675 19.76 155.209 19.64C154.742 19.5067 154.242 19.44 153.709 19.44C153.002 19.44 152.329 19.5667 151.689 19.82C151.049 20.0733 150.482 20.44 149.989 20.92C149.509 21.3867 149.129 21.9533 148.849 22.62C148.569 23.2733 148.429 24.0133 148.429 24.84C148.429 25.6667 148.569 26.4133 148.849 27.08C149.142 27.7333 149.529 28.3 150.009 28.78C150.502 29.2467 151.069 29.6067 151.709 29.86C152.349 30.1133 153.022 30.24 153.729 30.24C154.382 30.24 154.989 30.1467 155.549 29.96C156.122 29.7733 156.622 29.5067 157.049 29.16C157.475 28.8133 157.822 28.3933 158.089 27.9C158.355 27.3933 158.522 26.8267 158.589 26.2H153.689V24.26H160.649C160.675 24.42 160.702 24.6067 160.729 24.82C160.755 25.02 160.769 25.2133 160.769 25.4V25.42C160.769 26.4467 160.589 27.3867 160.229 28.24C159.882 29.0933 159.395 29.8267 158.769 30.44C158.142 31.04 157.395 31.5067 156.529 31.84C155.675 32.16 154.735 32.32 153.709 32.32ZM167.208 32.32C166.155 32.32 165.228 32.08 164.428 31.6C163.628 31.12 163.002 30.4733 162.548 29.66C162.095 28.8333 161.868 27.9133 161.868 26.9C161.868 25.8867 162.095 24.9733 162.548 24.16C163.002 23.3333 163.628 22.68 164.428 22.2C165.228 21.72 166.155 21.48 167.208 21.48C168.248 21.48 169.168 21.7267 169.968 22.22C170.768 22.7 171.395 23.3467 171.848 24.16C172.302 24.9733 172.528 25.8867 172.528 26.9C172.528 27.9133 172.302 28.8333 171.848 29.66C171.395 30.4733 170.768 31.12 169.968 31.6C169.168 32.08 168.248 32.32 167.208 32.32ZM167.208 30.34C167.768 30.34 168.288 30.2067 168.768 29.94C169.248 29.66 169.635 29.2667 169.928 28.76C170.235 28.24 170.388 27.62 170.388 26.9C170.388 26.18 170.235 25.5667 169.928 25.06C169.635 24.54 169.248 24.1467 168.768 23.88C168.288 23.6 167.768 23.46 167.208 23.46C166.648 23.46 166.122 23.6 165.628 23.88C165.148 24.1467 164.755 24.54 164.448 25.06C164.155 25.5667 164.008 26.18 164.008 26.9C164.008 27.62 164.155 28.24 164.448 28.76C164.755 29.2667 165.155 29.66 165.648 29.94C166.142 30.2067 166.662 30.34 167.208 30.34ZM179.318 32.32C178.264 32.32 177.338 32.08 176.538 31.6C175.738 31.12 175.111 30.4733 174.658 29.66C174.204 28.8333 173.978 27.9133 173.978 26.9C173.978 25.8867 174.204 24.9733 174.658 24.16C175.111 23.3333 175.738 22.68 176.538 22.2C177.338 21.72 178.264 21.48 179.318 21.48C180.358 21.48 181.278 21.7267 182.078 22.22C182.878 22.7 183.504 23.3467 183.958 24.16C184.411 24.9733 184.638 25.8867 184.638 26.9C184.638 27.9133 184.411 28.8333 183.958 29.66C183.504 30.4733 182.878 31.12 182.078 31.6C181.278 32.08 180.358 32.32 179.318 32.32ZM179.318 30.34C179.878 30.34 180.398 30.2067 180.878 29.94C181.358 29.66 181.744 29.2667 182.038 28.76C182.344 28.24 182.498 27.62 182.498 26.9C182.498 26.18 182.344 25.5667 182.038 25.06C181.744 24.54 181.358 24.1467 180.878 23.88C180.398 23.6 179.878 23.46 179.318 23.46C178.758 23.46 178.231 23.6 177.738 23.88C177.258 24.1467 176.864 24.54 176.558 25.06C176.264 25.5667 176.118 26.18 176.118 26.9C176.118 27.62 176.264 28.24 176.558 28.76C176.864 29.2667 177.264 29.66 177.758 29.94C178.251 30.2067 178.771 30.34 179.318 30.34ZM191.227 36.64C190.334 36.64 189.561 36.4933 188.907 36.2C188.267 35.92 187.747 35.5533 187.347 35.1C186.947 34.66 186.661 34.2067 186.487 33.74L188.487 32.9C188.701 33.4333 189.041 33.8667 189.507 34.2C189.987 34.5467 190.561 34.72 191.227 34.72C192.174 34.72 192.914 34.44 193.447 33.88C193.981 33.32 194.247 32.5267 194.247 31.5V30.52H194.127C193.807 30.9867 193.367 31.3667 192.807 31.66C192.247 31.9533 191.601 32.1 190.867 32.1C190.001 32.1 189.201 31.88 188.467 31.44C187.747 31 187.167 30.3867 186.727 29.6C186.301 28.8 186.087 27.8667 186.087 26.8C186.087 25.72 186.301 24.7867 186.727 24C187.167 23.2 187.747 22.58 188.467 22.14C189.201 21.7 190.001 21.48 190.867 21.48C191.601 21.48 192.247 21.6267 192.807 21.92C193.367 22.2 193.807 22.5867 194.127 23.08H194.247V21.8H196.307V31.46C196.307 32.5667 196.087 33.5067 195.647 34.28C195.221 35.0533 194.627 35.64 193.867 36.04C193.107 36.44 192.227 36.64 191.227 36.64ZM191.247 30.14C191.781 30.14 192.274 30.0133 192.727 29.76C193.194 29.4933 193.561 29.1133 193.827 28.62C194.107 28.1133 194.247 27.5067 194.247 26.8C194.247 26.0533 194.107 25.4333 193.827 24.94C193.561 24.4467 193.194 24.0733 192.727 23.82C192.274 23.5667 191.781 23.44 191.247 23.44C190.714 23.44 190.214 23.5667 189.747 23.82C189.294 24.0733 188.927 24.4533 188.647 24.96C188.367 25.4533 188.227 26.0667 188.227 26.8C188.227 27.52 188.367 28.1333 188.647 28.64C188.927 29.1333 189.294 29.5067 189.747 29.76C190.214 30.0133 190.714 30.14 191.247 30.14ZM198.854 32V17.68H201.014V32H198.854ZM208.123 32.32C207.123 32.32 206.23 32.0867 205.443 31.62C204.656 31.1533 204.036 30.5133 203.583 29.7C203.143 28.8867 202.923 27.96 202.923 26.92C202.923 25.9467 203.136 25.0467 203.563 24.22C203.99 23.3933 204.583 22.7333 205.343 22.24C206.116 21.7333 207.003 21.48 208.003 21.48C209.056 21.48 209.95 21.7067 210.683 22.16C211.43 22.6133 211.996 23.2333 212.383 24.02C212.77 24.8067 212.963 25.6933 212.963 26.68C212.963 26.8267 212.956 26.96 212.943 27.08C212.943 27.2 212.936 27.2933 212.923 27.36H205.043C205.096 27.92 205.236 28.4067 205.463 28.82C205.756 29.34 206.143 29.7333 206.623 30C207.103 30.2667 207.623 30.4 208.183 30.4C208.863 30.4 209.43 30.2467 209.883 29.94C210.35 29.62 210.716 29.2267 210.983 28.76L212.763 29.62C212.323 30.42 211.723 31.0733 210.963 31.58C210.203 32.0733 209.256 32.32 208.123 32.32ZM205.163 25.74H210.823C210.81 25.4867 210.743 25.22 210.623 24.94C210.503 24.6467 210.33 24.38 210.103 24.14C209.876 23.9 209.59 23.7067 209.243 23.56C208.896 23.4 208.49 23.32 208.023 23.32C207.436 23.32 206.916 23.4733 206.463 23.78C206.01 24.0733 205.656 24.4867 205.403 25.02C205.296 25.2467 205.216 25.4867 205.163 25.74ZM221.754 32L217.914 17.68H220.354L222.634 26.98L222.874 28.22H222.994L223.294 26.98L226.174 17.68H228.374L231.134 26.98L231.434 28.2H231.554L231.794 26.98L234.074 17.68H236.494L232.714 32H230.394L227.654 22.5L227.334 21.16H227.214L226.874 22.5L224.014 32H221.754ZM240.511 32.32C239.777 32.32 239.124 32.1733 238.551 31.88C237.991 31.5867 237.544 31.1867 237.211 30.68C236.891 30.16 236.731 29.5667 236.731 28.9C236.731 28.1667 236.917 27.5467 237.291 27.04C237.677 26.5333 238.191 26.1467 238.831 25.88C239.471 25.6133 240.177 25.48 240.951 25.48C241.377 25.48 241.771 25.5133 242.131 25.58C242.504 25.6333 242.824 25.7 243.091 25.78C243.371 25.86 243.591 25.9467 243.751 26.04V25.5C243.751 24.8333 243.511 24.3 243.031 23.9C242.551 23.5 241.931 23.3 241.171 23.3C240.651 23.3 240.157 23.42 239.691 23.66C239.224 23.8867 238.851 24.2 238.571 24.6L237.091 23.46C237.384 23.0467 237.737 22.6933 238.151 22.4C238.577 22.1067 239.051 21.88 239.571 21.72C240.104 21.56 240.657 21.48 241.231 21.48C242.711 21.48 243.851 21.8467 244.651 22.58C245.451 23.3 245.851 24.3133 245.851 25.62V32H243.751V30.74H243.631C243.457 31.0067 243.217 31.26 242.911 31.5C242.617 31.74 242.264 31.9333 241.851 32.08C241.451 32.24 241.004 32.32 240.511 32.32ZM240.891 30.56C241.451 30.56 241.944 30.4267 242.371 30.16C242.811 29.8933 243.151 29.5467 243.391 29.12C243.631 28.68 243.751 28.2067 243.751 27.7C243.457 27.5267 243.097 27.3867 242.671 27.28C242.257 27.16 241.817 27.1 241.351 27.1C240.471 27.1 239.844 27.2733 239.471 27.62C239.097 27.9667 238.911 28.4 238.911 28.92C238.911 29.4 239.091 29.7933 239.451 30.1C239.811 30.4067 240.291 30.56 240.891 30.56ZM248.249 32V17.68H250.409V32H248.249ZM252.975 32V17.68H255.135V32H252.975ZM262.244 32.32C261.244 32.32 260.351 32.0867 259.564 31.62C258.778 31.1533 258.158 30.5133 257.704 29.7C257.264 28.8867 257.044 27.96 257.044 26.92C257.044 25.9467 257.258 25.0467 257.684 24.22C258.111 23.3933 258.704 22.7333 259.464 22.24C260.238 21.7333 261.124 21.48 262.124 21.48C263.178 21.48 264.071 21.7067 264.804 22.16C265.551 22.6133 266.118 23.2333 266.504 24.02C266.891 24.8067 267.084 25.6933 267.084 26.68C267.084 26.8267 267.078 26.96 267.064 27.08C267.064 27.2 267.058 27.2933 267.044 27.36H259.164C259.218 27.92 259.358 28.4067 259.584 28.82C259.878 29.34 260.264 29.7333 260.744 30C261.224 30.2667 261.744 30.4 262.304 30.4C262.984 30.4 263.551 30.2467 264.004 29.94C264.471 29.62 264.838 29.2267 265.104 28.76L266.884 29.62C266.444 30.42 265.844 31.0733 265.084 31.58C264.324 32.0733 263.378 32.32 262.244 32.32ZM259.284 25.74H264.944C264.931 25.4867 264.864 25.22 264.744 24.94C264.624 24.6467 264.451 24.38 264.224 24.14C263.998 23.9 263.711 23.7067 263.364 23.56C263.018 23.4 262.611 23.32 262.144 23.32C261.558 23.32 261.038 23.4733 260.584 23.78C260.131 24.0733 259.778 24.4867 259.524 25.02C259.418 25.2467 259.338 25.4867 259.284 25.74ZM268.095 21.8H269.875V18.92H272.035V21.8H274.535V23.68H272.035V28.58C272.035 29.0867 272.135 29.4733 272.335 29.74C272.548 30.0067 272.902 30.14 273.395 30.14C273.635 30.14 273.848 30.1067 274.035 30.04C274.222 29.96 274.408 29.8667 274.595 29.76V31.86C274.368 31.9533 274.128 32.0267 273.875 32.08C273.622 32.1333 273.322 32.16 272.975 32.16C272.028 32.16 271.275 31.8867 270.715 31.34C270.155 30.78 269.875 30.0133 269.875 29.04V23.68H268.095V21.8Z" fill="white"/>
</svg>
